<?xml version="1.0" encoding="UTF-8"?>
<svg xmlns="http://www.w3.org/2000/svg" xmlns:xlink="http://www.w3.org/1999/xlink" width="299.66pt" height="179.91pt" viewBox="0 0 299.66 179.91">
<defs>
<g>
<g id="glyph-0-0">
<path d="M 3.046875 -2.875 L 2.84375 -3.421875 C 2.71875 -3.75 2.53125 -4.15625 2.09375 -4.390625 L 0.78125 -4.0625 L 0.8125 -3.890625 C 0.90625 -3.921875 1.0625 -3.953125 1.1875 -3.953125 C 1.734375 -3.953125 2 -3.53125 2.15625 -3.0625 L 2.5 -2.140625 L 1.84375 -1.140625 C 1.53125 -0.640625 1.265625 -0.546875 1.140625 -0.546875 C 0.890625 -0.546875 0.9375 -0.75 0.671875 -0.75 C 0.421875 -0.75 0.296875 -0.53125 0.296875 -0.375 C 0.296875 -0.15625 0.453125 0.09375 0.8125 0.09375 C 1.375 0.09375 1.671875 -0.34375 1.984375 -0.828125 L 2.609375 -1.796875 L 3.015625 -0.671875 C 3.140625 -0.3125 3.328125 0.09375 3.734375 0.09375 C 4.3125 0.09375 4.765625 -0.875 4.890625 -1.015625 L 4.75 -1.109375 C 4.53125 -0.6875 4.296875 -0.546875 4.140625 -0.546875 C 3.6875 -0.546875 3.453125 -1.890625 3.15625 -2.515625 L 3.703125 -3.359375 C 3.84375 -3.578125 3.953125 -3.734375 4.25 -3.734375 C 4.421875 -3.734375 4.46875 -3.65625 4.6875 -3.65625 C 4.953125 -3.65625 5.078125 -3.875 5.078125 -4.0625 C 5.078125 -4.28125 4.921875 -4.390625 4.59375 -4.390625 C 4.09375 -4.390625 3.75 -3.953125 3.484375 -3.5625 Z M 3.046875 -2.875 "/>
</g>
<g id="glyph-0-1">
<path d="M 2.6875 -3.0625 C 2.609375 -3.796875 2.53125 -4.0625 2.296875 -4.390625 L 0.8125 -4.140625 L 0.828125 -3.984375 C 0.921875 -3.984375 1.078125 -4.015625 1.1875 -4.015625 C 1.75 -4.015625 1.828125 -3.421875 1.890625 -2.96875 L 2.265625 0.15625 C 2 0.5625 1.4375 1.171875 1.265625 1.171875 C 1.109375 1.171875 1.125 0.875 0.703125 0.875 C 0.5625 0.875 0.296875 0.984375 0.296875 1.28125 C 0.296875 1.515625 0.484375 1.828125 0.859375 1.828125 C 1.53125 1.828125 2.1875 0.84375 2.90625 -0.0625 C 3.328125 -0.59375 4.9375 -2.984375 4.9375 -3.765625 C 4.9375 -4.15625 4.6875 -4.390625 4.375 -4.390625 C 4.09375 -4.390625 3.90625 -4.203125 3.90625 -3.984375 C 3.90625 -3.609375 4.421875 -3.515625 4.421875 -3.296875 C 4.421875 -3.125 4.34375 -2.921875 4.140625 -2.546875 C 3.921875 -2.140625 3.578125 -1.546875 2.96875 -0.71875 Z M 2.6875 -3.0625 "/>
</g>
<g id="glyph-0-2">
<path d="M 7.09375 -4.1875 C 7.09375 -5.4375 6.28125 -6.671875 4.609375 -6.671875 C 2.078125 -6.671875 0.5 -4.234375 0.5 -2.21875 C 0.5 -0.84375 1.53125 0.109375 3.015625 0.109375 C 5.546875 0.109375 7.09375 -2.21875 7.09375 -4.1875 Z M 5.9375 -4.421875 C 5.9375 -3.015625 5.21875 -0.265625 3.09375 -0.265625 C 2.328125 -0.265625 1.703125 -0.796875 1.703125 -1.765625 C 1.703125 -3.1875 2.21875 -6.296875 4.53125 -6.296875 C 5.546875 -6.296875 5.9375 -5.484375 5.9375 -4.421875 Z M 5.9375 -4.421875 "/>
</g>
<g id="glyph-0-3">
<path d="M 6.1875 -2.1875 L 6.1875 -2.84375 L 0.640625 -2.84375 L 0.640625 -2.1875 Z M 6.1875 -2.1875 "/>
</g>
<g id="glyph-0-4">
<path d="M 4.71875 -1.359375 L 4.578125 -1.421875 C 4.25 -0.875 4.046875 -0.75 3.625 -0.75 L 1.296875 -0.75 L 2.9375 -2.515625 C 3.828125 -3.453125 4.21875 -4.203125 4.21875 -4.984375 C 4.21875 -5.96875 3.5 -6.734375 2.375 -6.734375 C 1.140625 -6.734375 0.515625 -5.921875 0.296875 -4.75 L 0.515625 -4.703125 C 0.90625 -5.6875 1.25 -6 1.96875 -6 C 2.828125 -6 3.359375 -5.5 3.359375 -4.59375 C 3.359375 -3.75 3 -2.984375 2.0625 -2 L 0.296875 -0.125 L 0.296875 0 L 4.1875 0 Z M 4.71875 -1.359375 "/>
</g>
<g id="glyph-0-5">
<path d="M 3.921875 0 L 3.921875 -0.15625 C 3.1875 -0.15625 2.984375 -0.328125 2.984375 -0.75 L 2.984375 -6.703125 L 2.890625 -6.734375 L 1.109375 -5.828125 L 1.109375 -5.6875 L 1.375 -5.796875 C 1.5625 -5.859375 1.71875 -5.90625 1.828125 -5.90625 C 2.03125 -5.90625 2.125 -5.765625 2.125 -5.421875 L 2.125 -0.953125 C 2.125 -0.40625 1.90625 -0.1875 1.171875 -0.15625 L 1.171875 0 Z M 3.921875 0 "/>
</g>
<g id="glyph-0-6">
<path d="M 1.796875 -0.421875 C 1.796875 -0.734375 1.546875 -1 1.25 -1 C 0.953125 -1 0.703125 -0.75 0.703125 -0.4375 C 0.703125 -0.125 0.9375 0.109375 1.25 0.109375 C 1.546875 0.109375 1.796875 -0.140625 1.796875 -0.421875 Z M 1.796875 -0.421875 "/>
</g>
<g id="glyph-0-7">
<path d="M 4.359375 -6.78125 L 4.28125 -6.859375 C 4.109375 -6.65625 4.03125 -6.59375 3.796875 -6.59375 L 1.734375 -6.59375 L 0.640625 -4.234375 C 0.640625 -4.234375 0.640625 -4.203125 0.640625 -4.1875 C 0.640625 -4.125 0.671875 -4.109375 0.75 -4.109375 C 1.71875 -4.109375 2.40625 -3.78125 2.875 -3.40625 C 3.328125 -3.046875 3.546875 -2.546875 3.546875 -1.90625 C 3.546875 -1.0625 2.90625 -0.234375 2.203125 -0.234375 C 2 -0.234375 1.78125 -0.3125 1.5 -0.546875 C 1.171875 -0.8125 0.984375 -0.859375 0.75 -0.859375 C 0.484375 -0.859375 0.3125 -0.734375 0.3125 -0.484375 C 0.3125 -0.09375 0.828125 0.140625 1.578125 0.140625 C 2.25 0.140625 2.796875 -0.015625 3.265625 -0.34375 C 3.953125 -0.84375 4.25 -1.46875 4.25 -2.421875 C 4.25 -2.953125 4.15625 -3.328125 3.890625 -3.6875 C 3.328125 -4.46875 2.828125 -4.6875 1.40625 -4.96875 L 1.796875 -5.8125 L 3.734375 -5.8125 C 3.890625 -5.8125 3.984375 -5.875 4 -5.9375 Z M 4.359375 -6.78125 "/>
</g>
<g id="glyph-0-8">
<path d="M 4.453125 -6.8125 C 3.078125 -6.671875 2.28125 -6.4375 1.421875 -5.53125 C 0.71875 -4.8125 0.34375 -3.859375 0.34375 -2.78125 C 0.34375 -2.078125 0.53125 -1.375 0.8125 -0.875 C 1.15625 -0.234375 1.78125 0.140625 2.578125 0.140625 C 3.234375 0.140625 3.78125 -0.125 4.15625 -0.59375 C 4.484375 -0.984375 4.671875 -1.546875 4.671875 -2.1875 C 4.671875 -3.46875 3.953125 -4.265625 2.78125 -4.265625 C 2.34375 -4.265625 2 -4.203125 1.515625 -3.8125 C 1.78125 -5.328125 2.90625 -6.40625 4.46875 -6.65625 Z M 3.765625 -1.875 C 3.765625 -0.859375 3.40625 -0.140625 2.6875 -0.140625 C 1.75 -0.140625 1.265625 -1.140625 1.265625 -2.65625 C 1.265625 -3.5625 1.859375 -3.8125 2.421875 -3.8125 C 3.34375 -3.8125 3.765625 -3.15625 3.765625 -1.875 Z M 3.765625 -1.875 "/>
</g>
</g>
<clipPath id="clip-0">
<path clip-rule="nonzero" d="M 9 24 L 244 24 L 244 179.910156 L 9 179.910156 Z M 9 24 "/>
</clipPath>
</defs>
<path fill="none" stroke-width="1.19553" stroke-linecap="butt" stroke-linejoin="miter" stroke="rgb(0%, 0%, 0%)" stroke-opacity="1" stroke-miterlimit="10" d="M -148.819875 -0.0005 L 121.82075 -0.0005 " transform="matrix(1, 0, 0, -1, 154.398, 131.812)"/>
<path fill-rule="nonzero" fill="rgb(0%, 0%, 0%)" fill-opacity="1" d="M 281.957031 131.8125 C 280.257812 131.492188 277.496094 130.535156 275.582031 129.421875 L 275.582031 134.203125 C 277.496094 133.085938 280.257812 132.128906 281.957031 131.8125 "/>
<g fill="rgb(0%, 0%, 0%)" fill-opacity="1">
<use xlink:href="#glyph-0-0" x="285.877" y="133.964"/>
</g>
<path fill="none" stroke-width="1.19553" stroke-linecap="butt" stroke-linejoin="miter" stroke="rgb(0%, 0%, 0%)" stroke-opacity="1" stroke-miterlimit="10" d="M 0.0004375 -42.520031 L 0.0004375 107.647937 " transform="matrix(1, 0, 0, -1, 154.398, 131.812)"/>
<path fill-rule="nonzero" fill="rgb(0%, 0%, 0%)" fill-opacity="1" d="M 154.398438 18.425781 C 154.078125 20.125 153.121094 22.886719 152.007812 24.800781 L 156.789062 24.800781 C 155.671875 22.886719 154.714844 20.125 154.398438 18.425781 "/>
<g fill="rgb(0%, 0%, 0%)" fill-opacity="1">
<use xlink:href="#glyph-0-1" x="151.927" y="12.683"/>
</g>
<g clip-path="url(#clip-0)">
<path fill="none" stroke-width="1.19553" stroke-linecap="butt" stroke-linejoin="miter" stroke="rgb(0%, 0%, 100%)" stroke-opacity="1" stroke-miterlimit="10" d="M -127.562062 63.78075 C -127.562062 63.78075 -126.101125 59.011219 -125.542531 57.257312 C -124.983937 55.503406 -124.0855 52.784656 -123.523 51.140125 C -122.964406 49.4995 -122.065969 46.956531 -121.503469 45.421375 C -120.944875 43.890125 -120.046437 41.519031 -119.487844 40.09325 C -118.925344 38.663562 -118.026906 36.464344 -117.468312 35.140125 C -116.909719 33.815906 -116.011281 31.78075 -115.448781 30.558094 C -114.890187 29.335437 -113.99175 27.456531 -113.433156 26.335437 C -112.870656 25.214344 -111.972219 23.491687 -111.413625 22.464344 C -110.851125 21.437 -109.956594 19.870594 -109.394094 18.937 C -108.8355 18.003406 -107.937062 16.585437 -107.374562 15.741687 C -106.815969 14.901844 -105.917531 13.6245 -105.358937 12.870594 C -104.796437 12.120594 -103.898 10.983875 -103.339406 10.315906 C -102.780812 9.651844 -101.882375 8.651844 -101.319875 8.069812 C -100.761281 7.483875 -99.862844 6.616687 -99.30425 6.116687 C -98.74175 5.612781 -97.843312 4.8745 -97.284719 4.452625 C -96.722219 4.026844 -95.823781 3.413562 -95.265187 3.065906 C -94.706594 2.71825 -93.808156 2.222156 -93.245656 1.948719 C -92.687062 1.675281 -91.788625 1.296375 -91.230031 1.09325 C -90.667531 0.890125 -89.769094 0.6245 -89.2105 0.491687 C -88.651906 0.354969 -87.753469 0.194812 -87.190969 0.128406 C -86.632375 0.062 -85.733937 0.00340625 -85.175344 -0.0005 C -84.612844 -0.00440625 -83.714406 0.0385625 -83.155812 0.0971562 C -82.593312 0.151844 -81.694875 0.292469 -81.136281 0.40575 C -80.577687 0.522937 -79.67925 0.753406 -79.11675 0.925281 C -78.558156 1.09325 -77.659719 1.413562 -77.101125 1.636219 C -76.538625 1.862781 -75.640187 2.265125 -75.081594 2.538562 C -74.523 2.815906 -73.624562 3.296375 -73.062062 3.620594 C -72.503469 3.940906 -71.605031 4.4995 -71.042531 4.870594 C -70.483937 5.237781 -69.5855 5.866687 -69.026906 6.28075 C -68.464406 6.690906 -67.565969 7.386219 -67.007375 7.839344 C -66.448781 8.292469 -65.550344 9.054187 -64.987844 9.546375 C -64.42925 10.034656 -63.530812 10.854969 -62.972219 11.382312 C -62.409719 11.909656 -61.511281 12.784656 -60.952687 13.34325 C -60.390187 13.901844 -59.495656 14.827625 -58.933156 15.421375 C -58.374562 16.011219 -57.476125 16.983875 -56.913625 17.601062 C -56.355031 18.222156 -55.456594 19.237781 -54.898 19.882312 C -54.3355 20.526844 -53.437062 21.581531 -52.878469 22.2495 C -52.319875 22.913562 -51.421437 24.003406 -50.858937 24.694812 C -50.300344 25.382312 -49.401906 26.503406 -48.843312 27.206531 C -48.280812 27.913562 -47.382375 29.062 -46.823781 29.784656 C -46.261281 30.503406 -45.362844 31.675281 -44.80425 32.409656 C -44.245656 33.144031 -43.347219 34.335437 -42.784719 35.077625 C -42.226125 35.823719 -41.327687 37.026844 -40.769094 37.78075 C -40.206594 38.534656 -39.308156 39.7495 -38.749562 40.507312 C -38.190969 41.265125 -37.292531 42.487781 -36.730031 43.2495 C -36.171437 44.011219 -35.273 45.233875 -34.714406 45.995594 C -34.151906 46.757312 -33.253469 47.979969 -32.694875 48.737781 C -32.132375 49.4995 -31.233937 50.714344 -30.675344 51.46825 C -30.11675 52.226062 -29.218312 53.433094 -28.655812 54.179187 C -28.097219 54.925281 -27.198781 56.120594 -26.640187 56.858875 C -26.077687 57.597156 -25.17925 58.772937 -24.620656 59.4995 C -24.062062 60.222156 -23.163625 61.378406 -22.601125 62.089344 C -22.042531 62.800281 -21.144094 63.929187 -20.581594 64.620594 C -20.023 65.315906 -19.124562 66.413562 -18.565969 67.089344 C -18.003469 67.761219 -17.105031 68.827625 -16.546437 69.479969 C -15.987844 70.128406 -15.089406 71.15575 -14.526906 71.784656 C -13.968312 72.409656 -13.069875 73.394031 -12.511281 73.995594 C -11.948781 74.59325 -11.050344 75.53075 -10.49175 76.101062 C -9.92925 76.671375 -9.034719 77.562 -8.472219 78.097156 C -7.913625 78.632312 -7.015187 79.46825 -6.452687 79.96825 C -5.894094 80.472156 -4.995656 81.2495 -4.437062 81.714344 C -3.874562 82.179187 -2.976125 82.894031 -2.417531 83.315906 C -1.858937 83.741687 -0.9605 84.390125 -0.398 84.769031 C 0.160594 85.151844 1.059031 85.729969 1.617625 86.065906 C 2.180125 86.40575 3.078563 86.909656 3.637156 87.198719 C 4.199656 87.487781 5.098094 87.913562 5.656688 88.151844 C 6.215281 88.390125 7.113719 88.733875 7.676219 88.917469 C 8.234813 89.104969 9.13325 89.362781 9.691844 89.491687 C 10.254344 89.6245 11.152781 89.788562 11.711375 89.862781 C 12.269969 89.937 13.168406 90.007312 13.730906 90.022937 C 14.2895 90.034656 15.187938 90.007312 15.750438 89.956531 C 16.309031 89.909656 17.207469 89.78075 17.766063 89.663562 C 18.328563 89.550281 19.227 89.312 19.785594 89.128406 C 20.344188 88.948719 21.242625 88.601062 21.805125 88.347156 C 22.363719 88.09325 23.262156 87.632312 23.82075 87.308094 C 24.38325 86.979969 25.281688 86.401844 25.840281 85.9995 C 26.398875 85.597156 27.297313 84.894031 27.859813 84.413562 C 28.418406 83.937 29.316844 83.104969 29.879344 82.546375 C 30.437938 81.987781 31.336375 81.022937 31.894969 80.382312 C 32.457469 79.741687 33.355906 78.644031 33.9145 77.917469 C 34.473094 77.187 35.371531 75.952625 35.934031 75.136219 C 36.492625 74.319812 37.391063 72.940906 37.949656 72.034656 C 38.512156 71.128406 39.410594 69.601062 39.969188 68.604969 C 40.531688 67.604969 41.426219 65.925281 41.988719 64.831531 C 42.547313 63.737781 43.44575 61.90575 44.00825 60.710437 C 44.566844 59.519031 45.465281 57.526844 46.023875 56.233875 C 46.586375 54.937 47.484813 52.784656 48.043406 51.386219 C 48.602 49.991687 49.500438 47.667469 50.062938 46.163562 C 50.621531 44.663562 51.519969 42.167469 52.078563 40.558094 C 52.641063 38.948719 53.5395 36.276844 54.098094 34.554187 C 54.660594 32.835437 55.559031 29.983875 56.117625 28.151844 C 56.676219 26.315906 57.574656 23.284656 58.137156 21.331531 C 58.69575 19.382312 59.594188 16.163562 60.152781 14.09325 C 60.715281 12.022937 61.613719 8.612781 62.172313 6.425281 C 62.730906 4.233875 63.629344 0.628406 64.191844 -1.684094 C 64.750438 -3.996594 65.648875 -7.805188 66.211375 -10.242688 C 66.769969 -12.684094 67.668406 -16.695813 68.227 -19.262219 C 68.7895 -21.828625 69.687938 -26.047375 70.246531 -28.746594 C 70.805125 -31.445813 72.266063 -38.707531 72.266063 -38.707531 " transform="matrix(1, 0, 0, -1, 154.398, 131.812)"/>
</g>
<g fill="rgb(0%, 0%, 0%)" fill-opacity="1">
<use xlink:href="#glyph-0-2" x="143.386" y="141.997"/>
</g>
<path fill-rule="nonzero" fill="rgb(0%, 0%, 0%)" fill-opacity="1" stroke-width="0.3985" stroke-linecap="butt" stroke-linejoin="miter" stroke="rgb(0%, 0%, 0%)" stroke-opacity="1" stroke-miterlimit="10" d="M -83.546437 -0.0005 C -83.546437 0.823719 -84.214406 1.495594 -85.038625 1.495594 C -85.86675 1.495594 -86.534719 0.823719 -86.534719 -0.0005 C -86.534719 -0.824719 -85.86675 -1.492688 -85.038625 -1.492688 C -84.214406 -1.492688 -83.546437 -0.824719 -83.546437 -0.0005 Z M -83.546437 -0.0005 " transform="matrix(1, 0, 0, -1, 154.398, 131.812)"/>
<g fill="rgb(0%, 0%, 0%)" fill-opacity="1">
<use xlink:href="#glyph-0-3" x="63.455" y="128.292"/>
<use xlink:href="#glyph-0-4" x="70.279381" y="128.292"/>
</g>
<path fill-rule="nonzero" fill="rgb(0%, 0%, 0%)" fill-opacity="1" stroke-width="0.3985" stroke-linecap="butt" stroke-linejoin="miter" stroke="rgb(0%, 0%, 0%)" stroke-opacity="1" stroke-miterlimit="10" d="M 65.273875 -0.0005 C 65.273875 0.823719 64.605906 1.495594 63.781688 1.495594 C 62.953563 1.495594 62.285594 0.823719 62.285594 -0.0005 C 62.285594 -0.824719 62.953563 -1.492688 63.781688 -1.492688 C 64.605906 -1.492688 65.273875 -0.824719 65.273875 -0.0005 Z M 65.273875 -0.0005 " transform="matrix(1, 0, 0, -1, 154.398, 131.812)"/>
<g fill="rgb(0%, 0%, 0%)" fill-opacity="1">
<use xlink:href="#glyph-0-5" x="211.952" y="142.186"/>
<use xlink:href="#glyph-0-6" x="216.9333" y="142.186"/>
<use xlink:href="#glyph-0-7" x="219.42395" y="142.186"/>
</g>
<path fill-rule="nonzero" fill="rgb(0%, 0%, 0%)" fill-opacity="1" stroke-width="0.3985" stroke-linecap="butt" stroke-linejoin="miter" stroke="rgb(0%, 0%, 0%)" stroke-opacity="1" stroke-miterlimit="10" d="M 1.492625 85.038562 C 1.492625 85.866687 0.824656 86.534656 0.0004375 86.534656 C -0.823781 86.534656 -1.495656 85.866687 -1.495656 85.038562 C -1.495656 84.214344 -0.823781 83.546375 0.0004375 83.546375 C 0.824656 83.546375 1.492625 84.214344 1.492625 85.038562 Z M 1.492625 85.038562 " transform="matrix(1, 0, 0, -1, 154.398, 131.812)"/>
<g fill="rgb(0%, 0%, 0%)" fill-opacity="1">
<use xlink:href="#glyph-0-8" x="157.918" y="50.109"/>
</g>
</svg>
