<?xml version="1.0" encoding="UTF-8"?>
<svg xmlns="http://www.w3.org/2000/svg" xmlns:xlink="http://www.w3.org/1999/xlink" width="278.4pt" height="152.13pt" viewBox="0 0 278.4 152.13">
<defs>
<g>
<g id="glyph-0-0">
<path d="M 3.046875 -2.875 L 2.84375 -3.421875 C 2.71875 -3.75 2.53125 -4.15625 2.09375 -4.390625 L 0.78125 -4.0625 L 0.8125 -3.890625 C 0.90625 -3.921875 1.0625 -3.953125 1.1875 -3.953125 C 1.734375 -3.953125 2 -3.53125 2.15625 -3.0625 L 2.5 -2.140625 L 1.84375 -1.140625 C 1.53125 -0.640625 1.265625 -0.546875 1.140625 -0.546875 C 0.890625 -0.546875 0.9375 -0.75 0.671875 -0.75 C 0.421875 -0.75 0.296875 -0.53125 0.296875 -0.375 C 0.296875 -0.15625 0.453125 0.09375 0.8125 0.09375 C 1.375 0.09375 1.671875 -0.34375 1.984375 -0.828125 L 2.609375 -1.796875 L 3.015625 -0.671875 C 3.140625 -0.3125 3.328125 0.09375 3.734375 0.09375 C 4.3125 0.09375 4.765625 -0.875 4.890625 -1.015625 L 4.75 -1.109375 C 4.53125 -0.6875 4.296875 -0.546875 4.140625 -0.546875 C 3.6875 -0.546875 3.453125 -1.890625 3.15625 -2.515625 L 3.703125 -3.359375 C 3.84375 -3.578125 3.953125 -3.734375 4.25 -3.734375 C 4.421875 -3.734375 4.46875 -3.65625 4.6875 -3.65625 C 4.953125 -3.65625 5.078125 -3.875 5.078125 -4.0625 C 5.078125 -4.28125 4.921875 -4.390625 4.59375 -4.390625 C 4.09375 -4.390625 3.75 -3.953125 3.484375 -3.5625 Z M 3.046875 -2.875 "/>
</g>
<g id="glyph-0-1">
<path d="M 2.6875 -3.0625 C 2.609375 -3.796875 2.53125 -4.0625 2.296875 -4.390625 L 0.8125 -4.140625 L 0.828125 -3.984375 C 0.921875 -3.984375 1.078125 -4.015625 1.1875 -4.015625 C 1.75 -4.015625 1.828125 -3.421875 1.890625 -2.96875 L 2.265625 0.15625 C 2 0.5625 1.4375 1.171875 1.265625 1.171875 C 1.109375 1.171875 1.125 0.875 0.703125 0.875 C 0.5625 0.875 0.296875 0.984375 0.296875 1.28125 C 0.296875 1.515625 0.484375 1.828125 0.859375 1.828125 C 1.53125 1.828125 2.1875 0.84375 2.90625 -0.0625 C 3.328125 -0.59375 4.9375 -2.984375 4.9375 -3.765625 C 4.9375 -4.15625 4.6875 -4.390625 4.375 -4.390625 C 4.09375 -4.390625 3.90625 -4.203125 3.90625 -3.984375 C 3.90625 -3.609375 4.421875 -3.515625 4.421875 -3.296875 C 4.421875 -3.125 4.34375 -2.921875 4.140625 -2.546875 C 3.921875 -2.140625 3.578125 -1.546875 2.96875 -0.71875 Z M 2.6875 -3.0625 "/>
</g>
<g id="glyph-0-2">
<path d="M 7.09375 -4.1875 C 7.09375 -5.4375 6.28125 -6.671875 4.609375 -6.671875 C 2.078125 -6.671875 0.5 -4.234375 0.5 -2.21875 C 0.5 -0.84375 1.53125 0.109375 3.015625 0.109375 C 5.546875 0.109375 7.09375 -2.21875 7.09375 -4.1875 Z M 5.9375 -4.421875 C 5.9375 -3.015625 5.21875 -0.265625 3.09375 -0.265625 C 2.328125 -0.265625 1.703125 -0.796875 1.703125 -1.765625 C 1.703125 -3.1875 2.21875 -6.296875 4.53125 -6.296875 C 5.546875 -6.296875 5.9375 -5.484375 5.9375 -4.421875 Z M 5.9375 -4.421875 "/>
</g>
<g id="glyph-0-3">
<path d="M 6.1875 -2.1875 L 6.1875 -2.84375 L 0.640625 -2.84375 L 0.640625 -2.1875 Z M 6.1875 -2.1875 "/>
</g>
<g id="glyph-0-4">
<path d="M 0.609375 -5.078125 C 1.015625 -5.828125 1.46875 -6.140625 2.09375 -6.140625 C 2.75 -6.140625 3.171875 -5.796875 3.171875 -5.125 C 3.171875 -4.515625 2.84375 -4.0625 2.359375 -3.78125 C 2.15625 -3.671875 1.90625 -3.5625 1.53125 -3.421875 L 1.53125 -3.296875 C 2.09375 -3.296875 2.328125 -3.265625 2.546875 -3.1875 C 3.234375 -2.984375 3.578125 -2.5 3.578125 -1.75 C 3.578125 -0.890625 3.015625 -0.21875 2.28125 -0.21875 C 2 -0.21875 1.796875 -0.265625 1.421875 -0.53125 C 1.140625 -0.734375 0.984375 -0.78125 0.8125 -0.78125 C 0.59375 -0.78125 0.40625 -0.640625 0.40625 -0.421875 C 0.40625 -0.0625 0.796875 0.140625 1.53125 0.140625 C 2.40625 0.140625 3.359375 -0.15625 3.84375 -0.78125 C 4.125 -1.171875 4.296875 -1.65625 4.296875 -2.1875 C 4.296875 -2.703125 4.140625 -3.15625 3.859375 -3.46875 C 3.65625 -3.6875 3.46875 -3.8125 3.03125 -4 C 3.703125 -4.390625 3.953125 -4.890625 3.953125 -5.375 C 3.953125 -6.1875 3.328125 -6.734375 2.40625 -6.734375 C 1.359375 -6.734375 0.734375 -6.078125 0.453125 -5.125 Z M 0.609375 -5.078125 "/>
</g>
<g id="glyph-0-5">
<path d="M 3.921875 0 L 3.921875 -0.15625 C 3.1875 -0.15625 2.984375 -0.328125 2.984375 -0.75 L 2.984375 -6.703125 L 2.890625 -6.734375 L 1.109375 -5.828125 L 1.109375 -5.6875 L 1.375 -5.796875 C 1.5625 -5.859375 1.71875 -5.90625 1.828125 -5.90625 C 2.03125 -5.90625 2.125 -5.765625 2.125 -5.421875 L 2.125 -0.953125 C 2.125 -0.40625 1.90625 -0.1875 1.171875 -0.15625 L 1.171875 0 Z M 3.921875 0 "/>
</g>
<g id="glyph-0-6">
<path d="M 7.578125 -6.515625 L 5.171875 -6.515625 L 5.140625 -6.34375 L 5.328125 -6.34375 C 5.71875 -6.34375 5.859375 -6.28125 5.859375 -6.125 C 5.859375 -5.921875 5.65625 -5.625 5.46875 -5.390625 L 2.6875 -1.75 L 2.640625 -1.75 L 2.640625 -5.65625 C 2.640625 -5.984375 2.6875 -6.34375 3.34375 -6.34375 L 3.53125 -6.34375 L 3.5625 -6.515625 L 0.640625 -6.515625 L 0.59375 -6.34375 C 1.203125 -6.34375 1.578125 -6.109375 1.578125 -5.53125 L 1.578125 0.15625 L 1.828125 0.15625 L 6.21875 -5.578125 C 6.484375 -5.921875 6.890625 -6.3125 7.53125 -6.34375 Z M 7.578125 -6.515625 "/>
</g>
<g id="glyph-0-7">
<path d="M 3.03125 1.609375 C 1.640625 0.4375 1.328125 -0.6875 1.328125 -2.546875 C 1.328125 -4.46875 1.640625 -5.390625 3.03125 -6.578125 L 2.9375 -6.734375 C 1.34375 -5.796875 0.484375 -4.359375 0.484375 -2.515625 C 0.484375 -0.8125 1.328125 0.875 2.90625 1.765625 Z M 3.03125 1.609375 "/>
</g>
<g id="glyph-0-8">
<path d="M 0.828125 1.40625 C 1.515625 1.078125 1.9375 0.453125 1.9375 -0.15625 C 1.9375 -0.671875 1.59375 -1.015625 1.140625 -1.015625 C 0.78125 -1.015625 0.546875 -0.78125 0.546875 -0.453125 C 0.546875 -0.109375 0.75 0.0625 1.125 0.0625 C 1.234375 0.0625 1.328125 0.015625 1.421875 0.015625 C 1.5 0.015625 1.5625 0.078125 1.5625 0.15625 C 1.5625 0.484375 1.28125 0.84375 0.734375 1.21875 Z M 0.828125 1.40625 "/>
</g>
<g id="glyph-0-9">
<path d="M 4.71875 -1.671875 L 4.71875 -2.296875 L 3.6875 -2.296875 L 3.6875 -6.734375 L 3.25 -6.734375 L 0.125 -2.296875 L 0.125 -1.671875 L 2.90625 -1.671875 L 2.90625 0 L 3.6875 0 L 3.6875 -1.671875 Z M 2.90625 -2.296875 L 0.515625 -2.296875 L 2.90625 -5.71875 Z M 2.90625 -2.296875 "/>
</g>
<g id="glyph-0-10">
<path d="M 0.296875 -6.578125 C 1.734375 -5.4375 1.984375 -4.296875 1.984375 -2.4375 C 1.984375 -0.5 1.703125 0.4375 0.296875 1.609375 L 0.375 1.765625 C 1.96875 0.796875 2.84375 -0.625 2.84375 -2.46875 C 2.84375 -4.15625 1.9375 -5.828125 0.40625 -6.734375 Z M 0.296875 -6.578125 "/>
</g>
</g>
</defs>
<path fill="none" stroke-width="1.19553" stroke-linecap="butt" stroke-linejoin="miter" stroke="rgb(0%, 0%, 0%)" stroke-opacity="1" stroke-miterlimit="10" d="M -170.079875 0.0008125 L 79.302938 0.0008125 " transform="matrix(1, 0, 0, -1, 175.658, 75.118)"/>
<path fill-rule="nonzero" fill="rgb(0%, 0%, 0%)" fill-opacity="1" d="M 260.699219 75.117188 C 259 74.800781 256.234375 73.84375 254.324219 72.726562 L 254.324219 77.507812 C 256.234375 76.394531 259 75.4375 260.699219 75.117188 "/>
<g fill="rgb(0%, 0%, 0%)" fill-opacity="1">
<use xlink:href="#glyph-0-0" x="264.617" y="77.27"/>
</g>
<path fill="none" stroke-width="1.19553" stroke-linecap="butt" stroke-linejoin="miter" stroke="rgb(0%, 0%, 0%)" stroke-opacity="1" stroke-miterlimit="10" d="M -0.00175 -70.866375 L -0.00175 50.953938 " transform="matrix(1, 0, 0, -1, 175.658, 75.118)"/>
<path fill-rule="nonzero" fill="rgb(0%, 0%, 0%)" fill-opacity="1" d="M 175.65625 18.425781 C 175.339844 20.125 174.382812 22.886719 173.265625 24.800781 L 178.050781 24.800781 C 176.933594 22.886719 175.976562 20.125 175.65625 18.425781 "/>
<g fill="rgb(0%, 0%, 0%)" fill-opacity="1">
<use xlink:href="#glyph-0-1" x="173.187" y="12.683"/>
</g>
<path fill="none" stroke-width="1.19553" stroke-linecap="butt" stroke-linejoin="miter" stroke="rgb(0%, 0%, 100%)" stroke-opacity="1" stroke-miterlimit="10" d="M -148.822062 31.891438 C -148.822062 31.891438 -147.271281 29.321125 -146.673625 28.348469 C -146.079875 27.375813 -145.122844 25.832844 -144.525187 24.879719 C -143.931437 23.926594 -142.974406 22.414875 -142.380656 21.481281 C -141.783 20.547688 -140.829875 19.067219 -140.232219 18.157063 C -139.638469 17.243 -138.681437 15.793781 -138.087687 14.903156 C -137.490031 14.008625 -136.536906 12.594563 -135.93925 11.723469 C -135.3455 10.848469 -134.388469 9.465656 -133.790812 8.614094 C -133.197062 7.762531 -132.240031 6.410969 -131.646281 5.578938 C -131.048625 4.743 -130.0955 3.426594 -129.497844 2.614094 C -128.904094 1.801594 -127.947062 0.512531 -127.353312 -0.276531 C -126.755656 -1.0695 -125.802531 -2.323406 -125.204875 -3.096844 C -124.607219 -3.870281 -123.654094 -5.092937 -123.056437 -5.842937 C -122.462687 -6.596844 -121.505656 -7.78825 -120.911906 -8.518719 C -120.31425 -9.253094 -119.361125 -10.409344 -118.763469 -11.124187 C -118.169719 -11.835125 -117.212687 -12.960125 -116.618937 -13.651531 C -116.021281 -14.342937 -115.06425 -15.436687 -114.4705 -16.108562 C -113.872844 -16.784344 -112.919719 -17.842937 -112.322062 -18.495281 C -111.728312 -19.147625 -110.771281 -20.178875 -110.177531 -20.811687 C -109.579875 -21.440594 -108.62675 -22.440594 -108.029094 -23.049969 C -107.435344 -23.66325 -106.478312 -24.628094 -105.884562 -25.221844 C -105.286906 -25.811687 -104.329875 -26.745281 -103.736125 -27.315594 C -103.138469 -27.889812 -102.185344 -28.78825 -101.587687 -29.342937 C -100.993937 -29.893719 -100.036906 -30.760906 -99.443156 -31.292156 C -98.8455 -31.823406 -97.892375 -32.66325 -97.294719 -33.174969 C -96.700969 -33.686687 -95.743937 -34.487469 -95.146281 -34.979656 C -94.552531 -35.471844 -93.5955 -36.245281 -93.00175 -36.717937 C -92.404094 -37.186687 -91.450969 -37.928875 -90.853312 -38.378094 C -90.259562 -38.831219 -89.302531 -39.53825 -88.708781 -39.971844 C -88.111125 -40.401531 -87.158 -41.077312 -86.560344 -41.487469 C -85.966594 -41.901531 -85.009562 -42.542156 -84.411906 -42.936687 C -83.818156 -43.327312 -82.861125 -43.936687 -82.267375 -44.307781 C -81.669719 -44.678875 -80.716594 -45.260906 -80.118937 -45.612469 C -79.525187 -45.960125 -78.568156 -46.510906 -77.974406 -46.839031 C -77.37675 -47.171062 -76.423625 -47.686687 -75.825969 -47.999187 C -75.232219 -48.307781 -74.275187 -48.792156 -73.677531 -49.081219 C -73.083781 -49.374187 -72.12675 -49.823406 -71.533 -50.096844 C -70.935344 -50.366375 -69.982219 -50.784344 -69.384562 -51.034344 C -68.790812 -51.28825 -67.833781 -51.671062 -67.240031 -51.905437 C -66.642375 -52.135906 -65.68925 -52.487469 -65.091594 -52.698406 C -64.493937 -52.909344 -63.540812 -53.233562 -62.943156 -53.424969 C -62.349406 -53.612469 -61.392375 -53.905437 -60.798625 -54.073406 C -60.200969 -54.245281 -59.247844 -54.503094 -58.650187 -54.655437 C -58.056437 -54.803875 -57.099406 -55.030437 -56.505656 -55.159344 C -55.908 -55.292156 -54.950969 -55.483562 -54.357219 -55.596844 C -53.759562 -55.706219 -52.806437 -55.866375 -52.208781 -55.956219 C -51.615031 -56.049969 -50.658 -56.178875 -50.06425 -56.249187 C -49.466594 -56.3195 -48.513469 -56.41325 -47.915812 -56.464031 C -47.322062 -56.514812 -46.365031 -56.581219 -45.771281 -56.612469 C -45.173625 -56.639812 -44.216594 -56.674969 -43.622844 -56.682781 C -43.025187 -56.6945 -42.072062 -56.6945 -41.474406 -56.686687 C -40.880656 -56.674969 -39.923625 -56.643719 -39.329875 -56.612469 C -38.732219 -56.585125 -37.779094 -56.518719 -37.181437 -56.471844 C -36.587687 -56.421062 -35.630656 -56.323406 -35.033 -56.253094 C -34.43925 -56.182781 -33.482219 -56.057781 -32.888469 -55.967937 C -32.290812 -55.878094 -31.337687 -55.714031 -30.740031 -55.604656 C -30.146281 -55.495281 -29.18925 -55.303875 -28.5955 -55.174969 C -27.997844 -55.042156 -27.044719 -54.8195 -26.447062 -54.667156 C -25.853312 -54.518719 -24.896281 -54.260906 -24.298625 -54.092937 C -23.704875 -53.921062 -22.747844 -53.632 -22.154094 -53.440594 C -21.556437 -53.253094 -20.603312 -52.928875 -20.005656 -52.721844 C -19.411906 -52.510906 -18.454875 -52.155437 -17.861125 -51.924969 C -17.263469 -51.6945 -16.310344 -51.311687 -15.712687 -51.061687 C -15.118937 -50.807781 -14.161906 -50.393719 -13.56425 -50.120281 C -12.9705 -49.85075 -12.013469 -49.401531 -11.419719 -49.112469 C -10.822062 -48.8195 -9.868937 -48.339031 -9.271281 -48.026531 C -8.677531 -47.717937 -7.7205 -47.202312 -7.12675 -46.874187 C -6.529094 -46.542156 -5.575969 -45.995281 -4.978312 -45.643719 C -4.380656 -45.296062 -3.427531 -44.714031 -2.829875 -44.346844 C -2.236125 -43.97575 -1.279094 -43.362469 -0.685344 -42.971844 C -0.0876875 -42.581219 0.865438 -41.940594 1.463094 -41.530437 C 2.056844 -41.116375 3.013875 -40.4445 3.607625 -40.010906 C 4.205281 -39.581219 5.162313 -38.874187 5.756063 -38.421062 C 6.353719 -37.971844 7.306844 -37.233562 7.9045 -36.760906 C 8.49825 -36.292156 9.455281 -35.518719 10.049031 -35.026531 C 10.646688 -34.53825 11.599813 -33.733562 12.197469 -33.221844 C 12.791219 -32.710125 13.74825 -31.874187 14.342 -31.346844 C 14.939656 -30.815594 15.896688 -29.9445 16.490438 -29.393719 C 17.088094 -28.842937 18.041219 -27.9445 18.638875 -27.370281 C 19.232625 -26.799969 20.189656 -25.870281 20.783406 -25.276531 C 21.381063 -24.686687 22.334188 -23.721844 22.931844 -23.108562 C 23.525594 -22.499187 24.482625 -21.503094 25.080281 -20.870281 C 25.674031 -20.241375 26.631063 -19.210125 27.224813 -18.557781 C 27.822469 -17.909344 28.775594 -16.846844 29.37325 -16.174969 C 29.967 -15.503094 30.924031 -14.409344 31.517781 -13.717937 C 32.115438 -13.026531 33.068563 -11.901531 33.666219 -11.190594 C 34.259969 -10.479656 35.217 -9.323406 35.814656 -8.589031 C 36.408406 -7.858562 37.365438 -6.671062 37.959188 -5.917156 C 38.556844 -5.167156 39.509969 -3.9445 40.107625 -3.171062 C 40.701375 -2.401531 41.658406 -1.147625 42.252156 -0.354656 C 42.849813 0.438313 43.802938 1.723469 44.400594 2.535969 C 44.994344 3.348469 45.951375 4.664875 46.549031 5.496906 C 47.142781 6.328938 48.099813 7.6805 48.693563 8.532063 C 49.291219 9.383625 50.244344 10.766438 50.842 11.637531 C 51.43575 12.508625 52.392781 13.922688 52.986531 14.817219 C 53.584188 15.707844 54.537313 17.153156 55.134969 18.067219 C 55.732625 18.977375 56.68575 20.457844 57.283406 21.391438 C 57.877156 22.321125 58.834188 23.832844 59.427938 24.785969 C 60.025594 25.739094 60.978719 27.282063 61.576375 28.254719 C 62.170125 29.227375 63.720906 31.793781 63.720906 31.793781 " transform="matrix(1, 0, 0, -1, 175.658, 75.118)"/>
<g fill="rgb(0%, 0%, 0%)" fill-opacity="1">
<use xlink:href="#glyph-0-2" x="164.646" y="85.303"/>
</g>
<path fill-rule="nonzero" fill="rgb(0%, 0%, 0%)" fill-opacity="1" stroke-width="0.3985" stroke-linecap="butt" stroke-linejoin="miter" stroke="rgb(0%, 0%, 0%)" stroke-opacity="1" stroke-miterlimit="10" d="M -126.068156 0.0008125 C -126.068156 0.825031 -126.736125 1.493 -127.560344 1.493 C -128.384562 1.493 -129.056437 0.825031 -129.056437 0.0008125 C -129.056437 -0.823406 -128.384562 -1.495281 -127.560344 -1.495281 C -126.736125 -1.495281 -126.068156 -0.823406 -126.068156 0.0008125 Z M -126.068156 0.0008125 " transform="matrix(1, 0, 0, -1, 175.658, 75.118)"/>
<g fill="rgb(0%, 0%, 0%)" fill-opacity="1">
<use xlink:href="#glyph-0-3" x="32.772" y="71.459"/>
<use xlink:href="#glyph-0-4" x="39.596381" y="71.459"/>
</g>
<path fill-rule="nonzero" fill="rgb(0%, 0%, 0%)" fill-opacity="1" stroke-width="0.3985" stroke-linecap="butt" stroke-linejoin="miter" stroke="rgb(0%, 0%, 0%)" stroke-opacity="1" stroke-miterlimit="10" d="M 44.013875 0.0008125 C 44.013875 0.825031 43.345906 1.493 42.521688 1.493 C 41.693563 1.493 41.025594 0.825031 41.025594 0.0008125 C 41.025594 -0.823406 41.693563 -1.495281 42.521688 -1.495281 C 43.345906 -1.495281 44.013875 -0.823406 44.013875 0.0008125 Z M 44.013875 0.0008125 " transform="matrix(1, 0, 0, -1, 175.658, 75.118)"/>
<g fill="rgb(0%, 0%, 0%)" fill-opacity="1">
<use xlink:href="#glyph-0-5" x="221.698" y="71.598"/>
</g>
<path fill-rule="nonzero" fill="rgb(0%, 0%, 0%)" fill-opacity="1" stroke-width="0.3985" stroke-linecap="butt" stroke-linejoin="miter" stroke="rgb(0%, 0%, 0%)" stroke-opacity="1" stroke-miterlimit="10" d="M 1.494344 -42.518719 C 1.494344 -41.6945 0.826375 -41.026531 -0.00175 -41.026531 C -0.825969 -41.026531 -1.493937 -41.6945 -1.493937 -42.518719 C -1.493937 -43.346844 -0.825969 -44.014812 -0.00175 -44.014812 C 0.826375 -44.014812 1.494344 -43.346844 1.494344 -42.518719 Z M 1.494344 -42.518719 " transform="matrix(1, 0, 0, -1, 175.658, 75.118)"/>
<g fill="rgb(0%, 0%, 0%)" fill-opacity="1">
<use xlink:href="#glyph-0-3" x="179.178" y="120.936"/>
<use xlink:href="#glyph-0-4" x="186.002381" y="120.936"/>
</g>
<path fill-rule="nonzero" fill="rgb(0%, 0%, 0%)" fill-opacity="1" stroke-width="0.3985" stroke-linecap="butt" stroke-linejoin="miter" stroke="rgb(0%, 0%, 0%)" stroke-opacity="1" stroke-miterlimit="10" d="M -41.025187 -56.6945 C -41.025187 -55.866375 -41.693156 -55.198406 -42.521281 -55.198406 C -43.3455 -55.198406 -44.013469 -55.866375 -44.013469 -56.6945 C -44.013469 -57.518719 -43.3455 -58.186687 -42.521281 -58.186687 C -41.693156 -58.186687 -41.025187 -57.518719 -41.025187 -56.6945 Z M -41.025187 -56.6945 " transform="matrix(1, 0, 0, -1, 175.658, 75.118)"/>
<g fill="rgb(0%, 0%, 0%)" fill-opacity="1">
<use xlink:href="#glyph-0-6" x="111.954" y="142.066"/>
</g>
<g fill="rgb(0%, 0%, 0%)" fill-opacity="1">
<use xlink:href="#glyph-0-7" x="119.914117" y="142.066"/>
<use xlink:href="#glyph-0-3" x="123.231663" y="142.066"/>
<use xlink:href="#glyph-0-5" x="130.056044" y="142.066"/>
<use xlink:href="#glyph-0-8" x="135.037344" y="142.066"/>
</g>
<g fill="rgb(0%, 0%, 0%)" fill-opacity="1">
<use xlink:href="#glyph-0-3" x="139.191748" y="142.066"/>
<use xlink:href="#glyph-0-9" x="146.016129" y="142.066"/>
<use xlink:href="#glyph-0-10" x="150.997429" y="142.066"/>
</g>
<path fill="none" stroke-width="0.79701" stroke-linecap="butt" stroke-linejoin="miter" stroke="rgb(0%, 0%, 0%)" stroke-opacity="1" stroke-dasharray="2.98883 2.98883" stroke-miterlimit="10" d="M -42.521281 0.0008125 L -42.521281 -56.6945 L -0.00175 -56.6945 " transform="matrix(1, 0, 0, -1, 175.658, 75.118)"/>
</svg>
