<?xml version="1.0" encoding="UTF-8"?>
<svg xmlns="http://www.w3.org/2000/svg" xmlns:xlink="http://www.w3.org/1999/xlink" width="324.11pt" height="321.64pt" viewBox="0 0 324.11 321.64">
<defs>
<g>
<g id="glyph-0-0">
<path d="M 3.046875 -2.875 L 2.84375 -3.421875 C 2.71875 -3.75 2.53125 -4.15625 2.09375 -4.390625 L 0.78125 -4.0625 L 0.8125 -3.890625 C 0.90625 -3.921875 1.0625 -3.953125 1.1875 -3.953125 C 1.734375 -3.953125 2 -3.53125 2.15625 -3.0625 L 2.5 -2.140625 L 1.84375 -1.140625 C 1.53125 -0.640625 1.265625 -0.546875 1.140625 -0.546875 C 0.890625 -0.546875 0.9375 -0.75 0.671875 -0.75 C 0.421875 -0.75 0.296875 -0.53125 0.296875 -0.375 C 0.296875 -0.15625 0.453125 0.09375 0.8125 0.09375 C 1.375 0.09375 1.671875 -0.34375 1.984375 -0.828125 L 2.609375 -1.796875 L 3.015625 -0.671875 C 3.140625 -0.3125 3.328125 0.09375 3.734375 0.09375 C 4.3125 0.09375 4.765625 -0.875 4.890625 -1.015625 L 4.75 -1.109375 C 4.53125 -0.6875 4.296875 -0.546875 4.140625 -0.546875 C 3.6875 -0.546875 3.453125 -1.890625 3.15625 -2.515625 L 3.703125 -3.359375 C 3.84375 -3.578125 3.953125 -3.734375 4.25 -3.734375 C 4.421875 -3.734375 4.46875 -3.65625 4.6875 -3.65625 C 4.953125 -3.65625 5.078125 -3.875 5.078125 -4.0625 C 5.078125 -4.28125 4.921875 -4.390625 4.59375 -4.390625 C 4.09375 -4.390625 3.75 -3.953125 3.484375 -3.5625 Z M 3.046875 -2.875 "/>
</g>
<g id="glyph-0-1">
<path d="M 2.6875 -3.0625 C 2.609375 -3.796875 2.53125 -4.0625 2.296875 -4.390625 L 0.8125 -4.140625 L 0.828125 -3.984375 C 0.921875 -3.984375 1.078125 -4.015625 1.1875 -4.015625 C 1.75 -4.015625 1.828125 -3.421875 1.890625 -2.96875 L 2.265625 0.15625 C 2 0.5625 1.4375 1.171875 1.265625 1.171875 C 1.109375 1.171875 1.125 0.875 0.703125 0.875 C 0.5625 0.875 0.296875 0.984375 0.296875 1.28125 C 0.296875 1.515625 0.484375 1.828125 0.859375 1.828125 C 1.53125 1.828125 2.1875 0.84375 2.90625 -0.0625 C 3.328125 -0.59375 4.9375 -2.984375 4.9375 -3.765625 C 4.9375 -4.15625 4.6875 -4.390625 4.375 -4.390625 C 4.09375 -4.390625 3.90625 -4.203125 3.90625 -3.984375 C 3.90625 -3.609375 4.421875 -3.515625 4.421875 -3.296875 C 4.421875 -3.125 4.34375 -2.921875 4.140625 -2.546875 C 3.921875 -2.140625 3.578125 -1.546875 2.96875 -0.71875 Z M 2.6875 -3.0625 "/>
</g>
<g id="glyph-0-2">
<path d="M 6.34375 -3.1875 L 6.34375 -3.84375 L 0.484375 -3.84375 L 0.484375 -3.1875 Z M 6.34375 -1.203125 L 6.34375 -1.859375 L 0.484375 -1.859375 L 0.484375 -1.203125 Z M 6.34375 -1.203125 "/>
</g>
<g id="glyph-0-3">
<path d="M 1.921875 1.890625 L 1.921875 -6.875 L 1.265625 -6.875 L 1.265625 1.890625 Z M 1.921875 1.890625 "/>
</g>
<g id="glyph-0-4">
<path d="M 6.1875 -2.1875 L 6.1875 -2.84375 L 0.640625 -2.84375 L 0.640625 -2.1875 Z M 6.1875 -2.1875 "/>
</g>
<g id="glyph-0-5">
<path d="M 4.359375 -6.78125 L 4.28125 -6.859375 C 4.109375 -6.65625 4.03125 -6.59375 3.796875 -6.59375 L 1.734375 -6.59375 L 0.640625 -4.234375 C 0.640625 -4.234375 0.640625 -4.203125 0.640625 -4.1875 C 0.640625 -4.125 0.671875 -4.109375 0.75 -4.109375 C 1.71875 -4.109375 2.40625 -3.78125 2.875 -3.40625 C 3.328125 -3.046875 3.546875 -2.546875 3.546875 -1.90625 C 3.546875 -1.0625 2.90625 -0.234375 2.203125 -0.234375 C 2 -0.234375 1.78125 -0.3125 1.5 -0.546875 C 1.171875 -0.8125 0.984375 -0.859375 0.75 -0.859375 C 0.484375 -0.859375 0.3125 -0.734375 0.3125 -0.484375 C 0.3125 -0.09375 0.828125 0.140625 1.578125 0.140625 C 2.25 0.140625 2.796875 -0.015625 3.265625 -0.34375 C 3.953125 -0.84375 4.25 -1.46875 4.25 -2.421875 C 4.25 -2.953125 4.15625 -3.328125 3.890625 -3.6875 C 3.328125 -4.46875 2.828125 -4.6875 1.40625 -4.96875 L 1.796875 -5.8125 L 3.734375 -5.8125 C 3.890625 -5.8125 3.984375 -5.875 4 -5.9375 Z M 4.359375 -6.78125 "/>
</g>
<g id="glyph-0-6">
<path d="M 3.03125 1.609375 C 1.640625 0.4375 1.328125 -0.6875 1.328125 -2.546875 C 1.328125 -4.46875 1.640625 -5.390625 3.03125 -6.578125 L 2.9375 -6.734375 C 1.34375 -5.796875 0.484375 -4.359375 0.484375 -2.515625 C 0.484375 -0.8125 1.328125 0.875 2.90625 1.765625 Z M 3.03125 1.609375 "/>
</g>
<g id="glyph-0-7">
<path d="M 4.46875 -6.4375 L 4.46875 -6.59375 L 0.796875 -6.59375 L 0.203125 -5.140625 L 0.375 -5.046875 C 0.796875 -5.71875 0.96875 -5.859375 1.546875 -5.859375 L 3.6875 -5.859375 L 1.71875 0.078125 L 2.359375 0.078125 Z M 4.46875 -6.4375 "/>
</g>
<g id="glyph-0-8">
<path d="M 0.828125 1.40625 C 1.515625 1.078125 1.9375 0.453125 1.9375 -0.15625 C 1.9375 -0.671875 1.59375 -1.015625 1.140625 -1.015625 C 0.78125 -1.015625 0.546875 -0.78125 0.546875 -0.453125 C 0.546875 -0.109375 0.75 0.0625 1.125 0.0625 C 1.234375 0.0625 1.328125 0.015625 1.421875 0.015625 C 1.5 0.015625 1.5625 0.078125 1.5625 0.15625 C 1.5625 0.484375 1.28125 0.84375 0.734375 1.21875 Z M 0.828125 1.40625 "/>
</g>
<g id="glyph-0-9">
<path d="M 3.921875 0 L 3.921875 -0.15625 C 3.1875 -0.15625 2.984375 -0.328125 2.984375 -0.75 L 2.984375 -6.703125 L 2.890625 -6.734375 L 1.109375 -5.828125 L 1.109375 -5.6875 L 1.375 -5.796875 C 1.5625 -5.859375 1.71875 -5.90625 1.828125 -5.90625 C 2.03125 -5.90625 2.125 -5.765625 2.125 -5.421875 L 2.125 -0.953125 C 2.125 -0.40625 1.90625 -0.1875 1.171875 -0.15625 L 1.171875 0 Z M 3.921875 0 "/>
</g>
<g id="glyph-0-10">
<path d="M 4.71875 -1.359375 L 4.578125 -1.421875 C 4.25 -0.875 4.046875 -0.75 3.625 -0.75 L 1.296875 -0.75 L 2.9375 -2.515625 C 3.828125 -3.453125 4.21875 -4.203125 4.21875 -4.984375 C 4.21875 -5.96875 3.5 -6.734375 2.375 -6.734375 C 1.140625 -6.734375 0.515625 -5.921875 0.296875 -4.75 L 0.515625 -4.703125 C 0.90625 -5.6875 1.25 -6 1.96875 -6 C 2.828125 -6 3.359375 -5.5 3.359375 -4.59375 C 3.359375 -3.75 3 -2.984375 2.0625 -2 L 0.296875 -0.125 L 0.296875 0 L 4.1875 0 Z M 4.71875 -1.359375 "/>
</g>
<g id="glyph-0-11">
<path d="M 0.296875 -6.578125 C 1.734375 -5.4375 1.984375 -4.296875 1.984375 -2.4375 C 1.984375 -0.5 1.703125 0.4375 0.296875 1.609375 L 0.375 1.765625 C 1.96875 0.796875 2.84375 -0.625 2.84375 -2.46875 C 2.84375 -4.15625 1.9375 -5.828125 0.40625 -6.734375 Z M 0.296875 -6.578125 "/>
</g>
<g id="glyph-0-12">
<path d="M 4.453125 -6.8125 C 3.078125 -6.671875 2.28125 -6.4375 1.421875 -5.53125 C 0.71875 -4.8125 0.34375 -3.859375 0.34375 -2.78125 C 0.34375 -2.078125 0.53125 -1.375 0.8125 -0.875 C 1.15625 -0.234375 1.78125 0.140625 2.578125 0.140625 C 3.234375 0.140625 3.78125 -0.125 4.15625 -0.59375 C 4.484375 -0.984375 4.671875 -1.546875 4.671875 -2.1875 C 4.671875 -3.46875 3.953125 -4.265625 2.78125 -4.265625 C 2.34375 -4.265625 2 -4.203125 1.515625 -3.8125 C 1.78125 -5.328125 2.90625 -6.40625 4.46875 -6.65625 Z M 3.765625 -1.875 C 3.765625 -0.859375 3.40625 -0.140625 2.6875 -0.140625 C 1.75 -0.140625 1.265625 -1.140625 1.265625 -2.65625 C 1.265625 -3.5625 1.859375 -3.8125 2.421875 -3.8125 C 3.34375 -3.8125 3.765625 -3.15625 3.765625 -1.875 Z M 3.765625 -1.875 "/>
</g>
<g id="glyph-1-0">
<path d="M 5.5625 -1.96875 L 5.5625 -2.5625 L 0.578125 -2.5625 L 0.578125 -1.96875 Z M 5.5625 -1.96875 "/>
</g>
<g id="glyph-1-1">
<path d="M 3.53125 0 L 3.53125 -0.140625 C 2.859375 -0.140625 2.6875 -0.296875 2.6875 -0.6875 L 2.6875 -6.03125 L 2.59375 -6.0625 L 1 -5.25 L 1 -5.125 L 1.234375 -5.203125 C 1.40625 -5.28125 1.546875 -5.3125 1.640625 -5.3125 C 1.828125 -5.3125 1.90625 -5.1875 1.90625 -4.875 L 1.90625 -0.859375 C 1.90625 -0.359375 1.71875 -0.171875 1.0625 -0.140625 L 1.0625 0 Z M 3.53125 0 "/>
</g>
<g id="glyph-1-2">
<path d="M 4.265625 -2.953125 C 4.265625 -4.796875 3.453125 -6.0625 2.28125 -6.0625 C 0.828125 -6.0625 0.21875 -4.59375 0.21875 -3.015625 C 0.21875 -1.546875 0.703125 0.125 2.25 0.125 C 3.703125 0.125 4.265625 -1.421875 4.265625 -2.953125 Z M 3.40625 -2.921875 C 3.40625 -1.140625 3 -0.109375 2.25 -0.109375 C 1.46875 -0.109375 1.078125 -1.125 1.078125 -2.953125 C 1.078125 -4.765625 1.484375 -5.828125 2.21875 -5.828125 C 3.015625 -5.828125 3.40625 -4.78125 3.40625 -2.921875 Z M 3.40625 -2.921875 "/>
</g>
<g id="glyph-1-3">
<path d="M 3.984375 -1.390625 C 3.984375 -2.109375 3.703125 -2.59375 2.59375 -3.328125 C 3.484375 -3.796875 3.796875 -4.109375 3.796875 -4.78125 C 3.796875 -5.484375 3.1875 -6.0625 2.296875 -6.0625 C 1.296875 -6.0625 0.5625 -5.53125 0.5625 -4.65625 C 0.5625 -4.078125 0.75 -3.734375 1.671875 -2.984375 C 0.703125 -2.3125 0.5 -1.953125 0.5 -1.34375 C 0.5 -0.5 1.203125 0.125 2.21875 0.125 C 3.296875 0.125 3.984375 -0.46875 3.984375 -1.390625 Z M 3.1875 -4.78125 C 3.1875 -4.21875 2.953125 -3.84375 2.34375 -3.484375 C 1.546875 -3.953125 1.21875 -4.375 1.21875 -4.921875 C 1.21875 -5.484375 1.609375 -5.8125 2.203125 -5.8125 C 2.8125 -5.8125 3.1875 -5.40625 3.1875 -4.78125 Z M 2.4375 -2.4375 C 3.046875 -2.03125 3.3125 -1.671875 3.3125 -1.109375 C 3.3125 -0.53125 2.90625 -0.125 2.328125 -0.125 C 1.640625 -0.125 1.1875 -0.59375 1.1875 -1.421875 C 1.1875 -2 1.375 -2.375 1.90625 -2.796875 Z M 2.4375 -2.4375 "/>
</g>
<g id="glyph-1-4">
<path d="M 4 -6.140625 C 2.765625 -6 2.046875 -5.78125 1.28125 -4.984375 C 0.640625 -4.328125 0.3125 -3.46875 0.3125 -2.5 C 0.3125 -1.875 0.46875 -1.234375 0.71875 -0.78125 C 1.046875 -0.203125 1.609375 0.125 2.3125 0.125 C 2.90625 0.125 3.40625 -0.109375 3.734375 -0.53125 C 4.03125 -0.890625 4.203125 -1.390625 4.203125 -1.96875 C 4.203125 -3.125 3.546875 -3.84375 2.5 -3.84375 C 2.109375 -3.84375 1.796875 -3.78125 1.359375 -3.4375 C 1.609375 -4.796875 2.609375 -5.765625 4.015625 -5.984375 Z M 3.390625 -1.6875 C 3.390625 -0.765625 3.0625 -0.125 2.40625 -0.125 C 1.5625 -0.125 1.140625 -1.015625 1.140625 -2.390625 C 1.140625 -3.203125 1.671875 -3.421875 2.171875 -3.421875 C 3.015625 -3.421875 3.390625 -2.828125 3.390625 -1.6875 Z M 3.390625 -1.6875 "/>
</g>
<g id="glyph-1-5">
<path d="M 4.25 -1.5 L 4.25 -2.078125 L 3.3125 -2.078125 L 3.3125 -6.0625 L 2.921875 -6.0625 L 0.109375 -2.078125 L 0.109375 -1.5 L 2.625 -1.5 L 2.625 0 L 3.3125 0 L 3.3125 -1.5 Z M 2.625 -2.078125 L 0.46875 -2.078125 L 2.625 -5.140625 Z M 2.625 -2.078125 "/>
</g>
<g id="glyph-1-6">
<path d="M 4.25 -1.234375 L 4.125 -1.28125 C 3.828125 -0.78125 3.640625 -0.6875 3.265625 -0.6875 L 1.171875 -0.6875 L 2.640625 -2.265625 C 3.4375 -3.109375 3.796875 -3.78125 3.796875 -4.484375 C 3.796875 -5.375 3.140625 -6.0625 2.140625 -6.0625 C 1.03125 -6.0625 0.453125 -5.328125 0.265625 -4.28125 L 0.453125 -4.234375 C 0.8125 -5.109375 1.125 -5.40625 1.78125 -5.40625 C 2.53125 -5.40625 3.015625 -4.953125 3.015625 -4.140625 C 3.015625 -3.375 2.703125 -2.6875 1.859375 -1.796875 L 0.265625 -0.109375 L 0.265625 0 L 3.765625 0 Z M 4.25 -1.234375 "/>
</g>
</g>
</defs>
<path fill="none" stroke-width="0.19925" stroke-linecap="butt" stroke-linejoin="miter" stroke="rgb(69.999695%, 69.999695%, 69.999695%)" stroke-opacity="1" stroke-dasharray="0.19925 0.99628" stroke-miterlimit="10" d="M -141.732531 -85.037656 L 141.732313 -85.037656 M -141.732531 -79.369687 L 141.732313 -79.369687 M -141.732531 -73.701719 L 141.732313 -73.701719 M -141.732531 -68.029844 L 141.732313 -68.029844 M -141.732531 -62.361875 L 141.732313 -62.361875 M -141.732531 -56.693906 L 141.732313 -56.693906 M -141.732531 -51.022031 L 141.732313 -51.022031 M -141.732531 -45.354062 L 141.732313 -45.354062 M -141.732531 -39.686094 L 141.732313 -39.686094 M -141.732531 -34.014219 L 141.732313 -34.014219 M -141.732531 -28.34625 L 141.732313 -28.34625 M -141.732531 -22.678281 L 141.732313 -22.678281 M -141.732531 -17.006406 L 141.732313 -17.006406 M -141.732531 -11.338437 L 141.732313 -11.338437 M -141.732531 -5.670469 L 141.732313 -5.670469 M -141.732531 0.00140625 L 141.732313 0.00140625 M -141.732531 5.669375 L 141.732313 5.669375 M -141.732531 11.337344 L 141.732313 11.337344 M -141.732531 17.009219 L 141.732313 17.009219 M -141.732531 22.677188 L 141.732313 22.677188 M -141.732531 28.345156 L 141.732313 28.345156 M -141.732531 34.017031 L 141.732313 34.017031 M -141.732531 39.685 L 141.732313 39.685 M -141.732531 45.352969 L 141.732313 45.352969 M -141.732531 51.024844 L 141.732313 51.024844 M -141.732531 56.692813 L 141.732313 56.692813 M -141.732531 62.360781 L 141.732313 62.360781 M -141.732531 68.032656 L 141.732313 68.032656 M -141.732531 73.700625 L 141.732313 73.700625 M -141.732531 79.368594 L 141.732313 79.368594 M -141.732531 85.040469 L 141.732313 85.040469 M -141.732531 90.708438 L 141.732313 90.708438 M -141.732531 96.376406 L 141.732313 96.376406 M -141.732531 102.048281 L 141.732313 102.048281 M -141.732531 107.71625 L 141.732313 107.71625 M -141.732531 113.384219 L 141.732313 113.384219 M -141.732531 119.056094 L 141.732313 119.056094 M -141.732531 124.724063 L 141.732313 124.724063 M -141.732531 130.392031 L 141.732313 130.392031 M -141.732531 136.063906 L 141.732313 136.063906 M -141.732531 141.731875 L 141.732313 141.731875 M -141.732531 147.399844 L 141.732313 147.399844 M -141.732531 153.071719 L 141.732313 153.071719 M -141.732531 158.739688 L 141.732313 158.739688 M -141.732531 164.407656 L 141.732313 164.407656 M -141.732531 170.079531 L 141.732313 170.079531 M -141.732531 175.7475 L 141.732313 175.7475 M -141.732531 181.415469 L 141.732313 181.415469 M -141.732531 187.087344 L 141.732313 187.087344 M -141.732531 192.755313 L 141.732313 192.755313 M -141.732531 198.423281 L 141.732313 198.423281 M -141.732531 -85.041562 L -141.732531 198.427188 M -136.060656 -85.041562 L -136.060656 198.427188 M -130.392687 -85.041562 L -130.392687 198.427188 M -124.724719 -85.041562 L -124.724719 198.427188 M -119.052844 -85.041562 L -119.052844 198.427188 M -113.384875 -85.041562 L -113.384875 198.427188 M -107.716906 -85.041562 L -107.716906 198.427188 M -102.045031 -85.041562 L -102.045031 198.427188 M -96.377062 -85.041562 L -96.377062 198.427188 M -90.709094 -85.041562 L -90.709094 198.427188 M -85.037219 -85.041562 L -85.037219 198.427188 M -79.36925 -85.041562 L -79.36925 198.427188 M -73.701281 -85.041562 L -73.701281 198.427188 M -68.029406 -85.041562 L -68.029406 198.427188 M -62.361437 -85.041562 L -62.361437 198.427188 M -56.693469 -85.041562 L -56.693469 198.427188 M -51.021594 -85.041562 L -51.021594 198.427188 M -45.353625 -85.041562 L -45.353625 198.427188 M -39.685656 -85.041562 L -39.685656 198.427188 M -34.013781 -85.041562 L -34.013781 198.427188 M -28.345812 -85.041562 L -28.345812 198.427188 M -22.677844 -85.041562 L -22.677844 198.427188 M -17.005969 -85.041562 L -17.005969 198.427188 M -11.338 -85.041562 L -11.338 198.427188 M -5.670031 -85.041562 L -5.670031 198.427188 M 0.00184375 -85.041562 L 0.00184375 198.427188 M 5.669813 -85.041562 L 5.669813 198.427188 M 11.337781 -85.041562 L 11.337781 198.427188 M 17.009656 -85.041562 L 17.009656 198.427188 M 22.677625 -85.041562 L 22.677625 198.427188 M 28.345594 -85.041562 L 28.345594 198.427188 M 34.017469 -85.041562 L 34.017469 198.427188 M 39.685438 -85.041562 L 39.685438 198.427188 M 45.353406 -85.041562 L 45.353406 198.427188 M 51.025281 -85.041562 L 51.025281 198.427188 M 56.69325 -85.041562 L 56.69325 198.427188 M 62.361219 -85.041562 L 62.361219 198.427188 M 68.033094 -85.041562 L 68.033094 198.427188 M 73.701063 -85.041562 L 73.701063 198.427188 M 79.369031 -85.041562 L 79.369031 198.427188 M 85.040906 -85.041562 L 85.040906 198.427188 M 90.708875 -85.041562 L 90.708875 198.427188 M 96.376844 -85.041562 L 96.376844 198.427188 M 102.048719 -85.041562 L 102.048719 198.427188 M 107.716688 -85.041562 L 107.716688 198.427188 M 113.384656 -85.041562 L 113.384656 198.427188 M 119.056531 -85.041562 L 119.056531 198.427188 M 124.7245 -85.041562 L 124.7245 198.427188 M 130.392469 -85.041562 L 130.392469 198.427188 M 136.064344 -85.041562 L 136.064344 198.427188 M 141.732313 -85.041562 L 141.732313 198.427188 " transform="matrix(1, 0, 0, -1, 157.588, 223.935)"/>
<path fill="none" stroke-width="0.3985" stroke-linecap="butt" stroke-linejoin="miter" stroke="rgb(39.99939%, 39.99939%, 39.99939%)" stroke-opacity="1" stroke-dasharray="2.98883 2.98883" stroke-miterlimit="10" d="M -141.732531 -85.041562 L 141.732313 -85.041562 M -141.732531 -56.693906 L 141.732313 -56.693906 M -141.732531 -28.34625 L 141.732313 -28.34625 M -141.732531 0.00140625 L 141.732313 0.00140625 M -141.732531 28.345156 L 141.732313 28.345156 M -141.732531 56.692813 L 141.732313 56.692813 M -141.732531 85.040469 L 141.732313 85.040469 M -141.732531 113.388125 L 141.732313 113.388125 M -141.732531 141.735781 L 141.732313 141.735781 M -141.732531 170.079531 L 141.732313 170.079531 M -141.732531 198.423281 L 141.732313 198.423281 M -141.732531 -85.041562 L -141.732531 198.427188 M -113.388781 -85.041562 L -113.388781 198.427188 M -85.041125 -85.041562 L -85.041125 198.427188 M -56.693469 -85.041562 L -56.693469 198.427188 M -28.345812 -85.041562 L -28.345812 198.427188 M 0.00184375 -85.041562 L 0.00184375 198.427188 M 28.345594 -85.041562 L 28.345594 198.427188 M 56.69325 -85.041562 L 56.69325 198.427188 M 85.040906 -85.041562 L 85.040906 198.427188 M 113.388563 -85.041562 L 113.388563 198.427188 M 141.728406 -85.041562 L 141.728406 198.427188 " transform="matrix(1, 0, 0, -1, 157.588, 223.935)"/>
<path fill="none" stroke-width="1.19553" stroke-linecap="butt" stroke-linejoin="miter" stroke="rgb(0%, 0%, 0%)" stroke-opacity="1" stroke-miterlimit="10" d="M -148.822375 0.00140625 L 143.083875 0.00140625 " transform="matrix(1, 0, 0, -1, 157.588, 223.935)"/>
<path fill-rule="nonzero" fill="rgb(0%, 0%, 0%)" fill-opacity="1" d="M 306.410156 223.933594 C 304.707031 223.617188 301.945312 222.660156 300.03125 221.542969 L 300.03125 226.324219 C 301.945312 225.210938 304.707031 224.253906 306.410156 223.933594 "/>
<g fill="rgb(0%, 0%, 0%)" fill-opacity="1">
<use xlink:href="#glyph-0-0" x="310.327" y="226.087"/>
</g>
<path fill="none" stroke-width="1.19553" stroke-linecap="butt" stroke-linejoin="miter" stroke="rgb(0%, 0%, 0%)" stroke-opacity="1" stroke-miterlimit="10" d="M 0.00184375 -92.1275 L 0.00184375 199.774844 " transform="matrix(1, 0, 0, -1, 157.588, 223.935)"/>
<path fill-rule="nonzero" fill="rgb(0%, 0%, 0%)" fill-opacity="1" d="M 157.589844 18.421875 C 157.269531 20.121094 156.3125 22.882812 155.195312 24.796875 L 159.980469 24.796875 C 158.863281 22.882812 157.90625 20.121094 157.589844 18.421875 "/>
<g fill="rgb(0%, 0%, 0%)" fill-opacity="1">
<use xlink:href="#glyph-0-1" x="155.117" y="12.679"/>
</g>
<path fill="none" stroke-width="0.79701" stroke-linecap="butt" stroke-linejoin="miter" stroke="rgb(0%, 0%, 0%)" stroke-opacity="1" stroke-miterlimit="10" d="M -141.732531 2.126406 L -141.732531 -2.1275 " transform="matrix(1, 0, 0, -1, 157.588, 223.935)"/>
<g fill="rgb(0%, 0%, 0%)" fill-opacity="1">
<use xlink:href="#glyph-1-0" x="8.3" y="238.83"/>
<use xlink:href="#glyph-1-1" x="14.441984" y="238.83"/>
<use xlink:href="#glyph-1-2" x="18.925184" y="238.83"/>
</g>
<path fill="none" stroke-width="0.79701" stroke-linecap="butt" stroke-linejoin="miter" stroke="rgb(0%, 0%, 0%)" stroke-opacity="1" stroke-miterlimit="10" d="M -113.388781 2.126406 L -113.388781 -2.1275 " transform="matrix(1, 0, 0, -1, 157.588, 223.935)"/>
<g fill="rgb(0%, 0%, 0%)" fill-opacity="1">
<use xlink:href="#glyph-1-0" x="38.888" y="238.83"/>
<use xlink:href="#glyph-1-3" x="45.029984" y="238.83"/>
</g>
<path fill="none" stroke-width="0.79701" stroke-linecap="butt" stroke-linejoin="miter" stroke="rgb(0%, 0%, 0%)" stroke-opacity="1" stroke-miterlimit="10" d="M -85.041125 2.126406 L -85.041125 -2.1275 " transform="matrix(1, 0, 0, -1, 157.588, 223.935)"/>
<g fill="rgb(0%, 0%, 0%)" fill-opacity="1">
<use xlink:href="#glyph-1-0" x="67.235" y="238.902"/>
<use xlink:href="#glyph-1-4" x="73.376984" y="238.902"/>
</g>
<path fill="none" stroke-width="0.79701" stroke-linecap="butt" stroke-linejoin="miter" stroke="rgb(0%, 0%, 0%)" stroke-opacity="1" stroke-miterlimit="10" d="M -56.693469 2.126406 L -56.693469 -2.1275 " transform="matrix(1, 0, 0, -1, 157.588, 223.935)"/>
<g fill="rgb(0%, 0%, 0%)" fill-opacity="1">
<use xlink:href="#glyph-1-0" x="95.582" y="238.83"/>
<use xlink:href="#glyph-1-5" x="101.723984" y="238.83"/>
</g>
<path fill="none" stroke-width="0.79701" stroke-linecap="butt" stroke-linejoin="miter" stroke="rgb(0%, 0%, 0%)" stroke-opacity="1" stroke-miterlimit="10" d="M -28.345812 2.126406 L -28.345812 -2.1275 " transform="matrix(1, 0, 0, -1, 157.588, 223.935)"/>
<g fill="rgb(0%, 0%, 0%)" fill-opacity="1">
<use xlink:href="#glyph-1-0" x="123.929" y="238.83"/>
<use xlink:href="#glyph-1-6" x="130.070984" y="238.83"/>
</g>
<path fill="none" stroke-width="0.79701" stroke-linecap="butt" stroke-linejoin="miter" stroke="rgb(0%, 0%, 0%)" stroke-opacity="1" stroke-miterlimit="10" d="M 28.345594 2.126406 L 28.345594 -2.1275 " transform="matrix(1, 0, 0, -1, 157.588, 223.935)"/>
<g fill="rgb(0%, 0%, 0%)" fill-opacity="1">
<use xlink:href="#glyph-1-6" x="183.693" y="238.83"/>
</g>
<path fill="none" stroke-width="0.79701" stroke-linecap="butt" stroke-linejoin="miter" stroke="rgb(0%, 0%, 0%)" stroke-opacity="1" stroke-miterlimit="10" d="M 56.69325 2.126406 L 56.69325 -2.1275 " transform="matrix(1, 0, 0, -1, 157.588, 223.935)"/>
<g fill="rgb(0%, 0%, 0%)" fill-opacity="1">
<use xlink:href="#glyph-1-5" x="212.04" y="238.83"/>
</g>
<path fill="none" stroke-width="0.79701" stroke-linecap="butt" stroke-linejoin="miter" stroke="rgb(0%, 0%, 0%)" stroke-opacity="1" stroke-miterlimit="10" d="M 85.040906 2.126406 L 85.040906 -2.1275 " transform="matrix(1, 0, 0, -1, 157.588, 223.935)"/>
<g fill="rgb(0%, 0%, 0%)" fill-opacity="1">
<use xlink:href="#glyph-1-4" x="240.387" y="238.902"/>
</g>
<path fill="none" stroke-width="0.79701" stroke-linecap="butt" stroke-linejoin="miter" stroke="rgb(0%, 0%, 0%)" stroke-opacity="1" stroke-miterlimit="10" d="M 113.388563 2.126406 L 113.388563 -2.1275 " transform="matrix(1, 0, 0, -1, 157.588, 223.935)"/>
<g fill="rgb(0%, 0%, 0%)" fill-opacity="1">
<use xlink:href="#glyph-1-3" x="268.734" y="238.83"/>
</g>
<path fill="none" stroke-width="0.79701" stroke-linecap="butt" stroke-linejoin="miter" stroke="rgb(0%, 0%, 0%)" stroke-opacity="1" stroke-miterlimit="10" d="M 141.732313 2.126406 L 141.732313 -2.1275 " transform="matrix(1, 0, 0, -1, 157.588, 223.935)"/>
<g fill="rgb(0%, 0%, 0%)" fill-opacity="1">
<use xlink:href="#glyph-1-1" x="294.839" y="238.83"/>
<use xlink:href="#glyph-1-2" x="299.3222" y="238.83"/>
</g>
<path fill="none" stroke-width="0.79701" stroke-linecap="butt" stroke-linejoin="miter" stroke="rgb(0%, 0%, 0%)" stroke-opacity="1" stroke-miterlimit="10" d="M 1.064344 -85.041562 L -1.064562 -85.041562 " transform="matrix(1, 0, 0, -1, 157.588, 223.935)"/>
<g fill="rgb(0%, 0%, 0%)" fill-opacity="1">
<use xlink:href="#glyph-1-0" x="139.192" y="311.979"/>
<use xlink:href="#glyph-1-4" x="145.333984" y="311.979"/>
</g>
<path fill="none" stroke-width="0.79701" stroke-linecap="butt" stroke-linejoin="miter" stroke="rgb(0%, 0%, 0%)" stroke-opacity="1" stroke-miterlimit="10" d="M 1.064344 -56.693906 L -1.064562 -56.693906 " transform="matrix(1, 0, 0, -1, 157.588, 223.935)"/>
<g fill="rgb(0%, 0%, 0%)" fill-opacity="1">
<use xlink:href="#glyph-1-0" x="139.192" y="283.659"/>
<use xlink:href="#glyph-1-5" x="145.333984" y="283.659"/>
</g>
<path fill="none" stroke-width="0.79701" stroke-linecap="butt" stroke-linejoin="miter" stroke="rgb(0%, 0%, 0%)" stroke-opacity="1" stroke-miterlimit="10" d="M 1.064344 -28.34625 L -1.064562 -28.34625 " transform="matrix(1, 0, 0, -1, 157.588, 223.935)"/>
<g fill="rgb(0%, 0%, 0%)" fill-opacity="1">
<use xlink:href="#glyph-1-0" x="139.192" y="255.312"/>
<use xlink:href="#glyph-1-6" x="145.333984" y="255.312"/>
</g>
<path fill="none" stroke-width="0.79701" stroke-linecap="butt" stroke-linejoin="miter" stroke="rgb(0%, 0%, 0%)" stroke-opacity="1" stroke-miterlimit="10" d="M 1.064344 28.345156 L -1.064562 28.345156 " transform="matrix(1, 0, 0, -1, 157.588, 223.935)"/>
<g fill="rgb(0%, 0%, 0%)" fill-opacity="1">
<use xlink:href="#glyph-1-6" x="145.334" y="198.619"/>
</g>
<path fill="none" stroke-width="0.79701" stroke-linecap="butt" stroke-linejoin="miter" stroke="rgb(0%, 0%, 0%)" stroke-opacity="1" stroke-miterlimit="10" d="M 1.064344 56.692813 L -1.064562 56.692813 " transform="matrix(1, 0, 0, -1, 157.588, 223.935)"/>
<g fill="rgb(0%, 0%, 0%)" fill-opacity="1">
<use xlink:href="#glyph-1-5" x="145.334" y="170.272"/>
</g>
<path fill="none" stroke-width="0.79701" stroke-linecap="butt" stroke-linejoin="miter" stroke="rgb(0%, 0%, 0%)" stroke-opacity="1" stroke-miterlimit="10" d="M 1.064344 85.040469 L -1.064562 85.040469 " transform="matrix(1, 0, 0, -1, 157.588, 223.935)"/>
<g fill="rgb(0%, 0%, 0%)" fill-opacity="1">
<use xlink:href="#glyph-1-4" x="145.334" y="141.898"/>
</g>
<path fill="none" stroke-width="0.79701" stroke-linecap="butt" stroke-linejoin="miter" stroke="rgb(0%, 0%, 0%)" stroke-opacity="1" stroke-miterlimit="10" d="M 1.064344 113.388125 L -1.064562 113.388125 " transform="matrix(1, 0, 0, -1, 157.588, 223.935)"/>
<g fill="rgb(0%, 0%, 0%)" fill-opacity="1">
<use xlink:href="#glyph-1-3" x="145.334" y="113.516"/>
</g>
<path fill="none" stroke-width="0.79701" stroke-linecap="butt" stroke-linejoin="miter" stroke="rgb(0%, 0%, 0%)" stroke-opacity="1" stroke-miterlimit="10" d="M 1.064344 141.735781 L -1.064562 141.735781 " transform="matrix(1, 0, 0, -1, 157.588, 223.935)"/>
<g fill="rgb(0%, 0%, 0%)" fill-opacity="1">
<use xlink:href="#glyph-1-1" x="140.851" y="85.169"/>
<use xlink:href="#glyph-1-2" x="145.3342" y="85.169"/>
</g>
<path fill="none" stroke-width="0.79701" stroke-linecap="butt" stroke-linejoin="miter" stroke="rgb(0%, 0%, 0%)" stroke-opacity="1" stroke-miterlimit="10" d="M 1.064344 170.079531 L -1.064562 170.079531 " transform="matrix(1, 0, 0, -1, 157.588, 223.935)"/>
<g fill="rgb(0%, 0%, 0%)" fill-opacity="1">
<use xlink:href="#glyph-1-1" x="140.851" y="56.885"/>
<use xlink:href="#glyph-1-6" x="145.3342" y="56.885"/>
</g>
<path fill="none" stroke-width="0.79701" stroke-linecap="butt" stroke-linejoin="miter" stroke="rgb(0%, 0%, 0%)" stroke-opacity="1" stroke-miterlimit="10" d="M 1.064344 198.427188 L -1.064562 198.427188 " transform="matrix(1, 0, 0, -1, 157.588, 223.935)"/>
<g fill="rgb(0%, 0%, 0%)" fill-opacity="1">
<use xlink:href="#glyph-1-1" x="140.851" y="28.538"/>
<use xlink:href="#glyph-1-5" x="145.3342" y="28.538"/>
</g>
<g fill="rgb(0%, 0%, 0%)" fill-opacity="1">
<use xlink:href="#glyph-1-2" x="149.585" y="233.516"/>
</g>
<path fill="none" stroke-width="1.19553" stroke-linecap="butt" stroke-linejoin="miter" stroke="rgb(0%, 0%, 100%)" stroke-opacity="1" stroke-miterlimit="10" d="M -108.662219 198.427188 L -42.521594 0.00140625 L 23.622938 198.427188 " transform="matrix(1, 0, 0, -1, 157.588, 223.935)"/>
<path fill="none" stroke-width="1.19553" stroke-linecap="butt" stroke-linejoin="miter" stroke="rgb(100%, 0%, 0%)" stroke-opacity="1" stroke-miterlimit="10" d="M -127.560656 198.427188 L 70.865125 0.00140625 L 141.732313 70.868594 " transform="matrix(1, 0, 0, -1, 157.588, 223.935)"/>
<g fill="rgb(100%, 0%, 0%)" fill-opacity="1">
<use xlink:href="#glyph-0-1" x="250.012" y="147.267"/>
</g>
<g fill="rgb(100%, 0%, 0%)" fill-opacity="1">
<use xlink:href="#glyph-0-2" x="257.71309" y="147.267"/>
</g>
<g fill="rgb(100%, 0%, 0%)" fill-opacity="1">
<use xlink:href="#glyph-0-3" x="267.307074" y="147.267"/>
<use xlink:href="#glyph-0-0" x="270.495106" y="147.267"/>
</g>
<g fill="rgb(100%, 0%, 0%)" fill-opacity="1">
<use xlink:href="#glyph-0-4" x="278.186233" y="147.267"/>
</g>
<g fill="rgb(100%, 0%, 0%)" fill-opacity="1">
<use xlink:href="#glyph-0-5" x="287.232274" y="147.267"/>
<use xlink:href="#glyph-0-3" x="292.213574" y="147.267"/>
</g>
<path fill-rule="nonzero" fill="rgb(0%, 0%, 0%)" fill-opacity="1" stroke-width="0.3985" stroke-linecap="butt" stroke-linejoin="miter" stroke="rgb(0%, 0%, 0%)" stroke-opacity="1" stroke-miterlimit="10" d="M -97.720812 170.079531 C -97.720812 170.907656 -98.388781 171.575625 -99.213 171.575625 C -100.037219 171.575625 -100.709094 170.907656 -100.709094 170.079531 C -100.709094 169.255313 -100.037219 168.587344 -99.213 168.587344 C -98.388781 168.587344 -97.720812 169.255313 -97.720812 170.079531 Z M -97.720812 170.079531 " transform="matrix(1, 0, 0, -1, 157.588, 223.935)"/>
<g fill="rgb(0%, 0%, 0%)" fill-opacity="1">
<use xlink:href="#glyph-0-6" x="22.299" y="56.34"/>
<use xlink:href="#glyph-0-4" x="25.616546" y="56.34"/>
<use xlink:href="#glyph-0-7" x="32.440927" y="56.34"/>
<use xlink:href="#glyph-0-8" x="37.422227" y="56.34"/>
</g>
<g fill="rgb(0%, 0%, 0%)" fill-opacity="1">
<use xlink:href="#glyph-0-9" x="41.566668" y="56.34"/>
<use xlink:href="#glyph-0-10" x="46.547968" y="56.34"/>
<use xlink:href="#glyph-0-11" x="51.529268" y="56.34"/>
</g>
<path fill-rule="nonzero" fill="rgb(0%, 0%, 0%)" fill-opacity="1" stroke-width="0.3985" stroke-linecap="butt" stroke-linejoin="miter" stroke="rgb(0%, 0%, 0%)" stroke-opacity="1" stroke-miterlimit="10" d="M -12.677844 85.040469 C -12.677844 85.864688 -13.349719 86.536563 -14.173937 86.536563 C -14.998156 86.536563 -15.666125 85.864688 -15.666125 85.040469 C -15.666125 84.21625 -14.998156 83.544375 -14.173937 83.544375 C -13.349719 83.544375 -12.677844 84.21625 -12.677844 85.040469 Z M -12.677844 85.040469 " transform="matrix(1, 0, 0, -1, 157.588, 223.935)"/>
<g fill="rgb(0%, 0%, 0%)" fill-opacity="1">
<use xlink:href="#glyph-0-6" x="112.321" y="141.42"/>
<use xlink:href="#glyph-0-4" x="115.638546" y="141.42"/>
<use xlink:href="#glyph-0-9" x="122.462927" y="141.42"/>
<use xlink:href="#glyph-0-8" x="127.444227" y="141.42"/>
</g>
<g fill="rgb(0%, 0%, 0%)" fill-opacity="1">
<use xlink:href="#glyph-0-12" x="131.588668" y="141.42"/>
<use xlink:href="#glyph-0-11" x="136.569968" y="141.42"/>
</g>
<path fill="none" stroke-width="0.79701" stroke-linecap="butt" stroke-linejoin="miter" stroke="rgb(0%, 0%, 0%)" stroke-opacity="1" stroke-dasharray="2.98883 2.98883" stroke-miterlimit="10" d="M -99.213 0.00140625 L -99.213 170.079531 " transform="matrix(1, 0, 0, -1, 157.588, 223.935)"/>
<g fill="rgb(0%, 0%, 0%)" fill-opacity="1">
<use xlink:href="#glyph-0-4" x="52.471" y="234.249"/>
<use xlink:href="#glyph-0-7" x="59.295381" y="234.249"/>
</g>
<path fill="none" stroke-width="0.79701" stroke-linecap="butt" stroke-linejoin="miter" stroke="rgb(0%, 0%, 0%)" stroke-opacity="1" stroke-dasharray="2.98883 2.98883" stroke-miterlimit="10" d="M -14.173937 0.00140625 L -14.173937 85.040469 " transform="matrix(1, 0, 0, -1, 157.588, 223.935)"/>
<g fill="rgb(0%, 0%, 0%)" fill-opacity="1">
<use xlink:href="#glyph-0-4" x="137.512" y="234.389"/>
<use xlink:href="#glyph-0-9" x="144.336381" y="234.389"/>
</g>
</svg>
