<?xml version="1.0" encoding="UTF-8"?>
<svg xmlns="http://www.w3.org/2000/svg" xmlns:xlink="http://www.w3.org/1999/xlink" width="320.92pt" height="171.41pt" viewBox="0 0 320.92 171.41">
<defs>
<g>
<g id="glyph-0-0">
<path d="M 3.046875 -2.875 L 2.84375 -3.421875 C 2.71875 -3.75 2.53125 -4.15625 2.09375 -4.390625 L 0.78125 -4.0625 L 0.8125 -3.890625 C 0.90625 -3.921875 1.0625 -3.953125 1.1875 -3.953125 C 1.734375 -3.953125 2 -3.53125 2.15625 -3.0625 L 2.5 -2.140625 L 1.84375 -1.140625 C 1.53125 -0.640625 1.265625 -0.546875 1.140625 -0.546875 C 0.890625 -0.546875 0.9375 -0.75 0.671875 -0.75 C 0.421875 -0.75 0.296875 -0.53125 0.296875 -0.375 C 0.296875 -0.15625 0.453125 0.09375 0.8125 0.09375 C 1.375 0.09375 1.671875 -0.34375 1.984375 -0.828125 L 2.609375 -1.796875 L 3.015625 -0.671875 C 3.140625 -0.3125 3.328125 0.09375 3.734375 0.09375 C 4.3125 0.09375 4.765625 -0.875 4.890625 -1.015625 L 4.75 -1.109375 C 4.53125 -0.6875 4.296875 -0.546875 4.140625 -0.546875 C 3.6875 -0.546875 3.453125 -1.890625 3.15625 -2.515625 L 3.703125 -3.359375 C 3.84375 -3.578125 3.953125 -3.734375 4.25 -3.734375 C 4.421875 -3.734375 4.46875 -3.65625 4.6875 -3.65625 C 4.953125 -3.65625 5.078125 -3.875 5.078125 -4.0625 C 5.078125 -4.28125 4.921875 -4.390625 4.59375 -4.390625 C 4.09375 -4.390625 3.75 -3.953125 3.484375 -3.5625 Z M 3.046875 -2.875 "/>
</g>
<g id="glyph-0-1">
<path d="M 2.6875 -3.0625 C 2.609375 -3.796875 2.53125 -4.0625 2.296875 -4.390625 L 0.8125 -4.140625 L 0.828125 -3.984375 C 0.921875 -3.984375 1.078125 -4.015625 1.1875 -4.015625 C 1.75 -4.015625 1.828125 -3.421875 1.890625 -2.96875 L 2.265625 0.15625 C 2 0.5625 1.4375 1.171875 1.265625 1.171875 C 1.109375 1.171875 1.125 0.875 0.703125 0.875 C 0.5625 0.875 0.296875 0.984375 0.296875 1.28125 C 0.296875 1.515625 0.484375 1.828125 0.859375 1.828125 C 1.53125 1.828125 2.1875 0.84375 2.90625 -0.0625 C 3.328125 -0.59375 4.9375 -2.984375 4.9375 -3.765625 C 4.9375 -4.15625 4.6875 -4.390625 4.375 -4.390625 C 4.09375 -4.390625 3.90625 -4.203125 3.90625 -3.984375 C 3.90625 -3.609375 4.421875 -3.515625 4.421875 -3.296875 C 4.421875 -3.125 4.34375 -2.921875 4.140625 -2.546875 C 3.921875 -2.140625 3.578125 -1.546875 2.96875 -0.71875 Z M 2.6875 -3.0625 "/>
</g>
<g id="glyph-0-2">
<path d="M 7.09375 -4.1875 C 7.09375 -5.4375 6.28125 -6.671875 4.609375 -6.671875 C 2.078125 -6.671875 0.5 -4.234375 0.5 -2.21875 C 0.5 -0.84375 1.53125 0.109375 3.015625 0.109375 C 5.546875 0.109375 7.09375 -2.21875 7.09375 -4.1875 Z M 5.9375 -4.421875 C 5.9375 -3.015625 5.21875 -0.265625 3.09375 -0.265625 C 2.328125 -0.265625 1.703125 -0.796875 1.703125 -1.765625 C 1.703125 -3.1875 2.21875 -6.296875 4.53125 -6.296875 C 5.546875 -6.296875 5.9375 -5.484375 5.9375 -4.421875 Z M 5.9375 -4.421875 "/>
</g>
<g id="glyph-0-3">
<path d="M 4.359375 -6.78125 L 4.28125 -6.859375 C 4.109375 -6.65625 4.03125 -6.59375 3.796875 -6.59375 L 1.734375 -6.59375 L 0.640625 -4.234375 C 0.640625 -4.234375 0.640625 -4.203125 0.640625 -4.1875 C 0.640625 -4.125 0.671875 -4.109375 0.75 -4.109375 C 1.71875 -4.109375 2.40625 -3.78125 2.875 -3.40625 C 3.328125 -3.046875 3.546875 -2.546875 3.546875 -1.90625 C 3.546875 -1.0625 2.90625 -0.234375 2.203125 -0.234375 C 2 -0.234375 1.78125 -0.3125 1.5 -0.546875 C 1.171875 -0.8125 0.984375 -0.859375 0.75 -0.859375 C 0.484375 -0.859375 0.3125 -0.734375 0.3125 -0.484375 C 0.3125 -0.09375 0.828125 0.140625 1.578125 0.140625 C 2.25 0.140625 2.796875 -0.015625 3.265625 -0.34375 C 3.953125 -0.84375 4.25 -1.46875 4.25 -2.421875 C 4.25 -2.953125 4.15625 -3.328125 3.890625 -3.6875 C 3.328125 -4.46875 2.828125 -4.6875 1.40625 -4.96875 L 1.796875 -5.8125 L 3.734375 -5.8125 C 3.890625 -5.8125 3.984375 -5.875 4 -5.9375 Z M 4.359375 -6.78125 "/>
</g>
<g id="glyph-0-4">
<path d="M 6.1875 -2.1875 L 6.1875 -2.84375 L 0.640625 -2.84375 L 0.640625 -2.1875 Z M 6.1875 -2.1875 "/>
</g>
<g id="glyph-0-5">
<path d="M 4.71875 -1.359375 L 4.578125 -1.421875 C 4.25 -0.875 4.046875 -0.75 3.625 -0.75 L 1.296875 -0.75 L 2.9375 -2.515625 C 3.828125 -3.453125 4.21875 -4.203125 4.21875 -4.984375 C 4.21875 -5.96875 3.5 -6.734375 2.375 -6.734375 C 1.140625 -6.734375 0.515625 -5.921875 0.296875 -4.75 L 0.515625 -4.703125 C 0.90625 -5.6875 1.25 -6 1.96875 -6 C 2.828125 -6 3.359375 -5.5 3.359375 -4.59375 C 3.359375 -3.75 3 -2.984375 2.0625 -2 L 0.296875 -0.125 L 0.296875 0 L 4.1875 0 Z M 4.71875 -1.359375 "/>
</g>
<g id="glyph-0-6">
<path d="M 1.796875 -0.421875 C 1.796875 -0.734375 1.546875 -1 1.25 -1 C 0.953125 -1 0.703125 -0.75 0.703125 -0.4375 C 0.703125 -0.125 0.9375 0.109375 1.25 0.109375 C 1.546875 0.109375 1.796875 -0.140625 1.796875 -0.421875 Z M 1.796875 -0.421875 "/>
</g>
<g id="glyph-0-7">
<path d="M 4.75 -3.296875 C 4.75 -5.328125 3.84375 -6.734375 2.53125 -6.734375 C 0.921875 -6.734375 0.234375 -5.109375 0.234375 -3.34375 C 0.234375 -1.71875 0.78125 0.140625 2.5 0.140625 C 4.109375 0.140625 4.75 -1.578125 4.75 -3.296875 Z M 3.78125 -3.234375 C 3.78125 -1.265625 3.34375 -0.125 2.5 -0.125 C 1.640625 -0.125 1.203125 -1.25 1.203125 -3.28125 C 1.203125 -5.296875 1.640625 -6.484375 2.46875 -6.484375 C 3.34375 -6.484375 3.78125 -5.3125 3.78125 -3.234375 Z M 3.78125 -3.234375 "/>
</g>
<g id="glyph-0-8">
<path d="M 3.03125 1.609375 C 1.640625 0.4375 1.328125 -0.6875 1.328125 -2.546875 C 1.328125 -4.46875 1.640625 -5.390625 3.03125 -6.578125 L 2.9375 -6.734375 C 1.34375 -5.796875 0.484375 -4.359375 0.484375 -2.515625 C 0.484375 -0.8125 1.328125 0.875 2.90625 1.765625 Z M 3.03125 1.609375 "/>
</g>
<g id="glyph-0-9">
<path d="M 3.921875 0 L 3.921875 -0.15625 C 3.1875 -0.15625 2.984375 -0.328125 2.984375 -0.75 L 2.984375 -6.703125 L 2.890625 -6.734375 L 1.109375 -5.828125 L 1.109375 -5.6875 L 1.375 -5.796875 C 1.5625 -5.859375 1.71875 -5.90625 1.828125 -5.90625 C 2.03125 -5.90625 2.125 -5.765625 2.125 -5.421875 L 2.125 -0.953125 C 2.125 -0.40625 1.90625 -0.1875 1.171875 -0.15625 L 1.171875 0 Z M 3.921875 0 "/>
</g>
<g id="glyph-0-10">
<path d="M 0.828125 1.40625 C 1.515625 1.078125 1.9375 0.453125 1.9375 -0.15625 C 1.9375 -0.671875 1.59375 -1.015625 1.140625 -1.015625 C 0.78125 -1.015625 0.546875 -0.78125 0.546875 -0.453125 C 0.546875 -0.109375 0.75 0.0625 1.125 0.0625 C 1.234375 0.0625 1.328125 0.015625 1.421875 0.015625 C 1.5 0.015625 1.5625 0.078125 1.5625 0.15625 C 1.5625 0.484375 1.28125 0.84375 0.734375 1.21875 Z M 0.828125 1.40625 "/>
</g>
<g id="glyph-0-11">
<path d="M 0.59375 0.21875 C 1.890625 0.046875 2.53125 -0.203125 3.375 -0.96875 C 4.171875 -1.6875 4.578125 -2.78125 4.578125 -3.921875 C 4.578125 -4.765625 4.34375 -5.484375 3.9375 -5.984375 C 3.546875 -6.453125 3.015625 -6.734375 2.375 -6.734375 C 1.1875 -6.734375 0.296875 -5.734375 0.296875 -4.390625 C 0.296875 -3.171875 1.015625 -2.359375 2.09375 -2.359375 C 2.6875 -2.359375 3.15625 -2.515625 3.59375 -2.9375 C 3.1875 -1.296875 2.078125 -0.25 0.5625 0.015625 Z M 3.609375 -3.53125 C 3.609375 -3.015625 2.875 -2.796875 2.4375 -2.796875 C 1.6875 -2.796875 1.21875 -3.53125 1.21875 -4.71875 C 1.21875 -5.265625 1.359375 -5.859375 1.5625 -6.125 C 1.734375 -6.34375 2 -6.453125 2.296875 -6.453125 C 3.15625 -6.453125 3.609375 -5.609375 3.609375 -3.921875 Z M 3.609375 -3.53125 "/>
</g>
<g id="glyph-0-12">
<path d="M 0.296875 -6.578125 C 1.734375 -5.4375 1.984375 -4.296875 1.984375 -2.4375 C 1.984375 -0.5 1.703125 0.4375 0.296875 1.609375 L 0.375 1.765625 C 1.96875 0.796875 2.84375 -0.625 2.84375 -2.46875 C 2.84375 -4.15625 1.9375 -5.828125 0.40625 -6.734375 Z M 0.296875 -6.578125 "/>
</g>
</g>
</defs>
<path fill="none" stroke-width="1.19553" stroke-linecap="butt" stroke-linejoin="miter" stroke="rgb(0%, 0%, 0%)" stroke-opacity="1" stroke-miterlimit="10" d="M -170.079875 0.00165625 L 121.822469 0.00165625 " transform="matrix(1, 0, 0, -1, 175.658, 143.154)"/>
<path fill-rule="nonzero" fill="rgb(0%, 0%, 0%)" fill-opacity="1" d="M 303.21875 143.152344 C 301.519531 142.835938 298.753906 141.878906 296.84375 140.761719 L 296.84375 145.546875 C 298.753906 144.429688 301.519531 143.472656 303.21875 143.152344 "/>
<g fill="rgb(0%, 0%, 0%)" fill-opacity="1">
<use xlink:href="#glyph-0-0" x="307.137" y="145.306"/>
</g>
<path fill="none" stroke-width="1.19553" stroke-linecap="butt" stroke-linejoin="miter" stroke="rgb(0%, 0%, 0%)" stroke-opacity="1" stroke-miterlimit="10" d="M -0.00175 -22.678031 L -0.00175 118.986031 " transform="matrix(1, 0, 0, -1, 175.658, 143.154)"/>
<path fill-rule="nonzero" fill="rgb(0%, 0%, 0%)" fill-opacity="1" d="M 175.65625 18.429688 C 175.339844 20.128906 174.382812 22.894531 173.265625 24.804688 L 178.050781 24.804688 C 176.933594 22.894531 175.976562 20.128906 175.65625 18.429688 "/>
<g fill="rgb(0%, 0%, 0%)" fill-opacity="1">
<use xlink:href="#glyph-0-1" x="173.187" y="12.688"/>
</g>
<path fill="none" stroke-width="1.19553" stroke-linecap="butt" stroke-linejoin="miter" stroke="rgb(0%, 0%, 100%)" stroke-opacity="1" stroke-miterlimit="10" d="M -136.06425 117.4665 C -136.06425 117.4665 -134.700969 111.099312 -134.173625 108.689156 C -133.650187 106.279 -132.810344 102.450875 -132.286906 100.0915 C -131.763469 97.728219 -130.919719 93.982125 -130.396281 91.669625 C -129.872844 89.361031 -129.033 85.693062 -128.505656 83.431344 C -127.982219 81.169625 -127.142375 77.583687 -126.618937 75.368844 C -126.0955 73.157906 -125.25175 69.650094 -124.728312 67.486031 C -124.204875 65.325875 -123.365031 61.896187 -122.837687 59.782906 C -122.31425 57.673531 -121.474406 54.325875 -120.950969 52.259469 C -120.427531 50.196969 -119.583781 46.927437 -119.060344 44.915719 C -118.536906 42.904 -117.697062 39.712594 -117.169719 37.751656 C -116.646281 35.786812 -115.806437 32.677437 -115.283 30.763375 C -114.759562 28.849312 -113.915812 25.821969 -113.392375 23.954781 C -112.868937 22.0915 -112.029094 19.142281 -111.50175 17.325875 C -110.978312 15.513375 -110.138469 12.642281 -109.615031 10.876656 C -109.091594 9.111031 -108.247844 5.911812 -107.724406 4.607125 C -107.200969 3.302437 -106.361125 1.095406 -105.833781 1.482125 C -105.310344 1.868844 -104.4705 5.779 -103.947062 7.396187 C -103.423625 9.013375 -102.579875 11.564156 -102.056437 13.130562 C -101.533 14.693062 -100.693156 17.165719 -100.165812 18.681344 C -99.642375 20.200875 -98.802531 22.5915 -98.279094 24.056344 C -97.755656 25.525094 -96.911906 27.837594 -96.388469 29.251656 C -95.865031 30.669625 -95.025187 32.904 -94.497844 34.271187 C -93.974406 35.638375 -93.134562 37.790719 -92.611125 39.107125 C -92.087687 40.423531 -91.243937 42.49775 -90.7205 43.767281 C -90.197062 45.032906 -89.357219 47.029 -88.829875 48.243844 C -88.306437 49.462594 -87.466594 51.376656 -86.943156 52.544625 C -86.419719 53.712594 -85.575969 55.548531 -85.052531 56.665719 C -84.529094 57.786812 -83.68925 59.540719 -83.161906 60.607125 C -82.638469 61.677437 -81.798625 63.353219 -81.275187 64.37275 C -80.75175 65.392281 -79.908 66.986031 -79.384562 67.954781 C -78.861125 68.927437 -78.021281 70.439156 -77.493937 71.361031 C -76.9705 72.279 -76.130656 73.7165 -75.607219 74.587594 C -75.083781 75.454781 -74.240031 76.814156 -73.716594 77.634469 C -73.193156 78.454781 -72.353312 79.728219 -71.825969 80.501656 C -71.302531 81.271187 -70.462687 82.4665 -69.93925 83.189156 C -69.415812 83.911812 -68.572062 85.029 -68.048625 85.696969 C -67.525187 86.368844 -66.685344 87.407906 -66.158 88.029 C -65.634562 88.650094 -64.794719 89.607125 -64.271281 90.181344 C -63.747844 90.751656 -62.904094 91.630562 -62.380656 92.154 C -61.857219 92.673531 -61.017375 93.474312 -60.490031 93.946969 C -59.966594 94.419625 -59.12675 95.138375 -58.603312 95.56025 C -58.079875 95.982125 -57.236125 96.62275 -56.712687 96.993844 C -56.18925 97.368844 -55.349406 97.927437 -54.822062 98.251656 C -54.298625 98.575875 -53.458781 99.052437 -52.935344 99.325875 C -52.408 99.599312 -51.568156 100.001656 -51.044719 100.224312 C -50.521281 100.446969 -49.681437 100.767281 -49.154094 100.943062 C -48.630656 101.118844 -47.790812 101.357125 -47.267375 101.482125 C -46.740031 101.607125 -45.900187 101.767281 -45.37675 101.8415 C -44.853312 101.919625 -44.013469 101.99775 -43.486125 102.025094 C -42.962687 102.048531 -42.122844 102.048531 -41.599406 102.025094 C -41.072062 102.001656 -40.232219 101.923531 -39.708781 101.849312 C -39.185344 101.775094 -38.3455 101.618844 -37.818156 101.493844 C -37.294719 101.368844 -36.454875 101.130562 -35.931437 100.958687 C -35.404094 100.782906 -34.56425 100.4665 -34.040812 100.243844 C -33.517375 100.021187 -32.677531 99.62275 -32.150187 99.349312 C -31.62675 99.079781 -30.786906 98.599312 -30.263469 98.279 C -29.736125 97.954781 -28.896281 97.400094 -28.372844 97.025094 C -27.849406 96.654 -27.009562 96.017281 -26.482219 95.595406 C -25.958781 95.173531 -25.118937 94.458687 -24.5955 93.986031 C -24.068156 93.513375 -23.228312 92.720406 -22.704875 92.196969 C -22.181437 91.677437 -21.341594 90.798531 -20.81425 90.228219 C -20.290812 89.657906 -19.450969 88.704781 -18.927531 88.083687 C -18.400187 87.462594 -17.560344 86.427437 -17.036906 85.755562 C -16.513469 85.087594 -15.673625 83.970406 -15.146281 83.251656 C -14.622844 82.532906 -13.783 81.337594 -13.259562 80.568062 C -12.732219 79.798531 -11.892375 78.525094 -11.368937 77.704781 C -10.8455 76.884469 -10.005656 75.529 -9.478312 74.661812 C -8.954875 73.794625 -8.115031 72.361031 -7.591594 71.439156 C -7.06425 70.521187 -6.224406 69.009469 -5.700969 68.040719 C -5.177531 67.071969 -4.337687 65.478219 -3.810344 64.458687 C -3.286906 63.443062 -2.447062 61.771187 -1.923625 60.700875 C -1.396281 59.634469 -0.556437 57.880562 -0.033 56.763375 C 0.490438 55.646187 1.330281 53.814156 1.857625 52.646187 C 2.381063 51.478219 3.220906 49.568062 3.744344 48.349312 C 4.271688 47.134469 5.111531 45.142281 5.634969 43.876656 C 6.158406 42.607125 6.99825 40.536812 7.525594 39.220406 C 8.049031 37.904 8.888875 35.755562 9.412313 34.388375 C 9.939656 33.021187 10.7795 30.790719 11.302938 29.376656 C 11.826375 27.958687 12.666219 25.650094 13.193563 24.18525 C 13.717 22.720406 14.556844 20.329781 15.080281 18.814156 C 15.607625 17.298531 16.447469 14.829781 16.970906 13.263375 C 17.494344 11.700875 18.334188 9.150094 18.861531 7.536812 C 19.384969 5.919625 20.224813 2.052437 20.74825 1.626656 C 21.275594 1.200875 22.115438 3.196969 22.638875 4.458687 C 23.162313 5.720406 24.002156 8.962594 24.5295 10.724312 C 25.052938 12.489937 25.892781 15.357125 26.416219 17.169625 C 26.943563 18.982125 27.783406 21.931344 28.306844 23.794625 C 28.830281 25.657906 29.670125 28.68525 30.197469 30.599312 C 30.720906 32.509469 31.56075 35.618844 32.084188 37.579781 C 32.611531 39.540719 33.451375 42.728219 33.974813 44.739937 C 34.49825 46.755562 35.338094 50.021187 35.865438 52.083687 C 36.388875 54.142281 37.228719 57.489937 37.752156 59.603219 C 38.2795 61.712594 39.119344 65.138375 39.642781 67.298531 C 40.166219 69.462594 41.006063 72.9665 41.533406 75.177437 C 42.056844 77.388375 42.896688 80.974312 43.420125 83.236031 C 43.947469 85.493844 44.787313 89.161812 45.31075 91.470406 C 45.834188 93.782906 46.674031 97.525094 47.201375 99.884469 C 47.724813 102.24775 48.564656 106.071969 49.088094 108.482125 C 49.615438 110.888375 50.978719 117.251656 50.978719 117.251656 " transform="matrix(1, 0, 0, -1, 175.658, 143.154)"/>
<g fill="rgb(0%, 0%, 0%)" fill-opacity="1">
<use xlink:href="#glyph-0-2" x="164.646" y="153.339"/>
</g>
<path fill-rule="nonzero" fill="rgb(0%, 0%, 0%)" fill-opacity="1" stroke-width="0.3985" stroke-linecap="butt" stroke-linejoin="miter" stroke="rgb(0%, 0%, 0%)" stroke-opacity="1" stroke-miterlimit="10" d="M 1.494344 56.693062 C 1.494344 57.517281 0.826375 58.18525 -0.00175 58.18525 C -0.825969 58.18525 -1.493937 57.517281 -1.493937 56.693062 C -1.493937 55.868844 -0.825969 55.196969 -0.00175 55.196969 C 0.826375 55.196969 1.494344 55.868844 1.494344 56.693062 Z M 1.494344 56.693062 " transform="matrix(1, 0, 0, -1, 175.658, 143.154)"/>
<g fill="rgb(0%, 0%, 0%)" fill-opacity="1">
<use xlink:href="#glyph-0-3" x="179.178" y="89.819"/>
</g>
<path fill-rule="nonzero" fill="rgb(0%, 0%, 0%)" fill-opacity="1" stroke-width="0.3985" stroke-linecap="butt" stroke-linejoin="miter" stroke="rgb(0%, 0%, 0%)" stroke-opacity="1" stroke-miterlimit="10" d="M -104.806437 0.00165625 C -104.806437 0.825875 -105.474406 1.493844 -106.298625 1.493844 C -107.12675 1.493844 -107.794719 0.825875 -107.794719 0.00165625 C -107.794719 -0.826469 -107.12675 -1.494438 -106.298625 -1.494438 C -105.474406 -1.494438 -104.806437 -0.826469 -104.806437 0.00165625 Z M -104.806437 0.00165625 " transform="matrix(1, 0, 0, -1, 175.658, 143.154)"/>
<g fill="rgb(0%, 0%, 0%)" fill-opacity="1">
<use xlink:href="#glyph-0-4" x="59.718" y="153.528"/>
<use xlink:href="#glyph-0-5" x="66.542381" y="153.528"/>
<use xlink:href="#glyph-0-6" x="71.523681" y="153.528"/>
<use xlink:href="#glyph-0-3" x="74.014331" y="153.528"/>
</g>
<path fill-rule="nonzero" fill="rgb(0%, 0%, 0%)" fill-opacity="1" stroke-width="0.3985" stroke-linecap="butt" stroke-linejoin="miter" stroke="rgb(0%, 0%, 0%)" stroke-opacity="1" stroke-miterlimit="10" d="M 22.756063 0.00165625 C 22.756063 0.825875 22.084188 1.493844 21.259969 1.493844 C 20.43575 1.493844 19.763875 0.825875 19.763875 0.00165625 C 19.763875 -0.826469 20.43575 -1.494438 21.259969 -1.494438 C 22.084188 -1.494438 22.756063 -0.826469 22.756063 0.00165625 Z M 22.756063 0.00165625 " transform="matrix(1, 0, 0, -1, 175.658, 143.154)"/>
<g fill="rgb(0%, 0%, 0%)" fill-opacity="1">
<use xlink:href="#glyph-0-7" x="190.691" y="153.528"/>
<use xlink:href="#glyph-0-6" x="195.6723" y="153.528"/>
<use xlink:href="#glyph-0-3" x="198.16295" y="153.528"/>
</g>
<path fill-rule="nonzero" fill="rgb(0%, 0%, 0%)" fill-opacity="1" stroke-width="0.3985" stroke-linecap="butt" stroke-linejoin="miter" stroke="rgb(0%, 0%, 0%)" stroke-opacity="1" stroke-miterlimit="10" d="M -41.025187 102.048531 C -41.025187 102.87275 -41.693156 103.540719 -42.521281 103.540719 C -43.3455 103.540719 -44.013469 102.87275 -44.013469 102.048531 C -44.013469 101.220406 -43.3455 100.552437 -42.521281 100.552437 C -41.693156 100.552437 -41.025187 101.220406 -41.025187 102.048531 Z M -41.025187 102.048531 " transform="matrix(1, 0, 0, -1, 175.658, 143.154)"/>
<g fill="rgb(0%, 0%, 0%)" fill-opacity="1">
<use xlink:href="#glyph-0-8" x="119.351" y="35.824"/>
<use xlink:href="#glyph-0-4" x="122.668546" y="35.824"/>
<use xlink:href="#glyph-0-9" x="129.492927" y="35.824"/>
<use xlink:href="#glyph-0-10" x="134.474227" y="35.824"/>
</g>
<g fill="rgb(0%, 0%, 0%)" fill-opacity="1">
<use xlink:href="#glyph-0-11" x="138.618668" y="35.824"/>
<use xlink:href="#glyph-0-12" x="143.599968" y="35.824"/>
</g>
</svg>
