<?xml version="1.0" encoding="UTF-8"?>
<svg xmlns="http://www.w3.org/2000/svg" xmlns:xlink="http://www.w3.org/1999/xlink" width="291.96pt" height="290.42pt" viewBox="0 0 291.96 290.42">
<defs>
<g>
<g id="glyph-0-0">
<path d="M 6.1875 -2.1875 L 6.1875 -2.84375 L 0.640625 -2.84375 L 0.640625 -2.1875 Z M 6.1875 -2.1875 "/>
</g>
<g id="glyph-0-1">
<path d="M 4.71875 -1.359375 L 4.578125 -1.421875 C 4.25 -0.875 4.046875 -0.75 3.625 -0.75 L 1.296875 -0.75 L 2.9375 -2.515625 C 3.828125 -3.453125 4.21875 -4.203125 4.21875 -4.984375 C 4.21875 -5.96875 3.5 -6.734375 2.375 -6.734375 C 1.140625 -6.734375 0.515625 -5.921875 0.296875 -4.75 L 0.515625 -4.703125 C 0.90625 -5.6875 1.25 -6 1.96875 -6 C 2.828125 -6 3.359375 -5.5 3.359375 -4.59375 C 3.359375 -3.75 3 -2.984375 2.0625 -2 L 0.296875 -0.125 L 0.296875 0 L 4.1875 0 Z M 4.71875 -1.359375 "/>
</g>
<g id="glyph-0-2">
<path d="M 3.921875 0 L 3.921875 -0.15625 C 3.1875 -0.15625 2.984375 -0.328125 2.984375 -0.75 L 2.984375 -6.703125 L 2.890625 -6.734375 L 1.109375 -5.828125 L 1.109375 -5.6875 L 1.375 -5.796875 C 1.5625 -5.859375 1.71875 -5.90625 1.828125 -5.90625 C 2.03125 -5.90625 2.125 -5.765625 2.125 -5.421875 L 2.125 -0.953125 C 2.125 -0.40625 1.90625 -0.1875 1.171875 -0.15625 L 1.171875 0 Z M 3.921875 0 "/>
</g>
<g id="glyph-0-3">
<path d="M 0.609375 -5.078125 C 1.015625 -5.828125 1.46875 -6.140625 2.09375 -6.140625 C 2.75 -6.140625 3.171875 -5.796875 3.171875 -5.125 C 3.171875 -4.515625 2.84375 -4.0625 2.359375 -3.78125 C 2.15625 -3.671875 1.90625 -3.5625 1.53125 -3.421875 L 1.53125 -3.296875 C 2.09375 -3.296875 2.328125 -3.265625 2.546875 -3.1875 C 3.234375 -2.984375 3.578125 -2.5 3.578125 -1.75 C 3.578125 -0.890625 3.015625 -0.21875 2.28125 -0.21875 C 2 -0.21875 1.796875 -0.265625 1.421875 -0.53125 C 1.140625 -0.734375 0.984375 -0.78125 0.8125 -0.78125 C 0.59375 -0.78125 0.40625 -0.640625 0.40625 -0.421875 C 0.40625 -0.0625 0.796875 0.140625 1.53125 0.140625 C 2.40625 0.140625 3.359375 -0.15625 3.84375 -0.78125 C 4.125 -1.171875 4.296875 -1.65625 4.296875 -2.1875 C 4.296875 -2.703125 4.140625 -3.15625 3.859375 -3.46875 C 3.65625 -3.6875 3.46875 -3.8125 3.03125 -4 C 3.703125 -4.390625 3.953125 -4.890625 3.953125 -5.375 C 3.953125 -6.1875 3.328125 -6.734375 2.40625 -6.734375 C 1.359375 -6.734375 0.734375 -6.078125 0.453125 -5.125 Z M 0.609375 -5.078125 "/>
</g>
<g id="glyph-0-4">
<path d="M 4.71875 -1.671875 L 4.71875 -2.296875 L 3.6875 -2.296875 L 3.6875 -6.734375 L 3.25 -6.734375 L 0.125 -2.296875 L 0.125 -1.671875 L 2.90625 -1.671875 L 2.90625 0 L 3.6875 0 L 3.6875 -1.671875 Z M 2.90625 -2.296875 L 0.515625 -2.296875 L 2.90625 -5.71875 Z M 2.90625 -2.296875 "/>
</g>
<g id="glyph-0-5">
<path d="M 4.359375 -6.78125 L 4.28125 -6.859375 C 4.109375 -6.65625 4.03125 -6.59375 3.796875 -6.59375 L 1.734375 -6.59375 L 0.640625 -4.234375 C 0.640625 -4.234375 0.640625 -4.203125 0.640625 -4.1875 C 0.640625 -4.125 0.671875 -4.109375 0.75 -4.109375 C 1.71875 -4.109375 2.40625 -3.78125 2.875 -3.40625 C 3.328125 -3.046875 3.546875 -2.546875 3.546875 -1.90625 C 3.546875 -1.0625 2.90625 -0.234375 2.203125 -0.234375 C 2 -0.234375 1.78125 -0.3125 1.5 -0.546875 C 1.171875 -0.8125 0.984375 -0.859375 0.75 -0.859375 C 0.484375 -0.859375 0.3125 -0.734375 0.3125 -0.484375 C 0.3125 -0.09375 0.828125 0.140625 1.578125 0.140625 C 2.25 0.140625 2.796875 -0.015625 3.265625 -0.34375 C 3.953125 -0.84375 4.25 -1.46875 4.25 -2.421875 C 4.25 -2.953125 4.15625 -3.328125 3.890625 -3.6875 C 3.328125 -4.46875 2.828125 -4.6875 1.40625 -4.96875 L 1.796875 -5.8125 L 3.734375 -5.8125 C 3.890625 -5.8125 3.984375 -5.875 4 -5.9375 Z M 4.359375 -6.78125 "/>
</g>
<g id="glyph-0-6">
<path d="M 4.453125 -6.8125 C 3.078125 -6.671875 2.28125 -6.4375 1.421875 -5.53125 C 0.71875 -4.8125 0.34375 -3.859375 0.34375 -2.78125 C 0.34375 -2.078125 0.53125 -1.375 0.8125 -0.875 C 1.15625 -0.234375 1.78125 0.140625 2.578125 0.140625 C 3.234375 0.140625 3.78125 -0.125 4.15625 -0.59375 C 4.484375 -0.984375 4.671875 -1.546875 4.671875 -2.1875 C 4.671875 -3.46875 3.953125 -4.265625 2.78125 -4.265625 C 2.34375 -4.265625 2 -4.203125 1.515625 -3.8125 C 1.78125 -5.328125 2.90625 -6.40625 4.46875 -6.65625 Z M 3.765625 -1.875 C 3.765625 -0.859375 3.40625 -0.140625 2.6875 -0.140625 C 1.75 -0.140625 1.265625 -1.140625 1.265625 -2.65625 C 1.265625 -3.5625 1.859375 -3.8125 2.421875 -3.8125 C 3.34375 -3.8125 3.765625 -3.15625 3.765625 -1.875 Z M 3.765625 -1.875 "/>
</g>
<g id="glyph-0-7">
<path d="M 2.6875 -3.0625 C 2.609375 -3.796875 2.53125 -4.0625 2.296875 -4.390625 L 0.8125 -4.140625 L 0.828125 -3.984375 C 0.921875 -3.984375 1.078125 -4.015625 1.1875 -4.015625 C 1.75 -4.015625 1.828125 -3.421875 1.890625 -2.96875 L 2.265625 0.15625 C 2 0.5625 1.4375 1.171875 1.265625 1.171875 C 1.109375 1.171875 1.125 0.875 0.703125 0.875 C 0.5625 0.875 0.296875 0.984375 0.296875 1.28125 C 0.296875 1.515625 0.484375 1.828125 0.859375 1.828125 C 1.53125 1.828125 2.1875 0.84375 2.90625 -0.0625 C 3.328125 -0.59375 4.9375 -2.984375 4.9375 -3.765625 C 4.9375 -4.15625 4.6875 -4.390625 4.375 -4.390625 C 4.09375 -4.390625 3.90625 -4.203125 3.90625 -3.984375 C 3.90625 -3.609375 4.421875 -3.515625 4.421875 -3.296875 C 4.421875 -3.125 4.34375 -2.921875 4.140625 -2.546875 C 3.921875 -2.140625 3.578125 -1.546875 2.96875 -0.71875 Z M 2.6875 -3.0625 "/>
</g>
<g id="glyph-0-8">
<path d="M 6.34375 -3.1875 L 6.34375 -3.84375 L 0.484375 -3.84375 L 0.484375 -3.1875 Z M 6.34375 -1.203125 L 6.34375 -1.859375 L 0.484375 -1.859375 L 0.484375 -1.203125 Z M 6.34375 -1.203125 "/>
</g>
<g id="glyph-0-9">
<path d="M 3.03125 1.609375 C 1.640625 0.4375 1.328125 -0.6875 1.328125 -2.546875 C 1.328125 -4.46875 1.640625 -5.390625 3.03125 -6.578125 L 2.9375 -6.734375 C 1.34375 -5.796875 0.484375 -4.359375 0.484375 -2.515625 C 0.484375 -0.8125 1.328125 0.875 2.90625 1.765625 Z M 3.03125 1.609375 "/>
</g>
<g id="glyph-0-10">
<path d="M 3.046875 -2.875 L 2.84375 -3.421875 C 2.71875 -3.75 2.53125 -4.15625 2.09375 -4.390625 L 0.78125 -4.0625 L 0.8125 -3.890625 C 0.90625 -3.921875 1.0625 -3.953125 1.1875 -3.953125 C 1.734375 -3.953125 2 -3.53125 2.15625 -3.0625 L 2.5 -2.140625 L 1.84375 -1.140625 C 1.53125 -0.640625 1.265625 -0.546875 1.140625 -0.546875 C 0.890625 -0.546875 0.9375 -0.75 0.671875 -0.75 C 0.421875 -0.75 0.296875 -0.53125 0.296875 -0.375 C 0.296875 -0.15625 0.453125 0.09375 0.8125 0.09375 C 1.375 0.09375 1.671875 -0.34375 1.984375 -0.828125 L 2.609375 -1.796875 L 3.015625 -0.671875 C 3.140625 -0.3125 3.328125 0.09375 3.734375 0.09375 C 4.3125 0.09375 4.765625 -0.875 4.890625 -1.015625 L 4.75 -1.109375 C 4.53125 -0.6875 4.296875 -0.546875 4.140625 -0.546875 C 3.6875 -0.546875 3.453125 -1.890625 3.15625 -2.515625 L 3.703125 -3.359375 C 3.84375 -3.578125 3.953125 -3.734375 4.25 -3.734375 C 4.421875 -3.734375 4.46875 -3.65625 4.6875 -3.65625 C 4.953125 -3.65625 5.078125 -3.875 5.078125 -4.0625 C 5.078125 -4.28125 4.921875 -4.390625 4.59375 -4.390625 C 4.09375 -4.390625 3.75 -3.953125 3.484375 -3.5625 Z M 3.046875 -2.875 "/>
</g>
<g id="glyph-0-11">
<path d="M 0.296875 -6.578125 C 1.734375 -5.4375 1.984375 -4.296875 1.984375 -2.4375 C 1.984375 -0.5 1.703125 0.4375 0.296875 1.609375 L 0.375 1.765625 C 1.96875 0.796875 2.84375 -0.625 2.84375 -2.46875 C 2.84375 -4.15625 1.9375 -5.828125 0.40625 -6.734375 Z M 0.296875 -6.578125 "/>
</g>
<g id="glyph-1-0">
<path d="M 0.203125 -4.484375 L 0.203125 -4.171875 L 1.03125 -4.171875 L 1.03125 -1.03125 C 1.03125 -0.3125 0.921875 -0.1875 0.203125 -0.15625 L 0.203125 0 L 2.796875 0 L 2.796875 -0.15625 C 1.96875 -0.171875 1.859375 -0.296875 1.859375 -1.03125 L 1.859375 -4.171875 L 3.078125 -4.171875 L 3.078125 -4.484375 L 1.859375 -4.484375 L 1.859375 -5.640625 C 1.859375 -6.234375 2.046875 -6.53125 2.421875 -6.53125 C 2.640625 -6.53125 2.765625 -6.4375 2.953125 -6.140625 C 3.109375 -5.875 3.234375 -5.78125 3.40625 -5.78125 C 3.640625 -5.78125 3.8125 -5.96875 3.8125 -6.1875 C 3.8125 -6.546875 3.375 -6.8125 2.78125 -6.8125 C 2.15625 -6.8125 1.640625 -6.546875 1.375 -6.09375 C 1.109375 -5.640625 1.03125 -5.28125 1.03125 -4.484375 Z M 0.203125 -4.484375 "/>
</g>
<g id="glyph-2-0">
<path d="M 4.640625 -1.640625 L 4.640625 -2.140625 L 0.484375 -2.140625 L 0.484375 -1.640625 Z M 4.640625 -1.640625 "/>
</g>
<g id="glyph-2-1">
<path d="M 2.9375 0 L 2.9375 -0.109375 C 2.375 -0.109375 2.234375 -0.25 2.234375 -0.5625 L 2.234375 -5.03125 L 2.171875 -5.046875 L 0.828125 -4.375 L 0.828125 -4.265625 L 1.03125 -4.34375 C 1.171875 -4.390625 1.296875 -4.421875 1.359375 -4.421875 C 1.53125 -4.421875 1.59375 -4.3125 1.59375 -4.0625 L 1.59375 -0.703125 C 1.59375 -0.296875 1.4375 -0.140625 0.875 -0.109375 L 0.875 0 Z M 2.9375 0 "/>
</g>
</g>
<clipPath id="clip-0">
<path clip-rule="nonzero" d="M 14.203125 63 L 265 63 L 265 278.75 L 14.203125 278.75 Z M 14.203125 63 "/>
</clipPath>
<clipPath id="clip-1">
<path clip-rule="nonzero" d="M 14.203125 17 L 232 17 L 232 278.75 L 14.203125 278.75 Z M 14.203125 17 "/>
</clipPath>
<clipPath id="clip-2">
<path clip-rule="nonzero" d="M 14.203125 11.78125 L 281.175781 11.78125 L 281.175781 278.75 L 14.203125 278.75 Z M 14.203125 11.78125 "/>
</clipPath>
<clipPath id="clip-3">
<path clip-rule="nonzero" d="M 30 11.78125 L 32 11.78125 L 32 278.75 L 30 278.75 Z M 30 11.78125 "/>
</clipPath>
<clipPath id="clip-4">
<path clip-rule="nonzero" d="M 14.203125 261 L 281.175781 261 L 281.175781 263 L 14.203125 263 Z M 14.203125 261 "/>
</clipPath>
</defs>
<path fill="none" stroke-width="0.19925" stroke-linecap="butt" stroke-linejoin="miter" stroke="rgb(50%, 50%, 50%)" stroke-opacity="1" stroke-miterlimit="10" d="M -0.000875 64.618187 L -0.000875 68.868187 M 33.370219 64.618187 L 33.370219 68.868187 M 100.112406 64.618187 L 100.112406 68.868187 M 133.487406 64.618187 L 133.487406 68.868187 M 166.8585 64.618187 L 166.8585 68.868187 M 200.229594 64.618187 L 200.229594 68.868187 M 233.600687 64.618187 L 233.600687 68.868187 M 266.971781 64.618187 L 266.971781 68.868187 " transform="matrix(1, 0, 0, -1, 14.204, 278.751)"/>
<path fill="none" stroke-width="0.19925" stroke-linecap="butt" stroke-linejoin="miter" stroke="rgb(50%, 50%, 50%)" stroke-opacity="1" stroke-miterlimit="10" d="M 64.616312 0.001 L 68.870219 0.001 M 64.616312 33.372094 L 68.870219 33.372094 M 64.616312 100.114281 L 68.870219 100.114281 M 64.616312 133.485375 L 68.870219 133.485375 M 64.616312 166.856469 L 68.870219 166.856469 M 64.616312 200.227562 L 68.870219 200.227562 M 64.616312 233.598656 L 68.870219 233.598656 M 64.616312 266.96975 L 68.870219 266.96975 " transform="matrix(1, 0, 0, -1, 14.204, 278.751)"/>
<path fill="none" stroke-width="1.19553" stroke-linecap="butt" stroke-linejoin="miter" stroke="rgb(0%, 0%, 0%)" stroke-opacity="1" stroke-miterlimit="10" d="M -0.000875 66.743187 L 261.2335 66.743187 " transform="matrix(1, 0, 0, -1, 14.204, 278.751)"/>
<path fill-rule="nonzero" fill="rgb(0%, 0%, 0%)" fill-opacity="1" d="M 281.175781 212.007812 C 279.476562 211.691406 276.710938 210.734375 274.800781 209.617188 L 274.800781 214.398438 C 276.710938 213.285156 279.476562 212.328125 281.175781 212.007812 "/>
<path fill="none" stroke-width="1.19553" stroke-linecap="butt" stroke-linejoin="miter" stroke="rgb(0%, 0%, 0%)" stroke-opacity="1" stroke-miterlimit="10" d="M 66.741312 0.001 L 66.741312 261.231469 " transform="matrix(1, 0, 0, -1, 14.204, 278.751)"/>
<path fill-rule="nonzero" fill="rgb(0%, 0%, 0%)" fill-opacity="1" d="M 80.945312 11.78125 C 80.628906 13.480469 79.671875 16.242188 78.554688 18.15625 L 83.335938 18.15625 C 82.222656 16.242188 81.265625 13.480469 80.945312 11.78125 "/>
<g fill="rgb(0%, 0%, 0%)" fill-opacity="1">
<use xlink:href="#glyph-0-0" x="8.301" y="224.389"/>
<use xlink:href="#glyph-0-1" x="15.125381" y="224.389"/>
</g>
<g fill="rgb(0%, 0%, 0%)" fill-opacity="1">
<use xlink:href="#glyph-0-0" x="41.672" y="224.389"/>
<use xlink:href="#glyph-0-2" x="48.496381" y="224.389"/>
</g>
<g fill="rgb(0%, 0%, 0%)" fill-opacity="1">
<use xlink:href="#glyph-0-2" x="111.827" y="224.389"/>
</g>
<g fill="rgb(0%, 0%, 0%)" fill-opacity="1">
<use xlink:href="#glyph-0-1" x="145.199" y="224.389"/>
</g>
<g fill="rgb(0%, 0%, 0%)" fill-opacity="1">
<use xlink:href="#glyph-0-3" x="178.57" y="224.389"/>
</g>
<g fill="rgb(0%, 0%, 0%)" fill-opacity="1">
<use xlink:href="#glyph-0-4" x="211.942" y="224.389"/>
</g>
<g fill="rgb(0%, 0%, 0%)" fill-opacity="1">
<use xlink:href="#glyph-0-5" x="245.313" y="224.509"/>
</g>
<g fill="rgb(0%, 0%, 0%)" fill-opacity="1">
<use xlink:href="#glyph-0-6" x="278.684" y="224.469"/>
</g>
<g fill="rgb(0%, 0%, 0%)" fill-opacity="1">
<use xlink:href="#glyph-0-0" x="63.495" y="282.118"/>
<use xlink:href="#glyph-0-1" x="70.319381" y="282.118"/>
</g>
<g fill="rgb(0%, 0%, 0%)" fill-opacity="1">
<use xlink:href="#glyph-0-0" x="63.495" y="248.747"/>
<use xlink:href="#glyph-0-2" x="70.319381" y="248.747"/>
</g>
<g fill="rgb(0%, 0%, 0%)" fill-opacity="1">
<use xlink:href="#glyph-0-2" x="70.319" y="182.004"/>
</g>
<g fill="rgb(0%, 0%, 0%)" fill-opacity="1">
<use xlink:href="#glyph-0-1" x="70.319" y="148.633"/>
</g>
<g fill="rgb(0%, 0%, 0%)" fill-opacity="1">
<use xlink:href="#glyph-0-3" x="70.319" y="115.192"/>
</g>
<g fill="rgb(0%, 0%, 0%)" fill-opacity="1">
<use xlink:href="#glyph-0-4" x="70.319" y="81.89"/>
</g>
<g fill="rgb(0%, 0%, 0%)" fill-opacity="1">
<use xlink:href="#glyph-0-5" x="70.319" y="48.509"/>
</g>
<g fill="rgb(0%, 0%, 0%)" fill-opacity="1">
<use xlink:href="#glyph-0-6" x="70.319" y="15.117"/>
</g>
<g clip-path="url(#clip-0)">
<path fill="none" stroke-width="1.19553" stroke-linecap="butt" stroke-linejoin="miter" stroke="rgb(0%, 0%, 100%)" stroke-opacity="1" stroke-miterlimit="10" d="M 17.292094 2.391625 C 17.292094 2.391625 18.971781 44.977562 19.616312 54.977562 C 20.26475 64.977562 21.299906 70.067406 21.944437 74.46975 C 22.588969 78.868187 23.624125 83.754906 24.268656 86.6885 C 24.917094 89.622094 25.948344 93.403344 26.596781 95.618187 C 27.241312 97.833031 28.276469 100.872094 28.921 102.653344 C 29.565531 104.434594 30.600687 106.965844 31.249125 108.458031 C 31.893656 109.950219 32.928812 112.122094 33.573344 113.40725 C 34.217875 114.6885 35.253031 116.583031 35.897562 117.711937 C 36.546 118.836937 37.581156 120.520531 38.225687 121.524437 C 38.870219 122.528344 39.905375 124.040062 40.549906 124.946312 C 41.194437 125.852562 42.229594 127.223656 42.878031 128.047875 C 43.522562 128.872094 44.557719 130.133812 45.20225 130.887719 C 45.846781 131.645531 46.881937 132.801781 47.526469 133.501 C 48.174906 134.200219 49.210062 135.278344 49.854594 135.926781 C 50.499125 136.579125 51.534281 137.586937 52.178812 138.192406 C 52.82725 138.801781 53.8585 139.743187 54.506937 140.3135 C 55.151469 140.883812 56.186625 141.766625 56.831156 142.305687 C 57.475687 142.840844 58.510844 143.676781 59.159281 144.184594 C 59.803812 144.692406 60.838969 145.481469 61.4835 145.961937 C 62.128031 146.442406 63.163187 147.192406 63.807719 147.649437 C 64.456156 148.110375 65.491312 148.825219 66.135844 149.258812 C 66.780375 149.696312 67.815531 150.376 68.460062 150.793969 C 69.104594 151.208031 70.13975 151.860375 70.788187 152.258812 C 71.432719 152.65725 72.467875 153.28225 73.112406 153.665062 C 73.756937 154.043969 74.792094 154.645531 75.436625 155.012719 C 76.085062 155.379906 77.120219 155.954125 77.76475 156.305687 C 78.409281 156.661156 79.444437 157.215844 80.088969 157.555687 C 80.737406 157.895531 81.768656 158.430687 82.417094 158.758812 C 83.061625 159.083031 84.096781 159.598656 84.741312 159.915062 C 85.385844 160.231469 86.421 160.731469 87.069437 161.036156 C 87.713969 161.340844 88.749125 161.825219 89.393656 162.122094 C 90.038187 162.418969 91.073344 162.883812 91.717875 163.168969 C 92.366312 163.458031 93.401469 163.911156 94.046 164.192406 C 94.690531 164.46975 95.725687 164.911156 96.370219 165.180687 C 97.01475 165.450219 98.049906 165.876 98.698344 166.141625 C 99.342875 166.403344 100.378031 166.821312 101.022562 167.075219 C 101.667094 167.333031 102.70225 167.735375 103.346781 167.981469 C 103.995219 168.231469 105.030375 168.626 105.674906 168.868187 C 106.319437 169.110375 107.354594 169.493187 107.999125 169.727562 C 108.647562 169.961937 109.682719 170.336937 110.32725 170.567406 C 110.971781 170.797875 112.006937 171.161156 112.651469 171.383812 C 113.296 171.610375 114.331156 171.965844 114.979594 172.184594 C 115.624125 172.403344 116.659281 172.751 117.303812 172.965844 C 117.948344 173.180687 118.9835 173.520531 119.628031 173.727562 C 120.276469 173.9385 121.311625 174.270531 121.956156 174.473656 C 122.600687 174.676781 123.635844 175.001 124.280375 175.204125 C 124.924906 175.403344 125.960062 175.71975 126.6085 175.915062 C 127.253031 176.114281 128.288187 176.422875 128.932719 176.614281 C 129.57725 176.805687 130.612406 177.110375 131.256937 177.297875 C 131.905375 177.485375 132.940531 177.786156 133.585062 177.96975 C 134.229594 178.153344 135.26475 178.446312 135.909281 178.626 C 136.557719 178.809594 137.592875 179.09475 138.237406 179.270531 C 138.881937 179.450219 139.917094 179.731469 140.561625 179.903344 C 141.206156 180.079125 142.241312 180.352562 142.88975 180.524437 C 143.534281 180.696312 144.569437 180.965844 145.213969 181.133812 C 145.8585 181.301781 146.893656 181.567406 147.538187 181.731469 C 148.186625 181.895531 149.221781 182.15725 149.866312 182.321312 C 150.510844 182.481469 151.546 182.739281 152.190531 182.899437 C 152.835062 183.059594 153.870219 183.309594 154.518656 183.465844 C 155.163187 183.622094 156.198344 183.872094 156.842875 184.024437 C 157.487406 184.180687 158.522562 184.422875 159.167094 184.575219 C 159.815531 184.723656 160.850687 184.965844 161.495219 185.114281 C 162.13975 185.262719 163.174906 185.497094 163.819437 185.645531 C 164.467875 185.790062 165.503031 186.024437 166.147562 186.168969 C 166.792094 186.3135 167.82725 186.540062 168.471781 186.684594 C 169.116312 186.825219 170.151469 187.051781 170.799906 187.1885 C 171.444437 187.329125 172.479594 187.555687 173.124125 187.692406 C 173.768656 187.829125 174.803812 188.043969 175.448344 188.180687 C 176.096781 188.317406 177.131937 188.536156 177.776469 188.668969 C 178.421 188.801781 179.456156 189.012719 180.100687 189.145531 C 180.745219 189.274437 181.780375 189.485375 182.428812 189.618187 C 183.073344 189.747094 184.1085 189.958031 184.753031 190.086937 C 185.397562 190.215844 186.432719 190.418969 187.07725 190.543969 C 187.725687 190.668969 188.760844 190.872094 189.405375 190.997094 C 190.049906 191.122094 191.085062 191.321312 191.729594 191.442406 C 192.378031 191.567406 193.413187 191.762719 194.057719 191.883812 C 194.70225 192.004906 195.737406 192.200219 196.381937 192.317406 C 197.026469 192.4385 198.061625 192.629906 198.710062 192.747094 C 199.354594 192.868187 200.38975 193.055687 201.034281 193.172875 C 201.678812 193.290062 202.713969 193.473656 203.3585 193.590844 C 204.006937 193.704125 205.042094 193.887719 205.686625 194.004906 C 206.331156 194.118187 207.366312 194.297875 208.010844 194.411156 C 208.655375 194.524437 209.690531 194.704125 210.338969 194.8135 C 210.9835 194.926781 212.018656 195.102562 212.663187 195.211937 C 213.307719 195.321312 214.342875 195.497094 214.991312 195.606469 C 215.635844 195.715844 216.671 195.887719 217.315531 195.997094 C 217.960062 196.102562 218.995219 196.274437 219.63975 196.379906 C 220.288187 196.485375 221.323344 196.653344 221.967875 196.758812 C 222.612406 196.864281 223.647562 197.03225 224.292094 197.137719 C 224.936625 197.243187 225.971781 197.40725 226.620219 197.508812 C 227.26475 197.610375 228.299906 197.774437 228.944437 197.876 C 229.588969 197.977562 230.624125 198.141625 231.268656 198.239281 C 231.917094 198.340844 233.596781 198.598656 233.596781 198.598656 " transform="matrix(1, 0, 0, -1, 14.204, 278.751)"/>
</g>
<g fill="rgb(0%, 0%, 100%)" fill-opacity="1">
<use xlink:href="#glyph-0-7" x="218.399" y="88.208"/>
</g>
<g fill="rgb(0%, 0%, 100%)" fill-opacity="1">
<use xlink:href="#glyph-0-8" x="226.10009" y="88.208"/>
</g>
<g fill="rgb(0%, 0%, 100%)" fill-opacity="1">
<use xlink:href="#glyph-1-0" x="235.7" y="88.208"/>
</g>
<g fill="rgb(0%, 0%, 100%)" fill-opacity="1">
<use xlink:href="#glyph-0-9" x="239.018" y="88.208"/>
<use xlink:href="#glyph-0-10" x="242.335546" y="88.208"/>
<use xlink:href="#glyph-0-11" x="247.814976" y="88.208"/>
</g>
<g clip-path="url(#clip-1)">
<path fill="none" stroke-width="1.19553" stroke-linecap="butt" stroke-linejoin="miter" stroke="rgb(100%, 0%, 0%)" stroke-opacity="1" stroke-miterlimit="10" d="M -0.000875 17.254906 C -0.000875 17.254906 1.460062 17.278344 2.022562 17.286156 C 2.585062 17.297875 3.4835 17.3135 4.046 17.321312 C 4.604594 17.333031 5.506937 17.356469 6.065531 17.368187 C 6.628031 17.379906 7.530375 17.395531 8.088969 17.40725 C 8.651469 17.418969 9.549906 17.4385 10.112406 17.454125 C 10.674906 17.465844 11.573344 17.489281 12.135844 17.504906 C 12.694437 17.516625 13.596781 17.540062 14.155375 17.551781 C 14.717875 17.567406 15.620219 17.586937 16.178812 17.602562 C 16.741312 17.618187 17.63975 17.645531 18.20225 17.661156 C 18.76475 17.676781 19.663187 17.704125 20.225687 17.71975 C 20.784281 17.739281 21.686625 17.766625 22.245219 17.786156 C 22.807719 17.805687 23.710062 17.840844 24.268656 17.860375 C 24.831156 17.879906 25.729594 17.911156 26.292094 17.930687 C 26.854594 17.950219 27.753031 17.985375 28.315531 18.008812 C 28.874125 18.028344 29.776469 18.0635 30.338969 18.086937 C 30.897562 18.110375 31.799906 18.153344 32.3585 18.180687 C 32.921 18.208031 33.819437 18.243187 34.381937 18.270531 C 34.944437 18.297875 35.842875 18.340844 36.405375 18.368187 C 36.963969 18.395531 37.866312 18.442406 38.428812 18.473656 C 38.987406 18.504906 39.88975 18.555687 40.448344 18.586937 C 41.010844 18.618187 41.909281 18.668969 42.471781 18.704125 C 43.034281 18.739281 43.932719 18.793969 44.495219 18.833031 C 45.053812 18.868187 45.956156 18.926781 46.518656 18.965844 C 47.07725 19.001 47.979594 19.0635 48.538187 19.106469 C 49.100687 19.145531 49.999125 19.215844 50.561625 19.258812 C 51.124125 19.301781 52.022562 19.368187 52.585062 19.415062 C 53.143656 19.461937 54.046 19.540062 54.6085 19.590844 C 55.167094 19.637719 56.069437 19.715844 56.628031 19.770531 C 57.190531 19.821312 58.088969 19.90725 58.651469 19.961937 C 59.213969 20.016625 60.112406 20.106469 60.674906 20.165062 C 61.2335 20.223656 62.135844 20.321312 62.698344 20.383812 C 63.256937 20.446312 64.159281 20.547875 64.717875 20.614281 C 65.280375 20.680687 66.178812 20.786156 66.741312 20.856469 C 67.303812 20.926781 68.20225 21.043969 68.76475 21.118187 C 69.323344 21.192406 70.225687 21.317406 70.788187 21.399437 C 71.346781 21.477562 72.249125 21.606469 72.807719 21.692406 C 73.370219 21.774437 74.268656 21.915062 74.831156 22.004906 C 75.393656 22.09475 76.292094 22.239281 76.854594 22.336937 C 77.413187 22.430687 78.315531 22.583031 78.878031 22.684594 C 79.436625 22.786156 80.338969 22.954125 80.897562 23.0635 C 81.460062 23.168969 82.3585 23.34475 82.921 23.461937 C 83.4835 23.575219 84.381937 23.762719 84.944437 23.883812 C 85.503031 24.004906 86.405375 24.204125 86.967875 24.333031 C 87.526469 24.461937 88.428812 24.676781 88.987406 24.8135 C 89.549906 24.950219 90.448344 25.172875 91.010844 25.317406 C 91.573344 25.461937 92.471781 25.704125 93.034281 25.856469 C 93.592875 26.012719 94.495219 26.266625 95.057719 26.430687 C 95.616312 26.59475 96.518656 26.864281 97.07725 27.040062 C 97.63975 27.211937 98.538187 27.501 99.100687 27.684594 C 99.663187 27.872094 100.561625 28.176781 101.124125 28.372094 C 101.686625 28.571312 102.585062 28.895531 103.147562 29.102562 C 103.706156 29.3135 104.6085 29.65725 105.167094 29.879906 C 105.729594 30.102562 106.628031 30.465844 107.190531 30.704125 C 107.753031 30.9385 108.651469 31.329125 109.213969 31.579125 C 109.776469 31.829125 110.674906 32.243187 111.237406 32.508812 C 111.796 32.774437 112.698344 33.215844 113.256937 33.497094 C 113.819437 33.78225 114.717875 34.247094 115.280375 34.547875 C 115.842875 34.848656 116.741312 35.34475 117.303812 35.665062 C 117.866312 35.985375 118.76475 36.508812 119.32725 36.848656 C 119.885844 37.1885 120.788187 37.747094 121.346781 38.110375 C 121.909281 38.46975 122.807719 39.067406 123.370219 39.450219 C 123.932719 39.833031 124.831156 40.465844 125.393656 40.872094 C 125.956156 41.278344 126.854594 41.950219 127.417094 42.379906 C 127.975687 42.8135 128.878031 43.528344 129.436625 43.985375 C 129.999125 44.446312 130.897562 45.204125 131.460062 45.692406 C 132.022562 46.180687 132.921 46.985375 133.4835 47.504906 C 134.046 48.024437 134.944437 48.879906 135.506937 49.430687 C 136.065531 49.981469 136.967875 50.891625 137.526469 51.477562 C 138.088969 52.0635 138.987406 53.028344 139.549906 53.649437 C 140.112406 54.274437 141.010844 55.297875 141.573344 55.958031 C 142.135844 56.622094 143.034281 57.711937 143.596781 58.415062 C 144.155375 59.118187 145.057719 60.274437 145.616312 61.020531 C 146.178812 61.766625 147.07725 63.001 147.63975 63.790062 C 148.20225 64.583031 149.100687 65.891625 149.663187 66.735375 C 150.225687 67.575219 151.124125 68.965844 151.686625 69.860375 C 152.245219 70.754906 153.147562 72.235375 153.706156 73.184594 C 154.268656 74.133812 155.167094 75.704125 155.729594 76.711937 C 156.292094 77.723656 157.190531 79.391625 157.753031 80.465844 C 158.315531 81.536156 159.213969 83.309594 159.776469 84.446312 C 160.335062 85.586937 161.237406 87.46975 161.796 88.680687 C 162.3585 89.891625 163.256937 91.891625 163.819437 93.180687 C 164.381937 94.46975 165.280375 96.59475 165.842875 97.961937 C 166.405375 99.329125 167.303812 101.583031 167.866312 103.036156 C 168.424906 104.489281 169.32725 106.887719 169.885844 108.430687 C 170.448344 109.973656 171.346781 112.520531 171.909281 114.161156 C 172.471781 115.801781 173.370219 118.508812 173.932719 120.251 C 174.495219 121.993187 175.393656 124.868187 175.956156 126.71975 C 176.51475 128.571312 177.417094 131.629906 177.975687 133.59475 C 178.538187 135.5635 179.436625 138.805687 179.999125 140.895531 C 180.561625 142.989281 181.460062 146.442406 182.022562 148.661156 C 182.585062 150.883812 183.4835 154.551781 184.046 156.911156 C 184.604594 159.270531 185.506937 163.165062 186.065531 165.672875 C 186.628031 168.180687 187.530375 172.317406 188.088969 174.977562 C 188.651469 177.641625 189.549906 182.036156 190.112406 184.868187 C 190.674906 187.696312 191.573344 192.372094 192.135844 195.379906 C 192.694437 198.387719 193.596781 203.34475 194.155375 206.540062 C 194.717875 209.735375 195.620219 215.012719 196.178812 218.40725 C 196.741312 221.801781 197.63975 227.399437 198.20225 231.004906 C 198.76475 234.614281 200.225687 244.399437 200.225687 244.399437 " transform="matrix(1, 0, 0, -1, 14.204, 278.751)"/>
</g>
<g fill="rgb(100%, 0%, 0%)" fill-opacity="1">
<use xlink:href="#glyph-0-7" x="162.899" y="72.637"/>
</g>
<g fill="rgb(100%, 0%, 0%)" fill-opacity="1">
<use xlink:href="#glyph-0-8" x="170.60009" y="72.637"/>
</g>
<g fill="rgb(100%, 0%, 0%)" fill-opacity="1">
<use xlink:href="#glyph-1-0" x="180.2" y="72.637"/>
</g>
<g fill="rgb(100%, 0%, 0%)" fill-opacity="1">
<use xlink:href="#glyph-2-0" x="183.518" y="68.651"/>
<use xlink:href="#glyph-2-1" x="188.63632" y="68.651"/>
</g>
<g fill="rgb(100%, 0%, 0%)" fill-opacity="1">
<use xlink:href="#glyph-0-9" x="192.87" y="72.637"/>
<use xlink:href="#glyph-0-10" x="196.187546" y="72.637"/>
<use xlink:href="#glyph-0-11" x="201.666976" y="72.637"/>
</g>
<g clip-path="url(#clip-2)">
<path fill="none" stroke-width="0.79701" stroke-linecap="butt" stroke-linejoin="miter" stroke="rgb(0%, 0%, 0%)" stroke-opacity="1" stroke-dasharray="2.98883 2.98883" stroke-miterlimit="10" d="M -0.000875 0.001 L 2.698344 2.696312 L 5.393656 5.391625 L 8.088969 8.090844 L 10.788187 10.786156 L 13.4835 13.481469 L 16.178812 16.180687 L 18.878031 18.876 L 21.573344 21.571312 L 24.268656 24.270531 L 26.967875 26.965844 L 29.663187 29.661156 L 32.3585 32.360375 L 35.057719 35.055687 L 37.753031 37.751 L 40.448344 40.450219 L 43.147562 43.145531 L 45.842875 45.84475 L 48.538187 48.540062 L 51.237406 51.235375 L 53.932719 53.934594 L 56.628031 56.629906 L 59.32725 59.325219 L 62.022562 62.024437 L 64.717875 64.71975 L 67.417094 67.415062 L 70.112406 70.114281 L 72.807719 72.809594 L 75.506937 75.504906 L 78.20225 78.204125 L 80.897562 80.899437 L 83.596781 83.59475 L 86.292094 86.293969 L 88.987406 88.989281 L 91.686625 91.684594 L 94.381937 94.383812 L 97.07725 97.079125 L 99.776469 99.774437 L 102.471781 102.473656 L 105.167094 105.168969 L 107.866312 107.864281 L 110.561625 110.5635 L 113.256937 113.258812 L 115.956156 115.954125 L 118.651469 118.653344 L 121.346781 121.348656 L 124.046 124.043969 L 126.741312 126.743187 L 129.440531 129.4385 L 132.135844 132.133812 L 134.831156 134.833031 L 137.530375 137.528344 L 140.225687 140.223656 L 142.921 142.922875 L 145.620219 145.618187 L 148.315531 148.3135 L 151.010844 151.012719 L 153.710062 153.708031 L 156.405375 156.403344 L 159.100687 159.102562 L 161.799906 161.797875 L 164.495219 164.493187 L 167.190531 167.192406 L 169.88975 169.887719 L 172.585062 172.583031 L 175.280375 175.28225 L 177.979594 177.977562 L 180.674906 180.672875 L 183.370219 183.372094 L 186.069437 186.067406 L 188.76475 188.762719 L 191.460062 191.461937 L 194.159281 194.15725 L 196.854594 196.856469 L 199.549906 199.551781 L 202.249125 202.247094 L 204.944437 204.946312 L 207.63975 207.641625 L 210.338969 210.336937 L 213.034281 213.036156 L 215.729594 215.731469 L 218.428812 218.426781 L 221.124125 221.126 L 223.819437 223.821312 L 226.518656 226.516625 L 229.213969 229.215844 L 231.909281 231.911156 L 234.6085 234.606469 L 237.303812 237.305687 L 239.999125 240.001 L 242.698344 242.696312 L 245.393656 245.395531 L 248.088969 248.090844 L 250.788187 250.786156 L 253.4835 253.485375 L 256.178812 256.180687 L 258.878031 258.876 L 261.573344 261.575219 L 264.268656 264.270531 L 266.967875 266.965844 " transform="matrix(1, 0, 0, -1, 14.204, 278.751)"/>
</g>
<g fill="rgb(0%, 0%, 0%)" fill-opacity="1">
<use xlink:href="#glyph-0-7" x="246.425" y="16.402"/>
</g>
<g fill="rgb(0%, 0%, 0%)" fill-opacity="1">
<use xlink:href="#glyph-0-8" x="254.12609" y="16.402"/>
</g>
<g fill="rgb(0%, 0%, 0%)" fill-opacity="1">
<use xlink:href="#glyph-0-10" x="263.720074" y="16.402"/>
</g>
<g clip-path="url(#clip-3)">
<path fill="none" stroke-width="0.79701" stroke-linecap="butt" stroke-linejoin="miter" stroke="rgb(0%, 0%, 100%)" stroke-opacity="1" stroke-dasharray="2.98883 2.98883" stroke-miterlimit="10" d="M 16.686625 0.001 L 16.686625 266.96975 " transform="matrix(1, 0, 0, -1, 14.204, 278.751)"/>
</g>
<g clip-path="url(#clip-4)">
<path fill="none" stroke-width="0.79701" stroke-linecap="butt" stroke-linejoin="miter" stroke="rgb(100%, 0%, 0%)" stroke-opacity="1" stroke-dasharray="2.98883 2.98883" stroke-miterlimit="10" d="M -0.000875 16.684594 L 266.971781 16.684594 " transform="matrix(1, 0, 0, -1, 14.204, 278.751)"/>
</g>
<g fill="rgb(0%, 0%, 0%)" fill-opacity="1">
<use xlink:href="#glyph-0-10" x="272.176" y="208.399"/>
</g>
<g fill="rgb(0%, 0%, 0%)" fill-opacity="1">
<use xlink:href="#glyph-0-7" x="84.467" y="19.683"/>
</g>
</svg>
