<?xml version="1.0" encoding="UTF-8"?>
<svg xmlns="http://www.w3.org/2000/svg" xmlns:xlink="http://www.w3.org/1999/xlink" width="420.13pt" height="330.15pt" viewBox="0 0 420.13 330.15">
<defs>
<g>
<g id="glyph-0-0">
<path d="M 3.046875 -2.875 L 2.84375 -3.421875 C 2.71875 -3.75 2.53125 -4.15625 2.09375 -4.390625 L 0.78125 -4.0625 L 0.8125 -3.890625 C 0.90625 -3.921875 1.0625 -3.953125 1.1875 -3.953125 C 1.734375 -3.953125 2 -3.53125 2.15625 -3.0625 L 2.5 -2.140625 L 1.84375 -1.140625 C 1.53125 -0.640625 1.265625 -0.546875 1.140625 -0.546875 C 0.890625 -0.546875 0.9375 -0.75 0.671875 -0.75 C 0.421875 -0.75 0.296875 -0.53125 0.296875 -0.375 C 0.296875 -0.15625 0.453125 0.09375 0.8125 0.09375 C 1.375 0.09375 1.671875 -0.34375 1.984375 -0.828125 L 2.609375 -1.796875 L 3.015625 -0.671875 C 3.140625 -0.3125 3.328125 0.09375 3.734375 0.09375 C 4.3125 0.09375 4.765625 -0.875 4.890625 -1.015625 L 4.75 -1.109375 C 4.53125 -0.6875 4.296875 -0.546875 4.140625 -0.546875 C 3.6875 -0.546875 3.453125 -1.890625 3.15625 -2.515625 L 3.703125 -3.359375 C 3.84375 -3.578125 3.953125 -3.734375 4.25 -3.734375 C 4.421875 -3.734375 4.46875 -3.65625 4.6875 -3.65625 C 4.953125 -3.65625 5.078125 -3.875 5.078125 -4.0625 C 5.078125 -4.28125 4.921875 -4.390625 4.59375 -4.390625 C 4.09375 -4.390625 3.75 -3.953125 3.484375 -3.5625 Z M 3.046875 -2.875 "/>
</g>
<g id="glyph-0-1">
<path d="M 2.6875 -3.0625 C 2.609375 -3.796875 2.53125 -4.0625 2.296875 -4.390625 L 0.8125 -4.140625 L 0.828125 -3.984375 C 0.921875 -3.984375 1.078125 -4.015625 1.1875 -4.015625 C 1.75 -4.015625 1.828125 -3.421875 1.890625 -2.96875 L 2.265625 0.15625 C 2 0.5625 1.4375 1.171875 1.265625 1.171875 C 1.109375 1.171875 1.125 0.875 0.703125 0.875 C 0.5625 0.875 0.296875 0.984375 0.296875 1.28125 C 0.296875 1.515625 0.484375 1.828125 0.859375 1.828125 C 1.53125 1.828125 2.1875 0.84375 2.90625 -0.0625 C 3.328125 -0.59375 4.9375 -2.984375 4.9375 -3.765625 C 4.9375 -4.15625 4.6875 -4.390625 4.375 -4.390625 C 4.09375 -4.390625 3.90625 -4.203125 3.90625 -3.984375 C 3.90625 -3.609375 4.421875 -3.515625 4.421875 -3.296875 C 4.421875 -3.125 4.34375 -2.921875 4.140625 -2.546875 C 3.921875 -2.140625 3.578125 -1.546875 2.96875 -0.71875 Z M 2.6875 -3.0625 "/>
</g>
<g id="glyph-0-2">
<path d="M 7.09375 -4.1875 C 7.09375 -5.4375 6.28125 -6.671875 4.609375 -6.671875 C 2.078125 -6.671875 0.5 -4.234375 0.5 -2.21875 C 0.5 -0.84375 1.53125 0.109375 3.015625 0.109375 C 5.546875 0.109375 7.09375 -2.21875 7.09375 -4.1875 Z M 5.9375 -4.421875 C 5.9375 -3.015625 5.21875 -0.265625 3.09375 -0.265625 C 2.328125 -0.265625 1.703125 -0.796875 1.703125 -1.765625 C 1.703125 -3.1875 2.21875 -6.296875 4.53125 -6.296875 C 5.546875 -6.296875 5.9375 -5.484375 5.9375 -4.421875 Z M 5.9375 -4.421875 "/>
</g>
<g id="glyph-1-0">
<path d="M 2.5625 -1.734375 L 2.5625 -2.3125 L 0.34375 -2.3125 L 0.34375 -1.734375 Z M 2.5625 -1.734375 "/>
</g>
<g id="glyph-1-1">
<path d="M 4.25 -1.234375 L 4.125 -1.28125 C 3.828125 -0.78125 3.640625 -0.6875 3.265625 -0.6875 L 1.171875 -0.6875 L 2.640625 -2.265625 C 3.4375 -3.109375 3.796875 -3.78125 3.796875 -4.484375 C 3.796875 -5.375 3.140625 -6.0625 2.140625 -6.0625 C 1.03125 -6.0625 0.453125 -5.328125 0.265625 -4.28125 L 0.453125 -4.234375 C 0.8125 -5.109375 1.125 -5.40625 1.78125 -5.40625 C 2.53125 -5.40625 3.015625 -4.953125 3.015625 -4.140625 C 3.015625 -3.375 2.703125 -2.6875 1.859375 -1.796875 L 0.265625 -0.109375 L 0.265625 0 L 3.765625 0 Z M 4.25 -1.234375 "/>
</g>
<g id="glyph-1-2">
<path d="M 4.25 -1.5 L 4.25 -2.078125 L 3.3125 -2.078125 L 3.3125 -6.0625 L 2.921875 -6.0625 L 0.109375 -2.078125 L 0.109375 -1.5 L 2.625 -1.5 L 2.625 0 L 3.3125 0 L 3.3125 -1.5 Z M 2.625 -2.078125 L 0.46875 -2.078125 L 2.625 -5.140625 Z M 2.625 -2.078125 "/>
</g>
<g id="glyph-1-3">
<path d="M 4 -6.140625 C 2.765625 -6 2.046875 -5.78125 1.28125 -4.984375 C 0.640625 -4.328125 0.3125 -3.46875 0.3125 -2.5 C 0.3125 -1.875 0.46875 -1.234375 0.71875 -0.78125 C 1.046875 -0.203125 1.609375 0.125 2.3125 0.125 C 2.90625 0.125 3.40625 -0.109375 3.734375 -0.53125 C 4.03125 -0.890625 4.203125 -1.390625 4.203125 -1.96875 C 4.203125 -3.125 3.546875 -3.84375 2.5 -3.84375 C 2.109375 -3.84375 1.796875 -3.78125 1.359375 -3.4375 C 1.609375 -4.796875 2.609375 -5.765625 4.015625 -5.984375 Z M 3.390625 -1.6875 C 3.390625 -0.765625 3.0625 -0.125 2.40625 -0.125 C 1.5625 -0.125 1.140625 -1.015625 1.140625 -2.390625 C 1.140625 -3.203125 1.671875 -3.421875 2.171875 -3.421875 C 3.015625 -3.421875 3.390625 -2.828125 3.390625 -1.6875 Z M 3.390625 -1.6875 "/>
</g>
<g id="glyph-1-4">
<path d="M 3.984375 -1.390625 C 3.984375 -2.109375 3.703125 -2.59375 2.59375 -3.328125 C 3.484375 -3.796875 3.796875 -4.109375 3.796875 -4.78125 C 3.796875 -5.484375 3.1875 -6.0625 2.296875 -6.0625 C 1.296875 -6.0625 0.5625 -5.53125 0.5625 -4.65625 C 0.5625 -4.078125 0.75 -3.734375 1.671875 -2.984375 C 0.703125 -2.3125 0.5 -1.953125 0.5 -1.34375 C 0.5 -0.5 1.203125 0.125 2.21875 0.125 C 3.296875 0.125 3.984375 -0.46875 3.984375 -1.390625 Z M 3.1875 -4.78125 C 3.1875 -4.21875 2.953125 -3.84375 2.34375 -3.484375 C 1.546875 -3.953125 1.21875 -4.375 1.21875 -4.921875 C 1.21875 -5.484375 1.609375 -5.8125 2.203125 -5.8125 C 2.8125 -5.8125 3.1875 -5.40625 3.1875 -4.78125 Z M 2.4375 -2.4375 C 3.046875 -2.03125 3.3125 -1.671875 3.3125 -1.109375 C 3.3125 -0.53125 2.90625 -0.125 2.328125 -0.125 C 1.640625 -0.125 1.1875 -0.59375 1.1875 -1.421875 C 1.1875 -2 1.375 -2.375 1.90625 -2.796875 Z M 2.4375 -2.4375 "/>
</g>
</g>
</defs>
<path fill="none" stroke-width="0.79701" stroke-linecap="butt" stroke-linejoin="miter" stroke="rgb(14.99939%, 14.99939%, 14.99939%)" stroke-opacity="1" stroke-dasharray="2.98883 2.98883" stroke-miterlimit="10" d="M -113.389125 -90.711375 L 226.774937 -90.711375 M -113.389125 -68.031688 L 226.774937 -68.031688 M -113.389125 -45.355906 L 226.774937 -45.355906 M -113.389125 -22.676219 L 226.774937 -22.676219 M -113.389125 -0.0004375 L 226.774937 -0.0004375 M -113.389125 22.67925 L 226.774937 22.67925 M -113.389125 45.355031 L 226.774937 45.355031 M -113.389125 68.030812 L 226.774937 68.030812 M -113.389125 90.7105 L 226.774937 90.7105 M -113.389125 113.386281 L 226.774937 113.386281 M -113.389125 136.065969 L 226.774937 136.065969 M -113.389125 158.74175 L 226.774937 158.74175 M -113.389125 181.409719 L 226.774937 181.409719 M -113.389125 -90.711375 L -113.389125 181.421437 M -56.693813 -90.711375 L -56.693813 181.421437 M 0.0015 -90.711375 L 0.0015 181.421437 M 56.692906 -90.711375 L 56.692906 181.421437 M 113.388219 -90.711375 L 113.388219 181.421437 M 170.079625 -90.711375 L 170.079625 181.421437 M 226.763219 -90.711375 L 226.763219 181.421437 " transform="matrix(1, 0, 0, -1, 147.311, 222.523)"/>
<path fill="none" stroke-width="1.19553" stroke-linecap="butt" stroke-linejoin="miter" stroke="rgb(0%, 0%, 0%)" stroke-opacity="1" stroke-miterlimit="10" d="M -141.732875 -0.0004375 L 249.384312 -0.0004375 " transform="matrix(1, 0, 0, -1, 147.311, 222.523)"/>
<path fill-rule="nonzero" fill="rgb(0%, 0%, 0%)" fill-opacity="1" d="M 402.433594 222.523438 C 400.730469 222.203125 397.96875 221.246094 396.054688 220.132812 L 396.054688 224.914062 C 397.96875 223.796875 400.730469 222.839844 402.433594 222.523438 "/>
<g fill="rgb(0%, 0%, 0%)" fill-opacity="1">
<use xlink:href="#glyph-0-0" x="406.351" y="224.675"/>
</g>
<path fill="none" stroke-width="1.19553" stroke-linecap="butt" stroke-linejoin="miter" stroke="rgb(0%, 0%, 0%)" stroke-opacity="1" stroke-miterlimit="10" d="M 0.0015 -102.047313 L 0.0015 198.358937 " transform="matrix(1, 0, 0, -1, 147.311, 222.523)"/>
<path fill-rule="nonzero" fill="rgb(0%, 0%, 0%)" fill-opacity="1" d="M 147.3125 18.425781 C 146.992188 20.125 146.035156 22.886719 144.921875 24.800781 L 149.703125 24.800781 C 148.585938 22.886719 147.628906 20.125 147.3125 18.425781 "/>
<g fill="rgb(0%, 0%, 0%)" fill-opacity="1">
<use xlink:href="#glyph-0-1" x="144.84" y="12.684"/>
</g>
<g fill="rgb(0%, 0%, 0%)" fill-opacity="1">
<use xlink:href="#glyph-0-2" x="136.299" y="232.708"/>
</g>
<path fill="none" stroke-width="0.3985" stroke-linecap="butt" stroke-linejoin="miter" stroke="rgb(0%, 0%, 0%)" stroke-opacity="1" stroke-miterlimit="10" d="M -113.389125 2.269094 L -113.389125 -2.266063 " transform="matrix(1, 0, 0, -1, 147.311, 222.523)"/>
<g fill="rgb(0%, 0%, 0%)" fill-opacity="1">
<use xlink:href="#glyph-1-0" x="30.189" y="235.093"/>
<use xlink:href="#glyph-1-1" x="33.174811" y="235.093"/>
</g>
<path fill="none" stroke-width="0.3985" stroke-linecap="butt" stroke-linejoin="miter" stroke="rgb(0%, 0%, 0%)" stroke-opacity="1" stroke-miterlimit="10" d="M 113.388219 2.269094 L 113.388219 -2.266063 " transform="matrix(1, 0, 0, -1, 147.311, 222.523)"/>
<g fill="rgb(0%, 0%, 0%)" fill-opacity="1">
<use xlink:href="#glyph-1-1" x="258.457" y="235.093"/>
</g>
<path fill="none" stroke-width="0.3985" stroke-linecap="butt" stroke-linejoin="miter" stroke="rgb(0%, 0%, 0%)" stroke-opacity="1" stroke-miterlimit="10" d="M 226.774937 2.269094 L 226.774937 -2.266063 " transform="matrix(1, 0, 0, -1, 147.311, 222.523)"/>
<g fill="rgb(0%, 0%, 0%)" fill-opacity="1">
<use xlink:href="#glyph-1-2" x="371.844" y="235.093"/>
</g>
<path fill="none" stroke-width="0.3985" stroke-linecap="butt" stroke-linejoin="miter" stroke="rgb(0%, 0%, 0%)" stroke-opacity="1" stroke-miterlimit="10" d="M -56.693813 2.269094 L -56.693813 -2.266063 " transform="matrix(1, 0, 0, -1, 147.311, 222.523)"/>
<path fill="none" stroke-width="0.3985" stroke-linecap="butt" stroke-linejoin="miter" stroke="rgb(0%, 0%, 0%)" stroke-opacity="1" stroke-miterlimit="10" d="M 56.692906 2.269094 L 56.692906 -2.266063 " transform="matrix(1, 0, 0, -1, 147.311, 222.523)"/>
<path fill="none" stroke-width="0.3985" stroke-linecap="butt" stroke-linejoin="miter" stroke="rgb(0%, 0%, 0%)" stroke-opacity="1" stroke-miterlimit="10" d="M 170.079625 2.269094 L 170.079625 -2.266063 " transform="matrix(1, 0, 0, -1, 147.311, 222.523)"/>
<path fill="none" stroke-width="0.3985" stroke-linecap="butt" stroke-linejoin="miter" stroke="rgb(0%, 0%, 0%)" stroke-opacity="1" stroke-miterlimit="10" d="M 5.669469 -90.711375 L -5.670375 -90.711375 " transform="matrix(1, 0, 0, -1, 147.311, 222.523)"/>
<g fill="rgb(0%, 0%, 0%)" fill-opacity="1">
<use xlink:href="#glyph-1-0" x="133.333" y="316.264"/>
<use xlink:href="#glyph-1-2" x="136.318811" y="316.264"/>
</g>
<path fill="none" stroke-width="0.3985" stroke-linecap="butt" stroke-linejoin="miter" stroke="rgb(0%, 0%, 0%)" stroke-opacity="1" stroke-miterlimit="10" d="M 5.669469 -45.355906 L -5.670375 -45.355906 " transform="matrix(1, 0, 0, -1, 147.311, 222.523)"/>
<g fill="rgb(0%, 0%, 0%)" fill-opacity="1">
<use xlink:href="#glyph-1-0" x="133.333" y="270.909"/>
<use xlink:href="#glyph-1-1" x="136.318811" y="270.909"/>
</g>
<path fill="none" stroke-width="0.3985" stroke-linecap="butt" stroke-linejoin="miter" stroke="rgb(0%, 0%, 0%)" stroke-opacity="1" stroke-miterlimit="10" d="M 5.669469 45.355031 L -5.670375 45.355031 " transform="matrix(1, 0, 0, -1, 147.311, 222.523)"/>
<g fill="rgb(0%, 0%, 0%)" fill-opacity="1">
<use xlink:href="#glyph-1-1" x="136.319" y="180.199"/>
</g>
<path fill="none" stroke-width="0.3985" stroke-linecap="butt" stroke-linejoin="miter" stroke="rgb(0%, 0%, 0%)" stroke-opacity="1" stroke-miterlimit="10" d="M 5.669469 90.7105 L -5.670375 90.7105 " transform="matrix(1, 0, 0, -1, 147.311, 222.523)"/>
<g fill="rgb(0%, 0%, 0%)" fill-opacity="1">
<use xlink:href="#glyph-1-2" x="136.319" y="134.844"/>
</g>
<path fill="none" stroke-width="0.3985" stroke-linecap="butt" stroke-linejoin="miter" stroke="rgb(0%, 0%, 0%)" stroke-opacity="1" stroke-miterlimit="10" d="M 5.669469 136.065969 L -5.670375 136.065969 " transform="matrix(1, 0, 0, -1, 147.311, 222.523)"/>
<g fill="rgb(0%, 0%, 0%)" fill-opacity="1">
<use xlink:href="#glyph-1-3" x="136.319" y="89.462"/>
</g>
<path fill="none" stroke-width="0.3985" stroke-linecap="butt" stroke-linejoin="miter" stroke="rgb(0%, 0%, 0%)" stroke-opacity="1" stroke-miterlimit="10" d="M 5.669469 181.421437 L -5.670375 181.421437 " transform="matrix(1, 0, 0, -1, 147.311, 222.523)"/>
<g fill="rgb(0%, 0%, 0%)" fill-opacity="1">
<use xlink:href="#glyph-1-4" x="136.319" y="44.071"/>
</g>
<path fill="none" stroke-width="0.3985" stroke-linecap="butt" stroke-linejoin="miter" stroke="rgb(0%, 0%, 0%)" stroke-opacity="1" stroke-miterlimit="10" d="M 5.669469 -68.031688 L -5.670375 -68.031688 " transform="matrix(1, 0, 0, -1, 147.311, 222.523)"/>
<path fill="none" stroke-width="0.3985" stroke-linecap="butt" stroke-linejoin="miter" stroke="rgb(0%, 0%, 0%)" stroke-opacity="1" stroke-miterlimit="10" d="M 5.669469 -22.676219 L -5.670375 -22.676219 " transform="matrix(1, 0, 0, -1, 147.311, 222.523)"/>
<path fill="none" stroke-width="0.3985" stroke-linecap="butt" stroke-linejoin="miter" stroke="rgb(0%, 0%, 0%)" stroke-opacity="1" stroke-miterlimit="10" d="M 5.669469 22.67925 L -5.670375 22.67925 " transform="matrix(1, 0, 0, -1, 147.311, 222.523)"/>
<path fill="none" stroke-width="0.3985" stroke-linecap="butt" stroke-linejoin="miter" stroke="rgb(0%, 0%, 0%)" stroke-opacity="1" stroke-miterlimit="10" d="M 5.669469 68.030812 L -5.670375 68.030812 " transform="matrix(1, 0, 0, -1, 147.311, 222.523)"/>
<path fill="none" stroke-width="0.3985" stroke-linecap="butt" stroke-linejoin="miter" stroke="rgb(0%, 0%, 0%)" stroke-opacity="1" stroke-miterlimit="10" d="M 5.669469 113.386281 L -5.670375 113.386281 " transform="matrix(1, 0, 0, -1, 147.311, 222.523)"/>
<path fill="none" stroke-width="0.3985" stroke-linecap="butt" stroke-linejoin="miter" stroke="rgb(0%, 0%, 0%)" stroke-opacity="1" stroke-miterlimit="10" d="M 5.669469 158.74175 L -5.670375 158.74175 " transform="matrix(1, 0, 0, -1, 147.311, 222.523)"/>
<path fill="none" stroke-width="1.19553" stroke-linecap="butt" stroke-linejoin="miter" stroke="rgb(0%, 0%, 100%)" stroke-opacity="1" stroke-miterlimit="10" d="M -85.041469 136.065969 C -85.041469 136.065969 -82.764125 134.245656 -81.893031 133.546437 C -81.018031 132.847219 -79.615688 131.726125 -78.744594 131.026906 C -77.869594 130.327687 -76.46725 129.206594 -75.59225 128.507375 C -74.721156 127.808156 -73.318813 126.687062 -72.443813 125.987844 C -71.572719 125.288625 -70.170375 124.167531 -69.295375 123.468312 C -68.420375 122.769094 -67.021938 121.648 -66.146938 120.948781 C -65.271938 120.249562 -63.8735 119.132375 -62.9985 118.433156 C -62.1235 117.733937 -60.725063 116.612844 -59.850063 115.913625 C -58.975063 115.214406 -57.572719 114.093312 -56.701625 113.394094 C -55.826625 112.694875 -54.424281 111.573781 -53.553188 110.874562 C -52.678188 110.175344 -51.275844 109.05425 -50.400844 108.355031 C -49.52975 107.655812 -48.127406 106.534719 -47.252406 105.8355 C -46.381313 105.136281 -44.978969 104.015187 -44.103969 103.315969 C -43.232875 102.61675 -41.830531 101.495656 -40.955531 100.796437 C -40.080531 100.097219 -38.682094 98.976125 -37.807094 98.276906 C -36.932094 97.577687 -35.533656 96.456594 -34.658656 95.761281 C -33.783656 95.062062 -32.385219 93.940969 -31.510219 93.24175 C -30.635219 92.542531 -29.232875 91.421437 -28.361781 90.722219 C -27.486781 90.023 -26.084438 88.901906 -25.213344 88.202687 C -24.338344 87.503469 -22.936 86.382375 -22.061 85.683156 C -21.189906 84.983937 -19.787563 83.862844 -18.912563 83.163625 C -18.041469 82.464406 -16.639125 81.343312 -15.764125 80.644094 C -14.893031 79.944875 -13.490688 78.823781 -12.615688 78.124562 C -11.740688 77.425344 -10.34225 76.30425 -9.46725 75.605031 C -8.59225 74.905812 -7.193813 73.784719 -6.318813 73.0855 C -5.443813 72.390187 -4.041469 71.269094 -3.170375 70.569875 C -2.295375 69.870656 -0.893031 68.749562 -0.0219375 68.050344 C 0.853062 67.351125 2.255406 66.230031 3.1265 65.530812 C 4.0015 64.831594 5.403844 63.7105 6.278844 63.011281 C 7.149937 62.312062 8.552281 61.190969 9.427281 60.49175 C 10.298375 59.792531 11.700719 58.671437 12.575719 57.972219 C 13.446812 57.273 14.849156 56.151906 15.724156 55.452687 C 16.599156 54.753469 17.997594 53.632375 18.872594 52.933156 C 19.747594 52.233937 21.146031 51.112844 22.021031 50.413625 C 22.896031 49.718312 24.298375 48.597219 25.169469 47.898 C 26.044469 47.198781 27.446812 46.077687 28.317906 45.378469 C 29.192906 44.67925 30.59525 43.558156 31.466344 42.858937 C 32.341344 42.159719 33.743687 41.038625 34.618687 40.339406 C 35.489781 39.640187 36.892125 38.519094 37.767125 37.819875 C 38.638219 37.120656 40.040562 35.999562 40.915562 35.300344 C 41.786656 34.601125 43.189 33.480031 44.064 32.780812 C 44.939 32.081594 46.337437 30.9605 47.212437 30.261281 C 48.087437 29.562062 49.485875 28.440969 50.360875 27.74175 C 51.235875 27.042531 52.638219 25.921437 53.509312 25.226125 C 54.384312 24.526906 55.786656 23.405812 56.65775 22.706594 C 57.53275 22.007375 58.935094 20.886281 59.806187 20.187062 C 60.681187 19.487844 62.083531 18.36675 62.958531 17.667531 C 63.829625 16.968312 65.231969 15.847219 66.106969 15.148 C 66.978062 14.448781 68.380406 13.327687 69.255406 12.628469 C 70.1265 11.92925 71.528844 10.808156 72.403844 10.108937 C 73.278844 9.409719 74.677281 8.288625 75.552281 7.589406 C 76.427281 6.890187 77.825719 5.769094 78.700719 5.069875 C 79.575719 4.370656 80.978062 3.249562 81.849156 2.55425 C 82.724156 1.855031 84.1265 0.0425312 84.997594 0.0347187 C 85.872594 0.023 87.274937 1.796437 88.146031 2.483937 C 89.021031 3.175344 90.423375 4.30425 91.298375 5.003469 C 92.169469 5.702687 93.571812 6.823781 94.446812 7.523 C 95.317906 8.222219 96.72025 9.343312 97.59525 10.042531 C 98.466344 10.74175 99.868687 11.862844 100.743687 12.562062 C 101.618687 13.261281 103.017125 14.382375 103.892125 15.081594 C 104.767125 15.780812 106.165562 16.901906 107.040562 17.601125 C 107.915562 18.300344 109.317906 19.421437 110.189 20.120656 C 111.064 20.819875 112.466344 21.940969 113.337437 22.640187 C 114.212437 23.339406 115.614781 24.4605 116.485875 25.159719 C 117.360875 25.855031 118.763219 26.976125 119.638219 27.675344 C 120.509312 28.374562 121.911656 29.495656 122.786656 30.194875 C 123.65775 30.894094 125.060094 32.015187 125.935094 32.714406 C 126.806187 33.413625 128.208531 34.534719 129.083531 35.233937 C 129.958531 35.933156 131.356969 37.05425 132.231969 37.753469 C 133.106969 38.452687 134.505406 39.573781 135.380406 40.273 C 136.255406 40.972219 137.65775 42.093312 138.528844 42.792531 C 139.403844 43.49175 140.806187 44.612844 141.677281 45.312062 C 142.552281 46.011281 143.954625 47.132375 144.825719 47.831594 C 145.700719 48.530812 147.103062 49.651906 147.978062 50.347219 C 148.849156 51.046437 150.2515 52.167531 151.1265 52.86675 C 151.997594 53.565969 153.399937 54.687062 154.274937 55.386281 C 155.149937 56.0855 156.548375 57.206594 157.423375 57.905812 C 158.298375 58.605031 159.696812 59.726125 160.571812 60.425344 C 161.446812 61.124562 162.84525 62.245656 163.72025 62.944875 C 164.59525 63.644094 165.997594 64.765187 166.868687 65.464406 C 167.743687 66.163625 169.146031 67.284719 170.017125 67.983937 C 170.892125 68.683156 172.294469 69.80425 173.165562 70.503469 C 174.040562 71.202687 175.442906 72.323781 176.317906 73.019094 C 177.189 73.718312 178.591344 74.839406 179.466344 75.538625 C 180.337437 76.237844 181.739781 77.358937 182.614781 78.058156 C 183.489781 78.757375 184.888219 79.878469 185.763219 80.577687 C 186.638219 81.276906 188.036656 82.398 188.911656 83.097219 C 189.786656 83.796437 191.185094 84.917531 192.060094 85.61675 C 192.935094 86.315969 194.337437 87.437062 195.208531 88.136281 C 196.083531 88.8355 197.485875 89.956594 198.356969 90.655812 C 199.231969 91.355031 200.634312 92.476125 201.509312 93.175344 C 202.380406 93.874562 203.78275 94.995656 204.65775 95.694875 C 205.528844 96.390187 206.931187 97.511281 207.806187 98.2105 C 208.677281 98.909719 210.079625 100.030812 210.954625 100.730031 C 211.829625 101.42925 213.228062 102.550344 214.103062 103.249562 C 214.978062 103.948781 216.3765 105.069875 217.2515 105.769094 C 218.1265 106.468312 219.524937 107.589406 220.399937 108.288625 C 221.274937 108.987844 222.677281 110.108937 223.548375 110.808156 C 224.423375 111.507375 226.696812 113.327687 226.696812 113.327687 " transform="matrix(1, 0, 0, -1, 147.311, 222.523)"/>
</svg>
