<?xml version="1.0" encoding="UTF-8"?>
<svg xmlns="http://www.w3.org/2000/svg" xmlns:xlink="http://www.w3.org/1999/xlink" width="204.597pt" height="198.541pt" viewBox="0 0 204.597 198.541">
<defs>
<g>
<g id="glyph-0-0">
<path d="M 4.140625 -1.03125 L 4 -1.109375 C 3.921875 -1 3.875 -0.953125 3.78125 -0.84375 C 3.5625 -0.53125 3.453125 -0.4375 3.3125 -0.4375 C 3.1875 -0.4375 3.09375 -0.5625 3.015625 -0.84375 C 3 -0.9375 2.984375 -0.984375 2.984375 -1 C 2.734375 -1.9375 2.625 -2.484375 2.625 -2.625 C 3.0625 -3.40625 3.421875 -3.84375 3.59375 -3.84375 C 3.65625 -3.84375 3.75 -3.8125 3.84375 -3.765625 C 3.953125 -3.6875 4.03125 -3.671875 4.109375 -3.671875 C 4.3125 -3.671875 4.453125 -3.8125 4.453125 -4.03125 C 4.453125 -4.25 4.28125 -4.390625 4.046875 -4.390625 C 3.609375 -4.390625 3.234375 -4.03125 2.546875 -2.96875 L 2.4375 -3.515625 C 2.296875 -4.203125 2.1875 -4.390625 1.90625 -4.390625 C 1.6875 -4.390625 1.359375 -4.3125 0.75 -4.109375 L 0.640625 -4.0625 L 0.671875 -3.921875 L 0.84375 -3.953125 C 1.03125 -4 1.15625 -4.03125 1.234375 -4.03125 C 1.484375 -4.03125 1.546875 -3.9375 1.6875 -3.34375 L 1.96875 -2.109375 L 1.15625 -0.953125 C 0.953125 -0.640625 0.75 -0.46875 0.640625 -0.46875 C 0.59375 -0.46875 0.484375 -0.5 0.390625 -0.5625 C 0.265625 -0.625 0.15625 -0.65625 0.0625 -0.65625 C -0.125 -0.65625 -0.265625 -0.515625 -0.265625 -0.3125 C -0.265625 -0.046875 -0.078125 0.109375 0.234375 0.109375 C 0.53125 0.109375 0.65625 0.015625 1.15625 -0.578125 L 2.046875 -1.75 L 2.359375 -0.5625 C 2.484375 -0.046875 2.609375 0.109375 2.9375 0.109375 C 3.3125 0.109375 3.5625 -0.125 4.140625 -1.03125 Z M 4.140625 -1.03125 "/>
</g>
<g id="glyph-0-1">
<path d="M 4.25 -3.84375 C 4.25 -4.140625 4 -4.390625 3.703125 -4.390625 C 3.46875 -4.390625 3.3125 -4.25 3.3125 -4.03125 C 3.3125 -3.875 3.390625 -3.765625 3.59375 -3.640625 C 3.78125 -3.53125 3.84375 -3.4375 3.84375 -3.296875 C 3.84375 -2.90625 3.484375 -2.140625 2.625 -0.71875 L 2.4375 -1.875 C 2.28125 -2.765625 1.71875 -4.390625 1.578125 -4.390625 L 1.453125 -4.390625 L 0.46875 -4.21875 L 0.15625 -4.15625 L 0.15625 -3.984375 C 0.265625 -4.015625 0.34375 -4.03125 0.453125 -4.03125 C 0.859375 -4.03125 1.03125 -3.875 1.21875 -3.390625 C 1.5 -2.71875 2.046875 -0.484375 2.046875 -0.078125 C 2.046875 0.03125 2 0.15625 1.9375 0.265625 C 1.859375 0.40625 1.421875 0.984375 1.234375 1.171875 C 1 1.421875 0.890625 1.5 0.75 1.5 C 0.6875 1.5 0.625 1.46875 0.515625 1.390625 C 0.375 1.28125 0.265625 1.21875 0.15625 1.21875 C -0.0625 1.21875 -0.234375 1.390625 -0.234375 1.609375 C -0.234375 1.875 -0.03125 2.046875 0.265625 2.046875 C 0.84375 2.046875 1.90625 0.90625 2.9375 -0.8125 C 3.78125 -2.1875 4.25 -3.28125 4.25 -3.84375 Z M 4.25 -3.84375 "/>
</g>
<g id="glyph-0-2">
<path d="M 5.984375 -1.3125 L 5.8125 -1.453125 C 4.921875 -0.5625 4.34375 -0.265625 3.515625 -0.265625 C 2.40625 -0.265625 1.78125 -1.015625 1.78125 -2.3125 C 1.78125 -3.5 2.25 -4.703125 3.03125 -5.515625 C 3.515625 -6.015625 4.140625 -6.28125 4.796875 -6.28125 C 5.71875 -6.28125 6.21875 -5.734375 6.3125 -4.671875 L 6.5 -4.640625 L 6.875 -6.625 L 6.65625 -6.625 C 6.578125 -6.453125 6.484375 -6.40625 6.28125 -6.40625 C 6.1875 -6.40625 6.078125 -6.421875 5.875 -6.46875 C 5.4375 -6.578125 5.03125 -6.640625 4.703125 -6.640625 C 2.578125 -6.640625 0.65625 -4.640625 0.65625 -2.421875 C 0.65625 -0.890625 1.734375 0.171875 3.265625 0.171875 C 4.28125 0.171875 5.078125 -0.25 5.984375 -1.3125 Z M 5.984375 -1.3125 "/>
</g>
<g id="glyph-0-3">
<path d="M 6.96875 -4.171875 C 6.96875 -4.21875 6.96875 -4.265625 6.96875 -4.3125 C 6.96875 -5.640625 6.015625 -6.640625 4.71875 -6.640625 C 3.9375 -6.640625 3.109375 -6.296875 2.328125 -5.625 C 1.25 -4.703125 0.59375 -3.421875 0.59375 -2.203125 C 0.59375 -0.8125 1.5 0.171875 2.765625 0.171875 C 4.84375 0.171875 6.859375 -1.90625 6.96875 -4.171875 Z M 5.921875 -4.796875 C 5.921875 -3.75 5.46875 -2.328125 4.84375 -1.390625 C 4.28125 -0.5625 3.65625 -0.15625 2.9375 -0.15625 C 2.109375 -0.15625 1.640625 -0.75 1.640625 -1.828125 C 1.640625 -2.75 2.109375 -4.203125 2.703125 -5.0625 C 3.265625 -5.90625 3.890625 -6.3125 4.640625 -6.3125 C 5.4375 -6.3125 5.921875 -5.734375 5.921875 -4.796875 Z M 5.921875 -4.796875 "/>
</g>
<g id="glyph-0-4">
<path d="M 5.65625 0 L 5.65625 -0.15625 C 5.21875 -0.1875 5.015625 -0.359375 4.828125 -0.875 L 3.890625 -3.3125 C 4.671875 -3.484375 5 -3.625 5.359375 -3.953125 C 5.6875 -4.234375 5.859375 -4.625 5.859375 -5.078125 C 5.859375 -6 5.140625 -6.515625 3.78125 -6.515625 L 1.3125 -6.515625 L 1.3125 -6.34375 C 1.734375 -6.296875 1.78125 -6.28125 1.890625 -6.203125 C 1.96875 -6.15625 2.03125 -6.046875 2.03125 -5.9375 C 2.03125 -5.8125 1.984375 -5.578125 1.90625 -5.296875 L 0.671875 -0.890625 C 0.5 -0.3125 0.4375 -0.25 -0.125 -0.15625 L -0.125 0 L 2.296875 0 L 2.296875 -0.15625 C 1.6875 -0.234375 1.625 -0.28125 1.625 -0.625 C 1.625 -0.734375 1.640625 -0.828125 1.75 -1.203125 L 2.296875 -3.28125 L 2.953125 -3.234375 L 4.171875 0 Z M 4.8125 -5.09375 C 4.8125 -4.109375 4.171875 -3.59375 2.9375 -3.59375 C 2.75 -3.59375 2.671875 -3.609375 2.421875 -3.65625 L 3.078125 -5.9375 C 3.125 -6.140625 3.265625 -6.203125 3.578125 -6.203125 C 4.40625 -6.203125 4.8125 -5.84375 4.8125 -5.09375 Z M 4.8125 -5.09375 "/>
</g>
<g id="glyph-1-0">
<path d="M 4.703125 -1.671875 L 4.703125 -2.296875 L 3.6875 -2.296875 L 3.6875 -6.734375 L 3.25 -6.734375 L 0.125 -2.296875 L 0.125 -1.671875 L 2.921875 -1.671875 L 2.921875 0 L 3.6875 0 L 3.6875 -1.671875 Z M 2.90625 -2.296875 L 0.515625 -2.296875 L 2.90625 -5.71875 Z M 2.90625 -2.296875 "/>
</g>
</g>
</defs>
<path fill="none" stroke-width="0.79701" stroke-linecap="butt" stroke-linejoin="miter" stroke="rgb(0%, 0%, 0%)" stroke-opacity="1" stroke-miterlimit="10" d="M -17.009594 0.00015625 L 162.478688 0.00015625 " transform="matrix(1, 0, 0, -1, 23.076, 175.465)"/>
<path fill="none" stroke-width="0.79701" stroke-linecap="round" stroke-linejoin="round" stroke="rgb(0%, 0%, 0%)" stroke-opacity="1" stroke-miterlimit="10" d="M -2.54853 3.109531 C -2.083686 1.24625 -1.044624 0.363438 -0.001655 0.00015625 C -1.044624 -0.363125 -2.083686 -1.245937 -2.54853 -3.109219 " transform="matrix(1, 0, 0, -1, 185.95478, 175.465)"/>
<g fill="rgb(0%, 0%, 0%)" fill-opacity="1">
<use xlink:href="#glyph-0-0" x="190.701" y="177.572"/>
</g>
<path fill="none" stroke-width="0.79701" stroke-linecap="butt" stroke-linejoin="miter" stroke="rgb(0%, 0%, 0%)" stroke-opacity="1" stroke-miterlimit="10" d="M -0.00178125 -17.007656 L -0.00178125 152.273594 " transform="matrix(1, 0, 0, -1, 23.076, 175.465)"/>
<path fill="none" stroke-width="0.79701" stroke-linecap="round" stroke-linejoin="round" stroke="rgb(0%, 0%, 0%)" stroke-opacity="1" stroke-miterlimit="10" d="M -2.548704 3.111156 C -2.08386 1.243969 -1.044797 0.361156 -0.00182875 0.00178125 C -1.044797 -0.3615 -2.08386 -1.244312 -2.548704 -3.1115 " transform="matrix(0, -1, -1, 0, 23.076, 22.79114)"/>
<g fill="rgb(0%, 0%, 0%)" fill-opacity="1">
<use xlink:href="#glyph-0-1" x="20.874" y="13.304"/>
</g>
<path fill-rule="nonzero" fill="rgb(69.999695%, 93.998718%, 100%)" fill-opacity="1" d="M 23.074219 175.464844 L 24.445312 170.035156 L 25.816406 164.71875 L 27.1875 159.511719 L 28.558594 154.414062 L 29.929688 149.429688 L 31.300781 144.554688 L 32.671875 139.789062 L 34.042969 135.136719 L 35.414062 130.589844 L 36.785156 126.15625 L 38.15625 121.832031 L 39.527344 117.621094 L 40.894531 113.519531 L 42.265625 109.527344 L 43.636719 105.644531 L 45.007812 101.875 L 46.378906 98.214844 L 47.75 94.664062 L 49.121094 91.226562 L 50.492188 87.898438 L 51.863281 84.679688 L 53.234375 81.570312 L 54.605469 78.574219 L 55.976562 75.6875 L 57.347656 72.910156 L 58.714844 70.246094 L 60.085938 67.691406 L 61.457031 65.246094 L 62.828125 62.910156 L 64.199219 60.6875 L 65.570312 58.574219 L 66.941406 56.570312 L 68.3125 54.675781 L 69.683594 52.894531 L 71.054688 51.222656 L 72.425781 49.664062 L 73.796875 48.210938 L 75.167969 46.871094 L 76.535156 45.640625 L 77.90625 44.523438 L 79.277344 43.515625 L 80.648438 42.617188 L 82.019531 41.828125 L 83.390625 41.152344 L 84.761719 40.585938 L 86.132812 40.128906 L 87.503906 39.78125 L 88.875 39.546875 L 90.246094 39.421875 L 91.617188 39.40625 L 92.988281 39.503906 L 94.355469 39.710938 L 95.726562 40.027344 L 97.097656 40.457031 L 98.46875 40.992188 L 99.839844 41.640625 L 101.210938 42.402344 L 102.582031 43.269531 L 103.953125 44.25 L 105.324219 45.339844 L 106.695312 46.542969 L 108.066406 47.855469 L 109.4375 49.277344 L 110.808594 50.808594 L 112.175781 52.449219 L 113.546875 54.203125 L 114.917969 56.066406 L 116.289062 58.042969 L 117.660156 60.128906 L 119.03125 62.324219 L 120.402344 64.628906 L 121.773438 67.042969 L 123.144531 69.570312 L 124.515625 72.207031 L 125.886719 74.957031 L 127.257812 77.816406 L 128.628906 80.785156 L 130 83.863281 L 131.367188 87.050781 L 132.738281 90.351562 L 134.109375 93.761719 L 135.480469 97.285156 L 136.851562 100.914062 L 138.222656 104.65625 L 139.59375 108.511719 L 140.964844 112.472656 L 142.335938 116.546875 L 143.707031 120.730469 L 145.078125 125.023438 L 146.449219 129.429688 L 147.820312 133.945312 L 149.1875 138.570312 L 150.558594 143.308594 L 151.929688 148.15625 L 153.300781 153.113281 L 154.671875 158.179688 L 156.042969 163.359375 L 157.414062 168.648438 L 158.785156 174.046875 L 159.140625 175.464844 Z M 23.074219 175.464844 "/>
<path fill="none" stroke-width="0.79701" stroke-linecap="butt" stroke-linejoin="miter" stroke="rgb(0%, 0%, 0%)" stroke-opacity="1" stroke-miterlimit="10" d="M -0.00178125 0.00015625 L 1.369312 5.429844 L 2.740406 10.74625 L 4.1115 15.953281 L 5.482594 21.050938 L 6.853687 26.035313 L 8.224781 30.910313 L 9.595875 35.675938 L 10.966969 40.328281 L 12.338062 44.875156 L 13.709156 49.30875 L 15.08025 53.632969 L 16.451344 57.843906 L 17.818531 61.945469 L 19.189625 65.937656 L 20.560719 69.820469 L 21.931812 73.59 L 23.302906 77.250156 L 24.674 80.800938 L 26.045094 84.238438 L 27.416187 87.566563 L 28.787281 90.785313 L 30.158375 93.894688 L 31.529469 96.890781 L 32.900562 99.7775 L 34.271656 102.554844 L 35.638844 105.218906 L 37.009937 107.773594 L 38.381031 110.218906 L 39.752125 112.554844 L 41.123219 114.7775 L 42.494312 116.890781 L 43.865406 118.894688 L 45.2365 120.789219 L 46.607594 122.570469 L 47.978687 124.242344 L 49.349781 125.800938 L 50.720875 127.254063 L 52.091969 128.593906 L 53.459156 129.824375 L 54.83025 130.941563 L 56.201344 131.949375 L 57.572437 132.847813 L 58.943531 133.636875 L 60.314625 134.312656 L 61.685719 134.879063 L 63.056812 135.336094 L 64.427906 135.68375 L 65.799 135.918125 L 67.170094 136.043125 L 68.541188 136.05875 L 69.912281 135.961094 L 71.279469 135.754063 L 72.650563 135.437656 L 74.021656 135.007969 L 75.39275 134.472813 L 76.763844 133.824375 L 78.134938 133.062656 L 79.506031 132.195469 L 80.877125 131.215 L 82.248219 130.125156 L 83.619313 128.922031 L 84.990406 127.609531 L 86.3615 126.187656 L 87.732594 124.656406 L 89.099781 123.015781 L 90.470875 121.261875 L 91.841969 119.398594 L 93.213063 117.422031 L 94.584156 115.336094 L 95.95525 113.140781 L 97.326344 110.836094 L 98.697438 108.422031 L 100.068531 105.894688 L 101.439625 103.257969 L 102.810719 100.507969 L 104.181813 97.648594 L 105.552906 94.679844 L 106.924 91.601719 L 108.291188 88.414219 L 109.662281 85.113438 L 111.033375 81.703281 L 112.404469 78.179844 L 113.775563 74.550938 L 115.146656 70.80875 L 116.51775 66.953281 L 117.888844 62.992344 L 119.259938 58.918125 L 120.631031 54.734531 L 122.002125 50.441563 L 123.373219 46.035313 L 124.744313 41.519688 L 126.1115 36.894688 L 127.482594 32.156406 L 128.853688 27.30875 L 130.224781 22.351719 L 131.595875 17.285313 L 132.966969 12.105625 L 134.338063 6.816563 L 135.709156 1.418125 L 136.064625 0.00015625 " transform="matrix(1, 0, 0, -1, 23.076, 175.465)"/>
<g fill="rgb(0%, 0%, 0%)" fill-opacity="1">
<use xlink:href="#glyph-0-2" x="87.401" y="29.067"/>
</g>
<g fill="rgb(0%, 0%, 0%)" fill-opacity="1">
<use xlink:href="#glyph-0-3" x="12.347" y="185.539"/>
</g>
<g fill="rgb(0%, 0%, 0%)" fill-opacity="1">
<use xlink:href="#glyph-1-0" x="156.648" y="189.033"/>
</g>
<g fill="rgb(0%, 0%, 0%)" fill-opacity="1">
<use xlink:href="#glyph-0-4" x="88.126" y="117.492"/>
</g>
</svg>
