<?xml version="1.0" encoding="UTF-8"?>
<svg xmlns="http://www.w3.org/2000/svg" xmlns:xlink="http://www.w3.org/1999/xlink" width="197.122pt" height="217.445pt" viewBox="0 0 197.122 217.445">
<defs>
<g>
<g id="glyph-0-0">
<path d="M 6.96875 -4.171875 C 6.96875 -4.21875 6.96875 -4.265625 6.96875 -4.3125 C 6.96875 -5.640625 6.015625 -6.640625 4.71875 -6.640625 C 3.9375 -6.640625 3.109375 -6.296875 2.328125 -5.625 C 1.25 -4.703125 0.59375 -3.421875 0.59375 -2.203125 C 0.59375 -0.8125 1.5 0.171875 2.765625 0.171875 C 4.84375 0.171875 6.859375 -1.90625 6.96875 -4.171875 Z M 5.921875 -4.796875 C 5.921875 -3.75 5.46875 -2.328125 4.84375 -1.390625 C 4.28125 -0.5625 3.65625 -0.15625 2.9375 -0.15625 C 2.109375 -0.15625 1.640625 -0.75 1.640625 -1.828125 C 1.640625 -2.75 2.109375 -4.203125 2.703125 -5.0625 C 3.265625 -5.90625 3.890625 -6.3125 4.640625 -6.3125 C 5.4375 -6.3125 5.921875 -5.734375 5.921875 -4.796875 Z M 5.921875 -4.796875 "/>
</g>
<g id="glyph-0-1">
<path d="M 5.625 0 L 5.625 -0.15625 C 5.046875 -0.203125 4.984375 -0.296875 4.859375 -1.015625 L 3.921875 -6.65625 L 3.671875 -6.65625 L 0.78125 -1.671875 C -0.015625 -0.34375 -0.109375 -0.234375 -0.515625 -0.15625 L -0.515625 0 L 1.359375 0 L 1.359375 -0.15625 C 0.84375 -0.203125 0.765625 -0.265625 0.765625 -0.515625 C 0.765625 -0.703125 0.796875 -0.78125 0.96875 -1.125 L 1.53125 -2.25 L 3.734375 -2.25 L 3.921875 -0.953125 C 3.9375 -0.859375 3.953125 -0.765625 3.953125 -0.6875 C 3.953125 -0.3125 3.8125 -0.21875 3.171875 -0.15625 L 3.171875 0 Z M 3.671875 -2.609375 L 1.75 -2.609375 L 3.234375 -5.203125 Z M 3.671875 -2.609375 "/>
</g>
<g id="glyph-0-2">
<path d="M 5.375 -2 C 5.375 -2.71875 5.0625 -3.09375 4.109375 -3.5 C 4.828125 -3.671875 5.109375 -3.78125 5.4375 -4.0625 C 5.71875 -4.3125 5.859375 -4.640625 5.859375 -5.046875 C 5.859375 -5.984375 5.15625 -6.515625 3.875 -6.515625 L 1.296875 -6.515625 L 1.296875 -6.34375 C 1.921875 -6.296875 2.0625 -6.234375 2.0625 -5.9375 C 2.0625 -5.796875 2.03125 -5.546875 1.953125 -5.296875 L 0.734375 -0.890625 C 0.546875 -0.3125 0.484375 -0.265625 -0.078125 -0.15625 L -0.078125 0 L 2.734375 0 C 4.296875 0 5.375 -0.8125 5.375 -2 Z M 4.296875 -2.03125 C 4.296875 -0.953125 3.5625 -0.296875 2.34375 -0.296875 C 1.921875 -0.296875 1.703125 -0.4375 1.703125 -0.71875 C 1.703125 -0.84375 1.828125 -1.3125 2.046875 -2.109375 L 2.375 -3.296875 C 3 -3.296875 3.421875 -3.265625 3.625 -3.1875 C 4.046875 -3.015625 4.296875 -2.578125 4.296875 -2.03125 Z M 4.859375 -5.140625 C 4.859375 -4.109375 4.1875 -3.625 2.8125 -3.625 L 2.46875 -3.625 L 3.125 -5.9375 C 3.1875 -6.15625 3.296875 -6.203125 3.6875 -6.203125 C 4.5 -6.203125 4.859375 -5.875 4.859375 -5.140625 Z M 4.859375 -5.140625 "/>
</g>
<g id="glyph-0-3">
<path d="M 5.984375 -1.3125 L 5.8125 -1.453125 C 4.921875 -0.5625 4.34375 -0.265625 3.515625 -0.265625 C 2.40625 -0.265625 1.78125 -1.015625 1.78125 -2.3125 C 1.78125 -3.5 2.25 -4.703125 3.03125 -5.515625 C 3.515625 -6.015625 4.140625 -6.28125 4.796875 -6.28125 C 5.71875 -6.28125 6.21875 -5.734375 6.3125 -4.671875 L 6.5 -4.640625 L 6.875 -6.625 L 6.65625 -6.625 C 6.578125 -6.453125 6.484375 -6.40625 6.28125 -6.40625 C 6.1875 -6.40625 6.078125 -6.421875 5.875 -6.46875 C 5.4375 -6.578125 5.03125 -6.640625 4.703125 -6.640625 C 2.578125 -6.640625 0.65625 -4.640625 0.65625 -2.421875 C 0.65625 -0.890625 1.734375 0.171875 3.265625 0.171875 C 4.28125 0.171875 5.078125 -0.25 5.984375 -1.3125 Z M 5.984375 -1.3125 "/>
</g>
<g id="glyph-0-4">
<path d="M 4.109375 -3.890625 C 4.109375 -4.1875 3.921875 -4.390625 3.640625 -4.390625 C 3.40625 -4.390625 3.140625 -4.25 2.875 -3.984375 C 2.46875 -3.546875 2.078125 -2.96875 1.90625 -2.578125 L 1.78125 -2.21875 L 2.296875 -4.375 L 2.265625 -4.390625 L 0.734375 -4.125 L 0.734375 -3.953125 C 0.8125 -3.953125 0.890625 -3.953125 0.984375 -3.953125 C 1.203125 -3.953125 1.421875 -3.9375 1.421875 -3.734375 C 1.421875 -3.59375 1.421875 -3.59375 1.25 -2.90625 L 0.453125 0 L 1.203125 0 C 1.71875 -1.671875 1.875 -2.078125 2.3125 -2.8125 C 2.65625 -3.421875 2.953125 -3.75 3.125 -3.75 C 3.203125 -3.75 3.234375 -3.703125 3.296875 -3.609375 C 3.375 -3.4375 3.453125 -3.390625 3.65625 -3.390625 C 3.953125 -3.390625 4.109375 -3.5625 4.109375 -3.890625 Z M 4.109375 -3.890625 "/>
</g>
<g id="glyph-0-5">
<path d="M 4.765625 -1.046875 L 4.640625 -1.171875 C 4.09375 -0.484375 3.984375 -0.375 3.8125 -0.375 C 3.734375 -0.375 3.65625 -0.453125 3.65625 -0.5625 C 3.65625 -0.671875 3.8125 -1.28125 3.984375 -1.796875 C 4.28125 -2.734375 4.46875 -3.484375 4.46875 -3.734375 C 4.46875 -4.125 4.203125 -4.390625 3.8125 -4.390625 C 3.15625 -4.390625 2.453125 -3.75 1.53125 -2.296875 L 2.71875 -6.765625 L 2.671875 -6.8125 C 2.09375 -6.671875 1.703125 -6.609375 1.109375 -6.546875 L 1.109375 -6.390625 C 1.15625 -6.390625 1.21875 -6.390625 1.28125 -6.390625 C 1.53125 -6.390625 1.78125 -6.375 1.78125 -6.15625 C 1.78125 -5.921875 1.609375 -5.40625 1.53125 -5.109375 L 0.1875 0 L 0.9375 0 C 1.328125 -1.53125 1.46875 -1.875 1.859375 -2.484375 C 2.375 -3.265625 3.0625 -3.890625 3.40625 -3.890625 C 3.5625 -3.890625 3.6875 -3.765625 3.6875 -3.640625 C 3.6875 -3.59375 3.65625 -3.46875 3.625 -3.3125 L 3.078125 -1.25 C 2.9375 -0.75 2.875 -0.453125 2.875 -0.328125 C 2.875 -0.0625 3.046875 0.09375 3.3125 0.09375 C 3.8125 0.09375 4.15625 -0.171875 4.765625 -1.046875 Z M 4.765625 -1.046875 "/>
</g>
</g>
</defs>
<path fill="none" stroke-width="0.79701" stroke-linecap="butt" stroke-linejoin="miter" stroke="rgb(0%, 0%, 0%)" stroke-opacity="1" stroke-miterlimit="10" d="M -85.040594 0.00184375 L 85.041438 0.00184375 L -0.00153125 170.079969 Z M -85.040594 0.00184375 " transform="matrix(1, 0, 0, -1, 91.107, 193.662)"/>
<path fill="none" stroke-width="0.79701" stroke-linecap="butt" stroke-linejoin="miter" stroke="rgb(0%, 0%, 0%)" stroke-opacity="1" stroke-miterlimit="10" d="M -42.521062 0.00184375 L -42.521062 85.040906 L 42.521906 85.040906 L 42.521906 0.00184375 " transform="matrix(1, 0, 0, -1, 91.107, 193.662)"/>
<path fill="none" stroke-width="0.3985" stroke-linecap="butt" stroke-linejoin="miter" stroke="rgb(0%, 0%, 0%)" stroke-opacity="1" stroke-dasharray="2.98883 2.98883" stroke-miterlimit="10" d="M -0.00153125 0.00184375 L -0.00153125 170.079969 " transform="matrix(1, 0, 0, -1, 91.107, 193.662)"/>
<path fill="none" stroke-width="0.3985" stroke-linecap="butt" stroke-linejoin="miter" stroke="rgb(0%, 0%, 0%)" stroke-opacity="1" stroke-dasharray="2.98883 2.98883" stroke-miterlimit="10" d="M -0.00153125 85.040906 L 42.521906 85.040906 " transform="matrix(1, 0, 0, -1, 91.107, 193.662)"/>
<g fill="rgb(0%, 0%, 0%)" fill-opacity="1">
<use xlink:href="#glyph-0-0" x="87.182" y="208.271"/>
</g>
<g fill="rgb(0%, 0%, 0%)" fill-opacity="1">
<use xlink:href="#glyph-0-1" x="181.916" y="197.025"/>
</g>
<g fill="rgb(0%, 0%, 0%)" fill-opacity="1">
<use xlink:href="#glyph-0-2" x="88.158" y="15.5"/>
</g>
<g fill="rgb(0%, 0%, 0%)" fill-opacity="1">
<use xlink:href="#glyph-0-3" x="138.425" y="111.893"/>
</g>
<g fill="rgb(0%, 0%, 0%)" fill-opacity="1">
<use xlink:href="#glyph-0-4" x="109.976" y="207.158"/>
</g>
<g fill="rgb(0%, 0%, 0%)" fill-opacity="1">
<use xlink:href="#glyph-0-5" x="77.358" y="154.455"/>
</g>
</svg>
