<svg style="overflow: visible;" xmlns="http://www.w3.org/2000/svg" xmlns:xlink="http://www.w3.org/1999/xlink" xmlns:inkscape="http://www.inkscape.org/namespaces/inkscape" version="1.1" width="100%" height="100%" viewBox="0 0 297.56 304.92">
<defs>
<path id="font_1_7" d="M.47399903 .40820313C.44198609 .40219117 .42999269 .3781891 .42999269 .3591919 .42999269 .33518983 .44898988 .3271942 .46299745 .3271942 .49299623 .3271942 .5139923 .3531952 .5139923 .380188 .5139923 .4223938 .46598817 .44140626 .42399598 .44140626 .36299134 .44140626 .32899476 .38119508 .31999208 .36219789 .29699708 .4373932 .23498535 .44140626 .21699524 .44140626 .114990238 .44140626 .06098938 .31021119 .06098938 .28822328 .06098938 .28422547 .06498718 .27923585 .07199097 .27923585 .07998657 .27923585 .08198547 .28523255 .083999637 .2892151 .117996219 .40019227 .18499756 .42140199 .21398926 .42140199 .25898744 .42140199 .2679901 .37919618 .2679901 .3551941 .2679901 .33319093 .2619934 .31021119 .25 .26223756L.21598816 .12535095C.20098877 .06535339 .17199707 .010223389 .11898804 .010223389 .11399841 .010223389 .08898926 .010223389 .067993167 .023330689 .10398865 .03036499 .11199951 .06036377 .11199951 .07235718 .11199951 .09236145 .09700012 .10435486 .07798767 .10435486 .053985597 .10435486 .027999878 .083358768 .027999878 .051361085 .027999878 .009231567 .07499695-.009765625 .117996219-.009765625 .1659851-.009765625 .19999695 .028366089 .22099304 .069366458 .23699951 .010223389 .2869873-.009765625 .32398988-.009765625 .42599488-.009765625 .47999574 .12135315 .47999574 .1433258 .47999574 .14833069 .47599793 .15232849 .46998597 .15232849 .46099855 .15232849 .45999146 .14732361 .45700074 .139328 .42999269 .051361085 .37199403 .010223389 .32699586 .010223389 .2919922 .010223389 .272995 .036361696 .272995 .07736206 .272995 .099365238 .2769928 .115356449 .29299928 .18130493L.32798768 .3171997C.34298707 .37719728 .3769989 .42140199 .4229889 .42140199 .4249878 .42140199 .45298768 .42140199 .47399903 .40820313Z"/>
<path id="font_1_8" d="M.2630005-.11172485C.23599243-.14982605 .19699097-.18411255 .147995-.18411255 .13598633-.18411255 .08799744-.18209839 .07299805-.13572693 .07598877-.13671875 .08099365-.13671875 .08299255-.13671875 .11299133-.13671875 .1329956-.11073303 .1329956-.08772278 .1329956-.06472778 .11399841-.056732179 .09899902-.056732179 .08299255-.056732179 .04798889-.068725589 .04798889-.11772156 .04798889-.16899109 .09098816-.20410156 .147995-.20410156 .24798584-.20410156 .34899903-.11172485 .3769989-.00077819827L.47499085 .38868714C.47599793 .39367677 .47799684 .39967347 .47799684 .4056549 .47799684 .4206543 .46598817 .43066407 .45098878 .43066407 .44198609 .43066407 .42099 .426651 .41299439 .39666749L.33898927 .10308838C.33399964 .085113529 .33399964 .08312988 .32598878 .072143558 .30599977 .04423523 .272995 .010223389 .22499085 .010223389 .16899109 .010223389 .1639862 .06524658 .1639862 .09225464 .1639862 .14929199 .19099427 .22631836 .21798706 .2983551 .22898865 .32736207 .23498535 .34136964 .23498535 .3613739 .23498535 .4033966 .20498657 .44140626 .1559906 .44140626 .06399536 .44140626 .026992798 .29634095 .026992798 .28834535 .026992798 .28434754 .0309906 .27934266 .037994386 .27934266 .04699707 .27934266 .04798889 .28334046 .051986696 .29734803 .07598877 .38137818 .11399841 .42140199 .15299988 .42140199 .1619873 .42140199 .1789856 .42140199 .1789856 .38838197 .1789856 .36238099 .16799927 .33335877 .15299988 .29534913 .10398865 .16429138 .10398865 .13127136 .10398865 .10726929 .10398865 .01222229 .17199707-.009765625 .22200012-.009765625 .25099183-.009765625 .2869873-.00077819827 .32199098 .036239625L.32299806 .035232545C.30799867-.023757935 .2979889-.06272888 .2630005-.11172485Z"/>
<path id="font_1_4" d="M.7259979 .43788148C.7259979 .60302737 .6179962 .70410159 .47799684 .70410159 .2639923 .70410159 .04798889 .47392274 .04798889 .24272156 .04798889 .08558655 .1519928-.021484375 .29699708-.021484375 .5069885-.021484375 .7259979 .19767761 .7259979 .43788148M.30299378 .0015106201C.22099304 .0015106201 .13398743 .061553956 .13398743 .21769715 .13398743 .30877687 .16699219 .457901 .24899292 .5579834 .32199098 .6460724 .4059906 .6820984 .47299195 .6820984 .5609894 .6820984 .6459961 .618042 .6459961 .47392274 .6459961 .38484193 .60798647 .24571228 .54100039 .15063477 .46798707 .048553468 .3769989 .0015106201 .30299378 .0015106201Z"/>
<path id="font_1_3" d="M.746994 .6950989C.746994 .70410159 .73999026 .70410159 .73799136 .70410159 .73599246 .70410159 .7319946 .70410159 .723999 .6940918L.6549988 .6100311C.6199951 .6700897 .5649872 .70410159 .48999024 .70410159 .27398683 .70410159 .049987794 .48492433 .049987794 .24972534 .049987794 .08258057 .16699219-.021484375 .31298829-.021484375 .3929901-.021484375 .46299745 .012512207 .5209961 .061553956 .60798647 .13461304 .6339874 .23170471 .6339874 .23971558 .6339874 .24871826 .6259918 .24871826 .6230011 .24871826 .6139984 .24871826 .61299136 .24272156 .61099246 .2387085 .5649872 .08258057 .42999269 .007507324 .32998658 .007507324 .22399903 .007507324 .13198853 .07556152 .13198853 .21769715 .13198853 .24972534 .14199829 .4238739 .25498963 .5549927 .30999757 .6190491 .4039917 .6750946 .49899293 .6750946 .60899356 .6750946 .6579895 .5840149 .6579895 .48191834 .6579895 .4559021 .6549988 .43388368 .6549988 .42988587 .6549988 .42086793 .6649933 .42086793 .66799929 .42086793 .67900088 .42086793 .6799927 .421875 .6839905 .43989564L.746994 .6950989Z"/>
<path id="font_2_1" d="M.32499696-.24298096C.32499696-.23999024 .32499696-.23799134 .30799867-.22097779 .20799256-.11997986 .1519928 .045013429 .1519928 .24900818 .1519928 .44299317 .19898987 .60998538 .31498719 .7279968 .32499696 .7369995 .32499696 .7389984 .32499696 .74198916 .32499696 .74798586 .31999208 .75 .31599427 .75 .30299378 .75 .22099304 .6779938 .17199707 .5799866 .12098694 .47898866 .09799194 .37199403 .09799194 .24900818 .09799194 .16000366 .11199951 .041015626 .1639862-.06599426 .22299195-.18598938 .30499269-.25097657 .31599427-.25097657 .31999208-.25097657 .32499696-.24897766 .32499696-.24298096Z"/>
<path id="font_2_6" d="M.43998719 .16790772H.41799928C.4149933 .15092469 .40699769 .09597778 .39698792 .07998657 .3899994 .070999149 .33299256 .070999149 .30299378 .070999149H.117996219C.14498902 .09397888 .20599365 .15792847 .23199463 .18190003 .38398744 .3217926 .43998719 .37374879 .43998719 .47270204 .43998719 .5878906 .34899903 .66503909 .23298645 .66503909 .116989139 .66503909 .04899597 .5658264 .04899597 .4797058 .04899597 .42871095 .09298706 .42871095 .09599304 .42871095 .116989139 .42871095 .14299011 .44371034 .14299011 .475708 .14299011 .5037079 .12399292 .5227051 .09599304 .5227051 .08699036 .5227051 .084991458 .5227051 .08198547 .521698 .100997928 .5899048 .15499878 .6360321 .21998596 .6360321 .30499269 .6360321 .35699464 .56481936 .35699464 .47270204 .35699464 .3877411 .30799867 .313797 .25099183 .24984741L.04899597 .023986817V0H.4139862L.43998719 .16790772Z"/>
<path id="font_1_1" d="M.19499207-.0040130617C.19499207 .053985597 .17599488 .09700012 .1349945 .09700012 .102996829 .09700012 .08699036 .070999149 .08699036 .04899597 .08699036 .026992798 .101989749 0 .13598633 0 .14898682 0 .1599884 .0039978029 .16899109 .0129852299 .17098999 .01499939 .17199707 .01499939 .17298889 .01499939 .1749878 .01499939 .1749878 .0009918213 .1749878-.0040130617 .1749878-.037078859 .16899109-.10221863 .11099243-.1673584 .099990848-.17936707 .099990848-.18136597 .099990848-.18336487 .099990848-.18836975 .10499573-.19335938 .10998535-.19335938 .117996219-.19335938 .19499207-.119262699 .19499207-.0040130617Z"/>
<path id="font_3_1" d="M.6589966 .23046875C.6759949 .23046875 .69400027 .23046875 .69400027 .25045777 .69400027 .27046205 .6759949 .27046205 .6589966 .27046205H.117996219C.100997928 .27046205 .08299255 .27046205 .08299255 .25045777 .08299255 .23046875 .100997928 .23046875 .117996219 .23046875H.6589966Z"/>
<path id="font_2_8" d="M.36099244 .6508026C.36099244 .6697998 .36099244 .6748047 .34700013 .6748047 .33898927 .6748047 .33599855 .6748047 .32798768 .662796L.026992798 .19598389V.16699219H.2899933V.07598877C.2899933 .038986207 .28799439 .0289917 .21499634 .0289917H.19499207V0C.21798706 .0019989014 .29699708 .0019989014 .32499696 .0019989014 .35299684 .0019989014 .43299867 .0019989014 .45599366 0V.0289917H.43598939C.3639984 .0289917 .36099244 .038986207 .36099244 .07598877V.16699219H.46199037V.19598389H.36099244V.6508026M.29499818 .5728302V.19598389H.051986696L.29499818 .5728302Z"/>
<path id="font_2_2" d="M.28199769 .24900818C.28199769 .32499696 .27198792 .44898988 .21598816 .5649872 .15699768 .68499758 .07499695 .75 .06399536 .75 .05999756 .75 .054992677 .74798586 .054992677 .74198916 .054992677 .7389984 .054992677 .7369995 .07199097 .71998599 .17199707 .61898806 .22799683 .45399476 .22799683 .25 .22799683 .056015016 .18099976-.11099243 .06498718-.22898865 .054992677-.23799134 .054992677-.23999024 .054992677-.24298096 .054992677-.24897766 .05999756-.25097657 .06399536-.25097657 .07699585-.25097657 .15899658-.1789856 .20799256-.08099365 .25898744 .021011353 .28199769 .12901306 .28199769 .24900818Z"/>
<path id="font_2_13" d="M.6749878 .32421876C.68899539 .32421876 .70700076 .32421876 .70700076 .34220887 .70700076 .36120606 .6899872 .36120606 .6749878 .36120606H.085998538C.07199097 .36120606 .053985597 .36120606 .053985597 .34321595 .053985597 .32421876 .070999149 .32421876 .085998538 .32421876H.6749878M.6749878 .13780213C.68899539 .13780213 .70700076 .13780213 .70700076 .15579224 .70700076 .17480469 .6899872 .17480469 .6749878 .17480469H.085998538C.07199097 .17480469 .053985597 .17480469 .053985597 .15679932 .053985597 .13780213 .070999149 .13780213 .085998538 .13780213H.6749878Z"/>
<path id="font_3_2" d="M.3889923-.8549652 .21299744-.4659729C.20599365-.44996644 .20098877-.44996644 .19799805-.44996644 .19699097-.44996644 .19198609-.44996644 .18099976-.45796205L.085998538-.52996829C.07299805-.53996279 .07299805-.54296877 .07299805-.54597476 .07299805-.55096438 .07598877-.55696108 .08299255-.55696108 .08898926-.55696108 .10598755-.54296877 .116989139-.53497317 .12298584-.52996829 .13798523-.5189667 .14898682-.51097109L.34599305-.9439697C.35299684-.95996096 .35798646-.95996096 .36698915-.95996096 .38198854-.95996096 .3849945-.95396426 .3919983-.9399719L.84599307 .000030517579C.8529968 .014038086 .8529968 .018035889 .8529968 .02003479 .8529968 .030029297 .8450012 .040039064 .83299258 .040039064 .82499697 .040039064 .81799319 .03503418 .80999758 .01902771L.3889923-.8549652Z"/>
<path id="font_2_11" d="M.47499085 .62054446V.6435547H.23399353C.11299133 .6435547 .11099243 .6567688 .10699463 .67578127H.084991458L.053985597 .47554017H.07598877C.07899475 .49354554 .08799744 .555542 .100997928 .5665436 .10899353 .5725403 .18399048 .5725403 .19799805 .5725403H.4099884L.3039856 .42053224C.2769928 .38153077 .17599488 .21751404 .17599488 .029510498 .17599488 .018508912 .17599488-.021484375 .21699524-.021484375 .25898744-.021484375 .25898744 .017501831 .25898744 .030517579V.08052063C.25898744 .2295227 .2829895 .34553529 .32998658 .41253663L.47499085 .62054446Z"/>
<path id="font_2_3" d="M.39898683 .23057556H.6749878C.68899539 .23057556 .70700076 .23057556 .70700076 .24856568 .70700076 .26757813 .6899872 .26757813 .6749878 .26757813H.39898683V.5441437C.39898683 .5581665 .39898683 .5761719 .3809967 .5761719 .3619995 .5761719 .3619995 .5591583 .3619995 .5441437V.26757813H.085998538C.07199097 .26757813 .053985597 .26757813 .053985597 .24957276 .053985597 .23057556 .070999149 .23057556 .085998538 .23057556H.3619995V-.045166017C.3619995-.059158327 .3619995-.07714844 .37998963-.07714844 .39898683-.07714844 .39898683-.060150148 .39898683-.045166017V.23057556Z"/>
<path id="font_4_2" d="M.28199769 .20405579C.2979889 .21907044 .33999635 .2520752 .35598756 .26608277 .41799928 .32312013 .47698976 .3781433 .47698976 .46917726 .47698976 .588089 .3769989 .66503909 .2519989 .66503909 .13198853 .66503909 .052993776 .57411196 .052993776 .48516847 .052993776 .4361725 .09199524 .4291687 .10598755 .4291687 .1269989 .4291687 .1579895 .4441681 .1579895 .48217774 .1579895 .5341797 .10798645 .5341797 .09599304 .5341797 .125 .6070709 .19198609 .6320343 .24099732 .6320343 .33399964 .6320343 .38198854 .55314639 .38198854 .46917726 .38198854 .36514283 .30899049 .28910829 .19099427 .16804505L.06498718 .037994386C.052993776 .026992798 .052993776 .024993897 .052993776 0H.44799806L.47698976 .17904663H.44599916C.44299317 .1590271 .43499757 .10900879 .4229889 .08999634 .4169922 .08198547 .34098817 .08198547 .32499696 .08198547H.14698792L.28199769 .20405579Z"/>
<path id="font_2_12" d="M.2979889 .36079408C.34799195 .38781739 .42099 .43385316 .42099 .5179291 .42099 .6049957 .33699037 .66503909 .24499512 .66503909 .1459961 .66503909 .067993167 .59199526 .067993167 .5009155 .067993167 .46688844 .07798767 .43286134 .10598755 .39883424 .116989139 .38581849 .117996219 .38482667 .18798828 .3357849 .09098816 .29074098 .040985109 .22369385 .040985109 .15063477 .040985109 .044540407 .14199829-.021484375 .24398804-.021484375 .35499574-.021484375 .44799806 .060546876 .44799806 .16563416 .44799806 .2677307 .37599183 .3127594 .2979889 .36079408M.1619873 .4508667C.14898682 .45988465 .10899353 .48590089 .10899353 .5349426 .10899353 .59999087 .1769867 .641037 .24398804 .641037 .31599427 .641037 .37998963 .58898928 .37998963 .516922 .37998963 .45587159 .33599855 .4068451 .27799989 .3748169L.1619873 .4508667M.20899964 .32176209 .32998658 .2427063C.35598756 .22569275 .4019928 .19465637 .4019928 .13360596 .4019928 .057556154 .32499696 .005508423 .24499512 .005508423 .1599884 .005508423 .08699036 .06756592 .08699036 .15063477 .08699036 .22869873 .14399719 .29174806 .20899964 .32176209Z"/>
<path id="font_2_4" d="M.44799806 .31976319C.44799806 .40283204 .44299317 .48390199 .40699769 .55996707 .3659973 .64302065 .2939911 .66503909 .24499512 .66503909 .18699646 .66503909 .115997318 .63601687 .07899475 .552948 .050994874 .48989869 .040985109 .42785646 .040985109 .31976319 .040985109 .22268677 .04798889 .14962769 .083999637 .078567508 .12298584 .0025177003 .19198609-.021484375 .24398804-.021484375 .33099366-.021484375 .3809967 .030532837 .4099884 .08857727 .44599916 .16363526 .44799806 .26171876 .44799806 .31976319M.24398804-.0014953613C.21199036-.0014953613 .14698792 .016525269 .12799073 .12561035 .116989139 .18565369 .116989139 .26171876 .116989139 .33177186 .116989139 .41384889 .116989139 .48789979 .1329956 .5469513 .1499939 .6139984 .20098877 .6450348 .24398804 .6450348 .28199769 .6450348 .33999635 .6220093 .35899354 .53593447 .37199403 .4788971 .37199403 .39982606 .37199403 .33177186 .37199403 .26472474 .37199403 .18865967 .36099244 .12760926 .34199525 .01751709 .2789917-.0014953613 .24398804-.0014953613Z"/>
</defs>
<path transform="matrix(1,0,0,-1,108.116,89.335018)" stroke-width=".79701" stroke-linecap="round" stroke-linejoin="round" fill="none" stroke="#000000" d="M-102.04953 0H165.97222"/>
<path transform="matrix(1,0,0,-1,271.62315,89.335018)" d="M5.44046 0 1.28699 1.5706 2.66432 0 1.28699-1.5706Z"/>
<path transform="matrix(1,0,0,-1,271.62315,89.335018)" stroke-width=".79701" stroke-linecap="round" stroke-miterlimit="10" stroke-linejoin="miter" fill="none" stroke="#000000" d="M5.44046 0 1.28699 1.5706 2.66432 0 1.28699-1.5706Z"/>
<use data-text="x" xlink:href="#font_1_7" transform="matrix(11.9552,0,0,-11.9552,281.918,91.90901)"/>
<path transform="matrix(1,0,0,-1,108.116,89.335018)" stroke-width=".79701" stroke-linecap="round" stroke-linejoin="round" fill="none" stroke="#000000" d="M0-187.09084V63.92267"/>
<path transform="matrix(0,-1,-1,-0,108.116,27.877415)" d="M5.44046 0 1.28699 1.5706 2.66432 0 1.28699-1.5706Z"/>
<path transform="matrix(0,-1,-1,-0,108.116,27.877415)" stroke-width=".79701" stroke-linecap="round" stroke-miterlimit="10" stroke-linejoin="miter" fill="none" stroke="#000000" d="M5.44046 0 1.28699 1.5706 2.66432 0 1.28699-1.5706Z"/>
<use data-text="y" xlink:href="#font_1_8" transform="matrix(11.9552,0,0,-11.9552,105.048007,15.258009)"/>
<use data-text="O" xlink:href="#font_1_4" transform="matrix(11.9552,0,0,-11.9552,95.325,101.02402)"/>
<path transform="matrix(1,0,0,-1,108.116,89.335018)" stroke-width="1.59404" stroke-linecap="round" stroke-linejoin="round" fill="none" stroke="#ff0000" d="M124.01775-68.03702C124.01775-18.33118 83.72433 21.96222 34.0185 21.96222-15.68733 21.96222-55.98074-18.33118-55.98074-68.03702-55.98074-117.74287-15.68733-158.03629 34.0185-158.03629 83.72433-158.03629 124.01775-117.74287 124.01775-68.03702ZM34.0185-68.03702"/>
<path transform="matrix(1,0,0,-1,108.116,89.335018)" d="M35.21404-68.03702C35.21404-67.37674 34.67877-66.84148 34.0185-66.84148 33.35822-66.84148 32.82295-67.37674 32.82295-68.03702 32.82295-68.69731 33.35822-69.23257 34.0185-69.23257 34.67877-69.23257 35.21404-68.69731 35.21404-68.03702ZM34.0185-68.03702"/>
<use data-text="C" xlink:href="#font_1_3" transform="matrix(11.9552,0,0,-11.9552,145.65399,169.858)"/>
<use data-text="(" xlink:href="#font_2_1" transform="matrix(11.9552,0,0,-11.9552,154.888,169.858)"/>
<use data-text="2" xlink:href="#font_2_6" transform="matrix(11.9552,0,0,-11.9552,159.43097,169.858)"/>
<use data-text="," xlink:href="#font_1_1" transform="matrix(11.9552,0,0,-11.9552,165.293,169.858)"/>
<use data-text="&#x2212;" xlink:href="#font_3_1" transform="matrix(11.9552,0,0,-11.9552,170.53699,169.858)"/>
<use data-text="4" xlink:href="#font_2_8" transform="matrix(11.9552,0,0,-11.9552,179.836,169.858)"/>
<use data-text=")" xlink:href="#font_2_2" transform="matrix(11.9552,0,0,-11.9552,185.6821,169.858)"/>
<path transform="matrix(1,0,0,-1,108.116,89.335018)" stroke-width=".79701" stroke-linecap="round" stroke-linejoin="round" fill="none" stroke="#0000ff" d="M-55.98274-187.09084V68.03302"/>
<path transform="matrix(1,0,0,-1,108.116,89.335018)" stroke-width=".79701" stroke-linecap="round" stroke-linejoin="round" fill="none" stroke="#0000ff" d="M124.01578-187.09084V68.03302"/>
<use data-text="x" xlink:href="#font_1_7" transform="matrix(11.9552,0,0,-11.9552,19.867,19.83901)" fill="#0000ff"/>
<use data-text="=" xlink:href="#font_2_13" transform="matrix(11.9552,0,0,-11.9552,29.84,19.83901)" fill="#0000ff"/>
<use data-text="2" xlink:href="#font_2_6" transform="matrix(11.9552,0,0,-11.9552,42.2495,19.83901)" fill="#0000ff"/>
<use data-text="&#x2212;" xlink:href="#font_3_1" transform="matrix(11.9552,0,0,-11.9552,50.775,19.83901)" fill="#0000ff"/>
<use data-text="2" xlink:href="#font_2_6" transform="matrix(11.9552,0,0,-11.9552,62.730005,19.83901)" fill="#0000ff"/>
<use data-text="&#x221a;" xlink:href="#font_3_2" transform="matrix(11.9552,0,0,-11.9552,68.583,9.95001)" fill="#0000ff"/>
<path transform="matrix(1,0,0,-1,-16.249,2.5080109)" stroke-width=".4782" stroke-linecap="butt" stroke-linejoin="round" fill="none" stroke="#0000ff" d="M94.795-7.203H100.648"/>
<use data-text="7" xlink:href="#font_2_11" transform="matrix(11.9552,0,0,-11.9552,78.546,19.83901)" fill="#0000ff"/>
<use data-text="x" xlink:href="#font_1_7" transform="matrix(11.9552,0,0,-11.9552,199.962,19.83901)" fill="#0000ff"/>
<use data-text="=" xlink:href="#font_2_13" transform="matrix(11.9552,0,0,-11.9552,209.93502,19.83901)" fill="#0000ff"/>
<use data-text="2" xlink:href="#font_2_6" transform="matrix(11.9552,0,0,-11.9552,222.34452,19.83901)" fill="#0000ff"/>
<use data-text="+" xlink:href="#font_2_3" transform="matrix(11.9552,0,0,-11.9552,230.84467,19.83901)" fill="#0000ff"/>
<use data-text="2" xlink:href="#font_2_6" transform="matrix(11.9552,0,0,-11.9552,242.60858,19.83901)" fill="#0000ff"/>
<use data-text="&#x221a;" xlink:href="#font_3_2" transform="matrix(11.9552,0,0,-11.9552,248.48401,9.95001)" fill="#0000ff"/>
<path transform="matrix(1,0,0,-1,163.84601,2.5080109)" stroke-width=".4782" stroke-linecap="butt" stroke-linejoin="round" fill="none" stroke="#0000ff" d="M94.601-7.203H100.454"/>
<use data-text="7" xlink:href="#font_2_11" transform="matrix(11.9552,0,0,-11.9552,258.44703,19.83901)" fill="#0000ff"/>
<use data-text="x" xlink:href="#font_1_7" transform="matrix(11.9552,0,0,-11.9552,76.002,293.608)" fill="#ff0000"/>
<use data-text="2" xlink:href="#font_4_2" transform="matrix(7.9701,0,0,-7.9701,82.65401,289.27003)" fill="#ff0000"/>
<use data-text="+" xlink:href="#font_2_3" transform="matrix(11.9552,0,0,-11.9552,90.043,293.608)" fill="#ff0000"/>
<use data-text="y" xlink:href="#font_1_8" transform="matrix(11.9552,0,0,-11.9552,101.804,293.608)" fill="#ff0000"/>
<use data-text="2" xlink:href="#font_4_2" transform="matrix(7.9701,0,0,-7.9701,107.941,289.27003)" fill="#ff0000"/>
<use data-text="&#x2212;" xlink:href="#font_3_1" transform="matrix(11.9552,0,0,-11.9552,115.33,293.608)" fill="#ff0000"/>
<use data-text="4" xlink:href="#font_2_8" transform="matrix(11.9552,0,0,-11.9552,127.285,293.608)" fill="#ff0000"/>
<use data-text="x" xlink:href="#font_1_7" transform="matrix(11.9552,0,0,-11.9552,133.138,293.608)" fill="#ff0000"/>
<use data-text="+" xlink:href="#font_2_3" transform="matrix(11.9552,0,0,-11.9552,142.44699,293.608)" fill="#ff0000"/>
<use data-text="8" xlink:href="#font_2_12" transform="matrix(11.9552,0,0,-11.9552,154.19896,293.608)" fill="#ff0000"/>
<use data-text="y" xlink:href="#font_1_8" transform="matrix(11.9552,0,0,-11.9552,160.061,293.608)" fill="#ff0000"/>
<use data-text="&#x2212;" xlink:href="#font_3_1" transform="matrix(11.9552,0,0,-11.9552,168.855,293.608)" fill="#ff0000"/>
<use data-text="8" xlink:href="#font_2_12" transform="matrix(11.9552,0,0,-11.9552,180.81,293.608)" fill="#ff0000"/>
<use data-text="=" xlink:href="#font_2_13" transform="matrix(11.9552,0,0,-11.9552,189.96768,293.608)" fill="#ff0000"/>
<use data-text="0" xlink:href="#font_2_4" transform="matrix(11.9552,0,0,-11.9552,202.38915,293.608)" fill="#ff0000"/>
</svg>
