<svg style="overflow: visible;" xmlns="http://www.w3.org/2000/svg" xmlns:xlink="http://www.w3.org/1999/xlink" xmlns:inkscape="http://www.inkscape.org/namespaces/inkscape" version="1.1" width="100%" height="100%" viewBox="0 0 323.07 321.11">
<defs>
<path id="font_1_7" d="M.47399903 .40820313C.44198609 .40219117 .42999269 .3781891 .42999269 .3591919 .42999269 .33518983 .44898988 .3271942 .46299745 .3271942 .49299623 .3271942 .5139923 .3531952 .5139923 .380188 .5139923 .4223938 .46598817 .44140626 .42399598 .44140626 .36299134 .44140626 .32899476 .38119508 .31999208 .36219789 .29699708 .4373932 .23498535 .44140626 .21699524 .44140626 .114990238 .44140626 .06098938 .31021119 .06098938 .28822328 .06098938 .28422547 .06498718 .27923585 .07199097 .27923585 .07998657 .27923585 .08198547 .28523255 .083999637 .2892151 .117996219 .40019227 .18499756 .42140199 .21398926 .42140199 .25898744 .42140199 .2679901 .37919618 .2679901 .3551941 .2679901 .33319093 .2619934 .31021119 .25 .26223756L.21598816 .12535095C.20098877 .06535339 .17199707 .010223389 .11898804 .010223389 .11399841 .010223389 .08898926 .010223389 .067993167 .023330689 .10398865 .03036499 .11199951 .06036377 .11199951 .07235718 .11199951 .09236145 .09700012 .10435486 .07798767 .10435486 .053985597 .10435486 .027999878 .083358768 .027999878 .051361085 .027999878 .009231567 .07499695-.009765625 .117996219-.009765625 .1659851-.009765625 .19999695 .028366089 .22099304 .069366458 .23699951 .010223389 .2869873-.009765625 .32398988-.009765625 .42599488-.009765625 .47999574 .12135315 .47999574 .1433258 .47999574 .14833069 .47599793 .15232849 .46998597 .15232849 .46099855 .15232849 .45999146 .14732361 .45700074 .139328 .42999269 .051361085 .37199403 .010223389 .32699586 .010223389 .2919922 .010223389 .272995 .036361696 .272995 .07736206 .272995 .099365238 .2769928 .115356449 .29299928 .18130493L.32798768 .3171997C.34298707 .37719728 .3769989 .42140199 .4229889 .42140199 .4249878 .42140199 .45298768 .42140199 .47399903 .40820313Z"/>
<path id="font_1_8" d="M.2630005-.11172485C.23599243-.14982605 .19699097-.18411255 .147995-.18411255 .13598633-.18411255 .08799744-.18209839 .07299805-.13572693 .07598877-.13671875 .08099365-.13671875 .08299255-.13671875 .11299133-.13671875 .1329956-.11073303 .1329956-.08772278 .1329956-.06472778 .11399841-.056732179 .09899902-.056732179 .08299255-.056732179 .04798889-.068725589 .04798889-.11772156 .04798889-.16899109 .09098816-.20410156 .147995-.20410156 .24798584-.20410156 .34899903-.11172485 .3769989-.00077819827L.47499085 .38868714C.47599793 .39367677 .47799684 .39967347 .47799684 .4056549 .47799684 .4206543 .46598817 .43066407 .45098878 .43066407 .44198609 .43066407 .42099 .426651 .41299439 .39666749L.33898927 .10308838C.33399964 .085113529 .33399964 .08312988 .32598878 .072143558 .30599977 .04423523 .272995 .010223389 .22499085 .010223389 .16899109 .010223389 .1639862 .06524658 .1639862 .09225464 .1639862 .14929199 .19099427 .22631836 .21798706 .2983551 .22898865 .32736207 .23498535 .34136964 .23498535 .3613739 .23498535 .4033966 .20498657 .44140626 .1559906 .44140626 .06399536 .44140626 .026992798 .29634095 .026992798 .28834535 .026992798 .28434754 .0309906 .27934266 .037994386 .27934266 .04699707 .27934266 .04798889 .28334046 .051986696 .29734803 .07598877 .38137818 .11399841 .42140199 .15299988 .42140199 .1619873 .42140199 .1789856 .42140199 .1789856 .38838197 .1789856 .36238099 .16799927 .33335877 .15299988 .29534913 .10398865 .16429138 .10398865 .13127136 .10398865 .10726929 .10398865 .01222229 .17199707-.009765625 .22200012-.009765625 .25099183-.009765625 .2869873-.00077819827 .32199098 .036239625L.32299806 .035232545C.30799867-.023757935 .2979889-.06272888 .2630005-.11172485Z"/>
<path id="font_1_4" d="M.7259979 .43788148C.7259979 .60302737 .6179962 .70410159 .47799684 .70410159 .2639923 .70410159 .04798889 .47392274 .04798889 .24272156 .04798889 .08558655 .1519928-.021484375 .29699708-.021484375 .5069885-.021484375 .7259979 .19767761 .7259979 .43788148M.30299378 .0015106201C.22099304 .0015106201 .13398743 .061553956 .13398743 .21769715 .13398743 .30877687 .16699219 .457901 .24899292 .5579834 .32199098 .6460724 .4059906 .6820984 .47299195 .6820984 .5609894 .6820984 .6459961 .618042 .6459961 .47392274 .6459961 .38484193 .60798647 .24571228 .54100039 .15063477 .46798707 .048553468 .3769989 .0015106201 .30299378 .0015106201Z"/>
<path id="font_1_3" d="M.746994 .6950989C.746994 .70410159 .73999026 .70410159 .73799136 .70410159 .73599246 .70410159 .7319946 .70410159 .723999 .6940918L.6549988 .6100311C.6199951 .6700897 .5649872 .70410159 .48999024 .70410159 .27398683 .70410159 .049987794 .48492433 .049987794 .24972534 .049987794 .08258057 .16699219-.021484375 .31298829-.021484375 .3929901-.021484375 .46299745 .012512207 .5209961 .061553956 .60798647 .13461304 .6339874 .23170471 .6339874 .23971558 .6339874 .24871826 .6259918 .24871826 .6230011 .24871826 .6139984 .24871826 .61299136 .24272156 .61099246 .2387085 .5649872 .08258057 .42999269 .007507324 .32998658 .007507324 .22399903 .007507324 .13198853 .07556152 .13198853 .21769715 .13198853 .24972534 .14199829 .4238739 .25498963 .5549927 .30999757 .6190491 .4039917 .6750946 .49899293 .6750946 .60899356 .6750946 .6579895 .5840149 .6579895 .48191834 .6579895 .4559021 .6549988 .43388368 .6549988 .42988587 .6549988 .42086793 .6649933 .42086793 .66799929 .42086793 .67900088 .42086793 .6799927 .421875 .6839905 .43989564L.746994 .6950989Z"/>
<path id="font_2_1" d="M.32499696-.24298096C.32499696-.23999024 .32499696-.23799134 .30799867-.22097779 .20799256-.11997986 .1519928 .045013429 .1519928 .24900818 .1519928 .44299317 .19898987 .60998538 .31498719 .7279968 .32499696 .7369995 .32499696 .7389984 .32499696 .74198916 .32499696 .74798586 .31999208 .75 .31599427 .75 .30299378 .75 .22099304 .6779938 .17199707 .5799866 .12098694 .47898866 .09799194 .37199403 .09799194 .24900818 .09799194 .16000366 .11199951 .041015626 .1639862-.06599426 .22299195-.18598938 .30499269-.25097657 .31599427-.25097657 .31999208-.25097657 .32499696-.24897766 .32499696-.24298096Z"/>
<path id="font_2_9" d="M.12799073 .5727997C.17098999 .5588074 .20599365 .5578003 .21699524 .5578003 .32998658 .5578003 .4019928 .6409912 .4019928 .6550598 .4019928 .6590576 .3999939 .6640625 .3939972 .6640625 .3919983 .6640625 .3899994 .6640625 .3809967 .66004946 .32499696 .6358795 .2769928 .6328125 .25099183 .6328125 .18499756 .6328125 .13798523 .6530609 .11898804 .6610565 .11199951 .6640625 .10998535 .6640625 .10899353 .6640625 .100997928 .6640625 .100997928 .65805056 .100997928 .64201357V.34495545C.100997928 .32695008 .100997928 .32095338 .11299133 .32095338 .117996219 .32095338 .11898804 .32196046 .1289978 .33395387 .15699768 .37493897 .20399475 .39894105 .2539978 .39894105 .30699159 .39894105 .33299256 .34994508 .34098817 .33294679 .35798646 .29396058 .35899354 .2449646 .35899354 .20697022 .35899354 .16897583 .35899354 .11193848 .33099366 .0667572 .30899049 .03060913 .269989 .005508423 .22599793 .005508423 .1599884 .005508423 .09498596 .050689699 .07699585 .12397766 .08198547 .12197876 .08799744 .12097168 .09298706 .12097168 .10998535 .12097168 .13699341 .13098145 .13699341 .16497803 .13699341 .1929779 .117996219 .20898438 .09298706 .20898438 .07499695 .20898438 .04899597 .19998169 .04899597 .16098023 .04899597 .075790408 .116989139-.021484375 .22799683-.021484375 .34098817-.021484375 .43998719 .073791507 .43998719 .20097351 .43998719 .3199463 .3600006 .4189453 .25498963 .4189453 .19799805 .4189453 .1539917 .39393617 .12799073 .36595155V.5727997Z"/>
<path id="font_1_1" d="M.19499207-.0040130617C.19499207 .053985597 .17599488 .09700012 .1349945 .09700012 .102996829 .09700012 .08699036 .070999149 .08699036 .04899597 .08699036 .026992798 .101989749 0 .13598633 0 .14898682 0 .1599884 .0039978029 .16899109 .0129852299 .17098999 .01499939 .17199707 .01499939 .17298889 .01499939 .1749878 .01499939 .1749878 .0009918213 .1749878-.0040130617 .1749878-.037078859 .16899109-.10221863 .11099243-.1673584 .099990848-.17936707 .099990848-.18136597 .099990848-.18336487 .099990848-.18836975 .10499573-.19335938 .10998535-.19335938 .117996219-.19335938 .19499207-.119262699 .19499207-.0040130617Z"/>
<path id="font_3_1" d="M.6589966 .23046875C.6759949 .23046875 .69400027 .23046875 .69400027 .25045777 .69400027 .27046205 .6759949 .27046205 .6589966 .27046205H.117996219C.100997928 .27046205 .08299255 .27046205 .08299255 .25045777 .08299255 .23046875 .100997928 .23046875 .117996219 .23046875H.6589966Z"/>
<path id="font_2_6" d="M.43998719 .16790772H.41799928C.4149933 .15092469 .40699769 .09597778 .39698792 .07998657 .3899994 .070999149 .33299256 .070999149 .30299378 .070999149H.117996219C.14498902 .09397888 .20599365 .15792847 .23199463 .18190003 .38398744 .3217926 .43998719 .37374879 .43998719 .47270204 .43998719 .5878906 .34899903 .66503909 .23298645 .66503909 .116989139 .66503909 .04899597 .5658264 .04899597 .4797058 .04899597 .42871095 .09298706 .42871095 .09599304 .42871095 .116989139 .42871095 .14299011 .44371034 .14299011 .475708 .14299011 .5037079 .12399292 .5227051 .09599304 .5227051 .08699036 .5227051 .084991458 .5227051 .08198547 .521698 .100997928 .5899048 .15499878 .6360321 .21998596 .6360321 .30499269 .6360321 .35699464 .56481936 .35699464 .47270204 .35699464 .3877411 .30799867 .313797 .25099183 .24984741L.04899597 .023986817V0H.4139862L.43998719 .16790772Z"/>
<path id="font_2_2" d="M.28199769 .24900818C.28199769 .32499696 .27198792 .44898988 .21598816 .5649872 .15699768 .68499758 .07499695 .75 .06399536 .75 .05999756 .75 .054992677 .74798586 .054992677 .74198916 .054992677 .7389984 .054992677 .7369995 .07199097 .71998599 .17199707 .61898806 .22799683 .45399476 .22799683 .25 .22799683 .056015016 .18099976-.11099243 .06498718-.22898865 .054992677-.23799134 .054992677-.23999024 .054992677-.24298096 .054992677-.24897766 .05999756-.25097657 .06399536-.25097657 .07699585-.25097657 .15899658-.1789856 .20799256-.08099365 .25898744 .021011353 .28199769 .12901306 .28199769 .24900818Z"/>
<path id="font_1_5" d="M.29599 .3177948H.46398927C.60198977 .3177948 .73999026 .41973878 .73999026 .53367617 .73999026 .6116333 .673996 .6826172 .5479889 .6826172H.23899842C.21998596 .6826172 .21099854 .6826172 .21099854 .66360476 .21099854 .6536102 .21998596 .6536102 .23498535 .6536102 .29599 .6536102 .29599 .6456146 .29599 .63461306 .29599 .63261416 .29599 .62661746 .2919922 .6116333L.15699768 .07395935C.147995 .038986207 .1459961 .0289917 .07598877 .0289917 .056991579 .0289917 .04699707 .0289917 .04699707 .010986328 .04699707 0 .055999757 0 .06199646 0 .08099365 0 .100997928 .0019989014 .11999512 .0019989014H.23699951C.2559967 .0019989014 .2769928 0 .29599 0 .3039856 0 .31498719 0 .31498719 .018997193 .31498719 .0289917 .30599977 .0289917 .29100038 .0289917 .23098755 .0289917 .22999573 .035980226 .22999573 .04597473 .22999573 .050979616 .23098755 .05796814 .23199463 .06297302L.29599 .3177948M.36799623 .614624C.3769989 .6516113 .3809967 .6536102 .41999818 .6536102H.5189972C.59399417 .6536102 .6559906 .6296234 .6559906 .55467227 .6559906 .5286865 .6429901 .4437256 .5970001 .39775086 .5799866 .37976075 .5319977 .34179688 .44099427 .34179688H.2999878L.36799623 .614624Z"/>
<path id="font_4_1" d="M.31399537 .63708499C.31399537 .664032 .31199647 .66503909 .2849884 .66503909 .24398804 .6251831 .19099427 .6013489 .09599304 .6013489V.5683594C.12298584 .5683594 .1769867 .5683594 .23498535 .5953522V.08203125C.23498535 .04499817 .23199463 .032989503 .13699341 .032989503H.101989749V0C.14299011 .0029907227 .22898865 .0029907227 .27398683 .0029907227 .31900025 .0029907227 .4059906 .0029907227 .44699098 0V.032989503H.4119873C.31698609 .032989503 .31399537 .04499817 .31399537 .08203125V.63708499Z"/>
<path id="font_4_2" d="M.28199769 .20405579C.2979889 .21907044 .33999635 .2520752 .35598756 .26608277 .41799928 .32312013 .47698976 .3781433 .47698976 .46917726 .47698976 .588089 .3769989 .66503909 .2519989 .66503909 .13198853 .66503909 .052993776 .57411196 .052993776 .48516847 .052993776 .4361725 .09199524 .4291687 .10598755 .4291687 .1269989 .4291687 .1579895 .4441681 .1579895 .48217774 .1579895 .5341797 .10798645 .5341797 .09599304 .5341797 .125 .6070709 .19198609 .6320343 .24099732 .6320343 .33399964 .6320343 .38198854 .55314639 .38198854 .46917726 .38198854 .36514283 .30899049 .28910829 .19099427 .16804505L.06498718 .037994386C.052993776 .026992798 .052993776 .024993897 .052993776 0H.44799806L.47698976 .17904663H.44599916C.44299317 .1590271 .43499757 .10900879 .4229889 .08999634 .4169922 .08198547 .34098817 .08198547 .32499696 .08198547H.14698792L.28199769 .20405579Z"/>
<path id="font_2_13" d="M.6749878 .32421876C.68899539 .32421876 .70700076 .32421876 .70700076 .34220887 .70700076 .36120606 .6899872 .36120606 .6749878 .36120606H.085998538C.07199097 .36120606 .053985597 .36120606 .053985597 .34321595 .053985597 .32421876 .070999149 .32421876 .085998538 .32421876H.6749878M.6749878 .13780213C.68899539 .13780213 .70700076 .13780213 .70700076 .15579224 .70700076 .17480469 .6899872 .17480469 .6749878 .17480469H.085998538C.07199097 .17480469 .053985597 .17480469 .053985597 .15679932 .053985597 .13780213 .070999149 .13780213 .085998538 .13780213H.6749878Z"/>
<path id="font_2_7" d="M.18399048 .35888673C.16699219 .35787965 .16299439 .35688783 .16299439 .34788514 .16299439 .33789063 .16799927 .33789063 .18598938 .33789063H.23199463C.31698609 .33789063 .35499574 .267807 .35499574 .17172241 .35499574 .04058838 .2869873 .005508423 .23799134 .005508423 .18998719 .005508423 .10798645 .028564454 .07899475 .09472656 .11099243 .08970642 .13999939 .10771179 .13999939 .14372254 .13999939 .17271424 .11898804 .1927185 .09098816 .1927185 .066986087 .1927185 .040985109 .1787262 .040985109 .14071656 .040985109 .051620485 .12998963-.021484375 .24099732-.021484375 .3600006-.021484375 .44799806 .06965637 .44799806 .17071533 .44799806 .26280213 .37399293 .33488465 .27799989 .35188294 .36499024 .3769226 .42099 .45011903 .42099 .5282135 .42099 .6071167 .33898927 .66503909 .24198914 .66503909 .14199829 .66503909 .067993167 .604126 .067993167 .5312042 .067993167 .49121095 .09899902 .48321534 .11399841 .48321534 .1349945 .48321534 .15899658 .49821473 .15899658 .5282135 .15899658 .5602112 .1349945 .57421877 .11299133 .57421877 .10699463 .57421877 .10499573 .57421877 .101989749 .57321169 .13999939 .641037 .23399353 .641037 .23899842 .641037 .27198792 .641037 .33699037 .6260681 .33699037 .5282135 .33699037 .5092163 .33399964 .453125 .30499269 .41001893 .2749939 .3658905 .24099732 .36288453 .21398926 .36187745L.18399048 .35888673Z"/>
<path id="font_2_5" d="M.28799439 .64105227C.28799439 .664032 .28799439 .66503909 .2679901 .66503909 .24398804 .6380615 .19400025 .6012573 .09098816 .6012573V.5722656C.11399841 .5722656 .1639862 .5722656 .21899414 .59825137V.07701111C.21899414 .041000368 .21598816 .0289917 .12799073 .0289917H.09700012V0C.12399292 .0019989014 .22099304 .0019989014 .2539978 .0019989014 .2869873 .0019989014 .3829956 .0019989014 .4099884 0V.0289917H.3789978C.29100038 .0289917 .28799439 .041000368 .28799439 .07701111V.64105227Z"/>
<path id="font_2_11" d="M.47499085 .62054446V.6435547H.23399353C.11299133 .6435547 .11099243 .6567688 .10699463 .67578127H.084991458L.053985597 .47554017H.07598877C.07899475 .49354554 .08799744 .555542 .100997928 .5665436 .10899353 .5725403 .18399048 .5725403 .19799805 .5725403H.4099884L.3039856 .42053224C.2769928 .38153077 .17599488 .21751404 .17599488 .029510498 .17599488 .018508912 .17599488-.021484375 .21699524-.021484375 .25898744-.021484375 .25898744 .017501831 .25898744 .030517579V.08052063C.25898744 .2295227 .2829895 .34553529 .32998658 .41253663L.47499085 .62054446Z"/>
<path id="font_2_3" d="M.39898683 .23057556H.6749878C.68899539 .23057556 .70700076 .23057556 .70700076 .24856568 .70700076 .26757813 .6899872 .26757813 .6749878 .26757813H.39898683V.5441437C.39898683 .5581665 .39898683 .5761719 .3809967 .5761719 .3619995 .5761719 .3619995 .5591583 .3619995 .5441437V.26757813H.085998538C.07199097 .26757813 .053985597 .26757813 .053985597 .24957276 .053985597 .23057556 .070999149 .23057556 .085998538 .23057556H.3619995V-.045166017C.3619995-.059158327 .3619995-.07714844 .37998963-.07714844 .39898683-.07714844 .39898683-.060150148 .39898683-.045166017V.23057556Z"/>
<path id="font_2_10" d="M.12298584 .34773255C.12298584 .60061648 .24598694 .641037 .2999878 .641037 .33599855 .641037 .37199403 .62991335 .3909912 .5996094 .3789978 .5996094 .34098817 .5996094 .34098817 .558609 .34098817 .53660586 .35598756 .51760867 .38198854 .51760867 .40699769 .51760867 .42399598 .53260806 .42399598 .56159976 .42399598 .6137543 .38598634 .66503909 .29899598 .66503909 .17298889 .66503909 .040985109 .53559878 .040985109 .31570436 .040985109 .040527345 .16099549-.021484375 .24598694-.021484375 .35499574-.021484375 .44799806 .07354736 .44799806 .2036438 .44799806 .33673097 .35499574 .42578126 .25498963 .42578126 .1659851 .42578126 .1329956 .34873963 .12298584 .32070924V.34773255M.24598694 .005508423C.18299866 .005508423 .15299988 .061538698 .14399719 .08256531 .1349945 .10858154 .125 .15760803 .125 .22766114 .125 .30670167 .16099549 .40577699 .25099183 .40577699 .30599977 .40577699 .33499146 .3687439 .34999085 .33473207 .3659973 .29769898 .3659973 .2476654 .3659973 .20463562 .3659973 .15361023 .3659973 .10858154 .34700013 .07055664 .32199098 .022521973 .28599549 .005508423 .24598694 .005508423Z"/>
<path id="font_3_2" d="M.3889923-.8549652 .21299744-.4659729C.20599365-.44996644 .20098877-.44996644 .19799805-.44996644 .19699097-.44996644 .19198609-.44996644 .18099976-.45796205L.085998538-.52996829C.07299805-.53996279 .07299805-.54296877 .07299805-.54597476 .07299805-.55096438 .07598877-.55696108 .08299255-.55696108 .08898926-.55696108 .10598755-.54296877 .116989139-.53497317 .12298584-.52996829 .13798523-.5189667 .14898682-.51097109L.34599305-.9439697C.35299684-.95996096 .35798646-.95996096 .36698915-.95996096 .38198854-.95996096 .3849945-.95396426 .3919983-.9399719L.84599307 .000030517579C.8529968 .014038086 .8529968 .018035889 .8529968 .02003479 .8529968 .030029297 .8450012 .040039064 .83299258 .040039064 .82499697 .040039064 .81799319 .03503418 .80999758 .01902771L.3889923-.8549652Z"/>
<path id="font_2_4" d="M.44799806 .31976319C.44799806 .40283204 .44299317 .48390199 .40699769 .55996707 .3659973 .64302065 .2939911 .66503909 .24499512 .66503909 .18699646 .66503909 .115997318 .63601687 .07899475 .552948 .050994874 .48989869 .040985109 .42785646 .040985109 .31976319 .040985109 .22268677 .04798889 .14962769 .083999637 .078567508 .12298584 .0025177003 .19198609-.021484375 .24398804-.021484375 .33099366-.021484375 .3809967 .030532837 .4099884 .08857727 .44599916 .16363526 .44799806 .26171876 .44799806 .31976319M.24398804-.0014953613C.21199036-.0014953613 .14698792 .016525269 .12799073 .12561035 .116989139 .18565369 .116989139 .26171876 .116989139 .33177186 .116989139 .41384889 .116989139 .48789979 .1329956 .5469513 .1499939 .6139984 .20098877 .6450348 .24398804 .6450348 .28199769 .6450348 .33999635 .6220093 .35899354 .53593447 .37199403 .4788971 .37199403 .39982606 .37199403 .33177186 .37199403 .26472474 .37199403 .18865967 .36099244 .12760926 .34199525 .01751709 .2789917-.0014953613 .24398804-.0014953613Z"/>
<path id="font_2_8" d="M.36099244 .6508026C.36099244 .6697998 .36099244 .6748047 .34700013 .6748047 .33898927 .6748047 .33599855 .6748047 .32798768 .662796L.026992798 .19598389V.16699219H.2899933V.07598877C.2899933 .038986207 .28799439 .0289917 .21499634 .0289917H.19499207V0C.21798706 .0019989014 .29699708 .0019989014 .32499696 .0019989014 .35299684 .0019989014 .43299867 .0019989014 .45599366 0V.0289917H.43598939C.3639984 .0289917 .36099244 .038986207 .36099244 .07598877V.16699219H.46199037V.19598389H.36099244V.6508026M.29499818 .5728302V.19598389H.051986696L.29499818 .5728302Z"/>
</defs>
<path transform="matrix(1,0,0,-1,65.595,156.303)" stroke-width=".79701" stroke-linecap="round" stroke-linejoin="round" fill="none" stroke="#000000" d="M-59.52802 0H234.0018"/>
<path transform="matrix(1,0,0,-1,297.1317,156.303)" d="M5.44046 0 1.28699 1.5706 2.66432 0 1.28699-1.5706Z"/>
<path transform="matrix(1,0,0,-1,297.1317,156.303)" stroke-width=".79701" stroke-linecap="round" stroke-miterlimit="10" stroke-linejoin="miter" fill="none" stroke="#000000" d="M5.44046 0 1.28699 1.5706 2.66432 0 1.28699-1.5706Z"/>
<use data-text="x" xlink:href="#font_1_7" transform="matrix(11.9552,0,0,-11.9552,307.426,158.87699)"/>
<path transform="matrix(1,0,0,-1,65.595,156.303)" stroke-width=".79701" stroke-linecap="round" stroke-linejoin="round" fill="none" stroke="#000000" d="M0-158.74143V114.94571"/>
<path transform="matrix(0,-1,-1,-0,65.595,43.822359)" d="M5.44046 0 1.28699 1.5706 2.66432 0 1.28699-1.5706Z"/>
<path transform="matrix(0,-1,-1,-0,65.595,43.822359)" stroke-width=".79701" stroke-linecap="round" stroke-miterlimit="10" stroke-linejoin="miter" fill="none" stroke="#000000" d="M5.44046 0 1.28699 1.5706 2.66432 0 1.28699-1.5706Z"/>
<use data-text="y" xlink:href="#font_1_8" transform="matrix(11.9552,0,0,-11.9552,62.527,31.202996)"/>
<use data-text="O" xlink:href="#font_1_4" transform="matrix(11.9552,0,0,-11.9552,52.804,167.992)"/>
<path transform="matrix(1,0,0,-1,65.595,156.303)" stroke-width="1.59404" stroke-linecap="round" stroke-linejoin="round" fill="none" stroke="#ff0000" d="M183.40067-39.68607C183.40067 6.80885 145.71015 44.49936 99.21523 44.49936 52.72029 44.49936 15.02979 6.80885 15.02979-39.68607 15.02979-86.181 52.72029-123.8715 99.21523-123.8715 145.71015-123.8715 183.40067-86.181 183.40067-39.68607ZM99.21523-39.68607"/>
<path transform="matrix(1,0,0,-1,65.595,156.303)" d="M100.61-39.68607C100.61-38.91576 99.98553-38.29129 99.21523-38.29129 98.4449-38.29129 97.82043-38.91576 97.82043-39.68607 97.82043-40.45638 98.4449-41.08084 99.21523-41.08084 99.98553-41.08084 100.61-40.45638 100.61-39.68607ZM99.21523-39.68607"/>
<use data-text="C" xlink:href="#font_1_3" transform="matrix(11.9552,0,0,-11.9552,168.33,208.47499)"/>
<use data-text="(" xlink:href="#font_2_1" transform="matrix(11.9552,0,0,-11.9552,177.564,208.47499)"/>
<use data-text="5" xlink:href="#font_2_9" transform="matrix(11.9552,0,0,-11.9552,182.10698,208.47499)"/>
<use data-text="," xlink:href="#font_1_1" transform="matrix(11.9552,0,0,-11.9552,187.969,208.47499)"/>
<use data-text="&#x2212;" xlink:href="#font_3_1" transform="matrix(11.9552,0,0,-11.9552,193.213,208.47499)"/>
<use data-text="2" xlink:href="#font_2_6" transform="matrix(11.9552,0,0,-11.9552,202.512,208.47499)"/>
<use data-text=")" xlink:href="#font_2_2" transform="matrix(11.9552,0,0,-11.9552,208.3581,208.47499)"/>
<path transform="matrix(1,0,0,-1,65.595,156.303)" stroke-width=".79701" stroke-linecap="round" stroke-linejoin="round" fill="none" stroke="#0000ff" d="M-19.84267-130.63784 71.43376 143.19149"/>
<path transform="matrix(1,0,0,-1,65.595,156.303)" stroke-width=".79701" stroke-linecap="round" stroke-linejoin="round" fill="none" stroke="#0000ff" d="M148.82009-157.08101 238.11215 110.79514"/>
<path transform="matrix(1,0,0,-1,65.595,156.303)" d="M20.74396-13.06406C20.74396-12.29375 20.11949-11.66928 19.34918-11.66928 18.57886-11.66928 17.95439-12.29375 17.95439-13.06406 17.95439-13.83437 18.57886-14.45883 19.34918-14.45883 20.11949-14.45883 20.74396-13.83437 20.74396-13.06406ZM19.34918-13.06406"/>
<use data-text="P" xlink:href="#font_1_5" transform="matrix(11.9552,0,0,-11.9552,69.147,173.086)"/>
<use data-text="1" xlink:href="#font_4_1" transform="matrix(7.9701,0,0,-7.9701,76.692,174.879)"/>
<path transform="matrix(1,0,0,-1,65.595,156.303)" d="M180.47603-66.30807C180.47603-65.53777 179.85157-64.91328 179.08124-64.91328 178.31093-64.91328 177.68647-65.53777 177.68647-66.30807 177.68647-67.07838 178.31093-67.70285 179.08124-67.70285 179.85157-67.70285 180.47603-67.07838 180.47603-66.30807ZM179.08124-66.30807"/>
<use data-text="P" xlink:href="#font_1_5" transform="matrix(11.9552,0,0,-11.9552,248.196,226.32999)"/>
<use data-text="2" xlink:href="#font_4_2" transform="matrix(7.9701,0,0,-7.9701,255.741,228.12299)"/>
<use data-text="y" xlink:href="#font_1_8" transform="matrix(3.7803539,-11.341301,-11.341301,-3.7803539,100.30677,105.12224)" fill="#0000ff"/>
<use data-text="=" xlink:href="#font_2_13" transform="matrix(3.7803539,-11.341301,-11.341301,-3.7803539,103.29748,96.1499)" fill="#0000ff"/>
<use data-text="3" xlink:href="#font_2_7" transform="matrix(3.7803539,-11.341301,-11.341301,-3.7803539,107.22149,84.37763)" fill="#0000ff"/>
<use data-text="x" xlink:href="#font_1_7" transform="matrix(3.7803539,-11.341301,-11.341301,-3.7803539,109.07717,78.81048)" fill="#0000ff"/>
<use data-text="&#x2212;" xlink:href="#font_3_1" transform="matrix(3.7803539,-11.341301,-11.341301,-3.7803539,112.02077,69.97949)" fill="#0000ff"/>
<use data-text="1" xlink:href="#font_2_5" transform="matrix(3.7803539,-11.341301,-11.341301,-3.7803539,115.801059,58.638383)" fill="#0000ff"/>
<use data-text="7" xlink:href="#font_2_11" transform="matrix(3.7803539,-11.341301,-11.341301,-3.7803539,117.64965,53.092485)" fill="#0000ff"/>
<use data-text="+" xlink:href="#font_2_3" transform="matrix(3.7803539,-11.341301,-11.341301,-3.7803539,120.33748,45.028825)" fill="#0000ff"/>
<use data-text="6" xlink:href="#font_2_10" transform="matrix(3.7803539,-11.341301,-11.341301,-3.7803539,124.053569,33.880327)" fill="#0000ff"/>
<use data-text="&#x221a;" xlink:href="#font_3_2" transform="matrix(3.7803539,-11.341301,-11.341301,-3.7803539,116.530368,25.176087)" fill="#0000ff"/>
<path transform="matrix(.31621,-.94865,-.94865,-.31621,22.359002,72.38899)" stroke-width=".4782" stroke-linecap="butt" stroke-linejoin="round" fill="none" stroke="#0000ff" d="M84.535-74.173H90.388"/>
<use data-text="5" xlink:href="#font_2_9" transform="matrix(3.7803539,-11.341301,-11.341301,-3.7803539,129.0629,18.851998)" fill="#0000ff"/>
<use data-text="y" xlink:href="#font_1_8" transform="matrix(3.7803539,-11.341301,-11.341301,-3.7803539,266.95478,134.97824)" fill="#0000ff"/>
<use data-text="=" xlink:href="#font_2_13" transform="matrix(3.7803539,-11.341301,-11.341301,-3.7803539,269.9455,126.005908)" fill="#0000ff"/>
<use data-text="3" xlink:href="#font_2_7" transform="matrix(3.7803539,-11.341301,-11.341301,-3.7803539,273.8695,114.233638)" fill="#0000ff"/>
<use data-text="x" xlink:href="#font_1_7" transform="matrix(3.7803539,-11.341301,-11.341301,-3.7803539,275.72517,108.66648)" fill="#0000ff"/>
<use data-text="&#x2212;" xlink:href="#font_3_1" transform="matrix(3.7803539,-11.341301,-11.341301,-3.7803539,278.66877,99.835498)" fill="#0000ff"/>
<use data-text="1" xlink:href="#font_2_5" transform="matrix(3.7803539,-11.341301,-11.341301,-3.7803539,282.44908,88.494388)" fill="#0000ff"/>
<use data-text="7" xlink:href="#font_2_11" transform="matrix(3.7803539,-11.341301,-11.341301,-3.7803539,284.29768,82.94849)" fill="#0000ff"/>
<use data-text="&#x2212;" xlink:href="#font_3_1" transform="matrix(3.7803539,-11.341301,-11.341301,-3.7803539,286.99079,74.86893)" fill="#0000ff"/>
<use data-text="6" xlink:href="#font_2_10" transform="matrix(3.7803539,-11.341301,-11.341301,-3.7803539,290.77107,63.527814)" fill="#0000ff"/>
<use data-text="&#x221a;" xlink:href="#font_3_2" transform="matrix(3.7803539,-11.341301,-11.341301,-3.7803539,283.23973,54.84805)" fill="#0000ff"/>
<path transform="matrix(.31621,-.94865,-.94865,-.31621,189.007,102.244998)" stroke-width=".4782" stroke-linecap="butt" stroke-linejoin="round" fill="none" stroke="#0000ff" d="M84.728-74.173H90.581"/>
<use data-text="5" xlink:href="#font_2_9" transform="matrix(3.7803539,-11.341301,-11.341301,-3.7803539,295.77195,48.524919)" fill="#0000ff"/>
<use data-text="x" xlink:href="#font_1_7" transform="matrix(11.9552,0,0,-11.9552,73.079,292.82398)" fill="#ff0000"/>
<use data-text="2" xlink:href="#font_4_2" transform="matrix(7.9701,0,0,-7.9701,79.731,288.485)" fill="#ff0000"/>
<use data-text="+" xlink:href="#font_2_3" transform="matrix(11.9552,0,0,-11.9552,87.12,292.82398)" fill="#ff0000"/>
<use data-text="y" xlink:href="#font_1_8" transform="matrix(11.9552,0,0,-11.9552,98.881,292.82398)" fill="#ff0000"/>
<use data-text="2" xlink:href="#font_4_2" transform="matrix(7.9701,0,0,-7.9701,105.018009,288.485)" fill="#ff0000"/>
<use data-text="&#x2212;" xlink:href="#font_3_1" transform="matrix(11.9552,0,0,-11.9552,112.407,292.82398)" fill="#ff0000"/>
<use data-text="1" xlink:href="#font_2_5" transform="matrix(11.9552,0,0,-11.9552,124.362,292.82398)" fill="#ff0000"/>
<use data-text="0" xlink:href="#font_2_4" transform="matrix(11.9552,0,0,-11.9552,130.2081,292.82398)" fill="#ff0000"/>
<use data-text="x" xlink:href="#font_1_7" transform="matrix(11.9552,0,0,-11.9552,136.068,292.82398)" fill="#ff0000"/>
<use data-text="+" xlink:href="#font_2_3" transform="matrix(11.9552,0,0,-11.9552,145.377,292.82398)" fill="#ff0000"/>
<use data-text="4" xlink:href="#font_2_8" transform="matrix(11.9552,0,0,-11.9552,157.12897,292.82398)" fill="#ff0000"/>
<use data-text="y" xlink:href="#font_1_8" transform="matrix(11.9552,0,0,-11.9552,162.991,292.82398)" fill="#ff0000"/>
<use data-text="+" xlink:href="#font_2_3" transform="matrix(11.9552,0,0,-11.9552,171.785,292.82398)" fill="#ff0000"/>
<use data-text="1" xlink:href="#font_2_5" transform="matrix(11.9552,0,0,-11.9552,183.53696,292.82398)" fill="#ff0000"/>
<use data-text="1" xlink:href="#font_2_5" transform="matrix(11.9552,0,0,-11.9552,189.38306,292.82398)" fill="#ff0000"/>
<use data-text="=" xlink:href="#font_2_13" transform="matrix(11.9552,0,0,-11.9552,198.54074,292.82398)" fill="#ff0000"/>
<use data-text="0" xlink:href="#font_2_4" transform="matrix(11.9552,0,0,-11.9552,210.96219,292.82398)" fill="#ff0000"/>
</svg>
