<svg style="overflow: visible;" xmlns="http://www.w3.org/2000/svg" xmlns:xlink="http://www.w3.org/1999/xlink" xmlns:inkscape="http://www.inkscape.org/namespaces/inkscape" version="1.1" width="100%" height="100%" viewBox="0 0 280.55 264.36">
<defs>
<path id="font_1_7" d="M.47399903 .40820313C.44198609 .40219117 .42999269 .3781891 .42999269 .3591919 .42999269 .33518983 .44898988 .3271942 .46299745 .3271942 .49299623 .3271942 .5139923 .3531952 .5139923 .380188 .5139923 .4223938 .46598817 .44140626 .42399598 .44140626 .36299134 .44140626 .32899476 .38119508 .31999208 .36219789 .29699708 .4373932 .23498535 .44140626 .21699524 .44140626 .114990238 .44140626 .06098938 .31021119 .06098938 .28822328 .06098938 .28422547 .06498718 .27923585 .07199097 .27923585 .07998657 .27923585 .08198547 .28523255 .083999637 .2892151 .117996219 .40019227 .18499756 .42140199 .21398926 .42140199 .25898744 .42140199 .2679901 .37919618 .2679901 .3551941 .2679901 .33319093 .2619934 .31021119 .25 .26223756L.21598816 .12535095C.20098877 .06535339 .17199707 .010223389 .11898804 .010223389 .11399841 .010223389 .08898926 .010223389 .067993167 .023330689 .10398865 .03036499 .11199951 .06036377 .11199951 .07235718 .11199951 .09236145 .09700012 .10435486 .07798767 .10435486 .053985597 .10435486 .027999878 .083358768 .027999878 .051361085 .027999878 .009231567 .07499695-.009765625 .117996219-.009765625 .1659851-.009765625 .19999695 .028366089 .22099304 .069366458 .23699951 .010223389 .2869873-.009765625 .32398988-.009765625 .42599488-.009765625 .47999574 .12135315 .47999574 .1433258 .47999574 .14833069 .47599793 .15232849 .46998597 .15232849 .46099855 .15232849 .45999146 .14732361 .45700074 .139328 .42999269 .051361085 .37199403 .010223389 .32699586 .010223389 .2919922 .010223389 .272995 .036361696 .272995 .07736206 .272995 .099365238 .2769928 .115356449 .29299928 .18130493L.32798768 .3171997C.34298707 .37719728 .3769989 .42140199 .4229889 .42140199 .4249878 .42140199 .45298768 .42140199 .47399903 .40820313Z"/>
<path id="font_1_8" d="M.2630005-.11172485C.23599243-.14982605 .19699097-.18411255 .147995-.18411255 .13598633-.18411255 .08799744-.18209839 .07299805-.13572693 .07598877-.13671875 .08099365-.13671875 .08299255-.13671875 .11299133-.13671875 .1329956-.11073303 .1329956-.08772278 .1329956-.06472778 .11399841-.056732179 .09899902-.056732179 .08299255-.056732179 .04798889-.068725589 .04798889-.11772156 .04798889-.16899109 .09098816-.20410156 .147995-.20410156 .24798584-.20410156 .34899903-.11172485 .3769989-.00077819827L.47499085 .38868714C.47599793 .39367677 .47799684 .39967347 .47799684 .4056549 .47799684 .4206543 .46598817 .43066407 .45098878 .43066407 .44198609 .43066407 .42099 .426651 .41299439 .39666749L.33898927 .10308838C.33399964 .085113529 .33399964 .08312988 .32598878 .072143558 .30599977 .04423523 .272995 .010223389 .22499085 .010223389 .16899109 .010223389 .1639862 .06524658 .1639862 .09225464 .1639862 .14929199 .19099427 .22631836 .21798706 .2983551 .22898865 .32736207 .23498535 .34136964 .23498535 .3613739 .23498535 .4033966 .20498657 .44140626 .1559906 .44140626 .06399536 .44140626 .026992798 .29634095 .026992798 .28834535 .026992798 .28434754 .0309906 .27934266 .037994386 .27934266 .04699707 .27934266 .04798889 .28334046 .051986696 .29734803 .07598877 .38137818 .11399841 .42140199 .15299988 .42140199 .1619873 .42140199 .1789856 .42140199 .1789856 .38838197 .1789856 .36238099 .16799927 .33335877 .15299988 .29534913 .10398865 .16429138 .10398865 .13127136 .10398865 .10726929 .10398865 .01222229 .17199707-.009765625 .22200012-.009765625 .25099183-.009765625 .2869873-.00077819827 .32199098 .036239625L.32299806 .035232545C.30799867-.023757935 .2979889-.06272888 .2630005-.11172485Z"/>
<path id="font_1_4" d="M.7259979 .43788148C.7259979 .60302737 .6179962 .70410159 .47799684 .70410159 .2639923 .70410159 .04798889 .47392274 .04798889 .24272156 .04798889 .08558655 .1519928-.021484375 .29699708-.021484375 .5069885-.021484375 .7259979 .19767761 .7259979 .43788148M.30299378 .0015106201C.22099304 .0015106201 .13398743 .061553956 .13398743 .21769715 .13398743 .30877687 .16699219 .457901 .24899292 .5579834 .32199098 .6460724 .4059906 .6820984 .47299195 .6820984 .5609894 .6820984 .6459961 .618042 .6459961 .47392274 .6459961 .38484193 .60798647 .24571228 .54100039 .15063477 .46798707 .048553468 .3769989 .0015106201 .30299378 .0015106201Z"/>
<path id="font_1_2" d="M.16999817 .1111145C.1349945 .05203247 .100997928 .03199768 .052993776 .0289917 .041992189 .027999878 .033996583 .027999878 .033996583 .009994507 .033996583 .0039978029 .038986207 0 .04598999 0 .06399536 0 .10899353 .0019989014 .1269989 .0019989014 .1559906 .0019989014 .18798828 0 .21598816 0 .22200012 0 .23399353 0 .23399353 .018997193 .23399353 .027999878 .22599793 .0289917 .21998596 .0289917 .19699097 .0309906 .17799378 .039001466 .17799378 .06304932 .17799378 .07707214 .18399048 .08808899 .19699097 .11012268L.272995 .23632813H.5279999C.5289917 .22731018 .5289917 .21929932 .5299988 .21028137 .5329895 .18423462 .54499819 .080078128 .54499819 .061050416 .54499819 .0309906 .49398805 .0289917 .47799684 .0289917 .46699525 .0289917 .45599366 .0289917 .45599366 .010986328 .45599366 0 .46499635 0 .47099305 0 .48799134 0 .5079956 .0019989014 .5249939 .0019989014H.58200076C.6429901 .0019989014 .68699648 0 .6879883 0 .69499209 0 .70599368 0 .70599368 .018997193 .70599368 .0289917 .69699099 .0289917 .6819916 .0289917 .6269989 .0289917 .6259918 .038009645 .6230011 .0680542L.56199648 .691864C.55999758 .711853 .55599978 .7138672 .54499819 .7138672 .5349884 .7138672 .5289917 .711853 .519989 .69685366L.16999817 .1111145M.2899933 .26531983 .4909973 .6009674 .5249939 .26531983H.2899933Z"/>
<path id="font_1_5" d="M.29599 .3177948H.46398927C.60198977 .3177948 .73999026 .41973878 .73999026 .53367617 .73999026 .6116333 .673996 .6826172 .5479889 .6826172H.23899842C.21998596 .6826172 .21099854 .6826172 .21099854 .66360476 .21099854 .6536102 .21998596 .6536102 .23498535 .6536102 .29599 .6536102 .29599 .6456146 .29599 .63461306 .29599 .63261416 .29599 .62661746 .2919922 .6116333L.15699768 .07395935C.147995 .038986207 .1459961 .0289917 .07598877 .0289917 .056991579 .0289917 .04699707 .0289917 .04699707 .010986328 .04699707 0 .055999757 0 .06199646 0 .08099365 0 .100997928 .0019989014 .11999512 .0019989014H.23699951C.2559967 .0019989014 .2769928 0 .29599 0 .3039856 0 .31498719 0 .31498719 .018997193 .31498719 .0289917 .30599977 .0289917 .29100038 .0289917 .23098755 .0289917 .22999573 .035980226 .22999573 .04597473 .22999573 .050979616 .23098755 .05796814 .23199463 .06297302L.29599 .3177948M.36799623 .614624C.3769989 .6516113 .3809967 .6536102 .41999818 .6536102H.5189972C.59399417 .6536102 .6559906 .6296234 .6559906 .55467227 .6559906 .5286865 .6429901 .4437256 .5970001 .39775086 .5799866 .37976075 .5319977 .34179688 .44099427 .34179688H.2999878L.36799623 .614624Z"/>
<path id="font_1_6" d="M.2539978 .6693268C.25498963 .6733246 .25698854 .6793213 .25698854 .6843262 .25698854 .69433596 .24699402 .69433596 .24499512 .69433596 .24398804 .69433596 .20799256 .69132998 .18998719 .68933108 .17298889 .688324 .1579895 .6863251 .13999939 .68533328 .115997318 .68333438 .10899353 .6823273 .10899353 .6643219 .10899353 .6543274 .11898804 .6543274 .1289978 .6543274 .17999268 .6543274 .17999268 .6453247 .17999268 .63531497 .17999268 .63131716 .17999268 .62931826 .1749878 .61131289L.050994874 .115249637C.04798889 .10424805 .04598999 .09623718 .04598999 .08023071 .04598999 .030227662 .08299255-.009765625 .13398743-.009765625 .16699219-.009765625 .18899536 .01222229 .20498657 .04322815 .22200012 .07623291 .23599243 .13925171 .23599243 .14324951 .23599243 .1482544 .23199463 .1522522 .22599793 .1522522 .21699524 .1522522 .21598816 .14724732 .21199036 .13224793 .19400025 .06323242 .17599488 .010223389 .13598633 .010223389 .10598755 .010223389 .10598755 .042236329 .10598755 .056228639 .10598755 .0602417 .10598755 .08123779 .11299133 .10923767L.2539978 .6693268Z"/>
<path id="font_2_13" d="M.6749878 .32421876C.68899539 .32421876 .70700076 .32421876 .70700076 .34220887 .70700076 .36120606 .6899872 .36120606 .6749878 .36120606H.085998538C.07199097 .36120606 .053985597 .36120606 .053985597 .34321595 .053985597 .32421876 .070999149 .32421876 .085998538 .32421876H.6749878M.6749878 .13780213C.68899539 .13780213 .70700076 .13780213 .70700076 .15579224 .70700076 .17480469 .6899872 .17480469 .6749878 .17480469H.085998538C.07199097 .17480469 .053985597 .17480469 .053985597 .15679932 .053985597 .13780213 .070999149 .13780213 .085998538 .13780213H.6749878Z"/>
<path id="font_2_6" d="M.43998719 .16790772H.41799928C.4149933 .15092469 .40699769 .09597778 .39698792 .07998657 .3899994 .070999149 .33299256 .070999149 .30299378 .070999149H.117996219C.14498902 .09397888 .20599365 .15792847 .23199463 .18190003 .38398744 .3217926 .43998719 .37374879 .43998719 .47270204 .43998719 .5878906 .34899903 .66503909 .23298645 .66503909 .116989139 .66503909 .04899597 .5658264 .04899597 .4797058 .04899597 .42871095 .09298706 .42871095 .09599304 .42871095 .116989139 .42871095 .14299011 .44371034 .14299011 .475708 .14299011 .5037079 .12399292 .5227051 .09599304 .5227051 .08699036 .5227051 .084991458 .5227051 .08198547 .521698 .100997928 .5899048 .15499878 .6360321 .21998596 .6360321 .30499269 .6360321 .35699464 .56481936 .35699464 .47270204 .35699464 .3877411 .30799867 .313797 .25099183 .24984741L.04899597 .023986817V0H.4139862L.43998719 .16790772Z"/>
<path id="font_2_3" d="M.39898683 .23057556H.6749878C.68899539 .23057556 .70700076 .23057556 .70700076 .24856568 .70700076 .26757813 .6899872 .26757813 .6749878 .26757813H.39898683V.5441437C.39898683 .5581665 .39898683 .5761719 .3809967 .5761719 .3619995 .5761719 .3619995 .5591583 .3619995 .5441437V.26757813H.085998538C.07199097 .26757813 .053985597 .26757813 .053985597 .24957276 .053985597 .23057556 .070999149 .23057556 .085998538 .23057556H.3619995V-.045166017C.3619995-.059158327 .3619995-.07714844 .37998963-.07714844 .39898683-.07714844 .39898683-.060150148 .39898683-.045166017V.23057556Z"/>
<path id="font_2_5" d="M.28799439 .64105227C.28799439 .664032 .28799439 .66503909 .2679901 .66503909 .24398804 .6380615 .19400025 .6012573 .09098816 .6012573V.5722656C.11399841 .5722656 .1639862 .5722656 .21899414 .59825137V.07701111C.21899414 .041000368 .21598816 .0289917 .12799073 .0289917H.09700012V0C.12399292 .0019989014 .22099304 .0019989014 .2539978 .0019989014 .2869873 .0019989014 .3829956 .0019989014 .4099884 0V.0289917H.3789978C.29100038 .0289917 .28799439 .041000368 .28799439 .07701111V.64105227Z"/>
<path id="font_2_11" d="M.47499085 .62054446V.6435547H.23399353C.11299133 .6435547 .11099243 .6567688 .10699463 .67578127H.084991458L.053985597 .47554017H.07598877C.07899475 .49354554 .08799744 .555542 .100997928 .5665436 .10899353 .5725403 .18399048 .5725403 .19799805 .5725403H.4099884L.3039856 .42053224C.2769928 .38153077 .17599488 .21751404 .17599488 .029510498 .17599488 .018508912 .17599488-.021484375 .21699524-.021484375 .25898744-.021484375 .25898744 .017501831 .25898744 .030517579V.08052063C.25898744 .2295227 .2829895 .34553529 .32998658 .41253663L.47499085 .62054446Z"/>
<path id="font_2_1" d="M.32499696-.24298096C.32499696-.23999024 .32499696-.23799134 .30799867-.22097779 .20799256-.11997986 .1519928 .045013429 .1519928 .24900818 .1519928 .44299317 .19898987 .60998538 .31498719 .7279968 .32499696 .7369995 .32499696 .7389984 .32499696 .74198916 .32499696 .74798586 .31999208 .75 .31599427 .75 .30299378 .75 .22099304 .6779938 .17199707 .5799866 .12098694 .47898866 .09799194 .37199403 .09799194 .24900818 .09799194 .16000366 .11199951 .041015626 .1639862-.06599426 .22299195-.18598938 .30499269-.25097657 .31599427-.25097657 .31999208-.25097657 .32499696-.24897766 .32499696-.24298096Z"/>
<path id="font_3_1" d="M.6589966 .23046875C.6759949 .23046875 .69400027 .23046875 .69400027 .25045777 .69400027 .27046205 .6759949 .27046205 .6589966 .27046205H.117996219C.100997928 .27046205 .08299255 .27046205 .08299255 .25045777 .08299255 .23046875 .100997928 .23046875 .117996219 .23046875H.6589966Z"/>
<path id="font_2_2" d="M.28199769 .24900818C.28199769 .32499696 .27198792 .44898988 .21598816 .5649872 .15699768 .68499758 .07499695 .75 .06399536 .75 .05999756 .75 .054992677 .74798586 .054992677 .74198916 .054992677 .7389984 .054992677 .7369995 .07199097 .71998599 .17199707 .61898806 .22799683 .45399476 .22799683 .25 .22799683 .056015016 .18099976-.11099243 .06498718-.22898865 .054992677-.23799134 .054992677-.23999024 .054992677-.24298096 .054992677-.24897766 .05999756-.25097657 .06399536-.25097657 .07699585-.25097657 .15899658-.1789856 .20799256-.08099365 .25898744 .021011353 .28199769 .12901306 .28199769 .24900818Z"/>
<path id="font_4_2" d="M.28199769 .20405579C.2979889 .21907044 .33999635 .2520752 .35598756 .26608277 .41799928 .32312013 .47698976 .3781433 .47698976 .46917726 .47698976 .588089 .3769989 .66503909 .2519989 .66503909 .13198853 .66503909 .052993776 .57411196 .052993776 .48516847 .052993776 .4361725 .09199524 .4291687 .10598755 .4291687 .1269989 .4291687 .1579895 .4441681 .1579895 .48217774 .1579895 .5341797 .10798645 .5341797 .09599304 .5341797 .125 .6070709 .19198609 .6320343 .24099732 .6320343 .33399964 .6320343 .38198854 .55314639 .38198854 .46917726 .38198854 .36514283 .30899049 .28910829 .19099427 .16804505L.06498718 .037994386C.052993776 .026992798 .052993776 .024993897 .052993776 0H.44799806L.47698976 .17904663H.44599916C.44299317 .1590271 .43499757 .10900879 .4229889 .08999634 .4169922 .08198547 .34098817 .08198547 .32499696 .08198547H.14698792L.28199769 .20405579Z"/>
<path id="font_2_9" d="M.12799073 .5727997C.17098999 .5588074 .20599365 .5578003 .21699524 .5578003 .32998658 .5578003 .4019928 .6409912 .4019928 .6550598 .4019928 .6590576 .3999939 .6640625 .3939972 .6640625 .3919983 .6640625 .3899994 .6640625 .3809967 .66004946 .32499696 .6358795 .2769928 .6328125 .25099183 .6328125 .18499756 .6328125 .13798523 .6530609 .11898804 .6610565 .11199951 .6640625 .10998535 .6640625 .10899353 .6640625 .100997928 .6640625 .100997928 .65805056 .100997928 .64201357V.34495545C.100997928 .32695008 .100997928 .32095338 .11299133 .32095338 .117996219 .32095338 .11898804 .32196046 .1289978 .33395387 .15699768 .37493897 .20399475 .39894105 .2539978 .39894105 .30699159 .39894105 .33299256 .34994508 .34098817 .33294679 .35798646 .29396058 .35899354 .2449646 .35899354 .20697022 .35899354 .16897583 .35899354 .11193848 .33099366 .0667572 .30899049 .03060913 .269989 .005508423 .22599793 .005508423 .1599884 .005508423 .09498596 .050689699 .07699585 .12397766 .08198547 .12197876 .08799744 .12097168 .09298706 .12097168 .10998535 .12097168 .13699341 .13098145 .13699341 .16497803 .13699341 .1929779 .117996219 .20898438 .09298706 .20898438 .07499695 .20898438 .04899597 .19998169 .04899597 .16098023 .04899597 .075790408 .116989139-.021484375 .22799683-.021484375 .34098817-.021484375 .43998719 .073791507 .43998719 .20097351 .43998719 .3199463 .3600006 .4189453 .25498963 .4189453 .19799805 .4189453 .1539917 .39393617 .12799073 .36595155V.5727997Z"/>
<path id="font_2_4" d="M.44799806 .31976319C.44799806 .40283204 .44299317 .48390199 .40699769 .55996707 .3659973 .64302065 .2939911 .66503909 .24499512 .66503909 .18699646 .66503909 .115997318 .63601687 .07899475 .552948 .050994874 .48989869 .040985109 .42785646 .040985109 .31976319 .040985109 .22268677 .04798889 .14962769 .083999637 .078567508 .12298584 .0025177003 .19198609-.021484375 .24398804-.021484375 .33099366-.021484375 .3809967 .030532837 .4099884 .08857727 .44599916 .16363526 .44799806 .26171876 .44799806 .31976319M.24398804-.0014953613C.21199036-.0014953613 .14698792 .016525269 .12799073 .12561035 .116989139 .18565369 .116989139 .26171876 .116989139 .33177186 .116989139 .41384889 .116989139 .48789979 .1329956 .5469513 .1499939 .6139984 .20098877 .6450348 .24398804 .6450348 .28199769 .6450348 .33999635 .6220093 .35899354 .53593447 .37199403 .4788971 .37199403 .39982606 .37199403 .33177186 .37199403 .26472474 .37199403 .18865967 .36099244 .12760926 .34199525 .01751709 .2789917-.0014953613 .24398804-.0014953613Z"/>
<path id="font_1_3" d="M.746994 .6950989C.746994 .70410159 .73999026 .70410159 .73799136 .70410159 .73599246 .70410159 .7319946 .70410159 .723999 .6940918L.6549988 .6100311C.6199951 .6700897 .5649872 .70410159 .48999024 .70410159 .27398683 .70410159 .049987794 .48492433 .049987794 .24972534 .049987794 .08258057 .16699219-.021484375 .31298829-.021484375 .3929901-.021484375 .46299745 .012512207 .5209961 .061553956 .60798647 .13461304 .6339874 .23170471 .6339874 .23971558 .6339874 .24871826 .6259918 .24871826 .6230011 .24871826 .6139984 .24871826 .61299136 .24272156 .61099246 .2387085 .5649872 .08258057 .42999269 .007507324 .32998658 .007507324 .22399903 .007507324 .13198853 .07556152 .13198853 .21769715 .13198853 .24972534 .14199829 .4238739 .25498963 .5549927 .30999757 .6190491 .4039917 .6750946 .49899293 .6750946 .60899356 .6750946 .6579895 .5840149 .6579895 .48191834 .6579895 .4559021 .6549988 .43388368 .6549988 .42988587 .6549988 .42086793 .6649933 .42086793 .66799929 .42086793 .67900088 .42086793 .6799927 .421875 .6839905 .43989564L.746994 .6950989Z"/>
</defs>
<path transform="matrix(1,0,0,-1,40.084,224.27599)" stroke-width=".79701" stroke-linecap="round" stroke-linejoin="round" fill="none" stroke="#000000" d="M-34.0165 0H216.997"/>
<path transform="matrix(1,0,0,-1,254.61592,224.27599)" d="M5.44046 0 1.28699 1.5706 2.66432 0 1.28699-1.5706Z"/>
<path transform="matrix(1,0,0,-1,254.61592,224.27599)" stroke-width=".79701" stroke-linecap="round" stroke-miterlimit="10" stroke-linejoin="miter" fill="none" stroke="#000000" d="M5.44046 0 1.28699 1.5706 2.66432 0 1.28699-1.5706Z"/>
<use data-text="x" xlink:href="#font_1_7" transform="matrix(11.9552,0,0,-11.9552,264.90998,226.84998)"/>
<path transform="matrix(1,0,0,-1,40.084,224.27599)" stroke-width=".79701" stroke-linecap="round" stroke-linejoin="round" fill="none" stroke="#000000" d="M0-34.0165V199.98874"/>
<path transform="matrix(0,-1,-1,-0,40.084,26.75232)" d="M5.44046 0 1.28699 1.5706 2.66432 0 1.28699-1.5706Z"/>
<path transform="matrix(0,-1,-1,-0,40.084,26.75232)" stroke-width=".79701" stroke-linecap="round" stroke-miterlimit="10" stroke-linejoin="miter" fill="none" stroke="#000000" d="M5.44046 0 1.28699 1.5706 2.66432 0 1.28699-1.5706Z"/>
<use data-text="y" xlink:href="#font_1_8" transform="matrix(11.9552,0,0,-11.9552,37.016,14.13298)"/>
<use data-text="O" xlink:href="#font_1_4" transform="matrix(11.9552,0,0,-11.9552,27.293,235.965)"/>
<path transform="matrix(1,0,0,-1,40.084,224.27599)" stroke-width="1.59404" stroke-linecap="round" stroke-linejoin="round" fill="none" stroke="#ff0000" d="M195.12754 85.04628C195.12754 127.0551 161.07364 161.10901 119.0648 161.10901 77.05598 161.10901 43.00208 127.0551 43.00208 85.04628 43.00208 43.03745 77.05598 8.98354 119.0648 8.98354 161.07364 8.98354 195.12754 43.03745 195.12754 85.04628ZM119.0648 85.04628"/>
<path transform="matrix(1,0,0,-1,40.084,224.27599)" d="M120.26035 85.04628C120.26035 85.70656 119.72508 86.24182 119.0648 86.24182 118.40453 86.24182 117.86926 85.70656 117.86926 85.04628 117.86926 84.38599 118.40453 83.85072 119.0648 83.85072 119.72508 83.85072 120.26035 84.38599 120.26035 85.04628ZM119.0648 85.04628"/>
<use data-text="A" xlink:href="#font_1_2" transform="matrix(11.9552,0,0,-11.9552,162.66899,135.70999)"/>
<path transform="matrix(1,0,0,-1,40.084,224.27599)" d="M52.2233 119.0648C52.2233 119.72508 51.68803 120.26035 51.02776 120.26035 50.36748 120.26035 49.83221 119.72508 49.83221 119.0648 49.83221 118.40453 50.36748 117.86926 51.02776 117.86926 51.68803 117.86926 52.2233 118.40453 52.2233 119.0648ZM51.02776 119.0648"/>
<use data-text="P" xlink:href="#font_1_5" transform="matrix(11.9552,0,0,-11.9552,84.534,98.70299)"/>
<path transform="matrix(1,0,0,-1,40.084,224.27599)" stroke-width=".79701" stroke-linecap="round" stroke-linejoin="round" fill="none" stroke="#0000ff" d="M-8.50412 0 88.44289 193.89405"/>
<use data-text="l" xlink:href="#font_1_6" transform="matrix(11.9552,0,0,-11.9552,132.246,26.66298)" fill="#0000ff"/>
<path transform="matrix(1,0,0,-1,40.084,224.27599)" stroke-width=".79701" stroke-linecap="round" stroke-linejoin="round" fill="none" stroke="#0000ff" d="M17.00824 136.06606C17.00824 136.06606 22.64043 133.24983 24.8036 132.16825 26.9668 131.08666 30.43578 129.35228 32.59898 128.27068 34.76216 127.18909 38.23116 125.45447 40.39433 124.37288 42.55753 123.29129 46.02652 121.55692 48.1897 120.47533 50.35287 119.39374 53.82188 117.6591 55.98506 116.57751 58.14825 115.49591 61.61725 113.76155 63.78044 112.67995 65.94362 111.59836 69.41263 109.86374 71.5758 108.78214 73.73898 107.70055 77.20798 105.96617 79.37117 104.88458 81.53435 103.803 85.00334 102.06837 87.16652 100.98679 89.32971 99.9052 92.7987 98.1708 94.96188 97.08922 97.12508 96.00763 100.59407 94.273 102.75726 93.1914 104.92044 92.10982 108.38945 90.37544 110.55263 89.29385 112.7158 88.21227 116.1848 86.47763 118.34799 85.39604 120.51117 84.31445 123.98016 82.5801 126.14334 81.4985 128.30655 80.4169 131.77553 78.68227 133.93872 77.60068 136.10192 76.51909 139.57089 74.78473 141.73409 73.70313 143.89727 72.62154 147.36627 70.8869 149.52945 69.80531 151.69263 68.72371 155.16165 66.98935 157.32483 65.90776 159.488 64.82617 162.957 63.09155 165.1202 62.00995 167.28337 60.92834 170.75237 59.19398 172.91555 58.1124 175.07874 57.0308 178.54773 55.29617 180.7109 54.21458 182.8741 53.133 186.3431 51.39862 188.50629 50.31703 190.66947 49.23544 194.13848 47.50081 196.30165 46.41922 198.46483 45.33763 204.09702 42.52167 204.09702 42.52167"/>
<use data-text="y" xlink:href="#font_1_8" transform="matrix(5.346246,-10.692492,-10.692492,-5.346246,100.872989,76.02277)" fill="#0000ff"/>
<use data-text="=" xlink:href="#font_2_13" transform="matrix(5.346246,-10.692492,-10.692492,-5.346246,105.10206,67.56462)" fill="#0000ff"/>
<use data-text="2" xlink:href="#font_2_6" transform="matrix(5.346246,-10.692492,-10.692492,-5.346246,110.65147,56.46582)" fill="#0000ff"/>
<use data-text="x" xlink:href="#font_1_7" transform="matrix(5.346246,-10.692492,-10.692492,-5.346246,113.27625,51.216257)" fill="#0000ff"/>
<use data-text="+" xlink:href="#font_2_3" transform="matrix(5.346246,-10.692492,-10.692492,-5.346246,117.43914,42.89047)" fill="#0000ff"/>
<use data-text="1" xlink:href="#font_2_5" transform="matrix(5.346246,-10.692492,-10.692492,-5.346246,122.694499,32.37975)" fill="#0000ff"/>
<use data-text="x" xlink:href="#font_1_7" transform="matrix(10.692492,5.346246,5.346246,-10.692492,178.09522,143.21497)" fill="#0000ff"/>
<use data-text="+" xlink:href="#font_2_3" transform="matrix(10.692492,5.346246,5.346246,-10.692492,186.421,147.37787)" fill="#0000ff"/>
<use data-text="2" xlink:href="#font_2_6" transform="matrix(10.692492,5.346246,5.346246,-10.692492,196.93173,152.63323)" fill="#0000ff"/>
<use data-text="y" xlink:href="#font_1_8" transform="matrix(10.692492,5.346246,5.346246,-10.692492,202.17462,155.25467)" fill="#0000ff"/>
<use data-text="=" xlink:href="#font_2_13" transform="matrix(10.692492,5.346246,5.346246,-10.692492,210.63277,159.48375)" fill="#0000ff"/>
<use data-text="1" xlink:href="#font_2_5" transform="matrix(10.692492,5.346246,5.346246,-10.692492,221.73157,165.03314)" fill="#0000ff"/>
<use data-text="7" xlink:href="#font_2_11" transform="matrix(10.692492,5.346246,5.346246,-10.692492,226.9602,167.64746)" fill="#0000ff"/>
<use data-text="(" xlink:href="#font_2_1" transform="matrix(11.9552,0,0,-11.9552,131.526,54.03499)" fill="#ff0000"/>
<use data-text="x" xlink:href="#font_1_7" transform="matrix(11.9552,0,0,-11.9552,136.078,54.03499)" fill="#ff0000"/>
<use data-text="&#x2212;" xlink:href="#font_3_1" transform="matrix(11.9552,0,0,-11.9552,145.387,54.03499)" fill="#ff0000"/>
<use data-text="7" xlink:href="#font_2_11" transform="matrix(11.9552,0,0,-11.9552,157.342,54.03499)" fill="#ff0000"/>
<use data-text=")" xlink:href="#font_2_2" transform="matrix(11.9552,0,0,-11.9552,163.1881,54.03499)" fill="#ff0000"/>
<use data-text="2" xlink:href="#font_4_2" transform="matrix(7.9701,0,0,-7.9701,167.747,49.69699)" fill="#ff0000"/>
<use data-text="+" xlink:href="#font_2_3" transform="matrix(11.9552,0,0,-11.9552,175.136,54.03499)" fill="#ff0000"/>
<use data-text="(" xlink:href="#font_2_1" transform="matrix(11.9552,0,0,-11.9552,186.88797,54.03499)" fill="#ff0000"/>
<use data-text="y" xlink:href="#font_1_8" transform="matrix(11.9552,0,0,-11.9552,191.45,54.03499)" fill="#ff0000"/>
<use data-text="&#x2212;" xlink:href="#font_3_1" transform="matrix(11.9552,0,0,-11.9552,200.243,54.03499)" fill="#ff0000"/>
<use data-text="5" xlink:href="#font_2_9" transform="matrix(11.9552,0,0,-11.9552,212.199,54.03499)" fill="#ff0000"/>
<use data-text=")" xlink:href="#font_2_2" transform="matrix(11.9552,0,0,-11.9552,218.04509,54.03499)" fill="#ff0000"/>
<use data-text="2" xlink:href="#font_4_2" transform="matrix(7.9701,0,0,-7.9701,222.604,49.69699)" fill="#ff0000"/>
<use data-text="=" xlink:href="#font_2_13" transform="matrix(11.9552,0,0,-11.9552,230.657,54.03499)" fill="#ff0000"/>
<use data-text="2" xlink:href="#font_2_6" transform="matrix(11.9552,0,0,-11.9552,243.0665,54.03499)" fill="#ff0000"/>
<use data-text="0" xlink:href="#font_2_4" transform="matrix(11.9552,0,0,-11.9552,248.9126,54.03499)" fill="#ff0000"/>
<use data-text="C" xlink:href="#font_1_3" transform="matrix(11.9552,0,0,-11.9552,230.69499,105.900989)"/>
</svg>
