<svg xmlns="http://www.w3.org/2000/svg" xmlns:xlink="http://www.w3.org/1999/xlink" xmlns:inkscape="http://www.inkscape.org/namespaces/inkscape" version="1.1" width="394" height="464" viewBox="0 0 394 464">
<defs>
<clipPath id="clip_1">
<path transform="matrix(1,0,0,-1,-98,766)" d="M0 0H595.28V841.89H0Z"/>
</clipPath>
<path id="font_2_2520" d="M.30499269 .28834535 .2849884 .3433838C.272995 .3764038 .2539978 .41740418 .20999146 .44140626L.07798767 .4084015 .08099365 .39039613C.09098816 .39439393 .10598755 .39639283 .11898804 .39639283 .17399597 .39639283 .19999695 .35539247 .21699524 .3073578L.25 .21530152 .18499756 .11424255C.15299988 .065216068 .1269989 .0552063 .114990238 .0552063 .08999634 .0552063 .09399414 .07521057 .067993167 .07521057 .042999269 .07521057 .02999878 .05419922 .02999878 .038208009 .02999878 .016204834 .04598999-.0087890629 .08198547-.0087890629 .13798523-.0087890629 .16699219 .034210206 .19898987 .083221439L.2619934 .18127442 .3019867 .06820679C.31498719 .032196046 .33399964-.0087890629 .375-.0087890629 .43299867-.0087890629 .47799684 .08721924 .48999024 .10223389L.47599793 .11224365C.45498658 .06921387 .43099977 .0552063 .4149933 .0552063 .36999513 .0552063 .34700013 .19029236 .31698609 .25231935L.37199403 .33737184C.38598634 .35939027 .39698792 .37539674 .4269867 .37539674 .44400025 .37539674 .44898988 .36639405 .47099305 .36639405 .49699403 .36639405 .5099945 .3894043 .5099945 .4084015 .5099945 .42939759 .49299623 .44140626 .46099855 .44140626 .41099549 .44140626 .37599183 .3973999 .34999085 .35739137L.30499269 .28834535Z"/>
<path id="font_2_2521" d="M.269989 .30682374C.26098634 .38082887 .2539978 .40682984 .23098755 .4398346L.08099365 .41482545 .08299255 .39883424C.09199524 .39982606 .10798645 .40283204 .11898804 .40283204 .1749878 .40283204 .18399048 .34283448 .18899536 .2978363L.22698975-.016174317C.20098877-.056167604 .14399719-.11816406 .1269989-.11816406 .11099243-.11816406 .11299133-.08717346 .069992069-.08717346 .056991579-.08717346 .02999878-.09817505 .02999878-.12817383 .02999878-.1521759 .04899597-.1831665 .085998538-.1831665 .1539917-.1831665 .21899414-.08517456 .2919922 .0068359377 .33399964 .059829713 .49598695 .2998352 .49598695 .37782289 .49598695 .41682435 .47099305 .4398346 .43899537 .4398346 .4099884 .4398346 .3919983 .42182923 .3919983 .39982606 .3919983 .36183167 .44400025 .3518219 .44400025 .3308258 .44400025 .3128357 .43598939 .29283143 .41600038 .25582887 .3939972 .21482849 .35899354 .15483094 .2979889 .07182312L.269989 .30682374Z"/>
<path id="font_3_48" d="M.6879883 .33103944C.6879883 .5288696 .5569916 .67578127 .36099244 .67578127 .1659851 .67578127 .033996583 .53686526 .033996583 .3340454 .033996583 .1262207 .16699219-.013671875 .36099244-.013671875 .5529938-.013671875 .6879883 .12522888 .6879883 .33103944M.57398989 .33703614C.57398989 .21714783 .54599 .12322998 .4909973 .07028198 .45599366 .03730774 .4119873 .022323609 .3619995 .022323609 .31599427 .022323609 .27198792 .03630066 .23799134 .067276 .1769867 .12322998 .147995 .21315003 .147995 .3320465 .147995 .42695619 .17399597 .52388 .21699524 .5728302 .2559967 .6177826 .30599977 .6397705 .3600006 .6397705 .40699769 .6397705 .44699098 .6227875 .48298646 .59280398 .5399933 .54486086 .57398989 .450943 .57398989 .33703614Z"/>
<path id="font_2_52" d="M.06098938 .50987246C.101989749 .58380129 .147995 .61576846 .20999146 .61576846 .27598573 .61576846 .31799317 .58180239 .31799317 .51387026 .31799317 .45292665 .28599549 .40795899 .23699951 .37998963 .21699524 .36799623 .19099427 .3570099 .15299988 .34402467V.33003236C.20999146 .33003236 .23298645 .32704164 .25498963 .3200531 .32398988 .3000641 .35899354 .2511139 .35899354 .17518616 .35899354 .09025574 .30299378 .022323609 .22898865 .022323609 .20098877 .022323609 .17999268 .027313233 .14299011 .05329895 .114990238 .073272708 .09899902 .07926941 .08198547 .07926941 .05899048 .07926941 .040985109 .06428528 .040985109 .043304445 .040985109 .0073242189 .07998657-.013671875 .15299988-.013671875 .24198914-.013671875 .33699037 .015319824 .3849945 .07926941 .4139862 .11723328 .43099977 .16618347 .43099977 .21913147 .43099977 .27108766 .4149933 .31704713 .3869934 .34802247 .3659973 .36999513 .34799195 .38198854 .3039856 .40097047 .37098695 .44093324 .39698792 .4908905 .39698792 .5388489 .39698792 .6207733 .33399964 .67578127 .24099732 .67578127 .13699341 .67578127 .07398987 .6087799 .04499817 .51387026L.06098938 .50987246Z"/>
<path id="font_2_49" d="M.47599793 .3300476C.47599793 .53486636 .3849945 .67578127 .2539978 .67578127 .09298706 .67578127 .023986817 .5128937 .023986817 .3360443 .023986817 .17218018 .07899475-.013671875 .25-.013671875 .41299439-.013671875 .47599793 .15818787 .47599793 .3300476M.37998963 .32505799C.37998963 .12722779 .33499146 .012313843 .25 .012313843 .1639862 .012313843 .11999512 .1262207 .11999512 .32904054 .11999512 .5318756 .16499329 .6497803 .24798584 .6497803 .33599855 .6497803 .37998963 .53286746 .37998963 .32505799Z"/>
<path id="font_2_1157" d="M.30999757 .25195313C.30999757 .3257141 .25 .38671876 .1769867 .38671876 .099990848 .38671876 .039993287 .32870484 .039993287 .25393678 .039993287 .17718506 .09899902 .1171875 .1749878 .1171875 .25 .1171875 .30999757 .17718506 .30999757 .25195313M.24398804 .25195313C.24398804 .21307373 .21398926 .18318177 .1749878 .18318177 .13598633 .18318177 .10598755 .21208191 .10598755 .25393678 .10598755 .29081727 .1349945 .32070924 .1769867 .32070924 .21299744 .32070924 .24398804 .29081727 .24398804 .25195313Z"/>
<path id="font_2_3866" d="M.1289978 .0289917C.18099976 .125 .2869873 .33599855 .30499269 .3849945 .30899049 .394989 .31298829 .41600038 .31298829 .4249878 .31298829 .46699525 .28599549 .4850006 .2559967 .4850006 .22999573 .4850006 .20498657 .46998597 .19099427 .4269867 .17599488 .3769989 .12199402 .14399719 .099990848 .038986207L.1289978 .0289917Z"/>
<path id="font_2_51" d="M.47399903 .13696289 .45999146 .1429596C.4269867 .08699036 .4059906 .07598877 .3639984 .07598877H.12998963L.29499818 .2519226C.38398744 .34588624 .4229889 .42085267 .4229889 .4998169 .4229889 .59877017 .35099793 .67578127 .23799134 .67578127 .114990238 .67578127 .050994874 .5937805 .02999878 .4768219L.050994874 .47183229C.09098816 .5697937 .12599182 .6017761 .19799805 .6017761 .2829895 .6017761 .33699037 .55178835 .33699037 .4608307 .33699037 .37586976 .30099488 .29989625 .20698548 .200943L.0289917 .011993408V0H.41999818L.47399903 .13696289Z"/>
<path id="font_2_44" d="M.6359863 .22012329V.2861328H.375V.54711917H.30899049V.2861328H.04798889V.22012329H.30899049V-.040878297H.375V.22012329H.6359863Z"/>
<path id="font_2_1159" d="M.96299746 .97299197H.9089966L.49499513-.09300232H.4909973L.2869873 .44299317H.2679901L.11199951 .31900025 .12399292 .29899598C.1459961 .31900025 .17199707 .32998658 .18899536 .32998658 .21398926 .32998658 .23399353 .31599427 .25099183 .2709961L.45298768-.2590027H.4850006L.96299746 .97299197Z"/>
<path id="font_2_1151" d="M.62098696 .22012329V.2861328H.06399536V.22012329H.62098696Z"/>
<path id="font_2_57" d="M.44499208 .15519715C.44499208 .23512268 .41299439 .28907777 .2899933 .37101747 .3889923 .42396546 .42399598 .45793153 .42399598 .53286746 .42399598 .6108093 .35499574 .67578127 .2559967 .67578127 .14498902 .67578127 .06199646 .61579897 .06199646 .5198822 .06199646 .4549408 .08299255 .41697694 .18598938 .3320465 .07899475 .2571106 .055999757 .21813965 .055999757 .14920044 .055999757 .055282594 .1349945-.013671875 .24798584-.013671875 .36799623-.013671875 .44499208 .05229187 .44499208 .15519715M.35499574 .53286746C.35499574 .470932 .32899476 .42897035 .26098634 .3889923 .17298889 .4409485 .13598633 .48690797 .13598633 .54885867 .13598633 .6108093 .1789856 .6477661 .24598694 .6477661 .31399537 .6477661 .35499574 .60180667 .35499574 .53286746M.2709961 .27209474C.33898927 .22613526 .36898805 .18617249 .36898805 .1242218 .36898805 .059280397 .32398988 .014328003 .25898744 .014328003 .18299866 .014328003 .13198853 .06626892 .13198853 .15820313 .13198853 .22314453 .15299988 .26409913 .21199036 .3120575L.2709961 .27209474Z"/>
<path id="font_2_62" d="M.6369934 .31973268V.3857422H.04798889V.31973268H.6369934M.6369934 .12011719V.18611145H.04798889V.12011719H.6369934Z"/>
<path id="font_2_41" d="M.3039856-.16122437C.1639862-.04423523 .13398743 .06877136 .13398743 .254776 .13398743 .44776917 .16499329 .5407715 .3039856 .6597748L.29499818 .67578127C.1349945 .58078 .04798889 .43676759 .04798889 .25177003 .04798889 .08177185 .13398743-.0872345 .2919922-.17723084L.3039856-.16122437Z"/>
<path id="font_2_42" d="M.0289917 .6597748C.17399597 .54577639 .19898987 .43077088 .19898987 .24377442 .19898987 .04977417 .17098999-.04423523 .0289917-.16122437L.037994386-.17723084C.19699097-.08023071 .2849884 .061767579 .2849884 .24676514 .2849884 .41677857 .19400025 .58377078 .040985109 .67578127L.0289917 .6597748Z"/>
<path id="font_2_53" d="M.47299195 .16699219V.23098755H.36999513V.67578127H.32598878L.011993408 .23098755V.16699219H.2919922V0H.36999513V.16699219H.47299195M.2919922 .23098755H.051986696L.2919922 .573822V.23098755Z"/>
</defs>
<g clip-path="url(#clip_1)">
<path transform="matrix(1,0,0,-1,178.036,217.50899)" stroke-width=".79701" stroke-linecap="round" stroke-dasharray="2.98883,2.98883" stroke-linejoin="round" fill="none" stroke="#000000" d="M-170.08042 0H201.50623"/>
<path transform="matrix(1,0,0,-1,379.54225,217.50899)" d="M2.59026 0-1.55415 2.0722 0 0-1.55415-2.0722"/>
<use data-text="&#x1d465;" xlink:href="#font_2_2520" transform="matrix(14.3462,0,0,-14.3462,386.516,220.60799)"/>
<path transform="matrix(1,0,0,-1,178.036,217.50899)" stroke-width=".79701" stroke-linecap="round" stroke-dasharray="2.98883,2.98883" stroke-linejoin="round" fill="none" stroke="#000000" d="M0-170.08042V201.50623"/>
<path transform="matrix(0,-1,-1,-0,178.036,16.002762)" d="M2.59026 0-1.55415 2.0722 0 0-1.55415-2.0722"/>
<use data-text="&#x1d466;" xlink:href="#font_2_2521" transform="matrix(14.3462,0,0,-14.3462,174.478,6.4039919)"/>
<use data-text="O" xlink:href="#font_3_48" transform="matrix(14.3462,0,0,-14.3462,182.22,213.124)"/>
<path transform="matrix(1,0,0,-1,178.036,217.50899)" stroke-width=".79701" stroke-linecap="round" stroke-linejoin="round" fill="none" stroke="#000000" d="M51.02411 0C51.02411 8.95427 48.66505 17.75752 44.1883 25.51204"/>
<use data-text="3" xlink:href="#font_2_52" transform="matrix(14.3462,0,0,-14.3462,231.70499,209.05199)"/>
<use data-text="0" xlink:href="#font_2_49" transform="matrix(14.3462,0,0,-14.3462,238.87808,209.05199)"/>
<use data-text="&#x2218;" xlink:href="#font_2_1157" transform="matrix(9.9626,0,0,-9.9626,246.052,203.31299)"/>
<path transform="matrix(1,0,0,-1,178.036,217.50899)" stroke-width=".79701" stroke-linecap="round" stroke-linejoin="round" fill="none" stroke="#000000" d="M0 51.02411C-8.95427 51.02411-17.75752 48.66505-25.51204 44.1883"/>
<use data-text="3" xlink:href="#font_2_52" transform="matrix(14.3462,0,0,-14.3462,155.664,163.63899)"/>
<use data-text="0" xlink:href="#font_2_49" transform="matrix(14.3462,0,0,-14.3462,162.8371,163.63899)"/>
<use data-text="&#x2218;" xlink:href="#font_2_1157" transform="matrix(9.9626,0,0,-9.9626,170.01099,157.9)"/>
<path transform="matrix(1,0,0,-1,178.036,217.50899)" stroke-width=".79701" stroke-linecap="round" stroke-linejoin="round" fill="none" stroke="#0000ff" d="M-176.75319-102.04694 174.51 100.75185"/>
<path transform="matrix(.86601,-.49998,-.49998,-.86601,352.54597,116.75714)" d="M2.59026 0-1.55415 2.0722 0 0-1.55415-2.0722" fill="#0000ff"/>
<use data-text="&#x1d465;" xlink:href="#font_2_2520" transform="matrix(14.3462,0,0,-14.3462,359.172,120.68299)" fill="#0000ff"/>
<use data-text="&#x2032;" xlink:href="#font_2_3866" transform="matrix(9.9626,0,0,-9.9626,367.063,114.94399)" fill="#0000ff"/>
<path transform="matrix(1,0,0,-1,178.036,217.50899)" stroke-width=".79701" stroke-linecap="round" stroke-linejoin="round" fill="none" stroke="#0000ff" d="M102.04694-176.75319-100.75185 174.51"/>
<path transform="matrix(-.49998,-.86601,-.86601,.49998,77.28415,42.99901)" d="M2.59026 0-1.55415 2.0722 0 0-1.55415-2.0722" fill="#0000ff"/>
<use data-text="&#x1d466;" xlink:href="#font_2_2521" transform="matrix(14.3462,0,0,-14.3462,70.124988,33.746995)" fill="#0000ff"/>
<use data-text="&#x2032;" xlink:href="#font_2_3866" transform="matrix(9.9626,0,0,-9.9626,77.24098,28.007996)" fill="#0000ff"/>
<use data-text="O" xlink:href="#font_3_48" transform="matrix(14.3462,0,0,-14.3462,158.881,232.26399)" fill="#0000ff"/>
<use data-text="&#x2032;" xlink:href="#font_2_3866" transform="matrix(9.9626,0,0,-9.9626,169.239,226.525)" fill="#0000ff"/>
<path transform="matrix(1,0,0,-1,178.036,217.50899)" stroke-width="1.59404" stroke-linecap="round" stroke-linejoin="round" fill="none" stroke="#ff0000" d="M-49.80415-185.86676C-49.80415-185.86676-50.69208-167.94429-50.85149-161.37535-51.01091-154.80643-51.05588-144.63692-50.95293-138.52243-50.84998-132.40792-50.4746-122.96649-50.10944-117.30614-49.74426-111.64581-48.94823-102.93297-48.32101-97.72653-47.69382-92.5201-46.47818-84.53403-45.58875-79.78178-44.69931-75.02951-43.06224-67.7734-41.91052-63.47546-40.7588-59.17747-38.70177-52.64882-37.28792-48.80489-35.87408-44.96097-33.39644-39.16083-31.7204-35.77098-30.04437-32.38116-27.14648-27.30893-25.20825-24.37328-23.27002-21.43762-19.95137-17.09418-17.75092-14.6127-15.55049-12.13118-11.81158-8.51561-9.34894-6.48828-6.88628-4.46095-2.72661-1.57423-.00177-.001 2.72304 1.57216 7.30272 3.73137 10.2897 4.8505 13.27669 5.96964 18.2772 7.39996 21.5264 8.06494 24.7756 8.72989 30.1964 9.43228 33.70776 9.64316 37.21912 9.85402 43.06044 9.82802 46.83401 9.58472 50.60759 9.34143 56.86942 8.58713 60.9052 7.88965 64.941 7.1922 71.6233 5.70949 75.92126 4.55792 80.21924 3.40634 87.32187 1.19565 91.882-.41 96.44214-2.01567 103.96529-4.95476 108.78763-7.0146 113.60995-9.07442 121.55362-12.74184 126.63815-15.25583 131.7227-17.7698 140.08692-22.16562 145.43361-25.13373 150.78035-28.1018 159.56479-33.22554 165.1737-36.64781 170.78264-40.0701 185.85898-49.79903 185.85898-49.79903"/>
<path transform="matrix(1,0,0,-1,178.036,217.50899)" stroke-width=".79701" stroke-linecap="round" stroke-linejoin="round" fill="none" stroke="#000000" d="M2.5884 1.49438C1.76306 2.92392-.06483 3.41371-1.49438 2.5884-2.92392 1.76306-3.41371-.06483-2.5884-1.49438-1.76306-2.92392 .06483-3.41371 1.49438-2.5884 2.92392-1.76306 3.41371 .06483 2.5884 1.49438ZM0 0"/>
<use data-text="3" xlink:href="#font_2_52" transform="matrix(14.3462,0,0,-14.3462,138.35199,428.46299)" fill="#ff0000"/>
<use data-text="&#x1d465;" xlink:href="#font_2_2520" transform="matrix(14.3462,0,0,-14.3462,145.52509,428.46299)" fill="#ff0000"/>
<use data-text="2" xlink:href="#font_2_51" transform="matrix(9.9626,0,0,-9.9626,153.41599,422.724)" fill="#ff0000"/>
<use data-text="+" xlink:href="#font_2_44" transform="matrix(14.3462,0,0,-14.3462,162.08399,428.46299)" fill="#ff0000"/>
<use data-text="2" xlink:href="#font_2_51" transform="matrix(14.3462,0,0,-14.3462,175.09601,428.46299)" fill="#ff0000"/>
<use data-text="&#x221a;" xlink:href="#font_2_1159" transform="matrix(14.3462,0,0,-14.3462,182.272,427.029)" fill="#ff0000"/>
<path transform="matrix(1,0,0,-1,-65.684,207.06398)" stroke-width=".9468" stroke-linecap="butt" stroke-linejoin="round" fill="none" stroke="#ff0000" d="M261.27-206.479H268.443"/>
<use data-text="3" xlink:href="#font_2_52" transform="matrix(14.3462,0,0,-14.3462,195.586,428.46299)" fill="#ff0000"/>
<use data-text="&#x1d465;" xlink:href="#font_2_2520" transform="matrix(14.3462,0,0,-14.3462,202.7591,428.46299)" fill="#ff0000"/>
<use data-text="&#x1d466;" xlink:href="#font_2_2521" transform="matrix(14.3462,0,0,-14.3462,210.6495,428.46299)" fill="#ff0000"/>
<use data-text="+" xlink:href="#font_2_44" transform="matrix(14.3462,0,0,-14.3462,220.95008,428.46299)" fill="#ff0000"/>
<use data-text="&#x1d466;" xlink:href="#font_2_2521" transform="matrix(14.3462,0,0,-14.3462,233.96207,428.46299)" fill="#ff0000"/>
<use data-text="2" xlink:href="#font_2_51" transform="matrix(9.9626,0,0,-9.9626,241.08402,422.724)" fill="#ff0000"/>
<use data-text="&#x2212;" xlink:href="#font_2_1151" transform="matrix(14.3462,0,0,-14.3462,249.75202,428.46299)" fill="#ff0000"/>
<use data-text="8" xlink:href="#font_2_57" transform="matrix(14.3462,0,0,-14.3462,262.764,428.46299)" fill="#ff0000"/>
<use data-text="&#x1d465;" xlink:href="#font_2_2520" transform="matrix(14.3462,0,0,-14.3462,269.9371,428.46299)" fill="#ff0000"/>
<use data-text="+" xlink:href="#font_2_44" transform="matrix(14.3462,0,0,-14.3462,281.01237,428.46299)" fill="#ff0000"/>
<use data-text="8" xlink:href="#font_2_57" transform="matrix(14.3462,0,0,-14.3462,294.02436,428.46299)" fill="#ff0000"/>
<use data-text="&#x221a;" xlink:href="#font_2_1159" transform="matrix(14.3462,0,0,-14.3462,301.208,427.029)" fill="#ff0000"/>
<path transform="matrix(1,0,0,-1,-65.684,207.06398)" stroke-width=".9468" stroke-linecap="butt" stroke-linejoin="round" fill="none" stroke="#ff0000" d="M380.206-206.479H387.379"/>
<use data-text="3" xlink:href="#font_2_52" transform="matrix(14.3462,0,0,-14.3462,314.522,428.46299)" fill="#ff0000"/>
<use data-text="&#x1d466;" xlink:href="#font_2_2521" transform="matrix(14.3462,0,0,-14.3462,321.6951,428.46299)" fill="#ff0000"/>
<use data-text="=" xlink:href="#font_2_62" transform="matrix(14.3462,0,0,-14.3462,332.78474,428.46299)" fill="#ff0000"/>
<use data-text="0" xlink:href="#font_2_49" transform="matrix(14.3462,0,0,-14.3462,346.60014,428.46299)" fill="#ff0000"/>
<use data-text="(" xlink:href="#font_2_41" transform="matrix(14.3462,0,0,-14.3462,209.036,460.546)" fill="#ff0000"/>
<use data-text="&#x1d465;" xlink:href="#font_2_2520" transform="matrix(14.3462,0,0,-14.3462,213.81328,460.546)" fill="#ff0000"/>
<use data-text="&#x2032;" xlink:href="#font_2_3866" transform="matrix(9.9626,0,0,-9.9626,221.704,454.807)" fill="#ff0000"/>
<use data-text=")" xlink:href="#font_2_42" transform="matrix(14.3462,0,0,-14.3462,226.317,460.546)" fill="#ff0000"/>
<use data-text="2" xlink:href="#font_2_51" transform="matrix(9.9626,0,0,-9.9626,231.094,454.807)" fill="#ff0000"/>
<use data-text="=" xlink:href="#font_2_62" transform="matrix(14.3462,0,0,-14.3462,240.55899,460.546)" fill="#ff0000"/>
<use data-text="&#x2212;" xlink:href="#font_2_1151" transform="matrix(14.3462,0,0,-14.3462,254.36003,460.546)" fill="#ff0000"/>
<use data-text="4" xlink:href="#font_2_53" transform="matrix(14.3462,0,0,-14.3462,264.18717,460.546)" fill="#ff0000"/>
<use data-text="&#x1d466;" xlink:href="#font_2_2521" transform="matrix(14.3462,0,0,-14.3462,271.36027,460.546)" fill="#ff0000"/>
<use data-text="&#x2032;" xlink:href="#font_2_3866" transform="matrix(9.9626,0,0,-9.9626,278.48799,454.807)" fill="#ff0000"/>
</g>
</svg>
