<svg xmlns="http://www.w3.org/2000/svg" xmlns:xlink="http://www.w3.org/1999/xlink" xmlns:inkscape="http://www.inkscape.org/namespaces/inkscape" version="1.1" width="456" height="342" viewBox="0 0 456 342">
<defs>
<clipPath id="clip_1">
<path transform="matrix(1,0,0,-1,-71,757)" d="M0 0H595.28V841.89H0Z"/>
</clipPath>
<path id="font_2_41" d="M.3039856-.16122437C.1639862-.04423523 .13398743 .06877136 .13398743 .254776 .13398743 .44776917 .16499329 .5407715 .3039856 .6597748L.29499818 .67578127C.1349945 .58078 .04798889 .43676759 .04798889 .25177003 .04798889 .08177185 .13398743-.0872345 .2919922-.17723084L.3039856-.16122437Z"/>
<path id="font_2_965" d="M.5329895 .11717224C.48399354 .05921936 .46099855 .050231935 .44400025 .050231935 .43499757 .050231935 .43099977 .05722046 .43099977 .067214969 .43099977 .081207279 .43699647 .10517883 .44198609 .122177127L.49299623 .3010254C.5009918 .3280182 .5039978 .35198976 .5039978 .37197877 .5039978 .4299469 .47599793 .45996095 .41600038 .45996095 .35699464 .45996095 .2809906 .4089508 .19699097 .24607849H.19599915L.31599427 .680954 .30799867 .6829529C.269989 .6679535 .23599243 .6559601 .1519928 .63894656V.62394717C.18199158 .62394717 .20899964 .62194827 .20899964 .6019592 .20899964 .59495547 .20799256 .58496096 .20498657 .5729523L.04699707 0H.1309967C.1749878 .15597534 .19699097 .2079773 .24099732 .27296449 .29599 .35395814 .34899903 .40596009 .3809967 .40596009 .4099884 .40596009 .41799928 .3879547 .41799928 .36195375 .41799928 .34295655 .41299439 .31495667 .40899659 .29995729L.36898805 .15597534C.35699464 .113220218 .34498597 .066223148 .34498597 .04623413 .34498597 .009231567 .36499024-.009765625 .397995-.009765625 .43499757-.009765625 .4850006 .017227173 .54499819 .10623169L.5329895 .11717224Z"/>
<path id="font_2_1151" d="M.62098696 .22012329V.2861328H.06399536V.22012329H.62098696Z"/>
<path id="font_2_51" d="M.47399903 .13696289 .45999146 .1429596C.4269867 .08699036 .4059906 .07598877 .3639984 .07598877H.12998963L.29499818 .2519226C.38398744 .34588624 .4229889 .42085267 .4229889 .4998169 .4229889 .59877017 .35099793 .67578127 .23799134 .67578127 .114990238 .67578127 .050994874 .5937805 .02999878 .4768219L.050994874 .47183229C.09098816 .5697937 .12599182 .6017761 .19799805 .6017761 .2829895 .6017761 .33699037 .55178835 .33699037 .4608307 .33699037 .37586976 .30099488 .29989625 .20698548 .200943L.0289917 .011993408V0H.41999818L.47399903 .13696289Z"/>
<path id="font_2_2512" d="M.25299073 .37039186 .25 .37239076 .2679901 .44140626 .10998535 .41740418 .11199951 .4013977C.11999512 .4033966 .13198853 .4053955 .13999939 .4053955 .16999817 .4053955 .17098999 .3914032 .17098999 .37239076L.053985597-.09172058C.041992189-.13772583 .034988405-.16772461-.027008057-.17073059L-.030014039-.182724H.20399475L.20698548-.17073059H.19099427C.14099121-.17073059 .12998963-.14971924 .12998963-.12773133 .12998963-.11672974 .13198853-.10572815 .1349945-.09272766L.15899658 .0072784426C.17799378-.0077209474 .19599915-.01171875 .21998596-.01171875 .3639984-.01171875 .47399903 .15731812 .47399903 .2863617 .47399903 .3874054 .44099427 .44140626 .37998963 .44140626 .34498597 .44140626 .30599977 .4203949 .2669983 .38339234L.25299073 .37039186M.21398926 .23834229C.23399353 .3243866 .28599549 .38539125 .33898927 .38539125 .3619995 .38539125 .3899994 .36538697 .3899994 .30236817 .3899994 .19033814 .31498719 .01727295 .21398926 .01727295 .20199585 .01727295 .18199158 .022277832 .16799927 .0382843L.21398926 .23834229Z"/>
<path id="font_2_45" d="M.08299255-.14086914C.1519928-.10786438 .19499207-.04486084 .19499207 .015136719 .19499207 .06713867 .1599884 .102127078 .114990238 .102127078 .07899475 .102127078 .054992677 .07913208 .054992677 .045135499 .054992677 .011138916 .07598877-.005859375 .11299133-.005859375 .12399292-.0059661867 .13398743-.001953125 .14199829-.001953125 .1499939-.001953125 .1559906-.007965088 .1559906-.014953613 .1559906-.047958375 .12799073-.08496094 .07299805-.1219635L.08299255-.14086914Z"/>
<path id="font_2_2507" d="M.5269928 .42797853H.33299256L.32899476 .41596986H.34098817C.35099793 .41596986 .36698915 .40898133 .36698915 .39697267 .36698915 .38397218 .35699464 .37097169 .34599305 .36097718L.1789856 .21199036 .2919922 .66796877 .13398743 .6429596 .13699341 .6289673C.14498902 .6309662 .15499878 .6309662 .1639862 .6309662 .18598938 .6309662 .19599915 .6199646 .19599915 .608963 .19599915 .6019745 .19499207 .5949707 .19299317 .588974L.04499817 0H.12098694L.1659851 .1659851 .22200012 .21498108 .2849884 .067993167C.29599 .042251588 .31698609-.0107421879 .36299134-.0107421879 .43099977-.0107421879 .47799684 .09625244 .48999024 .117248538L.47499085 .12825012C.45298768 .09825134 .43099977 .055252077 .40098573 .055252077 .375 .055252077 .36299134 .07925415 .34799195 .11425781L.28399659 .2662506 .3899994 .35824586C.42799378 .3912506 .45599366 .40925599 .522995 .4162445L.5269928 .42797853Z"/>
<path id="font_2_42" d="M.0289917 .6597748C.17399597 .54577639 .19898987 .43077088 .19898987 .24377442 .19898987 .04977417 .17098999-.04423523 .0289917-.16122437L.037994386-.17723084C.19699097-.08023071 .2849884 .061767579 .2849884 .24676514 .2849884 .41677857 .19400025 .58377078 .040985109 .67578127L.0289917 .6597748Z"/>
<path id="font_2_44" d="M.6359863 .22012329V.2861328H.375V.54711917H.30899049V.2861328H.04798889V.22012329H.30899049V-.040878297H.375V.22012329H.6359863Z"/>
<path id="font_2_2493" d="M.7599945 .65289309H.5189972L.5149994 .63690188H.5349884C.57299807 .63690188 .58699038 .6298981 .58699038 .6148987 .58699038 .5939026 .56799319 .56489565 .548996 .54089358L.2689972 .17489624 .2649994 .17590332V.56689456C.2649994 .5998993 .269989 .63690188 .33499146 .63690188H.35398866L.35798646 .65289309H.06399536L.05999756 .63690188C.12098694 .63690188 .15899658 .6128998 .15899658 .5549011V-.016098023H.18299866L.6239929 .559906C.6499939 .5939026 .69099429 .63290408 .7559967 .63690188L.7599945 .65289309Z"/>
<path id="font_2_2477" d="M.72299197 .65319827H.20298767L.19898987 .63819888H.21798706C.27799989 .63819888 .2939911 .62020877 .2939911 .5991821 .2939911 .59217837 .2919922 .58317568 .2899933 .5751648L.1659851 .07800293C.15699768 .04399109 .13598633 .015991211 .05999756 .015991211H.041992189L.037994386 0H.37998963L.38398744 .015991211H.35198976C.2919922 .015991211 .272995 .03199768 .272995 .056991579 .272995 .06399536 .27598573 .07199097 .2769928 .07800293L.33898927 .33203126H.43598939C.46499635 .33203126 .5059967 .32902528 .5059967 .28201295 .5059967 .26402284 .5039978 .23501587 .5009918 .2210083H.5169983L.57699587 .463089H.5609894C.5399933 .3780365 .49398805 .36802674 .43199159 .36802674H.34899903L.41099549 .61621096H.55799868C.6049957 .61621096 .6649933 .607193 .66799929 .5291443 .66799929 .5151367 .66799929 .5011139 .6669922 .4931183H.68299868L.72299197 .65319827Z"/>
<path id="font_3_37" d="M.015991211 .6621094V.6430969C.09199524 .6381073 .10398865 .6291046 .10398865 .55007937V.11500549C.10398865 .036987306 .09399414 .023986817 .015991211 .018997193V0H.29699708C.397995 0 .4869995 .023986817 .548996 .06399536 .6380005 .1210022 .68499758 .21502686 .68499758 .3340454 .68499758 .4370575 .651001 .5150757 .58599856 .5710907 .5179901 .63009646 .4149933 .6621094 .28599549 .6621094H.015991211M.20599365 .5830841C.20599365 .6161041 .22099304 .6251068 .25898744 .6251068 .35899354 .6251068 .42199708 .60809329 .48098756 .5560913 .5439911 .5010834 .57598879 .43206788 .57598879 .3280487 .57598879 .21502686 .5419922 .13601685 .47200013 .08900452 .4119873 .04899597 .35699464 .036987306 .2539978 .036987306 .21499634 .036987306 .20599365 .04899597 .20599365 .083999637V.5830841Z"/>
<path id="font_3_74" d="M.17999268 .63204959C.17999268 .66004946 .1579895 .68304446 .1289978 .68304446 .100997928 .68304446 .07798767 .66004946 .07798767 .63204959 .07798767 .6030426 .099990848 .5810547 .12799073 .5810547 .1579895 .5810547 .17999268 .6030426 .17999268 .63204959M.25299073 0V.01499939C.18699646 .019989014 .1789856 .0309906 .1789856 .10499573V.45603944L.1749878 .46003724 .019989014 .4050293V.38902284C.037994386 .3940277 .052993776 .3940277 .06199646 .3940277 .08699036 .3940277 .09498596 .37802125 .09498596 .33102418V.104003909C.09498596 .027999878 .084991458 .018997193 .015991211 .01499939V0H.25299073Z"/>
<path id="font_3_83" d="M.1599884 .45794679 .15499878 .45996095C.101989749 .43894959 .06599426 .42495729 .0069885256 .40596009V.3899536C.020996094 .3929596 .02999878 .39396668 .041992189 .39396668 .066986087 .39396668 .07598877 .3779602 .07598877 .33396913V.083984378C.07598877 .033996583 .068984989 .026992798 .004989624 .01499939V0H.24499512V.01499939C.1769867 .017990113 .1599884 .032989503 .1599884 .08998108V.31497193C.1599884 .3469696 .20199585 .3969574 .22999573 .3969574 .23599243 .3969574 .24499512 .3919525 .2559967 .381958 .27198792 .36695863 .2829895 .361969 .29599 .361969 .31999208 .361969 .33499146 .3789673 .33499146 .4069519 .33499146 .43995667 .31399537 .45996095 .27999879 .45996095 .23799134 .45996095 .20999146 .43795777 .1599884 .3659668V.45794679Z"/>
<path id="font_3_70" d="M.4079895 .16427613C.35899354 .09024048 .32099916 .05921936 .2539978 .05921936 .20799256 .05921936 .17098999 .07723999 .14299011 .11425781 .10699463 .16227722 .101989749 .20129395 .09700012 .27734376H.40499879C.40098573 .3312683 .3909912 .36315919 .37098695 .3910675 .33898927 .43595887 .2939911 .45996095 .23199463 .45996095 .10598755 .45996095 .024993897 .35816957 .024993897 .21730042 .024993897 .07923889 .09700012-.009765625 .21499634-.009765625 .31498719-.009765625 .3849945 .048233034 .42399598 .15727234L.4079895 .16427613M.09899902 .30934144C.10998535 .38407899 .14898682 .4239502 .20498657 .4239502 .2709961 .4239502 .2919922 .39006043 .30299378 .30934144H.09899902Z"/>
<path id="font_3_68" d="M.397995 .15615845C.34999085 .08621216 .31399537 .06222534 .25698854 .06222534 .16499329 .06222534 .101989749 .14216614 .101989749 .25708009 .101989749 .3610077 .15699768 .43095399 .23799134 .43095399 .27398683 .43095399 .2869873 .41996766 .29699708 .3829956L.30299378 .3610077C.31098939 .33203126 .32899476 .31503297 .35099793 .31503297 .3769989 .31503297 .397995 .33403016 .397995 .3570099 .397995 .41296388 .32798768 .45996095 .24398804 .45996095 .19699097 .45996095 .14898682 .44195558 .10899353 .40896607 .054992677 .3639984 .024993897 .2950592 .024993897 .21211243 .024993897 .08320618 .10398865-.009765625 .21499634-.009765625 .2579956-.009765625 .29599 .0042266848 .32998658 .032226564 .3600006 .056228639 .37998963 .08520508 .4119873 .14717102L.397995 .15615845Z"/>
<path id="font_3_85" d="M.2659912 .07722473C.24398804 .051223756 .22799683 .04222107 .20599365 .04222107 .16899109 .04222107 .1539917 .068222049 .1539917 .1322174V.41818238H.25498963V.4501953H.1539917V.5661926C.1539917 .57618716 .1519928 .5791931 .14698792 .5791931 .14099121 .56918337 .1329956 .56018069 .1269989 .55119326 .08898926 .4961853 .055999757 .45918275 .02999878 .44418336 .018997193 .43719483 .0129852299 .43118287 .0129852299 .42518617 .0129852299 .42218019 .01399231 .42018128 .016998291 .41818238H.069992069V.11721802C.069992069 .033233644 .099990848-.009765625 .1579895-.009765625 .20799256-.009765625 .24598694 .014221191 .2789917 .066223148L.2659912 .07722473Z"/>
<path id="font_3_89" d="M.47898866 0V.01499939C.44799806 .01499939 .4249878 .03199768 .39698792 .07501221L.2689972 .27111817 .35198976 .39117433C.37098695 .41818238 .40098573 .43418885 .43299867 .43518067V.4501953H.2749939V.43518067C.30499269 .43318177 .31498719 .42718507 .31498719 .4131775 .31498719 .40116883 .2999878 .38316346 .27799989 .34814454 .2679901 .33314515 .2579956 .31713868 .24798584 .30412293 .24398804 .3111267 .23899842 .31713868 .23399353 .32414247 .20498657 .36715699 .18798828 .400177 .18798828 .4131775 .18798828 .42819215 .20098877 .43418885 .23098755 .43518067V.4501953H.023986817V.43518067H.032989503C.06298828 .43518067 .07899475 .42218019 .10998535 .37516786L.20399475 .23109436 .08999634 .06600952C.06199646 .024993897 .049987794 .017990113 .016998291 .01499939V0H.1619873V.01499939C.1329956 .01499939 .12199402 .019989014 .12199402 .03300476 .12199402 .040008546 .12799073 .052001954 .14199829 .074020389L.22099304 .19708252 .31199647 .057006837C.31599427 .05101013 .31799317 .04600525 .31799317 .039001466 .31799317 .020996094 .31098939 .016998291 .27799989 .01499939V0H.47898866Z"/>
<path id="font_3_27" d="M.19198609 .40296937C.19198609 .4329834 .16699219 .45898438 .13699341 .45898438 .10499573 .45898438 .08099365 .4349823 .08099365 .40296937 .08099365 .37297059 .10699463 .34797669 .13699341 .34797669 .16699219 .34797669 .19198609 .37297059 .19198609 .40296937M.19198609 .04425049C.19198609 .07424927 .16699219 .100250247 .13699341 .100250247 .10499573 .100250247 .08099365 .07624817 .08099365 .04425049 .08099365 .014251709 .10699463-.0107421879 .13699341-.0107421879 .16699219-.0107421879 .19198609 .014251709 .19198609 .04425049Z"/>
<path id="font_2_2521" d="M.269989 .30682374C.26098634 .38082887 .2539978 .40682984 .23098755 .4398346L.08099365 .41482545 .08299255 .39883424C.09199524 .39982606 .10798645 .40283204 .11898804 .40283204 .1749878 .40283204 .18399048 .34283448 .18899536 .2978363L.22698975-.016174317C.20098877-.056167604 .14399719-.11816406 .1269989-.11816406 .11099243-.11816406 .11299133-.08717346 .069992069-.08717346 .056991579-.08717346 .02999878-.09817505 .02999878-.12817383 .02999878-.1521759 .04899597-.1831665 .085998538-.1831665 .1539917-.1831665 .21899414-.08517456 .2919922 .0068359377 .33399964 .059829713 .49598695 .2998352 .49598695 .37782289 .49598695 .41682435 .47099305 .4398346 .43899537 .4398346 .4099884 .4398346 .3919983 .42182923 .3919983 .39982606 .3919983 .36183167 .44400025 .3518219 .44400025 .3308258 .44400025 .3128357 .43598939 .29283143 .41600038 .25582887 .3939972 .21482849 .35899354 .15483094 .2979889 .07182312L.269989 .30682374Z"/>
<path id="font_2_62" d="M.6369934 .31973268V.3857422H.04798889V.31973268H.6369934M.6369934 .12011719V.18611145H.04798889V.12011719H.6369934Z"/>
<path id="font_2_2520" d="M.30499269 .28834535 .2849884 .3433838C.272995 .3764038 .2539978 .41740418 .20999146 .44140626L.07798767 .4084015 .08099365 .39039613C.09098816 .39439393 .10598755 .39639283 .11898804 .39639283 .17399597 .39639283 .19999695 .35539247 .21699524 .3073578L.25 .21530152 .18499756 .11424255C.15299988 .065216068 .1269989 .0552063 .114990238 .0552063 .08999634 .0552063 .09399414 .07521057 .067993167 .07521057 .042999269 .07521057 .02999878 .05419922 .02999878 .038208009 .02999878 .016204834 .04598999-.0087890629 .08198547-.0087890629 .13798523-.0087890629 .16699219 .034210206 .19898987 .083221439L.2619934 .18127442 .3019867 .06820679C.31498719 .032196046 .33399964-.0087890629 .375-.0087890629 .43299867-.0087890629 .47799684 .08721924 .48999024 .10223389L.47599793 .11224365C.45498658 .06921387 .43099977 .0552063 .4149933 .0552063 .36999513 .0552063 .34700013 .19029236 .31698609 .25231935L.37199403 .33737184C.38598634 .35939027 .39698792 .37539674 .4269867 .37539674 .44400025 .37539674 .44898988 .36639405 .47099305 .36639405 .49699403 .36639405 .5099945 .3894043 .5099945 .4084015 .5099945 .42939759 .49299623 .44140626 .46099855 .44140626 .41099549 .44140626 .37599183 .3973999 .34999085 .35739137L.30499269 .28834535Z"/>
<path id="font_2_53" d="M.47299195 .16699219V.23098755H.36999513V.67578127H.32598878L.011993408 .23098755V.16699219H.2919922V0H.36999513V.16699219H.47299195M.2919922 .23098755H.051986696L.2919922 .573822V.23098755Z"/>
</defs>
<g clip-path="url(#clip_1)">
<path transform="matrix(1,0,0,-1,228.17,113.845989)" stroke-width="1.59404" stroke-linecap="round" stroke-linejoin="round" fill="none" stroke="#ff0000" d="M-158.74228-111.11897C-158.74228-111.11897-149.18506-98.08203-145.51439-93.3711-141.84372-88.66016-135.95722-81.44809-132.28655-77.16563-128.61588-72.88318-122.72934-66.36009-119.05867-62.50603-115.388-58.65196-109.50145-52.8141-105.83078-49.38803-102.16011-45.96196-96.27357-40.81122-92.6029-37.81331-88.93224-34.81538-83.0457-30.35056-79.37503-27.78104-75.70436-25.2115-69.81781-21.43506-66.14714-19.29376-62.47647-17.15248-56.58994-14.06122-52.91927-12.34807-49.2486-10.63493-43.36206-8.23141-39.69139-6.94653-36.02072-5.66167-30.13417-3.94418-26.4635-3.08742-22.79283-2.23067-16.9063-1.19998-13.23563-.77162-9.56496-.34325-3.67845-.0002-.00778 0 3.66287 .0002 9.5494-.34201 13.22006-.76988 16.89073-1.19775 22.77727-2.22772 26.44794-3.08398 30.1186-3.94025 36.00514-5.65695 39.67581-6.94133 43.34648-8.22572 49.23303-10.62848 52.9037-12.34114 56.57437-14.0538 62.4609-17.14421 66.13158-19.28513 69.80225-21.42606 75.68878-25.20247 79.35945-27.77151 83.03012-30.34056 88.91667-34.8039 92.58734-37.80121 96.25801-40.79851 102.14455-45.94861 105.81522-49.37419 109.48589-52.79977 115.37242-58.63676 119.04309-62.49046 122.71376-66.34416 128.60028-72.8672 132.27095-77.14919 135.94162-81.43115 141.82816-88.64182 145.49883-93.35205 149.1695-98.0623 158.7267-111.09735 158.7267-111.09735"/>
<path transform="matrix(1,0,0,-1,228.17,113.845989)" stroke-width=".79701" stroke-linecap="round" stroke-dasharray="2.98883,2.98883" stroke-linejoin="round" fill="none" stroke="#000000" d="M0 113.38724V-226.77448"/>
<path transform="matrix(1,0,0,-1,228.17,113.845989)" stroke-width=".79701" stroke-linecap="round" stroke-dasharray="2.98883,2.98883" stroke-linejoin="round" fill="none" stroke="#000000" d="M-113.38724-56.69362H113.38724"/>
<path transform="matrix(1,0,0,-1,228.17,113.845989)" stroke-width=".79701" stroke-linecap="round" stroke-linejoin="round" fill="none" stroke="#000000" d="M-108.40585-56.69362C-108.40585-53.94243-110.63605-51.71223-113.38724-51.71223-116.13841-51.71223-118.36862-53.94243-118.36862-56.69362-118.36862-59.4448-116.13841-61.675-113.38724-61.675-110.63605-61.675-108.40585-59.4448-108.40585-56.69362ZM-113.38724-56.69362"/>
<path transform="matrix(1,0,0,-1,228.17,113.845989)" stroke-width=".79701" stroke-linecap="round" stroke-linejoin="round" fill="none" stroke="#000000" d="M118.36862-56.69362C118.36862-53.94243 116.13841-51.71223 113.38724-51.71223 110.63605-51.71223 108.40585-53.94243 108.40585-56.69362 108.40585-59.4448 110.63605-61.675 113.38724-61.675 116.13841-61.675 118.36862-59.4448 118.36862-56.69362ZM113.38724-56.69362"/>
<use data-text="(" xlink:href="#font_2_41" transform="matrix(14.3462,0,0,-14.3462,21.414994,170.14099)"/>
<use data-text="&#x210e;" xlink:href="#font_2_965" transform="matrix(14.3462,0,0,-14.3462,26.192276,170.14099)"/>
<use data-text="&#x2212;" xlink:href="#font_2_1151" transform="matrix(14.3462,0,0,-14.3462,37.654893,170.14099)"/>
<use data-text="2" xlink:href="#font_2_51" transform="matrix(14.3462,0,0,-14.3462,50.6669,170.14099)"/>
<use data-text="&#x1d45d;" xlink:href="#font_2_2512" transform="matrix(14.3462,0,0,-14.3462,57.839998,170.14099)"/>
<use data-text="," xlink:href="#font_2_45" transform="matrix(14.3462,0,0,-14.3462,64.855289,170.14099)"/>
<use data-text="&#x1d458;" xlink:href="#font_2_2507" transform="matrix(14.3462,0,0,-14.3462,70.83765,170.14099)"/>
<use data-text="&#x2212;" xlink:href="#font_2_1151" transform="matrix(14.3462,0,0,-14.3462,81.79813,170.14099)"/>
<use data-text="&#x1d45d;" xlink:href="#font_2_2512" transform="matrix(14.3462,0,0,-14.3462,94.81012,170.14099)"/>
<use data-text=")" xlink:href="#font_2_42" transform="matrix(14.3462,0,0,-14.3462,101.82541,170.14099)"/>
<use data-text="(" xlink:href="#font_2_41" transform="matrix(14.3462,0,0,-14.3462,349.726,170.14099)"/>
<use data-text="&#x210e;" xlink:href="#font_2_965" transform="matrix(14.3462,0,0,-14.3462,354.5033,170.14099)"/>
<use data-text="+" xlink:href="#font_2_44" transform="matrix(14.3462,0,0,-14.3462,365.96589,170.14099)"/>
<use data-text="2" xlink:href="#font_2_51" transform="matrix(14.3462,0,0,-14.3462,378.9779,170.14099)"/>
<use data-text="&#x1d45d;" xlink:href="#font_2_2512" transform="matrix(14.3462,0,0,-14.3462,386.151,170.14099)"/>
<use data-text="," xlink:href="#font_2_45" transform="matrix(14.3462,0,0,-14.3462,393.1663,170.14099)"/>
<use data-text="&#x1d458;" xlink:href="#font_2_2507" transform="matrix(14.3462,0,0,-14.3462,399.14866,170.14099)"/>
<use data-text="&#x2212;" xlink:href="#font_2_1151" transform="matrix(14.3462,0,0,-14.3462,410.10914,170.14099)"/>
<use data-text="&#x1d45d;" xlink:href="#font_2_2512" transform="matrix(14.3462,0,0,-14.3462,423.12113,170.14099)"/>
<use data-text=")" xlink:href="#font_2_42" transform="matrix(14.3462,0,0,-14.3462,430.1364,170.14099)"/>
<path transform="matrix(1,0,0,-1,228.17,113.845989)" stroke-width=".79701" stroke-linecap="round" stroke-linejoin="round" fill="none" stroke="#000000" d="M4.98138 0C4.98138 2.75117 2.75117 4.98138 0 4.98138-2.75117 4.98138-4.98138 2.75117-4.98138 0-4.98138-2.75117-2.75117-4.98138 0-4.98138 2.75117-4.98138 4.98138-2.75117 4.98138 0ZM0 0"/>
<use data-text="&#x1d449;" xlink:href="#font_2_2493" transform="matrix(14.3462,0,0,-14.3462,232.354,103.137989)"/>
<use data-text="(" xlink:href="#font_2_41" transform="matrix(14.3462,0,0,-14.3462,243.83097,103.137989)"/>
<use data-text="&#x210e;" xlink:href="#font_2_965" transform="matrix(14.3462,0,0,-14.3462,248.60825,103.137989)"/>
<use data-text="," xlink:href="#font_2_45" transform="matrix(14.3462,0,0,-14.3462,256.886,103.137989)"/>
<use data-text="&#x1d458;" xlink:href="#font_2_2507" transform="matrix(14.3462,0,0,-14.3462,262.854,103.137989)"/>
<use data-text=")" xlink:href="#font_2_42" transform="matrix(14.3462,0,0,-14.3462,270.62965,103.137989)"/>
<path transform="matrix(1,0,0,-1,228.17,113.845989)" stroke-width=".79701" stroke-linecap="round" stroke-linejoin="round" fill="none" stroke="#000000" d="M-5.6697-56.69362H5.6697"/>
<path transform="matrix(1,0,0,-1,228.17,113.845989)" stroke-width=".79701" stroke-linecap="round" stroke-linejoin="round" fill="none" stroke="#000000" d="M0-62.36331V-51.02388"/>
<use data-text="&#x1d439;" xlink:href="#font_2_2477" transform="matrix(14.3462,0,0,-14.3462,207.37,184.09198)"/>
<use data-text="(" xlink:href="#font_2_41" transform="matrix(14.3462,0,0,-14.3462,232.354,184.52199)"/>
<use data-text="&#x210e;" xlink:href="#font_2_965" transform="matrix(14.3462,0,0,-14.3462,237.13129,184.52199)"/>
<use data-text="," xlink:href="#font_2_45" transform="matrix(14.3462,0,0,-14.3462,245.40904,184.52199)"/>
<use data-text="&#x1d458;" xlink:href="#font_2_2507" transform="matrix(14.3462,0,0,-14.3462,251.37706,184.52199)"/>
<use data-text="&#x2212;" xlink:href="#font_2_1151" transform="matrix(14.3462,0,0,-14.3462,262.33753,184.52199)"/>
<use data-text="&#x1d45d;" xlink:href="#font_2_2512" transform="matrix(14.3462,0,0,-14.3462,275.36387,184.52199)"/>
<use data-text=")" xlink:href="#font_2_42" transform="matrix(14.3462,0,0,-14.3462,282.37916,184.52199)"/>
<path transform="matrix(1,0,0,-1,228.17,113.845989)" stroke-width=".79701" stroke-linecap="round" stroke-linejoin="round" fill="none" stroke="#000000" d="M-226.77448 56.69362H226.77448"/>
<use data-text="D" xlink:href="#font_3_37" transform="matrix(14.3462,0,0,-14.3462,289.048,44.67299)"/>
<use data-text="i" xlink:href="#font_3_74" transform="matrix(14.3462,0,0,-14.3462,299.40596,44.67299)"/>
<use data-text="r" xlink:href="#font_3_83" transform="matrix(14.3462,0,0,-14.3462,303.3942,44.67299)"/>
<use data-text="e" xlink:href="#font_3_70" transform="matrix(14.3462,0,0,-14.3462,308.15715,44.67299)"/>
<use data-text="c" xlink:href="#font_3_68" transform="matrix(14.3462,0,0,-14.3462,314.52687,44.67299)"/>
<use data-text="t" xlink:href="#font_3_85" transform="matrix(14.3462,0,0,-14.3462,320.89659,44.67299)"/>
<use data-text="r" xlink:href="#font_3_83" transform="matrix(14.3462,0,0,-14.3462,324.88484,44.67299)"/>
<use data-text="i" xlink:href="#font_3_74" transform="matrix(14.3462,0,0,-14.3462,329.92036,44.67299)"/>
<use data-text="x" xlink:href="#font_3_89" transform="matrix(14.3462,0,0,-14.3462,333.9086,44.67299)"/>
<use data-text=":" xlink:href="#font_3_27" transform="matrix(14.3462,0,0,-14.3462,341.0817,44.67299)"/>
<use data-text="&#x1d466;" xlink:href="#font_2_2521" transform="matrix(14.3462,0,0,-14.3462,349.852,44.67299)"/>
<use data-text="=" xlink:href="#font_2_62" transform="matrix(14.3462,0,0,-14.3462,360.94163,44.67299)"/>
<use data-text="&#x1d458;" xlink:href="#font_2_2507" transform="matrix(14.3462,0,0,-14.3462,374.75703,44.67299)"/>
<use data-text="+" xlink:href="#font_2_44" transform="matrix(14.3462,0,0,-14.3462,385.7175,44.67299)"/>
<use data-text="&#x1d45d;" xlink:href="#font_2_2512" transform="matrix(14.3462,0,0,-14.3462,398.74385,44.67299)"/>
<use data-text="(" xlink:href="#font_2_41" transform="matrix(14.3462,0,0,-14.3462,317.39399,243.89099)" fill="#ff0000"/>
<use data-text="&#x1d465;" xlink:href="#font_2_2520" transform="matrix(14.3462,0,0,-14.3462,322.17127,243.89099)" fill="#ff0000"/>
<use data-text="&#x2212;" xlink:href="#font_2_1151" transform="matrix(14.3462,0,0,-14.3462,333.24656,243.89099)" fill="#ff0000"/>
<use data-text="&#x210e;" xlink:href="#font_2_965" transform="matrix(14.3462,0,0,-14.3462,346.25856,243.89099)" fill="#ff0000"/>
<use data-text=")" xlink:href="#font_2_42" transform="matrix(14.3462,0,0,-14.3462,354.53633,243.89099)" fill="#ff0000"/>
<use data-text="2" xlink:href="#font_2_51" transform="matrix(9.9626,0,0,-9.9626,359.32099,238.15198)" fill="#ff0000"/>
<use data-text="=" xlink:href="#font_2_62" transform="matrix(14.3462,0,0,-14.3462,368.78599,243.89099)" fill="#ff0000"/>
<use data-text="&#x2212;" xlink:href="#font_2_1151" transform="matrix(14.3462,0,0,-14.3462,382.58705,243.89099)" fill="#ff0000"/>
<use data-text="4" xlink:href="#font_2_53" transform="matrix(14.3462,0,0,-14.3462,392.41419,243.89099)" fill="#ff0000"/>
<use data-text="&#x1d45d;" xlink:href="#font_2_2512" transform="matrix(14.3462,0,0,-14.3462,399.58729,243.89099)" fill="#ff0000"/>
<use data-text="(" xlink:href="#font_2_41" transform="matrix(14.3462,0,0,-14.3462,406.60258,243.89099)" fill="#ff0000"/>
<use data-text="&#x1d466;" xlink:href="#font_2_2521" transform="matrix(14.3462,0,0,-14.3462,411.37986,243.89099)" fill="#ff0000"/>
<use data-text="&#x2212;" xlink:href="#font_2_1151" transform="matrix(14.3462,0,0,-14.3462,421.69477,243.89099)" fill="#ff0000"/>
<use data-text="&#x1d458;" xlink:href="#font_2_2507" transform="matrix(14.3462,0,0,-14.3462,434.70677,243.89099)" fill="#ff0000"/>
<use data-text=")" xlink:href="#font_2_42" transform="matrix(14.3462,0,0,-14.3462,442.4824,243.89099)" fill="#ff0000"/>
</g>
</svg>
