<svg xmlns="http://www.w3.org/2000/svg" xmlns:xlink="http://www.w3.org/1999/xlink" xmlns:inkscape="http://www.inkscape.org/namespaces/inkscape" version="1.1" width="415" height="729" viewBox="0 0 415 729">
<defs>
<clipPath id="clip_1">
<path transform="matrix(1,0,0,-1,-90,770)" d="M0 0H595.28V841.89H0Z"/>
</clipPath>
<path id="font_2_40" d="M.7549896 .28741456H.41099549V.26242066C.49699403 .25743104 .5130005 .24041748 .5130005 .18843079V.09942627C.5130005 .048431398 .48799134 .014434814 .4169922 .014434814 .33999635 .014434814 .29699708 .043441774 .2619934 .10142517 .22898865 .1564331 .21398926 .23542786 .21398926 .33842469 .21398926 .54541018 .28199769 .6584015 .397995 .6584015 .44499208 .6584015 .49299623 .6403961 .5359955 .60240176 .57899478 .56440737 .5970001 .5294037 .6319885 .45341493H.6569977V.68840029H.6299896C.61499026 .6524048 .6049957 .642395 .58599856 .642395 .57598879 .642395 .5629883 .6464081 .5399933 .6564026 .48199464 .68040469 .43699647 .69140627 .3849945 .69140627 .18499756 .69140627 .036987306 .53041079 .036987306 .3314209 .036987306 .11743164 .19099427-.018554688 .3919983-.018554688 .49598695-.018554688 .60398867 .006439209 .6689911 .044433595V.16242981C.6689911 .22541809 .6799927 .25442506 .7549896 .26242066V.28741456Z"/>
<path id="font_2_83" d="M.21798706 .4609375H.027999878V.43693543C.070999149 .43093873 .08299255 .41993714 .08299255 .37294007V.083984378C.08299255 .04298401 .07299805 .03199768 .0289917 .023986817V0H.2939911V.023986817C.23298645 .02798462 .22200012 .041992189 .22200012 .10597229V.28295899C.22200012 .34194947 .24798584 .38693238 .2829895 .38693238 .29100038 .38693238 .2999878 .38194276 .31098939 .36393739 .32798768 .33595277 .34498597 .325943 .37098695 .325943 .4079895 .325943 .43399049 .35394288 .43399049 .39393617 .43399049 .4396515 .3999939 .47265626 .35299684 .47265626 .30299378 .47265626 .2649994 .44665528 .21798706 .37864686V.4609375Z"/>
<path id="font_2_66" d="M.47299195 .06422424 .46299745 .054244996C.45999146 .051254274 .45700074 .050247194 .45199586 .050247194 .43798829 .050247194 .43099977 .06123352 .43099977 .07821655V.33880616C.43099977 .42466737 .35699464 .47265626 .23498535 .47265626 .12199402 .47265626 .04399109 .42666627 .04399109 .3467865 .04399109 .30485536 .067993167 .27890016 .10899353 .27890016 .14898682 .27890016 .1769867 .30485536 .1769867 .33880616 .1769867 .3527832 .17098999 .36476136 .1579895 .3807373 .14898682 .3907318 .14698792 .39772035 .14698792 .40370179 .14698792 .42767335 .17599488 .4406433 .21199036 .4406433 .2709961 .4406433 .29299928 .4116974 .29299928 .34779359V.27989198C.1769867 .24694824 .12998963 .22897339 .09199524 .20401001 .04699707 .174057 .024993897 .13612366 .024993897 .0921936 .024993897 .018295289 .070999149-.013671875 .1349945-.013671875 .19299317-.013671875 .23899842 .0053253176 .2939911 .055252077 .30499269 .0043182375 .32699586-.013671875 .37599183-.013671875 .4189911-.013671875 .44999696 .002319336 .48799134 .043258668L.47299195 .06422424M.29299928 .09718323C.2709961 .066223148 .24699402 .057235719 .22299195 .057235719 .19299317 .057235719 .17098999 .080200199 .17098999 .12414551 .17098999 .18205261 .21299744 .22299195 .29299928 .24494934V.09718323Z"/>
<path id="font_2_81" d="M.21199036 .4609375H.019989014V.43693543C.06399536 .4299469 .07499695 .4159546 .07499695 .37199403V-.1177063C.07499695-.15969849 .066986087-.17269898 .018997193-.18070984V-.20469666H.29100038V-.18070984C.22999573-.17770386 .21398926-.14570618 .21398926-.078704837V.047286989C.2619934 .000289917 .2869873-.0126953129 .33198548-.0126953129 .45199586-.0126953129 .5239868 .09425354 .5239868 .24909973 .5239868 .39564515 .45399476 .47265626 .34298707 .47265626 .28399659 .47265626 .24598694 .4516449 .21199036 .39164735V.4609375M.21398926 .34576417C.21398926 .35176087 .22099304 .36573792 .23199463 .3787079 .2519989 .40266419 .2769928 .4156494 .2999878 .4156494 .35099793 .4156494 .37599183 .3567505 .37599183 .23396302 .37599183 .096206668 .34599305 .042297365 .29100038 .042297365 .2579956 .042297365 .22898865 .069244388 .21398926 .107177738V.34576417Z"/>
<path id="font_2_73" d="M.5339966 0V.023986817C.49899293 .023986817 .4850006 .04096985 .4850006 .08692932V.3367157C.4850006 .4156494 .43699647 .47265626 .35499574 .47265626 .3019867 .47265626 .25698854 .4536438 .20799256 .3956604V.67578127H.01499939V.6517792C.06098938 .64276126 .068984989 .6387634 .068984989 .59072878V.08892822C.068984989 .032974245 .06098938 .032974245 .015991211 .023986817V0H.2559967V.023986817C.21899414 .0289917 .20799256 .04397583 .20799256 .08493042V.34770204C.20799256 .35169984 .21499634 .36169435 .22499085 .37167359 .24699402 .3936615 .2709961 .4056549 .29499818 .4056549 .33399964 .4056549 .34599305 .3796692 .34599305 .30873109V.08493042C.34599305 .04397583 .33399964 .02798462 .2999878 .023986817V0H.5339966Z"/>
<path id="font_2_22" d="M.46998597 .67578127H.147995L.050994874 .33099366C.14199829 .32600404 .18798828 .32200624 .23098755 .30900575 .32299806 .2800293 .37298585 .22506714 .37298585 .15710449 .37298585 .09614563 .32899476 .05317688 .272995 .05317688 .25 .05317688 .21798706 .06517029 .18299866 .09515381 .14199829 .13012696 .10998535 .14112854 .08299255 .14112854 .04798889 .14112854 .021987915 .11514282 .021987915 .08015442 .021987915 .033172609 .07998657-.0078125 .16899109-.0078125 .33399964-.0078125 .45098878 .088150028 .45098878 .23405457 .45098878 .33798219 .3869934 .41693116 .27799989 .44792176 .23999024 .45890809 .20899964 .46290589 .1269989 .4678955L.14898682 .5488434H.4249878L.46998597 .67578127Z"/>
<path id="font_2_27" d="M.25099183 .38667298C.25099183 .43367005 .21299744 .4716797 .16699219 .4716797 .11898804 .4716797 .08198547 .43467713 .08198547 .3876648 .08198547 .3396759 .11898804 .30267335 .1659851 .30267335 .21299744 .30267335 .25099183 .3396759 .25099183 .38667298M.25099183 .07130432C.25099183 .11729431 .21299744 .15629578 .16699219 .15629578 .11999512 .15629578 .08198547 .11830139 .08198547 .07130432 .08198547 .02330017 .117996219-.0126953129 .1659851-.0126953129 .21299744-.0126953129 .25099183 .024291993 .25099183 .07130432Z"/>
<path id="font_3_2520" d="M.30499269 .28834535 .2849884 .3433838C.272995 .3764038 .2539978 .41740418 .20999146 .44140626L.07798767 .4084015 .08099365 .39039613C.09098816 .39439393 .10598755 .39639283 .11898804 .39639283 .17399597 .39639283 .19999695 .35539247 .21699524 .3073578L.25 .21530152 .18499756 .11424255C.15299988 .065216068 .1269989 .0552063 .114990238 .0552063 .08999634 .0552063 .09399414 .07521057 .067993167 .07521057 .042999269 .07521057 .02999878 .05419922 .02999878 .038208009 .02999878 .016204834 .04598999-.0087890629 .08198547-.0087890629 .13798523-.0087890629 .16699219 .034210206 .19898987 .083221439L.2619934 .18127442 .3019867 .06820679C.31498719 .032196046 .33399964-.0087890629 .375-.0087890629 .43299867-.0087890629 .47799684 .08721924 .48999024 .10223389L.47599793 .11224365C.45498658 .06921387 .43099977 .0552063 .4149933 .0552063 .36999513 .0552063 .34700013 .19029236 .31698609 .25231935L.37199403 .33737184C.38598634 .35939027 .39698792 .37539674 .4269867 .37539674 .44400025 .37539674 .44898988 .36639405 .47099305 .36639405 .49699403 .36639405 .5099945 .3894043 .5099945 .4084015 .5099945 .42939759 .49299623 .44140626 .46099855 .44140626 .41099549 .44140626 .37599183 .3973999 .34999085 .35739137L.30499269 .28834535Z"/>
<path id="font_3_51" d="M.47399903 .13696289 .45999146 .1429596C.4269867 .08699036 .4059906 .07598877 .3639984 .07598877H.12998963L.29499818 .2519226C.38398744 .34588624 .4229889 .42085267 .4229889 .4998169 .4229889 .59877017 .35099793 .67578127 .23799134 .67578127 .114990238 .67578127 .050994874 .5937805 .02999878 .4768219L.050994874 .47183229C.09098816 .5697937 .12599182 .6017761 .19799805 .6017761 .2829895 .6017761 .33699037 .55178835 .33699037 .4608307 .33699037 .37586976 .30099488 .29989625 .20698548 .200943L.0289917 .011993408V0H.41999818L.47399903 .13696289Z"/>
<path id="font_3_44" d="M.6359863 .22012329V.2861328H.375V.54711917H.30899049V.2861328H.04798889V.22012329H.30899049V-.040878297H.375V.22012329H.6359863Z"/>
<path id="font_3_53" d="M.47299195 .16699219V.23098755H.36999513V.67578127H.32598878L.011993408 .23098755V.16699219H.2919922V0H.36999513V.16699219H.47299195M.2919922 .23098755H.051986696L.2919922 .573822V.23098755Z"/>
<path id="font_3_55" d="M.44599916 .68470767C.30799867 .66970828 .22898865 .6457062 .14299011 .55570986 .07199097 .48269654 .033996583 .38771058 .033996583 .27960206 .033996583 .20951844 .052993776 .138443 .08099365 .087402347 .115997318 .023330689 .1789856-.013671875 .2579956-.013671875 .32398988-.013671875 .37998963 .013320923 .4169922 .05937195 .44999696 .09941101 .46798707 .1554718 .46798707 .2195282 .46798707 .34866334 .3959961 .42871095 .2789917 .42871095 .23498535 .42871095 .20098877 .42170716 .1519928 .3836975 .1789856 .5346985 .29100038 .6427002 .44799806 .6687012L.44599916 .68470767M.37799073 .18850708C.37799073 .08639526 .34098817 .014328003 .2689972 .014328003 .1749878 .014328003 .1269989 .11442566 .1269989 .2665863 .1269989 .3586731 .18598938 .3827057 .24299622 .3827057 .33599855 .3827057 .37799073 .31663514 .37799073 .18850708Z"/>
<path id="font_3_2521" d="M.269989 .30682374C.26098634 .38082887 .2539978 .40682984 .23098755 .4398346L.08099365 .41482545 .08299255 .39883424C.09199524 .39982606 .10798645 .40283204 .11898804 .40283204 .1749878 .40283204 .18399048 .34283448 .18899536 .2978363L.22698975-.016174317C.20098877-.056167604 .14399719-.11816406 .1269989-.11816406 .11099243-.11816406 .11299133-.08717346 .069992069-.08717346 .056991579-.08717346 .02999878-.09817505 .02999878-.12817383 .02999878-.1521759 .04899597-.1831665 .085998538-.1831665 .1539917-.1831665 .21899414-.08517456 .2919922 .0068359377 .33399964 .059829713 .49598695 .2998352 .49598695 .37782289 .49598695 .41682435 .47099305 .4398346 .43899537 .4398346 .4099884 .4398346 .3919983 .42182923 .3919983 .39982606 .3919983 .36183167 .44400025 .3518219 .44400025 .3308258 .44400025 .3128357 .43598939 .29283143 .41600038 .25582887 .3939972 .21482849 .35899354 .15483094 .2979889 .07182312L.269989 .30682374Z"/>
<path id="font_3_1151" d="M.62098696 .22012329V.2861328H.06399536V.22012329H.62098696Z"/>
<path id="font_3_62" d="M.6369934 .31973268V.3857422H.04798889V.31973268H.6369934M.6369934 .12011719V.18611145H.04798889V.12011719H.6369934Z"/>
<path id="font_3_49" d="M.47599793 .3300476C.47599793 .53486636 .3849945 .67578127 .2539978 .67578127 .09298706 .67578127 .023986817 .5128937 .023986817 .3360443 .023986817 .17218018 .07899475-.013671875 .25-.013671875 .41299439-.013671875 .47599793 .15818787 .47599793 .3300476M.37998963 .32505799C.37998963 .12722779 .33499146 .012313843 .25 .012313843 .1639862 .012313843 .11999512 .1262207 .11999512 .32904054 .11999512 .5318756 .16499329 .6497803 .24798584 .6497803 .33599855 .6497803 .37998963 .53286746 .37998963 .32505799Z"/>
<path id="font_4_48" d="M.6879883 .33103944C.6879883 .5288696 .5569916 .67578127 .36099244 .67578127 .1659851 .67578127 .033996583 .53686526 .033996583 .3340454 .033996583 .1262207 .16699219-.013671875 .36099244-.013671875 .5529938-.013671875 .6879883 .12522888 .6879883 .33103944M.57398989 .33703614C.57398989 .21714783 .54599 .12322998 .4909973 .07028198 .45599366 .03730774 .4119873 .022323609 .3619995 .022323609 .31599427 .022323609 .27198792 .03630066 .23799134 .067276 .1769867 .12322998 .147995 .21315003 .147995 .3320465 .147995 .42695619 .17399597 .52388 .21699524 .5728302 .2559967 .6177826 .30599977 .6397705 .3600006 .6397705 .40699769 .6397705 .44699098 .6227875 .48298646 .59280398 .5399933 .54486086 .57398989 .450943 .57398989 .33703614Z"/>
<path id="font_3_2469" d="M.48399354 0V.023986817C.46798707 .0289917 .46099855 .032989503 .45399476 .04399109L.30599977 .2719574 .40699769 .39793397C.42599488 .42092896 .44599916 .43193055 .47698976 .43693543V.4609375H.30899049V.43693543L.32899476 .43493653C.35198976 .43293763 .3600006 .42793275 .3600006 .41293336 .3600006 .39793397 .34899903 .38394166 .32199098 .348938L.28599549 .302948C.28199769 .3089447 .2769928 .31495667 .272995 .3199463 .23999024 .36294557 .21499634 .40493775 .21499634 .41793824 .21499634 .42993165 .22898865 .43592835 .2619934 .43693543V.4609375H.011993408V.43693543C.037994386 .43293763 .04399109 .42793275 .06399536 .39793397L.19198609 .20095825C.1769867 .18296814 .18499756 .19197083 .16999817 .17297364 .15499878 .15397644 .14099121 .13597107 .1269989 .11697388 .070999149 .041992189 .050994874 .025985718 .01399231 .023986817V0H.18299866V.023986817C.14698792 .025985718 .1329956 .032989503 .1329956 .04798889 .1329956 .0639801 .1579895 .10397339 .19699097 .15097046 .20298767 .15797425 .20799256 .16497803 .21299744 .17097473 .22599793 .14997864 .23999024 .12898255 .25498963 .10798645 .2789917 .07298279 .28799439 .055984498 .28799439 .04399109 .28799439 .03199768 .2749939 .025985718 .24299622 .023986817V0H.48399354Z"/>
<path id="font_3_3368" d="M.47799684 .21099854H.45298768C.4269867 .13899231 .4039917 .1329956 .2999878 .1329956H.1599884L.32199098 .2869873C.40098573 .3619995 .43598939 .42900086 .43598939 .5049896 .43598939 .6179962 .3619995 .6879883 .2539978 .6879883 .1539917 .6879883 .07798767 .6239929 .0309906 .48399354H.05899048C.08999634 .54599 .1329956 .57398989 .18099976 .57398989 .2599945 .57398989 .2999878 .5149994 .2999878 .44699098 .2999878 .40299989 .2809906 .34799195 .24899292 .29899598 .19799805 .22099304 .16299439 .1789856 .016998291 .022994996V0H.43199159L.47799684 .21099854Z"/>
<path id="font_3_3370" d="M.47599793 .14399719V.25498963H.4119873V.6879883H.33198548L.018997193 .25698854V.14399719H.2669983V0H.4119873V.14399719H.47599793M.2679901 .25498963H.05999756L.2679901 .548996V.25498963Z"/>
<path id="font_3_3372" d="M.46998597 .687973C.32099916 .66096499 .25498963 .6479645 .16699219 .5709686 .07798767 .4929657 .027999878 .39396668 .027999878 .2740631 .027999878 .097229007 .11898804-.0126953129 .2599945-.0126953129 .3889923-.0126953129 .47499085 .082229617 .47499085 .22210694 .47499085 .34300233 .4019928 .42097474 .28799439 .42097474 .2559967 .42097474 .23399353 .41696168 .20399475 .40397645 .24198914 .54896548 .32398988 .63197329 .46998597 .66197207V.687973M.32299806 .16516114C.32299806 .043273927 .30699159 .014297485 .2619934 .014297485 .23799134 .014297485 .22099304 .024291993 .21099854 .043273927 .19400025 .07624817 .18399048 .14916992 .18399048 .24508667 .18399048 .30303956 .18998719 .35998536 .19699097 .36598207 .20399475 .37197877 .21798706 .37597657 .23399353 .37597657 .2999878 .37597657 .32299806 .3210144 .32299806 .16516114Z"/>
<path id="font_3_2470" d="M.48199464 .4609375H.32998658V.43693543C.37298585 .43493653 .38398744 .42793275 .38398744 .40393067 .38398744 .39193727 .38198854 .38093568 .37298585 .3549347L.30499269 .16693115 .23298645 .3529358C.22200012 .38093568 .21299744 .40693666 .21299744 .41093446 .21299744 .42593385 .22399903 .43392945 .24899292 .43592835L.2649994 .43693543V.4609375H.015991211V.43693543C.037994386 .43392945 .04399109 .43093873 .049987794 .42292787 .05899048 .41093446 .09700012 .3269348 .116989139 .27693177L.23599243-.013076782 .21798706-.066085819C.20098877-.11608887 .17599488-.14808655 .1519928-.14808655 .14299011-.14808655 .1349945-.14009094 .1349945-.13108826 .1349945-.13108826 .1349945-.12808228 .13598633-.12509156 .13699341-.12008667 .13798523-.11508179 .13798523-.111083988 .13798523-.08207703 .11199951-.05908203 .07798767-.05908203 .039993287-.05908203 .015991211-.08808899 .015991211-.12608338 .015991211-.17308045 .055999757-.20507813 .11299133-.20507813 .14698792-.20507813 .17599488-.1940918 .19699097-.17208863 .21798706-.14907837 .23899842-.110076908 .27398683-.016082764L.42199708 .3819275C.43798829 .42492677 .45098878 .43293763 .48199464 .43693543V.4609375Z"/>
<path id="font_3_3366" d="M.47599793 .33721925C.47599793 .5031891 .4119873 .6881561 .25299073 .6881561 .08198547 .6881561 .023986817 .49717713 .023986817 .33422853 .023986817 .12626648 .11999512-.0126953129 .25099183-.0126953129 .3809967-.0126953129 .47599793 .12626648 .47599793 .33721925M.31799317 .22424317C.31799317 .075286868 .30099488 .015304565 .25099183 .015304565 .20098877 .015304565 .18199158 .075286868 .18199158 .22424317V.44918824C.18199158 .6011658 .19999695 .66015627 .24899292 .66015627 .2979889 .66015627 .31799317 .5961609 .31799317 .44918824V.22424317Z"/>
<path id="font_3_41" d="M.3039856-.16122437C.1639862-.04423523 .13398743 .06877136 .13398743 .254776 .13398743 .44776917 .16499329 .5407715 .3039856 .6597748L.29499818 .67578127C.1349945 .58078 .04798889 .43676759 .04798889 .25177003 .04798889 .08177185 .13398743-.0872345 .2919922-.17723084L.3039856-.16122437Z"/>
<path id="font_3_45" d="M.08299255-.14086914C.1519928-.10786438 .19499207-.04486084 .19499207 .015136719 .19499207 .06713867 .1599884 .102127078 .114990238 .102127078 .07899475 .102127078 .054992677 .07913208 .054992677 .045135499 .054992677 .011138916 .07598877-.005859375 .11299133-.005859375 .12399292-.0059661867 .13398743-.001953125 .14199829-.001953125 .1499939-.001953125 .1559906-.007965088 .1559906-.014953613 .1559906-.047958375 .12799073-.08496094 .07299805-.1219635L.08299255-.14086914Z"/>
<path id="font_3_50" d="M.3939972 0V.01499939C.31900025 .01499939 .29899598 .032989503 .29899598 .07597351V.67277529L.2899933 .67578127 .11099243 .5847931V.5708008L.13798523 .5807953C.1559906 .5877991 .17298889 .59280398 .18299866 .59280398 .20399475 .59280398 .21299744 .57780459 .21299744 .543808V.0949707C.21299744 .039978029 .19198609 .018997193 .117996219 .01499939V0H.3939972Z"/>
<path id="font_3_42" d="M.0289917 .6597748C.17399597 .54577639 .19898987 .43077088 .19898987 .24377442 .19898987 .04977417 .17098999-.04423523 .0289917-.16122437L.037994386-.17723084C.19699097-.08023071 .2849884 .061767579 .2849884 .24676514 .2849884 .41677857 .19400025 .58377078 .040985109 .67578127L.0289917 .6597748Z"/>
<path id="font_3_3679" d="M.5029907-.24301148C.36898805-.07800293 .23399353 .18699646 .23399353 .6429901 .23399353 1.1009979 .36898805 1.394989 .5029907 1.5329895V1.5659943C.2899933 1.394989 .13899231 1.0429993 .13899231 .6429901 .13899231 .23399353 .2899933-.07901001 .5029907-.27900697V-.24301148Z"/>
<path id="font_3_52" d="M.06098938 .50987246C.101989749 .58380129 .147995 .61576846 .20999146 .61576846 .27598573 .61576846 .31799317 .58180239 .31799317 .51387026 .31799317 .45292665 .28599549 .40795899 .23699951 .37998963 .21699524 .36799623 .19099427 .3570099 .15299988 .34402467V.33003236C.20999146 .33003236 .23298645 .32704164 .25498963 .3200531 .32398988 .3000641 .35899354 .2511139 .35899354 .17518616 .35899354 .09025574 .30299378 .022323609 .22898865 .022323609 .20098877 .022323609 .17999268 .027313233 .14299011 .05329895 .114990238 .073272708 .09899902 .07926941 .08198547 .07926941 .05899048 .07926941 .040985109 .06428528 .040985109 .043304445 .040985109 .0073242189 .07998657-.013671875 .15299988-.013671875 .24198914-.013671875 .33699037 .015319824 .3849945 .07926941 .4139862 .11723328 .43099977 .16618347 .43099977 .21913147 .43099977 .27108766 .4149933 .31704713 .3869934 .34802247 .3659973 .36999513 .34799195 .38198854 .3039856 .40097047 .37098695 .44093324 .39698792 .4908905 .39698792 .5388489 .39698792 .6207733 .33399964 .67578127 .24099732 .67578127 .13699341 .67578127 .07398987 .6087799 .04499817 .51387026L.06098938 .50987246Z"/>
<path id="font_3_3680" d="M.11399841 1.5299988C.24798584 1.3649902 .3829956 1.1029968 .3829956 .6429901 .3829956 .18899536 .24798584-.10800171 .11399841-.2460022V-.27900697C.32699586-.10800171 .47799684 .24299622 .47799684 .6429901 .47799684 1.052002 .32699586 1.3659973 .11399841 1.5659943V1.5299988Z"/>
<path id="font_3_1159" d="M.96299746 .97299197H.9089966L.49499513-.09300232H.4909973L.2869873 .44299317H.2679901L.11199951 .31900025 .12399292 .29899598C.1459961 .31900025 .17199707 .32998658 .18899536 .32998658 .21398926 .32998658 .23399353 .31599427 .25099183 .2709961L.45298768-.2590027H.4850006L.96299746 .97299197Z"/>
<path id="font_2_23" d="M.46998597 .68847659C.32099916 .66145327 .25498963 .64842227 .16699219 .5712738 .07798767 .4931183 .027999878 .39396668 .027999878 .2740631 .027999878 .097229007 .11898804-.0126953129 .2599945-.0126953129 .3889923-.0126953129 .47499085 .082229617 .47499085 .22210694 .47499085 .34300233 .4019928 .42097474 .28799439 .42097474 .2559967 .42097474 .23399353 .41696168 .20399475 .40397645 .24198914 .54922488 .32398988 .6324005 .46998597 .6624603V.68847659M.32299806 .16516114C.32299806 .043273927 .30699159 .014297485 .2619934 .014297485 .23799134 .014297485 .22099304 .024291993 .21099854 .043273927 .19400025 .07624817 .18399048 .14916992 .18399048 .24508667 .18399048 .30303956 .18998719 .35998536 .19699097 .36598207 .20399475 .37197877 .21798706 .37597657 .23399353 .37597657 .2999878 .37597657 .32299806 .3210144 .32299806 .16516114Z"/>
<path id="font_3_47" d="M.18099976 .04324341C.18099976 .07325745 .15499878 .100250247 .12599182 .100250247 .09498596 .100250247 .069992069 .07525635 .069992069 .04425049 .069992069 .013244629 .09399414-.0107421879 .125-.0107421879 .15499878-.0107421879 .18099976 .014251709 .18099976 .04324341Z"/>
<path id="font_3_54" d="M.43798829 .68110659 .42900086 .6880951C.41299439 .667099 .4039917 .6621094 .3809967 .6621094H.17399597L.06498718 .4251709C.06498718 .4251709 .06399536 .42216493 .06399536 .42016603 .06399536 .4141693 .066986087 .4121704 .07598877 .4121704 .17199707 .4121704 .24198914 .380188 .2889862 .3421936 .33399964 .30621339 .35598756 .2562256 .35598756 .19226074 .35598756 .106292728 .29100038 .02331543 .22099304 .02331543 .20098877 .02331543 .17799378 .032318117 .1499939 .05531311 .117996219 .08129883 .09899902 .08630371 .07598877 .08630371 .04798889 .08630371 .0309906 .07330322 .0309906 .048309328 .0309906 .010314941 .08299255-.013671875 .1579895-.013671875 .22599793-.013671875 .2809906 .0013275147 .32798768 .035308839 .3959961 .08529663 .42599488 .14727783 .42599488 .24324036 .42599488 .29621888 .4169922 .334198 .3909912 .37019349 .33399964 .4491577 .28399659 .47114564 .14099121 .49813844L.18099976 .58309939H.375C.3909912 .58309939 .39898683 .58909609 .4019928 .59609988L.43798829 .68110659Z"/>
<path id="font_4_20" d="M.06098938 .50987246C.101989749 .58380129 .147995 .61576846 .20999146 .61576846 .27598573 .61576846 .31799317 .58180239 .31799317 .51387026 .31799317 .45292665 .28599549 .40795899 .23699951 .37998963 .21699524 .36799623 .19099427 .3570099 .15299988 .34402467V.33003236C.20999146 .33003236 .23298645 .32704164 .25498963 .3200531 .32398988 .3000641 .35899354 .2511139 .35899354 .17518616 .35899354 .09025574 .30299378 .022323609 .22898865 .022323609 .20098877 .022323609 .17999268 .027313233 .14299011 .05329895 .114990238 .073272708 .09899902 .07926941 .08198547 .07926941 .05899048 .07926941 .040985109 .06428528 .040985109 .043304445 .040985109 .0073242189 .07998657-.013671875 .15299988-.013671875 .24198914-.013671875 .33699037 .015319824 .3849945 .07926941 .4139862 .11723328 .43099977 .16618347 .43099977 .21913147 .43099977 .27108766 .4149933 .31704713 .3869934 .34802247 .3659973 .36999513 .34799195 .38198854 .3039856 .40097047 .37098695 .44093324 .39698792 .4908905 .39698792 .5388489 .39698792 .6207733 .33399964 .67578127 .24099732 .67578127 .13699341 .67578127 .07398987 .6087799 .04499817 .51387026L.06098938 .50987246Z"/>
</defs>
<g clip-path="url(#clip_1)">
<use data-text="G" xlink:href="#font_2_40" transform="matrix(17.2154,0,0,-17.2154,97.049,15.078985)"/>
<use data-text="r" xlink:href="#font_2_83" transform="matrix(17.2154,0,0,-17.2154,110.44258,15.078985)"/>
<use data-text="a" xlink:href="#font_2_66" transform="matrix(17.2154,0,0,-17.2154,118.03456,15.078985)"/>
<use data-text="p" xlink:href="#font_2_81" transform="matrix(17.2154,0,0,-17.2154,126.64226,15.078985)"/>
<use data-text="h" xlink:href="#font_2_73" transform="matrix(17.2154,0,0,-17.2154,136.21402,15.078985)"/>
<use data-text="5" xlink:href="#font_2_22" transform="matrix(17.2154,0,0,-17.2154,150.07242,15.078985)"/>
<use data-text=":" xlink:href="#font_2_27" transform="matrix(17.2154,0,0,-17.2154,158.68012,15.078985)"/>
<use data-text="&#x1d465;" xlink:href="#font_3_2520" transform="matrix(17.2154,0,0,-17.2154,170.15201,15.078985)"/>
<use data-text="2" xlink:href="#font_3_51" transform="matrix(11.9552,0,0,-11.9552,179.621,8.191985)"/>
<use data-text="+" xlink:href="#font_3_44" transform="matrix(17.2154,0,0,-17.2154,189.922,15.078985)"/>
<use data-text="4" xlink:href="#font_3_53" transform="matrix(17.2154,0,0,-17.2154,205.53638,15.078985)"/>
<use data-text="&#x1d465;" xlink:href="#font_3_2520" transform="matrix(17.2154,0,0,-17.2154,214.14408,15.078985)"/>
<use data-text="+" xlink:href="#font_3_44" transform="matrix(17.2154,0,0,-17.2154,227.43437,15.078985)"/>
<use data-text="6" xlink:href="#font_3_55" transform="matrix(17.2154,0,0,-17.2154,243.04874,15.078985)"/>
<use data-text="&#x1d466;" xlink:href="#font_3_2521" transform="matrix(17.2154,0,0,-17.2154,251.65644,15.078985)"/>
<use data-text="&#x2212;" xlink:href="#font_3_1151" transform="matrix(17.2154,0,0,-17.2154,264.0171,15.078985)"/>
<use data-text="2" xlink:href="#font_3_51" transform="matrix(17.2154,0,0,-17.2154,279.64866,15.078985)"/>
<use data-text="=" xlink:href="#font_3_62" transform="matrix(17.2154,0,0,-17.2154,293.04225,15.078985)"/>
<use data-text="0" xlink:href="#font_3_49" transform="matrix(17.2154,0,0,-17.2154,309.60346,15.078985)"/>
<path transform="matrix(1,0,0,-1,276.86,175.35199)" stroke-width=".79701" stroke-linecap="butt" stroke-miterlimit="10" stroke-linejoin="miter" fill="none" stroke="#000000" d="M-255.12133 0H123.4503"/>
<path transform="matrix(1,0,0,-1,397.8452,175.35199)" d="M5.44046 0 1.28699 1.5706 2.66432 0 1.28699-1.5706Z"/>
<path transform="matrix(1,0,0,-1,397.8452,175.35199)" stroke-width=".79701" stroke-linecap="butt" stroke-miterlimit="10" stroke-linejoin="miter" fill="none" stroke="#000000" d="M5.44046 0 1.28699 1.5706 2.66432 0 1.28699-1.5706Z"/>
<use data-text="&#x1d465;" xlink:href="#font_3_2520" transform="matrix(11.9552,0,0,-11.9552,408.804,177.93399)"/>
<path transform="matrix(1,0,0,-1,276.86,175.35199)" stroke-width=".79701" stroke-linecap="butt" stroke-miterlimit="10" stroke-linejoin="miter" fill="none" stroke="#000000" d="M0-127.56065V123.4503"/>
<path transform="matrix(0,-1,-1,-0,276.86,54.36676)" d="M5.44046 0 1.28699 1.5706 2.66432 0 1.28699-1.5706Z"/>
<path transform="matrix(0,-1,-1,-0,276.86,54.36676)" stroke-width=".79701" stroke-linecap="butt" stroke-miterlimit="10" stroke-linejoin="miter" fill="none" stroke="#000000" d="M5.44046 0 1.28699 1.5706 2.66432 0 1.28699-1.5706Z"/>
<use data-text="&#x1d466;" xlink:href="#font_3_2521" transform="matrix(11.9552,0,0,-11.9552,273.895,41.219987)"/>
<use data-text="O" xlink:href="#font_4_48" transform="matrix(11.9552,0,0,-11.9552,264.03999,187.81299)"/>
<path transform="matrix(1,0,0,-1,276.86,175.35199)" stroke-width="1.59404" stroke-linecap="butt" stroke-miterlimit="10" stroke-linejoin="miter" fill="none" stroke="#ff0000" d="M-233.8612-44.28108-230.85529-40.80995-227.84935-37.4102-224.84345-34.07988-221.83751-30.82156-218.83159-27.63399-215.82567-24.51646-212.81974-21.4703-209.81383-18.49489-206.8079-15.59016-203.80197-12.75682-200.79605-9.99356-197.79012-7.30165-194.78421-4.68112-191.77829-2.13002-188.77236 .34904-185.76644 2.75871-182.76052 5.09636-179.75458 7.36264-176.74868 9.55951-173.74274 11.68501-170.73682 13.73914-167.7309 15.72318-164.72496 17.63585-161.71906 19.47847-158.71314 21.24971-155.7072 22.94958-152.70128 24.58005-149.69535 26.13847-146.68944 27.62683-143.68352 29.04382-140.67758 30.38947-137.67166 31.66566-134.66574 32.86984-131.6598 34.00333-128.6539 35.06671-125.64796 36.05873-122.64204 36.98068-119.63612 37.83063-116.63019 38.61049-113.62428 39.31964-110.61836 39.95741-107.61243 40.52449-104.6065 41.02081-101.60057 41.44644-98.59465 41.80133-95.58875 42.08485-92.58281 42.29767-89.57689 42.4404-86.57097 42.51178-83.56503 42.51242-80.55913 42.44235-77.55319 42.30092-74.54727 42.0894-71.54135 41.80652-68.53542 41.45227-65.52951 41.0286-62.52359 40.53291-59.51765 39.96715-56.51173 39.33002-53.5058 38.62216-50.49988 37.8436-47.49397 36.99431-44.48804 36.07367-41.48212 35.08293-38.4762 34.02083-35.47026 32.88867-32.46436 31.68512-29.45842 30.41023-26.4525 29.06525-23.44658 27.64955-20.44064 26.16248-17.43474 24.6047-14.42882 22.97618-11.42288 21.27698-8.41696 19.50702-5.41103 17.66571-2.4051 15.75432 .60077 13.77158 3.6067 11.71873 6.61263 9.5939 9.61855 7.39897 12.62448 5.13335 15.63039 2.79636 18.63632 .38797 21.64224-2.0898 24.64816-4.63895 27.6541-7.25885 30.66-9.9501 33.66594-12.71207 36.67186-15.54411 39.67778-18.44751 42.68372-21.42165 45.68964-24.46715 48.69554-27.58337 51.70148-30.76967 54.7074-34.02733 57.71333-37.35571 60.71925-40.7548 63.72516-44.22462"/>
<use data-text="&#x1d431;" xlink:href="#font_3_2469" transform="matrix(11.9552,0,0,-11.9552,34.076967,236.74999)" fill="#ff0000"/>
<use data-text="&#x1d7d0;" xlink:href="#font_3_3368" transform="matrix(8.9664,0,0,-8.9664,40.293977,231.96799)" fill="#ff0000"/>
<use data-text="+" xlink:href="#font_3_44" transform="matrix(11.9552,0,0,-11.9552,47.931978,236.74999)" fill="#ff0000"/>
<use data-text="&#x1d7d2;" xlink:href="#font_3_3370" transform="matrix(11.9552,0,0,-11.9552,58.77533,236.74999)" fill="#ff0000"/>
<use data-text="&#x1d431;" xlink:href="#font_3_2469" transform="matrix(11.9552,0,0,-11.9552,64.75293,236.74999)" fill="#ff0000"/>
<use data-text="+" xlink:href="#font_3_44" transform="matrix(11.9552,0,0,-11.9552,73.62369,236.74999)" fill="#ff0000"/>
<use data-text="&#x1d7d4;" xlink:href="#font_3_3372" transform="matrix(11.9552,0,0,-11.9552,84.46704,236.74999)" fill="#ff0000"/>
<use data-text="&#x1d432;" xlink:href="#font_3_2470" transform="matrix(11.9552,0,0,-11.9552,90.44464,236.74999)" fill="#ff0000"/>
<use data-text="&#x2212;" xlink:href="#font_3_1151" transform="matrix(11.9552,0,0,-11.9552,99.32736,236.74999)" fill="#ff0000"/>
<use data-text="&#x1d7d0;" xlink:href="#font_3_3368" transform="matrix(11.9552,0,0,-11.9552,110.170719,236.74999)" fill="#ff0000"/>
<use data-text="=" xlink:href="#font_3_62" transform="matrix(11.9552,0,0,-11.9552,119.47186,236.74999)" fill="#ff0000"/>
<use data-text="&#x1d7ce;" xlink:href="#font_3_3366" transform="matrix(11.9552,0,0,-11.9552,130.97275,236.74999)" fill="#ff0000"/>
<path transform="matrix(1,0,0,-1,276.86,175.35199)" stroke-width=".79701" stroke-linecap="butt" stroke-dasharray="2.98883,2.98883" stroke-miterlimit="10" stroke-linejoin="miter" fill="none" stroke="#000000" d="M-85.04044 0V42.52022H0"/>
<path transform="matrix(1,0,0,-1,276.86,175.35199)" d="M-83.54602 42.52022C-83.54602 43.34557-84.21509 44.01463-85.04044 44.01463-85.86578 44.01463-86.53485 43.34557-86.53485 42.52022-86.53485 41.69487-85.86578 41.0258-85.04044 41.0258-84.21509 41.0258-83.54602 41.69487-83.54602 42.52022ZM-85.04044 42.52022"/>
<path transform="matrix(1,0,0,-1,276.86,175.35199)" stroke-width=".3985" stroke-linecap="butt" stroke-miterlimit="10" stroke-linejoin="miter" fill="none" stroke="#000000" d="M-83.54602 42.52022C-83.54602 43.34557-84.21509 44.01463-85.04044 44.01463-85.86578 44.01463-86.53485 43.34557-86.53485 42.52022-86.53485 41.69487-85.86578 41.0258-85.04044 41.0258-84.21509 41.0258-83.54602 41.69487-83.54602 42.52022ZM-85.04044 42.52022"/>
<use data-text="(" xlink:href="#font_3_41" transform="matrix(11.9552,0,0,-11.9552,175.275,126.53199)"/>
<use data-text="&#x2212;" xlink:href="#font_3_1151" transform="matrix(11.9552,0,0,-11.9552,179.25608,126.53199)"/>
<use data-text="2" xlink:href="#font_3_51" transform="matrix(11.9552,0,0,-11.9552,187.44538,126.53199)"/>
<use data-text="," xlink:href="#font_3_45" transform="matrix(11.9552,0,0,-11.9552,193.42298,126.53199)"/>
<use data-text="1" xlink:href="#font_3_50" transform="matrix(11.9552,0,0,-11.9552,198.39633,126.53199)"/>
<use data-text=")" xlink:href="#font_3_42" transform="matrix(11.9552,0,0,-11.9552,204.37393,126.53199)"/>
<path transform="matrix(1,0,0,-1,276.86,175.35199)" d="M1.49442 14.17317C1.49442 14.99852 .82533 15.66759 0 15.66759-.82533 15.66759-1.49442 14.99852-1.49442 14.17317-1.49442 13.34782-.82533 12.67876 0 12.67876 .82533 12.67876 1.49442 13.34782 1.49442 14.17317ZM0 14.17317"/>
<path transform="matrix(1,0,0,-1,276.86,175.35199)" stroke-width=".3985" stroke-linecap="butt" stroke-miterlimit="10" stroke-linejoin="miter" fill="none" stroke="#000000" d="M1.49442 14.17317C1.49442 14.99852 .82533 15.66759 0 15.66759-.82533 15.66759-1.49442 14.99852-1.49442 14.17317-1.49442 13.34782-.82533 12.67876 0 12.67876 .82533 12.67876 1.49442 13.34782 1.49442 14.17317ZM0 14.17317"/>
<use data-text="(" xlink:href="#font_3_3679" transform="matrix(11.9552,0,0,-11.9552,282.03999,163.89099)"/>
<use data-text="0" xlink:href="#font_3_49" transform="matrix(11.9552,0,0,-11.9552,289.08198,159.18698)"/>
<use data-text="," xlink:href="#font_3_45" transform="matrix(11.9552,0,0,-11.9552,295.05958,159.18698)"/>
<use data-text="1" xlink:href="#font_3_50" transform="matrix(11.9552,0,0,-11.9552,301.23698,152.25299)"/>
<path transform="matrix(1,0,0,-1,-12.82,-16.055016)" stroke-width=".789" stroke-linecap="butt" stroke-miterlimit="10" stroke-linejoin="miter" fill="none" stroke="#000000" d="M314.057-172.253H320.034"/>
<use data-text="3" xlink:href="#font_3_52" transform="matrix(11.9552,0,0,-11.9552,301.237,167.55698)"/>
<use data-text=")" xlink:href="#font_3_3680" transform="matrix(11.9552,0,0,-11.9552,308.41,163.89099)"/>
<path transform="matrix(1,0,0,-1,276.86,175.35199)" d="M20.60631 0C20.60631 .82533 19.93724 1.49442 19.1119 1.49442 18.28654 1.49442 17.61748 .82533 17.61748 0 17.61748-.82533 18.28654-1.49442 19.1119-1.49442 19.93724-1.49442 20.60631-.82533 20.60631 0ZM19.1119 0"/>
<path transform="matrix(1,0,0,-1,276.86,175.35199)" stroke-width=".3985" stroke-linecap="butt" stroke-miterlimit="10" stroke-linejoin="miter" fill="none" stroke="#000000" d="M20.60631 0C20.60631 .82533 19.93724 1.49442 19.1119 1.49442 18.28654 1.49442 17.61748 .82533 17.61748 0 17.61748-.82533 18.28654-1.49442 19.1119-1.49442 19.93724-1.49442 20.60631-.82533 20.60631 0ZM19.1119 0"/>
<use data-text="(" xlink:href="#font_3_41" transform="matrix(11.9552,0,0,-11.9552,320.081,193.20099)"/>
<use data-text="&#x2212;" xlink:href="#font_3_1151" transform="matrix(11.9552,0,0,-11.9552,324.06208,193.20099)"/>
<use data-text="2" xlink:href="#font_3_51" transform="matrix(11.9552,0,0,-11.9552,332.25138,193.20099)"/>
<use data-text="+" xlink:href="#font_3_44" transform="matrix(11.9552,0,0,-11.9552,340.88304,193.20099)"/>
<use data-text="&#x221a;" xlink:href="#font_3_1159" transform="matrix(11.9552,0,0,-11.9552,351.733,191.958)"/>
<path transform="matrix(1,0,0,-1,25.221,17.958987)" stroke-width=".789" stroke-linecap="butt" stroke-miterlimit="10" stroke-linejoin="miter" fill="none" stroke="#000000" d="M337.606-162.761H343.584"/>
<use data-text="6" xlink:href="#font_3_55" transform="matrix(11.9552,0,0,-11.9552,362.827,193.20099)"/>
<use data-text="," xlink:href="#font_3_45" transform="matrix(11.9552,0,0,-11.9552,368.8046,193.20099)"/>
<use data-text="0" xlink:href="#font_3_49" transform="matrix(11.9552,0,0,-11.9552,373.77796,193.20099)"/>
<use data-text=")" xlink:href="#font_3_42" transform="matrix(11.9552,0,0,-11.9552,379.75556,193.20099)"/>
<path transform="matrix(1,0,0,-1,276.86,175.35199)" d="M-187.69837 0C-187.69837 .82533-188.36743 1.49442-189.19278 1.49442-190.01813 1.49442-190.6872 .82533-190.6872 0-190.6872-.82533-190.01813-1.49442-189.19278-1.49442-188.36743-1.49442-187.69837-.82533-187.69837 0ZM-189.19278 0"/>
<path transform="matrix(1,0,0,-1,276.86,175.35199)" stroke-width=".3985" stroke-linecap="butt" stroke-miterlimit="10" stroke-linejoin="miter" fill="none" stroke="#000000" d="M-187.69837 0C-187.69837 .82533-188.36743 1.49442-189.19278 1.49442-190.01813 1.49442-190.6872 .82533-190.6872 0-190.6872-.82533-190.01813-1.49442-189.19278-1.49442-188.36743-1.49442-187.69837-.82533-187.69837 0ZM-189.19278 0"/>
<use data-text="(" xlink:href="#font_3_41" transform="matrix(11.9552,0,0,-11.9552,-.10601807,193.20099)"/>
<use data-text="&#x2212;" xlink:href="#font_3_1151" transform="matrix(11.9552,0,0,-11.9552,3.875061,193.20099)"/>
<use data-text="2" xlink:href="#font_3_51" transform="matrix(11.9552,0,0,-11.9552,12.064362,193.20099)"/>
<use data-text="&#x2212;" xlink:href="#font_3_1151" transform="matrix(11.9552,0,0,-11.9552,20.696015,193.20099)"/>
<use data-text="&#x221a;" xlink:href="#font_3_1159" transform="matrix(11.9552,0,0,-11.9552,31.54599,191.958)"/>
<path transform="matrix(1,0,0,-1,-294.966,17.958987)" stroke-width=".789" stroke-linecap="butt" stroke-miterlimit="10" stroke-linejoin="miter" fill="none" stroke="#000000" d="M337.606-162.761H343.584"/>
<use data-text="6" xlink:href="#font_3_55" transform="matrix(11.9552,0,0,-11.9552,42.639986,193.20099)"/>
<use data-text="," xlink:href="#font_3_45" transform="matrix(11.9552,0,0,-11.9552,48.617586,193.20099)"/>
<use data-text="0" xlink:href="#font_3_49" transform="matrix(11.9552,0,0,-11.9552,53.590944,193.20099)"/>
<use data-text=")" xlink:href="#font_3_42" transform="matrix(11.9552,0,0,-11.9552,59.568544,193.20099)"/>
<use data-text="G" xlink:href="#font_2_40" transform="matrix(17.2154,0,0,-17.2154,120.147998,372.404)"/>
<use data-text="r" xlink:href="#font_2_83" transform="matrix(17.2154,0,0,-17.2154,133.54158,372.404)"/>
<use data-text="a" xlink:href="#font_2_66" transform="matrix(17.2154,0,0,-17.2154,141.13356,372.404)"/>
<use data-text="p" xlink:href="#font_2_81" transform="matrix(17.2154,0,0,-17.2154,149.74126,372.404)"/>
<use data-text="h" xlink:href="#font_2_73" transform="matrix(17.2154,0,0,-17.2154,159.31302,372.404)"/>
<use data-text="6" xlink:href="#font_2_23" transform="matrix(17.2154,0,0,-17.2154,173.17142,372.404)"/>
<use data-text=":" xlink:href="#font_2_27" transform="matrix(17.2154,0,0,-17.2154,181.77912,372.404)"/>
<use data-text="&#x1d466;" xlink:href="#font_3_2521" transform="matrix(17.2154,0,0,-17.2154,193.25099,372.404)"/>
<use data-text="2" xlink:href="#font_3_51" transform="matrix(11.9552,0,0,-11.9552,201.79,365.517)"/>
<use data-text="+" xlink:href="#font_3_44" transform="matrix(17.2154,0,0,-17.2154,212.09099,372.404)"/>
<use data-text="&#x1d465;" xlink:href="#font_3_2520" transform="matrix(17.2154,0,0,-17.2154,227.70537,372.404)"/>
<use data-text="+" xlink:href="#font_3_44" transform="matrix(17.2154,0,0,-17.2154,240.99567,372.404)"/>
<use data-text="&#x1d466;" xlink:href="#font_3_2521" transform="matrix(17.2154,0,0,-17.2154,256.61003,372.404)"/>
<use data-text="=" xlink:href="#font_3_62" transform="matrix(17.2154,0,0,-17.2154,269.93476,372.404)"/>
<use data-text="0" xlink:href="#font_3_49" transform="matrix(17.2154,0,0,-17.2154,286.51319,372.404)"/>
<path transform="matrix(1,0,0,-1,200.366,518.50399)" stroke-width=".79701" stroke-linecap="butt" stroke-miterlimit="10" stroke-linejoin="miter" fill="none" stroke="#000000" d="M-113.38728 0H109.27692"/>
<path transform="matrix(1,0,0,-1,307.17784,518.50399)" d="M5.44046 0 1.28699 1.5706 2.66432 0 1.28699-1.5706Z"/>
<path transform="matrix(1,0,0,-1,307.17784,518.50399)" stroke-width=".79701" stroke-linecap="butt" stroke-miterlimit="10" stroke-linejoin="miter" fill="none" stroke="#000000" d="M5.44046 0 1.28699 1.5706 2.66432 0 1.28699-1.5706Z"/>
<use data-text="&#x1d465;" xlink:href="#font_3_2520" transform="matrix(11.9552,0,0,-11.9552,318.136,521.08596)"/>
<path transform="matrix(1,0,0,-1,200.366,518.50399)" stroke-width=".79701" stroke-linecap="butt" stroke-miterlimit="10" stroke-linejoin="miter" fill="none" stroke="#000000" d="M0-170.08092V109.27692"/>
<path transform="matrix(0,-1,-1,-0,200.366,411.69215)" d="M5.44046 0 1.28699 1.5706 2.66432 0 1.28699-1.5706Z"/>
<path transform="matrix(0,-1,-1,-0,200.366,411.69215)" stroke-width=".79701" stroke-linecap="butt" stroke-miterlimit="10" stroke-linejoin="miter" fill="none" stroke="#000000" d="M5.44046 0 1.28699 1.5706 2.66432 0 1.28699-1.5706Z"/>
<use data-text="&#x1d466;" xlink:href="#font_3_2521" transform="matrix(11.9552,0,0,-11.9552,197.401,398.54597)"/>
<use data-text="O" xlink:href="#font_4_48" transform="matrix(11.9552,0,0,-11.9552,184.711,533.80099)"/>
<path transform="matrix(1,0,0,-1,200.366,518.50399)" stroke-width="1.59404" stroke-linecap="butt" stroke-miterlimit="10" stroke-linejoin="miter" fill="none" stroke="#ff0000" d="M-85.04045-170.08092-80.50745-167.79192-76.06789-165.50293-71.72174-163.21393-67.46729-160.92494-63.30453-158.63596-59.23521-156.34696-55.2576-154.05797-51.37341-151.76897-47.5809-149.47998-43.88013-147.191-40.27275-144.902-36.75708-142.613-33.33482-140.324-30.00429-138.03502-26.76718-135.74604-23.62175-133.45703-20.56804-131.16805-17.60774-128.87905-14.73917-126.59006-11.96399-124.30107-9.28053-122.01207-6.68875-119.72308-4.19041-117.43408-1.78378-115.1451 .52942-112.85612 2.75093-110.56712 4.87903-108.27814 6.91713-105.98915 8.8601-103.70015 10.71136-101.41116 12.47092-99.12216 14.1388-96.83318 15.71323-94.54419 17.19423-92.25519 18.58356-89.9662 19.88116-87.6772 21.08534-85.38821 22.19785-83.09923 23.21863-80.81023 24.146-78.52124 24.98166-76.23224 25.72389-73.94325 26.37444-71.65427 26.93155-69.36526 27.39696-67.07628 27.77066-64.78728 28.05095-62.49829 28.23781-60.2093 28.3347-57.9203 28.33815-55.63132 28.24818-53.34232 28.06653-51.05333 27.79317-48.76434 27.42636-46.47534 26.96788-44.18636 26.41768-41.89735 25.77406-39.60837 25.03703-37.31938 24.20828-35.03038 23.28784-32.7414 22.27397-30.4524 21.1684-28.1634 19.97113-25.87442 18.68044-23.58542 17.29805-21.29643 15.82222-19.00743 14.2547-16.71844 12.59377-14.42946 10.84111-12.14046 8.99678-9.85147 7.059-7.56247 5.02954-5.27348 2.90665-2.98451 .69205-.69551-1.61421 1.59344-4.01393 3.88245-6.5071 6.17143-9.09021 8.46042-11.76848 10.74942-14.53673 13.0384-17.39839 15.32741-20.35178 17.6164-23.39857 19.90538-26.53706 22.19438-29.769 24.48337-33.09262 26.77237-36.50967 29.06136-40.0167 31.35034-43.61887 33.63934-47.311 35.92833-51.09831 38.21733-54.97559 40.50632-58.94629 42.7953-63.01042 45.0843-67.1645 47.37329-71.41376 49.6623-75.75299 51.95128-80.18564 54.24026-84.71173 56.52927"/>
<use data-text="&#x1d432;" xlink:href="#font_3_2470" transform="matrix(11.9552,0,0,-11.9552,91.162998,454.72099)" fill="#ff0000"/>
<use data-text="&#x1d7d0;" xlink:href="#font_3_3368" transform="matrix(8.9664,0,0,-8.9664,97.379,449.939)" fill="#ff0000"/>
<use data-text="+" xlink:href="#font_3_44" transform="matrix(11.9552,0,0,-11.9552,105.017,454.72099)" fill="#ff0000"/>
<use data-text="&#x1d431;" xlink:href="#font_3_2469" transform="matrix(11.9552,0,0,-11.9552,115.86037,454.72099)" fill="#ff0000"/>
<use data-text="+" xlink:href="#font_3_44" transform="matrix(11.9552,0,0,-11.9552,124.731128,454.72099)" fill="#ff0000"/>
<use data-text="&#x1d432;" xlink:href="#font_3_2470" transform="matrix(11.9552,0,0,-11.9552,135.5745,454.72099)" fill="#ff0000"/>
<use data-text="=" xlink:href="#font_3_62" transform="matrix(11.9552,0,0,-11.9552,145.11475,454.72099)" fill="#ff0000"/>
<use data-text="&#x1d7ce;" xlink:href="#font_3_3366" transform="matrix(11.9552,0,0,-11.9552,156.6276,454.72099)" fill="#ff0000"/>
<path transform="matrix(1,0,0,-1,200.366,518.50399)" stroke-width=".79701" stroke-linecap="butt" stroke-dasharray="2.98883,2.98883" stroke-miterlimit="10" stroke-linejoin="miter" fill="none" stroke="#000000" d="M28.3468 0V-56.69363H0"/>
<path transform="matrix(1,0,0,-1,200.366,518.50399)" d="M29.34308-56.69363C29.34308-56.14339 28.89703-55.69736 28.3468-55.69736 27.79657-55.69736 27.35052-56.14339 27.35052-56.69363 27.35052-57.24387 27.79657-57.68991 28.3468-57.68991 28.89703-57.68991 29.34308-57.24387 29.34308-56.69363ZM28.3468-56.69363"/>
<path transform="matrix(1,0,0,-1,200.366,518.50399)" stroke-width=".3985" stroke-linecap="butt" stroke-miterlimit="10" stroke-linejoin="miter" fill="none" stroke="#000000" d="M29.34308-56.69363C29.34308-56.14339 28.89703-55.69736 28.3468-55.69736 27.79657-55.69736 27.35052-56.14339 27.35052-56.69363 27.35052-57.24387 27.79657-57.68991 28.3468-57.68991 28.89703-57.68991 29.34308-57.24387 29.34308-56.69363ZM28.3468-56.69363"/>
<use data-text="(" xlink:href="#font_3_41" transform="matrix(11.9552,0,0,-11.9552,232.897,578.25198)"/>
<use data-text="0" xlink:href="#font_3_49" transform="matrix(11.9552,0,0,-11.9552,236.87808,578.25198)"/>
<use data-text="." xlink:href="#font_3_47" transform="matrix(11.9552,0,0,-11.9552,242.85569,578.25198)"/>
<use data-text="2" xlink:href="#font_3_51" transform="matrix(11.9552,0,0,-11.9552,245.84449,578.25198)"/>
<use data-text="5" xlink:href="#font_3_54" transform="matrix(11.9552,0,0,-11.9552,251.82209,578.25198)"/>
<use data-text="," xlink:href="#font_3_45" transform="matrix(11.9552,0,0,-11.9552,257.79969,578.25198)"/>
<use data-text="&#x2212;" xlink:href="#font_3_1151" transform="matrix(11.9552,0,0,-11.9552,262.77305,578.25198)"/>
<use data-text="0" xlink:href="#font_3_49" transform="matrix(11.9552,0,0,-11.9552,270.96235,578.25198)"/>
<use data-text="." xlink:href="#font_3_47" transform="matrix(11.9552,0,0,-11.9552,276.93995,578.25198)"/>
<use data-text="5" xlink:href="#font_3_54" transform="matrix(11.9552,0,0,-11.9552,279.92875,578.25198)"/>
<use data-text=")" xlink:href="#font_3_42" transform="matrix(11.9552,0,0,-11.9552,285.90635,578.25198)"/>
<path transform="matrix(1,0,0,-1,200.366,518.50399)" d="M.99628-113.38728C.99628-112.83704 .55023-112.391 0-112.391-.55023-112.391-.99628-112.83704-.99628-113.38728-.99628-113.93752-.55023-114.38356 0-114.38356 .55023-114.38356 .99628-113.93752 .99628-113.38728ZM0-113.38728"/>
<path transform="matrix(1,0,0,-1,200.366,518.50399)" stroke-width=".3985" stroke-linecap="butt" stroke-miterlimit="10" stroke-linejoin="miter" fill="none" stroke="#000000" d="M.99628-113.38728C.99628-112.83704 .55023-112.391 0-112.391-.55023-112.391-.99628-112.83704-.99628-113.38728-.99628-113.93752-.55023-114.38356 0-114.38356 .55023-114.38356 .99628-113.93752 .99628-113.38728ZM0-113.38728"/>
<use data-text="(" xlink:href="#font_3_41" transform="matrix(11.9552,0,0,-11.9552,163.094,634.87399)"/>
<use data-text="0" xlink:href="#font_3_49" transform="matrix(11.9552,0,0,-11.9552,167.07508,634.87399)"/>
<use data-text="," xlink:href="#font_3_45" transform="matrix(11.9552,0,0,-11.9552,173.05268,634.87399)"/>
<use data-text="&#x2212;" xlink:href="#font_3_1151" transform="matrix(11.9552,0,0,-11.9552,178.02603,634.87399)"/>
<use data-text="1" xlink:href="#font_3_50" transform="matrix(11.9552,0,0,-11.9552,186.21535,634.87399)"/>
<use data-text=")" xlink:href="#font_3_42" transform="matrix(11.9552,0,0,-11.9552,192.19295,634.87399)"/>
<path transform="matrix(1,0,0,-1,200.366,518.50399)" d="M.99628 0C.99628 .55023 .55023 .99628 0 .99628-.55023 .99628-.99628 .55023-.99628 0-.99628-.55023-.55023-.99628 0-.99628 .55023-.99628 .99628-.55023 .99628 0ZM0 0"/>
<path transform="matrix(1,0,0,-1,200.366,518.50399)" stroke-width=".3985" stroke-linecap="butt" stroke-miterlimit="10" stroke-linejoin="miter" fill="none" stroke="#000000" d="M.99628 0C.99628 .55023 .55023 .99628 0 .99628-.55023 .99628-.99628 .55023-.99628 0-.99628-.55023-.55023-.99628 0-.99628 .55023-.99628 .99628-.55023 .99628 0ZM0 0"/>
<use data-text="3" xlink:href="#font_4_20" transform="matrix(11.9552,0,0,-11.9552,204.649,727.888)"/>
</g>
</svg>
