<svg xmlns="http://www.w3.org/2000/svg" xmlns:xlink="http://www.w3.org/1999/xlink" xmlns:inkscape="http://www.inkscape.org/namespaces/inkscape" version="1.1" width="312" height="728" viewBox="0 0 312 728">
<defs>
<clipPath id="clip_1">
<path transform="matrix(1,0,0,-1,-140,770)" d="M0 0H595.28V841.89H0Z"/>
</clipPath>
<path id="font_2_40" d="M.7549896 .28741456H.41099549V.26242066C.49699403 .25743104 .5130005 .24041748 .5130005 .18843079V.09942627C.5130005 .048431398 .48799134 .014434814 .4169922 .014434814 .33999635 .014434814 .29699708 .043441774 .2619934 .10142517 .22898865 .1564331 .21398926 .23542786 .21398926 .33842469 .21398926 .54541018 .28199769 .6584015 .397995 .6584015 .44499208 .6584015 .49299623 .6403961 .5359955 .60240176 .57899478 .56440737 .5970001 .5294037 .6319885 .45341493H.6569977V.68840029H.6299896C.61499026 .6524048 .6049957 .642395 .58599856 .642395 .57598879 .642395 .5629883 .6464081 .5399933 .6564026 .48199464 .68040469 .43699647 .69140627 .3849945 .69140627 .18499756 .69140627 .036987306 .53041079 .036987306 .3314209 .036987306 .11743164 .19099427-.018554688 .3919983-.018554688 .49598695-.018554688 .60398867 .006439209 .6689911 .044433595V.16242981C.6689911 .22541809 .6799927 .25442506 .7549896 .26242066V.28741456Z"/>
<path id="font_2_83" d="M.21798706 .4609375H.027999878V.43693543C.070999149 .43093873 .08299255 .41993714 .08299255 .37294007V.083984378C.08299255 .04298401 .07299805 .03199768 .0289917 .023986817V0H.2939911V.023986817C.23298645 .02798462 .22200012 .041992189 .22200012 .10597229V.28295899C.22200012 .34194947 .24798584 .38693238 .2829895 .38693238 .29100038 .38693238 .2999878 .38194276 .31098939 .36393739 .32798768 .33595277 .34498597 .325943 .37098695 .325943 .4079895 .325943 .43399049 .35394288 .43399049 .39393617 .43399049 .4396515 .3999939 .47265626 .35299684 .47265626 .30299378 .47265626 .2649994 .44665528 .21798706 .37864686V.4609375Z"/>
<path id="font_2_66" d="M.47299195 .06422424 .46299745 .054244996C.45999146 .051254274 .45700074 .050247194 .45199586 .050247194 .43798829 .050247194 .43099977 .06123352 .43099977 .07821655V.33880616C.43099977 .42466737 .35699464 .47265626 .23498535 .47265626 .12199402 .47265626 .04399109 .42666627 .04399109 .3467865 .04399109 .30485536 .067993167 .27890016 .10899353 .27890016 .14898682 .27890016 .1769867 .30485536 .1769867 .33880616 .1769867 .3527832 .17098999 .36476136 .1579895 .3807373 .14898682 .3907318 .14698792 .39772035 .14698792 .40370179 .14698792 .42767335 .17599488 .4406433 .21199036 .4406433 .2709961 .4406433 .29299928 .4116974 .29299928 .34779359V.27989198C.1769867 .24694824 .12998963 .22897339 .09199524 .20401001 .04699707 .174057 .024993897 .13612366 .024993897 .0921936 .024993897 .018295289 .070999149-.013671875 .1349945-.013671875 .19299317-.013671875 .23899842 .0053253176 .2939911 .055252077 .30499269 .0043182375 .32699586-.013671875 .37599183-.013671875 .4189911-.013671875 .44999696 .002319336 .48799134 .043258668L.47299195 .06422424M.29299928 .09718323C.2709961 .066223148 .24699402 .057235719 .22299195 .057235719 .19299317 .057235719 .17098999 .080200199 .17098999 .12414551 .17098999 .18205261 .21299744 .22299195 .29299928 .24494934V.09718323Z"/>
<path id="font_2_81" d="M.21199036 .4609375H.019989014V.43693543C.06399536 .4299469 .07499695 .4159546 .07499695 .37199403V-.1177063C.07499695-.15969849 .066986087-.17269898 .018997193-.18070984V-.20469666H.29100038V-.18070984C.22999573-.17770386 .21398926-.14570618 .21398926-.078704837V.047286989C.2619934 .000289917 .2869873-.0126953129 .33198548-.0126953129 .45199586-.0126953129 .5239868 .09425354 .5239868 .24909973 .5239868 .39564515 .45399476 .47265626 .34298707 .47265626 .28399659 .47265626 .24598694 .4516449 .21199036 .39164735V.4609375M.21398926 .34576417C.21398926 .35176087 .22099304 .36573792 .23199463 .3787079 .2519989 .40266419 .2769928 .4156494 .2999878 .4156494 .35099793 .4156494 .37599183 .3567505 .37599183 .23396302 .37599183 .096206668 .34599305 .042297365 .29100038 .042297365 .2579956 .042297365 .22898865 .069244388 .21398926 .107177738V.34576417Z"/>
<path id="font_2_73" d="M.5339966 0V.023986817C.49899293 .023986817 .4850006 .04096985 .4850006 .08692932V.3367157C.4850006 .4156494 .43699647 .47265626 .35499574 .47265626 .3019867 .47265626 .25698854 .4536438 .20799256 .3956604V.67578127H.01499939V.6517792C.06098938 .64276126 .068984989 .6387634 .068984989 .59072878V.08892822C.068984989 .032974245 .06098938 .032974245 .015991211 .023986817V0H.2559967V.023986817C.21899414 .0289917 .20799256 .04397583 .20799256 .08493042V.34770204C.20799256 .35169984 .21499634 .36169435 .22499085 .37167359 .24699402 .3936615 .2709961 .4056549 .29499818 .4056549 .33399964 .4056549 .34599305 .3796692 .34599305 .30873109V.08493042C.34599305 .04397583 .33399964 .02798462 .2999878 .023986817V0H.5339966Z"/>
<path id="font_2_20" d="M.057998659 .5244446C.09599304 .5864563 .13198853 .60746768 .18399048 .60746768 .24699402 .60746768 .2829895 .5744629 .2829895 .5044403 .2829895 .4454193 .24699402 .40341188 .1519928 .3734131V.35639955C.23498535 .32739259 .2689972 .313385 .30499269 .27938844 .33599855 .25038148 .35398866 .20635987 .35398866 .15835572 .35398866 .08633423 .31599427 .036315919 .2559967 .036315919 .23199463 .036315919 .20899964 .044326784 .1769867 .079330448 .13999939 .12034607 .11199951 .13635254 .08099365 .13635254 .042999269 .13635254 .015991211 .1103363 .015991211 .07632446 .015991211 .022323609 .07598877-.013671875 .16799927-.013671875 .34098817-.013671875 .46798707 .1003418 .46798707 .24636841 .46798707 .32739259 .42199708 .39741517 .34599305 .42442323 .40699769 .45143128 .42999269 .5054474 .42999269 .55145266 .42999269 .62246707 .36799623 .68847659 .2659912 .68847659 .16699219 .68847659 .08999634 .6384735 .036987306 .53645327L.057998659 .5244446Z"/>
<path id="font_2_27" d="M.25099183 .38667298C.25099183 .43367005 .21299744 .4716797 .16699219 .4716797 .11898804 .4716797 .08198547 .43467713 .08198547 .3876648 .08198547 .3396759 .11898804 .30267335 .1659851 .30267335 .21299744 .30267335 .25099183 .3396759 .25099183 .38667298M.25099183 .07130432C.25099183 .11729431 .21299744 .15629578 .16699219 .15629578 .11999512 .15629578 .08198547 .11830139 .08198547 .07130432 .08198547 .02330017 .117996219-.0126953129 .1659851-.0126953129 .21299744-.0126953129 .25099183 .024291993 .25099183 .07130432Z"/>
<path id="font_3_41" d="M.3039856-.16122437C.1639862-.04423523 .13398743 .06877136 .13398743 .254776 .13398743 .44776917 .16499329 .5407715 .3039856 .6597748L.29499818 .67578127C.1349945 .58078 .04798889 .43676759 .04798889 .25177003 .04798889 .08177185 .13398743-.0872345 .2919922-.17723084L.3039856-.16122437Z"/>
<path id="font_3_2520" d="M.30499269 .28834535 .2849884 .3433838C.272995 .3764038 .2539978 .41740418 .20999146 .44140626L.07798767 .4084015 .08099365 .39039613C.09098816 .39439393 .10598755 .39639283 .11898804 .39639283 .17399597 .39639283 .19999695 .35539247 .21699524 .3073578L.25 .21530152 .18499756 .11424255C.15299988 .065216068 .1269989 .0552063 .114990238 .0552063 .08999634 .0552063 .09399414 .07521057 .067993167 .07521057 .042999269 .07521057 .02999878 .05419922 .02999878 .038208009 .02999878 .016204834 .04598999-.0087890629 .08198547-.0087890629 .13798523-.0087890629 .16699219 .034210206 .19898987 .083221439L.2619934 .18127442 .3019867 .06820679C.31498719 .032196046 .33399964-.0087890629 .375-.0087890629 .43299867-.0087890629 .47799684 .08721924 .48999024 .10223389L.47599793 .11224365C.45498658 .06921387 .43099977 .0552063 .4149933 .0552063 .36999513 .0552063 .34700013 .19029236 .31698609 .25231935L.37199403 .33737184C.38598634 .35939027 .39698792 .37539674 .4269867 .37539674 .44400025 .37539674 .44898988 .36639405 .47099305 .36639405 .49699403 .36639405 .5099945 .3894043 .5099945 .4084015 .5099945 .42939759 .49299623 .44140626 .46099855 .44140626 .41099549 .44140626 .37599183 .3973999 .34999085 .35739137L.30499269 .28834535Z"/>
<path id="font_3_44" d="M.6359863 .22012329V.2861328H.375V.54711917H.30899049V.2861328H.04798889V.22012329H.30899049V-.040878297H.375V.22012329H.6359863Z"/>
<path id="font_3_54" d="M.43798829 .68110659 .42900086 .6880951C.41299439 .667099 .4039917 .6621094 .3809967 .6621094H.17399597L.06498718 .4251709C.06498718 .4251709 .06399536 .42216493 .06399536 .42016603 .06399536 .4141693 .066986087 .4121704 .07598877 .4121704 .17199707 .4121704 .24198914 .380188 .2889862 .3421936 .33399964 .30621339 .35598756 .2562256 .35598756 .19226074 .35598756 .106292728 .29100038 .02331543 .22099304 .02331543 .20098877 .02331543 .17799378 .032318117 .1499939 .05531311 .117996219 .08129883 .09899902 .08630371 .07598877 .08630371 .04798889 .08630371 .0309906 .07330322 .0309906 .048309328 .0309906 .010314941 .08299255-.013671875 .1579895-.013671875 .22599793-.013671875 .2809906 .0013275147 .32798768 .035308839 .3959961 .08529663 .42599488 .14727783 .42599488 .24324036 .42599488 .29621888 .4169922 .334198 .3909912 .37019349 .33399964 .4491577 .28399659 .47114564 .14099121 .49813844L.18099976 .58309939H.375C.3909912 .58309939 .39898683 .58909609 .4019928 .59609988L.43798829 .68110659Z"/>
<path id="font_3_42" d="M.0289917 .6597748C.17399597 .54577639 .19898987 .43077088 .19898987 .24377442 .19898987 .04977417 .17098999-.04423523 .0289917-.16122437L.037994386-.17723084C.19699097-.08023071 .2849884 .061767579 .2849884 .24676514 .2849884 .41677857 .19400025 .58377078 .040985109 .67578127L.0289917 .6597748Z"/>
<path id="font_3_2521" d="M.269989 .30682374C.26098634 .38082887 .2539978 .40682984 .23098755 .4398346L.08099365 .41482545 .08299255 .39883424C.09199524 .39982606 .10798645 .40283204 .11898804 .40283204 .1749878 .40283204 .18399048 .34283448 .18899536 .2978363L.22698975-.016174317C.20098877-.056167604 .14399719-.11816406 .1269989-.11816406 .11099243-.11816406 .11299133-.08717346 .069992069-.08717346 .056991579-.08717346 .02999878-.09817505 .02999878-.12817383 .02999878-.1521759 .04899597-.1831665 .085998538-.1831665 .1539917-.1831665 .21899414-.08517456 .2919922 .0068359377 .33399964 .059829713 .49598695 .2998352 .49598695 .37782289 .49598695 .41682435 .47099305 .4398346 .43899537 .4398346 .4099884 .4398346 .3919983 .42182923 .3919983 .39982606 .3919983 .36183167 .44400025 .3518219 .44400025 .3308258 .44400025 .3128357 .43598939 .29283143 .41600038 .25582887 .3939972 .21482849 .35899354 .15483094 .2979889 .07182312L.269989 .30682374Z"/>
<path id="font_3_1151" d="M.62098696 .22012329V.2861328H.06399536V.22012329H.62098696Z"/>
<path id="font_3_50" d="M.3939972 0V.01499939C.31900025 .01499939 .29899598 .032989503 .29899598 .07597351V.67277529L.2899933 .67578127 .11099243 .5847931V.5708008L.13798523 .5807953C.1559906 .5877991 .17298889 .59280398 .18299866 .59280398 .20399475 .59280398 .21299744 .57780459 .21299744 .543808V.0949707C.21299744 .039978029 .19198609 .018997193 .117996219 .01499939V0H.3939972Z"/>
<path id="font_3_51" d="M.47399903 .13696289 .45999146 .1429596C.4269867 .08699036 .4059906 .07598877 .3639984 .07598877H.12998963L.29499818 .2519226C.38398744 .34588624 .4229889 .42085267 .4229889 .4998169 .4229889 .59877017 .35099793 .67578127 .23799134 .67578127 .114990238 .67578127 .050994874 .5937805 .02999878 .4768219L.050994874 .47183229C.09098816 .5697937 .12599182 .6017761 .19799805 .6017761 .2829895 .6017761 .33699037 .55178835 .33699037 .4608307 .33699037 .37586976 .30099488 .29989625 .20698548 .200943L.0289917 .011993408V0H.41999818L.47399903 .13696289Z"/>
<path id="font_3_62" d="M.6369934 .31973268V.3857422H.04798889V.31973268H.6369934M.6369934 .12011719V.18611145H.04798889V.12011719H.6369934Z"/>
<path id="font_3_49" d="M.47599793 .3300476C.47599793 .53486636 .3849945 .67578127 .2539978 .67578127 .09298706 .67578127 .023986817 .5128937 .023986817 .3360443 .023986817 .17218018 .07899475-.013671875 .25-.013671875 .41299439-.013671875 .47599793 .15818787 .47599793 .3300476M.37998963 .32505799C.37998963 .12722779 .33499146 .012313843 .25 .012313843 .1639862 .012313843 .11999512 .1262207 .11999512 .32904054 .11999512 .5318756 .16499329 .6497803 .24798584 .6497803 .33599855 .6497803 .37998963 .53286746 .37998963 .32505799Z"/>
<path id="font_4_48" d="M.6879883 .33103944C.6879883 .5288696 .5569916 .67578127 .36099244 .67578127 .1659851 .67578127 .033996583 .53686526 .033996583 .3340454 .033996583 .1262207 .16699219-.013671875 .36099244-.013671875 .5529938-.013671875 .6879883 .12522888 .6879883 .33103944M.57398989 .33703614C.57398989 .21714783 .54599 .12322998 .4909973 .07028198 .45599366 .03730774 .4119873 .022323609 .3619995 .022323609 .31599427 .022323609 .27198792 .03630066 .23799134 .067276 .1769867 .12322998 .147995 .21315003 .147995 .3320465 .147995 .42695619 .17399597 .52388 .21699524 .5728302 .2559967 .6177826 .30599977 .6397705 .3600006 .6397705 .40699769 .6397705 .44699098 .6227875 .48298646 .59280398 .5399933 .54486086 .57398989 .450943 .57398989 .33703614Z"/>
<path id="font_3_2469" d="M.48399354 0V.023986817C.46798707 .0289917 .46099855 .032989503 .45399476 .04399109L.30599977 .2719574 .40699769 .39793397C.42599488 .42092896 .44599916 .43193055 .47698976 .43693543V.4609375H.30899049V.43693543L.32899476 .43493653C.35198976 .43293763 .3600006 .42793275 .3600006 .41293336 .3600006 .39793397 .34899903 .38394166 .32199098 .348938L.28599549 .302948C.28199769 .3089447 .2769928 .31495667 .272995 .3199463 .23999024 .36294557 .21499634 .40493775 .21499634 .41793824 .21499634 .42993165 .22898865 .43592835 .2619934 .43693543V.4609375H.011993408V.43693543C.037994386 .43293763 .04399109 .42793275 .06399536 .39793397L.19198609 .20095825C.1769867 .18296814 .18499756 .19197083 .16999817 .17297364 .15499878 .15397644 .14099121 .13597107 .1269989 .11697388 .070999149 .041992189 .050994874 .025985718 .01399231 .023986817V0H.18299866V.023986817C.14698792 .025985718 .1329956 .032989503 .1329956 .04798889 .1329956 .0639801 .1579895 .10397339 .19699097 .15097046 .20298767 .15797425 .20799256 .16497803 .21299744 .17097473 .22599793 .14997864 .23999024 .12898255 .25498963 .10798645 .2789917 .07298279 .28799439 .055984498 .28799439 .04399109 .28799439 .03199768 .2749939 .025985718 .24299622 .023986817V0H.48399354Z"/>
<path id="font_3_3371" d="M.46998597 .67578127H.147995L.050994874 .33099366C.14199829 .32600404 .18798828 .32200624 .23098755 .30900575 .32299806 .2800293 .37298585 .22506714 .37298585 .15710449 .37298585 .09614563 .32899476 .05317688 .272995 .05317688 .25 .05317688 .21798706 .06517029 .18299866 .09515381 .14199829 .13012696 .10998535 .14112854 .08299255 .14112854 .04798889 .14112854 .021987915 .11514282 .021987915 .08015442 .021987915 .033172609 .07998657-.0078125 .16899109-.0078125 .33399964-.0078125 .45098878 .088150028 .45098878 .23405457 .45098878 .33798219 .3869934 .41693116 .27799989 .44792176 .23999024 .45890809 .20899964 .46290589 .1269989 .4678955L.14898682 .5488434H.4249878L.46998597 .67578127Z"/>
<path id="font_3_2470" d="M.48199464 .4609375H.32998658V.43693543C.37298585 .43493653 .38398744 .42793275 .38398744 .40393067 .38398744 .39193727 .38198854 .38093568 .37298585 .3549347L.30499269 .16693115 .23298645 .3529358C.22200012 .38093568 .21299744 .40693666 .21299744 .41093446 .21299744 .42593385 .22399903 .43392945 .24899292 .43592835L.2649994 .43693543V.4609375H.015991211V.43693543C.037994386 .43392945 .04399109 .43093873 .049987794 .42292787 .05899048 .41093446 .09700012 .3269348 .116989139 .27693177L.23599243-.013076782 .21798706-.066085819C.20098877-.11608887 .17599488-.14808655 .1519928-.14808655 .14299011-.14808655 .1349945-.14009094 .1349945-.13108826 .1349945-.13108826 .1349945-.12808228 .13598633-.12509156 .13699341-.12008667 .13798523-.11508179 .13798523-.111083988 .13798523-.08207703 .11199951-.05908203 .07798767-.05908203 .039993287-.05908203 .015991211-.08808899 .015991211-.12608338 .015991211-.17308045 .055999757-.20507813 .11299133-.20507813 .14698792-.20507813 .17599488-.1940918 .19699097-.17208863 .21798706-.14907837 .23899842-.110076908 .27398683-.016082764L.42199708 .3819275C.43798829 .42492677 .45098878 .43293763 .48199464 .43693543V.4609375Z"/>
<path id="font_3_3367" d="M.44099427 0V.023986817C.34999085 .025985718 .33399964 .041992189 .33399964 .117996219V.6879883H.31599427L.06498718 .57899478V.5529938L.084991458 .5609894C.11299133 .57199099 .13699341 .57699587 .1499939 .57699587 .1749878 .57699587 .18598938 .55400088 .18598938 .5069885V.1289978C.18598938 .041992189 .16699219 .024993897 .067993167 .023986817V0H.44099427Z"/>
<path id="font_3_3368" d="M.47799684 .21099854H.45298768C.4269867 .13899231 .4039917 .1329956 .2999878 .1329956H.1599884L.32199098 .2869873C.40098573 .3619995 .43598939 .42900086 .43598939 .5049896 .43598939 .6179962 .3619995 .6879883 .2539978 .6879883 .1539917 .6879883 .07798767 .6239929 .0309906 .48399354H.05899048C.08999634 .54599 .1329956 .57398989 .18099976 .57398989 .2599945 .57398989 .2999878 .5149994 .2999878 .44699098 .2999878 .40299989 .2809906 .34799195 .24899292 .29899598 .19799805 .22099304 .16299439 .1789856 .016998291 .022994996V0H.43199159L.47799684 .21099854Z"/>
<path id="font_3_3366" d="M.47599793 .33721925C.47599793 .5031891 .4119873 .6881561 .25299073 .6881561 .08198547 .6881561 .023986817 .49717713 .023986817 .33422853 .023986817 .12626648 .11999512-.0126953129 .25099183-.0126953129 .3809967-.0126953129 .47599793 .12626648 .47599793 .33721925M.31799317 .22424317C.31799317 .075286868 .30099488 .015304565 .25099183 .015304565 .20098877 .015304565 .18199158 .075286868 .18199158 .22424317V.44918824C.18199158 .6011658 .19999695 .66015627 .24899292 .66015627 .2979889 .66015627 .31799317 .5961609 .31799317 .44918824V.22424317Z"/>
<path id="font_3_45" d="M.08299255-.14086914C.1519928-.10786438 .19499207-.04486084 .19499207 .015136719 .19499207 .06713867 .1599884 .102127078 .114990238 .102127078 .07899475 .102127078 .054992677 .07913208 .054992677 .045135499 .054992677 .011138916 .07598877-.005859375 .11299133-.005859375 .12399292-.0059661867 .13398743-.001953125 .14199829-.001953125 .1499939-.001953125 .1559906-.007965088 .1559906-.014953613 .1559906-.047958375 .12799073-.08496094 .07299805-.1219635L.08299255-.14086914Z"/>
<path id="font_3_55" d="M.44599916 .68470767C.30799867 .66970828 .22898865 .6457062 .14299011 .55570986 .07199097 .48269654 .033996583 .38771058 .033996583 .27960206 .033996583 .20951844 .052993776 .138443 .08099365 .087402347 .115997318 .023330689 .1789856-.013671875 .2579956-.013671875 .32398988-.013671875 .37998963 .013320923 .4169922 .05937195 .44999696 .09941101 .46798707 .1554718 .46798707 .2195282 .46798707 .34866334 .3959961 .42871095 .2789917 .42871095 .23498535 .42871095 .20098877 .42170716 .1519928 .3836975 .1789856 .5346985 .29100038 .6427002 .44799806 .6687012L.44599916 .68470767M.37799073 .18850708C.37799073 .08639526 .34098817 .014328003 .2689972 .014328003 .1749878 .014328003 .1269989 .11442566 .1269989 .2665863 .1269989 .3586731 .18598938 .3827057 .24299622 .3827057 .33599855 .3827057 .37799073 .31663514 .37799073 .18850708Z"/>
<path id="font_2_21" d="M.47599793 .14408875V.25515748H.4119873V.68847659H.33198548L.018997193 .25717164V.14408875H.2669983V0H.4119873V.14408875H.47599793M.2679901 .25515748H.05999756L.2679901 .54937747V.25515748Z"/>
<path id="font_3_57" d="M.44499208 .15519715C.44499208 .23512268 .41299439 .28907777 .2899933 .37101747 .3889923 .42396546 .42399598 .45793153 .42399598 .53286746 .42399598 .6108093 .35499574 .67578127 .2559967 .67578127 .14498902 .67578127 .06199646 .61579897 .06199646 .5198822 .06199646 .4549408 .08299255 .41697694 .18598938 .3320465 .07899475 .2571106 .055999757 .21813965 .055999757 .14920044 .055999757 .055282594 .1349945-.013671875 .24798584-.013671875 .36799623-.013671875 .44499208 .05229187 .44499208 .15519715M.35499574 .53286746C.35499574 .470932 .32899476 .42897035 .26098634 .3889923 .17298889 .4409485 .13598633 .48690797 .13598633 .54885867 .13598633 .6108093 .1789856 .6477661 .24598694 .6477661 .31399537 .6477661 .35499574 .60180667 .35499574 .53286746M.2709961 .27209474C.33898927 .22613526 .36898805 .18617249 .36898805 .1242218 .36898805 .059280397 .32398988 .014328003 .25898744 .014328003 .18299866 .014328003 .13198853 .06626892 .13198853 .15820313 .13198853 .22314453 .15299988 .26409913 .21199036 .3120575L.2709961 .27209474Z"/>
<path id="font_3_3372" d="M.46998597 .687973C.32099916 .66096499 .25498963 .6479645 .16699219 .5709686 .07798767 .4929657 .027999878 .39396668 .027999878 .2740631 .027999878 .097229007 .11898804-.0126953129 .2599945-.0126953129 .3889923-.0126953129 .47499085 .082229617 .47499085 .22210694 .47499085 .34300233 .4019928 .42097474 .28799439 .42097474 .2559967 .42097474 .23399353 .41696168 .20399475 .40397645 .24198914 .54896548 .32398988 .63197329 .46998597 .66197207V.687973M.32299806 .16516114C.32299806 .043273927 .30699159 .014297485 .2619934 .014297485 .23799134 .014297485 .22099304 .024291993 .21099854 .043273927 .19400025 .07624817 .18399048 .14916992 .18399048 .24508667 .18399048 .30303956 .18998719 .35998536 .19699097 .36598207 .20399475 .37197877 .21798706 .37597657 .23399353 .37597657 .2999878 .37597657 .32299806 .3210144 .32299806 .16516114Z"/>
<path id="font_3_3374" d="M.47200013 .18727112C.47200013 .2712555 .43499757 .3262329 .32199098 .40322877 .4169922 .43222047 .45799256 .47920228 .45799256 .54319766 .45799256 .6231842 .3880005 .6881714 .2630005 .6881714 .125 .6881714 .038986207 .6191864 .038986207 .51319888 .038986207 .43721009 .07798767 .38423158 .1769867 .3252411 .08299255 .3022461 .027999878 .24624634 .027999878 .15727234 .027999878 .05029297 .11299133-.0126953129 .23999024-.0126953129 .3849945-.0126953129 .47200013 .06729126 .47200013 .18727112M.33898927 .5372009C.33898927 .48921205 .33099366 .46621705 .2979889 .42222596 .21398926 .46520997 .16799927 .52020266 .16799927 .57618716 .16799927 .6231842 .20399475 .6591797 .25099183 .6591797 .30699159 .6591797 .33898927 .60517886 .33898927 .5372009M.33299256 .12727356C.33299256 .056289674 .29599 .019302369 .24198914 .019302369 .18099976 .019302369 .14898682 .072280887 .14898682 .16127014 .14898682 .20425415 .15899658 .24624634 .19999695 .3062439 .30899049 .23326111 .33299256 .20126343 .33299256 .12727356Z"/>
<path id="font_3_52" d="M.06098938 .50987246C.101989749 .58380129 .147995 .61576846 .20999146 .61576846 .27598573 .61576846 .31799317 .58180239 .31799317 .51387026 .31799317 .45292665 .28599549 .40795899 .23699951 .37998963 .21699524 .36799623 .19099427 .3570099 .15299988 .34402467V.33003236C.20999146 .33003236 .23298645 .32704164 .25498963 .3200531 .32398988 .3000641 .35899354 .2511139 .35899354 .17518616 .35899354 .09025574 .30299378 .022323609 .22898865 .022323609 .20098877 .022323609 .17999268 .027313233 .14299011 .05329895 .114990238 .073272708 .09899902 .07926941 .08198547 .07926941 .05899048 .07926941 .040985109 .06428528 .040985109 .043304445 .040985109 .0073242189 .07998657-.013671875 .15299988-.013671875 .24198914-.013671875 .33699037 .015319824 .3849945 .07926941 .4139862 .11723328 .43099977 .16618347 .43099977 .21913147 .43099977 .27108766 .4149933 .31704713 .3869934 .34802247 .3659973 .36999513 .34799195 .38198854 .3039856 .40097047 .37098695 .44093324 .39698792 .4908905 .39698792 .5388489 .39698792 .6207733 .33399964 .67578127 .24099732 .67578127 .13699341 .67578127 .07398987 .6087799 .04499817 .51387026L.06098938 .50987246Z"/>
<path id="font_3_47" d="M.18099976 .04324341C.18099976 .07325745 .15499878 .100250247 .12599182 .100250247 .09498596 .100250247 .069992069 .07525635 .069992069 .04425049 .069992069 .013244629 .09399414-.0107421879 .125-.0107421879 .15499878-.0107421879 .18099976 .014251709 .18099976 .04324341Z"/>
<path id="font_4_19" d="M.47399903 .13696289 .45999146 .1429596C.4269867 .08699036 .4059906 .07598877 .3639984 .07598877H.12998963L.29499818 .2519226C.38398744 .34588624 .4229889 .42085267 .4229889 .4998169 .4229889 .59877017 .35099793 .67578127 .23799134 .67578127 .114990238 .67578127 .050994874 .5937805 .02999878 .4768219L.050994874 .47183229C.09098816 .5697937 .12599182 .6017761 .19799805 .6017761 .2829895 .6017761 .33699037 .55178835 .33699037 .4608307 .33699037 .37586976 .30099488 .29989625 .20698548 .200943L.0289917 .011993408V0H.41999818L.47399903 .13696289Z"/>
</defs>
<g clip-path="url(#clip_1)">
<use data-text="G" xlink:href="#font_2_40" transform="matrix(17.2154,0,0,-17.2154,44.622,15.078985)"/>
<use data-text="r" xlink:href="#font_2_83" transform="matrix(17.2154,0,0,-17.2154,58.015588,15.078985)"/>
<use data-text="a" xlink:href="#font_2_66" transform="matrix(17.2154,0,0,-17.2154,65.607578,15.078985)"/>
<use data-text="p" xlink:href="#font_2_81" transform="matrix(17.2154,0,0,-17.2154,74.21527,15.078985)"/>
<use data-text="h" xlink:href="#font_2_73" transform="matrix(17.2154,0,0,-17.2154,83.78703,15.078985)"/>
<use data-text="3" xlink:href="#font_2_20" transform="matrix(17.2154,0,0,-17.2154,97.64543,15.078985)"/>
<use data-text=":" xlink:href="#font_2_27" transform="matrix(17.2154,0,0,-17.2154,106.25313,15.078985)"/>
<use data-text="(" xlink:href="#font_3_41" transform="matrix(17.2154,0,0,-17.2154,117.725009,15.078985)"/>
<use data-text="&#x1d465;" xlink:href="#font_3_2520" transform="matrix(17.2154,0,0,-17.2154,123.45773,15.078985)"/>
<use data-text="+" xlink:href="#font_3_44" transform="matrix(17.2154,0,0,-17.2154,136.74803,15.078985)"/>
<use data-text="5" xlink:href="#font_3_54" transform="matrix(17.2154,0,0,-17.2154,152.36241,15.078985)"/>
<use data-text=")" xlink:href="#font_3_42" transform="matrix(17.2154,0,0,-17.2154,160.97011,15.078985)"/>
<use data-text="+" xlink:href="#font_3_44" transform="matrix(17.2154,0,0,-17.2154,170.52466,15.078985)"/>
<use data-text="(" xlink:href="#font_3_41" transform="matrix(17.2154,0,0,-17.2154,186.13904,15.078985)"/>
<use data-text="&#x1d466;" xlink:href="#font_3_2521" transform="matrix(17.2154,0,0,-17.2154,191.87177,15.078985)"/>
<use data-text="&#x2212;" xlink:href="#font_3_1151" transform="matrix(17.2154,0,0,-17.2154,204.24964,15.078985)"/>
<use data-text="1" xlink:href="#font_3_50" transform="matrix(17.2154,0,0,-17.2154,219.86399,15.078985)"/>
<use data-text=")" xlink:href="#font_3_42" transform="matrix(17.2154,0,0,-17.2154,228.47168,15.078985)"/>
<use data-text="2" xlink:href="#font_3_51" transform="matrix(11.9552,0,0,-11.9552,234.212,8.191985)"/>
<use data-text="=" xlink:href="#font_3_62" transform="matrix(17.2154,0,0,-17.2154,245.47101,15.078985)"/>
<use data-text="0" xlink:href="#font_3_49" transform="matrix(17.2154,0,0,-17.2154,262.03224,15.078985)"/>
<path transform="matrix(1,0,0,-1,255.44699,138.50199)" stroke-width=".79701" stroke-linecap="butt" stroke-miterlimit="10" stroke-linejoin="miter" fill="none" stroke="#000000" d="M-181.42029 0H41.2447"/>
<path transform="matrix(1,0,0,-1,294.22663,138.50199)" d="M5.44046 0 1.28699 1.5706 2.66432 0 1.28699-1.5706Z"/>
<path transform="matrix(1,0,0,-1,294.22663,138.50199)" stroke-width=".79701" stroke-linecap="butt" stroke-miterlimit="10" stroke-linejoin="miter" fill="none" stroke="#000000" d="M5.44046 0 1.28699 1.5706 2.66432 0 1.28699-1.5706Z"/>
<use data-text="&#x1d465;" xlink:href="#font_3_2520" transform="matrix(11.9552,0,0,-11.9552,305.185,141.08399)"/>
<path transform="matrix(1,0,0,-1,255.44699,138.50199)" stroke-width=".79701" stroke-linecap="butt" stroke-miterlimit="10" stroke-linejoin="miter" fill="none" stroke="#000000" d="M0-45.35507V86.59978"/>
<path transform="matrix(0,-1,-1,-0,255.44699,54.367288)" d="M5.44046 0 1.28699 1.5706 2.66432 0 1.28699-1.5706Z"/>
<path transform="matrix(0,-1,-1,-0,255.44699,54.367288)" stroke-width=".79701" stroke-linecap="butt" stroke-miterlimit="10" stroke-linejoin="miter" fill="none" stroke="#000000" d="M5.44046 0 1.28699 1.5706 2.66432 0 1.28699-1.5706Z"/>
<use data-text="&#x1d466;" xlink:href="#font_3_2521" transform="matrix(11.9552,0,0,-11.9552,252.482,41.220987)"/>
<use data-text="O" xlink:href="#font_4_48" transform="matrix(11.9552,0,0,-11.9552,244.32799,149.26299)"/>
<path transform="matrix(1,0,0,-1,255.44699,138.50199)" stroke-width="1.59404" stroke-linecap="butt" stroke-miterlimit="10" stroke-linejoin="miter" fill="none" stroke="#ff0000" d="M-255.12227-34.0163-249.45496-32.87128-243.90323-31.72624-238.46707-30.58124-233.14682-29.4362-227.94182-28.2912-222.85272-27.14618-217.87921-26.00116-213.02127-24.85614-208.27925-23.7111-203.65247-22.5661-199.14159-21.42108-194.74596-20.27606-190.46623-19.13104-186.3021-17.98602-182.25386-16.841-178.32088-15.69598-174.50345-14.55096-170.80194-13.40594-167.21602-12.26093-163.74567-11.1159-160.39089-9.9709-157.15169-8.82587-154.0284-7.68085-151.02036-6.53584-148.1282-5.39081-145.35166-4.2458-142.69068-3.10077-140.14527-1.95576-137.71543-.81075-135.4015 .33426-133.20284 1.47926-131.12007 2.6243-129.15287 3.7693-127.30125 4.91432-125.56522 6.05934-123.9451 7.20436-122.4402 8.3494-121.05124 9.4944-119.77783 10.63942-118.62001 11.78444-117.57776 12.92946-116.6511 14.07448-115.84035 15.2195-115.1448 16.36452-114.56522 17.50954-114.10118 18.65456-113.75273 19.79958-113.51985 20.9446-113.4029 22.0896-113.40115 23.23463-113.51535 24.37965-113.74512 25.52467-114.0901 26.6697-114.55138 27.8147-115.12785 28.95973-115.81993 30.10474-116.62791 31.24977-117.55147 32.39479-118.59024 33.5398-119.74496 34.68483-121.01558 35.82983-122.40144 36.97487-123.90288 38.11987-125.52023 39.2649-127.25316 40.40993-129.10166 41.55493-131.06574 42.69997-133.14539 43.84497-135.3406 44.98999-137.65177 46.13501-140.07848 47.28003-142.62078 48.42505-145.27864 49.57007-148.0521 50.71509-150.9411 51.8601-153.9457 53.00513-157.06621 54.15013-160.3023 55.29517-163.65398 56.44019-167.12122 57.5852-170.70401 58.73022-174.4024 59.87523-178.2167 61.02026-182.14626 62.16527-186.19171 63.3103-190.35274 64.45532-194.62934 65.60033-199.02188 66.74536-203.52964 67.89037-208.15329 69.0354-212.89221 70.1804-217.74704 71.32542-222.71743 72.47046-227.8034 73.61546-233.00531 74.7605-238.32244 75.9055-243.75548 77.05052-249.3041 78.19554-254.96829 79.34056"/>
<use data-text="(" xlink:href="#font_3_41" transform="matrix(11.9552,0,0,-11.9552,32.855989,52.041986)" fill="#ff0000"/>
<use data-text="&#x1d431;" xlink:href="#font_3_2469" transform="matrix(11.9552,0,0,-11.9552,36.837068,52.041986)" fill="#ff0000"/>
<use data-text="+" xlink:href="#font_3_44" transform="matrix(11.9552,0,0,-11.9552,45.707826,52.041986)" fill="#ff0000"/>
<use data-text="&#x1d7d3;" xlink:href="#font_3_3371" transform="matrix(11.9552,0,0,-11.9552,56.551179,52.041986)" fill="#ff0000"/>
<use data-text=")" xlink:href="#font_3_42" transform="matrix(11.9552,0,0,-11.9552,62.528779,52.041986)" fill="#ff0000"/>
<use data-text="+" xlink:href="#font_3_44" transform="matrix(11.9552,0,0,-11.9552,69.16391,52.041986)" fill="#ff0000"/>
<use data-text="(" xlink:href="#font_3_41" transform="matrix(11.9552,0,0,-11.9552,80.00726,52.041986)" fill="#ff0000"/>
<use data-text="&#x1d432;" xlink:href="#font_3_2470" transform="matrix(11.9552,0,0,-11.9552,83.98834,52.041986)" fill="#ff0000"/>
<use data-text="&#x2212;" xlink:href="#font_3_1151" transform="matrix(11.9552,0,0,-11.9552,92.87106,52.041986)" fill="#ff0000"/>
<use data-text="&#x1d7cf;" xlink:href="#font_3_3367" transform="matrix(11.9552,0,0,-11.9552,103.71442,52.041986)" fill="#ff0000"/>
<use data-text=")" xlink:href="#font_3_42" transform="matrix(11.9552,0,0,-11.9552,109.69202,52.041986)" fill="#ff0000"/>
<use data-text="&#x1d7d0;" xlink:href="#font_3_3368" transform="matrix(8.9664,0,0,-8.9664,113.678989,47.259988)" fill="#ff0000"/>
<use data-text="=" xlink:href="#font_3_62" transform="matrix(11.9552,0,0,-11.9552,121.98099,52.041986)" fill="#ff0000"/>
<use data-text="&#x1d7ce;" xlink:href="#font_3_3366" transform="matrix(11.9552,0,0,-11.9552,133.48188,52.041986)" fill="#ff0000"/>
<path transform="matrix(1,0,0,-1,255.44699,138.50199)" stroke-width=".79701" stroke-linecap="butt" stroke-dasharray="2.98883,2.98883" stroke-miterlimit="10" stroke-linejoin="miter" fill="none" stroke="#000000" d="M-113.38768 0V22.67754H0"/>
<path transform="matrix(1,0,0,-1,255.44699,138.50199)" d="M-111.39513 22.67754C-111.39513 23.778-112.2872 24.67009-113.38768 24.67009-114.48814 24.67009-115.38023 23.778-115.38023 22.67754-115.38023 21.57706-114.48814 20.68498-113.38768 20.68498-112.2872 20.68498-111.39513 21.57706-111.39513 22.67754ZM-113.38768 22.67754"/>
<path transform="matrix(1,0,0,-1,255.44699,138.50199)" stroke-width=".3985" stroke-linecap="butt" stroke-miterlimit="10" stroke-linejoin="miter" fill="none" stroke="#000000" d="M-111.39513 22.67754C-111.39513 23.778-112.2872 24.67009-113.38768 24.67009-114.48814 24.67009-115.38023 23.778-115.38023 22.67754-115.38023 21.57706-114.48814 20.68498-113.38768 20.68498-112.2872 20.68498-111.39513 21.57706-111.39513 22.67754ZM-113.38768 22.67754"/>
<use data-text="(" xlink:href="#font_3_41" transform="matrix(11.9552,0,0,-11.9552,146.24298,109.52399)"/>
<use data-text="&#x2212;" xlink:href="#font_3_1151" transform="matrix(11.9552,0,0,-11.9552,150.22406,109.52399)"/>
<use data-text="5" xlink:href="#font_3_54" transform="matrix(11.9552,0,0,-11.9552,158.41336,109.52399)"/>
<use data-text="," xlink:href="#font_3_45" transform="matrix(11.9552,0,0,-11.9552,164.39096,109.52399)"/>
<use data-text="1" xlink:href="#font_3_50" transform="matrix(11.9552,0,0,-11.9552,169.36432,109.52399)"/>
<use data-text=")" xlink:href="#font_3_42" transform="matrix(11.9552,0,0,-11.9552,175.34192,109.52399)"/>
<path transform="matrix(1,0,0,-1,255.44699,138.50199)" d="M-134.07266 0C-134.07266 1.10046-134.96474 1.99255-136.06522 1.99255-137.16568 1.99255-138.05777 1.10046-138.05777 0-138.05777-1.10046-137.16568-1.99255-136.06522-1.99255-134.96474-1.99255-134.07266-1.10046-134.07266 0ZM-136.06522 0"/>
<path transform="matrix(1,0,0,-1,255.44699,138.50199)" stroke-width=".3985" stroke-linecap="butt" stroke-miterlimit="10" stroke-linejoin="miter" fill="none" stroke="#000000" d="M-134.07266 0C-134.07266 1.10046-134.96474 1.99255-136.06522 1.99255-137.16568 1.99255-138.05777 1.10046-138.05777 0-138.05777-1.10046-137.16568-1.99255-136.06522-1.99255-134.96474-1.99255-134.07266-1.10046-134.07266 0ZM-136.06522 0"/>
<use data-text="(" xlink:href="#font_3_41" transform="matrix(11.9552,0,0,-11.9552,82.10899,132.20198)"/>
<use data-text="&#x2212;" xlink:href="#font_3_1151" transform="matrix(11.9552,0,0,-11.9552,86.09007,132.20198)"/>
<use data-text="6" xlink:href="#font_3_55" transform="matrix(11.9552,0,0,-11.9552,94.27937,132.20198)"/>
<use data-text="," xlink:href="#font_3_45" transform="matrix(11.9552,0,0,-11.9552,100.25697,132.20198)"/>
<use data-text="0" xlink:href="#font_3_49" transform="matrix(11.9552,0,0,-11.9552,105.23033,132.20198)"/>
<use data-text=")" xlink:href="#font_3_42" transform="matrix(11.9552,0,0,-11.9552,111.20793,132.20198)"/>
<use data-text="G" xlink:href="#font_2_40" transform="matrix(17.2154,0,0,-17.2154,43.21,253.34899)"/>
<use data-text="r" xlink:href="#font_2_83" transform="matrix(17.2154,0,0,-17.2154,56.603586,253.34899)"/>
<use data-text="a" xlink:href="#font_2_66" transform="matrix(17.2154,0,0,-17.2154,64.19557,253.34899)"/>
<use data-text="p" xlink:href="#font_2_81" transform="matrix(17.2154,0,0,-17.2154,72.80327,253.34899)"/>
<use data-text="h" xlink:href="#font_2_73" transform="matrix(17.2154,0,0,-17.2154,82.37503,253.34899)"/>
<use data-text="4" xlink:href="#font_2_21" transform="matrix(17.2154,0,0,-17.2154,96.23343,253.34899)"/>
<use data-text=":" xlink:href="#font_2_27" transform="matrix(17.2154,0,0,-17.2154,104.841129,253.34899)"/>
<use data-text="&#x1d466;" xlink:href="#font_3_2521" transform="matrix(17.2154,0,0,-17.2154,116.31299,253.34899)"/>
<use data-text="2" xlink:href="#font_3_51" transform="matrix(11.9552,0,0,-11.9552,124.85199,246.46199)"/>
<use data-text="+" xlink:href="#font_3_44" transform="matrix(17.2154,0,0,-17.2154,135.15399,253.34899)"/>
<use data-text="6" xlink:href="#font_3_55" transform="matrix(17.2154,0,0,-17.2154,150.76837,253.34899)"/>
<use data-text="&#x1d466;" xlink:href="#font_3_2521" transform="matrix(17.2154,0,0,-17.2154,159.37607,253.34899)"/>
<use data-text="+" xlink:href="#font_3_44" transform="matrix(17.2154,0,0,-17.2154,171.73673,253.34899)"/>
<use data-text="8" xlink:href="#font_3_57" transform="matrix(17.2154,0,0,-17.2154,187.3511,253.34899)"/>
<use data-text="&#x1d465;" xlink:href="#font_3_2520" transform="matrix(17.2154,0,0,-17.2154,195.9588,253.34899)"/>
<use data-text="+" xlink:href="#font_3_44" transform="matrix(17.2154,0,0,-17.2154,209.24909,253.34899)"/>
<use data-text="2" xlink:href="#font_3_51" transform="matrix(17.2154,0,0,-17.2154,224.88065,253.34899)"/>
<use data-text="5" xlink:href="#font_3_54" transform="matrix(17.2154,0,0,-17.2154,233.48834,253.34899)"/>
<use data-text="=" xlink:href="#font_3_62" transform="matrix(17.2154,0,0,-17.2154,246.88193,253.34899)"/>
<use data-text="0" xlink:href="#font_3_49" transform="matrix(17.2154,0,0,-17.2154,263.44316,253.34899)"/>
<path transform="matrix(1,0,0,-1,201.389,354.09498)" stroke-width=".79701" stroke-linecap="butt" stroke-miterlimit="10" stroke-linejoin="miter" fill="none" stroke="#000000" d="M-170.08049 0H63.92183"/>
<path transform="matrix(1,0,0,-1,262.84577,354.09498)" d="M5.44046 0 1.28699 1.5706 2.66432 0 1.28699-1.5706Z"/>
<path transform="matrix(1,0,0,-1,262.84577,354.09498)" stroke-width=".79701" stroke-linecap="butt" stroke-miterlimit="10" stroke-linejoin="miter" fill="none" stroke="#000000" d="M5.44046 0 1.28699 1.5706 2.66432 0 1.28699-1.5706Z"/>
<use data-text="&#x1d465;" xlink:href="#font_3_2520" transform="matrix(11.9552,0,0,-11.9552,273.80403,356.67698)"/>
<path transform="matrix(1,0,0,-1,201.389,354.09498)" stroke-width=".79701" stroke-linecap="butt" stroke-miterlimit="10" stroke-linejoin="miter" fill="none" stroke="#000000" d="M0-204.09659V63.92183"/>
<path transform="matrix(0,-1,-1,-0,201.389,292.6382)" d="M5.44046 0 1.28699 1.5706 2.66432 0 1.28699-1.5706Z"/>
<path transform="matrix(0,-1,-1,-0,201.389,292.6382)" stroke-width=".79701" stroke-linecap="butt" stroke-miterlimit="10" stroke-linejoin="miter" fill="none" stroke="#000000" d="M5.44046 0 1.28699 1.5706 2.66432 0 1.28699-1.5706Z"/>
<use data-text="&#x1d466;" xlink:href="#font_3_2521" transform="matrix(11.9552,0,0,-11.9552,198.42401,279.49198)"/>
<use data-text="O" xlink:href="#font_4_48" transform="matrix(11.9552,0,0,-11.9552,190.27,364.85499)"/>
<path transform="matrix(1,0,0,-1,201.389,354.09498)" stroke-width="1.59404" stroke-linecap="butt" stroke-miterlimit="10" stroke-linejoin="miter" fill="none" stroke="#ff0000" d="M-120.11934-221.10463-118.03485-218.69989-115.99449-216.29515-113.99667-213.89043-112.04144-211.48569-110.12877-209.08097-108.25865-206.67623-106.43109-204.2715-104.64609-201.86676-102.9016-199.46204-101.20172-197.0573-99.54388-194.65258-97.92863-192.24784-96.35593-189.84311-94.82579-187.43837-93.3382-185.03363-91.89265-182.6289-90.48865-180.22415-89.12875-177.81943-87.8109-175.41469-86.5356-173.00997-85.30287-170.60523-84.1127-168.2005-82.96509-165.79576-81.85953-163.39104-80.796-160.9863-79.77557-158.58158-78.7982-156.17684-77.86288-153.77211-76.97014-151.36737-76.11942-148.96263-75.31178-146.5579-74.5467-144.15317-73.82315-141.74845-73.1427-139.3437-72.50531-136.93898-71.90996-134.53423-71.35718-132.1295-70.84644-129.72476-70.37878-127.32004-69.95369-124.9153-69.57011-122.51057-69.23013-120.10583-68.9322-117.70111-68.67683-115.29637-68.46404-112.89163-68.2938-110.48691-68.16557-108.08217-68.08046-105.67744-68.03737-103.2727-68.03685-100.86798-68.07889-98.46324-68.1635-96.05852-68.29066-93.65378-68.4604-91.24905-68.67216-88.8443-68.927-86.43958-69.22443-84.03484-69.56387-81.63011-69.9459-79.22537-70.37048-76.82063-70.83763-74.41591-71.3468-72.01117-71.89906-69.60645-72.4939-67.2017-73.13127-64.79698-73.8107-62.39224-74.5327-59.98752-75.29724-57.58278-76.10437-55.17805-76.95352-52.77332-77.84575-50.36859-78.78107-47.96385-79.75792-45.55913-80.77731-43.15437-81.83928-40.74963-82.94382-38.34491-84.09091-35.94017-85.28055-33.53545-86.51225-31.1307-87.78806-28.72598-89.10487-26.32124-90.46425-23.91652-91.86618-21.51178-93.3107-19.10706-94.79774-16.70232-96.32686-14.29759-97.89905-11.89285-99.51482-9.48813-101.17162-7.08339-102.87097-4.67865-104.61288-2.27393-106.39737 .13078-108.2244 2.53552-110.09346 4.94026-112.00563 7.34499-113.9614 9.74973-115.95868 12.15445-117.99799 14.55919-120.0799 16.96391"/>
<use data-text="&#x1d432;" xlink:href="#font_3_2470" transform="matrix(11.9552,0,0,-11.9552,103.52501,579.44998)" fill="#ff0000"/>
<use data-text="&#x1d7d0;" xlink:href="#font_3_3368" transform="matrix(8.9664,0,0,-8.9664,109.74202,574.66799)" fill="#ff0000"/>
<use data-text="+" xlink:href="#font_3_44" transform="matrix(11.9552,0,0,-11.9552,117.38002,579.44998)" fill="#ff0000"/>
<use data-text="&#x1d7d4;" xlink:href="#font_3_3372" transform="matrix(11.9552,0,0,-11.9552,128.22338,579.44998)" fill="#ff0000"/>
<use data-text="&#x1d432;" xlink:href="#font_3_2470" transform="matrix(11.9552,0,0,-11.9552,134.20098,579.44998)" fill="#ff0000"/>
<use data-text="+" xlink:href="#font_3_44" transform="matrix(11.9552,0,0,-11.9552,143.07173,579.44998)" fill="#ff0000"/>
<use data-text="&#x1d7d6;" xlink:href="#font_3_3374" transform="matrix(11.9552,0,0,-11.9552,153.91509,579.44998)" fill="#ff0000"/>
<use data-text="&#x1d431;" xlink:href="#font_3_2469" transform="matrix(11.9552,0,0,-11.9552,159.89269,579.44998)" fill="#ff0000"/>
<use data-text="+" xlink:href="#font_3_44" transform="matrix(11.9552,0,0,-11.9552,168.76345,579.44998)" fill="#ff0000"/>
<use data-text="&#x1d7d0;" xlink:href="#font_3_3368" transform="matrix(11.9552,0,0,-11.9552,179.61876,579.44998)" fill="#ff0000"/>
<use data-text="&#x1d7d3;" xlink:href="#font_3_3371" transform="matrix(11.9552,0,0,-11.9552,185.59636,579.44998)" fill="#ff0000"/>
<use data-text="=" xlink:href="#font_3_62" transform="matrix(11.9552,0,0,-11.9552,194.8975,579.44998)" fill="#ff0000"/>
<use data-text="&#x1d7ce;" xlink:href="#font_3_3366" transform="matrix(11.9552,0,0,-11.9552,206.39839,579.44998)" fill="#ff0000"/>
<path transform="matrix(1,0,0,-1,201.389,354.09498)" stroke-width=".79701" stroke-linecap="butt" stroke-dasharray="2.98883,2.98883" stroke-miterlimit="10" stroke-linejoin="miter" fill="none" stroke="#000000" d="M-68.0322 0V-102.0483H0"/>
<path transform="matrix(1,0,0,-1,201.389,354.09498)" d="M-66.53778-102.0483C-66.53778-101.22295-67.20685-100.55388-68.0322-100.55388-68.85753-100.55388-69.52661-101.22295-69.52661-102.0483-69.52661-102.87364-68.85753-103.54271-68.0322-103.54271-67.20685-103.54271-66.53778-102.87364-66.53778-102.0483ZM-68.0322-102.0483"/>
<path transform="matrix(1,0,0,-1,201.389,354.09498)" stroke-width=".3985" stroke-linecap="butt" stroke-miterlimit="10" stroke-linejoin="miter" fill="none" stroke="#000000" d="M-66.53778-102.0483C-66.53778-101.22295-67.20685-100.55388-68.0322-100.55388-68.85753-100.55388-69.52661-101.22295-69.52661-102.0483-69.52661-102.87364-68.85753-103.54271-68.0322-103.54271-67.20685-103.54271-66.53778-102.87364-66.53778-102.0483ZM-68.0322-102.0483"/>
<use data-text="(" xlink:href="#font_3_41" transform="matrix(11.9552,0,0,-11.9552,87.895008,459.12599)"/>
<use data-text="&#x2212;" xlink:href="#font_3_1151" transform="matrix(11.9552,0,0,-11.9552,91.87608,459.12599)"/>
<use data-text="2" xlink:href="#font_3_51" transform="matrix(11.9552,0,0,-11.9552,100.065387,459.12599)"/>
<use data-text="," xlink:href="#font_3_45" transform="matrix(11.9552,0,0,-11.9552,106.042987,459.12599)"/>
<use data-text="&#x2212;" xlink:href="#font_3_1151" transform="matrix(11.9552,0,0,-11.9552,111.01634,459.12599)"/>
<use data-text="3" xlink:href="#font_3_52" transform="matrix(11.9552,0,0,-11.9552,119.20564,459.12599)"/>
<use data-text=")" xlink:href="#font_3_42" transform="matrix(11.9552,0,0,-11.9552,125.18324,459.12599)"/>
<path transform="matrix(1,0,0,-1,201.389,354.09498)" d="M-104.80588 0C-104.80588 .82533-105.47495 1.49442-106.3003 1.49442-107.12564 1.49442-107.79471 .82533-107.79471 0-107.79471-.82533-107.12564-1.49442-106.3003-1.49442-105.47495-1.49442-104.80588-.82533-104.80588 0ZM-106.3003 0"/>
<path transform="matrix(1,0,0,-1,201.389,354.09498)" stroke-width=".3985" stroke-linecap="butt" stroke-miterlimit="10" stroke-linejoin="miter" fill="none" stroke="#000000" d="M-104.80588 0C-104.80588 .82533-105.47495 1.49442-106.3003 1.49442-107.12564 1.49442-107.79471 .82533-107.79471 0-107.79471-.82533-107.12564-1.49442-106.3003-1.49442-105.47495-1.49442-104.80588-.82533-104.80588 0ZM-106.3003 0"/>
<use data-text="(" xlink:href="#font_3_41" transform="matrix(11.9552,0,0,-11.9552,99.27301,347.79499)"/>
<use data-text="&#x2212;" xlink:href="#font_3_1151" transform="matrix(11.9552,0,0,-11.9552,103.25409,347.79499)"/>
<use data-text="3" xlink:href="#font_3_52" transform="matrix(11.9552,0,0,-11.9552,111.44339,347.79499)"/>
<use data-text="." xlink:href="#font_3_47" transform="matrix(11.9552,0,0,-11.9552,117.42099,347.79499)"/>
<use data-text="1" xlink:href="#font_3_50" transform="matrix(11.9552,0,0,-11.9552,120.40979,347.79499)"/>
<use data-text="2" xlink:href="#font_3_51" transform="matrix(11.9552,0,0,-11.9552,126.38739,347.79499)"/>
<use data-text="5" xlink:href="#font_3_54" transform="matrix(11.9552,0,0,-11.9552,132.36499,347.79499)"/>
<use data-text="," xlink:href="#font_3_45" transform="matrix(11.9552,0,0,-11.9552,138.34259,347.79499)"/>
<use data-text="0" xlink:href="#font_3_49" transform="matrix(11.9552,0,0,-11.9552,143.31595,347.79499)"/>
<use data-text=")" xlink:href="#font_3_42" transform="matrix(11.9552,0,0,-11.9552,149.29355,347.79499)"/>
<use data-text="2" xlink:href="#font_4_19" transform="matrix(11.9552,0,0,-11.9552,154.649,727.888)"/>
</g>
</svg>
