<svg xmlns="http://www.w3.org/2000/svg" xmlns:xlink="http://www.w3.org/1999/xlink" xmlns:inkscape="http://www.inkscape.org/namespaces/inkscape" version="1.1" width="241" height="284" viewBox="0 0 241 284">
<defs>
<clipPath id="clip_1">
<path transform="matrix(1,0,0,-1,-175,770)" d="M0 0H595.28V841.89H0Z"/>
</clipPath>
<path id="font_2_34" d="M.70700076 0V.018997193C.6549988 .024993897 .6409912 .04597473 .61299136 .11091614L.36698915 .6738281H.34700013L.14099121 .18585205C.08198547 .04597473 .07299805 .024993897 .01499939 .018997193V0H.21398926V.018997193C.1659851 .018997193 .14399719 .0289917 .14399719 .059951784 .14399719 .07194519 .147995 .08892822 .15299988 .10192871L.19898987 .21583557H.46099855L.5019989 .121902469C.5139923 .093933109 .5209961 .06695557 .5209961 .051971437 .5209961 .04296875 .5149994 .031982423 .5069885 .02798462 .49499513 .020996094 .48799134 .018997193 .45199586 .018997193V0H.70700076M.44699098 .25683595H.21598816L.33099366 .53182986 .44699098 .25683595Z"/>
<path id="font_2_89" d="M.47898866 0V.01499939C.44799806 .01499939 .4249878 .03199768 .39698792 .07501221L.2689972 .27111817 .35198976 .39117433C.37098695 .41818238 .40098573 .43418885 .43299867 .43518067V.4501953H.2749939V.43518067C.30499269 .43318177 .31498719 .42718507 .31498719 .4131775 .31498719 .40116883 .2999878 .38316346 .27799989 .34814454 .2679901 .33314515 .2579956 .31713868 .24798584 .30412293 .24398804 .3111267 .23899842 .31713868 .23399353 .32414247 .20498657 .36715699 .18798828 .400177 .18798828 .4131775 .18798828 .42819215 .20098877 .43418885 .23098755 .43518067V.4501953H.023986817V.43518067H.032989503C.06298828 .43518067 .07899475 .42218019 .10998535 .37516786L.20399475 .23109436 .08999634 .06600952C.06199646 .024993897 .049987794 .017990113 .016998291 .01499939V0H.1619873V.01499939C.1329956 .01499939 .12199402 .019989014 .12199402 .03300476 .12199402 .040008546 .12799073 .052001954 .14199829 .074020389L.22099304 .19708252 .31199647 .057006837C.31599427 .05101013 .31799317 .04600525 .31799317 .039001466 .31799317 .020996094 .31098939 .016998291 .27799989 .01499939V0H.47898866Z"/>
<path id="font_2_74" d="M.17999268 .63204959C.17999268 .66004946 .1579895 .68304446 .1289978 .68304446 .100997928 .68304446 .07798767 .66004946 .07798767 .63204959 .07798767 .6030426 .099990848 .5810547 .12799073 .5810547 .1579895 .5810547 .17999268 .6030426 .17999268 .63204959M.25299073 0V.01499939C.18699646 .019989014 .1789856 .0309906 .1789856 .10499573V.45603944L.1749878 .46003724 .019989014 .4050293V.38902284C.037994386 .3940277 .052993776 .3940277 .06199646 .3940277 .08699036 .3940277 .09498596 .37802125 .09498596 .33102418V.104003909C.09498596 .027999878 .084991458 .018997193 .015991211 .01499939V0H.25299073Z"/>
<path id="font_2_84" d="M.1559906 .3010559C.12799073 .31803895 .11299133 .34703065 .11299133 .36901856 .11299133 .4159851 .14498902 .4369812 .18798828 .4369812 .24798584 .4369812 .27799989 .4039917 .30099488 .31404115H.31599427L.31098939 .4499817H.2999878C.2919922 .440979 .28799439 .43997193 .28399659 .43997193 .2769928 .43997193 .2669983 .4429779 .2559967 .4479828 .23498535 .4579773 .21299744 .45898438 .18899536 .45898438 .10699463 .45898438 .050994874 .4149933 .050994874 .33602906 .050994874 .2850647 .08799744 .23709107 .17098999 .19111634L.22499085 .16113281C.2579956 .1431427 .27799989 .11715698 .27799989 .08618164 .27799989 .045211793 .24598694 .01222229 .19499207 .01222229 .12599182 .01222229 .08898926 .05619812 .067993167 .1531372H.051986696V-.003768921H.06498718C.070999149 .006225586 .07699585 .008224487 .08898926 .008224487 .099990848 .008224487 .11099243 .007232666 .1349945-.00077819827 .1579895-.008773804 .18699646-.009765625 .20799256-.009765625 .28399659-.009765625 .34799195 .048202516 .34799195 .11515808 .34799195 .1721344 .32398988 .19911194 .2599945 .23809815L.1559906 .3010559Z"/>
<path id="font_3_37" d="M.01399231 .67578127V.6507721C.07798767 .6447754 .09700012 .629776 .09700012 .58380129V.097976688C.09700012 .049987794 .07199097 .026992798 .01399231 .024993897V0H.32299806C.42399598 0 .5139923 .027999878 .57499697 .08097839 .6469879 .14395142 .6899872 .24191284 .6899872 .34487916 .6899872 .55081179 .55400088 .67578127 .32598878 .67578127H.01399231M.25898744 .5977936C.25898744 .6257782 .272995 .6417694 .31199647 .6417694 .3869934 .6417694 .43699647 .60679629 .47499085 .54081729 .5039978 .48983766 .5159912 .41586305 .5159912 .32989503 .5159912 .24191284 .49699403 .15194702 .46598817 .10696411 .43199159 .05899048 .3829956 .034988405 .31698609 .034988405 .27198792 .034988405 .25898744 .054992677 .25898744 .099975589V.5977936Z"/>
<path id="font_3_74" d="M.21499634 .6134033C.21499634 .6564026 .18099976 .69140627 .13899231 .69140627 .09399414 .69140627 .05999756 .6573944 .05999756 .6134033 .05999756 .569397 .09298706 .5363922 .13699341 .5363922 .18099976 .5363922 .21499634 .569397 .21499634 .6134033M.2559967 0V.023986817C.22099304 .0289917 .20799256 .041992189 .20799256 .0849762V.4609375H.01499939V.43693543C.05899048 .42793275 .068984989 .41793824 .068984989 .37294007V.08798218C.068984989 .041992189 .06199646 .034988405 .015991211 .023986817V0H.2559967Z"/>
<path id="font_3_83" d="M.21798706 .4609375H.027999878V.43693543C.070999149 .43093873 .08299255 .41993714 .08299255 .37294007V.083984378C.08299255 .04298401 .07299805 .03199768 .0289917 .023986817V0H.2939911V.023986817C.23298645 .02798462 .22200012 .041992189 .22200012 .10597229V.28295899C.22200012 .34194947 .24798584 .38693238 .2829895 .38693238 .29100038 .38693238 .2999878 .38194276 .31098939 .36393739 .32798768 .33595277 .34498597 .325943 .37098695 .325943 .4079895 .325943 .43399049 .35394288 .43399049 .39393617 .43399049 .4396515 .3999939 .47265626 .35299684 .47265626 .30299378 .47265626 .2649994 .44665528 .21798706 .37864686V.4609375Z"/>
<path id="font_3_70" d="M.40299989 .12625122C.3619995 .077301029 .33099366 .05831909 .28799439 .05831909 .18998719 .05831909 .1749878 .15022278 .16899109 .24511719H.42099C.4169922 .31900025 .39898683 .38182069 .3619995 .42269898 .33299256 .45465089 .2919922 .47265626 .23399353 .47265626 .10899353 .47265626 .024993897 .3728485 .024993897 .22413635 .024993897 .08728027 .10798645-.013671875 .22898865-.013671875 .31399537-.013671875 .36698915 .017318726 .4269867 .11225891L.40299989 .12625122M.2979889 .2821045H.1639862C.1639862 .40176393 .18798828 .4416504 .23399353 .4416504 .2630005 .4416504 .2749939 .42469789 .2889862 .39479066 .2979889 .37583924 .2979889 .35490418 .2979889 .3030548V.2821045Z"/>
<path id="font_3_68" d="M.4119873 .10922241C.375 .06729126 .34599305 .05331421 .30499269 .05331421 .21798706 .05331421 .1659851 .13717652 .1659851 .27293397 .1659851 .38175965 .20098877 .4416504 .25 .4416504 .2919922 .4416504 .2919922 .4186859 .2919922 .37176515 .2919922 .32385255 .31399537 .29888917 .34799195 .29888917 .3899994 .29888917 .41600038 .32385255 .41600038 .36279298 .41600038 .42668153 .34899903 .47265626 .2619934 .47265626 .1289978 .47265626 .024993897 .37077333 .024993897 .22203064 .024993897 .07926941 .11399841-.013671875 .23899842-.013671875 .31900025-.013671875 .375 .016326905 .42999269 .09124756L.4119873 .10922241Z"/>
<path id="font_3_85" d="M.30699159 .11222839C.2869873 .07426453 .2709961 .059280397 .25 .059280397 .22200012 .059280397 .21099854 .07925415 .21099854 .11921692V.41693116H.30599977V.4609375H.21099854V.6299286H.18598938C.12799073 .54592898 .09098816 .49293519 .018997193 .44392396V.41693116H.07199097V.09524536C.07199097 .028274537 .114990238-.01171875 .18399048-.01171875 .25099183-.01171875 .29100038 .01927185 .33198548 .10122681L.30699159 .11222839Z"/>
<path id="font_3_89" d="M.48399354 0V.023986817C.46798707 .0289917 .46099855 .032989503 .45399476 .04399109L.30599977 .2719574 .40699769 .39793397C.42599488 .42092896 .44599916 .43193055 .47698976 .43693543V.4609375H.30899049V.43693543L.32899476 .43493653C.35198976 .43293763 .3600006 .42793275 .3600006 .41293336 .3600006 .39793397 .34899903 .38394166 .32199098 .348938L.28599549 .302948C.28199769 .3089447 .2769928 .31495667 .272995 .3199463 .23999024 .36294557 .21499634 .40493775 .21499634 .41793824 .21499634 .42993165 .22898865 .43592835 .2619934 .43693543V.4609375H.011993408V.43693543C.037994386 .43293763 .04399109 .42793275 .06399536 .39793397L.19198609 .20095825C.1769867 .18296814 .18499756 .19197083 .16999817 .17297364 .15499878 .15397644 .14099121 .13597107 .1269989 .11697388 .070999149 .041992189 .050994874 .025985718 .01399231 .023986817V0H.18299866V.023986817C.14698792 .025985718 .1329956 .032989503 .1329956 .04798889 .1329956 .0639801 .1579895 .10397339 .19699097 .15097046 .20298767 .15797425 .20799256 .16497803 .21299744 .17097473 .22599793 .14997864 .23999024 .12898255 .25498963 .10798645 .2789917 .07298279 .28799439 .055984498 .28799439 .04399109 .28799439 .03199768 .2749939 .025985718 .24299622 .023986817V0H.48399354Z"/>
<path id="font_4_2493" d="M.7599945 .65289309H.5189972L.5149994 .63690188H.5349884C.57299807 .63690188 .58699038 .6298981 .58699038 .6148987 .58699038 .5939026 .56799319 .56489565 .548996 .54089358L.2689972 .17489624 .2649994 .17590332V.56689456C.2649994 .5998993 .269989 .63690188 .33499146 .63690188H.35398866L.35798646 .65289309H.06399536L.05999756 .63690188C.12098694 .63690188 .15899658 .6128998 .15899658 .5549011V-.016098023H.18299866L.6239929 .559906C.6499939 .5939026 .69099429 .63290408 .7559967 .63690188L.7599945 .65289309Z"/>
<path id="font_4_2477" d="M.72299197 .65319827H.20298767L.19898987 .63819888H.21798706C.27799989 .63819888 .2939911 .62020877 .2939911 .5991821 .2939911 .59217837 .2919922 .58317568 .2899933 .5751648L.1659851 .07800293C.15699768 .04399109 .13598633 .015991211 .05999756 .015991211H.041992189L.037994386 0H.37998963L.38398744 .015991211H.35198976C.2919922 .015991211 .272995 .03199768 .272995 .056991579 .272995 .06399536 .27598573 .07199097 .2769928 .07800293L.33898927 .33203126H.43598939C.46499635 .33203126 .5059967 .32902528 .5059967 .28201295 .5059967 .26402284 .5039978 .23501587 .5009918 .2210083H.5169983L.57699587 .463089H.5609894C.5399933 .3780365 .49398805 .36802674 .43199159 .36802674H.34899903L.41099549 .61621096H.55799868C.6049957 .61621096 .6649933 .607193 .66799929 .5291443 .66799929 .5151367 .66799929 .5011139 .6669922 .4931183H.68299868L.72299197 .65319827Z"/>
<path id="font_5_19" d="M.47799684 .21113587H.45298768C.4269867 .13908386 .4039917 .1330719 .2999878 .1330719H.1599884L.32199098 .28718568C.40098573 .36224366 .43598939 .42929078 .43598939 .5053406 .43598939 .61842349 .3619995 .68847659 .2539978 .68847659 .1539917 .68847659 .07798767 .6244354 .0309906 .48432923H.05899048C.08999634 .54637148 .1329956 .57440188 .18099976 .57440188 .2599945 .57440188 .2999878 .51535037 .2999878 .4473114 .2999878 .40327455 .2809906 .34823609 .24899292 .29919435 .19799805 .22114563 .16299439 .17910767 .016998291 .022994996V0H.43199159L.47799684 .21113587Z"/>
<path id="font_5_1477" d="M.2939911 .42874146 .30299378 .46875 .10499573 .42874146 .11099243 .411911C.12199402 .41490174 .12998963 .4159088 .13598633 .4159088 .1519928 .4159088 .15899658 .4039154 .15899658 .38394166 .15899658 .37294007 .15699768 .35995484 .1539917 .3449707L.050994874-.09466553C.039993287-.14064026 .02999878-.1756134-.026000977-.18359375L-.03300476-.2046051H.23399353L.24099732-.18359375H.20498657C.17098999-.18359375 .1639862-.15562439 .1639862-.12963867 .1639862-.118652347 .16499329-.10964966 .16799927-.09767151L.19299317 .0072784426C.21299744-.005722046 .2519989-.01171875 .2809906-.01171875 .41299439-.01171875 .55400088 .12617493 .55400088 .29103089 .55400088 .41990663 .46798707 .46191407 .3899994 .46191407 .3600006 .46191407 .32499696 .45291139 .29899598 .4289093L.2939911 .42874146M.24398804 .24107361C.2630005 .32899476 .30999757 .411911 .36299134 .411911 .41099549 .411911 .43998719 .38293458 .43998719 .28903199 .43998719 .16914368 .35099793 .028274537 .27799989 .028274537 .24499512 .028274537 .21199036 .043258668 .21099854 .08721924L.24398804 .24107361Z"/>
</defs>
<g clip-path="url(#clip_1)">
<path transform="matrix(1,0,0,-1,68.715,142.24098)" stroke-width=".79701" stroke-linecap="butt" stroke-miterlimit="10" stroke-linejoin="miter" fill="none" stroke="#000000" d="M-68.03217 0H156.15201"/>
<path transform="matrix(1,0,0,-1,224.867,142.24098)" d="M2.59026 0-1.55415 2.0722 0 0-1.55415-2.0722"/>
<use data-text="A" xlink:href="#font_2_34" transform="matrix(14.3462,0,0,-14.3462,213.907,137.71399)"/>
<use data-text="x" xlink:href="#font_2_89" transform="matrix(14.3462,0,0,-14.3462,224.26496,137.71399)"/>
<use data-text="i" xlink:href="#font_2_74" transform="matrix(14.3462,0,0,-14.3462,231.43805,137.71399)"/>
<use data-text="s" xlink:href="#font_2_84" transform="matrix(14.3462,0,0,-14.3462,235.4263,137.71399)"/>
<path transform="matrix(1,0,0,-1,68.715,142.24098)" stroke-width=".79701" stroke-linecap="butt" stroke-dasharray=".79701,.99628" stroke-miterlimit="10" stroke-linejoin="miter" fill="none" stroke="#000000" d="M-28.34679-141.73403V141.73403"/>
<use data-text="D" xlink:href="#font_3_37" transform="matrix(0,-14.3462,-14.3462,-0,35.983995,272.15)"/>
<use data-text="i" xlink:href="#font_3_74" transform="matrix(0,-14.3462,-14.3462,-0,35.983995,261.79206)"/>
<use data-text="r" xlink:href="#font_3_83" transform="matrix(0,-14.3462,-14.3462,-0,35.983995,257.80378)"/>
<use data-text="e" xlink:href="#font_3_70" transform="matrix(0,-14.3462,-14.3462,-0,35.983995,251.56319)"/>
<use data-text="c" xlink:href="#font_3_68" transform="matrix(0,-14.3462,-14.3462,-0,35.983995,245.19347)"/>
<use data-text="t" xlink:href="#font_3_85" transform="matrix(0,-14.3462,-14.3462,-0,35.983995,238.82375)"/>
<use data-text="r" xlink:href="#font_3_83" transform="matrix(0,-14.3462,-14.3462,-0,35.983995,234.04647)"/>
<use data-text="i" xlink:href="#font_3_74" transform="matrix(0,-14.3462,-14.3462,-0,35.983995,227.59067)"/>
<use data-text="x" xlink:href="#font_3_89" transform="matrix(0,-14.3462,-14.3462,-0,35.983995,223.60242)"/>
<path transform="matrix(1,0,0,-1,68.715,142.24098)" stroke-width="1.59404" stroke-linecap="butt" stroke-miterlimit="10" stroke-linejoin="miter" fill="none" stroke="#ff0000" d="M125.0095-119.05693C125.0095-119.05693 121.38335-117.31935 120.01025-116.65201 118.63715-115.98466 116.45782-114.91446 115.11305-114.24712 113.76828-113.57977 111.63438-112.50954 110.31792-111.8422 109.00146-111.17485 106.91313-110.10461 105.6249-109.43727 104.33664-108.76993 102.29298-107.69972 101.03307-107.03238 99.77316-106.36504 97.7758-105.2948 96.5442-104.62746 95.31259-103.96011 93.35979-102.88988 92.15651-102.22253 90.95325-101.55519 89.04674-100.48499 87.87181-99.81764 86.69687-99.1503 84.83502-98.08006 83.68828-97.41272 82.54153-96.74538 80.72514-95.67517 79.60686-95.00783 78.48857-94.34048 76.71832-93.27025 75.62837-92.6029 74.53842-91.93556 72.81285-90.86533 71.75111-90.19798 70.68938-89.53064 69.00934-88.46042 67.9759-87.79309 66.94247-87.12575 65.3079-86.0555 64.30281-85.38817 63.29771-84.72083 61.70865-83.65057 60.73178-82.98325 59.7549-82.3159 58.21053-81.24568 57.26195-80.57835 56.31339-79.91101 54.8152-78.84076 53.89508-78.17343 52.97496-77.50609 51.52205-76.43584 50.63028-75.76851 49.7385-75.10117 48.33116-74.03094 47.46756-73.36362 46.60397-72.69627 45.24132-71.62602 44.40607-70.9587 43.5708-70.29135 42.25441-69.22113 41.4475-68.5538 40.64056-67.88646 39.3689-66.81621 38.59015-66.14888 37.81142-65.48154 36.58516-64.41129 35.83488-63.74396 35.08461-63.07661 33.90451-62.0064 33.18257-61.33907 32.46063-60.67172 31.32523-59.60147 30.63145-58.93414 29.9377-58.2668 28.84784-57.19655 28.18242-56.52922 27.517-55.86188 26.47256-54.79166 25.83548-54.12433 25.1984-53.45699 24.19939-52.38673 23.5906-51.7194 22.98183-51.05206 22.02835-49.98184 21.4478-49.31451 20.86723-48.64717 19.95845-47.57692 19.40623-46.90959 18.854-46.24225 17.99138-45.172 17.46758-44.50467 16.94379-43.83733 16.12662-42.7671 15.63103-42.09978 15.13545-41.43243 14.36295-40.36218 13.89569-39.69485 13.42845-39.02751 12.70226-37.95726 12.2633-37.28993 11.82437-36.62259 11.14272-35.55237 10.7321-34.88504 10.3215-34.2177 9.68614-33.14745 9.30388-32.48012 8.9216-31.81277 8.33089-30.74255 7.97684-30.07523 7.62279-29.40788 7.07764-28.33763 6.75189-27.6703 6.42615-27.00296 5.92645-25.93271 5.62904-25.26538 5.33163-24.59804 4.87733-23.52782 4.60823-22.86049 4.33913-22.19315 3.93028-21.1229 3.68951-20.45557 3.44875-19.78822 3.08533-18.71797 2.8729-18.05064 2.66046-17.3833 2.34244-16.31308 2.15834-15.64575 1.97424-14.97841 1.70168-13.90816 1.54588-13.24083 1.39009-12.57349 1.16304-11.50327 1.03546-10.83594 .90788-10.1686 .72552-9.09834 .62628-8.43102 .52704-7.76367 .39099-6.69342 .32005-6.0261 .24911-5.35875 .15764-4.28853 .11504-3.6212 .07245-2.95386 .0272-1.8836 .01294-1.21628-.0013-.54893-.00182 .52127 .0121 1.1886 .02602 1.85594 .07108 2.92616 .11331 3.59349 .15553 4.26083 .24602 5.33109 .31659 5.99841 .38716 6.66576 .52309 7.73598 .62196 8.4033 .72084 9.07065 .9022 10.1409 1.0294 10.80823 1.15662 11.47557 1.3834 12.54582 1.53896 13.21315 1.69449 13.8805 1.96667 14.95071 2.15056 15.61804 2.33444 16.28539 2.65207 17.35564 2.86426 18.02296 3.07645 18.6903 3.43959 19.76056 3.68 20.42789 3.9204 21.09523 4.32823 22.16545 4.59698 22.83278 4.86572 23.50012 5.31975 24.57037 5.61691 25.2377 5.91408 25.90504 6.41353 26.97527 6.7389 27.6426 7.06429 28.30994 7.60855 29.38019 7.96214 30.04753 8.31575 30.71486 8.9054 31.78511 9.28743 32.45245 9.66945 33.11978 10.30533 34.19 10.71568 34.85735 11.12605 35.52467 11.80655 36.59492 12.24513 37.26227 12.6837 37.9296 13.40977 38.99985 13.87666 39.66719 14.34355 40.33452 15.11505 41.40474 15.61026 42.07208 16.10548 42.73941 16.92241 43.80966 17.44597 44.477 17.96953 45.14433 18.83186 46.21455 19.38373 46.8819 19.9356 47.54922 20.8434 48.61948 21.4236 49.28682 22.0038 49.95415 22.9571 51.0244 23.56552 51.69174 24.17393 52.35907 25.17195 53.42929 25.80867 54.09663 26.44539 54.76396 27.48967 55.83421 28.15472 56.50156 28.81978 57.16888 29.90865 58.23914 30.60204 58.90648 31.29543 59.5738 32.43056 60.64403 33.15228 61.31137 33.87401 61.9787 35.05371 63.04895 35.80376 63.7163 36.55379 64.38362 37.77977 65.45384 38.55814 66.12119 39.33652 66.78851 40.60718 67.85876 41.41377 68.52611 42.22035 69.19344 43.53658 70.26369 44.37146 70.93103 45.20636 71.59836 46.568 72.66858 47.43123 73.33592 48.29446 74.00325 49.70152 75.0735 50.5931 75.74084 51.48465 76.40817 52.93715 77.47842 53.85701 78.14577 54.77689 78.8131 56.27483 79.88332 57.22304 80.55066 58.17125 81.21799 59.71461 82.28824 60.69113 82.95558 61.66763 83.62291 63.25655 84.69316 64.26128 85.3605 65.266 86.02783 66.89961 87.09805 67.93268 87.7654 68.96574 88.43272 70.6456 89.50298 71.707 90.17032 72.7684 90.83765 74.49281 91.90787 75.58252 92.57521 76.67224 93.24254 78.44296 94.31279 79.561 94.98013 80.67905 95.64746 82.49445 96.71771 83.6407 97.38506 84.78696 98.05238 86.6478 99.1226 87.8225 99.78995 88.99718 100.45728 90.90417 101.52753 92.1072 102.19487 93.31023 102.8622 95.26192 103.93245 96.49315 104.5998 97.7244 105.26712 99.72162 106.33734 100.98117 107.00468 102.24072 107.67201 104.28337 108.74226 105.57126 109.4096 106.85913 110.07693 108.94722 111.14716 110.26344 111.8145 111.57965 112.48183 113.71329 113.55208 115.0577 114.21942 116.40208 114.88675 118.58041 115.957 119.95316 116.62434 121.32588 117.29167 124.95155 119.02924 124.95155 119.02924"/>
<path transform="matrix(1,0,0,-1,68.715,142.24098)" d="M1.69069 0C1.69069 .93375 .93375 1.69069 0 1.69069-.93375 1.69069-1.69069 .93375-1.69069 0-1.69069-.93375-.93375-1.69069 0-1.69069 .93375-1.69069 1.69069-.93375 1.69069 0ZM0 0"/>
<path transform="matrix(1,0,0,-1,68.715,142.24098)" d="M30.03749 0C30.03749 .93375 29.28053 1.69069 28.34679 1.69069 27.41304 1.69069 26.65608 .93375 26.65608 0 26.65608-.93375 27.41304-1.69069 28.34679-1.69069 29.28053-1.69069 30.03749-.93375 30.03749 0ZM28.34679 0"/>
<use data-text="&#x1d449;" xlink:href="#font_4_2493" transform="matrix(14.3462,0,0,-14.3462,53.053995,155.79299)"/>
<use data-text="&#x1d439;" xlink:href="#font_4_2477" transform="matrix(14.3462,0,0,-14.3462,101.245998,155.79299)"/>
<path transform="matrix(1,0,0,-1,68.715,142.24098)" stroke-width=".79701" stroke-linecap="butt" stroke-miterlimit="10" stroke-linejoin="miter" fill="none" stroke="#000000" d="M30.03749 56.69362C30.03749 57.62737 29.28053 58.38431 28.34679 58.38431 27.41304 58.38431 26.65608 57.62737 26.65608 56.69362 26.65608 55.75986 27.41304 55.00291 28.34679 55.00291 29.28053 55.00291 30.03749 55.75986 30.03749 56.69362ZM28.34679 56.69362"/>
<path transform="matrix(1,0,0,-1,68.715,142.24098)" stroke-width=".79701" stroke-linecap="butt" stroke-miterlimit="10" stroke-linejoin="miter" fill="none" stroke="#000000" d="M30.03749-56.69362C30.03749-55.75986 29.28053-55.00291 28.34679-55.00291 27.41304-55.00291 26.65608-55.75986 26.65608-56.69362 26.65608-57.62737 27.41304-58.38431 28.34679-58.38431 29.28053-58.38431 30.03749-57.62737 30.03749-56.69362ZM28.34679-56.69362"/>
<path transform="matrix(1,0,0,-1,68.715,142.24098)" stroke-width=".79701" stroke-linecap="butt" stroke-dasharray="2.98883,2.98883" stroke-miterlimit="10" stroke-linejoin="miter" fill="none" stroke="#b30000" d="M28.34679 0V56.69362"/>
<path transform="matrix(1,0,0,-1,68.715,142.24098)" stroke-width=".79701" stroke-linecap="butt" stroke-dasharray="2.98883,2.98883" stroke-miterlimit="10" stroke-linejoin="miter" fill="none" stroke="#b30000" d="M28.34679 0V-56.69362"/>
<use data-text="2" xlink:href="#font_5_19" transform="matrix(14.3462,0,0,-14.3462,103.23799,117.35898)"/>
<use data-text="&#x1d491;" xlink:href="#font_5_1477" transform="matrix(14.3462,0,0,-14.3462,110.41109,117.35898)"/>
<use data-text="2" xlink:href="#font_5_19" transform="matrix(14.3462,0,0,-14.3462,103.23799,174.05199)"/>
<use data-text="&#x1d491;" xlink:href="#font_5_1477" transform="matrix(14.3462,0,0,-14.3462,110.41109,174.05199)"/>
<path transform="matrix(1,0,0,-1,68.715,142.24098)" stroke-width=".79701" stroke-linecap="butt" stroke-miterlimit="10" stroke-linejoin="miter" fill="none" stroke="#000000" d="M36.85046 0V8.50368H28.34679"/>
<path transform="matrix(1,0,0,-1,68.715,142.24098)" stroke-width=".79701" stroke-linecap="butt" stroke-dasharray=".79701,.99628" stroke-miterlimit="10" stroke-linejoin="miter" fill="none" stroke="#ffbfbf" d="M-28.34679 56.69362H28.34679"/>
<path transform="matrix(1,0,0,-1,68.715,142.24098)" stroke-width=".79701" stroke-linecap="butt" stroke-dasharray=".79701,.99628" stroke-miterlimit="10" stroke-linejoin="miter" fill="none" stroke="#ffbfbf" d="M-28.34679-56.69362H28.34679"/>
<use data-text="&#x1d491;" xlink:href="#font_5_1477" transform="matrix(14.3462,0,0,-14.3462,50.446,134.11998)"/>
<use data-text="&#x1d491;" xlink:href="#font_5_1477" transform="matrix(14.3462,0,0,-14.3462,78.79199,134.11998)"/>
</g>
</svg>
