<svg xmlns="http://www.w3.org/2000/svg" xmlns:xlink="http://www.w3.org/1999/xlink" xmlns:inkscape="http://www.inkscape.org/namespaces/inkscape" version="1.1" width="458" height="417" viewBox="0 0 458 417">
<defs>
<clipPath id="clip_1">
<path transform="matrix(1,0,0,-1,-76,753)" d="M0 0H595.28V841.89H0Z"/>
</clipPath>
<path id="font_2_2520" d="M.30499269 .28834535 .2849884 .3433838C.272995 .3764038 .2539978 .41740418 .20999146 .44140626L.07798767 .4084015 .08099365 .39039613C.09098816 .39439393 .10598755 .39639283 .11898804 .39639283 .17399597 .39639283 .19999695 .35539247 .21699524 .3073578L.25 .21530152 .18499756 .11424255C.15299988 .065216068 .1269989 .0552063 .114990238 .0552063 .08999634 .0552063 .09399414 .07521057 .067993167 .07521057 .042999269 .07521057 .02999878 .05419922 .02999878 .038208009 .02999878 .016204834 .04598999-.0087890629 .08198547-.0087890629 .13798523-.0087890629 .16699219 .034210206 .19898987 .083221439L.2619934 .18127442 .3019867 .06820679C.31498719 .032196046 .33399964-.0087890629 .375-.0087890629 .43299867-.0087890629 .47799684 .08721924 .48999024 .10223389L.47599793 .11224365C.45498658 .06921387 .43099977 .0552063 .4149933 .0552063 .36999513 .0552063 .34700013 .19029236 .31698609 .25231935L.37199403 .33737184C.38598634 .35939027 .39698792 .37539674 .4269867 .37539674 .44400025 .37539674 .44898988 .36639405 .47099305 .36639405 .49699403 .36639405 .5099945 .3894043 .5099945 .4084015 .5099945 .42939759 .49299623 .44140626 .46099855 .44140626 .41099549 .44140626 .37599183 .3973999 .34999085 .35739137L.30499269 .28834535Z"/>
<path id="font_2_2521" d="M.269989 .30682374C.26098634 .38082887 .2539978 .40682984 .23098755 .4398346L.08099365 .41482545 .08299255 .39883424C.09199524 .39982606 .10798645 .40283204 .11898804 .40283204 .1749878 .40283204 .18399048 .34283448 .18899536 .2978363L.22698975-.016174317C.20098877-.056167604 .14399719-.11816406 .1269989-.11816406 .11099243-.11816406 .11299133-.08717346 .069992069-.08717346 .056991579-.08717346 .02999878-.09817505 .02999878-.12817383 .02999878-.1521759 .04899597-.1831665 .085998538-.1831665 .1539917-.1831665 .21899414-.08517456 .2919922 .0068359377 .33399964 .059829713 .49598695 .2998352 .49598695 .37782289 .49598695 .41682435 .47099305 .4398346 .43899537 .4398346 .4099884 .4398346 .3919983 .42182923 .3919983 .39982606 .3919983 .36183167 .44400025 .3518219 .44400025 .3308258 .44400025 .3128357 .43598939 .29283143 .41600038 .25582887 .3939972 .21482849 .35899354 .15483094 .2979889 .07182312L.269989 .30682374Z"/>
<path id="font_3_48" d="M.6879883 .33103944C.6879883 .5288696 .5569916 .67578127 .36099244 .67578127 .1659851 .67578127 .033996583 .53686526 .033996583 .3340454 .033996583 .1262207 .16699219-.013671875 .36099244-.013671875 .5529938-.013671875 .6879883 .12522888 .6879883 .33103944M.57398989 .33703614C.57398989 .21714783 .54599 .12322998 .4909973 .07028198 .45599366 .03730774 .4119873 .022323609 .3619995 .022323609 .31599427 .022323609 .27198792 .03630066 .23799134 .067276 .1769867 .12322998 .147995 .21315003 .147995 .3320465 .147995 .42695619 .17399597 .52388 .21699524 .5728302 .2559967 .6177826 .30599977 .6397705 .3600006 .6397705 .40699769 .6397705 .44699098 .6227875 .48298646 .59280398 .5399933 .54486086 .57398989 .450943 .57398989 .33703614Z"/>
<path id="font_2_41" d="M.3039856-.16122437C.1639862-.04423523 .13398743 .06877136 .13398743 .254776 .13398743 .44776917 .16499329 .5407715 .3039856 .6597748L.29499818 .67578127C.1349945 .58078 .04798889 .43676759 .04798889 .25177003 .04798889 .08177185 .13398743-.0872345 .2919922-.17723084L.3039856-.16122437Z"/>
<path id="font_2_51" d="M.47399903 .13696289 .45999146 .1429596C.4269867 .08699036 .4059906 .07598877 .3639984 .07598877H.12998963L.29499818 .2519226C.38398744 .34588624 .4229889 .42085267 .4229889 .4998169 .4229889 .59877017 .35099793 .67578127 .23799134 .67578127 .114990238 .67578127 .050994874 .5937805 .02999878 .4768219L.050994874 .47183229C.09098816 .5697937 .12599182 .6017761 .19799805 .6017761 .2829895 .6017761 .33699037 .55178835 .33699037 .4608307 .33699037 .37586976 .30099488 .29989625 .20698548 .200943L.0289917 .011993408V0H.41999818L.47399903 .13696289Z"/>
<path id="font_2_45" d="M.08299255-.14086914C.1519928-.10786438 .19499207-.04486084 .19499207 .015136719 .19499207 .06713867 .1599884 .102127078 .114990238 .102127078 .07899475 .102127078 .054992677 .07913208 .054992677 .045135499 .054992677 .011138916 .07598877-.005859375 .11299133-.005859375 .12399292-.0059661867 .13398743-.001953125 .14199829-.001953125 .1499939-.001953125 .1559906-.007965088 .1559906-.014953613 .1559906-.047958375 .12799073-.08496094 .07299805-.1219635L.08299255-.14086914Z"/>
<path id="font_2_58" d="M.05899048-.021728516C.18899536-.0037384034 .2539978 .020263672 .33898927 .09725952 .4189911 .17027283 .45899964 .27926637 .45899964 .39411927 .45899964 .47799684 .43499757 .5499115 .394989 .59983828 .35598756 .6477661 .3019867 .67578127 .23799134 .67578127 .11898804 .67578127 .02999878 .5748749 .02999878 .44004823 .02999878 .31822206 .101989749 .23725891 .20999146 .23725891 .2689972 .23725891 .31698609 .2522583 .3600006 .2942505 .31999208 .13026428 .20799256 .025268555 .055999757-.001739502L.05899048-.021728516M.3619995 .35516358C.3619995 .30223084 .2889862 .28027345 .24499512 .28027345 .16999817 .28027345 .12199402 .35516358 .12199402 .47399903 .12199402 .52793887 .13699341 .586853 .15699768 .6138153 .17399597 .63578799 .19999695 .6477661 .22999573 .6477661 .31698609 .6477661 .3619995 .56188967 .3619995 .39411927V.35516358Z"/>
<path id="font_2_42" d="M.0289917 .6597748C.17399597 .54577639 .19898987 .43077088 .19898987 .24377442 .19898987 .04977417 .17098999-.04423523 .0289917-.16122437L.037994386-.17723084C.19699097-.08023071 .2849884 .061767579 .2849884 .24676514 .2849884 .41677857 .19400025 .58377078 .040985109 .67578127L.0289917 .6597748Z"/>
<path id="font_2_1151" d="M.62098696 .22012329V.2861328H.06399536V.22012329H.62098696Z"/>
<path id="font_2_52" d="M.06098938 .50987246C.101989749 .58380129 .147995 .61576846 .20999146 .61576846 .27598573 .61576846 .31799317 .58180239 .31799317 .51387026 .31799317 .45292665 .28599549 .40795899 .23699951 .37998963 .21699524 .36799623 .19099427 .3570099 .15299988 .34402467V.33003236C.20999146 .33003236 .23298645 .32704164 .25498963 .3200531 .32398988 .3000641 .35899354 .2511139 .35899354 .17518616 .35899354 .09025574 .30299378 .022323609 .22898865 .022323609 .20098877 .022323609 .17999268 .027313233 .14299011 .05329895 .114990238 .073272708 .09899902 .07926941 .08198547 .07926941 .05899048 .07926941 .040985109 .06428528 .040985109 .043304445 .040985109 .0073242189 .07998657-.013671875 .15299988-.013671875 .24198914-.013671875 .33699037 .015319824 .3849945 .07926941 .4139862 .11723328 .43099977 .16618347 .43099977 .21913147 .43099977 .27108766 .4149933 .31704713 .3869934 .34802247 .3659973 .36999513 .34799195 .38198854 .3039856 .40097047 .37098695 .44093324 .39698792 .4908905 .39698792 .5388489 .39698792 .6207733 .33399964 .67578127 .24099732 .67578127 .13699341 .67578127 .07398987 .6087799 .04499817 .51387026L.06098938 .50987246Z"/>
<path id="font_3_26" d="M.05899048-.021728516C.18899536-.0037384034 .2539978 .020263672 .33898927 .09725952 .4189911 .17027283 .45899964 .27926637 .45899964 .39411927 .45899964 .47799684 .43499757 .5499115 .394989 .59983828 .35598756 .6477661 .3019867 .67578127 .23799134 .67578127 .11898804 .67578127 .02999878 .5748749 .02999878 .44004823 .02999878 .31822206 .101989749 .23725891 .20999146 .23725891 .2689972 .23725891 .31698609 .2522583 .3600006 .2942505 .31999208 .13026428 .20799256 .025268555 .055999757-.001739502L.05899048-.021728516M.3619995 .35516358C.3619995 .30223084 .2889862 .28027345 .24499512 .28027345 .16999817 .28027345 .12199402 .35516358 .12199402 .47399903 .12199402 .52793887 .13699341 .586853 .15699768 .6138153 .17399597 .63578799 .19999695 .6477661 .22999573 .6477661 .31698609 .6477661 .3619995 .56188967 .3619995 .39411927V.35516358Z"/>
<path id="font_3_14" d="M.2849884 .1938324V.25683595H.038986207V.1938324H.2849884Z"/>
<path id="font_3_20" d="M.06098938 .50987246C.101989749 .58380129 .147995 .61576846 .20999146 .61576846 .27598573 .61576846 .31799317 .58180239 .31799317 .51387026 .31799317 .45292665 .28599549 .40795899 .23699951 .37998963 .21699524 .36799623 .19099427 .3570099 .15299988 .34402467V.33003236C.20999146 .33003236 .23298645 .32704164 .25498963 .3200531 .32398988 .3000641 .35899354 .2511139 .35899354 .17518616 .35899354 .09025574 .30299378 .022323609 .22898865 .022323609 .20098877 .022323609 .17999268 .027313233 .14299011 .05329895 .114990238 .073272708 .09899902 .07926941 .08198547 .07926941 .05899048 .07926941 .040985109 .06428528 .040985109 .043304445 .040985109 .0073242189 .07998657-.013671875 .15299988-.013671875 .24198914-.013671875 .33699037 .015319824 .3849945 .07926941 .4139862 .11723328 .43099977 .16618347 .43099977 .21913147 .43099977 .27108766 .4149933 .31704713 .3869934 .34802247 .3659973 .36999513 .34799195 .38198854 .3039856 .40097047 .37098695 .44093324 .39698792 .4908905 .39698792 .5388489 .39698792 .6207733 .33399964 .67578127 .24099732 .67578127 .13699341 .67578127 .07398987 .6087799 .04499817 .51387026L.06098938 .50987246Z"/>
<path id="font_2_2493" d="M.7599945 .65289309H.5189972L.5149994 .63690188H.5349884C.57299807 .63690188 .58699038 .6298981 .58699038 .6148987 .58699038 .5939026 .56799319 .56489565 .548996 .54089358L.2689972 .17489624 .2649994 .17590332V.56689456C.2649994 .5998993 .269989 .63690188 .33499146 .63690188H.35398866L.35798646 .65289309H.06399536L.05999756 .63690188C.12098694 .63690188 .15899658 .6128998 .15899658 .5549011V-.016098023H.18299866L.6239929 .559906C.6499939 .5939026 .69099429 .63290408 .7559967 .63690188L.7599945 .65289309Z"/>
<path id="font_2_50" d="M.3939972 0V.01499939C.31900025 .01499939 .29899598 .032989503 .29899598 .07597351V.67277529L.2899933 .67578127 .11099243 .5847931V.5708008L.13798523 .5807953C.1559906 .5877991 .17298889 .59280398 .18299866 .59280398 .20399475 .59280398 .21299744 .57780459 .21299744 .543808V.0949707C.21299744 .039978029 .19198609 .018997193 .117996219 .01499939V0H.3939972Z"/>
<path id="font_2_2477" d="M.72299197 .65319827H.20298767L.19898987 .63819888H.21798706C.27799989 .63819888 .2939911 .62020877 .2939911 .5991821 .2939911 .59217837 .2919922 .58317568 .2899933 .5751648L.1659851 .07800293C.15699768 .04399109 .13598633 .015991211 .05999756 .015991211H.041992189L.037994386 0H.37998963L.38398744 .015991211H.35198976C.2919922 .015991211 .272995 .03199768 .272995 .056991579 .272995 .06399536 .27598573 .07199097 .2769928 .07800293L.33898927 .33203126H.43598939C.46499635 .33203126 .5059967 .32902528 .5059967 .28201295 .5059967 .26402284 .5039978 .23501587 .5009918 .2210083H.5169983L.57699587 .463089H.5609894C.5399933 .3780365 .49398805 .36802674 .43199159 .36802674H.34899903L.41099549 .61621096H.55799868C.6049957 .61621096 .6649933 .607193 .66799929 .5291443 .66799929 .5151367 .66799929 .5011139 .6669922 .4931183H.68299868L.72299197 .65319827Z"/>
<path id="font_2_62" d="M.6369934 .31973268V.3857422H.04798889V.31973268H.6369934M.6369934 .12011719V.18611145H.04798889V.12011719H.6369934Z"/>
<path id="font_3_37" d="M.015991211 .6621094V.6430969C.09199524 .6381073 .10398865 .6291046 .10398865 .55007937V.11500549C.10398865 .036987306 .09399414 .023986817 .015991211 .018997193V0H.29699708C.397995 0 .4869995 .023986817 .548996 .06399536 .6380005 .1210022 .68499758 .21502686 .68499758 .3340454 .68499758 .4370575 .651001 .5150757 .58599856 .5710907 .5179901 .63009646 .4149933 .6621094 .28599549 .6621094H.015991211M.20599365 .5830841C.20599365 .6161041 .22099304 .6251068 .25898744 .6251068 .35899354 .6251068 .42199708 .60809329 .48098756 .5560913 .5439911 .5010834 .57598879 .43206788 .57598879 .3280487 .57598879 .21502686 .5419922 .13601685 .47200013 .08900452 .4119873 .04899597 .35699464 .036987306 .2539978 .036987306 .21499634 .036987306 .20599365 .04899597 .20599365 .083999637V.5830841Z"/>
<path id="font_3_74" d="M.17999268 .63204959C.17999268 .66004946 .1579895 .68304446 .1289978 .68304446 .100997928 .68304446 .07798767 .66004946 .07798767 .63204959 .07798767 .6030426 .099990848 .5810547 .12799073 .5810547 .1579895 .5810547 .17999268 .6030426 .17999268 .63204959M.25299073 0V.01499939C.18699646 .019989014 .1789856 .0309906 .1789856 .10499573V.45603944L.1749878 .46003724 .019989014 .4050293V.38902284C.037994386 .3940277 .052993776 .3940277 .06199646 .3940277 .08699036 .3940277 .09498596 .37802125 .09498596 .33102418V.104003909C.09498596 .027999878 .084991458 .018997193 .015991211 .01499939V0H.25299073Z"/>
<path id="font_3_83" d="M.1599884 .45794679 .15499878 .45996095C.101989749 .43894959 .06599426 .42495729 .0069885256 .40596009V.3899536C.020996094 .3929596 .02999878 .39396668 .041992189 .39396668 .066986087 .39396668 .07598877 .3779602 .07598877 .33396913V.083984378C.07598877 .033996583 .068984989 .026992798 .004989624 .01499939V0H.24499512V.01499939C.1769867 .017990113 .1599884 .032989503 .1599884 .08998108V.31497193C.1599884 .3469696 .20199585 .3969574 .22999573 .3969574 .23599243 .3969574 .24499512 .3919525 .2559967 .381958 .27198792 .36695863 .2829895 .361969 .29599 .361969 .31999208 .361969 .33499146 .3789673 .33499146 .4069519 .33499146 .43995667 .31399537 .45996095 .27999879 .45996095 .23799134 .45996095 .20999146 .43795777 .1599884 .3659668V.45794679Z"/>
<path id="font_3_70" d="M.4079895 .16427613C.35899354 .09024048 .32099916 .05921936 .2539978 .05921936 .20799256 .05921936 .17098999 .07723999 .14299011 .11425781 .10699463 .16227722 .101989749 .20129395 .09700012 .27734376H.40499879C.40098573 .3312683 .3909912 .36315919 .37098695 .3910675 .33898927 .43595887 .2939911 .45996095 .23199463 .45996095 .10598755 .45996095 .024993897 .35816957 .024993897 .21730042 .024993897 .07923889 .09700012-.009765625 .21499634-.009765625 .31498719-.009765625 .3849945 .048233034 .42399598 .15727234L.4079895 .16427613M.09899902 .30934144C.10998535 .38407899 .14898682 .4239502 .20498657 .4239502 .2709961 .4239502 .2919922 .39006043 .30299378 .30934144H.09899902Z"/>
<path id="font_3_68" d="M.397995 .15615845C.34999085 .08621216 .31399537 .06222534 .25698854 .06222534 .16499329 .06222534 .101989749 .14216614 .101989749 .25708009 .101989749 .3610077 .15699768 .43095399 .23799134 .43095399 .27398683 .43095399 .2869873 .41996766 .29699708 .3829956L.30299378 .3610077C.31098939 .33203126 .32899476 .31503297 .35099793 .31503297 .3769989 .31503297 .397995 .33403016 .397995 .3570099 .397995 .41296388 .32798768 .45996095 .24398804 .45996095 .19699097 .45996095 .14898682 .44195558 .10899353 .40896607 .054992677 .3639984 .024993897 .2950592 .024993897 .21211243 .024993897 .08320618 .10398865-.009765625 .21499634-.009765625 .2579956-.009765625 .29599 .0042266848 .32998658 .032226564 .3600006 .056228639 .37998963 .08520508 .4119873 .14717102L.397995 .15615845Z"/>
<path id="font_3_85" d="M.2659912 .07722473C.24398804 .051223756 .22799683 .04222107 .20599365 .04222107 .16899109 .04222107 .1539917 .068222049 .1539917 .1322174V.41818238H.25498963V.4501953H.1539917V.5661926C.1539917 .57618716 .1519928 .5791931 .14698792 .5791931 .14099121 .56918337 .1329956 .56018069 .1269989 .55119326 .08898926 .4961853 .055999757 .45918275 .02999878 .44418336 .018997193 .43719483 .0129852299 .43118287 .0129852299 .42518617 .0129852299 .42218019 .01399231 .42018128 .016998291 .41818238H.069992069V.11721802C.069992069 .033233644 .099990848-.009765625 .1579895-.009765625 .20799256-.009765625 .24598694 .014221191 .2789917 .066223148L.2659912 .07722473Z"/>
<path id="font_3_89" d="M.47898866 0V.01499939C.44799806 .01499939 .4249878 .03199768 .39698792 .07501221L.2689972 .27111817 .35198976 .39117433C.37098695 .41818238 .40098573 .43418885 .43299867 .43518067V.4501953H.2749939V.43518067C.30499269 .43318177 .31498719 .42718507 .31498719 .4131775 .31498719 .40116883 .2999878 .38316346 .27799989 .34814454 .2679901 .33314515 .2579956 .31713868 .24798584 .30412293 .24398804 .3111267 .23899842 .31713868 .23399353 .32414247 .20498657 .36715699 .18798828 .400177 .18798828 .4131775 .18798828 .42819215 .20098877 .43418885 .23098755 .43518067V.4501953H.023986817V.43518067H.032989503C.06298828 .43518067 .07899475 .42218019 .10998535 .37516786L.20399475 .23109436 .08999634 .06600952C.06199646 .024993897 .049987794 .017990113 .016998291 .01499939V0H.1619873V.01499939C.1329956 .01499939 .12199402 .019989014 .12199402 .03300476 .12199402 .040008546 .12799073 .052001954 .14199829 .074020389L.22099304 .19708252 .31199647 .057006837C.31599427 .05101013 .31799317 .04600525 .31799317 .039001466 .31799317 .020996094 .31098939 .016998291 .27799989 .01499939V0H.47898866Z"/>
<path id="font_3_27" d="M.19198609 .40296937C.19198609 .4329834 .16699219 .45898438 .13699341 .45898438 .10499573 .45898438 .08099365 .4349823 .08099365 .40296937 .08099365 .37297059 .10699463 .34797669 .13699341 .34797669 .16699219 .34797669 .19198609 .37297059 .19198609 .40296937M.19198609 .04425049C.19198609 .07424927 .16699219 .100250247 .13699341 .100250247 .10499573 .100250247 .08099365 .07624817 .08099365 .04425049 .08099365 .014251709 .10699463-.0107421879 .13699341-.0107421879 .16699219-.0107421879 .19198609 .014251709 .19198609 .04425049Z"/>
<path id="font_2_53" d="M.47299195 .16699219V.23098755H.36999513V.67578127H.32598878L.011993408 .23098755V.16699219H.2919922V0H.36999513V.16699219H.47299195M.2919922 .23098755H.051986696L.2919922 .573822V.23098755Z"/>
<path id="font_2_55" d="M.44599916 .68470767C.30799867 .66970828 .22898865 .6457062 .14299011 .55570986 .07199097 .48269654 .033996583 .38771058 .033996583 .27960206 .033996583 .20951844 .052993776 .138443 .08099365 .087402347 .115997318 .023330689 .1789856-.013671875 .2579956-.013671875 .32398988-.013671875 .37998963 .013320923 .4169922 .05937195 .44999696 .09941101 .46798707 .1554718 .46798707 .2195282 .46798707 .34866334 .3959961 .42871095 .2789917 .42871095 .23498535 .42871095 .20098877 .42170716 .1519928 .3836975 .1789856 .5346985 .29100038 .6427002 .44799806 .6687012L.44599916 .68470767M.37799073 .18850708C.37799073 .08639526 .34098817 .014328003 .2689972 .014328003 .1749878 .014328003 .1269989 .11442566 .1269989 .2665863 .1269989 .3586731 .18598938 .3827057 .24299622 .3827057 .33599855 .3827057 .37799073 .31663514 .37799073 .18850708Z"/>
<path id="font_2_49" d="M.47599793 .3300476C.47599793 .53486636 .3849945 .67578127 .2539978 .67578127 .09298706 .67578127 .023986817 .5128937 .023986817 .3360443 .023986817 .17218018 .07899475-.013671875 .25-.013671875 .41299439-.013671875 .47599793 .15818787 .47599793 .3300476M.37998963 .32505799C.37998963 .12722779 .33499146 .012313843 .25 .012313843 .1639862 .012313843 .11999512 .1262207 .11999512 .32904054 .11999512 .5318756 .16499329 .6497803 .24798584 .6497803 .33599855 .6497803 .37998963 .53286746 .37998963 .32505799Z"/>
</defs>
<g clip-path="url(#clip_1)">
<path transform="matrix(1,0,0,-1,223.239,302.79399)" stroke-width=".79701" stroke-linecap="round" stroke-linejoin="round" fill="none" stroke="#000000" d="M-141.73404 0H167.49059"/>
<path transform="matrix(1,0,0,-1,390.72959,302.79399)" d="M2.59026 0-1.55415 2.0722 0 0-1.55415-2.0722"/>
<use data-text="&#x1d465;" xlink:href="#font_2_2520" transform="matrix(14.3462,0,0,-14.3462,397.703,305.89299)"/>
<path transform="matrix(1,0,0,-1,223.239,302.79399)" stroke-width=".79701" stroke-linecap="round" stroke-linejoin="round" fill="none" stroke="#000000" d="M0-113.38724V280.8778"/>
<path transform="matrix(0,-1,-1,-0,223.239,21.916169)" d="M2.59026 0-1.55415 2.0722 0 0-1.55415-2.0722"/>
<use data-text="&#x1d466;" xlink:href="#font_2_2521" transform="matrix(14.3462,0,0,-14.3462,219.681,12.316986)"/>
<use data-text="O" xlink:href="#font_3_48" transform="matrix(14.3462,0,0,-14.3462,206.704,318.66899)"/>
<path transform="matrix(1,0,0,-1,223.239,302.79399)" stroke-width="1.59404" stroke-linecap="round" stroke-linejoin="round" fill="none" stroke="#ff0000" d="M87.40251-113.38724C87.40251-113.38724 73.82217-101.44028 68.91496-96.85173 64.00777-92.2632 56.49586-84.90477 52.03474-80.31624 47.57361-75.7277 40.77724-68.36928 36.76225-63.78075 32.74727-59.19221 26.66635-51.83379 23.09752-47.24525 19.52869-42.65671 14.16328-35.2983 11.04053-30.70975 7.91776-26.12122 3.2675-18.76279 .59084-14.17426-2.08583-9.58572-6.0205-2.22731-8.25108 2.3612-10.48166 6.94974-13.70128 14.30817-15.48572 18.8967-17.27016 23.48524-19.77386 30.84367-21.11217 35.4322-22.45047 40.02074-24.23903 47.37917-25.13132 51.9677-26.02359 56.55623-27.097 63.91466-27.54314 68.50319-27.98927 73.09172-28.34674 80.45015-28.3468 85.0387-28.34686 89.62723-27.9896 96.98566-27.54358 101.57419-27.09756 106.16272-26.02434 113.52115-25.13217 118.10968-24.24002 122.69821-22.4517 130.05663-21.11346 134.64516-19.7752 139.2337-17.2714 146.59212-15.48701 151.18067-13.70264 155.7692-10.48328 163.12763-8.2528 167.71616-6.02235 172.30469-2.08786 179.66312 .58867 184.25165 3.26523 188.84018 7.91522 196.19861 11.03792 200.78714 14.16061 205.37569 19.52614 212.7341 23.09491 217.32265 26.66368 221.91118 32.74437 229.2696 36.75923 233.85814 40.77408 238.44667 47.57027 245.8051 52.03127 250.39363 56.49228 254.98217 64.00392 262.34059 68.91107 266.9291 73.81824 271.51768 87.39862 283.46464 87.39862 283.46464"/>
<path transform="matrix(1,0,0,-1,223.239,302.79399)" stroke-width=".79701" stroke-linecap="round" stroke-dasharray="2.98883,2.98883" stroke-linejoin="round" fill="none" stroke="#000000" d="M56.69362-85.04042V255.12128"/>
<path transform="matrix(1,0,0,-1,223.239,302.79399)" stroke-width=".79701" stroke-linecap="round" stroke-linejoin="round" fill="none" stroke="#000000" d="M59.18431 255.12128C59.18431 256.49687 58.0692 257.61198 56.69362 257.61198 55.31802 257.61198 54.20293 256.49687 54.20293 255.12128 54.20293 253.7457 55.31802 252.63059 56.69362 252.63059 58.0692 252.63059 59.18431 253.7457 59.18431 255.12128ZM56.69362 255.12128"/>
<path transform="matrix(1,0,0,-1,223.239,302.79399)" stroke-width=".79701" stroke-linecap="round" stroke-linejoin="round" fill="none" stroke="#000000" d="M59.18431-85.04042C59.18431-83.66484 58.0692-82.54973 56.69362-82.54973 55.31802-82.54973 54.20293-83.66484 54.20293-85.04042 54.20293-86.416 55.31802-87.53111 56.69362-87.53111 58.0692-87.53111 59.18431-86.416 59.18431-85.04042ZM56.69362-85.04042"/>
<path transform="matrix(1,0,0,-1,223.239,302.79399)" stroke-width=".79701" stroke-linecap="round" stroke-dasharray="2.98883,2.98883" stroke-linejoin="round" fill="none" stroke="#000000" d="M0 255.12128H56.69362"/>
<path transform="matrix(1,0,0,-1,223.239,302.79399)" stroke-width=".79701" stroke-linecap="round" stroke-dasharray="2.98883,2.98883" stroke-linejoin="round" fill="none" stroke="#000000" d="M0-85.04042H56.69362"/>
<use data-text="(" xlink:href="#font_2_41" transform="matrix(14.3462,0,0,-14.3462,287.105,51.251985)"/>
<use data-text="2" xlink:href="#font_2_51" transform="matrix(14.3462,0,0,-14.3462,291.8823,51.251985)"/>
<use data-text="," xlink:href="#font_2_45" transform="matrix(14.3462,0,0,-14.3462,299.0554,51.251985)"/>
<use data-text="9" xlink:href="#font_2_58" transform="matrix(14.3462,0,0,-14.3462,305.0234,51.251985)"/>
<use data-text=")" xlink:href="#font_2_42" transform="matrix(14.3462,0,0,-14.3462,312.1965,51.251985)"/>
<use data-text="(" xlink:href="#font_2_41" transform="matrix(14.3462,0,0,-14.3462,287.105,391.41398)"/>
<use data-text="2" xlink:href="#font_2_51" transform="matrix(14.3462,0,0,-14.3462,291.8823,391.41398)"/>
<use data-text="," xlink:href="#font_2_45" transform="matrix(14.3462,0,0,-14.3462,299.0554,391.41398)"/>
<use data-text="&#x2212;" xlink:href="#font_2_1151" transform="matrix(14.3462,0,0,-14.3462,305.0234,391.41398)"/>
<use data-text="3" xlink:href="#font_2_52" transform="matrix(14.3462,0,0,-14.3462,314.85057,391.41398)"/>
<use data-text=")" xlink:href="#font_2_42" transform="matrix(14.3462,0,0,-14.3462,322.02366,391.41398)"/>
<use data-text="9" xlink:href="#font_3_26" transform="matrix(14.3462,0,0,-14.3462,208.893,52.363985)"/>
<use data-text="-" xlink:href="#font_3_14" transform="matrix(14.3462,0,0,-14.3462,204.116,392.58299)"/>
<use data-text="3" xlink:href="#font_3_20" transform="matrix(14.3462,0,0,-14.3462,208.89328,392.58299)"/>
<path transform="matrix(1,0,0,-1,223.239,302.79399)" stroke-width=".79701" stroke-linecap="round" stroke-linejoin="round" fill="none" stroke="#000000" d="M-25.85611 85.04042C-25.85611 86.416-26.97122 87.53111-28.3468 87.53111-29.72238 87.53111-30.8375 86.416-30.8375 85.04042-30.8375 83.66484-29.72238 82.54973-28.3468 82.54973-26.97122 82.54973-25.85611 83.66484-25.85611 85.04042ZM-28.3468 85.04042"/>
<use data-text="&#x1d449;" xlink:href="#font_2_2493" transform="matrix(14.3462,0,0,-14.3462,136.536,231.63599)"/>
<use data-text="(" xlink:href="#font_2_41" transform="matrix(14.3462,0,0,-14.3462,147.99861,231.63599)"/>
<use data-text="&#x2212;" xlink:href="#font_2_1151" transform="matrix(14.3462,0,0,-14.3462,152.7759,231.63599)"/>
<use data-text="1" xlink:href="#font_2_50" transform="matrix(14.3462,0,0,-14.3462,162.60305,231.63599)"/>
<use data-text="," xlink:href="#font_2_45" transform="matrix(14.3462,0,0,-14.3462,169.77616,231.63599)"/>
<use data-text="3" xlink:href="#font_2_52" transform="matrix(14.3462,0,0,-14.3462,175.75852,231.63599)"/>
<use data-text=")" xlink:href="#font_2_42" transform="matrix(14.3462,0,0,-14.3462,182.93161,231.63599)"/>
<path transform="matrix(1,0,0,-1,223.239,302.79399)" stroke-width=".79701" stroke-linecap="round" stroke-linejoin="round" fill="none" stroke="#000000" d="M53.85875 85.04042H59.52846"/>
<path transform="matrix(1,0,0,-1,223.239,302.79399)" stroke-width=".79701" stroke-linecap="round" stroke-linejoin="round" fill="none" stroke="#000000" d="M56.69362 82.20555V87.87527"/>
<use data-text="&#x1d439;" xlink:href="#font_2_2477" transform="matrix(14.3462,0,0,-14.3462,287.105,211.02997)"/>
<use data-text="(" xlink:href="#font_2_41" transform="matrix(14.3462,0,0,-14.3462,298.0368,211.02997)"/>
<use data-text="2" xlink:href="#font_2_51" transform="matrix(14.3462,0,0,-14.3462,302.8141,211.02997)"/>
<use data-text="," xlink:href="#font_2_45" transform="matrix(14.3462,0,0,-14.3462,309.98719,211.02997)"/>
<use data-text="3" xlink:href="#font_2_52" transform="matrix(14.3462,0,0,-14.3462,315.96955,211.02997)"/>
<use data-text=")" xlink:href="#font_2_42" transform="matrix(14.3462,0,0,-14.3462,323.14265,211.02997)"/>
<path transform="matrix(1,0,0,-1,223.239,302.79399)" stroke-width=".79701" stroke-linecap="round" stroke-dasharray="2.98883,2.98883" stroke-linejoin="round" fill="none" stroke="#000000" d="M-141.73404 85.04042H170.08086"/>
<use data-text="&#x1d466;" xlink:href="#font_2_2521" transform="matrix(14.3462,0,0,-14.3462,397.703,221.28998)"/>
<use data-text="=" xlink:href="#font_2_62" transform="matrix(14.3462,0,0,-14.3462,408.7926,221.28998)"/>
<use data-text="3" xlink:href="#font_2_52" transform="matrix(14.3462,0,0,-14.3462,422.60804,221.28998)"/>
<path transform="matrix(1,0,0,-1,223.239,302.79399)" stroke-width=".79701" stroke-linecap="round" stroke-linejoin="round" fill="none" stroke="#000000" d="M-113.38724-113.38724V283.4681"/>
<use data-text="D" xlink:href="#font_3_37" transform="matrix(14.3462,0,0,-14.3462,-.018005372,33.507966)"/>
<use data-text="i" xlink:href="#font_3_74" transform="matrix(14.3462,0,0,-14.3462,10.339951,33.507966)"/>
<use data-text="r" xlink:href="#font_3_83" transform="matrix(14.3462,0,0,-14.3462,14.328201,33.507966)"/>
<use data-text="e" xlink:href="#font_3_70" transform="matrix(14.3462,0,0,-14.3462,19.076798,33.507966)"/>
<use data-text="c" xlink:href="#font_3_68" transform="matrix(14.3462,0,0,-14.3462,25.446518,33.507966)"/>
<use data-text="t" xlink:href="#font_3_85" transform="matrix(14.3462,0,0,-14.3462,31.816239,33.507966)"/>
<use data-text="r" xlink:href="#font_3_83" transform="matrix(14.3462,0,0,-14.3462,35.80449,33.507966)"/>
<use data-text="i" xlink:href="#font_3_74" transform="matrix(14.3462,0,0,-14.3462,40.84001,33.507966)"/>
<use data-text="x" xlink:href="#font_3_89" transform="matrix(14.3462,0,0,-14.3462,44.828264,33.507966)"/>
<use data-text=":" xlink:href="#font_3_27" transform="matrix(14.3462,0,0,-14.3462,52.001359,33.507966)"/>
<use data-text="&#x1d465;" xlink:href="#font_2_2520" transform="matrix(14.3462,0,0,-14.3462,60.785997,33.507966)"/>
<use data-text="=" xlink:href="#font_2_62" transform="matrix(14.3462,0,0,-14.3462,72.650318,33.507966)"/>
<use data-text="&#x2212;" xlink:href="#font_2_1151" transform="matrix(14.3462,0,0,-14.3462,86.46571,33.507966)"/>
<use data-text="4" xlink:href="#font_2_53" transform="matrix(14.3462,0,0,-14.3462,96.29286,33.507966)"/>
<use data-text="&#x1d466;" xlink:href="#font_2_2521" transform="matrix(14.3462,0,0,-14.3462,328.38099,12.516968)" fill="#ff0000"/>
<use data-text="2" xlink:href="#font_2_51" transform="matrix(9.9626,0,0,-9.9626,335.496,6.7769777)" fill="#ff0000"/>
<use data-text="&#x2212;" xlink:href="#font_2_1151" transform="matrix(14.3462,0,0,-14.3462,344.164,12.516968)" fill="#ff0000"/>
<use data-text="1" xlink:href="#font_2_50" transform="matrix(14.3462,0,0,-14.3462,357.176,12.516968)" fill="#ff0000"/>
<use data-text="2" xlink:href="#font_2_51" transform="matrix(14.3462,0,0,-14.3462,364.3491,12.516968)" fill="#ff0000"/>
<use data-text="&#x1d465;" xlink:href="#font_2_2520" transform="matrix(14.3462,0,0,-14.3462,371.5222,12.516968)" fill="#ff0000"/>
<use data-text="&#x2212;" xlink:href="#font_2_1151" transform="matrix(14.3462,0,0,-14.3462,382.59745,12.516968)" fill="#ff0000"/>
<use data-text="6" xlink:href="#font_2_55" transform="matrix(14.3462,0,0,-14.3462,395.60945,12.516968)" fill="#ff0000"/>
<use data-text="&#x1d466;" xlink:href="#font_2_2521" transform="matrix(14.3462,0,0,-14.3462,402.78254,12.516968)" fill="#ff0000"/>
<use data-text="&#x2212;" xlink:href="#font_2_1151" transform="matrix(14.3462,0,0,-14.3462,413.09745,12.516968)" fill="#ff0000"/>
<use data-text="3" xlink:href="#font_2_52" transform="matrix(14.3462,0,0,-14.3462,426.10945,12.516968)" fill="#ff0000"/>
<use data-text="=" xlink:href="#font_2_62" transform="matrix(14.3462,0,0,-14.3462,437.27079,12.516968)" fill="#ff0000"/>
<use data-text="0" xlink:href="#font_2_49" transform="matrix(14.3462,0,0,-14.3462,451.07185,12.516968)" fill="#ff0000"/>
</g>
</svg>
