<svg xmlns="http://www.w3.org/2000/svg" xmlns:xlink="http://www.w3.org/1999/xlink" xmlns:inkscape="http://www.inkscape.org/namespaces/inkscape" version="1.1" width="423" height="414" viewBox="0 0 423 414">
<defs>
<clipPath id="clip_1">
<path transform="matrix(1,0,0,-1,-84,766)" d="M0 0H595.28V841.89H0Z"/>
</clipPath>
<path id="font_2_2520" d="M.30499269 .28834535 .2849884 .3433838C.272995 .3764038 .2539978 .41740418 .20999146 .44140626L.07798767 .4084015 .08099365 .39039613C.09098816 .39439393 .10598755 .39639283 .11898804 .39639283 .17399597 .39639283 .19999695 .35539247 .21699524 .3073578L.25 .21530152 .18499756 .11424255C.15299988 .065216068 .1269989 .0552063 .114990238 .0552063 .08999634 .0552063 .09399414 .07521057 .067993167 .07521057 .042999269 .07521057 .02999878 .05419922 .02999878 .038208009 .02999878 .016204834 .04598999-.0087890629 .08198547-.0087890629 .13798523-.0087890629 .16699219 .034210206 .19898987 .083221439L.2619934 .18127442 .3019867 .06820679C.31498719 .032196046 .33399964-.0087890629 .375-.0087890629 .43299867-.0087890629 .47799684 .08721924 .48999024 .10223389L.47599793 .11224365C.45498658 .06921387 .43099977 .0552063 .4149933 .0552063 .36999513 .0552063 .34700013 .19029236 .31698609 .25231935L.37199403 .33737184C.38598634 .35939027 .39698792 .37539674 .4269867 .37539674 .44400025 .37539674 .44898988 .36639405 .47099305 .36639405 .49699403 .36639405 .5099945 .3894043 .5099945 .4084015 .5099945 .42939759 .49299623 .44140626 .46099855 .44140626 .41099549 .44140626 .37599183 .3973999 .34999085 .35739137L.30499269 .28834535Z"/>
<path id="font_2_2521" d="M.269989 .30682374C.26098634 .38082887 .2539978 .40682984 .23098755 .4398346L.08099365 .41482545 .08299255 .39883424C.09199524 .39982606 .10798645 .40283204 .11898804 .40283204 .1749878 .40283204 .18399048 .34283448 .18899536 .2978363L.22698975-.016174317C.20098877-.056167604 .14399719-.11816406 .1269989-.11816406 .11099243-.11816406 .11299133-.08717346 .069992069-.08717346 .056991579-.08717346 .02999878-.09817505 .02999878-.12817383 .02999878-.1521759 .04899597-.1831665 .085998538-.1831665 .1539917-.1831665 .21899414-.08517456 .2919922 .0068359377 .33399964 .059829713 .49598695 .2998352 .49598695 .37782289 .49598695 .41682435 .47099305 .4398346 .43899537 .4398346 .4099884 .4398346 .3919983 .42182923 .3919983 .39982606 .3919983 .36183167 .44400025 .3518219 .44400025 .3308258 .44400025 .3128357 .43598939 .29283143 .41600038 .25582887 .3939972 .21482849 .35899354 .15483094 .2979889 .07182312L.269989 .30682374Z"/>
<path id="font_3_48" d="M.6879883 .33103944C.6879883 .5288696 .5569916 .67578127 .36099244 .67578127 .1659851 .67578127 .033996583 .53686526 .033996583 .3340454 .033996583 .1262207 .16699219-.013671875 .36099244-.013671875 .5529938-.013671875 .6879883 .12522888 .6879883 .33103944M.57398989 .33703614C.57398989 .21714783 .54599 .12322998 .4909973 .07028198 .45599366 .03730774 .4119873 .022323609 .3619995 .022323609 .31599427 .022323609 .27198792 .03630066 .23799134 .067276 .1769867 .12322998 .147995 .21315003 .147995 .3320465 .147995 .42695619 .17399597 .52388 .21699524 .5728302 .2559967 .6177826 .30599977 .6397705 .3600006 .6397705 .40699769 .6397705 .44699098 .6227875 .48298646 .59280398 .5399933 .54486086 .57398989 .450943 .57398989 .33703614Z"/>
<path id="font_2_53" d="M.47299195 .16699219V.23098755H.36999513V.67578127H.32598878L.011993408 .23098755V.16699219H.2919922V0H.36999513V.16699219H.47299195M.2919922 .23098755H.051986696L.2919922 .573822V.23098755Z"/>
<path id="font_2_54" d="M.43798829 .68110659 .42900086 .6880951C.41299439 .667099 .4039917 .6621094 .3809967 .6621094H.17399597L.06498718 .4251709C.06498718 .4251709 .06399536 .42216493 .06399536 .42016603 .06399536 .4141693 .066986087 .4121704 .07598877 .4121704 .17199707 .4121704 .24198914 .380188 .2889862 .3421936 .33399964 .30621339 .35598756 .2562256 .35598756 .19226074 .35598756 .106292728 .29100038 .02331543 .22099304 .02331543 .20098877 .02331543 .17799378 .032318117 .1499939 .05531311 .117996219 .08129883 .09899902 .08630371 .07598877 .08630371 .04798889 .08630371 .0309906 .07330322 .0309906 .048309328 .0309906 .010314941 .08299255-.013671875 .1579895-.013671875 .22599793-.013671875 .2809906 .0013275147 .32798768 .035308839 .3959961 .08529663 .42599488 .14727783 .42599488 .24324036 .42599488 .29621888 .4169922 .334198 .3909912 .37019349 .33399964 .4491577 .28399659 .47114564 .14099121 .49813844L.18099976 .58309939H.375C.3909912 .58309939 .39898683 .58909609 .4019928 .59609988L.43798829 .68110659Z"/>
<path id="font_2_1157" d="M.30999757 .25195313C.30999757 .3257141 .25 .38671876 .1769867 .38671876 .099990848 .38671876 .039993287 .32870484 .039993287 .25393678 .039993287 .17718506 .09899902 .1171875 .1749878 .1171875 .25 .1171875 .30999757 .17718506 .30999757 .25195313M.24398804 .25195313C.24398804 .21307373 .21398926 .18318177 .1749878 .18318177 .13598633 .18318177 .10598755 .21208191 .10598755 .25393678 .10598755 .29081727 .1349945 .32070924 .1769867 .32070924 .21299744 .32070924 .24398804 .29081727 .24398804 .25195313Z"/>
<path id="font_2_3866" d="M.1289978 .0289917C.18099976 .125 .2869873 .33599855 .30499269 .3849945 .30899049 .394989 .31298829 .41600038 .31298829 .4249878 .31298829 .46699525 .28599549 .4850006 .2559967 .4850006 .22999573 .4850006 .20498657 .46998597 .19099427 .4269867 .17599488 .3769989 .12199402 .14399719 .099990848 .038986207L.1289978 .0289917Z"/>
<path id="font_2_51" d="M.47399903 .13696289 .45999146 .1429596C.4269867 .08699036 .4059906 .07598877 .3639984 .07598877H.12998963L.29499818 .2519226C.38398744 .34588624 .4229889 .42085267 .4229889 .4998169 .4229889 .59877017 .35099793 .67578127 .23799134 .67578127 .114990238 .67578127 .050994874 .5937805 .02999878 .4768219L.050994874 .47183229C.09098816 .5697937 .12599182 .6017761 .19799805 .6017761 .2829895 .6017761 .33699037 .55178835 .33699037 .4608307 .33699037 .37586976 .30099488 .29989625 .20698548 .200943L.0289917 .011993408V0H.41999818L.47399903 .13696289Z"/>
<path id="font_2_1151" d="M.62098696 .22012329V.2861328H.06399536V.22012329H.62098696Z"/>
<path id="font_2_44" d="M.6359863 .22012329V.2861328H.375V.54711917H.30899049V.2861328H.04798889V.22012329H.30899049V-.040878297H.375V.22012329H.6359863Z"/>
<path id="font_2_49" d="M.47599793 .3300476C.47599793 .53486636 .3849945 .67578127 .2539978 .67578127 .09298706 .67578127 .023986817 .5128937 .023986817 .3360443 .023986817 .17218018 .07899475-.013671875 .25-.013671875 .41299439-.013671875 .47599793 .15818787 .47599793 .3300476M.37998963 .32505799C.37998963 .12722779 .33499146 .012313843 .25 .012313843 .1639862 .012313843 .11999512 .1262207 .11999512 .32904054 .11999512 .5318756 .16499329 .6497803 .24798584 .6497803 .33599855 .6497803 .37998963 .53286746 .37998963 .32505799Z"/>
<path id="font_2_50" d="M.3939972 0V.01499939C.31900025 .01499939 .29899598 .032989503 .29899598 .07597351V.67277529L.2899933 .67578127 .11099243 .5847931V.5708008L.13798523 .5807953C.1559906 .5877991 .17298889 .59280398 .18299866 .59280398 .20399475 .59280398 .21299744 .57780459 .21299744 .543808V.0949707C.21299744 .039978029 .19198609 .018997193 .117996219 .01499939V0H.3939972Z"/>
<path id="font_2_62" d="M.6369934 .31973268V.3857422H.04798889V.31973268H.6369934M.6369934 .12011719V.18611145H.04798889V.12011719H.6369934Z"/>
<path id="font_2_41" d="M.3039856-.16122437C.1639862-.04423523 .13398743 .06877136 .13398743 .254776 .13398743 .44776917 .16499329 .5407715 .3039856 .6597748L.29499818 .67578127C.1349945 .58078 .04798889 .43676759 .04798889 .25177003 .04798889 .08177185 .13398743-.0872345 .2919922-.17723084L.3039856-.16122437Z"/>
<path id="font_2_42" d="M.0289917 .6597748C.17399597 .54577639 .19898987 .43077088 .19898987 .24377442 .19898987 .04977417 .17098999-.04423523 .0289917-.16122437L.037994386-.17723084C.19699097-.08023071 .2849884 .061767579 .2849884 .24676514 .2849884 .41677857 .19400025 .58377078 .040985109 .67578127L.0289917 .6597748Z"/>
<path id="font_2_1159" d="M.96299746 .97299197H.9089966L.49499513-.09300232H.4909973L.2869873 .44299317H.2679901L.11199951 .31900025 .12399292 .29899598C.1459961 .31900025 .17199707 .32998658 .18899536 .32998658 .21398926 .32998658 .23399353 .31599427 .25099183 .2709961L.45298768-.2590027H.4850006L.96299746 .97299197Z"/>
<path id="font_2_3774" d="M.7319946-.45300294C.5079956-.2210083 .2539978 .2829895 .2539978 1.0289917 .2539978 1.8059998 .5079956 2.2789918 .7319946 2.5099946V2.5659943C.3769989 2.2799988 .12399292 1.7019959 .12399292 1.0289917 .12399292 .35398866 .3769989-.2230072 .7319946-.5090027V-.45300294Z"/>
<path id="font_2_3775" d="M.07598877 2.5099946C.2999878 2.2779999 .55400088 1.79599 .55400088 1.0299988 .55400088 .272995 .2999878-.22201538 .07598877-.45300294V-.5090027C.43099977-.2230072 .6839905 .3619995 .6839905 1.0289917 .6839905 1.7099915 .43099977 2.2799988 .07598877 2.5659943V2.5099946Z"/>
</defs>
<g clip-path="url(#clip_1)">
<path transform="matrix(1,0,0,-1,157.007,257.094)" stroke-width=".79701" stroke-linecap="round" stroke-dasharray="2.98883,2.98883" stroke-linejoin="round" fill="none" stroke="#000000" d="M-155.90831 0H184.4997"/>
<path transform="matrix(1,0,0,-1,341.5067,257.094)" d="M2.59026 0-1.55415 2.0722 0 0-1.55415-2.0722"/>
<use data-text="&#x1d465;" xlink:href="#font_2_2520" transform="matrix(14.3462,0,0,-14.3462,348.48,260.193)"/>
<path transform="matrix(1,0,0,-1,157.007,257.094)" stroke-width=".79701" stroke-linecap="round" stroke-dasharray="2.98883,2.98883" stroke-linejoin="round" fill="none" stroke="#000000" d="M0-155.90831V184.4997"/>
<path transform="matrix(0,-1,-1,-0,157.007,72.5943)" d="M2.59026 0-1.55415 2.0722 0 0-1.55415-2.0722"/>
<use data-text="&#x1d466;" xlink:href="#font_2_2521" transform="matrix(14.3462,0,0,-14.3462,153.449,62.994997)"/>
<use data-text="O" xlink:href="#font_3_48" transform="matrix(14.3462,0,0,-14.3462,161.19101,252.709)"/>
<path transform="matrix(1,0,0,-1,157.007,257.094)" stroke-width=".79701" stroke-linecap="round" stroke-linejoin="round" fill="none" stroke="#000000" d="M46.77246 0C46.77246 12.40251 41.843 24.30331 33.07315 33.07315"/>
<use data-text="4" xlink:href="#font_2_53" transform="matrix(14.3462,0,0,-14.3462,204.60102,244.03099)"/>
<use data-text="5" xlink:href="#font_2_54" transform="matrix(14.3462,0,0,-14.3462,211.77411,244.03099)"/>
<use data-text="&#x2218;" xlink:href="#font_2_1157" transform="matrix(9.9626,0,0,-9.9626,218.94699,238.29199)"/>
<path transform="matrix(1,0,0,-1,157.007,257.094)" stroke-width=".79701" stroke-linecap="round" stroke-linejoin="round" fill="none" stroke="#000000" d="M0 46.77246C-12.40251 46.77246-24.30331 41.843-33.07315 33.07315"/>
<use data-text="4" xlink:href="#font_2_53" transform="matrix(14.3462,0,0,-14.3462,129.94301,209.29999)"/>
<use data-text="5" xlink:href="#font_2_54" transform="matrix(14.3462,0,0,-14.3462,137.1161,209.29999)"/>
<use data-text="&#x2218;" xlink:href="#font_2_1157" transform="matrix(9.9626,0,0,-9.9626,144.289,203.561)"/>
<path transform="matrix(1,0,0,-1,157.007,257.094)" stroke-width=".79701" stroke-linecap="round" stroke-linejoin="round" fill="none" stroke="#0000ff" d="M-110.24312-110.24312 174.55738 174.55738"/>
<path transform="matrix(.7071,-.7071,-.7071,-.7071,331.5644,82.53662)" d="M2.59026 0-1.55415 2.0722 0 0-1.55415-2.0722" fill="#0000ff"/>
<use data-text="&#x1d465;" xlink:href="#font_2_2520" transform="matrix(14.3462,0,0,-14.3462,337.779,85.925998)" fill="#0000ff"/>
<use data-text="&#x2032;" xlink:href="#font_2_3866" transform="matrix(9.9626,0,0,-9.9626,345.669,80.187)" fill="#0000ff"/>
<path transform="matrix(1,0,0,-1,157.007,257.094)" stroke-width=".79701" stroke-linecap="round" stroke-linejoin="round" fill="none" stroke="#0000ff" d="M132.29174-132.29174-130.46013 130.46013"/>
<path transform="matrix(-.7071,-.7071,-.7071,.7071,26.546875,126.633869)" d="M2.59026 0-1.55415 2.0722 0 0-1.55415-2.0722" fill="#0000ff"/>
<use data-text="&#x1d466;" xlink:href="#font_2_2521" transform="matrix(14.3462,0,0,-14.3462,18.850998,117.79399)" fill="#0000ff"/>
<use data-text="&#x2032;" xlink:href="#font_2_3866" transform="matrix(9.9626,0,0,-9.9626,25.966004,112.05499)" fill="#0000ff"/>
<use data-text="O" xlink:href="#font_3_48" transform="matrix(14.3462,0,0,-14.3462,137.852,271.849)" fill="#0000ff"/>
<use data-text="&#x2032;" xlink:href="#font_2_3866" transform="matrix(9.9626,0,0,-9.9626,148.21,266.11)" fill="#0000ff"/>
<path transform="matrix(1,0,0,-1,157.007,257.094)" stroke-width="1.59404" stroke-linecap="round" stroke-linejoin="round" fill="none" stroke="#ff0000" d="M191.09221 14.70323C191.09221 14.70323 182.85628 17.08731 179.75936 18.06926 176.66246 19.05121 171.77266 20.70255 168.77172 21.78047 165.77079 22.85838 161.0354 24.66414 158.13062 25.83823 155.22586 27.01231 150.64456 28.97215 147.83603 30.2425 145.02753 31.51283 140.60102 33.62746 137.88866 34.99397 135.1763 36.36046 130.90348 38.6288 128.28711 40.09132 125.67078 41.55382 121.55193 43.9761 119.03178 45.53484 116.51164 47.09355 112.54758 49.67062 110.12364 51.32555 107.69974 52.98048 103.88959 55.71147 101.56172 57.46248 99.23386 59.21346 95.57765 62.0984 93.34596 63.94557 91.11429 65.79274 87.61261 68.83224 85.47707 70.77557 83.34154 72.71889 79.99387 75.91235 77.95438 77.95172 75.91492 79.99109 72.72127 83.33855 70.7779 85.47404 68.83453 87.60953 65.79506 91.11118 63.94794 93.34294 62.10081 95.57466 59.21617 99.23116 57.46518 101.55902 55.71417 103.88687 52.9828 107.69664 51.32791 110.12062 49.67303 112.54459 47.09662 116.50934 45.53784 119.02943 43.97908 121.54953 41.55603 125.6676 40.09332 128.28377 38.63062 130.89992 36.36212 135.17255 34.99565 137.88495 33.6292 140.59735 31.51515 145.02443 30.24484 147.833 28.97456 150.64157 27.01448 155.22263 25.84024 158.12725 24.66602 161.03188 22.85988 165.76689 21.7818 168.76769 20.70375 171.76848 19.05217 176.65805 18.07027 179.755 17.08835 182.85195 14.7049 191.0885 14.7049 191.0885"/>
<path transform="matrix(1,0,0,-1,157.007,257.094)" stroke-width=".79701" stroke-linecap="round" stroke-linejoin="round" fill="none" stroke="#000000" d="M79.89034 79.89034C78.82039 80.96028 77.0857 80.96028 76.01575 79.89034 74.9458 78.82039 74.9458 77.0857 76.01575 76.01575 77.0857 74.9458 78.82039 74.9458 79.89034 76.01575 80.96028 77.0857 80.96028 78.82039 79.89034 79.89034ZM77.95305 77.95305"/>
<use data-text="&#x1d465;" xlink:href="#font_2_2520" transform="matrix(14.3462,0,0,-14.3462,203.238,12.564987)" fill="#ff0000"/>
<use data-text="2" xlink:href="#font_2_51" transform="matrix(9.9626,0,0,-9.9626,211.128,6.825989)" fill="#ff0000"/>
<use data-text="&#x2212;" xlink:href="#font_2_1151" transform="matrix(14.3462,0,0,-14.3462,219.796,12.564987)" fill="#ff0000"/>
<use data-text="2" xlink:href="#font_2_51" transform="matrix(14.3462,0,0,-14.3462,232.80802,12.564987)" fill="#ff0000"/>
<use data-text="&#x1d465;" xlink:href="#font_2_2520" transform="matrix(14.3462,0,0,-14.3462,239.98111,12.564987)" fill="#ff0000"/>
<use data-text="&#x1d466;" xlink:href="#font_2_2521" transform="matrix(14.3462,0,0,-14.3462,247.87152,12.564987)" fill="#ff0000"/>
<use data-text="+" xlink:href="#font_2_44" transform="matrix(14.3462,0,0,-14.3462,258.1721,12.564987)" fill="#ff0000"/>
<use data-text="&#x1d466;" xlink:href="#font_2_2521" transform="matrix(14.3462,0,0,-14.3462,271.1841,12.564987)" fill="#ff0000"/>
<use data-text="2" xlink:href="#font_2_51" transform="matrix(9.9626,0,0,-9.9626,278.31,6.825989)" fill="#ff0000"/>
<use data-text="&#x2212;" xlink:href="#font_2_1151" transform="matrix(14.3462,0,0,-14.3462,286.978,12.564987)" fill="#ff0000"/>
<use data-text="2" xlink:href="#font_2_51" transform="matrix(14.3462,0,0,-14.3462,299.99,12.564987)" fill="#ff0000"/>
<use data-text="0" xlink:href="#font_2_49" transform="matrix(14.3462,0,0,-14.3462,307.1631,12.564987)" fill="#ff0000"/>
<use data-text="&#x1d465;" xlink:href="#font_2_2520" transform="matrix(14.3462,0,0,-14.3462,314.33619,12.564987)" fill="#ff0000"/>
<use data-text="&#x2212;" xlink:href="#font_2_1151" transform="matrix(14.3462,0,0,-14.3462,325.41145,12.564987)" fill="#ff0000"/>
<use data-text="2" xlink:href="#font_2_51" transform="matrix(14.3462,0,0,-14.3462,338.42344,12.564987)" fill="#ff0000"/>
<use data-text="0" xlink:href="#font_2_49" transform="matrix(14.3462,0,0,-14.3462,345.59654,12.564987)" fill="#ff0000"/>
<use data-text="&#x1d466;" xlink:href="#font_2_2521" transform="matrix(14.3462,0,0,-14.3462,352.76963,12.564987)" fill="#ff0000"/>
<use data-text="+" xlink:href="#font_2_44" transform="matrix(14.3462,0,0,-14.3462,363.0702,12.564987)" fill="#ff0000"/>
<use data-text="1" xlink:href="#font_2_50" transform="matrix(14.3462,0,0,-14.3462,376.09654,12.564987)" fill="#ff0000"/>
<use data-text="0" xlink:href="#font_2_49" transform="matrix(14.3462,0,0,-14.3462,383.26963,12.564987)" fill="#ff0000"/>
<use data-text="0" xlink:href="#font_2_49" transform="matrix(14.3462,0,0,-14.3462,390.44273,12.564987)" fill="#ff0000"/>
<use data-text="=" xlink:href="#font_2_62" transform="matrix(14.3462,0,0,-14.3462,401.60408,12.564987)" fill="#ff0000"/>
<use data-text="0" xlink:href="#font_2_49" transform="matrix(14.3462,0,0,-14.3462,415.40513,12.564987)" fill="#ff0000"/>
<use data-text="(" xlink:href="#font_2_41" transform="matrix(14.3462,0,0,-14.3462,199.87,42.408998)" fill="#ff0000"/>
<use data-text="&#x1d466;" xlink:href="#font_2_2521" transform="matrix(14.3462,0,0,-14.3462,204.64728,42.408998)" fill="#ff0000"/>
<use data-text="&#x2032;" xlink:href="#font_2_3866" transform="matrix(9.9626,0,0,-9.9626,211.763,36.67)" fill="#ff0000"/>
<use data-text=")" xlink:href="#font_2_42" transform="matrix(14.3462,0,0,-14.3462,216.375,42.408998)" fill="#ff0000"/>
<use data-text="2" xlink:href="#font_2_51" transform="matrix(9.9626,0,0,-9.9626,221.15302,36.67)" fill="#ff0000"/>
<use data-text="=" xlink:href="#font_2_62" transform="matrix(14.3462,0,0,-14.3462,230.61801,42.408998)" fill="#ff0000"/>
<use data-text="1" xlink:href="#font_2_50" transform="matrix(14.3462,0,0,-14.3462,244.41904,42.408998)" fill="#ff0000"/>
<use data-text="0" xlink:href="#font_2_49" transform="matrix(14.3462,0,0,-14.3462,251.59214,42.408998)" fill="#ff0000"/>
<use data-text="&#x221a;" xlink:href="#font_2_1159" transform="matrix(14.3462,0,0,-14.3462,258.776,40.873994)" fill="#ff0000"/>
<path transform="matrix(1,0,0,-1,30.862999,-218.57501)" stroke-width=".9468" stroke-linecap="butt" stroke-linejoin="round" fill="none" stroke="#ff0000" d="M241.227-245.964H248.4"/>
<use data-text="2" xlink:href="#font_2_51" transform="matrix(14.3462,0,0,-14.3462,272.09,42.408998)" fill="#ff0000"/>
<use data-text="(" xlink:href="#font_2_3774" transform="matrix(14.3462,0,0,-14.3462,281.654,53.576997)" fill="#ff0000"/>
<use data-text="&#x1d465;" xlink:href="#font_2_2520" transform="matrix(14.3462,0,0,-14.3462,293.246,42.408998)" fill="#ff0000"/>
<use data-text="&#x2032;" xlink:href="#font_2_3866" transform="matrix(9.9626,0,0,-9.9626,301.13603,36.67)" fill="#ff0000"/>
<use data-text="&#x2212;" xlink:href="#font_2_1151" transform="matrix(14.3462,0,0,-14.3462,308.937,42.408998)" fill="#ff0000"/>
<use data-text="5" xlink:href="#font_2_54" transform="matrix(14.3462,0,0,-14.3462,323.148,32.582)" fill="#ff0000"/>
<use data-text="&#x221a;" xlink:href="#font_2_1159" transform="matrix(14.3462,0,0,-14.3462,330.321,31.793)" fill="#ff0000"/>
<path transform="matrix(1,0,0,-1,30.862999,-218.57501)" stroke-width=".9468" stroke-linecap="butt" stroke-linejoin="round" fill="none" stroke="#ff0000" d="M312.772-236.882H319.945"/>
<use data-text="2" xlink:href="#font_2_51" transform="matrix(14.3462,0,0,-14.3462,343.635,32.581987)" fill="#ff0000"/>
<path transform="matrix(1,0,0,-1,30.862999,-218.57501)" stroke-width=".9468" stroke-linecap="butt" stroke-linejoin="round" fill="none" stroke="#ff0000" d="M292.285-257.397H319.945"/>
<use data-text="2" xlink:href="#font_2_51" transform="matrix(14.3462,0,0,-14.3462,333.39103,52.453004)" fill="#ff0000"/>
<use data-text=")" xlink:href="#font_2_3775" transform="matrix(14.3462,0,0,-14.3462,352.00303,53.576997)" fill="#ff0000"/>
</g>
</svg>
