<svg xmlns="http://www.w3.org/2000/svg" xmlns:xlink="http://www.w3.org/1999/xlink" xmlns:inkscape="http://www.inkscape.org/namespaces/inkscape" version="1.1" width="271" height="273" viewBox="0 0 271 273">
<defs>
<clipPath id="clip_1">
<path transform="matrix(1,0,0,-1,-159,764)" d="M0 0H595.28V841.89H0Z"/>
</clipPath>
<path id="font_2_2520" d="M.30499269 .28834535 .2849884 .3433838C.272995 .3764038 .2539978 .41740418 .20999146 .44140626L.07798767 .4084015 .08099365 .39039613C.09098816 .39439393 .10598755 .39639283 .11898804 .39639283 .17399597 .39639283 .19999695 .35539247 .21699524 .3073578L.25 .21530152 .18499756 .11424255C.15299988 .065216068 .1269989 .0552063 .114990238 .0552063 .08999634 .0552063 .09399414 .07521057 .067993167 .07521057 .042999269 .07521057 .02999878 .05419922 .02999878 .038208009 .02999878 .016204834 .04598999-.0087890629 .08198547-.0087890629 .13798523-.0087890629 .16699219 .034210206 .19898987 .083221439L.2619934 .18127442 .3019867 .06820679C.31498719 .032196046 .33399964-.0087890629 .375-.0087890629 .43299867-.0087890629 .47799684 .08721924 .48999024 .10223389L.47599793 .11224365C.45498658 .06921387 .43099977 .0552063 .4149933 .0552063 .36999513 .0552063 .34700013 .19029236 .31698609 .25231935L.37199403 .33737184C.38598634 .35939027 .39698792 .37539674 .4269867 .37539674 .44400025 .37539674 .44898988 .36639405 .47099305 .36639405 .49699403 .36639405 .5099945 .3894043 .5099945 .4084015 .5099945 .42939759 .49299623 .44140626 .46099855 .44140626 .41099549 .44140626 .37599183 .3973999 .34999085 .35739137L.30499269 .28834535Z"/>
<path id="font_2_2521" d="M.269989 .30682374C.26098634 .38082887 .2539978 .40682984 .23098755 .4398346L.08099365 .41482545 .08299255 .39883424C.09199524 .39982606 .10798645 .40283204 .11898804 .40283204 .1749878 .40283204 .18399048 .34283448 .18899536 .2978363L.22698975-.016174317C.20098877-.056167604 .14399719-.11816406 .1269989-.11816406 .11099243-.11816406 .11299133-.08717346 .069992069-.08717346 .056991579-.08717346 .02999878-.09817505 .02999878-.12817383 .02999878-.1521759 .04899597-.1831665 .085998538-.1831665 .1539917-.1831665 .21899414-.08517456 .2919922 .0068359377 .33399964 .059829713 .49598695 .2998352 .49598695 .37782289 .49598695 .41682435 .47099305 .4398346 .43899537 .4398346 .4099884 .4398346 .3919983 .42182923 .3919983 .39982606 .3919983 .36183167 .44400025 .3518219 .44400025 .3308258 .44400025 .3128357 .43598939 .29283143 .41600038 .25582887 .3939972 .21482849 .35899354 .15483094 .2979889 .07182312L.269989 .30682374Z"/>
<path id="font_2_2486" d="M.71199038 .42004396C.71199038 .54597476 .6299896 .6689453 .46299745 .6689453 .20799256 .6689453 .049987794 .42504884 .049987794 .22215271 .049987794 .08522034 .1539917-.0107421879 .30299378-.0107421879 .55599978-.0107421879 .71199038 .22215271 .71199038 .42004396M.59599307 .44303895C.59599307 .30210877 .522995 .027252198 .31098939 .027252198 .23298645 .027252198 .17098999 .080215457 .17098999 .1771698 .17098999 .3190918 .22299195 .63194277 .45498658 .63194277 .55599978 .63194277 .59599307 .54997256 .59599307 .44303895Z"/>
<path id="font_2_41" d="M.3039856-.16122437C.1639862-.04423523 .13398743 .06877136 .13398743 .254776 .13398743 .44776917 .16499329 .5407715 .3039856 .6597748L.29499818 .67578127C.1349945 .58078 .04798889 .43676759 .04798889 .25177003 .04798889 .08177185 .13398743-.0872345 .2919922-.17723084L.3039856-.16122437Z"/>
<path id="font_2_965" d="M.5329895 .11717224C.48399354 .05921936 .46099855 .050231935 .44400025 .050231935 .43499757 .050231935 .43099977 .05722046 .43099977 .067214969 .43099977 .081207279 .43699647 .10517883 .44198609 .122177127L.49299623 .3010254C.5009918 .3280182 .5039978 .35198976 .5039978 .37197877 .5039978 .4299469 .47599793 .45996095 .41600038 .45996095 .35699464 .45996095 .2809906 .4089508 .19699097 .24607849H.19599915L.31599427 .680954 .30799867 .6829529C.269989 .6679535 .23599243 .6559601 .1519928 .63894656V.62394717C.18199158 .62394717 .20899964 .62194827 .20899964 .6019592 .20899964 .59495547 .20799256 .58496096 .20498657 .5729523L.04699707 0H.1309967C.1749878 .15597534 .19699097 .2079773 .24099732 .27296449 .29599 .35395814 .34899903 .40596009 .3809967 .40596009 .4099884 .40596009 .41799928 .3879547 .41799928 .36195375 .41799928 .34295655 .41299439 .31495667 .40899659 .29995729L.36898805 .15597534C.35699464 .113220218 .34498597 .066223148 .34498597 .04623413 .34498597 .009231567 .36499024-.009765625 .397995-.009765625 .43499757-.009765625 .4850006 .017227173 .54499819 .10623169L.5329895 .11717224Z"/>
<path id="font_2_45" d="M.08299255-.14086914C.1519928-.10786438 .19499207-.04486084 .19499207 .015136719 .19499207 .06713867 .1599884 .102127078 .114990238 .102127078 .07899475 .102127078 .054992677 .07913208 .054992677 .045135499 .054992677 .011138916 .07598877-.005859375 .11299133-.005859375 .12399292-.0059661867 .13398743-.001953125 .14199829-.001953125 .1499939-.001953125 .1559906-.007965088 .1559906-.014953613 .1559906-.047958375 .12799073-.08496094 .07299805-.1219635L.08299255-.14086914Z"/>
<path id="font_2_2507" d="M.5269928 .42797853H.33299256L.32899476 .41596986H.34098817C.35099793 .41596986 .36698915 .40898133 .36698915 .39697267 .36698915 .38397218 .35699464 .37097169 .34599305 .36097718L.1789856 .21199036 .2919922 .66796877 .13398743 .6429596 .13699341 .6289673C.14498902 .6309662 .15499878 .6309662 .1639862 .6309662 .18598938 .6309662 .19599915 .6199646 .19599915 .608963 .19599915 .6019745 .19499207 .5949707 .19299317 .588974L.04499817 0H.12098694L.1659851 .1659851 .22200012 .21498108 .2849884 .067993167C.29599 .042251588 .31698609-.0107421879 .36299134-.0107421879 .43099977-.0107421879 .47799684 .09625244 .48999024 .117248538L.47499085 .12825012C.45298768 .09825134 .43099977 .055252077 .40098573 .055252077 .375 .055252077 .36299134 .07925415 .34799195 .11425781L.28399659 .2662506 .3899994 .35824586C.42799378 .3912506 .45599366 .40925599 .522995 .4162445L.5269928 .42797853Z"/>
<path id="font_2_42" d="M.0289917 .6597748C.17399597 .54577639 .19898987 .43077088 .19898987 .24377442 .19898987 .04977417 .17098999-.04423523 .0289917-.16122437L.037994386-.17723084C.19699097-.08023071 .2849884 .061767579 .2849884 .24676514 .2849884 .41677857 .19400025 .58377078 .040985109 .67578127L.0289917 .6597748Z"/>
<path id="font_2_2514" d="M.1749878 .2669983 .22099304 .44099427 .06399536 .41799928 .06599426 .40299989C.07199097 .4039917 .085998538 .4059906 .09298706 .4059906 .114990238 .4059906 .12599182 .3999939 .12599182 .3869934 .12599182 .38198854 .125 .375 .12199402 .3639984L.02999878 0H.10699463L.12799073 .07598877C.1329956 .09298706 .21998596 .34899903 .2809906 .34899903 .29899598 .34899903 .2889862 .31098939 .32798768 .31098939 .36898805 .31098939 .3929901 .35499574 .3929901 .3929901 .3929901 .41999818 .37799073 .44099427 .34899903 .44099427 .2939911 .44099427 .24598694 .37599183 .21199036 .32199098 .20098877 .3039856 .18899536 .28399659 .17999268 .2659912L.1749878 .2669983Z"/>
</defs>
<g clip-path="url(#clip_1)">
<path transform="matrix(1,0,0,-1,106.369998,166.65299)" stroke-width=".79701" stroke-linecap="butt" stroke-miterlimit="10" stroke-linejoin="miter" fill="none" stroke="#000000" d="M-106.3005 0H0"/>
<path transform="matrix(1,0,0,-1,106.369998,166.65299)" stroke-width=".79701" stroke-linecap="butt" stroke-miterlimit="10" stroke-linejoin="miter" fill="none" stroke="#000000" d="M0 0H146.23047"/>
<path transform="matrix(1,0,0,-1,252.60047,166.65299)" d="M2.59026 0-1.55415 2.0722 0 0-1.55415-2.0722"/>
<use data-text="&#x1d465;" xlink:href="#font_2_2520" transform="matrix(17.9328,0,0,-17.9328,261.766,170.52649)"/>
<path transform="matrix(1,0,0,-1,106.369998,166.65299)" stroke-width=".79701" stroke-linecap="butt" stroke-miterlimit="10" stroke-linejoin="miter" fill="none" stroke="#000000" d="M0-106.3005V0"/>
<path transform="matrix(1,0,0,-1,106.369998,166.65299)" stroke-width=".79701" stroke-linecap="butt" stroke-miterlimit="10" stroke-linejoin="miter" fill="none" stroke="#000000" d="M0 0V146.23047"/>
<path transform="matrix(0,-1,-1,-0,106.369998,20.422516)" d="M2.59026 0-1.55415 2.0722 0 0-1.55415-2.0722"/>
<use data-text="&#x1d466;" xlink:href="#font_2_2521" transform="matrix(17.9328,0,0,-17.9328,101.92299,7.9754946)"/>
<use data-text="&#x1d442;" xlink:href="#font_2_2486" transform="matrix(17.9328,0,0,-17.9328,74.35399,197.1805)"/>
<path transform="matrix(1,0,0,-1,106.369998,166.65299)" stroke-width="1.59404" stroke-linecap="butt" stroke-miterlimit="10" stroke-linejoin="miter" fill="none" stroke="#000000" d="M127.5668 42.52539C127.5668 84.79585 93.30078 119.06187 51.03032 119.06187 8.75984 119.06187-25.50616 84.79585-25.50616 42.52539-25.50616 .25491 8.75984-34.0111 51.03032-34.0111 93.30078-34.0111 127.5668 .25491 127.5668 42.52539ZM51.03032 42.52539"/>
<path transform="matrix(1,0,0,-1,106.369998,166.65299)" d="M53.27194 42.52539C53.27194 43.7634 52.26833 44.76701 51.03032 44.76701 49.7923 44.76701 48.7887 43.7634 48.7887 42.52539 48.7887 41.28737 49.7923 40.28377 51.03032 40.28377 52.26833 40.28377 53.27194 41.28737 53.27194 42.52539ZM51.03032 42.52539"/>
<path transform="matrix(1,0,0,-1,106.369998,166.65299)" stroke-width=".79701" stroke-linecap="butt" stroke-miterlimit="10" stroke-linejoin="miter" fill="none" stroke="#000000" d="M53.27194 42.52539C53.27194 43.7634 52.26833 44.76701 51.03032 44.76701 49.7923 44.76701 48.7887 43.7634 48.7887 42.52539 48.7887 41.28737 49.7923 40.28377 51.03032 40.28377 52.26833 40.28377 53.27194 41.28737 53.27194 42.52539ZM51.03032 42.52539"/>
<use data-text="(" xlink:href="#font_2_41" transform="matrix(17.9328,0,0,-17.9328,137.659,142.9505)"/>
<use data-text="&#x210e;" xlink:href="#font_2_965" transform="matrix(17.9328,0,0,-17.9328,143.63062,142.9505)"/>
<use data-text="," xlink:href="#font_2_45" transform="matrix(17.9328,0,0,-17.9328,153.97785,142.9505)"/>
<use data-text="&#x1d458;" xlink:href="#font_2_2507" transform="matrix(17.9328,0,0,-17.9328,161.43787,142.9505)"/>
<use data-text=")" xlink:href="#font_2_42" transform="matrix(17.9328,0,0,-17.9328,171.15747,142.9505)"/>
<path transform="matrix(1,0,0,-1,106.369998,166.65299)" stroke-width=".79701" stroke-linecap="butt" stroke-miterlimit="10" stroke-linejoin="miter" fill="none" stroke="#000000" d="M51.03032 42.52539 105.03777 96.5328"/>
<use data-text="&#x1d45f;" xlink:href="#font_2_2514" transform="matrix(17.9328,0,0,-17.9328,173.50099,93.537509)"/>
<path transform="matrix(1,0,0,-1,106.369998,166.65299)" d="M107.27939 96.5328C107.27939 97.77083 106.27577 98.77443 105.03777 98.77443 103.79974 98.77443 102.79614 97.77083 102.79614 96.5328 102.79614 95.2948 103.79974 94.29118 105.03777 94.29118 106.27577 94.29118 107.27939 95.2948 107.27939 96.5328ZM105.03777 96.5328"/>
<path transform="matrix(1,0,0,-1,106.369998,166.65299)" stroke-width=".79701" stroke-linecap="butt" stroke-miterlimit="10" stroke-linejoin="miter" fill="none" stroke="#000000" d="M107.27939 96.5328C107.27939 97.77083 106.27577 98.77443 105.03777 98.77443 103.79974 98.77443 102.79614 97.77083 102.79614 96.5328 102.79614 95.2948 103.79974 94.29118 105.03777 94.29118 106.27577 94.29118 107.27939 95.2948 107.27939 96.5328ZM105.03777 96.5328"/>
<use data-text="(" xlink:href="#font_2_41" transform="matrix(17.9328,0,0,-17.9328,217.983,60.263505)"/>
<use data-text="&#x1d465;" xlink:href="#font_2_2520" transform="matrix(17.9328,0,0,-17.9328,223.95462,60.263505)"/>
<use data-text="," xlink:href="#font_2_45" transform="matrix(17.9328,0,0,-17.9328,233.81766,60.263505)"/>
<use data-text="&#x1d466;" xlink:href="#font_2_2521" transform="matrix(17.9328,0,0,-17.9328,241.27771,60.263505)"/>
<use data-text=")" xlink:href="#font_2_42" transform="matrix(17.9328,0,0,-17.9328,250.17237,60.263505)"/>
</g>
</svg>
