<svg xmlns="http://www.w3.org/2000/svg" xmlns:xlink="http://www.w3.org/1999/xlink" xmlns:inkscape="http://www.inkscape.org/namespaces/inkscape" version="1.1" width="399" height="434" viewBox="0 0 399 434">
<defs>
<clipPath id="clip_1">
<path transform="matrix(1,0,0,-1,-71,753)" d="M0 0H595.28V841.89H0Z"/>
</clipPath>
<path id="font_2_37" d="M.01399231 .67578127V.6507721C.07798767 .6447754 .09700012 .629776 .09700012 .58380129V.097976688C.09700012 .049987794 .07199097 .026992798 .01399231 .024993897V0H.32299806C.42399598 0 .5139923 .027999878 .57499697 .08097839 .6469879 .14395142 .6899872 .24191284 .6899872 .34487916 .6899872 .55081179 .55400088 .67578127 .32598878 .67578127H.01399231M.25898744 .5977936C.25898744 .6257782 .272995 .6417694 .31199647 .6417694 .3869934 .6417694 .43699647 .60679629 .47499085 .54081729 .5039978 .48983766 .5159912 .41586305 .5159912 .32989503 .5159912 .24191284 .49699403 .15194702 .46598817 .10696411 .43199159 .05899048 .3829956 .034988405 .31698609 .034988405 .27198792 .034988405 .25898744 .054992677 .25898744 .099975589V.5977936Z"/>
<path id="font_2_74" d="M.21499634 .6134033C.21499634 .6564026 .18099976 .69140627 .13899231 .69140627 .09399414 .69140627 .05999756 .6573944 .05999756 .6134033 .05999756 .569397 .09298706 .5363922 .13699341 .5363922 .18099976 .5363922 .21499634 .569397 .21499634 .6134033M.2559967 0V.023986817C.22099304 .0289917 .20799256 .041992189 .20799256 .0849762V.4609375H.01499939V.43693543C.05899048 .42793275 .068984989 .41793824 .068984989 .37294007V.08798218C.068984989 .041992189 .06199646 .034988405 .015991211 .023986817V0H.2559967Z"/>
<path id="font_2_83" d="M.21798706 .4609375H.027999878V.43693543C.070999149 .43093873 .08299255 .41993714 .08299255 .37294007V.083984378C.08299255 .04298401 .07299805 .03199768 .0289917 .023986817V0H.2939911V.023986817C.23298645 .02798462 .22200012 .041992189 .22200012 .10597229V.28295899C.22200012 .34194947 .24798584 .38693238 .2829895 .38693238 .29100038 .38693238 .2999878 .38194276 .31098939 .36393739 .32798768 .33595277 .34498597 .325943 .37098695 .325943 .4079895 .325943 .43399049 .35394288 .43399049 .39393617 .43399049 .4396515 .3999939 .47265626 .35299684 .47265626 .30299378 .47265626 .2649994 .44665528 .21798706 .37864686V.4609375Z"/>
<path id="font_2_70" d="M.40299989 .12625122C.3619995 .077301029 .33099366 .05831909 .28799439 .05831909 .18998719 .05831909 .1749878 .15022278 .16899109 .24511719H.42099C.4169922 .31900025 .39898683 .38182069 .3619995 .42269898 .33299256 .45465089 .2919922 .47265626 .23399353 .47265626 .10899353 .47265626 .024993897 .3728485 .024993897 .22413635 .024993897 .08728027 .10798645-.013671875 .22898865-.013671875 .31399537-.013671875 .36698915 .017318726 .4269867 .11225891L.40299989 .12625122M.2979889 .2821045H.1639862C.1639862 .40176393 .18798828 .4416504 .23399353 .4416504 .2630005 .4416504 .2749939 .42469789 .2889862 .39479066 .2979889 .37583924 .2979889 .35490418 .2979889 .3030548V.2821045Z"/>
<path id="font_2_68" d="M.4119873 .10922241C.375 .06729126 .34599305 .05331421 .30499269 .05331421 .21798706 .05331421 .1659851 .13717652 .1659851 .27293397 .1659851 .38175965 .20098877 .4416504 .25 .4416504 .2919922 .4416504 .2919922 .4186859 .2919922 .37176515 .2919922 .32385255 .31399537 .29888917 .34799195 .29888917 .3899994 .29888917 .41600038 .32385255 .41600038 .36279298 .41600038 .42668153 .34899903 .47265626 .2619934 .47265626 .1289978 .47265626 .024993897 .37077333 .024993897 .22203064 .024993897 .07926941 .11399841-.013671875 .23899842-.013671875 .31900025-.013671875 .375 .016326905 .42999269 .09124756L.4119873 .10922241Z"/>
<path id="font_2_85" d="M.30699159 .11222839C.2869873 .07426453 .2709961 .059280397 .25 .059280397 .22200012 .059280397 .21099854 .07925415 .21099854 .11921692V.41693116H.30599977V.4609375H.21099854V.6299286H.18598938C.12799073 .54592898 .09098816 .49293519 .018997193 .44392396V.41693116H.07199097V.09524536C.07199097 .028274537 .114990238-.01171875 .18399048-.01171875 .25099183-.01171875 .29100038 .01927185 .33198548 .10122681L.30699159 .11222839Z"/>
<path id="font_2_89" d="M.48399354 0V.023986817C.46798707 .0289917 .46099855 .032989503 .45399476 .04399109L.30599977 .2719574 .40699769 .39793397C.42599488 .42092896 .44599916 .43193055 .47698976 .43693543V.4609375H.30899049V.43693543L.32899476 .43493653C.35198976 .43293763 .3600006 .42793275 .3600006 .41293336 .3600006 .39793397 .34899903 .38394166 .32199098 .348938L.28599549 .302948C.28199769 .3089447 .2769928 .31495667 .272995 .3199463 .23999024 .36294557 .21499634 .40493775 .21499634 .41793824 .21499634 .42993165 .22898865 .43592835 .2619934 .43693543V.4609375H.011993408V.43693543C.037994386 .43293763 .04399109 .42793275 .06399536 .39793397L.19198609 .20095825C.1769867 .18296814 .18499756 .19197083 .16999817 .17297364 .15499878 .15397644 .14099121 .13597107 .1269989 .11697388 .070999149 .041992189 .050994874 .025985718 .01399231 .023986817V0H.18299866V.023986817C.14698792 .025985718 .1329956 .032989503 .1329956 .04798889 .1329956 .0639801 .1579895 .10397339 .19699097 .15097046 .20298767 .15797425 .20799256 .16497803 .21299744 .17097473 .22599793 .14997864 .23999024 .12898255 .25498963 .10798645 .2789917 .07298279 .28799439 .055984498 .28799439 .04399109 .28799439 .03199768 .2749939 .025985718 .24299622 .023986817V0H.48399354Z"/>
<path id="font_2_27" d="M.25099183 .38667298C.25099183 .43367005 .21299744 .4716797 .16699219 .4716797 .11898804 .4716797 .08198547 .43467713 .08198547 .3876648 .08198547 .3396759 .11898804 .30267335 .1659851 .30267335 .21299744 .30267335 .25099183 .3396759 .25099183 .38667298M.25099183 .07130432C.25099183 .11729431 .21299744 .15629578 .16699219 .15629578 .11999512 .15629578 .08198547 .11830139 .08198547 .07130432 .08198547 .02330017 .117996219-.0126953129 .1659851-.0126953129 .21299744-.0126953129 .25099183 .024291993 .25099183 .07130432Z"/>
<path id="font_3_2520" d="M.30499269 .28834535 .2849884 .3433838C.272995 .3764038 .2539978 .41740418 .20999146 .44140626L.07798767 .4084015 .08099365 .39039613C.09098816 .39439393 .10598755 .39639283 .11898804 .39639283 .17399597 .39639283 .19999695 .35539247 .21699524 .3073578L.25 .21530152 .18499756 .11424255C.15299988 .065216068 .1269989 .0552063 .114990238 .0552063 .08999634 .0552063 .09399414 .07521057 .067993167 .07521057 .042999269 .07521057 .02999878 .05419922 .02999878 .038208009 .02999878 .016204834 .04598999-.0087890629 .08198547-.0087890629 .13798523-.0087890629 .16699219 .034210206 .19898987 .083221439L.2619934 .18127442 .3019867 .06820679C.31498719 .032196046 .33399964-.0087890629 .375-.0087890629 .43299867-.0087890629 .47799684 .08721924 .48999024 .10223389L.47599793 .11224365C.45498658 .06921387 .43099977 .0552063 .4149933 .0552063 .36999513 .0552063 .34700013 .19029236 .31698609 .25231935L.37199403 .33737184C.38598634 .35939027 .39698792 .37539674 .4269867 .37539674 .44400025 .37539674 .44898988 .36639405 .47099305 .36639405 .49699403 .36639405 .5099945 .3894043 .5099945 .4084015 .5099945 .42939759 .49299623 .44140626 .46099855 .44140626 .41099549 .44140626 .37599183 .3973999 .34999085 .35739137L.30499269 .28834535Z"/>
<path id="font_3_62" d="M.6369934 .31973268V.3857422H.04798889V.31973268H.6369934M.6369934 .12011719V.18611145H.04798889V.12011719H.6369934Z"/>
<path id="font_3_965" d="M.5329895 .11717224C.48399354 .05921936 .46099855 .050231935 .44400025 .050231935 .43499757 .050231935 .43099977 .05722046 .43099977 .067214969 .43099977 .081207279 .43699647 .10517883 .44198609 .122177127L.49299623 .3010254C.5009918 .3280182 .5039978 .35198976 .5039978 .37197877 .5039978 .4299469 .47599793 .45996095 .41600038 .45996095 .35699464 .45996095 .2809906 .4089508 .19699097 .24607849H.19599915L.31599427 .680954 .30799867 .6829529C.269989 .6679535 .23599243 .6559601 .1519928 .63894656V.62394717C.18199158 .62394717 .20899964 .62194827 .20899964 .6019592 .20899964 .59495547 .20799256 .58496096 .20498657 .5729523L.04699707 0H.1309967C.1749878 .15597534 .19699097 .2079773 .24099732 .27296449 .29599 .35395814 .34899903 .40596009 .3809967 .40596009 .4099884 .40596009 .41799928 .3879547 .41799928 .36195375 .41799928 .34295655 .41299439 .31495667 .40899659 .29995729L.36898805 .15597534C.35699464 .113220218 .34498597 .066223148 .34498597 .04623413 .34498597 .009231567 .36499024-.009765625 .397995-.009765625 .43499757-.009765625 .4850006 .017227173 .54499819 .10623169L.5329895 .11717224Z"/>
<path id="font_3_44" d="M.6359863 .22012329V.2861328H.375V.54711917H.30899049V.2861328H.04798889V.22012329H.30899049V-.040878297H.375V.22012329H.6359863Z"/>
<path id="font_3_2512" d="M.25299073 .37039186 .25 .37239076 .2679901 .44140626 .10998535 .41740418 .11199951 .4013977C.11999512 .4033966 .13198853 .4053955 .13999939 .4053955 .16999817 .4053955 .17098999 .3914032 .17098999 .37239076L.053985597-.09172058C.041992189-.13772583 .034988405-.16772461-.027008057-.17073059L-.030014039-.182724H.20399475L.20698548-.17073059H.19099427C.14099121-.17073059 .12998963-.14971924 .12998963-.12773133 .12998963-.11672974 .13198853-.10572815 .1349945-.09272766L.15899658 .0072784426C.17799378-.0077209474 .19599915-.01171875 .21998596-.01171875 .3639984-.01171875 .47399903 .15731812 .47399903 .2863617 .47399903 .3874054 .44099427 .44140626 .37998963 .44140626 .34498597 .44140626 .30599977 .4203949 .2669983 .38339234L.25299073 .37039186M.21398926 .23834229C.23399353 .3243866 .28599549 .38539125 .33898927 .38539125 .3619995 .38539125 .3899994 .36538697 .3899994 .30236817 .3899994 .19033814 .31498719 .01727295 .21398926 .01727295 .20199585 .01727295 .18199158 .022277832 .16799927 .0382843L.21398926 .23834229Z"/>
<path id="font_3_2493" d="M.7599945 .65289309H.5189972L.5149994 .63690188H.5349884C.57299807 .63690188 .58699038 .6298981 .58699038 .6148987 .58699038 .5939026 .56799319 .56489565 .548996 .54089358L.2689972 .17489624 .2649994 .17590332V.56689456C.2649994 .5998993 .269989 .63690188 .33499146 .63690188H.35398866L.35798646 .65289309H.06399536L.05999756 .63690188C.12098694 .63690188 .15899658 .6128998 .15899658 .5549011V-.016098023H.18299866L.6239929 .559906C.6499939 .5939026 .69099429 .63290408 .7559967 .63690188L.7599945 .65289309Z"/>
<path id="font_3_41" d="M.3039856-.16122437C.1639862-.04423523 .13398743 .06877136 .13398743 .254776 .13398743 .44776917 .16499329 .5407715 .3039856 .6597748L.29499818 .67578127C.1349945 .58078 .04798889 .43676759 .04798889 .25177003 .04798889 .08177185 .13398743-.0872345 .2919922-.17723084L.3039856-.16122437Z"/>
<path id="font_3_45" d="M.08299255-.14086914C.1519928-.10786438 .19499207-.04486084 .19499207 .015136719 .19499207 .06713867 .1599884 .102127078 .114990238 .102127078 .07899475 .102127078 .054992677 .07913208 .054992677 .045135499 .054992677 .011138916 .07598877-.005859375 .11299133-.005859375 .12399292-.0059661867 .13398743-.001953125 .14199829-.001953125 .1499939-.001953125 .1559906-.007965088 .1559906-.014953613 .1559906-.047958375 .12799073-.08496094 .07299805-.1219635L.08299255-.14086914Z"/>
<path id="font_3_2507" d="M.5269928 .42797853H.33299256L.32899476 .41596986H.34098817C.35099793 .41596986 .36698915 .40898133 .36698915 .39697267 .36698915 .38397218 .35699464 .37097169 .34599305 .36097718L.1789856 .21199036 .2919922 .66796877 .13398743 .6429596 .13699341 .6289673C.14498902 .6309662 .15499878 .6309662 .1639862 .6309662 .18598938 .6309662 .19599915 .6199646 .19599915 .608963 .19599915 .6019745 .19499207 .5949707 .19299317 .588974L.04499817 0H.12098694L.1659851 .1659851 .22200012 .21498108 .2849884 .067993167C.29599 .042251588 .31698609-.0107421879 .36299134-.0107421879 .43099977-.0107421879 .47799684 .09625244 .48999024 .117248538L.47499085 .12825012C.45298768 .09825134 .43099977 .055252077 .40098573 .055252077 .375 .055252077 .36299134 .07925415 .34799195 .11425781L.28399659 .2662506 .3899994 .35824586C.42799378 .3912506 .45599366 .40925599 .522995 .4162445L.5269928 .42797853Z"/>
<path id="font_3_42" d="M.0289917 .6597748C.17399597 .54577639 .19898987 .43077088 .19898987 .24377442 .19898987 .04977417 .17098999-.04423523 .0289917-.16122437L.037994386-.17723084C.19699097-.08023071 .2849884 .061767579 .2849884 .24676514 .2849884 .41677857 .19400025 .58377078 .040985109 .67578127L.0289917 .6597748Z"/>
<path id="font_3_2477" d="M.72299197 .65319827H.20298767L.19898987 .63819888H.21798706C.27799989 .63819888 .2939911 .62020877 .2939911 .5991821 .2939911 .59217837 .2919922 .58317568 .2899933 .5751648L.1659851 .07800293C.15699768 .04399109 .13598633 .015991211 .05999756 .015991211H.041992189L.037994386 0H.37998963L.38398744 .015991211H.35198976C.2919922 .015991211 .272995 .03199768 .272995 .056991579 .272995 .06399536 .27598573 .07199097 .2769928 .07800293L.33898927 .33203126H.43598939C.46499635 .33203126 .5059967 .32902528 .5059967 .28201295 .5059967 .26402284 .5039978 .23501587 .5009918 .2210083H.5169983L.57699587 .463089H.5609894C.5399933 .3780365 .49398805 .36802674 .43199159 .36802674H.34899903L.41099549 .61621096H.55799868C.6049957 .61621096 .6649933 .607193 .66799929 .5291443 .66799929 .5151367 .66799929 .5011139 .6669922 .4931183H.68299868L.72299197 .65319827Z"/>
<path id="font_3_1151" d="M.62098696 .22012329V.2861328H.06399536V.22012329H.62098696Z"/>
<path id="font_3_51" d="M.47399903 .13696289 .45999146 .1429596C.4269867 .08699036 .4059906 .07598877 .3639984 .07598877H.12998963L.29499818 .2519226C.38398744 .34588624 .4229889 .42085267 .4229889 .4998169 .4229889 .59877017 .35099793 .67578127 .23799134 .67578127 .114990238 .67578127 .050994874 .5937805 .02999878 .4768219L.050994874 .47183229C.09098816 .5697937 .12599182 .6017761 .19799805 .6017761 .2829895 .6017761 .33699037 .55178835 .33699037 .4608307 .33699037 .37586976 .30099488 .29989625 .20698548 .200943L.0289917 .011993408V0H.41999818L.47399903 .13696289Z"/>
<path id="font_3_2521" d="M.269989 .30682374C.26098634 .38082887 .2539978 .40682984 .23098755 .4398346L.08099365 .41482545 .08299255 .39883424C.09199524 .39982606 .10798645 .40283204 .11898804 .40283204 .1749878 .40283204 .18399048 .34283448 .18899536 .2978363L.22698975-.016174317C.20098877-.056167604 .14399719-.11816406 .1269989-.11816406 .11099243-.11816406 .11299133-.08717346 .069992069-.08717346 .056991579-.08717346 .02999878-.09817505 .02999878-.12817383 .02999878-.1521759 .04899597-.1831665 .085998538-.1831665 .1539917-.1831665 .21899414-.08517456 .2919922 .0068359377 .33399964 .059829713 .49598695 .2998352 .49598695 .37782289 .49598695 .41682435 .47099305 .4398346 .43899537 .4398346 .4099884 .4398346 .3919983 .42182923 .3919983 .39982606 .3919983 .36183167 .44400025 .3518219 .44400025 .3308258 .44400025 .3128357 .43598939 .29283143 .41600038 .25582887 .3939972 .21482849 .35899354 .15483094 .2979889 .07182312L.269989 .30682374Z"/>
<path id="font_3_53" d="M.47299195 .16699219V.23098755H.36999513V.67578127H.32598878L.011993408 .23098755V.16699219H.2919922V0H.36999513V.16699219H.47299195M.2919922 .23098755H.051986696L.2919922 .573822V.23098755Z"/>
</defs>
<g clip-path="url(#clip_1)">
<path transform="matrix(1,0,0,-1,1.398,404.44599)" stroke-width=".79701" stroke-linecap="round" stroke-dasharray="3.9851,3.9851,.99628,3.9851" stroke-linejoin="round" fill="none" stroke="#b30000" d="M368.5085 0V368.5085"/>
<use data-text="D" xlink:href="#font_2_37" transform="matrix(14.3462,0,0,-14.3462,555.071,418.54298)"/>
<use data-text="i" xlink:href="#font_2_74" transform="matrix(14.3462,0,0,-14.3462,565.42898,418.54298)"/>
<use data-text="r" xlink:href="#font_2_83" transform="matrix(14.3462,0,0,-14.3462,569.4172,418.54298)"/>
<use data-text="e" xlink:href="#font_2_70" transform="matrix(14.3462,0,0,-14.3462,575.6578,418.54298)"/>
<use data-text="c" xlink:href="#font_2_68" transform="matrix(14.3462,0,0,-14.3462,582.02749,418.54298)"/>
<use data-text="t" xlink:href="#font_2_85" transform="matrix(14.3462,0,0,-14.3462,588.3972,418.54298)"/>
<use data-text="r" xlink:href="#font_2_83" transform="matrix(14.3462,0,0,-14.3462,593.1745,418.54298)"/>
<use data-text="i" xlink:href="#font_2_74" transform="matrix(14.3462,0,0,-14.3462,599.63027,418.54298)"/>
<use data-text="x" xlink:href="#font_2_89" transform="matrix(14.3462,0,0,-14.3462,603.6185,418.54298)"/>
<use data-text=":" xlink:href="#font_2_27" transform="matrix(14.3462,0,0,-14.3462,610.7916,418.54298)"/>
<use data-text="&#x1d465;" xlink:href="#font_3_2520" transform="matrix(14.3462,0,0,-14.3462,620.35098,418.54298)"/>
<use data-text="=" xlink:href="#font_3_62" transform="matrix(14.3462,0,0,-14.3462,632.2153,418.54298)"/>
<use data-text="&#x210e;" xlink:href="#font_3_965" transform="matrix(14.3462,0,0,-14.3462,646.0307,418.54298)"/>
<use data-text="+" xlink:href="#font_3_44" transform="matrix(14.3462,0,0,-14.3462,657.4933,418.54298)"/>
<use data-text="&#x1d45d;" xlink:href="#font_3_2512" transform="matrix(14.3462,0,0,-14.3462,670.51968,418.54298)"/>
<path transform="matrix(1,0,0,-1,1.398,404.44599)" stroke-width=".79701" stroke-linecap="round" stroke-dasharray="2.98883,2.98883" stroke-linejoin="round" fill="none" stroke="#000000" d="M0 170.08086H396.85533"/>
<path transform="matrix(1,0,0,-1,1.398,404.44599)" stroke-width="1.59404" stroke-linecap="round" stroke-linejoin="round" fill="none" stroke="#ff0000" d="M167.72005-28.34679C167.72005-28.34679 181.3015-16.4001 186.20845-11.81172 191.1154-7.22333 198.62528 .13489 203.08608 4.72328 207.54689 9.31166 214.34397 16.66994 218.359 21.25835 222.37401 25.84676 228.45511 33.205 232.02375 37.79341 235.59238 42.38184 240.95679 49.74008 244.07944 54.32849 247.20207 58.9169 251.85269 66.27512 254.52954 70.86353 257.2064 75.45193 261.14189 82.81018 263.37236 87.3986 265.6028 91.98701 268.82096 99.34526 270.60527 103.93367 272.3896 108.52208 274.89408 115.88033 276.2326 120.46873 277.5711 125.05716 279.3602 132.41536 280.2526 137.00379 281.145 141.5922 282.2183 148.95044 282.66444 153.53885 283.11054 158.12726 283.468 165.4855 283.4681 170.07392 283.4682 174.66234 283.11106 182.02059 282.66529 186.609 282.2195 191.1974 281.1471 198.55562 280.2552 203.14403 279.36329 207.73244 277.57496 215.09069 276.2369 219.6791 274.89888 224.26752 272.3955 231.62577 270.61134 236.21417 268.82713 240.80258 265.60777 248.16083 263.37757 252.74924 261.1473 257.33766 257.2136 264.69587 254.53733 269.2843 251.86109 273.8727 247.21135 281.23094 244.08895 285.81935 240.96656 290.40776 235.60169 297.766 232.03327 302.35444 228.46485 306.94285 222.38478 314.30107 218.37024 318.8895 214.3557 323.4779 207.55976 330.83613 203.09906 335.42454 198.63838 340.01295 191.12726 347.3712 186.22055 351.9596 181.31385 356.54804 167.73476 368.49467 167.73476 368.49467"/>
<path transform="matrix(1,0,0,-1,1.398,404.44599)" stroke-width=".79701" stroke-linecap="round" stroke-dasharray="2.98883,2.98883" stroke-linejoin="round" fill="none" stroke="#000000" d="M198.42765 0V340.1617"/>
<path transform="matrix(1,0,0,-1,1.398,404.44599)" stroke-width=".79701" stroke-linecap="round" stroke-linejoin="round" fill="none" stroke="#000000" d="M286.2862 170.08086C286.2862 171.63726 285.02449 172.89894 283.4681 172.89894 281.9117 172.89894 280.65003 171.63726 280.65003 170.08086 280.65003 168.52446 281.9117 167.26277 283.4681 167.26277 285.02449 167.26277 286.2862 168.52446 286.2862 170.08086ZM283.4681 170.08086"/>
<use data-text="&#x1d449;" xlink:href="#font_3_2493" transform="matrix(14.3462,0,0,-14.3462,289.05003,250.33998)"/>
<use data-text="(" xlink:href="#font_3_41" transform="matrix(14.3462,0,0,-14.3462,300.52699,250.33998)"/>
<use data-text="&#x210e;" xlink:href="#font_3_965" transform="matrix(14.3462,0,0,-14.3462,305.30427,250.33998)"/>
<use data-text="," xlink:href="#font_3_45" transform="matrix(14.3462,0,0,-14.3462,313.582,250.33998)"/>
<use data-text="&#x1d458;" xlink:href="#font_3_2507" transform="matrix(14.3462,0,0,-14.3462,319.55003,250.33998)"/>
<use data-text=")" xlink:href="#font_3_42" transform="matrix(14.3462,0,0,-14.3462,327.32569,250.33998)"/>
<path transform="matrix(1,0,0,-1,1.398,404.44599)" d="M201.95037 170.08086C201.95037 172.02642 200.37322 173.60358 198.42765 173.60358 196.48209 173.60358 194.90493 172.02642 194.90493 170.08086 194.90493 168.13529 196.48209 166.55812 198.42765 166.55812 200.37322 166.55812 201.95037 168.13529 201.95037 170.08086ZM198.42765 170.08086"/>
<use data-text="&#x1d439;" xlink:href="#font_3_2477" transform="matrix(14.3462,0,0,-14.3462,129.89,250.33998)"/>
<use data-text="(" xlink:href="#font_3_41" transform="matrix(14.3462,0,0,-14.3462,140.83615,250.33998)"/>
<use data-text="&#x210e;" xlink:href="#font_3_965" transform="matrix(14.3462,0,0,-14.3462,145.61344,250.33998)"/>
<use data-text="&#x2212;" xlink:href="#font_3_1151" transform="matrix(14.3462,0,0,-14.3462,157.07605,250.33998)"/>
<use data-text="&#x1d45d;" xlink:href="#font_3_2512" transform="matrix(14.3462,0,0,-14.3462,170.08806,250.33998)"/>
<use data-text="," xlink:href="#font_3_45" transform="matrix(14.3462,0,0,-14.3462,177.10335,250.33998)"/>
<use data-text="&#x1d458;" xlink:href="#font_3_2507" transform="matrix(14.3462,0,0,-14.3462,183.08573,250.33998)"/>
<use data-text=")" xlink:href="#font_3_42" transform="matrix(14.3462,0,0,-14.3462,190.86136,250.33998)"/>
<path transform="matrix(1,0,0,-1,1.398,404.44599)" stroke-width=".79701" stroke-linecap="round" stroke-linejoin="round" fill="none" stroke="#000000" d="M201.24573 340.1617C201.24573 341.7181 199.98404 342.9798 198.42765 342.9798 196.87125 342.9798 195.60956 341.7181 195.60956 340.1617 195.60956 338.60533 196.87125 337.34364 198.42765 337.34364 199.98404 337.34364 201.24573 338.60533 201.24573 340.1617ZM198.42765 340.1617"/>
<use data-text="(" xlink:href="#font_3_41" transform="matrix(14.3462,0,0,-14.3462,106.458,67.87097)"/>
<use data-text="&#x210e;" xlink:href="#font_3_965" transform="matrix(14.3462,0,0,-14.3462,111.23528,67.87097)"/>
<use data-text="&#x2212;" xlink:href="#font_3_1151" transform="matrix(14.3462,0,0,-14.3462,122.6979,67.87097)"/>
<use data-text="&#x1d45d;" xlink:href="#font_3_2512" transform="matrix(14.3462,0,0,-14.3462,135.7099,67.87097)"/>
<use data-text="," xlink:href="#font_3_45" transform="matrix(14.3462,0,0,-14.3462,142.72519,67.87097)"/>
<use data-text="&#x1d458;" xlink:href="#font_3_2507" transform="matrix(14.3462,0,0,-14.3462,148.70757,67.87097)"/>
<use data-text="+" xlink:href="#font_3_44" transform="matrix(14.3462,0,0,-14.3462,159.66806,67.87097)"/>
<use data-text="2" xlink:href="#font_3_51" transform="matrix(14.3462,0,0,-14.3462,172.68007,67.87097)"/>
<use data-text="&#x1d45d;" xlink:href="#font_3_2512" transform="matrix(14.3462,0,0,-14.3462,179.85318,67.87097)"/>
<use data-text=")" xlink:href="#font_3_42" transform="matrix(14.3462,0,0,-14.3462,186.86847,67.87097)"/>
<path transform="matrix(1,0,0,-1,1.398,404.44599)" stroke-width=".79701" stroke-linecap="round" stroke-linejoin="round" fill="none" stroke="#000000" d="M201.24573 0C201.24573 1.55638 199.98404 2.81807 198.42765 2.81807 196.87125 2.81807 195.60956 1.55638 195.60956 0 195.60956-1.55638 196.87125-2.81807 198.42765-2.81807 199.98404-2.81807 201.24573-1.55638 201.24573 0ZM198.42765 0"/>
<use data-text="(" xlink:href="#font_3_41" transform="matrix(14.3462,0,0,-14.3462,106.458,408.033)"/>
<use data-text="&#x210e;" xlink:href="#font_3_965" transform="matrix(14.3462,0,0,-14.3462,111.23528,408.033)"/>
<use data-text="&#x2212;" xlink:href="#font_3_1151" transform="matrix(14.3462,0,0,-14.3462,122.6979,408.033)"/>
<use data-text="&#x1d45d;" xlink:href="#font_3_2512" transform="matrix(14.3462,0,0,-14.3462,135.7099,408.033)"/>
<use data-text="," xlink:href="#font_3_45" transform="matrix(14.3462,0,0,-14.3462,142.72519,408.033)"/>
<use data-text="&#x1d458;" xlink:href="#font_3_2507" transform="matrix(14.3462,0,0,-14.3462,148.70757,408.033)"/>
<use data-text="&#x2212;" xlink:href="#font_3_1151" transform="matrix(14.3462,0,0,-14.3462,159.66806,408.033)"/>
<use data-text="2" xlink:href="#font_3_51" transform="matrix(14.3462,0,0,-14.3462,172.68007,408.033)"/>
<use data-text="&#x1d45d;" xlink:href="#font_3_2512" transform="matrix(14.3462,0,0,-14.3462,179.85318,408.033)"/>
<use data-text=")" xlink:href="#font_3_42" transform="matrix(14.3462,0,0,-14.3462,186.86847,408.033)"/>
<use data-text="(" xlink:href="#font_3_41" transform="matrix(14.3462,0,0,-14.3462,150.81099,12.514984)" fill="#ff0000"/>
<use data-text="&#x1d466;" xlink:href="#font_3_2521" transform="matrix(14.3462,0,0,-14.3462,155.58827,12.514984)" fill="#ff0000"/>
<use data-text="&#x2212;" xlink:href="#font_3_1151" transform="matrix(14.3462,0,0,-14.3462,165.88886,12.514984)" fill="#ff0000"/>
<use data-text="&#x1d458;" xlink:href="#font_3_2507" transform="matrix(14.3462,0,0,-14.3462,178.90085,12.514984)" fill="#ff0000"/>
<use data-text=")" xlink:href="#font_3_42" transform="matrix(14.3462,0,0,-14.3462,186.6765,12.514984)" fill="#ff0000"/>
<use data-text="2" xlink:href="#font_3_51" transform="matrix(9.9626,0,0,-9.9626,191.461,6.7759706)" fill="#ff0000"/>
<use data-text="=" xlink:href="#font_3_62" transform="matrix(14.3462,0,0,-14.3462,200.926,12.514984)" fill="#ff0000"/>
<use data-text="&#x2212;" xlink:href="#font_3_1151" transform="matrix(14.3462,0,0,-14.3462,214.72705,12.514984)" fill="#ff0000"/>
<use data-text="4" xlink:href="#font_3_53" transform="matrix(14.3462,0,0,-14.3462,224.5542,12.514984)" fill="#ff0000"/>
<use data-text="&#x1d45d;" xlink:href="#font_3_2512" transform="matrix(14.3462,0,0,-14.3462,231.7273,12.514984)" fill="#ff0000"/>
<use data-text="(" xlink:href="#font_3_41" transform="matrix(14.3462,0,0,-14.3462,238.74259,12.514984)" fill="#ff0000"/>
<use data-text="&#x1d465;" xlink:href="#font_3_2520" transform="matrix(14.3462,0,0,-14.3462,243.51987,12.514984)" fill="#ff0000"/>
<use data-text="&#x2212;" xlink:href="#font_3_1151" transform="matrix(14.3462,0,0,-14.3462,254.60948,12.514984)" fill="#ff0000"/>
<use data-text="&#x210e;" xlink:href="#font_3_965" transform="matrix(14.3462,0,0,-14.3462,267.6215,12.514984)" fill="#ff0000"/>
<use data-text=")" xlink:href="#font_3_42" transform="matrix(14.3462,0,0,-14.3462,275.89924,12.514984)" fill="#ff0000"/>
</g>
</svg>
