<svg xmlns="http://www.w3.org/2000/svg" xmlns:xlink="http://www.w3.org/1999/xlink" xmlns:inkscape="http://www.inkscape.org/namespaces/inkscape" version="1.1" width="315" height="219" viewBox="0 0 315 219">
<defs>
<clipPath id="clip_1">
<path transform="matrix(1,0,0,-1,-140,766)" d="M0 0H595.28V841.89H0Z"/>
</clipPath>
<path id="font_2_2520" d="M.30499269 .28834535 .2849884 .3433838C.272995 .3764038 .2539978 .41740418 .20999146 .44140626L.07798767 .4084015 .08099365 .39039613C.09098816 .39439393 .10598755 .39639283 .11898804 .39639283 .17399597 .39639283 .19999695 .35539247 .21699524 .3073578L.25 .21530152 .18499756 .11424255C.15299988 .065216068 .1269989 .0552063 .114990238 .0552063 .08999634 .0552063 .09399414 .07521057 .067993167 .07521057 .042999269 .07521057 .02999878 .05419922 .02999878 .038208009 .02999878 .016204834 .04598999-.0087890629 .08198547-.0087890629 .13798523-.0087890629 .16699219 .034210206 .19898987 .083221439L.2619934 .18127442 .3019867 .06820679C.31498719 .032196046 .33399964-.0087890629 .375-.0087890629 .43299867-.0087890629 .47799684 .08721924 .48999024 .10223389L.47599793 .11224365C.45498658 .06921387 .43099977 .0552063 .4149933 .0552063 .36999513 .0552063 .34700013 .19029236 .31698609 .25231935L.37199403 .33737184C.38598634 .35939027 .39698792 .37539674 .4269867 .37539674 .44400025 .37539674 .44898988 .36639405 .47099305 .36639405 .49699403 .36639405 .5099945 .3894043 .5099945 .4084015 .5099945 .42939759 .49299623 .44140626 .46099855 .44140626 .41099549 .44140626 .37599183 .3973999 .34999085 .35739137L.30499269 .28834535Z"/>
<path id="font_2_2521" d="M.269989 .30682374C.26098634 .38082887 .2539978 .40682984 .23098755 .4398346L.08099365 .41482545 .08299255 .39883424C.09199524 .39982606 .10798645 .40283204 .11898804 .40283204 .1749878 .40283204 .18399048 .34283448 .18899536 .2978363L.22698975-.016174317C.20098877-.056167604 .14399719-.11816406 .1269989-.11816406 .11099243-.11816406 .11299133-.08717346 .069992069-.08717346 .056991579-.08717346 .02999878-.09817505 .02999878-.12817383 .02999878-.1521759 .04899597-.1831665 .085998538-.1831665 .1539917-.1831665 .21899414-.08517456 .2919922 .0068359377 .33399964 .059829713 .49598695 .2998352 .49598695 .37782289 .49598695 .41682435 .47099305 .4398346 .43899537 .4398346 .4099884 .4398346 .3919983 .42182923 .3919983 .39982606 .3919983 .36183167 .44400025 .3518219 .44400025 .3308258 .44400025 .3128357 .43598939 .29283143 .41600038 .25582887 .3939972 .21482849 .35899354 .15483094 .2979889 .07182312L.269989 .30682374Z"/>
<path id="font_3_37" d="M.01399231 .67578127V.6507721C.07798767 .6447754 .09700012 .629776 .09700012 .58380129V.097976688C.09700012 .049987794 .07199097 .026992798 .01399231 .024993897V0H.32299806C.42399598 0 .5139923 .027999878 .57499697 .08097839 .6469879 .14395142 .6899872 .24191284 .6899872 .34487916 .6899872 .55081179 .55400088 .67578127 .32598878 .67578127H.01399231M.25898744 .5977936C.25898744 .6257782 .272995 .6417694 .31199647 .6417694 .3869934 .6417694 .43699647 .60679629 .47499085 .54081729 .5039978 .48983766 .5159912 .41586305 .5159912 .32989503 .5159912 .24191284 .49699403 .15194702 .46598817 .10696411 .43199159 .05899048 .3829956 .034988405 .31698609 .034988405 .27198792 .034988405 .25898744 .054992677 .25898744 .099975589V.5977936Z"/>
<path id="font_3_74" d="M.21499634 .6134033C.21499634 .6564026 .18099976 .69140627 .13899231 .69140627 .09399414 .69140627 .05999756 .6573944 .05999756 .6134033 .05999756 .569397 .09298706 .5363922 .13699341 .5363922 .18099976 .5363922 .21499634 .569397 .21499634 .6134033M.2559967 0V.023986817C.22099304 .0289917 .20799256 .041992189 .20799256 .0849762V.4609375H.01499939V.43693543C.05899048 .42793275 .068984989 .41793824 .068984989 .37294007V.08798218C.068984989 .041992189 .06199646 .034988405 .015991211 .023986817V0H.2559967Z"/>
<path id="font_3_83" d="M.21798706 .4609375H.027999878V.43693543C.070999149 .43093873 .08299255 .41993714 .08299255 .37294007V.083984378C.08299255 .04298401 .07299805 .03199768 .0289917 .023986817V0H.2939911V.023986817C.23298645 .02798462 .22200012 .041992189 .22200012 .10597229V.28295899C.22200012 .34194947 .24798584 .38693238 .2829895 .38693238 .29100038 .38693238 .2999878 .38194276 .31098939 .36393739 .32798768 .33595277 .34498597 .325943 .37098695 .325943 .4079895 .325943 .43399049 .35394288 .43399049 .39393617 .43399049 .4396515 .3999939 .47265626 .35299684 .47265626 .30299378 .47265626 .2649994 .44665528 .21798706 .37864686V.4609375Z"/>
<path id="font_3_70" d="M.40299989 .12625122C.3619995 .077301029 .33099366 .05831909 .28799439 .05831909 .18998719 .05831909 .1749878 .15022278 .16899109 .24511719H.42099C.4169922 .31900025 .39898683 .38182069 .3619995 .42269898 .33299256 .45465089 .2919922 .47265626 .23399353 .47265626 .10899353 .47265626 .024993897 .3728485 .024993897 .22413635 .024993897 .08728027 .10798645-.013671875 .22898865-.013671875 .31399537-.013671875 .36698915 .017318726 .4269867 .11225891L.40299989 .12625122M.2979889 .2821045H.1639862C.1639862 .40176393 .18798828 .4416504 .23399353 .4416504 .2630005 .4416504 .2749939 .42469789 .2889862 .39479066 .2979889 .37583924 .2979889 .35490418 .2979889 .3030548V.2821045Z"/>
<path id="font_3_68" d="M.4119873 .10922241C.375 .06729126 .34599305 .05331421 .30499269 .05331421 .21798706 .05331421 .1659851 .13717652 .1659851 .27293397 .1659851 .38175965 .20098877 .4416504 .25 .4416504 .2919922 .4416504 .2919922 .4186859 .2919922 .37176515 .2919922 .32385255 .31399537 .29888917 .34799195 .29888917 .3899994 .29888917 .41600038 .32385255 .41600038 .36279298 .41600038 .42668153 .34899903 .47265626 .2619934 .47265626 .1289978 .47265626 .024993897 .37077333 .024993897 .22203064 .024993897 .07926941 .11399841-.013671875 .23899842-.013671875 .31900025-.013671875 .375 .016326905 .42999269 .09124756L.4119873 .10922241Z"/>
<path id="font_3_85" d="M.30699159 .11222839C.2869873 .07426453 .2709961 .059280397 .25 .059280397 .22200012 .059280397 .21099854 .07925415 .21099854 .11921692V.41693116H.30599977V.4609375H.21099854V.6299286H.18598938C.12799073 .54592898 .09098816 .49293519 .018997193 .44392396V.41693116H.07199097V.09524536C.07199097 .028274537 .114990238-.01171875 .18399048-.01171875 .25099183-.01171875 .29100038 .01927185 .33198548 .10122681L.30699159 .11222839Z"/>
<path id="font_3_89" d="M.48399354 0V.023986817C.46798707 .0289917 .46099855 .032989503 .45399476 .04399109L.30599977 .2719574 .40699769 .39793397C.42599488 .42092896 .44599916 .43193055 .47698976 .43693543V.4609375H.30899049V.43693543L.32899476 .43493653C.35198976 .43293763 .3600006 .42793275 .3600006 .41293336 .3600006 .39793397 .34899903 .38394166 .32199098 .348938L.28599549 .302948C.28199769 .3089447 .2769928 .31495667 .272995 .3199463 .23999024 .36294557 .21499634 .40493775 .21499634 .41793824 .21499634 .42993165 .22898865 .43592835 .2619934 .43693543V.4609375H.011993408V.43693543C.037994386 .43293763 .04399109 .42793275 .06399536 .39793397L.19198609 .20095825C.1769867 .18296814 .18499756 .19197083 .16999817 .17297364 .15499878 .15397644 .14099121 .13597107 .1269989 .11697388 .070999149 .041992189 .050994874 .025985718 .01399231 .023986817V0H.18299866V.023986817C.14698792 .025985718 .1329956 .032989503 .1329956 .04798889 .1329956 .0639801 .1579895 .10397339 .19699097 .15097046 .20298767 .15797425 .20799256 .16497803 .21299744 .17097473 .22599793 .14997864 .23999024 .12898255 .25498963 .10798645 .2789917 .07298279 .28799439 .055984498 .28799439 .04399109 .28799439 .03199768 .2749939 .025985718 .24299622 .023986817V0H.48399354Z"/>
<path id="font_3_27" d="M.25099183 .38667298C.25099183 .43367005 .21299744 .4716797 .16699219 .4716797 .11898804 .4716797 .08198547 .43467713 .08198547 .3876648 .08198547 .3396759 .11898804 .30267335 .1659851 .30267335 .21299744 .30267335 .25099183 .3396759 .25099183 .38667298M.25099183 .07130432C.25099183 .11729431 .21299744 .15629578 .16699219 .15629578 .11999512 .15629578 .08198547 .11830139 .08198547 .07130432 .08198547 .02330017 .117996219-.0126953129 .1659851-.0126953129 .21299744-.0126953129 .25099183 .024291993 .25099183 .07130432Z"/>
<path id="font_2_62" d="M.6369934 .31973268V.3857422H.04798889V.31973268H.6369934M.6369934 .12011719V.18611145H.04798889V.12011719H.6369934Z"/>
<path id="font_2_1151" d="M.62098696 .22012329V.2861328H.06399536V.22012329H.62098696Z"/>
<path id="font_2_53" d="M.47299195 .16699219V.23098755H.36999513V.67578127H.32598878L.011993408 .23098755V.16699219H.2919922V0H.36999513V.16699219H.47299195M.2919922 .23098755H.051986696L.2919922 .573822V.23098755Z"/>
<path id="font_2_2493" d="M.7599945 .65289309H.5189972L.5149994 .63690188H.5349884C.57299807 .63690188 .58699038 .6298981 .58699038 .6148987 .58699038 .5939026 .56799319 .56489565 .548996 .54089358L.2689972 .17489624 .2649994 .17590332V.56689456C.2649994 .5998993 .269989 .63690188 .33499146 .63690188H.35398866L.35798646 .65289309H.06399536L.05999756 .63690188C.12098694 .63690188 .15899658 .6128998 .15899658 .5549011V-.016098023H.18299866L.6239929 .559906C.6499939 .5939026 .69099429 .63290408 .7559967 .63690188L.7599945 .65289309Z"/>
<path id="font_2_41" d="M.3039856-.16122437C.1639862-.04423523 .13398743 .06877136 .13398743 .254776 .13398743 .44776917 .16499329 .5407715 .3039856 .6597748L.29499818 .67578127C.1349945 .58078 .04798889 .43676759 .04798889 .25177003 .04798889 .08177185 .13398743-.0872345 .2919922-.17723084L.3039856-.16122437Z"/>
<path id="font_2_49" d="M.47599793 .3300476C.47599793 .53486636 .3849945 .67578127 .2539978 .67578127 .09298706 .67578127 .023986817 .5128937 .023986817 .3360443 .023986817 .17218018 .07899475-.013671875 .25-.013671875 .41299439-.013671875 .47599793 .15818787 .47599793 .3300476M.37998963 .32505799C.37998963 .12722779 .33499146 .012313843 .25 .012313843 .1639862 .012313843 .11999512 .1262207 .11999512 .32904054 .11999512 .5318756 .16499329 .6497803 .24798584 .6497803 .33599855 .6497803 .37998963 .53286746 .37998963 .32505799Z"/>
<path id="font_2_45" d="M.08299255-.14086914C.1519928-.10786438 .19499207-.04486084 .19499207 .015136719 .19499207 .06713867 .1599884 .102127078 .114990238 .102127078 .07899475 .102127078 .054992677 .07913208 .054992677 .045135499 .054992677 .011138916 .07598877-.005859375 .11299133-.005859375 .12399292-.0059661867 .13398743-.001953125 .14199829-.001953125 .1499939-.001953125 .1559906-.007965088 .1559906-.014953613 .1559906-.047958375 .12799073-.08496094 .07299805-.1219635L.08299255-.14086914Z"/>
<path id="font_2_42" d="M.0289917 .6597748C.17399597 .54577639 .19898987 .43077088 .19898987 .24377442 .19898987 .04977417 .17098999-.04423523 .0289917-.16122437L.037994386-.17723084C.19699097-.08023071 .2849884 .061767579 .2849884 .24676514 .2849884 .41677857 .19400025 .58377078 .040985109 .67578127L.0289917 .6597748Z"/>
<path id="font_2_2477" d="M.72299197 .65319827H.20298767L.19898987 .63819888H.21798706C.27799989 .63819888 .2939911 .62020877 .2939911 .5991821 .2939911 .59217837 .2919922 .58317568 .2899933 .5751648L.1659851 .07800293C.15699768 .04399109 .13598633 .015991211 .05999756 .015991211H.041992189L.037994386 0H.37998963L.38398744 .015991211H.35198976C.2919922 .015991211 .272995 .03199768 .272995 .056991579 .272995 .06399536 .27598573 .07199097 .2769928 .07800293L.33898927 .33203126H.43598939C.46499635 .33203126 .5059967 .32902528 .5059967 .28201295 .5059967 .26402284 .5039978 .23501587 .5009918 .2210083H.5169983L.57699587 .463089H.5609894C.5399933 .3780365 .49398805 .36802674 .43199159 .36802674H.34899903L.41099549 .61621096H.55799868C.6049957 .61621096 .6649933 .607193 .66799929 .5291443 .66799929 .5151367 .66799929 .5011139 .6669922 .4931183H.68299868L.72299197 .65319827Z"/>
<path id="font_2_57" d="M.44499208 .15519715C.44499208 .23512268 .41299439 .28907777 .2899933 .37101747 .3889923 .42396546 .42399598 .45793153 .42399598 .53286746 .42399598 .6108093 .35499574 .67578127 .2559967 .67578127 .14498902 .67578127 .06199646 .61579897 .06199646 .5198822 .06199646 .4549408 .08299255 .41697694 .18598938 .3320465 .07899475 .2571106 .055999757 .21813965 .055999757 .14920044 .055999757 .055282594 .1349945-.013671875 .24798584-.013671875 .36799623-.013671875 .44499208 .05229187 .44499208 .15519715M.35499574 .53286746C.35499574 .470932 .32899476 .42897035 .26098634 .3889923 .17298889 .4409485 .13598633 .48690797 .13598633 .54885867 .13598633 .6108093 .1789856 .6477661 .24598694 .6477661 .31399537 .6477661 .35499574 .60180667 .35499574 .53286746M.2709961 .27209474C.33898927 .22613526 .36898805 .18617249 .36898805 .1242218 .36898805 .059280397 .32398988 .014328003 .25898744 .014328003 .18299866 .014328003 .13198853 .06626892 .13198853 .15820313 .13198853 .22314453 .15299988 .26409913 .21199036 .3120575L.2709961 .27209474Z"/>
<path id="font_2_51" d="M.47399903 .13696289 .45999146 .1429596C.4269867 .08699036 .4059906 .07598877 .3639984 .07598877H.12998963L.29499818 .2519226C.38398744 .34588624 .4229889 .42085267 .4229889 .4998169 .4229889 .59877017 .35099793 .67578127 .23799134 .67578127 .114990238 .67578127 .050994874 .5937805 .02999878 .4768219L.050994874 .47183229C.09098816 .5697937 .12599182 .6017761 .19799805 .6017761 .2829895 .6017761 .33699037 .55178835 .33699037 .4608307 .33699037 .37586976 .30099488 .29989625 .20698548 .200943L.0289917 .011993408V0H.41999818L.47399903 .13696289Z"/>
<path id="font_2_50" d="M.3939972 0V.01499939C.31900025 .01499939 .29899598 .032989503 .29899598 .07597351V.67277529L.2899933 .67578127 .11099243 .5847931V.5708008L.13798523 .5807953C.1559906 .5877991 .17298889 .59280398 .18299866 .59280398 .20399475 .59280398 .21299744 .57780459 .21299744 .543808V.0949707C.21299744 .039978029 .19198609 .018997193 .117996219 .01499939V0H.3939972Z"/>
<path id="font_2_55" d="M.44599916 .68470767C.30799867 .66970828 .22898865 .6457062 .14299011 .55570986 .07199097 .48269654 .033996583 .38771058 .033996583 .27960206 .033996583 .20951844 .052993776 .138443 .08099365 .087402347 .115997318 .023330689 .1789856-.013671875 .2579956-.013671875 .32398988-.013671875 .37998963 .013320923 .4169922 .05937195 .44999696 .09941101 .46798707 .1554718 .46798707 .2195282 .46798707 .34866334 .3959961 .42871095 .2789917 .42871095 .23498535 .42871095 .20098877 .42170716 .1519928 .3836975 .1789856 .5346985 .29100038 .6427002 .44799806 .6687012L.44599916 .68470767M.37799073 .18850708C.37799073 .08639526 .34098817 .014328003 .2689972 .014328003 .1749878 .014328003 .1269989 .11442566 .1269989 .2665863 .1269989 .3586731 .18598938 .3827057 .24299622 .3827057 .33599855 .3827057 .37799073 .31663514 .37799073 .18850708Z"/>
</defs>
<g clip-path="url(#clip_1)">
<path transform="matrix(1,0,0,-1,161.265,140.97399)" stroke-width=".79701" stroke-linecap="round" stroke-linejoin="round" fill="none" stroke="#000000" d="M-127.56062 0H0"/>
<path transform="matrix(1,0,0,-1,161.265,140.97399)" stroke-width=".79701" stroke-linecap="round" stroke-linejoin="round" fill="none" stroke="#000000" d="M0 0H139.14379"/>
<path transform="matrix(1,0,0,-1,300.40879,140.97399)" d="M2.59026 0-1.55415 2.0722 0 0-1.55415-2.0722"/>
<use data-text="&#x1d465;" xlink:href="#font_2_2520" transform="matrix(14.3462,0,0,-14.3462,307.38203,144.07299)"/>
<path transform="matrix(1,0,0,-1,161.265,140.97399)" stroke-width=".79701" stroke-linecap="round" stroke-linejoin="round" fill="none" stroke="#000000" d="M0-70.867V0"/>
<path transform="matrix(1,0,0,-1,161.265,140.97399)" stroke-width=".79701" stroke-linecap="round" stroke-linejoin="round" fill="none" stroke="#000000" d="M0 0V124.97037"/>
<path transform="matrix(0,-1,-1,-0,161.265,16.003617)" d="M2.59026 0-1.55415 2.0722 0 0-1.55415-2.0722"/>
<use data-text="&#x1d466;" xlink:href="#font_2_2521" transform="matrix(14.3462,0,0,-14.3462,157.707,6.4049837)"/>
<path transform="matrix(1,0,0,-1,161.265,140.97399)" stroke-width=".79701" stroke-linecap="round" stroke-linejoin="round" fill="none" stroke="#000000" d="M-141.73404-56.69362H141.73404"/>
<use data-text="D" xlink:href="#font_3_37" transform="matrix(14.3462,0,0,-14.3462,207.969,215.48499)"/>
<use data-text="i" xlink:href="#font_3_74" transform="matrix(14.3462,0,0,-14.3462,218.32695,215.48499)"/>
<use data-text="r" xlink:href="#font_3_83" transform="matrix(14.3462,0,0,-14.3462,222.3152,215.48499)"/>
<use data-text="e" xlink:href="#font_3_70" transform="matrix(14.3462,0,0,-14.3462,228.5558,215.48499)"/>
<use data-text="c" xlink:href="#font_3_68" transform="matrix(14.3462,0,0,-14.3462,234.92552,215.48499)"/>
<use data-text="t" xlink:href="#font_3_85" transform="matrix(14.3462,0,0,-14.3462,241.29524,215.48499)"/>
<use data-text="r" xlink:href="#font_3_83" transform="matrix(14.3462,0,0,-14.3462,246.07253,215.48499)"/>
<use data-text="i" xlink:href="#font_3_74" transform="matrix(14.3462,0,0,-14.3462,252.52834,215.48499)"/>
<use data-text="x" xlink:href="#font_3_89" transform="matrix(14.3462,0,0,-14.3462,256.5166,215.48499)"/>
<use data-text=":" xlink:href="#font_3_27" transform="matrix(14.3462,0,0,-14.3462,263.6897,215.48499)"/>
<use data-text="&#x1d466;" xlink:href="#font_2_2521" transform="matrix(14.3462,0,0,-14.3462,273.249,215.48499)"/>
<use data-text="=" xlink:href="#font_2_62" transform="matrix(14.3462,0,0,-14.3462,284.33863,215.48499)"/>
<use data-text="&#x2212;" xlink:href="#font_2_1151" transform="matrix(14.3462,0,0,-14.3462,298.15403,215.48499)"/>
<use data-text="4" xlink:href="#font_2_53" transform="matrix(14.3462,0,0,-14.3462,307.98118,215.48499)"/>
<use data-text="&#x2212;" xlink:href="#font_2_1151" transform="matrix(14.3462,0,0,-14.3462,140.081,211.54999)"/>
<use data-text="4" xlink:href="#font_2_53" transform="matrix(14.3462,0,0,-14.3462,149.90814,211.54999)"/>
<path transform="matrix(1,0,0,-1,161.265,140.97399)" stroke-width="1.59404" stroke-linecap="round" stroke-linejoin="round" fill="none" stroke="#ff0000" d="M-127.56062 71.75284C-127.56062 71.75284-119.88037 63.33429-116.93057 60.29231-113.98077 57.25034-109.25032 52.59381-106.30052 49.82837-103.35072 47.06293-98.62027 42.84985-95.67047 40.36098-92.72067 37.87207-87.99022 34.10248-85.04042 31.89014-82.09062 29.6778-77.36015 26.3517-74.41037 24.4159-71.46056 22.48009-66.73012 19.59746-63.7803 17.9382-60.8305 16.27895-56.10005 13.8398-53.15025 12.45709-50.20045 11.07436-45.47 9.07869-42.5202 7.97252-39.5704 6.86635-34.83995 5.31416-31.89014 4.48454-28.94035 3.6549-24.20988 2.5462-21.2601 1.99312-18.31029 1.44003-13.57985 .77481-10.63004 .49826-7.68025 .22173-2.94978 0 0 0 2.94978 0 7.68025 .22173 10.63004 .49826 13.57985 .77481 18.31029 1.44003 21.2601 1.99312 24.20988 2.5462 28.94035 3.6549 31.89014 4.48454 34.83995 5.31416 39.5704 6.86635 42.5202 7.97252 45.47 9.07869 50.20045 11.07436 53.15025 12.45709 56.10005 13.8398 60.8305 16.27895 63.7803 17.9382 66.73012 19.59746 71.46056 22.48009 74.41037 24.4159 77.36015 26.3517 82.09062 29.6778 85.04042 31.89014 87.99022 34.10248 92.72067 37.87207 95.67047 40.36098 98.62027 42.84985 103.35072 47.06293 106.30052 49.82837 109.25032 52.59381 113.98077 57.25034 116.93057 60.29231 119.88037 63.33429 127.56062 71.75284 127.56062 71.75284"/>
<path transform="matrix(1,0,0,-1,161.265,140.97399)" stroke-width=".79701" stroke-linecap="round" stroke-dasharray="2.98883,2.98883" stroke-linejoin="round" fill="none" stroke="#000000" d="M-113.38724 56.69362H113.38724"/>
<path transform="matrix(1,0,0,-1,161.265,140.97399)" stroke-width=".79701" stroke-linecap="round" stroke-dasharray="2.98883,2.98883" stroke-linejoin="round" fill="none" stroke="#000000" d="M-113.38724 0V56.69362"/>
<path transform="matrix(1,0,0,-1,161.265,140.97399)" stroke-width=".79701" stroke-linecap="round" stroke-dasharray="2.98883,2.98883" stroke-linejoin="round" fill="none" stroke="#000000" d="M113.38724 0V56.69362"/>
<path transform="matrix(1,0,0,-1,161.265,140.97399)" stroke-width=".79701" stroke-linecap="round" stroke-linejoin="round" fill="none" stroke="#000000" d="M2.81807 0C2.81807 1.55638 1.55638 2.81807 0 2.81807-1.55638 2.81807-2.81807 1.55638-2.81807 0-2.81807-1.55638-1.55638-2.81807 0-2.81807 1.55638-2.81807 2.81807-1.55638 2.81807 0ZM0 0"/>
<use data-text="&#x1d449;" xlink:href="#font_2_2493" transform="matrix(14.3462,0,0,-14.3462,165.449,156.84899)"/>
<use data-text="(" xlink:href="#font_2_41" transform="matrix(14.3462,0,0,-14.3462,176.92597,156.84899)"/>
<use data-text="0" xlink:href="#font_2_49" transform="matrix(14.3462,0,0,-14.3462,181.70325,156.84899)"/>
<use data-text="," xlink:href="#font_2_45" transform="matrix(14.3462,0,0,-14.3462,188.87635,156.84899)"/>
<use data-text="0" xlink:href="#font_2_49" transform="matrix(14.3462,0,0,-14.3462,194.84436,156.84899)"/>
<use data-text=")" xlink:href="#font_2_42" transform="matrix(14.3462,0,0,-14.3462,202.01746,156.84899)"/>
<path transform="matrix(1,0,0,-1,161.265,140.97399)" d="M3.52272 56.69362C3.52272 58.63918 1.94556 60.21634 0 60.21634-1.94556 60.21634-3.52272 58.63918-3.52272 56.69362-3.52272 54.74805-1.94556 53.17088 0 53.17088 1.94556 53.17088 3.52272 54.74805 3.52272 56.69362ZM0 56.69362"/>
<use data-text="&#x1d439;" xlink:href="#font_2_2477" transform="matrix(14.3462,0,0,-14.3462,167.441,77.556987)"/>
<use data-text="(" xlink:href="#font_2_41" transform="matrix(14.3462,0,0,-14.3462,178.38715,77.556987)"/>
<use data-text="0" xlink:href="#font_2_49" transform="matrix(14.3462,0,0,-14.3462,183.16443,77.556987)"/>
<use data-text="," xlink:href="#font_2_45" transform="matrix(14.3462,0,0,-14.3462,190.33753,77.556987)"/>
<use data-text="4" xlink:href="#font_2_53" transform="matrix(14.3462,0,0,-14.3462,196.30554,77.556987)"/>
<use data-text=")" xlink:href="#font_2_42" transform="matrix(14.3462,0,0,-14.3462,203.47864,77.556987)"/>
<path transform="matrix(1,0,0,-1,161.265,140.97399)" stroke-width=".79701" stroke-linecap="round" stroke-linejoin="round" fill="none" stroke="#000000" d="M-110.56915 56.69362C-110.56915 58.25-111.83084 59.51169-113.38724 59.51169-114.94362 59.51169-116.2053 58.25-116.2053 56.69362-116.2053 55.13722-114.94362 53.87553-113.38724 53.87553-111.83084 53.87553-110.56915 55.13722-110.56915 56.69362ZM-113.38724 56.69362"/>
<use data-text="(" xlink:href="#font_2_41" transform="matrix(14.3462,0,0,-14.3462,.0030059815,87.859989)"/>
<use data-text="&#x2212;" xlink:href="#font_2_1151" transform="matrix(14.3462,0,0,-14.3462,4.7802889,87.859989)"/>
<use data-text="8" xlink:href="#font_2_57" transform="matrix(14.3462,0,0,-14.3462,14.607437,87.859989)"/>
<use data-text="," xlink:href="#font_2_45" transform="matrix(14.3462,0,0,-14.3462,21.780533,87.859989)"/>
<use data-text="4" xlink:href="#font_2_53" transform="matrix(14.3462,0,0,-14.3462,27.748536,87.859989)"/>
<use data-text=")" xlink:href="#font_2_42" transform="matrix(14.3462,0,0,-14.3462,34.92163,87.859989)"/>
<path transform="matrix(1,0,0,-1,161.265,140.97399)" stroke-width=".79701" stroke-linecap="round" stroke-linejoin="round" fill="none" stroke="#000000" d="M116.2053 56.69362C116.2053 58.25 114.94362 59.51169 113.38724 59.51169 111.83084 59.51169 110.56915 58.25 110.56915 56.69362 110.56915 55.13722 111.83084 53.87553 113.38724 53.87553 114.94362 53.87553 116.2053 55.13722 116.2053 56.69362ZM113.38724 56.69362"/>
<use data-text="(" xlink:href="#font_2_41" transform="matrix(14.3462,0,0,-14.3462,282.82099,87.859989)"/>
<use data-text="8" xlink:href="#font_2_57" transform="matrix(14.3462,0,0,-14.3462,287.59828,87.859989)"/>
<use data-text="," xlink:href="#font_2_45" transform="matrix(14.3462,0,0,-14.3462,294.77137,87.859989)"/>
<use data-text="4" xlink:href="#font_2_53" transform="matrix(14.3462,0,0,-14.3462,300.73939,87.859989)"/>
<use data-text=")" xlink:href="#font_2_42" transform="matrix(14.3462,0,0,-14.3462,307.91249,87.859989)"/>
<use data-text="&#x2212;" xlink:href="#font_2_1151" transform="matrix(14.3462,0,0,-14.3462,39.378007,156.84899)"/>
<use data-text="8" xlink:href="#font_2_57" transform="matrix(14.3462,0,0,-14.3462,49.205156,156.84899)"/>
<use data-text="8" xlink:href="#font_2_57" transform="matrix(14.3462,0,0,-14.3462,271.066,156.84899)"/>
<use data-text="&#x1d465;" xlink:href="#font_2_2520" transform="matrix(14.3462,0,0,-14.3462,222.143,46.683984)"/>
<use data-text="2" xlink:href="#font_2_51" transform="matrix(9.9626,0,0,-9.9626,230.034,40.944986)"/>
<use data-text="=" xlink:href="#font_2_62" transform="matrix(14.3462,0,0,-14.3462,239.49802,46.683984)"/>
<use data-text="1" xlink:href="#font_2_50" transform="matrix(14.3462,0,0,-14.3462,253.29904,46.683984)"/>
<use data-text="6" xlink:href="#font_2_55" transform="matrix(14.3462,0,0,-14.3462,260.47215,46.683984)"/>
<use data-text="&#x1d466;" xlink:href="#font_2_2521" transform="matrix(14.3462,0,0,-14.3462,267.64524,46.683984)"/>
</g>
</svg>
