<svg xmlns="http://www.w3.org/2000/svg" xmlns:xlink="http://www.w3.org/1999/xlink" xmlns:inkscape="http://www.inkscape.org/namespaces/inkscape" version="1.1" width="405" height="353" viewBox="0 0 405 353">
<defs>
<clipPath id="clip_1">
<path transform="matrix(1,0,0,-1,-95,766)" d="M0 0H595.28V841.89H0Z"/>
</clipPath>
<path id="font_2_2520" d="M.30499269 .28834535 .2849884 .3433838C.272995 .3764038 .2539978 .41740418 .20999146 .44140626L.07798767 .4084015 .08099365 .39039613C.09098816 .39439393 .10598755 .39639283 .11898804 .39639283 .17399597 .39639283 .19999695 .35539247 .21699524 .3073578L.25 .21530152 .18499756 .11424255C.15299988 .065216068 .1269989 .0552063 .114990238 .0552063 .08999634 .0552063 .09399414 .07521057 .067993167 .07521057 .042999269 .07521057 .02999878 .05419922 .02999878 .038208009 .02999878 .016204834 .04598999-.0087890629 .08198547-.0087890629 .13798523-.0087890629 .16699219 .034210206 .19898987 .083221439L.2619934 .18127442 .3019867 .06820679C.31498719 .032196046 .33399964-.0087890629 .375-.0087890629 .43299867-.0087890629 .47799684 .08721924 .48999024 .10223389L.47599793 .11224365C.45498658 .06921387 .43099977 .0552063 .4149933 .0552063 .36999513 .0552063 .34700013 .19029236 .31698609 .25231935L.37199403 .33737184C.38598634 .35939027 .39698792 .37539674 .4269867 .37539674 .44400025 .37539674 .44898988 .36639405 .47099305 .36639405 .49699403 .36639405 .5099945 .3894043 .5099945 .4084015 .5099945 .42939759 .49299623 .44140626 .46099855 .44140626 .41099549 .44140626 .37599183 .3973999 .34999085 .35739137L.30499269 .28834535Z"/>
<path id="font_2_2521" d="M.269989 .30682374C.26098634 .38082887 .2539978 .40682984 .23098755 .4398346L.08099365 .41482545 .08299255 .39883424C.09199524 .39982606 .10798645 .40283204 .11898804 .40283204 .1749878 .40283204 .18399048 .34283448 .18899536 .2978363L.22698975-.016174317C.20098877-.056167604 .14399719-.11816406 .1269989-.11816406 .11099243-.11816406 .11299133-.08717346 .069992069-.08717346 .056991579-.08717346 .02999878-.09817505 .02999878-.12817383 .02999878-.1521759 .04899597-.1831665 .085998538-.1831665 .1539917-.1831665 .21899414-.08517456 .2919922 .0068359377 .33399964 .059829713 .49598695 .2998352 .49598695 .37782289 .49598695 .41682435 .47099305 .4398346 .43899537 .4398346 .4099884 .4398346 .3919983 .42182923 .3919983 .39982606 .3919983 .36183167 .44400025 .3518219 .44400025 .3308258 .44400025 .3128357 .43598939 .29283143 .41600038 .25582887 .3939972 .21482849 .35899354 .15483094 .2979889 .07182312L.269989 .30682374Z"/>
<path id="font_2_2486" d="M.71199038 .42004396C.71199038 .54597476 .6299896 .6689453 .46299745 .6689453 .20799256 .6689453 .049987794 .42504884 .049987794 .22215271 .049987794 .08522034 .1539917-.0107421879 .30299378-.0107421879 .55599978-.0107421879 .71199038 .22215271 .71199038 .42004396M.59599307 .44303895C.59599307 .30210877 .522995 .027252198 .31098939 .027252198 .23298645 .027252198 .17098999 .080215457 .17098999 .1771698 .17098999 .3190918 .22299195 .63194277 .45498658 .63194277 .55599978 .63194277 .59599307 .54997256 .59599307 .44303895Z"/>
<path id="font_2_3866" d="M.1289978 .0289917C.18099976 .125 .2869873 .33599855 .30499269 .3849945 .30899049 .394989 .31298829 .41600038 .31298829 .4249878 .31298829 .46699525 .28599549 .4850006 .2559967 .4850006 .22999573 .4850006 .20498657 .46998597 .19099427 .4269867 .17599488 .3769989 .12199402 .14399719 .099990848 .038986207L.1289978 .0289917Z"/>
<path id="font_2_1151" d="M.62098696 .22012329V.2861328H.06399536V.22012329H.62098696Z"/>
<path id="font_2_52" d="M.06098938 .50987246C.101989749 .58380129 .147995 .61576846 .20999146 .61576846 .27598573 .61576846 .31799317 .58180239 .31799317 .51387026 .31799317 .45292665 .28599549 .40795899 .23699951 .37998963 .21699524 .36799623 .19099427 .3570099 .15299988 .34402467V.33003236C.20999146 .33003236 .23298645 .32704164 .25498963 .3200531 .32398988 .3000641 .35899354 .2511139 .35899354 .17518616 .35899354 .09025574 .30299378 .022323609 .22898865 .022323609 .20098877 .022323609 .17999268 .027313233 .14299011 .05329895 .114990238 .073272708 .09899902 .07926941 .08198547 .07926941 .05899048 .07926941 .040985109 .06428528 .040985109 .043304445 .040985109 .0073242189 .07998657-.013671875 .15299988-.013671875 .24198914-.013671875 .33699037 .015319824 .3849945 .07926941 .4139862 .11723328 .43099977 .16618347 .43099977 .21913147 .43099977 .27108766 .4149933 .31704713 .3869934 .34802247 .3659973 .36999513 .34799195 .38198854 .3039856 .40097047 .37098695 .44093324 .39698792 .4908905 .39698792 .5388489 .39698792 .6207733 .33399964 .67578127 .24099732 .67578127 .13699341 .67578127 .07398987 .6087799 .04499817 .51387026L.06098938 .50987246Z"/>
<path id="font_2_53" d="M.47299195 .16699219V.23098755H.36999513V.67578127H.32598878L.011993408 .23098755V.16699219H.2919922V0H.36999513V.16699219H.47299195M.2919922 .23098755H.051986696L.2919922 .573822V.23098755Z"/>
<path id="font_2_54" d="M.43798829 .68110659 .42900086 .6880951C.41299439 .667099 .4039917 .6621094 .3809967 .6621094H.17399597L.06498718 .4251709C.06498718 .4251709 .06399536 .42216493 .06399536 .42016603 .06399536 .4141693 .066986087 .4121704 .07598877 .4121704 .17199707 .4121704 .24198914 .380188 .2889862 .3421936 .33399964 .30621339 .35598756 .2562256 .35598756 .19226074 .35598756 .106292728 .29100038 .02331543 .22099304 .02331543 .20098877 .02331543 .17799378 .032318117 .1499939 .05531311 .117996219 .08129883 .09899902 .08630371 .07598877 .08630371 .04798889 .08630371 .0309906 .07330322 .0309906 .048309328 .0309906 .010314941 .08299255-.013671875 .1579895-.013671875 .22599793-.013671875 .2809906 .0013275147 .32798768 .035308839 .3959961 .08529663 .42599488 .14727783 .42599488 .24324036 .42599488 .29621888 .4169922 .334198 .3909912 .37019349 .33399964 .4491577 .28399659 .47114564 .14099121 .49813844L.18099976 .58309939H.375C.3909912 .58309939 .39898683 .58909609 .4019928 .59609988L.43798829 .68110659Z"/>
<path id="font_2_47" d="M.18099976 .04324341C.18099976 .07325745 .15499878 .100250247 .12599182 .100250247 .09498596 .100250247 .069992069 .07525635 .069992069 .04425049 .069992069 .013244629 .09399414-.0107421879 .125-.0107421879 .15499878-.0107421879 .18099976 .014251709 .18099976 .04324341Z"/>
<path id="font_2_50" d="M.3939972 0V.01499939C.31900025 .01499939 .29899598 .032989503 .29899598 .07597351V.67277529L.2899933 .67578127 .11099243 .5847931V.5708008L.13798523 .5807953C.1559906 .5877991 .17298889 .59280398 .18299866 .59280398 .20399475 .59280398 .21299744 .57780459 .21299744 .543808V.0949707C.21299744 .039978029 .19198609 .018997193 .117996219 .01499939V0H.3939972Z"/>
<path id="font_2_1157" d="M.30999757 .25195313C.30999757 .3257141 .25 .38671876 .1769867 .38671876 .099990848 .38671876 .039993287 .32870484 .039993287 .25393678 .039993287 .17718506 .09899902 .1171875 .1749878 .1171875 .25 .1171875 .30999757 .17718506 .30999757 .25195313M.24398804 .25195313C.24398804 .21307373 .21398926 .18318177 .1749878 .18318177 .13598633 .18318177 .10598755 .21208191 .10598755 .25393678 .10598755 .29081727 .1349945 .32070924 .1769867 .32070924 .21299744 .32070924 .24398804 .29081727 .24398804 .25195313Z"/>
<path id="font_2_55" d="M.44599916 .68470767C.30799867 .66970828 .22898865 .6457062 .14299011 .55570986 .07199097 .48269654 .033996583 .38771058 .033996583 .27960206 .033996583 .20951844 .052993776 .138443 .08099365 .087402347 .115997318 .023330689 .1789856-.013671875 .2579956-.013671875 .32398988-.013671875 .37998963 .013320923 .4169922 .05937195 .44999696 .09941101 .46798707 .1554718 .46798707 .2195282 .46798707 .34866334 .3959961 .42871095 .2789917 .42871095 .23498535 .42871095 .20098877 .42170716 .1519928 .3836975 .1789856 .5346985 .29100038 .6427002 .44799806 .6687012L.44599916 .68470767M.37799073 .18850708C.37799073 .08639526 .34098817 .014328003 .2689972 .014328003 .1749878 .014328003 .1269989 .11442566 .1269989 .2665863 .1269989 .3586731 .18598938 .3827057 .24299622 .3827057 .33599855 .3827057 .37799073 .31663514 .37799073 .18850708Z"/>
<path id="font_2_51" d="M.47399903 .13696289 .45999146 .1429596C.4269867 .08699036 .4059906 .07598877 .3639984 .07598877H.12998963L.29499818 .2519226C.38398744 .34588624 .4229889 .42085267 .4229889 .4998169 .4229889 .59877017 .35099793 .67578127 .23799134 .67578127 .114990238 .67578127 .050994874 .5937805 .02999878 .4768219L.050994874 .47183229C.09098816 .5697937 .12599182 .6017761 .19799805 .6017761 .2829895 .6017761 .33699037 .55178835 .33699037 .4608307 .33699037 .37586976 .30099488 .29989625 .20698548 .200943L.0289917 .011993408V0H.41999818L.47399903 .13696289Z"/>
<path id="font_2_44" d="M.6359863 .22012329V.2861328H.375V.54711917H.30899049V.2861328H.04798889V.22012329H.30899049V-.040878297H.375V.22012329H.6359863Z"/>
<path id="font_2_58" d="M.05899048-.021728516C.18899536-.0037384034 .2539978 .020263672 .33898927 .09725952 .4189911 .17027283 .45899964 .27926637 .45899964 .39411927 .45899964 .47799684 .43499757 .5499115 .394989 .59983828 .35598756 .6477661 .3019867 .67578127 .23799134 .67578127 .11898804 .67578127 .02999878 .5748749 .02999878 .44004823 .02999878 .31822206 .101989749 .23725891 .20999146 .23725891 .2689972 .23725891 .31698609 .2522583 .3600006 .2942505 .31999208 .13026428 .20799256 .025268555 .055999757-.001739502L.05899048-.021728516M.3619995 .35516358C.3619995 .30223084 .2889862 .28027345 .24499512 .28027345 .16999817 .28027345 .12199402 .35516358 .12199402 .47399903 .12199402 .52793887 .13699341 .586853 .15699768 .6138153 .17399597 .63578799 .19999695 .6477661 .22999573 .6477661 .31698609 .6477661 .3619995 .56188967 .3619995 .39411927V.35516358Z"/>
<path id="font_2_49" d="M.47599793 .3300476C.47599793 .53486636 .3849945 .67578127 .2539978 .67578127 .09298706 .67578127 .023986817 .5128937 .023986817 .3360443 .023986817 .17218018 .07899475-.013671875 .25-.013671875 .41299439-.013671875 .47599793 .15818787 .47599793 .3300476M.37998963 .32505799C.37998963 .12722779 .33499146 .012313843 .25 .012313843 .1639862 .012313843 .11999512 .1262207 .11999512 .32904054 .11999512 .5318756 .16499329 .6497803 .24798584 .6497803 .33599855 .6497803 .37998963 .53286746 .37998963 .32505799Z"/>
<path id="font_2_62" d="M.6369934 .31973268V.3857422H.04798889V.31973268H.6369934M.6369934 .12011719V.18611145H.04798889V.12011719H.6369934Z"/>
<path id="font_2_41" d="M.3039856-.16122437C.1639862-.04423523 .13398743 .06877136 .13398743 .254776 .13398743 .44776917 .16499329 .5407715 .3039856 .6597748L.29499818 .67578127C.1349945 .58078 .04798889 .43676759 .04798889 .25177003 .04798889 .08177185 .13398743-.0872345 .2919922-.17723084L.3039856-.16122437Z"/>
<path id="font_2_42" d="M.0289917 .6597748C.17399597 .54577639 .19898987 .43077088 .19898987 .24377442 .19898987 .04977417 .17098999-.04423523 .0289917-.16122437L.037994386-.17723084C.19699097-.08023071 .2849884 .061767579 .2849884 .24676514 .2849884 .41677857 .19400025 .58377078 .040985109 .67578127L.0289917 .6597748Z"/>
</defs>
<g clip-path="url(#clip_1)">
<path transform="matrix(1,0,0,-1,279.448,238.41199)" stroke-width=".79701" stroke-linecap="round" stroke-dasharray="2.98883,2.98883" stroke-linejoin="round" fill="none" stroke="#000000" d="M-198.42766 0H110.79697"/>
<path transform="matrix(1,0,0,-1,390.24497,238.41199)" d="M2.59026 0-1.55415 2.0722 0 0-1.55415-2.0722"/>
<use data-text="&#x1d465;" xlink:href="#font_2_2520" transform="matrix(14.3462,0,0,-14.3462,397.218,241.51099)"/>
<path transform="matrix(1,0,0,-1,279.448,238.41199)" stroke-width=".79701" stroke-linecap="round" stroke-dasharray="2.98883,2.98883" stroke-linejoin="round" fill="none" stroke="#000000" d="M0-99.21382V210.01079"/>
<path transform="matrix(0,-1,-1,-0,279.448,28.4012)" d="M2.59026 0-1.55415 2.0722 0 0-1.55415-2.0722"/>
<use data-text="&#x1d466;" xlink:href="#font_2_2521" transform="matrix(14.3462,0,0,-14.3462,275.88999,18.801987)"/>
<use data-text="&#x1d442;" xlink:href="#font_2_2486" transform="matrix(14.3462,0,0,-14.3462,260.49,252.19399)"/>
<path transform="matrix(1,0,0,-1,279.448,238.41199)" stroke-width=".79701" stroke-linecap="round" stroke-linejoin="round" fill="none" stroke="#0000ff" d="M-85.03696-113.38333 100.49022 133.98786"/>
<path transform="matrix(.59999,-.79997,-.79997,-.59999,379.93824,104.42413)" d="M2.59026 0-1.55415 2.0722 0 0-1.55415-2.0722" fill="#0000ff"/>
<use data-text="&#x1d465;" xlink:href="#font_2_2520" transform="matrix(14.3462,0,0,-14.3462,385.876,97.83998)" fill="#0000ff"/>
<use data-text="&#x2032;" xlink:href="#font_2_3866" transform="matrix(9.9626,0,0,-9.9626,393.767,92.10098)" fill="#0000ff"/>
<path transform="matrix(1,0,0,-1,279.448,238.41199)" stroke-width=".79701" stroke-linecap="round" stroke-linejoin="round" fill="none" stroke="#0000ff" d="M45.35332-34.01477-190.67954 143.0087"/>
<path transform="matrix(-.79997,-.59999,-.59999,.79997,88.76846,95.40329)" d="M2.59026 0-1.55415 2.0722 0 0-1.55415-2.0722" fill="#0000ff"/>
<use data-text="&#x1d466;" xlink:href="#font_2_2521" transform="matrix(14.3462,0,0,-14.3462,70.58499,86.84099)" fill="#0000ff"/>
<use data-text="&#x2032;" xlink:href="#font_2_3866" transform="matrix(9.9626,0,0,-9.9626,77.70099,81.10199)" fill="#0000ff"/>
<path transform="matrix(1,0,0,-1,279.448,238.41199)" stroke-width="1.59404" stroke-linecap="round" stroke-linejoin="round" fill="none" stroke="#ff0000" d="M46.41606 38.26692C46.41606 38.26692 30.1702 29.40569 24.16022 26.30849 18.15025 23.21129 8.77843 18.59921 3.10027 15.94449-2.57787 13.28973-11.41757 9.38722-16.76387 7.17496-22.11015 4.96268-30.41774 1.76971-35.43219-.00009-40.44666-1.76991-48.22205-4.25336-52.90468-5.58073-57.58731-6.90811-64.83057-8.68198-69.18134-9.56688-73.53212-10.45181-80.24321-11.51614-84.26216-11.95862-88.2811-12.4011-94.46005-12.75587-98.14717-12.75589-101.83427-12.7559-107.48106-12.40112-110.83632-11.9587-114.1916-11.51625-119.30623-10.45197-122.32967-9.56706-125.35309-8.68217-129.93558-6.90833-132.62717-5.58096-135.31873-4.25362-139.36908-1.77022-141.72882-.00041-144.08858 1.76936-147.60674 4.96231-149.63465 7.17456-151.66259 9.38683-154.64859 13.2893-156.34467 15.94402-158.04074 18.59872-160.49459 23.21075-161.85881 26.30792-163.22307 29.40509-165.14478 34.72665-166.17719 38.26628-167.20958 41.8059-168.59912 47.83702-169.29969 51.81909-170.00022 55.80118-170.8576 62.54184-171.22635 66.96637-171.59506 71.39088-171.92032 78.84108-171.9572 83.70807-171.99407 88.57506-171.78717 96.73482-171.4922 102.04427-171.19725 107.35368-170.45818 116.22298-169.83138 121.97487-169.20459 127.72675-167.9334 137.30559-166.97473 143.49994-166.0161 149.69429-164.21273 159.98265-162.92224 166.61945-161.63178 173.25624-157.67392 191.33345-157.67392 191.33345"/>
<path transform="matrix(1,0,0,-1,279.448,238.41199)" stroke-width=".79701" stroke-linecap="round" stroke-dasharray="2.98883,2.98883" stroke-linejoin="round" fill="none" stroke="#000000" d="M-141.72882-.00041-51.02217-68.02998"/>
<path transform="matrix(1,0,0,-1,279.448,238.41199)" stroke-width=".79701" stroke-linecap="round" stroke-dasharray="2.98883,2.98883" stroke-linejoin="round" fill="none" stroke="#000000" d="M-141.72882-.00041-90.70665 68.02956"/>
<path transform="matrix(1,0,0,-1,279.448,238.41199)" stroke-width=".79701" stroke-linecap="round" stroke-linejoin="round" fill="none" stroke="#000000" d="M-44.21931-58.95946-53.28983-52.15662-60.09268-61.22714"/>
<path transform="matrix(1,0,0,-1,279.448,238.41199)" stroke-width=".79701" stroke-linecap="round" stroke-linejoin="round" fill="none" stroke="#000000" d="M-81.63612 61.2267-88.43896 52.15619-97.50949 58.95905"/>
<path transform="matrix(1,0,0,-1,279.448,238.41199)" d="M-140.53334 1.59355C-141.4137 2.25381-142.66257 2.0754-143.32282 1.19505-143.98307 .3147-143.80466-.93416-142.92432-1.5944-142.04396-2.25465-140.79509-2.07625-140.13484-1.1959-139.4746-.31555-139.653 .9333-140.53334 1.59355ZM-141.72882-.00041"/>
<path transform="matrix(1,0,0,-1,279.448,238.41199)" stroke-width=".79701" stroke-linecap="round" stroke-linejoin="round" fill="none" stroke="#000000" d="M-140.53334 1.59355C-141.4137 2.25381-142.66257 2.0754-143.32282 1.19505-143.98307 .3147-143.80466-.93416-142.92432-1.5944-142.04396-2.25465-140.79509-2.07625-140.13484-1.1959-139.4746-.31555-139.653 .9333-140.53334 1.59355ZM-141.72882-.00041"/>
<path transform="matrix(1,0,0,-1,279.448,238.41199)" d="M-49.82668-66.436C-50.70703-65.77574-51.9559-65.95416-52.61615-66.8345-53.2764-67.71484-53.09799-68.96371-52.21765-69.62398-51.3373-70.28423-50.08842-70.10582-49.42818-69.22546-48.76793-68.34512-48.94633-67.09625-49.82668-66.436ZM-51.02217-68.02998"/>
<path transform="matrix(1,0,0,-1,279.448,238.41199)" stroke-width=".79701" stroke-linecap="round" stroke-linejoin="round" fill="none" stroke="#000000" d="M-49.82668-66.436C-50.70703-65.77574-51.9559-65.95416-52.61615-66.8345-53.2764-67.71484-53.09799-68.96371-52.21765-69.62398-51.3373-70.28423-50.08842-70.10582-49.42818-69.22546-48.76793-68.34512-48.94633-67.09625-49.82668-66.436ZM-51.02217-68.02998"/>
<use data-text="&#x2212;" xlink:href="#font_2_1151" transform="matrix(14.3462,0,0,-14.3462,234.802,315.176)"/>
<use data-text="3" xlink:href="#font_2_52" transform="matrix(14.3462,0,0,-14.3462,244.62915,315.176)"/>
<path transform="matrix(1,0,0,-1,279.448,238.41199)" d="M-89.51117 69.62355C-90.39153 70.2838-91.6404 70.1054-92.30064 69.22504-92.96089 68.3447-92.78249 67.09583-91.90215 66.43558-91.02179 65.77531-89.77292 65.95374-89.11267 66.83408-88.45241 67.71442-88.63083 68.9633-89.51117 69.62355ZM-90.70665 68.02956"/>
<path transform="matrix(1,0,0,-1,279.448,238.41199)" stroke-width=".79701" stroke-linecap="round" stroke-linejoin="round" fill="none" stroke="#000000" d="M-89.51117 69.62355C-90.39153 70.2838-91.6404 70.1054-92.30064 69.22504-92.96089 68.3447-92.78249 67.09583-91.90215 66.43558-91.02179 65.77531-89.77292 65.95374-89.11267 66.83408-88.45241 67.71442-88.63083 68.9633-89.51117 69.62355ZM-90.70665 68.02956"/>
<use data-text="4" xlink:href="#font_2_53" transform="matrix(14.3462,0,0,-14.3462,185.155,164.00699)"/>
<path transform="matrix(1,0,0,-1,279.448,238.41199)" stroke-width=".79701" stroke-linecap="round" stroke-linejoin="round" fill="none" stroke="#000000" d="M42.5202 0C42.5202 13.37384 36.22351 25.97238 27.60059 32.44681"/>
<path transform="matrix(-.79967,-.6004,-.6004,.79967,307.04859,205.96518)" d="M2.59026 0-1.55415 2.0722 0 0-1.55415-2.0722"/>
<use data-text="5" xlink:href="#font_2_54" transform="matrix(14.3462,0,0,-14.3462,315.858,218.39398)"/>
<use data-text="3" xlink:href="#font_2_52" transform="matrix(14.3462,0,0,-14.3462,323.0311,218.39398)"/>
<use data-text="." xlink:href="#font_2_47" transform="matrix(14.3462,0,0,-14.3462,330.2042,218.39398)"/>
<use data-text="1" xlink:href="#font_2_50" transform="matrix(14.3462,0,0,-14.3462,333.79075,218.39398)"/>
<use data-text="&#x2218;" xlink:href="#font_2_1157" transform="matrix(9.9626,0,0,-9.9626,340.964,212.65499)"/>
<use data-text="1" xlink:href="#font_2_50" transform="matrix(11.9552,0,0,-11.9552,.16400147,10.934982)" fill="#ff0000"/>
<use data-text="6" xlink:href="#font_2_55" transform="matrix(11.9552,0,0,-11.9552,6.1416018,10.934982)" fill="#ff0000"/>
<use data-text="&#x1d465;" xlink:href="#font_2_2520" transform="matrix(11.9552,0,0,-11.9552,12.119202,10.934982)" fill="#ff0000"/>
<use data-text="2" xlink:href="#font_2_51" transform="matrix(8.9664,0,0,-8.9664,18.695008,6.1529848)" fill="#ff0000"/>
<use data-text="&#x2212;" xlink:href="#font_2_1151" transform="matrix(11.9552,0,0,-11.9552,26.333008,10.934982)" fill="#ff0000"/>
<use data-text="2" xlink:href="#font_2_51" transform="matrix(11.9552,0,0,-11.9552,37.17636,10.934982)" fill="#ff0000"/>
<use data-text="4" xlink:href="#font_2_53" transform="matrix(11.9552,0,0,-11.9552,43.15396,10.934982)" fill="#ff0000"/>
<use data-text="&#x1d465;" xlink:href="#font_2_2520" transform="matrix(11.9552,0,0,-11.9552,49.13156,10.934982)" fill="#ff0000"/>
<use data-text="&#x1d466;" xlink:href="#font_2_2521" transform="matrix(11.9552,0,0,-11.9552,55.70691,10.934982)" fill="#ff0000"/>
<use data-text="+" xlink:href="#font_2_44" transform="matrix(11.9552,0,0,-11.9552,64.29074,10.934982)" fill="#ff0000"/>
<use data-text="9" xlink:href="#font_2_58" transform="matrix(11.9552,0,0,-11.9552,75.134098,10.934982)" fill="#ff0000"/>
<use data-text="&#x1d466;" xlink:href="#font_2_2521" transform="matrix(11.9552,0,0,-11.9552,81.111698,10.934982)" fill="#ff0000"/>
<use data-text="2" xlink:href="#font_2_51" transform="matrix(8.9664,0,0,-8.9664,87.05002,6.1529848)" fill="#ff0000"/>
<use data-text="+" xlink:href="#font_2_44" transform="matrix(11.9552,0,0,-11.9552,94.689029,10.934982)" fill="#ff0000"/>
<use data-text="1" xlink:href="#font_2_50" transform="matrix(11.9552,0,0,-11.9552,105.53238,10.934982)" fill="#ff0000"/>
<use data-text="0" xlink:href="#font_2_49" transform="matrix(11.9552,0,0,-11.9552,111.50998,10.934982)" fill="#ff0000"/>
<use data-text="0" xlink:href="#font_2_49" transform="matrix(11.9552,0,0,-11.9552,117.48758,10.934982)" fill="#ff0000"/>
<use data-text="&#x1d465;" xlink:href="#font_2_2520" transform="matrix(11.9552,0,0,-11.9552,123.46518,10.934982)" fill="#ff0000"/>
<use data-text="&#x2212;" xlink:href="#font_2_1151" transform="matrix(11.9552,0,0,-11.9552,132.69458,10.934982)" fill="#ff0000"/>
<use data-text="2" xlink:href="#font_2_51" transform="matrix(11.9552,0,0,-11.9552,143.53794,10.934982)" fill="#ff0000"/>
<use data-text="0" xlink:href="#font_2_49" transform="matrix(11.9552,0,0,-11.9552,149.51554,10.934982)" fill="#ff0000"/>
<use data-text="0" xlink:href="#font_2_49" transform="matrix(11.9552,0,0,-11.9552,155.49314,10.934982)" fill="#ff0000"/>
<use data-text="&#x1d466;" xlink:href="#font_2_2521" transform="matrix(11.9552,0,0,-11.9552,161.47074,10.934982)" fill="#ff0000"/>
<use data-text="+" xlink:href="#font_2_44" transform="matrix(11.9552,0,0,-11.9552,170.05457,10.934982)" fill="#ff0000"/>
<use data-text="1" xlink:href="#font_2_50" transform="matrix(11.9552,0,0,-11.9552,180.90988,10.934982)" fill="#ff0000"/>
<use data-text="0" xlink:href="#font_2_49" transform="matrix(11.9552,0,0,-11.9552,186.88748,10.934982)" fill="#ff0000"/>
<use data-text="0" xlink:href="#font_2_49" transform="matrix(11.9552,0,0,-11.9552,192.86508,10.934982)" fill="#ff0000"/>
<use data-text="=" xlink:href="#font_2_62" transform="matrix(11.9552,0,0,-11.9552,202.16623,10.934982)" fill="#ff0000"/>
<use data-text="0" xlink:href="#font_2_49" transform="matrix(11.9552,0,0,-11.9552,213.66712,10.934982)" fill="#ff0000"/>
<use data-text="(" xlink:href="#font_2_41" transform="matrix(11.9552,0,0,-11.9552,.16400147,35.807985)" fill="#ff0000"/>
<use data-text="&#x1d466;" xlink:href="#font_2_2521" transform="matrix(11.9552,0,0,-11.9552,4.1450808,35.807985)" fill="#ff0000"/>
<use data-text="&#x2032;" xlink:href="#font_2_3866" transform="matrix(8.9664,0,0,-8.9664,10.075012,31.025986)" fill="#ff0000"/>
<use data-text="&#x2212;" xlink:href="#font_2_1151" transform="matrix(11.9552,0,0,-11.9552,16.933014,35.807985)" fill="#ff0000"/>
<use data-text="4" xlink:href="#font_2_53" transform="matrix(11.9552,0,0,-11.9552,27.776368,35.807985)" fill="#ff0000"/>
<use data-text=")" xlink:href="#font_2_42" transform="matrix(11.9552,0,0,-11.9552,33.753969,35.807985)" fill="#ff0000"/>
<use data-text="2" xlink:href="#font_2_51" transform="matrix(8.9664,0,0,-8.9664,37.738008,31.025986)" fill="#ff0000"/>
<use data-text="=" xlink:href="#font_2_62" transform="matrix(11.9552,0,0,-11.9552,46.041017,35.807985)" fill="#ff0000"/>
<use data-text="4" xlink:href="#font_2_53" transform="matrix(11.9552,0,0,-11.9552,57.5419,35.807985)" fill="#ff0000"/>
<use data-text="(" xlink:href="#font_2_41" transform="matrix(11.9552,0,0,-11.9552,63.5195,35.807985)" fill="#ff0000"/>
<use data-text="&#x1d465;" xlink:href="#font_2_2520" transform="matrix(11.9552,0,0,-11.9552,67.50058,35.807985)" fill="#ff0000"/>
<use data-text="&#x2032;" xlink:href="#font_2_3866" transform="matrix(8.9664,0,0,-8.9664,74.08502,31.025986)" fill="#ff0000"/>
<use data-text="+" xlink:href="#font_2_44" transform="matrix(11.9552,0,0,-11.9552,80.94403,35.807985)" fill="#ff0000"/>
<use data-text="3" xlink:href="#font_2_52" transform="matrix(11.9552,0,0,-11.9552,91.787387,35.807985)" fill="#ff0000"/>
<use data-text=")" xlink:href="#font_2_42" transform="matrix(11.9552,0,0,-11.9552,97.764987,35.807985)" fill="#ff0000"/>
</g>
</svg>
