<svg xmlns="http://www.w3.org/2000/svg" xmlns:xlink="http://www.w3.org/1999/xlink" xmlns:inkscape="http://www.inkscape.org/namespaces/inkscape" version="1.1" width="442" height="316" viewBox="0 0 442 316">
<defs>
<clipPath id="clip_1">
<path transform="matrix(1,0,0,-1,-74,766)" d="M0 0H595.28V841.89H0Z"/>
</clipPath>
<path id="font_2_2520" d="M.30499269 .28834535 .2849884 .3433838C.272995 .3764038 .2539978 .41740418 .20999146 .44140626L.07798767 .4084015 .08099365 .39039613C.09098816 .39439393 .10598755 .39639283 .11898804 .39639283 .17399597 .39639283 .19999695 .35539247 .21699524 .3073578L.25 .21530152 .18499756 .11424255C.15299988 .065216068 .1269989 .0552063 .114990238 .0552063 .08999634 .0552063 .09399414 .07521057 .067993167 .07521057 .042999269 .07521057 .02999878 .05419922 .02999878 .038208009 .02999878 .016204834 .04598999-.0087890629 .08198547-.0087890629 .13798523-.0087890629 .16699219 .034210206 .19898987 .083221439L.2619934 .18127442 .3019867 .06820679C.31498719 .032196046 .33399964-.0087890629 .375-.0087890629 .43299867-.0087890629 .47799684 .08721924 .48999024 .10223389L.47599793 .11224365C.45498658 .06921387 .43099977 .0552063 .4149933 .0552063 .36999513 .0552063 .34700013 .19029236 .31698609 .25231935L.37199403 .33737184C.38598634 .35939027 .39698792 .37539674 .4269867 .37539674 .44400025 .37539674 .44898988 .36639405 .47099305 .36639405 .49699403 .36639405 .5099945 .3894043 .5099945 .4084015 .5099945 .42939759 .49299623 .44140626 .46099855 .44140626 .41099549 .44140626 .37599183 .3973999 .34999085 .35739137L.30499269 .28834535Z"/>
<path id="font_2_2521" d="M.269989 .30682374C.26098634 .38082887 .2539978 .40682984 .23098755 .4398346L.08099365 .41482545 .08299255 .39883424C.09199524 .39982606 .10798645 .40283204 .11898804 .40283204 .1749878 .40283204 .18399048 .34283448 .18899536 .2978363L.22698975-.016174317C.20098877-.056167604 .14399719-.11816406 .1269989-.11816406 .11099243-.11816406 .11299133-.08717346 .069992069-.08717346 .056991579-.08717346 .02999878-.09817505 .02999878-.12817383 .02999878-.1521759 .04899597-.1831665 .085998538-.1831665 .1539917-.1831665 .21899414-.08517456 .2919922 .0068359377 .33399964 .059829713 .49598695 .2998352 .49598695 .37782289 .49598695 .41682435 .47099305 .4398346 .43899537 .4398346 .4099884 .4398346 .3919983 .42182923 .3919983 .39982606 .3919983 .36183167 .44400025 .3518219 .44400025 .3308258 .44400025 .3128357 .43598939 .29283143 .41600038 .25582887 .3939972 .21482849 .35899354 .15483094 .2979889 .07182312L.269989 .30682374Z"/>
<path id="font_2_2486" d="M.71199038 .42004396C.71199038 .54597476 .6299896 .6689453 .46299745 .6689453 .20799256 .6689453 .049987794 .42504884 .049987794 .22215271 .049987794 .08522034 .1539917-.0107421879 .30299378-.0107421879 .55599978-.0107421879 .71199038 .22215271 .71199038 .42004396M.59599307 .44303895C.59599307 .30210877 .522995 .027252198 .31098939 .027252198 .23298645 .027252198 .17098999 .080215457 .17098999 .1771698 .17098999 .3190918 .22299195 .63194277 .45498658 .63194277 .55599978 .63194277 .59599307 .54997256 .59599307 .44303895Z"/>
<path id="font_2_3866" d="M.1289978 .0289917C.18099976 .125 .2869873 .33599855 .30499269 .3849945 .30899049 .394989 .31298829 .41600038 .31298829 .4249878 .31298829 .46699525 .28599549 .4850006 .2559967 .4850006 .22999573 .4850006 .20498657 .46998597 .19099427 .4269867 .17599488 .3769989 .12199402 .14399719 .099990848 .038986207L.1289978 .0289917Z"/>
<path id="font_2_41" d="M.3039856-.16122437C.1639862-.04423523 .13398743 .06877136 .13398743 .254776 .13398743 .44776917 .16499329 .5407715 .3039856 .6597748L.29499818 .67578127C.1349945 .58078 .04798889 .43676759 .04798889 .25177003 .04798889 .08177185 .13398743-.0872345 .2919922-.17723084L.3039856-.16122437Z"/>
<path id="font_2_965" d="M.5329895 .11717224C.48399354 .05921936 .46099855 .050231935 .44400025 .050231935 .43499757 .050231935 .43099977 .05722046 .43099977 .067214969 .43099977 .081207279 .43699647 .10517883 .44198609 .122177127L.49299623 .3010254C.5009918 .3280182 .5039978 .35198976 .5039978 .37197877 .5039978 .4299469 .47599793 .45996095 .41600038 .45996095 .35699464 .45996095 .2809906 .4089508 .19699097 .24607849H.19599915L.31599427 .680954 .30799867 .6829529C.269989 .6679535 .23599243 .6559601 .1519928 .63894656V.62394717C.18199158 .62394717 .20899964 .62194827 .20899964 .6019592 .20899964 .59495547 .20799256 .58496096 .20498657 .5729523L.04699707 0H.1309967C.1749878 .15597534 .19699097 .2079773 .24099732 .27296449 .29599 .35395814 .34899903 .40596009 .3809967 .40596009 .4099884 .40596009 .41799928 .3879547 .41799928 .36195375 .41799928 .34295655 .41299439 .31495667 .40899659 .29995729L.36898805 .15597534C.35699464 .113220218 .34498597 .066223148 .34498597 .04623413 .34498597 .009231567 .36499024-.009765625 .397995-.009765625 .43499757-.009765625 .4850006 .017227173 .54499819 .10623169L.5329895 .11717224Z"/>
<path id="font_2_45" d="M.08299255-.14086914C.1519928-.10786438 .19499207-.04486084 .19499207 .015136719 .19499207 .06713867 .1599884 .102127078 .114990238 .102127078 .07899475 .102127078 .054992677 .07913208 .054992677 .045135499 .054992677 .011138916 .07598877-.005859375 .11299133-.005859375 .12399292-.0059661867 .13398743-.001953125 .14199829-.001953125 .1499939-.001953125 .1559906-.007965088 .1559906-.014953613 .1559906-.047958375 .12799073-.08496094 .07299805-.1219635L.08299255-.14086914Z"/>
<path id="font_2_2507" d="M.5269928 .42797853H.33299256L.32899476 .41596986H.34098817C.35099793 .41596986 .36698915 .40898133 .36698915 .39697267 .36698915 .38397218 .35699464 .37097169 .34599305 .36097718L.1789856 .21199036 .2919922 .66796877 .13398743 .6429596 .13699341 .6289673C.14498902 .6309662 .15499878 .6309662 .1639862 .6309662 .18598938 .6309662 .19599915 .6199646 .19599915 .608963 .19599915 .6019745 .19499207 .5949707 .19299317 .588974L.04499817 0H.12098694L.1659851 .1659851 .22200012 .21498108 .2849884 .067993167C.29599 .042251588 .31698609-.0107421879 .36299134-.0107421879 .43099977-.0107421879 .47799684 .09625244 .48999024 .117248538L.47499085 .12825012C.45298768 .09825134 .43099977 .055252077 .40098573 .055252077 .375 .055252077 .36299134 .07925415 .34799195 .11425781L.28399659 .2662506 .3899994 .35824586C.42799378 .3912506 .45599366 .40925599 .522995 .4162445L.5269928 .42797853Z"/>
<path id="font_2_42" d="M.0289917 .6597748C.17399597 .54577639 .19898987 .43077088 .19898987 .24377442 .19898987 .04977417 .17098999-.04423523 .0289917-.16122437L.037994386-.17723084C.19699097-.08023071 .2849884 .061767579 .2849884 .24676514 .2849884 .41677857 .19400025 .58377078 .040985109 .67578127L.0289917 .6597748Z"/>
<path id="font_2_51" d="M.47399903 .13696289 .45999146 .1429596C.4269867 .08699036 .4059906 .07598877 .3639984 .07598877H.12998963L.29499818 .2519226C.38398744 .34588624 .4229889 .42085267 .4229889 .4998169 .4229889 .59877017 .35099793 .67578127 .23799134 .67578127 .114990238 .67578127 .050994874 .5937805 .02999878 .4768219L.050994874 .47183229C.09098816 .5697937 .12599182 .6017761 .19799805 .6017761 .2829895 .6017761 .33699037 .55178835 .33699037 .4608307 .33699037 .37586976 .30099488 .29989625 .20698548 .200943L.0289917 .011993408V0H.41999818L.47399903 .13696289Z"/>
<path id="font_2_62" d="M.6369934 .31973268V.3857422H.04798889V.31973268H.6369934M.6369934 .12011719V.18611145H.04798889V.12011719H.6369934Z"/>
<path id="font_2_53" d="M.47299195 .16699219V.23098755H.36999513V.67578127H.32598878L.011993408 .23098755V.16699219H.2919922V0H.36999513V.16699219H.47299195M.2919922 .23098755H.051986696L.2919922 .573822V.23098755Z"/>
<path id="font_2_2512" d="M.25299073 .37039186 .25 .37239076 .2679901 .44140626 .10998535 .41740418 .11199951 .4013977C.11999512 .4033966 .13198853 .4053955 .13999939 .4053955 .16999817 .4053955 .17098999 .3914032 .17098999 .37239076L.053985597-.09172058C.041992189-.13772583 .034988405-.16772461-.027008057-.17073059L-.030014039-.182724H.20399475L.20698548-.17073059H.19099427C.14099121-.17073059 .12998963-.14971924 .12998963-.12773133 .12998963-.11672974 .13198853-.10572815 .1349945-.09272766L.15899658 .0072784426C.17799378-.0077209474 .19599915-.01171875 .21998596-.01171875 .3639984-.01171875 .47399903 .15731812 .47399903 .2863617 .47399903 .3874054 .44099427 .44140626 .37998963 .44140626 .34498597 .44140626 .30599977 .4203949 .2669983 .38339234L.25299073 .37039186M.21398926 .23834229C.23399353 .3243866 .28599549 .38539125 .33898927 .38539125 .3619995 .38539125 .3899994 .36538697 .3899994 .30236817 .3899994 .19033814 .31498719 .01727295 .21398926 .01727295 .20199585 .01727295 .18199158 .022277832 .16799927 .0382843L.21398926 .23834229Z"/>
</defs>
<g clip-path="url(#clip_1)">
<path transform="matrix(1,0,0,-1,85.843,272.792)" stroke-width=".79701" stroke-linecap="round" stroke-linejoin="round" fill="none" stroke="#000000" d="M-85.04042 0H0"/>
<path transform="matrix(1,0,0,-1,85.843,272.792)" stroke-width=".79701" stroke-linecap="round" stroke-linejoin="round" fill="none" stroke="#000000" d="M0 0H337.57145"/>
<path transform="matrix(1,0,0,-1,423.41444,272.792)" d="M2.59026 0-1.55415 2.0722 0 0-1.55415-2.0722"/>
<use data-text="&#x1d465;" xlink:href="#font_2_2520" transform="matrix(14.3462,0,0,-14.3462,430.388,275.891)"/>
<path transform="matrix(1,0,0,-1,85.843,272.792)" stroke-width=".79701" stroke-linecap="round" stroke-linejoin="round" fill="none" stroke="#000000" d="M0-42.5202V0"/>
<path transform="matrix(1,0,0,-1,85.843,272.792)" stroke-width=".79701" stroke-linecap="round" stroke-linejoin="round" fill="none" stroke="#000000" d="M0 0V252.53102"/>
<path transform="matrix(0,-1,-1,-0,85.843,20.260972)" d="M2.59026 0-1.55415 2.0722 0 0-1.55415-2.0722"/>
<use data-text="&#x1d466;" xlink:href="#font_2_2521" transform="matrix(14.3462,0,0,-14.3462,82.285,10.661987)"/>
<use data-text="&#x1d442;" xlink:href="#font_2_2486" transform="matrix(14.3462,0,0,-14.3462,68.878009,288.56599)"/>
<path transform="matrix(1,0,0,-1,85.843,272.792)" stroke-width=".79701" stroke-linecap="round" stroke-dasharray="2.98883,2.98883" stroke-linejoin="round" fill="none" stroke="#000000" d="M-85.04042 85.04042 170.10161 85.0508"/>
<path transform="matrix(1,0,0,-1,85.843,272.792)" stroke-width=".79701" stroke-linecap="round" stroke-dasharray="2.98883,2.98883" stroke-linejoin="round" fill="none" stroke="#000000" d="M170.08086-42.5202 170.10161 85.0508"/>
<path transform="matrix(1,0,0,-1,85.843,272.792)" stroke-width=".79701" stroke-linecap="round" stroke-dasharray="2.98883,2.98883" stroke-linejoin="round" fill="none" stroke="#000000" d="M170.10161 85.0508 337.5715 85.04053"/>
<path transform="matrix(.99998,.00005,.00005,-.99998,423.4145,187.75145)" d="M2.59026 0-1.55415 2.0722 0 0-1.55415-2.0722"/>
<use data-text="&#x1d465;" xlink:href="#font_2_2520" transform="matrix(14.3462,0,0,-14.3462,430.388,192.97299)"/>
<use data-text="&#x2032;" xlink:href="#font_2_3866" transform="matrix(9.9626,0,0,-9.9626,438.278,187.23398)"/>
<path transform="matrix(1,0,0,-1,85.843,272.792)" stroke-width=".79701" stroke-linecap="round" stroke-dasharray="2.98883,2.98883" stroke-linejoin="round" fill="none" stroke="#000000" d="M170.10161 85.0508 170.08113 252.53107"/>
<path transform="matrix(-.0001,-.99998,-.99998,.0001,255.92415,20.260926)" d="M2.59026 0-1.55415 2.0722 0 0-1.55415-2.0722"/>
<use data-text="&#x1d466;" xlink:href="#font_2_2521" transform="matrix(14.3462,0,0,-14.3462,250.06,10.661987)"/>
<use data-text="&#x2032;" xlink:href="#font_2_3866" transform="matrix(9.9626,0,0,-9.9626,257.175,4.9229738)"/>
<use data-text="(" xlink:href="#font_2_41" transform="matrix(14.3462,0,0,-14.3462,262.121,203.716)"/>
<use data-text="&#x210e;" xlink:href="#font_2_965" transform="matrix(14.3462,0,0,-14.3462,266.8983,203.716)"/>
<use data-text="," xlink:href="#font_2_45" transform="matrix(14.3462,0,0,-14.3462,275.17604,203.716)"/>
<use data-text="&#x1d458;" xlink:href="#font_2_2507" transform="matrix(14.3462,0,0,-14.3462,281.14405,203.716)"/>
<use data-text=")" xlink:href="#font_2_42" transform="matrix(14.3462,0,0,-14.3462,288.9197,203.716)"/>
<use data-text="&#x1d442;" xlink:href="#font_2_2486" transform="matrix(14.3462,0,0,-14.3462,234.367,204.48899)"/>
<use data-text="&#x2032;" xlink:href="#font_2_3866" transform="matrix(9.9626,0,0,-9.9626,245.155,198.74997)"/>
<path transform="matrix(1,0,0,-1,85.843,272.792)" stroke-width="1.59404" stroke-linecap="round" stroke-linejoin="round" fill="none" stroke="#ff0000" d="M21.26009 233.86116C21.26009 233.86116 30.22008 216.4014 33.66138 210.09212 37.1027 203.78284 42.62135 194.12236 46.06267 188.38823 49.50397 182.6541 55.02266 173.92621 58.46397 168.7644 61.90527 163.60262 67.42397 155.77568 70.86528 151.18563 74.30658 146.59558 79.82526 139.6975 83.26659 135.68239 86.70789 131.6673 92.22655 125.68877 95.66785 122.24754 99.10916 118.80632 104.62785 113.74832 108.06915 110.88045 111.51047 108.01256 117.02916 103.87236 120.47046 101.57784 123.91177 99.28331 129.43045 96.06374 132.87177 94.343 136.31308 92.62227 141.83173 90.3231 145.27304 89.17589 148.71436 88.02867 154.23303 86.64836 157.67435 86.0746 161.11565 85.50082 166.63434 85.04048 170.07566 85.04042 173.51696 85.04034 179.03565 85.50063 182.47696 86.07396 185.91826 86.64731 191.43692 88.0259 194.87824 89.17265 198.31955 90.31941 203.83823 92.61882 207.27953 94.33911 210.72084 96.05937 216.23954 99.27745 219.68083 101.57135 223.12215 103.86528 228.64084 108.00467 232.08214 110.87201 235.52346 113.73933 241.0421 118.7964 244.48343 122.23717 247.92473 125.67792 253.4434 131.65616 256.88475 135.67072 260.32603 139.68527 265.8447 146.58336 269.28605 151.17136 272.72734 155.75933 278.24604 163.57628 281.68733 168.73781 285.12864 173.8993 290.6473 182.63697 294.08863 188.372 297.5299 194.10703 303.0486 203.76335 306.4899 210.072 309.93125 216.38065 318.8912 233.84041 318.8912 233.84041"/>
<path transform="matrix(1,0,0,-1,85.843,272.792)" stroke-width=".79701" stroke-linecap="round" stroke-linejoin="round" fill="none" stroke="#000000" d="M172.91968 85.0508C172.91968 86.60718 171.65799 87.86887 170.10161 87.86887 168.54521 87.86887 167.28353 86.60718 167.28353 85.0508 167.28353 83.4944 168.54521 82.23271 170.10161 82.23271 171.65799 82.23271 172.91968 83.4944 172.91968 85.0508ZM170.10161 85.0508"/>
<use data-text="&#x210e;" xlink:href="#font_2_965" transform="matrix(14.3462,0,0,-14.3462,243.462,290.75999)"/>
<use data-text="&#x1d458;" xlink:href="#font_2_2507" transform="matrix(14.3462,0,0,-14.3462,69.898,201.51898)"/>
<use data-text="(" xlink:href="#font_2_41" transform="matrix(14.3462,0,0,-14.3462,350.568,32.121995)"/>
<use data-text="&#x1d465;" xlink:href="#font_2_2520" transform="matrix(14.3462,0,0,-14.3462,355.34529,32.121995)"/>
<use data-text="&#x2032;" xlink:href="#font_2_3866" transform="matrix(9.9626,0,0,-9.9626,363.23503,26.38298)"/>
<use data-text=")" xlink:href="#font_2_42" transform="matrix(14.3462,0,0,-14.3462,367.84803,32.121995)"/>
<use data-text="2" xlink:href="#font_2_51" transform="matrix(9.9626,0,0,-9.9626,372.625,26.38298)"/>
<use data-text="=" xlink:href="#font_2_62" transform="matrix(14.3462,0,0,-14.3462,382.09004,32.121995)"/>
<use data-text="4" xlink:href="#font_2_53" transform="matrix(14.3462,0,0,-14.3462,395.89106,32.121995)"/>
<use data-text="&#x1d45d;" xlink:href="#font_2_2512" transform="matrix(14.3462,0,0,-14.3462,403.06416,32.121995)"/>
<use data-text="&#x1d466;" xlink:href="#font_2_2521" transform="matrix(14.3462,0,0,-14.3462,410.07945,32.121995)"/>
<use data-text="&#x2032;" xlink:href="#font_2_3866" transform="matrix(9.9626,0,0,-9.9626,417.20704,26.38298)"/>
</g>
</svg>
