<svg xmlns="http://www.w3.org/2000/svg" xmlns:xlink="http://www.w3.org/1999/xlink" xmlns:inkscape="http://www.inkscape.org/namespaces/inkscape" version="1.1" width="353" height="393" viewBox="0 0 353 393">
<defs>
<clipPath id="clip_1">
<path transform="matrix(1,0,0,-1,-119,766)" d="M0 0H595.28V841.89H0Z"/>
</clipPath>
<path id="font_2_2520" d="M.30499269 .28834535 .2849884 .3433838C.272995 .3764038 .2539978 .41740418 .20999146 .44140626L.07798767 .4084015 .08099365 .39039613C.09098816 .39439393 .10598755 .39639283 .11898804 .39639283 .17399597 .39639283 .19999695 .35539247 .21699524 .3073578L.25 .21530152 .18499756 .11424255C.15299988 .065216068 .1269989 .0552063 .114990238 .0552063 .08999634 .0552063 .09399414 .07521057 .067993167 .07521057 .042999269 .07521057 .02999878 .05419922 .02999878 .038208009 .02999878 .016204834 .04598999-.0087890629 .08198547-.0087890629 .13798523-.0087890629 .16699219 .034210206 .19898987 .083221439L.2619934 .18127442 .3019867 .06820679C.31498719 .032196046 .33399964-.0087890629 .375-.0087890629 .43299867-.0087890629 .47799684 .08721924 .48999024 .10223389L.47599793 .11224365C.45498658 .06921387 .43099977 .0552063 .4149933 .0552063 .36999513 .0552063 .34700013 .19029236 .31698609 .25231935L.37199403 .33737184C.38598634 .35939027 .39698792 .37539674 .4269867 .37539674 .44400025 .37539674 .44898988 .36639405 .47099305 .36639405 .49699403 .36639405 .5099945 .3894043 .5099945 .4084015 .5099945 .42939759 .49299623 .44140626 .46099855 .44140626 .41099549 .44140626 .37599183 .3973999 .34999085 .35739137L.30499269 .28834535Z"/>
<path id="font_2_2521" d="M.269989 .30682374C.26098634 .38082887 .2539978 .40682984 .23098755 .4398346L.08099365 .41482545 .08299255 .39883424C.09199524 .39982606 .10798645 .40283204 .11898804 .40283204 .1749878 .40283204 .18399048 .34283448 .18899536 .2978363L.22698975-.016174317C.20098877-.056167604 .14399719-.11816406 .1269989-.11816406 .11099243-.11816406 .11299133-.08717346 .069992069-.08717346 .056991579-.08717346 .02999878-.09817505 .02999878-.12817383 .02999878-.1521759 .04899597-.1831665 .085998538-.1831665 .1539917-.1831665 .21899414-.08517456 .2919922 .0068359377 .33399964 .059829713 .49598695 .2998352 .49598695 .37782289 .49598695 .41682435 .47099305 .4398346 .43899537 .4398346 .4099884 .4398346 .3919983 .42182923 .3919983 .39982606 .3919983 .36183167 .44400025 .3518219 .44400025 .3308258 .44400025 .3128357 .43598939 .29283143 .41600038 .25582887 .3939972 .21482849 .35899354 .15483094 .2979889 .07182312L.269989 .30682374Z"/>
<path id="font_2_62" d="M.6369934 .31973268V.3857422H.04798889V.31973268H.6369934M.6369934 .12011719V.18611145H.04798889V.12011719H.6369934Z"/>
<path id="font_2_49" d="M.47599793 .3300476C.47599793 .53486636 .3849945 .67578127 .2539978 .67578127 .09298706 .67578127 .023986817 .5128937 .023986817 .3360443 .023986817 .17218018 .07899475-.013671875 .25-.013671875 .41299439-.013671875 .47599793 .15818787 .47599793 .3300476M.37998963 .32505799C.37998963 .12722779 .33499146 .012313843 .25 .012313843 .1639862 .012313843 .11999512 .1262207 .11999512 .32904054 .11999512 .5318756 .16499329 .6497803 .24798584 .6497803 .33599855 .6497803 .37998963 .53286746 .37998963 .32505799Z"/>
<path id="font_3_37" d="M.01399231 .67578127V.6507721C.07798767 .6447754 .09700012 .629776 .09700012 .58380129V.097976688C.09700012 .049987794 .07199097 .026992798 .01399231 .024993897V0H.32299806C.42399598 0 .5139923 .027999878 .57499697 .08097839 .6469879 .14395142 .6899872 .24191284 .6899872 .34487916 .6899872 .55081179 .55400088 .67578127 .32598878 .67578127H.01399231M.25898744 .5977936C.25898744 .6257782 .272995 .6417694 .31199647 .6417694 .3869934 .6417694 .43699647 .60679629 .47499085 .54081729 .5039978 .48983766 .5159912 .41586305 .5159912 .32989503 .5159912 .24191284 .49699403 .15194702 .46598817 .10696411 .43199159 .05899048 .3829956 .034988405 .31698609 .034988405 .27198792 .034988405 .25898744 .054992677 .25898744 .099975589V.5977936Z"/>
<path id="font_3_74" d="M.21499634 .6134033C.21499634 .6564026 .18099976 .69140627 .13899231 .69140627 .09399414 .69140627 .05999756 .6573944 .05999756 .6134033 .05999756 .569397 .09298706 .5363922 .13699341 .5363922 .18099976 .5363922 .21499634 .569397 .21499634 .6134033M.2559967 0V.023986817C.22099304 .0289917 .20799256 .041992189 .20799256 .0849762V.4609375H.01499939V.43693543C.05899048 .42793275 .068984989 .41793824 .068984989 .37294007V.08798218C.068984989 .041992189 .06199646 .034988405 .015991211 .023986817V0H.2559967Z"/>
<path id="font_3_83" d="M.21798706 .4609375H.027999878V.43693543C.070999149 .43093873 .08299255 .41993714 .08299255 .37294007V.083984378C.08299255 .04298401 .07299805 .03199768 .0289917 .023986817V0H.2939911V.023986817C.23298645 .02798462 .22200012 .041992189 .22200012 .10597229V.28295899C.22200012 .34194947 .24798584 .38693238 .2829895 .38693238 .29100038 .38693238 .2999878 .38194276 .31098939 .36393739 .32798768 .33595277 .34498597 .325943 .37098695 .325943 .4079895 .325943 .43399049 .35394288 .43399049 .39393617 .43399049 .4396515 .3999939 .47265626 .35299684 .47265626 .30299378 .47265626 .2649994 .44665528 .21798706 .37864686V.4609375Z"/>
<path id="font_3_70" d="M.40299989 .12625122C.3619995 .077301029 .33099366 .05831909 .28799439 .05831909 .18998719 .05831909 .1749878 .15022278 .16899109 .24511719H.42099C.4169922 .31900025 .39898683 .38182069 .3619995 .42269898 .33299256 .45465089 .2919922 .47265626 .23399353 .47265626 .10899353 .47265626 .024993897 .3728485 .024993897 .22413635 .024993897 .08728027 .10798645-.013671875 .22898865-.013671875 .31399537-.013671875 .36698915 .017318726 .4269867 .11225891L.40299989 .12625122M.2979889 .2821045H.1639862C.1639862 .40176393 .18798828 .4416504 .23399353 .4416504 .2630005 .4416504 .2749939 .42469789 .2889862 .39479066 .2979889 .37583924 .2979889 .35490418 .2979889 .3030548V.2821045Z"/>
<path id="font_3_68" d="M.4119873 .10922241C.375 .06729126 .34599305 .05331421 .30499269 .05331421 .21798706 .05331421 .1659851 .13717652 .1659851 .27293397 .1659851 .38175965 .20098877 .4416504 .25 .4416504 .2919922 .4416504 .2919922 .4186859 .2919922 .37176515 .2919922 .32385255 .31399537 .29888917 .34799195 .29888917 .3899994 .29888917 .41600038 .32385255 .41600038 .36279298 .41600038 .42668153 .34899903 .47265626 .2619934 .47265626 .1289978 .47265626 .024993897 .37077333 .024993897 .22203064 .024993897 .07926941 .11399841-.013671875 .23899842-.013671875 .31900025-.013671875 .375 .016326905 .42999269 .09124756L.4119873 .10922241Z"/>
<path id="font_3_85" d="M.30699159 .11222839C.2869873 .07426453 .2709961 .059280397 .25 .059280397 .22200012 .059280397 .21099854 .07925415 .21099854 .11921692V.41693116H.30599977V.4609375H.21099854V.6299286H.18598938C.12799073 .54592898 .09098816 .49293519 .018997193 .44392396V.41693116H.07199097V.09524536C.07199097 .028274537 .114990238-.01171875 .18399048-.01171875 .25099183-.01171875 .29100038 .01927185 .33198548 .10122681L.30699159 .11222839Z"/>
<path id="font_3_89" d="M.48399354 0V.023986817C.46798707 .0289917 .46099855 .032989503 .45399476 .04399109L.30599977 .2719574 .40699769 .39793397C.42599488 .42092896 .44599916 .43193055 .47698976 .43693543V.4609375H.30899049V.43693543L.32899476 .43493653C.35198976 .43293763 .3600006 .42793275 .3600006 .41293336 .3600006 .39793397 .34899903 .38394166 .32199098 .348938L.28599549 .302948C.28199769 .3089447 .2769928 .31495667 .272995 .3199463 .23999024 .36294557 .21499634 .40493775 .21499634 .41793824 .21499634 .42993165 .22898865 .43592835 .2619934 .43693543V.4609375H.011993408V.43693543C.037994386 .43293763 .04399109 .42793275 .06399536 .39793397L.19198609 .20095825C.1769867 .18296814 .18499756 .19197083 .16999817 .17297364 .15499878 .15397644 .14099121 .13597107 .1269989 .11697388 .070999149 .041992189 .050994874 .025985718 .01399231 .023986817V0H.18299866V.023986817C.14698792 .025985718 .1329956 .032989503 .1329956 .04798889 .1329956 .0639801 .1579895 .10397339 .19699097 .15097046 .20298767 .15797425 .20799256 .16497803 .21299744 .17097473 .22599793 .14997864 .23999024 .12898255 .25498963 .10798645 .2789917 .07298279 .28799439 .055984498 .28799439 .04399109 .28799439 .03199768 .2749939 .025985718 .24299622 .023986817V0H.48399354Z"/>
<path id="font_3_27" d="M.25099183 .38667298C.25099183 .43367005 .21299744 .4716797 .16699219 .4716797 .11898804 .4716797 .08198547 .43467713 .08198547 .3876648 .08198547 .3396759 .11898804 .30267335 .1659851 .30267335 .21299744 .30267335 .25099183 .3396759 .25099183 .38667298M.25099183 .07130432C.25099183 .11729431 .21299744 .15629578 .16699219 .15629578 .11999512 .15629578 .08198547 .11830139 .08198547 .07130432 .08198547 .02330017 .117996219-.0126953129 .1659851-.0126953129 .21299744-.0126953129 .25099183 .024291993 .25099183 .07130432Z"/>
<path id="font_2_2512" d="M.25299073 .37039186 .25 .37239076 .2679901 .44140626 .10998535 .41740418 .11199951 .4013977C.11999512 .4033966 .13198853 .4053955 .13999939 .4053955 .16999817 .4053955 .17098999 .3914032 .17098999 .37239076L.053985597-.09172058C.041992189-.13772583 .034988405-.16772461-.027008057-.17073059L-.030014039-.182724H.20399475L.20698548-.17073059H.19099427C.14099121-.17073059 .12998963-.14971924 .12998963-.12773133 .12998963-.11672974 .13198853-.10572815 .1349945-.09272766L.15899658 .0072784426C.17799378-.0077209474 .19599915-.01171875 .21998596-.01171875 .3639984-.01171875 .47399903 .15731812 .47399903 .2863617 .47399903 .3874054 .44099427 .44140626 .37998963 .44140626 .34498597 .44140626 .30599977 .4203949 .2669983 .38339234L.25299073 .37039186M.21398926 .23834229C.23399353 .3243866 .28599549 .38539125 .33898927 .38539125 .3619995 .38539125 .3899994 .36538697 .3899994 .30236817 .3899994 .19033814 .31498719 .01727295 .21398926 .01727295 .20199585 .01727295 .18199158 .022277832 .16799927 .0382843L.21398926 .23834229Z"/>
<path id="font_2_2493" d="M.7599945 .65289309H.5189972L.5149994 .63690188H.5349884C.57299807 .63690188 .58699038 .6298981 .58699038 .6148987 .58699038 .5939026 .56799319 .56489565 .548996 .54089358L.2689972 .17489624 .2649994 .17590332V.56689456C.2649994 .5998993 .269989 .63690188 .33499146 .63690188H.35398866L.35798646 .65289309H.06399536L.05999756 .63690188C.12098694 .63690188 .15899658 .6128998 .15899658 .5549011V-.016098023H.18299866L.6239929 .559906C.6499939 .5939026 .69099429 .63290408 .7559967 .63690188L.7599945 .65289309Z"/>
<path id="font_2_41" d="M.3039856-.16122437C.1639862-.04423523 .13398743 .06877136 .13398743 .254776 .13398743 .44776917 .16499329 .5407715 .3039856 .6597748L.29499818 .67578127C.1349945 .58078 .04798889 .43676759 .04798889 .25177003 .04798889 .08177185 .13398743-.0872345 .2919922-.17723084L.3039856-.16122437Z"/>
<path id="font_2_45" d="M.08299255-.14086914C.1519928-.10786438 .19499207-.04486084 .19499207 .015136719 .19499207 .06713867 .1599884 .102127078 .114990238 .102127078 .07899475 .102127078 .054992677 .07913208 .054992677 .045135499 .054992677 .011138916 .07598877-.005859375 .11299133-.005859375 .12399292-.0059661867 .13398743-.001953125 .14199829-.001953125 .1499939-.001953125 .1559906-.007965088 .1559906-.014953613 .1559906-.047958375 .12799073-.08496094 .07299805-.1219635L.08299255-.14086914Z"/>
<path id="font_2_42" d="M.0289917 .6597748C.17399597 .54577639 .19898987 .43077088 .19898987 .24377442 .19898987 .04977417 .17098999-.04423523 .0289917-.16122437L.037994386-.17723084C.19699097-.08023071 .2849884 .061767579 .2849884 .24676514 .2849884 .41677857 .19400025 .58377078 .040985109 .67578127L.0289917 .6597748Z"/>
<path id="font_2_2477" d="M.72299197 .65319827H.20298767L.19898987 .63819888H.21798706C.27799989 .63819888 .2939911 .62020877 .2939911 .5991821 .2939911 .59217837 .2919922 .58317568 .2899933 .5751648L.1659851 .07800293C.15699768 .04399109 .13598633 .015991211 .05999756 .015991211H.041992189L.037994386 0H.37998963L.38398744 .015991211H.35198976C.2919922 .015991211 .272995 .03199768 .272995 .056991579 .272995 .06399536 .27598573 .07199097 .2769928 .07800293L.33898927 .33203126H.43598939C.46499635 .33203126 .5059967 .32902528 .5059967 .28201295 .5059967 .26402284 .5039978 .23501587 .5009918 .2210083H.5169983L.57699587 .463089H.5609894C.5399933 .3780365 .49398805 .36802674 .43199159 .36802674H.34899903L.41099549 .61621096H.55799868C.6049957 .61621096 .6649933 .607193 .66799929 .5291443 .66799929 .5151367 .66799929 .5011139 .6669922 .4931183H.68299868L.72299197 .65319827Z"/>
<path id="font_2_1151" d="M.62098696 .22012329V.2861328H.06399536V.22012329H.62098696Z"/>
<path id="font_2_51" d="M.47399903 .13696289 .45999146 .1429596C.4269867 .08699036 .4059906 .07598877 .3639984 .07598877H.12998963L.29499818 .2519226C.38398744 .34588624 .4229889 .42085267 .4229889 .4998169 .4229889 .59877017 .35099793 .67578127 .23799134 .67578127 .114990238 .67578127 .050994874 .5937805 .02999878 .4768219L.050994874 .47183229C.09098816 .5697937 .12599182 .6017761 .19799805 .6017761 .2829895 .6017761 .33699037 .55178835 .33699037 .4608307 .33699037 .37586976 .30099488 .29989625 .20698548 .200943L.0289917 .011993408V0H.41999818L.47399903 .13696289Z"/>
<path id="font_2_53" d="M.47299195 .16699219V.23098755H.36999513V.67578127H.32598878L.011993408 .23098755V.16699219H.2919922V0H.36999513V.16699219H.47299195M.2919922 .23098755H.051986696L.2919922 .573822V.23098755Z"/>
</defs>
<g clip-path="url(#clip_1)">
<path transform="matrix(1,0,0,-1,199.054,194.833)" stroke-width=".79701" stroke-linecap="round" stroke-linejoin="round" fill="none" stroke="#000000" d="M-198.42765 0H0"/>
<path transform="matrix(1,0,0,-1,199.054,194.833)" stroke-width=".79701" stroke-linecap="round" stroke-linejoin="round" fill="none" stroke="#000000" d="M0 0H139.14377"/>
<path transform="matrix(1,0,0,-1,338.19776,194.833)" d="M2.59026 0-1.55415 2.0722 0 0-1.55415-2.0722"/>
<use data-text="&#x1d465;" xlink:href="#font_2_2520" transform="matrix(14.3462,0,0,-14.3462,345.17103,197.93199)"/>
<path transform="matrix(1,0,0,-1,199.054,194.833)" stroke-width=".79701" stroke-linecap="round" stroke-linejoin="round" fill="none" stroke="#000000" d="M0-181.4194V0"/>
<path transform="matrix(1,0,0,-1,199.054,194.833)" stroke-width=".79701" stroke-linecap="round" stroke-linejoin="round" fill="none" stroke="#000000" d="M0 0V178.82913"/>
<path transform="matrix(0,-1,-1,-0,199.054,16.00386)" d="M2.59026 0-1.55415 2.0722 0 0-1.55415-2.0722"/>
<use data-text="&#x1d466;" xlink:href="#font_2_2521" transform="matrix(14.3462,0,0,-14.3462,195.496,6.404999)"/>
<use data-text="&#x1d466;" xlink:href="#font_2_2521" transform="matrix(14.3462,0,0,-14.3462,21.048996,208.715)"/>
<use data-text="=" xlink:href="#font_2_62" transform="matrix(14.3462,0,0,-14.3462,32.13861,208.715)"/>
<use data-text="0" xlink:href="#font_2_49" transform="matrix(14.3462,0,0,-14.3462,45.95401,208.715)"/>
<path transform="matrix(1,0,0,-1,199.054,194.833)" stroke-width=".79701" stroke-linecap="round" stroke-linejoin="round" fill="none" stroke="#000000" d="M68.03217-170.08086V170.08086"/>
<use data-text="D" xlink:href="#font_3_37" transform="matrix(14.3462,0,0,-14.3462,218.094,390.34999)"/>
<use data-text="i" xlink:href="#font_3_74" transform="matrix(14.3462,0,0,-14.3462,228.45197,390.34999)"/>
<use data-text="r" xlink:href="#font_3_83" transform="matrix(14.3462,0,0,-14.3462,232.44022,390.34999)"/>
<use data-text="e" xlink:href="#font_3_70" transform="matrix(14.3462,0,0,-14.3462,238.68082,390.34999)"/>
<use data-text="c" xlink:href="#font_3_68" transform="matrix(14.3462,0,0,-14.3462,245.05054,390.34999)"/>
<use data-text="t" xlink:href="#font_3_85" transform="matrix(14.3462,0,0,-14.3462,251.42026,390.34999)"/>
<use data-text="r" xlink:href="#font_3_83" transform="matrix(14.3462,0,0,-14.3462,256.19755,390.34999)"/>
<use data-text="i" xlink:href="#font_3_74" transform="matrix(14.3462,0,0,-14.3462,262.65336,390.34999)"/>
<use data-text="x" xlink:href="#font_3_89" transform="matrix(14.3462,0,0,-14.3462,266.6416,390.34999)"/>
<use data-text=":" xlink:href="#font_3_27" transform="matrix(14.3462,0,0,-14.3462,273.8147,390.34999)"/>
<use data-text="&#x1d465;" xlink:href="#font_2_2520" transform="matrix(14.3462,0,0,-14.3462,283.374,390.349)"/>
<use data-text="=" xlink:href="#font_2_62" transform="matrix(14.3462,0,0,-14.3462,295.2383,390.349)"/>
<use data-text="&#x1d45d;" xlink:href="#font_2_2512" transform="matrix(14.3462,0,0,-14.3462,309.0537,390.349)"/>
<path transform="matrix(1,0,0,-1,199.054,194.833)" stroke-width="1.59404" stroke-linecap="round" stroke-linejoin="round" fill="none" stroke="#ff0000" d="M-92.59859-158.74228C-92.59859-158.74228-81.73595-149.18506-77.8101-145.51439-73.88425-141.84372-67.87254-135.95722-64.30367-132.28655-60.73479-128.61588-55.2995-122.72934-52.08794-119.05867-48.87636-115.388-44.01178-109.50145-41.15683-105.83078-38.30186-102.16011-34.00934-96.27357-31.51123-92.6029-29.01312-88.93224-25.29329-83.0457-23.152-79.37503-21.01071-75.70436-17.86284-69.81781-16.07828-66.14714-14.29372-62.47647-11.71765-56.58994-10.29005-52.91927-8.86247-49.2486-6.85982-43.36206-5.78906-39.69139-4.71829-36.02072-3.28664-30.13417-2.57271-26.4635-1.8588-22.79283-1.00052-16.9063-.64359-13.23563-.28664-9.56496-.00008-3.67845 0-.00778 .00008 3.66287-.28615 9.5494-.64273 13.22006-.99931 16.89073-1.8567 22.77727-2.57013 26.44794-3.28355 30.1186-4.71446 36.00514-5.78474 39.67581-6.85503 43.34648-8.8569 49.23303-10.28401 52.9037-11.7111 56.57437-14.28642 62.4609-16.0705 66.13158-17.85457 69.80225-21.00156 75.68878-23.14249 79.35945-25.2834 83.03012-29.00299 88.91667-31.50087 92.58734-33.99873 96.25801-38.29099 102.14455-41.14557 105.81522-44.00017 109.48589-48.86362 115.37242-52.07495 119.04309-55.28627 122.71376-60.72226 128.60028-64.29068 132.27095-67.8591 135.94162-73.86841 141.82816-77.79366 145.49883-81.7189 149.1695-92.58128 158.7267-92.58128 158.7267"/>
<path transform="matrix(1,0,0,-1,199.054,194.833)" stroke-width=".79701" stroke-linecap="round" stroke-dasharray="2.98883,2.98883" stroke-linejoin="round" fill="none" stroke="#000000" d="M-68.03217-136.06433V136.06433"/>
<path transform="matrix(1,0,0,-1,199.054,194.833)" stroke-width=".79701" stroke-linecap="round" stroke-linejoin="round" fill="none" stroke="#000000" d="M-59.52844 0V8.50368H-68.03217"/>
<path transform="matrix(1,0,0,-1,199.054,194.833)" d="M2.81807 0C2.81807 1.55638 1.55638 2.81807 0 2.81807-1.55638 2.81807-2.81807 1.55638-2.81807 0-2.81807-1.55638-1.55638-2.81807 0-2.81807 1.55638-2.81807 2.81807-1.55638 2.81807 0ZM0 0"/>
<use data-text="&#x1d449;" xlink:href="#font_2_2493" transform="matrix(14.3462,0,0,-14.3462,203.238,190.42)"/>
<use data-text="(" xlink:href="#font_2_41" transform="matrix(14.3462,0,0,-14.3462,203.238,208.715)"/>
<use data-text="0" xlink:href="#font_2_49" transform="matrix(14.3462,0,0,-14.3462,208.01529,208.715)"/>
<use data-text="," xlink:href="#font_2_45" transform="matrix(14.3462,0,0,-14.3462,215.18839,208.715)"/>
<use data-text="0" xlink:href="#font_2_49" transform="matrix(14.3462,0,0,-14.3462,221.1564,208.715)"/>
<use data-text=")" xlink:href="#font_2_42" transform="matrix(14.3462,0,0,-14.3462,228.3295,208.715)"/>
<path transform="matrix(1,0,0,-1,199.054,194.833)" d="M-65.21408 0C-65.21408 1.55638-66.47577 2.81807-68.03217 2.81807-69.58855 2.81807-70.85023 1.55638-70.85023 0-70.85023-1.55638-69.58855-2.81807-68.03217-2.81807-66.47577-2.81807-65.21408-1.55638-65.21408 0ZM-68.03217 0"/>
<use data-text="&#x1d439;" xlink:href="#font_2_2477" transform="matrix(14.3462,0,0,-14.3462,115.892,190.64899)"/>
<use data-text="(" xlink:href="#font_2_41" transform="matrix(14.3462,0,0,-14.3462,85.582,208.715)"/>
<use data-text="&#x2212;" xlink:href="#font_2_1151" transform="matrix(14.3462,0,0,-14.3462,90.35928,208.715)"/>
<use data-text="&#x1d45d;" xlink:href="#font_2_2512" transform="matrix(14.3462,0,0,-14.3462,100.18642,208.715)"/>
<use data-text="," xlink:href="#font_2_45" transform="matrix(14.3462,0,0,-14.3462,107.201709,208.715)"/>
<use data-text="0" xlink:href="#font_2_49" transform="matrix(14.3462,0,0,-14.3462,113.16972,208.715)"/>
<use data-text=")" xlink:href="#font_2_42" transform="matrix(14.3462,0,0,-14.3462,120.34282,208.715)"/>
<path transform="matrix(1,0,0,-1,199.054,194.833)" stroke-width=".79701" stroke-linecap="round" stroke-linejoin="round" fill="none" stroke="#000000" d="M-65.21408 136.06433C-65.21408 137.62073-66.47577 138.88242-68.03217 138.88242-69.58855 138.88242-70.85023 137.62073-70.85023 136.06433-70.85023 134.50794-69.58855 133.24625-68.03217 133.24625-66.47577 133.24625-65.21408 134.50794-65.21408 136.06433ZM-68.03217 136.06433"/>
<use data-text="(" xlink:href="#font_2_41" transform="matrix(14.3462,0,0,-14.3462,76.289,62.304994)"/>
<use data-text="&#x2212;" xlink:href="#font_2_1151" transform="matrix(14.3462,0,0,-14.3462,81.066287,62.304994)"/>
<use data-text="&#x1d45d;" xlink:href="#font_2_2512" transform="matrix(14.3462,0,0,-14.3462,90.89342,62.304994)"/>
<use data-text="," xlink:href="#font_2_45" transform="matrix(14.3462,0,0,-14.3462,97.90871,62.304994)"/>
<use data-text="2" xlink:href="#font_2_51" transform="matrix(14.3462,0,0,-14.3462,103.876728,62.304994)"/>
<use data-text="&#x1d45d;" xlink:href="#font_2_2512" transform="matrix(14.3462,0,0,-14.3462,111.04982,62.304994)"/>
<use data-text=")" xlink:href="#font_2_42" transform="matrix(14.3462,0,0,-14.3462,118.06511,62.304994)"/>
<path transform="matrix(1,0,0,-1,199.054,194.833)" stroke-width=".79701" stroke-linecap="round" stroke-linejoin="round" fill="none" stroke="#000000" d="M-65.21408-136.06433C-65.21408-134.50794-66.47577-133.24625-68.03217-133.24625-69.58855-133.24625-70.85023-134.50794-70.85023-136.06433-70.85023-137.62073-69.58855-138.88242-68.03217-138.88242-66.47577-138.88242-65.21408-137.62073-65.21408-136.06433ZM-68.03217-136.06433"/>
<use data-text="(" xlink:href="#font_2_41" transform="matrix(14.3462,0,0,-14.3462,66.462009,334.434)"/>
<use data-text="&#x2212;" xlink:href="#font_2_1151" transform="matrix(14.3462,0,0,-14.3462,71.23929,334.434)"/>
<use data-text="&#x1d45d;" xlink:href="#font_2_2512" transform="matrix(14.3462,0,0,-14.3462,81.06642,334.434)"/>
<use data-text="," xlink:href="#font_2_45" transform="matrix(14.3462,0,0,-14.3462,88.08171,334.434)"/>
<use data-text="&#x2212;" xlink:href="#font_2_1151" transform="matrix(14.3462,0,0,-14.3462,94.04973,334.434)"/>
<use data-text="2" xlink:href="#font_2_51" transform="matrix(14.3462,0,0,-14.3462,103.87688,334.434)"/>
<use data-text="&#x1d45d;" xlink:href="#font_2_2512" transform="matrix(14.3462,0,0,-14.3462,111.04997,334.434)"/>
<use data-text=")" xlink:href="#font_2_42" transform="matrix(14.3462,0,0,-14.3462,118.06526,334.434)"/>
<use data-text="&#x1d466;" xlink:href="#font_2_2521" transform="matrix(14.3462,0,0,-14.3462,47.53,29.675995)"/>
<use data-text="2" xlink:href="#font_2_51" transform="matrix(9.9626,0,0,-9.9626,54.645998,23.93599)"/>
<use data-text="=" xlink:href="#font_2_62" transform="matrix(14.3462,0,0,-14.3462,64.11101,29.674988)"/>
<use data-text="&#x2212;" xlink:href="#font_2_1151" transform="matrix(14.3462,0,0,-14.3462,77.91206,29.674988)"/>
<use data-text="4" xlink:href="#font_2_53" transform="matrix(14.3462,0,0,-14.3462,87.73921,29.674988)"/>
<use data-text="&#x1d45d;" xlink:href="#font_2_2512" transform="matrix(14.3462,0,0,-14.3462,94.91231,29.674988)"/>
<use data-text="&#x1d465;" xlink:href="#font_2_2520" transform="matrix(14.3462,0,0,-14.3462,101.9276,29.674988)"/>
</g>
</svg>
