<svg xmlns="http://www.w3.org/2000/svg" xmlns:xlink="http://www.w3.org/1999/xlink" xmlns:inkscape="http://www.inkscape.org/namespaces/inkscape" version="1.1" width="291" height="247" viewBox="0 0 291 247">
<defs>
<clipPath id="clip_1">
<path transform="matrix(1,0,0,-1,-152,766)" d="M0 0H595.28V841.89H0Z"/>
</clipPath>
<path id="font_2_2520" d="M.30499269 .28834535 .2849884 .3433838C.272995 .3764038 .2539978 .41740418 .20999146 .44140626L.07798767 .4084015 .08099365 .39039613C.09098816 .39439393 .10598755 .39639283 .11898804 .39639283 .17399597 .39639283 .19999695 .35539247 .21699524 .3073578L.25 .21530152 .18499756 .11424255C.15299988 .065216068 .1269989 .0552063 .114990238 .0552063 .08999634 .0552063 .09399414 .07521057 .067993167 .07521057 .042999269 .07521057 .02999878 .05419922 .02999878 .038208009 .02999878 .016204834 .04598999-.0087890629 .08198547-.0087890629 .13798523-.0087890629 .16699219 .034210206 .19898987 .083221439L.2619934 .18127442 .3019867 .06820679C.31498719 .032196046 .33399964-.0087890629 .375-.0087890629 .43299867-.0087890629 .47799684 .08721924 .48999024 .10223389L.47599793 .11224365C.45498658 .06921387 .43099977 .0552063 .4149933 .0552063 .36999513 .0552063 .34700013 .19029236 .31698609 .25231935L.37199403 .33737184C.38598634 .35939027 .39698792 .37539674 .4269867 .37539674 .44400025 .37539674 .44898988 .36639405 .47099305 .36639405 .49699403 .36639405 .5099945 .3894043 .5099945 .4084015 .5099945 .42939759 .49299623 .44140626 .46099855 .44140626 .41099549 .44140626 .37599183 .3973999 .34999085 .35739137L.30499269 .28834535Z"/>
<path id="font_2_2521" d="M.269989 .30682374C.26098634 .38082887 .2539978 .40682984 .23098755 .4398346L.08099365 .41482545 .08299255 .39883424C.09199524 .39982606 .10798645 .40283204 .11898804 .40283204 .1749878 .40283204 .18399048 .34283448 .18899536 .2978363L.22698975-.016174317C.20098877-.056167604 .14399719-.11816406 .1269989-.11816406 .11099243-.11816406 .11299133-.08717346 .069992069-.08717346 .056991579-.08717346 .02999878-.09817505 .02999878-.12817383 .02999878-.1521759 .04899597-.1831665 .085998538-.1831665 .1539917-.1831665 .21899414-.08517456 .2919922 .0068359377 .33399964 .059829713 .49598695 .2998352 .49598695 .37782289 .49598695 .41682435 .47099305 .4398346 .43899537 .4398346 .4099884 .4398346 .3919983 .42182923 .3919983 .39982606 .3919983 .36183167 .44400025 .3518219 .44400025 .3308258 .44400025 .3128357 .43598939 .29283143 .41600038 .25582887 .3939972 .21482849 .35899354 .15483094 .2979889 .07182312L.269989 .30682374Z"/>
<path id="font_2_2486" d="M.71199038 .42004396C.71199038 .54597476 .6299896 .6689453 .46299745 .6689453 .20799256 .6689453 .049987794 .42504884 .049987794 .22215271 .049987794 .08522034 .1539917-.0107421879 .30299378-.0107421879 .55599978-.0107421879 .71199038 .22215271 .71199038 .42004396M.59599307 .44303895C.59599307 .30210877 .522995 .027252198 .31098939 .027252198 .23298645 .027252198 .17098999 .080215457 .17098999 .1771698 .17098999 .3190918 .22299195 .63194277 .45498658 .63194277 .55599978 .63194277 .59599307 .54997256 .59599307 .44303895Z"/>
<path id="font_2_3866" d="M.1289978 .0289917C.18099976 .125 .2869873 .33599855 .30499269 .3849945 .30899049 .394989 .31298829 .41600038 .31298829 .4249878 .31298829 .46699525 .28599549 .4850006 .2559967 .4850006 .22999573 .4850006 .20498657 .46998597 .19099427 .4269867 .17599488 .3769989 .12199402 .14399719 .099990848 .038986207L.1289978 .0289917Z"/>
<path id="font_2_2487" d="M.20098877 .65319827 .19699097 .63720706H.21598816C.2769928 .63720706 .2939911 .62120059 .2939911 .6001892 .2939911 .5921936 .2919922 .5831909 .2899933 .57518008L.16499329 .07800293C.1559906 .04399109 .13598633 .015991211 .05899048 .015991211H.041992189L.037994386 0H.3789978L.3829956 .015991211H.35099793C.2919922 .015991211 .27398683 .0309906 .27398683 .054992677 .27398683 .06300354 .2749939 .070007327 .2769928 .07800293L.33299256 .30104066C.33699037 .30004884 .33999635 .29904176 .34498597 .29904176 .36898805 .29504396 .3909912 .29405213 .4189911 .29405213 .6230011 .29405213 .70399478 .39508058 .70399478 .49313355 .70399478 .56718447 .6419983 .65319827 .47200013 .65319827H.20098877M.41099549 .61320498C.42799378 .61520388 .44299317 .61621096 .45999146 .61621096 .5549927 .61621096 .58499148 .5631714 .58499148 .5031433 .58499148 .40109254 .5049896 .3310547 .40299989 .3310547 .3829956 .3310547 .35899354 .3350525 .34298707 .3390503L.41099549 .61320498Z"/>
<path id="font_2_41" d="M.3039856-.16122437C.1639862-.04423523 .13398743 .06877136 .13398743 .254776 .13398743 .44776917 .16499329 .5407715 .3039856 .6597748L.29499818 .67578127C.1349945 .58078 .04798889 .43676759 .04798889 .25177003 .04798889 .08177185 .13398743-.0872345 .2919922-.17723084L.3039856-.16122437Z"/>
<path id="font_2_45" d="M.08299255-.14086914C.1519928-.10786438 .19499207-.04486084 .19499207 .015136719 .19499207 .06713867 .1599884 .102127078 .114990238 .102127078 .07899475 .102127078 .054992677 .07913208 .054992677 .045135499 .054992677 .011138916 .07598877-.005859375 .11299133-.005859375 .12399292-.0059661867 .13398743-.001953125 .14199829-.001953125 .1499939-.001953125 .1559906-.007965088 .1559906-.014953613 .1559906-.047958375 .12799073-.08496094 .07299805-.1219635L.08299255-.14086914Z"/>
<path id="font_2_42" d="M.0289917 .6597748C.17399597 .54577639 .19898987 .43077088 .19898987 .24377442 .19898987 .04977417 .17098999-.04423523 .0289917-.16122437L.037994386-.17723084C.19699097-.08023071 .2849884 .061767579 .2849884 .24676514 .2849884 .41677857 .19400025 .58377078 .040985109 .67578127L.0289917 .6597748Z"/>
<path id="font_2_965" d="M.5329895 .11717224C.48399354 .05921936 .46099855 .050231935 .44400025 .050231935 .43499757 .050231935 .43099977 .05722046 .43099977 .067214969 .43099977 .081207279 .43699647 .10517883 .44198609 .122177127L.49299623 .3010254C.5009918 .3280182 .5039978 .35198976 .5039978 .37197877 .5039978 .4299469 .47599793 .45996095 .41600038 .45996095 .35699464 .45996095 .2809906 .4089508 .19699097 .24607849H.19599915L.31599427 .680954 .30799867 .6829529C.269989 .6679535 .23599243 .6559601 .1519928 .63894656V.62394717C.18199158 .62394717 .20899964 .62194827 .20899964 .6019592 .20899964 .59495547 .20799256 .58496096 .20498657 .5729523L.04699707 0H.1309967C.1749878 .15597534 .19699097 .2079773 .24099732 .27296449 .29599 .35395814 .34899903 .40596009 .3809967 .40596009 .4099884 .40596009 .41799928 .3879547 .41799928 .36195375 .41799928 .34295655 .41299439 .31495667 .40899659 .29995729L.36898805 .15597534C.35699464 .113220218 .34498597 .066223148 .34498597 .04623413 .34498597 .009231567 .36499024-.009765625 .397995-.009765625 .43499757-.009765625 .4850006 .017227173 .54499819 .10623169L.5329895 .11717224Z"/>
<path id="font_2_2507" d="M.5269928 .42797853H.33299256L.32899476 .41596986H.34098817C.35099793 .41596986 .36698915 .40898133 .36698915 .39697267 .36698915 .38397218 .35699464 .37097169 .34599305 .36097718L.1789856 .21199036 .2919922 .66796877 .13398743 .6429596 .13699341 .6289673C.14498902 .6309662 .15499878 .6309662 .1639862 .6309662 .18598938 .6309662 .19599915 .6199646 .19599915 .608963 .19599915 .6019745 .19499207 .5949707 .19299317 .588974L.04499817 0H.12098694L.1659851 .1659851 .22200012 .21498108 .2849884 .067993167C.29599 .042251588 .31698609-.0107421879 .36299134-.0107421879 .43099977-.0107421879 .47799684 .09625244 .48999024 .117248538L.47499085 .12825012C.45298768 .09825134 .43099977 .055252077 .40098573 .055252077 .375 .055252077 .36299134 .07925415 .34799195 .11425781L.28399659 .2662506 .3899994 .35824586C.42799378 .3912506 .45599366 .40925599 .522995 .4162445L.5269928 .42797853Z"/>
</defs>
<g clip-path="url(#clip_1)">
<path transform="matrix(1,0,0,-1,52.287996,194.833)" stroke-width=".79701" stroke-linecap="round" stroke-linejoin="round" fill="none" stroke="#000000" d="M-22.67752 0H0"/>
<path transform="matrix(1,0,0,-1,52.287996,194.833)" stroke-width=".79701" stroke-linecap="round" stroke-linejoin="round" fill="none" stroke="#000000" d="M0 0H224.18506"/>
<path transform="matrix(1,0,0,-1,276.47306,194.833)" d="M2.59026 0-1.55415 2.0722 0 0-1.55415-2.0722"/>
<use data-text="&#x1d465;" xlink:href="#font_2_2520" transform="matrix(14.3462,0,0,-14.3462,283.447,197.93199)"/>
<path transform="matrix(1,0,0,-1,52.287996,194.833)" stroke-width=".79701" stroke-linecap="round" stroke-linejoin="round" fill="none" stroke="#000000" d="M0-22.67752V0"/>
<path transform="matrix(1,0,0,-1,52.287996,194.833)" stroke-width=".79701" stroke-linecap="round" stroke-linejoin="round" fill="none" stroke="#000000" d="M0 0V178.83"/>
<path transform="matrix(0,-1,-1,-0,52.287996,16.00299)" d="M2.59026 0-1.55415 2.0722 0 0-1.55415-2.0722"/>
<use data-text="&#x1d466;" xlink:href="#font_2_2521" transform="matrix(14.3462,0,0,-14.3462,48.729997,6.4039919)"/>
<use data-text="&#x1d442;" xlink:href="#font_2_2486" transform="matrix(14.3462,0,0,-14.3462,35.322999,210.607)"/>
<path transform="matrix(1,0,0,-1,52.287996,194.833)" stroke-width=".79701" stroke-linecap="round" stroke-linejoin="round" fill="none" stroke="#0000ff" d="M68.03616 45.35742 201.50759 45.35509"/>
<path transform="matrix(.99998,.00002,.00002,-.99998,253.79558,149.4779)" d="M2.59026 0-1.55415 2.0722 0 0-1.55415-2.0722" fill="#0000ff"/>
<use data-text="&#x1d465;" xlink:href="#font_2_2520" transform="matrix(14.3462,0,0,-14.3462,260.76899,154.69899)" fill="#0000ff"/>
<use data-text="&#x2032;" xlink:href="#font_2_3866" transform="matrix(9.9626,0,0,-9.9626,268.66,148.95999)" fill="#0000ff"/>
<path transform="matrix(1,0,0,-1,52.287996,194.833)" stroke-width=".79701" stroke-linecap="round" stroke-linejoin="round" fill="none" stroke="#0000ff" d="M68.03616 45.35742 68.03262 156.15251"/>
<path transform="matrix(-.00002,-.99998,-.99998,.00002,120.32063,38.68048)" d="M2.59026 0-1.55415 2.0722 0 0-1.55415-2.0722" fill="#0000ff"/>
<use data-text="&#x1d466;" xlink:href="#font_2_2521" transform="matrix(14.3462,0,0,-14.3462,114.45599,29.081986)" fill="#0000ff"/>
<use data-text="&#x2032;" xlink:href="#font_2_3866" transform="matrix(9.9626,0,0,-9.9626,121.57199,23.342988)" fill="#0000ff"/>
<use data-text="&#x1d442;" xlink:href="#font_2_2486" transform="matrix(14.3462,0,0,-14.3462,98.745998,166.22299)"/>
<use data-text="&#x2032;" xlink:href="#font_2_3866" transform="matrix(9.9626,0,0,-9.9626,109.534999,160.484)"/>
<path transform="matrix(1,0,0,-1,52.287996,194.833)" stroke-width=".79701" stroke-linecap="round" stroke-linejoin="round" fill="none" stroke="#000000" d="M172.90851 136.07234C172.90851 137.62874 171.64682 138.89043 170.09043 138.89043 168.53404 138.89043 167.27236 137.62874 167.27236 136.07234 167.27236 134.51595 168.53404 133.25426 170.09043 133.25426 171.64682 133.25426 172.90851 134.51595 172.90851 136.07234ZM170.09043 136.07234"/>
<use data-text="&#x1d443;" xlink:href="#font_2_2487" transform="matrix(14.3462,0,0,-14.3462,228.555,49.959)"/>
<use data-text="(" xlink:href="#font_2_41" transform="matrix(14.3462,0,0,-14.3462,239.22856,49.959)"/>
<use data-text="&#x1d465;" xlink:href="#font_2_2520" transform="matrix(14.3462,0,0,-14.3462,244.00585,49.959)"/>
<use data-text="," xlink:href="#font_2_45" transform="matrix(14.3462,0,0,-14.3462,251.89626,49.959)"/>
<use data-text="&#x1d466;" xlink:href="#font_2_2521" transform="matrix(14.3462,0,0,-14.3462,257.86427,49.959)"/>
<use data-text=")" xlink:href="#font_2_42" transform="matrix(14.3462,0,0,-14.3462,264.97999,49.959)"/>
<path transform="matrix(1,0,0,-1,52.287996,194.833)" stroke-width=".79701" stroke-linecap="round" stroke-dasharray="2.98883,2.98883" stroke-linejoin="round" fill="none" stroke="#000000" d="M68.0326 0 68.03616 45.35742"/>
<path transform="matrix(1,0,0,-1,52.287996,194.833)" stroke-width=".79701" stroke-linecap="round" stroke-dasharray="2.98883,2.98883" stroke-linejoin="round" fill="none" stroke="#000000" d="M0 45.35506 68.03616 45.35742"/>
<path transform="matrix(1,0,0,-1,52.287996,194.833)" stroke-width=".79701" stroke-linecap="round" stroke-dasharray="2.98883,2.98883" stroke-linejoin="round" fill="none" stroke="#000000" d="M170.09043 136.07234 170.0815 0"/>
<path transform="matrix(1,0,0,-1,52.287996,194.833)" stroke-width=".79701" stroke-linecap="round" stroke-dasharray="2.98883,2.98883" stroke-linejoin="round" fill="none" stroke="#000000" d="M170.09043 136.07234 0 136.0652"/>
<path transform="matrix(1,0,0,-1,52.287996,194.833)" stroke-width=".79701" stroke-linecap="round" stroke-linejoin="round" fill="none" stroke="#000000" d="M2.59026-18.14206H65.44232"/>
<path transform="matrix(-1,-0,0,1,54.878255,212.97505)" d="M2.59026 0-1.55415 2.0722 0 0-1.55415-2.0722"/>
<path transform="matrix(1,0,0,-1,117.730319,212.97505)" d="M2.59026 0-1.55415 2.0722 0 0-1.55415-2.0722"/>
<use data-text="&#x210e;" xlink:href="#font_2_965" transform="matrix(14.3462,0,0,-14.3462,82.16499,225.773)"/>
<path transform="matrix(1,0,0,-1,52.287996,194.833)" stroke-width=".79701" stroke-linecap="round" stroke-linejoin="round" fill="none" stroke="#000000" d="M70.62285-18.14206H167.49123"/>
<path transform="matrix(-1,-0,0,1,122.91084,212.97505)" d="M2.59026 0-1.55415 2.0722 0 0-1.55415-2.0722"/>
<path transform="matrix(1,0,0,-1,219.77922,212.97505)" d="M2.59026 0-1.55415 2.0722 0 0-1.55415-2.0722"/>
<use data-text="&#x1d465;" xlink:href="#font_2_2520" transform="matrix(14.3462,0,0,-14.3462,165.09299,226.16599)"/>
<use data-text="&#x2032;" xlink:href="#font_2_3866" transform="matrix(9.9626,0,0,-9.9626,172.98401,220.427)"/>
<path transform="matrix(1,0,0,-1,52.287996,194.833)" stroke-width=".79701" stroke-linecap="round" stroke-linejoin="round" fill="none" stroke="#000000" d="M2.59026-40.8196H167.49123"/>
<path transform="matrix(-1,-0,0,1,54.878255,235.65259)" d="M2.59026 0-1.55415 2.0722 0 0-1.55415-2.0722"/>
<path transform="matrix(1,0,0,-1,219.77922,235.65259)" d="M2.59026 0-1.55415 2.0722 0 0-1.55415-2.0722"/>
<use data-text="&#x1d465;" xlink:href="#font_2_2520" transform="matrix(14.3462,0,0,-14.3462,133.383,246.72199)"/>
<path transform="matrix(1,0,0,-1,52.287996,194.833)" stroke-width=".79701" stroke-linecap="round" stroke-dasharray="2.98883,2.98883" stroke-linejoin="round" fill="none" stroke="#000000" d="M0 0V-47.62294"/>
<path transform="matrix(1,0,0,-1,52.287996,194.833)" stroke-width=".79701" stroke-linecap="round" stroke-dasharray="2.98883,2.98883" stroke-linejoin="round" fill="none" stroke="#000000" d="M68.0326 0V-24.9454"/>
<path transform="matrix(1,0,0,-1,52.287996,194.833)" stroke-width=".79701" stroke-linecap="round" stroke-dasharray="2.98883,2.98883" stroke-linejoin="round" fill="none" stroke="#000000" d="M170.0815 0V-47.62294"/>
<path transform="matrix(1,0,0,-1,52.287996,194.833)" stroke-width=".79701" stroke-linecap="round" stroke-linejoin="round" fill="none" stroke="#000000" d="M-18.14206 2.59026V42.76479"/>
<path transform="matrix(0,1,1,0,34.145936,192.24274)" d="M2.59026 0-1.55415 2.0722 0 0-1.55415-2.0722"/>
<path transform="matrix(0,-1,-1,-0,34.145936,152.0682)" d="M2.59026 0-1.55415 2.0722 0 0-1.55415-2.0722"/>
<use data-text="&#x1d458;" xlink:href="#font_2_2507" transform="matrix(14.3462,0,0,-14.3462,22.287995,176.868)"/>
<path transform="matrix(1,0,0,-1,52.287996,194.833)" stroke-width=".79701" stroke-linecap="round" stroke-linejoin="round" fill="none" stroke="#000000" d="M-18.14206 47.94531V133.47493"/>
<path transform="matrix(0,1,1,0,34.145936,146.88768)" d="M2.59026 0-1.55415 2.0722 0 0-1.55415-2.0722"/>
<path transform="matrix(0,-1,-1,-0,34.145936,61.358064)" d="M2.59026 0-1.55415 2.0722 0 0-1.55415-2.0722"/>
<use data-text="&#x1d466;" xlink:href="#font_2_2521" transform="matrix(14.3462,0,0,-14.3462,20.310997,108.09599)"/>
<use data-text="&#x2032;" xlink:href="#font_2_3866" transform="matrix(9.9626,0,0,-9.9626,27.426995,102.356998)"/>
<path transform="matrix(1,0,0,-1,52.287996,194.833)" stroke-width=".79701" stroke-linecap="round" stroke-linejoin="round" fill="none" stroke="#000000" d="M-40.8196 2.59026V133.47493"/>
<path transform="matrix(0,1,1,0,11.468395,192.24274)" d="M2.59026 0-1.55415 2.0722 0 0-1.55415-2.0722"/>
<path transform="matrix(0,-1,-1,-0,11.468395,61.358064)" d="M2.59026 0-1.55415 2.0722 0 0-1.55415-2.0722"/>
<use data-text="&#x1d466;" xlink:href="#font_2_2521" transform="matrix(14.3462,0,0,-14.3462,-.05999756,128.64398)"/>
<path transform="matrix(1,0,0,-1,52.287996,194.833)" stroke-width=".79701" stroke-linecap="round" stroke-dasharray="2.98883,2.98883" stroke-linejoin="round" fill="none" stroke="#000000" d="M0 0H-47.62294"/>
<path transform="matrix(1,0,0,-1,52.287996,194.833)" stroke-width=".79701" stroke-linecap="round" stroke-dasharray="2.98883,2.98883" stroke-linejoin="round" fill="none" stroke="#000000" d="M0 45.35506H-24.9454"/>
<path transform="matrix(1,0,0,-1,52.287996,194.833)" stroke-width=".79701" stroke-linecap="round" stroke-dasharray="2.98883,2.98883" stroke-linejoin="round" fill="none" stroke="#000000" d="M0 136.0652H-47.62294"/>
</g>
</svg>
