<svg xmlns="http://www.w3.org/2000/svg" xmlns:xlink="http://www.w3.org/1999/xlink" xmlns:inkscape="http://www.inkscape.org/namespaces/inkscape" version="1.1" width="518" height="388" viewBox="0 0 518 388">
<defs>
<clipPath id="clip_1">
<path transform="matrix(1,0,0,-1,-71,753)" d="M0 0H595.28V841.89H0Z"/>
</clipPath>
<path id="font_2_2520" d="M.30499269 .28834535 .2849884 .3433838C.272995 .3764038 .2539978 .41740418 .20999146 .44140626L.07798767 .4084015 .08099365 .39039613C.09098816 .39439393 .10598755 .39639283 .11898804 .39639283 .17399597 .39639283 .19999695 .35539247 .21699524 .3073578L.25 .21530152 .18499756 .11424255C.15299988 .065216068 .1269989 .0552063 .114990238 .0552063 .08999634 .0552063 .09399414 .07521057 .067993167 .07521057 .042999269 .07521057 .02999878 .05419922 .02999878 .038208009 .02999878 .016204834 .04598999-.0087890629 .08198547-.0087890629 .13798523-.0087890629 .16699219 .034210206 .19898987 .083221439L.2619934 .18127442 .3019867 .06820679C.31498719 .032196046 .33399964-.0087890629 .375-.0087890629 .43299867-.0087890629 .47799684 .08721924 .48999024 .10223389L.47599793 .11224365C.45498658 .06921387 .43099977 .0552063 .4149933 .0552063 .36999513 .0552063 .34700013 .19029236 .31698609 .25231935L.37199403 .33737184C.38598634 .35939027 .39698792 .37539674 .4269867 .37539674 .44400025 .37539674 .44898988 .36639405 .47099305 .36639405 .49699403 .36639405 .5099945 .3894043 .5099945 .4084015 .5099945 .42939759 .49299623 .44140626 .46099855 .44140626 .41099549 .44140626 .37599183 .3973999 .34999085 .35739137L.30499269 .28834535Z"/>
<path id="font_2_2521" d="M.269989 .30682374C.26098634 .38082887 .2539978 .40682984 .23098755 .4398346L.08099365 .41482545 .08299255 .39883424C.09199524 .39982606 .10798645 .40283204 .11898804 .40283204 .1749878 .40283204 .18399048 .34283448 .18899536 .2978363L.22698975-.016174317C.20098877-.056167604 .14399719-.11816406 .1269989-.11816406 .11099243-.11816406 .11299133-.08717346 .069992069-.08717346 .056991579-.08717346 .02999878-.09817505 .02999878-.12817383 .02999878-.1521759 .04899597-.1831665 .085998538-.1831665 .1539917-.1831665 .21899414-.08517456 .2919922 .0068359377 .33399964 .059829713 .49598695 .2998352 .49598695 .37782289 .49598695 .41682435 .47099305 .4398346 .43899537 .4398346 .4099884 .4398346 .3919983 .42182923 .3919983 .39982606 .3919983 .36183167 .44400025 .3518219 .44400025 .3308258 .44400025 .3128357 .43598939 .29283143 .41600038 .25582887 .3939972 .21482849 .35899354 .15483094 .2979889 .07182312L.269989 .30682374Z"/>
<path id="font_3_48" d="M.6879883 .33103944C.6879883 .5288696 .5569916 .67578127 .36099244 .67578127 .1659851 .67578127 .033996583 .53686526 .033996583 .3340454 .033996583 .1262207 .16699219-.013671875 .36099244-.013671875 .5529938-.013671875 .6879883 .12522888 .6879883 .33103944M.57398989 .33703614C.57398989 .21714783 .54599 .12322998 .4909973 .07028198 .45599366 .03730774 .4119873 .022323609 .3619995 .022323609 .31599427 .022323609 .27198792 .03630066 .23799134 .067276 .1769867 .12322998 .147995 .21315003 .147995 .3320465 .147995 .42695619 .17399597 .52388 .21699524 .5728302 .2559967 .6177826 .30599977 .6397705 .3600006 .6397705 .40699769 .6397705 .44699098 .6227875 .48298646 .59280398 .5399933 .54486086 .57398989 .450943 .57398989 .33703614Z"/>
<path id="font_2_52" d="M.06098938 .50987246C.101989749 .58380129 .147995 .61576846 .20999146 .61576846 .27598573 .61576846 .31799317 .58180239 .31799317 .51387026 .31799317 .45292665 .28599549 .40795899 .23699951 .37998963 .21699524 .36799623 .19099427 .3570099 .15299988 .34402467V.33003236C.20999146 .33003236 .23298645 .32704164 .25498963 .3200531 .32398988 .3000641 .35899354 .2511139 .35899354 .17518616 .35899354 .09025574 .30299378 .022323609 .22898865 .022323609 .20098877 .022323609 .17999268 .027313233 .14299011 .05329895 .114990238 .073272708 .09899902 .07926941 .08198547 .07926941 .05899048 .07926941 .040985109 .06428528 .040985109 .043304445 .040985109 .0073242189 .07998657-.013671875 .15299988-.013671875 .24198914-.013671875 .33699037 .015319824 .3849945 .07926941 .4139862 .11723328 .43099977 .16618347 .43099977 .21913147 .43099977 .27108766 .4149933 .31704713 .3869934 .34802247 .3659973 .36999513 .34799195 .38198854 .3039856 .40097047 .37098695 .44093324 .39698792 .4908905 .39698792 .5388489 .39698792 .6207733 .33399964 .67578127 .24099732 .67578127 .13699341 .67578127 .07398987 .6087799 .04499817 .51387026L.06098938 .50987246Z"/>
<path id="font_2_55" d="M.44599916 .68470767C.30799867 .66970828 .22898865 .6457062 .14299011 .55570986 .07199097 .48269654 .033996583 .38771058 .033996583 .27960206 .033996583 .20951844 .052993776 .138443 .08099365 .087402347 .115997318 .023330689 .1789856-.013671875 .2579956-.013671875 .32398988-.013671875 .37998963 .013320923 .4169922 .05937195 .44999696 .09941101 .46798707 .1554718 .46798707 .2195282 .46798707 .34866334 .3959961 .42871095 .2789917 .42871095 .23498535 .42871095 .20098877 .42170716 .1519928 .3836975 .1789856 .5346985 .29100038 .6427002 .44799806 .6687012L.44599916 .68470767M.37799073 .18850708C.37799073 .08639526 .34098817 .014328003 .2689972 .014328003 .1749878 .014328003 .1269989 .11442566 .1269989 .2665863 .1269989 .3586731 .18598938 .3827057 .24299622 .3827057 .33599855 .3827057 .37799073 .31663514 .37799073 .18850708Z"/>
<path id="font_2_47" d="M.18099976 .04324341C.18099976 .07325745 .15499878 .100250247 .12599182 .100250247 .09498596 .100250247 .069992069 .07525635 .069992069 .04425049 .069992069 .013244629 .09399414-.0107421879 .125-.0107421879 .15499878-.0107421879 .18099976 .014251709 .18099976 .04324341Z"/>
<path id="font_2_57" d="M.44499208 .15519715C.44499208 .23512268 .41299439 .28907777 .2899933 .37101747 .3889923 .42396546 .42399598 .45793153 .42399598 .53286746 .42399598 .6108093 .35499574 .67578127 .2559967 .67578127 .14498902 .67578127 .06199646 .61579897 .06199646 .5198822 .06199646 .4549408 .08299255 .41697694 .18598938 .3320465 .07899475 .2571106 .055999757 .21813965 .055999757 .14920044 .055999757 .055282594 .1349945-.013671875 .24798584-.013671875 .36799623-.013671875 .44499208 .05229187 .44499208 .15519715M.35499574 .53286746C.35499574 .470932 .32899476 .42897035 .26098634 .3889923 .17298889 .4409485 .13598633 .48690797 .13598633 .54885867 .13598633 .6108093 .1789856 .6477661 .24598694 .6477661 .31399537 .6477661 .35499574 .60180667 .35499574 .53286746M.2709961 .27209474C.33898927 .22613526 .36898805 .18617249 .36898805 .1242218 .36898805 .059280397 .32398988 .014328003 .25898744 .014328003 .18299866 .014328003 .13198853 .06626892 .13198853 .15820313 .13198853 .22314453 .15299988 .26409913 .21199036 .3120575L.2709961 .27209474Z"/>
<path id="font_2_56" d="M.44898988 .6461029V.6621094H.07998657L.019989014 .5151062 .037994386 .5061188C.07998657 .57411196 .09700012 .58810427 .15499878 .58810427H.36999513L.17199707-.0078125H.23699951L.44898988 .6461029Z"/>
<path id="font_2_1157" d="M.30999757 .25195313C.30999757 .3257141 .25 .38671876 .1769867 .38671876 .099990848 .38671876 .039993287 .32870484 .039993287 .25393678 .039993287 .17718506 .09899902 .1171875 .1749878 .1171875 .25 .1171875 .30999757 .17718506 .30999757 .25195313M.24398804 .25195313C.24398804 .21307373 .21398926 .18318177 .1749878 .18318177 .13598633 .18318177 .10598755 .21208191 .10598755 .25393678 .10598755 .29081727 .1349945 .32070924 .1769867 .32070924 .21299744 .32070924 .24398804 .29081727 .24398804 .25195313Z"/>
<path id="font_2_3866" d="M.1289978 .0289917C.18099976 .125 .2869873 .33599855 .30499269 .3849945 .30899049 .394989 .31298829 .41600038 .31298829 .4249878 .31298829 .46699525 .28599549 .4850006 .2559967 .4850006 .22999573 .4850006 .20498657 .46998597 .19099427 .4269867 .17599488 .3769989 .12199402 .14399719 .099990848 .038986207L.1289978 .0289917Z"/>
<path id="font_2_50" d="M.3939972 0V.01499939C.31900025 .01499939 .29899598 .032989503 .29899598 .07597351V.67277529L.2899933 .67578127 .11099243 .5847931V.5708008L.13798523 .5807953C.1559906 .5877991 .17298889 .59280398 .18299866 .59280398 .20399475 .59280398 .21299744 .57780459 .21299744 .543808V.0949707C.21299744 .039978029 .19198609 .018997193 .117996219 .01499939V0H.3939972Z"/>
<path id="font_2_51" d="M.47399903 .13696289 .45999146 .1429596C.4269867 .08699036 .4059906 .07598877 .3639984 .07598877H.12998963L.29499818 .2519226C.38398744 .34588624 .4229889 .42085267 .4229889 .4998169 .4229889 .59877017 .35099793 .67578127 .23799134 .67578127 .114990238 .67578127 .050994874 .5937805 .02999878 .4768219L.050994874 .47183229C.09098816 .5697937 .12599182 .6017761 .19799805 .6017761 .2829895 .6017761 .33699037 .55178835 .33699037 .4608307 .33699037 .37586976 .30099488 .29989625 .20698548 .200943L.0289917 .011993408V0H.41999818L.47399903 .13696289Z"/>
<path id="font_2_44" d="M.6359863 .22012329V.2861328H.375V.54711917H.30899049V.2861328H.04798889V.22012329H.30899049V-.040878297H.375V.22012329H.6359863Z"/>
<path id="font_2_53" d="M.47299195 .16699219V.23098755H.36999513V.67578127H.32598878L.011993408 .23098755V.16699219H.2919922V0H.36999513V.16699219H.47299195M.2919922 .23098755H.051986696L.2919922 .573822V.23098755Z"/>
<path id="font_2_58" d="M.05899048-.021728516C.18899536-.0037384034 .2539978 .020263672 .33898927 .09725952 .4189911 .17027283 .45899964 .27926637 .45899964 .39411927 .45899964 .47799684 .43499757 .5499115 .394989 .59983828 .35598756 .6477661 .3019867 .67578127 .23799134 .67578127 .11898804 .67578127 .02999878 .5748749 .02999878 .44004823 .02999878 .31822206 .101989749 .23725891 .20999146 .23725891 .2689972 .23725891 .31698609 .2522583 .3600006 .2942505 .31999208 .13026428 .20799256 .025268555 .055999757-.001739502L.05899048-.021728516M.3619995 .35516358C.3619995 .30223084 .2889862 .28027345 .24499512 .28027345 .16999817 .28027345 .12199402 .35516358 .12199402 .47399903 .12199402 .52793887 .13699341 .586853 .15699768 .6138153 .17399597 .63578799 .19999695 .6477661 .22999573 .6477661 .31698609 .6477661 .3619995 .56188967 .3619995 .39411927V.35516358Z"/>
<path id="font_2_1151" d="M.62098696 .22012329V.2861328H.06399536V.22012329H.62098696Z"/>
<path id="font_2_49" d="M.47599793 .3300476C.47599793 .53486636 .3849945 .67578127 .2539978 .67578127 .09298706 .67578127 .023986817 .5128937 .023986817 .3360443 .023986817 .17218018 .07899475-.013671875 .25-.013671875 .41299439-.013671875 .47599793 .15818787 .47599793 .3300476M.37998963 .32505799C.37998963 .12722779 .33499146 .012313843 .25 .012313843 .1639862 .012313843 .11999512 .1262207 .11999512 .32904054 .11999512 .5318756 .16499329 .6497803 .24798584 .6497803 .33599855 .6497803 .37998963 .53286746 .37998963 .32505799Z"/>
<path id="font_2_62" d="M.6369934 .31973268V.3857422H.04798889V.31973268H.6369934M.6369934 .12011719V.18611145H.04798889V.12011719H.6369934Z"/>
<path id="font_2_41" d="M.3039856-.16122437C.1639862-.04423523 .13398743 .06877136 .13398743 .254776 .13398743 .44776917 .16499329 .5407715 .3039856 .6597748L.29499818 .67578127C.1349945 .58078 .04798889 .43676759 .04798889 .25177003 .04798889 .08177185 .13398743-.0872345 .2919922-.17723084L.3039856-.16122437Z"/>
<path id="font_2_42" d="M.0289917 .6597748C.17399597 .54577639 .19898987 .43077088 .19898987 .24377442 .19898987 .04977417 .17098999-.04423523 .0289917-.16122437L.037994386-.17723084C.19699097-.08023071 .2849884 .061767579 .2849884 .24676514 .2849884 .41677857 .19400025 .58377078 .040985109 .67578127L.0289917 .6597748Z"/>
<path id="font_2_3679" d="M.5029907-.24301148C.36898805-.07800293 .23399353 .18699646 .23399353 .6429901 .23399353 1.1009979 .36898805 1.394989 .5029907 1.5329895V1.5659943C.2899933 1.394989 .13899231 1.0429993 .13899231 .6429901 .13899231 .23399353 .2899933-.07901001 .5029907-.27900697V-.24301148Z"/>
<path id="font_2_3680" d="M.11399841 1.5299988C.24798584 1.3649902 .3829956 1.1029968 .3829956 .6429901 .3829956 .18899536 .24798584-.10800171 .11399841-.2460022V-.27900697C.32699586-.10800171 .47799684 .24299622 .47799684 .6429901 .47799684 1.052002 .32699586 1.3659973 .11399841 1.5659943V1.5299988Z"/>
</defs>
<g clip-path="url(#clip_1)">
<path transform="matrix(1,0,0,-1,171.477,217.46099)" stroke-width=".79701" stroke-linecap="round" stroke-dasharray="2.98883,2.98883" stroke-linejoin="round" fill="none" stroke="#000000" d="M-170.08042 0H201.50623"/>
<path transform="matrix(1,0,0,-1,372.98323,217.46099)" d="M2.59026 0-1.55415 2.0722 0 0-1.55415-2.0722"/>
<use data-text="&#x1d465;" xlink:href="#font_2_2520" transform="matrix(14.3462,0,0,-14.3462,379.957,220.55998)"/>
<path transform="matrix(1,0,0,-1,171.477,217.46099)" stroke-width=".79701" stroke-linecap="round" stroke-dasharray="2.98883,2.98883" stroke-linejoin="round" fill="none" stroke="#000000" d="M0-170.08042V201.50623"/>
<path transform="matrix(0,-1,-1,-0,171.477,15.954758)" d="M2.59026 0-1.55415 2.0722 0 0-1.55415-2.0722"/>
<use data-text="&#x1d466;" xlink:href="#font_2_2521" transform="matrix(14.3462,0,0,-14.3462,167.919,6.3559877)"/>
<use data-text="O" xlink:href="#font_3_48" transform="matrix(14.3462,0,0,-14.3462,175.66101,213.07599)"/>
<path transform="matrix(1,0,0,-1,171.477,217.46099)" stroke-width=".79701" stroke-linecap="round" stroke-linejoin="round" fill="none" stroke="#000000" d="M51.02411 0C51.02411 11.0385 47.44037 21.78271 40.81789 30.6132"/>
<use data-text="3" xlink:href="#font_2_52" transform="matrix(14.3462,0,0,-14.3462,224.264,206.13298)"/>
<use data-text="6" xlink:href="#font_2_55" transform="matrix(14.3462,0,0,-14.3462,231.4371,206.13298)"/>
<use data-text="." xlink:href="#font_2_47" transform="matrix(14.3462,0,0,-14.3462,238.6102,206.13298)"/>
<use data-text="8" xlink:href="#font_2_57" transform="matrix(14.3462,0,0,-14.3462,242.19675,206.13298)"/>
<use data-text="7" xlink:href="#font_2_56" transform="matrix(14.3462,0,0,-14.3462,249.36985,206.13298)"/>
<use data-text="&#x2218;" xlink:href="#font_2_1157" transform="matrix(9.9626,0,0,-9.9626,256.543,200.39398)"/>
<path transform="matrix(1,0,0,-1,171.477,217.46099)" stroke-width=".79701" stroke-linecap="round" stroke-linejoin="round" fill="none" stroke="#000000" d="M0 51.02411C-11.0385 51.02411-21.78271 47.44037-30.6132 40.81789"/>
<use data-text="3" xlink:href="#font_2_52" transform="matrix(14.3462,0,0,-14.3462,137.211,164.47299)"/>
<use data-text="6" xlink:href="#font_2_55" transform="matrix(14.3462,0,0,-14.3462,144.3841,164.47299)"/>
<use data-text="." xlink:href="#font_2_47" transform="matrix(14.3462,0,0,-14.3462,151.55719,164.47299)"/>
<use data-text="8" xlink:href="#font_2_57" transform="matrix(14.3462,0,0,-14.3462,155.14374,164.47299)"/>
<use data-text="7" xlink:href="#font_2_56" transform="matrix(14.3462,0,0,-14.3462,162.31684,164.47299)"/>
<use data-text="&#x2218;" xlink:href="#font_2_1157" transform="matrix(9.9626,0,0,-9.9626,169.49002,158.73398)"/>
<path transform="matrix(1,0,0,-1,171.477,217.46099)" stroke-width=".79701" stroke-linecap="round" stroke-linejoin="round" fill="none" stroke="#0000ff" d="M-163.27098-122.45062 161.1988 120.89656"/>
<path transform="matrix(.79999,-.59996,-.59996,-.79999,332.67579,96.56442)" d="M2.59026 0-1.55415 2.0722 0 0-1.55415-2.0722" fill="#0000ff"/>
<use data-text="&#x1d465;" xlink:href="#font_2_2520" transform="matrix(14.3462,0,0,-14.3462,339.131,100.23097)" fill="#0000ff"/>
<use data-text="&#x2032;" xlink:href="#font_2_3866" transform="matrix(9.9626,0,0,-9.9626,347.021,94.491977)" fill="#0000ff"/>
<path transform="matrix(1,0,0,-1,171.477,217.46099)" stroke-width=".79701" stroke-linecap="round" stroke-linejoin="round" fill="none" stroke="#0000ff" d="M122.45062-163.27098-120.89656 161.1988"/>
<path transform="matrix(-.59996,-.79999,-.79999,.59996,50.580446,56.26219)" d="M2.59026 0-1.55415 2.0722 0 0-1.55415-2.0722" fill="#0000ff"/>
<use data-text="&#x1d466;" xlink:href="#font_2_2521" transform="matrix(14.3462,0,0,-14.3462,43.162004,47.180986)" fill="#0000ff"/>
<use data-text="&#x2032;" xlink:href="#font_2_3866" transform="matrix(9.9626,0,0,-9.9626,50.277009,41.441987)" fill="#0000ff"/>
<use data-text="O" xlink:href="#font_3_48" transform="matrix(14.3462,0,0,-14.3462,152.322,232.21599)" fill="#0000ff"/>
<use data-text="&#x2032;" xlink:href="#font_2_3866" transform="matrix(9.9626,0,0,-9.9626,162.68001,226.47699)" fill="#0000ff"/>
<path transform="matrix(1,0,0,-1,171.477,217.46099)" stroke-width="1.59404" stroke-linecap="round" stroke-linejoin="round" fill="none" stroke="#ff0000" d="M-30.6144-129.25487C-30.6144-129.25487-30.44635-115.82578-30.23656-110.86171-30.02678-105.89763-29.52187-98.16151-29.10231-93.47714-28.68275-88.79276-27.84187-81.50465-27.2126-77.09987-26.58336-72.69508-25.40613-65.85545-24.56712-61.73036-23.72809-57.60526-22.2143-51.21437-21.16553-47.36899-20.11674-43.52359-18.26663-37.58107-17.00812-34.01535-15.7496-30.4496-13.5632-24.95557-12.09496-21.66945-10.62671-18.38336-8.104-13.3377-6.426-10.33131-4.74797-7.32492-1.8887-2.728-.00092-.00131 1.88684 2.72534 5.08238 6.87381 7.1799 9.32088 9.27742 11.76791 12.8093 15.46799 15.11653 17.6354 17.42378 19.80284 21.29199 23.05441 23.80896 24.94218 26.32594 26.82996 30.53049 29.6331 33.25717 31.24124 35.98387 32.84937 40.52472 35.2041 43.46117 36.53255 46.39763 37.861 51.27507 39.7669 54.42125 40.81569 57.56743 41.8645 62.78094 43.32234 66.13681 44.09155 69.49268 44.86078 75.04248 45.87022 78.60817 46.35965 82.17386 46.84912 88.06047 47.40944 91.83594 47.6192 95.6114 47.82896 101.83405 47.94122 105.81918 47.87138 109.80434 47.80154 116.36331 47.46541 120.55821 47.11586 124.75313 46.76633 131.64865 45.9814 136.05335 45.35217 140.45804 44.72292 147.68987 43.48964 152.30426 42.58076 156.91869 41.67188 164.48685 39.99011 169.31098 38.8016 174.13512 37.61308 187.07347 34.0147 187.07347 34.0147"/>
<path transform="matrix(1,0,0,-1,171.477,217.46099)" stroke-width=".79701" stroke-linecap="round" stroke-linejoin="round" fill="none" stroke="#000000" d="M26.2016 26.7366C25.21126 28.05711 23.33797 28.32474 22.01746 27.3344 20.69696 26.34406 20.42932 24.47075 21.41968 23.15025 22.41002 21.82974 24.28331 21.56212 25.60382 22.55246 26.92432 23.54282 27.19196 25.4161 26.2016 26.7366ZM23.81064 24.94344"/>
<use data-text="1" xlink:href="#font_2_50" transform="matrix(14.3462,0,0,-14.3462,300.841,137.34499)" fill="#ff0000"/>
<use data-text="6" xlink:href="#font_2_55" transform="matrix(14.3462,0,0,-14.3462,308.0141,137.34499)" fill="#ff0000"/>
<use data-text="&#x1d465;" xlink:href="#font_2_2520" transform="matrix(14.3462,0,0,-14.3462,315.1872,137.34499)" fill="#ff0000"/>
<use data-text="2" xlink:href="#font_2_51" transform="matrix(9.9626,0,0,-9.9626,323.07704,131.60599)" fill="#ff0000"/>
<use data-text="+" xlink:href="#font_2_44" transform="matrix(14.3462,0,0,-14.3462,331.745,137.34499)" fill="#ff0000"/>
<use data-text="2" xlink:href="#font_2_51" transform="matrix(14.3462,0,0,-14.3462,344.75703,137.34499)" fill="#ff0000"/>
<use data-text="4" xlink:href="#font_2_53" transform="matrix(14.3462,0,0,-14.3462,351.9301,137.34499)" fill="#ff0000"/>
<use data-text="&#x1d465;" xlink:href="#font_2_2520" transform="matrix(14.3462,0,0,-14.3462,359.1032,137.34499)" fill="#ff0000"/>
<use data-text="&#x1d466;" xlink:href="#font_2_2521" transform="matrix(14.3462,0,0,-14.3462,366.99363,137.34499)" fill="#ff0000"/>
<use data-text="+" xlink:href="#font_2_44" transform="matrix(14.3462,0,0,-14.3462,377.2942,137.34499)" fill="#ff0000"/>
<use data-text="9" xlink:href="#font_2_58" transform="matrix(14.3462,0,0,-14.3462,390.3062,137.34499)" fill="#ff0000"/>
<use data-text="&#x1d466;" xlink:href="#font_2_2521" transform="matrix(14.3462,0,0,-14.3462,397.4793,137.34499)" fill="#ff0000"/>
<use data-text="2" xlink:href="#font_2_51" transform="matrix(9.9626,0,0,-9.9626,404.60603,131.60599)" fill="#ff0000"/>
<use data-text="&#x2212;" xlink:href="#font_2_1151" transform="matrix(14.3462,0,0,-14.3462,413.273,137.34499)" fill="#ff0000"/>
<use data-text="1" xlink:href="#font_2_50" transform="matrix(14.3462,0,0,-14.3462,426.28498,137.34499)" fill="#ff0000"/>
<use data-text="3" xlink:href="#font_2_52" transform="matrix(14.3462,0,0,-14.3462,433.45808,137.34499)" fill="#ff0000"/>
<use data-text="0" xlink:href="#font_2_49" transform="matrix(14.3462,0,0,-14.3462,440.63117,137.34499)" fill="#ff0000"/>
<use data-text="&#x1d465;" xlink:href="#font_2_2520" transform="matrix(14.3462,0,0,-14.3462,447.80427,137.34499)" fill="#ff0000"/>
<use data-text="+" xlink:href="#font_2_44" transform="matrix(14.3462,0,0,-14.3462,458.87953,137.34499)" fill="#ff0000"/>
<use data-text="9" xlink:href="#font_2_58" transform="matrix(14.3462,0,0,-14.3462,471.89155,137.34499)" fill="#ff0000"/>
<use data-text="0" xlink:href="#font_2_49" transform="matrix(14.3462,0,0,-14.3462,479.06465,137.34499)" fill="#ff0000"/>
<use data-text="&#x1d466;" xlink:href="#font_2_2521" transform="matrix(14.3462,0,0,-14.3462,486.23774,137.34499)" fill="#ff0000"/>
<use data-text="=" xlink:href="#font_2_62" transform="matrix(14.3462,0,0,-14.3462,497.34169,137.34499)" fill="#ff0000"/>
<use data-text="0" xlink:href="#font_2_49" transform="matrix(14.3462,0,0,-14.3462,511.1571,137.34499)" fill="#ff0000"/>
<use data-text="(" xlink:href="#font_2_41" transform="matrix(14.3462,0,0,-14.3462,304.186,170.32498)" fill="#ff0000"/>
<use data-text="&#x1d465;" xlink:href="#font_2_2520" transform="matrix(14.3462,0,0,-14.3462,308.9633,170.32498)" fill="#ff0000"/>
<use data-text="&#x2032;" xlink:href="#font_2_3866" transform="matrix(9.9626,0,0,-9.9626,316.85304,164.58599)" fill="#ff0000"/>
<use data-text="&#x2212;" xlink:href="#font_2_1151" transform="matrix(14.3462,0,0,-14.3462,324.654,170.32498)" fill="#ff0000"/>
<use data-text="1" xlink:href="#font_2_50" transform="matrix(14.3462,0,0,-14.3462,337.66603,170.32498)" fill="#ff0000"/>
<use data-text=")" xlink:href="#font_2_42" transform="matrix(14.3462,0,0,-14.3462,344.8391,170.32498)" fill="#ff0000"/>
<use data-text="2" xlink:href="#font_2_51" transform="matrix(9.9626,0,0,-9.9626,349.62,164.58599)" fill="#ff0000"/>
<use data-text="=" xlink:href="#font_2_62" transform="matrix(14.3462,0,0,-14.3462,359.08503,170.32498)" fill="#ff0000"/>
<use data-text="&#x2212;" xlink:href="#font_2_1151" transform="matrix(14.3462,0,0,-14.3462,372.88606,170.32498)" fill="#ff0000"/>
<use data-text="6" xlink:href="#font_2_55" transform="matrix(14.3462,0,0,-14.3462,382.7132,170.32498)" fill="#ff0000"/>
<use data-text="(" xlink:href="#font_2_3679" transform="matrix(14.3462,0,0,-14.3462,392.289,175.96999)" fill="#ff0000"/>
<use data-text="&#x1d466;" xlink:href="#font_2_2521" transform="matrix(14.3462,0,0,-14.3462,400.739,170.32498)" fill="#ff0000"/>
<use data-text="&#x2032;" xlink:href="#font_2_3866" transform="matrix(9.9626,0,0,-9.9626,407.85505,164.58599)" fill="#ff0000"/>
<use data-text="&#x2212;" xlink:href="#font_2_1151" transform="matrix(14.3462,0,0,-14.3462,415.656,170.32498)" fill="#ff0000"/>
<use data-text="1" xlink:href="#font_2_50" transform="matrix(14.3462,0,0,-14.3462,429.867,162.00298)" fill="#ff0000"/>
<path transform="matrix(1,0,0,-1,133.709,-64.02602)" stroke-width=".9468" stroke-linecap="butt" stroke-linejoin="round" fill="none" stroke="#ff0000" d="M296.158-230.764H303.331"/>
<use data-text="6" xlink:href="#font_2_55" transform="matrix(14.3462,0,0,-14.3462,429.867,180.36798)" fill="#ff0000"/>
<use data-text=")" xlink:href="#font_2_3680" transform="matrix(14.3462,0,0,-14.3462,438.23597,175.96999)" fill="#ff0000"/>
</g>
</svg>
