<svg xmlns="http://www.w3.org/2000/svg" xmlns:xlink="http://www.w3.org/1999/xlink" xmlns:inkscape="http://www.inkscape.org/namespaces/inkscape" version="1.1" width="415" height="725" viewBox="0 0 415 725">
<defs>
<clipPath id="clip_1">
<path transform="matrix(1,0,0,-1,-90,766)" d="M0 0H595.28V841.89H0Z"/>
</clipPath>
<path id="font_2_2520" d="M.30499269 .28834535 .2849884 .3433838C.272995 .3764038 .2539978 .41740418 .20999146 .44140626L.07798767 .4084015 .08099365 .39039613C.09098816 .39439393 .10598755 .39639283 .11898804 .39639283 .17399597 .39639283 .19999695 .35539247 .21699524 .3073578L.25 .21530152 .18499756 .11424255C.15299988 .065216068 .1269989 .0552063 .114990238 .0552063 .08999634 .0552063 .09399414 .07521057 .067993167 .07521057 .042999269 .07521057 .02999878 .05419922 .02999878 .038208009 .02999878 .016204834 .04598999-.0087890629 .08198547-.0087890629 .13798523-.0087890629 .16699219 .034210206 .19898987 .083221439L.2619934 .18127442 .3019867 .06820679C.31498719 .032196046 .33399964-.0087890629 .375-.0087890629 .43299867-.0087890629 .47799684 .08721924 .48999024 .10223389L.47599793 .11224365C.45498658 .06921387 .43099977 .0552063 .4149933 .0552063 .36999513 .0552063 .34700013 .19029236 .31698609 .25231935L.37199403 .33737184C.38598634 .35939027 .39698792 .37539674 .4269867 .37539674 .44400025 .37539674 .44898988 .36639405 .47099305 .36639405 .49699403 .36639405 .5099945 .3894043 .5099945 .4084015 .5099945 .42939759 .49299623 .44140626 .46099855 .44140626 .41099549 .44140626 .37599183 .3973999 .34999085 .35739137L.30499269 .28834535Z"/>
<path id="font_2_2521" d="M.269989 .30682374C.26098634 .38082887 .2539978 .40682984 .23098755 .4398346L.08099365 .41482545 .08299255 .39883424C.09199524 .39982606 .10798645 .40283204 .11898804 .40283204 .1749878 .40283204 .18399048 .34283448 .18899536 .2978363L.22698975-.016174317C.20098877-.056167604 .14399719-.11816406 .1269989-.11816406 .11099243-.11816406 .11299133-.08717346 .069992069-.08717346 .056991579-.08717346 .02999878-.09817505 .02999878-.12817383 .02999878-.1521759 .04899597-.1831665 .085998538-.1831665 .1539917-.1831665 .21899414-.08517456 .2919922 .0068359377 .33399964 .059829713 .49598695 .2998352 .49598695 .37782289 .49598695 .41682435 .47099305 .4398346 .43899537 .4398346 .4099884 .4398346 .3919983 .42182923 .3919983 .39982606 .3919983 .36183167 .44400025 .3518219 .44400025 .3308258 .44400025 .3128357 .43598939 .29283143 .41600038 .25582887 .3939972 .21482849 .35899354 .15483094 .2979889 .07182312L.269989 .30682374Z"/>
<path id="font_3_48" d="M.6879883 .33103944C.6879883 .5288696 .5569916 .67578127 .36099244 .67578127 .1659851 .67578127 .033996583 .53686526 .033996583 .3340454 .033996583 .1262207 .16699219-.013671875 .36099244-.013671875 .5529938-.013671875 .6879883 .12522888 .6879883 .33103944M.57398989 .33703614C.57398989 .21714783 .54599 .12322998 .4909973 .07028198 .45599366 .03730774 .4119873 .022323609 .3619995 .022323609 .31599427 .022323609 .27198792 .03630066 .23799134 .067276 .1769867 .12322998 .147995 .21315003 .147995 .3320465 .147995 .42695619 .17399597 .52388 .21699524 .5728302 .2559967 .6177826 .30599977 .6397705 .3600006 .6397705 .40699769 .6397705 .44699098 .6227875 .48298646 .59280398 .5399933 .54486086 .57398989 .450943 .57398989 .33703614Z"/>
<path id="font_2_2469" d="M.48399354 0V.023986817C.46798707 .0289917 .46099855 .032989503 .45399476 .04399109L.30599977 .2719574 .40699769 .39793397C.42599488 .42092896 .44599916 .43193055 .47698976 .43693543V.4609375H.30899049V.43693543L.32899476 .43493653C.35198976 .43293763 .3600006 .42793275 .3600006 .41293336 .3600006 .39793397 .34899903 .38394166 .32199098 .348938L.28599549 .302948C.28199769 .3089447 .2769928 .31495667 .272995 .3199463 .23999024 .36294557 .21499634 .40493775 .21499634 .41793824 .21499634 .42993165 .22898865 .43592835 .2619934 .43693543V.4609375H.011993408V.43693543C.037994386 .43293763 .04399109 .42793275 .06399536 .39793397L.19198609 .20095825C.1769867 .18296814 .18499756 .19197083 .16999817 .17297364 .15499878 .15397644 .14099121 .13597107 .1269989 .11697388 .070999149 .041992189 .050994874 .025985718 .01399231 .023986817V0H.18299866V.023986817C.14698792 .025985718 .1329956 .032989503 .1329956 .04798889 .1329956 .0639801 .1579895 .10397339 .19699097 .15097046 .20298767 .15797425 .20799256 .16497803 .21299744 .17097473 .22599793 .14997864 .23999024 .12898255 .25498963 .10798645 .2789917 .07298279 .28799439 .055984498 .28799439 .04399109 .28799439 .03199768 .2749939 .025985718 .24299622 .023986817V0H.48399354Z"/>
<path id="font_2_3368" d="M.47799684 .21099854H.45298768C.4269867 .13899231 .4039917 .1329956 .2999878 .1329956H.1599884L.32199098 .2869873C.40098573 .3619995 .43598939 .42900086 .43598939 .5049896 .43598939 .6179962 .3619995 .6879883 .2539978 .6879883 .1539917 .6879883 .07798767 .6239929 .0309906 .48399354H.05899048C.08999634 .54599 .1329956 .57398989 .18099976 .57398989 .2599945 .57398989 .2999878 .5149994 .2999878 .44699098 .2999878 .40299989 .2809906 .34799195 .24899292 .29899598 .19799805 .22099304 .16299439 .1789856 .016998291 .022994996V0H.43199159L.47799684 .21099854Z"/>
<path id="font_2_44" d="M.6359863 .22012329V.2861328H.375V.54711917H.30899049V.2861328H.04798889V.22012329H.30899049V-.040878297H.375V.22012329H.6359863Z"/>
<path id="font_2_3370" d="M.47599793 .14399719V.25498963H.4119873V.6879883H.33198548L.018997193 .25698854V.14399719H.2669983V0H.4119873V.14399719H.47599793M.2679901 .25498963H.05999756L.2679901 .548996V.25498963Z"/>
<path id="font_2_3372" d="M.46998597 .687973C.32099916 .66096499 .25498963 .6479645 .16699219 .5709686 .07798767 .4929657 .027999878 .39396668 .027999878 .2740631 .027999878 .097229007 .11898804-.0126953129 .2599945-.0126953129 .3889923-.0126953129 .47499085 .082229617 .47499085 .22210694 .47499085 .34300233 .4019928 .42097474 .28799439 .42097474 .2559967 .42097474 .23399353 .41696168 .20399475 .40397645 .24198914 .54896548 .32398988 .63197329 .46998597 .66197207V.687973M.32299806 .16516114C.32299806 .043273927 .30699159 .014297485 .2619934 .014297485 .23799134 .014297485 .22099304 .024291993 .21099854 .043273927 .19400025 .07624817 .18399048 .14916992 .18399048 .24508667 .18399048 .30303956 .18998719 .35998536 .19699097 .36598207 .20399475 .37197877 .21798706 .37597657 .23399353 .37597657 .2999878 .37597657 .32299806 .3210144 .32299806 .16516114Z"/>
<path id="font_2_2470" d="M.48199464 .4609375H.32998658V.43693543C.37298585 .43493653 .38398744 .42793275 .38398744 .40393067 .38398744 .39193727 .38198854 .38093568 .37298585 .3549347L.30499269 .16693115 .23298645 .3529358C.22200012 .38093568 .21299744 .40693666 .21299744 .41093446 .21299744 .42593385 .22399903 .43392945 .24899292 .43592835L.2649994 .43693543V.4609375H.015991211V.43693543C.037994386 .43392945 .04399109 .43093873 .049987794 .42292787 .05899048 .41093446 .09700012 .3269348 .116989139 .27693177L.23599243-.013076782 .21798706-.066085819C.20098877-.11608887 .17599488-.14808655 .1519928-.14808655 .14299011-.14808655 .1349945-.14009094 .1349945-.13108826 .1349945-.13108826 .1349945-.12808228 .13598633-.12509156 .13699341-.12008667 .13798523-.11508179 .13798523-.111083988 .13798523-.08207703 .11199951-.05908203 .07798767-.05908203 .039993287-.05908203 .015991211-.08808899 .015991211-.12608338 .015991211-.17308045 .055999757-.20507813 .11299133-.20507813 .14698792-.20507813 .17599488-.1940918 .19699097-.17208863 .21798706-.14907837 .23899842-.110076908 .27398683-.016082764L.42199708 .3819275C.43798829 .42492677 .45098878 .43293763 .48199464 .43693543V.4609375Z"/>
<path id="font_2_1151" d="M.62098696 .22012329V.2861328H.06399536V.22012329H.62098696Z"/>
<path id="font_2_62" d="M.6369934 .31973268V.3857422H.04798889V.31973268H.6369934M.6369934 .12011719V.18611145H.04798889V.12011719H.6369934Z"/>
<path id="font_2_3366" d="M.47599793 .33721925C.47599793 .5031891 .4119873 .6881561 .25299073 .6881561 .08198547 .6881561 .023986817 .49717713 .023986817 .33422853 .023986817 .12626648 .11999512-.0126953129 .25099183-.0126953129 .3809967-.0126953129 .47599793 .12626648 .47599793 .33721925M.31799317 .22424317C.31799317 .075286868 .30099488 .015304565 .25099183 .015304565 .20098877 .015304565 .18199158 .075286868 .18199158 .22424317V.44918824C.18199158 .6011658 .19999695 .66015627 .24899292 .66015627 .2979889 .66015627 .31799317 .5961609 .31799317 .44918824V.22424317Z"/>
<path id="font_3_55" d="M.69699099 .6621094H.49299623V.6430969C.5329895 .6390991 .5649872 .641098 .5649872 .6021118 .5649872 .5851135 .55799868 .5601196 .54599 .53012087L.39898683 .1612091 .24699402 .50312808C.21699524 .57011416 .20799256 .5941162 .20799256 .6101074 .20799256 .63009646 .22099304 .6390991 .25299073 .641098L.2809906 .6430969V.6621094H.015991211V.6430969C.06599426 .6421051 .08099365 .63009646 .12399292 .53312686L.36799623-.0107421879H.3829956L.6049957 .552124C.6339874 .62609866 .6569977 .6421051 .69699099 .6430969V.6621094Z"/>
<path id="font_3_70" d="M.4079895 .16427613C.35899354 .09024048 .32099916 .05921936 .2539978 .05921936 .20799256 .05921936 .17098999 .07723999 .14299011 .11425781 .10699463 .16227722 .101989749 .20129395 .09700012 .27734376H.40499879C.40098573 .3312683 .3909912 .36315919 .37098695 .3910675 .33898927 .43595887 .2939911 .45996095 .23199463 .45996095 .10598755 .45996095 .024993897 .35816957 .024993897 .21730042 .024993897 .07923889 .09700012-.009765625 .21499634-.009765625 .31498719-.009765625 .3849945 .048233034 .42399598 .15727234L.4079895 .16427613M.09899902 .30934144C.10998535 .38407899 .14898682 .4239502 .20498657 .4239502 .2709961 .4239502 .2919922 .39006043 .30299378 .30934144H.09899902Z"/>
<path id="font_3_83" d="M.1599884 .45794679 .15499878 .45996095C.101989749 .43894959 .06599426 .42495729 .0069885256 .40596009V.3899536C.020996094 .3929596 .02999878 .39396668 .041992189 .39396668 .066986087 .39396668 .07598877 .3779602 .07598877 .33396913V.083984378C.07598877 .033996583 .068984989 .026992798 .004989624 .01499939V0H.24499512V.01499939C.1769867 .017990113 .1599884 .032989503 .1599884 .08998108V.31497193C.1599884 .3469696 .20199585 .3969574 .22999573 .3969574 .23599243 .3969574 .24499512 .3919525 .2559967 .381958 .27198792 .36695863 .2829895 .361969 .29599 .361969 .31999208 .361969 .33499146 .3789673 .33499146 .4069519 .33499146 .43995667 .31399537 .45996095 .27999879 .45996095 .23799134 .45996095 .20999146 .43795777 .1599884 .3659668V.45794679Z"/>
<path id="font_3_85" d="M.2659912 .07722473C.24398804 .051223756 .22799683 .04222107 .20599365 .04222107 .16899109 .04222107 .1539917 .068222049 .1539917 .1322174V.41818238H.25498963V.4501953H.1539917V.5661926C.1539917 .57618716 .1519928 .5791931 .14698792 .5791931 .14099121 .56918337 .1329956 .56018069 .1269989 .55119326 .08898926 .4961853 .055999757 .45918275 .02999878 .44418336 .018997193 .43719483 .0129852299 .43118287 .0129852299 .42518617 .0129852299 .42218019 .01399231 .42018128 .016998291 .41818238H.069992069V.11721802C.069992069 .033233644 .099990848-.009765625 .1579895-.009765625 .20799256-.009765625 .24598694 .014221191 .2789917 .066223148L.2659912 .07722473Z"/>
<path id="font_3_89" d="M.47898866 0V.01499939C.44799806 .01499939 .4249878 .03199768 .39698792 .07501221L.2689972 .27111817 .35198976 .39117433C.37098695 .41818238 .40098573 .43418885 .43299867 .43518067V.4501953H.2749939V.43518067C.30499269 .43318177 .31498719 .42718507 .31498719 .4131775 .31498719 .40116883 .2999878 .38316346 .27799989 .34814454 .2679901 .33314515 .2579956 .31713868 .24798584 .30412293 .24398804 .3111267 .23899842 .31713868 .23399353 .32414247 .20498657 .36715699 .18798828 .400177 .18798828 .4131775 .18798828 .42819215 .20098877 .43418885 .23098755 .43518067V.4501953H.023986817V.43518067H.032989503C.06298828 .43518067 .07899475 .42218019 .10998535 .37516786L.20399475 .23109436 .08999634 .06600952C.06199646 .024993897 .049987794 .017990113 .016998291 .01499939V0H.1619873V.01499939C.1329956 .01499939 .12199402 .019989014 .12199402 .03300476 .12199402 .040008546 .12799073 .052001954 .14199829 .074020389L.22099304 .19708252 .31199647 .057006837C.31599427 .05101013 .31799317 .04600525 .31799317 .039001466 .31799317 .020996094 .31098939 .016998291 .27799989 .01499939V0H.47898866Z"/>
<path id="font_2_41" d="M.3039856-.16122437C.1639862-.04423523 .13398743 .06877136 .13398743 .254776 .13398743 .44776917 .16499329 .5407715 .3039856 .6597748L.29499818 .67578127C.1349945 .58078 .04798889 .43676759 .04798889 .25177003 .04798889 .08177185 .13398743-.0872345 .2919922-.17723084L.3039856-.16122437Z"/>
<path id="font_2_51" d="M.47399903 .13696289 .45999146 .1429596C.4269867 .08699036 .4059906 .07598877 .3639984 .07598877H.12998963L.29499818 .2519226C.38398744 .34588624 .4229889 .42085267 .4229889 .4998169 .4229889 .59877017 .35099793 .67578127 .23799134 .67578127 .114990238 .67578127 .050994874 .5937805 .02999878 .4768219L.050994874 .47183229C.09098816 .5697937 .12599182 .6017761 .19799805 .6017761 .2829895 .6017761 .33699037 .55178835 .33699037 .4608307 .33699037 .37586976 .30099488 .29989625 .20698548 .200943L.0289917 .011993408V0H.41999818L.47399903 .13696289Z"/>
<path id="font_2_45" d="M.08299255-.14086914C.1519928-.10786438 .19499207-.04486084 .19499207 .015136719 .19499207 .06713867 .1599884 .102127078 .114990238 .102127078 .07899475 .102127078 .054992677 .07913208 .054992677 .045135499 .054992677 .011138916 .07598877-.005859375 .11299133-.005859375 .12399292-.0059661867 .13398743-.001953125 .14199829-.001953125 .1499939-.001953125 .1559906-.007965088 .1559906-.014953613 .1559906-.047958375 .12799073-.08496094 .07299805-.1219635L.08299255-.14086914Z"/>
<path id="font_2_50" d="M.3939972 0V.01499939C.31900025 .01499939 .29899598 .032989503 .29899598 .07597351V.67277529L.2899933 .67578127 .11099243 .5847931V.5708008L.13798523 .5807953C.1559906 .5877991 .17298889 .59280398 .18299866 .59280398 .20399475 .59280398 .21299744 .57780459 .21299744 .543808V.0949707C.21299744 .039978029 .19198609 .018997193 .117996219 .01499939V0H.3939972Z"/>
<path id="font_2_42" d="M.0289917 .6597748C.17399597 .54577639 .19898987 .43077088 .19898987 .24377442 .19898987 .04977417 .17098999-.04423523 .0289917-.16122437L.037994386-.17723084C.19699097-.08023071 .2849884 .061767579 .2849884 .24676514 .2849884 .41677857 .19400025 .58377078 .040985109 .67578127L.0289917 .6597748Z"/>
<path id="font_2_2477" d="M.72299197 .65319827H.20298767L.19898987 .63819888H.21798706C.27799989 .63819888 .2939911 .62020877 .2939911 .5991821 .2939911 .59217837 .2919922 .58317568 .2899933 .5751648L.1659851 .07800293C.15699768 .04399109 .13598633 .015991211 .05999756 .015991211H.041992189L.037994386 0H.37998963L.38398744 .015991211H.35198976C.2919922 .015991211 .272995 .03199768 .272995 .056991579 .272995 .06399536 .27598573 .07199097 .2769928 .07800293L.33898927 .33203126H.43598939C.46499635 .33203126 .5059967 .32902528 .5059967 .28201295 .5059967 .26402284 .5039978 .23501587 .5009918 .2210083H.5169983L.57699587 .463089H.5609894C.5399933 .3780365 .49398805 .36802674 .43199159 .36802674H.34899903L.41099549 .61621096H.55799868C.6049957 .61621096 .6649933 .607193 .66799929 .5291443 .66799929 .5151367 .66799929 .5011139 .6669922 .4931183H.68299868L.72299197 .65319827Z"/>
<path id="font_2_49" d="M.47599793 .3300476C.47599793 .53486636 .3849945 .67578127 .2539978 .67578127 .09298706 .67578127 .023986817 .5128937 .023986817 .3360443 .023986817 .17218018 .07899475-.013671875 .25-.013671875 .41299439-.013671875 .47599793 .15818787 .47599793 .3300476M.37998963 .32505799C.37998963 .12722779 .33499146 .012313843 .25 .012313843 .1639862 .012313843 .11999512 .1262207 .11999512 .32904054 .11999512 .5318756 .16499329 .6497803 .24798584 .6497803 .33599855 .6497803 .37998963 .53286746 .37998963 .32505799Z"/>
<path id="font_2_47" d="M.18099976 .04324341C.18099976 .07325745 .15499878 .100250247 .12599182 .100250247 .09498596 .100250247 .069992069 .07525635 .069992069 .04425049 .069992069 .013244629 .09399414-.0107421879 .125-.0107421879 .15499878-.0107421879 .18099976 .014251709 .18099976 .04324341Z"/>
<path id="font_2_54" d="M.43798829 .68110659 .42900086 .6880951C.41299439 .667099 .4039917 .6621094 .3809967 .6621094H.17399597L.06498718 .4251709C.06498718 .4251709 .06399536 .42216493 .06399536 .42016603 .06399536 .4141693 .066986087 .4121704 .07598877 .4121704 .17199707 .4121704 .24198914 .380188 .2889862 .3421936 .33399964 .30621339 .35598756 .2562256 .35598756 .19226074 .35598756 .106292728 .29100038 .02331543 .22099304 .02331543 .20098877 .02331543 .17799378 .032318117 .1499939 .05531311 .117996219 .08129883 .09899902 .08630371 .07598877 .08630371 .04798889 .08630371 .0309906 .07330322 .0309906 .048309328 .0309906 .010314941 .08299255-.013671875 .1579895-.013671875 .22599793-.013671875 .2809906 .0013275147 .32798768 .035308839 .3959961 .08529663 .42599488 .14727783 .42599488 .24324036 .42599488 .29621888 .4169922 .334198 .3909912 .37019349 .33399964 .4491577 .28399659 .47114564 .14099121 .49813844L.18099976 .58309939H.375C.3909912 .58309939 .39898683 .58909609 .4019928 .59609988L.43798829 .68110659Z"/>
<path id="font_3_37" d="M.015991211 .6621094V.6430969C.09199524 .6381073 .10398865 .6291046 .10398865 .55007937V.11500549C.10398865 .036987306 .09399414 .023986817 .015991211 .018997193V0H.29699708C.397995 0 .4869995 .023986817 .548996 .06399536 .6380005 .1210022 .68499758 .21502686 .68499758 .3340454 .68499758 .4370575 .651001 .5150757 .58599856 .5710907 .5179901 .63009646 .4149933 .6621094 .28599549 .6621094H.015991211M.20599365 .5830841C.20599365 .6161041 .22099304 .6251068 .25898744 .6251068 .35899354 .6251068 .42199708 .60809329 .48098756 .5560913 .5439911 .5010834 .57598879 .43206788 .57598879 .3280487 .57598879 .21502686 .5419922 .13601685 .47200013 .08900452 .4119873 .04899597 .35699464 .036987306 .2539978 .036987306 .21499634 .036987306 .20599365 .04899597 .20599365 .083999637V.5830841Z"/>
<path id="font_3_74" d="M.17999268 .63204959C.17999268 .66004946 .1579895 .68304446 .1289978 .68304446 .100997928 .68304446 .07798767 .66004946 .07798767 .63204959 .07798767 .6030426 .099990848 .5810547 .12799073 .5810547 .1579895 .5810547 .17999268 .6030426 .17999268 .63204959M.25299073 0V.01499939C.18699646 .019989014 .1789856 .0309906 .1789856 .10499573V.45603944L.1749878 .46003724 .019989014 .4050293V.38902284C.037994386 .3940277 .052993776 .3940277 .06199646 .3940277 .08699036 .3940277 .09498596 .37802125 .09498596 .33102418V.104003909C.09498596 .027999878 .084991458 .018997193 .015991211 .01499939V0H.25299073Z"/>
<path id="font_3_68" d="M.397995 .15615845C.34999085 .08621216 .31399537 .06222534 .25698854 .06222534 .16499329 .06222534 .101989749 .14216614 .101989749 .25708009 .101989749 .3610077 .15699768 .43095399 .23799134 .43095399 .27398683 .43095399 .2869873 .41996766 .29699708 .3829956L.30299378 .3610077C.31098939 .33203126 .32899476 .31503297 .35099793 .31503297 .3769989 .31503297 .397995 .33403016 .397995 .3570099 .397995 .41296388 .32798768 .45996095 .24398804 .45996095 .19699097 .45996095 .14898682 .44195558 .10899353 .40896607 .054992677 .3639984 .024993897 .2950592 .024993897 .21211243 .024993897 .08320618 .10398865-.009765625 .21499634-.009765625 .2579956-.009765625 .29599 .0042266848 .32998658 .032226564 .3600006 .056228639 .37998963 .08520508 .4119873 .14717102L.397995 .15615845Z"/>
<path id="font_3_27" d="M.19198609 .40296937C.19198609 .4329834 .16699219 .45898438 .13699341 .45898438 .10499573 .45898438 .08099365 .4349823 .08099365 .40296937 .08099365 .37297059 .10699463 .34797669 .13699341 .34797669 .16699219 .34797669 .19198609 .37297059 .19198609 .40296937M.19198609 .04425049C.19198609 .07424927 .16699219 .100250247 .13699341 .100250247 .10499573 .100250247 .08099365 .07624817 .08099365 .04425049 .08099365 .014251709 .10699463-.0107421879 .13699341-.0107421879 .16699219-.0107421879 .19198609 .014251709 .19198609 .04425049Z"/>
<path id="font_2_3679" d="M.5029907-.24301148C.36898805-.07800293 .23399353 .18699646 .23399353 .6429901 .23399353 1.1009979 .36898805 1.394989 .5029907 1.5329895V1.5659943C.2899933 1.394989 .13899231 1.0429993 .13899231 .6429901 .13899231 .23399353 .2899933-.07901001 .5029907-.27900697V-.24301148Z"/>
<path id="font_2_52" d="M.06098938 .50987246C.101989749 .58380129 .147995 .61576846 .20999146 .61576846 .27598573 .61576846 .31799317 .58180239 .31799317 .51387026 .31799317 .45292665 .28599549 .40795899 .23699951 .37998963 .21699524 .36799623 .19099427 .3570099 .15299988 .34402467V.33003236C.20999146 .33003236 .23298645 .32704164 .25498963 .3200531 .32398988 .3000641 .35899354 .2511139 .35899354 .17518616 .35899354 .09025574 .30299378 .022323609 .22898865 .022323609 .20098877 .022323609 .17999268 .027313233 .14299011 .05329895 .114990238 .073272708 .09899902 .07926941 .08198547 .07926941 .05899048 .07926941 .040985109 .06428528 .040985109 .043304445 .040985109 .0073242189 .07998657-.013671875 .15299988-.013671875 .24198914-.013671875 .33699037 .015319824 .3849945 .07926941 .4139862 .11723328 .43099977 .16618347 .43099977 .21913147 .43099977 .27108766 .4149933 .31704713 .3869934 .34802247 .3659973 .36999513 .34799195 .38198854 .3039856 .40097047 .37098695 .44093324 .39698792 .4908905 .39698792 .5388489 .39698792 .6207733 .33399964 .67578127 .24099732 .67578127 .13699341 .67578127 .07398987 .6087799 .04499817 .51387026L.06098938 .50987246Z"/>
<path id="font_2_3680" d="M.11399841 1.5299988C.24798584 1.3649902 .3829956 1.1029968 .3829956 .6429901 .3829956 .18899536 .24798584-.10800171 .11399841-.2460022V-.27900697C.32699586-.10800171 .47799684 .24299622 .47799684 .6429901 .47799684 1.052002 .32699586 1.3659973 .11399841 1.5659943V1.5299988Z"/>
<path id="font_2_1159" d="M.96299746 .97299197H.9089966L.49499513-.09300232H.4909973L.2869873 .44299317H.2679901L.11199951 .31900025 .12399292 .29899598C.1459961 .31900025 .17199707 .32998658 .18899536 .32998658 .21398926 .32998658 .23399353 .31599427 .25099183 .2709961L.45298768-.2590027H.4850006L.96299746 .97299197Z"/>
<path id="font_2_55" d="M.44599916 .68470767C.30799867 .66970828 .22898865 .6457062 .14299011 .55570986 .07199097 .48269654 .033996583 .38771058 .033996583 .27960206 .033996583 .20951844 .052993776 .138443 .08099365 .087402347 .115997318 .023330689 .1789856-.013671875 .2579956-.013671875 .32398988-.013671875 .37998963 .013320923 .4169922 .05937195 .44999696 .09941101 .46798707 .1554718 .46798707 .2195282 .46798707 .34866334 .3959961 .42871095 .2789917 .42871095 .23498535 .42871095 .20098877 .42170716 .1519928 .3836975 .1789856 .5346985 .29100038 .6427002 .44799806 .6687012L.44599916 .68470767M.37799073 .18850708C.37799073 .08639526 .34098817 .014328003 .2689972 .014328003 .1749878 .014328003 .1269989 .11442566 .1269989 .2665863 .1269989 .3586731 .18598938 .3827057 .24299622 .3827057 .33599855 .3827057 .37799073 .31663514 .37799073 .18850708Z"/>
<path id="font_3_22" d="M.43798829 .68110659 .42900086 .6880951C.41299439 .667099 .4039917 .6621094 .3809967 .6621094H.17399597L.06498718 .4251709C.06498718 .4251709 .06399536 .42216493 .06399536 .42016603 .06399536 .4141693 .066986087 .4121704 .07598877 .4121704 .17199707 .4121704 .24198914 .380188 .2889862 .3421936 .33399964 .30621339 .35598756 .2562256 .35598756 .19226074 .35598756 .106292728 .29100038 .02331543 .22099304 .02331543 .20098877 .02331543 .17799378 .032318117 .1499939 .05531311 .117996219 .08129883 .09899902 .08630371 .07598877 .08630371 .04798889 .08630371 .0309906 .07330322 .0309906 .048309328 .0309906 .010314941 .08299255-.013671875 .1579895-.013671875 .22599793-.013671875 .2809906 .0013275147 .32798768 .035308839 .3959961 .08529663 .42599488 .14727783 .42599488 .24324036 .42599488 .29621888 .4169922 .334198 .3909912 .37019349 .33399964 .4491577 .28399659 .47114564 .14099121 .49813844L.18099976 .58309939H.375C.3909912 .58309939 .39898683 .58909609 .4019928 .59609988L.43798829 .68110659Z"/>
</defs>
<g clip-path="url(#clip_1)">
<path transform="matrix(1,0,0,-1,276.86,139.48499)" stroke-width=".79701" stroke-linecap="butt" stroke-miterlimit="10" stroke-linejoin="miter" fill="none" stroke="#000000" d="M-255.12133 0H123.4503"/>
<path transform="matrix(1,0,0,-1,397.8452,139.48499)" d="M5.44046 0 1.28699 1.5706 2.66432 0 1.28699-1.5706Z"/>
<path transform="matrix(1,0,0,-1,397.8452,139.48499)" stroke-width=".79701" stroke-linecap="butt" stroke-miterlimit="10" stroke-linejoin="miter" fill="none" stroke="#000000" d="M5.44046 0 1.28699 1.5706 2.66432 0 1.28699-1.5706Z"/>
<use data-text="&#x1d465;" xlink:href="#font_2_2520" transform="matrix(11.9552,0,0,-11.9552,408.804,142.06699)"/>
<path transform="matrix(1,0,0,-1,276.86,139.48499)" stroke-width=".79701" stroke-linecap="butt" stroke-miterlimit="10" stroke-linejoin="miter" fill="none" stroke="#000000" d="M0-127.56065V123.4503"/>
<path transform="matrix(0,-1,-1,-0,276.86,18.499756)" d="M5.44046 0 1.28699 1.5706 2.66432 0 1.28699-1.5706Z"/>
<path transform="matrix(0,-1,-1,-0,276.86,18.499756)" stroke-width=".79701" stroke-linecap="butt" stroke-miterlimit="10" stroke-linejoin="miter" fill="none" stroke="#000000" d="M5.44046 0 1.28699 1.5706 2.66432 0 1.28699-1.5706Z"/>
<use data-text="&#x1d466;" xlink:href="#font_2_2521" transform="matrix(11.9552,0,0,-11.9552,273.895,5.3529818)"/>
<use data-text="O" xlink:href="#font_3_48" transform="matrix(11.9552,0,0,-11.9552,264.03999,151.94599)"/>
<path transform="matrix(1,0,0,-1,276.86,139.48499)" stroke-width="1.59404" stroke-linecap="butt" stroke-miterlimit="10" stroke-linejoin="miter" fill="none" stroke="#ff0000" d="M-233.8612-44.28108-230.85529-40.80995-227.84935-37.4102-224.84345-34.07988-221.83751-30.82156-218.83159-27.63399-215.82567-24.51646-212.81974-21.4703-209.81383-18.49489-206.8079-15.59016-203.80197-12.75682-200.79605-9.99356-197.79012-7.30165-194.78421-4.68112-191.77829-2.13002-188.77236 .34904-185.76644 2.75871-182.76052 5.09636-179.75458 7.36264-176.74868 9.55951-173.74274 11.68501-170.73682 13.73914-167.7309 15.72318-164.72496 17.63585-161.71906 19.47847-158.71314 21.24971-155.7072 22.94958-152.70128 24.58005-149.69535 26.13847-146.68944 27.62683-143.68352 29.04382-140.67758 30.38947-137.67166 31.66566-134.66574 32.86984-131.6598 34.00333-128.6539 35.06671-125.64796 36.05873-122.64204 36.98068-119.63612 37.83063-116.63019 38.61049-113.62428 39.31964-110.61836 39.95741-107.61243 40.52449-104.6065 41.02081-101.60057 41.44644-98.59465 41.80133-95.58875 42.08485-92.58281 42.29767-89.57689 42.4404-86.57097 42.51178-83.56503 42.51242-80.55913 42.44235-77.55319 42.30092-74.54727 42.0894-71.54135 41.80652-68.53542 41.45227-65.52951 41.0286-62.52359 40.53291-59.51765 39.96715-56.51173 39.33002-53.5058 38.62216-50.49988 37.8436-47.49397 36.99431-44.48804 36.07367-41.48212 35.08293-38.4762 34.02083-35.47026 32.88867-32.46436 31.68512-29.45842 30.41023-26.4525 29.06525-23.44658 27.64955-20.44064 26.16248-17.43474 24.6047-14.42882 22.97618-11.42288 21.27698-8.41696 19.50702-5.41103 17.66571-2.4051 15.75432 .60077 13.77158 3.6067 11.71873 6.61263 9.5939 9.61855 7.39897 12.62448 5.13335 15.63039 2.79636 18.63632 .38797 21.64224-2.0898 24.64816-4.63895 27.6541-7.25885 30.66-9.9501 33.66594-12.71207 36.67186-15.54411 39.67778-18.44751 42.68372-21.42165 45.68964-24.46715 48.69554-27.58337 51.70148-30.76967 54.7074-34.02733 57.71333-37.35571 60.71925-40.7548 63.72516-44.22462"/>
<use data-text="&#x1d431;" xlink:href="#font_2_2469" transform="matrix(11.9552,0,0,-11.9552,34.076967,200.88298)" fill="#ff0000"/>
<use data-text="&#x1d7d0;" xlink:href="#font_2_3368" transform="matrix(8.9664,0,0,-8.9664,40.293977,196.09998)" fill="#ff0000"/>
<use data-text="+" xlink:href="#font_2_44" transform="matrix(11.9552,0,0,-11.9552,47.931978,200.88298)" fill="#ff0000"/>
<use data-text="&#x1d7d2;" xlink:href="#font_2_3370" transform="matrix(11.9552,0,0,-11.9552,58.77533,200.88298)" fill="#ff0000"/>
<use data-text="&#x1d431;" xlink:href="#font_2_2469" transform="matrix(11.9552,0,0,-11.9552,64.75293,200.88298)" fill="#ff0000"/>
<use data-text="+" xlink:href="#font_2_44" transform="matrix(11.9552,0,0,-11.9552,73.62369,200.88298)" fill="#ff0000"/>
<use data-text="&#x1d7d4;" xlink:href="#font_2_3372" transform="matrix(11.9552,0,0,-11.9552,84.46704,200.88298)" fill="#ff0000"/>
<use data-text="&#x1d432;" xlink:href="#font_2_2470" transform="matrix(11.9552,0,0,-11.9552,90.44464,200.88298)" fill="#ff0000"/>
<use data-text="&#x2212;" xlink:href="#font_2_1151" transform="matrix(11.9552,0,0,-11.9552,99.32736,200.88298)" fill="#ff0000"/>
<use data-text="&#x1d7d0;" xlink:href="#font_2_3368" transform="matrix(11.9552,0,0,-11.9552,110.170719,200.88298)" fill="#ff0000"/>
<use data-text="=" xlink:href="#font_2_62" transform="matrix(11.9552,0,0,-11.9552,119.47186,200.88298)" fill="#ff0000"/>
<use data-text="&#x1d7ce;" xlink:href="#font_2_3366" transform="matrix(11.9552,0,0,-11.9552,130.97275,200.88298)" fill="#ff0000"/>
<path transform="matrix(1,0,0,-1,276.86,139.48499)" stroke-width=".79701" stroke-linecap="butt" stroke-dasharray="2.98883,2.98883" stroke-miterlimit="10" stroke-linejoin="miter" fill="none" stroke="#000000" d="M-85.04044 0V42.52022H0"/>
<path transform="matrix(1,0,0,-1,276.86,139.48499)" d="M-83.54602 42.52022C-83.54602 43.34557-84.21509 44.01463-85.04044 44.01463-85.86578 44.01463-86.53485 43.34557-86.53485 42.52022-86.53485 41.69487-85.86578 41.0258-85.04044 41.0258-84.21509 41.0258-83.54602 41.69487-83.54602 42.52022ZM-85.04044 42.52022"/>
<path transform="matrix(1,0,0,-1,276.86,139.48499)" stroke-width=".3985" stroke-linecap="butt" stroke-miterlimit="10" stroke-linejoin="miter" fill="none" stroke="#000000" d="M-83.54602 42.52022C-83.54602 43.34557-84.21509 44.01463-85.04044 44.01463-85.86578 44.01463-86.53485 43.34557-86.53485 42.52022-86.53485 41.69487-85.86578 41.0258-85.04044 41.0258-84.21509 41.0258-83.54602 41.69487-83.54602 42.52022ZM-85.04044 42.52022"/>
<use data-text="V" xlink:href="#font_3_55" transform="matrix(11.9552,0,0,-11.9552,157.92198,90.664989)"/>
<use data-text="e" xlink:href="#font_3_70" transform="matrix(11.9552,0,0,-11.9552,165.72872,90.664989)"/>
<use data-text="r" xlink:href="#font_3_83" transform="matrix(11.9552,0,0,-11.9552,171.03682,90.664989)"/>
<use data-text="t" xlink:href="#font_3_85" transform="matrix(11.9552,0,0,-11.9552,175.2809,90.664989)"/>
<use data-text="e" xlink:href="#font_3_70" transform="matrix(11.9552,0,0,-11.9552,178.60445,90.664989)"/>
<use data-text="x" xlink:href="#font_3_89" transform="matrix(11.9552,0,0,-11.9552,183.67345,90.664989)"/>
<use data-text="(" xlink:href="#font_2_41" transform="matrix(11.9552,0,0,-11.9552,192.62798,90.664989)"/>
<use data-text="&#x2212;" xlink:href="#font_2_1151" transform="matrix(11.9552,0,0,-11.9552,196.60906,90.664989)"/>
<use data-text="2" xlink:href="#font_2_51" transform="matrix(11.9552,0,0,-11.9552,204.79836,90.664989)"/>
<use data-text="," xlink:href="#font_2_45" transform="matrix(11.9552,0,0,-11.9552,210.77596,90.664989)"/>
<use data-text="1" xlink:href="#font_2_50" transform="matrix(11.9552,0,0,-11.9552,215.74932,90.664989)"/>
<use data-text=")" xlink:href="#font_2_42" transform="matrix(11.9552,0,0,-11.9552,221.72692,90.664989)"/>
<path transform="matrix(1,0,0,-1,276.86,139.48499)" d="M-83.54602-21.2601C-83.54602-20.43475-84.21509-19.76569-85.04044-19.76569-85.86578-19.76569-86.53485-20.43475-86.53485-21.2601-86.53485-22.08545-85.86578-22.75452-85.04044-22.75452-84.21509-22.75452-83.54602-22.08545-83.54602-21.2601ZM-85.04044-21.2601" fill="#0000ff"/>
<path transform="matrix(1,0,0,-1,276.86,139.48499)" stroke-width=".3985" stroke-linecap="butt" stroke-miterlimit="10" stroke-linejoin="miter" fill="none" stroke="#0000ff" d="M-83.54602-21.2601C-83.54602-20.43475-84.21509-19.76569-85.04044-19.76569-85.86578-19.76569-86.53485-20.43475-86.53485-21.2601-86.53485-22.08545-85.86578-22.75452-85.04044-22.75452-84.21509-22.75452-83.54602-22.08545-83.54602-21.2601ZM-85.04044-21.2601"/>
<use data-text="&#x1d439;" xlink:href="#font_2_2477" transform="matrix(11.9552,0,0,-11.9552,196.00399,173.15399)" fill="#0000ff"/>
<use data-text="(" xlink:href="#font_2_41" transform="matrix(11.9552,0,0,-11.9552,205.12578,173.15399)" fill="#0000ff"/>
<use data-text="&#x2212;" xlink:href="#font_2_1151" transform="matrix(11.9552,0,0,-11.9552,209.10686,173.15399)" fill="#0000ff"/>
<use data-text="2" xlink:href="#font_2_51" transform="matrix(11.9552,0,0,-11.9552,217.29616,173.15399)" fill="#0000ff"/>
<use data-text="," xlink:href="#font_2_45" transform="matrix(11.9552,0,0,-11.9552,223.27376,173.15399)" fill="#0000ff"/>
<use data-text="&#x2212;" xlink:href="#font_2_1151" transform="matrix(11.9552,0,0,-11.9552,228.24712,173.15399)" fill="#0000ff"/>
<use data-text="0" xlink:href="#font_2_49" transform="matrix(11.9552,0,0,-11.9552,236.43642,173.15399)" fill="#0000ff"/>
<use data-text="." xlink:href="#font_2_47" transform="matrix(11.9552,0,0,-11.9552,242.41402,173.15399)" fill="#0000ff"/>
<use data-text="5" xlink:href="#font_2_54" transform="matrix(11.9552,0,0,-11.9552,245.40282,173.15399)" fill="#0000ff"/>
<use data-text=")" xlink:href="#font_2_42" transform="matrix(11.9552,0,0,-11.9552,251.38042,173.15399)" fill="#0000ff"/>
<path transform="matrix(1,0,0,-1,276.86,139.48499)" stroke-width=".79701" stroke-linecap="butt" stroke-dasharray="2.98883,2.98883" stroke-miterlimit="10" stroke-linejoin="miter" fill="none" stroke="#0000ff" d="M-255.12133 106.30054H127.56065"/>
<use data-text="D" xlink:href="#font_3_37" transform="matrix(11.9552,0,0,-11.9552,313.66099,26.612984)" fill="#0000ff"/>
<use data-text="i" xlink:href="#font_3_74" transform="matrix(11.9552,0,0,-11.9552,322.29264,26.612984)" fill="#0000ff"/>
<use data-text="r" xlink:href="#font_3_83" transform="matrix(11.9552,0,0,-11.9552,325.61619,26.612984)" fill="#0000ff"/>
<use data-text="e" xlink:href="#font_3_70" transform="matrix(11.9552,0,0,-11.9552,329.5853,26.612984)" fill="#0000ff"/>
<use data-text="c" xlink:href="#font_3_68" transform="matrix(11.9552,0,0,-11.9552,334.8934,26.612984)" fill="#0000ff"/>
<use data-text="t" xlink:href="#font_3_85" transform="matrix(11.9552,0,0,-11.9552,340.2015,26.612984)" fill="#0000ff"/>
<use data-text="r" xlink:href="#font_3_83" transform="matrix(11.9552,0,0,-11.9552,343.52507,26.612984)" fill="#0000ff"/>
<use data-text="i" xlink:href="#font_3_74" transform="matrix(11.9552,0,0,-11.9552,347.7213,26.612984)" fill="#0000ff"/>
<use data-text="x" xlink:href="#font_3_89" transform="matrix(11.9552,0,0,-11.9552,351.04487,26.612984)" fill="#0000ff"/>
<use data-text=":" xlink:href="#font_3_27" transform="matrix(11.9552,0,0,-11.9552,357.02247,26.612984)" fill="#0000ff"/>
<use data-text="&#x1d466;" xlink:href="#font_2_2521" transform="matrix(11.9552,0,0,-11.9552,364.33097,26.612984)" fill="#0000ff"/>
<use data-text="=" xlink:href="#font_2_62" transform="matrix(11.9552,0,0,-11.9552,373.57234,26.612984)" fill="#0000ff"/>
<use data-text="2" xlink:href="#font_2_51" transform="matrix(11.9552,0,0,-11.9552,385.08518,26.612984)" fill="#0000ff"/>
<use data-text="." xlink:href="#font_2_47" transform="matrix(11.9552,0,0,-11.9552,391.06278,26.612984)" fill="#0000ff"/>
<use data-text="5" xlink:href="#font_2_54" transform="matrix(11.9552,0,0,-11.9552,394.05158,26.612984)" fill="#0000ff"/>
<path transform="matrix(1,0,0,-1,276.86,139.48499)" stroke-width=".79701" stroke-linecap="butt" stroke-dasharray=".79701,1.99255" stroke-miterlimit="10" stroke-linejoin="miter" fill="none" stroke="#008000" d="M-212.6011-21.2601H42.52022"/>
<path transform="matrix(1,0,0,-1,276.86,139.48499)" d="M-211.10669-21.2601C-211.10669-20.43475-211.77576-19.76569-212.6011-19.76569-213.42646-19.76569-214.09552-20.43475-214.09552-21.2601-214.09552-22.08545-213.42646-22.75452-212.6011-22.75452-211.77576-22.75452-211.10669-22.08545-211.10669-21.2601ZM-212.6011-21.2601" fill="#008000"/>
<path transform="matrix(1,0,0,-1,276.86,139.48499)" stroke-width=".3985" stroke-linecap="butt" stroke-miterlimit="10" stroke-linejoin="miter" fill="none" stroke="#008000" d="M-211.10669-21.2601C-211.10669-20.43475-211.77576-19.76569-212.6011-19.76569-213.42646-19.76569-214.09552-20.43475-214.09552-21.2601-214.09552-22.08545-213.42646-22.75452-212.6011-22.75452-211.77576-22.75452-211.10669-22.08545-211.10669-21.2601ZM-212.6011-21.2601"/>
<use data-text="(" xlink:href="#font_2_41" transform="matrix(11.9552,0,0,-11.9552,9.830994,173.15399)" fill="#008000"/>
<use data-text="&#x2212;" xlink:href="#font_2_1151" transform="matrix(11.9552,0,0,-11.9552,13.812073,173.15399)" fill="#008000"/>
<use data-text="5" xlink:href="#font_2_54" transform="matrix(11.9552,0,0,-11.9552,22.001374,173.15399)" fill="#008000"/>
<use data-text="," xlink:href="#font_2_45" transform="matrix(11.9552,0,0,-11.9552,27.978974,173.15399)" fill="#008000"/>
<use data-text="&#x2212;" xlink:href="#font_2_1151" transform="matrix(11.9552,0,0,-11.9552,32.95233,173.15399)" fill="#008000"/>
<use data-text="0" xlink:href="#font_2_49" transform="matrix(11.9552,0,0,-11.9552,41.141633,173.15399)" fill="#008000"/>
<use data-text="." xlink:href="#font_2_47" transform="matrix(11.9552,0,0,-11.9552,47.119234,173.15399)" fill="#008000"/>
<use data-text="5" xlink:href="#font_2_54" transform="matrix(11.9552,0,0,-11.9552,50.108034,173.15399)" fill="#008000"/>
<use data-text=")" xlink:href="#font_2_42" transform="matrix(11.9552,0,0,-11.9552,56.085634,173.15399)" fill="#008000"/>
<path transform="matrix(1,0,0,-1,276.86,139.48499)" d="M44.01463-21.2601C44.01463-20.43475 43.34557-19.76569 42.52022-19.76569 41.69487-19.76569 41.0258-20.43475 41.0258-21.2601 41.0258-22.08545 41.69487-22.75452 42.52022-22.75452 43.34557-22.75452 44.01463-22.08545 44.01463-21.2601ZM42.52022-21.2601" fill="#008000"/>
<path transform="matrix(1,0,0,-1,276.86,139.48499)" stroke-width=".3985" stroke-linecap="butt" stroke-miterlimit="10" stroke-linejoin="miter" fill="none" stroke="#008000" d="M44.01463-21.2601C44.01463-20.43475 43.34557-19.76569 42.52022-19.76569 41.69487-19.76569 41.0258-20.43475 41.0258-21.2601 41.0258-22.08545 41.69487-22.75452 42.52022-22.75452 43.34557-22.75452 44.01463-22.08545 44.01463-21.2601ZM42.52022-21.2601"/>
<use data-text="(" xlink:href="#font_2_41" transform="matrix(11.9552,0,0,-11.9552,323.564,173.15399)" fill="#008000"/>
<use data-text="1" xlink:href="#font_2_50" transform="matrix(11.9552,0,0,-11.9552,327.54508,173.15399)" fill="#008000"/>
<use data-text="," xlink:href="#font_2_45" transform="matrix(11.9552,0,0,-11.9552,333.52268,173.15399)" fill="#008000"/>
<use data-text="&#x2212;" xlink:href="#font_2_1151" transform="matrix(11.9552,0,0,-11.9552,338.49604,173.15399)" fill="#008000"/>
<use data-text="0" xlink:href="#font_2_49" transform="matrix(11.9552,0,0,-11.9552,346.68534,173.15399)" fill="#008000"/>
<use data-text="." xlink:href="#font_2_47" transform="matrix(11.9552,0,0,-11.9552,352.66294,173.15399)" fill="#008000"/>
<use data-text="5" xlink:href="#font_2_54" transform="matrix(11.9552,0,0,-11.9552,355.65174,173.15399)" fill="#008000"/>
<use data-text=")" xlink:href="#font_2_42" transform="matrix(11.9552,0,0,-11.9552,361.62934,173.15399)" fill="#008000"/>
<path transform="matrix(1,0,0,-1,276.86,139.48499)" d="M1.49442 14.17317C1.49442 14.99852 .82533 15.66759 0 15.66759-.82533 15.66759-1.49442 14.99852-1.49442 14.17317-1.49442 13.34782-.82533 12.67876 0 12.67876 .82533 12.67876 1.49442 13.34782 1.49442 14.17317ZM0 14.17317"/>
<path transform="matrix(1,0,0,-1,276.86,139.48499)" stroke-width=".3985" stroke-linecap="butt" stroke-miterlimit="10" stroke-linejoin="miter" fill="none" stroke="#000000" d="M1.49442 14.17317C1.49442 14.99852 .82533 15.66759 0 15.66759-.82533 15.66759-1.49442 14.99852-1.49442 14.17317-1.49442 13.34782-.82533 12.67876 0 12.67876 .82533 12.67876 1.49442 13.34782 1.49442 14.17317ZM0 14.17317"/>
<use data-text="(" xlink:href="#font_2_3679" transform="matrix(11.9552,0,0,-11.9552,282.03999,128.02399)"/>
<use data-text="0" xlink:href="#font_2_49" transform="matrix(11.9552,0,0,-11.9552,289.08198,123.319988)"/>
<use data-text="," xlink:href="#font_2_45" transform="matrix(11.9552,0,0,-11.9552,295.05958,123.319988)"/>
<use data-text="1" xlink:href="#font_2_50" transform="matrix(11.9552,0,0,-11.9552,301.23698,116.38499)"/>
<path transform="matrix(1,0,0,-1,-12.82,-20.055016)" stroke-width=".789" stroke-linecap="butt" stroke-miterlimit="10" stroke-linejoin="miter" fill="none" stroke="#000000" d="M314.057-140.386H320.034"/>
<use data-text="3" xlink:href="#font_2_52" transform="matrix(11.9552,0,0,-11.9552,301.237,131.689)"/>
<use data-text=")" xlink:href="#font_2_3680" transform="matrix(11.9552,0,0,-11.9552,308.41,128.02399)"/>
<path transform="matrix(1,0,0,-1,276.86,139.48499)" d="M20.60631 0C20.60631 .82533 19.93724 1.49442 19.1119 1.49442 18.28654 1.49442 17.61748 .82533 17.61748 0 17.61748-.82533 18.28654-1.49442 19.1119-1.49442 19.93724-1.49442 20.60631-.82533 20.60631 0ZM19.1119 0"/>
<path transform="matrix(1,0,0,-1,276.86,139.48499)" stroke-width=".3985" stroke-linecap="butt" stroke-miterlimit="10" stroke-linejoin="miter" fill="none" stroke="#000000" d="M20.60631 0C20.60631 .82533 19.93724 1.49442 19.1119 1.49442 18.28654 1.49442 17.61748 .82533 17.61748 0 17.61748-.82533 18.28654-1.49442 19.1119-1.49442 19.93724-1.49442 20.60631-.82533 20.60631 0ZM19.1119 0"/>
<use data-text="(" xlink:href="#font_2_41" transform="matrix(11.9552,0,0,-11.9552,320.081,157.33399)"/>
<use data-text="&#x2212;" xlink:href="#font_2_1151" transform="matrix(11.9552,0,0,-11.9552,324.06208,157.33399)"/>
<use data-text="2" xlink:href="#font_2_51" transform="matrix(11.9552,0,0,-11.9552,332.25138,157.33399)"/>
<use data-text="+" xlink:href="#font_2_44" transform="matrix(11.9552,0,0,-11.9552,340.88304,157.33399)"/>
<use data-text="&#x221a;" xlink:href="#font_2_1159" transform="matrix(11.9552,0,0,-11.9552,351.733,156.08998)"/>
<path transform="matrix(1,0,0,-1,25.221,13.958986)" stroke-width=".789" stroke-linecap="butt" stroke-miterlimit="10" stroke-linejoin="miter" fill="none" stroke="#000000" d="M337.606-130.894H343.584"/>
<use data-text="6" xlink:href="#font_2_55" transform="matrix(11.9552,0,0,-11.9552,362.827,157.33399)"/>
<use data-text="," xlink:href="#font_2_45" transform="matrix(11.9552,0,0,-11.9552,368.8046,157.33399)"/>
<use data-text="0" xlink:href="#font_2_49" transform="matrix(11.9552,0,0,-11.9552,373.77796,157.33399)"/>
<use data-text=")" xlink:href="#font_2_42" transform="matrix(11.9552,0,0,-11.9552,379.75556,157.33399)"/>
<path transform="matrix(1,0,0,-1,276.86,139.48499)" d="M-187.69837 0C-187.69837 .82533-188.36743 1.49442-189.19278 1.49442-190.01813 1.49442-190.6872 .82533-190.6872 0-190.6872-.82533-190.01813-1.49442-189.19278-1.49442-188.36743-1.49442-187.69837-.82533-187.69837 0ZM-189.19278 0"/>
<path transform="matrix(1,0,0,-1,276.86,139.48499)" stroke-width=".3985" stroke-linecap="butt" stroke-miterlimit="10" stroke-linejoin="miter" fill="none" stroke="#000000" d="M-187.69837 0C-187.69837 .82533-188.36743 1.49442-189.19278 1.49442-190.01813 1.49442-190.6872 .82533-190.6872 0-190.6872-.82533-190.01813-1.49442-189.19278-1.49442-188.36743-1.49442-187.69837-.82533-187.69837 0ZM-189.19278 0"/>
<use data-text="(" xlink:href="#font_2_41" transform="matrix(11.9552,0,0,-11.9552,-.10601807,157.33399)"/>
<use data-text="&#x2212;" xlink:href="#font_2_1151" transform="matrix(11.9552,0,0,-11.9552,3.875061,157.33399)"/>
<use data-text="2" xlink:href="#font_2_51" transform="matrix(11.9552,0,0,-11.9552,12.064362,157.33399)"/>
<use data-text="&#x2212;" xlink:href="#font_2_1151" transform="matrix(11.9552,0,0,-11.9552,20.696015,157.33399)"/>
<use data-text="&#x221a;" xlink:href="#font_2_1159" transform="matrix(11.9552,0,0,-11.9552,31.54599,156.08998)"/>
<path transform="matrix(1,0,0,-1,-294.966,13.958986)" stroke-width=".789" stroke-linecap="butt" stroke-miterlimit="10" stroke-linejoin="miter" fill="none" stroke="#000000" d="M337.606-130.894H343.584"/>
<use data-text="6" xlink:href="#font_2_55" transform="matrix(11.9552,0,0,-11.9552,42.639986,157.33399)"/>
<use data-text="," xlink:href="#font_2_45" transform="matrix(11.9552,0,0,-11.9552,48.617586,157.33399)"/>
<use data-text="0" xlink:href="#font_2_49" transform="matrix(11.9552,0,0,-11.9552,53.590944,157.33399)"/>
<use data-text=")" xlink:href="#font_2_42" transform="matrix(11.9552,0,0,-11.9552,59.568544,157.33399)"/>
<use data-text="5" xlink:href="#font_3_22" transform="matrix(11.9552,0,0,-11.9552,204.649,723.888)"/>
</g>
</svg>
