<svg xmlns="http://www.w3.org/2000/svg" xmlns:xlink="http://www.w3.org/1999/xlink" xmlns:inkscape="http://www.inkscape.org/namespaces/inkscape" version="1.1" width="254" height="229" viewBox="0 0 254 229">
<defs>
<clipPath id="clip_1">
<path transform="matrix(1,0,0,-1,-171,770)" d="M0 0H595.28V841.89H0Z"/>
</clipPath>
<path id="font_2_34" d="M.70700076 0V.018997193C.6549988 .024993897 .6409912 .04597473 .61299136 .11091614L.36698915 .6738281H.34700013L.14099121 .18585205C.08198547 .04597473 .07299805 .024993897 .01499939 .018997193V0H.21398926V.018997193C.1659851 .018997193 .14399719 .0289917 .14399719 .059951784 .14399719 .07194519 .147995 .08892822 .15299988 .10192871L.19898987 .21583557H.46099855L.5019989 .121902469C.5139923 .093933109 .5209961 .06695557 .5209961 .051971437 .5209961 .04296875 .5149994 .031982423 .5069885 .02798462 .49499513 .020996094 .48799134 .018997193 .45199586 .018997193V0H.70700076M.44699098 .25683595H.21598816L.33099366 .53182986 .44699098 .25683595Z"/>
<path id="font_2_89" d="M.47898866 0V.01499939C.44799806 .01499939 .4249878 .03199768 .39698792 .07501221L.2689972 .27111817 .35198976 .39117433C.37098695 .41818238 .40098573 .43418885 .43299867 .43518067V.4501953H.2749939V.43518067C.30499269 .43318177 .31498719 .42718507 .31498719 .4131775 .31498719 .40116883 .2999878 .38316346 .27799989 .34814454 .2679901 .33314515 .2579956 .31713868 .24798584 .30412293 .24398804 .3111267 .23899842 .31713868 .23399353 .32414247 .20498657 .36715699 .18798828 .400177 .18798828 .4131775 .18798828 .42819215 .20098877 .43418885 .23098755 .43518067V.4501953H.023986817V.43518067H.032989503C.06298828 .43518067 .07899475 .42218019 .10998535 .37516786L.20399475 .23109436 .08999634 .06600952C.06199646 .024993897 .049987794 .017990113 .016998291 .01499939V0H.1619873V.01499939C.1329956 .01499939 .12199402 .019989014 .12199402 .03300476 .12199402 .040008546 .12799073 .052001954 .14199829 .074020389L.22099304 .19708252 .31199647 .057006837C.31599427 .05101013 .31799317 .04600525 .31799317 .039001466 .31799317 .020996094 .31098939 .016998291 .27799989 .01499939V0H.47898866Z"/>
<path id="font_2_74" d="M.17999268 .63204959C.17999268 .66004946 .1579895 .68304446 .1289978 .68304446 .100997928 .68304446 .07798767 .66004946 .07798767 .63204959 .07798767 .6030426 .099990848 .5810547 .12799073 .5810547 .1579895 .5810547 .17999268 .6030426 .17999268 .63204959M.25299073 0V.01499939C.18699646 .019989014 .1789856 .0309906 .1789856 .10499573V.45603944L.1749878 .46003724 .019989014 .4050293V.38902284C.037994386 .3940277 .052993776 .3940277 .06199646 .3940277 .08699036 .3940277 .09498596 .37802125 .09498596 .33102418V.104003909C.09498596 .027999878 .084991458 .018997193 .015991211 .01499939V0H.25299073Z"/>
<path id="font_2_84" d="M.1559906 .3010559C.12799073 .31803895 .11299133 .34703065 .11299133 .36901856 .11299133 .4159851 .14498902 .4369812 .18798828 .4369812 .24798584 .4369812 .27799989 .4039917 .30099488 .31404115H.31599427L.31098939 .4499817H.2999878C.2919922 .440979 .28799439 .43997193 .28399659 .43997193 .2769928 .43997193 .2669983 .4429779 .2559967 .4479828 .23498535 .4579773 .21299744 .45898438 .18899536 .45898438 .10699463 .45898438 .050994874 .4149933 .050994874 .33602906 .050994874 .2850647 .08799744 .23709107 .17098999 .19111634L.22499085 .16113281C.2579956 .1431427 .27799989 .11715698 .27799989 .08618164 .27799989 .045211793 .24598694 .01222229 .19499207 .01222229 .12599182 .01222229 .08898926 .05619812 .067993167 .1531372H.051986696V-.003768921H.06498718C.070999149 .006225586 .07699585 .008224487 .08898926 .008224487 .099990848 .008224487 .11099243 .007232666 .1349945-.00077819827 .1579895-.008773804 .18699646-.009765625 .20799256-.009765625 .28399659-.009765625 .34799195 .048202516 .34799195 .11515808 .34799195 .1721344 .32398988 .19911194 .2599945 .23809815L.1559906 .3010559Z"/>
<path id="font_3_37" d="M.01399231 .67578127V.6507721C.07798767 .6447754 .09700012 .629776 .09700012 .58380129V.097976688C.09700012 .049987794 .07199097 .026992798 .01399231 .024993897V0H.32299806C.42399598 0 .5139923 .027999878 .57499697 .08097839 .6469879 .14395142 .6899872 .24191284 .6899872 .34487916 .6899872 .55081179 .55400088 .67578127 .32598878 .67578127H.01399231M.25898744 .5977936C.25898744 .6257782 .272995 .6417694 .31199647 .6417694 .3869934 .6417694 .43699647 .60679629 .47499085 .54081729 .5039978 .48983766 .5159912 .41586305 .5159912 .32989503 .5159912 .24191284 .49699403 .15194702 .46598817 .10696411 .43199159 .05899048 .3829956 .034988405 .31698609 .034988405 .27198792 .034988405 .25898744 .054992677 .25898744 .099975589V.5977936Z"/>
<path id="font_3_74" d="M.21499634 .6134033C.21499634 .6564026 .18099976 .69140627 .13899231 .69140627 .09399414 .69140627 .05999756 .6573944 .05999756 .6134033 .05999756 .569397 .09298706 .5363922 .13699341 .5363922 .18099976 .5363922 .21499634 .569397 .21499634 .6134033M.2559967 0V.023986817C.22099304 .0289917 .20799256 .041992189 .20799256 .0849762V.4609375H.01499939V.43693543C.05899048 .42793275 .068984989 .41793824 .068984989 .37294007V.08798218C.068984989 .041992189 .06199646 .034988405 .015991211 .023986817V0H.2559967Z"/>
<path id="font_3_83" d="M.21798706 .4609375H.027999878V.43693543C.070999149 .43093873 .08299255 .41993714 .08299255 .37294007V.083984378C.08299255 .04298401 .07299805 .03199768 .0289917 .023986817V0H.2939911V.023986817C.23298645 .02798462 .22200012 .041992189 .22200012 .10597229V.28295899C.22200012 .34194947 .24798584 .38693238 .2829895 .38693238 .29100038 .38693238 .2999878 .38194276 .31098939 .36393739 .32798768 .33595277 .34498597 .325943 .37098695 .325943 .4079895 .325943 .43399049 .35394288 .43399049 .39393617 .43399049 .4396515 .3999939 .47265626 .35299684 .47265626 .30299378 .47265626 .2649994 .44665528 .21798706 .37864686V.4609375Z"/>
<path id="font_3_70" d="M.40299989 .12625122C.3619995 .077301029 .33099366 .05831909 .28799439 .05831909 .18998719 .05831909 .1749878 .15022278 .16899109 .24511719H.42099C.4169922 .31900025 .39898683 .38182069 .3619995 .42269898 .33299256 .45465089 .2919922 .47265626 .23399353 .47265626 .10899353 .47265626 .024993897 .3728485 .024993897 .22413635 .024993897 .08728027 .10798645-.013671875 .22898865-.013671875 .31399537-.013671875 .36698915 .017318726 .4269867 .11225891L.40299989 .12625122M.2979889 .2821045H.1639862C.1639862 .40176393 .18798828 .4416504 .23399353 .4416504 .2630005 .4416504 .2749939 .42469789 .2889862 .39479066 .2979889 .37583924 .2979889 .35490418 .2979889 .3030548V.2821045Z"/>
<path id="font_3_68" d="M.4119873 .10922241C.375 .06729126 .34599305 .05331421 .30499269 .05331421 .21798706 .05331421 .1659851 .13717652 .1659851 .27293397 .1659851 .38175965 .20098877 .4416504 .25 .4416504 .2919922 .4416504 .2919922 .4186859 .2919922 .37176515 .2919922 .32385255 .31399537 .29888917 .34799195 .29888917 .3899994 .29888917 .41600038 .32385255 .41600038 .36279298 .41600038 .42668153 .34899903 .47265626 .2619934 .47265626 .1289978 .47265626 .024993897 .37077333 .024993897 .22203064 .024993897 .07926941 .11399841-.013671875 .23899842-.013671875 .31900025-.013671875 .375 .016326905 .42999269 .09124756L.4119873 .10922241Z"/>
<path id="font_3_85" d="M.30699159 .11222839C.2869873 .07426453 .2709961 .059280397 .25 .059280397 .22200012 .059280397 .21099854 .07925415 .21099854 .11921692V.41693116H.30599977V.4609375H.21099854V.6299286H.18598938C.12799073 .54592898 .09098816 .49293519 .018997193 .44392396V.41693116H.07199097V.09524536C.07199097 .028274537 .114990238-.01171875 .18399048-.01171875 .25099183-.01171875 .29100038 .01927185 .33198548 .10122681L.30699159 .11222839Z"/>
<path id="font_3_89" d="M.48399354 0V.023986817C.46798707 .0289917 .46099855 .032989503 .45399476 .04399109L.30599977 .2719574 .40699769 .39793397C.42599488 .42092896 .44599916 .43193055 .47698976 .43693543V.4609375H.30899049V.43693543L.32899476 .43493653C.35198976 .43293763 .3600006 .42793275 .3600006 .41293336 .3600006 .39793397 .34899903 .38394166 .32199098 .348938L.28599549 .302948C.28199769 .3089447 .2769928 .31495667 .272995 .3199463 .23999024 .36294557 .21499634 .40493775 .21499634 .41793824 .21499634 .42993165 .22898865 .43592835 .2619934 .43693543V.4609375H.011993408V.43693543C.037994386 .43293763 .04399109 .42793275 .06399536 .39793397L.19198609 .20095825C.1769867 .18296814 .18499756 .19197083 .16999817 .17297364 .15499878 .15397644 .14099121 .13597107 .1269989 .11697388 .070999149 .041992189 .050994874 .025985718 .01399231 .023986817V0H.18299866V.023986817C.14698792 .025985718 .1329956 .032989503 .1329956 .04798889 .1329956 .0639801 .1579895 .10397339 .19699097 .15097046 .20298767 .15797425 .20799256 .16497803 .21299744 .17097473 .22599793 .14997864 .23999024 .12898255 .25498963 .10798645 .2789917 .07298279 .28799439 .055984498 .28799439 .04399109 .28799439 .03199768 .2749939 .025985718 .24299622 .023986817V0H.48399354Z"/>
<path id="font_3_55" d="M.70098879 .67578127H.48799134V.6507721C.5589905 .6457825 .57398989 .63879397 .57398989 .6068268 .57398989 .5908356 .57099917 .57984927 .55400088 .5358887L.4269867 .20721436 .2889862 .5408783C.2689972 .58883669 .2659912 .5978241 .2659912 .6128082 .2659912 .63578799 .2809906 .6467743 .31900025 .6487732L.35198976 .6507721V.67578127H.015991211V.6507721C.06599426 .64378359 .07598877 .63679507 .099990848 .58084109L.35598756-.017578125H.3829956L.61099246 .5688629C.6349945 .63079836 .6489868 .64378359 .70098879 .6507721V.67578127Z"/>
<path id="font_3_39" d="M.58299258 .47383119V.67578127H.015991211V.6507721C.084991458 .6467743 .10398865 .632782 .10398865 .5747986V.10296631C.10398865 .04698181 .08999634 .032989503 .015991211 .024993897V0H.37599183V.024993897C.28399659 .0289917 .2659912 .04399109 .2659912 .10096741V.32888795C.36799623 .32688905 .40899659 .29190064 .4189911 .17393494H.44400025V.5118103H.4189911C.40499879 .39886476 .3659973 .36286927 .2659912 .36286927V.5907898C.2659912 .6277771 .2849884 .6417694 .33599855 .6417694 .42399598 .6417694 .46798707 .629776 .49899293 .6027832 .5339966 .5727997 .54499819 .5498047 .5589905 .47383119H.58299258Z"/>
<path id="font_3_80" d="M.47599793 .22898865C.47599793 .37075807 .37998963 .47265626 .2539978 .47265626 .12199402 .47265626 .024993897 .37376405 .024993897 .22798157 .024993897 .08621216 .125-.013671875 .25-.013671875 .3789978-.013671875 .47599793 .08821106 .47599793 .22898865M.32899476 .21800232C.32899476 .069244388 .30899049 .017318726 .25099183 .017318726 .19299317 .017318726 .17199707 .07322693 .17199707 .21800232 .17199707 .3887329 .18998719 .4416504 .25099183 .4416504 .30999757 .4416504 .32899476 .3887329 .32899476 .21800232Z"/>
<path id="font_3_86" d="M.5379944 .019989014V.04298401C.49398805 .04498291 .48098756 .06098938 .48098756 .10498047V.4609375H.2809906V.43693543C.33099366 .43293763 .34199525 .41893006 .34199525 .37394715V.097976688C.31098939 .06430054 .2889862 .051315309 .2599945 .051315309 .22399903 .051315309 .20399475 .07130432 .20399475 .12724304V.4609375H.015991211V.43693543C.056991579 .42893983 .06498718 .4179535 .06498718 .37199403V.13124085C.06498718 .03831482 .114990238-.013671875 .19799805-.013671875 .25299073-.013671875 .29100038 .003326416 .34298707 .052322389V-.012680054C.38598634 .002319336 .4099884 .0063171389 .47499085 .013320923L.5379944 .019989014Z"/>
<path id="font_3_84" d="M.33999635 .32583619V.4706421H.31799317C.31199647 .4556427 .30599977 .45065309 .29299928 .45065309 .2869873 .45065309 .27799989 .45265199 .2619934 .4576416 .22999573 .4686432 .20698548 .47265626 .18399048 .47265626 .09298706 .47265626 .026992798 .4106903 .026992798 .326828 .026992798 .26094056 .067993167 .2150116 .16899109 .17207337 .23799134 .14212036 .2649994 .11717224 .2649994 .08522034 .2649994 .046279909 .23498535 .020324707 .18998719 .020324707 .11999512 .020324707 .07398987 .06524658 .052993776 .15211487H.024993897V-.012680054H.049987794C.06098938 .00831604 .066986087 .015319824 .07598877 .015319824 .08099365 .015319824 .08898926 .013320923 .09899902 .00932312 .12799073-.0026855469 .1789856-.013671875 .20698548-.013671875 .2979889-.013671875 .36099244 .04827881 .36099244 .13813782 .36099244 .2090149 .32299806 .25195313 .22299195 .29388429 .15499878 .32183839 .1269989 .34779359 .1269989 .38174439 .1269989 .4146881 .15499878 .4396515 .19299317 .4396515 .21998596 .4396515 .24598694 .42866517 .2679901 .40769959 .2889862 .38772584 .2999878 .36875917 .31498719 .32583619H.33999635Z"/>
</defs>
<g clip-path="url(#clip_1)">
<path transform="matrix(1,0,0,-1,64.466999,114.21398)" stroke-width=".79701" stroke-linecap="butt" stroke-miterlimit="10" stroke-linejoin="miter" fill="none" stroke="#000000" d="M-45.35504 0H156.15201"/>
<path transform="matrix(1,0,0,-1,220.619,114.21398)" d="M2.59026 0-1.55415 2.0722 0 0-1.55415-2.0722"/>
<use data-text="A" xlink:href="#font_2_34" transform="matrix(14.3462,0,0,-14.3462,209.659,109.68698)"/>
<use data-text="x" xlink:href="#font_2_89" transform="matrix(14.3462,0,0,-14.3462,220.01696,109.68698)"/>
<use data-text="i" xlink:href="#font_2_74" transform="matrix(14.3462,0,0,-14.3462,227.19005,109.68698)"/>
<use data-text="s" xlink:href="#font_2_84" transform="matrix(14.3462,0,0,-14.3462,231.1783,109.68698)"/>
<path transform="matrix(1,0,0,-1,64.466999,114.21398)" stroke-width=".79701" stroke-linecap="butt" stroke-dasharray="2.98883,2.98883" stroke-miterlimit="10" stroke-linejoin="miter" fill="none" stroke="#000000" d="M-17.00824-102.04866V113.38724"/>
<use data-text="D" xlink:href="#font_3_37" transform="matrix(0,-14.3462,-14.3462,-0,43.073999,198.76799)"/>
<use data-text="i" xlink:href="#font_3_74" transform="matrix(0,-14.3462,-14.3462,-0,43.073999,188.41004)"/>
<use data-text="r" xlink:href="#font_3_83" transform="matrix(0,-14.3462,-14.3462,-0,43.073999,184.42179)"/>
<use data-text="e" xlink:href="#font_3_70" transform="matrix(0,-14.3462,-14.3462,-0,43.073999,178.18119)"/>
<use data-text="c" xlink:href="#font_3_68" transform="matrix(0,-14.3462,-14.3462,-0,43.073999,171.81147)"/>
<use data-text="t" xlink:href="#font_3_85" transform="matrix(0,-14.3462,-14.3462,-0,43.073999,165.44174)"/>
<use data-text="r" xlink:href="#font_3_83" transform="matrix(0,-14.3462,-14.3462,-0,43.073999,160.66446)"/>
<use data-text="i" xlink:href="#font_3_74" transform="matrix(0,-14.3462,-14.3462,-0,43.073999,154.20867)"/>
<use data-text="x" xlink:href="#font_3_89" transform="matrix(0,-14.3462,-14.3462,-0,43.073999,150.22042)"/>
<path transform="matrix(1,0,0,-1,64.466999,114.21398)" stroke-width="1.59404" stroke-linecap="butt" stroke-miterlimit="10" stroke-linejoin="miter" fill="none" stroke="#ff0000" d="M188.97064-113.38724C188.97064-113.38724 183.49605-111.73277 181.42113-111.09735 179.3462-110.46194 176.04824-109.44293 174.01607-108.80751 171.9839-108.1721 168.76409-107.15305 166.7745-106.51764 164.78495-105.88223 161.62473-104.8632 159.67656-104.2278 157.7284-103.59238 154.63735-102.57333 152.73348-101.93793 150.82962-101.3025 147.81589-100.2835 145.95473-99.64809 144.09358-99.01266 141.1381-97.99365 139.31958-97.35823 137.50107-96.72282 134.62377-95.70378 132.84795-95.06836 131.07215-94.43295 128.25374-93.41393 126.5208-92.77852 124.78786-92.14311 122.04799-91.12405 120.358-90.48865 118.66803-89.85323 115.98907-88.83421 114.34052-88.1988 112.69196-87.56339 110.0819-86.54437 108.47617-85.90895 106.87045-85.27354 104.32922-84.2545 102.76756-83.61908 101.20589-82.98367 98.73854-81.96465 97.22069-81.32924 95.70284-80.69383 93.30411-79.67477 91.82779-79.03937 90.35146-78.40395 88.0148-77.38493 86.58025-76.74953 85.14569-76.1141 82.87901-75.09506 81.4884-74.45964 80.0978-73.82423 77.90536-72.80522 76.55746-72.1698 75.20956-71.5344 73.07877-70.51537 71.7736-69.87996 70.46846-69.24455 68.41318-68.2255 67.15063-67.59009 65.88808-66.95468 63.89357-65.93565 62.67386-65.30025 61.45415-64.66483 59.53644-63.64578 58.35973-63.01038 57.183-62.37495 55.32765-61.35594 54.19267-60.72052 53.0577-60.08511 51.27098-59.0661 50.17957-58.43068 49.08815-57.79527 47.37434-56.77621 46.32654-56.14081 45.27872-55.5054 43.63316-54.48637 42.62747-53.85097 41.62177-53.21555 40.04173-52.1965 39.07805-51.5611 38.11436-50.92567 36.60213-49.90666 35.68178-49.27124 34.76141-48.63583 33.32207-47.61682 32.44466-46.9814 31.56726-46.346 30.19331-45.32693 29.35805-44.69153 28.5228-44.05612 27.21664-43.0371 26.42459-42.40169 25.63254-41.76627 24.39862-40.74722 23.64943-40.11182 22.90025-39.4764 21.73125-38.45738 21.02478-37.82196 20.31831-37.18655 19.22122-36.16751 18.5576-35.53209 17.89397-34.89668 16.86304-33.87766 16.24179-33.24225 15.62054-32.60684 14.65811-31.58781 14.07994-30.95241 13.50179-30.317 12.61003-29.29794 12.0747-28.66254 11.53938-28.02711 10.71416-27.0081 10.22171-26.3727 9.72926-25.73727 8.97514-24.71823 8.5253-24.08281 8.07544-23.4474 7.38675-22.42839 6.9794-21.79297 6.57205-21.15756 5.95338-20.13853 5.58925-19.50313 5.2251-18.86772 4.67621-17.84866 4.35478-17.21326 4.03336-16.57784 3.55136-15.55882 3.27255-14.92342 2.99374-14.288 2.58116-13.26895 2.3452-12.63353 2.10924-11.99812 1.76503-10.97911 1.57182-10.34369 1.3786-9.70828 1.1028-8.68925 .95242-8.05385 .80205-7.41844 .59555-6.39938 .48788-5.76398 .38022-5.12856 .24136-4.10954 .17645-3.47414 .11154-2.83871 .04195-1.81967 .01988-1.18425-.00218-.54884-.00273 .47012 .01729 1.10555 .03732 1.74095 .10149 2.76001 .16435 3.39542 .22723 4.03082 .36438 5.04985 .47058 5.68526 .57678 6.32066 .78122 7.33969 .92993 7.9751 1.07863 8.61052 1.35051 9.62956 1.54242 10.26497 1.73433 10.90039 2.07808 11.9194 2.31319 12.55482 2.5483 13.19023 2.95949 14.20927 3.2371 14.8447 3.51472 15.4801 3.994 16.49913 4.3141 17.13454 4.6342 17.76994 5.18164 18.78897 5.54425 19.42438 5.90685 20.0598 6.52231 21.07884 6.9275 21.71425 7.3327 22.34967 8.01636 23.36868 8.46475 24.0041 8.91316 24.63951 9.66785 25.65855 10.15944 26.29398 10.65105 26.92938 11.47398 27.94841 12.0081 28.58382 12.5422 29.21922 13.43253 30.23825 14.00902 30.87366 14.5855 31.50908 15.54399 32.52812 16.16307 33.16353 16.78215 33.79895 17.80878 34.81796 18.47107 35.45338 19.13336 36.08879 20.23103 37.10783 20.93655 37.74326 21.64207 38.37866 22.80789 39.39769 23.556 40.0331 24.30412 40.6685 25.53798 41.68756 26.32857 42.32297 27.11917 42.95837 28.42043 43.9774 29.25426 44.61281 30.08809 45.24823 31.46207 46.26724 32.33824 46.90265 33.21443 47.53807 34.65062 48.55711 35.5693 49.19254 36.48799 49.82794 37.99825 50.84695 38.95953 51.48238 39.9208 52.11778 41.49391 53.13684 42.4977 53.77225 43.50148 54.40765 45.14647 55.42668 46.19418 56.06209 47.2419 56.69751 48.95876 57.71652 50.04895 58.35193 51.13914 58.98735 52.9197 60.0064 54.05167 60.64182 55.18362 61.27722 57.03232 62.29623 58.20749 62.93166 59.38266 63.56706 61.3024 64.58612 62.52162 65.22153 63.74086 65.85693 65.73323 66.87596 66.99493 67.51137 68.25664 68.14679 70.31194 69.1658 71.6153 69.80121 72.91866 70.43663 75.0421 71.45567 76.38878 72.0911 77.73546 72.7265 79.93227 73.74551 81.32146 74.38094 82.71065 75.01634 84.96959 76.0354 86.40117 76.6708 87.83273 77.30621 90.16362 78.32524 91.63922 78.96065 93.11482 79.59605 95.51819 80.61511 97.0364 81.25052 98.55463 81.88594 101.02084 82.90495 102.58154 83.54036 104.14224 84.17578 106.68192 85.1948 108.28499 85.83022 109.88808 86.46562 112.49077 87.48466 114.1355 88.12009 115.78024 88.7555 118.45023 89.77452 120.13913 90.40993 121.82803 91.04533 124.57588 92.06439 126.308 92.6998 128.04012 93.33522 130.84847 94.35423 132.62306 94.98964 134.39765 95.62506 137.28022 96.64407 139.09813 97.2795 140.91603 97.9149 143.86519 98.93394 145.7255 99.56937 147.58579 100.20477 150.6032 101.2238 152.50597 101.8592 154.40874 102.49461 157.49425 103.51367 159.43953 104.14908 161.3848 104.7845 164.53849 105.80351 166.52623 106.43892 168.51398 107.07434 171.73508 108.09335 173.76605 108.72878 175.79705 109.36418 179.09073 110.38322 181.16419 111.01865 183.23764 111.65405 188.71024 113.30849 188.71024 113.30849"/>
<path transform="matrix(1,0,0,-1,64.466999,114.21398)" d="M1.69069 0C1.69069 .93375 .93375 1.69069 0 1.69069-.93375 1.69069-1.69069 .93375-1.69069 0-1.69069-.93375-.93375-1.69069 0-1.69069 .93375-1.69069 1.69069-.93375 1.69069 0ZM0 0"/>
<path transform="matrix(1,0,0,-1,64.466999,114.21398)" d="M18.69894 0C18.69894 .93375 17.94199 1.69069 17.00824 1.69069 16.0745 1.69069 15.31754 .93375 15.31754 0 15.31754-.93375 16.0745-1.69069 17.00824-1.69069 17.94199-1.69069 18.69894-.93375 18.69894 0ZM17.00824 0"/>
<path transform="matrix(1,0,0,-1,64.466999,114.21398)" stroke-width=".79701" stroke-linecap="butt" stroke-miterlimit="10" stroke-linejoin="miter" fill="none" stroke="#000000" d="M-1.83159 1.83159-22.6771 22.6771"/>
<path transform="matrix(.7071,.7071,.7071,-.7071,62.635408,112.38239)" d="M2.59026 0-1.55415 2.0722 0 0-1.55415-2.0722"/>
<use data-text="V" xlink:href="#font_3_55" transform="matrix(14.3462,0,0,-14.3462,.038986207,89.88398)"/>
<use data-text="e" xlink:href="#font_3_70" transform="matrix(14.3462,0,0,-14.3462,9.378357,89.88398)"/>
<use data-text="r" xlink:href="#font_3_83" transform="matrix(14.3462,0,0,-14.3462,15.748077,89.88398)"/>
<use data-text="t" xlink:href="#font_3_85" transform="matrix(14.3462,0,0,-14.3462,22.246918,89.88398)"/>
<use data-text="e" xlink:href="#font_3_70" transform="matrix(14.3462,0,0,-14.3462,27.009858,89.88398)"/>
<use data-text="x" xlink:href="#font_3_89" transform="matrix(14.3462,0,0,-14.3462,33.236116,89.88398)"/>
<use data-text="F" xlink:href="#font_3_39" transform="matrix(14.3462,0,0,-14.3462,85.659999,126.10398)"/>
<use data-text="o" xlink:href="#font_3_80" transform="matrix(14.3462,0,0,-14.3462,93.82299,126.10398)"/>
<use data-text="c" xlink:href="#font_3_68" transform="matrix(14.3462,0,0,-14.3462,100.996089,126.10398)"/>
<use data-text="u" xlink:href="#font_3_86" transform="matrix(14.3462,0,0,-14.3462,107.36581,126.10398)"/>
<use data-text="s" xlink:href="#font_3_84" transform="matrix(14.3462,0,0,-14.3462,115.34229,126.10398)"/>
<path transform="matrix(1,0,0,-1,64.466999,114.21398)" stroke-width=".79701" stroke-linecap="butt" stroke-dasharray="2.98883,2.98883" stroke-miterlimit="10" stroke-linejoin="miter" fill="none" stroke="#000000" d="M7.5573 22.6771H-17.00824"/>
<path transform="matrix(1,0,0,-1,64.466999,114.21398)" stroke-width=".79701" stroke-linecap="butt" stroke-miterlimit="10" stroke-linejoin="miter" fill="none" stroke="#000000" d="M-3.72917 25.66592-5.72173 19.68826"/>
<path transform="matrix(1,0,0,-1,64.466999,114.21398)" stroke-width=".79701" stroke-linecap="butt" stroke-dasharray="2.98883,2.98883" stroke-miterlimit="10" stroke-linejoin="miter" fill="none" stroke="#000000" d="M47.24263 56.69362H-17.00824"/>
<path transform="matrix(1,0,0,-1,64.466999,114.21398)" stroke-width=".79701" stroke-linecap="butt" stroke-miterlimit="10" stroke-linejoin="miter" fill="none" stroke="#000000" d="M17.6079 59.68245 15.61534 53.70479"/>
<path transform="matrix(1,0,0,-1,64.466999,114.21398)" stroke-width=".79701" stroke-linecap="butt" stroke-miterlimit="10" stroke-linejoin="miter" fill="none" stroke="#000000" d="M14.61906 59.68245 12.62651 53.70479"/>
<path transform="matrix(1,0,0,-1,64.466999,114.21398)" stroke-width=".79701" stroke-linecap="butt" stroke-dasharray="2.98883,2.98883" stroke-miterlimit="10" stroke-linejoin="miter" fill="none" stroke="#000000" d="M136.52973 96.37895H-17.00824"/>
<path transform="matrix(1,0,0,-1,64.466999,114.21398)" stroke-width=".79701" stroke-linecap="butt" stroke-miterlimit="10" stroke-linejoin="miter" fill="none" stroke="#000000" d="M63.74585 99.36778 61.7533 93.39012"/>
<path transform="matrix(1,0,0,-1,64.466999,114.21398)" stroke-width=".79701" stroke-linecap="butt" stroke-miterlimit="10" stroke-linejoin="miter" fill="none" stroke="#000000" d="M60.75702 99.36778 58.76447 93.39012"/>
<path transform="matrix(1,0,0,-1,64.466999,114.21398)" stroke-width=".79701" stroke-linecap="butt" stroke-miterlimit="10" stroke-linejoin="miter" fill="none" stroke="#000000" d="M57.76819 99.36778 55.77563 93.39012"/>
<path transform="matrix(1,0,0,-1,64.466999,114.21398)" stroke-width=".79701" stroke-linecap="butt" stroke-dasharray="2.98883,2.98883" stroke-miterlimit="10" stroke-linejoin="miter" fill="none" stroke="#b30000" d="M7.5573 22.6771 17.00824 0"/>
<path transform="matrix(1,0,0,-1,64.466999,114.21398)" stroke-width=".79701" stroke-linecap="butt" stroke-miterlimit="10" stroke-linejoin="miter" fill="none" stroke="#b30000" d="M9.13983 11.11069 15.4236 11.57095"/>
<path transform="matrix(1,0,0,-1,64.466999,114.21398)" stroke-width=".79701" stroke-linecap="butt" stroke-dasharray="2.98883,2.98883" stroke-miterlimit="10" stroke-linejoin="miter" fill="none" stroke="#b30000" d="M47.24263 56.69362 17.00824 0"/>
<path transform="matrix(1,0,0,-1,64.466999,114.21398)" stroke-width=".79701" stroke-linecap="butt" stroke-miterlimit="10" stroke-linejoin="miter" fill="none" stroke="#b30000" d="M30.67427 31.9773 35.011 27.40639"/>
<path transform="matrix(1,0,0,-1,64.466999,114.21398)" stroke-width=".79701" stroke-linecap="butt" stroke-miterlimit="10" stroke-linejoin="miter" fill="none" stroke="#b30000" d="M29.26787 29.34015 33.6046 24.76924"/>
<path transform="matrix(1,0,0,-1,64.466999,114.21398)" stroke-width=".79701" stroke-linecap="butt" stroke-dasharray="2.98883,2.98883" stroke-miterlimit="10" stroke-linejoin="miter" fill="none" stroke="#b30000" d="M136.52973 96.37895 17.00824 0"/>
<path transform="matrix(1,0,0,-1,64.466999,114.21398)" stroke-width=".79701" stroke-linecap="butt" stroke-miterlimit="10" stroke-linejoin="miter" fill="none" stroke="#b30000" d="M77.99821 53.01933 80.19937 47.11552"/>
<path transform="matrix(1,0,0,-1,64.466999,114.21398)" stroke-width=".79701" stroke-linecap="butt" stroke-miterlimit="10" stroke-linejoin="miter" fill="none" stroke="#b30000" d="M75.67168 51.14325 77.87283 45.23944"/>
<path transform="matrix(1,0,0,-1,64.466999,114.21398)" stroke-width=".79701" stroke-linecap="butt" stroke-miterlimit="10" stroke-linejoin="miter" fill="none" stroke="#b30000" d="M73.34512 49.26715 75.54628 43.36334"/>
<path transform="matrix(1,0,0,-1,64.466999,114.21398)" stroke-width=".79701" stroke-linecap="butt" stroke-miterlimit="10" stroke-linejoin="miter" fill="none" stroke="#000000" d="M-11.33855 22.6771V17.00739H-17.00824"/>
<path transform="matrix(1,0,0,-1,64.466999,114.21398)" stroke-width=".79701" stroke-linecap="butt" stroke-miterlimit="10" stroke-linejoin="miter" fill="none" stroke="#000000" d="M-11.33855 56.69362V51.02391H-17.00824"/>
<path transform="matrix(1,0,0,-1,64.466999,114.21398)" stroke-width=".79701" stroke-linecap="butt" stroke-miterlimit="10" stroke-linejoin="miter" fill="none" stroke="#000000" d="M-11.33855 96.37895V90.70926H-17.00824"/>
<path transform="matrix(1,0,0,-1,64.466999,114.21398)" stroke-width=".79701" stroke-linecap="butt" stroke-miterlimit="10" stroke-linejoin="miter" fill="none" stroke="#000000" d="M9.248 22.6771C9.248 23.61084 8.49104 24.3678 7.5573 24.3678 6.62354 24.3678 5.8666 23.61084 5.8666 22.6771 5.8666 21.74333 6.62354 20.98639 7.5573 20.98639 8.49104 20.98639 9.248 21.74333 9.248 22.6771ZM7.5573 22.6771"/>
<path transform="matrix(1,0,0,-1,64.466999,114.21398)" stroke-width=".79701" stroke-linecap="butt" stroke-miterlimit="10" stroke-linejoin="miter" fill="none" stroke="#000000" d="M48.93333 56.69362C48.93333 57.62737 48.17639 58.38431 47.24263 58.38431 46.30888 58.38431 45.55193 57.62737 45.55193 56.69362 45.55193 55.75986 46.30888 55.00291 47.24263 55.00291 48.17639 55.00291 48.93333 55.75986 48.93333 56.69362ZM47.24263 56.69362"/>
<path transform="matrix(1,0,0,-1,64.466999,114.21398)" stroke-width=".79701" stroke-linecap="butt" stroke-miterlimit="10" stroke-linejoin="miter" fill="none" stroke="#000000" d="M138.22043 96.37895C138.22043 97.3127 137.46347 98.06966 136.52973 98.06966 135.59597 98.06966 134.83902 97.3127 134.83902 96.37895 134.83902 95.4452 135.59597 94.68825 136.52973 94.68825 137.46347 94.68825 138.22043 95.4452 138.22043 96.37895ZM136.52973 96.37895"/>
<path transform="matrix(1,0,0,-1,64.466999,114.21398)" stroke-width=".79701" stroke-linecap="butt" stroke-dasharray="2.98883,2.98883" stroke-miterlimit="10" stroke-linejoin="miter" fill="none" stroke="#ffbfbf" d="M7.5573 22.6771V0"/>
<path transform="matrix(1,0,0,-1,64.466999,114.21398)" stroke-width=".79701" stroke-linecap="butt" stroke-dasharray="2.98883,2.98883" stroke-miterlimit="10" stroke-linejoin="miter" fill="none" stroke="#ffbfbf" d="M47.24263 56.69362V0"/>
<path transform="matrix(1,0,0,-1,64.466999,114.21398)" stroke-width=".79701" stroke-linecap="butt" stroke-dasharray="2.98883,2.98883" stroke-miterlimit="10" stroke-linejoin="miter" fill="none" stroke="#ffbfbf" d="M136.52973 96.37895V0"/>
</g>
</svg>
