<svg xmlns="http://www.w3.org/2000/svg" xmlns:xlink="http://www.w3.org/1999/xlink" xmlns:inkscape="http://www.inkscape.org/namespaces/inkscape" version="1.1" width="407" height="241" viewBox="0 0 407 241">
<defs>
<clipPath id="clip_1">
<path transform="matrix(1,0,0,-1,-92,766)" d="M0 0H595.28V841.89H0Z"/>
</clipPath>
<path id="font_2_2520" d="M.30499269 .28834535 .2849884 .3433838C.272995 .3764038 .2539978 .41740418 .20999146 .44140626L.07798767 .4084015 .08099365 .39039613C.09098816 .39439393 .10598755 .39639283 .11898804 .39639283 .17399597 .39639283 .19999695 .35539247 .21699524 .3073578L.25 .21530152 .18499756 .11424255C.15299988 .065216068 .1269989 .0552063 .114990238 .0552063 .08999634 .0552063 .09399414 .07521057 .067993167 .07521057 .042999269 .07521057 .02999878 .05419922 .02999878 .038208009 .02999878 .016204834 .04598999-.0087890629 .08198547-.0087890629 .13798523-.0087890629 .16699219 .034210206 .19898987 .083221439L.2619934 .18127442 .3019867 .06820679C.31498719 .032196046 .33399964-.0087890629 .375-.0087890629 .43299867-.0087890629 .47799684 .08721924 .48999024 .10223389L.47599793 .11224365C.45498658 .06921387 .43099977 .0552063 .4149933 .0552063 .36999513 .0552063 .34700013 .19029236 .31698609 .25231935L.37199403 .33737184C.38598634 .35939027 .39698792 .37539674 .4269867 .37539674 .44400025 .37539674 .44898988 .36639405 .47099305 .36639405 .49699403 .36639405 .5099945 .3894043 .5099945 .4084015 .5099945 .42939759 .49299623 .44140626 .46099855 .44140626 .41099549 .44140626 .37599183 .3973999 .34999085 .35739137L.30499269 .28834535Z"/>
<path id="font_2_2521" d="M.269989 .30682374C.26098634 .38082887 .2539978 .40682984 .23098755 .4398346L.08099365 .41482545 .08299255 .39883424C.09199524 .39982606 .10798645 .40283204 .11898804 .40283204 .1749878 .40283204 .18399048 .34283448 .18899536 .2978363L.22698975-.016174317C.20098877-.056167604 .14399719-.11816406 .1269989-.11816406 .11099243-.11816406 .11299133-.08717346 .069992069-.08717346 .056991579-.08717346 .02999878-.09817505 .02999878-.12817383 .02999878-.1521759 .04899597-.1831665 .085998538-.1831665 .1539917-.1831665 .21899414-.08517456 .2919922 .0068359377 .33399964 .059829713 .49598695 .2998352 .49598695 .37782289 .49598695 .41682435 .47099305 .4398346 .43899537 .4398346 .4099884 .4398346 .3919983 .42182923 .3919983 .39982606 .3919983 .36183167 .44400025 .3518219 .44400025 .3308258 .44400025 .3128357 .43598939 .29283143 .41600038 .25582887 .3939972 .21482849 .35899354 .15483094 .2979889 .07182312L.269989 .30682374Z"/>
<path id="font_3_48" d="M.6879883 .33103944C.6879883 .5288696 .5569916 .67578127 .36099244 .67578127 .1659851 .67578127 .033996583 .53686526 .033996583 .3340454 .033996583 .1262207 .16699219-.013671875 .36099244-.013671875 .5529938-.013671875 .6879883 .12522888 .6879883 .33103944M.57398989 .33703614C.57398989 .21714783 .54599 .12322998 .4909973 .07028198 .45599366 .03730774 .4119873 .022323609 .3619995 .022323609 .31599427 .022323609 .27198792 .03630066 .23799134 .067276 .1769867 .12322998 .147995 .21315003 .147995 .3320465 .147995 .42695619 .17399597 .52388 .21699524 .5728302 .2559967 .6177826 .30599977 .6397705 .3600006 .6397705 .40699769 .6397705 .44699098 .6227875 .48298646 .59280398 .5399933 .54486086 .57398989 .450943 .57398989 .33703614Z"/>
<path id="font_2_62" d="M.6369934 .31973268V.3857422H.04798889V.31973268H.6369934M.6369934 .12011719V.18611145H.04798889V.12011719H.6369934Z"/>
<path id="font_2_50" d="M.3939972 0V.01499939C.31900025 .01499939 .29899598 .032989503 .29899598 .07597351V.67277529L.2899933 .67578127 .11099243 .5847931V.5708008L.13798523 .5807953C.1559906 .5877991 .17298889 .59280398 .18299866 .59280398 .20399475 .59280398 .21299744 .57780459 .21299744 .543808V.0949707C.21299744 .039978029 .19198609 .018997193 .117996219 .01499939V0H.3939972Z"/>
<path id="font_3_37" d="M.015991211 .6621094V.6430969C.09199524 .6381073 .10398865 .6291046 .10398865 .55007937V.11500549C.10398865 .036987306 .09399414 .023986817 .015991211 .018997193V0H.29699708C.397995 0 .4869995 .023986817 .548996 .06399536 .6380005 .1210022 .68499758 .21502686 .68499758 .3340454 .68499758 .4370575 .651001 .5150757 .58599856 .5710907 .5179901 .63009646 .4149933 .6621094 .28599549 .6621094H.015991211M.20599365 .5830841C.20599365 .6161041 .22099304 .6251068 .25898744 .6251068 .35899354 .6251068 .42199708 .60809329 .48098756 .5560913 .5439911 .5010834 .57598879 .43206788 .57598879 .3280487 .57598879 .21502686 .5419922 .13601685 .47200013 .08900452 .4119873 .04899597 .35699464 .036987306 .2539978 .036987306 .21499634 .036987306 .20599365 .04899597 .20599365 .083999637V.5830841Z"/>
<path id="font_3_74" d="M.17999268 .63204959C.17999268 .66004946 .1579895 .68304446 .1289978 .68304446 .100997928 .68304446 .07798767 .66004946 .07798767 .63204959 .07798767 .6030426 .099990848 .5810547 .12799073 .5810547 .1579895 .5810547 .17999268 .6030426 .17999268 .63204959M.25299073 0V.01499939C.18699646 .019989014 .1789856 .0309906 .1789856 .10499573V.45603944L.1749878 .46003724 .019989014 .4050293V.38902284C.037994386 .3940277 .052993776 .3940277 .06199646 .3940277 .08699036 .3940277 .09498596 .37802125 .09498596 .33102418V.104003909C.09498596 .027999878 .084991458 .018997193 .015991211 .01499939V0H.25299073Z"/>
<path id="font_3_83" d="M.1599884 .45794679 .15499878 .45996095C.101989749 .43894959 .06599426 .42495729 .0069885256 .40596009V.3899536C.020996094 .3929596 .02999878 .39396668 .041992189 .39396668 .066986087 .39396668 .07598877 .3779602 .07598877 .33396913V.083984378C.07598877 .033996583 .068984989 .026992798 .004989624 .01499939V0H.24499512V.01499939C.1769867 .017990113 .1599884 .032989503 .1599884 .08998108V.31497193C.1599884 .3469696 .20199585 .3969574 .22999573 .3969574 .23599243 .3969574 .24499512 .3919525 .2559967 .381958 .27198792 .36695863 .2829895 .361969 .29599 .361969 .31999208 .361969 .33499146 .3789673 .33499146 .4069519 .33499146 .43995667 .31399537 .45996095 .27999879 .45996095 .23799134 .45996095 .20999146 .43795777 .1599884 .3659668V.45794679Z"/>
<path id="font_3_70" d="M.4079895 .16427613C.35899354 .09024048 .32099916 .05921936 .2539978 .05921936 .20799256 .05921936 .17098999 .07723999 .14299011 .11425781 .10699463 .16227722 .101989749 .20129395 .09700012 .27734376H.40499879C.40098573 .3312683 .3909912 .36315919 .37098695 .3910675 .33898927 .43595887 .2939911 .45996095 .23199463 .45996095 .10598755 .45996095 .024993897 .35816957 .024993897 .21730042 .024993897 .07923889 .09700012-.009765625 .21499634-.009765625 .31498719-.009765625 .3849945 .048233034 .42399598 .15727234L.4079895 .16427613M.09899902 .30934144C.10998535 .38407899 .14898682 .4239502 .20498657 .4239502 .2709961 .4239502 .2919922 .39006043 .30299378 .30934144H.09899902Z"/>
<path id="font_3_68" d="M.397995 .15615845C.34999085 .08621216 .31399537 .06222534 .25698854 .06222534 .16499329 .06222534 .101989749 .14216614 .101989749 .25708009 .101989749 .3610077 .15699768 .43095399 .23799134 .43095399 .27398683 .43095399 .2869873 .41996766 .29699708 .3829956L.30299378 .3610077C.31098939 .33203126 .32899476 .31503297 .35099793 .31503297 .3769989 .31503297 .397995 .33403016 .397995 .3570099 .397995 .41296388 .32798768 .45996095 .24398804 .45996095 .19699097 .45996095 .14898682 .44195558 .10899353 .40896607 .054992677 .3639984 .024993897 .2950592 .024993897 .21211243 .024993897 .08320618 .10398865-.009765625 .21499634-.009765625 .2579956-.009765625 .29599 .0042266848 .32998658 .032226564 .3600006 .056228639 .37998963 .08520508 .4119873 .14717102L.397995 .15615845Z"/>
<path id="font_3_85" d="M.2659912 .07722473C.24398804 .051223756 .22799683 .04222107 .20599365 .04222107 .16899109 .04222107 .1539917 .068222049 .1539917 .1322174V.41818238H.25498963V.4501953H.1539917V.5661926C.1539917 .57618716 .1519928 .5791931 .14698792 .5791931 .14099121 .56918337 .1329956 .56018069 .1269989 .55119326 .08898926 .4961853 .055999757 .45918275 .02999878 .44418336 .018997193 .43719483 .0129852299 .43118287 .0129852299 .42518617 .0129852299 .42218019 .01399231 .42018128 .016998291 .41818238H.069992069V.11721802C.069992069 .033233644 .099990848-.009765625 .1579895-.009765625 .20799256-.009765625 .24598694 .014221191 .2789917 .066223148L.2659912 .07722473Z"/>
<path id="font_3_89" d="M.47898866 0V.01499939C.44799806 .01499939 .4249878 .03199768 .39698792 .07501221L.2689972 .27111817 .35198976 .39117433C.37098695 .41818238 .40098573 .43418885 .43299867 .43518067V.4501953H.2749939V.43518067C.30499269 .43318177 .31498719 .42718507 .31498719 .4131775 .31498719 .40116883 .2999878 .38316346 .27799989 .34814454 .2679901 .33314515 .2579956 .31713868 .24798584 .30412293 .24398804 .3111267 .23899842 .31713868 .23399353 .32414247 .20498657 .36715699 .18798828 .400177 .18798828 .4131775 .18798828 .42819215 .20098877 .43418885 .23098755 .43518067V.4501953H.023986817V.43518067H.032989503C.06298828 .43518067 .07899475 .42218019 .10998535 .37516786L.20399475 .23109436 .08999634 .06600952C.06199646 .024993897 .049987794 .017990113 .016998291 .01499939V0H.1619873V.01499939C.1329956 .01499939 .12199402 .019989014 .12199402 .03300476 .12199402 .040008546 .12799073 .052001954 .14199829 .074020389L.22099304 .19708252 .31199647 .057006837C.31599427 .05101013 .31799317 .04600525 .31799317 .039001466 .31799317 .020996094 .31098939 .016998291 .27799989 .01499939V0H.47898866Z"/>
<path id="font_3_27" d="M.19198609 .40296937C.19198609 .4329834 .16699219 .45898438 .13699341 .45898438 .10499573 .45898438 .08099365 .4349823 .08099365 .40296937 .08099365 .37297059 .10699463 .34797669 .13699341 .34797669 .16699219 .34797669 .19198609 .37297059 .19198609 .40296937M.19198609 .04425049C.19198609 .07424927 .16699219 .100250247 .13699341 .100250247 .10499573 .100250247 .08099365 .07624817 .08099365 .04425049 .08099365 .014251709 .10699463-.0107421879 .13699341-.0107421879 .16699219-.0107421879 .19198609 .014251709 .19198609 .04425049Z"/>
<path id="font_2_54" d="M.43798829 .68110659 .42900086 .6880951C.41299439 .667099 .4039917 .6621094 .3809967 .6621094H.17399597L.06498718 .4251709C.06498718 .4251709 .06399536 .42216493 .06399536 .42016603 .06399536 .4141693 .066986087 .4121704 .07598877 .4121704 .17199707 .4121704 .24198914 .380188 .2889862 .3421936 .33399964 .30621339 .35598756 .2562256 .35598756 .19226074 .35598756 .106292728 .29100038 .02331543 .22099304 .02331543 .20098877 .02331543 .17799378 .032318117 .1499939 .05531311 .117996219 .08129883 .09899902 .08630371 .07598877 .08630371 .04798889 .08630371 .0309906 .07330322 .0309906 .048309328 .0309906 .010314941 .08299255-.013671875 .1579895-.013671875 .22599793-.013671875 .2809906 .0013275147 .32798768 .035308839 .3959961 .08529663 .42599488 .14727783 .42599488 .24324036 .42599488 .29621888 .4169922 .334198 .3909912 .37019349 .33399964 .4491577 .28399659 .47114564 .14099121 .49813844L.18099976 .58309939H.375C.3909912 .58309939 .39898683 .58909609 .4019928 .59609988L.43798829 .68110659Z"/>
<path id="font_2_41" d="M.3039856-.16122437C.1639862-.04423523 .13398743 .06877136 .13398743 .254776 .13398743 .44776917 .16499329 .5407715 .3039856 .6597748L.29499818 .67578127C.1349945 .58078 .04798889 .43676759 .04798889 .25177003 .04798889 .08177185 .13398743-.0872345 .2919922-.17723084L.3039856-.16122437Z"/>
<path id="font_2_1151" d="M.62098696 .22012329V.2861328H.06399536V.22012329H.62098696Z"/>
<path id="font_2_52" d="M.06098938 .50987246C.101989749 .58380129 .147995 .61576846 .20999146 .61576846 .27598573 .61576846 .31799317 .58180239 .31799317 .51387026 .31799317 .45292665 .28599549 .40795899 .23699951 .37998963 .21699524 .36799623 .19099427 .3570099 .15299988 .34402467V.33003236C.20999146 .33003236 .23298645 .32704164 .25498963 .3200531 .32398988 .3000641 .35899354 .2511139 .35899354 .17518616 .35899354 .09025574 .30299378 .022323609 .22898865 .022323609 .20098877 .022323609 .17999268 .027313233 .14299011 .05329895 .114990238 .073272708 .09899902 .07926941 .08198547 .07926941 .05899048 .07926941 .040985109 .06428528 .040985109 .043304445 .040985109 .0073242189 .07998657-.013671875 .15299988-.013671875 .24198914-.013671875 .33699037 .015319824 .3849945 .07926941 .4139862 .11723328 .43099977 .16618347 .43099977 .21913147 .43099977 .27108766 .4149933 .31704713 .3869934 .34802247 .3659973 .36999513 .34799195 .38198854 .3039856 .40097047 .37098695 .44093324 .39698792 .4908905 .39698792 .5388489 .39698792 .6207733 .33399964 .67578127 .24099732 .67578127 .13699341 .67578127 .07398987 .6087799 .04499817 .51387026L.06098938 .50987246Z"/>
<path id="font_2_45" d="M.08299255-.14086914C.1519928-.10786438 .19499207-.04486084 .19499207 .015136719 .19499207 .06713867 .1599884 .102127078 .114990238 .102127078 .07899475 .102127078 .054992677 .07913208 .054992677 .045135499 .054992677 .011138916 .07598877-.005859375 .11299133-.005859375 .12399292-.0059661867 .13398743-.001953125 .14199829-.001953125 .1499939-.001953125 .1559906-.007965088 .1559906-.014953613 .1559906-.047958375 .12799073-.08496094 .07299805-.1219635L.08299255-.14086914Z"/>
<path id="font_2_42" d="M.0289917 .6597748C.17399597 .54577639 .19898987 .43077088 .19898987 .24377442 .19898987 .04977417 .17098999-.04423523 .0289917-.16122437L.037994386-.17723084C.19699097-.08023071 .2849884 .061767579 .2849884 .24676514 .2849884 .41677857 .19400025 .58377078 .040985109 .67578127L.0289917 .6597748Z"/>
<path id="font_3_18" d="M.3939972 0V.01499939C.31900025 .01499939 .29899598 .032989503 .29899598 .07597351V.67277529L.2899933 .67578127 .11099243 .5847931V.5708008L.13798523 .5807953C.1559906 .5877991 .17298889 .59280398 .18299866 .59280398 .20399475 .59280398 .21299744 .57780459 .21299744 .543808V.0949707C.21299744 .039978029 .19198609 .018997193 .117996219 .01499939V0H.3939972Z"/>
<path id="font_3_22" d="M.43798829 .68110659 .42900086 .6880951C.41299439 .667099 .4039917 .6621094 .3809967 .6621094H.17399597L.06498718 .4251709C.06498718 .4251709 .06399536 .42216493 .06399536 .42016603 .06399536 .4141693 .066986087 .4121704 .07598877 .4121704 .17199707 .4121704 .24198914 .380188 .2889862 .3421936 .33399964 .30621339 .35598756 .2562256 .35598756 .19226074 .35598756 .106292728 .29100038 .02331543 .22099304 .02331543 .20098877 .02331543 .17799378 .032318117 .1499939 .05531311 .117996219 .08129883 .09899902 .08630371 .07598877 .08630371 .04798889 .08630371 .0309906 .07330322 .0309906 .048309328 .0309906 .010314941 .08299255-.013671875 .1579895-.013671875 .22599793-.013671875 .2809906 .0013275147 .32798768 .035308839 .3959961 .08529663 .42599488 .14727783 .42599488 .24324036 .42599488 .29621888 .4169922 .334198 .3909912 .37019349 .33399964 .4491577 .28399659 .47114564 .14099121 .49813844L.18099976 .58309939H.375C.3909912 .58309939 .39898683 .58909609 .4019928 .59609988L.43798829 .68110659Z"/>
<path id="font_3_14" d="M.2849884 .1938324V.25683595H.038986207V.1938324H.2849884Z"/>
<path id="font_3_20" d="M.06098938 .50987246C.101989749 .58380129 .147995 .61576846 .20999146 .61576846 .27598573 .61576846 .31799317 .58180239 .31799317 .51387026 .31799317 .45292665 .28599549 .40795899 .23699951 .37998963 .21699524 .36799623 .19099427 .3570099 .15299988 .34402467V.33003236C.20999146 .33003236 .23298645 .32704164 .25498963 .3200531 .32398988 .3000641 .35899354 .2511139 .35899354 .17518616 .35899354 .09025574 .30299378 .022323609 .22898865 .022323609 .20098877 .022323609 .17999268 .027313233 .14299011 .05329895 .114990238 .073272708 .09899902 .07926941 .08198547 .07926941 .05899048 .07926941 .040985109 .06428528 .040985109 .043304445 .040985109 .0073242189 .07998657-.013671875 .15299988-.013671875 .24198914-.013671875 .33699037 .015319824 .3849945 .07926941 .4139862 .11723328 .43099977 .16618347 .43099977 .21913147 .43099977 .27108766 .4149933 .31704713 .3869934 .34802247 .3659973 .36999513 .34799195 .38198854 .3039856 .40097047 .37098695 .44093324 .39698792 .4908905 .39698792 .5388489 .39698792 .6207733 .33399964 .67578127 .24099732 .67578127 .13699341 .67578127 .07398987 .6087799 .04499817 .51387026L.06098938 .50987246Z"/>
<path id="font_2_2493" d="M.7599945 .65289309H.5189972L.5149994 .63690188H.5349884C.57299807 .63690188 .58699038 .6298981 .58699038 .6148987 .58699038 .5939026 .56799319 .56489565 .548996 .54089358L.2689972 .17489624 .2649994 .17590332V.56689456C.2649994 .5998993 .269989 .63690188 .33499146 .63690188H.35398866L.35798646 .65289309H.06399536L.05999756 .63690188C.12098694 .63690188 .15899658 .6128998 .15899658 .5549011V-.016098023H.18299866L.6239929 .559906C.6499939 .5939026 .69099429 .63290408 .7559967 .63690188L.7599945 .65289309Z"/>
<path id="font_2_2477" d="M.72299197 .65319827H.20298767L.19898987 .63819888H.21798706C.27799989 .63819888 .2939911 .62020877 .2939911 .5991821 .2939911 .59217837 .2919922 .58317568 .2899933 .5751648L.1659851 .07800293C.15699768 .04399109 .13598633 .015991211 .05999756 .015991211H.041992189L.037994386 0H.37998963L.38398744 .015991211H.35198976C.2919922 .015991211 .272995 .03199768 .272995 .056991579 .272995 .06399536 .27598573 .07199097 .2769928 .07800293L.33898927 .33203126H.43598939C.46499635 .33203126 .5059967 .32902528 .5059967 .28201295 .5059967 .26402284 .5039978 .23501587 .5009918 .2210083H.5169983L.57699587 .463089H.5609894C.5399933 .3780365 .49398805 .36802674 .43199159 .36802674H.34899903L.41099549 .61621096H.55799868C.6049957 .61621096 .6649933 .607193 .66799929 .5291443 .66799929 .5151367 .66799929 .5011139 .6669922 .4931183H.68299868L.72299197 .65319827Z"/>
<path id="font_2_51" d="M.47399903 .13696289 .45999146 .1429596C.4269867 .08699036 .4059906 .07598877 .3639984 .07598877H.12998963L.29499818 .2519226C.38398744 .34588624 .4229889 .42085267 .4229889 .4998169 .4229889 .59877017 .35099793 .67578127 .23799134 .67578127 .114990238 .67578127 .050994874 .5937805 .02999878 .4768219L.050994874 .47183229C.09098816 .5697937 .12599182 .6017761 .19799805 .6017761 .2829895 .6017761 .33699037 .55178835 .33699037 .4608307 .33699037 .37586976 .30099488 .29989625 .20698548 .200943L.0289917 .011993408V0H.41999818L.47399903 .13696289Z"/>
<path id="font_2_44" d="M.6359863 .22012329V.2861328H.375V.54711917H.30899049V.2861328H.04798889V.22012329H.30899049V-.040878297H.375V.22012329H.6359863Z"/>
<path id="font_2_57" d="M.44499208 .15519715C.44499208 .23512268 .41299439 .28907777 .2899933 .37101747 .3889923 .42396546 .42399598 .45793153 .42399598 .53286746 .42399598 .6108093 .35499574 .67578127 .2559967 .67578127 .14498902 .67578127 .06199646 .61579897 .06199646 .5198822 .06199646 .4549408 .08299255 .41697694 .18598938 .3320465 .07899475 .2571106 .055999757 .21813965 .055999757 .14920044 .055999757 .055282594 .1349945-.013671875 .24798584-.013671875 .36799623-.013671875 .44499208 .05229187 .44499208 .15519715M.35499574 .53286746C.35499574 .470932 .32899476 .42897035 .26098634 .3889923 .17298889 .4409485 .13598633 .48690797 .13598633 .54885867 .13598633 .6108093 .1789856 .6477661 .24598694 .6477661 .31399537 .6477661 .35499574 .60180667 .35499574 .53286746M.2709961 .27209474C.33898927 .22613526 .36898805 .18617249 .36898805 .1242218 .36898805 .059280397 .32398988 .014328003 .25898744 .014328003 .18299866 .014328003 .13198853 .06626892 .13198853 .15820313 .13198853 .22314453 .15299988 .26409913 .21199036 .3120575L.2709961 .27209474Z"/>
<path id="font_2_49" d="M.47599793 .3300476C.47599793 .53486636 .3849945 .67578127 .2539978 .67578127 .09298706 .67578127 .023986817 .5128937 .023986817 .3360443 .023986817 .17218018 .07899475-.013671875 .25-.013671875 .41299439-.013671875 .47599793 .15818787 .47599793 .3300476M.37998963 .32505799C.37998963 .12722779 .33499146 .012313843 .25 .012313843 .1639862 .012313843 .11999512 .1262207 .11999512 .32904054 .11999512 .5318756 .16499329 .6497803 .24798584 .6497803 .33599855 .6497803 .37998963 .53286746 .37998963 .32505799Z"/>
</defs>
<g clip-path="url(#clip_1)">
<path transform="matrix(1,0,0,-1,142.836,183.49399)" stroke-width=".79701" stroke-linecap="round" stroke-linejoin="round" fill="none" stroke="#000000" d="M-141.73404 0H195.8374"/>
<path transform="matrix(1,0,0,-1,338.6734,183.49399)" d="M2.59026 0-1.55415 2.0722 0 0-1.55415-2.0722"/>
<use data-text="&#x1d465;" xlink:href="#font_2_2520" transform="matrix(14.3462,0,0,-14.3462,345.647,186.59299)"/>
<path transform="matrix(1,0,0,-1,142.836,183.49399)" stroke-width=".79701" stroke-linecap="round" stroke-linejoin="round" fill="none" stroke="#000000" d="M0-56.69362V167.49059"/>
<path transform="matrix(0,-1,-1,-0,142.836,16.003403)" d="M2.59026 0-1.55415 2.0722 0 0-1.55415-2.0722"/>
<use data-text="&#x1d466;" xlink:href="#font_2_2521" transform="matrix(14.3462,0,0,-14.3462,139.278,6.4049837)"/>
<use data-text="O" xlink:href="#font_3_48" transform="matrix(14.3462,0,0,-14.3462,128.294,197.37599)"/>
<path transform="matrix(1,0,0,-1,142.836,183.49399)" stroke-width=".79701" stroke-linecap="round" stroke-dasharray="2.98883,2.98883" stroke-linejoin="round" fill="none" stroke="#000000" d="M28.3468-56.69362V170.08086"/>
<use data-text="&#x1d465;" xlink:href="#font_2_2520" transform="matrix(14.3462,0,0,-14.3462,175.566,27.493988)"/>
<use data-text="=" xlink:href="#font_2_62" transform="matrix(14.3462,0,0,-14.3462,187.4303,27.493988)"/>
<use data-text="1" xlink:href="#font_2_50" transform="matrix(14.3462,0,0,-14.3462,201.2457,27.493988)"/>
<path transform="matrix(1,0,0,-1,142.836,183.49399)" stroke-width=".79701" stroke-linecap="round" stroke-linejoin="round" fill="none" stroke="#000000" d="M-113.38724 141.73404H170.08086"/>
<use data-text="D" xlink:href="#font_3_37" transform="matrix(14.3462,0,0,-14.3462,11.350006,34.95099)"/>
<use data-text="i" xlink:href="#font_3_74" transform="matrix(14.3462,0,0,-14.3462,21.707962,34.95099)"/>
<use data-text="r" xlink:href="#font_3_83" transform="matrix(14.3462,0,0,-14.3462,25.696213,34.95099)"/>
<use data-text="e" xlink:href="#font_3_70" transform="matrix(14.3462,0,0,-14.3462,30.444809,34.95099)"/>
<use data-text="c" xlink:href="#font_3_68" transform="matrix(14.3462,0,0,-14.3462,36.81453,34.95099)"/>
<use data-text="t" xlink:href="#font_3_85" transform="matrix(14.3462,0,0,-14.3462,43.18425,34.95099)"/>
<use data-text="r" xlink:href="#font_3_83" transform="matrix(14.3462,0,0,-14.3462,47.1725,34.95099)"/>
<use data-text="i" xlink:href="#font_3_74" transform="matrix(14.3462,0,0,-14.3462,52.208009,34.95099)"/>
<use data-text="x" xlink:href="#font_3_89" transform="matrix(14.3462,0,0,-14.3462,56.19626,34.95099)"/>
<use data-text=":" xlink:href="#font_3_27" transform="matrix(14.3462,0,0,-14.3462,63.369356,34.95099)"/>
<use data-text="&#x1d466;" xlink:href="#font_2_2521" transform="matrix(14.3462,0,0,-14.3462,72.153018,34.95099)"/>
<use data-text="=" xlink:href="#font_2_62" transform="matrix(14.3462,0,0,-14.3462,83.24263,34.95099)"/>
<use data-text="5" xlink:href="#font_2_54" transform="matrix(14.3462,0,0,-14.3462,97.05803,34.95099)"/>
<path transform="matrix(1,0,0,-1,142.836,183.49399)" stroke-width=".79701" stroke-linecap="round" stroke-dasharray="2.98883,2.98883" stroke-linejoin="round" fill="none" stroke="#000000" d="M-85.04042 28.3468H141.73404"/>
<path transform="matrix(1,0,0,-1,142.836,183.49399)" stroke-width=".79701" stroke-linecap="round" stroke-linejoin="round" fill="none" stroke="#000000" d="M-82.54973 28.3468C-82.54973 29.72238-83.66484 30.8375-85.04042 30.8375-86.416 30.8375-87.53111 29.72238-87.53111 28.3468-87.53111 26.97122-86.416 25.85611-85.04042 25.85611-83.66484 25.85611-82.54973 26.97122-82.54973 28.3468ZM-85.04042 28.3468"/>
<path transform="matrix(1,0,0,-1,142.836,183.49399)" stroke-width=".79701" stroke-linecap="round" stroke-linejoin="round" fill="none" stroke="#000000" d="M144.22473 28.3468C144.22473 29.72238 143.10962 30.8375 141.73404 30.8375 140.35846 30.8375 139.24335 29.72238 139.24335 28.3468 139.24335 26.97122 140.35846 25.85611 141.73404 25.85611 143.10962 25.85611 144.22473 26.97122 144.22473 28.3468ZM141.73404 28.3468"/>
<use data-text="(" xlink:href="#font_2_41" transform="matrix(14.3462,0,0,-14.3462,10.916992,158.72699)"/>
<use data-text="&#x2212;" xlink:href="#font_2_1151" transform="matrix(14.3462,0,0,-14.3462,15.694275,158.72699)"/>
<use data-text="3" xlink:href="#font_2_52" transform="matrix(14.3462,0,0,-14.3462,25.521424,158.72699)"/>
<use data-text="," xlink:href="#font_2_45" transform="matrix(14.3462,0,0,-14.3462,32.69452,158.72699)"/>
<use data-text="1" xlink:href="#font_2_50" transform="matrix(14.3462,0,0,-14.3462,38.662538,158.72699)"/>
<use data-text=")" xlink:href="#font_2_42" transform="matrix(14.3462,0,0,-14.3462,45.835634,158.72699)"/>
<use data-text="(" xlink:href="#font_2_41" transform="matrix(14.3462,0,0,-14.3462,291.74299,158.81299)"/>
<use data-text="5" xlink:href="#font_2_54" transform="matrix(14.3462,0,0,-14.3462,296.52027,158.81299)"/>
<use data-text="," xlink:href="#font_2_45" transform="matrix(14.3462,0,0,-14.3462,303.69337,158.81299)"/>
<use data-text="1" xlink:href="#font_2_50" transform="matrix(14.3462,0,0,-14.3462,309.66139,158.81299)"/>
<use data-text=")" xlink:href="#font_2_42" transform="matrix(14.3462,0,0,-14.3462,316.83448,158.81299)"/>
<use data-text="1" xlink:href="#font_3_18" transform="matrix(14.3462,0,0,-14.3462,167.596,197.37599)"/>
<use data-text="5" xlink:href="#font_3_22" transform="matrix(14.3462,0,0,-14.3462,280.983,197.54799)"/>
<use data-text="-" xlink:href="#font_3_14" transform="matrix(14.3462,0,0,-14.3462,51.82,197.37599)"/>
<use data-text="3" xlink:href="#font_3_20" transform="matrix(14.3462,0,0,-14.3462,56.597284,197.37599)"/>
<path transform="matrix(1,0,0,-1,142.836,183.49399)" stroke-width=".79701" stroke-linecap="round" stroke-dasharray="2.98883,2.98883" stroke-linejoin="round" fill="none" stroke="#000000" d="M28.3468-56.69362V0"/>
<path transform="matrix(1,0,0,-1,142.836,183.49399)" stroke-width="1.59404" stroke-linecap="round" stroke-linejoin="round" fill="none" stroke="#ff0000" d="M-127.56062-22.14594C-127.56062-22.14594-118.17375-9.56982-114.56848-5.02565-110.96321-.48148-105.18161 6.4744-101.57634 10.60538-97.97107 14.73636-92.18947 21.02972-88.5842 24.74765-84.97893 28.46556-79.19733 34.09665-75.59206 37.40154-71.98679 40.70644-66.20518 45.67531-62.59991 48.56708-58.99464 51.45885-53.21304 55.76477-49.60777 58.2434-46.0025 60.72202-40.2209 64.36578-36.61563 66.43134-33.01036 68.49689-27.22876 71.47807-23.62349 73.13048-20.01822 74.78288-14.2366 77.10149-10.63133 78.34084-7.02606 79.58017-1.24446 81.23657 2.36078 82.06282 5.96603 82.88908 11.74765 83.88289 15.35292 84.296 18.95819 84.70914 24.73979 85.04036 28.34506 85.04042 31.95033 85.04048 37.73193 84.70946 41.33722 84.29645 44.94249 83.88344 50.72409 82.88985 54.32936 82.06369 57.93463 81.23753 63.71623 79.58134 67.3215 78.34213 70.92677 77.1029 76.70837 74.7845 80.31364 73.13222 83.91891 71.47992 89.70052 68.49892 93.30579 66.43349 96.91106 64.36806 102.69266 60.72453 106.29793 58.24597 109.9032 55.76741 115.6848 51.46132 119.29007 48.56967 122.89534 45.67802 128.67694 40.70972 132.28221 37.40501 135.88748 34.1003 141.66909 28.46939 145.27436 24.75154 148.87963 21.03368 154.66123 14.74019 158.2665 10.60927 161.87177 6.47835 167.65337-.47726 171.25864-5.02132 174.8639-9.56537 184.25078-22.14117 184.25078-22.14117"/>
<path transform="matrix(1,0,0,-1,142.836,183.49399)" stroke-width=".79701" stroke-linecap="round" stroke-linejoin="round" fill="none" stroke="#000000" d="M30.8375 85.04042C30.8375 86.416 29.72238 87.53111 28.3468 87.53111 26.97122 87.53111 25.85611 86.416 25.85611 85.04042 25.85611 83.66484 26.97122 82.54973 28.3468 82.54973 29.72238 82.54973 30.8375 83.66484 30.8375 85.04042ZM28.3468 85.04042"/>
<use data-text="&#x1d449;" xlink:href="#font_2_2493" transform="matrix(14.3462,0,0,-14.3462,178.356,91.72999)"/>
<use data-text="(" xlink:href="#font_2_41" transform="matrix(14.3462,0,0,-14.3462,189.81862,91.72999)"/>
<use data-text="1" xlink:href="#font_2_50" transform="matrix(14.3462,0,0,-14.3462,194.5959,91.72999)"/>
<use data-text="," xlink:href="#font_2_45" transform="matrix(14.3462,0,0,-14.3462,201.769,91.72999)"/>
<use data-text="3" xlink:href="#font_2_52" transform="matrix(14.3462,0,0,-14.3462,207.75136,91.72999)"/>
<use data-text=")" xlink:href="#font_2_42" transform="matrix(14.3462,0,0,-14.3462,214.92446,91.72999)"/>
<path transform="matrix(1,0,0,-1,142.836,183.49399)" stroke-width=".79701" stroke-linecap="round" stroke-linejoin="round" fill="none" stroke="#000000" d="M25.51193 28.3468H31.18166"/>
<path transform="matrix(1,0,0,-1,142.836,183.49399)" stroke-width=".79701" stroke-linecap="round" stroke-linejoin="round" fill="none" stroke="#000000" d="M28.3468 25.51193V31.18166"/>
<use data-text="&#x1d439;" xlink:href="#font_2_2477" transform="matrix(14.3462,0,0,-14.3462,178.356,148.42398)"/>
<use data-text="(" xlink:href="#font_2_41" transform="matrix(14.3462,0,0,-14.3462,189.28781,148.42398)"/>
<use data-text="1" xlink:href="#font_2_50" transform="matrix(14.3462,0,0,-14.3462,194.0651,148.42398)"/>
<use data-text="," xlink:href="#font_2_45" transform="matrix(14.3462,0,0,-14.3462,201.23819,148.42398)"/>
<use data-text="1" xlink:href="#font_2_50" transform="matrix(14.3462,0,0,-14.3462,207.22055,148.42398)"/>
<use data-text=")" xlink:href="#font_2_42" transform="matrix(14.3462,0,0,-14.3462,214.39365,148.42398)"/>
<use data-text="&#x1d465;" xlink:href="#font_2_2520" transform="matrix(14.3462,0,0,-14.3462,275.937,117.55099)" fill="#ff0000"/>
<use data-text="2" xlink:href="#font_2_51" transform="matrix(9.9626,0,0,-9.9626,283.827,111.81199)" fill="#ff0000"/>
<use data-text="&#x2212;" xlink:href="#font_2_1151" transform="matrix(14.3462,0,0,-14.3462,292.495,117.55099)" fill="#ff0000"/>
<use data-text="2" xlink:href="#font_2_51" transform="matrix(14.3462,0,0,-14.3462,305.50703,117.55099)" fill="#ff0000"/>
<use data-text="&#x1d465;" xlink:href="#font_2_2520" transform="matrix(14.3462,0,0,-14.3462,312.6801,117.55099)" fill="#ff0000"/>
<use data-text="+" xlink:href="#font_2_44" transform="matrix(14.3462,0,0,-14.3462,323.75538,117.55099)" fill="#ff0000"/>
<use data-text="8" xlink:href="#font_2_57" transform="matrix(14.3462,0,0,-14.3462,336.7674,117.55099)" fill="#ff0000"/>
<use data-text="&#x1d466;" xlink:href="#font_2_2521" transform="matrix(14.3462,0,0,-14.3462,343.9405,117.55099)" fill="#ff0000"/>
<use data-text="&#x2212;" xlink:href="#font_2_1151" transform="matrix(14.3462,0,0,-14.3462,354.24107,117.55099)" fill="#ff0000"/>
<use data-text="2" xlink:href="#font_2_51" transform="matrix(14.3462,0,0,-14.3462,367.2674,117.55099)" fill="#ff0000"/>
<use data-text="3" xlink:href="#font_2_52" transform="matrix(14.3462,0,0,-14.3462,374.4405,117.55099)" fill="#ff0000"/>
<use data-text="=" xlink:href="#font_2_62" transform="matrix(14.3462,0,0,-14.3462,385.60188,117.55099)" fill="#ff0000"/>
<use data-text="0" xlink:href="#font_2_49" transform="matrix(14.3462,0,0,-14.3462,399.4029,117.55099)" fill="#ff0000"/>
</g>
</svg>
