<svg xmlns="http://www.w3.org/2000/svg" xmlns:xlink="http://www.w3.org/1999/xlink" xmlns:inkscape="http://www.inkscape.org/namespaces/inkscape" version="1.1" width="345" height="312" viewBox="0 0 345 312">
<defs>
<clipPath id="clip_1">
<path transform="matrix(1,0,0,-1,-123,766)" d="M0 0H595.28V841.89H0Z"/>
</clipPath>
<path id="font_2_2520" d="M.30499269 .28834535 .2849884 .3433838C.272995 .3764038 .2539978 .41740418 .20999146 .44140626L.07798767 .4084015 .08099365 .39039613C.09098816 .39439393 .10598755 .39639283 .11898804 .39639283 .17399597 .39639283 .19999695 .35539247 .21699524 .3073578L.25 .21530152 .18499756 .11424255C.15299988 .065216068 .1269989 .0552063 .114990238 .0552063 .08999634 .0552063 .09399414 .07521057 .067993167 .07521057 .042999269 .07521057 .02999878 .05419922 .02999878 .038208009 .02999878 .016204834 .04598999-.0087890629 .08198547-.0087890629 .13798523-.0087890629 .16699219 .034210206 .19898987 .083221439L.2619934 .18127442 .3019867 .06820679C.31498719 .032196046 .33399964-.0087890629 .375-.0087890629 .43299867-.0087890629 .47799684 .08721924 .48999024 .10223389L.47599793 .11224365C.45498658 .06921387 .43099977 .0552063 .4149933 .0552063 .36999513 .0552063 .34700013 .19029236 .31698609 .25231935L.37199403 .33737184C.38598634 .35939027 .39698792 .37539674 .4269867 .37539674 .44400025 .37539674 .44898988 .36639405 .47099305 .36639405 .49699403 .36639405 .5099945 .3894043 .5099945 .4084015 .5099945 .42939759 .49299623 .44140626 .46099855 .44140626 .41099549 .44140626 .37599183 .3973999 .34999085 .35739137L.30499269 .28834535Z"/>
<path id="font_2_2521" d="M.269989 .30682374C.26098634 .38082887 .2539978 .40682984 .23098755 .4398346L.08099365 .41482545 .08299255 .39883424C.09199524 .39982606 .10798645 .40283204 .11898804 .40283204 .1749878 .40283204 .18399048 .34283448 .18899536 .2978363L.22698975-.016174317C.20098877-.056167604 .14399719-.11816406 .1269989-.11816406 .11099243-.11816406 .11299133-.08717346 .069992069-.08717346 .056991579-.08717346 .02999878-.09817505 .02999878-.12817383 .02999878-.1521759 .04899597-.1831665 .085998538-.1831665 .1539917-.1831665 .21899414-.08517456 .2919922 .0068359377 .33399964 .059829713 .49598695 .2998352 .49598695 .37782289 .49598695 .41682435 .47099305 .4398346 .43899537 .4398346 .4099884 .4398346 .3919983 .42182923 .3919983 .39982606 .3919983 .36183167 .44400025 .3518219 .44400025 .3308258 .44400025 .3128357 .43598939 .29283143 .41600038 .25582887 .3939972 .21482849 .35899354 .15483094 .2979889 .07182312L.269989 .30682374Z"/>
<path id="font_2_3866" d="M.1289978 .0289917C.18099976 .125 .2869873 .33599855 .30499269 .3849945 .30899049 .394989 .31298829 .41600038 .31298829 .4249878 .31298829 .46699525 .28599549 .4850006 .2559967 .4850006 .22999573 .4850006 .20498657 .46998597 .19099427 .4269867 .17599488 .3769989 .12199402 .14399719 .099990848 .038986207L.1289978 .0289917Z"/>
<path id="font_2_2514" d="M.1749878 .2669983 .22099304 .44099427 .06399536 .41799928 .06599426 .40299989C.07199097 .4039917 .085998538 .4059906 .09298706 .4059906 .114990238 .4059906 .12599182 .3999939 .12599182 .3869934 .12599182 .38198854 .125 .375 .12199402 .3639984L.02999878 0H.10699463L.12799073 .07598877C.1329956 .09298706 .21998596 .34899903 .2809906 .34899903 .29899598 .34899903 .2889862 .31098939 .32798768 .31098939 .36898805 .31098939 .3929901 .35499574 .3929901 .3929901 .3929901 .41999818 .37799073 .44099427 .34899903 .44099427 .2939911 .44099427 .24598694 .37599183 .21199036 .32199098 .20098877 .3039856 .18899536 .28399659 .17999268 .2659912L.1749878 .2669983Z"/>
<path id="font_2_3165" d="M.47399903 .47183229C.47399903 .6049347 .4189911 .66796877 .34599305 .66796877 .1559906 .66796877 .039993287 .34173585 .039993287 .16798401 .039993287 .048202516 .08198547-.0107421879 .1769867-.0107421879 .33099366-.0107421879 .47399903 .2758026 .47399903 .47183229M.15899658 .34375C.18499756 .4628296 .2669983 .6389618 .33898927 .6389618 .37998963 .6389618 .3899994 .58291628 .3899994 .50987246 .3899994 .46884156 .37998963 .41378785 .36499024 .34375H.15899658M.35598756 .30773927C.35299684 .29875184 .34700013 .270813 .33999635 .24784851 .30899049 .14901734 .24899292 .018249512 .18199158 .018249512 .13899231 .018249512 .12399292 .074157718 .12399292 .14303589 .12399292 .19094849 .1329956 .25782777 .14898682 .30773927H.35598756Z"/>
<path id="font_2_3158" d="M.5289917 .4281311H.44999696L.38598634 .30514527C.38598634 .37513734 .34899903 .4411316 .27198792 .4411316 .1639862 .4411316 .07499695 .33413697 .04699707 .21717835 .040985109 .19218445 .039993287 .17318726 .039993287 .15119934 .039993287 .06820679 .083999637-.009765625 .16899109-.009765625 .23599243-.009765625 .28799439 .02722168 .32199098 .07720947H.32398988C.32598878 .031219483 .35398866-.009765625 .3899994-.009765625 .43399049-.009765625 .46699525 .04522705 .4850006 .1182251L.46998597 .12522888C.45098878 .07022095 .43598939 .051223756 .42399598 .051223756 .3999939 .051223756 .3899994 .10223389 .3899994 .15022278V.18722534L.5289917 .4281311M.32199098 .27316285C.32199098 .24617005 .32099916 .22216797 .31698609 .20217896 .2979889 .14718628 .24198914 .020233155 .17799378 .020233155 .12799073 .020233155 .12399292 .06820679 .12399292 .12519837 .12399292 .28414918 .20298767 .4111328 .2599945 .4111328 .31799317 .4111328 .32199098 .34114076 .32199098 .27316285Z"/>
<path id="font_2_2487" d="M.20098877 .65319827 .19699097 .63720706H.21598816C.2769928 .63720706 .2939911 .62120059 .2939911 .6001892 .2939911 .5921936 .2919922 .5831909 .2899933 .57518008L.16499329 .07800293C.1559906 .04399109 .13598633 .015991211 .05899048 .015991211H.041992189L.037994386 0H.3789978L.3829956 .015991211H.35099793C.2919922 .015991211 .27398683 .0309906 .27398683 .054992677 .27398683 .06300354 .2749939 .070007327 .2769928 .07800293L.33299256 .30104066C.33699037 .30004884 .33999635 .29904176 .34498597 .29904176 .36898805 .29504396 .3909912 .29405213 .4189911 .29405213 .6230011 .29405213 .70399478 .39508058 .70399478 .49313355 .70399478 .56718447 .6419983 .65319827 .47200013 .65319827H.20098877M.41099549 .61320498C.42799378 .61520388 .44299317 .61621096 .45999146 .61621096 .5549927 .61621096 .58499148 .5631714 .58499148 .5031433 .58499148 .40109254 .5049896 .3310547 .40299989 .3310547 .3829956 .3310547 .35899354 .3350525 .34298707 .3390503L.41099549 .61320498Z"/>
<path id="font_2_41" d="M.3039856-.16122437C.1639862-.04423523 .13398743 .06877136 .13398743 .254776 .13398743 .44776917 .16499329 .5407715 .3039856 .6597748L.29499818 .67578127C.1349945 .58078 .04798889 .43676759 .04798889 .25177003 .04798889 .08177185 .13398743-.0872345 .2919922-.17723084L.3039856-.16122437Z"/>
<path id="font_2_45" d="M.08299255-.14086914C.1519928-.10786438 .19499207-.04486084 .19499207 .015136719 .19499207 .06713867 .1599884 .102127078 .114990238 .102127078 .07899475 .102127078 .054992677 .07913208 .054992677 .045135499 .054992677 .011138916 .07598877-.005859375 .11299133-.005859375 .12399292-.0059661867 .13398743-.001953125 .14199829-.001953125 .1499939-.001953125 .1559906-.007965088 .1559906-.014953613 .1559906-.047958375 .12799073-.08496094 .07299805-.1219635L.08299255-.14086914Z"/>
<path id="font_2_42" d="M.0289917 .6597748C.17399597 .54577639 .19898987 .43077088 .19898987 .24377442 .19898987 .04977417 .17098999-.04423523 .0289917-.16122437L.037994386-.17723084C.19699097-.08023071 .2849884 .061767579 .2849884 .24676514 .2849884 .41677857 .19400025 .58377078 .040985109 .67578127L.0289917 .6597748Z"/>
<path id="font_3_48" d="M.6879883 .33103944C.6879883 .5288696 .5569916 .67578127 .36099244 .67578127 .1659851 .67578127 .033996583 .53686526 .033996583 .3340454 .033996583 .1262207 .16699219-.013671875 .36099244-.013671875 .5529938-.013671875 .6879883 .12522888 .6879883 .33103944M.57398989 .33703614C.57398989 .21714783 .54599 .12322998 .4909973 .07028198 .45599366 .03730774 .4119873 .022323609 .3619995 .022323609 .31599427 .022323609 .27198792 .03630066 .23799134 .067276 .1769867 .12322998 .147995 .21315003 .147995 .3320465 .147995 .42695619 .17399597 .52388 .21699524 .5728302 .2559967 .6177826 .30599977 .6397705 .3600006 .6397705 .40699769 .6397705 .44699098 .6227875 .48298646 .59280398 .5399933 .54486086 .57398989 .450943 .57398989 .33703614Z"/>
<path id="font_2_906" d="M.09700012 .40299989C.13598633 .47499085 .21499634 .6329956 .22898865 .66999819 .23199463 .6769867 .23498535 .69299319 .23498535 .69999697 .23498535 .73098757 .21499634 .7449951 .19198609 .7449951 .17298889 .7449951 .15299988 .73298647 .14299011 .70098879 .13198853 .6639862 .09199524 .4889984 .07499695 .4099884L.09700012 .40299989Z"/>
</defs>
<g clip-path="url(#clip_1)">
<path transform="matrix(1,0,0,-1,102.841,208.65699)" stroke-width=".79701" stroke-linecap="round" stroke-linejoin="round" fill="none" stroke="#000000" d="M-102.04825 0H235.52231"/>
<path transform="matrix(1,0,0,-1,338.3633,208.65699)" d="M2.59026 0-1.55415 2.0722 0 0-1.55415-2.0722"/>
<use data-text="&#x1d465;" xlink:href="#font_2_2520" transform="matrix(14.3462,0,0,-14.3462,337.008,219.36699)"/>
<path transform="matrix(1,0,0,-1,102.841,208.65699)" stroke-width=".79701" stroke-linecap="round" stroke-linejoin="round" fill="none" stroke="#000000" d="M0-102.04825V201.50623"/>
<path transform="matrix(0,-1,-1,-0,102.841,7.150757)" d="M2.59026 0-1.55415 2.0722 0 0-1.55415-2.0722"/>
<use data-text="&#x1d466;" xlink:href="#font_2_2521" transform="matrix(14.3462,0,0,-14.3462,107.224,6.4039766)"/>
<path transform="matrix(1,0,0,-1,102.841,208.65699)" stroke-width=".59776" stroke-linecap="round" stroke-dasharray="2.98883,2.98883" stroke-linejoin="round" fill="none" stroke="#000000" d="M97.57315 139.34867 97.59193 0"/>
<use data-text="&#x1d466;" xlink:href="#font_2_2521" transform="matrix(14.3462,0,0,-14.3462,204.707,140.82599)"/>
<use data-text="&#x1d465;" xlink:href="#font_2_2520" transform="matrix(14.3462,0,0,-14.3462,147.692,219.36699)"/>
<path transform="matrix(1,0,0,-1,102.841,208.65699)" stroke-width=".59776" stroke-linecap="round" stroke-dasharray="2.98883,2.98883" stroke-linejoin="round" fill="none" stroke="#000000" d="M97.57315 139.34867 0 139.37552"/>
<path transform="matrix(1,0,0,-1,102.841,208.65699)" stroke-width=".79701" stroke-linecap="round" stroke-linejoin="round" fill="none" stroke="#0000ff" d="M-88.37659-51.02345 203.96886 117.75969"/>
<path transform="matrix(.86601,-.49998,-.49998,-.86601,306.80986,90.89729)" d="M2.59026 0-1.55415 2.0722 0 0-1.55415-2.0722" fill="#0000ff"/>
<use data-text="&#x1d465;" xlink:href="#font_2_2520" transform="matrix(14.3462,0,0,-14.3462,313.436,94.82298)" fill="#0000ff"/>
<use data-text="&#x2032;" xlink:href="#font_2_3866" transform="matrix(9.9626,0,0,-9.9626,321.326,89.083988)" fill="#0000ff"/>
<path transform="matrix(1,0,0,-1,102.841,208.65699)" stroke-width=".79701" stroke-linecap="round" stroke-linejoin="round" fill="none" stroke="#0000ff" d="M51.02345-88.37659-92.24794 159.78055"/>
<path transform="matrix(-.49998,-.86601,-.86601,.49998,10.593063,48.87645)" d="M2.59026 0-1.55415 2.0722 0 0-1.55415-2.0722" fill="#0000ff"/>
<use data-text="&#x1d466;" xlink:href="#font_2_2521" transform="matrix(14.3462,0,0,-14.3462,13.681,39.624986)" fill="#0000ff"/>
<use data-text="&#x2032;" xlink:href="#font_2_3866" transform="matrix(9.9626,0,0,-9.9626,20.796998,33.885988)" fill="#0000ff"/>
<path transform="matrix(1,0,0,-1,102.841,208.65699)" stroke-width=".59776" stroke-linecap="round" stroke-dasharray="2.98883,2.98883" stroke-linejoin="round" fill="none" stroke="#000000" d="M97.56723 139.3429 133.53144 77.0948"/>
<use data-text="&#x1d466;" xlink:href="#font_2_2521" transform="matrix(14.3462,0,0,-14.3462,222.67401,104.41098)"/>
<use data-text="&#x2032;" xlink:href="#font_2_3866" transform="matrix(9.9626,0,0,-9.9626,229.79001,98.67198)"/>
<use data-text="&#x1d465;" xlink:href="#font_2_2520" transform="matrix(14.3462,0,0,-14.3462,163.35501,185.06398)"/>
<use data-text="&#x2032;" xlink:href="#font_2_3866" transform="matrix(9.9626,0,0,-9.9626,171.245,179.32498)"/>
<path transform="matrix(1,0,0,-1,102.841,208.65699)" stroke-width=".59776" stroke-linecap="round" stroke-dasharray="2.98883,2.98883" stroke-linejoin="round" fill="none" stroke="#000000" d="M97.56723 139.3429-35.95128 62.26912"/>
<path transform="matrix(1,0,0,-1,102.841,208.65699)" stroke-width=".79701" stroke-linecap="round" stroke-linejoin="round" fill="none" stroke="#000000" d="M0 0 96.08748 137.2269"/>
<path transform="matrix(.57356,-.81914,-.81914,-.57356,198.92848,71.4301)" d="M2.59026 0-1.55415 2.0722 0 0-1.55415-2.0722"/>
<use data-text="&#x1d45f;" xlink:href="#font_2_2514" transform="matrix(14.3462,0,0,-14.3462,141.391,134.59899)"/>
<path transform="matrix(1,0,0,-1,102.841,208.65699)" stroke-width=".79701" stroke-linecap="round" stroke-linejoin="round" fill="none" stroke="#000000" d="M51.02411 0C51.02411 8.95427 48.66505 17.75752 45.48334 23.26881"/>
<path transform="matrix(-.49997,-.86603,-.86603,.49997,148.32436,185.38817)" d="M2.59026 0-1.55415 2.0722 0 0-1.55415-2.0722"/>
<use data-text="&#x1d703;" xlink:href="#font_2_3165" transform="matrix(14.3462,0,0,-14.3462,156.51001,198.17099)"/>
<path transform="matrix(1,0,0,-1,102.841,208.65699)" stroke-width=".79701" stroke-linecap="round" stroke-linejoin="round" fill="none" stroke="#000000" d="M73.64716 42.52008C67.44069 53.26947 58.94524 62.5422 50.89906 68.17538"/>
<path transform="matrix(-.81918,-.5735,-.5735,.81918,153.74008,140.48162)" d="M2.59026 0-1.55415 2.0722 0 0-1.55415-2.0722"/>
<use data-text="&#x1d6fc;" xlink:href="#font_2_3158" transform="matrix(14.3462,0,0,-14.3462,171.912,150.31299)"/>
<use data-text="&#x1d443;" xlink:href="#font_2_2487" transform="matrix(14.3462,0,0,-14.3462,179.80802,42.373979)"/>
<use data-text="(" xlink:href="#font_2_41" transform="matrix(14.3462,0,0,-14.3462,190.46723,42.373979)"/>
<use data-text="&#x1d465;" xlink:href="#font_2_2520" transform="matrix(14.3462,0,0,-14.3462,195.2445,42.373979)"/>
<use data-text="," xlink:href="#font_2_45" transform="matrix(14.3462,0,0,-14.3462,203.13492,42.373979)"/>
<use data-text="&#x1d466;" xlink:href="#font_2_2521" transform="matrix(14.3462,0,0,-14.3462,209.11728,42.373979)"/>
<use data-text=")" xlink:href="#font_2_42" transform="matrix(14.3462,0,0,-14.3462,216.233,42.373979)"/>
<use data-text="&#x1d443;" xlink:href="#font_2_2487" transform="matrix(14.3462,0,0,-14.3462,172.889,62.299989)"/>
<use data-text="&#x2032;" xlink:href="#font_2_3866" transform="matrix(9.9626,0,0,-9.9626,183.56201,56.56099)"/>
<use data-text="(" xlink:href="#font_2_41" transform="matrix(14.3462,0,0,-14.3462,188.17502,62.299989)"/>
<use data-text="&#x1d465;" xlink:href="#font_2_2520" transform="matrix(14.3462,0,0,-14.3462,192.9523,62.299989)"/>
<use data-text="&#x2032;" xlink:href="#font_2_3866" transform="matrix(9.9626,0,0,-9.9626,200.84302,56.56099)"/>
<use data-text="," xlink:href="#font_2_45" transform="matrix(14.3462,0,0,-14.3462,205.45603,62.299989)"/>
<use data-text="&#x1d466;" xlink:href="#font_2_2521" transform="matrix(14.3462,0,0,-14.3462,211.42404,62.299989)"/>
<use data-text="&#x2032;" xlink:href="#font_2_3866" transform="matrix(9.9626,0,0,-9.9626,218.54901,56.56099)"/>
<use data-text=")" xlink:href="#font_2_42" transform="matrix(14.3462,0,0,-14.3462,223.16202,62.299989)"/>
<use data-text="O" xlink:href="#font_3_48" transform="matrix(14.3462,0,0,-14.3462,107.224,204.07299)"/>
<use data-text="O" xlink:href="#font_3_48" transform="matrix(14.3462,0,0,-14.3462,83.65201,223.72798)" fill="#0000ff"/>
<use data-text="&#x2032;" xlink:href="#font_2_906" transform="matrix(14.3462,0,0,-14.3462,94.01001,223.72798)" fill="#0000ff"/>
</g>
</svg>
