<svg xmlns="http://www.w3.org/2000/svg" xmlns:xlink="http://www.w3.org/1999/xlink" xmlns:inkscape="http://www.inkscape.org/namespaces/inkscape" version="1.1" width="361" height="728" viewBox="0 0 361 728">
<defs>
<clipPath id="clip_1">
<path transform="matrix(1,0,0,-1,-115,770)" d="M0 0H595.28V841.89H0Z"/>
</clipPath>
<path id="font_2_40" d="M.7549896 .28741456H.41099549V.26242066C.49699403 .25743104 .5130005 .24041748 .5130005 .18843079V.09942627C.5130005 .048431398 .48799134 .014434814 .4169922 .014434814 .33999635 .014434814 .29699708 .043441774 .2619934 .10142517 .22898865 .1564331 .21398926 .23542786 .21398926 .33842469 .21398926 .54541018 .28199769 .6584015 .397995 .6584015 .44499208 .6584015 .49299623 .6403961 .5359955 .60240176 .57899478 .56440737 .5970001 .5294037 .6319885 .45341493H.6569977V.68840029H.6299896C.61499026 .6524048 .6049957 .642395 .58599856 .642395 .57598879 .642395 .5629883 .6464081 .5399933 .6564026 .48199464 .68040469 .43699647 .69140627 .3849945 .69140627 .18499756 .69140627 .036987306 .53041079 .036987306 .3314209 .036987306 .11743164 .19099427-.018554688 .3919983-.018554688 .49598695-.018554688 .60398867 .006439209 .6689911 .044433595V.16242981C.6689911 .22541809 .6799927 .25442506 .7549896 .26242066V.28741456Z"/>
<path id="font_2_83" d="M.21798706 .4609375H.027999878V.43693543C.070999149 .43093873 .08299255 .41993714 .08299255 .37294007V.083984378C.08299255 .04298401 .07299805 .03199768 .0289917 .023986817V0H.2939911V.023986817C.23298645 .02798462 .22200012 .041992189 .22200012 .10597229V.28295899C.22200012 .34194947 .24798584 .38693238 .2829895 .38693238 .29100038 .38693238 .2999878 .38194276 .31098939 .36393739 .32798768 .33595277 .34498597 .325943 .37098695 .325943 .4079895 .325943 .43399049 .35394288 .43399049 .39393617 .43399049 .4396515 .3999939 .47265626 .35299684 .47265626 .30299378 .47265626 .2649994 .44665528 .21798706 .37864686V.4609375Z"/>
<path id="font_2_66" d="M.47299195 .06422424 .46299745 .054244996C.45999146 .051254274 .45700074 .050247194 .45199586 .050247194 .43798829 .050247194 .43099977 .06123352 .43099977 .07821655V.33880616C.43099977 .42466737 .35699464 .47265626 .23498535 .47265626 .12199402 .47265626 .04399109 .42666627 .04399109 .3467865 .04399109 .30485536 .067993167 .27890016 .10899353 .27890016 .14898682 .27890016 .1769867 .30485536 .1769867 .33880616 .1769867 .3527832 .17098999 .36476136 .1579895 .3807373 .14898682 .3907318 .14698792 .39772035 .14698792 .40370179 .14698792 .42767335 .17599488 .4406433 .21199036 .4406433 .2709961 .4406433 .29299928 .4116974 .29299928 .34779359V.27989198C.1769867 .24694824 .12998963 .22897339 .09199524 .20401001 .04699707 .174057 .024993897 .13612366 .024993897 .0921936 .024993897 .018295289 .070999149-.013671875 .1349945-.013671875 .19299317-.013671875 .23899842 .0053253176 .2939911 .055252077 .30499269 .0043182375 .32699586-.013671875 .37599183-.013671875 .4189911-.013671875 .44999696 .002319336 .48799134 .043258668L.47299195 .06422424M.29299928 .09718323C.2709961 .066223148 .24699402 .057235719 .22299195 .057235719 .19299317 .057235719 .17098999 .080200199 .17098999 .12414551 .17098999 .18205261 .21299744 .22299195 .29299928 .24494934V.09718323Z"/>
<path id="font_2_81" d="M.21199036 .4609375H.019989014V.43693543C.06399536 .4299469 .07499695 .4159546 .07499695 .37199403V-.1177063C.07499695-.15969849 .066986087-.17269898 .018997193-.18070984V-.20469666H.29100038V-.18070984C.22999573-.17770386 .21398926-.14570618 .21398926-.078704837V.047286989C.2619934 .000289917 .2869873-.0126953129 .33198548-.0126953129 .45199586-.0126953129 .5239868 .09425354 .5239868 .24909973 .5239868 .39564515 .45399476 .47265626 .34298707 .47265626 .28399659 .47265626 .24598694 .4516449 .21199036 .39164735V.4609375M.21398926 .34576417C.21398926 .35176087 .22099304 .36573792 .23199463 .3787079 .2519989 .40266419 .2769928 .4156494 .2999878 .4156494 .35099793 .4156494 .37599183 .3567505 .37599183 .23396302 .37599183 .096206668 .34599305 .042297365 .29100038 .042297365 .2579956 .042297365 .22898865 .069244388 .21398926 .107177738V.34576417Z"/>
<path id="font_2_73" d="M.5339966 0V.023986817C.49899293 .023986817 .4850006 .04096985 .4850006 .08692932V.3367157C.4850006 .4156494 .43699647 .47265626 .35499574 .47265626 .3019867 .47265626 .25698854 .4536438 .20799256 .3956604V.67578127H.01499939V.6517792C.06098938 .64276126 .068984989 .6387634 .068984989 .59072878V.08892822C.068984989 .032974245 .06098938 .032974245 .015991211 .023986817V0H.2559967V.023986817C.21899414 .0289917 .20799256 .04397583 .20799256 .08493042V.34770204C.20799256 .35169984 .21499634 .36169435 .22499085 .37167359 .24699402 .3936615 .2709961 .4056549 .29499818 .4056549 .33399964 .4056549 .34599305 .3796692 .34599305 .30873109V.08493042C.34599305 .04397583 .33399964 .02798462 .2999878 .023986817V0H.5339966Z"/>
<path id="font_2_18" d="M.44099427 0V.024002076C.34999085 .026000977 .33399964 .042007448 .33399964 .11805725V.68847659H.31599427L.06498718 .57940676V.55337527L.084991458 .5613861C.11299133 .57240298 .13699341 .57740786 .1499939 .57740786 .1749878 .57740786 .18598938 .5543823 .18598938 .50735476V.1290741C.18598938 .042007448 .16699219 .024993897 .067993167 .024002076V0H.44099427Z"/>
<path id="font_2_27" d="M.25099183 .38667298C.25099183 .43367005 .21299744 .4716797 .16699219 .4716797 .11898804 .4716797 .08198547 .43467713 .08198547 .3876648 .08198547 .3396759 .11898804 .30267335 .1659851 .30267335 .21299744 .30267335 .25099183 .3396759 .25099183 .38667298M.25099183 .07130432C.25099183 .11729431 .21299744 .15629578 .16699219 .15629578 .11999512 .15629578 .08198547 .11830139 .08198547 .07130432 .08198547 .02330017 .117996219-.0126953129 .1659851-.0126953129 .21299744-.0126953129 .25099183 .024291993 .25099183 .07130432Z"/>
<path id="font_3_2520" d="M.30499269 .28834535 .2849884 .3433838C.272995 .3764038 .2539978 .41740418 .20999146 .44140626L.07798767 .4084015 .08099365 .39039613C.09098816 .39439393 .10598755 .39639283 .11898804 .39639283 .17399597 .39639283 .19999695 .35539247 .21699524 .3073578L.25 .21530152 .18499756 .11424255C.15299988 .065216068 .1269989 .0552063 .114990238 .0552063 .08999634 .0552063 .09399414 .07521057 .067993167 .07521057 .042999269 .07521057 .02999878 .05419922 .02999878 .038208009 .02999878 .016204834 .04598999-.0087890629 .08198547-.0087890629 .13798523-.0087890629 .16699219 .034210206 .19898987 .083221439L.2619934 .18127442 .3019867 .06820679C.31498719 .032196046 .33399964-.0087890629 .375-.0087890629 .43299867-.0087890629 .47799684 .08721924 .48999024 .10223389L.47599793 .11224365C.45498658 .06921387 .43099977 .0552063 .4149933 .0552063 .36999513 .0552063 .34700013 .19029236 .31698609 .25231935L.37199403 .33737184C.38598634 .35939027 .39698792 .37539674 .4269867 .37539674 .44400025 .37539674 .44898988 .36639405 .47099305 .36639405 .49699403 .36639405 .5099945 .3894043 .5099945 .4084015 .5099945 .42939759 .49299623 .44140626 .46099855 .44140626 .41099549 .44140626 .37599183 .3973999 .34999085 .35739137L.30499269 .28834535Z"/>
<path id="font_3_51" d="M.47399903 .13696289 .45999146 .1429596C.4269867 .08699036 .4059906 .07598877 .3639984 .07598877H.12998963L.29499818 .2519226C.38398744 .34588624 .4229889 .42085267 .4229889 .4998169 .4229889 .59877017 .35099793 .67578127 .23799134 .67578127 .114990238 .67578127 .050994874 .5937805 .02999878 .4768219L.050994874 .47183229C.09098816 .5697937 .12599182 .6017761 .19799805 .6017761 .2829895 .6017761 .33699037 .55178835 .33699037 .4608307 .33699037 .37586976 .30099488 .29989625 .20698548 .200943L.0289917 .011993408V0H.41999818L.47399903 .13696289Z"/>
<path id="font_3_44" d="M.6359863 .22012329V.2861328H.375V.54711917H.30899049V.2861328H.04798889V.22012329H.30899049V-.040878297H.375V.22012329H.6359863Z"/>
<path id="font_3_53" d="M.47299195 .16699219V.23098755H.36999513V.67578127H.32598878L.011993408 .23098755V.16699219H.2919922V0H.36999513V.16699219H.47299195M.2919922 .23098755H.051986696L.2919922 .573822V.23098755Z"/>
<path id="font_3_2521" d="M.269989 .30682374C.26098634 .38082887 .2539978 .40682984 .23098755 .4398346L.08099365 .41482545 .08299255 .39883424C.09199524 .39982606 .10798645 .40283204 .11898804 .40283204 .1749878 .40283204 .18399048 .34283448 .18899536 .2978363L.22698975-.016174317C.20098877-.056167604 .14399719-.11816406 .1269989-.11816406 .11099243-.11816406 .11299133-.08717346 .069992069-.08717346 .056991579-.08717346 .02999878-.09817505 .02999878-.12817383 .02999878-.1521759 .04899597-.1831665 .085998538-.1831665 .1539917-.1831665 .21899414-.08517456 .2919922 .0068359377 .33399964 .059829713 .49598695 .2998352 .49598695 .37782289 .49598695 .41682435 .47099305 .4398346 .43899537 .4398346 .4099884 .4398346 .3919983 .42182923 .3919983 .39982606 .3919983 .36183167 .44400025 .3518219 .44400025 .3308258 .44400025 .3128357 .43598939 .29283143 .41600038 .25582887 .3939972 .21482849 .35899354 .15483094 .2979889 .07182312L.269989 .30682374Z"/>
<path id="font_3_62" d="M.6369934 .31973268V.3857422H.04798889V.31973268H.6369934M.6369934 .12011719V.18611145H.04798889V.12011719H.6369934Z"/>
<path id="font_3_49" d="M.47599793 .3300476C.47599793 .53486636 .3849945 .67578127 .2539978 .67578127 .09298706 .67578127 .023986817 .5128937 .023986817 .3360443 .023986817 .17218018 .07899475-.013671875 .25-.013671875 .41299439-.013671875 .47599793 .15818787 .47599793 .3300476M.37998963 .32505799C.37998963 .12722779 .33499146 .012313843 .25 .012313843 .1639862 .012313843 .11999512 .1262207 .11999512 .32904054 .11999512 .5318756 .16499329 .6497803 .24798584 .6497803 .33599855 .6497803 .37998963 .53286746 .37998963 .32505799Z"/>
<path id="font_4_48" d="M.6879883 .33103944C.6879883 .5288696 .5569916 .67578127 .36099244 .67578127 .1659851 .67578127 .033996583 .53686526 .033996583 .3340454 .033996583 .1262207 .16699219-.013671875 .36099244-.013671875 .5529938-.013671875 .6879883 .12522888 .6879883 .33103944M.57398989 .33703614C.57398989 .21714783 .54599 .12322998 .4909973 .07028198 .45599366 .03730774 .4119873 .022323609 .3619995 .022323609 .31599427 .022323609 .27198792 .03630066 .23799134 .067276 .1769867 .12322998 .147995 .21315003 .147995 .3320465 .147995 .42695619 .17399597 .52388 .21699524 .5728302 .2559967 .6177826 .30599977 .6397705 .3600006 .6397705 .40699769 .6397705 .44699098 .6227875 .48298646 .59280398 .5399933 .54486086 .57398989 .450943 .57398989 .33703614Z"/>
<path id="font_3_2469" d="M.48399354 0V.023986817C.46798707 .0289917 .46099855 .032989503 .45399476 .04399109L.30599977 .2719574 .40699769 .39793397C.42599488 .42092896 .44599916 .43193055 .47698976 .43693543V.4609375H.30899049V.43693543L.32899476 .43493653C.35198976 .43293763 .3600006 .42793275 .3600006 .41293336 .3600006 .39793397 .34899903 .38394166 .32199098 .348938L.28599549 .302948C.28199769 .3089447 .2769928 .31495667 .272995 .3199463 .23999024 .36294557 .21499634 .40493775 .21499634 .41793824 .21499634 .42993165 .22898865 .43592835 .2619934 .43693543V.4609375H.011993408V.43693543C.037994386 .43293763 .04399109 .42793275 .06399536 .39793397L.19198609 .20095825C.1769867 .18296814 .18499756 .19197083 .16999817 .17297364 .15499878 .15397644 .14099121 .13597107 .1269989 .11697388 .070999149 .041992189 .050994874 .025985718 .01399231 .023986817V0H.18299866V.023986817C.14698792 .025985718 .1329956 .032989503 .1329956 .04798889 .1329956 .0639801 .1579895 .10397339 .19699097 .15097046 .20298767 .15797425 .20799256 .16497803 .21299744 .17097473 .22599793 .14997864 .23999024 .12898255 .25498963 .10798645 .2789917 .07298279 .28799439 .055984498 .28799439 .04399109 .28799439 .03199768 .2749939 .025985718 .24299622 .023986817V0H.48399354Z"/>
<path id="font_3_3368" d="M.47799684 .21099854H.45298768C.4269867 .13899231 .4039917 .1329956 .2999878 .1329956H.1599884L.32199098 .2869873C.40098573 .3619995 .43598939 .42900086 .43598939 .5049896 .43598939 .6179962 .3619995 .6879883 .2539978 .6879883 .1539917 .6879883 .07798767 .6239929 .0309906 .48399354H.05899048C.08999634 .54599 .1329956 .57398989 .18099976 .57398989 .2599945 .57398989 .2999878 .5149994 .2999878 .44699098 .2999878 .40299989 .2809906 .34799195 .24899292 .29899598 .19799805 .22099304 .16299439 .1789856 .016998291 .022994996V0H.43199159L.47799684 .21099854Z"/>
<path id="font_3_3370" d="M.47599793 .14399719V.25498963H.4119873V.6879883H.33198548L.018997193 .25698854V.14399719H.2669983V0H.4119873V.14399719H.47599793M.2679901 .25498963H.05999756L.2679901 .548996V.25498963Z"/>
<path id="font_3_2470" d="M.48199464 .4609375H.32998658V.43693543C.37298585 .43493653 .38398744 .42793275 .38398744 .40393067 .38398744 .39193727 .38198854 .38093568 .37298585 .3549347L.30499269 .16693115 .23298645 .3529358C.22200012 .38093568 .21299744 .40693666 .21299744 .41093446 .21299744 .42593385 .22399903 .43392945 .24899292 .43592835L.2649994 .43693543V.4609375H.015991211V.43693543C.037994386 .43392945 .04399109 .43093873 .049987794 .42292787 .05899048 .41093446 .09700012 .3269348 .116989139 .27693177L.23599243-.013076782 .21798706-.066085819C.20098877-.11608887 .17599488-.14808655 .1519928-.14808655 .14299011-.14808655 .1349945-.14009094 .1349945-.13108826 .1349945-.13108826 .1349945-.12808228 .13598633-.12509156 .13699341-.12008667 .13798523-.11508179 .13798523-.111083988 .13798523-.08207703 .11199951-.05908203 .07798767-.05908203 .039993287-.05908203 .015991211-.08808899 .015991211-.12608338 .015991211-.17308045 .055999757-.20507813 .11299133-.20507813 .14698792-.20507813 .17599488-.1940918 .19699097-.17208863 .21798706-.14907837 .23899842-.110076908 .27398683-.016082764L.42199708 .3819275C.43798829 .42492677 .45098878 .43293763 .48199464 .43693543V.4609375Z"/>
<path id="font_3_3366" d="M.47599793 .33721925C.47599793 .5031891 .4119873 .6881561 .25299073 .6881561 .08198547 .6881561 .023986817 .49717713 .023986817 .33422853 .023986817 .12626648 .11999512-.0126953129 .25099183-.0126953129 .3809967-.0126953129 .47599793 .12626648 .47599793 .33721925M.31799317 .22424317C.31799317 .075286868 .30099488 .015304565 .25099183 .015304565 .20098877 .015304565 .18199158 .075286868 .18199158 .22424317V.44918824C.18199158 .6011658 .19999695 .66015627 .24899292 .66015627 .2979889 .66015627 .31799317 .5961609 .31799317 .44918824V.22424317Z"/>
<path id="font_3_41" d="M.3039856-.16122437C.1639862-.04423523 .13398743 .06877136 .13398743 .254776 .13398743 .44776917 .16499329 .5407715 .3039856 .6597748L.29499818 .67578127C.1349945 .58078 .04798889 .43676759 .04798889 .25177003 .04798889 .08177185 .13398743-.0872345 .2919922-.17723084L.3039856-.16122437Z"/>
<path id="font_3_1151" d="M.62098696 .22012329V.2861328H.06399536V.22012329H.62098696Z"/>
<path id="font_3_45" d="M.08299255-.14086914C.1519928-.10786438 .19499207-.04486084 .19499207 .015136719 .19499207 .06713867 .1599884 .102127078 .114990238 .102127078 .07899475 .102127078 .054992677 .07913208 .054992677 .045135499 .054992677 .011138916 .07598877-.005859375 .11299133-.005859375 .12399292-.0059661867 .13398743-.001953125 .14199829-.001953125 .1499939-.001953125 .1559906-.007965088 .1559906-.014953613 .1559906-.047958375 .12799073-.08496094 .07299805-.1219635L.08299255-.14086914Z"/>
<path id="font_3_50" d="M.3939972 0V.01499939C.31900025 .01499939 .29899598 .032989503 .29899598 .07597351V.67277529L.2899933 .67578127 .11099243 .5847931V.5708008L.13798523 .5807953C.1559906 .5877991 .17298889 .59280398 .18299866 .59280398 .20399475 .59280398 .21299744 .57780459 .21299744 .543808V.0949707C.21299744 .039978029 .19198609 .018997193 .117996219 .01499939V0H.3939972Z"/>
<path id="font_3_42" d="M.0289917 .6597748C.17399597 .54577639 .19898987 .43077088 .19898987 .24377442 .19898987 .04977417 .17098999-.04423523 .0289917-.16122437L.037994386-.17723084C.19699097-.08023071 .2849884 .061767579 .2849884 .24676514 .2849884 .41677857 .19400025 .58377078 .040985109 .67578127L.0289917 .6597748Z"/>
<path id="font_2_19" d="M.47799684 .21113587H.45298768C.4269867 .13908386 .4039917 .1330719 .2999878 .1330719H.1599884L.32199098 .28718568C.40098573 .36224366 .43598939 .42929078 .43598939 .5053406 .43598939 .61842349 .3619995 .68847659 .2539978 .68847659 .1539917 .68847659 .07798767 .6244354 .0309906 .48432923H.05899048C.08999634 .54637148 .1329956 .57440188 .18099976 .57440188 .2599945 .57440188 .2999878 .51535037 .2999878 .4473114 .2999878 .40327455 .2809906 .34823609 .24899292 .29919435 .19799805 .22114563 .16299439 .17910767 .016998291 .022994996V0H.43199159L.47799684 .21113587Z"/>
<path id="font_3_57" d="M.44499208 .15519715C.44499208 .23512268 .41299439 .28907777 .2899933 .37101747 .3889923 .42396546 .42399598 .45793153 .42399598 .53286746 .42399598 .6108093 .35499574 .67578127 .2559967 .67578127 .14498902 .67578127 .06199646 .61579897 .06199646 .5198822 .06199646 .4549408 .08299255 .41697694 .18598938 .3320465 .07899475 .2571106 .055999757 .21813965 .055999757 .14920044 .055999757 .055282594 .1349945-.013671875 .24798584-.013671875 .36799623-.013671875 .44499208 .05229187 .44499208 .15519715M.35499574 .53286746C.35499574 .470932 .32899476 .42897035 .26098634 .3889923 .17298889 .4409485 .13598633 .48690797 .13598633 .54885867 .13598633 .6108093 .1789856 .6477661 .24598694 .6477661 .31399537 .6477661 .35499574 .60180667 .35499574 .53286746M.2709961 .27209474C.33898927 .22613526 .36898805 .18617249 .36898805 .1242218 .36898805 .059280397 .32398988 .014328003 .25898744 .014328003 .18299866 .014328003 .13198853 .06626892 .13198853 .15820313 .13198853 .22314453 .15299988 .26409913 .21199036 .3120575L.2709961 .27209474Z"/>
<path id="font_3_47" d="M.18099976 .04324341C.18099976 .07325745 .15499878 .100250247 .12599182 .100250247 .09498596 .100250247 .069992069 .07525635 .069992069 .04425049 .069992069 .013244629 .09399414-.0107421879 .125-.0107421879 .15499878-.0107421879 .18099976 .014251709 .18099976 .04324341Z"/>
<path id="font_3_54" d="M.43798829 .68110659 .42900086 .6880951C.41299439 .667099 .4039917 .6621094 .3809967 .6621094H.17399597L.06498718 .4251709C.06498718 .4251709 .06399536 .42216493 .06399536 .42016603 .06399536 .4141693 .066986087 .4121704 .07598877 .4121704 .17199707 .4121704 .24198914 .380188 .2889862 .3421936 .33399964 .30621339 .35598756 .2562256 .35598756 .19226074 .35598756 .106292728 .29100038 .02331543 .22099304 .02331543 .20098877 .02331543 .17799378 .032318117 .1499939 .05531311 .117996219 .08129883 .09899902 .08630371 .07598877 .08630371 .04798889 .08630371 .0309906 .07330322 .0309906 .048309328 .0309906 .010314941 .08299255-.013671875 .1579895-.013671875 .22599793-.013671875 .2809906 .0013275147 .32798768 .035308839 .3959961 .08529663 .42599488 .14727783 .42599488 .24324036 .42599488 .29621888 .4169922 .334198 .3909912 .37019349 .33399964 .4491577 .28399659 .47114564 .14099121 .49813844L.18099976 .58309939H.375C.3909912 .58309939 .39898683 .58909609 .4019928 .59609988L.43798829 .68110659Z"/>
<path id="font_4_18" d="M.3939972 0V.01499939C.31900025 .01499939 .29899598 .032989503 .29899598 .07597351V.67277529L.2899933 .67578127 .11099243 .5847931V.5708008L.13798523 .5807953C.1559906 .5877991 .17298889 .59280398 .18299866 .59280398 .20399475 .59280398 .21299744 .57780459 .21299744 .543808V.0949707C.21299744 .039978029 .19198609 .018997193 .117996219 .01499939V0H.3939972Z"/>
</defs>
<g clip-path="url(#clip_1)">
<use data-text="G" xlink:href="#font_2_40" transform="matrix(17.2154,0,0,-17.2154,86.076007,15.078985)"/>
<use data-text="r" xlink:href="#font_2_83" transform="matrix(17.2154,0,0,-17.2154,99.46959,15.078985)"/>
<use data-text="a" xlink:href="#font_2_66" transform="matrix(17.2154,0,0,-17.2154,107.04436,15.078985)"/>
<use data-text="p" xlink:href="#font_2_81" transform="matrix(17.2154,0,0,-17.2154,115.652057,15.078985)"/>
<use data-text="h" xlink:href="#font_2_73" transform="matrix(17.2154,0,0,-17.2154,125.223819,15.078985)"/>
<use data-text="1" xlink:href="#font_2_18" transform="matrix(17.2154,0,0,-17.2154,139.08222,15.078985)"/>
<use data-text=":" xlink:href="#font_2_27" transform="matrix(17.2154,0,0,-17.2154,147.68991,15.078985)"/>
<use data-text="&#x1d465;" xlink:href="#font_3_2520" transform="matrix(17.2154,0,0,-17.2154,159.17801,15.078985)"/>
<use data-text="2" xlink:href="#font_3_51" transform="matrix(11.9552,0,0,-11.9552,168.647,8.191985)"/>
<use data-text="+" xlink:href="#font_3_44" transform="matrix(17.2154,0,0,-17.2154,178.948,15.078985)"/>
<use data-text="4" xlink:href="#font_3_53" transform="matrix(17.2154,0,0,-17.2154,194.56238,15.078985)"/>
<use data-text="&#x1d465;" xlink:href="#font_3_2520" transform="matrix(17.2154,0,0,-17.2154,203.17008,15.078985)"/>
<use data-text="+" xlink:href="#font_3_44" transform="matrix(17.2154,0,0,-17.2154,216.46036,15.078985)"/>
<use data-text="4" xlink:href="#font_3_53" transform="matrix(17.2154,0,0,-17.2154,232.0747,15.078985)"/>
<use data-text="&#x1d466;" xlink:href="#font_3_2521" transform="matrix(17.2154,0,0,-17.2154,240.6824,15.078985)"/>
<use data-text="=" xlink:href="#font_3_62" transform="matrix(17.2154,0,0,-17.2154,254.00714,15.078985)"/>
<use data-text="0" xlink:href="#font_3_49" transform="matrix(17.2154,0,0,-17.2154,270.58558,15.078985)"/>
<path transform="matrix(1,0,0,-1,234.40399,175.35199)" stroke-width=".79701" stroke-linecap="butt" stroke-miterlimit="10" stroke-linejoin="miter" fill="none" stroke="#000000" d="M-212.6011 0H80.93008"/>
<path transform="matrix(1,0,0,-1,312.869,175.35199)" d="M5.44046 0 1.28699 1.5706 2.66432 0 1.28699-1.5706Z"/>
<path transform="matrix(1,0,0,-1,312.869,175.35199)" stroke-width=".79701" stroke-linecap="butt" stroke-miterlimit="10" stroke-linejoin="miter" fill="none" stroke="#000000" d="M5.44046 0 1.28699 1.5706 2.66432 0 1.28699-1.5706Z"/>
<use data-text="&#x1d465;" xlink:href="#font_3_2520" transform="matrix(11.9552,0,0,-11.9552,323.828,177.93399)"/>
<path transform="matrix(1,0,0,-1,234.40399,175.35199)" stroke-width=".79701" stroke-linecap="butt" stroke-miterlimit="10" stroke-linejoin="miter" fill="none" stroke="#000000" d="M0-85.04044V123.4503"/>
<path transform="matrix(0,-1,-1,-0,234.40399,54.36676)" d="M5.44046 0 1.28699 1.5706 2.66432 0 1.28699-1.5706Z"/>
<path transform="matrix(0,-1,-1,-0,234.40399,54.36676)" stroke-width=".79701" stroke-linecap="butt" stroke-miterlimit="10" stroke-linejoin="miter" fill="none" stroke="#000000" d="M5.44046 0 1.28699 1.5706 2.66432 0 1.28699-1.5706Z"/>
<use data-text="&#x1d466;" xlink:href="#font_3_2521" transform="matrix(11.9552,0,0,-11.9552,231.439,41.219987)"/>
<use data-text="O" xlink:href="#font_4_48" transform="matrix(11.9552,0,0,-11.9552,221.58399,187.81299)"/>
<path transform="matrix(1,0,0,-1,234.40399,175.35199)" stroke-width="1.59404" stroke-linecap="butt" stroke-miterlimit="10" stroke-linejoin="miter" fill="none" stroke="#ff0000" d="M-191.34099-23.91762-189.19409-21.26074-187.04718-18.65839-184.90027-16.11052-182.75337-13.6165-180.60648-11.17633-178.45958-8.79132-176.31266-6.4595-174.16576-4.18285-172.01886-1.96002-169.87197 .2089-167.72507 2.32335-165.57814 4.38397-163.43125 6.39008-161.28435 8.3417-159.13745 10.23946-156.99056 12.08336-154.84363 13.87279-152.69673 15.60768-150.54984 17.28874-148.40294 18.91531-146.25603 20.48802-144.10912 22.00623-141.96222 23.46992-139.81533 24.88045-137.66843 26.2358-135.52152 27.53731-133.3746 28.78496-131.2277 29.97812-129.08081 31.11678-126.9339 32.20158-124.787 33.23189-122.64009 34.20833-120.4932 35.1303-118.3463 35.9984-116.19939 36.81201-114.05249 37.57176-111.90558 38.27701-109.75868 38.9284-107.61179 39.52531-105.46487 40.0677-103.31798 40.55627-101.17108 40.99097-99.02417 41.37051-96.87726 41.69687-94.73036 41.96872-92.58347 42.18608-90.43657 42.34958-88.28966 42.45857-86.14275 42.51308-83.99585 42.51436-81.84895 42.46051-79.70206 42.35281-77.55513 42.19125-75.40823 41.9752-73.26134 41.70467-71.11444 41.38025-68.96754 41.00136-66.82062 40.5686-64.67372 40.08199-62.52682 39.54024-60.37993 38.94463-58.23302 38.29518-56.0861 37.59122-53.93921 36.83342-51.79231 36.02112-49.64542 35.1543-47.4985 34.23364-45.3516 33.25914-43.2047 32.23013-41.0578 31.1466-38.9109 30.00926-36.76399 28.8174-34.61708 27.5717-32.47018 26.27148-30.32329 24.91742-28.17638 23.50887-26.02948 22.04645-23.88257 20.52954-21.73567 18.95811-19.58878 17.33286-17.44186 15.65376-15.29497 13.92014-13.14806 12.13202-11.00116 10.29005-8.85425 8.3936-6.70735 6.44328-4.56046 4.43846-2.41354 2.37982-.26665 .26665 1.88023-1.90099 4.02713-4.12186 6.17403-6.39787 8.32094-8.72774 10.46783-11.11145 12.61475-13.54967 14.76164-16.04239 16.90854-18.58896 19.05545-21.19003 21.20236-23.84496"/>
<use data-text="&#x1d431;" xlink:href="#font_3_2469" transform="matrix(11.9552,0,0,-11.9552,256.483,211.23699)" fill="#ff0000"/>
<use data-text="&#x1d7d0;" xlink:href="#font_3_3368" transform="matrix(8.9664,0,0,-8.9664,262.699,206.45499)" fill="#ff0000"/>
<use data-text="+" xlink:href="#font_3_44" transform="matrix(11.9552,0,0,-11.9552,270.338,211.23699)" fill="#ff0000"/>
<use data-text="&#x1d7d2;" xlink:href="#font_3_3370" transform="matrix(11.9552,0,0,-11.9552,281.18138,211.23699)" fill="#ff0000"/>
<use data-text="&#x1d431;" xlink:href="#font_3_2469" transform="matrix(11.9552,0,0,-11.9552,287.15898,211.23699)" fill="#ff0000"/>
<use data-text="+" xlink:href="#font_3_44" transform="matrix(11.9552,0,0,-11.9552,296.02973,211.23699)" fill="#ff0000"/>
<use data-text="&#x1d7d2;" xlink:href="#font_3_3370" transform="matrix(11.9552,0,0,-11.9552,306.87309,211.23699)" fill="#ff0000"/>
<use data-text="&#x1d432;" xlink:href="#font_3_2470" transform="matrix(11.9552,0,0,-11.9552,312.85069,211.23699)" fill="#ff0000"/>
<use data-text="=" xlink:href="#font_3_62" transform="matrix(11.9552,0,0,-11.9552,322.39094,211.23699)" fill="#ff0000"/>
<use data-text="&#x1d7ce;" xlink:href="#font_3_3366" transform="matrix(11.9552,0,0,-11.9552,333.90379,211.23699)" fill="#ff0000"/>
<path transform="matrix(1,0,0,-1,234.40399,175.35199)" stroke-width=".79701" stroke-linecap="butt" stroke-dasharray="2.98883,2.98883" stroke-miterlimit="10" stroke-linejoin="miter" fill="none" stroke="#000000" d="M-85.04044 0V42.52022H0"/>
<path transform="matrix(1,0,0,-1,234.40399,175.35199)" d="M-83.54602 42.52022C-83.54602 43.34557-84.21509 44.01463-85.04044 44.01463-85.86578 44.01463-86.53485 43.34557-86.53485 42.52022-86.53485 41.69487-85.86578 41.0258-85.04044 41.0258-84.21509 41.0258-83.54602 41.69487-83.54602 42.52022ZM-85.04044 42.52022"/>
<path transform="matrix(1,0,0,-1,234.40399,175.35199)" stroke-width=".3985" stroke-linecap="butt" stroke-miterlimit="10" stroke-linejoin="miter" fill="none" stroke="#000000" d="M-83.54602 42.52022C-83.54602 43.34557-84.21509 44.01463-85.04044 44.01463-85.86578 44.01463-86.53485 43.34557-86.53485 42.52022-86.53485 41.69487-85.86578 41.0258-85.04044 41.0258-84.21509 41.0258-83.54602 41.69487-83.54602 42.52022ZM-85.04044 42.52022"/>
<use data-text="(" xlink:href="#font_3_41" transform="matrix(11.9552,0,0,-11.9552,132.819,126.53199)"/>
<use data-text="&#x2212;" xlink:href="#font_3_1151" transform="matrix(11.9552,0,0,-11.9552,136.80008,126.53199)"/>
<use data-text="2" xlink:href="#font_3_51" transform="matrix(11.9552,0,0,-11.9552,144.98938,126.53199)"/>
<use data-text="," xlink:href="#font_3_45" transform="matrix(11.9552,0,0,-11.9552,150.96698,126.53199)"/>
<use data-text="1" xlink:href="#font_3_50" transform="matrix(11.9552,0,0,-11.9552,155.94034,126.53199)"/>
<use data-text=")" xlink:href="#font_3_42" transform="matrix(11.9552,0,0,-11.9552,161.91794,126.53199)"/>
<path transform="matrix(1,0,0,-1,234.40399,175.35199)" d="M-168.58647 0C-168.58647 .82533-169.25554 1.49442-170.08089 1.49442-170.90624 1.49442-171.5753 .82533-171.5753 0-171.5753-.82533-170.90624-1.49442-170.08089-1.49442-169.25554-1.49442-168.58647-.82533-168.58647 0ZM-170.08089 0"/>
<path transform="matrix(1,0,0,-1,234.40399,175.35199)" stroke-width=".3985" stroke-linecap="butt" stroke-miterlimit="10" stroke-linejoin="miter" fill="none" stroke="#000000" d="M-168.58647 0C-168.58647 .82533-169.25554 1.49442-170.08089 1.49442-170.90624 1.49442-171.5753 .82533-171.5753 0-171.5753-.82533-170.90624-1.49442-170.08089-1.49442-169.25554-1.49442-168.58647-.82533-168.58647 0ZM-170.08089 0"/>
<use data-text="(" xlink:href="#font_3_41" transform="matrix(11.9552,0,0,-11.9552,68.50699,187.618)"/>
<use data-text="&#x2212;" xlink:href="#font_3_1151" transform="matrix(11.9552,0,0,-11.9552,72.48807,187.618)"/>
<use data-text="4" xlink:href="#font_3_53" transform="matrix(11.9552,0,0,-11.9552,80.67737,187.618)"/>
<use data-text="," xlink:href="#font_3_45" transform="matrix(11.9552,0,0,-11.9552,86.65497,187.618)"/>
<use data-text="0" xlink:href="#font_3_49" transform="matrix(11.9552,0,0,-11.9552,91.62833,187.618)"/>
<use data-text=")" xlink:href="#font_3_42" transform="matrix(11.9552,0,0,-11.9552,97.60593,187.618)"/>
<path transform="matrix(1,0,0,-1,234.40399,175.35199)" d="M1.49442 0C1.49442 .82533 .82533 1.49442 0 1.49442-.82533 1.49442-1.49442 .82533-1.49442 0-1.49442-.82533-.82533-1.49442 0-1.49442 .82533-1.49442 1.49442-.82533 1.49442 0ZM0 0"/>
<path transform="matrix(1,0,0,-1,234.40399,175.35199)" stroke-width=".3985" stroke-linecap="butt" stroke-miterlimit="10" stroke-linejoin="miter" fill="none" stroke="#000000" d="M1.49442 0C1.49442 .82533 .82533 1.49442 0 1.49442-.82533 1.49442-1.49442 .82533-1.49442 0-1.49442-.82533-.82533-1.49442 0-1.49442 .82533-1.49442 1.49442-.82533 1.49442 0ZM0 0"/>
<use data-text="G" xlink:href="#font_2_40" transform="matrix(17.2154,0,0,-17.2154,65.318,329.88398)"/>
<use data-text="r" xlink:href="#font_2_83" transform="matrix(17.2154,0,0,-17.2154,78.711589,329.88398)"/>
<use data-text="a" xlink:href="#font_2_66" transform="matrix(17.2154,0,0,-17.2154,86.30357,329.88398)"/>
<use data-text="p" xlink:href="#font_2_81" transform="matrix(17.2154,0,0,-17.2154,94.91127,329.88398)"/>
<use data-text="h" xlink:href="#font_2_73" transform="matrix(17.2154,0,0,-17.2154,104.48303,329.88398)"/>
<use data-text="2" xlink:href="#font_2_19" transform="matrix(17.2154,0,0,-17.2154,118.34143,329.88398)"/>
<use data-text=":" xlink:href="#font_2_27" transform="matrix(17.2154,0,0,-17.2154,126.94913,329.88398)"/>
<use data-text="(" xlink:href="#font_3_41" transform="matrix(17.2154,0,0,-17.2154,138.42099,329.88398)"/>
<use data-text="&#x1d465;" xlink:href="#font_3_2520" transform="matrix(17.2154,0,0,-17.2154,144.15372,329.88398)"/>
<use data-text="&#x2212;" xlink:href="#font_3_1151" transform="matrix(17.2154,0,0,-17.2154,157.44402,329.88398)"/>
<use data-text="1" xlink:href="#font_3_50" transform="matrix(17.2154,0,0,-17.2154,173.0584,329.88398)"/>
<use data-text=")" xlink:href="#font_3_42" transform="matrix(17.2154,0,0,-17.2154,181.66609,329.88398)"/>
<use data-text="2" xlink:href="#font_3_51" transform="matrix(11.9552,0,0,-11.9552,187.40699,322.99699)"/>
<use data-text="+" xlink:href="#font_3_44" transform="matrix(17.2154,0,0,-17.2154,197.70899,329.88398)"/>
<use data-text="8" xlink:href="#font_3_57" transform="matrix(17.2154,0,0,-17.2154,213.32337,329.88398)"/>
<use data-text="(" xlink:href="#font_3_41" transform="matrix(17.2154,0,0,-17.2154,221.93106,329.88398)"/>
<use data-text="&#x1d466;" xlink:href="#font_3_2521" transform="matrix(17.2154,0,0,-17.2154,227.66379,329.88398)"/>
<use data-text="+" xlink:href="#font_3_44" transform="matrix(17.2154,0,0,-17.2154,240.02445,329.88398)"/>
<use data-text="1" xlink:href="#font_3_50" transform="matrix(17.2154,0,0,-17.2154,255.6388,329.88398)"/>
<use data-text=")" xlink:href="#font_3_42" transform="matrix(17.2154,0,0,-17.2154,264.2465,329.88398)"/>
<use data-text="=" xlink:href="#font_3_62" transform="matrix(17.2154,0,0,-17.2154,274.7651,329.88398)"/>
<use data-text="0" xlink:href="#font_3_49" transform="matrix(17.2154,0,0,-17.2154,291.34355,329.88398)"/>
<path transform="matrix(1,0,0,-1,128.104,447.638)" stroke-width=".79701" stroke-linecap="butt" stroke-miterlimit="10" stroke-linejoin="miter" fill="none" stroke="#000000" d="M-127.56065 0H208.49076"/>
<path transform="matrix(1,0,0,-1,334.12968,447.638)" d="M5.44046 0 1.28699 1.5706 2.66432 0 1.28699-1.5706Z"/>
<path transform="matrix(1,0,0,-1,334.12968,447.638)" stroke-width=".79701" stroke-linecap="butt" stroke-miterlimit="10" stroke-linejoin="miter" fill="none" stroke="#000000" d="M5.44046 0 1.28699 1.5706 2.66432 0 1.28699-1.5706Z"/>
<use data-text="&#x1d465;" xlink:href="#font_3_2520" transform="matrix(11.9552,0,0,-11.9552,345.088,450.22)"/>
<path transform="matrix(1,0,0,-1,128.104,447.638)" stroke-width=".79701" stroke-linecap="butt" stroke-miterlimit="10" stroke-linejoin="miter" fill="none" stroke="#000000" d="M0-127.56065V80.93008"/>
<path transform="matrix(0,-1,-1,-0,128.104,369.173)" d="M5.44046 0 1.28699 1.5706 2.66432 0 1.28699-1.5706Z"/>
<path transform="matrix(0,-1,-1,-0,128.104,369.173)" stroke-width=".79701" stroke-linecap="butt" stroke-miterlimit="10" stroke-linejoin="miter" fill="none" stroke="#000000" d="M5.44046 0 1.28699 1.5706 2.66432 0 1.28699-1.5706Z"/>
<use data-text="&#x1d466;" xlink:href="#font_3_2521" transform="matrix(11.9552,0,0,-11.9552,125.13901,356.027)"/>
<use data-text="O" xlink:href="#font_4_48" transform="matrix(11.9552,0,0,-11.9552,115.284008,460.099)"/>
<path transform="matrix(1,0,0,-1,128.104,447.638)" stroke-width="1.59404" stroke-linecap="butt" stroke-miterlimit="10" stroke-linejoin="miter" fill="none" stroke="#ff0000" d="M-106.30054-107.6293-103.29462-105.02368-100.2887-102.47324-97.28278-99.97597-94.27684-97.53192-91.27092-95.14105-88.265-92.8034-85.25908-90.51895-82.25316-88.28772-79.24724-86.10707-76.2413-83.98222-73.23538-81.90994-70.22945-79.89084-67.22354-77.92497-64.21762-76.01228-61.21169-74.1528-58.20576-72.34587-55.19984-70.59085-52.19392-68.89096-49.188-67.24365-46.18207-65.64954-43.17615-64.10863-40.17023-62.6209-37.1643-61.18639-34.15839-59.80443-31.15247-58.47502-28.14653-57.19948-25.14061-55.97777-22.13467-54.80861-19.12877-53.69267-16.12285-52.62927-13.11691-51.61972-10.111-50.66338-7.10507-49.75894-4.09915-48.90836-1.09323-48.11162 1.91267-47.36745 4.9186-46.67647 7.92451-46.03804 10.93045-45.45346 13.93636-44.9221 16.94228-44.44263 19.94821-44.01765 22.95413-43.64523 25.96007-43.32602 28.96597-43.06003 31.9719-42.84721 34.97783-42.68695 37.98375-42.58055 40.98967-42.52669 43.99559-42.52605 47.00151-42.5786 50.00745-42.68436 53.01337-42.84332 56.01929-43.05548 59.02522-43.32019 62.03113-43.63875 65.03705-44.01051 68.04298-44.43484 71.0489-44.91235 74.05484-45.44308 77.06075-46.02701 80.06667-46.66348 83.0726-47.35382 86.07852-48.09735 89.08444-48.89409 92.09036-49.74338 95.09628-50.64587 98.10222-51.60156 101.10814-52.61046 104.11406-53.6719 107.12-54.7872 110.1259-55.95634 113.13182-57.17741 116.13776-58.45166 119.14368-59.77913 122.14961-61.15979 125.15552-62.59366 128.16144-64.0807 131.16738-65.62033 134.1733-67.2151 137.17922-68.86113 140.18514-70.56035 143.19106-72.31277 146.19699-74.11841 149.20291-75.97725 152.20883-77.88864 155.21477-79.85387 158.22068-81.87361 161.22661-83.94458 164.23253-86.06879 167.23845-88.24619 170.24439-90.47679 173.25029-92.76057 176.25621-95.09694 179.26215-97.48715 182.26807-99.93185 185.274-102.42847 188.27993-104.97762 191.28583-107.57999"/>
<use data-text="&#x1d431;" xlink:href="#font_3_2469" transform="matrix(11.9552,0,0,-11.9552,277.743,568.564)" fill="#ff0000"/>
<use data-text="&#x1d7d0;" xlink:href="#font_3_3368" transform="matrix(8.9664,0,0,-8.9664,283.96003,563.782)" fill="#ff0000"/>
<use data-text="+" xlink:href="#font_3_44" transform="matrix(11.9552,0,0,-11.9552,291.59803,568.564)" fill="#ff0000"/>
<use data-text="&#x1d7d2;" xlink:href="#font_3_3370" transform="matrix(11.9552,0,0,-11.9552,302.44139,568.564)" fill="#ff0000"/>
<use data-text="&#x1d431;" xlink:href="#font_3_2469" transform="matrix(11.9552,0,0,-11.9552,308.41899,568.564)" fill="#ff0000"/>
<use data-text="+" xlink:href="#font_3_44" transform="matrix(11.9552,0,0,-11.9552,317.28974,568.564)" fill="#ff0000"/>
<use data-text="&#x1d7d2;" xlink:href="#font_3_3370" transform="matrix(11.9552,0,0,-11.9552,328.13313,568.564)" fill="#ff0000"/>
<use data-text="&#x1d432;" xlink:href="#font_3_2470" transform="matrix(11.9552,0,0,-11.9552,334.11073,568.564)" fill="#ff0000"/>
<use data-text="=" xlink:href="#font_3_62" transform="matrix(11.9552,0,0,-11.9552,343.65095,568.564)" fill="#ff0000"/>
<use data-text="&#x1d7ce;" xlink:href="#font_3_3366" transform="matrix(11.9552,0,0,-11.9552,355.16383,568.564)" fill="#ff0000"/>
<path transform="matrix(1,0,0,-1,128.104,447.638)" stroke-width=".79701" stroke-linecap="butt" stroke-dasharray="2.98883,2.98883" stroke-miterlimit="10" stroke-linejoin="miter" fill="none" stroke="#000000" d="M42.52022 0V-42.52022H0"/>
<path transform="matrix(1,0,0,-1,128.104,447.638)" d="M44.01463-42.52022C44.01463-41.69487 43.34557-41.0258 42.52022-41.0258 41.69487-41.0258 41.0258-41.69487 41.0258-42.52022 41.0258-43.34557 41.69487-44.01463 42.52022-44.01463 43.34557-44.01463 44.01463-43.34557 44.01463-42.52022ZM42.52022-42.52022"/>
<path transform="matrix(1,0,0,-1,128.104,447.638)" stroke-width=".3985" stroke-linecap="butt" stroke-miterlimit="10" stroke-linejoin="miter" fill="none" stroke="#000000" d="M44.01463-42.52022C44.01463-41.69487 43.34557-41.0258 42.52022-41.0258 41.69487-41.0258 41.0258-41.69487 41.0258-42.52022 41.0258-43.34557 41.69487-44.01463 42.52022-44.01463 43.34557-44.01463 44.01463-43.34557 44.01463-42.52022ZM42.52022-42.52022"/>
<use data-text="(" xlink:href="#font_3_41" transform="matrix(11.9552,0,0,-11.9552,154.08,502.424)"/>
<use data-text="1" xlink:href="#font_3_50" transform="matrix(11.9552,0,0,-11.9552,158.06108,502.424)"/>
<use data-text="," xlink:href="#font_3_45" transform="matrix(11.9552,0,0,-11.9552,164.03868,502.424)"/>
<use data-text="&#x2212;" xlink:href="#font_3_1151" transform="matrix(11.9552,0,0,-11.9552,169.01204,502.424)"/>
<use data-text="1" xlink:href="#font_3_50" transform="matrix(11.9552,0,0,-11.9552,177.20136,502.424)"/>
<use data-text=")" xlink:href="#font_3_42" transform="matrix(11.9552,0,0,-11.9552,183.17896,502.424)"/>
<path transform="matrix(1,0,0,-1,128.104,447.638)" d="M1.49442-47.83524C1.49442-47.00989 .82533-46.34082 0-46.34082-.82533-46.34082-1.49442-47.00989-1.49442-47.83524-1.49442-48.66058-.82533-49.32965 0-49.32965 .82533-49.32965 1.49442-48.66058 1.49442-47.83524ZM0-47.83524"/>
<path transform="matrix(1,0,0,-1,128.104,447.638)" stroke-width=".3985" stroke-linecap="butt" stroke-miterlimit="10" stroke-linejoin="miter" fill="none" stroke="#000000" d="M1.49442-47.83524C1.49442-47.00989 .82533-46.34082 0-46.34082-.82533-46.34082-1.49442-47.00989-1.49442-47.83524-1.49442-48.66058-.82533-49.32965 0-49.32965 .82533-49.32965 1.49442-48.66058 1.49442-47.83524ZM0-47.83524"/>
<use data-text="(" xlink:href="#font_3_41" transform="matrix(11.9552,0,0,-11.9552,69.91,488.565)"/>
<use data-text="0" xlink:href="#font_3_49" transform="matrix(11.9552,0,0,-11.9552,73.89108,488.565)"/>
<use data-text="," xlink:href="#font_3_45" transform="matrix(11.9552,0,0,-11.9552,79.86868,488.565)"/>
<use data-text="&#x2212;" xlink:href="#font_3_1151" transform="matrix(11.9552,0,0,-11.9552,84.84204,488.565)"/>
<use data-text="1" xlink:href="#font_3_50" transform="matrix(11.9552,0,0,-11.9552,93.03136,488.565)"/>
<use data-text="." xlink:href="#font_3_47" transform="matrix(11.9552,0,0,-11.9552,99.00896,488.565)"/>
<use data-text="1" xlink:href="#font_3_50" transform="matrix(11.9552,0,0,-11.9552,101.99776,488.565)"/>
<use data-text="2" xlink:href="#font_3_51" transform="matrix(11.9552,0,0,-11.9552,107.97536,488.565)"/>
<use data-text="5" xlink:href="#font_3_54" transform="matrix(11.9552,0,0,-11.9552,113.95296,488.565)"/>
<use data-text=")" xlink:href="#font_3_42" transform="matrix(11.9552,0,0,-11.9552,119.93056,488.565)"/>
<use data-text="1" xlink:href="#font_4_18" transform="matrix(11.9552,0,0,-11.9552,179.649,727.888)"/>
</g>
</svg>
