<svg xmlns="http://www.w3.org/2000/svg" xmlns:xlink="http://www.w3.org/1999/xlink" xmlns:inkscape="http://www.inkscape.org/namespaces/inkscape" version="1.1" width="313" height="357" viewBox="0 0 313 357">
<defs>
<clipPath id="clip_1">
<path transform="matrix(1,0,0,-1,-139,766)" d="M0 0H595.28V841.89H0Z"/>
</clipPath>
<path id="font_2_2520" d="M.30499269 .28834535 .2849884 .3433838C.272995 .3764038 .2539978 .41740418 .20999146 .44140626L.07798767 .4084015 .08099365 .39039613C.09098816 .39439393 .10598755 .39639283 .11898804 .39639283 .17399597 .39639283 .19999695 .35539247 .21699524 .3073578L.25 .21530152 .18499756 .11424255C.15299988 .065216068 .1269989 .0552063 .114990238 .0552063 .08999634 .0552063 .09399414 .07521057 .067993167 .07521057 .042999269 .07521057 .02999878 .05419922 .02999878 .038208009 .02999878 .016204834 .04598999-.0087890629 .08198547-.0087890629 .13798523-.0087890629 .16699219 .034210206 .19898987 .083221439L.2619934 .18127442 .3019867 .06820679C.31498719 .032196046 .33399964-.0087890629 .375-.0087890629 .43299867-.0087890629 .47799684 .08721924 .48999024 .10223389L.47599793 .11224365C.45498658 .06921387 .43099977 .0552063 .4149933 .0552063 .36999513 .0552063 .34700013 .19029236 .31698609 .25231935L.37199403 .33737184C.38598634 .35939027 .39698792 .37539674 .4269867 .37539674 .44400025 .37539674 .44898988 .36639405 .47099305 .36639405 .49699403 .36639405 .5099945 .3894043 .5099945 .4084015 .5099945 .42939759 .49299623 .44140626 .46099855 .44140626 .41099549 .44140626 .37599183 .3973999 .34999085 .35739137L.30499269 .28834535Z"/>
<path id="font_2_2521" d="M.269989 .30682374C.26098634 .38082887 .2539978 .40682984 .23098755 .4398346L.08099365 .41482545 .08299255 .39883424C.09199524 .39982606 .10798645 .40283204 .11898804 .40283204 .1749878 .40283204 .18399048 .34283448 .18899536 .2978363L.22698975-.016174317C.20098877-.056167604 .14399719-.11816406 .1269989-.11816406 .11099243-.11816406 .11299133-.08717346 .069992069-.08717346 .056991579-.08717346 .02999878-.09817505 .02999878-.12817383 .02999878-.1521759 .04899597-.1831665 .085998538-.1831665 .1539917-.1831665 .21899414-.08517456 .2919922 .0068359377 .33399964 .059829713 .49598695 .2998352 .49598695 .37782289 .49598695 .41682435 .47099305 .4398346 .43899537 .4398346 .4099884 .4398346 .3919983 .42182923 .3919983 .39982606 .3919983 .36183167 .44400025 .3518219 .44400025 .3308258 .44400025 .3128357 .43598939 .29283143 .41600038 .25582887 .3939972 .21482849 .35899354 .15483094 .2979889 .07182312L.269989 .30682374Z"/>
<path id="font_3_48" d="M.6879883 .33103944C.6879883 .5288696 .5569916 .67578127 .36099244 .67578127 .1659851 .67578127 .033996583 .53686526 .033996583 .3340454 .033996583 .1262207 .16699219-.013671875 .36099244-.013671875 .5529938-.013671875 .6879883 .12522888 .6879883 .33103944M.57398989 .33703614C.57398989 .21714783 .54599 .12322998 .4909973 .07028198 .45599366 .03730774 .4119873 .022323609 .3619995 .022323609 .31599427 .022323609 .27198792 .03630066 .23799134 .067276 .1769867 .12322998 .147995 .21315003 .147995 .3320465 .147995 .42695619 .17399597 .52388 .21699524 .5728302 .2559967 .6177826 .30599977 .6397705 .3600006 .6397705 .40699769 .6397705 .44699098 .6227875 .48298646 .59280398 .5399933 .54486086 .57398989 .450943 .57398989 .33703614Z"/>
<path id="font_2_55" d="M.44599916 .68470767C.30799867 .66970828 .22898865 .6457062 .14299011 .55570986 .07199097 .48269654 .033996583 .38771058 .033996583 .27960206 .033996583 .20951844 .052993776 .138443 .08099365 .087402347 .115997318 .023330689 .1789856-.013671875 .2579956-.013671875 .32398988-.013671875 .37998963 .013320923 .4169922 .05937195 .44999696 .09941101 .46798707 .1554718 .46798707 .2195282 .46798707 .34866334 .3959961 .42871095 .2789917 .42871095 .23498535 .42871095 .20098877 .42170716 .1519928 .3836975 .1789856 .5346985 .29100038 .6427002 .44799806 .6687012L.44599916 .68470767M.37799073 .18850708C.37799073 .08639526 .34098817 .014328003 .2689972 .014328003 .1749878 .014328003 .1269989 .11442566 .1269989 .2665863 .1269989 .3586731 .18598938 .3827057 .24299622 .3827057 .33599855 .3827057 .37799073 .31663514 .37799073 .18850708Z"/>
<path id="font_2_49" d="M.47599793 .3300476C.47599793 .53486636 .3849945 .67578127 .2539978 .67578127 .09298706 .67578127 .023986817 .5128937 .023986817 .3360443 .023986817 .17218018 .07899475-.013671875 .25-.013671875 .41299439-.013671875 .47599793 .15818787 .47599793 .3300476M.37998963 .32505799C.37998963 .12722779 .33499146 .012313843 .25 .012313843 .1639862 .012313843 .11999512 .1262207 .11999512 .32904054 .11999512 .5318756 .16499329 .6497803 .24798584 .6497803 .33599855 .6497803 .37998963 .53286746 .37998963 .32505799Z"/>
<path id="font_2_1157" d="M.30999757 .25195313C.30999757 .3257141 .25 .38671876 .1769867 .38671876 .099990848 .38671876 .039993287 .32870484 .039993287 .25393678 .039993287 .17718506 .09899902 .1171875 .1749878 .1171875 .25 .1171875 .30999757 .17718506 .30999757 .25195313M.24398804 .25195313C.24398804 .21307373 .21398926 .18318177 .1749878 .18318177 .13598633 .18318177 .10598755 .21208191 .10598755 .25393678 .10598755 .29081727 .1349945 .32070924 .1769867 .32070924 .21299744 .32070924 .24398804 .29081727 .24398804 .25195313Z"/>
<path id="font_2_3866" d="M.1289978 .0289917C.18099976 .125 .2869873 .33599855 .30499269 .3849945 .30899049 .394989 .31298829 .41600038 .31298829 .4249878 .31298829 .46699525 .28599549 .4850006 .2559967 .4850006 .22999573 .4850006 .20498657 .46998597 .19099427 .4269867 .17599488 .3769989 .12199402 .14399719 .099990848 .038986207L.1289978 .0289917Z"/>
<path id="font_2_906" d="M.09700012 .40299989C.13598633 .47499085 .21499634 .6329956 .22898865 .66999819 .23199463 .6769867 .23498535 .69299319 .23498535 .69999697 .23498535 .73098757 .21499634 .7449951 .19198609 .7449951 .17298889 .7449951 .15299988 .73298647 .14299011 .70098879 .13198853 .6639862 .09199524 .4889984 .07499695 .4099884L.09700012 .40299989Z"/>
<path id="font_2_52" d="M.06098938 .50987246C.101989749 .58380129 .147995 .61576846 .20999146 .61576846 .27598573 .61576846 .31799317 .58180239 .31799317 .51387026 .31799317 .45292665 .28599549 .40795899 .23699951 .37998963 .21699524 .36799623 .19099427 .3570099 .15299988 .34402467V.33003236C.20999146 .33003236 .23298645 .32704164 .25498963 .3200531 .32398988 .3000641 .35899354 .2511139 .35899354 .17518616 .35899354 .09025574 .30299378 .022323609 .22898865 .022323609 .20098877 .022323609 .17999268 .027313233 .14299011 .05329895 .114990238 .073272708 .09899902 .07926941 .08198547 .07926941 .05899048 .07926941 .040985109 .06428528 .040985109 .043304445 .040985109 .0073242189 .07998657-.013671875 .15299988-.013671875 .24198914-.013671875 .33699037 .015319824 .3849945 .07926941 .4139862 .11723328 .43099977 .16618347 .43099977 .21913147 .43099977 .27108766 .4149933 .31704713 .3869934 .34802247 .3659973 .36999513 .34799195 .38198854 .3039856 .40097047 .37098695 .44093324 .39698792 .4908905 .39698792 .5388489 .39698792 .6207733 .33399964 .67578127 .24099732 .67578127 .13699341 .67578127 .07398987 .6087799 .04499817 .51387026L.06098938 .50987246Z"/>
<path id="font_2_51" d="M.47399903 .13696289 .45999146 .1429596C.4269867 .08699036 .4059906 .07598877 .3639984 .07598877H.12998963L.29499818 .2519226C.38398744 .34588624 .4229889 .42085267 .4229889 .4998169 .4229889 .59877017 .35099793 .67578127 .23799134 .67578127 .114990238 .67578127 .050994874 .5937805 .02999878 .4768219L.050994874 .47183229C.09098816 .5697937 .12599182 .6017761 .19799805 .6017761 .2829895 .6017761 .33699037 .55178835 .33699037 .4608307 .33699037 .37586976 .30099488 .29989625 .20698548 .200943L.0289917 .011993408V0H.41999818L.47399903 .13696289Z"/>
<path id="font_2_1151" d="M.62098696 .22012329V.2861328H.06399536V.22012329H.62098696Z"/>
<path id="font_2_1159" d="M.96299746 .97299197H.9089966L.49499513-.09300232H.4909973L.2869873 .44299317H.2679901L.11199951 .31900025 .12399292 .29899598C.1459961 .31900025 .17199707 .32998658 .18899536 .32998658 .21398926 .32998658 .23399353 .31599427 .25099183 .2709961L.45298768-.2590027H.4850006L.96299746 .97299197Z"/>
<path id="font_2_44" d="M.6359863 .22012329V.2861328H.375V.54711917H.30899049V.2861328H.04798889V.22012329H.30899049V-.040878297H.375V.22012329H.6359863Z"/>
<path id="font_2_62" d="M.6369934 .31973268V.3857422H.04798889V.31973268H.6369934M.6369934 .12011719V.18611145H.04798889V.12011719H.6369934Z"/>
<path id="font_2_41" d="M.3039856-.16122437C.1639862-.04423523 .13398743 .06877136 .13398743 .254776 .13398743 .44776917 .16499329 .5407715 .3039856 .6597748L.29499818 .67578127C.1349945 .58078 .04798889 .43676759 .04798889 .25177003 .04798889 .08177185 .13398743-.0872345 .2919922-.17723084L.3039856-.16122437Z"/>
<path id="font_2_42" d="M.0289917 .6597748C.17399597 .54577639 .19898987 .43077088 .19898987 .24377442 .19898987 .04977417 .17098999-.04423523 .0289917-.16122437L.037994386-.17723084C.19699097-.08023071 .2849884 .061767579 .2849884 .24676514 .2849884 .41677857 .19400025 .58377078 .040985109 .67578127L.0289917 .6597748Z"/>
</defs>
<g clip-path="url(#clip_1)">
<path transform="matrix(1,0,0,-1,148.287,164.96698)" stroke-width=".79701" stroke-linecap="round" stroke-dasharray="2.98883,2.98883" stroke-linejoin="round" fill="none" stroke="#000000" d="M-141.73404 0H139.14379"/>
<path transform="matrix(1,0,0,-1,287.4308,164.96698)" d="M2.59026 0-1.55415 2.0722 0 0-1.55415-2.0722"/>
<use data-text="&#x1d465;" xlink:href="#font_2_2520" transform="matrix(14.3462,0,0,-14.3462,294.404,168.06598)"/>
<path transform="matrix(1,0,0,-1,148.287,164.96698)" stroke-width=".79701" stroke-linecap="round" stroke-dasharray="2.98883,2.98883" stroke-linejoin="round" fill="none" stroke="#000000" d="M0-141.73404V139.14379"/>
<path transform="matrix(0,-1,-1,-0,148.287,25.823197)" d="M2.59026 0-1.55415 2.0722 0 0-1.55415-2.0722"/>
<use data-text="&#x1d466;" xlink:href="#font_2_2521" transform="matrix(14.3462,0,0,-14.3462,144.729,16.223984)"/>
<use data-text="O" xlink:href="#font_3_48" transform="matrix(14.3462,0,0,-14.3462,152.47101,160.58199)"/>
<path transform="matrix(1,0,0,-1,148.287,164.96698)" stroke-width=".79701" stroke-linecap="round" stroke-linejoin="round" fill="none" stroke="#000000" d="M0 42.5202C15.1892 42.5202 29.2294 34.414 36.82367 21.2601"/>
<use data-text="6" xlink:href="#font_2_55" transform="matrix(14.3462,0,0,-14.3462,173.93,132.94898)"/>
<use data-text="0" xlink:href="#font_2_49" transform="matrix(14.3462,0,0,-14.3462,181.10309,132.94898)"/>
<use data-text="&#x2218;" xlink:href="#font_2_1157" transform="matrix(9.9626,0,0,-9.9626,188.27701,127.20998)"/>
<path transform="matrix(1,0,0,-1,148.287,164.96698)" stroke-width=".79701" stroke-linecap="round" stroke-linejoin="round" fill="none" stroke="#000000" d="M-42.5202 0C-42.5202 15.1892-34.414 29.2294-21.2601 36.82367"/>
<use data-text="6" xlink:href="#font_2_55" transform="matrix(14.3462,0,0,-14.3462,88.74901,139.12299)"/>
<use data-text="0" xlink:href="#font_2_49" transform="matrix(14.3462,0,0,-14.3462,95.922107,139.12299)"/>
<use data-text="&#x2218;" xlink:href="#font_2_1157" transform="matrix(9.9626,0,0,-9.9626,103.09601,133.38399)"/>
<path transform="matrix(1,0,0,-1,148.287,164.96698)" stroke-width=".79701" stroke-linecap="round" stroke-linejoin="round" fill="none" stroke="#0000ff" d="M-147.29474-85.04042 145.05156 83.74533"/>
<path transform="matrix(.86601,-.49998,-.49998,-.86601,293.33857,81.22165)" d="M2.59026 0-1.55415 2.0722 0 0-1.55415-2.0722" fill="#0000ff"/>
<use data-text="&#x1d465;" xlink:href="#font_2_2520" transform="matrix(14.3462,0,0,-14.3462,299.965,85.14798)" fill="#0000ff"/>
<use data-text="&#x2032;" xlink:href="#font_2_3866" transform="matrix(9.9626,0,0,-9.9626,307.85603,79.40898)" fill="#0000ff"/>
<path transform="matrix(1,0,0,-1,148.287,164.96698)" stroke-width=".79701" stroke-linecap="round" stroke-linejoin="round" fill="none" stroke="#0000ff" d="M85.04042-147.29474-83.74533 145.05156"/>
<path transform="matrix(-.49998,-.86601,-.86601,.49998,64.54167,19.915436)" d="M2.59026 0-1.55415 2.0722 0 0-1.55415-2.0722" fill="#0000ff"/>
<use data-text="&#x1d466;" xlink:href="#font_2_2521" transform="matrix(14.3462,0,0,-14.3462,57.382005,10.663986)" fill="#0000ff"/>
<use data-text="&#x2032;" xlink:href="#font_2_3866" transform="matrix(9.9626,0,0,-9.9626,64.498,4.924988)" fill="#0000ff"/>
<use data-text="O" xlink:href="#font_3_48" transform="matrix(14.3462,0,0,-14.3462,129.298,184.81998)" fill="#0000ff"/>
<use data-text="&#x2032;" xlink:href="#font_2_906" transform="matrix(14.3462,0,0,-14.3462,139.656,184.81998)" fill="#0000ff"/>
<path transform="matrix(1,0,0,-1,148.287,164.96698)" stroke-width="1.59404" stroke-linecap="round" stroke-linejoin="round" fill="none" stroke="#ff0000" d="M-25.57477-129.32798C-25.57477-129.32798-19.74011-119.06192-17.69994-115.2349-15.65976-111.40787-12.62093-105.40517-10.87056-101.74545-9.12018-98.08574-6.54512-92.35075-5.08444-88.85829-3.62376-85.36586-1.51398-79.89948-.34305-76.57434 .82787-73.24918 2.47356-68.05074 3.3547-64.89287 4.23587-61.73502 5.41637-56.80518 6.00778-53.81462 6.59917-50.82404 7.31552-46.16217 7.61723-43.33885 7.91893-40.51553 8.17033-36.1221 8.18233-33.46605 8.19427-30.81004 7.9812-26.68475 7.70341-24.19603 7.42561-21.70728 6.74768-17.8504 6.18018-15.52893 5.61269-13.20744 4.47058-9.61855 3.61331-7.46436 2.75607-5.31017 1.14873-1.98987 .00171-.00298-1.14528 1.9839-3.21677 5.03621-4.65344 6.85585-6.09013 8.6755-8.62654 11.4594-10.35298 13.11176-12.07942 14.76413-15.08032 17.27985-17.09651 18.76492-19.11272 20.25-22.57846 22.49736-24.88441 23.81514-27.19037 25.13292-31.12064 27.11208-33.71628 28.26262-36.31194 29.41315-40.70671 31.12408-43.59213 32.10733-46.47755 33.09056-51.33719 34.53314-54.51236 35.34909-57.6875 36.16504-63.01167 37.33943-66.47656 37.98811-69.9414 38.63681-75.7301 39.54301-79.48473 40.0244-83.23933 40.50581-89.49289 41.14362-93.53725 41.45772-97.58163 41.77184-104.29965 42.14148-108.63376 42.28831-112.96788 42.43515-124.77464 42.51595-124.77464 42.51595"/>
<path transform="matrix(1,0,0,-1,148.287,164.96698)" stroke-width=".79701" stroke-linecap="round" stroke-linejoin="round" fill="none" stroke="#000000" d="M2.157 1.24535C1.46922 2.43663-.05405 2.84479-1.24535 2.157-2.43663 1.46922-2.84479-.05405-2.157-1.24535-1.46922-2.43663 .05405-2.84479 1.24535-2.157 2.43663-1.46922 2.84479 .05405 2.157 1.24535ZM0 0"/>
<use data-text="3" xlink:href="#font_2_52" transform="matrix(14.3462,0,0,-14.3462,97.265,327.15797)" fill="#ff0000"/>
<use data-text="&#x1d465;" xlink:href="#font_2_2520" transform="matrix(14.3462,0,0,-14.3462,104.438098,327.15797)" fill="#ff0000"/>
<use data-text="2" xlink:href="#font_2_51" transform="matrix(9.9626,0,0,-9.9626,112.328998,321.41899)" fill="#ff0000"/>
<use data-text="&#x2212;" xlink:href="#font_2_1151" transform="matrix(14.3462,0,0,-14.3462,120.996997,327.15797)" fill="#ff0000"/>
<use data-text="2" xlink:href="#font_2_51" transform="matrix(14.3462,0,0,-14.3462,134.009,327.15797)" fill="#ff0000"/>
<use data-text="&#x221a;" xlink:href="#font_2_1159" transform="matrix(14.3462,0,0,-14.3462,141.185,326.469)" fill="#ff0000"/>
<path transform="matrix(1,0,0,-1,-118.022,158.30098)" stroke-width=".9468" stroke-linecap="butt" stroke-linejoin="round" fill="none" stroke="#ff0000" d="M272.521-154.683H279.694"/>
<use data-text="3" xlink:href="#font_2_52" transform="matrix(14.3462,0,0,-14.3462,154.499,327.15797)" fill="#ff0000"/>
<use data-text="&#x1d465;" xlink:href="#font_2_2520" transform="matrix(14.3462,0,0,-14.3462,161.67209,327.15797)" fill="#ff0000"/>
<use data-text="&#x1d466;" xlink:href="#font_2_2521" transform="matrix(14.3462,0,0,-14.3462,169.5625,327.15797)" fill="#ff0000"/>
<use data-text="+" xlink:href="#font_2_44" transform="matrix(14.3462,0,0,-14.3462,179.86307,327.15797)" fill="#ff0000"/>
<use data-text="&#x1d466;" xlink:href="#font_2_2521" transform="matrix(14.3462,0,0,-14.3462,192.87506,327.15797)" fill="#ff0000"/>
<use data-text="2" xlink:href="#font_2_51" transform="matrix(9.9626,0,0,-9.9626,199.99698,321.41899)" fill="#ff0000"/>
<use data-text="+" xlink:href="#font_2_44" transform="matrix(14.3462,0,0,-14.3462,208.66498,327.15797)" fill="#ff0000"/>
<use data-text="2" xlink:href="#font_2_51" transform="matrix(14.3462,0,0,-14.3462,221.67697,327.15797)" fill="#ff0000"/>
<use data-text="&#x1d465;" xlink:href="#font_2_2520" transform="matrix(14.3462,0,0,-14.3462,228.85007,327.15797)" fill="#ff0000"/>
<use data-text="+" xlink:href="#font_2_44" transform="matrix(14.3462,0,0,-14.3462,239.92533,327.15797)" fill="#ff0000"/>
<use data-text="2" xlink:href="#font_2_51" transform="matrix(14.3462,0,0,-14.3462,252.93732,327.15797)" fill="#ff0000"/>
<use data-text="&#x221a;" xlink:href="#font_2_1159" transform="matrix(14.3462,0,0,-14.3462,260.12098,326.469)" fill="#ff0000"/>
<path transform="matrix(1,0,0,-1,-118.022,158.30098)" stroke-width=".9468" stroke-linecap="butt" stroke-linejoin="round" fill="none" stroke="#ff0000" d="M391.457-154.683H398.63"/>
<use data-text="3" xlink:href="#font_2_52" transform="matrix(14.3462,0,0,-14.3462,273.435,327.15797)" fill="#ff0000"/>
<use data-text="&#x1d466;" xlink:href="#font_2_2521" transform="matrix(14.3462,0,0,-14.3462,280.6081,327.15797)" fill="#ff0000"/>
<use data-text="=" xlink:href="#font_2_62" transform="matrix(14.3462,0,0,-14.3462,291.69773,327.15797)" fill="#ff0000"/>
<use data-text="0" xlink:href="#font_2_49" transform="matrix(14.3462,0,0,-14.3462,305.51313,327.15797)" fill="#ff0000"/>
<use data-text="(" xlink:href="#font_2_41" transform="matrix(14.3462,0,0,-14.3462,94.99901,354.146)" fill="#ff0000"/>
<use data-text="&#x1d466;" xlink:href="#font_2_2521" transform="matrix(14.3462,0,0,-14.3462,99.77629,354.146)" fill="#ff0000"/>
<use data-text="&#x2032;" xlink:href="#font_2_3866" transform="matrix(9.9626,0,0,-9.9626,106.89201,348.40699)" fill="#ff0000"/>
<use data-text=")" xlink:href="#font_2_42" transform="matrix(14.3462,0,0,-14.3462,111.50502,354.146)" fill="#ff0000"/>
<use data-text="2" xlink:href="#font_2_51" transform="matrix(9.9626,0,0,-9.9626,116.28201,348.40699)" fill="#ff0000"/>
<use data-text="=" xlink:href="#font_2_62" transform="matrix(14.3462,0,0,-14.3462,125.74701,354.146)" fill="#ff0000"/>
<use data-text="&#x2212;" xlink:href="#font_2_1151" transform="matrix(14.3462,0,0,-14.3462,139.54807,354.146)" fill="#ff0000"/>
<use data-text="&#x1d465;" xlink:href="#font_2_2520" transform="matrix(14.3462,0,0,-14.3462,149.37522,354.146)" fill="#ff0000"/>
<use data-text="&#x2032;" xlink:href="#font_2_3866" transform="matrix(9.9626,0,0,-9.9626,157.27802,348.40699)" fill="#ff0000"/>
</g>
</svg>
