<svg style="overflow: visible;" xmlns="http://www.w3.org/2000/svg" xmlns:xlink="http://www.w3.org/1999/xlink" xmlns:inkscape="http://www.inkscape.org/namespaces/inkscape" version="1.1" width="100%" height="100%" viewBox="0 0 364.41 297.11">
<defs>
<path id="font_1_2520" d="M.30499269 .28834535 .2849884 .3433838C.272995 .3764038 .2539978 .41740418 .20999146 .44140626L.07798767 .4084015 .08099365 .39039613C.09098816 .39439393 .10598755 .39639283 .11898804 .39639283 .17399597 .39639283 .19999695 .35539247 .21699524 .3073578L.25 .21530152 .18499756 .11424255C.15299988 .065216068 .1269989 .0552063 .114990238 .0552063 .08999634 .0552063 .09399414 .07521057 .067993167 .07521057 .042999269 .07521057 .02999878 .05419922 .02999878 .038208009 .02999878 .016204834 .04598999-.0087890629 .08198547-.0087890629 .13798523-.0087890629 .16699219 .034210206 .19898987 .083221439L.2619934 .18127442 .3019867 .06820679C.31498719 .032196046 .33399964-.0087890629 .375-.0087890629 .43299867-.0087890629 .47799684 .08721924 .48999024 .10223389L.47599793 .11224365C.45498658 .06921387 .43099977 .0552063 .4149933 .0552063 .36999513 .0552063 .34700013 .19029236 .31698609 .25231935L.37199403 .33737184C.38598634 .35939027 .39698792 .37539674 .4269867 .37539674 .44400025 .37539674 .44898988 .36639405 .47099305 .36639405 .49699403 .36639405 .5099945 .3894043 .5099945 .4084015 .5099945 .42939759 .49299623 .44140626 .46099855 .44140626 .41099549 .44140626 .37599183 .3973999 .34999085 .35739137L.30499269 .28834535Z"/>
<path id="font_1_2521" d="M.269989 .30682374C.26098634 .38082887 .2539978 .40682984 .23098755 .4398346L.08099365 .41482545 .08299255 .39883424C.09199524 .39982606 .10798645 .40283204 .11898804 .40283204 .1749878 .40283204 .18399048 .34283448 .18899536 .2978363L.22698975-.016174317C.20098877-.056167604 .14399719-.11816406 .1269989-.11816406 .11099243-.11816406 .11299133-.08717346 .069992069-.08717346 .056991579-.08717346 .02999878-.09817505 .02999878-.12817383 .02999878-.1521759 .04899597-.1831665 .085998538-.1831665 .1539917-.1831665 .21899414-.08517456 .2919922 .0068359377 .33399964 .059829713 .49598695 .2998352 .49598695 .37782289 .49598695 .41682435 .47099305 .4398346 .43899537 .4398346 .4099884 .4398346 .3919983 .42182923 .3919983 .39982606 .3919983 .36183167 .44400025 .3518219 .44400025 .3308258 .44400025 .3128357 .43598939 .29283143 .41600038 .25582887 .3939972 .21482849 .35899354 .15483094 .2979889 .07182312L.269989 .30682374Z"/>
<path id="font_2_48" d="M.6879883 .33103944C.6879883 .5288696 .5569916 .67578127 .36099244 .67578127 .1659851 .67578127 .033996583 .53686526 .033996583 .3340454 .033996583 .1262207 .16699219-.013671875 .36099244-.013671875 .5529938-.013671875 .6879883 .12522888 .6879883 .33103944M.57398989 .33703614C.57398989 .21714783 .54599 .12322998 .4909973 .07028198 .45599366 .03730774 .4119873 .022323609 .3619995 .022323609 .31599427 .022323609 .27198792 .03630066 .23799134 .067276 .1769867 .12322998 .147995 .21315003 .147995 .3320465 .147995 .42695619 .17399597 .52388 .21699524 .5728302 .2559967 .6177826 .30599977 .6397705 .3600006 .6397705 .40699769 .6397705 .44699098 .6227875 .48298646 .59280398 .5399933 .54486086 .57398989 .450943 .57398989 .33703614Z"/>
<path id="font_1_2470" d="M.48199464 .4609375H.32998658V.43693543C.37298585 .43493653 .38398744 .42793275 .38398744 .40393067 .38398744 .39193727 .38198854 .38093568 .37298585 .3549347L.30499269 .16693115 .23298645 .3529358C.22200012 .38093568 .21299744 .40693666 .21299744 .41093446 .21299744 .42593385 .22399903 .43392945 .24899292 .43592835L.2649994 .43693543V.4609375H.015991211V.43693543C.037994386 .43392945 .04399109 .43093873 .049987794 .42292787 .05899048 .41093446 .09700012 .3269348 .116989139 .27693177L.23599243-.013076782 .21798706-.066085819C.20098877-.11608887 .17599488-.14808655 .1519928-.14808655 .14299011-.14808655 .1349945-.14009094 .1349945-.13108826 .1349945-.13108826 .1349945-.12808228 .13598633-.12509156 .13699341-.12008667 .13798523-.11508179 .13798523-.111083988 .13798523-.08207703 .11199951-.05908203 .07798767-.05908203 .039993287-.05908203 .015991211-.08808899 .015991211-.12608338 .015991211-.17308045 .055999757-.20507813 .11299133-.20507813 .14698792-.20507813 .17599488-.1940918 .19699097-.17208863 .21798706-.14907837 .23899842-.110076908 .27398683-.016082764L.42199708 .3819275C.43798829 .42492677 .45098878 .43293763 .48199464 .43693543V.4609375Z"/>
<path id="font_1_62" d="M.6369934 .31973268V.3857422H.04798889V.31973268H.6369934M.6369934 .12011719V.18611145H.04798889V.12011719H.6369934Z"/>
<path id="font_1_1151" d="M.62098696 .22012329V.2861328H.06399536V.22012329H.62098696Z"/>
<path id="font_1_3369" d="M.057998659 .5243988C.09599304 .5864105 .13198853 .6074219 .18399048 .6074219 .24699402 .6074219 .2829895 .5744171 .2829895 .50439456 .2829895 .4453888 .24699402 .40338136 .1519928 .37338258V.35636903C.23498535 .32736207 .2689972 .31336976 .30499269 .2793579 .33599855 .25035096 .35398866 .2063446 .35398866 .15834046 .35398866 .08633423 .31599427 .036315919 .2559967 .036315919 .23199463 .036315919 .20899964 .044326784 .1769867 .079330448 .13999939 .12033081 .11199951 .13633728 .08099365 .13633728 .042999269 .13633728 .015991211 .1103363 .015991211 .07632446 .015991211 .022323609 .07598877-.013671875 .16799927-.013671875 .34098817-.013671875 .46798707 .10032654 .46798707 .24635315 .46798707 .32736207 .42199708 .39738465 .34599305 .42437745 .40699769 .4513855 .42999269 .5054016 .42999269 .55140689 .42999269 .62242129 .36799623 .6884155 .2659912 .6884155 .16699219 .6884155 .08999634 .6384125 .036987306 .5364075L.057998659 .5243988Z"/>
<path id="font_1_2469" d="M.48399354 0V.023986817C.46798707 .0289917 .46099855 .032989503 .45399476 .04399109L.30599977 .2719574 .40699769 .39793397C.42599488 .42092896 .44599916 .43193055 .47698976 .43693543V.4609375H.30899049V.43693543L.32899476 .43493653C.35198976 .43293763 .3600006 .42793275 .3600006 .41293336 .3600006 .39793397 .34899903 .38394166 .32199098 .348938L.28599549 .302948C.28199769 .3089447 .2769928 .31495667 .272995 .3199463 .23999024 .36294557 .21499634 .40493775 .21499634 .41793824 .21499634 .42993165 .22898865 .43592835 .2619934 .43693543V.4609375H.011993408V.43693543C.037994386 .43293763 .04399109 .42793275 .06399536 .39793397L.19198609 .20095825C.1769867 .18296814 .18499756 .19197083 .16999817 .17297364 .15499878 .15397644 .14099121 .13597107 .1269989 .11697388 .070999149 .041992189 .050994874 .025985718 .01399231 .023986817V0H.18299866V.023986817C.14698792 .025985718 .1329956 .032989503 .1329956 .04798889 .1329956 .0639801 .1579895 .10397339 .19699097 .15097046 .20298767 .15797425 .20799256 .16497803 .21299744 .17097473 .22599793 .14997864 .23999024 .12898255 .25498963 .10798645 .2789917 .07298279 .28799439 .055984498 .28799439 .04399109 .28799439 .03199768 .2749939 .025985718 .24299622 .023986817V0H.48399354Z"/>
<path id="font_1_3368" d="M.47799684 .21099854H.45298768C.4269867 .13899231 .4039917 .1329956 .2999878 .1329956H.1599884L.32199098 .2869873C.40098573 .3619995 .43598939 .42900086 .43598939 .5049896 .43598939 .6179962 .3619995 .6879883 .2539978 .6879883 .1539917 .6879883 .07798767 .6239929 .0309906 .48399354H.05899048C.08999634 .54599 .1329956 .57398989 .18099976 .57398989 .2599945 .57398989 .2999878 .5149994 .2999878 .44699098 .2999878 .40299989 .2809906 .34799195 .24899292 .29899598 .19799805 .22099304 .16299439 .1789856 .016998291 .022994996V0H.43199159L.47799684 .21099854Z"/>
<path id="font_2_55" d="M.69699099 .6621094H.49299623V.6430969C.5329895 .6390991 .5649872 .641098 .5649872 .6021118 .5649872 .5851135 .55799868 .5601196 .54599 .53012087L.39898683 .1612091 .24699402 .50312808C.21699524 .57011416 .20799256 .5941162 .20799256 .6101074 .20799256 .63009646 .22099304 .6390991 .25299073 .641098L.2809906 .6430969V.6621094H.015991211V.6430969C.06599426 .6421051 .08099365 .63009646 .12399292 .53312686L.36799623-.0107421879H.3829956L.6049957 .552124C.6339874 .62609866 .6569977 .6421051 .69699099 .6430969V.6621094Z"/>
<path id="font_2_70" d="M.4079895 .16427613C.35899354 .09024048 .32099916 .05921936 .2539978 .05921936 .20799256 .05921936 .17098999 .07723999 .14299011 .11425781 .10699463 .16227722 .101989749 .20129395 .09700012 .27734376H.40499879C.40098573 .3312683 .3909912 .36315919 .37098695 .3910675 .33898927 .43595887 .2939911 .45996095 .23199463 .45996095 .10598755 .45996095 .024993897 .35816957 .024993897 .21730042 .024993897 .07923889 .09700012-.009765625 .21499634-.009765625 .31498719-.009765625 .3849945 .048233034 .42399598 .15727234L.4079895 .16427613M.09899902 .30934144C.10998535 .38407899 .14898682 .4239502 .20498657 .4239502 .2709961 .4239502 .2919922 .39006043 .30299378 .30934144H.09899902Z"/>
<path id="font_2_83" d="M.1599884 .45794679 .15499878 .45996095C.101989749 .43894959 .06599426 .42495729 .0069885256 .40596009V.3899536C.020996094 .3929596 .02999878 .39396668 .041992189 .39396668 .066986087 .39396668 .07598877 .3779602 .07598877 .33396913V.083984378C.07598877 .033996583 .068984989 .026992798 .004989624 .01499939V0H.24499512V.01499939C.1769867 .017990113 .1599884 .032989503 .1599884 .08998108V.31497193C.1599884 .3469696 .20199585 .3969574 .22999573 .3969574 .23599243 .3969574 .24499512 .3919525 .2559967 .381958 .27198792 .36695863 .2829895 .361969 .29599 .361969 .31999208 .361969 .33499146 .3789673 .33499146 .4069519 .33499146 .43995667 .31399537 .45996095 .27999879 .45996095 .23799134 .45996095 .20999146 .43795777 .1599884 .3659668V.45794679Z"/>
<path id="font_2_85" d="M.2659912 .07722473C.24398804 .051223756 .22799683 .04222107 .20599365 .04222107 .16899109 .04222107 .1539917 .068222049 .1539917 .1322174V.41818238H.25498963V.4501953H.1539917V.5661926C.1539917 .57618716 .1519928 .5791931 .14698792 .5791931 .14099121 .56918337 .1329956 .56018069 .1269989 .55119326 .08898926 .4961853 .055999757 .45918275 .02999878 .44418336 .018997193 .43719483 .0129852299 .43118287 .0129852299 .42518617 .0129852299 .42218019 .01399231 .42018128 .016998291 .41818238H.069992069V.11721802C.069992069 .033233644 .099990848-.009765625 .1579895-.009765625 .20799256-.009765625 .24598694 .014221191 .2789917 .066223148L.2659912 .07722473Z"/>
<path id="font_2_89" d="M.47898866 0V.01499939C.44799806 .01499939 .4249878 .03199768 .39698792 .07501221L.2689972 .27111817 .35198976 .39117433C.37098695 .41818238 .40098573 .43418885 .43299867 .43518067V.4501953H.2749939V.43518067C.30499269 .43318177 .31498719 .42718507 .31498719 .4131775 .31498719 .40116883 .2999878 .38316346 .27799989 .34814454 .2679901 .33314515 .2579956 .31713868 .24798584 .30412293 .24398804 .3111267 .23899842 .31713868 .23399353 .32414247 .20498657 .36715699 .18798828 .400177 .18798828 .4131775 .18798828 .42819215 .20098877 .43418885 .23098755 .43518067V.4501953H.023986817V.43518067H.032989503C.06298828 .43518067 .07899475 .42218019 .10998535 .37516786L.20399475 .23109436 .08999634 .06600952C.06199646 .024993897 .049987794 .017990113 .016998291 .01499939V0H.1619873V.01499939C.1329956 .01499939 .12199402 .019989014 .12199402 .03300476 .12199402 .040008546 .12799073 .052001954 .14199829 .074020389L.22099304 .19708252 .31199647 .057006837C.31599427 .05101013 .31799317 .04600525 .31799317 .039001466 .31799317 .020996094 .31098939 .016998291 .27799989 .01499939V0H.47898866Z"/>
<path id="font_1_41" d="M.3039856-.16122437C.1639862-.04423523 .13398743 .06877136 .13398743 .254776 .13398743 .44776917 .16499329 .5407715 .3039856 .6597748L.29499818 .67578127C.1349945 .58078 .04798889 .43676759 .04798889 .25177003 .04798889 .08177185 .13398743-.0872345 .2919922-.17723084L.3039856-.16122437Z"/>
<path id="font_1_49" d="M.47599793 .3300476C.47599793 .53486636 .3849945 .67578127 .2539978 .67578127 .09298706 .67578127 .023986817 .5128937 .023986817 .3360443 .023986817 .17218018 .07899475-.013671875 .25-.013671875 .41299439-.013671875 .47599793 .15818787 .47599793 .3300476M.37998963 .32505799C.37998963 .12722779 .33499146 .012313843 .25 .012313843 .1639862 .012313843 .11999512 .1262207 .11999512 .32904054 .11999512 .5318756 .16499329 .6497803 .24798584 .6497803 .33599855 .6497803 .37998963 .53286746 .37998963 .32505799Z"/>
<path id="font_1_45" d="M.08299255-.14086914C.1519928-.10786438 .19499207-.04486084 .19499207 .015136719 .19499207 .06713867 .1599884 .102127078 .114990238 .102127078 .07899475 .102127078 .054992677 .07913208 .054992677 .045135499 .054992677 .011138916 .07598877-.005859375 .11299133-.005859375 .12399292-.0059661867 .13398743-.001953125 .14199829-.001953125 .1499939-.001953125 .1559906-.007965088 .1559906-.014953613 .1559906-.047958375 .12799073-.08496094 .07299805-.1219635L.08299255-.14086914Z"/>
<path id="font_1_42" d="M.0289917 .6597748C.17399597 .54577639 .19898987 .43077088 .19898987 .24377442 .19898987 .04977417 .17098999-.04423523 .0289917-.16122437L.037994386-.17723084C.19699097-.08023071 .2849884 .061767579 .2849884 .24676514 .2849884 .41677857 .19400025 .58377078 .040985109 .67578127L.0289917 .6597748Z"/>
<path id="font_1_2477" d="M.72299197 .65319827H.20298767L.19898987 .63819888H.21798706C.27799989 .63819888 .2939911 .62020877 .2939911 .5991821 .2939911 .59217837 .2919922 .58317568 .2899933 .5751648L.1659851 .07800293C.15699768 .04399109 .13598633 .015991211 .05999756 .015991211H.041992189L.037994386 0H.37998963L.38398744 .015991211H.35198976C.2919922 .015991211 .272995 .03199768 .272995 .056991579 .272995 .06399536 .27598573 .07199097 .2769928 .07800293L.33898927 .33203126H.43598939C.46499635 .33203126 .5059967 .32902528 .5059967 .28201295 .5059967 .26402284 .5039978 .23501587 .5009918 .2210083H.5169983L.57699587 .463089H.5609894C.5399933 .3780365 .49398805 .36802674 .43199159 .36802674H.34899903L.41099549 .61621096H.55799868C.6049957 .61621096 .6649933 .607193 .66799929 .5291443 .66799929 .5151367 .66799929 .5011139 .6669922 .4931183H.68299868L.72299197 .65319827Z"/>
<path id="font_1_3679" d="M.5029907-.24301148C.36898805-.07800293 .23399353 .18699646 .23399353 .6429901 .23399353 1.1009979 .36898805 1.394989 .5029907 1.5329895V1.5659943C.2899933 1.394989 .13899231 1.0429993 .13899231 .6429901 .13899231 .23399353 .2899933-.07901001 .5029907-.27900697V-.24301148Z"/>
<path id="font_1_50" d="M.3939972 0V.01499939C.31900025 .01499939 .29899598 .032989503 .29899598 .07597351V.67277529L.2899933 .67578127 .11099243 .5847931V.5708008L.13798523 .5807953C.1559906 .5877991 .17298889 .59280398 .18299866 .59280398 .20399475 .59280398 .21299744 .57780459 .21299744 .543808V.0949707C.21299744 .039978029 .19198609 .018997193 .117996219 .01499939V0H.3939972Z"/>
<path id="font_1_51" d="M.47399903 .13696289 .45999146 .1429596C.4269867 .08699036 .4059906 .07598877 .3639984 .07598877H.12998963L.29499818 .2519226C.38398744 .34588624 .4229889 .42085267 .4229889 .4998169 .4229889 .59877017 .35099793 .67578127 .23799134 .67578127 .114990238 .67578127 .050994874 .5937805 .02999878 .4768219L.050994874 .47183229C.09098816 .5697937 .12599182 .6017761 .19799805 .6017761 .2829895 .6017761 .33699037 .55178835 .33699037 .4608307 .33699037 .37586976 .30099488 .29989625 .20698548 .200943L.0289917 .011993408V0H.41999818L.47399903 .13696289Z"/>
<path id="font_1_3680" d="M.11399841 1.5299988C.24798584 1.3649902 .3829956 1.1029968 .3829956 .6429901 .3829956 .18899536 .24798584-.10800171 .11399841-.2460022V-.27900697C.32699586-.10800171 .47799684 .24299622 .47799684 .6429901 .47799684 1.052002 .32699586 1.3659973 .11399841 1.5659943V1.5299988Z"/>
<path id="font_2_37" d="M.015991211 .6621094V.6430969C.09199524 .6381073 .10398865 .6291046 .10398865 .55007937V.11500549C.10398865 .036987306 .09399414 .023986817 .015991211 .018997193V0H.29699708C.397995 0 .4869995 .023986817 .548996 .06399536 .6380005 .1210022 .68499758 .21502686 .68499758 .3340454 .68499758 .4370575 .651001 .5150757 .58599856 .5710907 .5179901 .63009646 .4149933 .6621094 .28599549 .6621094H.015991211M.20599365 .5830841C.20599365 .6161041 .22099304 .6251068 .25898744 .6251068 .35899354 .6251068 .42199708 .60809329 .48098756 .5560913 .5439911 .5010834 .57598879 .43206788 .57598879 .3280487 .57598879 .21502686 .5419922 .13601685 .47200013 .08900452 .4119873 .04899597 .35699464 .036987306 .2539978 .036987306 .21499634 .036987306 .20599365 .04899597 .20599365 .083999637V.5830841Z"/>
<path id="font_2_74" d="M.17999268 .63204959C.17999268 .66004946 .1579895 .68304446 .1289978 .68304446 .100997928 .68304446 .07798767 .66004946 .07798767 .63204959 .07798767 .6030426 .099990848 .5810547 .12799073 .5810547 .1579895 .5810547 .17999268 .6030426 .17999268 .63204959M.25299073 0V.01499939C.18699646 .019989014 .1789856 .0309906 .1789856 .10499573V.45603944L.1749878 .46003724 .019989014 .4050293V.38902284C.037994386 .3940277 .052993776 .3940277 .06199646 .3940277 .08699036 .3940277 .09498596 .37802125 .09498596 .33102418V.104003909C.09498596 .027999878 .084991458 .018997193 .015991211 .01499939V0H.25299073Z"/>
<path id="font_2_68" d="M.397995 .15615845C.34999085 .08621216 .31399537 .06222534 .25698854 .06222534 .16499329 .06222534 .101989749 .14216614 .101989749 .25708009 .101989749 .3610077 .15699768 .43095399 .23799134 .43095399 .27398683 .43095399 .2869873 .41996766 .29699708 .3829956L.30299378 .3610077C.31098939 .33203126 .32899476 .31503297 .35099793 .31503297 .3769989 .31503297 .397995 .33403016 .397995 .3570099 .397995 .41296388 .32798768 .45996095 .24398804 .45996095 .19699097 .45996095 .14898682 .44195558 .10899353 .40896607 .054992677 .3639984 .024993897 .2950592 .024993897 .21211243 .024993897 .08320618 .10398865-.009765625 .21499634-.009765625 .2579956-.009765625 .29599 .0042266848 .32998658 .032226564 .3600006 .056228639 .37998963 .08520508 .4119873 .14717102L.397995 .15615845Z"/>
<path id="font_2_27" d="M.19198609 .40296937C.19198609 .4329834 .16699219 .45898438 .13699341 .45898438 .10499573 .45898438 .08099365 .4349823 .08099365 .40296937 .08099365 .37297059 .10699463 .34797669 .13699341 .34797669 .16699219 .34797669 .19198609 .37297059 .19198609 .40296937M.19198609 .04425049C.19198609 .07424927 .16699219 .100250247 .13699341 .100250247 .10499573 .100250247 .08099365 .07624817 .08099365 .04425049 .08099365 .014251709 .10699463-.0107421879 .13699341-.0107421879 .16699219-.0107421879 .19198609 .014251709 .19198609 .04425049Z"/>
<path id="font_1_55" d="M.44599916 .68470767C.30799867 .66970828 .22898865 .6457062 .14299011 .55570986 .07199097 .48269654 .033996583 .38771058 .033996583 .27960206 .033996583 .20951844 .052993776 .138443 .08099365 .087402347 .115997318 .023330689 .1789856-.013671875 .2579956-.013671875 .32398988-.013671875 .37998963 .013320923 .4169922 .05937195 .44999696 .09941101 .46798707 .1554718 .46798707 .2195282 .46798707 .34866334 .3959961 .42871095 .2789917 .42871095 .23498535 .42871095 .20098877 .42170716 .1519928 .3836975 .1789856 .5346985 .29100038 .6427002 .44799806 .6687012L.44599916 .68470767M.37799073 .18850708C.37799073 .08639526 .34098817 .014328003 .2689972 .014328003 .1749878 .014328003 .1269989 .11442566 .1269989 .2665863 .1269989 .3586731 .18598938 .3827057 .24299622 .3827057 .33599855 .3827057 .37799073 .31663514 .37799073 .18850708Z"/>
</defs>
<path transform="matrix(1,0,0,-1,176.146,86.945987)" stroke-width=".79701" stroke-linecap="butt" stroke-miterlimit="10" stroke-linejoin="miter" fill="none" stroke="#000000" d="M-170.08092 0H165.97055"/>
<path transform="matrix(1,0,0,-1,339.6515,86.945987)" d="M5.44046 0 1.28699 1.5706 2.66432 0 1.28699-1.5706Z"/>
<path transform="matrix(1,0,0,-1,339.6515,86.945987)" stroke-width=".79701" stroke-linecap="butt" stroke-miterlimit="10" stroke-linejoin="miter" fill="none" stroke="#000000" d="M5.44046 0 1.28699 1.5706 2.66432 0 1.28699-1.5706Z"/>
<use data-text="&#x1d465;" xlink:href="#font_1_2520" transform="matrix(9.9626,0,0,-9.9626,349.94599,89.097988)"/>
<path transform="matrix(1,0,0,-1,176.146,86.945987)" stroke-width=".79701" stroke-linecap="butt" stroke-miterlimit="10" stroke-linejoin="miter" fill="none" stroke="#000000" d="M0-204.09917V63.92096"/>
<path transform="matrix(0,-1,-1,-0,176.146,25.490094)" d="M5.44046 0 1.28699 1.5706 2.66432 0 1.28699-1.5706Z"/>
<path transform="matrix(0,-1,-1,-0,176.146,25.490094)" stroke-width=".79701" stroke-linecap="butt" stroke-miterlimit="10" stroke-linejoin="miter" fill="none" stroke="#000000" d="M5.44046 0 1.28699 1.5706 2.66432 0 1.28699-1.5706Z"/>
<use data-text="&#x1d466;" xlink:href="#font_1_2521" transform="matrix(9.9626,0,0,-9.9626,173.67499,13.371987)"/>
<use data-text="O" xlink:href="#font_2_48" transform="matrix(9.9626,0,0,-9.9626,155.54,73.234989)"/>
<path transform="matrix(1,0,0,-1,176.146,86.945987)" stroke-width="1.59404" stroke-linecap="butt" stroke-miterlimit="10" stroke-linejoin="miter" fill="none" stroke="#ff0000" d="M-142.86734-180.00507-139.98145-172.8111-137.09555-165.75727-134.20966-158.84357-131.32376-152.0856-128.43788-145.48334-125.55197-139.02123-122.66608-132.69924-119.78018-126.53297-116.89429-120.50685-114.00839-114.62086-111.1225-108.89061-108.2366-103.31606-105.35071-97.88164-102.46483-92.58737-99.57892-87.44882-96.69302-82.45041-93.80713-77.60771-90.92123-72.90515-88.03535-68.34276-85.14944-63.93605-82.26355-59.6695-79.37766-55.55865-76.49178-51.58795-73.60588-47.77295-70.71997-44.09811-67.83408-40.57898-64.94818-37.2-62.0623-33.96115-59.17639-30.87802-56.2905-27.93503-53.4046-25.14777-50.5187-22.50063-47.63283-20.0092-44.74692-17.65793-41.86102-15.44678-38.97513-13.39137-36.08925-11.47609-33.20335-9.71652-30.31744-8.09709-27.43155-6.63339-24.54565-5.30983-21.65977-4.1264-18.77388-3.0987-15.88797-2.21112-13.00208-1.47926-10.1162-.88756-7.2303-.45155-4.3444-.15569-1.4585-.01556H1.42737L4.31325-.16089 7.19914-.45676 10.08505-.89275 12.97095-1.47926 15.85683-2.21631 18.74272-3.0935 21.62862-4.1212 24.51453-5.29945 27.40042-6.61783 30.2863-8.08672 33.1722-9.70096 36.05809-11.4657 38.944-13.3706 41.8299-15.43121 44.71577-17.63197 47.60167-19.98325 50.48756-22.47986 53.37347-25.12181 56.25935-27.90907 59.14525-30.84688 62.03114-33.9352 64.91705-37.16367 67.80295-40.54265 70.68883-44.06697 73.57472-47.73662 76.46062-51.55681 79.34653-55.52231 82.2324-59.63316 85.1183-63.89452 88.0042-68.30122 90.89009-72.85326 93.776-77.5558 96.66188-82.3985 99.54778-87.39691 102.43367-92.53546 105.31956-97.82454 108.20546-103.25896 111.09135-108.8387 113.97725-114.56895 116.86314-120.44456 119.74905-126.4655 122.63493-132.63175 125.52083-138.94855 128.40673-145.41068 131.29262-152.0233 134.17853-158.78128 137.0644-165.68459 139.9503-172.73323 142.8362-179.9324"/>
<use data-text="&#x1d432;" xlink:href="#font_1_2470" transform="matrix(9.9626,0,0,-9.9626,247.69699,226.55098)" fill="#ff0000"/>
<use data-text="=" xlink:href="#font_1_62" transform="matrix(9.9626,0,0,-9.9626,255.63719,226.55098)" fill="#ff0000"/>
<use data-text="&#x2212;" xlink:href="#font_1_1151" transform="matrix(9.9626,0,0,-9.9626,265.23118,226.55098)" fill="#ff0000"/>
<use data-text="&#x1d7d1;" xlink:href="#font_1_3369" transform="matrix(9.9626,0,0,-9.9626,272.05555,226.55098)" fill="#ff0000"/>
<use data-text="&#x1d431;" xlink:href="#font_1_2469" transform="matrix(9.9626,0,0,-9.9626,277.03688,226.55098)" fill="#ff0000"/>
<use data-text="&#x1d7d0;" xlink:href="#font_1_3368" transform="matrix(7.472,0,0,-7.472,282.224,222.56598)" fill="#ff0000"/>
<path transform="matrix(1,0,0,-1,176.146,86.945987)" d="M.79701 0C.79701 .44019 .44019 .79701 0 .79701-.44019 .79701-.79701 .44019-.79701 0-.79701-.44019-.44019-.79701 0-.79701 .44019-.79701 .79701-.44019 .79701 0ZM0 0"/>
<path transform="matrix(1,0,0,-1,176.146,86.945987)" stroke-width=".3985" stroke-linecap="butt" stroke-miterlimit="10" stroke-linejoin="miter" fill="none" stroke="#000000" d="M.79701 0C.79701 .44019 .44019 .79701 0 .79701-.44019 .79701-.79701 .44019-.79701 0-.79701-.44019-.44019-.79701 0-.79701 .44019-.79701 .79701-.44019 .79701 0ZM0 0"/>
<use data-text="V" xlink:href="#font_2_55" transform="matrix(9.9626,0,0,-9.9626,179.66599,81.66299)"/>
<use data-text="e" xlink:href="#font_2_70" transform="matrix(9.9626,0,0,-9.9626,186.17157,81.66299)"/>
<use data-text="r" xlink:href="#font_2_83" transform="matrix(9.9626,0,0,-9.9626,190.59497,81.66299)"/>
<use data-text="t" xlink:href="#font_2_85" transform="matrix(9.9626,0,0,-9.9626,194.13169,81.66299)"/>
<use data-text="e" xlink:href="#font_2_70" transform="matrix(9.9626,0,0,-9.9626,196.90129,81.66299)"/>
<use data-text="x" xlink:href="#font_2_89" transform="matrix(9.9626,0,0,-9.9626,201.12543,81.66299)"/>
<use data-text="(" xlink:href="#font_1_41" transform="matrix(9.9626,0,0,-9.9626,208.588,81.66299)"/>
<use data-text="0" xlink:href="#font_1_49" transform="matrix(9.9626,0,0,-9.9626,211.90555,81.66299)"/>
<use data-text="," xlink:href="#font_1_45" transform="matrix(9.9626,0,0,-9.9626,216.88684,81.66299)"/>
<use data-text="0" xlink:href="#font_1_49" transform="matrix(9.9626,0,0,-9.9626,221.03128,81.66299)"/>
<use data-text=")" xlink:href="#font_1_42" transform="matrix(9.9626,0,0,-9.9626,226.01258,81.66299)"/>
<path transform="matrix(1,0,0,-1,176.146,86.945987)" d="M.79701-28.34506C.79701-27.90488 .44019-27.54805 0-27.54805-.44019-27.54805-.79701-27.90488-.79701-28.34506-.79701-28.78526-.44019-29.14209 0-29.14209 .44019-29.14209 .79701-28.78526 .79701-28.34506ZM0-28.34506" fill="#0000ff"/>
<path transform="matrix(1,0,0,-1,176.146,86.945987)" stroke-width=".3985" stroke-linecap="butt" stroke-miterlimit="10" stroke-linejoin="miter" fill="none" stroke="#0000ff" d="M.79701-28.34506C.79701-27.90488 .44019-27.54805 0-27.54805-.44019-27.54805-.79701-27.90488-.79701-28.34506-.79701-28.78526-.44019-29.14209 0-29.14209 .44019-29.14209 .79701-28.78526 .79701-28.34506ZM0-28.34506"/>
<use data-text="&#x1d439;" xlink:href="#font_1_2477" transform="matrix(9.9626,0,0,-9.9626,151.397,131.32498)" fill="#0000ff"/>
<use data-text="(" xlink:href="#font_1_3679" transform="matrix(9.9626,0,0,-9.9626,160.66,135.24498)" fill="#0000ff"/>
<use data-text="0" xlink:href="#font_1_49" transform="matrix(9.9626,0,0,-9.9626,166.528,131.32498)" fill="#0000ff"/>
<use data-text="," xlink:href="#font_1_45" transform="matrix(9.9626,0,0,-9.9626,171.50931,131.32498)" fill="#0000ff"/>
<use data-text="&#x2212;" xlink:href="#font_1_1151" transform="matrix(9.9626,0,0,-9.9626,175.65373,131.32498)" fill="#0000ff"/>
<use data-text="1" xlink:href="#font_1_50" transform="matrix(9.9626,0,0,-9.9626,186.171,125.54598)" fill="#0000ff"/>
<path transform="matrix(1,0,0,-1,47.25099,116.37898)" stroke-width=".6575" stroke-linecap="butt" stroke-miterlimit="10" stroke-linejoin="miter" fill="none" stroke="#0000ff" d="M136.429-12.455H146.392"/>
<use data-text="1" xlink:href="#font_1_50" transform="matrix(9.9626,0,0,-9.9626,183.68,138.29999)" fill="#0000ff"/>
<use data-text="2" xlink:href="#font_1_51" transform="matrix(9.9626,0,0,-9.9626,188.66129,138.29999)" fill="#0000ff"/>
<use data-text=")" xlink:href="#font_1_3680" transform="matrix(9.9626,0,0,-9.9626,194.838,135.24498)" fill="#0000ff"/>
<path transform="matrix(1,0,0,-1,176.146,86.945987)" stroke-width=".79701" stroke-linecap="butt" stroke-dasharray="2.98883,2.98883" stroke-miterlimit="10" stroke-linejoin="miter" fill="none" stroke="#0000ff" d="M-170.08092 28.34506H170.08092"/>
<use data-text="D" xlink:href="#font_2_37" transform="matrix(9.9626,0,0,-9.9626,270.62699,47.906984)" fill="#0000ff"/>
<use data-text="i" xlink:href="#font_2_74" transform="matrix(9.9626,0,0,-9.9626,277.82,47.906984)" fill="#0000ff"/>
<use data-text="r" xlink:href="#font_2_83" transform="matrix(9.9626,0,0,-9.9626,280.5896,47.906984)" fill="#0000ff"/>
<use data-text="e" xlink:href="#font_2_70" transform="matrix(9.9626,0,0,-9.9626,283.89717,47.906984)" fill="#0000ff"/>
<use data-text="c" xlink:href="#font_2_68" transform="matrix(9.9626,0,0,-9.9626,288.32057,47.906984)" fill="#0000ff"/>
<use data-text="t" xlink:href="#font_2_85" transform="matrix(9.9626,0,0,-9.9626,292.74397,47.906984)" fill="#0000ff"/>
<use data-text="r" xlink:href="#font_2_83" transform="matrix(9.9626,0,0,-9.9626,295.51356,47.906984)" fill="#0000ff"/>
<use data-text="i" xlink:href="#font_2_74" transform="matrix(9.9626,0,0,-9.9626,299.01045,47.906984)" fill="#0000ff"/>
<use data-text="x" xlink:href="#font_2_89" transform="matrix(9.9626,0,0,-9.9626,301.78004,47.906984)" fill="#0000ff"/>
<use data-text=":" xlink:href="#font_2_27" transform="matrix(9.9626,0,0,-9.9626,306.76136,47.906984)" fill="#0000ff"/>
<use data-text="&#x1d466;" xlink:href="#font_1_2521" transform="matrix(9.9626,0,0,-9.9626,312.852,47.906984)" fill="#0000ff"/>
<use data-text="=" xlink:href="#font_1_62" transform="matrix(9.9626,0,0,-9.9626,320.5531,47.906984)" fill="#0000ff"/>
<use data-text="1" xlink:href="#font_1_50" transform="matrix(9.9626,0,0,-9.9626,333.84,42.127985)" fill="#0000ff"/>
<path transform="matrix(1,0,0,-1,166.48099,32.960985)" stroke-width=".6575" stroke-linecap="butt" stroke-miterlimit="10" stroke-linejoin="miter" fill="none" stroke="#0000ff" d="M164.868-12.455H174.831"/>
<use data-text="1" xlink:href="#font_1_50" transform="matrix(9.9626,0,0,-9.9626,331.349,54.88198)" fill="#0000ff"/>
<use data-text="2" xlink:href="#font_1_51" transform="matrix(9.9626,0,0,-9.9626,336.33027,54.88198)" fill="#0000ff"/>
<path transform="matrix(1,0,0,-1,176.146,86.945987)" stroke-width="1.19553" stroke-linecap="butt" stroke-dasharray="1.19553,1.99255" stroke-miterlimit="10" stroke-linejoin="miter" fill="none" stroke="#008000" d="M-56.69016-28.34506H56.69016"/>
<path transform="matrix(1,0,0,-1,176.146,86.945987)" d="M57.48718-28.34506C57.48718-27.90488 57.13036-27.54805 56.69016-27.54805 56.24997-27.54805 55.89314-27.90488 55.89314-28.34506 55.89314-28.78526 56.24997-29.14209 56.69016-29.14209 57.13036-29.14209 57.48718-28.78526 57.48718-28.34506ZM56.69016-28.34506" fill="#008000"/>
<path transform="matrix(1,0,0,-1,176.146,86.945987)" stroke-width=".3985" stroke-linecap="butt" stroke-miterlimit="10" stroke-linejoin="miter" fill="none" stroke="#008000" d="M57.48718-28.34506C57.48718-27.90488 57.13036-27.54805 56.69016-27.54805 56.24997-27.54805 55.89314-27.90488 55.89314-28.34506 55.89314-28.78526 56.24997-29.14209 56.69016-29.14209 57.13036-29.14209 57.48718-28.78526 57.48718-28.34506ZM56.69016-28.34506"/>
<use data-text="(" xlink:href="#font_1_3679" transform="matrix(9.9626,0,0,-9.9626,238.349,121.91098)" fill="#008000"/>
<use data-text="1" xlink:href="#font_1_50" transform="matrix(9.9626,0,0,-9.9626,245.413,112.21198)" fill="#008000"/>
<path transform="matrix(1,0,0,-1,134.20299,103.04498)" stroke-width=".6575" stroke-linecap="butt" stroke-miterlimit="10" stroke-linejoin="miter" fill="none" stroke="#008000" d="M111.21-12.455H116.191"/>
<use data-text="6" xlink:href="#font_1_55" transform="matrix(9.9626,0,0,-9.9626,245.413,124.96598)" fill="#008000"/>
<use data-text="," xlink:href="#font_1_45" transform="matrix(9.9626,0,0,-9.9626,251.59,117.99098)" fill="#008000"/>
<use data-text="&#x2212;" xlink:href="#font_1_1151" transform="matrix(9.9626,0,0,-9.9626,255.73444,117.99098)" fill="#008000"/>
<use data-text="1" xlink:href="#font_1_50" transform="matrix(9.9626,0,0,-9.9626,266.25199,112.21198)" fill="#008000"/>
<path transform="matrix(1,0,0,-1,134.20299,103.04498)" stroke-width=".6575" stroke-linecap="butt" stroke-miterlimit="10" stroke-linejoin="miter" fill="none" stroke="#008000" d="M129.558-12.455H139.521"/>
<use data-text="1" xlink:href="#font_1_50" transform="matrix(9.9626,0,0,-9.9626,263.761,124.96598)" fill="#008000"/>
<use data-text="2" xlink:href="#font_1_51" transform="matrix(9.9626,0,0,-9.9626,268.74229,124.96598)" fill="#008000"/>
<use data-text=")" xlink:href="#font_1_3680" transform="matrix(9.9626,0,0,-9.9626,274.919,121.91098)" fill="#008000"/>
<path transform="matrix(1,0,0,-1,176.146,86.945987)" d="M-55.89314-28.34506C-55.89314-27.90488-56.24997-27.54805-56.69016-27.54805-57.13036-27.54805-57.48718-27.90488-57.48718-28.34506-57.48718-28.78526-57.13036-29.14209-56.69016-29.14209-56.24997-29.14209-55.89314-28.78526-55.89314-28.34506ZM-56.69016-28.34506" fill="#008000"/>
<path transform="matrix(1,0,0,-1,176.146,86.945987)" stroke-width=".3985" stroke-linecap="butt" stroke-miterlimit="10" stroke-linejoin="miter" fill="none" stroke="#008000" d="M-55.89314-28.34506C-55.89314-27.90488-56.24997-27.54805-56.69016-27.54805-57.13036-27.54805-57.48718-27.90488-57.48718-28.34506-57.48718-28.78526-57.13036-29.14209-56.69016-29.14209-56.24997-29.14209-55.89314-28.78526-55.89314-28.34506ZM-56.69016-28.34506"/>
<use data-text="(" xlink:href="#font_1_3679" transform="matrix(9.9626,0,0,-9.9626,64.491,121.91098)" fill="#008000"/>
<use data-text="&#x2212;" xlink:href="#font_1_1151" transform="matrix(9.9626,0,0,-9.9626,70.359,117.99098)" fill="#008000"/>
<use data-text="1" xlink:href="#font_1_50" transform="matrix(9.9626,0,0,-9.9626,78.379009,112.21198)" fill="#008000"/>
<path transform="matrix(1,0,0,-1,-39.655008,103.04498)" stroke-width=".6575" stroke-linecap="butt" stroke-miterlimit="10" stroke-linejoin="miter" fill="none" stroke="#008000" d="M118.034-12.455H123.016"/>
<use data-text="6" xlink:href="#font_1_55" transform="matrix(9.9626,0,0,-9.9626,78.37899,124.96598)" fill="#008000"/>
<use data-text="," xlink:href="#font_1_45" transform="matrix(9.9626,0,0,-9.9626,84.55599,117.99098)" fill="#008000"/>
<use data-text="&#x2212;" xlink:href="#font_1_1151" transform="matrix(9.9626,0,0,-9.9626,88.70043,117.99098)" fill="#008000"/>
<use data-text="1" xlink:href="#font_1_50" transform="matrix(9.9626,0,0,-9.9626,99.217998,112.21198)" fill="#008000"/>
<path transform="matrix(1,0,0,-1,-39.655008,103.04498)" stroke-width=".6575" stroke-linecap="butt" stroke-miterlimit="10" stroke-linejoin="miter" fill="none" stroke="#008000" d="M136.382-12.455H146.345"/>
<use data-text="1" xlink:href="#font_1_50" transform="matrix(9.9626,0,0,-9.9626,96.727,124.96598)" fill="#008000"/>
<use data-text="2" xlink:href="#font_1_51" transform="matrix(9.9626,0,0,-9.9626,101.70829,124.96598)" fill="#008000"/>
<use data-text=")" xlink:href="#font_1_3680" transform="matrix(9.9626,0,0,-9.9626,107.885997,121.91098)" fill="#008000"/>
</svg>
