<svg style="overflow: visible;" xmlns="http://www.w3.org/2000/svg" xmlns:xlink="http://www.w3.org/1999/xlink" xmlns:inkscape="http://www.inkscape.org/namespaces/inkscape" version="1.1" width="100%" height="100%" viewBox="0 0 406.27 477.9">
<defs>
<path id="font_1_1" d="M.47399903 .40820313C.44198609 .40219117 .42999269 .3781891 .42999269 .3591919 .42999269 .33518983 .44898988 .3271942 .46299745 .3271942 .49299623 .3271942 .5139923 .3531952 .5139923 .380188 .5139923 .4223938 .46598817 .44140626 .42399598 .44140626 .36299134 .44140626 .32899476 .38119508 .31999208 .36219789 .29699708 .4373932 .23498535 .44140626 .21699524 .44140626 .114990238 .44140626 .06098938 .31021119 .06098938 .28822328 .06098938 .28422547 .06498718 .27923585 .07199097 .27923585 .07998657 .27923585 .08198547 .28523255 .083999637 .2892151 .117996219 .40019227 .18499756 .42140199 .21398926 .42140199 .25898744 .42140199 .2679901 .37919618 .2679901 .3551941 .2679901 .33319093 .2619934 .31021119 .25 .26223756L.21598816 .12535095C.20098877 .06535339 .17199707 .010223389 .11898804 .010223389 .11399841 .010223389 .08898926 .010223389 .067993167 .023330689 .10398865 .03036499 .11199951 .06036377 .11199951 .07235718 .11199951 .09236145 .09700012 .10435486 .07798767 .10435486 .053985597 .10435486 .027999878 .083358768 .027999878 .051361085 .027999878 .009231567 .07499695-.009765625 .117996219-.009765625 .1659851-.009765625 .19999695 .028366089 .22099304 .069366458 .23699951 .010223389 .2869873-.009765625 .32398988-.009765625 .42599488-.009765625 .47999574 .12135315 .47999574 .1433258 .47999574 .14833069 .47599793 .15232849 .46998597 .15232849 .46099855 .15232849 .45999146 .14732361 .45700074 .139328 .42999269 .051361085 .37199403 .010223389 .32699586 .010223389 .2919922 .010223389 .272995 .036361696 .272995 .07736206 .272995 .099365238 .2769928 .115356449 .29299928 .18130493L.32798768 .3171997C.34298707 .37719728 .3769989 .42140199 .4229889 .42140199 .4249878 .42140199 .45298768 .42140199 .47399903 .40820313Z"/>
<path id="font_1_2" d="M.2630005-.11172485C.23599243-.14982605 .19699097-.18411255 .147995-.18411255 .13598633-.18411255 .08799744-.18209839 .07299805-.13572693 .07598877-.13671875 .08099365-.13671875 .08299255-.13671875 .11299133-.13671875 .1329956-.11073303 .1329956-.08772278 .1329956-.06472778 .11399841-.056732179 .09899902-.056732179 .08299255-.056732179 .04798889-.068725589 .04798889-.11772156 .04798889-.16899109 .09098816-.20410156 .147995-.20410156 .24798584-.20410156 .34899903-.11172485 .3769989-.00077819827L.47499085 .38868714C.47599793 .39367677 .47799684 .39967347 .47799684 .4056549 .47799684 .4206543 .46598817 .43066407 .45098878 .43066407 .44198609 .43066407 .42099 .426651 .41299439 .39666749L.33898927 .10308838C.33399964 .085113529 .33399964 .08312988 .32598878 .072143558 .30599977 .04423523 .272995 .010223389 .22499085 .010223389 .16899109 .010223389 .1639862 .06524658 .1639862 .09225464 .1639862 .14929199 .19099427 .22631836 .21798706 .2983551 .22898865 .32736207 .23498535 .34136964 .23498535 .3613739 .23498535 .4033966 .20498657 .44140626 .1559906 .44140626 .06399536 .44140626 .026992798 .29634095 .026992798 .28834535 .026992798 .28434754 .0309906 .27934266 .037994386 .27934266 .04699707 .27934266 .04798889 .28334046 .051986696 .29734803 .07598877 .38137818 .11399841 .42140199 .15299988 .42140199 .1619873 .42140199 .1789856 .42140199 .1789856 .38838197 .1789856 .36238099 .16799927 .33335877 .15299988 .29534913 .10398865 .16429138 .10398865 .13127136 .10398865 .10726929 .10398865 .01222229 .17199707-.009765625 .22200012-.009765625 .25099183-.009765625 .2869873-.00077819827 .32199098 .036239625L.32299806 .035232545C.30799867-.023757935 .2979889-.06272888 .2630005-.11172485Z"/>
<path id="font_2_80" d="M.70700076 .33880616C.70700076 .54597476 .5549927 .70410159 .3809967 .70410159 .20298767 .70410159 .053985597 .54397585 .053985597 .33880616 .053985597 .13562012 .20498657-.021484375 .37998963-.021484375 .5589905-.021484375 .70700076 .13761902 .70700076 .33880616M.6139984 .35380555C.6139984 .09358215 .47799684 .0015106201 .3809967 .0015106201 .2789917 .0015106201 .14698792 .097595218 .14698792 .35380555 .14698792 .59902957 .28599549 .6820984 .37998963 .6820984 .47898866 .6820984 .6139984 .59602358 .6139984 .35380555Z"/>
<path id="font_3_7" d="M.18399048 .35888673C.16699219 .35787965 .16299439 .35688783 .16299439 .34788514 .16299439 .33789063 .16799927 .33789063 .18598938 .33789063H.23199463C.31698609 .33789063 .35499574 .267807 .35499574 .17172241 .35499574 .04058838 .2869873 .005508423 .23799134 .005508423 .18998719 .005508423 .10798645 .028564454 .07899475 .09472656 .11099243 .08970642 .13999939 .10771179 .13999939 .14372254 .13999939 .17271424 .11898804 .1927185 .09098816 .1927185 .066986087 .1927185 .040985109 .1787262 .040985109 .14071656 .040985109 .051620485 .12998963-.021484375 .24099732-.021484375 .3600006-.021484375 .44799806 .06965637 .44799806 .17071533 .44799806 .26280213 .37399293 .33488465 .27799989 .35188294 .36499024 .3769226 .42099 .45011903 .42099 .5282135 .42099 .6071167 .33898927 .66503909 .24198914 .66503909 .14199829 .66503909 .067993167 .604126 .067993167 .5312042 .067993167 .49121095 .09899902 .48321534 .11399841 .48321534 .1349945 .48321534 .15899658 .49821473 .15899658 .5282135 .15899658 .5602112 .1349945 .57421877 .11299133 .57421877 .10699463 .57421877 .10499573 .57421877 .101989749 .57321169 .13999939 .641037 .23399353 .641037 .23899842 .641037 .27198792 .641037 .33699037 .6260681 .33699037 .5282135 .33699037 .5092163 .33399964 .453125 .30499269 .41001893 .2749939 .3658905 .24099732 .36288453 .21398926 .36187745L.18399048 .35888673Z"/>
<path id="font_3_4" d="M.44799806 .31976319C.44799806 .40283204 .44299317 .48390199 .40699769 .55996707 .3659973 .64302065 .2939911 .66503909 .24499512 .66503909 .18699646 .66503909 .115997318 .63601687 .07899475 .552948 .050994874 .48989869 .040985109 .42785646 .040985109 .31976319 .040985109 .22268677 .04798889 .14962769 .083999637 .078567508 .12298584 .0025177003 .19198609-.021484375 .24398804-.021484375 .33099366-.021484375 .3809967 .030532837 .4099884 .08857727 .44599916 .16363526 .44799806 .26171876 .44799806 .31976319M.24398804-.0014953613C.21199036-.0014953613 .14698792 .016525269 .12799073 .12561035 .116989139 .18565369 .116989139 .26171876 .116989139 .33177186 .116989139 .41384889 .116989139 .48789979 .1329956 .5469513 .1499939 .6139984 .20098877 .6450348 .24398804 .6450348 .28199769 .6450348 .33999635 .6220093 .35899354 .53593447 .37199403 .4788971 .37199403 .39982606 .37199403 .33177186 .37199403 .26472474 .37199403 .18865967 .36099244 .12760926 .34199525 .01751709 .2789917-.0014953613 .24398804-.0014953613Z"/>
<path id="font_4_2" d="M.47099305 .25C.47099305 .36502076 .3789978 .45703126 .2649994 .45703126 .15098572 .45703126 .05899048 .36502076 .05899048 .25 .05899048 .13496399 .15098572 .04296875 .2649994 .04296875 .3789978 .04296875 .47099305 .13496399 .47099305 .25M.2649994 .08895874C.17599488 .08895874 .10499573 .15997315 .10499573 .25 .10499573 .3400116 .17599488 .411026 .2649994 .411026 .35398866 .411026 .4249878 .3400116 .4249878 .25 .4249878 .15997315 .35398866 .08895874 .2649994 .08895874Z"/>
<path id="font_4_3" d="M.2649994 .4740448C.269989 .4870453 .27398683 .49404908 .27398683 .5040436 .27398683 .53704836 .24398804 .5590515 .21598816 .5590515 .17599488 .5590515 .16499329 .52404788 .16099549 .51005557L.033996583 .07901001C.02999878 .06700134 .02999878 .06401062 .02999878 .06300354 .02999878 .054000856 .035995485 .052001954 .04598999 .04901123 .06399536 .041015626 .06599426 .041015626 .067993167 .041015626 .070999149 .041015626 .07699585 .041015626 .083999637 .058013917L.2649994 .4740448Z"/>
<path id="font_5_2" d="M.28199769 .20405579C.2979889 .21907044 .33999635 .2520752 .35598756 .26608277 .41799928 .32312013 .47698976 .3781433 .47698976 .46917726 .47698976 .588089 .3769989 .66503909 .2519989 .66503909 .13198853 .66503909 .052993776 .57411196 .052993776 .48516847 .052993776 .4361725 .09199524 .4291687 .10598755 .4291687 .1269989 .4291687 .1579895 .4441681 .1579895 .48217774 .1579895 .5341797 .10798645 .5341797 .09599304 .5341797 .125 .6070709 .19198609 .6320343 .24099732 .6320343 .33399964 .6320343 .38198854 .55314639 .38198854 .46917726 .38198854 .36514283 .30899049 .28910829 .19099427 .16804505L.06498718 .037994386C.052993776 .026992798 .052993776 .024993897 .052993776 0H.44799806L.47698976 .17904663H.44599916C.44299317 .1590271 .43499757 .10900879 .4229889 .08999634 .4169922 .08198547 .34098817 .08198547 .32499696 .08198547H.14698792L.28199769 .20405579Z"/>
<path id="font_3_3" d="M.39898683 .23057556H.6749878C.68899539 .23057556 .70700076 .23057556 .70700076 .24856568 .70700076 .26757813 .6899872 .26757813 .6749878 .26757813H.39898683V.5441437C.39898683 .5581665 .39898683 .5761719 .3809967 .5761719 .3619995 .5761719 .3619995 .5591583 .3619995 .5441437V.26757813H.085998538C.07199097 .26757813 .053985597 .26757813 .053985597 .24957276 .053985597 .23057556 .070999149 .23057556 .085998538 .23057556H.3619995V-.045166017C.3619995-.059158327 .3619995-.07714844 .37998963-.07714844 .39898683-.07714844 .39898683-.060150148 .39898683-.045166017V.23057556Z"/>
<path id="font_3_6" d="M.43998719 .16790772H.41799928C.4149933 .15092469 .40699769 .09597778 .39698792 .07998657 .3899994 .070999149 .33299256 .070999149 .30299378 .070999149H.117996219C.14498902 .09397888 .20599365 .15792847 .23199463 .18190003 .38398744 .3217926 .43998719 .37374879 .43998719 .47270204 .43998719 .5878906 .34899903 .66503909 .23298645 .66503909 .116989139 .66503909 .04899597 .5658264 .04899597 .4797058 .04899597 .42871095 .09298706 .42871095 .09599304 .42871095 .116989139 .42871095 .14299011 .44371034 .14299011 .475708 .14299011 .5037079 .12399292 .5227051 .09599304 .5227051 .08699036 .5227051 .084991458 .5227051 .08198547 .521698 .100997928 .5899048 .15499878 .6360321 .21998596 .6360321 .30499269 .6360321 .35699464 .56481936 .35699464 .47270204 .35699464 .3877411 .30799867 .313797 .25099183 .24984741L.04899597 .023986817V0H.4139862L.43998719 .16790772Z"/>
<path id="font_6_2" d="M.3889923-.8549652 .21299744-.4659729C.20599365-.44996644 .20098877-.44996644 .19799805-.44996644 .19699097-.44996644 .19198609-.44996644 .18099976-.45796205L.085998538-.52996829C.07299805-.53996279 .07299805-.54296877 .07299805-.54597476 .07299805-.55096438 .07598877-.55696108 .08299255-.55696108 .08898926-.55696108 .10598755-.54296877 .116989139-.53497317 .12298584-.52996829 .13798523-.5189667 .14898682-.51097109L.34599305-.9439697C.35299684-.95996096 .35798646-.95996096 .36698915-.95996096 .38198854-.95996096 .3849945-.95396426 .3919983-.9399719L.84599307 .000030517579C.8529968 .014038086 .8529968 .018035889 .8529968 .02003479 .8529968 .030029297 .8450012 .040039064 .83299258 .040039064 .82499697 .040039064 .81799319 .03503418 .80999758 .01902771L.3889923-.8549652Z"/>
<path id="font_6_1" d="M.6589966 .23046875C.6759949 .23046875 .69400027 .23046875 .69400027 .25045777 .69400027 .27046205 .6759949 .27046205 .6589966 .27046205H.117996219C.100997928 .27046205 .08299255 .27046205 .08299255 .25045777 .08299255 .23046875 .100997928 .23046875 .117996219 .23046875H.6589966Z"/>
<path id="font_3_5" d="M.28799439 .64105227C.28799439 .664032 .28799439 .66503909 .2679901 .66503909 .24398804 .6380615 .19400025 .6012573 .09098816 .6012573V.5722656C.11399841 .5722656 .1639862 .5722656 .21899414 .59825137V.07701111C.21899414 .041000368 .21598816 .0289917 .12799073 .0289917H.09700012V0C.12399292 .0019989014 .22099304 .0019989014 .2539978 .0019989014 .2869873 .0019989014 .3829956 .0019989014 .4099884 0V.0289917H.3789978C.29100038 .0289917 .28799439 .041000368 .28799439 .07701111V.64105227Z"/>
<path id="font_3_10" d="M.12298584 .34773255C.12298584 .60061648 .24598694 .641037 .2999878 .641037 .33599855 .641037 .37199403 .62991335 .3909912 .5996094 .3789978 .5996094 .34098817 .5996094 .34098817 .558609 .34098817 .53660586 .35598756 .51760867 .38198854 .51760867 .40699769 .51760867 .42399598 .53260806 .42399598 .56159976 .42399598 .6137543 .38598634 .66503909 .29899598 .66503909 .17298889 .66503909 .040985109 .53559878 .040985109 .31570436 .040985109 .040527345 .16099549-.021484375 .24598694-.021484375 .35499574-.021484375 .44799806 .07354736 .44799806 .2036438 .44799806 .33673097 .35499574 .42578126 .25498963 .42578126 .1659851 .42578126 .1329956 .34873963 .12298584 .32070924V.34773255M.24598694 .005508423C.18299866 .005508423 .15299988 .061538698 .14399719 .08256531 .1349945 .10858154 .125 .15760803 .125 .22766114 .125 .30670167 .16099549 .40577699 .25099183 .40577699 .30599977 .40577699 .33499146 .3687439 .34999085 .33473207 .3659973 .29769898 .3659973 .2476654 .3659973 .20463562 .3659973 .15361023 .3659973 .10858154 .34700013 .07055664 .32199098 .022521973 .28599549 .005508423 .24598694 .005508423Z"/>
<path id="font_3_13" d="M.6749878 .32421876C.68899539 .32421876 .70700076 .32421876 .70700076 .34220887 .70700076 .36120606 .6899872 .36120606 .6749878 .36120606H.085998538C.07199097 .36120606 .053985597 .36120606 .053985597 .34321595 .053985597 .32421876 .070999149 .32421876 .085998538 .32421876H.6749878M.6749878 .13780213C.68899539 .13780213 .70700076 .13780213 .70700076 .15579224 .70700076 .17480469 .6899872 .17480469 .6749878 .17480469H.085998538C.07199097 .17480469 .053985597 .17480469 .053985597 .15679932 .053985597 .13780213 .070999149 .13780213 .085998538 .13780213H.6749878Z"/>
<path id="font_3_1" d="M.32499696-.24298096C.32499696-.23999024 .32499696-.23799134 .30799867-.22097779 .20799256-.11997986 .1519928 .045013429 .1519928 .24900818 .1519928 .44299317 .19898987 .60998538 .31498719 .7279968 .32499696 .7369995 .32499696 .7389984 .32499696 .74198916 .32499696 .74798586 .31999208 .75 .31599427 .75 .30299378 .75 .22099304 .6779938 .17199707 .5799866 .12098694 .47898866 .09799194 .37199403 .09799194 .24900818 .09799194 .16000366 .11199951 .041015626 .1639862-.06599426 .22299195-.18598938 .30499269-.25097657 .31599427-.25097657 .31999208-.25097657 .32499696-.24897766 .32499696-.24298096Z"/>
<path id="font_3_2" d="M.28199769 .24900818C.28199769 .32499696 .27198792 .44898988 .21598816 .5649872 .15699768 .68499758 .07499695 .75 .06399536 .75 .05999756 .75 .054992677 .74798586 .054992677 .74198916 .054992677 .7389984 .054992677 .7369995 .07199097 .71998599 .17199707 .61898806 .22799683 .45399476 .22799683 .25 .22799683 .056015016 .18099976-.11099243 .06498718-.22898865 .054992677-.23799134 .054992677-.23999024 .054992677-.24298096 .054992677-.24897766 .05999756-.25097657 .06399536-.25097657 .07699585-.25097657 .15899658-.1789856 .20799256-.08099365 .25898744 .021011353 .28199769 .12901306 .28199769 .24900818Z"/>
<path id="font_3_11" d="M.2979889 .36079408C.34799195 .38781739 .42099 .43385316 .42099 .5179291 .42099 .6049957 .33699037 .66503909 .24499512 .66503909 .1459961 .66503909 .067993167 .59199526 .067993167 .5009155 .067993167 .46688844 .07798767 .43286134 .10598755 .39883424 .116989139 .38581849 .117996219 .38482667 .18798828 .3357849 .09098816 .29074098 .040985109 .22369385 .040985109 .15063477 .040985109 .044540407 .14199829-.021484375 .24398804-.021484375 .35499574-.021484375 .44799806 .060546876 .44799806 .16563416 .44799806 .2677307 .37599183 .3127594 .2979889 .36079408M.1619873 .4508667C.14898682 .45988465 .10899353 .48590089 .10899353 .5349426 .10899353 .59999087 .1769867 .641037 .24398804 .641037 .31599427 .641037 .37998963 .58898928 .37998963 .516922 .37998963 .45587159 .33599855 .4068451 .27799989 .3748169L.1619873 .4508667M.20899964 .32176209 .32998658 .2427063C.35598756 .22569275 .4019928 .19465637 .4019928 .13360596 .4019928 .057556154 .32499696 .005508423 .24499512 .005508423 .1599884 .005508423 .08699036 .06756592 .08699036 .15063477 .08699036 .22869873 .14399719 .29174806 .20899964 .32176209Z"/>
</defs>
<path transform="matrix(1,0,0,-1,182.819,224.26999)" stroke-width=".79701" stroke-linecap="round" stroke-dasharray="2.98883,2.98883" stroke-linejoin="round" fill="none" stroke="#000000" d="M-170.08042 0H201.50623"/>
<path transform="matrix(1,0,0,-1,384.32524,224.26999)" d="M2.59026 0-1.55415 2.0722 0 0-1.55415-2.0722"/>
<use data-text="x" xlink:href="#font_1_1" transform="matrix(11.9552,0,0,-11.9552,390.63499,226.844)"/>
<path transform="matrix(1,0,0,-1,182.819,224.26999)" stroke-width=".79701" stroke-linecap="round" stroke-dasharray="2.98883,2.98883" stroke-linejoin="round" fill="none" stroke="#000000" d="M0-170.08042V201.50623"/>
<path transform="matrix(0,-1,-1,-0,182.819,22.763764)" d="M2.59026 0-1.55415 2.0722 0 0-1.55415-2.0722"/>
<use data-text="y" xlink:href="#font_1_2" transform="matrix(11.9552,0,0,-11.9552,179.751,14.12999)"/>
<use data-text="O" xlink:href="#font_2_80" transform="matrix(11.9552,0,0,-11.9552,186.33899,220.499)"/>
<path transform="matrix(1,0,0,-1,182.819,224.26999)" stroke-width=".79701" stroke-linecap="round" stroke-linejoin="round" fill="none" stroke="#000000" d="M51.02411 0C51.02411 8.95427 48.66505 17.75752 44.1883 25.51204"/>
<use data-text="3" xlink:href="#font_3_7" transform="matrix(11.9552,0,0,-11.9552,235.824,215.053)"/>
<use data-text="0" xlink:href="#font_3_4" transform="matrix(11.9552,0,0,-11.9552,241.6701,215.053)"/>
<use data-text="&#x25e6;" xlink:href="#font_4_2" transform="matrix(7.9701,0,0,-7.9701,247.53,210.71399)"/>
<path transform="matrix(1,0,0,-1,182.819,224.26999)" stroke-width=".79701" stroke-linecap="round" stroke-linejoin="round" fill="none" stroke="#000000" d="M0 51.02411C-8.95427 51.02411-17.75752 48.66505-25.51204 44.1883"/>
<use data-text="3" xlink:href="#font_3_7" transform="matrix(11.9552,0,0,-11.9552,161.394,171.26499)"/>
<use data-text="0" xlink:href="#font_3_4" transform="matrix(11.9552,0,0,-11.9552,167.2401,171.26499)"/>
<use data-text="&#x25e6;" xlink:href="#font_4_2" transform="matrix(7.9701,0,0,-7.9701,173.1,166.92598)"/>
<path transform="matrix(1,0,0,-1,182.819,224.26999)" stroke-width=".79701" stroke-linecap="round" stroke-linejoin="round" fill="none" stroke="#0000ff" d="M-176.75319-102.04694 174.51 100.75185"/>
<path transform="matrix(.86601,-.49998,-.49998,-.86601,357.32899,123.51814)" d="M2.59026 0-1.55415 2.0722 0 0-1.55415-2.0722" fill="#0000ff"/>
<use data-text="x" xlink:href="#font_1_1" transform="matrix(11.9552,0,0,-11.9552,363.29103,126.60599)" fill="#0000ff"/>
<use data-text="&#x2032;" xlink:href="#font_4_3" transform="matrix(7.9701,0,0,-7.9701,369.943,122.26698)" fill="#0000ff"/>
<path transform="matrix(1,0,0,-1,182.819,224.26999)" stroke-width=".79701" stroke-linecap="round" stroke-linejoin="round" fill="none" stroke="#0000ff" d="M102.04694-176.75319-100.75185 174.51"/>
<path transform="matrix(-.49998,-.86601,-.86601,.49998,82.067157,49.76001)" d="M2.59026 0-1.55415 2.0722 0 0-1.55415-2.0722" fill="#0000ff"/>
<use data-text="y" xlink:href="#font_1_2" transform="matrix(11.9552,0,0,-11.9552,76.306,41.472993)" fill="#0000ff"/>
<use data-text="&#x2032;" xlink:href="#font_4_3" transform="matrix(7.9701,0,0,-7.9701,82.442,37.133989)" fill="#0000ff"/>
<use data-text="O" xlink:href="#font_2_80" transform="matrix(11.9552,0,0,-11.9552,167.394,236.556)" fill="#0000ff"/>
<use data-text="&#x2032;" xlink:href="#font_4_3" transform="matrix(7.9701,0,0,-7.9701,176.504,232.21698)" fill="#0000ff"/>
<path transform="matrix(1,0,0,-1,182.819,224.26999)" stroke-width="1.59404" stroke-linecap="round" stroke-linejoin="round" fill="none" stroke="#ff0000" d="M-100.82764-97.49016C-100.82764-97.49016-97.72392-86.48154-96.44118-82.41052-95.15843-78.3395-92.99626-71.99295-91.58241-68.14902-90.16856-64.30507-87.79605-58.32285-86.25107-54.70604-84.70607-51.08928-82.12315-45.47145-80.4471-42.08168-78.77106-38.69191-75.97829-33.4376-74.1711-30.27495-72.36394-27.11226-69.36052-22.22276-67.42226-19.28719-65.48398-16.35158-62.27066-11.82565-60.20132-9.11708-58.132-6.40851-54.7083-2.24704-52.50784 .23445-50.3074 2.71594-46.67358 6.51349-44.34204 8.76788-42.0105 11.02231-38.16629 14.45546-35.70363 16.48277-33.24098 18.5101-29.18665 21.57935-26.59291 23.3796-23.99915 25.17984-19.7344 27.8846-17.0096 29.45784-14.28479 31.03104-9.81017 33.37222-6.95424 34.71838-4.09833 36.06454 .58693 38.0409 3.57394 39.15997 6.56099 40.27905 11.45615 41.89185 14.57423 42.7839 17.6923 43.67596 22.79787 44.92438 26.0471 45.58926 29.29633 46.25418 34.61224 47.1383 37.99257 47.57611 41.37291 48.01393 46.89891 48.53404 50.41034 48.74484 53.92174 48.95564 59.65797 49.11166 63.30042 49.09546 66.9429 49.07924 72.88928 48.87129 76.66284 48.62799 80.43642 48.38472 86.59311 47.81244 90.49785 47.34198 94.40254 46.87155 100.76965 45.93489 104.80542 45.23741 108.84122 44.53996 115.4182 43.23975 119.5851 42.31519 123.75197 41.39063 134.83759 38.57394 134.83759 38.57394"/>
<path transform="matrix(1,0,0,-1,182.819,224.26999)" stroke-width=".79701" stroke-linecap="round" stroke-linejoin="round" fill="none" stroke="#000000" d="M-14.41942 30.95325C-15.24475 32.3828-17.07265 32.87259-18.5022 32.04726-19.93175 31.22192-20.42154 29.39403-19.5962 27.96448-18.77087 26.53493-16.94298 26.04514-15.51343 26.87047-14.08388 27.69579-13.59409 29.5237-14.41942 30.95325ZM-17.00781 29.45886"/>
<use data-text="3" xlink:href="#font_3_7" transform="matrix(11.9552,0,0,-11.9552,140.668,432.91899)" fill="#ff0000"/>
<use data-text="x" xlink:href="#font_1_1" transform="matrix(11.9552,0,0,-11.9552,146.521,432.91899)" fill="#ff0000"/>
<use data-text="2" xlink:href="#font_5_2" transform="matrix(7.9701,0,0,-7.9701,153.173,427.982)" fill="#ff0000"/>
<use data-text="+" xlink:href="#font_3_3" transform="matrix(11.9552,0,0,-11.9552,160.562,432.91899)" fill="#ff0000"/>
<use data-text="2" xlink:href="#font_3_6" transform="matrix(11.9552,0,0,-11.9552,172.31397,432.91899)" fill="#ff0000"/>
<use data-text="&#x221a;" xlink:href="#font_6_2" transform="matrix(11.9552,0,0,-11.9552,178.176,422.44499)" fill="#ff0000"/>
<path transform="matrix(1,0,0,-1,29.848999,280.64399)" stroke-width=".4782" stroke-linecap="butt" stroke-linejoin="round" fill="none" stroke="#ff0000" d="M158.29-141.562H164.143"/>
<use data-text="3" xlink:href="#font_3_7" transform="matrix(11.9552,0,0,-11.9552,188.13899,432.91899)" fill="#ff0000"/>
<use data-text="x" xlink:href="#font_1_1" transform="matrix(11.9552,0,0,-11.9552,193.99199,432.91899)" fill="#ff0000"/>
<use data-text="y" xlink:href="#font_1_2" transform="matrix(11.9552,0,0,-11.9552,200.63909,432.91899)" fill="#ff0000"/>
<use data-text="+" xlink:href="#font_3_3" transform="matrix(11.9552,0,0,-11.9552,209.43698,432.91899)" fill="#ff0000"/>
<use data-text="y" xlink:href="#font_1_2" transform="matrix(11.9552,0,0,-11.9552,221.19799,432.91899)" fill="#ff0000"/>
<use data-text="2" xlink:href="#font_5_2" transform="matrix(7.9701,0,0,-7.9701,227.33498,427.982)" fill="#ff0000"/>
<use data-text="&#x2212;" xlink:href="#font_6_1" transform="matrix(11.9552,0,0,-11.9552,234.72397,432.91899)" fill="#ff0000"/>
<use data-text="1" xlink:href="#font_3_5" transform="matrix(11.9552,0,0,-11.9552,246.67897,432.91899)" fill="#ff0000"/>
<use data-text="6" xlink:href="#font_3_10" transform="matrix(11.9552,0,0,-11.9552,252.52507,432.91899)" fill="#ff0000"/>
<use data-text="x" xlink:href="#font_1_1" transform="matrix(11.9552,0,0,-11.9552,258.38496,432.91899)" fill="#ff0000"/>
<use data-text="+" xlink:href="#font_3_3" transform="matrix(11.9552,0,0,-11.9552,267.69398,432.91899)" fill="#ff0000"/>
<use data-text="1" xlink:href="#font_3_5" transform="matrix(11.9552,0,0,-11.9552,279.44593,432.91899)" fill="#ff0000"/>
<use data-text="6" xlink:href="#font_3_10" transform="matrix(11.9552,0,0,-11.9552,285.29203,432.91899)" fill="#ff0000"/>
<use data-text="&#x221a;" xlink:href="#font_6_2" transform="matrix(11.9552,0,0,-11.9552,291.16099,422.44499)" fill="#ff0000"/>
<path transform="matrix(1,0,0,-1,29.848999,280.64399)" stroke-width=".4782" stroke-linecap="butt" stroke-linejoin="round" fill="none" stroke="#ff0000" d="M271.275-141.562H277.128"/>
<use data-text="3" xlink:href="#font_3_7" transform="matrix(11.9552,0,0,-11.9552,301.124,432.91899)" fill="#ff0000"/>
<use data-text="y" xlink:href="#font_1_2" transform="matrix(11.9552,0,0,-11.9552,306.977,432.91899)" fill="#ff0000"/>
<use data-text="&#x2212;" xlink:href="#font_6_1" transform="matrix(11.9552,0,0,-11.9552,315.77,432.91899)" fill="#ff0000"/>
<use data-text="3" xlink:href="#font_3_7" transform="matrix(11.9552,0,0,-11.9552,327.72499,432.91899)" fill="#ff0000"/>
<use data-text="2" xlink:href="#font_3_6" transform="matrix(11.9552,0,0,-11.9552,333.57109,432.91899)" fill="#ff0000"/>
<use data-text="=" xlink:href="#font_3_13" transform="matrix(11.9552,0,0,-11.9552,342.72877,432.91899)" fill="#ff0000"/>
<use data-text="0" xlink:href="#font_3_4" transform="matrix(11.9552,0,0,-11.9552,355.1502,432.91899)" fill="#ff0000"/>
<use data-text="(" xlink:href="#font_3_1" transform="matrix(11.9552,0,0,-11.9552,209.158,465.92399)" fill="#ff0000"/>
<use data-text="x" xlink:href="#font_1_1" transform="matrix(11.9552,0,0,-11.9552,213.71,465.92399)" fill="#ff0000"/>
<use data-text="&#x2032;" xlink:href="#font_4_3" transform="matrix(7.9701,0,0,-7.9701,220.362,460.987)" fill="#ff0000"/>
<use data-text=")" xlink:href="#font_3_2" transform="matrix(11.9552,0,0,-11.9552,223.15702,465.92399)" fill="#ff0000"/>
<use data-text="2" xlink:href="#font_5_2" transform="matrix(7.9701,0,0,-7.9701,227.709,460.987)" fill="#ff0000"/>
<use data-text="=" xlink:href="#font_3_13" transform="matrix(11.9552,0,0,-11.9552,235.763,465.92399)" fill="#ff0000"/>
<use data-text="&#x2212;" xlink:href="#font_6_1" transform="matrix(11.9552,0,0,-11.9552,248.188,465.92399)" fill="#ff0000"/>
<use data-text="8" xlink:href="#font_3_11" transform="matrix(11.9552,0,0,-11.9552,257.487,465.92399)" fill="#ff0000"/>
<use data-text="y" xlink:href="#font_1_2" transform="matrix(11.9552,0,0,-11.9552,263.34,465.92399)" fill="#ff0000"/>
<use data-text="&#x2032;" xlink:href="#font_4_3" transform="matrix(7.9701,0,0,-7.9701,269.476,460.987)" fill="#ff0000"/>
<use data-text="+" xlink:href="#font_3_3" transform="matrix(11.9552,0,0,-11.9552,274.92799,465.92399)" fill="#ff0000"/>
<use data-text="8" xlink:href="#font_3_11" transform="matrix(11.9552,0,0,-11.9552,286.67994,465.92399)" fill="#ff0000"/>
</svg>
