<svg xmlns="http://www.w3.org/2000/svg" xmlns:xlink="http://www.w3.org/1999/xlink" xmlns:inkscape="http://www.inkscape.org/namespaces/inkscape" version="1.1" width="319" height="724" viewBox="0 0 319 724">
<defs>
<clipPath id="clip_1">
<path transform="matrix(1,0,0,-1,-136,766)" d="M0 0H595.28V841.89H0Z"/>
</clipPath>
<path id="font_2_2520" d="M.30499269 .28834535 .2849884 .3433838C.272995 .3764038 .2539978 .41740418 .20999146 .44140626L.07798767 .4084015 .08099365 .39039613C.09098816 .39439393 .10598755 .39639283 .11898804 .39639283 .17399597 .39639283 .19999695 .35539247 .21699524 .3073578L.25 .21530152 .18499756 .11424255C.15299988 .065216068 .1269989 .0552063 .114990238 .0552063 .08999634 .0552063 .09399414 .07521057 .067993167 .07521057 .042999269 .07521057 .02999878 .05419922 .02999878 .038208009 .02999878 .016204834 .04598999-.0087890629 .08198547-.0087890629 .13798523-.0087890629 .16699219 .034210206 .19898987 .083221439L.2619934 .18127442 .3019867 .06820679C.31498719 .032196046 .33399964-.0087890629 .375-.0087890629 .43299867-.0087890629 .47799684 .08721924 .48999024 .10223389L.47599793 .11224365C.45498658 .06921387 .43099977 .0552063 .4149933 .0552063 .36999513 .0552063 .34700013 .19029236 .31698609 .25231935L.37199403 .33737184C.38598634 .35939027 .39698792 .37539674 .4269867 .37539674 .44400025 .37539674 .44898988 .36639405 .47099305 .36639405 .49699403 .36639405 .5099945 .3894043 .5099945 .4084015 .5099945 .42939759 .49299623 .44140626 .46099855 .44140626 .41099549 .44140626 .37599183 .3973999 .34999085 .35739137L.30499269 .28834535Z"/>
<path id="font_2_2521" d="M.269989 .30682374C.26098634 .38082887 .2539978 .40682984 .23098755 .4398346L.08099365 .41482545 .08299255 .39883424C.09199524 .39982606 .10798645 .40283204 .11898804 .40283204 .1749878 .40283204 .18399048 .34283448 .18899536 .2978363L.22698975-.016174317C.20098877-.056167604 .14399719-.11816406 .1269989-.11816406 .11099243-.11816406 .11299133-.08717346 .069992069-.08717346 .056991579-.08717346 .02999878-.09817505 .02999878-.12817383 .02999878-.1521759 .04899597-.1831665 .085998538-.1831665 .1539917-.1831665 .21899414-.08517456 .2919922 .0068359377 .33399964 .059829713 .49598695 .2998352 .49598695 .37782289 .49598695 .41682435 .47099305 .4398346 .43899537 .4398346 .4099884 .4398346 .3919983 .42182923 .3919983 .39982606 .3919983 .36183167 .44400025 .3518219 .44400025 .3308258 .44400025 .3128357 .43598939 .29283143 .41600038 .25582887 .3939972 .21482849 .35899354 .15483094 .2979889 .07182312L.269989 .30682374Z"/>
<path id="font_3_48" d="M.6879883 .33103944C.6879883 .5288696 .5569916 .67578127 .36099244 .67578127 .1659851 .67578127 .033996583 .53686526 .033996583 .3340454 .033996583 .1262207 .16699219-.013671875 .36099244-.013671875 .5529938-.013671875 .6879883 .12522888 .6879883 .33103944M.57398989 .33703614C.57398989 .21714783 .54599 .12322998 .4909973 .07028198 .45599366 .03730774 .4119873 .022323609 .3619995 .022323609 .31599427 .022323609 .27198792 .03630066 .23799134 .067276 .1769867 .12322998 .147995 .21315003 .147995 .3320465 .147995 .42695619 .17399597 .52388 .21699524 .5728302 .2559967 .6177826 .30599977 .6397705 .3600006 .6397705 .40699769 .6397705 .44699098 .6227875 .48298646 .59280398 .5399933 .54486086 .57398989 .450943 .57398989 .33703614Z"/>
<path id="font_2_2469" d="M.48399354 0V.023986817C.46798707 .0289917 .46099855 .032989503 .45399476 .04399109L.30599977 .2719574 .40699769 .39793397C.42599488 .42092896 .44599916 .43193055 .47698976 .43693543V.4609375H.30899049V.43693543L.32899476 .43493653C.35198976 .43293763 .3600006 .42793275 .3600006 .41293336 .3600006 .39793397 .34899903 .38394166 .32199098 .348938L.28599549 .302948C.28199769 .3089447 .2769928 .31495667 .272995 .3199463 .23999024 .36294557 .21499634 .40493775 .21499634 .41793824 .21499634 .42993165 .22898865 .43592835 .2619934 .43693543V.4609375H.011993408V.43693543C.037994386 .43293763 .04399109 .42793275 .06399536 .39793397L.19198609 .20095825C.1769867 .18296814 .18499756 .19197083 .16999817 .17297364 .15499878 .15397644 .14099121 .13597107 .1269989 .11697388 .070999149 .041992189 .050994874 .025985718 .01399231 .023986817V0H.18299866V.023986817C.14698792 .025985718 .1329956 .032989503 .1329956 .04798889 .1329956 .0639801 .1579895 .10397339 .19699097 .15097046 .20298767 .15797425 .20799256 .16497803 .21299744 .17097473 .22599793 .14997864 .23999024 .12898255 .25498963 .10798645 .2789917 .07298279 .28799439 .055984498 .28799439 .04399109 .28799439 .03199768 .2749939 .025985718 .24299622 .023986817V0H.48399354Z"/>
<path id="font_2_3368" d="M.47799684 .21099854H.45298768C.4269867 .13899231 .4039917 .1329956 .2999878 .1329956H.1599884L.32199098 .2869873C.40098573 .3619995 .43598939 .42900086 .43598939 .5049896 .43598939 .6179962 .3619995 .6879883 .2539978 .6879883 .1539917 .6879883 .07798767 .6239929 .0309906 .48399354H.05899048C.08999634 .54599 .1329956 .57398989 .18099976 .57398989 .2599945 .57398989 .2999878 .5149994 .2999878 .44699098 .2999878 .40299989 .2809906 .34799195 .24899292 .29899598 .19799805 .22099304 .16299439 .1789856 .016998291 .022994996V0H.43199159L.47799684 .21099854Z"/>
<path id="font_2_44" d="M.6359863 .22012329V.2861328H.375V.54711917H.30899049V.2861328H.04798889V.22012329H.30899049V-.040878297H.375V.22012329H.6359863Z"/>
<path id="font_2_3370" d="M.47599793 .14399719V.25498963H.4119873V.6879883H.33198548L.018997193 .25698854V.14399719H.2669983V0H.4119873V.14399719H.47599793M.2679901 .25498963H.05999756L.2679901 .548996V.25498963Z"/>
<path id="font_2_2470" d="M.48199464 .4609375H.32998658V.43693543C.37298585 .43493653 .38398744 .42793275 .38398744 .40393067 .38398744 .39193727 .38198854 .38093568 .37298585 .3549347L.30499269 .16693115 .23298645 .3529358C.22200012 .38093568 .21299744 .40693666 .21299744 .41093446 .21299744 .42593385 .22399903 .43392945 .24899292 .43592835L.2649994 .43693543V.4609375H.015991211V.43693543C.037994386 .43392945 .04399109 .43093873 .049987794 .42292787 .05899048 .41093446 .09700012 .3269348 .116989139 .27693177L.23599243-.013076782 .21798706-.066085819C.20098877-.11608887 .17599488-.14808655 .1519928-.14808655 .14299011-.14808655 .1349945-.14009094 .1349945-.13108826 .1349945-.13108826 .1349945-.12808228 .13598633-.12509156 .13699341-.12008667 .13798523-.11508179 .13798523-.111083988 .13798523-.08207703 .11199951-.05908203 .07798767-.05908203 .039993287-.05908203 .015991211-.08808899 .015991211-.12608338 .015991211-.17308045 .055999757-.20507813 .11299133-.20507813 .14698792-.20507813 .17599488-.1940918 .19699097-.17208863 .21798706-.14907837 .23899842-.110076908 .27398683-.016082764L.42199708 .3819275C.43798829 .42492677 .45098878 .43293763 .48199464 .43693543V.4609375Z"/>
<path id="font_2_62" d="M.6369934 .31973268V.3857422H.04798889V.31973268H.6369934M.6369934 .12011719V.18611145H.04798889V.12011719H.6369934Z"/>
<path id="font_2_3366" d="M.47599793 .33721925C.47599793 .5031891 .4119873 .6881561 .25299073 .6881561 .08198547 .6881561 .023986817 .49717713 .023986817 .33422853 .023986817 .12626648 .11999512-.0126953129 .25099183-.0126953129 .3809967-.0126953129 .47599793 .12626648 .47599793 .33721925M.31799317 .22424317C.31799317 .075286868 .30099488 .015304565 .25099183 .015304565 .20098877 .015304565 .18199158 .075286868 .18199158 .22424317V.44918824C.18199158 .6011658 .19999695 .66015627 .24899292 .66015627 .2979889 .66015627 .31799317 .5961609 .31799317 .44918824V.22424317Z"/>
<path id="font_2_41" d="M.3039856-.16122437C.1639862-.04423523 .13398743 .06877136 .13398743 .254776 .13398743 .44776917 .16499329 .5407715 .3039856 .6597748L.29499818 .67578127C.1349945 .58078 .04798889 .43676759 .04798889 .25177003 .04798889 .08177185 .13398743-.0872345 .2919922-.17723084L.3039856-.16122437Z"/>
<path id="font_2_1151" d="M.62098696 .22012329V.2861328H.06399536V.22012329H.62098696Z"/>
<path id="font_2_51" d="M.47399903 .13696289 .45999146 .1429596C.4269867 .08699036 .4059906 .07598877 .3639984 .07598877H.12998963L.29499818 .2519226C.38398744 .34588624 .4229889 .42085267 .4229889 .4998169 .4229889 .59877017 .35099793 .67578127 .23799134 .67578127 .114990238 .67578127 .050994874 .5937805 .02999878 .4768219L.050994874 .47183229C.09098816 .5697937 .12599182 .6017761 .19799805 .6017761 .2829895 .6017761 .33699037 .55178835 .33699037 .4608307 .33699037 .37586976 .30099488 .29989625 .20698548 .200943L.0289917 .011993408V0H.41999818L.47399903 .13696289Z"/>
<path id="font_2_45" d="M.08299255-.14086914C.1519928-.10786438 .19499207-.04486084 .19499207 .015136719 .19499207 .06713867 .1599884 .102127078 .114990238 .102127078 .07899475 .102127078 .054992677 .07913208 .054992677 .045135499 .054992677 .011138916 .07598877-.005859375 .11299133-.005859375 .12399292-.0059661867 .13398743-.001953125 .14199829-.001953125 .1499939-.001953125 .1559906-.007965088 .1559906-.014953613 .1559906-.047958375 .12799073-.08496094 .07299805-.1219635L.08299255-.14086914Z"/>
<path id="font_2_50" d="M.3939972 0V.01499939C.31900025 .01499939 .29899598 .032989503 .29899598 .07597351V.67277529L.2899933 .67578127 .11099243 .5847931V.5708008L.13798523 .5807953C.1559906 .5877991 .17298889 .59280398 .18299866 .59280398 .20399475 .59280398 .21299744 .57780459 .21299744 .543808V.0949707C.21299744 .039978029 .19198609 .018997193 .117996219 .01499939V0H.3939972Z"/>
<path id="font_2_42" d="M.0289917 .6597748C.17399597 .54577639 .19898987 .43077088 .19898987 .24377442 .19898987 .04977417 .17098999-.04423523 .0289917-.16122437L.037994386-.17723084C.19699097-.08023071 .2849884 .061767579 .2849884 .24676514 .2849884 .41677857 .19400025 .58377078 .040985109 .67578127L.0289917 .6597748Z"/>
<path id="font_2_53" d="M.47299195 .16699219V.23098755H.36999513V.67578127H.32598878L.011993408 .23098755V.16699219H.2919922V0H.36999513V.16699219H.47299195M.2919922 .23098755H.051986696L.2919922 .573822V.23098755Z"/>
<path id="font_2_49" d="M.47599793 .3300476C.47599793 .53486636 .3849945 .67578127 .2539978 .67578127 .09298706 .67578127 .023986817 .5128937 .023986817 .3360443 .023986817 .17218018 .07899475-.013671875 .25-.013671875 .41299439-.013671875 .47599793 .15818787 .47599793 .3300476M.37998963 .32505799C.37998963 .12722779 .33499146 .012313843 .25 .012313843 .1639862 .012313843 .11999512 .1262207 .11999512 .32904054 .11999512 .5318756 .16499329 .6497803 .24798584 .6497803 .33599855 .6497803 .37998963 .53286746 .37998963 .32505799Z"/>
<path id="font_3_18" d="M.3939972 0V.01499939C.31900025 .01499939 .29899598 .032989503 .29899598 .07597351V.67277529L.2899933 .67578127 .11099243 .5847931V.5708008L.13798523 .5807953C.1559906 .5877991 .17298889 .59280398 .18299866 .59280398 .20399475 .59280398 .21299744 .57780459 .21299744 .543808V.0949707C.21299744 .039978029 .19198609 .018997193 .117996219 .01499939V0H.3939972Z"/>
</defs>
<g clip-path="url(#clip_1)">
<path transform="matrix(1,0,0,-1,213.40399,139.48499)" stroke-width=".79701" stroke-linecap="butt" stroke-miterlimit="10" stroke-linejoin="miter" fill="none" stroke="#000000" d="M-212.6011 0H80.93008"/>
<path transform="matrix(1,0,0,-1,291.869,139.48499)" d="M5.44046 0 1.28699 1.5706 2.66432 0 1.28699-1.5706Z"/>
<path transform="matrix(1,0,0,-1,291.869,139.48499)" stroke-width=".79701" stroke-linecap="butt" stroke-miterlimit="10" stroke-linejoin="miter" fill="none" stroke="#000000" d="M5.44046 0 1.28699 1.5706 2.66432 0 1.28699-1.5706Z"/>
<use data-text="&#x1d465;" xlink:href="#font_2_2520" transform="matrix(11.9552,0,0,-11.9552,302.828,142.06699)"/>
<path transform="matrix(1,0,0,-1,213.40399,139.48499)" stroke-width=".79701" stroke-linecap="butt" stroke-miterlimit="10" stroke-linejoin="miter" fill="none" stroke="#000000" d="M0-85.04044V123.4503"/>
<path transform="matrix(0,-1,-1,-0,213.40399,18.499756)" d="M5.44046 0 1.28699 1.5706 2.66432 0 1.28699-1.5706Z"/>
<path transform="matrix(0,-1,-1,-0,213.40399,18.499756)" stroke-width=".79701" stroke-linecap="butt" stroke-miterlimit="10" stroke-linejoin="miter" fill="none" stroke="#000000" d="M5.44046 0 1.28699 1.5706 2.66432 0 1.28699-1.5706Z"/>
<use data-text="&#x1d466;" xlink:href="#font_2_2521" transform="matrix(11.9552,0,0,-11.9552,210.439,5.3529818)"/>
<use data-text="O" xlink:href="#font_3_48" transform="matrix(11.9552,0,0,-11.9552,200.58399,151.94599)"/>
<path transform="matrix(1,0,0,-1,213.40399,139.48499)" stroke-width="1.59404" stroke-linecap="butt" stroke-miterlimit="10" stroke-linejoin="miter" fill="none" stroke="#ff0000" d="M-191.34099-23.91762-189.19409-21.26074-187.04718-18.65839-184.90027-16.11052-182.75337-13.6165-180.60648-11.17633-178.45958-8.79132-176.31266-6.4595-174.16576-4.18285-172.01886-1.96002-169.87197 .2089-167.72507 2.32335-165.57814 4.38397-163.43125 6.39008-161.28435 8.3417-159.13745 10.23946-156.99056 12.08336-154.84363 13.87279-152.69673 15.60768-150.54984 17.28874-148.40294 18.91531-146.25603 20.48802-144.10912 22.00623-141.96222 23.46992-139.81533 24.88045-137.66843 26.2358-135.52152 27.53731-133.3746 28.78496-131.2277 29.97812-129.08081 31.11678-126.9339 32.20158-124.787 33.23189-122.64009 34.20833-120.4932 35.1303-118.3463 35.9984-116.19939 36.81201-114.05249 37.57176-111.90558 38.27701-109.75868 38.9284-107.61179 39.52531-105.46487 40.0677-103.31798 40.55627-101.17108 40.99097-99.02417 41.37051-96.87726 41.69687-94.73036 41.96872-92.58347 42.18608-90.43657 42.34958-88.28966 42.45857-86.14275 42.51308-83.99585 42.51436-81.84895 42.46051-79.70206 42.35281-77.55513 42.19125-75.40823 41.9752-73.26134 41.70467-71.11444 41.38025-68.96754 41.00136-66.82062 40.5686-64.67372 40.08199-62.52682 39.54024-60.37993 38.94463-58.23302 38.29518-56.0861 37.59122-53.93921 36.83342-51.79231 36.02112-49.64542 35.1543-47.4985 34.23364-45.3516 33.25914-43.2047 32.23013-41.0578 31.1466-38.9109 30.00926-36.76399 28.8174-34.61708 27.5717-32.47018 26.27148-30.32329 24.91742-28.17638 23.50887-26.02948 22.04645-23.88257 20.52954-21.73567 18.95811-19.58878 17.33286-17.44186 15.65376-15.29497 13.92014-13.14806 12.13202-11.00116 10.29005-8.85425 8.3936-6.70735 6.44328-4.56046 4.43846-2.41354 2.37982-.26665 .26665 1.88023-1.90099 4.02713-4.12186 6.17403-6.39787 8.32094-8.72774 10.46783-11.11145 12.61475-13.54967 14.76164-16.04239 16.90854-18.58896 19.05545-21.19003 21.20236-23.84496"/>
<use data-text="&#x1d431;" xlink:href="#font_2_2469" transform="matrix(11.9552,0,0,-11.9552,235.483,175.36998)" fill="#ff0000"/>
<use data-text="&#x1d7d0;" xlink:href="#font_2_3368" transform="matrix(8.9664,0,0,-8.9664,241.699,170.58698)" fill="#ff0000"/>
<use data-text="+" xlink:href="#font_2_44" transform="matrix(11.9552,0,0,-11.9552,249.33802,175.36998)" fill="#ff0000"/>
<use data-text="&#x1d7d2;" xlink:href="#font_2_3370" transform="matrix(11.9552,0,0,-11.9552,260.18138,175.36998)" fill="#ff0000"/>
<use data-text="&#x1d431;" xlink:href="#font_2_2469" transform="matrix(11.9552,0,0,-11.9552,266.15898,175.36998)" fill="#ff0000"/>
<use data-text="+" xlink:href="#font_2_44" transform="matrix(11.9552,0,0,-11.9552,275.02973,175.36998)" fill="#ff0000"/>
<use data-text="&#x1d7d2;" xlink:href="#font_2_3370" transform="matrix(11.9552,0,0,-11.9552,285.87309,175.36998)" fill="#ff0000"/>
<use data-text="&#x1d432;" xlink:href="#font_2_2470" transform="matrix(11.9552,0,0,-11.9552,291.85069,175.36998)" fill="#ff0000"/>
<use data-text="=" xlink:href="#font_2_62" transform="matrix(11.9552,0,0,-11.9552,301.39094,175.36998)" fill="#ff0000"/>
<use data-text="&#x1d7ce;" xlink:href="#font_2_3366" transform="matrix(11.9552,0,0,-11.9552,312.90379,175.36998)" fill="#ff0000"/>
<path transform="matrix(1,0,0,-1,213.40399,139.48499)" stroke-width=".79701" stroke-linecap="butt" stroke-dasharray="2.98883,2.98883" stroke-miterlimit="10" stroke-linejoin="miter" fill="none" stroke="#000000" d="M-85.04044 0V42.52022H0"/>
<path transform="matrix(1,0,0,-1,213.40399,139.48499)" d="M-83.54602 42.52022C-83.54602 43.34557-84.21509 44.01463-85.04044 44.01463-85.86578 44.01463-86.53485 43.34557-86.53485 42.52022-86.53485 41.69487-85.86578 41.0258-85.04044 41.0258-84.21509 41.0258-83.54602 41.69487-83.54602 42.52022ZM-85.04044 42.52022"/>
<path transform="matrix(1,0,0,-1,213.40399,139.48499)" stroke-width=".3985" stroke-linecap="butt" stroke-miterlimit="10" stroke-linejoin="miter" fill="none" stroke="#000000" d="M-83.54602 42.52022C-83.54602 43.34557-84.21509 44.01463-85.04044 44.01463-85.86578 44.01463-86.53485 43.34557-86.53485 42.52022-86.53485 41.69487-85.86578 41.0258-85.04044 41.0258-84.21509 41.0258-83.54602 41.69487-83.54602 42.52022ZM-85.04044 42.52022"/>
<use data-text="(" xlink:href="#font_2_41" transform="matrix(11.9552,0,0,-11.9552,111.819,90.664989)"/>
<use data-text="&#x2212;" xlink:href="#font_2_1151" transform="matrix(11.9552,0,0,-11.9552,115.80008,90.664989)"/>
<use data-text="2" xlink:href="#font_2_51" transform="matrix(11.9552,0,0,-11.9552,123.98938,90.664989)"/>
<use data-text="," xlink:href="#font_2_45" transform="matrix(11.9552,0,0,-11.9552,129.96698,90.664989)"/>
<use data-text="1" xlink:href="#font_2_50" transform="matrix(11.9552,0,0,-11.9552,134.94034,90.664989)"/>
<use data-text=")" xlink:href="#font_2_42" transform="matrix(11.9552,0,0,-11.9552,140.91794,90.664989)"/>
<path transform="matrix(1,0,0,-1,213.40399,139.48499)" d="M-168.58647 0C-168.58647 .82533-169.25554 1.49442-170.08089 1.49442-170.90624 1.49442-171.5753 .82533-171.5753 0-171.5753-.82533-170.90624-1.49442-170.08089-1.49442-169.25554-1.49442-168.58647-.82533-168.58647 0ZM-170.08089 0"/>
<path transform="matrix(1,0,0,-1,213.40399,139.48499)" stroke-width=".3985" stroke-linecap="butt" stroke-miterlimit="10" stroke-linejoin="miter" fill="none" stroke="#000000" d="M-168.58647 0C-168.58647 .82533-169.25554 1.49442-170.08089 1.49442-170.90624 1.49442-171.5753 .82533-171.5753 0-171.5753-.82533-170.90624-1.49442-170.08089-1.49442-169.25554-1.49442-168.58647-.82533-168.58647 0ZM-170.08089 0"/>
<use data-text="(" xlink:href="#font_2_41" transform="matrix(11.9552,0,0,-11.9552,47.50699,151.75099)"/>
<use data-text="&#x2212;" xlink:href="#font_2_1151" transform="matrix(11.9552,0,0,-11.9552,51.488069,151.75099)"/>
<use data-text="4" xlink:href="#font_2_53" transform="matrix(11.9552,0,0,-11.9552,59.67737,151.75099)"/>
<use data-text="," xlink:href="#font_2_45" transform="matrix(11.9552,0,0,-11.9552,65.65497,151.75099)"/>
<use data-text="0" xlink:href="#font_2_49" transform="matrix(11.9552,0,0,-11.9552,70.62833,151.75099)"/>
<use data-text=")" xlink:href="#font_2_42" transform="matrix(11.9552,0,0,-11.9552,76.60593,151.75099)"/>
<path transform="matrix(1,0,0,-1,213.40399,139.48499)" d="M1.49442 0C1.49442 .82533 .82533 1.49442 0 1.49442-.82533 1.49442-1.49442 .82533-1.49442 0-1.49442-.82533-.82533-1.49442 0-1.49442 .82533-1.49442 1.49442-.82533 1.49442 0ZM0 0"/>
<path transform="matrix(1,0,0,-1,213.40399,139.48499)" stroke-width=".3985" stroke-linecap="butt" stroke-miterlimit="10" stroke-linejoin="miter" fill="none" stroke="#000000" d="M1.49442 0C1.49442 .82533 .82533 1.49442 0 1.49442-.82533 1.49442-1.49442 .82533-1.49442 0-1.49442-.82533-.82533-1.49442 0-1.49442 .82533-1.49442 1.49442-.82533 1.49442 0ZM0 0"/>
<use data-text="1" xlink:href="#font_3_18" transform="matrix(11.9552,0,0,-11.9552,158.649,723.888)"/>
</g>
</svg>
