<svg xmlns="http://www.w3.org/2000/svg" xmlns:xlink="http://www.w3.org/1999/xlink" xmlns:inkscape="http://www.inkscape.org/namespaces/inkscape" version="1.1" width="296" height="725" viewBox="0 0 296 725">
<defs>
<clipPath id="clip_1">
<path transform="matrix(1,0,0,-1,-147,766)" d="M0 0H595.28V841.89H0Z"/>
</clipPath>
<path id="font_2_2520" d="M.30499269 .28834535 .2849884 .3433838C.272995 .3764038 .2539978 .41740418 .20999146 .44140626L.07798767 .4084015 .08099365 .39039613C.09098816 .39439393 .10598755 .39639283 .11898804 .39639283 .17399597 .39639283 .19999695 .35539247 .21699524 .3073578L.25 .21530152 .18499756 .11424255C.15299988 .065216068 .1269989 .0552063 .114990238 .0552063 .08999634 .0552063 .09399414 .07521057 .067993167 .07521057 .042999269 .07521057 .02999878 .05419922 .02999878 .038208009 .02999878 .016204834 .04598999-.0087890629 .08198547-.0087890629 .13798523-.0087890629 .16699219 .034210206 .19898987 .083221439L.2619934 .18127442 .3019867 .06820679C.31498719 .032196046 .33399964-.0087890629 .375-.0087890629 .43299867-.0087890629 .47799684 .08721924 .48999024 .10223389L.47599793 .11224365C.45498658 .06921387 .43099977 .0552063 .4149933 .0552063 .36999513 .0552063 .34700013 .19029236 .31698609 .25231935L.37199403 .33737184C.38598634 .35939027 .39698792 .37539674 .4269867 .37539674 .44400025 .37539674 .44898988 .36639405 .47099305 .36639405 .49699403 .36639405 .5099945 .3894043 .5099945 .4084015 .5099945 .42939759 .49299623 .44140626 .46099855 .44140626 .41099549 .44140626 .37599183 .3973999 .34999085 .35739137L.30499269 .28834535Z"/>
<path id="font_2_2521" d="M.269989 .30682374C.26098634 .38082887 .2539978 .40682984 .23098755 .4398346L.08099365 .41482545 .08299255 .39883424C.09199524 .39982606 .10798645 .40283204 .11898804 .40283204 .1749878 .40283204 .18399048 .34283448 .18899536 .2978363L.22698975-.016174317C.20098877-.056167604 .14399719-.11816406 .1269989-.11816406 .11099243-.11816406 .11299133-.08717346 .069992069-.08717346 .056991579-.08717346 .02999878-.09817505 .02999878-.12817383 .02999878-.1521759 .04899597-.1831665 .085998538-.1831665 .1539917-.1831665 .21899414-.08517456 .2919922 .0068359377 .33399964 .059829713 .49598695 .2998352 .49598695 .37782289 .49598695 .41682435 .47099305 .4398346 .43899537 .4398346 .4099884 .4398346 .3919983 .42182923 .3919983 .39982606 .3919983 .36183167 .44400025 .3518219 .44400025 .3308258 .44400025 .3128357 .43598939 .29283143 .41600038 .25582887 .3939972 .21482849 .35899354 .15483094 .2979889 .07182312L.269989 .30682374Z"/>
<path id="font_3_48" d="M.6879883 .33103944C.6879883 .5288696 .5569916 .67578127 .36099244 .67578127 .1659851 .67578127 .033996583 .53686526 .033996583 .3340454 .033996583 .1262207 .16699219-.013671875 .36099244-.013671875 .5529938-.013671875 .6879883 .12522888 .6879883 .33103944M.57398989 .33703614C.57398989 .21714783 .54599 .12322998 .4909973 .07028198 .45599366 .03730774 .4119873 .022323609 .3619995 .022323609 .31599427 .022323609 .27198792 .03630066 .23799134 .067276 .1769867 .12322998 .147995 .21315003 .147995 .3320465 .147995 .42695619 .17399597 .52388 .21699524 .5728302 .2559967 .6177826 .30599977 .6397705 .3600006 .6397705 .40699769 .6397705 .44699098 .6227875 .48298646 .59280398 .5399933 .54486086 .57398989 .450943 .57398989 .33703614Z"/>
<path id="font_2_2469" d="M.48399354 0V.023986817C.46798707 .0289917 .46099855 .032989503 .45399476 .04399109L.30599977 .2719574 .40699769 .39793397C.42599488 .42092896 .44599916 .43193055 .47698976 .43693543V.4609375H.30899049V.43693543L.32899476 .43493653C.35198976 .43293763 .3600006 .42793275 .3600006 .41293336 .3600006 .39793397 .34899903 .38394166 .32199098 .348938L.28599549 .302948C.28199769 .3089447 .2769928 .31495667 .272995 .3199463 .23999024 .36294557 .21499634 .40493775 .21499634 .41793824 .21499634 .42993165 .22898865 .43592835 .2619934 .43693543V.4609375H.011993408V.43693543C.037994386 .43293763 .04399109 .42793275 .06399536 .39793397L.19198609 .20095825C.1769867 .18296814 .18499756 .19197083 .16999817 .17297364 .15499878 .15397644 .14099121 .13597107 .1269989 .11697388 .070999149 .041992189 .050994874 .025985718 .01399231 .023986817V0H.18299866V.023986817C.14698792 .025985718 .1329956 .032989503 .1329956 .04798889 .1329956 .0639801 .1579895 .10397339 .19699097 .15097046 .20298767 .15797425 .20799256 .16497803 .21299744 .17097473 .22599793 .14997864 .23999024 .12898255 .25498963 .10798645 .2789917 .07298279 .28799439 .055984498 .28799439 .04399109 .28799439 .03199768 .2749939 .025985718 .24299622 .023986817V0H.48399354Z"/>
<path id="font_2_44" d="M.6359863 .22012329V.2861328H.375V.54711917H.30899049V.2861328H.04798889V.22012329H.30899049V-.040878297H.375V.22012329H.6359863Z"/>
<path id="font_2_2470" d="M.48199464 .4609375H.32998658V.43693543C.37298585 .43493653 .38398744 .42793275 .38398744 .40393067 .38398744 .39193727 .38198854 .38093568 .37298585 .3549347L.30499269 .16693115 .23298645 .3529358C.22200012 .38093568 .21299744 .40693666 .21299744 .41093446 .21299744 .42593385 .22399903 .43392945 .24899292 .43592835L.2649994 .43693543V.4609375H.015991211V.43693543C.037994386 .43392945 .04399109 .43093873 .049987794 .42292787 .05899048 .41093446 .09700012 .3269348 .116989139 .27693177L.23599243-.013076782 .21798706-.066085819C.20098877-.11608887 .17599488-.14808655 .1519928-.14808655 .14299011-.14808655 .1349945-.14009094 .1349945-.13108826 .1349945-.13108826 .1349945-.12808228 .13598633-.12509156 .13699341-.12008667 .13798523-.11508179 .13798523-.111083988 .13798523-.08207703 .11199951-.05908203 .07798767-.05908203 .039993287-.05908203 .015991211-.08808899 .015991211-.12608338 .015991211-.17308045 .055999757-.20507813 .11299133-.20507813 .14698792-.20507813 .17599488-.1940918 .19699097-.17208863 .21798706-.14907837 .23899842-.110076908 .27398683-.016082764L.42199708 .3819275C.43798829 .42492677 .45098878 .43293763 .48199464 .43693543V.4609375Z"/>
<path id="font_2_3368" d="M.47799684 .21099854H.45298768C.4269867 .13899231 .4039917 .1329956 .2999878 .1329956H.1599884L.32199098 .2869873C.40098573 .3619995 .43598939 .42900086 .43598939 .5049896 .43598939 .6179962 .3619995 .6879883 .2539978 .6879883 .1539917 .6879883 .07798767 .6239929 .0309906 .48399354H.05899048C.08999634 .54599 .1329956 .57398989 .18099976 .57398989 .2599945 .57398989 .2999878 .5149994 .2999878 .44699098 .2999878 .40299989 .2809906 .34799195 .24899292 .29899598 .19799805 .22099304 .16299439 .1789856 .016998291 .022994996V0H.43199159L.47799684 .21099854Z"/>
<path id="font_2_62" d="M.6369934 .31973268V.3857422H.04798889V.31973268H.6369934M.6369934 .12011719V.18611145H.04798889V.12011719H.6369934Z"/>
<path id="font_2_3366" d="M.47599793 .33721925C.47599793 .5031891 .4119873 .6881561 .25299073 .6881561 .08198547 .6881561 .023986817 .49717713 .023986817 .33422853 .023986817 .12626648 .11999512-.0126953129 .25099183-.0126953129 .3809967-.0126953129 .47599793 .12626648 .47599793 .33721925M.31799317 .22424317C.31799317 .075286868 .30099488 .015304565 .25099183 .015304565 .20098877 .015304565 .18199158 .075286868 .18199158 .22424317V.44918824C.18199158 .6011658 .19999695 .66015627 .24899292 .66015627 .2979889 .66015627 .31799317 .5961609 .31799317 .44918824V.22424317Z"/>
<path id="font_3_55" d="M.69699099 .6621094H.49299623V.6430969C.5329895 .6390991 .5649872 .641098 .5649872 .6021118 .5649872 .5851135 .55799868 .5601196 .54599 .53012087L.39898683 .1612091 .24699402 .50312808C.21699524 .57011416 .20799256 .5941162 .20799256 .6101074 .20799256 .63009646 .22099304 .6390991 .25299073 .641098L.2809906 .6430969V.6621094H.015991211V.6430969C.06599426 .6421051 .08099365 .63009646 .12399292 .53312686L.36799623-.0107421879H.3829956L.6049957 .552124C.6339874 .62609866 .6569977 .6421051 .69699099 .6430969V.6621094Z"/>
<path id="font_3_70" d="M.4079895 .16427613C.35899354 .09024048 .32099916 .05921936 .2539978 .05921936 .20799256 .05921936 .17098999 .07723999 .14299011 .11425781 .10699463 .16227722 .101989749 .20129395 .09700012 .27734376H.40499879C.40098573 .3312683 .3909912 .36315919 .37098695 .3910675 .33898927 .43595887 .2939911 .45996095 .23199463 .45996095 .10598755 .45996095 .024993897 .35816957 .024993897 .21730042 .024993897 .07923889 .09700012-.009765625 .21499634-.009765625 .31498719-.009765625 .3849945 .048233034 .42399598 .15727234L.4079895 .16427613M.09899902 .30934144C.10998535 .38407899 .14898682 .4239502 .20498657 .4239502 .2709961 .4239502 .2919922 .39006043 .30299378 .30934144H.09899902Z"/>
<path id="font_3_83" d="M.1599884 .45794679 .15499878 .45996095C.101989749 .43894959 .06599426 .42495729 .0069885256 .40596009V.3899536C.020996094 .3929596 .02999878 .39396668 .041992189 .39396668 .066986087 .39396668 .07598877 .3779602 .07598877 .33396913V.083984378C.07598877 .033996583 .068984989 .026992798 .004989624 .01499939V0H.24499512V.01499939C.1769867 .017990113 .1599884 .032989503 .1599884 .08998108V.31497193C.1599884 .3469696 .20199585 .3969574 .22999573 .3969574 .23599243 .3969574 .24499512 .3919525 .2559967 .381958 .27198792 .36695863 .2829895 .361969 .29599 .361969 .31999208 .361969 .33499146 .3789673 .33499146 .4069519 .33499146 .43995667 .31399537 .45996095 .27999879 .45996095 .23799134 .45996095 .20999146 .43795777 .1599884 .3659668V.45794679Z"/>
<path id="font_3_85" d="M.2659912 .07722473C.24398804 .051223756 .22799683 .04222107 .20599365 .04222107 .16899109 .04222107 .1539917 .068222049 .1539917 .1322174V.41818238H.25498963V.4501953H.1539917V.5661926C.1539917 .57618716 .1519928 .5791931 .14698792 .5791931 .14099121 .56918337 .1329956 .56018069 .1269989 .55119326 .08898926 .4961853 .055999757 .45918275 .02999878 .44418336 .018997193 .43719483 .0129852299 .43118287 .0129852299 .42518617 .0129852299 .42218019 .01399231 .42018128 .016998291 .41818238H.069992069V.11721802C.069992069 .033233644 .099990848-.009765625 .1579895-.009765625 .20799256-.009765625 .24598694 .014221191 .2789917 .066223148L.2659912 .07722473Z"/>
<path id="font_3_89" d="M.47898866 0V.01499939C.44799806 .01499939 .4249878 .03199768 .39698792 .07501221L.2689972 .27111817 .35198976 .39117433C.37098695 .41818238 .40098573 .43418885 .43299867 .43518067V.4501953H.2749939V.43518067C.30499269 .43318177 .31498719 .42718507 .31498719 .4131775 .31498719 .40116883 .2999878 .38316346 .27799989 .34814454 .2679901 .33314515 .2579956 .31713868 .24798584 .30412293 .24398804 .3111267 .23899842 .31713868 .23399353 .32414247 .20498657 .36715699 .18798828 .400177 .18798828 .4131775 .18798828 .42819215 .20098877 .43418885 .23098755 .43518067V.4501953H.023986817V.43518067H.032989503C.06298828 .43518067 .07899475 .42218019 .10998535 .37516786L.20399475 .23109436 .08999634 .06600952C.06199646 .024993897 .049987794 .017990113 .016998291 .01499939V0H.1619873V.01499939C.1329956 .01499939 .12199402 .019989014 .12199402 .03300476 .12199402 .040008546 .12799073 .052001954 .14199829 .074020389L.22099304 .19708252 .31199647 .057006837C.31599427 .05101013 .31799317 .04600525 .31799317 .039001466 .31799317 .020996094 .31098939 .016998291 .27799989 .01499939V0H.47898866Z"/>
<path id="font_2_41" d="M.3039856-.16122437C.1639862-.04423523 .13398743 .06877136 .13398743 .254776 .13398743 .44776917 .16499329 .5407715 .3039856 .6597748L.29499818 .67578127C.1349945 .58078 .04798889 .43676759 .04798889 .25177003 .04798889 .08177185 .13398743-.0872345 .2919922-.17723084L.3039856-.16122437Z"/>
<path id="font_2_49" d="M.47599793 .3300476C.47599793 .53486636 .3849945 .67578127 .2539978 .67578127 .09298706 .67578127 .023986817 .5128937 .023986817 .3360443 .023986817 .17218018 .07899475-.013671875 .25-.013671875 .41299439-.013671875 .47599793 .15818787 .47599793 .3300476M.37998963 .32505799C.37998963 .12722779 .33499146 .012313843 .25 .012313843 .1639862 .012313843 .11999512 .1262207 .11999512 .32904054 .11999512 .5318756 .16499329 .6497803 .24798584 .6497803 .33599855 .6497803 .37998963 .53286746 .37998963 .32505799Z"/>
<path id="font_2_45" d="M.08299255-.14086914C.1519928-.10786438 .19499207-.04486084 .19499207 .015136719 .19499207 .06713867 .1599884 .102127078 .114990238 .102127078 .07899475 .102127078 .054992677 .07913208 .054992677 .045135499 .054992677 .011138916 .07598877-.005859375 .11299133-.005859375 .12399292-.0059661867 .13398743-.001953125 .14199829-.001953125 .1499939-.001953125 .1559906-.007965088 .1559906-.014953613 .1559906-.047958375 .12799073-.08496094 .07299805-.1219635L.08299255-.14086914Z"/>
<path id="font_2_42" d="M.0289917 .6597748C.17399597 .54577639 .19898987 .43077088 .19898987 .24377442 .19898987 .04977417 .17098999-.04423523 .0289917-.16122437L.037994386-.17723084C.19699097-.08023071 .2849884 .061767579 .2849884 .24676514 .2849884 .41677857 .19400025 .58377078 .040985109 .67578127L.0289917 .6597748Z"/>
<path id="font_2_2477" d="M.72299197 .65319827H.20298767L.19898987 .63819888H.21798706C.27799989 .63819888 .2939911 .62020877 .2939911 .5991821 .2939911 .59217837 .2919922 .58317568 .2899933 .5751648L.1659851 .07800293C.15699768 .04399109 .13598633 .015991211 .05999756 .015991211H.041992189L.037994386 0H.37998963L.38398744 .015991211H.35198976C.2919922 .015991211 .272995 .03199768 .272995 .056991579 .272995 .06399536 .27598573 .07199097 .2769928 .07800293L.33898927 .33203126H.43598939C.46499635 .33203126 .5059967 .32902528 .5059967 .28201295 .5059967 .26402284 .5039978 .23501587 .5009918 .2210083H.5169983L.57699587 .463089H.5609894C.5399933 .3780365 .49398805 .36802674 .43199159 .36802674H.34899903L.41099549 .61621096H.55799868C.6049957 .61621096 .6649933 .607193 .66799929 .5291443 .66799929 .5151367 .66799929 .5011139 .6669922 .4931183H.68299868L.72299197 .65319827Z"/>
<path id="font_2_1151" d="M.62098696 .22012329V.2861328H.06399536V.22012329H.62098696Z"/>
<path id="font_2_47" d="M.18099976 .04324341C.18099976 .07325745 .15499878 .100250247 .12599182 .100250247 .09498596 .100250247 .069992069 .07525635 .069992069 .04425049 .069992069 .013244629 .09399414-.0107421879 .125-.0107421879 .15499878-.0107421879 .18099976 .014251709 .18099976 .04324341Z"/>
<path id="font_2_51" d="M.47399903 .13696289 .45999146 .1429596C.4269867 .08699036 .4059906 .07598877 .3639984 .07598877H.12998963L.29499818 .2519226C.38398744 .34588624 .4229889 .42085267 .4229889 .4998169 .4229889 .59877017 .35099793 .67578127 .23799134 .67578127 .114990238 .67578127 .050994874 .5937805 .02999878 .4768219L.050994874 .47183229C.09098816 .5697937 .12599182 .6017761 .19799805 .6017761 .2829895 .6017761 .33699037 .55178835 .33699037 .4608307 .33699037 .37586976 .30099488 .29989625 .20698548 .200943L.0289917 .011993408V0H.41999818L.47399903 .13696289Z"/>
<path id="font_2_54" d="M.43798829 .68110659 .42900086 .6880951C.41299439 .667099 .4039917 .6621094 .3809967 .6621094H.17399597L.06498718 .4251709C.06498718 .4251709 .06399536 .42216493 .06399536 .42016603 .06399536 .4141693 .066986087 .4121704 .07598877 .4121704 .17199707 .4121704 .24198914 .380188 .2889862 .3421936 .33399964 .30621339 .35598756 .2562256 .35598756 .19226074 .35598756 .106292728 .29100038 .02331543 .22099304 .02331543 .20098877 .02331543 .17799378 .032318117 .1499939 .05531311 .117996219 .08129883 .09899902 .08630371 .07598877 .08630371 .04798889 .08630371 .0309906 .07330322 .0309906 .048309328 .0309906 .010314941 .08299255-.013671875 .1579895-.013671875 .22599793-.013671875 .2809906 .0013275147 .32798768 .035308839 .3959961 .08529663 .42599488 .14727783 .42599488 .24324036 .42599488 .29621888 .4169922 .334198 .3909912 .37019349 .33399964 .4491577 .28399659 .47114564 .14099121 .49813844L.18099976 .58309939H.375C.3909912 .58309939 .39898683 .58909609 .4019928 .59609988L.43798829 .68110659Z"/>
<path id="font_3_37" d="M.015991211 .6621094V.6430969C.09199524 .6381073 .10398865 .6291046 .10398865 .55007937V.11500549C.10398865 .036987306 .09399414 .023986817 .015991211 .018997193V0H.29699708C.397995 0 .4869995 .023986817 .548996 .06399536 .6380005 .1210022 .68499758 .21502686 .68499758 .3340454 .68499758 .4370575 .651001 .5150757 .58599856 .5710907 .5179901 .63009646 .4149933 .6621094 .28599549 .6621094H.015991211M.20599365 .5830841C.20599365 .6161041 .22099304 .6251068 .25898744 .6251068 .35899354 .6251068 .42199708 .60809329 .48098756 .5560913 .5439911 .5010834 .57598879 .43206788 .57598879 .3280487 .57598879 .21502686 .5419922 .13601685 .47200013 .08900452 .4119873 .04899597 .35699464 .036987306 .2539978 .036987306 .21499634 .036987306 .20599365 .04899597 .20599365 .083999637V.5830841Z"/>
<path id="font_3_74" d="M.17999268 .63204959C.17999268 .66004946 .1579895 .68304446 .1289978 .68304446 .100997928 .68304446 .07798767 .66004946 .07798767 .63204959 .07798767 .6030426 .099990848 .5810547 .12799073 .5810547 .1579895 .5810547 .17999268 .6030426 .17999268 .63204959M.25299073 0V.01499939C.18699646 .019989014 .1789856 .0309906 .1789856 .10499573V.45603944L.1749878 .46003724 .019989014 .4050293V.38902284C.037994386 .3940277 .052993776 .3940277 .06199646 .3940277 .08699036 .3940277 .09498596 .37802125 .09498596 .33102418V.104003909C.09498596 .027999878 .084991458 .018997193 .015991211 .01499939V0H.25299073Z"/>
<path id="font_3_68" d="M.397995 .15615845C.34999085 .08621216 .31399537 .06222534 .25698854 .06222534 .16499329 .06222534 .101989749 .14216614 .101989749 .25708009 .101989749 .3610077 .15699768 .43095399 .23799134 .43095399 .27398683 .43095399 .2869873 .41996766 .29699708 .3829956L.30299378 .3610077C.31098939 .33203126 .32899476 .31503297 .35099793 .31503297 .3769989 .31503297 .397995 .33403016 .397995 .3570099 .397995 .41296388 .32798768 .45996095 .24398804 .45996095 .19699097 .45996095 .14898682 .44195558 .10899353 .40896607 .054992677 .3639984 .024993897 .2950592 .024993897 .21211243 .024993897 .08320618 .10398865-.009765625 .21499634-.009765625 .2579956-.009765625 .29599 .0042266848 .32998658 .032226564 .3600006 .056228639 .37998963 .08520508 .4119873 .14717102L.397995 .15615845Z"/>
<path id="font_3_27" d="M.19198609 .40296937C.19198609 .4329834 .16699219 .45898438 .13699341 .45898438 .10499573 .45898438 .08099365 .4349823 .08099365 .40296937 .08099365 .37297059 .10699463 .34797669 .13699341 .34797669 .16699219 .34797669 .19198609 .37297059 .19198609 .40296937M.19198609 .04425049C.19198609 .07424927 .16699219 .100250247 .13699341 .100250247 .10499573 .100250247 .08099365 .07624817 .08099365 .04425049 .08099365 .014251709 .10699463-.0107421879 .13699341-.0107421879 .16699219-.0107421879 .19198609 .014251709 .19198609 .04425049Z"/>
<path id="font_3_20" d="M.06098938 .50987246C.101989749 .58380129 .147995 .61576846 .20999146 .61576846 .27598573 .61576846 .31799317 .58180239 .31799317 .51387026 .31799317 .45292665 .28599549 .40795899 .23699951 .37998963 .21699524 .36799623 .19099427 .3570099 .15299988 .34402467V.33003236C.20999146 .33003236 .23298645 .32704164 .25498963 .3200531 .32398988 .3000641 .35899354 .2511139 .35899354 .17518616 .35899354 .09025574 .30299378 .022323609 .22898865 .022323609 .20098877 .022323609 .17999268 .027313233 .14299011 .05329895 .114990238 .073272708 .09899902 .07926941 .08198547 .07926941 .05899048 .07926941 .040985109 .06428528 .040985109 .043304445 .040985109 .0073242189 .07998657-.013671875 .15299988-.013671875 .24198914-.013671875 .33699037 .015319824 .3849945 .07926941 .4139862 .11723328 .43099977 .16618347 .43099977 .21913147 .43099977 .27108766 .4149933 .31704713 .3869934 .34802247 .3659973 .36999513 .34799195 .38198854 .3039856 .40097047 .37098695 .44093324 .39698792 .4908905 .39698792 .5388489 .39698792 .6207733 .33399964 .67578127 .24099732 .67578127 .13699341 .67578127 .07398987 .6087799 .04499817 .51387026L.06098938 .50987246Z"/>
</defs>
<g clip-path="url(#clip_1)">
<path transform="matrix(1,0,0,-1,171.02,147.98799)" stroke-width=".79701" stroke-linecap="butt" stroke-miterlimit="10" stroke-linejoin="miter" fill="none" stroke="#000000" d="M-170.08092 0H109.27692"/>
<path transform="matrix(1,0,0,-1,277.83186,147.98799)" d="M5.44046 0 1.28699 1.5706 2.66432 0 1.28699-1.5706Z"/>
<path transform="matrix(1,0,0,-1,277.83186,147.98799)" stroke-width=".79701" stroke-linecap="butt" stroke-miterlimit="10" stroke-linejoin="miter" fill="none" stroke="#000000" d="M5.44046 0 1.28699 1.5706 2.66432 0 1.28699-1.5706Z"/>
<use data-text="&#x1d465;" xlink:href="#font_2_2520" transform="matrix(11.9552,0,0,-11.9552,288.79,150.56999)"/>
<path transform="matrix(1,0,0,-1,171.02,147.98799)" stroke-width=".79701" stroke-linecap="butt" stroke-miterlimit="10" stroke-linejoin="miter" fill="none" stroke="#000000" d="M0-136.06439V131.95403"/>
<path transform="matrix(0,-1,-1,-0,171.02,18.499039)" d="M5.44046 0 1.28699 1.5706 2.66432 0 1.28699-1.5706Z"/>
<path transform="matrix(0,-1,-1,-0,171.02,18.499039)" stroke-width=".79701" stroke-linecap="butt" stroke-miterlimit="10" stroke-linejoin="miter" fill="none" stroke="#000000" d="M5.44046 0 1.28699 1.5706 2.66432 0 1.28699-1.5706Z"/>
<use data-text="&#x1d466;" xlink:href="#font_2_2521" transform="matrix(11.9552,0,0,-11.9552,168.05501,5.352997)"/>
<use data-text="O" xlink:href="#font_3_48" transform="matrix(14.3462,0,0,-14.3462,154.50202,164.07599)"/>
<path transform="matrix(1,0,0,-1,171.02,147.98799)" stroke-width="1.59404" stroke-linecap="butt" stroke-miterlimit="10" stroke-linejoin="miter" fill="none" stroke="#ff0000" d="M-137.19937-124.72668-131.71305-122.20758-126.3392-119.68848-121.07608-117.16937-115.92714-114.65028-110.88892-112.13118-105.96146-109.61208-101.14645-107.09297-96.44388-104.57387-91.85379-102.05476-87.37616-99.53566-83.00926-97.01657-78.75308-94.49747-74.61108-91.97836-70.57983-89.45926-66.66103-86.94016-62.85297-84.42105-59.1591-81.90196-55.57594-79.38286-52.10353-76.86375-48.7453-74.34465-45.49782-71.82555-42.36105-69.30644-39.33847-66.78732-36.42662-64.26823-33.62723-61.74913-30.93857-59.23003-28.3641-56.71092-25.89865-54.19182-23.54735-51.67271-21.30681-49.15363-19.17873-46.63452-17.1631-44.11542-15.25821-41.59631-13.46577-39.07721-11.78578-36.5581-10.21826-34.03902-8.76149-31.51991-7.41714-29.00081-6.18355-26.4817-5.06242-23.9626-4.05374-21.4435-3.15752-18.9244-2.37202-16.4053-1.69899-13.8862-1.13843-11.3671-.6903-8.84799-.35294-6.32887-.1263-3.80977-.01382-1.29068-.0121 1.2284-.12282 3.7475-.34602 6.2666-.67993 8.7857-1.12631 11.30481-1.68515 13.82391-2.35472 16.343-3.13675 18.8621-4.03123 21.38121-5.03645 23.90031-6.15413 26.41942-7.38428 28.93852-8.72687 31.45761-10.1802 33.97672-11.746 36.49582-13.42424 39.01492-15.21323 41.53403-17.11465 44.05313-19.12856 46.57224-21.25317 49.09132-23.49026 51.61043-25.83981 54.12955-28.30182 56.64865-30.87456 59.16776-33.55975 61.68686-36.35568 64.20595-39.26407 66.72505-42.28491 69.24416-45.41823 71.76326-48.66226 74.28236-52.02048 76.80147-55.48772 79.32057-59.06914 81.83966-62.76128 84.35876-66.56589 86.87787-70.48122 89.39697-74.509 91.91608-78.64926 94.43518-82.90198 96.95427-87.26543 99.47337-91.74133 101.99248-96.3297 104.51158-101.02878 107.03069-105.84209 109.54979-110.76436 112.0689-115.80084 114.588-120.94804 117.1071-126.2077 119.6262-131.5781 122.14531-137.06267 124.66441"/>
<use data-text="&#x1d431;" xlink:href="#font_2_2469" transform="matrix(11.9552,0,0,-11.9552,24.39801,16.173996)" fill="#ff0000"/>
<use data-text="+" xlink:href="#font_2_44" transform="matrix(11.9552,0,0,-11.9552,33.26877,16.173996)" fill="#ff0000"/>
<use data-text="&#x1d432;" xlink:href="#font_2_2470" transform="matrix(11.9552,0,0,-11.9552,44.112138,16.173996)" fill="#ff0000"/>
<use data-text="&#x1d7d0;" xlink:href="#font_2_3368" transform="matrix(8.9664,0,0,-8.9664,50.335008,11.391998)" fill="#ff0000"/>
<use data-text="=" xlink:href="#font_2_62" transform="matrix(11.9552,0,0,-11.9552,58.63701,16.173996)" fill="#ff0000"/>
<use data-text="&#x1d7ce;" xlink:href="#font_2_3366" transform="matrix(11.9552,0,0,-11.9552,70.13789,16.173996)" fill="#ff0000"/>
<path transform="matrix(1,0,0,-1,171.02,147.98799)" d="M.99628 0C.99628 .55023 .55023 .99628 0 .99628-.55023 .99628-.99628 .55023-.99628 0-.99628-.55023-.55023-.99628 0-.99628 .55023-.99628 .99628-.55023 .99628 0ZM0 0"/>
<path transform="matrix(1,0,0,-1,171.02,147.98799)" stroke-width=".3985" stroke-linecap="butt" stroke-miterlimit="10" stroke-linejoin="miter" fill="none" stroke="#000000" d="M.99628 0C.99628 .55023 .55023 .99628 0 .99628-.55023 .99628-.99628 .55023-.99628 0-.99628-.55023-.55023-.99628 0-.99628 .55023-.99628 .99628-.55023 .99628 0ZM0 0"/>
<use data-text="V" xlink:href="#font_3_55" transform="matrix(11.9552,0,0,-11.9552,175.20401,160.254)"/>
<use data-text="e" xlink:href="#font_3_70" transform="matrix(11.9552,0,0,-11.9552,183.01074,160.254)"/>
<use data-text="r" xlink:href="#font_3_83" transform="matrix(11.9552,0,0,-11.9552,188.31885,160.254)"/>
<use data-text="t" xlink:href="#font_3_85" transform="matrix(11.9552,0,0,-11.9552,192.56293,160.254)"/>
<use data-text="e" xlink:href="#font_3_70" transform="matrix(11.9552,0,0,-11.9552,195.88648,160.254)"/>
<use data-text="x" xlink:href="#font_3_89" transform="matrix(11.9552,0,0,-11.9552,200.95548,160.254)"/>
<use data-text="(" xlink:href="#font_2_41" transform="matrix(11.9552,0,0,-11.9552,209.91,160.254)"/>
<use data-text="0" xlink:href="#font_2_49" transform="matrix(11.9552,0,0,-11.9552,213.89109,160.254)"/>
<use data-text="," xlink:href="#font_2_45" transform="matrix(11.9552,0,0,-11.9552,219.86869,160.254)"/>
<use data-text="0" xlink:href="#font_2_49" transform="matrix(11.9552,0,0,-11.9552,224.84204,160.254)"/>
<use data-text=")" xlink:href="#font_2_42" transform="matrix(11.9552,0,0,-11.9552,230.81964,160.254)"/>
<path transform="matrix(1,0,0,-1,171.02,147.98799)" d="M-27.35052 0C-27.35052 .55023-27.79657 .99628-28.3468 .99628-28.89703 .99628-29.34308 .55023-29.34308 0-29.34308-.55023-28.89703-.99628-28.3468-.99628-27.79657-.99628-27.35052-.55023-27.35052 0ZM-28.3468 0" fill="#0000ff"/>
<path transform="matrix(1,0,0,-1,171.02,147.98799)" stroke-width=".3985" stroke-linecap="butt" stroke-miterlimit="10" stroke-linejoin="miter" fill="none" stroke="#0000ff" d="M-27.35052 0C-27.35052 .55023-27.79657 .99628-28.3468 .99628-28.89703 .99628-29.34308 .55023-29.34308 0-29.34308-.55023-28.89703-.99628-28.3468-.99628-27.79657-.99628-27.35052-.55023-27.35052 0ZM-28.3468 0"/>
<use data-text="&#x1d439;" xlink:href="#font_2_2477" transform="matrix(11.9552,0,0,-11.9552,81.33501,160.39699)" fill="#0000ff"/>
<use data-text="(" xlink:href="#font_2_41" transform="matrix(11.9552,0,0,-11.9552,90.45683,160.39699)" fill="#0000ff"/>
<use data-text="&#x2212;" xlink:href="#font_2_1151" transform="matrix(11.9552,0,0,-11.9552,94.43793,160.39699)" fill="#0000ff"/>
<use data-text="0" xlink:href="#font_2_49" transform="matrix(11.9552,0,0,-11.9552,102.62723,160.39699)" fill="#0000ff"/>
<use data-text="." xlink:href="#font_2_47" transform="matrix(11.9552,0,0,-11.9552,108.60483,160.39699)" fill="#0000ff"/>
<use data-text="2" xlink:href="#font_2_51" transform="matrix(11.9552,0,0,-11.9552,111.59363,160.39699)" fill="#0000ff"/>
<use data-text="5" xlink:href="#font_2_54" transform="matrix(11.9552,0,0,-11.9552,117.57123,160.39699)" fill="#0000ff"/>
<use data-text="," xlink:href="#font_2_45" transform="matrix(11.9552,0,0,-11.9552,123.54883,160.39699)" fill="#0000ff"/>
<use data-text="0" xlink:href="#font_2_49" transform="matrix(11.9552,0,0,-11.9552,128.52219,160.39699)" fill="#0000ff"/>
<use data-text=")" xlink:href="#font_2_42" transform="matrix(11.9552,0,0,-11.9552,134.49979,160.39699)" fill="#0000ff"/>
<path transform="matrix(1,0,0,-1,171.02,147.98799)" stroke-width=".79701" stroke-linecap="butt" stroke-dasharray="2.98883,2.98883" stroke-miterlimit="10" stroke-linejoin="miter" fill="none" stroke="#0000ff" d="M28.3468-113.38728V113.38728"/>
<use data-text="D" xlink:href="#font_3_37" transform="matrix(11.9552,0,0,-11.9552,203.75,30.049988)" fill="#0000ff"/>
<use data-text="i" xlink:href="#font_3_74" transform="matrix(11.9552,0,0,-11.9552,212.38166,30.049988)" fill="#0000ff"/>
<use data-text="r" xlink:href="#font_3_83" transform="matrix(11.9552,0,0,-11.9552,215.70519,30.049988)" fill="#0000ff"/>
<use data-text="e" xlink:href="#font_3_70" transform="matrix(11.9552,0,0,-11.9552,219.6743,30.049988)" fill="#0000ff"/>
<use data-text="c" xlink:href="#font_3_68" transform="matrix(11.9552,0,0,-11.9552,224.9824,30.049988)" fill="#0000ff"/>
<use data-text="t" xlink:href="#font_3_85" transform="matrix(11.9552,0,0,-11.9552,230.29051,30.049988)" fill="#0000ff"/>
<use data-text="r" xlink:href="#font_3_83" transform="matrix(11.9552,0,0,-11.9552,233.61406,30.049988)" fill="#0000ff"/>
<use data-text="i" xlink:href="#font_3_74" transform="matrix(11.9552,0,0,-11.9552,237.81032,30.049988)" fill="#0000ff"/>
<use data-text="x" xlink:href="#font_3_89" transform="matrix(11.9552,0,0,-11.9552,241.13387,30.049988)" fill="#0000ff"/>
<use data-text=":" xlink:href="#font_3_27" transform="matrix(11.9552,0,0,-11.9552,247.11147,30.049988)" fill="#0000ff"/>
<use data-text="&#x1d465;" xlink:href="#font_2_2520" transform="matrix(11.9552,0,0,-11.9552,254.42,30.049988)" fill="#0000ff"/>
<use data-text="=" xlink:href="#font_2_62" transform="matrix(11.9552,0,0,-11.9552,264.30696,30.049988)" fill="#0000ff"/>
<use data-text="0" xlink:href="#font_2_49" transform="matrix(11.9552,0,0,-11.9552,275.8198,30.049988)" fill="#0000ff"/>
<use data-text="." xlink:href="#font_2_47" transform="matrix(11.9552,0,0,-11.9552,281.7974,30.049988)" fill="#0000ff"/>
<use data-text="2" xlink:href="#font_2_51" transform="matrix(11.9552,0,0,-11.9552,284.7862,30.049988)" fill="#0000ff"/>
<use data-text="5" xlink:href="#font_2_54" transform="matrix(11.9552,0,0,-11.9552,290.7638,30.049988)" fill="#0000ff"/>
<path transform="matrix(1,0,0,-1,171.02,147.98799)" stroke-width=".79701" stroke-linecap="butt" stroke-dasharray=".79701,1.99255" stroke-miterlimit="10" stroke-linejoin="miter" fill="none" stroke="#008000" d="M-28.3468-56.69363V56.69363"/>
<path transform="matrix(1,0,0,-1,171.02,147.98799)" d="M-27.35052 56.69363C-27.35052 57.24387-27.79657 57.68991-28.3468 57.68991-28.89703 57.68991-29.34308 57.24387-29.34308 56.69363-29.34308 56.14339-28.89703 55.69736-28.3468 55.69736-27.79657 55.69736-27.35052 56.14339-27.35052 56.69363ZM-28.3468 56.69363" fill="#008000"/>
<path transform="matrix(1,0,0,-1,171.02,147.98799)" stroke-width=".3985" stroke-linecap="butt" stroke-miterlimit="10" stroke-linejoin="miter" fill="none" stroke="#008000" d="M-27.35052 56.69363C-27.35052 57.24387-27.79657 57.68991-28.3468 57.68991-28.89703 57.68991-29.34308 57.24387-29.34308 56.69363-29.34308 56.14339-28.89703 55.69736-28.3468 55.69736-27.79657 55.69736-27.35052 56.14339-27.35052 56.69363ZM-28.3468 56.69363"/>
<use data-text="(" xlink:href="#font_2_41" transform="matrix(11.9552,0,0,-11.9552,81.490009,94.34899)" fill="#008000"/>
<use data-text="&#x2212;" xlink:href="#font_2_1151" transform="matrix(11.9552,0,0,-11.9552,85.471088,94.34899)" fill="#008000"/>
<use data-text="0" xlink:href="#font_2_49" transform="matrix(11.9552,0,0,-11.9552,93.6604,94.34899)" fill="#008000"/>
<use data-text="." xlink:href="#font_2_47" transform="matrix(11.9552,0,0,-11.9552,99.638,94.34899)" fill="#008000"/>
<use data-text="2" xlink:href="#font_2_51" transform="matrix(11.9552,0,0,-11.9552,102.6268,94.34899)" fill="#008000"/>
<use data-text="5" xlink:href="#font_2_54" transform="matrix(11.9552,0,0,-11.9552,108.6044,94.34899)" fill="#008000"/>
<use data-text="," xlink:href="#font_2_45" transform="matrix(11.9552,0,0,-11.9552,114.582,94.34899)" fill="#008000"/>
<use data-text="0" xlink:href="#font_2_49" transform="matrix(11.9552,0,0,-11.9552,119.55536,94.34899)" fill="#008000"/>
<use data-text="." xlink:href="#font_2_47" transform="matrix(11.9552,0,0,-11.9552,125.53296,94.34899)" fill="#008000"/>
<use data-text="5" xlink:href="#font_2_54" transform="matrix(11.9552,0,0,-11.9552,128.52176,94.34899)" fill="#008000"/>
<use data-text=")" xlink:href="#font_2_42" transform="matrix(11.9552,0,0,-11.9552,134.49936,94.34899)" fill="#008000"/>
<path transform="matrix(1,0,0,-1,171.02,147.98799)" d="M-27.35052-56.69363C-27.35052-56.14339-27.79657-55.69736-28.3468-55.69736-28.89703-55.69736-29.34308-56.14339-29.34308-56.69363-29.34308-57.24387-28.89703-57.68991-28.3468-57.68991-27.79657-57.68991-27.35052-57.24387-27.35052-56.69363ZM-28.3468-56.69363" fill="#008000"/>
<path transform="matrix(1,0,0,-1,171.02,147.98799)" stroke-width=".3985" stroke-linecap="butt" stroke-miterlimit="10" stroke-linejoin="miter" fill="none" stroke="#008000" d="M-27.35052-56.69363C-27.35052-56.14339-27.79657-55.69736-28.3468-55.69736-28.89703-55.69736-29.34308-56.14339-29.34308-56.69363-29.34308-57.24387-28.89703-57.68991-28.3468-57.68991-27.79657-57.68991-27.35052-57.24387-27.35052-56.69363ZM-28.3468-56.69363"/>
<use data-text="(" xlink:href="#font_2_41" transform="matrix(11.9552,0,0,-11.9552,73.30101,207.736)" fill="#008000"/>
<use data-text="&#x2212;" xlink:href="#font_2_1151" transform="matrix(11.9552,0,0,-11.9552,77.28209,207.736)" fill="#008000"/>
<use data-text="0" xlink:href="#font_2_49" transform="matrix(11.9552,0,0,-11.9552,85.471408,207.736)" fill="#008000"/>
<use data-text="." xlink:href="#font_2_47" transform="matrix(11.9552,0,0,-11.9552,91.449008,207.736)" fill="#008000"/>
<use data-text="2" xlink:href="#font_2_51" transform="matrix(11.9552,0,0,-11.9552,94.437808,207.736)" fill="#008000"/>
<use data-text="5" xlink:href="#font_2_54" transform="matrix(11.9552,0,0,-11.9552,100.415409,207.736)" fill="#008000"/>
<use data-text="," xlink:href="#font_2_45" transform="matrix(11.9552,0,0,-11.9552,106.393009,207.736)" fill="#008000"/>
<use data-text="&#x2212;" xlink:href="#font_2_1151" transform="matrix(11.9552,0,0,-11.9552,111.36636,207.736)" fill="#008000"/>
<use data-text="0" xlink:href="#font_2_49" transform="matrix(11.9552,0,0,-11.9552,119.555667,207.736)" fill="#008000"/>
<use data-text="." xlink:href="#font_2_47" transform="matrix(11.9552,0,0,-11.9552,125.533267,207.736)" fill="#008000"/>
<use data-text="5" xlink:href="#font_2_54" transform="matrix(11.9552,0,0,-11.9552,128.52207,207.736)" fill="#008000"/>
<use data-text=")" xlink:href="#font_2_42" transform="matrix(11.9552,0,0,-11.9552,134.49967,207.736)" fill="#008000"/>
<use data-text="3" xlink:href="#font_3_20" transform="matrix(11.9552,0,0,-11.9552,147.649,723.888)"/>
</g>
</svg>
