<svg style="overflow: visible;" xmlns="http://www.w3.org/2000/svg" xmlns:xlink="http://www.w3.org/1999/xlink" xmlns:inkscape="http://www.inkscape.org/namespaces/inkscape" version="1.1" width="100%" height="100%" viewBox="0 0 399.6 478.58">
<defs>
<path id="font_1_1" d="M.47399903 .40820313C.44198609 .40219117 .42999269 .3781891 .42999269 .3591919 .42999269 .33518983 .44898988 .3271942 .46299745 .3271942 .49299623 .3271942 .5139923 .3531952 .5139923 .380188 .5139923 .4223938 .46598817 .44140626 .42399598 .44140626 .36299134 .44140626 .32899476 .38119508 .31999208 .36219789 .29699708 .4373932 .23498535 .44140626 .21699524 .44140626 .114990238 .44140626 .06098938 .31021119 .06098938 .28822328 .06098938 .28422547 .06498718 .27923585 .07199097 .27923585 .07998657 .27923585 .08198547 .28523255 .083999637 .2892151 .117996219 .40019227 .18499756 .42140199 .21398926 .42140199 .25898744 .42140199 .2679901 .37919618 .2679901 .3551941 .2679901 .33319093 .2619934 .31021119 .25 .26223756L.21598816 .12535095C.20098877 .06535339 .17199707 .010223389 .11898804 .010223389 .11399841 .010223389 .08898926 .010223389 .067993167 .023330689 .10398865 .03036499 .11199951 .06036377 .11199951 .07235718 .11199951 .09236145 .09700012 .10435486 .07798767 .10435486 .053985597 .10435486 .027999878 .083358768 .027999878 .051361085 .027999878 .009231567 .07499695-.009765625 .117996219-.009765625 .1659851-.009765625 .19999695 .028366089 .22099304 .069366458 .23699951 .010223389 .2869873-.009765625 .32398988-.009765625 .42599488-.009765625 .47999574 .12135315 .47999574 .1433258 .47999574 .14833069 .47599793 .15232849 .46998597 .15232849 .46099855 .15232849 .45999146 .14732361 .45700074 .139328 .42999269 .051361085 .37199403 .010223389 .32699586 .010223389 .2919922 .010223389 .272995 .036361696 .272995 .07736206 .272995 .099365238 .2769928 .115356449 .29299928 .18130493L.32798768 .3171997C.34298707 .37719728 .3769989 .42140199 .4229889 .42140199 .4249878 .42140199 .45298768 .42140199 .47399903 .40820313Z"/>
<path id="font_1_2" d="M.2630005-.11172485C.23599243-.14982605 .19699097-.18411255 .147995-.18411255 .13598633-.18411255 .08799744-.18209839 .07299805-.13572693 .07598877-.13671875 .08099365-.13671875 .08299255-.13671875 .11299133-.13671875 .1329956-.11073303 .1329956-.08772278 .1329956-.06472778 .11399841-.056732179 .09899902-.056732179 .08299255-.056732179 .04798889-.068725589 .04798889-.11772156 .04798889-.16899109 .09098816-.20410156 .147995-.20410156 .24798584-.20410156 .34899903-.11172485 .3769989-.00077819827L.47499085 .38868714C.47599793 .39367677 .47799684 .39967347 .47799684 .4056549 .47799684 .4206543 .46598817 .43066407 .45098878 .43066407 .44198609 .43066407 .42099 .426651 .41299439 .39666749L.33898927 .10308838C.33399964 .085113529 .33399964 .08312988 .32598878 .072143558 .30599977 .04423523 .272995 .010223389 .22499085 .010223389 .16899109 .010223389 .1639862 .06524658 .1639862 .09225464 .1639862 .14929199 .19099427 .22631836 .21798706 .2983551 .22898865 .32736207 .23498535 .34136964 .23498535 .3613739 .23498535 .4033966 .20498657 .44140626 .1559906 .44140626 .06399536 .44140626 .026992798 .29634095 .026992798 .28834535 .026992798 .28434754 .0309906 .27934266 .037994386 .27934266 .04699707 .27934266 .04798889 .28334046 .051986696 .29734803 .07598877 .38137818 .11399841 .42140199 .15299988 .42140199 .1619873 .42140199 .1789856 .42140199 .1789856 .38838197 .1789856 .36238099 .16799927 .33335877 .15299988 .29534913 .10398865 .16429138 .10398865 .13127136 .10398865 .10726929 .10398865 .01222229 .17199707-.009765625 .22200012-.009765625 .25099183-.009765625 .2869873-.00077819827 .32199098 .036239625L.32299806 .035232545C.30799867-.023757935 .2979889-.06272888 .2630005-.11172485Z"/>
<path id="font_2_80" d="M.70700076 .33880616C.70700076 .54597476 .5549927 .70410159 .3809967 .70410159 .20298767 .70410159 .053985597 .54397585 .053985597 .33880616 .053985597 .13562012 .20498657-.021484375 .37998963-.021484375 .5589905-.021484375 .70700076 .13761902 .70700076 .33880616M.6139984 .35380555C.6139984 .09358215 .47799684 .0015106201 .3809967 .0015106201 .2789917 .0015106201 .14698792 .097595218 .14698792 .35380555 .14698792 .59902957 .28599549 .6820984 .37998963 .6820984 .47898866 .6820984 .6139984 .59602358 .6139984 .35380555Z"/>
<path id="font_3_8" d="M.36099244 .6508026C.36099244 .6697998 .36099244 .6748047 .34700013 .6748047 .33898927 .6748047 .33599855 .6748047 .32798768 .662796L.026992798 .19598389V.16699219H.2899933V.07598877C.2899933 .038986207 .28799439 .0289917 .21499634 .0289917H.19499207V0C.21798706 .0019989014 .29699708 .0019989014 .32499696 .0019989014 .35299684 .0019989014 .43299867 .0019989014 .45599366 0V.0289917H.43598939C.3639984 .0289917 .36099244 .038986207 .36099244 .07598877V.16699219H.46199037V.19598389H.36099244V.6508026M.29499818 .5728302V.19598389H.051986696L.29499818 .5728302Z"/>
<path id="font_3_9" d="M.12799073 .5727997C.17098999 .5588074 .20599365 .5578003 .21699524 .5578003 .32998658 .5578003 .4019928 .6409912 .4019928 .6550598 .4019928 .6590576 .3999939 .6640625 .3939972 .6640625 .3919983 .6640625 .3899994 .6640625 .3809967 .66004946 .32499696 .6358795 .2769928 .6328125 .25099183 .6328125 .18499756 .6328125 .13798523 .6530609 .11898804 .6610565 .11199951 .6640625 .10998535 .6640625 .10899353 .6640625 .100997928 .6640625 .100997928 .65805056 .100997928 .64201357V.34495545C.100997928 .32695008 .100997928 .32095338 .11299133 .32095338 .117996219 .32095338 .11898804 .32196046 .1289978 .33395387 .15699768 .37493897 .20399475 .39894105 .2539978 .39894105 .30699159 .39894105 .33299256 .34994508 .34098817 .33294679 .35798646 .29396058 .35899354 .2449646 .35899354 .20697022 .35899354 .16897583 .35899354 .11193848 .33099366 .0667572 .30899049 .03060913 .269989 .005508423 .22599793 .005508423 .1599884 .005508423 .09498596 .050689699 .07699585 .12397766 .08198547 .12197876 .08799744 .12097168 .09298706 .12097168 .10998535 .12097168 .13699341 .13098145 .13699341 .16497803 .13699341 .1929779 .117996219 .20898438 .09298706 .20898438 .07499695 .20898438 .04899597 .19998169 .04899597 .16098023 .04899597 .075790408 .116989139-.021484375 .22799683-.021484375 .34098817-.021484375 .43998719 .073791507 .43998719 .20097351 .43998719 .3199463 .3600006 .4189453 .25498963 .4189453 .19799805 .4189453 .1539917 .39393617 .12799073 .36595155V.5727997Z"/>
<path id="font_4_2" d="M.47099305 .25C.47099305 .36502076 .3789978 .45703126 .2649994 .45703126 .15098572 .45703126 .05899048 .36502076 .05899048 .25 .05899048 .13496399 .15098572 .04296875 .2649994 .04296875 .3789978 .04296875 .47099305 .13496399 .47099305 .25M.2649994 .08895874C.17599488 .08895874 .10499573 .15997315 .10499573 .25 .10499573 .3400116 .17599488 .411026 .2649994 .411026 .35398866 .411026 .4249878 .3400116 .4249878 .25 .4249878 .15997315 .35398866 .08895874 .2649994 .08895874Z"/>
<path id="font_4_3" d="M.2649994 .4740448C.269989 .4870453 .27398683 .49404908 .27398683 .5040436 .27398683 .53704836 .24398804 .5590515 .21598816 .5590515 .17599488 .5590515 .16499329 .52404788 .16099549 .51005557L.033996583 .07901001C.02999878 .06700134 .02999878 .06401062 .02999878 .06300354 .02999878 .054000856 .035995485 .052001954 .04598999 .04901123 .06399536 .041015626 .06599426 .041015626 .067993167 .041015626 .070999149 .041015626 .07699585 .041015626 .083999637 .058013917L.2649994 .4740448Z"/>
<path id="font_5_2" d="M.28199769 .20405579C.2979889 .21907044 .33999635 .2520752 .35598756 .26608277 .41799928 .32312013 .47698976 .3781433 .47698976 .46917726 .47698976 .588089 .3769989 .66503909 .2519989 .66503909 .13198853 .66503909 .052993776 .57411196 .052993776 .48516847 .052993776 .4361725 .09199524 .4291687 .10598755 .4291687 .1269989 .4291687 .1579895 .4441681 .1579895 .48217774 .1579895 .5341797 .10798645 .5341797 .09599304 .5341797 .125 .6070709 .19198609 .6320343 .24099732 .6320343 .33399964 .6320343 .38198854 .55314639 .38198854 .46917726 .38198854 .36514283 .30899049 .28910829 .19099427 .16804505L.06498718 .037994386C.052993776 .026992798 .052993776 .024993897 .052993776 0H.44799806L.47698976 .17904663H.44599916C.44299317 .1590271 .43499757 .10900879 .4229889 .08999634 .4169922 .08198547 .34098817 .08198547 .32499696 .08198547H.14698792L.28199769 .20405579Z"/>
<path id="font_3_3" d="M.39898683 .23057556H.6749878C.68899539 .23057556 .70700076 .23057556 .70700076 .24856568 .70700076 .26757813 .6899872 .26757813 .6749878 .26757813H.39898683V.5441437C.39898683 .5581665 .39898683 .5761719 .3809967 .5761719 .3619995 .5761719 .3619995 .5591583 .3619995 .5441437V.26757813H.085998538C.07199097 .26757813 .053985597 .26757813 .053985597 .24957276 .053985597 .23057556 .070999149 .23057556 .085998538 .23057556H.3619995V-.045166017C.3619995-.059158327 .3619995-.07714844 .37998963-.07714844 .39898683-.07714844 .39898683-.060150148 .39898683-.045166017V.23057556Z"/>
<path id="font_3_6" d="M.43998719 .16790772H.41799928C.4149933 .15092469 .40699769 .09597778 .39698792 .07998657 .3899994 .070999149 .33299256 .070999149 .30299378 .070999149H.117996219C.14498902 .09397888 .20599365 .15792847 .23199463 .18190003 .38398744 .3217926 .43998719 .37374879 .43998719 .47270204 .43998719 .5878906 .34899903 .66503909 .23298645 .66503909 .116989139 .66503909 .04899597 .5658264 .04899597 .4797058 .04899597 .42871095 .09298706 .42871095 .09599304 .42871095 .116989139 .42871095 .14299011 .44371034 .14299011 .475708 .14299011 .5037079 .12399292 .5227051 .09599304 .5227051 .08699036 .5227051 .084991458 .5227051 .08198547 .521698 .100997928 .5899048 .15499878 .6360321 .21998596 .6360321 .30499269 .6360321 .35699464 .56481936 .35699464 .47270204 .35699464 .3877411 .30799867 .313797 .25099183 .24984741L.04899597 .023986817V0H.4139862L.43998719 .16790772Z"/>
<path id="font_6_1" d="M.6589966 .23046875C.6759949 .23046875 .69400027 .23046875 .69400027 .25045777 .69400027 .27046205 .6759949 .27046205 .6589966 .27046205H.117996219C.100997928 .27046205 .08299255 .27046205 .08299255 .25045777 .08299255 .23046875 .100997928 .23046875 .117996219 .23046875H.6589966Z"/>
<path id="font_3_11" d="M.2979889 .36079408C.34799195 .38781739 .42099 .43385316 .42099 .5179291 .42099 .6049957 .33699037 .66503909 .24499512 .66503909 .1459961 .66503909 .067993167 .59199526 .067993167 .5009155 .067993167 .46688844 .07798767 .43286134 .10598755 .39883424 .116989139 .38581849 .117996219 .38482667 .18798828 .3357849 .09098816 .29074098 .040985109 .22369385 .040985109 .15063477 .040985109 .044540407 .14199829-.021484375 .24398804-.021484375 .35499574-.021484375 .44799806 .060546876 .44799806 .16563416 .44799806 .2677307 .37599183 .3127594 .2979889 .36079408M.1619873 .4508667C.14898682 .45988465 .10899353 .48590089 .10899353 .5349426 .10899353 .59999087 .1769867 .641037 .24398804 .641037 .31599427 .641037 .37998963 .58898928 .37998963 .516922 .37998963 .45587159 .33599855 .4068451 .27799989 .3748169L.1619873 .4508667M.20899964 .32176209 .32998658 .2427063C.35598756 .22569275 .4019928 .19465637 .4019928 .13360596 .4019928 .057556154 .32499696 .005508423 .24499512 .005508423 .1599884 .005508423 .08699036 .06756592 .08699036 .15063477 .08699036 .22869873 .14399719 .29174806 .20899964 .32176209Z"/>
<path id="font_3_13" d="M.6749878 .32421876C.68899539 .32421876 .70700076 .32421876 .70700076 .34220887 .70700076 .36120606 .6899872 .36120606 .6749878 .36120606H.085998538C.07199097 .36120606 .053985597 .36120606 .053985597 .34321595 .053985597 .32421876 .070999149 .32421876 .085998538 .32421876H.6749878M.6749878 .13780213C.68899539 .13780213 .70700076 .13780213 .70700076 .15579224 .70700076 .17480469 .6899872 .17480469 .6749878 .17480469H.085998538C.07199097 .17480469 .053985597 .17480469 .053985597 .15679932 .053985597 .13780213 .070999149 .13780213 .085998538 .13780213H.6749878Z"/>
<path id="font_3_4" d="M.44799806 .31976319C.44799806 .40283204 .44299317 .48390199 .40699769 .55996707 .3659973 .64302065 .2939911 .66503909 .24499512 .66503909 .18699646 .66503909 .115997318 .63601687 .07899475 .552948 .050994874 .48989869 .040985109 .42785646 .040985109 .31976319 .040985109 .22268677 .04798889 .14962769 .083999637 .078567508 .12298584 .0025177003 .19198609-.021484375 .24398804-.021484375 .33099366-.021484375 .3809967 .030532837 .4099884 .08857727 .44599916 .16363526 .44799806 .26171876 .44799806 .31976319M.24398804-.0014953613C.21199036-.0014953613 .14698792 .016525269 .12799073 .12561035 .116989139 .18565369 .116989139 .26171876 .116989139 .33177186 .116989139 .41384889 .116989139 .48789979 .1329956 .5469513 .1499939 .6139984 .20098877 .6450348 .24398804 .6450348 .28199769 .6450348 .33999635 .6220093 .35899354 .53593447 .37199403 .4788971 .37199403 .39982606 .37199403 .33177186 .37199403 .26472474 .37199403 .18865967 .36099244 .12760926 .34199525 .01751709 .2789917-.0014953613 .24398804-.0014953613Z"/>
<path id="font_3_1" d="M.32499696-.24298096C.32499696-.23999024 .32499696-.23799134 .30799867-.22097779 .20799256-.11997986 .1519928 .045013429 .1519928 .24900818 .1519928 .44299317 .19898987 .60998538 .31498719 .7279968 .32499696 .7369995 .32499696 .7389984 .32499696 .74198916 .32499696 .74798586 .31999208 .75 .31599427 .75 .30299378 .75 .22099304 .6779938 .17199707 .5799866 .12098694 .47898866 .09799194 .37199403 .09799194 .24900818 .09799194 .16000366 .11199951 .041015626 .1639862-.06599426 .22299195-.18598938 .30499269-.25097657 .31599427-.25097657 .31999208-.25097657 .32499696-.24897766 .32499696-.24298096Z"/>
<path id="font_3_2" d="M.28199769 .24900818C.28199769 .32499696 .27198792 .44898988 .21598816 .5649872 .15699768 .68499758 .07499695 .75 .06399536 .75 .05999756 .75 .054992677 .74798586 .054992677 .74198916 .054992677 .7389984 .054992677 .7369995 .07199097 .71998599 .17199707 .61898806 .22799683 .45399476 .22799683 .25 .22799683 .056015016 .18099976-.11099243 .06498718-.22898865 .054992677-.23799134 .054992677-.23999024 .054992677-.24298096 .054992677-.24897766 .05999756-.25097657 .06399536-.25097657 .07699585-.25097657 .15899658-.1789856 .20799256-.08099365 .25898744 .021011353 .28199769 .12901306 .28199769 .24900818Z"/>
<path id="font_6_2" d="M.3889923-.8549652 .21299744-.4659729C.20599365-.44996644 .20098877-.44996644 .19799805-.44996644 .19699097-.44996644 .19198609-.44996644 .18099976-.45796205L.085998538-.52996829C.07299805-.53996279 .07299805-.54296877 .07299805-.54597476 .07299805-.55096438 .07598877-.55696108 .08299255-.55696108 .08898926-.55696108 .10598755-.54296877 .116989139-.53497317 .12298584-.52996829 .13798523-.5189667 .14898682-.51097109L.34599305-.9439697C.35299684-.95996096 .35798646-.95996096 .36698915-.95996096 .38198854-.95996096 .3849945-.95396426 .3919983-.9399719L.84599307 .000030517579C.8529968 .014038086 .8529968 .018035889 .8529968 .02003479 .8529968 .030029297 .8450012 .040039064 .83299258 .040039064 .82499697 .040039064 .81799319 .03503418 .80999758 .01902771L.3889923-.8549652Z"/>
</defs>
<path transform="matrix(1,0,0,-1,176.146,224.27198)" stroke-width=".79701" stroke-linecap="round" stroke-dasharray="2.98883,2.98883" stroke-linejoin="round" fill="none" stroke="#000000" d="M-170.08042 0H201.50623"/>
<path transform="matrix(1,0,0,-1,377.65223,224.27198)" d="M2.59026 0-1.55415 2.0722 0 0-1.55415-2.0722"/>
<use data-text="x" xlink:href="#font_1_1" transform="matrix(11.9552,0,0,-11.9552,383.96199,226.84598)"/>
<path transform="matrix(1,0,0,-1,176.146,224.27198)" stroke-width=".79701" stroke-linecap="round" stroke-dasharray="2.98883,2.98883" stroke-linejoin="round" fill="none" stroke="#000000" d="M0-170.08042V201.50623"/>
<path transform="matrix(0,-1,-1,-0,176.146,22.765748)" d="M2.59026 0-1.55415 2.0722 0 0-1.55415-2.0722"/>
<use data-text="y" xlink:href="#font_1_2" transform="matrix(11.9552,0,0,-11.9552,173.078,14.131973)"/>
<use data-text="O" xlink:href="#font_2_80" transform="matrix(11.9552,0,0,-11.9552,179.66599,220.50098)"/>
<path transform="matrix(1,0,0,-1,176.146,224.27198)" stroke-width=".79701" stroke-linecap="round" stroke-linejoin="round" fill="none" stroke="#000000" d="M51.02411 0C51.02411 13.5299 45.64653 26.5125 36.07951 36.07951"/>
<use data-text="4" xlink:href="#font_3_8" transform="matrix(11.9552,0,0,-11.9552,227.00299,208.73598)"/>
<use data-text="5" xlink:href="#font_3_9" transform="matrix(11.9552,0,0,-11.9552,232.84909,208.73598)"/>
<use data-text="&#x25e6;" xlink:href="#font_4_2" transform="matrix(7.9701,0,0,-7.9701,238.709,204.39698)"/>
<path transform="matrix(1,0,0,-1,176.146,224.27198)" stroke-width=".79701" stroke-linecap="round" stroke-linejoin="round" fill="none" stroke="#000000" d="M0 51.02411C-13.5299 51.02411-26.5125 45.64653-36.07951 36.07951"/>
<use data-text="4" xlink:href="#font_3_8" transform="matrix(11.9552,0,0,-11.9552,148.402,173.41498)"/>
<use data-text="5" xlink:href="#font_3_9" transform="matrix(11.9552,0,0,-11.9552,154.2481,173.41498)"/>
<use data-text="&#x25e6;" xlink:href="#font_4_2" transform="matrix(7.9701,0,0,-7.9701,160.108,169.07598)"/>
<path transform="matrix(1,0,0,-1,176.146,224.27198)" stroke-width=".79701" stroke-linecap="round" stroke-linejoin="round" fill="none" stroke="#0000ff" d="M-144.31801-144.31801 142.48642 142.48642"/>
<path transform="matrix(.7071,-.7071,-.7071,-.7071,318.63243,81.78555)" d="M2.59026 0-1.55415 2.0722 0 0-1.55415-2.0722" fill="#0000ff"/>
<use data-text="x" xlink:href="#font_1_1" transform="matrix(11.9552,0,0,-11.9552,324.18299,84.336978)" fill="#0000ff"/>
<use data-text="&#x2032;" xlink:href="#font_4_3" transform="matrix(7.9701,0,0,-7.9701,330.835,79.99797)" fill="#0000ff"/>
<path transform="matrix(1,0,0,-1,176.146,224.27198)" stroke-width=".79701" stroke-linecap="round" stroke-linejoin="round" fill="none" stroke="#0000ff" d="M144.31801-144.31801-142.48642 142.48642"/>
<path transform="matrix(-.7071,-.7071,-.7071,.7071,33.659578,81.78555)" d="M2.59026 0-1.55415 2.0722 0 0-1.55415-2.0722" fill="#0000ff"/>
<use data-text="y" xlink:href="#font_1_2" transform="matrix(11.9552,0,0,-11.9552,27.362,73.90997)" fill="#0000ff"/>
<use data-text="&#x2032;" xlink:href="#font_4_3" transform="matrix(7.9701,0,0,-7.9701,33.499,69.57097)" fill="#0000ff"/>
<use data-text="O" xlink:href="#font_2_80" transform="matrix(11.9552,0,0,-11.9552,160.721,236.55799)" fill="#0000ff"/>
<use data-text="&#x2032;" xlink:href="#font_4_3" transform="matrix(7.9701,0,0,-7.9701,169.831,232.21897)" fill="#0000ff"/>
<path transform="matrix(1,0,0,-1,176.146,224.27198)" stroke-width="1.59404" stroke-linecap="round" stroke-linejoin="round" fill="none" stroke="#ff0000" d="M-28.18015-164.24387C-28.18015-164.24387-30.36922-150.46935-31.02858-145.36032-31.68794-140.25131-32.53516-132.26831-32.9323-127.4215-33.32945-122.5747-33.75595-115.01242-33.89096-110.42775-34.02597-105.8431-34.03249-98.70082-33.90529-94.37836-33.77809-90.05591-33.36356-83.33466-32.97415-79.27438-32.58475-75.21414-31.75026-68.91281-31.09866-65.11476-30.44707-61.31671-29.19156-55.43643-28.27776-51.90059-27.36395-48.36475-25.68848-42.90445-24.51251-39.63075-23.33653-36.35706-21.24037-31.31743-19.80217-28.306-18.36395-25.29457-15.84718-20.67555-14.14677-17.92632-12.44635-15.17708-9.50928-10.97836-7.54665-8.49133-5.58403-6.0043-2.22624-2.2263-.00143-.00143 2.22333 2.22339 6.00111 5.58136 8.48804 7.54408 10.97496 9.5068 15.17345 12.44409 17.92264 14.14455 20.67183 15.84505 25.29094 18.3617 28.30234 19.79996 31.3137 21.23824 36.35307 23.33466 39.62671 24.51067 42.90036 25.68668 48.36081 27.36201 51.89655 28.27592 55.4323 29.18987 61.31215 30.44576 65.11 31.09758 68.90785 31.74939 75.20874 32.58427 79.2689 32.97377 83.32904 33.36327 90.05049 33.7776 94.37283 33.9049 98.6952 34.03223 105.837 34.02617 110.42152 33.89133 115.00603 33.75647 122.56819 33.33012 127.4149 32.93306 132.26161 32.536 140.2444 31.68898 145.35337 31.02968 150.46231 30.37036 164.23688 28.18124 164.23688 28.18124"/>
<path transform="matrix(1,0,0,-1,176.146,224.27198)" stroke-width=".79701" stroke-linecap="round" stroke-linejoin="round" fill="none" stroke="#000000" d="M2.1134 2.1134C.9462 3.28061-.9462 3.28061-2.1134 2.1134-3.28061 .9462-3.28061-.9462-2.1134-2.1134-.9462-3.28061 .9462-3.28061 2.1134-2.1134 3.28061-.9462 3.28061 .9462 2.1134 2.1134ZM0 0"/>
<use data-text="x" xlink:href="#font_1_1" transform="matrix(11.9552,0,0,-11.9552,171.75,432.24198)" fill="#ff0000"/>
<use data-text="2" xlink:href="#font_5_2" transform="matrix(7.9701,0,0,-7.9701,178.402,427.305)" fill="#ff0000"/>
<use data-text="+" xlink:href="#font_3_3" transform="matrix(11.9552,0,0,-11.9552,185.79099,432.24198)" fill="#ff0000"/>
<use data-text="2" xlink:href="#font_3_6" transform="matrix(11.9552,0,0,-11.9552,197.54296,432.24198)" fill="#ff0000"/>
<use data-text="x" xlink:href="#font_1_1" transform="matrix(11.9552,0,0,-11.9552,203.405,432.24198)" fill="#ff0000"/>
<use data-text="y" xlink:href="#font_1_2" transform="matrix(11.9552,0,0,-11.9552,210.0521,432.24198)" fill="#ff0000"/>
<use data-text="+" xlink:href="#font_3_3" transform="matrix(11.9552,0,0,-11.9552,218.851,432.24198)" fill="#ff0000"/>
<use data-text="y" xlink:href="#font_1_2" transform="matrix(11.9552,0,0,-11.9552,230.612,432.24198)" fill="#ff0000"/>
<use data-text="2" xlink:href="#font_5_2" transform="matrix(7.9701,0,0,-7.9701,236.749,427.305)" fill="#ff0000"/>
<use data-text="&#x2212;" xlink:href="#font_6_1" transform="matrix(11.9552,0,0,-11.9552,244.13799,432.24198)" fill="#ff0000"/>
<use data-text="8" xlink:href="#font_3_11" transform="matrix(11.9552,0,0,-11.9552,256.093,432.24198)" fill="#ff0000"/>
<use data-text="x" xlink:href="#font_1_1" transform="matrix(11.9552,0,0,-11.9552,261.94599,432.24198)" fill="#ff0000"/>
<use data-text="+" xlink:href="#font_3_3" transform="matrix(11.9552,0,0,-11.9552,271.255,432.24198)" fill="#ff0000"/>
<use data-text="8" xlink:href="#font_3_11" transform="matrix(11.9552,0,0,-11.9552,283.00697,432.24198)" fill="#ff0000"/>
<use data-text="y" xlink:href="#font_1_2" transform="matrix(11.9552,0,0,-11.9552,288.869,432.24198)" fill="#ff0000"/>
<use data-text="=" xlink:href="#font_3_13" transform="matrix(11.9552,0,0,-11.9552,298.326,432.24198)" fill="#ff0000"/>
<use data-text="0" xlink:href="#font_3_4" transform="matrix(11.9552,0,0,-11.9552,310.73548,432.24198)" fill="#ff0000"/>
<use data-text="(" xlink:href="#font_3_1" transform="matrix(11.9552,0,0,-11.9552,203.717,466.60496)" fill="#ff0000"/>
<use data-text="x" xlink:href="#font_1_1" transform="matrix(11.9552,0,0,-11.9552,208.269,466.60496)" fill="#ff0000"/>
<use data-text="&#x2032;" xlink:href="#font_4_3" transform="matrix(7.9701,0,0,-7.9701,214.92099,461.66798)" fill="#ff0000"/>
<use data-text=")" xlink:href="#font_3_2" transform="matrix(11.9552,0,0,-11.9552,217.716,466.60496)" fill="#ff0000"/>
<use data-text="2" xlink:href="#font_5_2" transform="matrix(7.9701,0,0,-7.9701,222.269,461.66798)" fill="#ff0000"/>
<use data-text="=" xlink:href="#font_3_13" transform="matrix(11.9552,0,0,-11.9552,230.32199,466.60496)" fill="#ff0000"/>
<use data-text="&#x2212;" xlink:href="#font_6_1" transform="matrix(11.9552,0,0,-11.9552,242.74701,466.60496)" fill="#ff0000"/>
<use data-text="4" xlink:href="#font_3_8" transform="matrix(11.9552,0,0,-11.9552,252.04599,466.60496)" fill="#ff0000"/>
<use data-text="&#x221a;" xlink:href="#font_6_2" transform="matrix(11.9552,0,0,-11.9552,257.899,456.13096)" fill="#ff0000"/>
<path transform="matrix(1,0,0,-1,99.57099,314.32997)" stroke-width=".4782" stroke-linecap="butt" stroke-linejoin="round" fill="none" stroke="#ff0000" d="M168.291-141.562H174.144"/>
<use data-text="2" xlink:href="#font_3_6" transform="matrix(11.9552,0,0,-11.9552,267.862,466.60496)" fill="#ff0000"/>
<use data-text="y" xlink:href="#font_1_2" transform="matrix(11.9552,0,0,-11.9552,275.707,466.60496)" fill="#ff0000"/>
<use data-text="&#x2032;" xlink:href="#font_4_3" transform="matrix(7.9701,0,0,-7.9701,281.844,461.66798)" fill="#ff0000"/>
</svg>
