<svg style="overflow: visible;" xmlns="http://www.w3.org/2000/svg" xmlns:xlink="http://www.w3.org/1999/xlink" xmlns:inkscape="http://www.inkscape.org/namespaces/inkscape" version="1.1" width="100%" height="100%" viewBox="0 0 399.6 477.9">
<defs>
<path id="font_1_1" d="M.47399903 .40820313C.44198609 .40219117 .42999269 .3781891 .42999269 .3591919 .42999269 .33518983 .44898988 .3271942 .46299745 .3271942 .49299623 .3271942 .5139923 .3531952 .5139923 .380188 .5139923 .4223938 .46598817 .44140626 .42399598 .44140626 .36299134 .44140626 .32899476 .38119508 .31999208 .36219789 .29699708 .4373932 .23498535 .44140626 .21699524 .44140626 .114990238 .44140626 .06098938 .31021119 .06098938 .28822328 .06098938 .28422547 .06498718 .27923585 .07199097 .27923585 .07998657 .27923585 .08198547 .28523255 .083999637 .2892151 .117996219 .40019227 .18499756 .42140199 .21398926 .42140199 .25898744 .42140199 .2679901 .37919618 .2679901 .3551941 .2679901 .33319093 .2619934 .31021119 .25 .26223756L.21598816 .12535095C.20098877 .06535339 .17199707 .010223389 .11898804 .010223389 .11399841 .010223389 .08898926 .010223389 .067993167 .023330689 .10398865 .03036499 .11199951 .06036377 .11199951 .07235718 .11199951 .09236145 .09700012 .10435486 .07798767 .10435486 .053985597 .10435486 .027999878 .083358768 .027999878 .051361085 .027999878 .009231567 .07499695-.009765625 .117996219-.009765625 .1659851-.009765625 .19999695 .028366089 .22099304 .069366458 .23699951 .010223389 .2869873-.009765625 .32398988-.009765625 .42599488-.009765625 .47999574 .12135315 .47999574 .1433258 .47999574 .14833069 .47599793 .15232849 .46998597 .15232849 .46099855 .15232849 .45999146 .14732361 .45700074 .139328 .42999269 .051361085 .37199403 .010223389 .32699586 .010223389 .2919922 .010223389 .272995 .036361696 .272995 .07736206 .272995 .099365238 .2769928 .115356449 .29299928 .18130493L.32798768 .3171997C.34298707 .37719728 .3769989 .42140199 .4229889 .42140199 .4249878 .42140199 .45298768 .42140199 .47399903 .40820313Z"/>
<path id="font_1_2" d="M.2630005-.11172485C.23599243-.14982605 .19699097-.18411255 .147995-.18411255 .13598633-.18411255 .08799744-.18209839 .07299805-.13572693 .07598877-.13671875 .08099365-.13671875 .08299255-.13671875 .11299133-.13671875 .1329956-.11073303 .1329956-.08772278 .1329956-.06472778 .11399841-.056732179 .09899902-.056732179 .08299255-.056732179 .04798889-.068725589 .04798889-.11772156 .04798889-.16899109 .09098816-.20410156 .147995-.20410156 .24798584-.20410156 .34899903-.11172485 .3769989-.00077819827L.47499085 .38868714C.47599793 .39367677 .47799684 .39967347 .47799684 .4056549 .47799684 .4206543 .46598817 .43066407 .45098878 .43066407 .44198609 .43066407 .42099 .426651 .41299439 .39666749L.33898927 .10308838C.33399964 .085113529 .33399964 .08312988 .32598878 .072143558 .30599977 .04423523 .272995 .010223389 .22499085 .010223389 .16899109 .010223389 .1639862 .06524658 .1639862 .09225464 .1639862 .14929199 .19099427 .22631836 .21798706 .2983551 .22898865 .32736207 .23498535 .34136964 .23498535 .3613739 .23498535 .4033966 .20498657 .44140626 .1559906 .44140626 .06399536 .44140626 .026992798 .29634095 .026992798 .28834535 .026992798 .28434754 .0309906 .27934266 .037994386 .27934266 .04699707 .27934266 .04798889 .28334046 .051986696 .29734803 .07598877 .38137818 .11399841 .42140199 .15299988 .42140199 .1619873 .42140199 .1789856 .42140199 .1789856 .38838197 .1789856 .36238099 .16799927 .33335877 .15299988 .29534913 .10398865 .16429138 .10398865 .13127136 .10398865 .10726929 .10398865 .01222229 .17199707-.009765625 .22200012-.009765625 .25099183-.009765625 .2869873-.00077819827 .32199098 .036239625L.32299806 .035232545C.30799867-.023757935 .2979889-.06272888 .2630005-.11172485Z"/>
<path id="font_2_80" d="M.70700076 .33880616C.70700076 .54597476 .5549927 .70410159 .3809967 .70410159 .20298767 .70410159 .053985597 .54397585 .053985597 .33880616 .053985597 .13562012 .20498657-.021484375 .37998963-.021484375 .5589905-.021484375 .70700076 .13761902 .70700076 .33880616M.6139984 .35380555C.6139984 .09358215 .47799684 .0015106201 .3809967 .0015106201 .2789917 .0015106201 .14698792 .097595218 .14698792 .35380555 .14698792 .59902957 .28599549 .6820984 .37998963 .6820984 .47898866 .6820984 .6139984 .59602358 .6139984 .35380555Z"/>
<path id="font_3_15" d="M.16799927 .4016571H.30899049V.43066407H.16799927V.6147156H.1459961C.14498902 .5206909 .10899353 .4246521 .017990113 .42166139V.4016571H.102996829V.124069217C.102996829 .01322937 .1769867-.009765625 .22999573-.009765625 .29299928-.009765625 .32598878 .0521698 .32598878 .124069217V.1809845H.3039856V.12606812C.3039856 .0541687 .2749939 .01222229 .23599243 .01222229 .16799927 .01222229 .16799927 .10508728 .16799927 .12207031V.4016571Z"/>
<path id="font_3_13" d="M.38598634 .2672119C.38598634 .3211975 .38598634 .36120606 .34199525 .4002533 .30699159 .4322815 .2619934 .44628907 .21798706 .44628907 .13598633 .44628907 .07299805 .39224244 .07299805 .32720948 .07299805 .2982025 .09199524 .2842102 .114990238 .2842102 .13899231 .2842102 .1559906 .3012085 .1559906 .32521058 .1559906 .36621095 .11999512 .36621095 .10499573 .36621095 .12799073 .40826417 .17599488 .4262848 .21598816 .4262848 .2619934 .4262848 .32099916 .38822938 .32099916 .2982025V.2582245C.11999512 .25523377 .04399109 .17123413 .04399109 .09422302 .04399109 .0152282719 .13598633-.009765625 .19699097-.009765625 .2630005-.009765625 .30799867 .030227662 .32699586 .07823181 .33099366 .031219483 .3619995-.004776001 .40499879-.004776001 .42599488-.004776001 .48399354 .009231567 .48399354 .0892334V.14523316H.46199037V.0892334C.46199037 .032226564 .43798829 .024230957 .42399598 .024230957 .38598634 .024230957 .38598634 .07722473 .38598634 .09222412V.2672119M.32099916 .1412201C.32099916 .04322815 .24798584 .010223389 .20498657 .010223389 .1559906 .010223389 .114990238 .04623413 .114990238 .09422302 .114990238 .2262268 .2849884 .23822022 .32099916 .24023438V.1412201Z"/>
<path id="font_3_14" d="M.44499208 .24320984C.44499208 .3363037 .44499208 .3643341 .42199708 .39637757 .3929901 .4353943 .34599305 .44140626 .31199647 .44140626 .21499634 .44140626 .1769867 .3583374 .16899109 .33831788H.16799927V.44140626L.03199768 .43040467V.40138246C.099990848 .40138246 .10798645 .3943634 .10798645 .34532167V.074035648C.10798645 .0289917 .09700012 .0289917 .03199768 .0289917V0C.057998659 .0019989014 .11199951 .0019989014 .13999939 .0019989014 .16899109 .0019989014 .22299195 .0019989014 .24899292 0V.0289917C.18499756 .0289917 .17298889 .0289917 .17298889 .074035648V.2602234C.17298889 .3653412 .24198914 .42140199 .3039856 .42140199 .3659973 .42140199 .37998963 .37034608 .37998963 .3092804V.074035648C.37998963 .0289917 .36898805 .0289917 .3039856 .0289917V0C.32998658 .0019989014 .38398744 .0019989014 .4119873 .0019989014 .44099427 .0019989014 .49499513 .0019989014 .5209961 0V.0289917C.47099305 .0289917 .44599916 .0289917 .44499208 .059020997V.24320984Z"/>
<path id="font_4_1" d="M.69898989 .22743225C.71499636 .22743225 .7369995 .22743225 .7369995 .25042726 .7369995 .2734375 .71499636 .2734375 .69898989 .2734375H.12599182C.10998535 .2734375 .08799744 .2734375 .08799744 .25042726 .08799744 .22743225 .10998535 .22743225 .12599182 .22743225H.69898989Z"/>
<path id="font_5_1" d="M.31399537 .63708499C.31399537 .664032 .31199647 .66503909 .2849884 .66503909 .24398804 .6251831 .19099427 .6013489 .09599304 .6013489V.5683594C.12298584 .5683594 .1769867 .5683594 .23498535 .5953522V.08203125C.23498535 .04499817 .23199463 .032989503 .13699341 .032989503H.101989749V0C.14299011 .0029907227 .22898865 .0029907227 .27398683 .0029907227 .31900025 .0029907227 .4059906 .0029907227 .44699098 0V.032989503H.4119873C.31698609 .032989503 .31399537 .04499817 .31399537 .08203125V.63708499Z"/>
<path id="font_5_4" d="M.3939972 .6468048C.3939972 .6667938 .3939972 .6748047 .37298585 .6748047 .3600006 .6748047 .35899354 .6737976 .34899903 .65979006L.02999878 .197052V.1640625H.31199647V.08100891C.31199647 .04399109 .30899049 .032989503 .23199463 .032989503H.20899964V0C.2939911 .0029907227 .29599 .0029907227 .35299684 .0029907227 .4099884 .0029907227 .4119873 .0029907227 .49699403 0V.032989503H.47399903C.39698792 .032989503 .3939972 .04399109 .3939972 .08100891V.1640625H.5V.197052H.3939972V.6468048M.31900025 .5658417V.197052H.06498718L.31900025 .5658417Z"/>
<path id="font_5_3" d="M.25299073 .33370973C.33198548 .33370973 .38198854 .27557374 .38198854 .17037964 .38198854 .045440675 .31098939 .008514404 .2579956 .008514404 .20298767 .008514404 .12799073 .0284729 .09298706 .08137512 .1289978 .08137512 .1539917 .10437012 .1539917 .13737488 .1539917 .16937256 .1309967 .19238281 .09899902 .19238281 .07199097 .19238281 .04399109 .17536927 .04399109 .13537598 .04399109 .04045105 .1459961-.021484375 .2599945-.021484375 .3929901-.021484375 .48599244 .070388797 .48599244 .17037964 .48599244 .25352479 .41999818 .32969667 .31799317 .3517456 .39698792 .37982179 .45599366 .4479828 .45599366 .52804568 .45599366 .6080475 .3659973 .66503909 .2619934 .66503909 .15499878 .66503909 .07398987 .6070404 .07398987 .53105166 .07398987 .49404908 .09899902 .4780426 .125 .4780426 .1559906 .4780426 .17599488 .5000458 .17599488 .52905276 .17599488 .56604006 .14399719 .5800476 .12199402 .5810547 .1639862 .6360321 .24099732 .6390381 .25898744 .6390381 .2849884 .6390381 .36099244 .6310272 .36099244 .52804568 .36099244 .45799256 .33198548 .41589356 .31799317 .39985658 .28799439 .36878968 .2649994 .36679078 .20399475 .3627777 .18499756 .36177064 .1769867 .36076356 .1769867 .3477478 .1769867 .33370973 .18598938 .33370973 .20298767 .33370973H.25299073Z"/>
<path id="font_4_3" d="M.2649994 .4740448C.269989 .4870453 .27398683 .49404908 .27398683 .5040436 .27398683 .53704836 .24398804 .5590515 .21598816 .5590515 .17599488 .5590515 .16499329 .52404788 .16099549 .51005557L.033996583 .07901001C.02999878 .06700134 .02999878 .06401062 .02999878 .06300354 .02999878 .054000856 .035995485 .052001954 .04598999 .04901123 .06399536 .041015626 .06599426 .041015626 .067993167 .041015626 .070999149 .041015626 .07699585 .041015626 .083999637 .058013917L.2649994 .4740448Z"/>
<path id="font_3_5" d="M.28799439 .64105227C.28799439 .664032 .28799439 .66503909 .2679901 .66503909 .24398804 .6380615 .19400025 .6012573 .09098816 .6012573V.5722656C.11399841 .5722656 .1639862 .5722656 .21899414 .59825137V.07701111C.21899414 .041000368 .21598816 .0289917 .12799073 .0289917H.09700012V0C.12399292 .0019989014 .22099304 .0019989014 .2539978 .0019989014 .2869873 .0019989014 .3829956 .0019989014 .4099884 0V.0289917H.3789978C.29100038 .0289917 .28799439 .041000368 .28799439 .07701111V.64105227Z"/>
<path id="font_3_9" d="M.12298584 .34773255C.12298584 .60061648 .24598694 .641037 .2999878 .641037 .33599855 .641037 .37199403 .62991335 .3909912 .5996094 .3789978 .5996094 .34098817 .5996094 .34098817 .558609 .34098817 .53660586 .35598756 .51760867 .38198854 .51760867 .40699769 .51760867 .42399598 .53260806 .42399598 .56159976 .42399598 .6137543 .38598634 .66503909 .29899598 .66503909 .17298889 .66503909 .040985109 .53559878 .040985109 .31570436 .040985109 .040527345 .16099549-.021484375 .24598694-.021484375 .35499574-.021484375 .44799806 .07354736 .44799806 .2036438 .44799806 .33673097 .35499574 .42578126 .25498963 .42578126 .1659851 .42578126 .1329956 .34873963 .12298584 .32070924V.34773255M.24598694 .005508423C.18299866 .005508423 .15299988 .061538698 .14399719 .08256531 .1349945 .10858154 .125 .15760803 .125 .22766114 .125 .30670167 .16099549 .40577699 .25099183 .40577699 .30599977 .40577699 .33499146 .3687439 .34999085 .33473207 .3659973 .29769898 .3659973 .2476654 .3659973 .20463562 .3659973 .15361023 .3659973 .10858154 .34700013 .07055664 .32199098 .022521973 .28599549 .005508423 .24598694 .005508423Z"/>
<path id="font_5_2" d="M.28199769 .20405579C.2979889 .21907044 .33999635 .2520752 .35598756 .26608277 .41799928 .32312013 .47698976 .3781433 .47698976 .46917726 .47698976 .588089 .3769989 .66503909 .2519989 .66503909 .13198853 .66503909 .052993776 .57411196 .052993776 .48516847 .052993776 .4361725 .09199524 .4291687 .10598755 .4291687 .1269989 .4291687 .1579895 .4441681 .1579895 .48217774 .1579895 .5341797 .10798645 .5341797 .09599304 .5341797 .125 .6070709 .19198609 .6320343 .24099732 .6320343 .33399964 .6320343 .38198854 .55314639 .38198854 .46917726 .38198854 .36514283 .30899049 .28910829 .19099427 .16804505L.06498718 .037994386C.052993776 .026992798 .052993776 .024993897 .052993776 0H.44799806L.47698976 .17904663H.44599916C.44299317 .1590271 .43499757 .10900879 .4229889 .08999634 .4169922 .08198547 .34098817 .08198547 .32499696 .08198547H.14698792L.28199769 .20405579Z"/>
<path id="font_6_1" d="M.6589966 .23046875C.6759949 .23046875 .69400027 .23046875 .69400027 .25045777 .69400027 .27046205 .6759949 .27046205 .6589966 .27046205H.117996219C.100997928 .27046205 .08299255 .27046205 .08299255 .25045777 .08299255 .23046875 .100997928 .23046875 .117996219 .23046875H.6589966Z"/>
<path id="font_3_6" d="M.43998719 .16790772H.41799928C.4149933 .15092469 .40699769 .09597778 .39698792 .07998657 .3899994 .070999149 .33299256 .070999149 .30299378 .070999149H.117996219C.14498902 .09397888 .20599365 .15792847 .23199463 .18190003 .38398744 .3217926 .43998719 .37374879 .43998719 .47270204 .43998719 .5878906 .34899903 .66503909 .23298645 .66503909 .116989139 .66503909 .04899597 .5658264 .04899597 .4797058 .04899597 .42871095 .09298706 .42871095 .09599304 .42871095 .116989139 .42871095 .14299011 .44371034 .14299011 .475708 .14299011 .5037079 .12399292 .5227051 .09599304 .5227051 .08699036 .5227051 .084991458 .5227051 .08198547 .521698 .100997928 .5899048 .15499878 .6360321 .21998596 .6360321 .30499269 .6360321 .35699464 .56481936 .35699464 .47270204 .35699464 .3877411 .30799867 .313797 .25099183 .24984741L.04899597 .023986817V0H.4139862L.43998719 .16790772Z"/>
<path id="font_3_7" d="M.36099244 .6508026C.36099244 .6697998 .36099244 .6748047 .34700013 .6748047 .33898927 .6748047 .33599855 .6748047 .32798768 .662796L.026992798 .19598389V.16699219H.2899933V.07598877C.2899933 .038986207 .28799439 .0289917 .21499634 .0289917H.19499207V0C.21798706 .0019989014 .29699708 .0019989014 .32499696 .0019989014 .35299684 .0019989014 .43299867 .0019989014 .45599366 0V.0289917H.43598939C.3639984 .0289917 .36099244 .038986207 .36099244 .07598877V.16699219H.46199037V.19598389H.36099244V.6508026M.29499818 .5728302V.19598389H.051986696L.29499818 .5728302Z"/>
<path id="font_3_3" d="M.39898683 .23057556H.6749878C.68899539 .23057556 .70700076 .23057556 .70700076 .24856568 .70700076 .26757813 .6899872 .26757813 .6749878 .26757813H.39898683V.5441437C.39898683 .5581665 .39898683 .5761719 .3809967 .5761719 .3619995 .5761719 .3619995 .5591583 .3619995 .5441437V.26757813H.085998538C.07199097 .26757813 .053985597 .26757813 .053985597 .24957276 .053985597 .23057556 .070999149 .23057556 .085998538 .23057556H.3619995V-.045166017C.3619995-.059158327 .3619995-.07714844 .37998963-.07714844 .39898683-.07714844 .39898683-.060150148 .39898683-.045166017V.23057556Z"/>
<path id="font_3_11" d="M.3659973 .29078675C.3659973 .05493164 .26098634 .005508423 .20098877 .005508423 .1769867 .005508423 .12399292 .008544922 .09899902 .043945314H.10499573C.11199951 .041915895 .147995 .047943117 .147995 .08493042 .147995 .106933597 .1329956 .12593079 .10699463 .12593079 .08099365 .12593079 .06498718 .108932498 .06498718 .08293152 .06498718 .02067566 .114990238-.021484375 .20199585-.021484375 .32699586-.021484375 .44799806 .11193848 .44799806 .32881166 .44799806 .5980072 .33599855 .66503909 .24798584 .66503909 .13798523 .66503909 .040985109 .5729828 .040985109 .44088746 .040985109 .3087921 .13398743 .21875 .23399353 .21875 .30799867 .21875 .34599305 .2727661 .3659973 .32380677V.29078675M.23799134 .23873902C.1749878 .23873902 .147995 .28977967 .13899231 .3087921 .12298584 .34681703 .12298584 .39485169 .12298584 .43988038 .12298584 .4959259 .12298584 .5439606 .14898682 .58499148 .16699219 .6120148 .19400025 .641037 .24798584 .641037 .30499269 .641037 .33399964 .59098818 .34399415 .5679779 .3639984 .51893618 .3639984 .43388368 .3639984 .41886903 .3639984 .33480836 .32598878 .23873902 .23799134 .23873902Z"/>
<path id="font_3_4" d="M.44799806 .31976319C.44799806 .40283204 .44299317 .48390199 .40699769 .55996707 .3659973 .64302065 .2939911 .66503909 .24499512 .66503909 .18699646 .66503909 .115997318 .63601687 .07899475 .552948 .050994874 .48989869 .040985109 .42785646 .040985109 .31976319 .040985109 .22268677 .04798889 .14962769 .083999637 .078567508 .12298584 .0025177003 .19198609-.021484375 .24398804-.021484375 .33099366-.021484375 .3809967 .030532837 .4099884 .08857727 .44599916 .16363526 .44799806 .26171876 .44799806 .31976319M.24398804-.0014953613C.21199036-.0014953613 .14698792 .016525269 .12799073 .12561035 .116989139 .18565369 .116989139 .26171876 .116989139 .33177186 .116989139 .41384889 .116989139 .48789979 .1329956 .5469513 .1499939 .6139984 .20098877 .6450348 .24398804 .6450348 .28199769 .6450348 .33999635 .6220093 .35899354 .53593447 .37199403 .4788971 .37199403 .39982606 .37199403 .33177186 .37199403 .26472474 .37199403 .18865967 .36099244 .12760926 .34199525 .01751709 .2789917-.0014953613 .24398804-.0014953613Z"/>
<path id="font_3_10" d="M.2979889 .36079408C.34799195 .38781739 .42099 .43385316 .42099 .5179291 .42099 .6049957 .33699037 .66503909 .24499512 .66503909 .1459961 .66503909 .067993167 .59199526 .067993167 .5009155 .067993167 .46688844 .07798767 .43286134 .10598755 .39883424 .116989139 .38581849 .117996219 .38482667 .18798828 .3357849 .09098816 .29074098 .040985109 .22369385 .040985109 .15063477 .040985109 .044540407 .14199829-.021484375 .24398804-.021484375 .35499574-.021484375 .44799806 .060546876 .44799806 .16563416 .44799806 .2677307 .37599183 .3127594 .2979889 .36079408M.1619873 .4508667C.14898682 .45988465 .10899353 .48590089 .10899353 .5349426 .10899353 .59999087 .1769867 .641037 .24398804 .641037 .31599427 .641037 .37998963 .58898928 .37998963 .516922 .37998963 .45587159 .33599855 .4068451 .27799989 .3748169L.1619873 .4508667M.20899964 .32176209 .32998658 .2427063C.35598756 .22569275 .4019928 .19465637 .4019928 .13360596 .4019928 .057556154 .32499696 .005508423 .24499512 .005508423 .1599884 .005508423 .08699036 .06756592 .08699036 .15063477 .08699036 .22869873 .14399719 .29174806 .20899964 .32176209Z"/>
<path id="font_3_12" d="M.6749878 .32421876C.68899539 .32421876 .70700076 .32421876 .70700076 .34220887 .70700076 .36120606 .6899872 .36120606 .6749878 .36120606H.085998538C.07199097 .36120606 .053985597 .36120606 .053985597 .34321595 .053985597 .32421876 .070999149 .32421876 .085998538 .32421876H.6749878M.6749878 .13780213C.68899539 .13780213 .70700076 .13780213 .70700076 .15579224 .70700076 .17480469 .6899872 .17480469 .6749878 .17480469H.085998538C.07199097 .17480469 .053985597 .17480469 .053985597 .15679932 .053985597 .13780213 .070999149 .13780213 .085998538 .13780213H.6749878Z"/>
<path id="font_3_1" d="M.32499696-.24298096C.32499696-.23999024 .32499696-.23799134 .30799867-.22097779 .20799256-.11997986 .1519928 .045013429 .1519928 .24900818 .1519928 .44299317 .19898987 .60998538 .31498719 .7279968 .32499696 .7369995 .32499696 .7389984 .32499696 .74198916 .32499696 .74798586 .31999208 .75 .31599427 .75 .30299378 .75 .22099304 .6779938 .17199707 .5799866 .12098694 .47898866 .09799194 .37199403 .09799194 .24900818 .09799194 .16000366 .11199951 .041015626 .1639862-.06599426 .22299195-.18598938 .30499269-.25097657 .31599427-.25097657 .31999208-.25097657 .32499696-.24897766 .32499696-.24298096Z"/>
<path id="font_3_2" d="M.28199769 .24900818C.28199769 .32499696 .27198792 .44898988 .21598816 .5649872 .15699768 .68499758 .07499695 .75 .06399536 .75 .05999756 .75 .054992677 .74798586 .054992677 .74198916 .054992677 .7389984 .054992677 .7369995 .07199097 .71998599 .17199707 .61898806 .22799683 .45399476 .22799683 .25 .22799683 .056015016 .18099976-.11099243 .06498718-.22898865 .054992677-.23799134 .054992677-.23999024 .054992677-.24298096 .054992677-.24897766 .05999756-.25097657 .06399536-.25097657 .07699585-.25097657 .15899658-.1789856 .20799256-.08099365 .25898744 .021011353 .28199769 .12901306 .28199769 .24900818Z"/>
</defs>
<path transform="matrix(1,0,0,-1,176.146,224.26999)" stroke-width=".79701" stroke-linecap="round" stroke-dasharray="2.98883,2.98883" stroke-linejoin="round" fill="none" stroke="#000000" d="M-170.08042 0H201.50623"/>
<path transform="matrix(1,0,0,-1,377.65223,224.26999)" d="M2.59026 0-1.55415 2.0722 0 0-1.55415-2.0722"/>
<use data-text="x" xlink:href="#font_1_1" transform="matrix(11.9552,0,0,-11.9552,383.96199,226.844)"/>
<path transform="matrix(1,0,0,-1,176.146,224.26999)" stroke-width=".79701" stroke-linecap="round" stroke-dasharray="2.98883,2.98883" stroke-linejoin="round" fill="none" stroke="#000000" d="M0-170.08042V201.50623"/>
<path transform="matrix(0,-1,-1,-0,176.146,22.763764)" d="M2.59026 0-1.55415 2.0722 0 0-1.55415-2.0722"/>
<use data-text="y" xlink:href="#font_1_2" transform="matrix(11.9552,0,0,-11.9552,173.078,14.12999)"/>
<use data-text="O" xlink:href="#font_2_80" transform="matrix(11.9552,0,0,-11.9552,163.51599,220.499)"/>
<path transform="matrix(1,0,0,-1,176.146,224.26999)" stroke-width=".79701" stroke-linecap="round" stroke-linejoin="round" fill="none" stroke="#000000" d="M51.02411 0C51.02411 16.05792 43.45876 31.18391 30.6132 40.81789"/>
<use data-text="t" xlink:href="#font_3_15" transform="matrix(11.9552,0,0,-11.9552,227.492,204.314)"/>
<use data-text="a" xlink:href="#font_3_13" transform="matrix(11.9552,0,0,-11.9552,232.03498,204.314)"/>
<use data-text="n" xlink:href="#font_3_14" transform="matrix(11.9552,0,0,-11.9552,237.88108,204.314)"/>
<use data-text="&#x2212;" xlink:href="#font_4_1" transform="matrix(7.9701,0,0,-7.9701,244.401,199.97498)"/>
<use data-text="1" xlink:href="#font_5_1" transform="matrix(7.9701,0,0,-7.9701,250.987,199.97498)"/>
<use data-text="4" xlink:href="#font_5_4" transform="matrix(7.9701,0,0,-7.9701,256.91499,199.607)"/>
<path transform="matrix(1,0,0,-1,123.34599,52.038995)" stroke-width=".4782" stroke-linecap="butt" stroke-linejoin="round" fill="none" stroke="#000000" d="M133.569-149.286H137.803"/>
<use data-text="3" xlink:href="#font_5_3" transform="matrix(7.9701,0,0,-7.9701,256.91499,208.436)"/>
<path transform="matrix(1,0,0,-1,176.146,224.26999)" stroke-width=".79701" stroke-linecap="round" stroke-linejoin="round" fill="none" stroke="#000000" d="M0 51.02411C-16.05792 51.02411-31.18391 43.45876-40.81789 30.6132"/>
<use data-text="t" xlink:href="#font_3_15" transform="matrix(11.9552,0,0,-11.9552,112.765,168.80199)"/>
<use data-text="a" xlink:href="#font_3_13" transform="matrix(11.9552,0,0,-11.9552,117.30797,168.80199)"/>
<use data-text="n" xlink:href="#font_3_14" transform="matrix(11.9552,0,0,-11.9552,123.15407,168.80199)"/>
<use data-text="&#x2212;" xlink:href="#font_4_1" transform="matrix(7.9701,0,0,-7.9701,129.674,164.46298)"/>
<use data-text="1" xlink:href="#font_5_1" transform="matrix(7.9701,0,0,-7.9701,136.26,164.46298)"/>
<use data-text="4" xlink:href="#font_5_4" transform="matrix(7.9701,0,0,-7.9701,142.18799,164.09499)"/>
<path transform="matrix(1,0,0,-1,8.618992,16.526997)" stroke-width=".4782" stroke-linecap="butt" stroke-linejoin="round" fill="none" stroke="#000000" d="M133.569-149.286H137.803"/>
<use data-text="3" xlink:href="#font_5_3" transform="matrix(7.9701,0,0,-7.9701,142.18799,172.924)"/>
<path transform="matrix(1,0,0,-1,176.146,224.26999)" stroke-width=".79701" stroke-linecap="round" stroke-linejoin="round" fill="none" stroke="#0000ff" d="M-81.63374-108.84732 120.89656 161.1988"/>
<path transform="matrix(.59996,-.79999,-.79999,-.59996,297.04255,63.071199)" d="M2.59026 0-1.55415 2.0722 0 0-1.55415-2.0722" fill="#0000ff"/>
<use data-text="x" xlink:href="#font_1_1" transform="matrix(11.9552,0,0,-11.9552,302.31599,65.38199)" fill="#0000ff"/>
<use data-text="&#x2032;" xlink:href="#font_4_3" transform="matrix(7.9701,0,0,-7.9701,308.968,61.042985)" fill="#0000ff"/>
<path transform="matrix(1,0,0,-1,176.146,224.26999)" stroke-width=".79701" stroke-linecap="round" stroke-linejoin="round" fill="none" stroke="#0000ff" d="M136.05915-102.04218-133.98699 100.48813"/>
<path transform="matrix(-.79999,-.59996,-.59996,.79999,42.159029,123.78186)" d="M2.59026 0-1.55415 2.0722 0 0-1.55415-2.0722" fill="#0000ff"/>
<use data-text="y" xlink:href="#font_1_2" transform="matrix(11.9552,0,0,-11.9552,35.621004,116.18399)" fill="#0000ff"/>
<use data-text="&#x2032;" xlink:href="#font_4_3" transform="matrix(7.9701,0,0,-7.9701,41.758005,111.844989)" fill="#0000ff"/>
<use data-text="O" xlink:href="#font_2_80" transform="matrix(11.9552,0,0,-11.9552,179.66599,236.556)" fill="#0000ff"/>
<use data-text="&#x2032;" xlink:href="#font_4_3" transform="matrix(7.9701,0,0,-7.9701,188.776,232.21698)" fill="#0000ff"/>
<path transform="matrix(1,0,0,-1,176.146,224.26999)" stroke-width="1.59404" stroke-linecap="round" stroke-linejoin="round" fill="none" stroke="#ff0000" d="M190.48107 27.21356C190.48107 27.21356 174.34978 19.3579 168.37192 16.63101 162.39405 13.90416 153.05985 9.86763 147.39662 7.5603 141.73339 5.25296 132.90378 1.8892 127.55518 .00139 122.20659-1.88638 113.88158-4.57733 108.84756-6.04568 103.81354-7.51402 95.99284-9.53255 91.27348-10.58136 86.55411-11.6302 79.23822-12.97556 74.83351-13.60484 70.42879-14.23413 63.61728-14.90701 59.5271-15.1169 55.4369-15.3268 49.12975-15.32721 45.35422-15.11757 41.57866-14.90793 35.77637-14.23515 32.31546-13.60599 28.85457-12.97684 23.55652-11.63171 20.41025-10.58304 17.26396-9.53435 12.4708-7.51604 9.63918-6.04782 6.80753-4.57962 2.51872-1.88885 .00163-.00122-2.51541 1.88638-6.2999 5.2496-8.50235 7.55672-10.70482 9.86383-13.9844 13.90028-15.87224 16.62692-17.76006 19.35358-20.53532 24.06245-22.10857 27.20856-23.6818 30.35466-25.95247 35.73637-27.21107 39.302-28.46968 42.86761-30.23578 48.9221-31.17976 52.90726-32.12372 56.8924-33.38522 63.61969-34.01459 68.02432-34.64397 72.42896-35.40111 79.82872-35.71588 84.65279-36.03067 89.47687-36.28322 97.54945-36.28337 102.79306-36.28351 108.03667-36.0315 116.78201-35.71701 122.44514-35.40253 128.10828-34.64589 137.52648-34.01682 143.60907-33.38773 149.69167-32.12682 159.78224-31.18309 166.28437-30.23938 172.78649-27.21523 190.47193-27.21523 190.47193"/>
<path transform="matrix(1,0,0,-1,176.146,224.26999)" stroke-width=".79701" stroke-linecap="round" stroke-linejoin="round" fill="none" stroke="#000000" d="M1.79317 2.39096C.47267 3.3813-1.4006 3.11368-2.39096 1.79317-3.3813 .47267-3.11368-1.4006-1.79317-2.39096-.47267-3.3813 1.4006-3.11368 2.39096-1.79317 3.3813-.47267 3.11368 1.4006 1.79317 2.39096ZM0 0"/>
<use data-text="1" xlink:href="#font_3_5" transform="matrix(11.9552,0,0,-11.9552,153.997,432.24)" fill="#ff0000"/>
<use data-text="6" xlink:href="#font_3_9" transform="matrix(11.9552,0,0,-11.9552,159.84308,432.24)" fill="#ff0000"/>
<use data-text="x" xlink:href="#font_1_1" transform="matrix(11.9552,0,0,-11.9552,165.703,432.24)" fill="#ff0000"/>
<use data-text="2" xlink:href="#font_5_2" transform="matrix(7.9701,0,0,-7.9701,172.355,427.30299)" fill="#ff0000"/>
<use data-text="&#x2212;" xlink:href="#font_6_1" transform="matrix(11.9552,0,0,-11.9552,179.74399,432.24)" fill="#ff0000"/>
<use data-text="2" xlink:href="#font_3_6" transform="matrix(11.9552,0,0,-11.9552,191.699,432.24)" fill="#ff0000"/>
<use data-text="4" xlink:href="#font_3_7" transform="matrix(11.9552,0,0,-11.9552,197.5451,432.24)" fill="#ff0000"/>
<use data-text="x" xlink:href="#font_1_1" transform="matrix(11.9552,0,0,-11.9552,203.405,432.24)" fill="#ff0000"/>
<use data-text="y" xlink:href="#font_1_2" transform="matrix(11.9552,0,0,-11.9552,210.0521,432.24)" fill="#ff0000"/>
<use data-text="+" xlink:href="#font_3_3" transform="matrix(11.9552,0,0,-11.9552,218.85099,432.24)" fill="#ff0000"/>
<use data-text="9" xlink:href="#font_3_11" transform="matrix(11.9552,0,0,-11.9552,230.60294,432.24)" fill="#ff0000"/>
<use data-text="y" xlink:href="#font_1_2" transform="matrix(11.9552,0,0,-11.9552,236.465,432.24)" fill="#ff0000"/>
<use data-text="2" xlink:href="#font_5_2" transform="matrix(7.9701,0,0,-7.9701,242.60199,427.30299)" fill="#ff0000"/>
<use data-text="&#x2212;" xlink:href="#font_6_1" transform="matrix(11.9552,0,0,-11.9552,249.99097,432.24)" fill="#ff0000"/>
<use data-text="6" xlink:href="#font_3_9" transform="matrix(11.9552,0,0,-11.9552,261.94599,432.24)" fill="#ff0000"/>
<use data-text="0" xlink:href="#font_3_4" transform="matrix(11.9552,0,0,-11.9552,267.79209,432.24)" fill="#ff0000"/>
<use data-text="x" xlink:href="#font_1_1" transform="matrix(11.9552,0,0,-11.9552,273.65199,432.24)" fill="#ff0000"/>
<use data-text="&#x2212;" xlink:href="#font_6_1" transform="matrix(11.9552,0,0,-11.9552,282.95997,432.24)" fill="#ff0000"/>
<use data-text="8" xlink:href="#font_3_10" transform="matrix(11.9552,0,0,-11.9552,294.91596,432.24)" fill="#ff0000"/>
<use data-text="0" xlink:href="#font_3_4" transform="matrix(11.9552,0,0,-11.9552,300.76206,432.24)" fill="#ff0000"/>
<use data-text="y" xlink:href="#font_1_2" transform="matrix(11.9552,0,0,-11.9552,306.62196,432.24)" fill="#ff0000"/>
<use data-text="=" xlink:href="#font_3_12" transform="matrix(11.9552,0,0,-11.9552,316.07896,432.24)" fill="#ff0000"/>
<use data-text="0" xlink:href="#font_3_4" transform="matrix(11.9552,0,0,-11.9552,328.48844,432.24)" fill="#ff0000"/>
<use data-text="(" xlink:href="#font_3_1" transform="matrix(11.9552,0,0,-11.9552,217.26999,465.92399)" fill="#ff0000"/>
<use data-text="y" xlink:href="#font_1_2" transform="matrix(11.9552,0,0,-11.9552,221.82199,465.92399)" fill="#ff0000"/>
<use data-text="&#x2032;" xlink:href="#font_4_3" transform="matrix(7.9701,0,0,-7.9701,227.959,460.987)" fill="#ff0000"/>
<use data-text=")" xlink:href="#font_3_2" transform="matrix(11.9552,0,0,-11.9552,230.754,465.92399)" fill="#ff0000"/>
<use data-text="2" xlink:href="#font_5_2" transform="matrix(7.9701,0,0,-7.9701,235.306,460.987)" fill="#ff0000"/>
<use data-text="=" xlink:href="#font_3_12" transform="matrix(11.9552,0,0,-11.9552,243.36,465.92399)" fill="#ff0000"/>
<use data-text="4" xlink:href="#font_3_7" transform="matrix(11.9552,0,0,-11.9552,255.7695,465.92399)" fill="#ff0000"/>
<use data-text="x" xlink:href="#font_1_1" transform="matrix(11.9552,0,0,-11.9552,261.638,465.92399)" fill="#ff0000"/>
<use data-text="&#x2032;" xlink:href="#font_4_3" transform="matrix(7.9701,0,0,-7.9701,268.28999,460.987)" fill="#ff0000"/>
</svg>
