<svg xmlns="http://www.w3.org/2000/svg" xmlns:xlink="http://www.w3.org/1999/xlink" xmlns:inkscape="http://www.inkscape.org/namespaces/inkscape" version="1.1" width="361" height="724" viewBox="0 0 361 724">
<defs>
<clipPath id="clip_1">
<path transform="matrix(1,0,0,-1,-115,766)" d="M0 0H595.28V841.89H0Z"/>
</clipPath>
<path id="font_2_2520" d="M.30499269 .28834535 .2849884 .3433838C.272995 .3764038 .2539978 .41740418 .20999146 .44140626L.07798767 .4084015 .08099365 .39039613C.09098816 .39439393 .10598755 .39639283 .11898804 .39639283 .17399597 .39639283 .19999695 .35539247 .21699524 .3073578L.25 .21530152 .18499756 .11424255C.15299988 .065216068 .1269989 .0552063 .114990238 .0552063 .08999634 .0552063 .09399414 .07521057 .067993167 .07521057 .042999269 .07521057 .02999878 .05419922 .02999878 .038208009 .02999878 .016204834 .04598999-.0087890629 .08198547-.0087890629 .13798523-.0087890629 .16699219 .034210206 .19898987 .083221439L.2619934 .18127442 .3019867 .06820679C.31498719 .032196046 .33399964-.0087890629 .375-.0087890629 .43299867-.0087890629 .47799684 .08721924 .48999024 .10223389L.47599793 .11224365C.45498658 .06921387 .43099977 .0552063 .4149933 .0552063 .36999513 .0552063 .34700013 .19029236 .31698609 .25231935L.37199403 .33737184C.38598634 .35939027 .39698792 .37539674 .4269867 .37539674 .44400025 .37539674 .44898988 .36639405 .47099305 .36639405 .49699403 .36639405 .5099945 .3894043 .5099945 .4084015 .5099945 .42939759 .49299623 .44140626 .46099855 .44140626 .41099549 .44140626 .37599183 .3973999 .34999085 .35739137L.30499269 .28834535Z"/>
<path id="font_2_2521" d="M.269989 .30682374C.26098634 .38082887 .2539978 .40682984 .23098755 .4398346L.08099365 .41482545 .08299255 .39883424C.09199524 .39982606 .10798645 .40283204 .11898804 .40283204 .1749878 .40283204 .18399048 .34283448 .18899536 .2978363L.22698975-.016174317C.20098877-.056167604 .14399719-.11816406 .1269989-.11816406 .11099243-.11816406 .11299133-.08717346 .069992069-.08717346 .056991579-.08717346 .02999878-.09817505 .02999878-.12817383 .02999878-.1521759 .04899597-.1831665 .085998538-.1831665 .1539917-.1831665 .21899414-.08517456 .2919922 .0068359377 .33399964 .059829713 .49598695 .2998352 .49598695 .37782289 .49598695 .41682435 .47099305 .4398346 .43899537 .4398346 .4099884 .4398346 .3919983 .42182923 .3919983 .39982606 .3919983 .36183167 .44400025 .3518219 .44400025 .3308258 .44400025 .3128357 .43598939 .29283143 .41600038 .25582887 .3939972 .21482849 .35899354 .15483094 .2979889 .07182312L.269989 .30682374Z"/>
<path id="font_3_48" d="M.6879883 .33103944C.6879883 .5288696 .5569916 .67578127 .36099244 .67578127 .1659851 .67578127 .033996583 .53686526 .033996583 .3340454 .033996583 .1262207 .16699219-.013671875 .36099244-.013671875 .5529938-.013671875 .6879883 .12522888 .6879883 .33103944M.57398989 .33703614C.57398989 .21714783 .54599 .12322998 .4909973 .07028198 .45599366 .03730774 .4119873 .022323609 .3619995 .022323609 .31599427 .022323609 .27198792 .03630066 .23799134 .067276 .1769867 .12322998 .147995 .21315003 .147995 .3320465 .147995 .42695619 .17399597 .52388 .21699524 .5728302 .2559967 .6177826 .30599977 .6397705 .3600006 .6397705 .40699769 .6397705 .44699098 .6227875 .48298646 .59280398 .5399933 .54486086 .57398989 .450943 .57398989 .33703614Z"/>
<path id="font_2_2469" d="M.48399354 0V.023986817C.46798707 .0289917 .46099855 .032989503 .45399476 .04399109L.30599977 .2719574 .40699769 .39793397C.42599488 .42092896 .44599916 .43193055 .47698976 .43693543V.4609375H.30899049V.43693543L.32899476 .43493653C.35198976 .43293763 .3600006 .42793275 .3600006 .41293336 .3600006 .39793397 .34899903 .38394166 .32199098 .348938L.28599549 .302948C.28199769 .3089447 .2769928 .31495667 .272995 .3199463 .23999024 .36294557 .21499634 .40493775 .21499634 .41793824 .21499634 .42993165 .22898865 .43592835 .2619934 .43693543V.4609375H.011993408V.43693543C.037994386 .43293763 .04399109 .42793275 .06399536 .39793397L.19198609 .20095825C.1769867 .18296814 .18499756 .19197083 .16999817 .17297364 .15499878 .15397644 .14099121 .13597107 .1269989 .11697388 .070999149 .041992189 .050994874 .025985718 .01399231 .023986817V0H.18299866V.023986817C.14698792 .025985718 .1329956 .032989503 .1329956 .04798889 .1329956 .0639801 .1579895 .10397339 .19699097 .15097046 .20298767 .15797425 .20799256 .16497803 .21299744 .17097473 .22599793 .14997864 .23999024 .12898255 .25498963 .10798645 .2789917 .07298279 .28799439 .055984498 .28799439 .04399109 .28799439 .03199768 .2749939 .025985718 .24299622 .023986817V0H.48399354Z"/>
<path id="font_2_3368" d="M.47799684 .21099854H.45298768C.4269867 .13899231 .4039917 .1329956 .2999878 .1329956H.1599884L.32199098 .2869873C.40098573 .3619995 .43598939 .42900086 .43598939 .5049896 .43598939 .6179962 .3619995 .6879883 .2539978 .6879883 .1539917 .6879883 .07798767 .6239929 .0309906 .48399354H.05899048C.08999634 .54599 .1329956 .57398989 .18099976 .57398989 .2599945 .57398989 .2999878 .5149994 .2999878 .44699098 .2999878 .40299989 .2809906 .34799195 .24899292 .29899598 .19799805 .22099304 .16299439 .1789856 .016998291 .022994996V0H.43199159L.47799684 .21099854Z"/>
<path id="font_2_44" d="M.6359863 .22012329V.2861328H.375V.54711917H.30899049V.2861328H.04798889V.22012329H.30899049V-.040878297H.375V.22012329H.6359863Z"/>
<path id="font_2_3370" d="M.47599793 .14399719V.25498963H.4119873V.6879883H.33198548L.018997193 .25698854V.14399719H.2669983V0H.4119873V.14399719H.47599793M.2679901 .25498963H.05999756L.2679901 .548996V.25498963Z"/>
<path id="font_2_2470" d="M.48199464 .4609375H.32998658V.43693543C.37298585 .43493653 .38398744 .42793275 .38398744 .40393067 .38398744 .39193727 .38198854 .38093568 .37298585 .3549347L.30499269 .16693115 .23298645 .3529358C.22200012 .38093568 .21299744 .40693666 .21299744 .41093446 .21299744 .42593385 .22399903 .43392945 .24899292 .43592835L.2649994 .43693543V.4609375H.015991211V.43693543C.037994386 .43392945 .04399109 .43093873 .049987794 .42292787 .05899048 .41093446 .09700012 .3269348 .116989139 .27693177L.23599243-.013076782 .21798706-.066085819C.20098877-.11608887 .17599488-.14808655 .1519928-.14808655 .14299011-.14808655 .1349945-.14009094 .1349945-.13108826 .1349945-.13108826 .1349945-.12808228 .13598633-.12509156 .13699341-.12008667 .13798523-.11508179 .13798523-.111083988 .13798523-.08207703 .11199951-.05908203 .07798767-.05908203 .039993287-.05908203 .015991211-.08808899 .015991211-.12608338 .015991211-.17308045 .055999757-.20507813 .11299133-.20507813 .14698792-.20507813 .17599488-.1940918 .19699097-.17208863 .21798706-.14907837 .23899842-.110076908 .27398683-.016082764L.42199708 .3819275C.43798829 .42492677 .45098878 .43293763 .48199464 .43693543V.4609375Z"/>
<path id="font_2_62" d="M.6369934 .31973268V.3857422H.04798889V.31973268H.6369934M.6369934 .12011719V.18611145H.04798889V.12011719H.6369934Z"/>
<path id="font_2_3366" d="M.47599793 .33721925C.47599793 .5031891 .4119873 .6881561 .25299073 .6881561 .08198547 .6881561 .023986817 .49717713 .023986817 .33422853 .023986817 .12626648 .11999512-.0126953129 .25099183-.0126953129 .3809967-.0126953129 .47599793 .12626648 .47599793 .33721925M.31799317 .22424317C.31799317 .075286868 .30099488 .015304565 .25099183 .015304565 .20098877 .015304565 .18199158 .075286868 .18199158 .22424317V.44918824C.18199158 .6011658 .19999695 .66015627 .24899292 .66015627 .2979889 .66015627 .31799317 .5961609 .31799317 .44918824V.22424317Z"/>
<path id="font_2_41" d="M.3039856-.16122437C.1639862-.04423523 .13398743 .06877136 .13398743 .254776 .13398743 .44776917 .16499329 .5407715 .3039856 .6597748L.29499818 .67578127C.1349945 .58078 .04798889 .43676759 .04798889 .25177003 .04798889 .08177185 .13398743-.0872345 .2919922-.17723084L.3039856-.16122437Z"/>
<path id="font_2_50" d="M.3939972 0V.01499939C.31900025 .01499939 .29899598 .032989503 .29899598 .07597351V.67277529L.2899933 .67578127 .11099243 .5847931V.5708008L.13798523 .5807953C.1559906 .5877991 .17298889 .59280398 .18299866 .59280398 .20399475 .59280398 .21299744 .57780459 .21299744 .543808V.0949707C.21299744 .039978029 .19198609 .018997193 .117996219 .01499939V0H.3939972Z"/>
<path id="font_2_45" d="M.08299255-.14086914C.1519928-.10786438 .19499207-.04486084 .19499207 .015136719 .19499207 .06713867 .1599884 .102127078 .114990238 .102127078 .07899475 .102127078 .054992677 .07913208 .054992677 .045135499 .054992677 .011138916 .07598877-.005859375 .11299133-.005859375 .12399292-.0059661867 .13398743-.001953125 .14199829-.001953125 .1499939-.001953125 .1559906-.007965088 .1559906-.014953613 .1559906-.047958375 .12799073-.08496094 .07299805-.1219635L.08299255-.14086914Z"/>
<path id="font_2_1151" d="M.62098696 .22012329V.2861328H.06399536V.22012329H.62098696Z"/>
<path id="font_2_42" d="M.0289917 .6597748C.17399597 .54577639 .19898987 .43077088 .19898987 .24377442 .19898987 .04977417 .17098999-.04423523 .0289917-.16122437L.037994386-.17723084C.19699097-.08023071 .2849884 .061767579 .2849884 .24676514 .2849884 .41677857 .19400025 .58377078 .040985109 .67578127L.0289917 .6597748Z"/>
<path id="font_2_49" d="M.47599793 .3300476C.47599793 .53486636 .3849945 .67578127 .2539978 .67578127 .09298706 .67578127 .023986817 .5128937 .023986817 .3360443 .023986817 .17218018 .07899475-.013671875 .25-.013671875 .41299439-.013671875 .47599793 .15818787 .47599793 .3300476M.37998963 .32505799C.37998963 .12722779 .33499146 .012313843 .25 .012313843 .1639862 .012313843 .11999512 .1262207 .11999512 .32904054 .11999512 .5318756 .16499329 .6497803 .24798584 .6497803 .33599855 .6497803 .37998963 .53286746 .37998963 .32505799Z"/>
<path id="font_2_47" d="M.18099976 .04324341C.18099976 .07325745 .15499878 .100250247 .12599182 .100250247 .09498596 .100250247 .069992069 .07525635 .069992069 .04425049 .069992069 .013244629 .09399414-.0107421879 .125-.0107421879 .15499878-.0107421879 .18099976 .014251709 .18099976 .04324341Z"/>
<path id="font_2_51" d="M.47399903 .13696289 .45999146 .1429596C.4269867 .08699036 .4059906 .07598877 .3639984 .07598877H.12998963L.29499818 .2519226C.38398744 .34588624 .4229889 .42085267 .4229889 .4998169 .4229889 .59877017 .35099793 .67578127 .23799134 .67578127 .114990238 .67578127 .050994874 .5937805 .02999878 .4768219L.050994874 .47183229C.09098816 .5697937 .12599182 .6017761 .19799805 .6017761 .2829895 .6017761 .33699037 .55178835 .33699037 .4608307 .33699037 .37586976 .30099488 .29989625 .20698548 .200943L.0289917 .011993408V0H.41999818L.47399903 .13696289Z"/>
<path id="font_2_54" d="M.43798829 .68110659 .42900086 .6880951C.41299439 .667099 .4039917 .6621094 .3809967 .6621094H.17399597L.06498718 .4251709C.06498718 .4251709 .06399536 .42216493 .06399536 .42016603 .06399536 .4141693 .066986087 .4121704 .07598877 .4121704 .17199707 .4121704 .24198914 .380188 .2889862 .3421936 .33399964 .30621339 .35598756 .2562256 .35598756 .19226074 .35598756 .106292728 .29100038 .02331543 .22099304 .02331543 .20098877 .02331543 .17799378 .032318117 .1499939 .05531311 .117996219 .08129883 .09899902 .08630371 .07598877 .08630371 .04798889 .08630371 .0309906 .07330322 .0309906 .048309328 .0309906 .010314941 .08299255-.013671875 .1579895-.013671875 .22599793-.013671875 .2809906 .0013275147 .32798768 .035308839 .3959961 .08529663 .42599488 .14727783 .42599488 .24324036 .42599488 .29621888 .4169922 .334198 .3909912 .37019349 .33399964 .4491577 .28399659 .47114564 .14099121 .49813844L.18099976 .58309939H.375C.3909912 .58309939 .39898683 .58909609 .4019928 .59609988L.43798829 .68110659Z"/>
<path id="font_3_19" d="M.47399903 .13696289 .45999146 .1429596C.4269867 .08699036 .4059906 .07598877 .3639984 .07598877H.12998963L.29499818 .2519226C.38398744 .34588624 .4229889 .42085267 .4229889 .4998169 .4229889 .59877017 .35099793 .67578127 .23799134 .67578127 .114990238 .67578127 .050994874 .5937805 .02999878 .4768219L.050994874 .47183229C.09098816 .5697937 .12599182 .6017761 .19799805 .6017761 .2829895 .6017761 .33699037 .55178835 .33699037 .4608307 .33699037 .37586976 .30099488 .29989625 .20698548 .200943L.0289917 .011993408V0H.41999818L.47399903 .13696289Z"/>
</defs>
<g clip-path="url(#clip_1)">
<path transform="matrix(1,0,0,-1,128.104,96.96499)" stroke-width=".79701" stroke-linecap="butt" stroke-miterlimit="10" stroke-linejoin="miter" fill="none" stroke="#000000" d="M-127.56065 0H208.49076"/>
<path transform="matrix(1,0,0,-1,334.12968,96.96499)" d="M5.44046 0 1.28699 1.5706 2.66432 0 1.28699-1.5706Z"/>
<path transform="matrix(1,0,0,-1,334.12968,96.96499)" stroke-width=".79701" stroke-linecap="butt" stroke-miterlimit="10" stroke-linejoin="miter" fill="none" stroke="#000000" d="M5.44046 0 1.28699 1.5706 2.66432 0 1.28699-1.5706Z"/>
<use data-text="&#x1d465;" xlink:href="#font_2_2520" transform="matrix(11.9552,0,0,-11.9552,345.088,99.54699)"/>
<path transform="matrix(1,0,0,-1,128.104,96.96499)" stroke-width=".79701" stroke-linecap="butt" stroke-miterlimit="10" stroke-linejoin="miter" fill="none" stroke="#000000" d="M0-127.56065V80.93008"/>
<path transform="matrix(0,-1,-1,-0,128.104,18.499993)" d="M5.44046 0 1.28699 1.5706 2.66432 0 1.28699-1.5706Z"/>
<path transform="matrix(0,-1,-1,-0,128.104,18.499993)" stroke-width=".79701" stroke-linecap="butt" stroke-miterlimit="10" stroke-linejoin="miter" fill="none" stroke="#000000" d="M5.44046 0 1.28699 1.5706 2.66432 0 1.28699-1.5706Z"/>
<use data-text="&#x1d466;" xlink:href="#font_2_2521" transform="matrix(11.9552,0,0,-11.9552,125.13901,5.3539888)"/>
<use data-text="O" xlink:href="#font_3_48" transform="matrix(11.9552,0,0,-11.9552,115.284008,109.42599)"/>
<path transform="matrix(1,0,0,-1,128.104,96.96499)" stroke-width="1.59404" stroke-linecap="butt" stroke-miterlimit="10" stroke-linejoin="miter" fill="none" stroke="#ff0000" d="M-106.30054-107.6293-103.29462-105.02368-100.2887-102.47324-97.28278-99.97597-94.27684-97.53192-91.27092-95.14105-88.265-92.8034-85.25908-90.51895-82.25316-88.28772-79.24724-86.10707-76.2413-83.98222-73.23538-81.90994-70.22945-79.89084-67.22354-77.92497-64.21762-76.01228-61.21169-74.1528-58.20576-72.34587-55.19984-70.59085-52.19392-68.89096-49.188-67.24365-46.18207-65.64954-43.17615-64.10863-40.17023-62.6209-37.1643-61.18639-34.15839-59.80443-31.15247-58.47502-28.14653-57.19948-25.14061-55.97777-22.13467-54.80861-19.12877-53.69267-16.12285-52.62927-13.11691-51.61972-10.111-50.66338-7.10507-49.75894-4.09915-48.90836-1.09323-48.11162 1.91267-47.36745 4.9186-46.67647 7.92451-46.03804 10.93045-45.45346 13.93636-44.9221 16.94228-44.44263 19.94821-44.01765 22.95413-43.64523 25.96007-43.32602 28.96597-43.06003 31.9719-42.84721 34.97783-42.68695 37.98375-42.58055 40.98967-42.52669 43.99559-42.52605 47.00151-42.5786 50.00745-42.68436 53.01337-42.84332 56.01929-43.05548 59.02522-43.32019 62.03113-43.63875 65.03705-44.01051 68.04298-44.43484 71.0489-44.91235 74.05484-45.44308 77.06075-46.02701 80.06667-46.66348 83.0726-47.35382 86.07852-48.09735 89.08444-48.89409 92.09036-49.74338 95.09628-50.64587 98.10222-51.60156 101.10814-52.61046 104.11406-53.6719 107.12-54.7872 110.1259-55.95634 113.13182-57.17741 116.13776-58.45166 119.14368-59.77913 122.14961-61.15979 125.15552-62.59366 128.16144-64.0807 131.16738-65.62033 134.1733-67.2151 137.17922-68.86113 140.18514-70.56035 143.19106-72.31277 146.19699-74.11841 149.20291-75.97725 152.20883-77.88864 155.21477-79.85387 158.22068-81.87361 161.22661-83.94458 164.23253-86.06879 167.23845-88.24619 170.24439-90.47679 173.25029-92.76057 176.25621-95.09694 179.26215-97.48715 182.26807-99.93185 185.274-102.42847 188.27993-104.97762 191.28583-107.57999"/>
<use data-text="&#x1d431;" xlink:href="#font_2_2469" transform="matrix(11.9552,0,0,-11.9552,277.743,217.89099)" fill="#ff0000"/>
<use data-text="&#x1d7d0;" xlink:href="#font_2_3368" transform="matrix(8.9664,0,0,-8.9664,283.96003,213.109)" fill="#ff0000"/>
<use data-text="+" xlink:href="#font_2_44" transform="matrix(11.9552,0,0,-11.9552,291.59803,217.89099)" fill="#ff0000"/>
<use data-text="&#x1d7d2;" xlink:href="#font_2_3370" transform="matrix(11.9552,0,0,-11.9552,302.44139,217.89099)" fill="#ff0000"/>
<use data-text="&#x1d431;" xlink:href="#font_2_2469" transform="matrix(11.9552,0,0,-11.9552,308.41899,217.89099)" fill="#ff0000"/>
<use data-text="+" xlink:href="#font_2_44" transform="matrix(11.9552,0,0,-11.9552,317.28974,217.89099)" fill="#ff0000"/>
<use data-text="&#x1d7d2;" xlink:href="#font_2_3370" transform="matrix(11.9552,0,0,-11.9552,328.13313,217.89099)" fill="#ff0000"/>
<use data-text="&#x1d432;" xlink:href="#font_2_2470" transform="matrix(11.9552,0,0,-11.9552,334.11073,217.89099)" fill="#ff0000"/>
<use data-text="=" xlink:href="#font_2_62" transform="matrix(11.9552,0,0,-11.9552,343.65095,217.89099)" fill="#ff0000"/>
<use data-text="&#x1d7ce;" xlink:href="#font_2_3366" transform="matrix(11.9552,0,0,-11.9552,355.16383,217.89099)" fill="#ff0000"/>
<path transform="matrix(1,0,0,-1,128.104,96.96499)" stroke-width=".79701" stroke-linecap="butt" stroke-dasharray="2.98883,2.98883" stroke-miterlimit="10" stroke-linejoin="miter" fill="none" stroke="#000000" d="M42.52022 0V-42.52022H0"/>
<path transform="matrix(1,0,0,-1,128.104,96.96499)" d="M44.01463-42.52022C44.01463-41.69487 43.34557-41.0258 42.52022-41.0258 41.69487-41.0258 41.0258-41.69487 41.0258-42.52022 41.0258-43.34557 41.69487-44.01463 42.52022-44.01463 43.34557-44.01463 44.01463-43.34557 44.01463-42.52022ZM42.52022-42.52022"/>
<path transform="matrix(1,0,0,-1,128.104,96.96499)" stroke-width=".3985" stroke-linecap="butt" stroke-miterlimit="10" stroke-linejoin="miter" fill="none" stroke="#000000" d="M44.01463-42.52022C44.01463-41.69487 43.34557-41.0258 42.52022-41.0258 41.69487-41.0258 41.0258-41.69487 41.0258-42.52022 41.0258-43.34557 41.69487-44.01463 42.52022-44.01463 43.34557-44.01463 44.01463-43.34557 44.01463-42.52022ZM42.52022-42.52022"/>
<use data-text="(" xlink:href="#font_2_41" transform="matrix(11.9552,0,0,-11.9552,154.08,151.75099)"/>
<use data-text="1" xlink:href="#font_2_50" transform="matrix(11.9552,0,0,-11.9552,158.06108,151.75099)"/>
<use data-text="," xlink:href="#font_2_45" transform="matrix(11.9552,0,0,-11.9552,164.03868,151.75099)"/>
<use data-text="&#x2212;" xlink:href="#font_2_1151" transform="matrix(11.9552,0,0,-11.9552,169.01204,151.75099)"/>
<use data-text="1" xlink:href="#font_2_50" transform="matrix(11.9552,0,0,-11.9552,177.20136,151.75099)"/>
<use data-text=")" xlink:href="#font_2_42" transform="matrix(11.9552,0,0,-11.9552,183.17896,151.75099)"/>
<path transform="matrix(1,0,0,-1,128.104,96.96499)" d="M1.49442-47.83524C1.49442-47.00989 .82533-46.34082 0-46.34082-.82533-46.34082-1.49442-47.00989-1.49442-47.83524-1.49442-48.66058-.82533-49.32965 0-49.32965 .82533-49.32965 1.49442-48.66058 1.49442-47.83524ZM0-47.83524"/>
<path transform="matrix(1,0,0,-1,128.104,96.96499)" stroke-width=".3985" stroke-linecap="butt" stroke-miterlimit="10" stroke-linejoin="miter" fill="none" stroke="#000000" d="M1.49442-47.83524C1.49442-47.00989 .82533-46.34082 0-46.34082-.82533-46.34082-1.49442-47.00989-1.49442-47.83524-1.49442-48.66058-.82533-49.32965 0-49.32965 .82533-49.32965 1.49442-48.66058 1.49442-47.83524ZM0-47.83524"/>
<use data-text="(" xlink:href="#font_2_41" transform="matrix(11.9552,0,0,-11.9552,69.91,137.89199)"/>
<use data-text="0" xlink:href="#font_2_49" transform="matrix(11.9552,0,0,-11.9552,73.89108,137.89199)"/>
<use data-text="," xlink:href="#font_2_45" transform="matrix(11.9552,0,0,-11.9552,79.86868,137.89199)"/>
<use data-text="&#x2212;" xlink:href="#font_2_1151" transform="matrix(11.9552,0,0,-11.9552,84.84204,137.89199)"/>
<use data-text="1" xlink:href="#font_2_50" transform="matrix(11.9552,0,0,-11.9552,93.03136,137.89199)"/>
<use data-text="." xlink:href="#font_2_47" transform="matrix(11.9552,0,0,-11.9552,99.00896,137.89199)"/>
<use data-text="1" xlink:href="#font_2_50" transform="matrix(11.9552,0,0,-11.9552,101.99776,137.89199)"/>
<use data-text="2" xlink:href="#font_2_51" transform="matrix(11.9552,0,0,-11.9552,107.97536,137.89199)"/>
<use data-text="5" xlink:href="#font_2_54" transform="matrix(11.9552,0,0,-11.9552,113.95296,137.89199)"/>
<use data-text=")" xlink:href="#font_2_42" transform="matrix(11.9552,0,0,-11.9552,119.93056,137.89199)"/>
<use data-text="2" xlink:href="#font_3_19" transform="matrix(11.9552,0,0,-11.9552,179.649,723.888)"/>
</g>
</svg>
