<svg style="overflow: visible;" xmlns="http://www.w3.org/2000/svg" xmlns:xlink="http://www.w3.org/1999/xlink" xmlns:inkscape="http://www.inkscape.org/namespaces/inkscape" version="1.1" width="100%" height="100%" viewBox="0 0 373.55 163.32">
<defs>
<path id="font_1_9" d="M.6159973 .37213136C.6199951 .38612367 .6199951 .38812257 .6199951 .39611817 .6199951 .42411805 .598999 .4441223 .56900027 .4441223 .5499878 .4441223 .5169983 .43211366 .5049896 .40011598 .5019989 .39411927 .49299623 .35812379 .48799134 .3371277L.42900086 .10218811C.42799378 .10118103 .38398744 .033203126 .31498719 .033203126 .25099183 .033203126 .25099183 .08518982 .25099183 .10618591 .25099183 .16316223 .2789917 .2351532 .31199647 .3181305 .31799317 .33213807 .32299806 .34413148 .32299806 .36112977 .32299806 .42211915 .2599945 .453125 .20098877 .453125 .08999634 .453125 .033996583 .3221283 .033996583 .29614259 .033996583 .2791443 .04899597 .2791443 .06199646 .2791443 .08099365 .2791443 .084991458 .2791443 .09098816 .2971344 .11898804 .38911439 .17098999 .41111756 .19499207 .41111756 .20098877 .41111756 .21199036 .41111756 .21199036 .38812257 .21199036 .36712647 .20298767 .34413148 .19599915 .32814027 .13699341 .1851654 .13699341 .15116883 .13699341 .12617493 .13699341 .011199951 .23599243-.008804321 .30799867-.008804321 .35499574-.008804321 .3899994 .00819397 .4079895 .020202637 .38598634-.08720398 .30699159-.16113281 .22999573-.16113281 .22299195-.16113281 .20098877-.16113281 .17599488-.15219116 .20599365-.13421631 .21598816-.10421753 .21598816-.08421326 .21598816-.052215578 .19198609-.033203126 .1619873-.033203126 .115997318-.033203126 .08299255-.07220459 .08299255-.114212039 .08299255-.1721344 .14498902-.203125 .22999573-.203125 .34799195-.203125 .48999024-.13121033 .5219879-.0018005371L.6159973 .37213136Z"/>
<path id="font_2_13" d="M.83999636 .33691407C.85198977 .33691407 .8839874 .33691407 .8839874 .37091065 .8839874 .40490724 .84799197 .40490724 .83399966 .40490724H.117996219C.10398865 .40490724 .067993167 .40490724 .067993167 .37091065 .067993167 .33691407 .099990848 .33691407 .11199951 .33691407H.83999636M.83399966 .095077518C.84799197 .095077518 .8839874 .095077518 .8839874 .1290741 .8839874 .16308594 .85198977 .16308594 .83999636 .16308594H.11199951C.099990848 .16308594 .067993167 .16308594 .067993167 .1290741 .067993167 .095077518 .10398865 .095077518 .117996219 .095077518H.83399966Z"/>
<path id="font_1_7" d="M.32499696 .65078738C.32899476 .66477969 .32899476 .66677859 .32899476 .67277529 .32899476 .68078616 .32398988 .6937866 .30499269 .6937866 .2999878 .6937866 .29899598 .6937866 .29699708 .69277957L.16799927 .68678286C.1559906 .68577578 .13398743 .68478396 .13398743 .65478518 .13398743 .63378909 .1539917 .63378909 .16999817 .63378909 .18299866 .63378909 .19898987 .63378909 .19898987 .6287842 .19898987 .62680056 .19799805 .62179568 .19599915 .6148224L.057998659 .06523132C.055999757 .05621338 .053985597 .049209596 .053985597 .03919983 .053985597 .012191772 .07598877-.008804321 .10499573-.008804321 .1269989-.008804321 .15098572 .0021972657 .16699219 .029190064 .17098999 .036193849 .18299866 .085250858 .18998719 .11427307L.21398926 .20936585C.2689972 .20336914 .32899476 .18734741 .32899476 .13830567 .32899476 .13529969 .32899476 .1302948 .32699586 .120285037 .32398988 .11126709 .32299806 .1002655 .32299806 .09526062 .32299806 .027191163 .3919983-.008804321 .46099855-.008804321 .5669861-.008804321 .60798647 .13529969 .60798647 .14831543 .60798647 .1663208 .58898928 .1663208 .5799866 .1663208 .5569916 .1663208 .5549927 .16131592 .548996 .14129639 .5349884 .08924866 .5079956 .033203126 .46598817 .033203126 .44099427 .033203126 .43899537 .05921936 .43899537 .07623291 .43899537 .085250858 .43899537 .09326172 .44299317 .11126709 .44799806 .13128662 .44799806 .14230347 .44799806 .14331055 .44799806 .24040222 .31900025 .24841309 .269989 .2514038 .2869873 .26441957 .2889862 .26441957 .3659973 .33143617 .40699769 .36743165 .45799256 .41111756 .5119934 .41111756 .5219879 .41111756 .5319977 .40818788 .5359955 .3993988 .4909973 .39343263 .46199037 .35842896 .46199037 .3214264 .46199037 .283432 .4909973 .26942445 .5159912 .26942445 .5439911 .26942445 .59599307 .2884369 .59599307 .36343385 .59599307 .41711427 .56399539 .453125 .5149994 .453125 .44898988 .453125 .3909912 .4072113 .33099366 .35342408 .2659912 .2934265 .25 .2854309 .22999573 .27442933L.32499696 .65078738Z"/>
<path id="font_3_75" d="M.98999026 0V.051986696H.923996V.3034973C.923996 .42315675 .8509979 .45117188 .7589874 .45117188 .6539917 .45117188 .598999 .39059449 .5779877 .35958863 .55400088 .4371643 .4869995 .45117188 .4189911 .45117188 .2979889 .45117188 .24398804 .3715973 .23199463 .34959413H.23098755V.45117188L.055999757 .44335938V.39135743C.114990238 .39135743 .12199402 .39135743 .12199402 .35231019V.051986696H.055999757V0C.10998535 .0029907227 .14498902 .0029907227 .18299866 .0029907227 .22200012 .0029907227 .2559967 .0029907227 .30999757 0V.051986696H.24398804V.25320436C.24398804 .36413575 .33999635 .40916444 .4039917 .40916444 .43899537 .40916444 .46199037 .39215089 .46199037 .31411744V.051986696H.3959961V0C.44999696 .0029907227 .4850006 .0029907227 .522995 .0029907227 .56199648 .0029907227 .59599307 .0029907227 .6499939 0V.051986696H.58399966V.25308229C.58399966 .36413575 .6799927 .40916444 .74398806 .40916444 .7789917 .40916444 .8019867 .39215089 .8019867 .31411744V.051986696H.73599246V0C.7899933 .0029907227 .82499697 .0029907227 .86299136 .0029907227 .9019928 .0029907227 .9359894 .0029907227 .98999026 0Z"/>
<path id="font_3_66" d="M.2999878 0V.051986696H.24099732V.45117188L.06199646 .44335938V.39135743C.117996219 .39135743 .125 .39135743 .125 .35331727V.051986696H.05899048V0C.116989139 .0029907227 .12799073 .0029907227 .18099976 .0029907227 .22200012 .0029907227 .25099183 .0029907227 .2999878 0M.25099183 .6053772C.25099183 .6503906 .21299744 .685379 .17098999 .685379 .12599182 .685379 .08999634 .64938357 .08999634 .6053772 .08999634 .560379 .12799073 .5253906 .16999817 .5253906 .21499634 .5253906 .25099183 .5613861 .25099183 .6053772Z"/>
<path id="font_3_47" d="M.6339874 0V.051986696C.57499697 .051986696 .56799319 .051986696 .56799319 .09101868V.69433596L.38598634 .6855469V.6335449C.44499208 .6335449 .45199586 .6335449 .45199586 .5946808V.40815736C.397995 .4451599 .34599305 .45117188 .30899049 .45117188 .13999939 .45117188 .040985109 .35116578 .040985109 .22215271 .040985109 .091156009 .13798523-.0068359377 .29699708-.0068359377 .36999513-.007003784 .41999818 .021987915 .44599916 .041992189V-.0068359377L.6339874 0M.44599916 .11099243C.39898683 .045150758 .33999635 .03515625 .30599977 .03515625 .17599488 .03515625 .17599488 .15916443 .17599488 .21916199 .17599488 .28216554 .17599488 .40916444 .31900025 .40916444 .36499024 .40916444 .4119873 .39016725 .44599916 .34716798V.11099243Z"/>
<path id="font_3_72" d="M.30699159 0V.051986696H.24099732V.69433596L.05899048 .6855469V.6335449C.117996219 .6335449 .125 .6335449 .125 .594574V.051986696H.05899048V0C.116989139 .0029907227 .1269989 .0029907227 .18299866 .0029907227 .23899842 .0029907227 .24899292 .0029907227 .30699159 0Z"/>
<path id="font_3_77" d="M.6499939 0V.051986696H.58399966V.3034973C.58399966 .4251709 .5079956 .45117188 .4189911 .45117188 .2979889 .45117188 .24398804 .3715973 .23199463 .34959413H.23098755V.45117188L.055999757 .44335938V.39135743C.114990238 .39135743 .12199402 .39135743 .12199402 .35231019V.051986696H.055999757V0C.10998535 .0029907227 .14498902 .0029907227 .18299866 .0029907227 .22200012 .0029907227 .2559967 .0029907227 .30999757 0V.051986696H.24398804V.25320436C.24398804 .36413575 .33999635 .40916444 .4039917 .40916444 .43899537 .40916444 .46199037 .39215089 .46199037 .31411744V.051986696H.3959961V0C.44999696 .0029907227 .4850006 .0029907227 .522995 .0029907227 .56199648 .0029907227 .59599307 .0029907227 .6499939 0Z"/>
<path id="font_3_50" d="M.526001 .11508179C.526001 .13604737 .5049896 .13604737 .49798585 .13604737 .48098756 .13604737 .47698976 .13404846 .46899415 .11706543 .43699647 .04714966 .35198976 .040161134 .32398988 .040161134 .17599488 .040161134 .17098999 .15603638 .16899109 .2119751H.49198915C.5130005 .2119751 .526001 .2119751 .526001 .2409668 .526001 .28399659 .5159912 .35003663 .46598817 .3990631 .4099884 .45507813 .31999208 .45507813 .29699708 .45507813 .11898804 .45507813 .033996583 .34402467 .033996583 .2259674 .033996583 .09609985 .13398743-.0068359377 .31199647-.0068359377 .48799134-.0068359377 .526001 .10108948 .526001 .11508179M.42799378 .25097657H.16899109C.16999817 .29100038 .17399597 .41307069 .2979889 .41307069 .42199708 .41307069 .4269867 .2899933 .42799378 .25097657Z"/>
<path id="font_2_1" d="M.40699769-.23200989C.40699769-.2250061 .4039917-.22200012 .3919983-.21200562 .2649994-.09700012 .21998596 .07798767 .21998596 .25 .21998596 .42099 .2630005 .59599307 .3899994 .70899966 .4059906 .723999 .40699769 .72499087 .40699769 .7319946 .40699769 .74198916 .40098573 .75 .38598634 .75 .36698915 .75 .31399537 .70500186 .2939911 .6859894 .16899109 .56199648 .11399841 .4099884 .11399841 .25 .11399841 .16099549 .13198853 .039993287 .20599365-.07800293 .2689972-.17800904 .3639984-.25 .38598634-.25 .40098573-.25 .40699769-.2420044 .40699769-.23200989Z"/>
<path id="font_4_1" d="M.8019867 .21617127C.81599429 .21617127 .84999087 .21617127 .84999087 .25016786 .84999087 .2841797 .81599429 .2841797 .8019867 .2841797H.1499939C.13598633 .2841797 .101989749 .2841797 .101989749 .25016786 .101989749 .21617127 .13598633 .21617127 .1499939 .21617127H.8019867Z"/>
<path id="font_2_7" d="M.28399659 .32714845C.3999939 .32714845 .40098573 .23034668 .40098573 .18035889 .40098573 .13534546 .40098573 .033325197 .28799439 .033325197 .2669983 .033325197 .20999146 .036315919 .1599884 .068359378 .1769867 .0753479 .21299744 .09635925 .21299744 .14535523 .21299744 .19335938 .1789856 .22634888 .13198853 .22634888 .08799744 .22634888 .050994874 .1963501 .050994874 .14434815 .050994874 .047332765 .15499878-.013671875 .29299928-.013671875 .4889984-.013671875 .5609894 .09234619 .5609894 .1793518 .5609894 .26127626 .49798585 .32914735 .3899994 .35313417 .4169922 .36413575 .5269928 .40715028 .5269928 .51615908 .5269928 .59617617 .44499208 .6582031 .29599 .6582031 .1659851 .6582031 .084991458 .58917239 .084991458 .50717166 .084991458 .45115663 .1289978 .4311676 .15899658 .4311676 .19898987 .4311676 .23298645 .45916749 .23298645 .5051575 .23298645 .52716067 .22499085 .5651703 .1769867 .5771637 .22099304 .6151886 .2809906 .6151886 .2899933 .6151886 .3829956 .6151886 .3829956 .5491638 .3829956 .51916506 .3829956 .4471588 .34899903 .41015626 .34599305 .40615846 .31698609 .37513734 .29899598 .3741455 .24499512 .37113954 .21398926 .36914063 .20399475 .36813355 .20399475 .34814454 .20399475 .32714845 .21699524 .32714845 .23498535 .32714845H.28399659Z"/>
<path id="font_1_1" d="M.33599855 .3408203H.44898988C.42199708 .22695923 .41999818 .17901612 .41999818 .14805603 .41999818 .07015991 .44499208-.009765625 .49598695-.009765625 .522995-.009765625 .5669861 .018218995 .5669861 .059173585 .5669861 .073150638 .56399539 .07914734 .55599978 .09112549 .5069885 .16603089 .5029907 .24394226 .5029907 .27789308 .5029907 .30485536 .5049896 .31684876 .5079956 .3408203H.6389923C.6599884 .3408203 .6719971 .3408203 .6899872 .35481263 .70399478 .3658142 .71299746 .38581849 .71299746 .40081788 .71299746 .44381715 .6729889 .44381715 .6559906 .44381715H.23498535C.21099854 .44381715 .16799927 .44381715 .10598755 .3918152 .08999634 .37780763 .03199768 .31884767 .03199768 .30285646 .03199768 .2848816 .04899597 .2848816 .05999756 .2848816 .07699585 .2848816 .07798767 .28588868 .08699036 .296875 .10598755 .31684876 .1349945 .3408203 .21299744 .3408203H.27598573C.25498963 .27789308 .22499085 .2059784 .15699768 .085128787 .14299011 .061157228 .13999939 .05517578 .13999939 .03918457 .13999939 .008224487 .16499329-.008773804 .19099427-.008773804 .21798706-.008773804 .24499512 .008224487 .2559967 .04019165 .2659912 .06616211 .272995 .09411621 .2809906 .12608338L.33599855 .3408203Z"/>
<path id="font_2_6" d="M.5509949 .2280426H.49499513C.4869995 .16200257 .47399903 .14199829 .46798707 .13899231 .45700074 .1329956 .37998963 .1329956 .36299134 .1329956H.22499085C.35899354 .23805237 .41299439 .2680664 .45599366 .30108644 .526001 .35612489 .5509949 .40615846 .5509949 .46316529 .5509949 .58117678 .44198609 .6582031 .2899933 .6582031 .1619873 .6582031 .06098938 .6011963 .06098938 .50717166 .06098938 .4481659 .10899353 .4291687 .13699341 .4291687 .17199707 .4291687 .21398926 .4541626 .21398926 .50616458 .21398926 .5531616 .17999268 .5721588 .16699219 .5771637 .19499207 .5981903 .23498535 .6062012 .2659912 .6062012 .35598756 .6062012 .4059906 .5391693 .4059906 .4621582 .4059906 .38113404 .35299684 .31410218 .2939911 .25906373L.07299805 .052993776C.06199646 .041992189 .06098938 .040985109 .06098938 .020996094V0H.5179901L.5509949 .2280426Z"/>
<path id="font_1_5" d="M.2899933 .65078738C.2939911 .66477969 .2939911 .66677859 .2939911 .67277529 .2939911 .68078616 .2889862 .6937866 .269989 .6937866 .2649994 .6937866 .2639923 .6937866 .2619934 .69277957L.1329956 .68678286C.12098694 .68577578 .09899902 .68478396 .09899902 .65478518 .09899902 .63378909 .11898804 .63378909 .1349945 .63378909 .147995 .63378909 .1639862 .63378909 .1639862 .6287842 .1639862 .62579348 .14698792 .55693057 .1309967 .4950409L.07998657 .2931366C.05999756 .2121582 .054992677 .19116211 .054992677 .15916443 .054992677 .049194337 .13198853-.008804321 .23899842-.008804321 .43399049-.008804321 .5359955 .15716553 .5359955 .2831421 .5359955 .39411927 .45599366 .453125 .34700013 .453125 .29699708 .453125 .2559967 .43611146 .23298645 .42311097L.2899933 .65078738M.24099732 .033203126C.1639862 .033203126 .1639862 .10218811 .1639862 .11917114 .1639862 .15916443 .18998719 .25715638 .21199036 .34013368 .21699524 .35812379 .27598573 .41111756 .34199525 .41111756 .3829956 .41111756 .4149933 .39012147 .4149933 .33312989 .4149933 .29014588 .38398744 .16616822 .36299134 .122177127 .32199098 .03919983 .2599945 .033203126 .24099732 .033203126Z"/>
<path id="font_2_3" d="M.5099945 .21617127H.83799746C.8509979 .21617127 .8839874 .21617127 .8839874 .25016786 .8839874 .2841797 .84999087 .2841797 .83799746 .2841797H.5099945V.6121979C.5099945 .62519839 .5099945 .6582031 .47599793 .6582031 .44198609 .6582031 .44198609 .6241913 .44198609 .6121979V.2841797H.11399841C.100997928 .2841797 .067993167 .2841797 .067993167 .25016786 .067993167 .21617127 .101989749 .21617127 .11399841 .21617127H.44198609V-.11218262C.44198609-.12519837 .44198609-.15820313 .47599793-.15820313 .5099945-.15820313 .5099945-.124191287 .5099945-.11218262V.21617127Z"/>
<path id="font_1_6" d="M.32499696 .65078738C.32899476 .66477969 .32899476 .66677859 .32899476 .67277529 .32899476 .68078616 .32398988 .6937866 .30499269 .6937866 .2999878 .6937866 .29899598 .6937866 .29699708 .69277957L.16899109 .68678286C.15499878 .68577578 .13398743 .68478396 .13398743 .65478518 .13398743 .63378909 .1539917 .63378909 .16699219 .63378909 .18399048 .63378909 .19898987 .63378909 .19898987 .6287842 .19898987 .62680056 .19799805 .62179568 .19599915 .6148224L.057998659 .06518555C.055999757 .05619812 .053985597 .049194337 .053985597 .03919983 .053985597 .012191772 .07598877-.008804321 .10499573-.008804321 .1309967-.008804321 .1579895 .0072021486 .16999817 .035202028 .17098999 .03919983 .18299866 .08518982 .18899536 .11117554L.21299744 .20315552C.22698975 .262146 .22698975 .2641449 .22999573 .27314759 .23399353 .29014588 .30099488 .41111756 .41099549 .41111756 .45199586 .41111756 .46499635 .38911439 .46499635 .35212709 .46499635 .2931366 .41600038 .1691742 .3999939 .13017273 .3899994 .10418701 .3880005 .09718323 .3880005 .08319092 .3880005 .021194458 .45298768-.008804321 .5099945-.008804321 .62098696-.008804321 .6769867 .122177127 .6769867 .1481781 .6769867 .16616822 .6579895 .16616822 .6489868 .16616822 .6269989 .16616822 .625 .16116333 .6199951 .1461792 .59498599 .064193729 .5469971 .033203126 .5159912 .033203126 .5099945 .033203126 .49899293 .033203126 .49899293 .05619812 .49899293 .077178958 .5069885 .09718323 .5169983 .121170047 .5329895 .16017151 .57899478 .2761383 .57899478 .33213807 .57899478 .42411805 .5039978 .453125 .4189911 .453125 .3789978 .453125 .32499696 .44612123 .25898744 .38911439L.32499696 .65078738Z"/>
<path id="font_1_3" d="M.22099304 .016998291C.21199036-.08493042 .1519928-.1348877 .1309967-.15187073 .11999512-.15986634 .115997318-.16287232 .115997318-.17185974 .115997318-.18086243 .12799073-.19386292 .13899231-.19386292 .15499878-.19386292 .2639923-.106918338 .2639923 .03199768 .2639923 .10499573 .22698975 .1599884 .16899109 .1599884 .12199402 .1599884 .08999634 .12399292 .08999634 .07998657 .08999634 .038986207 .11898804 0 .16999817 0 .18998719 0 .20899964 .0069885256 .22099304 .016998291Z"/>
<path id="font_2_2" d="M.36099244 .25C.36099244 .33898927 .34298707 .45999146 .2689972 .5779877 .20599365 .6779938 .11099243 .75 .08898926 .75 .07199097 .75 .067993167 .7389984 .067993167 .7319946 .067993167 .72499087 .07199097 .72099307 .08299255 .71199038 .20999146 .5970001 .25498963 .42199708 .25498963 .25 .25498963 .07899475 .21199036-.0960083 .084991458-.2090149 .07299805-.22000122 .067993167-.22401428 .067993167-.23200989 .067993167-.23901367 .07199097-.25 .08898926-.25 .10798645-.25 .16099549-.20500183 .18099976-.18600464 .30599977-.06201172 .36099244 .08999634 .36099244 .25Z"/>
<path id="font_2_9" d="M.17599488 .5010834C.20799256 .49609376 .24198914 .49609376 .24798584 .49609376 .27398683 .49609376 .34199525 .49609376 .4169922 .54408267 .44299317 .56108096 .5029907 .611084 .5029907 .63708499 .5029907 .65208438 .49499513 .65808108 .4850006 .65808108 .48298646 .65808108 .48098756 .65808108 .46998597 .65309146 .42099 .63609316 .3619995 .6260834 .30699159 .6260834 .2619934 .6260834 .20498657 .6320801 .13999939 .65408328 .13198853 .65808108 .12998963 .65808108 .1269989 .65808108 .10998535 .65808108 .10998535 .64108279 .10998535 .62709048V.33319093C.10998535 .3142395 .10998535 .29927064 .13699341 .29927064 .1519928 .29927064 .15499878 .30126954 .16499329 .31323243 .20498657 .36112977 .2669983 .3701172 .30599977 .3701172 .4019928 .3701172 .4019928 .27931214 .4019928 .20341492 .4019928 .13441468 .4019928 .033325197 .27198792 .033325197 .21998596 .033325197 .16999817 .055358888 .14299011 .089416507 .18499756 .09541321 .20498657 .12741089 .20498657 .16041565 .20498657 .2064209 .16899109 .23242188 .1329956 .23242188 .101989749 .23242188 .06098938 .2124176 .06098938 .15841675 .06098938 .068374637 .1459961-.013671875 .27598573-.013671875 .45399476-.013671875 .5509949 .08340454 .5509949 .20141602 .5509949 .31323243 .47099305 .41210938 .30999757 .41210938 .2619934 .41210938 .21598816 .4031067 .17599488 .3781128V.5010834Z"/>
<path id="font_1_4" d="M.5529938 .34713746C.5569916 .36012269 .56199648 .38111878 .56199648 .38812257 .56199648 .41111756 .5439911 .43511964 .5109863 .43511964 .5009918 .43511964 .47698976 .43211366 .45899964 .41111756 .4149933 .453125 .3600006 .453125 .34399415 .453125 .15699768 .453125 .04798889 .29414369 .04798889 .16116333 .04798889 .04119873 .13899231-.008804321 .23699951-.008804321 .2899933-.008804321 .33999635 .00819397 .3869934 .045196535 .42099-.008804321 .5009918-.008804321 .5079956-.008804321 .6119995-.008804321 .6419983 .1461792 .6419983 .1481781 .6419983 .16616822 .6230011 .16616822 .6139984 .16616822 .58999636 .16616822 .58898928 .16116333 .58399966 .14016724 .56799319 .08018494 .5479889 .033203126 .5139923 .033203126 .4889984 .033203126 .4889984 .059188844 .4889984 .07318115 .4889984 .09017944 .49598695 .12017822 .5019989 .14317322L.5529938 .34713746M.37399293 .10018921C.32499696 .044189454 .2709961 .033203126 .24198914 .033203126 .20098877 .033203126 .16899109 .05519104 .16899109 .11117554 .16899109 .1541748 .19999695 .27815248 .22099304 .3221283 .2539978 .38911439 .3039856 .41111756 .34498597 .41111756 .4139862 .41111756 .43499757 .35913087 .43499757 .35212709 .43499757 .35012818 .43499757 .34812928 .43199159 .3371277L.37399293 .10018921Z"/>
<path id="font_5_8" d="M.57699587 .3771515C.58200076 .3951416 .58200076 .3971405 .58200076 .40014649 .58200076 .4221344 .56599429 .44413758 .5349884 .44413758 .48298646 .44413758 .47099305 .3971405 .46398927 .3701477L.43798829 .26615907C.42599488 .2181549 .40699769 .14117432 .3959961 .10017395 .3909912 .07817078 .3600006 .05418396 .35699464 .05218506 .34599305 .045181276 .32199098 .028182984 .2889862 .028182984 .22999573 .028182984 .22898865 .07817078 .22898865 .10116577 .22898865 .16217041 .2599945 .24015808 .28799439 .31214906 .2979889 .33815003 .30099488 .3451538 .30099488 .3621521 .30099488 .4201355 .24299622 .45214845 .18798828 .45214845 .08198547 .45214845 .03199768 .31614686 .03199768 .29615785 .03199768 .28215028 .04699707 .28215028 .055999757 .28215028 .067993167 .28215028 .07499695 .28215028 .07899475 .29515077 .11199951 .4061432 .16699219 .4161377 .18199158 .4161377 .18899536 .4161377 .19898987 .4161377 .19898987 .3951416 .19898987 .3721466 .18798828 .34614564 .18199158 .33015443 .14299011 .23016358 .12199402 .173172 .12199402 .122177127 .12199402 .008178711 .22200012-.0078125 .2809906-.0078125 .30599977-.0078125 .33999635-.0038146973 .3769989 .02218628 .34899903-.10101318 .27398683-.16615296 .20498657-.16615296 .19198609-.16615296 .1639862-.16415406 .14399719-.15213013 .17599488-.13909912 .19198609-.11204529 .19198609-.0849762 .19198609-.04890442 .16299439-.038879396 .14299011-.038879396 .10598755-.038879396 .070999149-.07095337 .070999149-.11505127 .070999149-.16615296 .12399292-.20214844 .20498657-.20214844 .31999208-.20214844 .45199586-.12506104 .48298646-.0008239746L.57699587 .3771515Z"/>
<path id="font_6_12" d="M.7879944 .33203126C.7999878 .33203126 .82899478 .33203126 .82899478 .36203004 .82899478 .39302064 .7979889 .39302064 .7829895 .39302064H.10998535C.09498596 .39302064 .06399536 .39302064 .06399536 .36203004 .06399536 .33203126 .09298706 .33203126 .10499573 .33203126H.7879944M.7829895 .107940677C.7979889 .107940677 .82899478 .107940677 .82899478 .13893128 .82899478 .16894531 .7999878 .16894531 .7879944 .16894531H.10499573C.09298706 .16894531 .06399536 .16894531 .06399536 .13893128 .06399536 .107940677 .09498596 .107940677 .10998535 .107940677H.7829895Z"/>
<path id="font_5_3" d="M.5149994 .31715394C.5209961 .34214784 .5309906 .3821411 .5309906 .3911438 .5309906 .42314149 .5049896 .4351349 .48399354 .4351349 .46499635 .4351349 .44499208 .42514039 .43299867 .410141 .41799928 .42614747 .3849945 .45214845 .32699586 .45214845 .15299988 .45214845 .04499817 .29415895 .04499817 .15716553 .04499817 .034179689 .13699341-.0078125 .21998596-.0078125 .29100038-.0078125 .34298707 .031173706 .35899354 .046173097 .39698792-.0078125 .46299745-.0078125 .47399903-.0078125 .5109863-.0078125 .5399933 .013183594 .5609894 .049179079 .58599856 .08917236 .598999 .14317322 .598999 .14816284 .598999 .16217041 .58399966 .16217041 .57499697 .16217041 .56399539 .16217041 .55999758 .16217041 .5549927 .15716553 .5529938 .15516663 .5529938 .15316773 .5469971 .12817383 .5269928 .048171998 .5039978 .028182984 .47898866 .028182984 .46798707 .028182984 .45599366 .032180787 .45599366 .06517029 .45599366 .08216858 .45999146 .09817505 .46998597 .13816834 .47698976 .16616822 .4869995 .2061615 .49198915 .22816468L.5149994 .31715394M.34899903 .093170169C.31999208 .059173585 .272995 .028182984 .22499085 .028182984 .16299439 .028182984 .1579895 .08216858 .1579895 .10417175 .1579895 .1561737 .19198609 .27915956 .20799256 .31814576 .23899842 .3911438 .28799439 .4161377 .32899476 .4161377 .3880005 .4161377 .4119873 .36914063 .4119873 .35813905L.4099884 .34414674 .34899903 .093170169Z"/>
<path id="font_6_13" d="M.3600006 .40711976C.34199525 .39111329 .33999635 .3701172 .33999635 .3611145 .33999635 .3171234 .375 .29812623 .4019928 .29812623 .43299867 .29812623 .46499635 .3191223 .46499635 .3611145 .46499635 .44711305 .34899903 .453125 .29100038 .453125 .11199951 .453125 .037994386 .3381195 .037994386 .22212219 .037994386 .08912659 .13198853-.005859375 .28599549-.005859375 .44799806-.005859375 .47799684 .11012268 .47799684 .117126468 .47799684 .13113404 .46398927 .13113404 .45399476 .13113404 .43598939 .13113404 .43499757 .12913513 .42999269 .11613464 .4039917 .053131105 .35598756 .03413391 .30499269 .03413391 .1659851 .03413391 .1659851 .18112183 .1659851 .22712708 .1659851 .28312684 .1659851 .41311646 .29499818 .41311646 .32998658 .41311646 .34700013 .41011048 .3600006 .40711976Z"/>
<path id="font_6_16" d="M.5419922 .21812439C.5419922 .35212709 .44999696 .453125 .2869873 .453125 .12298584 .453125 .03199768 .35112 .03199768 .21812439 .03199768 .09413147 .11999512-.005859375 .2869873-.005859375 .45498658-.005859375 .5419922 .09512329 .5419922 .21812439M.2869873 .03413391C.1599884 .03413391 .1599884 .14213562 .1599884 .22912598 .1599884 .27412416 .1599884 .32511903 .1769867 .3591156 .19599915 .39611817 .23799134 .41711427 .2869873 .41711427 .32899476 .41711427 .37098695 .40112306 .3929901 .36611939 .4139862 .3321228 .4139862 .27713014 .4139862 .22912598 .4139862 .14213562 .4139862 .03413391 .2869873 .03413391Z"/>
<path id="font_6_17" d="M.21099854 .29412843C.17399597 .30111695 .10899353 .31211854 .10899353 .3591156 .10899353 .42111207 .20199585 .42111207 .22099304 .42111207 .29599 .42111207 .33399964 .39212037 .33898927 .33711244 .33999635 .32211305 .34098817 .3171234 .3619995 .3171234 .38598634 .3171234 .38598634 .32211305 .38598634 .3451233V.42510987C.38598634 .4441223 .38598634 .453125 .36799623 .453125 .3639984 .453125 .3619995 .453125 .32299806 .43411256 .29699708 .44711305 .2619934 .453125 .22200012 .453125 .19198609 .453125 .037994386 .453125 .037994386 .32211305 .037994386 .28211976 .057998659 .25512696 .07798767 .23812866 .117996219 .203125 .1559906 .1971283 .23298645 .18312073 .2689972 .17712403 .34399415 .16412354 .34399415 .10513306 .34399415 .030136109 .2519989 .030136109 .22999573 .030136109 .12399292 .030136109 .09799194 .103134158 .085998538 .14613343 .08099365 .16012573 .07598877 .16012573 .06199646 .16012573 .037994386 .16012573 .037994386 .15412903 .037994386 .13113404V.022140503C.037994386 .0031280518 .037994386-.005859375 .055999757-.005859375 .06298828-.005859375 .06498718-.005859375 .085998538 .009140015 .08699036 .009140015 .10899353 .024139405 .11199951 .026138306 .1579895-.005859375 .20999146-.005859375 .22999573-.005859375 .26098634-.005859375 .4149933-.005859375 .4149933 .14012146 .4149933 .18312073 .394989 .21812439 .3600006 .24612427 .32099916 .27511598 .2889862 .28112794 .21099854 .29412843Z"/>
<path id="font_5_4" d="M.2809906 .6593323C.2849884 .6733246 .2849884 .6753235 .2849884 .67633059 .2849884 .68933108 .27398683 .69433596 .2630005 .69433596 .25898744 .69433596 .2579956 .69433596 .2559967 .69332888L.1269989 .68733218C.11299133 .6863251 .09498596 .68533328 .09498596 .6573334 .09498596 .639328 .11399841 .639328 .12098694 .639328 .13198853 .639328 .1499939 .639328 .16299439 .6373291 .15499878 .60328677 .14498902 .5602417 .1349945 .5222168L.06599426 .24615479C.051986696 .19017029 .051986696 .17816162 .051986696 .15516663 .051986696 .027175904 .14698792-.0078125 .22200012-.0078125 .40299989-.0078125 .5059967 .15516663 .5059967 .28715516 .5059967 .410141 .4139862 .45214845 .33099366 .45214845 .2829895 .45214845 .24299622 .433136 .22200012 .4201355L.2809906 .6593323M.22399903 .028182984C.18499756 .028182984 .1519928 .049179079 .1519928 .11117554 .1519928 .14317322 .1619873 .18016052 .16899109 .21116638 .1789856 .24916077 .19599915 .31814576 .20298767 .34814454 .20799256 .36514283 .2649994 .4161377 .32598878 .4161377 .3880005 .4161377 .3929901 .3621521 .3929901 .34014894 .3929901 .28814698 .35899354 .16516114 .34298707 .12617493 .30899049 .045181276 .25299073 .028182984 .22399903 .028182984Z"/>
<path id="font_6_1" d="M.3789978-.22503662C.34999085-.19802857 .2849884-.13702393 .24299622-.009033203 .21699524 .06997681 .20498657 .16197205 .20498657 .24996948 .20498657 .4469757 .2559967 .60398867 .3659973 .7149811 .3809967 .7299957 .38198854 .73098757 .38198854 .73599246 .38198854 .746994 .37199403 .75 .3639984 .75 .34700013 .75 .30499269 .7129822 .2869873 .6959839 .1309967 .5409851 .10798645 .35697938 .10798645 .25097657 .10798645 .12597656 .14099121 .015975953 .18798828-.06703186 .2539978-.18203736 .34498597-.24902344 .3639984-.24902344 .37199403-.24902344 .38198854-.24603272 .38198854-.23503113 .38198854-.23002625 .3789978-.22602844 .3789978-.22503662Z"/>
<path id="font_5_7" d="M.5359955 .4011383C.5 .3911438 .48199464 .35714723 .48199464 .33215333 .48199464 .31015016 .49899293 .28614808 .5319977 .28614808 .5669861 .28614808 .60398867 .31515504 .60398867 .364151 .60398867 .41714479 .5509949 .45214845 .48999024 .45214845 .43299867 .45214845 .3959961 .4091339 .3829956 .3911438 .35798646 .433136 .3019867 .45214845 .24499512 .45214845 .11898804 .45214845 .050994874 .32914735 .050994874 .29615785 .050994874 .28215028 .06599426 .28215028 .07499695 .28215028 .08699036 .28215028 .09399414 .28215028 .09799194 .29515077 .1269989 .38613893 .19898987 .4161377 .23999024 .4161377 .27799989 .4161377 .29599 .39814759 .29599 .3661499 .29599 .3471527 .28199769 .29216004 .272995 .2561493L.23899842 .11917114C.22399903 .058181764 .18798828 .028182984 .1539917 .028182984 .14898682 .028182984 .12599182 .028182984 .10598755 .043182374 .14199829 .05317688 .1599884 .08717346 .1599884 .11216736 .1599884 .13417053 .14299011 .1581726 .10998535 .1581726 .07499695 .1581726 .037994386 .12916565 .037994386 .08016968 .037994386 .027175904 .09098816-.0078125 .1519928-.0078125 .20899964-.0078125 .24598694 .035186769 .25898744 .05317688 .28399659 .011184692 .33999635-.0078125 .39698792-.0078125 .522995-.0078125 .59098818 .11517334 .59098818 .14816284 .59098818 .16217041 .57598879 .16217041 .5669861 .16217041 .5549927 .16217041 .5479889 .16217041 .5439911 .14916992 .5149994 .058181764 .44299317 .028182984 .4019928 .028182984 .3639984 .028182984 .34599305 .046173097 .34599305 .07817078 .34599305 .09916687 .35899354 .15216065 .36799623 .18916321 .375 .21516419 .397995 .30915834 .40299989 .32514955 .41799928 .3851471 .45298768 .4161377 .48799134 .4161377 .49299623 .4161377 .5159912 .4161377 .5359955 .4011383Z"/>
<path id="font_7_1" d="M.7519989 .22024536C.7669983 .22024536 .7969971 .22024536 .7969971 .25024415 .7969971 .28125 .7679901 .28125 .7519989 .28125H.14099121C.12599182 .28125 .09599304 .28125 .09599304 .25123597 .09599304 .22024536 .125 .22024536 .14099121 .22024536H.7519989Z"/>
<path id="font_5_5" d="M.31599427 .6593323C.31999208 .6733246 .31999208 .6753235 .31999208 .67633059 .31999208 .68933108 .30899049 .69433596 .2979889 .69433596 .2939911 .69433596 .29299928 .69433596 .29100038 .69332888L.1619873 .68733218C.147995 .6863251 .12998963 .68533328 .12998963 .6573334 .12998963 .639328 .147995 .639328 .1559906 .639328 .16699219 .639328 .18499756 .639328 .19799805 .6373291L.053985597 .060180665C.052993776 .05618286 .049987794 .04118347 .049987794 .03718567 .049987794 .013183594 .068984989-.0078125 .09799194-.0078125 .10398865-.0078125 .14898682-.0078125 .16299439 .048171998L.22299195 .28515626C.22799683 .30415345 .22799683 .30615235 .24299622 .32615663 .25898744 .34814454 .30899049 .4161377 .3919983 .4161377 .41799928 .4161377 .44198609 .4061432 .44198609 .35714723 .44198609 .29914857 .397995 .18215943 .3789978 .13316345 .36799623 .106170658 .36499024 .09916687 .36499024 .08216858 .36499024 .02418518 .4229889-.0078125 .47799684-.0078125 .58399966-.0078125 .6339874 .12817383 .6339874 .14816284 .6339874 .16217041 .61898806 .16217041 .6100006 .16217041 .59799197 .16217041 .59098818 .16217041 .58699038 .14916992 .5549927 .03817749 .5 .028182984 .48399354 .028182984 .47698976 .028182984 .46699525 .028182984 .46699525 .049179079 .46699525 .07118225 .47799684 .09817505 .48399354 .11416626 .5029907 .16316223 .548996 .28015138 .548996 .33615113 .548996 .42814637 .47200013 .45214845 .3999939 .45214845 .37799073 .45214845 .31698609 .45214845 .24899292 .39013673L.31599427 .6593323Z"/>
<path id="font_6_2" d="M.33799745 .24996948C.33799745 .37498475 .30499269 .48498536 .2579956 .5679779 .19198609 .6829834 .100997928 .75 .08198547 .75 .07398987 .75 .06399536 .746994 .06399536 .73599246 .06399536 .73098757 .06399536 .72898867 .08099365 .7129822 .20698548 .5849762 .24099732 .40797425 .24099732 .25097657 .24099732 .053970338 .18998719-.103027347 .07998657-.21403504 .06498718-.22903443 .06399536-.23002625 .06399536-.23503113 .06399536-.24603272 .07398987-.24902344 .08198547-.24902344 .09899902-.24902344 .14099121-.21203614 .15899658-.19503784 .31498719-.040023805 .33799745 .14398194 .33799745 .24996948Z"/>
<path id="font_6_3" d="M.47698976 .22024536H.7859955C.798996 .22024536 .82899478 .22024536 .82899478 .25024415 .82899478 .28125 .7999878 .28125 .7859955 .28125H.47698976V.5908356C.47698976 .6028137 .47698976 .6328125 .44699098 .6328125 .41600038 .6328125 .41600038 .6038208 .41600038 .5908356V.28125H.10699463C.09298706 .28125 .06399536 .28125 .06399536 .25024415 .06399536 .22024536 .09399414 .22024536 .10699463 .22024536H.41600038V-.08984375C.41600038-.10183716 .41600038-.13183594 .44599916-.13183594 .47698976-.13183594 .47698976-.10284424 .47698976-.08984375V.22024536Z"/>
<path id="font_5_6" d="M.31599427 .6593323C.31999208 .6733246 .31999208 .6753235 .31999208 .67633059 .31999208 .68933108 .30899049 .69433596 .2979889 .69433596 .2939911 .69433596 .29299928 .69433596 .29100038 .69332888L.1619873 .68733218C.147995 .6863251 .12998963 .68533328 .12998963 .6573334 .12998963 .639328 .14898682 .639328 .1559906 .639328 .16699219 .639328 .18499756 .639328 .19799805 .6373291L.053985597 .060180665C.052993776 .05618286 .049987794 .04118347 .049987794 .03718567 .049987794 .013183594 .068984989-.0078125 .09799194-.0078125 .115997318-.0078125 .14498902 .0011749268 .15899658 .032180787 .1619873 .04118347 .17599488 .09916687 .20498657 .21516419 .22399903 .21316529 .31098939 .20115662 .31098939 .14016724 .31098939 .13316345 .31098939 .13017273 .30799867 .11917114 .30499269 .106170658 .30499269 .10517883 .30499269 .09516907 .30499269 .030181885 .36698915-.0078125 .43299867-.0078125 .5329895-.0078125 .56999209 .14016724 .56999209 .14816284 .56999209 .16217041 .5549927 .16217041 .54599 .16217041 .5279999 .16217041 .526001 .16017151 .5209961 .14216614 .5130005 .11317444 .4889984 .028182984 .43798829 .028182984 .42199708 .028182984 .4119873 .03718567 .4119873 .06716919 .4119873 .077178958 .4139862 .09617615 .41999818 .11917114 .4229889 .13017273 .4229889 .13716126 .4229889 .14416504 .4229889 .2291565 .32199098 .24516297 .25 .2521515 .2599945 .25915528 .28399659 .27516175 .33898927 .32815553 .41600038 .4041443 .45799256 .4161377 .48799134 .4161377 .5069885 .4161377 .5139923 .4051361 .5139923 .4041443 .46398927 .3971405 .44499208 .35714723 .44499208 .33215333 .44499208 .31015016 .46199037 .28614808 .49499513 .28614808 .5139923 .28614808 .5669861 .29914857 .5669861 .3701477 .5669861 .4221344 .5339966 .45214845 .4909973 .45214845 .42999269 .45214845 .375 .4081421 .31599427 .3511505 .30599977 .34014894 .2579956 .29415895 .21998596 .27314759L.31599427 .6593323Z"/>
<path id="font_8_84" d="M.59999087 .22319031C.59999087 .3561859 .5089874 .4501953 .36499024 .4501953 .2899933 .4501953 .23699951 .41918946 .21398926 .40118409V.4501953L.036987306 .4423828V.39537049C.09899902 .39537049 .10598755 .39537049 .10598755 .3573761V-.14648438H.036987306V-.1934967L.16299439-.19049073 .2889862-.1934967V-.14648438H.21998596V.03945923C.2630005 .004135132 .30699159-.005859375 .34799195-.005859375 .49798585-.005859375 .59999087 .08413696 .59999087 .22312927V.22319031M.47200013 .22312927C.47200013 .08213806 .4019928 .030136109 .33699037 .030136109 .32299806 .030136109 .27598573 .030136109 .23098755 .08413696 .21998596 .09713745 .21998596 .09812927 .21998596 .117126468V.32913209C.21998596 .34814454 .22099304 .3491516 .23498535 .36314393 .2749939 .4041443 .32699586 .41015626 .34899903 .41015626 .41600038 .41015626 .47200013 .3491516 .47200013 .22314453V.22312927Z"/>
<path id="font_8_50" d="M.49398805 .11706543C.49398805 .13504029 .47499085 .13504029 .46998597 .13504029 .45298768 .13504029 .45098878 .13005066 .44499208 .11405945 .42399598 .066101077 .36698915 .03413391 .3019867 .03413391 .16099549 .03413391 .1599884 .16700745 .1599884 .2179718H.46199037C.48399354 .2179718 .49398805 .2179718 .49398805 .2449646 .49398805 .27598573 .48799134 .34906007 .43798829 .3991089 .40098573 .43511964 .34799195 .453125 .2789917 .453125 .11898804 .453125 .03199768 .35005189 .03199768 .22497559 .03199768 .09107971 .13198853-.005859375 .29299928-.005859375 .45098878-.005859375 .49398805 .10006714 .49398805 .11706543M.39898683 .25097657H.1599884C.1619873 .29000855 .16299439 .3320465 .18399048 .36506654 .20999146 .4051056 .25 .41711427 .2789917 .41711427 .3959961 .41711427 .397995 .28599549 .39898683 .25097657Z"/>
<path id="font_8_96" d="M.44198609 .36819459C.44198609 .42118836 .3880005 .4501953 .33599855 .4501953 .2659912 .4501953 .22599793 .40019227 .20298767 .33718873V.4501953L.036987306 .4423828V.39537049C.09899902 .39537049 .10598755 .39537049 .10598755 .3563385V.04699707H.036987306V0L.16299439 .0029907227C.20098877 .0029907227 .2649994 .0029907227 .30099488 0V.04699707H.21398926V.22218323C.21398926 .29226686 .23899842 .41436769 .33898927 .41436769 .33898927 .41436769 .31999208 .39736939 .31999208 .36834718 .31999208 .32730104 .35198976 .3072815 .3809967 .3072815 .4099884 .3072815 .44198609 .3283081 .44198609 .36834718V.36819459Z"/>
<path id="font_8_66" d="M.28599549 0V.04699707H.22399903V.4501953L.049987794 .4423828V.39537049C.10899353 .39537049 .115997318 .39537049 .115997318 .3563385V.04699707H.04699707V0L.16899109 .0029907227 .28599549 0M.23799134 .60728457C.23799134 .6502838 .20298767 .6852875 .1599884 .6852875 .116989139 .6852875 .08198547 .6502838 .08198547 .60728457 .08198547 .5642853 .116989139 .5292969 .1599884 .5292969 .20298767 .5292969 .23799134 .5642853 .23799134 .60728457Z"/>
<path id="font_8_81" d="M.5419922 .21812439C.5419922 .35212709 .44999696 .453125 .2869873 .453125 .12298584 .453125 .03199768 .35112 .03199768 .21812439 .03199768 .09413147 .11999512-.005859375 .2869873-.005859375 .45498658-.005859375 .5419922 .09512329 .5419922 .21812439M.4139862 .22912598C.4139862 .14213562 .4139862 .03413391 .2869873 .03413391 .1599884 .03413391 .1599884 .14213562 .1599884 .22912598 .1599884 .27412416 .1599884 .32511903 .1769867 .3591156 .19599915 .39611817 .23799134 .41711427 .2869873 .41711427 .32899476 .41711427 .37098695 .40112306 .3929901 .36611939 .4139862 .3321228 .4139862 .27713014 .4139862 .22912598Z"/>
<path id="font_8_47" d="M.6009979 0V.04699707C.5389862 .04699707 .5319977 .04699707 .5319977 .086013797V.69433596L.35499574 .6855469V.63853457C.4169922 .63853457 .42399598 .63853457 .42399598 .5996704V.40518189C.37399293 .44418336 .32199098 .4501953 .2889862 .4501953 .14299011 .4501953 .037994386 .36218263 .037994386 .22116089 .037994386 .089141849 .12998963-.005859375 .27799989-.005859375 .33898927-.005859375 .3869934 .018127442 .41799928 .043136598V-.005859375L.6009979 0M.41799928 .102996829C.40499879 .08514404 .3639984 .030136109 .28799439 .030136109 .1659851 .030136109 .1659851 .15115357 .1659851 .22116089 .1659851 .26916505 .1659851 .3231659 .19198609 .36218263 .22099304 .40419007 .2679901 .41418458 .29899598 .41418458 .35598756 .41418458 .3959961 .3821869 .41799928 .35317994V.102996829Z"/>
<path id="font_6_6" d="M.5169983 .22209168H.46998597C.46699525 .20207215 .45799256 .13800049 .44400025 .1309967 .43299867 .125 .35798646 .125 .34199525 .125H.19499207C.24198914 .16403198 .2939911 .20707703 .33898927 .2401123 .45298768 .3242035 .5169983 .37124635 .5169983 .4663086 .5169983 .5812988 .41299439 .65527346 .27198792 .65527346 .15098572 .65527346 .056991579 .593277 .056991579 .50331118 .056991579 .44430543 .10499573 .42930604 .1289978 .42930604 .16099549 .42930604 .20098877 .4513092 .20098877 .50131228 .20098877 .55329897 .15899658 .5693054 .14399719 .5733032 .17298889 .5972748 .21099854 .6082611 .24699402 .6082611 .33299256 .6082611 .3789978 .54029849 .3789978 .4653015 .3789978 .39627076 .34098817 .3282013 .2709961 .25712586L.069992069 .051986696C.056991579 .039993287 .056991579 .037994386 .056991579 .017990113V0H.48599244L.5169983 .22209168Z"/>
<path id="font_5_1" d="M.31199647 .34832765H.42399598C.4019928 .2552948 .3909912 .1942749 .3909912 .1352539 .3909912 .067230228 .40899659-.0087890629 .45700074-.0087890629 .48999024-.0087890629 .526001 .02420044 .526001 .05621338 .526001 .068222049 .522995 .07423401 .5139923 .0892334 .46798707 .17025757 .46798707 .24728394 .46798707 .27430726 .46798707 .29830934 .46798707 .3083191 .47399903 .34832765H.59799197C.61698916 .34832765 .6329956 .34832765 .647995 .36332704 .6549988 .3703308 .66799929 .38232423 .66799929 .40533448 .66799929 .44433595 .6329956 .44433595 .61499026 .44433595H.22200012C.20098877 .44433595 .1579895 .44433595 .10499573 .3963318 .069992069 .3643341 .0309906 .31330873 .0309906 .3033142 .0309906 .28930665 .042999269 .28930665 .053985597 .28930665 .068984989 .28930665 .069992069 .29031373 .07899475 .3013153 .116989139 .34832765 .18299866 .34832765 .20199585 .34832765H.2619934C.23699951 .26930238 .19699097 .18727112 .14299011 .08622742 .1269989 .05621338 .12399292 .051223756 .12399292 .037216188 .12399292 .01020813 .1459961-.007797241 .17199707-.007797241 .19299317-.007797241 .20799256 .0032043458 .21499634 .00920105 .22999573 .02420044 .23098755 .028213501 .23599243 .049209596L.31199647 .34832765Z"/>
<path id="font_9_28" d="M.71598818 .034179689C.71598818 .06712341 .69898989 .06712341 .6779938 .06712341H.6719971C.6589966 .06712341 .621994 .06712341 .6009979 .07710266V.28977967C.6009979 .36997987 .5379944 .4560547 .32499696 .4560547 .2539978 .4560547 .10598755 .4560547 .10598755 .34791566 .10598755 .2998047 .14099121 .27172853 .18099976 .27172853 .22499085 .27172853 .2559967 .30381776 .2559967 .34692384 .2559967 .36395265 .25099183 .38000489 .24198914 .3920288 .2789917 .40003968 .30899049 .40003968 .32598878 .40003968 .41600038 .40003968 .46798707 .3659668 .46798707 .28677369V.2677307C.45498658 .26672364 .35198976 .26872254 .25299073 .25071717 .13398743 .22871399 .057998659 .19378662 .057998659 .11997986 .057998659-.0078125 .25099183-.0078125 .2899933-.0078125 .3880005-.0078125 .46099855 .015182495 .49198915 .060150148 .5 .00018310547 .56999209 .00018310547 .644989 .00018310547 .70899966 .00018310547 .71598818 .00018310547 .71598818 .034179689M.46798707 .13294983C.46798707 .10902405 .46798707 .08308411 .4169922 .06413269 .37599183 .048187257 .32299806 .048187257 .31698609 .048187257 .24598694 .048187257 .19099427 .07510376 .19099427 .12098694 .19099427 .20974732 .41999818 .21772766 .46798707 .21972656V.13294983Z"/>
<path id="font_9_75" d="M1.1799927 0V.066986087H1.1080017V.29508973C1.1080017 .44114686 .98999026 .45214845 .91400149 .45214845 .84999087 .45214845 .7630005 .43914796 .69699099 .3571167 .6689911 .42913819 .6100006 .45214845 .5109863 .45214845 .37199403 .45214845 .30799867 .38012696 .2849884 .3451233V.45214845L.09700012 .44433595V.3773346C.16099549 .3773346 .16899109 .3773346 .16899109 .33828736V.066986087H.09700012V0L.23599243 .0039978029C.272995 .0039978029 .32998658 .0029907227 .37399293 0V.066986087H.3019867V.2421875C.3019867 .36412049 .4269867 .39613343 .4869995 .39613343 .5509949 .39613343 .57199099 .37213136 .57199099 .29708863V.066986087H.5V0L.6389923 .0039978029C.6759949 .0039978029 .73298647 .0029907227 .7769928 0V.066986087H.7049866V.24206543C.7049866 .36412049 .8299866 .39613343 .8899994 .39613343 .95399478 .39613343 .97499087 .37213136 .97499087 .29708863V.066986087H.9029999V0L1.0419922 .0039978029C1.0789948 .0039978029 1.1360016 .0029907227 1.1799927 0Z"/>
<path id="font_9_84" d="M.7739868 .22314453C.7739868 .33114625 .69299319 .45214845 .48399354 .45214845 .44499208 .45214845 .36099244 .44914247 .2809906 .4081421V.45214845L.083999637 .44433595V.3773346H.100997928C.1559906 .3773346 .1559906 .37132264 .1559906 .3433075V-.12695313H.083999637V-.19395447L.22200012-.18995667 .36099244-.19395447V-.12695313H.2889862V.03718567C.31698609 .020187378 .375-.0078125 .45999146-.0078125 .6689911-.0078125 .7739868 .10119629 .7739868 .22325135V.22314453M.6239929 .22225952C.6239929 .112213138 .5499878 .048187257 .44499208 .048187257 .397995 .048187257 .33799745 .063186649 .2889862 .1282196V.32730104C.33999635 .3801422 .41799928 .39013673 .45799256 .39013673 .56799319 .39013673 .6239929 .31814576 .6239929 .22213745V.22225952Z"/>
<path id="font_9_72" d="M.36999513 0V.066986087H.2979889V.69433596L.100997928 .6855469V.61854556C.16499329 .61854556 .17298889 .61854556 .17298889 .5795746V.066986087H.100997928V0C.1459961 .0029907227 .18998719 .0039978029 .23498535 .0039978029 .23899842 .0039978029 .31698609 .0039978029 .36999513 0Z"/>
<path id="font_9_66" d="M.36299134 0V.066986087H.2979889V.45214845L.10398865 .44433595V.3773346C.1659851 .3773346 .17298889 .3773346 .17298889 .33828736V.066986087H.100997928V0C.14498902 .0029907227 .18998719 .0039978029 .23399353 .0039978029 .2769928 .0039978029 .31999208 .0029907227 .36299134 0M.3039856 .60250857C.3039856 .6505127 .2639923 .68652346 .21798706 .68652346 .16999817 .68652346 .13198853 .6485138 .13198853 .6035156 .13198853 .5555115 .17199707 .519516 .21798706 .519516 .2659912 .519516 .3039856 .5575104 .3039856 .60250857Z"/>
<path id="font_9_105" d="M.49899293 .1191864V.1671753H.41600038V.123184207C.41600038 .093185428 .4059906 .05418396 .34799195 .05418396 .2849884 .054092409 .2849884 .09408569 .2849884 .12109375V.3773346H.47499085V.44433595H.2849884V.6357422H.20199585C.19999695 .53352358 .1459961 .43632508 .04399109 .43333436V.3773346H.1519928V.11820984C.1519928 .0051727297 .26098634-.0078125 .32598878-.0078125 .39898683-.0078125 .49899293 .018173218 .49899293 .11921692V.1191864Z"/>
<path id="font_9_109" d="M.776001 .00018310547V.06718445C.71199038 .06718445 .70399478 .06718445 .70399478 .106170658V.45214845L.49899293 .44433595V.3773346C.5629883 .3773346 .57099917 .3773346 .57099917 .3383026V.15823365C.57099917 .06518555 .47399903 .048187257 .4059906 .048187257 .3019867 .048187257 .3019867 .06819153 .3019867 .112213138V.45214845L.09700012 .44433595V.3773346C.16099549 .3773346 .16899109 .3773346 .16899109 .3383026V.11820984C.16899109 .0021820069 .2899933-.0078125 .3849945-.0078125 .4189911-.0078125 .5139923-.0078125 .57899478 .05718994V-.0078125L.776001 .00018310547Z"/>
<path id="font_9_47" d="M.7549896 .00018310547V.06718445C.69099429 .06718445 .68299868 .06718445 .68299868 .10618591V.69433596L.48599244 .6855469V.61854556C.5499878 .61854556 .55799868 .61854556 .55799868 .5796814V.41114808C.5179901 .43214417 .45700074 .45214845 .37799073 .45214845 .1639862 .45214845 .06498718 .34014894 .06498718 .22116089 .06498718 .11216736 .1519928-.0078125 .3639984-.0078125 .44099427-.0078125 .5039978 .013183594 .5499878 .04118347V-.0078125L.7549896 .00018310547M.5499878 .13198853C.5 .06817627 .43499757 .048187257 .37799073 .048187257 .21499634 .048187257 .21499634 .16716004 .21499634 .22015381 .21499634 .27415467 .21499634 .39613343 .3929901 .39613343 .43699647 .39613343 .4869995 .3851471 .5289917 .3511505 .5499878 .33415223 .5499878 .33314515 .5499878 .31315614V.13198853Z"/>
<path id="font_9_50" d="M.6349945 .11022949C.6349945 .1352539 .61099246 .1352539 .5970001 .1352539H.58999636C.57099917 .1352539 .5629883 .1352539 .55400088 .12124634 .5439911 .10221863 .5159912 .05418396 .4099884 .05418396 .2829895 .05418396 .21699524 .10322571 .20799256 .19726563H.5970001C.61698916 .19726563 .6349945 .19726563 .6349945 .22921753 .6349945 .2871704 .61299136 .35508729 .57099917 .39305116 .5249939 .43304444 .46499635 .4560547 .3659973 .4560547 .14199829 .4560547 .056991579 .33311463 .056991579 .2262268 .056991579 .12023926 .14199829-.0078125 .3869934-.0078125 .4119873-.0078125 .48098756-.0078125 .54100039 .016174317 .60899356 .04335022 .6349945 .096343997 .6349945 .11035156V.11022949M.5339966 .24804688H.20799256C.20899964 .28404237 .21099854 .40003968 .36698915 .40003968 .5029907 .40003968 .5289917 .31504823 .5339966 .24804688Z"/>
<path id="font_10_1" d="M.4850006 .14419556C.47999574 .12619019 .47999574 .124191287 .46299745 .10620117 .44299317 .08520508 .3899994 .04623413 .31999208 .04623413 .2709961 .04623413 .22399903 .06222534 .22399903 .13020325 .22399903 .15917969 .24398804 .26715089 .2769928 .3221283 .30599977 .3691101 .35899354 .39808656 .41799928 .39808656 .5130005 .39808656 .5299988 .33111573 .5299988 .32511903 .5299988 .32312013 .5279999 .3121338 .5269928 .3101349L.4850006 .14419556M.56199648 .41108705C.5209961 .44309999 .46998597 .45410157 .4189911 .45410157 .20298767 .45410157 .08799744 .30014039 .08799744 .1711731 .08799744 .052230836 .18199158-.009765625 .31399537-.009765625 .39698792-.009765625 .45700074 .019226075 .49198915 .04222107 .5299988-.0067749025 .6119995-.009765625 .6329956-.009765625 .7480011-.009765625 .7939911 .13018799 .7939911 .1481781 .7939911 .17016602 .7739868 .17016602 .7519989 .17016602 .71798709 .17016602 .71499636 .17016602 .70700076 .14117432 .70199587 .12019348 .68099978 .04623413 .6399994 .04623413 .6239929 .04623413 .6029968 .056228639 .6029968 .08821106 .6029968 .10719299 .6469879 .2741089 .6549988 .30708314 .6619873 .33207704 .6719971 .37104798 .6719971 .38204957 .6719971 .41903688 .6429901 .43502809 .61698916 .43502809 .58599856 .43502809 .5649872 .41403199 .56199648 .411026V.41108705Z"/>
</defs>
<path transform="matrix(1,0,0,-1,175.946,82.45701)" stroke-width="1.19553" stroke-linecap="butt" stroke-dasharray="1.99255,1.99255" stroke-miterlimit="10" stroke-linejoin="miter" fill="none" stroke="#000000" d="M-129.474 0H188.15157"/>
<path transform="matrix(-1,-0,0,1,46.472,82.45701)" d="M3.18808 0-1.91284 2.55046 0 0-1.91284-2.55046"/>
<path transform="matrix(1,0,0,-1,364.09757,82.45701)" d="M3.18808 0-1.91284 2.55046 0 0-1.91284-2.55046"/>
<use data-text="y" xlink:href="#font_1_9" transform="matrix(7.9701,0,0,-7.9701,11.532005,80.464008)"/>
<use data-text="=" xlink:href="#font_2_13" transform="matrix(7.9701,0,0,-7.9701,19.214005,80.464008)"/>
<use data-text="k" xlink:href="#font_1_7" transform="matrix(7.9701,0,0,-7.9701,29.160004,80.464008)"/>
<use data-text="m" xlink:href="#font_3_75" transform="matrix(7.9701,0,0,-7.9701,7.1620028,89.92901)"/>
<use data-text="i" xlink:href="#font_3_66" transform="matrix(7.9701,0,0,-7.9701,15.299477,89.92901)"/>
<use data-text="d" xlink:href="#font_3_47" transform="matrix(7.9701,0,0,-7.9701,18.009308,89.92901)"/>
<use data-text="l" xlink:href="#font_3_72" transform="matrix(7.9701,0,0,-7.9701,23.436944,89.92901)"/>
<use data-text="i" xlink:href="#font_3_66" transform="matrix(7.9701,0,0,-7.9701,26.146775,89.92901)"/>
<use data-text="n" xlink:href="#font_3_77" transform="matrix(7.9701,0,0,-7.9701,28.856606,89.92901)"/>
<use data-text="e" xlink:href="#font_3_50" transform="matrix(7.9701,0,0,-7.9701,34.28424,89.92901)"/>
<path transform="matrix(1,0,0,-1,175.946,82.45701)" stroke-width="1.59404" stroke-linecap="butt" stroke-miterlimit="10" stroke-linejoin="miter" fill="none" stroke="#000000" d="M-94.35193 45.76874-95.96216 47.48099-94.97884 46.26555-93.99551 44.8771-93.01219 43.32774-92.02887 41.61662-91.04553 39.75499-90.06221 37.74628-89.07889 35.60132-88.09557 33.32487-87.11224 30.92516-86.1289 28.41298-85.14558 25.797-84.16226 23.08585-83.17894 20.29077-82.19562 17.42175-81.21228 14.48656-80.22896 11.49988-79.24564 8.47124-78.2623 5.41103-77.27899 2.33179-76.29565-.7552-75.31235-3.84048-74.32901-6.91194-73.34567-9.95831-72.36237-12.96704-71.37903-15.92949-70.3957-18.83269-69.4124-21.66798-68.42905-24.4228-67.44572-27.09027-66.4624-29.65565-65.47908-32.1142-64.49577-34.45294-63.51244-36.66795-62.5291-38.74673-61.54578-40.68536-60.56245-42.4722-59.57913-44.10631-58.59581-45.57738-57.61249-46.88148-56.62915-48.0143-55.64583-48.96933-54.6625-49.74704-53.67918-50.34135-52.69586-50.75227-51.71251-50.97589-50.7292-51.0148-49.74588-50.863-48.76256-50.5295-47.77924-50.00656-46.7959-49.30327-45.81258-48.41742-44.82925-47.35555-43.84592-46.11891-42.86261-44.71446-41.87927-43.14566-40.89595-41.41809-39.91263-39.53958-38.92929-37.51573-37.94598-35.35521-36.96265-33.06406-35.97932-30.65265-34.99602-28.12793-34.01266-25.502-33.02934-22.78003-32.04602-19.97719-31.0627-17.09952-30.07939-14.15869-29.09605-11.16595-28.11272-8.13344-27.1294-5.07149-26.14607-1.98965-25.16275 1.09691-24.17943 4.18132-23.19609 7.25063-22.21275 10.29266-21.22945 13.29794-20.24612 16.2539-19.2628 19.15103-18.27948 21.97636-17.29613 24.72385-16.31282 27.37834-15.3295 29.93333-14.34616 32.37805-13.36285 34.70598-12.37952 36.90413-11.3962 38.96864-10.41287 40.8904-9.42953 42.66164-8.44623 44.27716-7.46289 45.72963-6.47957 47.01514-5.49625 48.12848-4.51291 49.0658-3.5296 49.82101-2.54626 50.39716-1.56294 50.78514-.57964 50.99059 .40367 51.00615 1.387 50.83574 2.37032 50.4789 3.35364 49.93779 4.33696 49.21371 5.32028 48.3093 6.30362 47.22708 7.28694 45.97185 8.27026 44.5488 9.25359 42.96182 10.23691 41.2187 11.22025 39.32288 12.20358 37.28563 13.18689 35.10779 14.17021 32.80496 15.15353 30.378 16.13686 27.84375 17.12021 25.20526 18.10352 22.47466 19.08684 19.661 20.07018 16.77728 21.05348 13.83038 22.03682 10.83376 23.02014 7.79735 24.00346 4.73196 24.9868 1.64882 25.97011-1.43773 26.95345-4.52087 27.93677-7.58757 28.92009-10.62659 29.90343-13.62709 30.88675-16.57787 31.87007-19.46635 32.8534-22.28563 33.8367-25.02058 34.82005-27.66641 35.80338-30.20844 36.7867-32.64189 37.77002-34.95512 38.75334-37.13986 39.73668-39.1875 40.72-41.09325 41.70332-42.8485 42.68665-44.44499 43.66997-45.88103 44.65329-47.1462 45.63663-48.24223 46.61996-49.1562 47.60327-49.89583 48.5866-50.44775 49.56993-50.81758 50.55324-51.0001 51.53659-50.99664 52.5199-50.80547 53.50322-50.4283 54.48656-49.86728 55.46986-49.12202 56.4532-48.19856 57.43654-47.09602 58.41985-45.82306 59.40318-44.38054 60.38649-42.77756 61.36983-41.0154 62.35315-39.10487 63.33647-37.04947 64.31981-34.86038 65.30313-32.54068 66.28645-30.10333 67.26978-27.55568 68.2531-24.90768 69.23643-22.16713 70.21976-19.34569 71.20308-16.4533 72.1864-13.5008 73.16972-10.50027 74.15306-7.4591 75.13638-4.39111 76.1197-1.30711 77.10303 1.77945 78.08635 4.86128 79.06967 7.92581 80.05301 10.96136 81.03633 13.95625 82.01965 16.9001 83.00298 19.78255 83.98631 22.59145 84.96962 25.31816 85.95296 27.95189 86.93628 30.48398 87.9196 32.90445 88.90294 35.20296 89.88625 37.37343 90.86957 39.4055 91.85292 41.29568 92.83623 43.03189 93.81956 44.61325 94.80287 46.02809 95.7862 47.27682 96.76953 48.35039 97.75285 49.24832 98.73619 49.96461 99.71951 50.49792 100.70282 50.84656 101.68616 51.00833 102.6695 50.98454 103.65282 50.7726 104.63614 50.37552 105.61945 49.79247 106.60278 49.03032 107.5861 48.08481 108.56944 46.96452 109.55276 45.66994 110.53609 44.21228 111.51941 42.58897 112.50273 40.81168 113.48605 38.88385 114.46939 36.81459 115.45271 34.60779 116.43604 32.27597 117.41936 29.82695 118.4027 27.26761 119.386 24.60794 120.36934 21.85829 121.35268 19.02863 122.33598 16.12932 123.31932 13.17078 124.30263 10.1642 125.28595 7.12044 126.2693 4.04985 127.25261 .96541 128.23595-2.12071 129.21927-5.20126 130.20258-8.26363 131.18593-11.29442 132.16924-14.28499 133.15258-17.22235 134.1359-20.097 135.1192-22.89769 136.10254-25.61531 137.08588-28.2378 138.0692-30.75862 139.05252-33.1644 140.03583-35.45036 141.01917-37.60484 142.00249-39.62349 142.98583-41.49422 143.96915-43.21571 144.95247-44.77762 145.93579-46.17516 146.91912-47.40355 145.32224-45.68912"/>
<path transform="matrix(-.68507,-.72842,-.72842,.68507,81.59407,36.688268)" d="M3.78581 0-2.27148 3.02866 0 0-2.27148-3.02866"/>
<path transform="matrix(.68155,.73175,.73175,-.68155,321.26823,128.1461)" d="M3.78581 0-2.27148 3.02866 0 0-2.27148-3.02866"/>
<path transform="matrix(1,0,0,-1,175.946,82.45701)" d="M-74.70409 0C-74.70409 1.01166-75.5242 1.83177-76.53586 1.83177-77.54752 1.83177-78.36763 1.01166-78.36763 0-78.36763-1.01166-77.54752-1.83177-76.53586-1.83177-75.5242-1.83177-74.70409-1.01166-74.70409 0ZM-76.53586 0"/>
<path transform="matrix(1,0,0,-1,175.946,82.45701)" stroke-width=".3985" stroke-linecap="butt" stroke-miterlimit="10" stroke-linejoin="miter" fill="none" stroke="#ffffff" d="M-74.70409 0C-74.70409 1.01166-75.5242 1.83177-76.53586 1.83177-77.54752 1.83177-78.36763 1.01166-78.36763 0-78.36763-1.01166-77.54752-1.83177-76.53586-1.83177-75.5242-1.83177-74.70409-1.01166-74.70409 0ZM-76.53586 0"/>
<path transform="matrix(1,0,0,-1,175.946,82.45701)" d="M-23.68016 0C-23.68016 1.01166-24.50027 1.83177-25.51193 1.83177-26.5236 1.83177-27.34372 1.01166-27.34372 0-27.34372-1.01166-26.5236-1.83177-25.51193-1.83177-24.50027-1.83177-23.68016-1.01166-23.68016 0ZM-25.51193 0"/>
<path transform="matrix(1,0,0,-1,175.946,82.45701)" stroke-width=".3985" stroke-linecap="butt" stroke-miterlimit="10" stroke-linejoin="miter" fill="none" stroke="#ffffff" d="M-23.68016 0C-23.68016 1.01166-24.50027 1.83177-25.51193 1.83177-26.5236 1.83177-27.34372 1.01166-27.34372 0-27.34372-1.01166-26.5236-1.83177-25.51193-1.83177-24.50027-1.83177-23.68016-1.01166-23.68016 0ZM-25.51193 0"/>
<path transform="matrix(1,0,0,-1,175.946,82.45701)" d="M27.34372 0C27.34372 1.01166 26.5236 1.83177 25.51193 1.83177 24.50027 1.83177 23.68016 1.01166 23.68016 0 23.68016-1.01166 24.50027-1.83177 25.51193-1.83177 26.5236-1.83177 27.34372-1.01166 27.34372 0ZM25.51193 0"/>
<path transform="matrix(1,0,0,-1,175.946,82.45701)" stroke-width=".3985" stroke-linecap="butt" stroke-miterlimit="10" stroke-linejoin="miter" fill="none" stroke="#ffffff" d="M27.34372 0C27.34372 1.01166 26.5236 1.83177 25.51193 1.83177 24.50027 1.83177 23.68016 1.01166 23.68016 0 23.68016-1.01166 24.50027-1.83177 25.51193-1.83177 26.5236-1.83177 27.34372-1.01166 27.34372 0ZM25.51193 0"/>
<path transform="matrix(1,0,0,-1,175.946,82.45701)" d="M78.36763 0C78.36763 1.01166 77.54752 1.83177 76.53586 1.83177 75.5242 1.83177 74.70409 1.01166 74.70409 0 74.70409-1.01166 75.5242-1.83177 76.53586-1.83177 77.54752-1.83177 78.36763-1.01166 78.36763 0ZM76.53586 0"/>
<path transform="matrix(1,0,0,-1,175.946,82.45701)" stroke-width=".3985" stroke-linecap="butt" stroke-miterlimit="10" stroke-linejoin="miter" fill="none" stroke="#ffffff" d="M78.36763 0C78.36763 1.01166 77.54752 1.83177 76.53586 1.83177 75.5242 1.83177 74.70409 1.01166 74.70409 0 74.70409-1.01166 75.5242-1.83177 76.53586-1.83177 77.54752-1.83177 78.36763-1.01166 78.36763 0ZM76.53586 0"/>
<path transform="matrix(1,0,0,-1,175.946,82.45701)" d="M129.39154 0C129.39154 1.01166 128.57143 1.83177 127.55977 1.83177 126.5481 1.83177 125.72798 1.01166 125.72798 0 125.72798-1.01166 126.5481-1.83177 127.55977-1.83177 128.57143-1.83177 129.39154-1.01166 129.39154 0ZM127.55977 0"/>
<path transform="matrix(1,0,0,-1,175.946,82.45701)" stroke-width=".3985" stroke-linecap="butt" stroke-miterlimit="10" stroke-linejoin="miter" fill="none" stroke="#ffffff" d="M129.39154 0C129.39154 1.01166 128.57143 1.83177 127.55977 1.83177 126.5481 1.83177 125.72798 1.01166 125.72798 0 125.72798-1.01166 126.5481-1.83177 127.55977-1.83177 128.57143-1.83177 129.39154-1.01166 129.39154 0ZM127.55977 0"/>
<path transform="matrix(1,0,0,-1,175.946,82.45701)" d="M1.83177 51.02432C1.83177 52.03598 1.01166 52.8561 0 52.8561-1.01166 52.8561-1.83177 52.03598-1.83177 51.02432-1.83177 50.01266-1.01166 49.19255 0 49.19255 1.01166 49.19255 1.83177 50.01266 1.83177 51.02432ZM0 51.02432"/>
<path transform="matrix(1,0,0,-1,175.946,82.45701)" stroke-width=".3985" stroke-linecap="butt" stroke-miterlimit="10" stroke-linejoin="miter" fill="none" stroke="#ffffff" d="M1.83177 51.02432C1.83177 52.03598 1.01166 52.8561 0 52.8561-1.01166 52.8561-1.83177 52.03598-1.83177 51.02432-1.83177 50.01266-1.01166 49.19255 0 49.19255 1.01166 49.19255 1.83177 50.01266 1.83177 51.02432ZM0 51.02432"/>
<path transform="matrix(1,0,0,-1,175.946,82.45701)" d="M103.87958 51.02432C103.87958 52.03598 103.05946 52.8561 102.0478 52.8561 101.03615 52.8561 100.21602 52.03598 100.21602 51.02432 100.21602 50.01266 101.03615 49.19255 102.0478 49.19255 103.05946 49.19255 103.87958 50.01266 103.87958 51.02432ZM102.0478 51.02432"/>
<path transform="matrix(1,0,0,-1,175.946,82.45701)" stroke-width=".3985" stroke-linecap="butt" stroke-miterlimit="10" stroke-linejoin="miter" fill="none" stroke="#ffffff" d="M103.87958 51.02432C103.87958 52.03598 103.05946 52.8561 102.0478 52.8561 101.03615 52.8561 100.21602 52.03598 100.21602 51.02432 100.21602 50.01266 101.03615 49.19255 102.0478 49.19255 103.05946 49.19255 103.87958 50.01266 103.87958 51.02432ZM102.0478 51.02432"/>
<path transform="matrix(1,0,0,-1,175.946,82.45701)" d="M-49.19212-51.02432C-49.19212-50.01266-50.01224-49.19255-51.0239-49.19255-52.03555-49.19255-52.85568-50.01266-52.85568-51.02432-52.85568-52.03598-52.03555-52.8561-51.0239-52.8561-50.01224-52.8561-49.19212-52.03598-49.19212-51.02432ZM-51.0239-51.02432"/>
<path transform="matrix(1,0,0,-1,175.946,82.45701)" stroke-width=".3985" stroke-linecap="butt" stroke-miterlimit="10" stroke-linejoin="miter" fill="none" stroke="#ffffff" d="M-49.19212-51.02432C-49.19212-50.01266-50.01224-49.19255-51.0239-49.19255-52.03555-49.19255-52.85568-50.01266-52.85568-51.02432-52.85568-52.03598-52.03555-52.8561-51.0239-52.8561-50.01224-52.8561-49.19212-52.03598-49.19212-51.02432ZM-51.0239-51.02432"/>
<path transform="matrix(1,0,0,-1,175.946,82.45701)" d="M52.85568-51.02432C52.85568-50.01266 52.03555-49.19255 51.0239-49.19255 50.01224-49.19255 49.19212-50.01266 49.19212-51.02432 49.19212-52.03598 50.01224-52.8561 51.0239-52.8561 52.03555-52.8561 52.85568-52.03598 52.85568-51.02432ZM51.0239-51.02432"/>
<path transform="matrix(1,0,0,-1,175.946,82.45701)" stroke-width=".3985" stroke-linecap="butt" stroke-miterlimit="10" stroke-linejoin="miter" fill="none" stroke="#ffffff" d="M52.85568-51.02432C52.85568-50.01266 52.03555-49.19255 51.0239-49.19255 50.01224-49.19255 49.19212-50.01266 49.19212-51.02432 49.19212-52.03598 50.01224-52.8561 51.0239-52.8561 52.03555-52.8561 52.85568-52.03598 52.85568-51.02432ZM51.0239-51.02432"/>
<use data-text="(" xlink:href="#font_2_1" transform="matrix(7.9701,0,0,-7.9701,46.606996,99.49801)"/>
<use data-text="&#x2212;" xlink:href="#font_4_1" transform="matrix(7.9701,0,0,-7.9701,50.40399,99.49801)"/>
<use data-text="3" xlink:href="#font_2_7" transform="matrix(7.9701,0,0,-7.9701,59.192995,93.948009)"/>
<use data-text="&#x03c0;" xlink:href="#font_1_1" transform="matrix(7.9701,0,0,-7.9701,64.075,93.948009)"/>
<path transform="matrix(1,0,0,-1,-57.339006,89.04001)" stroke-width=".3587" stroke-linecap="butt" stroke-miterlimit="10" stroke-linejoin="miter" fill="none" stroke="#000000" d="M116.532-8.465H127.527"/>
<use data-text="2" xlink:href="#font_2_6" transform="matrix(7.9701,0,0,-7.9701,60.054994,105.46801)"/>
<use data-text="b" xlink:href="#font_1_5" transform="matrix(7.9701,0,0,-7.9701,64.937,105.46801)"/>
<use data-text="+" xlink:href="#font_2_3" transform="matrix(7.9701,0,0,-7.9701,73.265,99.49801)"/>
<use data-text="h" xlink:href="#font_1_6" transform="matrix(7.9701,0,0,-7.9701,82.741,99.49801)"/>
<use data-text="," xlink:href="#font_1_3" transform="matrix(7.9701,0,0,-7.9701,88.407749,99.49801)"/>
<use data-text="k" xlink:href="#font_1_7" transform="matrix(7.9701,0,0,-7.9701,92.52829,99.49801)"/>
<use data-text=")" xlink:href="#font_2_2" transform="matrix(7.9701,0,0,-7.9701,97.76199,99.49801)"/>
<use data-text="(" xlink:href="#font_2_1" transform="matrix(7.9701,0,0,-7.9701,148.285,97.90401)"/>
<use data-text="&#x2212;" xlink:href="#font_4_1" transform="matrix(7.9701,0,0,-7.9701,152.082,97.90401)"/>
<use data-text="&#x03c0;" xlink:href="#font_1_1" transform="matrix(7.9701,0,0,-7.9701,162.45,92.354007)"/>
<path transform="matrix(1,0,0,-1,44.339,87.44601)" stroke-width=".3587" stroke-linecap="butt" stroke-miterlimit="10" stroke-linejoin="miter" fill="none" stroke="#000000" d="M116.532-8.465H125.803"/>
<use data-text="2" xlink:href="#font_2_6" transform="matrix(7.9701,0,0,-7.9701,160.871,103.87401)"/>
<use data-text="b" xlink:href="#font_1_5" transform="matrix(7.9701,0,0,-7.9701,165.753,103.87401)"/>
<use data-text="+" xlink:href="#font_2_3" transform="matrix(7.9701,0,0,-7.9701,173.21901,97.90401)"/>
<use data-text="h" xlink:href="#font_1_6" transform="matrix(7.9701,0,0,-7.9701,182.695,97.90401)"/>
<use data-text="," xlink:href="#font_1_3" transform="matrix(7.9701,0,0,-7.9701,188.36176,97.90401)"/>
<use data-text="k" xlink:href="#font_1_7" transform="matrix(7.9701,0,0,-7.9701,192.4823,97.90401)"/>
<use data-text=")" xlink:href="#font_2_2" transform="matrix(7.9701,0,0,-7.9701,197.716,97.90401)"/>
<use data-text="(" xlink:href="#font_2_1" transform="matrix(7.9701,0,0,-7.9701,199.308,75.80101)"/>
<use data-text="&#x03c0;" xlink:href="#font_1_1" transform="matrix(7.9701,0,0,-7.9701,205.879,70.25101)"/>
<path transform="matrix(1,0,0,-1,95.362,65.34301)" stroke-width=".3587" stroke-linecap="butt" stroke-miterlimit="10" stroke-linejoin="miter" fill="none" stroke="#000000" d="M108.938-8.465H118.209"/>
<use data-text="2" xlink:href="#font_2_6" transform="matrix(7.9701,0,0,-7.9701,204.3,81.77101)"/>
<use data-text="b" xlink:href="#font_1_5" transform="matrix(7.9701,0,0,-7.9701,209.182,81.77101)"/>
<use data-text="+" xlink:href="#font_2_3" transform="matrix(7.9701,0,0,-7.9701,216.64801,75.80101)"/>
<use data-text="h" xlink:href="#font_1_6" transform="matrix(7.9701,0,0,-7.9701,226.12401,75.80101)"/>
<use data-text="," xlink:href="#font_1_3" transform="matrix(7.9701,0,0,-7.9701,231.79076,75.80101)"/>
<use data-text="k" xlink:href="#font_1_7" transform="matrix(7.9701,0,0,-7.9701,235.9113,75.80101)"/>
<use data-text=")" xlink:href="#font_2_2" transform="matrix(7.9701,0,0,-7.9701,241.145,75.80101)"/>
<use data-text="(" xlink:href="#font_2_1" transform="matrix(7.9701,0,0,-7.9701,250.332,99.49801)"/>
<use data-text="3" xlink:href="#font_2_7" transform="matrix(7.9701,0,0,-7.9701,255.324,93.948009)"/>
<use data-text="&#x03c0;" xlink:href="#font_1_1" transform="matrix(7.9701,0,0,-7.9701,260.206,93.948009)"/>
<path transform="matrix(1,0,0,-1,146.386,89.04001)" stroke-width=".3587" stroke-linecap="butt" stroke-miterlimit="10" stroke-linejoin="miter" fill="none" stroke="#000000" d="M108.938-8.465H119.933"/>
<use data-text="2" xlink:href="#font_2_6" transform="matrix(7.9701,0,0,-7.9701,256.186,105.46801)"/>
<use data-text="b" xlink:href="#font_1_5" transform="matrix(7.9701,0,0,-7.9701,261.068,105.46801)"/>
<use data-text="+" xlink:href="#font_2_3" transform="matrix(7.9701,0,0,-7.9701,269.397,99.49801)"/>
<use data-text="h" xlink:href="#font_1_6" transform="matrix(7.9701,0,0,-7.9701,278.872,99.49801)"/>
<use data-text="," xlink:href="#font_1_3" transform="matrix(7.9701,0,0,-7.9701,284.53877,99.49801)"/>
<use data-text="k" xlink:href="#font_1_7" transform="matrix(7.9701,0,0,-7.9701,288.6593,99.49801)"/>
<use data-text=")" xlink:href="#font_2_2" transform="matrix(7.9701,0,0,-7.9701,293.893,99.49801)"/>
<use data-text="(" xlink:href="#font_2_1" transform="matrix(7.9701,0,0,-7.9701,312.695,99.49801)"/>
<use data-text="5" xlink:href="#font_2_9" transform="matrix(7.9701,0,0,-7.9701,317.68699,93.948009)"/>
<use data-text="&#x03c0;" xlink:href="#font_1_1" transform="matrix(7.9701,0,0,-7.9701,322.56898,93.948009)"/>
<path transform="matrix(1,0,0,-1,208.749,89.04001)" stroke-width=".3587" stroke-linecap="butt" stroke-miterlimit="10" stroke-linejoin="miter" fill="none" stroke="#000000" d="M108.938-8.465H119.933"/>
<use data-text="2" xlink:href="#font_2_6" transform="matrix(7.9701,0,0,-7.9701,318.549,105.46801)"/>
<use data-text="b" xlink:href="#font_1_5" transform="matrix(7.9701,0,0,-7.9701,323.431,105.46801)"/>
<use data-text="+" xlink:href="#font_2_3" transform="matrix(7.9701,0,0,-7.9701,331.76,99.49801)"/>
<use data-text="h" xlink:href="#font_1_6" transform="matrix(7.9701,0,0,-7.9701,341.235,99.49801)"/>
<use data-text="," xlink:href="#font_1_3" transform="matrix(7.9701,0,0,-7.9701,346.90174,99.49801)"/>
<use data-text="k" xlink:href="#font_1_7" transform="matrix(7.9701,0,0,-7.9701,351.02229,99.49801)"/>
<use data-text=")" xlink:href="#font_2_2" transform="matrix(7.9701,0,0,-7.9701,356.25599,99.49801)"/>
<use data-text="(" xlink:href="#font_2_1" transform="matrix(7.9701,0,0,-7.9701,160.517,23.653008)"/>
<use data-text="h" xlink:href="#font_1_6" transform="matrix(7.9701,0,0,-7.9701,164.314,23.653008)"/>
<use data-text="," xlink:href="#font_1_3" transform="matrix(7.9701,0,0,-7.9701,169.98075,23.653008)"/>
<use data-text="a" xlink:href="#font_1_4" transform="matrix(7.9701,0,0,-7.9701,174.10128,23.653008)"/>
<use data-text="+" xlink:href="#font_2_3" transform="matrix(7.9701,0,0,-7.9701,181.381,23.653008)"/>
<use data-text="k" xlink:href="#font_1_7" transform="matrix(7.9701,0,0,-7.9701,190.857,23.653008)"/>
<use data-text=")" xlink:href="#font_2_2" transform="matrix(7.9701,0,0,-7.9701,196.082,23.653008)"/>
<use data-text="(" xlink:href="#font_2_1" transform="matrix(7.9701,0,0,-7.9701,260.114,19.675007)"/>
<use data-text="2" xlink:href="#font_2_6" transform="matrix(7.9701,0,0,-7.9701,265.106,14.125007)"/>
<use data-text="&#x03c0;" xlink:href="#font_1_1" transform="matrix(7.9701,0,0,-7.9701,269.98799,14.125007)"/>
<path transform="matrix(1,0,0,-1,156.168,9.217007)" stroke-width=".3587" stroke-linecap="butt" stroke-miterlimit="10" stroke-linejoin="miter" fill="none" stroke="#000000" d="M108.938-8.465H119.933"/>
<use data-text="b" xlink:href="#font_1_5" transform="matrix(7.9701,0,0,-7.9701,268.409,25.645007)"/>
<use data-text="+" xlink:href="#font_2_3" transform="matrix(7.9701,0,0,-7.9701,279.17903,19.675007)"/>
<use data-text="h" xlink:href="#font_1_6" transform="matrix(7.9701,0,0,-7.9701,288.654,19.675007)"/>
<use data-text="," xlink:href="#font_1_3" transform="matrix(7.9701,0,0,-7.9701,294.32075,19.675007)"/>
<use data-text="a" xlink:href="#font_1_4" transform="matrix(7.9701,0,0,-7.9701,298.44129,19.675007)"/>
<use data-text="+" xlink:href="#font_2_3" transform="matrix(7.9701,0,0,-7.9701,305.72203,19.675007)"/>
<use data-text="k" xlink:href="#font_1_7" transform="matrix(7.9701,0,0,-7.9701,315.198,19.675007)"/>
<use data-text=")" xlink:href="#font_2_2" transform="matrix(7.9701,0,0,-7.9701,320.422,19.675007)"/>
<use data-text="(" xlink:href="#font_2_1" transform="matrix(7.9701,0,0,-7.9701,87.715999,148.36103)"/>
<use data-text="&#x2212;" xlink:href="#font_4_1" transform="matrix(7.9701,0,0,-7.9701,91.51299,148.36103)"/>
<use data-text="&#x03c0;" xlink:href="#font_1_1" transform="matrix(7.9701,0,0,-7.9701,100.301998,142.81102)"/>
<path transform="matrix(1,0,0,-1,-16.230004,137.90302)" stroke-width=".3587" stroke-linecap="butt" stroke-miterlimit="10" stroke-linejoin="miter" fill="none" stroke="#000000" d="M116.532-8.465H122.645"/>
<use data-text="b" xlink:href="#font_1_5" transform="matrix(7.9701,0,0,-7.9701,101.163997,154.33101)"/>
<use data-text="+" xlink:href="#font_2_3" transform="matrix(7.9701,0,0,-7.9701,109.493,148.36103)"/>
<use data-text="h" xlink:href="#font_1_6" transform="matrix(7.9701,0,0,-7.9701,118.967998,148.36103)"/>
<use data-text="," xlink:href="#font_1_3" transform="matrix(7.9701,0,0,-7.9701,124.63474,148.36103)"/>
<use data-text="&#x2212;" xlink:href="#font_4_1" transform="matrix(7.9701,0,0,-7.9701,128.764,148.36103)"/>
<use data-text="a" xlink:href="#font_1_4" transform="matrix(7.9701,0,0,-7.9701,136.358,148.36103)"/>
<use data-text="+" xlink:href="#font_2_3" transform="matrix(7.9701,0,0,-7.9701,143.63,148.36103)"/>
<use data-text="k" xlink:href="#font_1_7" transform="matrix(7.9701,0,0,-7.9701,153.10501,148.36103)"/>
<use data-text=")" xlink:href="#font_2_2" transform="matrix(7.9701,0,0,-7.9701,158.33002,148.36103)"/>
<use data-text="(" xlink:href="#font_2_1" transform="matrix(7.9701,0,0,-7.9701,193.561,148.36103)"/>
<use data-text="&#x03c0;" xlink:href="#font_1_1" transform="matrix(7.9701,0,0,-7.9701,198.553,142.81102)"/>
<path transform="matrix(1,0,0,-1,89.615,137.90302)" stroke-width=".3587" stroke-linecap="butt" stroke-miterlimit="10" stroke-linejoin="miter" fill="none" stroke="#000000" d="M108.938-8.465H115.052"/>
<use data-text="b" xlink:href="#font_1_5" transform="matrix(7.9701,0,0,-7.9701,199.41501,154.33101)"/>
<use data-text="+" xlink:href="#font_2_3" transform="matrix(7.9701,0,0,-7.9701,207.744,148.36103)"/>
<use data-text="h" xlink:href="#font_1_6" transform="matrix(7.9701,0,0,-7.9701,217.22,148.36103)"/>
<use data-text="," xlink:href="#font_1_3" transform="matrix(7.9701,0,0,-7.9701,222.88675,148.36103)"/>
<use data-text="&#x2212;" xlink:href="#font_4_1" transform="matrix(7.9701,0,0,-7.9701,227.01502,148.36103)"/>
<use data-text="a" xlink:href="#font_1_4" transform="matrix(7.9701,0,0,-7.9701,234.60901,148.36103)"/>
<use data-text="+" xlink:href="#font_2_3" transform="matrix(7.9701,0,0,-7.9701,241.88101,148.36103)"/>
<use data-text="k" xlink:href="#font_1_7" transform="matrix(7.9701,0,0,-7.9701,251.357,148.36103)"/>
<use data-text=")" xlink:href="#font_2_2" transform="matrix(7.9701,0,0,-7.9701,256.582,148.36103)"/>
<use data-text="y" xlink:href="#font_5_8" transform="matrix(9.9626,0,0,-9.9626,13.6380009,22.585007)"/>
<use data-text="=" xlink:href="#font_6_12" transform="matrix(9.9626,0,0,-9.9626,22.654999,22.585007)"/>
<use data-text="a" xlink:href="#font_5_3" transform="matrix(9.9626,0,0,-9.9626,34.333,22.585007)"/>
<use data-text="c" xlink:href="#font_6_13" transform="matrix(9.9626,0,0,-9.9626,42.298997,22.585007)"/>
<use data-text="o" xlink:href="#font_6_16" transform="matrix(9.9626,0,0,-9.9626,47.389879,22.585007)"/>
<use data-text="s" xlink:href="#font_6_17" transform="matrix(9.9626,0,0,-9.9626,53.118379,22.585007)"/>
<use data-text="b" xlink:href="#font_5_4" transform="matrix(9.9626,0,0,-9.9626,59.298997,22.585007)"/>
<use data-text="(" xlink:href="#font_6_1" transform="matrix(9.9626,0,0,-9.9626,64.487,22.585007)"/>
<use data-text="x" xlink:href="#font_5_7" transform="matrix(9.9626,0,0,-9.9626,68.94299,22.585007)"/>
<use data-text="&#x2212;" xlink:href="#font_7_1" transform="matrix(9.9626,0,0,-9.9626,77.722,22.585007)"/>
<use data-text="h" xlink:href="#font_5_5" transform="matrix(9.9626,0,0,-9.9626,88.847,22.585007)"/>
<use data-text=")" xlink:href="#font_6_2" transform="matrix(9.9626,0,0,-9.9626,95.498,22.585007)"/>
<use data-text="+" xlink:href="#font_6_3" transform="matrix(9.9626,0,0,-9.9626,102.16298,22.585007)"/>
<use data-text="k" xlink:href="#font_5_6" transform="matrix(9.9626,0,0,-9.9626,113.29201,22.585007)"/>
<path transform="matrix(1,0,0,-1,175.946,82.45701)" stroke-width=".79701" stroke-linecap="butt" stroke-miterlimit="10" stroke-linejoin="miter" fill="none" stroke="#000000" d="M9.76477 51.02432H92.283"/>
<path transform="matrix(-1,-0,0,1,185.71077,31.43269)" d="M4.66248 0C3.28098 .25902 1.0361 1.0361-.51805 1.94269V-1.94269C1.0361-1.0361 3.28098-.25902 4.66248 0"/>
<path transform="matrix(1,0,0,-1,268.229,31.43269)" d="M4.66248 0C3.28098 .25902 1.0361 1.0361-.51805 1.94269V-1.94269C1.0361-1.0361 3.28098-.25902 4.66248 0"/>
<path transform="matrix(1,0,0,-1,175.946,82.45701)" d="M23.85324 38.83334H78.19454V63.2153H23.85324Z" fill="#ffffff"/>
<use data-text="p" xlink:href="#font_8_84" transform="matrix(9.9626,0,0,-9.9626,201.294,34.59601)"/>
<use data-text="e" xlink:href="#font_8_50" transform="matrix(9.9626,0,0,-9.9626,207.96894,34.59601)"/>
<use data-text="r" xlink:href="#font_8_96" transform="matrix(9.9626,0,0,-9.9626,213.21924,34.59601)"/>
<use data-text="i" xlink:href="#font_8_66" transform="matrix(9.9626,0,0,-9.9626,217.9415,34.59601)"/>
<use data-text="o" xlink:href="#font_8_81" transform="matrix(9.9626,0,0,-9.9626,221.11957,34.59601)"/>
<use data-text="d" xlink:href="#font_8_47" transform="matrix(9.9626,0,0,-9.9626,227.16687,34.59601)"/>
<use data-text="2" xlink:href="#font_6_6" transform="matrix(9.9626,0,0,-9.9626,238.55399,27.156008)"/>
<use data-text="&#x03c0;" xlink:href="#font_5_1" transform="matrix(9.9626,0,0,-9.9626,244.28299,27.156008)"/>
<path transform="matrix(1,0,0,-1,97.348,24.138009)" stroke-width=".3985" stroke-linecap="butt" stroke-miterlimit="10" stroke-linejoin="miter" fill="none" stroke="#000000" d="M141.206-7.967H154.102"/>
<use data-text="b" xlink:href="#font_5_4" transform="matrix(9.9626,0,0,-9.9626,242.40799,42.129007)"/>
<path transform="matrix(1,0,0,-1,175.946,82.45701)" stroke-width=".79701" stroke-linecap="butt" stroke-miterlimit="10" stroke-linejoin="miter" fill="none" stroke="#000000" d="M-45.92157 .59775V50.42656"/>
<path transform="matrix(0,1,1,0,130.02443,75.08457)" d="M5.44046 0 1.28699 1.5706 2.66432 0 1.28699-1.5706Z"/>
<path transform="matrix(0,1,1,0,130.02443,75.08457)" stroke-width=".79701" stroke-linecap="butt" stroke-miterlimit="10" stroke-linejoin="miter" fill="none" stroke="#000000" d="M5.44046 0 1.28699 1.5706 2.66432 0 1.28699-1.5706Z"/>
<path transform="matrix(0,1,1,0,130.02443,82.05851)" stroke-width=".79701" stroke-linecap="butt" stroke-miterlimit="10" stroke-linejoin="miter" fill="none" stroke="#000000" d="M0 3.08846V-3.08846"/>
<path transform="matrix(0,-1,-1,-0,130.02443,38.80512)" d="M5.44046 0 1.28699 1.5706 2.66432 0 1.28699-1.5706Z"/>
<path transform="matrix(0,-1,-1,-0,130.02443,38.80512)" stroke-width=".79701" stroke-linecap="butt" stroke-miterlimit="10" stroke-linejoin="miter" fill="none" stroke="#000000" d="M5.44046 0 1.28699 1.5706 2.66432 0 1.28699-1.5706Z"/>
<path transform="matrix(0,-1,-1,-0,130.02443,31.831189)" stroke-width=".79701" stroke-linecap="butt" stroke-miterlimit="10" stroke-linejoin="miter" fill="none" stroke="#000000" d="M0 3.08846V-3.08846"/>
<path transform="matrix(1,0,0,-1,175.946,82.45701)" d="M-59.10753 48.86757V2.1563H-48.04295V48.86757ZM-48.04295 2.1563" fill="#ffffff"/>
<use data-text="a" xlink:href="#font_9_28" transform="matrix(0,-4.9813,-4.9813,-0,123.616008,76.98001)"/>
<use data-text="m" xlink:href="#font_9_75" transform="matrix(0,-4.9813,-4.9813,-0,123.616008,73.30381)"/>
<use data-text="p" xlink:href="#font_9_84" transform="matrix(0,-4.9813,-4.9813,-0,123.616008,67.117038)"/>
<use data-text="l" xlink:href="#font_9_72" transform="matrix(0,-4.9813,-4.9813,-0,123.616008,62.93772)"/>
<use data-text="i" xlink:href="#font_9_66" transform="matrix(0,-4.9813,-4.9813,-0,123.616008,60.765878)"/>
<use data-text="t" xlink:href="#font_9_105" transform="matrix(0,-4.9813,-4.9813,-0,123.616008,58.594034)"/>
<use data-text="u" xlink:href="#font_9_109" transform="matrix(0,-4.9813,-4.9813,-0,123.616008,55.620195)"/>
<use data-text="d" xlink:href="#font_9_47" transform="matrix(0,-4.9813,-4.9813,-0,123.616008,51.440889)"/>
<use data-text="e" xlink:href="#font_9_50" transform="matrix(0,-4.9813,-4.9813,-0,123.616008,47.26158)"/>
<use data-text="a" xlink:href="#font_10_1" transform="matrix(0,-4.9813,-4.9813,-0,123.616008,41.239015)"/>
</svg>
