<svg style="overflow: visible;" xmlns="http://www.w3.org/2000/svg" xmlns:xlink="http://www.w3.org/1999/xlink" xmlns:inkscape="http://www.inkscape.org/namespaces/inkscape" version="1.1" width="100%" height="100%" viewBox="0 0 458.52 264.03">
<defs>
<path id="font_1_3" d="M.5499878 .39736939C.5169983 .38838197 .49299623 .35838319 .49299623 .32537843 .49299623 .28938294 .5209961 .27539063 .54499819 .27539063 .58299258 .27539063 .62098696 .30638124 .62098696 .35838319 .62098696 .41610719 .56399539 .45210267 .5029907 .45210267 .45498658 .45210267 .4169922 .4250946 .3919983 .39338685 .37799073 .41111756 .34399415 .45210267 .25 .45210267 .117996219 .45210267 .04899597 .3303833 .04899597 .29638673 .04899597 .28138734 .06298828 .28138734 .07499695 .28138734 .09098816 .28138734 .09599304 .28138734 .099990848 .29537965 .1329956 .39338685 .21299744 .41210938 .24398804 .41210938 .30299378 .41210938 .30299378 .37438966 .30299378 .36138917 .30299378 .3423767 .2889862 .28637696 .27999879 .24926758 .27198792 .21914673 .25299073 .14093018 .24699402 .11993408 .23098755 .056930543 .19198609 .032180787 .16099549 .032180787 .13999939 .032180787 .12098694 .04005432 .11099243 .046951295 .14399719 .05593872 .16799927 .0859375 .16799927 .11894226 .16799927 .15493775 .13999939 .16894531 .115997318 .16894531 .07798767 .16894531 .039993287 .13793946 .039993287 .0859375 .039993287 .028182984 .09700012-.0078125 .1579895-.0078125 .20599365-.0078125 .24398804 .019180298 .2689972 .050933839 .2829895 .03315735 .31698609-.0078125 .41099549-.0078125 .54299929-.0078125 .6119995 .11393738 .6119995 .14793396 .6119995 .16394043 .59498599 .16394043 .58599856 .16394043 .56799319 .16394043 .5649872 .16093445 .5609894 .14894104 .5279999 .050933839 .44799806 .032180787 .4169922 .032180787 .35798646 .032180787 .35798646 .06993103 .35798646 .08293152 .35798646 .10194397 .37199403 .15794373 .3809967 .1950531 .3889923 .22517395 .4079895 .3033905 .4139862 .3243866 .42999269 .38739015 .46899415 .41210938 .5 .41210938 .5209961 .41210938 .5399933 .40423585 .5499878 .39736939Z"/>
<path id="font_1_4" d="M.59498599 .3731079C.598999 .38909913 .598999 .394104 .598999 .3981018 .598999 .4320984 .57199099 .44410707 .5509949 .44410707 .49798585 .44410707 .48599244 .3961029 .47898866 .3701172L.45298768 .26612855C.43899537 .21113587 .42599488 .15615845 .41099549 .10116577 .4099884 .09416199 .3659973 .032180787 .30099488 .032180787 .2579956 .032180787 .23799134 .057174684 .23799134 .10417175 .23799134 .16314698 .27198792 .24913025 .29899598 .3171234 .30499269 .33111573 .31098939 .3461151 .31098939 .36210633 .31098939 .41410829 .25898744 .45210267 .19299317 .45210267 .08699036 .45210267 .032989503 .32011415 .032989503 .29612733 .032989503 .28112794 .04699707 .28112794 .05899048 .28112794 .07499695 .28112794 .07998657 .28112794 .083999637 .29512025 .11898804 .4091034 .1769867 .41210938 .18699646 .41210938 .19299317 .41210938 .20399475 .41210938 .20399475 .3901062 .20399475 .36810304 .19299317 .3421173 .18798828 .32911683 .147995 .22813416 .12799073 .17315674 .12799073 .12416077 .12799073 .0231781 .20899964-.0078125 .29299928-.0078125 .30899049-.0078125 .34700013-.0078125 .3919983 .02218628 .36999513-.08416748 .29599-.16210938 .21598816-.16210938 .21398926-.16210938 .18499756-.16210938 .16099549-.15216065 .18399048-.14016724 .20399475-.11515808 .20399475-.0851593 .20399475-.04916382 .17599488-.03515625 .1519928-.03515625 .10899353-.03515625 .07598877-.07316589 .07598877-.11416626 .07598877-.17111206 .13699341-.20211792 .21598816-.20211792 .33799745-.20211792 .47099305-.123168949 .5009918-.0018157959L.59498599 .3731079Z"/>
<path id="font_2_4" d="M.54499819 .31925965C.54499819 .4212494 .5419922 .65625 .29599 .65625 .051986696 .65625 .04598999 .429245 .04598999 .31925965 .04598999 .21525574 .04899597-.01171875 .29499818-.01171875 .5389862-.01171875 .54499819 .20826721 .54499819 .31925965M.29599 .028274537C.2689972 .028274537 .19999695 .040267946 .18699646 .13226319 .1789856 .18527222 .1789856 .27626039 .1789856 .33125306 .1789856 .3942566 .1789856 .47824098 .18699646 .52523806 .20199585 .60523989 .2689972 .61624148 .29499818 .61624148 .32798768 .61624148 .3909912 .600235 .4039917 .5222473 .4119873 .47424317 .4119873 .3882599 .4119873 .33125306 .4119873 .25326539 .4119873 .13426209 .3959961 .09527588 .37399293 .046279909 .32899476 .028274537 .29599 .028274537Z"/>
<path id="font_3_1" d="M.6749878 .22944641C.69299319 .22944641 .71199038 .22944641 .71199038 .25144959 .71199038 .27246095 .69200137 .27246095 .6749878 .27246095H.12298584C.10598755 .27246095 .085998538 .27246095 .085998538 .25144959 .085998538 .22944641 .10499573 .22944641 .12298584 .22944641H.6749878Z"/>
<path id="font_4_2" d="M.3039856 .6392822C.3039856 .6642761 .30299378 .666275 .27799989 .666275 .21598816 .60227969 .12399292 .60227969 .09298706 .60227969V.57128909C.11199951 .57128909 .17298889 .57128909 .22698975 .5972748V.08001709C.22698975 .042999269 .22399903 .0309906 .1309967 .0309906H.09899902V0C.1349945 .0029907227 .22399903 .0029907227 .2649994 .0029907227 .30599977 .0029907227 .3959961 .0029907227 .43199159 0V.0309906H.3999939C.30699159 .0309906 .3039856 .042999269 .3039856 .08001709V.6392822Z"/>
<path id="font_5_82" d="M.43199159 0V.0309906H.3999939C.30699159 .0309906 .3039856 .042999269 .3039856 .08001709V.63912966C.3039856 .6640167 .30299378 .6660156 .27799989 .6660156 .21598816 .60227969 .12399292 .60227969 .09298706 .60227969V.57128909C.11199951 .57128909 .17298889 .57128909 .22698975 .5972748V.08001709C.22698975 .042999269 .22399903 .0309906 .1309967 .0309906H.09899902V0C.1349945 .0029907227 .22399903 .0029907227 .2649994 .0029907227 .30599977 .0029907227 .3959961 .0029907227 .43199159 0Z"/>
<path id="font_5_107" d="M.46199037 .17704773H.43399049C.43199159 .16404724 .42399598 .10501099 .41099549 .08900452 .40499879 .07998657 .33599855 .07998657 .31599427 .07998657H.13798523L.23699951 .17404175C.40098573 .3161316 .46199037 .36915589 .46199037 .4711914 .46199037 .5860901 .36698915 .6660156 .24398804 .6660156 .1289978 .6660156 .050994874 .575119 .050994874 .4841919 .050994874 .43418885 .09399414 .42919923 .102996829 .42919923 .125 .42919923 .15499878 .44519044 .15499878 .48120118 .15499878 .51119998 .13398743 .5332031 .102996829 .5332031 .09799194 .5332031 .09498596 .5332031 .09098816 .53219607 .114990238 .6030731 .1789856 .63500979 .23298645 .63500979 .33499146 .63500979 .36999513 .5401764 .36999513 .4711914 .36999513 .36915589 .29299928 .28611756 .24499512 .23408509L.06199646 .035995485C.050994874 .024993897 .050994874 .022994996 .050994874 0H.43399049L.46199037 .17704773Z"/>
<path id="font_5_106" d="M.46998597 .17008972C.46998597 .25709535 .40098573 .33110047 .30499269 .35209657 .397995 .38710023 .44198609 .46009828 .44198609 .5290985 .44198609 .60606387 .35699464 .6660156 .25299073 .6660156 .14898682 .6660156 .070999149 .60705569 .070999149 .5310974 .070999149 .49809266 .09298706 .47909547 .12199402 .47909547 .15098572 .47909547 .17199707 .50009158 .17199707 .5290985 .17199707 .5640869 .147995 .57910159 .11399841 .57910159 .13999939 .6210327 .20098877 .64100649 .25 .64100649 .33299256 .64100649 .34899903 .5750885 .34899903 .52809146 .34899903 .49809266 .34298707 .45005799 .31799317 .41201783 .2869873 .36695863 .2519989 .36495973 .22299195 .36296083 .19799805 .36094667 .19599915 .36094667 .18798828 .36094667 .1789856 .35995484 .17098999 .35894776 .17098999 .34794618 .17098999 .33496095 .1789856 .33496095 .19599915 .33496095H.24299622C.32998658 .33496095 .36799623 .2646637 .36799623 .16937256 .36799623 .04145813 .2999878 .0055389406 .24899292 .0055389406 .22999573 .0055389406 .1329956 .010528564 .08799744 .0843811 .12399292 .07939148 .1519928 .10437012 .1519928 .13838196 .1519928 .17137146 .1269989 .19238281 .09799194 .19238281 .07299805 .19238281 .042999269 .17736817 .042999269 .13537598 .042999269 .046447755 .13598633-.022460938 .2519989-.022460938 .3769989-.022460938 .46998597 .06741333 .46998597 .16937256V.17008972Z"/>
<path id="font_5_57" d="M.48399354 .16503906V.19602967H.38198854V.649765C.38198854 .669754 .38198854 .6767578 .36299134 .6767578 .35099793 .6767578 .34999085 .67575076 .34098817 .6617584L.0289917 .19602967V.16503906H.3019867V.07901001C.3019867 .041992189 .29899598 .0309906 .22399903 .0309906H.20199585V0C.2649994 .0029907227 .33499146 .0029907227 .34199525 .0029907227 .34700013 .0029907227 .4189911 .0029907227 .48199464 0V.0309906H.45999146C.3849945 .0309906 .38198854 .041992189 .38198854 .07901001V.16503906H.48399354M.30799867 .19602967H.06098938L.30799867 .56581118V.19602967Z"/>
<path id="font_5_56" d="M.46199037 .19992066C.46199037 .3209076 .37599183 .41992188 .2669983 .41992188 .21899414 .41992188 .16999817 .4039154 .1349945 .36791993V.5647888C.16499329 .55578616 .19599915 .55078127 .22698975 .55078127 .34999085 .55078127 .42199708 .63983157 .42199708 .6529236 .42199708 .6619873 .41600038 .6660156 .41099549 .6660156 .41099549 .6660156 .40699769 .6660156 .397995 .6609802 .35099793 .6418457 .30499269 .63378909 .2630005 .63378909 .21998596 .63378909 .1749878 .6418457 .1289978 .6609802 .11898804 .6660156 .115997318 .6660156 .115997318 .6660156 .10398865 .6660156 .10398865 .6559448 .10398865 .63882449V.34490968C.10398865 .32699586 .10398865 .31599427 .117996219 .31599427 .12599182 .31562806 .1289978 .3196411 .1349945 .32867433 .16499329 .37083436 .21299744 .39491273 .2649994 .39491273 .37199403 .39491273 .37199403 .24035645 .37199403 .20422364 .37199403 .17321778 .37199403 .11122131 .34399415 .06636047 .31698609 .024475098 .2749939 .0055389406 .23599243 .0055389406 .1769867 .0055389406 .10998535 .042419435 .085998538 .11621094 .085998538 .116882327 .09298706 .11488342 .099990848 .11488342 .11999512 .11488342 .14898682 .12788391 .14898682 .1638794 .14898682 .19488526 .1269989 .21289063 .099990848 .21289063 .07899475 .21289063 .050994874 .20088196 .050994874 .16088867 .050994874 .069732669 .1269989-.022460938 .23799134-.022460938 .35899354-.02279663 .46199037 .07521057 .46199037 .19921875V.19992066Z"/>
<path id="font_5_101" d="M.46998597 .20277405C.46998597 .32977296 .37799073 .42578126 .2649994 .42578126 .20498657 .42578126 .1619873 .3907776 .13398743 .33078004 .13398743 .43276979 .14498902 .4897766 .17199707 .54177859 .19198609 .58277896 .24099732 .64100649 .31498719 .64100649 .33499146 .64100649 .3809967 .63697817 .4039917 .6007843 .36698915 .6007843 .35099793 .5817871 .35099793 .55477908 .35099793 .5287781 .36898805 .50878909 .39698792 .50878909 .4249878 .50878909 .44400025 .5267792 .44400025 .55677798 .44400025 .61299136 .4039917 .6660156 .31298829 .6660156 .18399048 .6660156 .042999269 .5389252 .042999269 .31576539 .042999269 .044555665 .16499329-.022460938 .25898744-.022460938 .36999513-.022460938 .46998597 .07052612 .46998597 .2025299V.20277405M.3789978 .20353699C.3789978 .15553284 .3789978 .106536868 .3600006 .0695343 .32899476 .012527466 .2849884 .0055389406 .2579956 .0055389406 .20098877 .0055389406 .16799927 .05253601 .1559906 .08152771 .13699341 .12652588 .13598633 .20953369 .13598633 .2255249 .13598633 .2927704 .16699219 .4007721 .2630005 .4007721 .2789917 .4007721 .32798768 .4007721 .3600006 .33877564 .3789978 .300766 .3789978 .25177003 .3789978 .20376587V.20353699Z"/>
<path id="font_5_100" d="M.49899293 .6435547H.25C.12399292 .6435547 .12098694 .6566467 .117996219 .67578127H.08999634L.056991579 .46655274H.084991458C.08898926 .48954774 .09700012 .5455475 .10998535 .55755618 .116989139 .56355288 .19599915 .56355288 .20999146 .56355288H.41999818L.32398988 .4325409C.19400025 .25354005 .18199158 .090530399 .18199158 .03353882 .18199158 .022537232 .18199158-.022460938 .22799683-.022460938 .2749939-.022460938 .2749939 .021530152 .2749939 .03453064V.08354187C.2749939 .23054505 .29699708 .34654237 .34999085 .41854859L.48999024 .60954287C.49899293 .62054446 .49899293 .62254336 .49899293 .6435547Z"/>
<path id="font_5_51" d="M.46998597 .16764832C.46998597 .26472474 .3959961 .3127594 .37098695 .32876588 .3600006 .33677674 .33099366 .35479737 .31900025 .36180116 .36898805 .38581849 .44198609 .43585206 .44198609 .51690676 .44198609 .6109772 .34799195 .6660156 .2579956 .6660156 .15299988 .6660156 .070999149 .5909729 .070999149 .49890138 .070999149 .46087647 .084991458 .42485047 .10899353 .39582826 .12599182 .3768158 .13198853 .37280274 .18998719 .3357849 .101989749 .29374696 .042999269 .23269654 .042999269 .15063477 .042999269 .044555665 .147995-.022460938 .2559967-.022460938 .37199403-.022460938 .46998597 .059570314 .46998597 .16764832M.3939972 .51690676C.3939972 .44685365 .33399964 .40083314 .2939911 .37780763L.17199707 .45387269C.14199829 .47288514 .11898804 .4998932 .11898804 .53692629 .11898804 .6019745 .18899536 .64100649 .25498963 .64100649 .33198548 .64100649 .3939972 .58695986 .3939972 .51690676M.41600038 .1326294C.41600038 .05357361 .33599855 .0055389406 .25698854 .0055389406 .16999817 .0055389406 .09700012 .06758118 .09700012 .15063477 .09700012 .22268677 .14698792 .28274537 .21699524 .31877137L.34298707 .2407074C.3659973 .22569275 .41600038 .19366455 .41600038 .1326294Z"/>
<path id="font_5_78" d="M.46998597 .3287964C.46998597 .5999756 .34999085 .6660156 .2599945 .6660156 .14498902 .6660156 .042999269 .5729675 .042999269 .44187928 .042999269 .31478883 .1349945 .21875 .24798584 .21875 .32099916 .21875 .36099244 .27175904 .3789978 .31478883V.2927704C.3789978 .04875183 .2679901 .0055389406 .21099854 .0055389406 .18798828 .0055389406 .13699341 .009552002 .11099243 .042755128H.114990238C.12298584 .040740968 .1619873 .04875183 .1619873 .088760379 .1619873 .11476135 .14399719 .13476563 .115997318 .13476563 .08799744 .13476563 .068984989 .116760257 .068984989 .086761478 .068984989 .020629883 .12199402-.022460938 .21199036-.022460938 .34098817-.022460938 .46998597 .10975647 .46998597 .32888795V.3287964M.3769989 .42089845C.3769989 .34788514 .34399415 .2437439 .25 .2437439 .23399353 .2437439 .18499756 .2437439 .15299988 .30584718 .13398743 .34388734 .13398743 .3928833 .13398743 .4409027 .13398743 .48892213 .13398743 .5389557 .15499878 .5769806 .18499756 .628006 .22399903 .64100649 .2599945 .64100649 .32798768 .64100649 .35499574 .5719757 .35899354 .56196597 .37298585 .5249481 .3769989 .46391297 .3769989 .42089845Z"/>
<path id="font_5_121" d="M.47299195 .31976319C.47299195 .38682557 .46998597 .47288514 .43499757 .5479431 .3909912 .64201357 .31498719 .6660156 .25698854 .6660156 .19699097 .6660156 .12098694 .64201357 .07699585 .5459442 .04499817 .47688294 .039993287 .39582826 .039993287 .31976319 .039993287 .25471498 .041992189 .15765381 .084991458 .07858276 .13198853-.0064697267 .20999146-.022460938 .2559967-.022460938 .32099916-.022460938 .394989 .0055389406 .43699647 .097595218 .46699525 .1646576 .47299195 .23971558 .47299195 .31976319M.3869934 .33177186C.3869934 .2697296 .3869934 .18566895 .3769989 .12661743 .35598756 .012542725 .28199769 .002532959 .25698854 .002532959 .22698975 .002532959 .15499878 .016540528 .13598633 .12962342 .12599182 .18867493 .12599182 .2747345 .12599182 .33177186 .12599182 .39982606 .12599182 .47888185 .13798523 .53393557 .1579895 .6230011 .22200012 .64100649 .2559967 .64100649 .2939911 .64100649 .35699464 .62098696 .37599183 .5279236 .3869934 .47288514 .3869934 .39482118 .3869934 .33177186Z"/>
<path id="font_2_13" d="M.80799868 .33398438C.82199099 .33398438 .8529968 .33398438 .8529968 .36598207 .8529968 .39797975 .82199099 .39797975 .8089905 .39797975H.10998535C.09700012 .39797975 .06599426 .39797975 .06599426 .36598207 .06599426 .33398438 .09799194 .33398438 .11099243 .33398438H.80799868M.8089905 .102005008C.82199099 .102005008 .8529968 .102005008 .8529968 .13400269 .8529968 .16601563 .82099917 .16601563 .80799868 .16601563H.11099243C.09799194 .16601563 .06599426 .16601563 .06599426 .13400269 .06599426 .102005008 .09700012 .102005008 .10998535 .102005008H.8089905Z"/>
<path id="font_2_6" d="M.5319977 .22505188H.48098756C.47898866 .21104431 .46998597 .13999939 .45498658 .1329956 .44198609 .12799073 .36799623 .12799073 .35099793 .12799073H.20799256C.26098634 .17102051 .32099916 .2180481 .37098695 .25306703 .45498658 .31211854 .5319977 .3661499 .5319977 .46418763 .5319977 .581192 .4249878 .65625 .27999879 .65625 .1559906 .65625 .05899048 .597229 .05899048 .505188 .05899048 .45318605 .09899902 .42918397 .13398743 .42918397 .1659851 .42918397 .20799256 .4521942 .20799256 .5041809 .20799256 .5261841 .19898987 .56318667 .15499878 .5751953 .18998719 .60324099 .23498535 .60723879 .25498963 .60723879 .33699037 .60723879 .3889923 .54618838 .3889923 .46318055 .3889923 .39115907 .34599305 .32511903 .29299928 .27108766L.069992069 .050994874C.05899048 .039993287 .05899048 .038986207 .05899048 .018997193V0H.5009918L.5319977 .22505188Z"/>
<path id="font_6_75" d="M.95899966-.0002746582V.048721315H.8909912V.30471803C.8909912 .42271424 .81999209 .4497223 .7319946 .4497223 .6279907 .4497223 .57699587 .38671876 .55799868 .3557129 .5359955 .4457245 .44799806 .4497223 .4039917 .4497223 .27999879 .4497223 .23098755 .35972596 .22399903 .34472657H.22299195V.4497223L.049987794 .44172669V.39271546C.10998535 .39271546 .117996219 .39271546 .117996219 .353714V.048721315H.049987794V-.0002746582L.17599488 .0027160645 .30299378-.0002746582V.048721315H.23498535V.25372315C.23498535 .36471559 .32699586 .40971376 .3869934 .40971376 .4249878 .40971376 .44599916 .38972474 .44599916 .3137207V.048721315H.37799073V-.0002746582L.5039978 .0027160645 .6309967-.0002746582V.048721315H.5629883V.25372315C.5629883 .36471559 .6549988 .40971376 .71499636 .40971376 .7529907 .40971376 .7739868 .38972474 .7739868 .3137207V.048721315H.70599368V-.0002746582L.83200076 .0027160645 .95899966-.0002746582Z"/>
<path id="font_6_66" d="M.2919922 0V.04899597H.23098755V.4501953L.054992677 .4423828V.39337159C.11299133 .39337159 .11999512 .39337159 .11999512 .3543396V.04899597H.051986696V0C.11898804 .0019989014 .13198853 .0029907227 .17399597 .0029907227 .22299195 .0029907227 .23599243 .0019989014 .2919922 0M.24198914 .6053314C.24198914 .65234377 .20399475 .68434146 .1639862 .68434146 .12199402 .68434146 .085998538 .6503296 .085998538 .6063385 .085998538 .55934146 .12399292 .52734377 .1639862 .52734377 .20599365 .52734377 .24198914 .56134036 .24198914 .6053314Z"/>
<path id="font_6_47" d="M.61499026 0V.04899597C.5549927 .04899597 .5469971 .04899597 .5469971 .088012699V.69433596L.36799623 .6855469V.63653567C.42799378 .63653567 .43598939 .63653567 .43598939 .5976715V.40518189C.3919983 .43719483 .34498597 .4501953 .29699708 .4501953 .13398743 .4501953 .038986207 .35118104 .038986207 .22216797 .038986207 .089141849 .1329956-.005859375 .2849884-.005859375 .34799195-.005859375 .397995 .018127442 .42999269 .044128419V-.005859375L.61499026 0M.42999269 .10899353C.4079895 .074142459 .3600006 .03413391 .29599 .03413391 .17199707 .03413391 .17199707 .15414429 .17199707 .22015381 .17199707 .27816773 .17298889 .32118226 .19898987 .3581848 .22499085 .39819337 .272995 .41018678 .30799867 .41018678 .35798646 .41018678 .39898683 .3881836 .42999269 .34918214V.10899353Z"/>
<path id="font_6_72" d="M.29899598 0V.04899597H.23098755V.69433596L.051986696 .6855469V.63653567C.11199951 .63653567 .11999512 .63653567 .11999512 .5975647V.04899597H.051986696V0L.1749878 .0029907227 .29899598 0Z"/>
<path id="font_6_77" d="M.6299896-.0002746582V.048721315H.56199648V.30471803C.56199648 .4237213 .48999024 .4497223 .40299989 .4497223 .27999879 .4497223 .23098755 .35972596 .22399903 .34472657H.22299195V.4497223L.049987794 .44172669V.39271546C.10998535 .39271546 .117996219 .39271546 .117996219 .353714V.048721315H.049987794V-.0002746582L.17599488 .0027160645 .30299378-.0002746582V.048721315H.23498535V.25372315C.23498535 .36572267 .32699586 .40971376 .3869934 .40971376 .4249878 .40971376 .44499208 .38871766 .44499208 .3137207V.048721315H.3769989V-.0002746582L.5029907 .0027160645 .6299896-.0002746582Z"/>
<path id="font_6_50" d="M.5089874 .11605835C.5089874 .13604737 .4889984 .13604737 .48298646 .13604737 .46499635 .13604737 .46299745 .13005066 .45700074 .11605835 .43399049 .06410217 .37298585 .037139894 .30999757 .037139894 .16799927 .037139894 .1659851 .16601563 .1659851 .21496582H.47599793C.49699403 .21496582 .5089874 .21496582 .5089874 .2429657 .5089874 .26498414 .5069885 .35305787 .44198609 .4071045 .39698792 .4441223 .33699037 .453125 .28799439 .453125 .116989139 .453125 .032989503 .345047 .032989503 .22497559 .032989503 .09408569 .13198853-.005859375 .3019867-.005859375 .46699525-.005859375 .5089874 .1000824 .5089874 .11605835M.41099549 .25097657H.1659851C.16799927 .29701234 .17298889 .41311646 .28799439 .41311646 .40499879 .41311646 .40899659 .29100038 .41099549 .25097657Z"/>
<path id="font_7_1" d="M.3789978-.22503662C.34999085-.19802857 .2849884-.13702393 .24299622-.009033203 .21699524 .06997681 .20498657 .16197205 .20498657 .24996948 .20498657 .4469757 .2559967 .60398867 .3659973 .7149811 .3809967 .7299957 .38198854 .73098757 .38198854 .73599246 .38198854 .746994 .37199403 .75 .3639984 .75 .34700013 .75 .30499269 .7129822 .2869873 .6959839 .1309967 .5409851 .10798645 .35697938 .10798645 .25097657 .10798645 .12597656 .14099121 .015975953 .18798828-.06703186 .2539978-.18203736 .34498597-.24902344 .3639984-.24902344 .37199403-.24902344 .38198854-.24603272 .38198854-.23503113 .38198854-.23002625 .3789978-.22602844 .3789978-.22503662Z"/>
<path id="font_8_1" d="M.7519989 .22024536C.7669983 .22024536 .7969971 .22024536 .7969971 .25024415 .7969971 .28125 .7679901 .28125 .7519989 .28125H.14099121C.12599182 .28125 .09599304 .28125 .09599304 .25123597 .09599304 .22024536 .125 .22024536 .14099121 .22024536H.7519989Z"/>
<path id="font_7_5" d="M.35398866 .62316897C.35398866 .6452637 .35398866 .65527346 .32798768 .65527346 .31698609 .65527346 .31498719 .65527346 .30599977 .64826968 .22898865 .5909424 .12599182 .5909424 .10499573 .5909424H.084991458V.5439453H.10499573C.12098694 .5439453 .17599488 .54493716 .23498535 .5639343V.04699707H.09599304V0C.13999939 .0029907227 .24598694 .0029907227 .29499818 .0029907227 .34399415 .0029907227 .44999696 .0029907227 .49398805 0V.04699707H.35398866V.62316897Z"/>
<path id="font_9_2" d="M.21398926 .020996094C.21099854-.04208374 .18099976-.11021423 .12599182-.15631104 .11199951-.16833496 .11099243-.16934204 .11099243-.17533875 .11099243-.18234253 .12199402-.19433594 .12998963-.19433594 .14399719-.19433594 .25-.10720825 .25 .0309906 .25 .100997928 .21398926 .1559906 .1579895 .1559906 .11199951 .1559906 .08099365 .12098694 .08099365 .07798767 .08099365 .037994386 .10899353 0 .15899658 0 .18299866 0 .20199585 .009994507 .21398926 .020996094Z"/>
<path id="font_7_4" d="M.5289917 .31925965C.5289917 .41625978 .5279999 .65527346 .2869873 .65527346 .04598999 .65527346 .04499817 .41726686 .04499817 .31925965 .04499817 .22026062 .04598999-.0107421879 .2869873-.0107421879 .5269928-.0107421879 .5289917 .21925354 .5289917 .31925965M.2869873 .025253296C.25099183 .025253296 .19499207 .04725647 .18199158 .12025452 .17298889 .17225647 .17298889 .27626039 .17298889 .33125306 .17298889 .40325929 .17298889 .46826173 .18099976 .5202637 .19299317 .6092682 .2630005 .6192627 .2869873 .6192627 .32398988 .6192627 .36499024 .6002655 .38398744 .5562744 .40098573 .51927188 .40098573 .41326905 .40098573 .33125306 .40098573 .2752533 .40098573 .18424988 .3939972 .13224793 .37998963 .039245607 .31698609 .025253296 .2869873 .025253296Z"/>
<path id="font_7_2" d="M.33799745 .24996948C.33799745 .37498475 .30499269 .48498536 .2579956 .5679779 .19198609 .6829834 .100997928 .75 .08198547 .75 .07398987 .75 .06399536 .746994 .06399536 .73599246 .06399536 .73098757 .06399536 .72898867 .08099365 .7129822 .20698548 .5849762 .24099732 .40797425 .24099732 .25097657 .24099732 .053970338 .18998719-.103027347 .07998657-.21403504 .06498718-.22903443 .06399536-.23002625 .06399536-.23503113 .06399536-.24603272 .07398987-.24902344 .08198547-.24902344 .09899902-.24902344 .14099121-.21203614 .15899658-.19503784 .31498719-.040023805 .33799745 .14398194 .33799745 .24996948Z"/>
<path id="font_9_1" d="M.31199647 .34832765H.42399598C.4019928 .2552948 .3909912 .1942749 .3909912 .1352539 .3909912 .067230228 .40899659-.0087890629 .45700074-.0087890629 .48999024-.0087890629 .526001 .02420044 .526001 .05621338 .526001 .068222049 .522995 .07423401 .5139923 .0892334 .46798707 .17025757 .46798707 .24728394 .46798707 .27430726 .46798707 .29830934 .46798707 .3083191 .47399903 .34832765H.59799197C.61698916 .34832765 .6329956 .34832765 .647995 .36332704 .6549988 .3703308 .66799929 .38232423 .66799929 .40533448 .66799929 .44433595 .6329956 .44433595 .61499026 .44433595H.22200012C.20098877 .44433595 .1579895 .44433595 .10499573 .3963318 .069992069 .3643341 .0309906 .31330873 .0309906 .3033142 .0309906 .28930665 .042999269 .28930665 .053985597 .28930665 .068984989 .28930665 .069992069 .29031373 .07899475 .3013153 .116989139 .34832765 .18299866 .34832765 .20199585 .34832765H.2619934C.23699951 .26930238 .19699097 .18727112 .14299011 .08622742 .1269989 .05621338 .12399292 .051223756 .12399292 .037216188 .12399292 .01020813 .1459961-.007797241 .17199707-.007797241 .19299317-.007797241 .20799256 .0032043458 .21499634 .00920105 .22999573 .02420044 .23098755 .028213501 .23599243 .049209596L.31199647 .34832765Z"/>
<path id="font_7_6" d="M.5169983 .22209168H.46998597C.46699525 .20207215 .45799256 .13800049 .44400025 .1309967 .43299867 .125 .35798646 .125 .34199525 .125H.19499207C.24198914 .16403198 .2939911 .20707703 .33898927 .2401123 .45298768 .3242035 .5169983 .37124635 .5169983 .4663086 .5169983 .5812988 .41299439 .65527346 .27198792 .65527346 .15098572 .65527346 .056991579 .593277 .056991579 .50331118 .056991579 .44430543 .10499573 .42930604 .1289978 .42930604 .16099549 .42930604 .20098877 .4513092 .20098877 .50131228 .20098877 .55329897 .15899658 .5693054 .14399719 .5733032 .17298889 .5972748 .21099854 .6082611 .24699402 .6082611 .33299256 .6082611 .3789978 .54029849 .3789978 .4653015 .3789978 .39627076 .34098817 .3282013 .2709961 .25712586L.069992069 .051986696C.056991579 .039993287 .056991579 .037994386 .056991579 .017990113V0H.48599244L.5169983 .22209168Z"/>
<path id="font_7_8" d="M.44499208 .15611267H.5419922V.203125H.44499208V.62423709C.44499208 .6512451 .44299317 .65625 .4149933 .65625 .3939972 .65625 .3929901 .6552429 .3809967 .64024356L.03199768 .203125V.15611267H.31999208V.04699707H.20799256V0C.24598694 .0029907227 .33699037 .0029907227 .37998963 .0029907227 .41999818 .0029907227 .5069885 .0029907227 .5419922 0V.04699707H.44499208V.15611267M.33099366 .203125H.083999637L.33099366 .51319888V.203125Z"/>
<path id="font_7_7" d="M.35198976 .35212709C.42099 .3731537 .49398805 .4303589 .49398805 .5164032 .49398805 .5933533 .41799928 .65527346 .2769928 .65527346 .1579895 .65527346 .07998657 .59135439 .07998657 .5113983 .07998657 .46839906 .11099243 .44140626 .14898682 .44140626 .19400025 .44140626 .21899414 .47340394 .21899414 .51039126 .21899414 .56840518 .16499329 .5793915 .16099549 .58039858 .19599915 .6082916 .23999024 .616272 .2709961 .616272 .35398866 .616272 .35699464 .5523987 .35699464 .5193939 .35699464 .50639346 .35598756 .3751526 .2519989 .36914063 .21099854 .36712647 .20899964 .36613465 .20399475 .36512757 .19400025 .36413575 .19198609 .35412599 .19198609 .34812928 .19198609 .33013917 .20199585 .33013917 .21998596 .33013917H.2639923C.37298585 .33013917 .37298585 .23240662 .37298585 .18144226 .37298585 .13444519 .37298585 .03225708 .2689972 .03225708 .24299622 .03225708 .19099427 .03627014 .14299011 .06645203 .17599488 .07543945 .20098877 .10044861 .20098877 .14144898 .20098877 .18644715 .16899109 .217453 .125 .217453 .08299255 .217453 .04798889 .19044495 .04798889 .13945008 .04798889 .049346925 .14498902-.0107421879 .27398683-.0107421879 .45298768-.0107421879 .526001 .08944702 .526001 .18045044 .526001 .23539734 .49699403 .32115174 .35198976 .35212709Z"/>
<path id="font_9_8" d="M.57699587 .3771515C.58200076 .3951416 .58200076 .3971405 .58200076 .40014649 .58200076 .4221344 .56599429 .44413758 .5349884 .44413758 .48298646 .44413758 .47099305 .3971405 .46398927 .3701477L.43798829 .26615907C.42599488 .2181549 .40699769 .14117432 .3959961 .10017395 .3909912 .07817078 .3600006 .05418396 .35699464 .05218506 .34599305 .045181276 .32199098 .028182984 .2889862 .028182984 .22999573 .028182984 .22898865 .07817078 .22898865 .10116577 .22898865 .16217041 .2599945 .24015808 .28799439 .31214906 .2979889 .33815003 .30099488 .3451538 .30099488 .3621521 .30099488 .4201355 .24299622 .45214845 .18798828 .45214845 .08198547 .45214845 .03199768 .31614686 .03199768 .29615785 .03199768 .28215028 .04699707 .28215028 .055999757 .28215028 .067993167 .28215028 .07499695 .28215028 .07899475 .29515077 .11199951 .4061432 .16699219 .4161377 .18199158 .4161377 .18899536 .4161377 .19898987 .4161377 .19898987 .3951416 .19898987 .3721466 .18798828 .34614564 .18199158 .33015443 .14299011 .23016358 .12199402 .173172 .12199402 .122177127 .12199402 .008178711 .22200012-.0078125 .2809906-.0078125 .30599977-.0078125 .33999635-.0038146973 .3769989 .02218628 .34899903-.10101318 .27398683-.16615296 .20498657-.16615296 .19198609-.16615296 .1639862-.16415406 .14399719-.15213013 .17599488-.13909912 .19198609-.11204529 .19198609-.0849762 .19198609-.04890442 .16299439-.038879396 .14299011-.038879396 .10598755-.038879396 .070999149-.07095337 .070999149-.11505127 .070999149-.16615296 .12399292-.20214844 .20498657-.20214844 .31999208-.20214844 .45199586-.12506104 .48298646-.0008239746L.57699587 .3771515Z"/>
<path id="font_7_12" d="M.7879944 .33203126C.7999878 .33203126 .82899478 .33203126 .82899478 .36203004 .82899478 .39302064 .7979889 .39302064 .7829895 .39302064H.10998535C.09498596 .39302064 .06399536 .39302064 .06399536 .36203004 .06399536 .33203126 .09298706 .33203126 .10499573 .33203126H.7879944M.7829895 .107940677C.7979889 .107940677 .82899478 .107940677 .82899478 .13893128 .82899478 .16894531 .7999878 .16894531 .7879944 .16894531H.10499573C.09298706 .16894531 .06399536 .16894531 .06399536 .13893128 .06399536 .107940677 .09498596 .107940677 .10998535 .107940677H.7829895Z"/>
<path id="font_7_13" d="M.3600006 .40711976C.34199525 .39111329 .33999635 .3701172 .33999635 .3611145 .33999635 .3171234 .375 .29812623 .4019928 .29812623 .43299867 .29812623 .46499635 .3191223 .46499635 .3611145 .46499635 .44711305 .34899903 .453125 .29100038 .453125 .11199951 .453125 .037994386 .3381195 .037994386 .22212219 .037994386 .08912659 .13198853-.005859375 .28599549-.005859375 .44799806-.005859375 .47799684 .11012268 .47799684 .117126468 .47799684 .13113404 .46398927 .13113404 .45399476 .13113404 .43598939 .13113404 .43499757 .12913513 .42999269 .11613464 .4039917 .053131105 .35598756 .03413391 .30499269 .03413391 .1659851 .03413391 .1659851 .18112183 .1659851 .22712708 .1659851 .28312684 .1659851 .41311646 .29499818 .41311646 .32998658 .41311646 .34700013 .41011048 .3600006 .40711976Z"/>
<path id="font_7_16" d="M.5419922 .21812439C.5419922 .35212709 .44999696 .453125 .2869873 .453125 .12298584 .453125 .03199768 .35112 .03199768 .21812439 .03199768 .09413147 .11999512-.005859375 .2869873-.005859375 .45498658-.005859375 .5419922 .09512329 .5419922 .21812439M.2869873 .03413391C.1599884 .03413391 .1599884 .14213562 .1599884 .22912598 .1599884 .27412416 .1599884 .32511903 .1769867 .3591156 .19599915 .39611817 .23799134 .41711427 .2869873 .41711427 .32899476 .41711427 .37098695 .40112306 .3929901 .36611939 .4139862 .3321228 .4139862 .27713014 .4139862 .22912598 .4139862 .14213562 .4139862 .03413391 .2869873 .03413391Z"/>
<path id="font_7_17" d="M.21099854 .29412843C.17399597 .30111695 .10899353 .31211854 .10899353 .3591156 .10899353 .42111207 .20199585 .42111207 .22099304 .42111207 .29599 .42111207 .33399964 .39212037 .33898927 .33711244 .33999635 .32211305 .34098817 .3171234 .3619995 .3171234 .38598634 .3171234 .38598634 .32211305 .38598634 .3451233V.42510987C.38598634 .4441223 .38598634 .453125 .36799623 .453125 .3639984 .453125 .3619995 .453125 .32299806 .43411256 .29699708 .44711305 .2619934 .453125 .22200012 .453125 .19198609 .453125 .037994386 .453125 .037994386 .32211305 .037994386 .28211976 .057998659 .25512696 .07798767 .23812866 .117996219 .203125 .1559906 .1971283 .23298645 .18312073 .2689972 .17712403 .34399415 .16412354 .34399415 .10513306 .34399415 .030136109 .2519989 .030136109 .22999573 .030136109 .12399292 .030136109 .09799194 .103134158 .085998538 .14613343 .08099365 .16012573 .07598877 .16012573 .06199646 .16012573 .037994386 .16012573 .037994386 .15412903 .037994386 .13113404V.022140503C.037994386 .0031280518 .037994386-.005859375 .055999757-.005859375 .06298828-.005859375 .06498718-.005859375 .085998538 .009140015 .08699036 .009140015 .10899353 .024139405 .11199951 .026138306 .1579895-.005859375 .20999146-.005859375 .22999573-.005859375 .26098634-.005859375 .4149933-.005859375 .4149933 .14012146 .4149933 .18312073 .394989 .21812439 .3600006 .24612427 .32099916 .27511598 .2889862 .28112794 .21099854 .29412843Z"/>
<path id="font_10_1" d="M.39898683 .62120059C.39898683 .65625 .3919983 .65625 .34999085 .65625 .28799439 .6061554 .20599365 .59213259 .12599182 .59213259H.101989749V.5361328H.12599182C.1659851 .5361328 .22698975 .54312136 .2689972 .5571289V.055999757H.11099243V0C.1599884 .0039978029 .27999879 .0039978029 .33399964 .0039978029 .36999513 .0039978029 .4059906 .0029907227 .44198609 .0029907227 .47200013 .0029907227 .5239868 .0019989014 .5529938 0V.055999757H.39898683V.62120059Z"/>
<path id="font_10_2" d="M.5779877 .2280426H.5149994C.5130005 .21603394 .5039978 .14500427 .48599244 .14099121 .46499635 .13699341 .40499879 .13699341 .38198854 .13699341H.24499512C.2999878 .17800904 .35598756 .21903992 .4139862 .25605775 .49499513 .3080902 .5779877 .3611145 .5779877 .46116639 .5779877 .5812378 .46499635 .65625 .30599977 .65625 .16999817 .65625 .067993167 .60324099 .067993167 .50819399 .067993167 .4501648 .114990238 .42915345 .14498902 .42915345 .18099976 .42915345 .22299195 .4541626 .22299195 .5071869 .22299195 .55522158 .18598938 .57522585 .18299866 .5762329 .21899414 .59924319 .2649994 .600235 .2769928 .600235 .3619995 .600235 .42900086 .5462189 .42900086 .4601593 .42900086 .38311769 .3769989 .3190918 .31900025 .2680664L.08099365 .056991579C.068984989 .04499817 .067993167 .04399109 .067993167 .023986817V0H.5439911L.5779877 .2280426Z"/>
<path id="font_9_7" d="M.5359955 .4011383C.5 .3911438 .48199464 .35714723 .48199464 .33215333 .48199464 .31015016 .49899293 .28614808 .5319977 .28614808 .5669861 .28614808 .60398867 .31515504 .60398867 .364151 .60398867 .41714479 .5509949 .45214845 .48999024 .45214845 .43299867 .45214845 .3959961 .4091339 .3829956 .3911438 .35798646 .433136 .3019867 .45214845 .24499512 .45214845 .11898804 .45214845 .050994874 .32914735 .050994874 .29615785 .050994874 .28215028 .06599426 .28215028 .07499695 .28215028 .08699036 .28215028 .09399414 .28215028 .09799194 .29515077 .1269989 .38613893 .19898987 .4161377 .23999024 .4161377 .27799989 .4161377 .29599 .39814759 .29599 .3661499 .29599 .3471527 .28199769 .29216004 .272995 .2561493L.23899842 .11917114C.22399903 .058181764 .18798828 .028182984 .1539917 .028182984 .14898682 .028182984 .12599182 .028182984 .10598755 .043182374 .14199829 .05317688 .1599884 .08717346 .1599884 .11216736 .1599884 .13417053 .14299011 .1581726 .10998535 .1581726 .07499695 .1581726 .037994386 .12916565 .037994386 .08016968 .037994386 .027175904 .09098816-.0078125 .1519928-.0078125 .20899964-.0078125 .24598694 .035186769 .25898744 .05317688 .28399659 .011184692 .33999635-.0078125 .39698792-.0078125 .522995-.0078125 .59098818 .11517334 .59098818 .14816284 .59098818 .16217041 .57598879 .16217041 .5669861 .16217041 .5549927 .16217041 .5479889 .16217041 .5439911 .14916992 .5149994 .058181764 .44299317 .028182984 .4019928 .028182984 .3639984 .028182984 .34599305 .046173097 .34599305 .07817078 .34599305 .09916687 .35899354 .15216065 .36799623 .18916321 .375 .21516419 .397995 .30915834 .40299989 .32514955 .41799928 .3851471 .45298768 .4161377 .48799134 .4161377 .49299623 .4161377 .5159912 .4161377 .5359955 .4011383Z"/>
<path id="font_7_3" d="M.47698976 .22024536H.7859955C.798996 .22024536 .82899478 .22024536 .82899478 .25024415 .82899478 .28125 .7999878 .28125 .7859955 .28125H.47698976V.5908356C.47698976 .6028137 .47698976 .6328125 .44699098 .6328125 .41600038 .6328125 .41600038 .6038208 .41600038 .5908356V.28125H.10699463C.09298706 .28125 .06399536 .28125 .06399536 .25024415 .06399536 .22024536 .09399414 .22024536 .10699463 .22024536H.41600038V-.08984375C.41600038-.10183716 .41600038-.13183594 .44599916-.13183594 .47698976-.13183594 .47698976-.10284424 .47698976-.08984375V.22024536Z"/>
<path id="font_11_28" d="M.5529938 .023986817C.5529938 .04699707 .5399933 .04699707 .5269928 .04699707 .46598817 .04798889 .46598817 .06100464 .46598817 .083999637V.29907228C.46598817 .3881073 .394989 .453125 .24598694 .453125 .18899536 .453125 .066986087 .44911195 .066986087 .36109925 .066986087 .3170929 .101989749 .29808045 .1289978 .29808045 .1599884 .29808045 .19198609 .3190918 .19198609 .36109925 .19198609 .39111329 .17298889 .40811158 .16999817 .41011048 .19799805 .41612245 .22999573 .41711427 .24198914 .41711427 .31698609 .41711427 .35198976 .3751068 .35198976 .29907228V.26506043C.2809906 .2620697 .026992798 .25306703 .026992798 .10801697 .026992798 .012130737 .15098572-.005859375 .21998596-.005859375 .2999878-.005859375 .34700013 .035125734 .36898805 .07713318 .36898805 .04598999 .36898805 0 .47299195 0H.5209961C.54100039 0 .5529938 0 .5529938 .023986817M.35198976 .13899231C.35198976 .043151857 .2599945 .030136109 .23498535 .030136109 .18399048 .030136109 .14399719 .06517029 .14399719 .10922241 .14399719 .21734619 .3019867 .23136902 .35198976 .234375V.13899231Z"/>
<path id="font_11_75" d="M.93499758 0V.04699707H.8659973V.30613709C.8659973 .40919496 .8149872 .4501953 .71199038 .4501953 .62098696 .4501953 .56900027 .40019227 .54299929 .3541565 .522995 .44718934 .43099977 .4501953 .3929901 .4501953 .30599977 .4501953 .24899292 .40518189 .21699524 .3421631V.4501953L.04499817 .4423828V.39537049C.10699463 .39537049 .11399841 .39537049 .11399841 .3563385V.04699707H.04499817V0L.17098999 .0029907227 .29699708 0V.04699707H.22799683V.2562256C.22799683 .3653412 .31498719 .41436769 .3769989 .41436769 .41099549 .41436769 .43299867 .39437867 .43299867 .31729127V.04699707H.3639984V0L.48999024 .0029907227 .6159973 0V.04699707H.5469971V.2562256C.5469971 .3653412 .6339874 .41436769 .69599917 .41436769 .7299957 .41436769 .7519989 .39437867 .7519989 .31729127V.04699707H.68299868V0L.8089905 .0029907227 .93499758 0Z"/>
<path id="font_11_84" d="M.59999087 .22319031C.59999087 .3561859 .5089874 .4501953 .36499024 .4501953 .2899933 .4501953 .23699951 .41918946 .21398926 .40118409V.4501953L.036987306 .4423828V.39537049C.09899902 .39537049 .10598755 .39537049 .10598755 .3573761V-.14648438H.036987306V-.1934967L.16299439-.19049073 .2889862-.1934967V-.14648438H.21998596V.03945923C.2630005 .004135132 .30699159-.005859375 .34799195-.005859375 .49798585-.005859375 .59999087 .08413696 .59999087 .22312927V.22319031M.47200013 .22312927C.47200013 .08213806 .4019928 .030136109 .33699037 .030136109 .32299806 .030136109 .27598573 .030136109 .23098755 .08413696 .21998596 .09713745 .21998596 .09812927 .21998596 .117126468V.32913209C.21998596 .34814454 .22099304 .3491516 .23498535 .36314393 .2749939 .4041443 .32699586 .41015626 .34899903 .41015626 .41600038 .41015626 .47200013 .3491516 .47200013 .22314453V.22312927Z"/>
<path id="font_11_72" d="M.29299928 0V.04699707H.22399903V.69433596L.04699707 .6855469V.63853457C.10899353 .63853457 .115997318 .63853457 .115997318 .5995636V.04699707H.04699707V0L.16999817 .0029907227 .29299928 0Z"/>
<path id="font_11_66" d="M.28599549 0V.04699707H.22399903V.4501953L.049987794 .4423828V.39537049C.10899353 .39537049 .115997318 .39537049 .115997318 .3563385V.04699707H.04699707V0L.16899109 .0029907227 .28599549 0M.23799134 .60728457C.23799134 .6502838 .20298767 .6852875 .1599884 .6852875 .116989139 .6852875 .08198547 .6502838 .08198547 .60728457 .08198547 .5642853 .116989139 .5292969 .1599884 .5292969 .20298767 .5292969 .23799134 .5642853 .23799134 .60728457Z"/>
<path id="font_11_105" d="M.38198854 .124176029V.17721558H.33499146V.12619019C.33499146 .058151246 .30299378 .03413391 .2749939 .03413391 .21699524 .03413391 .21699524 .09817505 .21699524 .1211853V.3973236H.36299134V.44433595H.21699524V.6357422H.16999817C.16899109 .53552249 .11999512 .43632508 .020996094 .43333436V.3973236H.102996829V.123184207C.102996829 .01612854 .18998719-.005859375 .26098634-.005859375 .33699037-.005859375 .38198854 .05114746 .38198854 .124176029Z"/>
<path id="font_11_109" d="M.61499026 .0001373291V.0471344C.5529938 .0471344 .54599 .0471344 .54599 .086135867V.4501953L.36299134 .44218446V.39518739C.4249878 .39518739 .43199159 .39518739 .43199159 .3561859V.16514588C.43199159 .08314514 .3809967 .030136109 .30799867 .030136109 .23098755 .030136109 .22799683 .055130006 .22799683 .10914612V.4501953L.04499817 .44218446V.39518739C.10699463 .39518739 .11399841 .39518739 .11399841 .3561859V.12313843C.11399841 .01612854 .19499207-.005859375 .2939911-.005859375 .31999208-.005859375 .3919983-.005859375 .43798829 .072143558V-.005859375L.61499026 .0001373291Z"/>
<path id="font_11_47" d="M.6009979 0V.04699707C.5389862 .04699707 .5319977 .04699707 .5319977 .086013797V.69433596L.35499574 .6855469V.63853457C.4169922 .63853457 .42399598 .63853457 .42399598 .5996704V.40518189C.37399293 .44418336 .32199098 .4501953 .2889862 .4501953 .14299011 .4501953 .037994386 .36218263 .037994386 .22116089 .037994386 .089141849 .12998963-.005859375 .27799989-.005859375 .33898927-.005859375 .3869934 .018127442 .41799928 .043136598V-.005859375L.6009979 0M.41799928 .102996829C.40499879 .08514404 .3639984 .030136109 .28799439 .030136109 .1659851 .030136109 .1659851 .15115357 .1659851 .22116089 .1659851 .26916505 .1659851 .3231659 .19198609 .36218263 .22099304 .40419007 .2679901 .41418458 .29899598 .41418458 .35598756 .41418458 .3959961 .3821869 .41799928 .35317994V.102996829Z"/>
<path id="font_11_50" d="M.49398805 .11706543C.49398805 .13504029 .47499085 .13504029 .46998597 .13504029 .45298768 .13504029 .45098878 .13005066 .44499208 .11405945 .42399598 .066101077 .36698915 .03413391 .3019867 .03413391 .16099549 .03413391 .1599884 .16700745 .1599884 .2179718H.46199037C.48399354 .2179718 .49398805 .2179718 .49398805 .2449646 .49398805 .27598573 .48799134 .34906007 .43798829 .3991089 .40098573 .43511964 .34799195 .453125 .2789917 .453125 .11898804 .453125 .03199768 .35005189 .03199768 .22497559 .03199768 .09107971 .13198853-.005859375 .29299928-.005859375 .45098878-.005859375 .49398805 .10006714 .49398805 .11706543M.39898683 .25097657H.1599884C.1619873 .29000855 .16299439 .3320465 .18399048 .36506654 .20999146 .4051056 .25 .41711427 .2789917 .41711427 .3959961 .41711427 .397995 .28599549 .39898683 .25097657Z"/>
<path id="font_11_107" d="M.5169983 .22200012H.46998597C.46699525 .20199585 .45799256 .13798523 .44400025 .1309967 .43299867 .125 .35798646 .125 .34199525 .125H.19499207C.24198914 .1639862 .2939911 .20698548 .33898927 .23999024 .45298768 .3242035 .5169983 .37124635 .5169983 .4663086 .5169983 .5812988 .41299439 .65527346 .27198792 .65527346 .15098572 .65527346 .056991579 .593277 .056991579 .50331118 .056991579 .44430543 .10499573 .42930604 .1289978 .42930604 .16099549 .42930604 .20098877 .4513092 .20098877 .50131228 .20098877 .55329897 .15899658 .5693054 .14399719 .5733032 .17298889 .5972748 .21099854 .6082611 .24699402 .6082611 .33299256 .6082611 .3789978 .54029849 .3789978 .4653015 .3789978 .39627076 .34098817 .3282013 .2709961 .25712586L.069992069 .051986696C.056991579 .039993287 .056991579 .037994386 .056991579 .017990113V0H.48599244L.5169983 .22200012Z"/>
<path id="font_6_84" d="M.61698916 .22218323C.61698916 .354187 .526001 .4501953 .375 .4501953 .2939911 .45033265 .23899842 .41633607 .21998596 .40234376V.4501953L.040985109 .4423828V.39337159C.06098938 .39337159 .07699585 .39337159 .08999634 .39038087 .10899353 .38737489 .10899353 .3763733 .10899353 .3553772V-.14453125H.040985109V-.19354248L.16699219-.1905365 .2939911-.19354248V-.14453125H.22599793V.03942871C.2849884-.005859375 .33999635-.005859375 .35899354-.005859375 .5159912-.005859375 .61698916 .089141849 .61698916 .22216797V.22218323M.48399354 .22315979C.48399354 .08413696 .41299439 .03413391 .34700013 .03413391 .29599 .03413391 .25299073 .06314087 .22599793 .104141239V.34518434C.24398804 .3671875 .29100038 .4071808 .35899354 .4071808 .42900086 .4071808 .48399354 .34518434 .48399354 .22315979Z"/>
<path id="font_6_96" d="M.45498658 .36618043C.45498658 .41719056 .40299989 .4501953 .34399415 .4501953 .27398683 .4501953 .23098755 .39918519 .20899964 .34118653H.20799256V.4501953L.040985109 .4423828V.39337159C.100997928 .39337159 .10899353 .39337159 .10899353 .3543396V.04899597H.040985109V0L.16899109 .0029907227C.19400025 .0029907227 .2519989 .0029907227 .30499269 0V.04899597H.21998596V.21818543C.21998596 .29125978 .24699402 .40737916 .34399415 .41036988 .33299256 .39898683 .32798768 .38198854 .32798768 .3659973 .32798768 .32199098 .36299134 .3019867 .3909912 .3019867 .4229889 .3019867 .45498658 .32398988 .45498658 .3659973V.36618043Z"/>
<path id="font_6_81" d="M.55799868 .21812439C.55799868 .3491211 .46598817 .453125 .29599 .453125 .11999512 .453125 .032989503 .3441162 .032989503 .21812439 .032989503 .09413147 .12298584-.005859375 .29499818-.005859375 .47399903-.005859375 .55799868 .09913635 .55799868 .21812439M.4249878 .22912598C.4249878 .14312744 .4249878 .037139894 .29599 .037139894 .1659851 .037139894 .1659851 .14213562 .1659851 .22912598 .1659851 .3131256 .1659851 .41311646 .29499818 .41311646 .4249878 .41311646 .4249878 .3131256 .4249878 .22912598Z"/>
<path id="font_2_8" d="M.45799256 .6241913C.45799256 .65319827 .45498658 .6582031 .4249878 .6582031 .40098573 .6582031 .39898683 .65618899 .3889923 .6431885L.032989503 .20410156V.15509033H.32998658V.04899597H.21499634V0C.25 .0029907227 .34999085 .0029907227 .3909912 .0029907227 .43199159 .0029907227 .5209961 .0029907227 .55799868 0V.04899597H.45799256V.15509033H.55799868V.20410156H.45799256V.6241913M.34199525 .51516726V.20410156H.08999634L.34199525 .51516726Z"/>
<path id="font_1_1" d="M.32299806 .34472657H.43499757C.41799928 .27182008 .4039917 .20892334 .4039917 .14102173 .4039917 .070114139 .42399598-.0087890629 .47499085-.0087890629 .5039978-.0087890629 .5439911 .021194458 .5439911 .058135988 .5439911 .07211304 .5399933 .07810974 .5339966 .08909607 .4869995 .1659851 .48399354 .23487854 .48399354 .27581788 .48399354 .29179383 .48399354 .3127594 .4889984 .34472657H.61698916C.6349945 .34472657 .651001 .34472657 .6669922 .35972596 .6879883 .37872315 .6879883 .40072633 .6879883 .40272523 .6879883 .4437256 .6499939 .4437256 .6339874 .4437256H.22698975C.20298767 .4437256 .16299439 .4437256 .102996829 .39071656 .08099365 .37171937 .03199768 .31576539 .03199768 .30278016 .03199768 .2868042 .04798889 .2868042 .056991579 .2868042 .07299805 .2868042 .07398987 .2868042 .083999637 .29878236 .12199402 .34472657 .18598938 .34472657 .20799256 .34472657H.2689972C.23999024 .26083375 .20999146 .19593811 .147995 .083099368 .13598633 .06112671 .1309967 .053146364 .1309967 .03816223 .1309967 .015197754 .14898682-.007797241 .18099976-.007797241 .21499634-.007797241 .23399353 .019195557 .23799134 .026184082 .24499512 .03616333 .2579956 .09109497 .25898744 .09307861L.32299806 .34472657Z"/>
</defs>
<path transform="matrix(1,0,0,-1,95.323,202.687)" stroke-width=".79701" stroke-linecap="butt" stroke-miterlimit="10" stroke-linejoin="miter" fill="none" stroke="#000000" d="M-71.87338 0H339.7489"/>
<path transform="matrix(-1,-0,0,1,23.449616,202.687)" d="M4.66248 0C3.28098 .25902 1.0361 1.0361-.51805 1.94269V-1.94269C1.0361-1.0361 3.28098-.25902 4.66248 0"/>
<path transform="matrix(1,0,0,-1,435.0719,202.687)" d="M4.66248 0C3.28098 .25902 1.0361 1.0361-.51805 1.94269V-1.94269C1.0361-1.0361 3.28098-.25902 4.66248 0"/>
<use data-text="x" xlink:href="#font_1_3" transform="matrix(8.9664,0,0,-8.9664,443.453,204.68)"/>
<path transform="matrix(1,0,0,-1,95.323,202.687)" stroke-width=".79701" stroke-linecap="butt" stroke-miterlimit="10" stroke-linejoin="miter" fill="none" stroke="#000000" d="M0-50.6139V179.5922"/>
<path transform="matrix(0,1,1,0,95.323,253.3009)" d="M4.66248 0C3.28098 .25902 1.0361 1.0361-.51805 1.94269V-1.94269C1.0361-1.0361 3.28098-.25902 4.66248 0"/>
<path transform="matrix(0,-1,-1,-0,95.323,23.094803)" d="M4.66248 0C3.28098 .25902 1.0361 1.0361-.51805 1.94269V-1.94269C1.0361-1.0361 3.28098-.25902 4.66248 0"/>
<use data-text="y" xlink:href="#font_1_4" transform="matrix(8.9664,0,0,-8.9664,92.428,12.970001)"/>
<use data-text="0" xlink:href="#font_2_4" transform="matrix(8.9664,0,0,-8.9664,96.007999,211.985)"/>
<path transform="matrix(1,0,0,-1,95.323,202.687)" stroke-width=".79701" stroke-linecap="butt" stroke-miterlimit="10" stroke-linejoin="miter" fill="none" stroke="#000000" d="M-25.51193 2.9481V-2.9481"/>
<use data-text="&#x2212;" xlink:href="#font_3_1" transform="matrix(8.9664,0,0,-8.9664,63.922998,217.967)"/>
<use data-text="1" xlink:href="#font_4_2" transform="matrix(8.9664,0,0,-8.9664,71.09,217.967)"/>
<path transform="matrix(1,0,0,-1,95.323,202.687)" stroke-width=".79701" stroke-linecap="butt" stroke-miterlimit="10" stroke-linejoin="miter" fill="none" stroke="#000000" d="M25.51193 2.9481V-2.9481"/>
<use data-text="1" xlink:href="#font_5_82" transform="matrix(8.9664,0,0,-8.9664,118.531,218.161)"/>
<path transform="matrix(1,0,0,-1,95.323,202.687)" stroke-width=".79701" stroke-linecap="butt" stroke-miterlimit="10" stroke-linejoin="miter" fill="none" stroke="#000000" d="M51.0239 2.9481V-2.9481"/>
<use data-text="2" xlink:href="#font_5_107" transform="matrix(8.9664,0,0,-8.9664,144.043,218.161)"/>
<path transform="matrix(1,0,0,-1,95.323,202.687)" stroke-width=".79701" stroke-linecap="butt" stroke-miterlimit="10" stroke-linejoin="miter" fill="none" stroke="#000000" d="M76.53586 2.9481V-2.9481"/>
<use data-text="3" xlink:href="#font_5_106" transform="matrix(8.9664,0,0,-8.9664,169.554,218.161)"/>
<path transform="matrix(1,0,0,-1,95.323,202.687)" stroke-width=".79701" stroke-linecap="butt" stroke-miterlimit="10" stroke-linejoin="miter" fill="none" stroke="#000000" d="M102.0478 2.9481V-2.9481"/>
<use data-text="4" xlink:href="#font_5_57" transform="matrix(8.9664,0,0,-8.9664,195.066,218.259)"/>
<path transform="matrix(1,0,0,-1,95.323,202.687)" stroke-width=".79701" stroke-linecap="butt" stroke-miterlimit="10" stroke-linejoin="miter" fill="none" stroke="#000000" d="M127.55977 2.9481V-2.9481"/>
<use data-text="5" xlink:href="#font_5_56" transform="matrix(8.9664,0,0,-8.9664,220.578,218.161)"/>
<path transform="matrix(1,0,0,-1,95.323,202.687)" stroke-width=".79701" stroke-linecap="butt" stroke-miterlimit="10" stroke-linejoin="miter" fill="none" stroke="#000000" d="M153.07172 2.9481V-2.9481"/>
<use data-text="6" xlink:href="#font_5_101" transform="matrix(8.9664,0,0,-8.9664,246.09,218.161)"/>
<path transform="matrix(1,0,0,-1,95.323,202.687)" stroke-width=".79701" stroke-linecap="butt" stroke-miterlimit="10" stroke-linejoin="miter" fill="none" stroke="#000000" d="M178.58368 2.9481V-2.9481"/>
<use data-text="7" xlink:href="#font_5_100" transform="matrix(8.9664,0,0,-8.9664,271.60203,218.25)"/>
<path transform="matrix(1,0,0,-1,95.323,202.687)" stroke-width=".79701" stroke-linecap="butt" stroke-miterlimit="10" stroke-linejoin="miter" fill="none" stroke="#000000" d="M204.09563 2.9481V-2.9481"/>
<use data-text="8" xlink:href="#font_5_51" transform="matrix(8.9664,0,0,-8.9664,297.114,218.161)"/>
<path transform="matrix(1,0,0,-1,95.323,202.687)" stroke-width=".79701" stroke-linecap="butt" stroke-miterlimit="10" stroke-linejoin="miter" fill="none" stroke="#000000" d="M229.60759 2.9481V-2.9481"/>
<use data-text="9" xlink:href="#font_5_78" transform="matrix(8.9664,0,0,-8.9664,322.62599,218.161)"/>
<path transform="matrix(1,0,0,-1,95.323,202.687)" stroke-width=".79701" stroke-linecap="butt" stroke-miterlimit="10" stroke-linejoin="miter" fill="none" stroke="#000000" d="M255.11956 2.9481V-2.9481"/>
<use data-text="1" xlink:href="#font_5_82" transform="matrix(8.9664,0,0,-8.9664,345.83399,218.161)"/>
<use data-text="0" xlink:href="#font_5_121" transform="matrix(8.9664,0,0,-8.9664,350.44273,218.161)"/>
<path transform="matrix(1,0,0,-1,95.323,202.687)" stroke-width=".79701" stroke-linecap="butt" stroke-miterlimit="10" stroke-linejoin="miter" fill="none" stroke="#000000" d="M280.6315 2.9481V-2.9481"/>
<use data-text="1" xlink:href="#font_5_82" transform="matrix(8.9664,0,0,-8.9664,371.346,218.161)"/>
<use data-text="1" xlink:href="#font_5_82" transform="matrix(8.9664,0,0,-8.9664,375.95475,218.161)"/>
<path transform="matrix(1,0,0,-1,95.323,202.687)" stroke-width=".79701" stroke-linecap="butt" stroke-miterlimit="10" stroke-linejoin="miter" fill="none" stroke="#000000" d="M306.14347 2.9481V-2.9481"/>
<use data-text="1" xlink:href="#font_5_82" transform="matrix(8.9664,0,0,-8.9664,396.858,218.161)"/>
<use data-text="2" xlink:href="#font_5_107" transform="matrix(8.9664,0,0,-8.9664,401.46675,218.161)"/>
<path transform="matrix(1,0,0,-1,95.323,202.687)" stroke-width=".79701" stroke-linecap="butt" stroke-miterlimit="10" stroke-linejoin="miter" fill="none" stroke="#000000" d="M1.53064 36.85092H-1.53064"/>
<use data-text="1" xlink:href="#font_5_82" transform="matrix(8.9664,0,0,-8.9664,82.63,168.82199)"/>
<path transform="matrix(1,0,0,-1,95.323,202.687)" stroke-width=".79701" stroke-linecap="butt" stroke-miterlimit="10" stroke-linejoin="miter" fill="none" stroke="#000000" d="M1.53064 73.70186H-1.53064"/>
<use data-text="2" xlink:href="#font_5_107" transform="matrix(8.9664,0,0,-8.9664,82.63,131.971)"/>
<path transform="matrix(1,0,0,-1,95.323,202.687)" stroke-width=".79701" stroke-linecap="butt" stroke-miterlimit="10" stroke-linejoin="miter" fill="none" stroke="#000000" d="M1.53064 110.55281H-1.53064"/>
<use data-text="3" xlink:href="#font_5_106" transform="matrix(8.9664,0,0,-8.9664,82.63,95.020999)"/>
<path transform="matrix(1,0,0,-1,95.323,202.687)" stroke-width=".79701" stroke-linecap="butt" stroke-miterlimit="10" stroke-linejoin="miter" fill="none" stroke="#000000" d="M1.53064 147.40375H-1.53064"/>
<use data-text="4" xlink:href="#font_5_57" transform="matrix(8.9664,0,0,-8.9664,82.63,58.317995)"/>
<path transform="matrix(1,0,0,-1,95.323,202.687)" stroke-width="1.19553" stroke-linecap="butt" stroke-dasharray="2.98883,2.98883" stroke-miterlimit="10" stroke-linejoin="miter" fill="none" stroke="#cc0000" d="M-42.73349 73.70186H323.365"/>
<path transform="matrix(-1,-0,0,1,52.589509,128.98514)" d="M3.18808 0-1.91284 2.55046 0 0-1.91284-2.55046" fill="#cc0000"/>
<path transform="matrix(1,0,0,-1,418.688,128.98514)" d="M3.18808 0-1.91284 2.55046 0 0-1.91284-2.55046" fill="#cc0000"/>
<use data-text="y" xlink:href="#font_1_4" transform="matrix(8.9664,0,0,-8.9664,13.926001,126.368)" fill="#cc0000"/>
<use data-text="=" xlink:href="#font_2_13" transform="matrix(8.9664,0,0,-8.9664,22.275002,126.368)" fill="#cc0000"/>
<use data-text="2" xlink:href="#font_2_6" transform="matrix(8.9664,0,0,-8.9664,33.079515,126.368)" fill="#cc0000"/>
<use data-text="m" xlink:href="#font_6_75" transform="matrix(8.9664,0,0,-8.9664,8.989002,137.327)" fill="#cc0000"/>
<use data-text="i" xlink:href="#font_6_66" transform="matrix(8.9664,0,0,-8.9664,17.829873,137.327)" fill="#cc0000"/>
<use data-text="d" xlink:href="#font_6_47" transform="matrix(8.9664,0,0,-8.9664,20.77982,137.327)" fill="#cc0000"/>
<use data-text="l" xlink:href="#font_6_72" transform="matrix(8.9664,0,0,-8.9664,26.670746,137.327)" fill="#cc0000"/>
<use data-text="i" xlink:href="#font_6_66" transform="matrix(8.9664,0,0,-8.9664,29.620694,137.327)" fill="#cc0000"/>
<use data-text="n" xlink:href="#font_6_77" transform="matrix(8.9664,0,0,-8.9664,32.57064,137.327)" fill="#cc0000"/>
<use data-text="e" xlink:href="#font_6_50" transform="matrix(8.9664,0,0,-8.9664,38.461568,137.327)" fill="#cc0000"/>
<path transform="matrix(1,0,0,-1,95.323,202.687)" stroke-width="1.59404" stroke-linecap="butt" stroke-miterlimit="10" stroke-linejoin="miter" fill="none" stroke="#bf8040" d="M-61.0542 17.14996-61.81866 17.88676-59.85747 16.07951-57.89626 14.35551-55.93506 12.71922-53.97386 11.17401-52.01266 9.72104-50.05147 8.36478-48.09027 7.10184-46.12907 5.93785-44.16786 4.87401-42.20667 3.91246-40.24547 3.05553-38.28426 2.29977-36.32306 1.6509-34.36186 1.1077-32.40065 .67474-30.43947 .34746-28.47826 .12819-26.51704 .01683-24.55586 .01459-22.59467 .1248-20.63345 .34073-18.67226 .66463-16.71106 1.09532-14.74986 1.63515-12.78865 2.28291-10.82745 3.03526-8.86626 3.88998-6.90504 4.84813-4.94385 5.90976-2.98265 7.07147-1.02144 8.33101 .9397 9.68729 2.9009 11.13579 4.8621 12.67986 6.8233 14.31279 8.7845 16.03453 10.74571 17.84065 12.7069 19.72885 14.6681 21.69691 16.62932 23.74257 18.5905 25.86131 20.55171 28.05203 22.51292 30.30798 24.4741 32.62915 26.4353 35.01219 28.39651 37.45032 30.35771 39.94244 32.31891 42.48404 34.2801 45.07399 36.24132 47.70557 38.20251 50.37312 40.16371 53.07779 42.12492 55.8117 44.08612 58.57259 46.04732 61.35599 48.00853 64.15738 49.96971 66.97223 51.93091 69.79724 53.89212 72.62787 55.8533 75.45848 57.81451 78.28911 59.77573 81.11185 61.73691 83.92447 63.69812 86.72134 65.65933 89.49913 67.62051 92.25328 69.58173 94.98044 71.54292 97.67723 73.50412 100.33691 75.46532 102.95723 77.42651 105.53593 79.38773 108.0663 81.34892 110.5483 83.31012 112.9718 85.27133 115.3391 87.23251 117.64565 89.19373 119.887 91.15494 122.06195 93.11612 124.1616 95.07733 126.18813 97.03854 128.13707 98.99973 130.00615 100.96092 131.79314 102.92213 133.49243 104.88332 135.10283 106.84453 136.62442 108.80573 138.05268 110.76692 139.38645 112.72813 140.62238 114.68933 141.75711 116.65053 142.79512 118.61174 143.73078 120.57294 144.56073 122.53413 145.28723 124.49533 145.90575 126.45653 146.42082 128.41773 146.82794 130.37892 147.12708 132.34014 147.31488 134.30135 147.39698 136.26253 147.36887 138.22374 147.23392 140.18495 146.98987 142.14614 146.6345 144.10735 146.17342 146.06855 145.6055 148.02974 144.93186 149.99094 144.15251 151.95214 143.26857 153.91333 142.28118 155.87454 141.19367 157.83574 140.00609 159.79694 138.72295 161.75815 137.33966 163.71935 135.86307 165.68054 134.29651 167.64174 132.64109 169.60295 130.89797 171.56415 129.06822 173.52535 127.15753 175.48654 125.1681 177.44774 123.10448 179.40894 120.96658 181.37015 118.75789 183.33135 116.4828 185.29254 114.1459 187.25376 111.74937 189.21495 109.2966 191.17615 106.78876 193.13736 104.23366 195.09856 101.63358 197.05976 98.99188 199.02097 96.31308 200.98215 93.60167 202.94335 90.85878 204.90454 88.09225 206.86576 85.30435 208.82695 82.49849 210.78815 79.68024 212.74936 76.85298 214.71056 74.02238 216.67176 71.19174 218.63297 68.36224 220.59415 65.54175 222.55536 62.73361 224.51657 59.94122 226.47774 57.16795 228.43895 54.42169 230.40016 51.7024 232.36135 49.01459 234.32256 46.36504 236.28377 43.75371 238.24495 41.18964 240.20616 38.67163 242.16736 36.20653 244.12857 33.79538 246.08977 31.4427 248.05097 29.15413 250.01218 26.93304 251.97336 24.77832 253.93456 22.69556 255.89577 20.68701 257.85697 18.76057 259.81816 16.91512 261.77937 15.1506 263.74055 13.47383 265.70179 11.88477 267.663 10.39017 269.62416 8.98778 271.58537 7.67989 273.5466 6.46982 275.50776 5.35756 277.46897 4.34993 279.43019 3.4435 281.39137 2.64055 283.35258 1.94102 285.31379 1.34724 287.27497 .86368 289.23619 .48581 291.19737 .21814 293.15858 .05508 295.11979 .00108 297.081 .0607 299.04219 .22714 301.00337 .4993 302.96458 .88052 304.92579 1.36974 306.88697 1.96803 308.84819 2.6709 310.8094 3.47836 312.77058 4.38705 314.73179 5.40031 316.693 6.51593 318.65419 7.73048 320.6154 9.04065 322.57658 10.44751 324.53779 11.94661 323.56004 11.15288"/>
<path transform="matrix(-.71997,-.69397,-.69397,.71997,34.268819,185.53705)" d="M3.78581 0-2.27148 3.02866 0 0-2.27148-3.02866" fill="#bf8040"/>
<path transform="matrix(.7763,-.6303,-.6303,-.7763,418.88304,191.53412)" d="M3.78581 0-2.27148 3.02866 0 0-2.27148-3.02866" fill="#bf8040"/>
<path transform="matrix(1,0,0,-1,95.323,202.687)" d="M-23.25742 0C-23.25742 1.24515-24.26678 2.2545-25.51193 2.2545-26.75708 2.2545-27.76645 1.24515-27.76645 0-27.76645-1.24515-26.75708-2.2545-25.51193-2.2545-24.26678-2.2545-23.25742-1.24515-23.25742 0ZM-25.51193 0"/>
<path transform="matrix(1,0,0,-1,95.323,202.687)" stroke-width=".49814" stroke-linecap="butt" stroke-miterlimit="10" stroke-linejoin="miter" fill="none" stroke="#ffffff" d="M-23.25742 0C-23.25742 1.24515-24.26678 2.2545-25.51193 2.2545-26.75708 2.2545-27.76645 1.24515-27.76645 0-27.76645-1.24515-26.75708-2.2545-25.51193-2.2545-24.26678-2.2545-23.25742-1.24515-23.25742 0ZM-25.51193 0"/>
<path transform="matrix(1,0,0,-1,95.323,202.687)" d="M56.89055 73.70186C56.89055 74.947 55.8812 75.95638 54.63603 75.95638 53.39088 75.95638 52.38153 74.947 52.38153 73.70186 52.38153 72.45671 53.39088 71.44734 54.63603 71.44734 55.8812 71.44734 56.89055 72.45671 56.89055 73.70186ZM54.63603 73.70186"/>
<path transform="matrix(1,0,0,-1,95.323,202.687)" stroke-width=".49814" stroke-linecap="butt" stroke-miterlimit="10" stroke-linejoin="miter" fill="none" stroke="#ffffff" d="M56.89055 73.70186C56.89055 74.947 55.8812 75.95638 54.63603 75.95638 53.39088 75.95638 52.38153 74.947 52.38153 73.70186 52.38153 72.45671 53.39088 71.44734 54.63603 71.44734 55.8812 71.44734 56.89055 72.45671 56.89055 73.70186ZM54.63603 73.70186"/>
<path transform="matrix(1,0,0,-1,95.323,202.687)" d="M137.03856 147.40375C137.03856 148.6489 136.02919 149.65825 134.78404 149.65825 133.5389 149.65825 132.52953 148.6489 132.52953 147.40375 132.52953 146.1586 133.5389 145.14923 134.78404 145.14923 136.02919 145.14923 137.03856 146.1586 137.03856 147.40375ZM134.78404 147.40375"/>
<path transform="matrix(1,0,0,-1,95.323,202.687)" stroke-width=".49814" stroke-linecap="butt" stroke-miterlimit="10" stroke-linejoin="miter" fill="none" stroke="#ffffff" d="M137.03856 147.40375C137.03856 148.6489 136.02919 149.65825 134.78404 149.65825 133.5389 149.65825 132.52953 148.6489 132.52953 147.40375 132.52953 146.1586 133.5389 145.14923 134.78404 145.14923 136.02919 145.14923 137.03856 146.1586 137.03856 147.40375ZM134.78404 147.40375"/>
<path transform="matrix(1,0,0,-1,95.323,202.687)" d="M217.18659 73.70186C217.18659 74.947 216.17722 75.95638 214.93207 75.95638 213.68692 75.95638 212.67755 74.947 212.67755 73.70186 212.67755 72.45671 213.68692 71.44734 214.93207 71.44734 216.17722 71.44734 217.18659 72.45671 217.18659 73.70186ZM214.93207 73.70186"/>
<path transform="matrix(1,0,0,-1,95.323,202.687)" stroke-width=".49814" stroke-linecap="butt" stroke-miterlimit="10" stroke-linejoin="miter" fill="none" stroke="#ffffff" d="M217.18659 73.70186C217.18659 74.947 216.17722 75.95638 214.93207 75.95638 213.68692 75.95638 212.67755 74.947 212.67755 73.70186 212.67755 72.45671 213.68692 71.44734 214.93207 71.44734 216.17722 71.44734 217.18659 72.45671 217.18659 73.70186ZM214.93207 73.70186"/>
<path transform="matrix(1,0,0,-1,95.323,202.687)" d="M297.3346 0C297.3346 1.24515 296.32524 2.2545 295.08009 2.2545 293.83494 2.2545 292.82557 1.24515 292.82557 0 292.82557-1.24515 293.83494-2.2545 295.08009-2.2545 296.32524-2.2545 297.3346-1.24515 297.3346 0ZM295.08009 0"/>
<path transform="matrix(1,0,0,-1,95.323,202.687)" stroke-width=".49814" stroke-linecap="butt" stroke-miterlimit="10" stroke-linejoin="miter" fill="none" stroke="#ffffff" d="M297.3346 0C297.3346 1.24515 296.32524 2.2545 295.08009 2.2545 293.83494 2.2545 292.82557 1.24515 292.82557 0 292.82557-1.24515 293.83494-2.2545 295.08009-2.2545 296.32524-2.2545 297.3346-1.24515 297.3346 0ZM295.08009 0"/>
<use data-text="(" xlink:href="#font_7_1" transform="matrix(9.9626,0,0,-9.9626,52.75,227.85199)"/>
<use data-text="&#x2212;" xlink:href="#font_8_1" transform="matrix(9.9626,0,0,-9.9626,57.204999,227.85199)"/>
<use data-text="1" xlink:href="#font_7_5" transform="matrix(9.9626,0,0,-9.9626,66.116,227.85199)"/>
<use data-text="," xlink:href="#font_9_2" transform="matrix(9.9626,0,0,-9.9626,71.845,227.85199)"/>
<use data-text="0" xlink:href="#font_7_4" transform="matrix(9.9626,0,0,-9.9626,76.687999,227.85199)"/>
<use data-text=")" xlink:href="#font_7_2" transform="matrix(9.9626,0,0,-9.9626,82.41649,227.85199)"/>
<use data-text="(" xlink:href="#font_7_1" transform="matrix(9.9626,0,0,-9.9626,99.304,120.126)"/>
<use data-text="&#x03c0;" xlink:href="#font_9_1" transform="matrix(9.9626,0,0,-9.9626,103.759,120.126)"/>
<use data-text="&#x2212;" xlink:href="#font_8_1" transform="matrix(9.9626,0,0,-9.9626,113.14101,120.126)"/>
<use data-text="1" xlink:href="#font_7_5" transform="matrix(9.9626,0,0,-9.9626,124.265,120.126)"/>
<use data-text="," xlink:href="#font_9_2" transform="matrix(9.9626,0,0,-9.9626,129.994,120.126)"/>
<use data-text="2" xlink:href="#font_7_6" transform="matrix(9.9626,0,0,-9.9626,134.837,120.126)"/>
<use data-text=")" xlink:href="#font_7_2" transform="matrix(9.9626,0,0,-9.9626,140.56549,120.126)"/>
<use data-text="(" xlink:href="#font_7_1" transform="matrix(9.9626,0,0,-9.9626,204.383,44.99199)"/>
<use data-text="2" xlink:href="#font_7_6" transform="matrix(9.9626,0,0,-9.9626,208.83628,44.99199)"/>
<use data-text="&#x03c0;" xlink:href="#font_9_1" transform="matrix(9.9626,0,0,-9.9626,214.567,44.99199)"/>
<use data-text="&#x2212;" xlink:href="#font_8_1" transform="matrix(9.9626,0,0,-9.9626,223.948,44.99199)"/>
<use data-text="1" xlink:href="#font_7_5" transform="matrix(9.9626,0,0,-9.9626,235.073,44.99199)"/>
<use data-text="," xlink:href="#font_9_2" transform="matrix(9.9626,0,0,-9.9626,240.801,44.99199)"/>
<use data-text="4" xlink:href="#font_7_8" transform="matrix(9.9626,0,0,-9.9626,245.644,44.99199)"/>
<use data-text=")" xlink:href="#font_7_2" transform="matrix(9.9626,0,0,-9.9626,251.3725,44.99199)"/>
<use data-text="(" xlink:href="#font_7_1" transform="matrix(9.9626,0,0,-9.9626,316.609,120.126)"/>
<use data-text="3" xlink:href="#font_7_7" transform="matrix(9.9626,0,0,-9.9626,321.0623,120.126)"/>
<use data-text="&#x03c0;" xlink:href="#font_9_1" transform="matrix(9.9626,0,0,-9.9626,326.793,120.126)"/>
<use data-text="&#x2212;" xlink:href="#font_8_1" transform="matrix(9.9626,0,0,-9.9626,336.174,120.126)"/>
<use data-text="1" xlink:href="#font_7_5" transform="matrix(9.9626,0,0,-9.9626,347.299,120.126)"/>
<use data-text="," xlink:href="#font_9_2" transform="matrix(9.9626,0,0,-9.9626,353.027,120.126)"/>
<use data-text="2" xlink:href="#font_7_6" transform="matrix(9.9626,0,0,-9.9626,357.87,120.126)"/>
<use data-text=")" xlink:href="#font_7_2" transform="matrix(9.9626,0,0,-9.9626,363.5985,120.126)"/>
<use data-text="(" xlink:href="#font_7_1" transform="matrix(9.9626,0,0,-9.9626,364.679,227.85199)"/>
<use data-text="4" xlink:href="#font_7_8" transform="matrix(9.9626,0,0,-9.9626,369.13227,227.85199)"/>
<use data-text="&#x03c0;" xlink:href="#font_9_1" transform="matrix(9.9626,0,0,-9.9626,374.86299,227.85199)"/>
<use data-text="&#x2212;" xlink:href="#font_8_1" transform="matrix(9.9626,0,0,-9.9626,384.244,227.85199)"/>
<use data-text="1" xlink:href="#font_7_5" transform="matrix(9.9626,0,0,-9.9626,395.369,227.85199)"/>
<use data-text="," xlink:href="#font_9_2" transform="matrix(9.9626,0,0,-9.9626,401.097,227.85199)"/>
<use data-text="0" xlink:href="#font_7_4" transform="matrix(9.9626,0,0,-9.9626,405.94,227.85199)"/>
<use data-text=")" xlink:href="#font_7_2" transform="matrix(9.9626,0,0,-9.9626,411.6685,227.85199)"/>
<use data-text="y" xlink:href="#font_9_8" transform="matrix(9.9626,0,0,-9.9626,318.698,57.774003)" fill="#ac7339"/>
<use data-text="=" xlink:href="#font_7_12" transform="matrix(9.9626,0,0,-9.9626,327.715,57.774003)" fill="#ac7339"/>
<use data-text="&#x2212;" xlink:href="#font_8_1" transform="matrix(9.9626,0,0,-9.9626,339.393,57.774003)" fill="#ac7339"/>
<use data-text="2" xlink:href="#font_7_6" transform="matrix(9.9626,0,0,-9.9626,348.30403,57.774003)" fill="#ac7339"/>
<use data-text="c" xlink:href="#font_7_13" transform="matrix(9.9626,0,0,-9.9626,355.68629,57.774003)" fill="#ac7339"/>
<use data-text="o" xlink:href="#font_7_16" transform="matrix(9.9626,0,0,-9.9626,360.77717,57.774003)" fill="#ac7339"/>
<use data-text="s" xlink:href="#font_7_17" transform="matrix(9.9626,0,0,-9.9626,366.50569,57.774003)" fill="#ac7339"/>
<use data-text="1" xlink:href="#font_10_1" transform="matrix(6.9738,0,0,-6.9738,373.888,53.550004)" fill="#ac7339"/>
<path transform="matrix(1,0,0,-1,295.375,-72.916)" stroke-width=".3985" stroke-linecap="butt" stroke-miterlimit="10" stroke-linejoin="miter" fill="none" stroke="#ac7339" d="M78.513-128.199H83.027"/>
<use data-text="2" xlink:href="#font_10_2" transform="matrix(6.9738,0,0,-6.9738,373.888,61.509996)" fill="#ac7339"/>
<use data-text="(" xlink:href="#font_7_1" transform="matrix(9.9626,0,0,-9.9626,379.598,57.774003)" fill="#ac7339"/>
<use data-text="x" xlink:href="#font_9_7" transform="matrix(9.9626,0,0,-9.9626,384.053,57.774003)" fill="#ac7339"/>
<use data-text="+" xlink:href="#font_7_3" transform="matrix(9.9626,0,0,-9.9626,392.833,57.774003)" fill="#ac7339"/>
<use data-text="1" xlink:href="#font_7_5" transform="matrix(9.9626,0,0,-9.9626,403.95127,57.774003)" fill="#ac7339"/>
<use data-text=")" xlink:href="#font_7_2" transform="matrix(9.9626,0,0,-9.9626,409.67976,57.774003)" fill="#ac7339"/>
<use data-text="+" xlink:href="#font_7_3" transform="matrix(9.9626,0,0,-9.9626,416.34474,57.774003)" fill="#ac7339"/>
<use data-text="2" xlink:href="#font_7_6" transform="matrix(9.9626,0,0,-9.9626,427.463,57.774003)" fill="#ac7339"/>
<path transform="matrix(1,0,0,-1,95.323,202.687)" stroke-width=".79701" stroke-linecap="butt" stroke-miterlimit="10" stroke-linejoin="miter" fill="none" stroke="#000000" d="M134.78404 78.36433V142.74126"/>
<path transform="matrix(0,1,1,0,230.10704,124.32267)" d="M4.66248 0C3.28098 .25902 1.0361 1.0361-.51805 1.94269V-1.94269C1.0361-1.0361 3.28098-.25902 4.66248 0"/>
<path transform="matrix(0,-1,-1,-0,230.10704,59.94574)" d="M4.66248 0C3.28098 .25902 1.0361 1.0361-.51805 1.94269V-1.94269C1.0361-1.0361 3.28098-.25902 4.66248 0"/>
<use data-text="a" xlink:href="#font_11_28" transform="matrix(0,-9.9626,-9.9626,-0,220.403,122.04199)"/>
<use data-text="m" xlink:href="#font_11_75" transform="matrix(0,-9.9626,-9.9626,-0,220.403,116.4729)"/>
<use data-text="p" xlink:href="#font_11_84" transform="matrix(0,-9.9626,-9.9626,-0,220.403,106.92873)"/>
<use data-text="l" xlink:href="#font_11_72" transform="matrix(0,-9.9626,-9.9626,-0,220.403,100.56262)"/>
<use data-text="i" xlink:href="#font_11_66" transform="matrix(0,-9.9626,-9.9626,-0,220.403,97.38455)"/>
<use data-text="t" xlink:href="#font_11_105" transform="matrix(0,-9.9626,-9.9626,-0,220.403,94.20648)"/>
<use data-text="u" xlink:href="#font_11_109" transform="matrix(0,-9.9626,-9.9626,-0,220.403,89.753208)"/>
<use data-text="d" xlink:href="#font_11_47" transform="matrix(0,-9.9626,-9.9626,-0,220.403,83.3871)"/>
<use data-text="e" xlink:href="#font_11_50" transform="matrix(0,-9.9626,-9.9626,-0,220.403,77.021)"/>
<use data-text="2" xlink:href="#font_11_107" transform="matrix(0,-9.9626,-9.9626,-0,220.403,67.965007)"/>
<path transform="matrix(1,0,0,-1,95.323,202.687)" stroke-width=".79701" stroke-linecap="butt" stroke-miterlimit="10" stroke-linejoin="miter" fill="none" stroke="#000000" d="M-24.91418-36.85092H294.48234"/>
<path transform="matrix(-1,-0,0,1,75.27055,239.53792)" d="M4.66248 0C3.28098 .25902 1.0361 1.0361-.51805 1.94269V-1.94269C1.0361-1.0361 3.28098-.25902 4.66248 0"/>
<path transform="matrix(-1,-0,0,1,70.209568,239.53792)" stroke-width=".79701" stroke-linecap="butt" stroke-miterlimit="10" stroke-linejoin="miter" fill="none" stroke="#000000" d="M0 3.08846V-3.08846"/>
<path transform="matrix(1,0,0,-1,384.94358,239.53792)" d="M4.66248 0C3.28098 .25902 1.0361 1.0361-.51805 1.94269V-1.94269C1.0361-1.0361 3.28098-.25902 4.66248 0"/>
<path transform="matrix(1,0,0,-1,390.00456,239.53792)" stroke-width=".79701" stroke-linecap="butt" stroke-miterlimit="10" stroke-linejoin="miter" fill="none" stroke="#000000" d="M0 3.08846V-3.08846"/>
<path transform="matrix(1,0,0,-1,95.323,202.687)" d="M103.38803-42.32645H151.7315V-31.37542H103.38803Z" fill="#ffffff"/>
<use data-text="p" xlink:href="#font_6_84" transform="matrix(8.9664,0,0,-8.9664,200.205,241.78)"/>
<use data-text="e" xlink:href="#font_6_50" transform="matrix(8.9664,0,0,-8.9664,206.38286,241.78)"/>
<use data-text="r" xlink:href="#font_6_96" transform="matrix(8.9664,0,0,-8.9664,211.25162,241.78)"/>
<use data-text="i" xlink:href="#font_6_66" transform="matrix(8.9664,0,0,-8.9664,215.62722,241.78)"/>
<use data-text="o" xlink:href="#font_6_81" transform="matrix(8.9664,0,0,-8.9664,218.57717,241.78)"/>
<use data-text="d" xlink:href="#font_6_47" transform="matrix(8.9664,0,0,-8.9664,224.18115,241.78)"/>
<use data-text="4" xlink:href="#font_2_8" transform="matrix(8.9664,0,0,-8.9664,233.613,241.78)"/>
<use data-text="&#x03c0;" xlink:href="#font_1_1" transform="matrix(8.9664,0,0,-8.9664,238.918,241.78)"/>
</svg>
