<svg style="overflow: visible;" xmlns="http://www.w3.org/2000/svg" xmlns:xlink="http://www.w3.org/1999/xlink" xmlns:inkscape="http://www.inkscape.org/namespaces/inkscape" version="1.1" width="100%" height="100%" viewBox="0 0 383.22 203.54">
<defs>
<path id="font_1_3" d="M.5499878 .39736939C.5169983 .38838197 .49299623 .35838319 .49299623 .32537843 .49299623 .28938294 .5209961 .27539063 .54499819 .27539063 .58299258 .27539063 .62098696 .30638124 .62098696 .35838319 .62098696 .41610719 .56399539 .45210267 .5029907 .45210267 .45498658 .45210267 .4169922 .4250946 .3919983 .39338685 .37799073 .41111756 .34399415 .45210267 .25 .45210267 .117996219 .45210267 .04899597 .3303833 .04899597 .29638673 .04899597 .28138734 .06298828 .28138734 .07499695 .28138734 .09098816 .28138734 .09599304 .28138734 .099990848 .29537965 .1329956 .39338685 .21299744 .41210938 .24398804 .41210938 .30299378 .41210938 .30299378 .37438966 .30299378 .36138917 .30299378 .3423767 .2889862 .28637696 .27999879 .24926758 .27198792 .21914673 .25299073 .14093018 .24699402 .11993408 .23098755 .056930543 .19198609 .032180787 .16099549 .032180787 .13999939 .032180787 .12098694 .04005432 .11099243 .046951295 .14399719 .05593872 .16799927 .0859375 .16799927 .11894226 .16799927 .15493775 .13999939 .16894531 .115997318 .16894531 .07798767 .16894531 .039993287 .13793946 .039993287 .0859375 .039993287 .028182984 .09700012-.0078125 .1579895-.0078125 .20599365-.0078125 .24398804 .019180298 .2689972 .050933839 .2829895 .03315735 .31698609-.0078125 .41099549-.0078125 .54299929-.0078125 .6119995 .11393738 .6119995 .14793396 .6119995 .16394043 .59498599 .16394043 .58599856 .16394043 .56799319 .16394043 .5649872 .16093445 .5609894 .14894104 .5279999 .050933839 .44799806 .032180787 .4169922 .032180787 .35798646 .032180787 .35798646 .06993103 .35798646 .08293152 .35798646 .10194397 .37199403 .15794373 .3809967 .1950531 .3889923 .22517395 .4079895 .3033905 .4139862 .3243866 .42999269 .38739015 .46899415 .41210938 .5 .41210938 .5209961 .41210938 .5399933 .40423585 .5499878 .39736939Z"/>
<path id="font_1_4" d="M.59498599 .3731079C.598999 .38909913 .598999 .394104 .598999 .3981018 .598999 .4320984 .57199099 .44410707 .5509949 .44410707 .49798585 .44410707 .48599244 .3961029 .47898866 .3701172L.45298768 .26612855C.43899537 .21113587 .42599488 .15615845 .41099549 .10116577 .4099884 .09416199 .3659973 .032180787 .30099488 .032180787 .2579956 .032180787 .23799134 .057174684 .23799134 .10417175 .23799134 .16314698 .27198792 .24913025 .29899598 .3171234 .30499269 .33111573 .31098939 .3461151 .31098939 .36210633 .31098939 .41410829 .25898744 .45210267 .19299317 .45210267 .08699036 .45210267 .032989503 .32011415 .032989503 .29612733 .032989503 .28112794 .04699707 .28112794 .05899048 .28112794 .07499695 .28112794 .07998657 .28112794 .083999637 .29512025 .11898804 .4091034 .1769867 .41210938 .18699646 .41210938 .19299317 .41210938 .20399475 .41210938 .20399475 .3901062 .20399475 .36810304 .19299317 .3421173 .18798828 .32911683 .147995 .22813416 .12799073 .17315674 .12799073 .12416077 .12799073 .0231781 .20899964-.0078125 .29299928-.0078125 .30899049-.0078125 .34700013-.0078125 .3919983 .02218628 .36999513-.08416748 .29599-.16210938 .21598816-.16210938 .21398926-.16210938 .18499756-.16210938 .16099549-.15216065 .18399048-.14016724 .20399475-.11515808 .20399475-.0851593 .20399475-.04916382 .17599488-.03515625 .1519928-.03515625 .10899353-.03515625 .07598877-.07316589 .07598877-.11416626 .07598877-.17111206 .13699341-.20211792 .21598816-.20211792 .33799745-.20211792 .47099305-.123168949 .5009918-.0018157959L.59498599 .3731079Z"/>
<path id="font_2_4" d="M.5529938 .34713746C.5569916 .36012269 .56199648 .38111878 .56199648 .38812257 .56199648 .41111756 .5439911 .43511964 .5109863 .43511964 .5009918 .43511964 .47698976 .43211366 .45899964 .41111756 .4149933 .453125 .3600006 .453125 .34399415 .453125 .15699768 .453125 .04798889 .29414369 .04798889 .16116333 .04798889 .04119873 .13899231-.008804321 .23699951-.008804321 .2899933-.008804321 .33999635 .00819397 .3869934 .045196535 .42099-.008804321 .5009918-.008804321 .5079956-.008804321 .6119995-.008804321 .6419983 .1461792 .6419983 .1481781 .6419983 .16616822 .6230011 .16616822 .6139984 .16616822 .58999636 .16616822 .58898928 .16116333 .58399966 .14016724 .56799319 .08018494 .5479889 .033203126 .5139923 .033203126 .4889984 .033203126 .4889984 .059188844 .4889984 .07318115 .4889984 .09017944 .49598695 .12017822 .5019989 .14317322L.5529938 .34713746M.37399293 .10018921C.32499696 .044189454 .2709961 .033203126 .24198914 .033203126 .20098877 .033203126 .16899109 .05519104 .16899109 .11117554 .16899109 .1541748 .19999695 .27815248 .22099304 .3221283 .2539978 .38911439 .3039856 .41111756 .34498597 .41111756 .4139862 .41111756 .43499757 .35913087 .43499757 .35212709 .43499757 .35012818 .43499757 .34812928 .43199159 .3371277L.37399293 .10018921Z"/>
<path id="font_3_1" d="M.8019867 .21617127C.81599429 .21617127 .84999087 .21617127 .84999087 .25016786 .84999087 .2841797 .81599429 .2841797 .8019867 .2841797H.1499939C.13598633 .2841797 .101989749 .2841797 .101989749 .25016786 .101989749 .21617127 .13598633 .21617127 .1499939 .21617127H.8019867Z"/>
<path id="font_4_1" d="M.40699769-.23200989C.40699769-.2250061 .4039917-.22200012 .3919983-.21200562 .2649994-.09700012 .21998596 .07798767 .21998596 .25 .21998596 .42099 .2630005 .59599307 .3899994 .70899966 .4059906 .723999 .40699769 .72499087 .40699769 .7319946 .40699769 .74198916 .40098573 .75 .38598634 .75 .36698915 .75 .31399537 .70500186 .2939911 .6859894 .16899109 .56199648 .11399841 .4099884 .11399841 .25 .11399841 .16099549 .13198853 .039993287 .20599365-.07800293 .2689972-.17800904 .3639984-.25 .38598634-.25 .40098573-.25 .40699769-.2420044 .40699769-.23200989Z"/>
<path id="font_4_4" d="M.56399539 .31925965C.56399539 .4352417 .5549927 .6582031 .30599977 .6582031 .055999757 .6582031 .04798889 .4332428 .04798889 .31925965 .04798889 .20729065 .054992677-.013671875 .30599977-.013671875 .55799868-.013671875 .56399539 .20828247 .56399539 .31925965M.30599977 .028320313C.2789917 .028320313 .25099183 .03831482 .22999573 .05531311 .19799805 .08331299 .18299866 .0973053 .18299866 .33125306 .18299866 .40324403 .18299866 .4762268 .19299317 .5262146 .20599365 .5971985 .2679901 .6161957 .30599977 .6161957 .32998658 .6161957 .4059906 .610199 .42099 .515213 .42900086 .4662323 .42900086 .3892517 .42900086 .33125306 .42900086 .10231018 .4149933 .08830261 .38398744 .05831909 .37599183 .049316408 .34799195 .028320313 .30599977 .028320313Z"/>
<path id="font_2_3" d="M.22099304 .016998291C.21199036-.08493042 .1519928-.1348877 .1309967-.15187073 .11999512-.15986634 .115997318-.16287232 .115997318-.17185974 .115997318-.18086243 .12799073-.19386292 .13899231-.19386292 .15499878-.19386292 .2639923-.106918338 .2639923 .03199768 .2639923 .10499573 .22698975 .1599884 .16899109 .1599884 .12199402 .1599884 .08999634 .12399292 .08999634 .07998657 .08999634 .038986207 .11898804 0 .16999817 0 .18998719 0 .20899964 .0069885256 .22099304 .016998291Z"/>
<path id="font_4_2" d="M.36099244 .25C.36099244 .33898927 .34298707 .45999146 .2689972 .5779877 .20599365 .6779938 .11099243 .75 .08898926 .75 .07199097 .75 .067993167 .7389984 .067993167 .7319946 .067993167 .72499087 .07199097 .72099307 .08299255 .71199038 .20999146 .5970001 .25498963 .42199708 .25498963 .25 .25498963 .07899475 .21199036-.0960083 .084991458-.2090149 .07299805-.22000122 .067993167-.22401428 .067993167-.23200989 .067993167-.23901367 .07199097-.25 .08898926-.25 .10798645-.25 .16099549-.20500183 .18099976-.18600464 .30599977-.06201172 .36099244 .08999634 .36099244 .25Z"/>
<path id="font_5_8" d="M.57699587 .3771515C.58200076 .3951416 .58200076 .3971405 .58200076 .40014649 .58200076 .4221344 .56599429 .44413758 .5349884 .44413758 .48298646 .44413758 .47099305 .3971405 .46398927 .3701477L.43798829 .26615907C.42599488 .2181549 .40699769 .14117432 .3959961 .10017395 .3909912 .07817078 .3600006 .05418396 .35699464 .05218506 .34599305 .045181276 .32199098 .028182984 .2889862 .028182984 .22999573 .028182984 .22898865 .07817078 .22898865 .10116577 .22898865 .16217041 .2599945 .24015808 .28799439 .31214906 .2979889 .33815003 .30099488 .3451538 .30099488 .3621521 .30099488 .4201355 .24299622 .45214845 .18798828 .45214845 .08198547 .45214845 .03199768 .31614686 .03199768 .29615785 .03199768 .28215028 .04699707 .28215028 .055999757 .28215028 .067993167 .28215028 .07499695 .28215028 .07899475 .29515077 .11199951 .4061432 .16699219 .4161377 .18199158 .4161377 .18899536 .4161377 .19898987 .4161377 .19898987 .3951416 .19898987 .3721466 .18798828 .34614564 .18199158 .33015443 .14299011 .23016358 .12199402 .173172 .12199402 .122177127 .12199402 .008178711 .22200012-.0078125 .2809906-.0078125 .30599977-.0078125 .33999635-.0038146973 .3769989 .02218628 .34899903-.10101318 .27398683-.16615296 .20498657-.16615296 .19198609-.16615296 .1639862-.16415406 .14399719-.15213013 .17599488-.13909912 .19198609-.11204529 .19198609-.0849762 .19198609-.04890442 .16299439-.038879396 .14299011-.038879396 .10598755-.038879396 .070999149-.07095337 .070999149-.11505127 .070999149-.16615296 .12399292-.20214844 .20498657-.20214844 .31999208-.20214844 .45199586-.12506104 .48298646-.0008239746L.57699587 .3771515Z"/>
<path id="font_6_12" d="M.7879944 .33203126C.7999878 .33203126 .82899478 .33203126 .82899478 .36203004 .82899478 .39302064 .7979889 .39302064 .7829895 .39302064H.10998535C.09498596 .39302064 .06399536 .39302064 .06399536 .36203004 .06399536 .33203126 .09298706 .33203126 .10499573 .33203126H.7879944M.7829895 .107940677C.7979889 .107940677 .82899478 .107940677 .82899478 .13893128 .82899478 .16894531 .7999878 .16894531 .7879944 .16894531H.10499573C.09298706 .16894531 .06399536 .16894531 .06399536 .13893128 .06399536 .107940677 .09498596 .107940677 .10998535 .107940677H.7829895Z"/>
<path id="font_5_3" d="M.5149994 .31715394C.5209961 .34214784 .5309906 .3821411 .5309906 .3911438 .5309906 .42314149 .5049896 .4351349 .48399354 .4351349 .46499635 .4351349 .44499208 .42514039 .43299867 .410141 .41799928 .42614747 .3849945 .45214845 .32699586 .45214845 .15299988 .45214845 .04499817 .29415895 .04499817 .15716553 .04499817 .034179689 .13699341-.0078125 .21998596-.0078125 .29100038-.0078125 .34298707 .031173706 .35899354 .046173097 .39698792-.0078125 .46299745-.0078125 .47399903-.0078125 .5109863-.0078125 .5399933 .013183594 .5609894 .049179079 .58599856 .08917236 .598999 .14317322 .598999 .14816284 .598999 .16217041 .58399966 .16217041 .57499697 .16217041 .56399539 .16217041 .55999758 .16217041 .5549927 .15716553 .5529938 .15516663 .5529938 .15316773 .5469971 .12817383 .5269928 .048171998 .5039978 .028182984 .47898866 .028182984 .46798707 .028182984 .45599366 .032180787 .45599366 .06517029 .45599366 .08216858 .45999146 .09817505 .46998597 .13816834 .47698976 .16616822 .4869995 .2061615 .49198915 .22816468L.5149994 .31715394M.34899903 .093170169C.31999208 .059173585 .272995 .028182984 .22499085 .028182984 .16299439 .028182984 .1579895 .08216858 .1579895 .10417175 .1579895 .1561737 .19198609 .27915956 .20799256 .31814576 .23899842 .3911438 .28799439 .4161377 .32899476 .4161377 .3880005 .4161377 .4119873 .36914063 .4119873 .35813905L.4099884 .34414674 .34899903 .093170169Z"/>
<path id="font_6_17" d="M.21099854 .29412843C.17399597 .30111695 .10899353 .31211854 .10899353 .3591156 .10899353 .42111207 .20199585 .42111207 .22099304 .42111207 .29599 .42111207 .33399964 .39212037 .33898927 .33711244 .33999635 .32211305 .34098817 .3171234 .3619995 .3171234 .38598634 .3171234 .38598634 .32211305 .38598634 .3451233V.42510987C.38598634 .4441223 .38598634 .453125 .36799623 .453125 .3639984 .453125 .3619995 .453125 .32299806 .43411256 .29699708 .44711305 .2619934 .453125 .22200012 .453125 .19198609 .453125 .037994386 .453125 .037994386 .32211305 .037994386 .28211976 .057998659 .25512696 .07798767 .23812866 .117996219 .203125 .1559906 .1971283 .23298645 .18312073 .2689972 .17712403 .34399415 .16412354 .34399415 .10513306 .34399415 .030136109 .2519989 .030136109 .22999573 .030136109 .12399292 .030136109 .09799194 .103134158 .085998538 .14613343 .08099365 .16012573 .07598877 .16012573 .06199646 .16012573 .037994386 .16012573 .037994386 .15412903 .037994386 .13113404V.022140503C.037994386 .0031280518 .037994386-.005859375 .055999757-.005859375 .06298828-.005859375 .06498718-.005859375 .085998538 .009140015 .08699036 .009140015 .10899353 .024139405 .11199951 .026138306 .1579895-.005859375 .20999146-.005859375 .22999573-.005859375 .26098634-.005859375 .4149933-.005859375 .4149933 .14012146 .4149933 .18312073 .394989 .21812439 .3600006 .24612427 .32099916 .27511598 .2889862 .28112794 .21099854 .29412843Z"/>
<path id="font_6_14" d="M.22399903 .4501953 .049987794 .44218446V.39518739C.10899353 .39518739 .115997318 .39518739 .115997318 .35617066V.04699707H.04699707V0C.07798767 .0009918213 .1269989 .0029907227 .16899109 .0029907227 .19898987 .0029907227 .25 .0009918213 .28599549 0V.04699707H.22399903V.4501953M.23399353 .6173096C.23399353 .66130068 .19799805 .6953125 .1559906 .6953125 .11299133 .6953125 .07798767 .66030886 .07798767 .6173096 .07798767 .5743103 .11299133 .53930667 .1559906 .53930667 .19799805 .53930667 .23399353 .5733032 .23399353 .6173096Z"/>
<path id="font_6_15" d="M.11399841 .3561554V.04699707H.04499817V0C.07299805 .0009918213 .1329956 .0029907227 .17098999 .0029907227 .20999146 .0029907227 .2689972 .0009918213 .29699708 0V.04699707H.22799683V.25610353C.22799683 .36515809 .31399537 .41418458 .3769989 .41418458 .41099549 .41418458 .43199159 .39317323 .43199159 .31713868V.04699707H.36299134V0C.3909912 .0009918213 .45098878 .0029907227 .4889984 .0029907227 .5279999 .0029907227 .58699038 .0009918213 .61499026 0V.04699707H.54599V.30613709C.54599 .41119386 .49198915 .4501953 .3919983 .4501953 .29599 .4501953 .24299622 .39317323 .21699524 .34214784V.4501953L.04499817 .44218446V.39518739C.10699463 .39518739 .11399841 .39518739 .11399841 .3561554Z"/>
<path id="font_5_4" d="M.2809906 .6593323C.2849884 .6733246 .2849884 .6753235 .2849884 .67633059 .2849884 .68933108 .27398683 .69433596 .2630005 .69433596 .25898744 .69433596 .2579956 .69433596 .2559967 .69332888L.1269989 .68733218C.11299133 .6863251 .09498596 .68533328 .09498596 .6573334 .09498596 .639328 .11399841 .639328 .12098694 .639328 .13198853 .639328 .1499939 .639328 .16299439 .6373291 .15499878 .60328677 .14498902 .5602417 .1349945 .5222168L.06599426 .24615479C.051986696 .19017029 .051986696 .17816162 .051986696 .15516663 .051986696 .027175904 .14698792-.0078125 .22200012-.0078125 .40299989-.0078125 .5059967 .15516663 .5059967 .28715516 .5059967 .410141 .4139862 .45214845 .33099366 .45214845 .2829895 .45214845 .24299622 .433136 .22200012 .4201355L.2809906 .6593323M.22399903 .028182984C.18499756 .028182984 .1519928 .049179079 .1519928 .11117554 .1519928 .14317322 .1619873 .18016052 .16899109 .21116638 .1789856 .24916077 .19599915 .31814576 .20298767 .34814454 .20799256 .36514283 .2649994 .4161377 .32598878 .4161377 .3880005 .4161377 .3929901 .3621521 .3929901 .34014894 .3929901 .28814698 .35899354 .16516114 .34298707 .12617493 .30899049 .045181276 .25299073 .028182984 .22399903 .028182984Z"/>
<path id="font_5_7" d="M.5359955 .4011383C.5 .3911438 .48199464 .35714723 .48199464 .33215333 .48199464 .31015016 .49899293 .28614808 .5319977 .28614808 .5669861 .28614808 .60398867 .31515504 .60398867 .364151 .60398867 .41714479 .5509949 .45214845 .48999024 .45214845 .43299867 .45214845 .3959961 .4091339 .3829956 .3911438 .35798646 .433136 .3019867 .45214845 .24499512 .45214845 .11898804 .45214845 .050994874 .32914735 .050994874 .29615785 .050994874 .28215028 .06599426 .28215028 .07499695 .28215028 .08699036 .28215028 .09399414 .28215028 .09799194 .29515077 .1269989 .38613893 .19898987 .4161377 .23999024 .4161377 .27799989 .4161377 .29599 .39814759 .29599 .3661499 .29599 .3471527 .28199769 .29216004 .272995 .2561493L.23899842 .11917114C.22399903 .058181764 .18798828 .028182984 .1539917 .028182984 .14898682 .028182984 .12599182 .028182984 .10598755 .043182374 .14199829 .05317688 .1599884 .08717346 .1599884 .11216736 .1599884 .13417053 .14299011 .1581726 .10998535 .1581726 .07499695 .1581726 .037994386 .12916565 .037994386 .08016968 .037994386 .027175904 .09098816-.0078125 .1519928-.0078125 .20899964-.0078125 .24598694 .035186769 .25898744 .05317688 .28399659 .011184692 .33999635-.0078125 .39698792-.0078125 .522995-.0078125 .59098818 .11517334 .59098818 .14816284 .59098818 .16217041 .57598879 .16217041 .5669861 .16217041 .5549927 .16217041 .5479889 .16217041 .5439911 .14916992 .5149994 .058181764 .44299317 .028182984 .4019928 .028182984 .3639984 .028182984 .34599305 .046173097 .34599305 .07817078 .34599305 .09916687 .35899354 .15216065 .36799623 .18916321 .375 .21516419 .397995 .30915834 .40299989 .32514955 .41799928 .3851471 .45298768 .4161377 .48799134 .4161377 .49299623 .4161377 .5159912 .4161377 .5359955 .4011383Z"/>
<path id="font_7_1" d="M.7519989 .22024536C.7669983 .22024536 .7969971 .22024536 .7969971 .25024415 .7969971 .28125 .7679901 .28125 .7519989 .28125H.14099121C.12599182 .28125 .09599304 .28125 .09599304 .25123597 .09599304 .22024536 .125 .22024536 .14099121 .22024536H.7519989Z"/>
<path id="font_2_1" d="M.33599855 .3408203H.44898988C.42199708 .22695923 .41999818 .17901612 .41999818 .14805603 .41999818 .07015991 .44499208-.009765625 .49598695-.009765625 .522995-.009765625 .5669861 .018218995 .5669861 .059173585 .5669861 .073150638 .56399539 .07914734 .55599978 .09112549 .5069885 .16603089 .5029907 .24394226 .5029907 .27789308 .5029907 .30485536 .5049896 .31684876 .5079956 .3408203H.6389923C.6599884 .3408203 .6719971 .3408203 .6899872 .35481263 .70399478 .3658142 .71299746 .38581849 .71299746 .40081788 .71299746 .44381715 .6729889 .44381715 .6559906 .44381715H.23498535C.21099854 .44381715 .16799927 .44381715 .10598755 .3918152 .08999634 .37780763 .03199768 .31884767 .03199768 .30285646 .03199768 .2848816 .04899597 .2848816 .05999756 .2848816 .07699585 .2848816 .07798767 .28588868 .08699036 .296875 .10598755 .31684876 .1349945 .3408203 .21299744 .3408203H.27598573C.25498963 .27789308 .22499085 .2059784 .15699768 .085128787 .14299011 .061157228 .13999939 .05517578 .13999939 .03918457 .13999939 .008224487 .16499329-.008773804 .19099427-.008773804 .21798706-.008773804 .24499512 .008224487 .2559967 .04019165 .2659912 .06616211 .272995 .09411621 .2809906 .12608338L.33599855 .3408203Z"/>
<path id="font_2_5" d="M.2899933 .65078738C.2939911 .66477969 .2939911 .66677859 .2939911 .67277529 .2939911 .68078616 .2889862 .6937866 .269989 .6937866 .2649994 .6937866 .2639923 .6937866 .2619934 .69277957L.1329956 .68678286C.12098694 .68577578 .09899902 .68478396 .09899902 .65478518 .09899902 .63378909 .11898804 .63378909 .1349945 .63378909 .147995 .63378909 .1639862 .63378909 .1639862 .6287842 .1639862 .62579348 .14698792 .55693057 .1309967 .4950409L.07998657 .2931366C.05999756 .2121582 .054992677 .19116211 .054992677 .15916443 .054992677 .049194337 .13198853-.008804321 .23899842-.008804321 .43399049-.008804321 .5359955 .15716553 .5359955 .2831421 .5359955 .39411927 .45599366 .453125 .34700013 .453125 .29699708 .453125 .2559967 .43611146 .23298645 .42311097L.2899933 .65078738M.24099732 .033203126C.1639862 .033203126 .1639862 .10218811 .1639862 .11917114 .1639862 .15916443 .18998719 .25715638 .21199036 .34013368 .21699524 .35812379 .27598573 .41111756 .34199525 .41111756 .3829956 .41111756 .4149933 .39012147 .4149933 .33312989 .4149933 .29014588 .38398744 .16616822 .36299134 .122177127 .32199098 .03919983 .2599945 .033203126 .24099732 .033203126Z"/>
<path id="font_4_6" d="M.5509949 .2280426H.49499513C.4869995 .16200257 .47399903 .14199829 .46798707 .13899231 .45700074 .1329956 .37998963 .1329956 .36299134 .1329956H.22499085C.35899354 .23805237 .41299439 .2680664 .45599366 .30108644 .526001 .35612489 .5509949 .40615846 .5509949 .46316529 .5509949 .58117678 .44198609 .6582031 .2899933 .6582031 .1619873 .6582031 .06098938 .6011963 .06098938 .50717166 .06098938 .4481659 .10899353 .4291687 .13699341 .4291687 .17199707 .4291687 .21398926 .4541626 .21398926 .50616458 .21398926 .5531616 .17999268 .5721588 .16699219 .5771637 .19499207 .5981903 .23498535 .6062012 .2659912 .6062012 .35598756 .6062012 .4059906 .5391693 .4059906 .4621582 .4059906 .38113404 .35299684 .31410218 .2939911 .25906373L.07299805 .052993776C.06199646 .041992189 .06098938 .040985109 .06098938 .020996094V0H.5179901L.5509949 .2280426Z"/>
<path id="font_4_7" d="M.28399659 .32714845C.3999939 .32714845 .40098573 .23034668 .40098573 .18035889 .40098573 .13534546 .40098573 .033325197 .28799439 .033325197 .2669983 .033325197 .20999146 .036315919 .1599884 .068359378 .1769867 .0753479 .21299744 .09635925 .21299744 .14535523 .21299744 .19335938 .1789856 .22634888 .13198853 .22634888 .08799744 .22634888 .050994874 .1963501 .050994874 .14434815 .050994874 .047332765 .15499878-.013671875 .29299928-.013671875 .4889984-.013671875 .5609894 .09234619 .5609894 .1793518 .5609894 .26127626 .49798585 .32914735 .3899994 .35313417 .4169922 .36413575 .5269928 .40715028 .5269928 .51615908 .5269928 .59617617 .44499208 .6582031 .29599 .6582031 .1659851 .6582031 .084991458 .58917239 .084991458 .50717166 .084991458 .45115663 .1289978 .4311676 .15899658 .4311676 .19898987 .4311676 .23298645 .45916749 .23298645 .5051575 .23298645 .52716067 .22499085 .5651703 .1769867 .5771637 .22099304 .6151886 .2809906 .6151886 .2899933 .6151886 .3829956 .6151886 .3829956 .5491638 .3829956 .51916506 .3829956 .4471588 .34899903 .41015626 .34599305 .40615846 .31698609 .37513734 .29899598 .3741455 .24499512 .37113954 .21398926 .36914063 .20399475 .36813355 .20399475 .34814454 .20399475 .32714845 .21699524 .32714845 .23498535 .32714845H.28399659Z"/>
<path id="font_4_9" d="M.17599488 .5010834C.20799256 .49609376 .24198914 .49609376 .24798584 .49609376 .27398683 .49609376 .34199525 .49609376 .4169922 .54408267 .44299317 .56108096 .5029907 .611084 .5029907 .63708499 .5029907 .65208438 .49499513 .65808108 .4850006 .65808108 .48298646 .65808108 .48098756 .65808108 .46998597 .65309146 .42099 .63609316 .3619995 .6260834 .30699159 .6260834 .2619934 .6260834 .20498657 .6320801 .13999939 .65408328 .13198853 .65808108 .12998963 .65808108 .1269989 .65808108 .10998535 .65808108 .10998535 .64108279 .10998535 .62709048V.33319093C.10998535 .3142395 .10998535 .29927064 .13699341 .29927064 .1519928 .29927064 .15499878 .30126954 .16499329 .31323243 .20498657 .36112977 .2669983 .3701172 .30599977 .3701172 .4019928 .3701172 .4019928 .27931214 .4019928 .20341492 .4019928 .13441468 .4019928 .033325197 .27198792 .033325197 .21998596 .033325197 .16999817 .055358888 .14299011 .089416507 .18499756 .09541321 .20498657 .12741089 .20498657 .16041565 .20498657 .2064209 .16899109 .23242188 .1329956 .23242188 .101989749 .23242188 .06098938 .2124176 .06098938 .15841675 .06098938 .068374637 .1459961-.013671875 .27598573-.013671875 .45399476-.013671875 .5509949 .08340454 .5509949 .20141602 .5509949 .31323243 .47099305 .41210938 .30999757 .41210938 .2619934 .41210938 .21598816 .4031067 .17599488 .3781128V.5010834Z"/>
<path id="font_8_84" d="M.59999087 .22319031C.59999087 .3561859 .5089874 .4501953 .36499024 .4501953 .2899933 .4501953 .23699951 .41918946 .21398926 .40118409V.4501953L.036987306 .4423828V.39537049C.09899902 .39537049 .10598755 .39537049 .10598755 .3573761V-.14648438H.036987306V-.1934967L.16299439-.19049073 .2889862-.1934967V-.14648438H.21998596V.03945923C.2630005 .004135132 .30699159-.005859375 .34799195-.005859375 .49798585-.005859375 .59999087 .08413696 .59999087 .22312927V.22319031M.47200013 .22312927C.47200013 .08213806 .4019928 .030136109 .33699037 .030136109 .32299806 .030136109 .27598573 .030136109 .23098755 .08413696 .21998596 .09713745 .21998596 .09812927 .21998596 .117126468V.32913209C.21998596 .34814454 .22099304 .3491516 .23498535 .36314393 .2749939 .4041443 .32699586 .41015626 .34899903 .41015626 .41600038 .41015626 .47200013 .3491516 .47200013 .22314453V.22312927Z"/>
<path id="font_8_50" d="M.49398805 .11706543C.49398805 .13504029 .47499085 .13504029 .46998597 .13504029 .45298768 .13504029 .45098878 .13005066 .44499208 .11405945 .42399598 .066101077 .36698915 .03413391 .3019867 .03413391 .16099549 .03413391 .1599884 .16700745 .1599884 .2179718H.46199037C.48399354 .2179718 .49398805 .2179718 .49398805 .2449646 .49398805 .27598573 .48799134 .34906007 .43798829 .3991089 .40098573 .43511964 .34799195 .453125 .2789917 .453125 .11898804 .453125 .03199768 .35005189 .03199768 .22497559 .03199768 .09107971 .13198853-.005859375 .29299928-.005859375 .45098878-.005859375 .49398805 .10006714 .49398805 .11706543M.39898683 .25097657H.1599884C.1619873 .29000855 .16299439 .3320465 .18399048 .36506654 .20999146 .4051056 .25 .41711427 .2789917 .41711427 .3959961 .41711427 .397995 .28599549 .39898683 .25097657Z"/>
<path id="font_8_96" d="M.44198609 .36819459C.44198609 .42118836 .3880005 .4501953 .33599855 .4501953 .2659912 .4501953 .22599793 .40019227 .20298767 .33718873V.4501953L.036987306 .4423828V.39537049C.09899902 .39537049 .10598755 .39537049 .10598755 .3563385V.04699707H.036987306V0L.16299439 .0029907227C.20098877 .0029907227 .2649994 .0029907227 .30099488 0V.04699707H.21398926V.22218323C.21398926 .29226686 .23899842 .41436769 .33898927 .41436769 .33898927 .41436769 .31999208 .39736939 .31999208 .36834718 .31999208 .32730104 .35198976 .3072815 .3809967 .3072815 .4099884 .3072815 .44198609 .3283081 .44198609 .36834718V.36819459Z"/>
<path id="font_8_66" d="M.28599549 0V.04699707H.22399903V.4501953L.049987794 .4423828V.39537049C.10899353 .39537049 .115997318 .39537049 .115997318 .3563385V.04699707H.04699707V0L.16899109 .0029907227 .28599549 0M.23799134 .60728457C.23799134 .6502838 .20298767 .6852875 .1599884 .6852875 .116989139 .6852875 .08198547 .6502838 .08198547 .60728457 .08198547 .5642853 .116989139 .5292969 .1599884 .5292969 .20298767 .5292969 .23799134 .5642853 .23799134 .60728457Z"/>
<path id="font_8_81" d="M.5419922 .21812439C.5419922 .35212709 .44999696 .453125 .2869873 .453125 .12298584 .453125 .03199768 .35112 .03199768 .21812439 .03199768 .09413147 .11999512-.005859375 .2869873-.005859375 .45498658-.005859375 .5419922 .09512329 .5419922 .21812439M.4139862 .22912598C.4139862 .14213562 .4139862 .03413391 .2869873 .03413391 .1599884 .03413391 .1599884 .14213562 .1599884 .22912598 .1599884 .27412416 .1599884 .32511903 .1769867 .3591156 .19599915 .39611817 .23799134 .41711427 .2869873 .41711427 .32899476 .41711427 .37098695 .40112306 .3929901 .36611939 .4139862 .3321228 .4139862 .27713014 .4139862 .22912598Z"/>
<path id="font_8_47" d="M.6009979 0V.04699707C.5389862 .04699707 .5319977 .04699707 .5319977 .086013797V.69433596L.35499574 .6855469V.63853457C.4169922 .63853457 .42399598 .63853457 .42399598 .5996704V.40518189C.37399293 .44418336 .32199098 .4501953 .2889862 .4501953 .14299011 .4501953 .037994386 .36218263 .037994386 .22116089 .037994386 .089141849 .12998963-.005859375 .27799989-.005859375 .33898927-.005859375 .3869934 .018127442 .41799928 .043136598V-.005859375L.6009979 0M.41799928 .102996829C.40499879 .08514404 .3639984 .030136109 .28799439 .030136109 .1659851 .030136109 .1659851 .15115357 .1659851 .22116089 .1659851 .26916505 .1659851 .3231659 .19198609 .36218263 .22099304 .40419007 .2679901 .41418458 .29899598 .41418458 .35598756 .41418458 .3959961 .3821869 .41799928 .35317994V.102996829Z"/>
<path id="font_6_6" d="M.5169983 .22209168H.46998597C.46699525 .20207215 .45799256 .13800049 .44400025 .1309967 .43299867 .125 .35798646 .125 .34199525 .125H.19499207C.24198914 .16403198 .2939911 .20707703 .33898927 .2401123 .45298768 .3242035 .5169983 .37124635 .5169983 .4663086 .5169983 .5812988 .41299439 .65527346 .27198792 .65527346 .15098572 .65527346 .056991579 .593277 .056991579 .50331118 .056991579 .44430543 .10499573 .42930604 .1289978 .42930604 .16099549 .42930604 .20098877 .4513092 .20098877 .50131228 .20098877 .55329897 .15899658 .5693054 .14399719 .5733032 .17298889 .5972748 .21099854 .6082611 .24699402 .6082611 .33299256 .6082611 .3789978 .54029849 .3789978 .4653015 .3789978 .39627076 .34098817 .3282013 .2709961 .25712586L.069992069 .051986696C.056991579 .039993287 .056991579 .037994386 .056991579 .017990113V0H.48599244L.5169983 .22209168Z"/>
<path id="font_5_1" d="M.31199647 .34832765H.42399598C.4019928 .2552948 .3909912 .1942749 .3909912 .1352539 .3909912 .067230228 .40899659-.0087890629 .45700074-.0087890629 .48999024-.0087890629 .526001 .02420044 .526001 .05621338 .526001 .068222049 .522995 .07423401 .5139923 .0892334 .46798707 .17025757 .46798707 .24728394 .46798707 .27430726 .46798707 .29830934 .46798707 .3083191 .47399903 .34832765H.59799197C.61698916 .34832765 .6329956 .34832765 .647995 .36332704 .6549988 .3703308 .66799929 .38232423 .66799929 .40533448 .66799929 .44433595 .6329956 .44433595 .61499026 .44433595H.22200012C.20098877 .44433595 .1579895 .44433595 .10499573 .3963318 .069992069 .3643341 .0309906 .31330873 .0309906 .3033142 .0309906 .28930665 .042999269 .28930665 .053985597 .28930665 .068984989 .28930665 .069992069 .29031373 .07899475 .3013153 .116989139 .34832765 .18299866 .34832765 .20199585 .34832765H.2619934C.23699951 .26930238 .19699097 .18727112 .14299011 .08622742 .1269989 .05621338 .12399292 .051223756 .12399292 .037216188 .12399292 .01020813 .1459961-.007797241 .17199707-.007797241 .19299317-.007797241 .20799256 .0032043458 .21499634 .00920105 .22999573 .02420044 .23098755 .028213501 .23599243 .049209596L.31199647 .34832765Z"/>
<path id="font_9_28" d="M.71598818 .034179689C.71598818 .06712341 .69898989 .06712341 .6779938 .06712341H.6719971C.6589966 .06712341 .621994 .06712341 .6009979 .07710266V.28977967C.6009979 .36997987 .5379944 .4560547 .32499696 .4560547 .2539978 .4560547 .10598755 .4560547 .10598755 .34791566 .10598755 .2998047 .14099121 .27172853 .18099976 .27172853 .22499085 .27172853 .2559967 .30381776 .2559967 .34692384 .2559967 .36395265 .25099183 .38000489 .24198914 .3920288 .2789917 .40003968 .30899049 .40003968 .32598878 .40003968 .41600038 .40003968 .46798707 .3659668 .46798707 .28677369V.2677307C.45498658 .26672364 .35198976 .26872254 .25299073 .25071717 .13398743 .22871399 .057998659 .19378662 .057998659 .11997986 .057998659-.0078125 .25099183-.0078125 .2899933-.0078125 .3880005-.0078125 .46099855 .015182495 .49198915 .060150148 .5 .00018310547 .56999209 .00018310547 .644989 .00018310547 .70899966 .00018310547 .71598818 .00018310547 .71598818 .034179689M.46798707 .13294983C.46798707 .10902405 .46798707 .08308411 .4169922 .06413269 .37599183 .048187257 .32299806 .048187257 .31698609 .048187257 .24598694 .048187257 .19099427 .07510376 .19099427 .12098694 .19099427 .20974732 .41999818 .21772766 .46798707 .21972656V.13294983Z"/>
<path id="font_9_75" d="M1.1799927 0V.066986087H1.1080017V.29508973C1.1080017 .44114686 .98999026 .45214845 .91400149 .45214845 .84999087 .45214845 .7630005 .43914796 .69699099 .3571167 .6689911 .42913819 .6100006 .45214845 .5109863 .45214845 .37199403 .45214845 .30799867 .38012696 .2849884 .3451233V.45214845L.09700012 .44433595V.3773346C.16099549 .3773346 .16899109 .3773346 .16899109 .33828736V.066986087H.09700012V0L.23599243 .0039978029C.272995 .0039978029 .32998658 .0029907227 .37399293 0V.066986087H.3019867V.2421875C.3019867 .36412049 .4269867 .39613343 .4869995 .39613343 .5509949 .39613343 .57199099 .37213136 .57199099 .29708863V.066986087H.5V0L.6389923 .0039978029C.6759949 .0039978029 .73298647 .0029907227 .7769928 0V.066986087H.7049866V.24206543C.7049866 .36412049 .8299866 .39613343 .8899994 .39613343 .95399478 .39613343 .97499087 .37213136 .97499087 .29708863V.066986087H.9029999V0L1.0419922 .0039978029C1.0789948 .0039978029 1.1360016 .0029907227 1.1799927 0Z"/>
<path id="font_9_84" d="M.7739868 .22314453C.7739868 .33114625 .69299319 .45214845 .48399354 .45214845 .44499208 .45214845 .36099244 .44914247 .2809906 .4081421V.45214845L.083999637 .44433595V.3773346H.100997928C.1559906 .3773346 .1559906 .37132264 .1559906 .3433075V-.12695313H.083999637V-.19395447L.22200012-.18995667 .36099244-.19395447V-.12695313H.2889862V.03718567C.31698609 .020187378 .375-.0078125 .45999146-.0078125 .6689911-.0078125 .7739868 .10119629 .7739868 .22325135V.22314453M.6239929 .22225952C.6239929 .112213138 .5499878 .048187257 .44499208 .048187257 .397995 .048187257 .33799745 .063186649 .2889862 .1282196V.32730104C.33999635 .3801422 .41799928 .39013673 .45799256 .39013673 .56799319 .39013673 .6239929 .31814576 .6239929 .22213745V.22225952Z"/>
<path id="font_9_72" d="M.36999513 0V.066986087H.2979889V.69433596L.100997928 .6855469V.61854556C.16499329 .61854556 .17298889 .61854556 .17298889 .5795746V.066986087H.100997928V0C.1459961 .0029907227 .18998719 .0039978029 .23498535 .0039978029 .23899842 .0039978029 .31698609 .0039978029 .36999513 0Z"/>
<path id="font_9_66" d="M.36299134 0V.066986087H.2979889V.45214845L.10398865 .44433595V.3773346C.1659851 .3773346 .17298889 .3773346 .17298889 .33828736V.066986087H.100997928V0C.14498902 .0029907227 .18998719 .0039978029 .23399353 .0039978029 .2769928 .0039978029 .31999208 .0029907227 .36299134 0M.3039856 .60250857C.3039856 .6505127 .2639923 .68652346 .21798706 .68652346 .16999817 .68652346 .13198853 .6485138 .13198853 .6035156 .13198853 .5555115 .17199707 .519516 .21798706 .519516 .2659912 .519516 .3039856 .5575104 .3039856 .60250857Z"/>
<path id="font_9_105" d="M.49899293 .1191864V.1671753H.41600038V.123184207C.41600038 .093185428 .4059906 .05418396 .34799195 .05418396 .2849884 .054092409 .2849884 .09408569 .2849884 .12109375V.3773346H.47499085V.44433595H.2849884V.6357422H.20199585C.19999695 .53352358 .1459961 .43632508 .04399109 .43333436V.3773346H.1519928V.11820984C.1519928 .0051727297 .26098634-.0078125 .32598878-.0078125 .39898683-.0078125 .49899293 .018173218 .49899293 .11921692V.1191864Z"/>
<path id="font_9_109" d="M.776001 .00018310547V.06718445C.71199038 .06718445 .70399478 .06718445 .70399478 .106170658V.45214845L.49899293 .44433595V.3773346C.5629883 .3773346 .57099917 .3773346 .57099917 .3383026V.15823365C.57099917 .06518555 .47399903 .048187257 .4059906 .048187257 .3019867 .048187257 .3019867 .06819153 .3019867 .112213138V.45214845L.09700012 .44433595V.3773346C.16099549 .3773346 .16899109 .3773346 .16899109 .3383026V.11820984C.16899109 .0021820069 .2899933-.0078125 .3849945-.0078125 .4189911-.0078125 .5139923-.0078125 .57899478 .05718994V-.0078125L.776001 .00018310547Z"/>
<path id="font_9_47" d="M.7549896 .00018310547V.06718445C.69099429 .06718445 .68299868 .06718445 .68299868 .10618591V.69433596L.48599244 .6855469V.61854556C.5499878 .61854556 .55799868 .61854556 .55799868 .5796814V.41114808C.5179901 .43214417 .45700074 .45214845 .37799073 .45214845 .1639862 .45214845 .06498718 .34014894 .06498718 .22116089 .06498718 .11216736 .1519928-.0078125 .3639984-.0078125 .44099427-.0078125 .5039978 .013183594 .5499878 .04118347V-.0078125L.7549896 .00018310547M.5499878 .13198853C.5 .06817627 .43499757 .048187257 .37799073 .048187257 .21499634 .048187257 .21499634 .16716004 .21499634 .22015381 .21499634 .27415467 .21499634 .39613343 .3929901 .39613343 .43699647 .39613343 .4869995 .3851471 .5289917 .3511505 .5499878 .33415223 .5499878 .33314515 .5499878 .31315614V.13198853Z"/>
<path id="font_9_50" d="M.6349945 .11022949C.6349945 .1352539 .61099246 .1352539 .5970001 .1352539H.58999636C.57099917 .1352539 .5629883 .1352539 .55400088 .12124634 .5439911 .10221863 .5159912 .05418396 .4099884 .05418396 .2829895 .05418396 .21699524 .10322571 .20799256 .19726563H.5970001C.61698916 .19726563 .6349945 .19726563 .6349945 .22921753 .6349945 .2871704 .61299136 .35508729 .57099917 .39305116 .5249939 .43304444 .46499635 .4560547 .3659973 .4560547 .14199829 .4560547 .056991579 .33311463 .056991579 .2262268 .056991579 .12023926 .14199829-.0078125 .3869934-.0078125 .4119873-.0078125 .48098756-.0078125 .54100039 .016174317 .60899356 .04335022 .6349945 .096343997 .6349945 .11035156V.11022949M.5339966 .24804688H.20799256C.20899964 .28404237 .21099854 .40003968 .36698915 .40003968 .5029907 .40003968 .5289917 .31504823 .5339966 .24804688Z"/>
<path id="font_10_1" d="M.4850006 .14419556C.47999574 .12619019 .47999574 .124191287 .46299745 .10620117 .44299317 .08520508 .3899994 .04623413 .31999208 .04623413 .2709961 .04623413 .22399903 .06222534 .22399903 .13020325 .22399903 .15917969 .24398804 .26715089 .2769928 .3221283 .30599977 .3691101 .35899354 .39808656 .41799928 .39808656 .5130005 .39808656 .5299988 .33111573 .5299988 .32511903 .5299988 .32312013 .5279999 .3121338 .5269928 .3101349L.4850006 .14419556M.56199648 .41108705C.5209961 .44309999 .46998597 .45410157 .4189911 .45410157 .20298767 .45410157 .08799744 .30014039 .08799744 .1711731 .08799744 .052230836 .18199158-.009765625 .31399537-.009765625 .39698792-.009765625 .45700074 .019226075 .49198915 .04222107 .5299988-.0067749025 .6119995-.009765625 .6329956-.009765625 .7480011-.009765625 .7939911 .13018799 .7939911 .1481781 .7939911 .17016602 .7739868 .17016602 .7519989 .17016602 .71798709 .17016602 .71499636 .17016602 .70700076 .14117432 .70199587 .12019348 .68099978 .04623413 .6399994 .04623413 .6239929 .04623413 .6029968 .056228639 .6029968 .08821106 .6029968 .10719299 .6469879 .2741089 .6549988 .30708314 .6619873 .33207704 .6719971 .37104798 .6719971 .38204957 .6719971 .41903688 .6429901 .43502809 .61698916 .43502809 .58599856 .43502809 .5649872 .41403199 .56199648 .411026V.41108705Z"/>
</defs>
<path transform="matrix(1,0,0,-1,130.571,97.804988)" stroke-width=".79701" stroke-linecap="butt" stroke-miterlimit="10" stroke-linejoin="miter" fill="none" stroke="#000000" d="M-104.47333 0H229.19998"/>
<path transform="matrix(-1,-0,0,1,26.097672,97.804988)" d="M4.66248 0C3.28098 .25902 1.0361 1.0361-.51805 1.94269V-1.94269C1.0361-1.0361 3.28098-.25902 4.66248 0"/>
<path transform="matrix(1,0,0,-1,359.771,97.804988)" d="M4.66248 0C3.28098 .25902 1.0361 1.0361-.51805 1.94269V-1.94269C1.0361-1.0361 3.28098-.25902 4.66248 0"/>
<use data-text="x" xlink:href="#font_1_3" transform="matrix(8.9664,0,0,-8.9664,368.153,99.79798)"/>
<path transform="matrix(1,0,0,-1,130.571,97.804988)" stroke-width=".79701" stroke-linecap="butt" stroke-miterlimit="10" stroke-linejoin="miter" fill="none" stroke="#000000" d="M0-94.55135V74.70865"/>
<path transform="matrix(0,1,1,0,130.571,192.35634)" d="M4.66248 0C3.28098 .25902 1.0361 1.0361-.51805 1.94269V-1.94269C1.0361-1.0361 3.28098-.25902 4.66248 0"/>
<path transform="matrix(0,-1,-1,-0,130.571,23.096337)" d="M4.66248 0C3.28098 .25902 1.0361 1.0361-.51805 1.94269V-1.94269C1.0361-1.0361 3.28098-.25902 4.66248 0"/>
<use data-text="y" xlink:href="#font_1_4" transform="matrix(8.9664,0,0,-8.9664,127.676,12.970985)"/>
<path transform="matrix(1,0,0,-1,130.571,97.804988)" stroke-width=".79701" stroke-linecap="butt" stroke-miterlimit="10" stroke-linejoin="miter" fill="none" stroke="#000000" d="M1.55916 51.02432H-1.55916"/>
<use data-text="a" xlink:href="#font_2_4" transform="matrix(7.9701,0,0,-7.9701,119.336,48.551988)"/>
<path transform="matrix(1,0,0,-1,130.571,97.804988)" stroke-width=".79701" stroke-linecap="butt" stroke-miterlimit="10" stroke-linejoin="miter" fill="none" stroke="#000000" d="M1.55916-51.02432H-1.55916"/>
<use data-text="&#x2212;" xlink:href="#font_3_1" transform="matrix(7.9701,0,0,-7.9701,111.742,150.82199)"/>
<use data-text="a" xlink:href="#font_2_4" transform="matrix(7.9701,0,0,-7.9701,119.336,150.82199)"/>
<use data-text="(" xlink:href="#font_4_1" transform="matrix(7.9701,0,0,-7.9701,134.65799,107.86899)"/>
<use data-text="0" xlink:href="#font_4_4" transform="matrix(7.9701,0,0,-7.9701,138.45177,107.86899)"/>
<use data-text="," xlink:href="#font_2_3" transform="matrix(7.9701,0,0,-7.9701,143.336,107.86899)"/>
<use data-text="0" xlink:href="#font_4_4" transform="matrix(7.9701,0,0,-7.9701,147.45999,107.86899)"/>
<use data-text=")" xlink:href="#font_4_2" transform="matrix(7.9701,0,0,-7.9701,152.3377,107.86899)"/>
<path transform="matrix(1,0,0,-1,130.571,97.804988)" stroke-width="1.59404" stroke-linecap="butt" stroke-miterlimit="10" stroke-linejoin="miter" fill="none" stroke="#ec008c" d="M-76.17844 32.73454-76.49725 33.33482-75.04036 30.41216-73.58348 27.32687-72.12662 24.09322-70.66972 20.73067-69.21283 17.25696-67.75595 13.6885-66.29909 10.04785-64.8422 6.35353-63.38531 2.62419-61.92842-1.11766-60.47153-4.8548-59.01466-8.56554-57.55779-12.2313-56.10089-15.8313-54.64401-19.34395-53.18713-22.75409-51.73026-26.04222-50.27336-29.18852-48.81648-32.17865-47.35962-34.9949-45.90271-37.62343-44.44583-40.04955-42.98895-42.26067-41.53207-44.24257-40.0752-45.98613-38.6183-47.48314-37.16142-48.72496-35.70454-49.70422-34.24767-50.41531-32.79079-50.85349-31.33388-51.02-29.87701-50.91101-28.42014-50.5295-26.96324-49.87422-25.50636-48.94987-24.04947-47.76343-22.5926-46.32004-21.13571-44.62666-19.67883-42.6932-18.22195-40.52881-16.76508-38.14638-15.30818-35.55937-13.8513-32.78204-12.39441-29.82695-10.93755-26.71007-9.48067-23.4509-8.02377-20.06499-6.56688-16.57225-5.11002-12.98866-3.65314-9.33545-2.19624-5.6312-.73935-1.89882 .71747 1.84172 2.17436 5.5767 3.63124 9.28053 5.08812 12.93417 6.545 16.51862 8.00189 20.01352 9.45877 23.40028 10.91565 26.6625 12.37254 29.78023 13.82942 32.73878 15.2863 35.51956 16.7432 38.10918 18.20007 40.49463 19.65694 42.66164 21.11382 44.60027 22.57072 46.29669 24.0276 47.7431 25.48447 48.93431 26.94136 49.86166 28.39824 50.52171 29.85513 50.90799 31.31201 51.02087 32.76889 50.85738 34.22577 50.4231 35.68265 49.71764 37.13954 48.7414 38.59642 47.50346 40.0533 46.00992 41.5102 44.27068 42.96706 42.29225 44.42395 40.08458 45.88084 37.66063 47.33772 35.036 48.7946 32.22234 50.25146 29.23566 51.70837 26.09026 53.16525 22.80467 54.62213 19.39629 56.07901 15.88495 57.53589 12.28622 58.99277 8.62177 60.44968 4.91016 61.90654 1.17389 63.36342-2.56754 64.8203-6.29688 66.27719-9.99335 67.73407-13.63487 69.19095-17.20288 70.64784-20.6792 72.10472-24.04434 73.56158-27.27928 75.0185-30.36717 76.47537-33.29156 77.93225-36.03732 79.38911-38.58972 80.84601-40.93321 82.3029-43.05525 83.75978-44.94716 85.21667-46.59773 86.67354-47.99614 88.13042-49.13544 89.58733-50.01045 91.0442-50.61775 92.50107-50.95253 93.95795-51.01091 95.41484-50.79422 96.87172-50.30719 98.3286-49.54851 99.78549-48.5234 101.24237-47.234 102.69925-45.69157 104.15614-43.90388 105.61302-41.88046 107.0699-39.63214 108.52678-37.16798 109.98367-34.50441 111.44054-31.65572 112.89743-28.63702 114.35432-25.46436 115.8112-22.15242 117.26807-18.72282 118.72496-15.19202 120.18185-11.58032 121.63873-7.90547 123.0956-4.18695 124.55249-.44766 126.00937 3.29247 127.46626 7.01704 128.92314 10.70444 130.38002 14.33344 131.8369 17.885 133.2938 21.34097 134.75066 24.68275 136.20755 27.89047 137.66445 30.94807 139.12133 33.83873 140.5782 36.54729 142.03507 39.05989 143.49198 41.36272 144.94886 43.4402 146.40573 45.28542 147.86261 46.88753 149.31949 48.23834 150.77639 49.32661 152.23328 50.14886 153.69014 50.70338 155.14702 50.98454 156.6039 50.99232 158.0608 50.72198 159.51767 50.1809 160.97455 49.36943 162.43144 48.29285 163.88832 46.95587 165.3452 45.36543 166.8021 43.53017 168.25897 41.46178 169.71585 39.16975 171.17272 36.66795 172.62961 33.96634 174.0865 31.08347 175.54338 28.03278 177.00028 24.83286 178.45714 21.49669 179.91402 18.0446 181.37093 14.49736 182.8278 10.87183 184.28467 7.18747 185.74155 3.46375 187.19844-.27681 188.65534-4.01654 190.1122-7.73549 191.56909-11.41293 193.02597-15.02939 194.48285-18.56235 195.93976-21.99757 197.39662-25.31514 198.8535-28.49559 200.31038-31.52249 201.76728-34.37811 203.22414-37.05032 204.68103-39.52315 206.13793-41.78316 207.5948-43.81781 209.05167-45.61545 210.50856-47.16869 209.14186-45.94823"/>
<path transform="matrix(-.46904,-.88315,-.88315,.46904,54.392564,65.07045)" d="M3.78581 0-2.27148 3.02866 0 0-2.27148-3.02866" fill="#ec008c"/>
<path transform="matrix(.74583,.66605,.66605,-.74583,339.71284,143.7532)" d="M3.78581 0-2.27148 3.02866 0 0-2.27148-3.02866" fill="#ec008c"/>
<use data-text="y" xlink:href="#font_5_8" transform="matrix(9.9626,0,0,-9.9626,17.899003,46.436986)" fill="#ec008c"/>
<use data-text="=" xlink:href="#font_6_12" transform="matrix(9.9626,0,0,-9.9626,26.916,46.436986)" fill="#ec008c"/>
<use data-text="a" xlink:href="#font_5_3" transform="matrix(9.9626,0,0,-9.9626,38.594,46.436986)" fill="#ec008c"/>
<use data-text="s" xlink:href="#font_6_17" transform="matrix(9.9626,0,0,-9.9626,46.560007,46.436986)" fill="#ec008c"/>
<use data-text="i" xlink:href="#font_6_14" transform="matrix(9.9626,0,0,-9.9626,51.07306,46.436986)" fill="#ec008c"/>
<use data-text="n" xlink:href="#font_6_15" transform="matrix(9.9626,0,0,-9.9626,54.25113,46.436986)" fill="#ec008c"/>
<use data-text="b" xlink:href="#font_5_4" transform="matrix(9.9626,0,0,-9.9626,62.287004,46.436986)" fill="#ec008c"/>
<use data-text="x" xlink:href="#font_5_7" transform="matrix(9.9626,0,0,-9.9626,67.46755,46.436986)" fill="#ec008c"/>
<path transform="matrix(1,0,0,-1,130.571,97.804988)" stroke-width="1.59404" stroke-linecap="butt" stroke-miterlimit="10" stroke-linejoin="miter" fill="none" stroke="#000000" d="M-76.17844-32.73454-76.49725-33.33482-75.04036-30.41216-73.58348-27.32687-72.12662-24.09322-70.66972-20.73067-69.21283-17.25696-67.75595-13.6885-66.29909-10.04785-64.8422-6.35353-63.38531-2.62419-61.92842 1.11766-60.47153 4.8548-59.01466 8.56554-57.55779 12.2313-56.10089 15.8313-54.64401 19.34395-53.18713 22.75409-51.73026 26.04222-50.27336 29.18852-48.81648 32.17865-47.35962 34.9949-45.90271 37.62343-44.44583 40.04955-42.98895 42.26067-41.53207 44.24257-40.0752 45.98613-38.6183 47.48314-37.16142 48.72496-35.70454 49.70422-34.24767 50.41531-32.79079 50.85349-31.33388 51.02-29.87701 50.91101-28.42014 50.5295-26.96324 49.87422-25.50636 48.94987-24.04947 47.76343-22.5926 46.32004-21.13571 44.62666-19.67883 42.6932-18.22195 40.52881-16.76508 38.14638-15.30818 35.55937-13.8513 32.78204-12.39441 29.82695-10.93755 26.71007-9.48067 23.4509-8.02377 20.06499-6.56688 16.57225-5.11002 12.98866-3.65314 9.33545-2.19624 5.6312-.73935 1.89882 .71747-1.84172 2.17436-5.5767 3.63124-9.28053 5.08812-12.93417 6.545-16.51862 8.00189-20.01352 9.45877-23.40028 10.91565-26.6625 12.37254-29.78023 13.82942-32.73878 15.2863-35.51956 16.7432-38.10918 18.20007-40.49463 19.65694-42.66164 21.11382-44.60027 22.57072-46.29669 24.0276-47.7431 25.48447-48.93431 26.94136-49.86166 28.39824-50.52171 29.85513-50.90799 31.31201-51.02087 32.76889-50.85738 34.22577-50.4231 35.68265-49.71764 37.13954-48.7414 38.59642-47.50346 40.0533-46.00992 41.5102-44.27068 42.96706-42.29225 44.42395-40.08458 45.88084-37.66063 47.33772-35.036 48.7946-32.22234 50.25146-29.23566 51.70837-26.09026 53.16525-22.80467 54.62213-19.39629 56.07901-15.88495 57.53589-12.28622 58.99277-8.62177 60.44968-4.91016 61.90654-1.17389 63.36342 2.56754 64.8203 6.29688 66.27719 9.99335 67.73407 13.63487 69.19095 17.20288 70.64784 20.6792 72.10472 24.04434 73.56158 27.27928 75.0185 30.36717 76.47537 33.29156 77.93225 36.03732 79.38911 38.58972 80.84601 40.93321 82.3029 43.05525 83.75978 44.94716 85.21667 46.59773 86.67354 47.99614 88.13042 49.13544 89.58733 50.01045 91.0442 50.61775 92.50107 50.95253 93.95795 51.01091 95.41484 50.79422 96.87172 50.30719 98.3286 49.54851 99.78549 48.5234 101.24237 47.234 102.69925 45.69157 104.15614 43.90388 105.61302 41.88046 107.0699 39.63214 108.52678 37.16798 109.98367 34.50441 111.44054 31.65572 112.89743 28.63702 114.35432 25.46436 115.8112 22.15242 117.26807 18.72282 118.72496 15.19202 120.18185 11.58032 121.63873 7.90547 123.0956 4.18695 124.55249 .44766 126.00937-3.29247 127.46626-7.01704 128.92314-10.70444 130.38002-14.33344 131.8369-17.885 133.2938-21.34097 134.75066-24.68275 136.20755-27.89047 137.66445-30.94807 139.12133-33.83873 140.5782-36.54729 142.03507-39.05989 143.49198-41.36272 144.94886-43.4402 146.40573-45.28542 147.86261-46.88753 149.31949-48.23834 150.77639-49.32661 152.23328-50.14886 153.69014-50.70338 155.14702-50.98454 156.6039-50.99232 158.0608-50.72198 159.51767-50.1809 160.97455-49.36943 162.43144-48.29285 163.88832-46.95587 165.3452-45.36543 166.8021-43.53017 168.25897-41.46178 169.71585-39.16975 171.17272-36.66795 172.62961-33.96634 174.0865-31.08347 175.54338-28.03278 177.00028-24.83286 178.45714-21.49669 179.91402-18.0446 181.37093-14.49736 182.8278-10.87183 184.28467-7.18747 185.74155-3.46375 187.19844 .27681 188.65534 4.01654 190.1122 7.73549 191.56909 11.41293 193.02597 15.02939 194.48285 18.56235 195.93976 21.99757 197.39662 25.31514 198.8535 28.49559 200.31038 31.52249 201.76728 34.37811 203.22414 37.05032 204.68103 39.52315 206.13793 41.78316 207.5948 43.81781 209.05167 45.61545 210.50856 47.16869 209.14186 45.94823"/>
<path transform="matrix(-.46904,.88315,.88315,.46904,54.392564,130.53952)" d="M3.78581 0-2.27148 3.02866 0 0-2.27148-3.02866"/>
<path transform="matrix(.74583,-.66605,-.66605,-.74583,339.71284,51.856775)" d="M3.78581 0-2.27148 3.02866 0 0-2.27148-3.02866"/>
<use data-text="y" xlink:href="#font_5_8" transform="matrix(9.9626,0,0,-9.9626,8.987999,154.15399)"/>
<use data-text="=" xlink:href="#font_6_12" transform="matrix(9.9626,0,0,-9.9626,18.004998,154.15399)"/>
<use data-text="&#x2212;" xlink:href="#font_7_1" transform="matrix(9.9626,0,0,-9.9626,29.682999,154.15399)"/>
<use data-text="a" xlink:href="#font_5_3" transform="matrix(9.9626,0,0,-9.9626,38.594,154.15399)"/>
<use data-text="s" xlink:href="#font_6_17" transform="matrix(9.9626,0,0,-9.9626,46.560007,154.15399)"/>
<use data-text="i" xlink:href="#font_6_14" transform="matrix(9.9626,0,0,-9.9626,51.073068,154.15399)"/>
<use data-text="n" xlink:href="#font_6_15" transform="matrix(9.9626,0,0,-9.9626,54.251138,154.15399)"/>
<use data-text="b" xlink:href="#font_5_4" transform="matrix(9.9626,0,0,-9.9626,62.287004,154.15399)"/>
<use data-text="x" xlink:href="#font_5_7" transform="matrix(9.9626,0,0,-9.9626,67.46755,154.15399)"/>
<path transform="matrix(1,0,0,-1,130.571,97.804988)" d="M1.83177 0C1.83177 1.01166 1.01166 1.83177 0 1.83177-1.01166 1.83177-1.83177 1.01166-1.83177 0-1.83177-1.01166-1.01166-1.83177 0-1.83177 1.01166-1.83177 1.83177-1.01166 1.83177 0ZM0 0"/>
<path transform="matrix(1,0,0,-1,130.571,97.804988)" stroke-width=".3985" stroke-linecap="butt" stroke-miterlimit="10" stroke-linejoin="miter" fill="none" stroke="#ffffff" d="M1.83177 0C1.83177 1.01166 1.01166 1.83177 0 1.83177-1.01166 1.83177-1.83177 1.01166-1.83177 0-1.83177-1.01166-1.01166-1.83177 0-1.83177 1.01166-1.83177 1.83177-1.01166 1.83177 0ZM0 0"/>
<path transform="matrix(1,0,0,-1,130.571,97.804988)" d="M-60.53154 0C-60.53154 1.01166-61.35165 1.83177-62.36331 1.83177-63.37497 1.83177-64.19508 1.01166-64.19508 0-64.19508-1.01166-63.37497-1.83177-62.36331-1.83177-61.35165-1.83177-60.53154-1.01166-60.53154 0ZM-62.36331 0"/>
<path transform="matrix(1,0,0,-1,130.571,97.804988)" stroke-width=".3985" stroke-linecap="butt" stroke-miterlimit="10" stroke-linejoin="miter" fill="none" stroke="#ffffff" d="M-60.53154 0C-60.53154 1.01166-61.35165 1.83177-62.36331 1.83177-63.37497 1.83177-64.19508 1.01166-64.19508 0-64.19508-1.01166-63.37497-1.83177-62.36331-1.83177-61.35165-1.83177-60.53154-1.01166-60.53154 0ZM-62.36331 0"/>
<use data-text="(" xlink:href="#font_4_1" transform="matrix(7.9701,0,0,-7.9701,29.146996,110.416988)"/>
<use data-text="&#x2212;" xlink:href="#font_3_1" transform="matrix(7.9701,0,0,-7.9701,32.943998,110.416988)"/>
<use data-text="&#x03c0;" xlink:href="#font_2_1" transform="matrix(7.9701,0,0,-7.9701,41.732995,104.86798)"/>
<path transform="matrix(1,0,0,-1,-29.424004,84.609989)" stroke-width=".3587" stroke-linecap="butt" stroke-miterlimit="10" stroke-linejoin="miter" fill="none" stroke="#000000" d="M71.157-23.815H77.27"/>
<use data-text="b" xlink:href="#font_2_5" transform="matrix(7.9701,0,0,-7.9701,42.594995,116.387989)"/>
<use data-text="," xlink:href="#font_2_3" transform="matrix(7.9701,0,0,-7.9701,49.041994,110.416988)"/>
<use data-text="0" xlink:href="#font_4_4" transform="matrix(7.9701,0,0,-7.9701,53.164995,110.416988)"/>
<use data-text=")" xlink:href="#font_4_2" transform="matrix(7.9701,0,0,-7.9701,58.042695,110.416988)"/>
<path transform="matrix(1,0,0,-1,130.571,97.804988)" d="M64.19508 0C64.19508 1.01166 63.37497 1.83177 62.36331 1.83177 61.35165 1.83177 60.53154 1.01166 60.53154 0 60.53154-1.01166 61.35165-1.83177 62.36331-1.83177 63.37497-1.83177 64.19508-1.01166 64.19508 0ZM62.36331 0"/>
<path transform="matrix(1,0,0,-1,130.571,97.804988)" stroke-width=".3985" stroke-linecap="butt" stroke-miterlimit="10" stroke-linejoin="miter" fill="none" stroke="#ffffff" d="M64.19508 0C64.19508 1.01166 63.37497 1.83177 62.36331 1.83177 61.35165 1.83177 60.53154 1.01166 60.53154 0 60.53154-1.01166 61.35165-1.83177 62.36331-1.83177 63.37497-1.83177 64.19508-1.01166 64.19508 0ZM62.36331 0"/>
<use data-text="(" xlink:href="#font_4_1" transform="matrix(7.9701,0,0,-7.9701,161.485,110.416988)"/>
<use data-text="&#x03c0;" xlink:href="#font_2_1" transform="matrix(7.9701,0,0,-7.9701,166.477,104.86798)"/>
<path transform="matrix(1,0,0,-1,102.914,84.609989)" stroke-width=".3587" stroke-linecap="butt" stroke-miterlimit="10" stroke-linejoin="miter" fill="none" stroke="#000000" d="M63.563-23.815H69.677"/>
<use data-text="b" xlink:href="#font_2_5" transform="matrix(7.9701,0,0,-7.9701,167.339,116.387989)"/>
<use data-text="," xlink:href="#font_2_3" transform="matrix(7.9701,0,0,-7.9701,173.78601,110.416988)"/>
<use data-text="0" xlink:href="#font_4_4" transform="matrix(7.9701,0,0,-7.9701,177.909,110.416988)"/>
<use data-text=")" xlink:href="#font_4_2" transform="matrix(7.9701,0,0,-7.9701,182.78672,110.416988)"/>
<path transform="matrix(1,0,0,-1,130.571,97.804988)" d="M126.55843 0C126.55843 1.01166 125.73831 1.83177 124.72664 1.83177 123.71498 1.83177 122.89487 1.01166 122.89487 0 122.89487-1.01166 123.71498-1.83177 124.72664-1.83177 125.73831-1.83177 126.55843-1.01166 126.55843 0ZM124.72664 0"/>
<path transform="matrix(1,0,0,-1,130.571,97.804988)" stroke-width=".3985" stroke-linecap="butt" stroke-miterlimit="10" stroke-linejoin="miter" fill="none" stroke="#ffffff" d="M126.55843 0C126.55843 1.01166 125.73831 1.83177 124.72664 1.83177 123.71498 1.83177 122.89487 1.01166 122.89487 0 122.89487-1.01166 123.71498-1.83177 124.72664-1.83177 125.73831-1.83177 126.55843-1.01166 126.55843 0ZM124.72664 0"/>
<use data-text="(" xlink:href="#font_4_1" transform="matrix(7.9701,0,0,-7.9701,261.669,112.01099)"/>
<use data-text="2" xlink:href="#font_4_6" transform="matrix(7.9701,0,0,-7.9701,266.661,106.46199)"/>
<use data-text="&#x03c0;" xlink:href="#font_2_1" transform="matrix(7.9701,0,0,-7.9701,271.543,106.46199)"/>
<path transform="matrix(1,0,0,-1,203.098,86.20399)" stroke-width=".3587" stroke-linecap="butt" stroke-miterlimit="10" stroke-linejoin="miter" fill="none" stroke="#000000" d="M63.563-23.815H74.558"/>
<use data-text="b" xlink:href="#font_2_5" transform="matrix(7.9701,0,0,-7.9701,269.964,117.98199)"/>
<use data-text="," xlink:href="#font_2_3" transform="matrix(7.9701,0,0,-7.9701,278.852,112.01099)"/>
<use data-text="0" xlink:href="#font_4_4" transform="matrix(7.9701,0,0,-7.9701,282.975,112.01099)"/>
<use data-text=")" xlink:href="#font_4_2" transform="matrix(7.9701,0,0,-7.9701,287.85273,112.01099)"/>
<path transform="matrix(1,0,0,-1,130.571,97.804988)" d="M188.92174 0C188.92174 1.01166 188.10163 1.83177 187.08997 1.83177 186.07831 1.83177 185.2582 1.01166 185.2582 0 185.2582-1.01166 186.07831-1.83177 187.08997-1.83177 188.10163-1.83177 188.92174-1.01166 188.92174 0ZM187.08997 0"/>
<path transform="matrix(1,0,0,-1,130.571,97.804988)" stroke-width=".3985" stroke-linecap="butt" stroke-miterlimit="10" stroke-linejoin="miter" fill="none" stroke="#ffffff" d="M188.92174 0C188.92174 1.01166 188.10163 1.83177 187.08997 1.83177 186.07831 1.83177 185.2582 1.01166 185.2582 0 185.2582-1.01166 186.07831-1.83177 187.08997-1.83177 188.10163-1.83177 188.92174-1.01166 188.92174 0ZM187.08997 0"/>
<use data-text="(" xlink:href="#font_4_1" transform="matrix(7.9701,0,0,-7.9701,324.04103,112.01099)"/>
<use data-text="3" xlink:href="#font_4_7" transform="matrix(7.9701,0,0,-7.9701,329.033,106.46199)"/>
<use data-text="&#x03c0;" xlink:href="#font_2_1" transform="matrix(7.9701,0,0,-7.9701,333.915,106.46199)"/>
<path transform="matrix(1,0,0,-1,265.47,86.20399)" stroke-width=".3587" stroke-linecap="butt" stroke-miterlimit="10" stroke-linejoin="miter" fill="none" stroke="#000000" d="M63.563-23.815H74.558"/>
<use data-text="b" xlink:href="#font_2_5" transform="matrix(7.9701,0,0,-7.9701,332.336,117.98199)"/>
<use data-text="," xlink:href="#font_2_3" transform="matrix(7.9701,0,0,-7.9701,341.224,112.01099)"/>
<use data-text="0" xlink:href="#font_4_4" transform="matrix(7.9701,0,0,-7.9701,345.347,112.01099)"/>
<use data-text=")" xlink:href="#font_4_2" transform="matrix(7.9701,0,0,-7.9701,350.2247,112.01099)"/>
<path transform="matrix(1,0,0,-1,130.571,97.804988)" d="M-29.34987-51.02432C-29.34987-50.01266-30.17-49.19255-31.18166-49.19255-32.19331-49.19255-33.01343-50.01266-33.01343-51.02432-33.01343-52.03598-32.19331-52.8561-31.18166-52.8561-30.17-52.8561-29.34987-52.03598-29.34987-51.02432ZM-31.18166-51.02432" fill="#ec008c"/>
<path transform="matrix(1,0,0,-1,130.571,97.804988)" stroke-width=".3985" stroke-linecap="butt" stroke-miterlimit="10" stroke-linejoin="miter" fill="none" stroke="#ffffff" d="M-29.34987-51.02432C-29.34987-50.01266-30.17-49.19255-31.18166-49.19255-32.19331-49.19255-33.01343-50.01266-33.01343-51.02432-33.01343-52.03598-32.19331-52.8561-31.18166-52.8561-30.17-52.8561-29.34987-52.03598-29.34987-51.02432ZM-31.18166-51.02432"/>
<use data-text="(" xlink:href="#font_4_1" transform="matrix(7.9701,0,0,-7.9701,77.406,161.44098)" fill="#ec008c"/>
<use data-text="&#x2212;" xlink:href="#font_3_1" transform="matrix(7.9701,0,0,-7.9701,81.203,161.44098)" fill="#ec008c"/>
<use data-text="&#x03c0;" xlink:href="#font_2_1" transform="matrix(7.9701,0,0,-7.9701,91.571,155.89199)" fill="#ec008c"/>
<path transform="matrix(1,0,0,-1,18.835,135.63399)" stroke-width=".3587" stroke-linecap="butt" stroke-miterlimit="10" stroke-linejoin="miter" fill="none" stroke="#ec008c" d="M71.157-23.815H80.428"/>
<use data-text="2" xlink:href="#font_4_6" transform="matrix(7.9701,0,0,-7.9701,89.992,167.41199)" fill="#ec008c"/>
<use data-text="b" xlink:href="#font_2_5" transform="matrix(7.9701,0,0,-7.9701,94.874,167.41199)" fill="#ec008c"/>
<use data-text="," xlink:href="#font_2_3" transform="matrix(7.9701,0,0,-7.9701,100.458,161.44098)" fill="#ec008c"/>
<use data-text="&#x2212;" xlink:href="#font_3_1" transform="matrix(7.9701,0,0,-7.9701,104.582,161.44098)" fill="#ec008c"/>
<use data-text="a" xlink:href="#font_2_4" transform="matrix(7.9701,0,0,-7.9701,112.176,161.44098)" fill="#ec008c"/>
<use data-text=")" xlink:href="#font_4_2" transform="matrix(7.9701,0,0,-7.9701,117.566,161.44098)" fill="#ec008c"/>
<path transform="matrix(1,0,0,-1,130.571,97.804988)" d="M33.01343 51.02432C33.01343 52.03598 32.19331 52.8561 31.18166 52.8561 30.17 52.8561 29.34987 52.03598 29.34987 51.02432 29.34987 50.01266 30.17 49.19255 31.18166 49.19255 32.19331 49.19255 33.01343 50.01266 33.01343 51.02432ZM31.18166 51.02432" fill="#ec008c"/>
<path transform="matrix(1,0,0,-1,130.571,97.804988)" stroke-width=".3985" stroke-linecap="butt" stroke-miterlimit="10" stroke-linejoin="miter" fill="none" stroke="#ffffff" d="M33.01343 51.02432C33.01343 52.03598 32.19331 52.8561 31.18166 52.8561 30.17 52.8561 29.34987 52.03598 29.34987 51.02432 29.34987 50.01266 30.17 49.19255 31.18166 49.19255 32.19331 49.19255 33.01343 50.01266 33.01343 51.02432ZM31.18166 51.02432"/>
<use data-text="(" xlink:href="#font_4_1" transform="matrix(7.9701,0,0,-7.9701,147.37201,37.289987)" fill="#ec008c"/>
<use data-text="&#x03c0;" xlink:href="#font_2_1" transform="matrix(7.9701,0,0,-7.9701,153.943,31.740986)" fill="#ec008c"/>
<path transform="matrix(1,0,0,-1,88.801,11.482986)" stroke-width=".3587" stroke-linecap="butt" stroke-miterlimit="10" stroke-linejoin="miter" fill="none" stroke="#ec008c" d="M63.563-23.815H72.834"/>
<use data-text="2" xlink:href="#font_4_6" transform="matrix(7.9701,0,0,-7.9701,152.364,43.260988)" fill="#ec008c"/>
<use data-text="b" xlink:href="#font_2_5" transform="matrix(7.9701,0,0,-7.9701,157.246,43.260988)" fill="#ec008c"/>
<use data-text="," xlink:href="#font_2_3" transform="matrix(7.9701,0,0,-7.9701,162.831,37.289987)" fill="#ec008c"/>
<use data-text="a" xlink:href="#font_2_4" transform="matrix(7.9701,0,0,-7.9701,166.95154,37.289987)" fill="#ec008c"/>
<use data-text=")" xlink:href="#font_4_2" transform="matrix(7.9701,0,0,-7.9701,172.344,37.289987)" fill="#ec008c"/>
<path transform="matrix(1,0,0,-1,130.571,97.804988)" d="M95.37675-51.02432C95.37675-50.01266 94.55663-49.19255 93.54497-49.19255 92.53331-49.19255 91.7132-50.01266 91.7132-51.02432 91.7132-52.03598 92.53331-52.8561 93.54497-52.8561 94.55663-52.8561 95.37675-52.03598 95.37675-51.02432ZM93.54497-51.02432" fill="#ec008c"/>
<path transform="matrix(1,0,0,-1,130.571,97.804988)" stroke-width=".3985" stroke-linecap="butt" stroke-miterlimit="10" stroke-linejoin="miter" fill="none" stroke="#ffffff" d="M95.37675-51.02432C95.37675-50.01266 94.55663-49.19255 93.54497-49.19255 92.53331-49.19255 91.7132-50.01266 91.7132-51.02432 91.7132-52.03598 92.53331-52.8561 93.54497-52.8561 94.55663-52.8561 95.37675-52.03598 95.37675-51.02432ZM93.54497-51.02432"/>
<use data-text="(" xlink:href="#font_4_1" transform="matrix(7.9701,0,0,-7.9701,205.085,163.035)" fill="#ec008c"/>
<use data-text="3" xlink:href="#font_4_7" transform="matrix(7.9701,0,0,-7.9701,210.07701,157.486)" fill="#ec008c"/>
<use data-text="&#x03c0;" xlink:href="#font_2_1" transform="matrix(7.9701,0,0,-7.9701,214.95902,157.486)" fill="#ec008c"/>
<path transform="matrix(1,0,0,-1,146.514,137.228)" stroke-width=".3587" stroke-linecap="butt" stroke-miterlimit="10" stroke-linejoin="miter" fill="none" stroke="#ec008c" d="M63.563-23.815H74.558"/>
<use data-text="2" xlink:href="#font_4_6" transform="matrix(7.9701,0,0,-7.9701,210.93901,169.006)" fill="#ec008c"/>
<use data-text="b" xlink:href="#font_2_5" transform="matrix(7.9701,0,0,-7.9701,215.82102,169.006)" fill="#ec008c"/>
<use data-text="," xlink:href="#font_2_3" transform="matrix(7.9701,0,0,-7.9701,222.268,163.035)" fill="#ec008c"/>
<use data-text="&#x2212;" xlink:href="#font_3_1" transform="matrix(7.9701,0,0,-7.9701,226.39102,163.035)" fill="#ec008c"/>
<use data-text="a" xlink:href="#font_2_4" transform="matrix(7.9701,0,0,-7.9701,233.98502,163.035)" fill="#ec008c"/>
<use data-text=")" xlink:href="#font_4_2" transform="matrix(7.9701,0,0,-7.9701,239.37502,163.035)" fill="#ec008c"/>
<path transform="matrix(1,0,0,-1,130.571,97.804988)" d="M157.74008 51.02432C157.74008 52.03598 156.91997 52.8561 155.90831 52.8561 154.89664 52.8561 154.07653 52.03598 154.07653 51.02432 154.07653 50.01266 154.89664 49.19255 155.90831 49.19255 156.91997 49.19255 157.74008 50.01266 157.74008 51.02432ZM155.90831 51.02432" fill="#ec008c"/>
<path transform="matrix(1,0,0,-1,130.571,97.804988)" stroke-width=".3985" stroke-linecap="butt" stroke-miterlimit="10" stroke-linejoin="miter" fill="none" stroke="#ffffff" d="M157.74008 51.02432C157.74008 52.03598 156.91997 52.8561 155.90831 52.8561 154.89664 52.8561 154.07653 52.03598 154.07653 51.02432 154.07653 50.01266 154.89664 49.19255 155.90831 49.19255 156.91997 49.19255 157.74008 50.01266 157.74008 51.02432ZM155.90831 51.02432"/>
<use data-text="(" xlink:href="#font_4_1" transform="matrix(7.9701,0,0,-7.9701,271.254,37.289987)" fill="#ec008c"/>
<use data-text="5" xlink:href="#font_4_9" transform="matrix(7.9701,0,0,-7.9701,276.246,31.740986)" fill="#ec008c"/>
<use data-text="&#x03c0;" xlink:href="#font_2_1" transform="matrix(7.9701,0,0,-7.9701,281.128,31.740986)" fill="#ec008c"/>
<path transform="matrix(1,0,0,-1,212.683,11.482986)" stroke-width=".3587" stroke-linecap="butt" stroke-miterlimit="10" stroke-linejoin="miter" fill="none" stroke="#ec008c" d="M63.563-23.815H74.558"/>
<use data-text="2" xlink:href="#font_4_6" transform="matrix(7.9701,0,0,-7.9701,277.108,43.260988)" fill="#ec008c"/>
<use data-text="b" xlink:href="#font_2_5" transform="matrix(7.9701,0,0,-7.9701,281.99,43.260988)" fill="#ec008c"/>
<use data-text="," xlink:href="#font_2_3" transform="matrix(7.9701,0,0,-7.9701,288.437,37.289987)" fill="#ec008c"/>
<use data-text="a" xlink:href="#font_2_4" transform="matrix(7.9701,0,0,-7.9701,292.55757,37.289987)" fill="#ec008c"/>
<use data-text=")" xlink:href="#font_4_2" transform="matrix(7.9701,0,0,-7.9701,297.95,37.289987)" fill="#ec008c"/>
<path transform="matrix(1,0,0,-1,130.571,97.804988)" d="M-29.34987 51.02432C-29.34987 52.03598-30.17 52.8561-31.18166 52.8561-32.19331 52.8561-33.01343 52.03598-33.01343 51.02432-33.01343 50.01266-32.19331 49.19255-31.18166 49.19255-30.17 49.19255-29.34987 50.01266-29.34987 51.02432ZM-31.18166 51.02432"/>
<path transform="matrix(1,0,0,-1,130.571,97.804988)" stroke-width=".3985" stroke-linecap="butt" stroke-miterlimit="10" stroke-linejoin="miter" fill="none" stroke="#ffffff" d="M-29.34987 51.02432C-29.34987 52.03598-30.17 52.8561-31.18166 52.8561-32.19331 52.8561-33.01343 52.03598-33.01343 51.02432-33.01343 50.01266-32.19331 49.19255-31.18166 49.19255-30.17 49.19255-29.34987 50.01266-29.34987 51.02432ZM-31.18166 51.02432"/>
<use data-text="(" xlink:href="#font_4_1" transform="matrix(7.9701,0,0,-7.9701,81.203,37.289987)"/>
<use data-text="&#x2212;" xlink:href="#font_3_1" transform="matrix(7.9701,0,0,-7.9701,85,37.289987)"/>
<use data-text="&#x03c0;" xlink:href="#font_2_1" transform="matrix(7.9701,0,0,-7.9701,95.368,31.740986)"/>
<path transform="matrix(1,0,0,-1,22.632,11.482986)" stroke-width=".3587" stroke-linecap="butt" stroke-miterlimit="10" stroke-linejoin="miter" fill="none" stroke="#000000" d="M71.157-23.815H80.428"/>
<use data-text="2" xlink:href="#font_4_6" transform="matrix(7.9701,0,0,-7.9701,93.789,43.260988)"/>
<use data-text="b" xlink:href="#font_2_5" transform="matrix(7.9701,0,0,-7.9701,98.671009,43.260988)"/>
<use data-text="," xlink:href="#font_2_3" transform="matrix(7.9701,0,0,-7.9701,104.255008,37.289987)"/>
<use data-text="a" xlink:href="#font_2_4" transform="matrix(7.9701,0,0,-7.9701,108.375537,37.289987)"/>
<use data-text=")" xlink:href="#font_4_2" transform="matrix(7.9701,0,0,-7.9701,113.769,37.289987)"/>
<path transform="matrix(1,0,0,-1,130.571,97.804988)" d="M33.01343-51.02432C33.01343-50.01266 32.19331-49.19255 31.18166-49.19255 30.17-49.19255 29.34987-50.01266 29.34987-51.02432 29.34987-52.03598 30.17-52.8561 31.18166-52.8561 32.19331-52.8561 33.01343-52.03598 33.01343-51.02432ZM31.18166-51.02432"/>
<path transform="matrix(1,0,0,-1,130.571,97.804988)" stroke-width=".3985" stroke-linecap="butt" stroke-miterlimit="10" stroke-linejoin="miter" fill="none" stroke="#ffffff" d="M33.01343-51.02432C33.01343-50.01266 32.19331-49.19255 31.18166-49.19255 30.17-49.19255 29.34987-50.01266 29.34987-51.02432 29.34987-52.03598 30.17-52.8561 31.18166-52.8561 32.19331-52.8561 33.01343-52.03598 33.01343-51.02432ZM31.18166-51.02432"/>
<use data-text="(" xlink:href="#font_4_1" transform="matrix(7.9701,0,0,-7.9701,143.575,161.44098)"/>
<use data-text="&#x03c0;" xlink:href="#font_2_1" transform="matrix(7.9701,0,0,-7.9701,150.146,155.89199)"/>
<path transform="matrix(1,0,0,-1,85.004,135.63399)" stroke-width=".3587" stroke-linecap="butt" stroke-miterlimit="10" stroke-linejoin="miter" fill="none" stroke="#000000" d="M63.563-23.815H72.834"/>
<use data-text="2" xlink:href="#font_4_6" transform="matrix(7.9701,0,0,-7.9701,148.567,167.41199)"/>
<use data-text="b" xlink:href="#font_2_5" transform="matrix(7.9701,0,0,-7.9701,153.449,167.41199)"/>
<use data-text="," xlink:href="#font_2_3" transform="matrix(7.9701,0,0,-7.9701,159.034,161.44098)"/>
<use data-text="&#x2212;" xlink:href="#font_3_1" transform="matrix(7.9701,0,0,-7.9701,163.157,161.44098)"/>
<use data-text="a" xlink:href="#font_2_4" transform="matrix(7.9701,0,0,-7.9701,170.751,161.44098)"/>
<use data-text=")" xlink:href="#font_4_2" transform="matrix(7.9701,0,0,-7.9701,176.14099,161.44098)"/>
<path transform="matrix(1,0,0,-1,130.571,97.804988)" d="M95.37675 51.02432C95.37675 52.03598 94.55663 52.8561 93.54497 52.8561 92.53331 52.8561 91.7132 52.03598 91.7132 51.02432 91.7132 50.01266 92.53331 49.19255 93.54497 49.19255 94.55663 49.19255 95.37675 50.01266 95.37675 51.02432ZM93.54497 51.02432"/>
<path transform="matrix(1,0,0,-1,130.571,97.804988)" stroke-width=".3985" stroke-linecap="butt" stroke-miterlimit="10" stroke-linejoin="miter" fill="none" stroke="#ffffff" d="M95.37675 51.02432C95.37675 52.03598 94.55663 52.8561 93.54497 52.8561 92.53331 52.8561 91.7132 52.03598 91.7132 51.02432 91.7132 50.01266 92.53331 49.19255 93.54497 49.19255 94.55663 49.19255 95.37675 50.01266 95.37675 51.02432ZM93.54497 51.02432"/>
<use data-text="(" xlink:href="#font_4_1" transform="matrix(7.9701,0,0,-7.9701,208.882,37.289987)"/>
<use data-text="3" xlink:href="#font_4_7" transform="matrix(7.9701,0,0,-7.9701,213.87401,31.740986)"/>
<use data-text="&#x03c0;" xlink:href="#font_2_1" transform="matrix(7.9701,0,0,-7.9701,218.75601,31.740986)"/>
<path transform="matrix(1,0,0,-1,150.311,11.482986)" stroke-width=".3587" stroke-linecap="butt" stroke-miterlimit="10" stroke-linejoin="miter" fill="none" stroke="#000000" d="M63.563-23.815H74.558"/>
<use data-text="2" xlink:href="#font_4_6" transform="matrix(7.9701,0,0,-7.9701,214.73601,43.260988)"/>
<use data-text="b" xlink:href="#font_2_5" transform="matrix(7.9701,0,0,-7.9701,219.61801,43.260988)"/>
<use data-text="," xlink:href="#font_2_3" transform="matrix(7.9701,0,0,-7.9701,226.065,37.289987)"/>
<use data-text="a" xlink:href="#font_2_4" transform="matrix(7.9701,0,0,-7.9701,230.18555,37.289987)"/>
<use data-text=")" xlink:href="#font_4_2" transform="matrix(7.9701,0,0,-7.9701,235.578,37.289987)"/>
<path transform="matrix(1,0,0,-1,130.571,97.804988)" d="M157.74008-51.02432C157.74008-50.01266 156.91997-49.19255 155.90831-49.19255 154.89664-49.19255 154.07653-50.01266 154.07653-51.02432 154.07653-52.03598 154.89664-52.8561 155.90831-52.8561 156.91997-52.8561 157.74008-52.03598 157.74008-51.02432ZM155.90831-51.02432"/>
<path transform="matrix(1,0,0,-1,130.571,97.804988)" stroke-width=".3985" stroke-linecap="butt" stroke-miterlimit="10" stroke-linejoin="miter" fill="none" stroke="#ffffff" d="M157.74008-51.02432C157.74008-50.01266 156.91997-49.19255 155.90831-49.19255 154.89664-49.19255 154.07653-50.01266 154.07653-51.02432 154.07653-52.03598 154.89664-52.8561 155.90831-52.8561 156.91997-52.8561 157.74008-52.03598 157.74008-51.02432ZM155.90831-51.02432"/>
<use data-text="(" xlink:href="#font_4_1" transform="matrix(7.9701,0,0,-7.9701,267.457,163.035)"/>
<use data-text="5" xlink:href="#font_4_9" transform="matrix(7.9701,0,0,-7.9701,272.449,157.486)"/>
<use data-text="&#x03c0;" xlink:href="#font_2_1" transform="matrix(7.9701,0,0,-7.9701,277.331,157.486)"/>
<path transform="matrix(1,0,0,-1,208.886,137.228)" stroke-width=".3587" stroke-linecap="butt" stroke-miterlimit="10" stroke-linejoin="miter" fill="none" stroke="#000000" d="M63.563-23.815H74.558"/>
<use data-text="2" xlink:href="#font_4_6" transform="matrix(7.9701,0,0,-7.9701,273.311,169.006)"/>
<use data-text="b" xlink:href="#font_2_5" transform="matrix(7.9701,0,0,-7.9701,278.193,169.006)"/>
<use data-text="," xlink:href="#font_2_3" transform="matrix(7.9701,0,0,-7.9701,284.64,163.035)"/>
<use data-text="&#x2212;" xlink:href="#font_3_1" transform="matrix(7.9701,0,0,-7.9701,288.763,163.035)"/>
<use data-text="a" xlink:href="#font_2_4" transform="matrix(7.9701,0,0,-7.9701,296.357,163.035)"/>
<use data-text=")" xlink:href="#font_4_2" transform="matrix(7.9701,0,0,-7.9701,301.747,163.035)"/>
<path transform="matrix(1,0,0,-1,130.571,97.804988)" stroke-width=".3985" stroke-linecap="butt" stroke-miterlimit="10" stroke-linejoin="miter" fill="none" stroke="#000000" d="M.29886-87.87527H124.42778"/>
<path transform="matrix(-1,-0,0,1,135.55236,185.68025)" d="M3.7613 0C3.2994 .1127 1.26901 .75136 0 1.44638V-1.44638C1.26901-.75136 3.2994-.1127 3.7613 0Z"/>
<path transform="matrix(-1,-0,0,1,135.55236,185.68025)" stroke-width=".3985" stroke-linecap="butt" stroke-miterlimit="10" stroke-linejoin="miter" fill="none" stroke="#000000" d="M3.7613 0C3.2994 .1127 1.26901 .75136 0 1.44638V-1.44638C1.26901-.75136 3.2994-.1127 3.7613 0Z"/>
<path transform="matrix(-1,-0,0,1,130.77025,185.68025)" stroke-width=".3985" stroke-linecap="butt" stroke-miterlimit="10" stroke-linejoin="miter" fill="none" stroke="#000000" d="M0 2.29141V-2.29141"/>
<path transform="matrix(1,0,0,-1,250.31629,185.68025)" d="M3.7613 0C3.2994 .1127 1.26901 .75136 0 1.44638V-1.44638C1.26901-.75136 3.2994-.1127 3.7613 0Z"/>
<path transform="matrix(1,0,0,-1,250.31629,185.68025)" stroke-width=".3985" stroke-linecap="butt" stroke-miterlimit="10" stroke-linejoin="miter" fill="none" stroke="#000000" d="M3.7613 0C3.2994 .1127 1.26901 .75136 0 1.44638V-1.44638C1.26901-.75136 3.2994-.1127 3.7613 0Z"/>
<path transform="matrix(1,0,0,-1,255.09839,185.68025)" stroke-width=".3985" stroke-linecap="butt" stroke-miterlimit="10" stroke-linejoin="miter" fill="none" stroke="#000000" d="M0 2.29141V-2.29141"/>
<path transform="matrix(1,0,0,-1,130.571,97.804988)" d="M35.19266-100.06625H89.533969V-75.684299H35.19266Z" fill="#ffffff"/>
<use data-text="p" xlink:href="#font_8_84" transform="matrix(9.9626,0,0,-9.9626,167.258,188.84299)"/>
<use data-text="e" xlink:href="#font_8_50" transform="matrix(9.9626,0,0,-9.9626,173.93294,188.84299)"/>
<use data-text="r" xlink:href="#font_8_96" transform="matrix(9.9626,0,0,-9.9626,179.18323,188.84299)"/>
<use data-text="i" xlink:href="#font_8_66" transform="matrix(9.9626,0,0,-9.9626,183.9055,188.84299)"/>
<use data-text="o" xlink:href="#font_8_81" transform="matrix(9.9626,0,0,-9.9626,187.08358,188.84299)"/>
<use data-text="d" xlink:href="#font_8_47" transform="matrix(9.9626,0,0,-9.9626,193.13086,188.84299)"/>
<use data-text="2" xlink:href="#font_6_6" transform="matrix(9.9626,0,0,-9.9626,204.51799,181.40398)"/>
<use data-text="&#x03c0;" xlink:href="#font_5_1" transform="matrix(9.9626,0,0,-9.9626,210.247,181.40398)"/>
<path transform="matrix(1,0,0,-1,108.687,163.03598)" stroke-width=".3985" stroke-linecap="butt" stroke-miterlimit="10" stroke-linejoin="miter" fill="none" stroke="#000000" d="M95.831-23.317H108.727"/>
<use data-text="b" xlink:href="#font_5_4" transform="matrix(9.9626,0,0,-9.9626,208.372,196.37699)"/>
<path transform="matrix(1,0,0,-1,130.571,97.804988)" stroke-width=".3985" stroke-linecap="butt" stroke-miterlimit="10" stroke-linejoin="miter" fill="none" stroke="#000000" d="M224.50788 .29886V50.72545"/>
<path transform="matrix(0,1,1,0,355.07887,92.82364)" d="M3.7613 0C3.2994 .1127 1.26901 .75136 0 1.44638V-1.44638C1.26901-.75136 3.2994-.1127 3.7613 0Z"/>
<path transform="matrix(0,1,1,0,355.07887,92.82364)" stroke-width=".3985" stroke-linecap="butt" stroke-miterlimit="10" stroke-linejoin="miter" fill="none" stroke="#000000" d="M3.7613 0C3.2994 .1127 1.26901 .75136 0 1.44638V-1.44638C1.26901-.75136 3.2994-.1127 3.7613 0Z"/>
<path transform="matrix(0,1,1,0,355.07887,97.605739)" stroke-width=".3985" stroke-linecap="butt" stroke-miterlimit="10" stroke-linejoin="miter" fill="none" stroke="#000000" d="M0 2.29141V-2.29141"/>
<path transform="matrix(0,-1,-1,-0,355.07887,51.762018)" d="M3.7613 0C3.2994 .1127 1.26901 .75136 0 1.44638V-1.44638C1.26901-.75136 3.2994-.1127 3.7613 0Z"/>
<path transform="matrix(0,-1,-1,-0,355.07887,51.762018)" stroke-width=".3985" stroke-linecap="butt" stroke-miterlimit="10" stroke-linejoin="miter" fill="none" stroke="#000000" d="M3.7613 0C3.2994 .1127 1.26901 .75136 0 1.44638V-1.44638C1.26901-.75136 3.2994-.1127 3.7613 0Z"/>
<path transform="matrix(0,-1,-1,-0,355.07887,46.979917)" stroke-width=".3985" stroke-linecap="butt" stroke-miterlimit="10" stroke-linejoin="miter" fill="none" stroke="#000000" d="M0 2.29141V-2.29141"/>
<use data-text="a" xlink:href="#font_9_28" transform="matrix(0,-4.9813,-4.9813,-0,350.087,92.32799)"/>
<use data-text="m" xlink:href="#font_9_75" transform="matrix(0,-4.9813,-4.9813,-0,350.087,88.65179)"/>
<use data-text="p" xlink:href="#font_9_84" transform="matrix(0,-4.9813,-4.9813,-0,350.087,82.46501)"/>
<use data-text="l" xlink:href="#font_9_72" transform="matrix(0,-4.9813,-4.9813,-0,350.087,78.2857)"/>
<use data-text="i" xlink:href="#font_9_66" transform="matrix(0,-4.9813,-4.9813,-0,350.087,76.11385)"/>
<use data-text="t" xlink:href="#font_9_105" transform="matrix(0,-4.9813,-4.9813,-0,350.087,73.94201)"/>
<use data-text="u" xlink:href="#font_9_109" transform="matrix(0,-4.9813,-4.9813,-0,350.087,70.96817)"/>
<use data-text="d" xlink:href="#font_9_47" transform="matrix(0,-4.9813,-4.9813,-0,350.087,66.78886)"/>
<use data-text="e" xlink:href="#font_9_50" transform="matrix(0,-4.9813,-4.9813,-0,350.087,62.609544)"/>
<use data-text="a" xlink:href="#font_10_1" transform="matrix(0,-4.9813,-4.9813,-0,350.087,56.58699)"/>
</svg>
