<svg style="overflow: visible;" xmlns="http://www.w3.org/2000/svg" xmlns:xlink="http://www.w3.org/1999/xlink" xmlns:inkscape="http://www.inkscape.org/namespaces/inkscape" version="1.1" width="100%" height="100%" viewBox="0 0 396.25 152.06">
<defs>
<path id="font_1_3" d="M.5499878 .39736939C.5169983 .38838197 .49299623 .35838319 .49299623 .32537843 .49299623 .28938294 .5209961 .27539063 .54499819 .27539063 .58299258 .27539063 .62098696 .30638124 .62098696 .35838319 .62098696 .41610719 .56399539 .45210267 .5029907 .45210267 .45498658 .45210267 .4169922 .4250946 .3919983 .39338685 .37799073 .41111756 .34399415 .45210267 .25 .45210267 .117996219 .45210267 .04899597 .3303833 .04899597 .29638673 .04899597 .28138734 .06298828 .28138734 .07499695 .28138734 .09098816 .28138734 .09599304 .28138734 .099990848 .29537965 .1329956 .39338685 .21299744 .41210938 .24398804 .41210938 .30299378 .41210938 .30299378 .37438966 .30299378 .36138917 .30299378 .3423767 .2889862 .28637696 .27999879 .24926758 .27198792 .21914673 .25299073 .14093018 .24699402 .11993408 .23098755 .056930543 .19198609 .032180787 .16099549 .032180787 .13999939 .032180787 .12098694 .04005432 .11099243 .046951295 .14399719 .05593872 .16799927 .0859375 .16799927 .11894226 .16799927 .15493775 .13999939 .16894531 .115997318 .16894531 .07798767 .16894531 .039993287 .13793946 .039993287 .0859375 .039993287 .028182984 .09700012-.0078125 .1579895-.0078125 .20599365-.0078125 .24398804 .019180298 .2689972 .050933839 .2829895 .03315735 .31698609-.0078125 .41099549-.0078125 .54299929-.0078125 .6119995 .11393738 .6119995 .14793396 .6119995 .16394043 .59498599 .16394043 .58599856 .16394043 .56799319 .16394043 .5649872 .16093445 .5609894 .14894104 .5279999 .050933839 .44799806 .032180787 .4169922 .032180787 .35798646 .032180787 .35798646 .06993103 .35798646 .08293152 .35798646 .10194397 .37199403 .15794373 .3809967 .1950531 .3889923 .22517395 .4079895 .3033905 .4139862 .3243866 .42999269 .38739015 .46899415 .41210938 .5 .41210938 .5209961 .41210938 .5399933 .40423585 .5499878 .39736939Z"/>
<path id="font_1_4" d="M.59498599 .3731079C.598999 .38909913 .598999 .394104 .598999 .3981018 .598999 .4320984 .57199099 .44410707 .5509949 .44410707 .49798585 .44410707 .48599244 .3961029 .47898866 .3701172L.45298768 .26612855C.43899537 .21113587 .42599488 .15615845 .41099549 .10116577 .4099884 .09416199 .3659973 .032180787 .30099488 .032180787 .2579956 .032180787 .23799134 .057174684 .23799134 .10417175 .23799134 .16314698 .27198792 .24913025 .29899598 .3171234 .30499269 .33111573 .31098939 .3461151 .31098939 .36210633 .31098939 .41410829 .25898744 .45210267 .19299317 .45210267 .08699036 .45210267 .032989503 .32011415 .032989503 .29612733 .032989503 .28112794 .04699707 .28112794 .05899048 .28112794 .07499695 .28112794 .07998657 .28112794 .083999637 .29512025 .11898804 .4091034 .1769867 .41210938 .18699646 .41210938 .19299317 .41210938 .20399475 .41210938 .20399475 .3901062 .20399475 .36810304 .19299317 .3421173 .18798828 .32911683 .147995 .22813416 .12799073 .17315674 .12799073 .12416077 .12799073 .0231781 .20899964-.0078125 .29299928-.0078125 .30899049-.0078125 .34700013-.0078125 .3919983 .02218628 .36999513-.08416748 .29599-.16210938 .21598816-.16210938 .21398926-.16210938 .18499756-.16210938 .16099549-.15216065 .18399048-.14016724 .20399475-.11515808 .20399475-.0851593 .20399475-.04916382 .17599488-.03515625 .1519928-.03515625 .10899353-.03515625 .07598877-.07316589 .07598877-.11416626 .07598877-.17111206 .13699341-.20211792 .21598816-.20211792 .33799745-.20211792 .47099305-.123168949 .5009918-.0018157959L.59498599 .3731079Z"/>
<path id="font_2_4" d="M.54499819 .31925965C.54499819 .4212494 .5419922 .65625 .29599 .65625 .051986696 .65625 .04598999 .429245 .04598999 .31925965 .04598999 .21525574 .04899597-.01171875 .29499818-.01171875 .5389862-.01171875 .54499819 .20826721 .54499819 .31925965M.29599 .028274537C.2689972 .028274537 .19999695 .040267946 .18699646 .13226319 .1789856 .18527222 .1789856 .27626039 .1789856 .33125306 .1789856 .3942566 .1789856 .47824098 .18699646 .52523806 .20199585 .60523989 .2689972 .61624148 .29499818 .61624148 .32798768 .61624148 .3909912 .600235 .4039917 .5222473 .4119873 .47424317 .4119873 .3882599 .4119873 .33125306 .4119873 .25326539 .4119873 .13426209 .3959961 .09527588 .37399293 .046279909 .32899476 .028274537 .29599 .028274537Z"/>
<path id="font_3_1" d="M.33599855 .3408203H.44898988C.42199708 .22695923 .41999818 .17901612 .41999818 .14805603 .41999818 .07015991 .44499208-.009765625 .49598695-.009765625 .522995-.009765625 .5669861 .018218995 .5669861 .059173585 .5669861 .073150638 .56399539 .07914734 .55599978 .09112549 .5069885 .16603089 .5029907 .24394226 .5029907 .27789308 .5029907 .30485536 .5049896 .31684876 .5079956 .3408203H.6389923C.6599884 .3408203 .6719971 .3408203 .6899872 .35481263 .70399478 .3658142 .71299746 .38581849 .71299746 .40081788 .71299746 .44381715 .6729889 .44381715 .6559906 .44381715H.23498535C.21099854 .44381715 .16799927 .44381715 .10598755 .3918152 .08999634 .37780763 .03199768 .31884767 .03199768 .30285646 .03199768 .2848816 .04899597 .2848816 .05999756 .2848816 .07699585 .2848816 .07798767 .28588868 .08699036 .296875 .10598755 .31684876 .1349945 .3408203 .21299744 .3408203H.27598573C.25498963 .27789308 .22499085 .2059784 .15699768 .085128787 .14299011 .061157228 .13999939 .05517578 .13999939 .03918457 .13999939 .008224487 .16499329-.008773804 .19099427-.008773804 .21798706-.008773804 .24499512 .008224487 .2559967 .04019165 .2659912 .06616211 .272995 .09411621 .2809906 .12608338L.33599855 .3408203Z"/>
<path id="font_4_6" d="M.5509949 .2280426H.49499513C.4869995 .16200257 .47399903 .14199829 .46798707 .13899231 .45700074 .1329956 .37998963 .1329956 .36299134 .1329956H.22499085C.35899354 .23805237 .41299439 .2680664 .45599366 .30108644 .526001 .35612489 .5509949 .40615846 .5509949 .46316529 .5509949 .58117678 .44198609 .6582031 .2899933 .6582031 .1619873 .6582031 .06098938 .6011963 .06098938 .50717166 .06098938 .4481659 .10899353 .4291687 .13699341 .4291687 .17199707 .4291687 .21398926 .4541626 .21398926 .50616458 .21398926 .5531616 .17999268 .5721588 .16699219 .5771637 .19499207 .5981903 .23498535 .6062012 .2659912 .6062012 .35598756 .6062012 .4059906 .5391693 .4059906 .4621582 .4059906 .38113404 .35299684 .31410218 .2939911 .25906373L.07299805 .052993776C.06199646 .041992189 .06098938 .040985109 .06098938 .020996094V0H.5179901L.5509949 .2280426Z"/>
<path id="font_4_5" d="M.3789978 .62413027C.3789978 .6582031 .37298585 .6582031 .33299256 .6582031 .27198792 .61006167 .19198609 .5939789 .11399841 .5939789H.09199524V.5419922H.11399841C.13999939 .5419922 .19400025 .5449829 .2519989 .5619812V.051986696H.101989749V0C.13798523 .0029907227 .269989 .0029907227 .31498719 .0029907227 .3600006 .0029907227 .48999024 .0029907227 .5269928 0V.051986696H.3789978V.62413027Z"/>
<path id="font_5_1" d="M.8019867 .21617127C.81599429 .21617127 .84999087 .21617127 .84999087 .25016786 .84999087 .2841797 .81599429 .2841797 .8019867 .2841797H.1499939C.13598633 .2841797 .101989749 .2841797 .101989749 .25016786 .101989749 .21617127 .13598633 .21617127 .1499939 .21617127H.8019867Z"/>
<path id="font_4_1" d="M.40699769-.23200989C.40699769-.2250061 .4039917-.22200012 .3919983-.21200562 .2649994-.09700012 .21998596 .07798767 .21998596 .25 .21998596 .42099 .2630005 .59599307 .3899994 .70899966 .4059906 .723999 .40699769 .72499087 .40699769 .7319946 .40699769 .74198916 .40098573 .75 .38598634 .75 .36698915 .75 .31399537 .70500186 .2939911 .6859894 .16899109 .56199648 .11399841 .4099884 .11399841 .25 .11399841 .16099549 .13198853 .039993287 .20599365-.07800293 .2689972-.17800904 .3639984-.25 .38598634-.25 .40098573-.25 .40699769-.2420044 .40699769-.23200989Z"/>
<path id="font_4_4" d="M.56399539 .31925965C.56399539 .4352417 .5549927 .6582031 .30599977 .6582031 .055999757 .6582031 .04798889 .4332428 .04798889 .31925965 .04798889 .20729065 .054992677-.013671875 .30599977-.013671875 .55799868-.013671875 .56399539 .20828247 .56399539 .31925965M.30599977 .028320313C.2789917 .028320313 .25099183 .03831482 .22999573 .05531311 .19799805 .08331299 .18299866 .0973053 .18299866 .33125306 .18299866 .40324403 .18299866 .4762268 .19299317 .5262146 .20599365 .5971985 .2679901 .6161957 .30599977 .6161957 .32998658 .6161957 .4059906 .610199 .42099 .515213 .42900086 .4662323 .42900086 .3892517 .42900086 .33125306 .42900086 .10231018 .4149933 .08830261 .38398744 .05831909 .37599183 .049316408 .34799195 .028320313 .30599977 .028320313Z"/>
<path id="font_3_3" d="M.22099304 .016998291C.21199036-.08493042 .1519928-.1348877 .1309967-.15187073 .11999512-.15986634 .115997318-.16287232 .115997318-.17185974 .115997318-.18086243 .12799073-.19386292 .13899231-.19386292 .15499878-.19386292 .2639923-.106918338 .2639923 .03199768 .2639923 .10499573 .22698975 .1599884 .16899109 .1599884 .12199402 .1599884 .08999634 .12399292 .08999634 .07998657 .08999634 .038986207 .11898804 0 .16999817 0 .18998719 0 .20899964 .0069885256 .22099304 .016998291Z"/>
<path id="font_4_2" d="M.36099244 .25C.36099244 .33898927 .34298707 .45999146 .2689972 .5779877 .20599365 .6779938 .11099243 .75 .08898926 .75 .07199097 .75 .067993167 .7389984 .067993167 .7319946 .067993167 .72499087 .07199097 .72099307 .08299255 .71199038 .20999146 .5970001 .25498963 .42199708 .25498963 .25 .25498963 .07899475 .21199036-.0960083 .084991458-.2090149 .07299805-.22000122 .067993167-.22401428 .067993167-.23200989 .067993167-.23901367 .07199097-.25 .08898926-.25 .10798645-.25 .16099549-.20500183 .18099976-.18600464 .30599977-.06201172 .36099244 .08999634 .36099244 .25Z"/>
<path id="font_4_7" d="M.28399659 .32714845C.3999939 .32714845 .40098573 .23034668 .40098573 .18035889 .40098573 .13534546 .40098573 .033325197 .28799439 .033325197 .2669983 .033325197 .20999146 .036315919 .1599884 .068359378 .1769867 .0753479 .21299744 .09635925 .21299744 .14535523 .21299744 .19335938 .1789856 .22634888 .13198853 .22634888 .08799744 .22634888 .050994874 .1963501 .050994874 .14434815 .050994874 .047332765 .15499878-.013671875 .29299928-.013671875 .4889984-.013671875 .5609894 .09234619 .5609894 .1793518 .5609894 .26127626 .49798585 .32914735 .3899994 .35313417 .4169922 .36413575 .5269928 .40715028 .5269928 .51615908 .5269928 .59617617 .44499208 .6582031 .29599 .6582031 .1659851 .6582031 .084991458 .58917239 .084991458 .50717166 .084991458 .45115663 .1289978 .4311676 .15899658 .4311676 .19898987 .4311676 .23298645 .45916749 .23298645 .5051575 .23298645 .52716067 .22499085 .5651703 .1769867 .5771637 .22099304 .6151886 .2809906 .6151886 .2899933 .6151886 .3829956 .6151886 .3829956 .5491638 .3829956 .51916506 .3829956 .4471588 .34899903 .41015626 .34599305 .40615846 .31698609 .37513734 .29899598 .3741455 .24499512 .37113954 .21398926 .36914063 .20399475 .36813355 .20399475 .34814454 .20399475 .32714845 .21699524 .32714845 .23498535 .32714845H.28399659Z"/>
<path id="font_6_8" d="M.57699587 .3771515C.58200076 .3951416 .58200076 .3971405 .58200076 .40014649 .58200076 .4221344 .56599429 .44413758 .5349884 .44413758 .48298646 .44413758 .47099305 .3971405 .46398927 .3701477L.43798829 .26615907C.42599488 .2181549 .40699769 .14117432 .3959961 .10017395 .3909912 .07817078 .3600006 .05418396 .35699464 .05218506 .34599305 .045181276 .32199098 .028182984 .2889862 .028182984 .22999573 .028182984 .22898865 .07817078 .22898865 .10116577 .22898865 .16217041 .2599945 .24015808 .28799439 .31214906 .2979889 .33815003 .30099488 .3451538 .30099488 .3621521 .30099488 .4201355 .24299622 .45214845 .18798828 .45214845 .08198547 .45214845 .03199768 .31614686 .03199768 .29615785 .03199768 .28215028 .04699707 .28215028 .055999757 .28215028 .067993167 .28215028 .07499695 .28215028 .07899475 .29515077 .11199951 .4061432 .16699219 .4161377 .18199158 .4161377 .18899536 .4161377 .19898987 .4161377 .19898987 .3951416 .19898987 .3721466 .18798828 .34614564 .18199158 .33015443 .14299011 .23016358 .12199402 .173172 .12199402 .122177127 .12199402 .008178711 .22200012-.0078125 .2809906-.0078125 .30599977-.0078125 .33999635-.0038146973 .3769989 .02218628 .34899903-.10101318 .27398683-.16615296 .20498657-.16615296 .19198609-.16615296 .1639862-.16415406 .14399719-.15213013 .17599488-.13909912 .19198609-.11204529 .19198609-.0849762 .19198609-.04890442 .16299439-.038879396 .14299011-.038879396 .10598755-.038879396 .070999149-.07095337 .070999149-.11505127 .070999149-.16615296 .12399292-.20214844 .20498657-.20214844 .31999208-.20214844 .45199586-.12506104 .48298646-.0008239746L.57699587 .3771515Z"/>
<path id="font_7_12" d="M.7879944 .33203126C.7999878 .33203126 .82899478 .33203126 .82899478 .36203004 .82899478 .39302064 .7979889 .39302064 .7829895 .39302064H.10998535C.09498596 .39302064 .06399536 .39302064 .06399536 .36203004 .06399536 .33203126 .09298706 .33203126 .10499573 .33203126H.7879944M.7829895 .107940677C.7979889 .107940677 .82899478 .107940677 .82899478 .13893128 .82899478 .16894531 .7999878 .16894531 .7879944 .16894531H.10499573C.09298706 .16894531 .06399536 .16894531 .06399536 .13893128 .06399536 .107940677 .09498596 .107940677 .10998535 .107940677H.7829895Z"/>
<path id="font_8_1" d="M.39898683 .62120059C.39898683 .65625 .3919983 .65625 .34999085 .65625 .28799439 .6061554 .20599365 .59213259 .12599182 .59213259H.101989749V.5361328H.12599182C.1659851 .5361328 .22698975 .54312136 .2689972 .5571289V.055999757H.11099243V0C.1599884 .0039978029 .27999879 .0039978029 .33399964 .0039978029 .36999513 .0039978029 .4059906 .0029907227 .44198609 .0029907227 .47200013 .0029907227 .5239868 .0019989014 .5529938 0V.055999757H.39898683V.62120059Z"/>
<path id="font_8_2" d="M.5779877 .2280426H.5149994C.5130005 .21603394 .5039978 .14500427 .48599244 .14099121 .46499635 .13699341 .40499879 .13699341 .38198854 .13699341H.24499512C.2999878 .17800904 .35598756 .21903992 .4139862 .25605775 .49499513 .3080902 .5779877 .3611145 .5779877 .46116639 .5779877 .5812378 .46499635 .65625 .30599977 .65625 .16999817 .65625 .067993167 .60324099 .067993167 .50819399 .067993167 .4501648 .114990238 .42915345 .14498902 .42915345 .18099976 .42915345 .22299195 .4541626 .22299195 .5071869 .22299195 .55522158 .18598938 .57522585 .18299866 .5762329 .21899414 .59924319 .2649994 .600235 .2769928 .600235 .3619995 .600235 .42900086 .5462189 .42900086 .4601593 .42900086 .38311769 .3769989 .3190918 .31900025 .2680664L.08099365 .056991579C.068984989 .04499817 .067993167 .04399109 .067993167 .023986817V0H.5439911L.5779877 .2280426Z"/>
<path id="font_7_17" d="M.21099854 .29412843C.17399597 .30111695 .10899353 .31211854 .10899353 .3591156 .10899353 .42111207 .20199585 .42111207 .22099304 .42111207 .29599 .42111207 .33399964 .39212037 .33898927 .33711244 .33999635 .32211305 .34098817 .3171234 .3619995 .3171234 .38598634 .3171234 .38598634 .32211305 .38598634 .3451233V.42510987C.38598634 .4441223 .38598634 .453125 .36799623 .453125 .3639984 .453125 .3619995 .453125 .32299806 .43411256 .29699708 .44711305 .2619934 .453125 .22200012 .453125 .19198609 .453125 .037994386 .453125 .037994386 .32211305 .037994386 .28211976 .057998659 .25512696 .07798767 .23812866 .117996219 .203125 .1559906 .1971283 .23298645 .18312073 .2689972 .17712403 .34399415 .16412354 .34399415 .10513306 .34399415 .030136109 .2519989 .030136109 .22999573 .030136109 .12399292 .030136109 .09799194 .103134158 .085998538 .14613343 .08099365 .16012573 .07598877 .16012573 .06199646 .16012573 .037994386 .16012573 .037994386 .15412903 .037994386 .13113404V.022140503C.037994386 .0031280518 .037994386-.005859375 .055999757-.005859375 .06298828-.005859375 .06498718-.005859375 .085998538 .009140015 .08699036 .009140015 .10899353 .024139405 .11199951 .026138306 .1579895-.005859375 .20999146-.005859375 .22999573-.005859375 .26098634-.005859375 .4149933-.005859375 .4149933 .14012146 .4149933 .18312073 .394989 .21812439 .3600006 .24612427 .32099916 .27511598 .2889862 .28112794 .21099854 .29412843Z"/>
<path id="font_7_14" d="M.22399903 .4501953 .049987794 .44218446V.39518739C.10899353 .39518739 .115997318 .39518739 .115997318 .35617066V.04699707H.04699707V0C.07798767 .0009918213 .1269989 .0029907227 .16899109 .0029907227 .19898987 .0029907227 .25 .0009918213 .28599549 0V.04699707H.22399903V.4501953M.23399353 .6173096C.23399353 .66130068 .19799805 .6953125 .1559906 .6953125 .11299133 .6953125 .07798767 .66030886 .07798767 .6173096 .07798767 .5743103 .11299133 .53930667 .1559906 .53930667 .19799805 .53930667 .23399353 .5733032 .23399353 .6173096Z"/>
<path id="font_7_15" d="M.11399841 .3561554V.04699707H.04499817V0C.07299805 .0009918213 .1329956 .0029907227 .17098999 .0029907227 .20999146 .0029907227 .2689972 .0009918213 .29699708 0V.04699707H.22799683V.25610353C.22799683 .36515809 .31399537 .41418458 .3769989 .41418458 .41099549 .41418458 .43199159 .39317323 .43199159 .31713868V.04699707H.36299134V0C.3909912 .0009918213 .45098878 .0029907227 .4889984 .0029907227 .5279999 .0029907227 .58699038 .0009918213 .61499026 0V.04699707H.54599V.30613709C.54599 .41119386 .49198915 .4501953 .3919983 .4501953 .29599 .4501953 .24299622 .39317323 .21699524 .34214784V.4501953L.04499817 .44218446V.39518739C.10699463 .39518739 .11399841 .39518739 .11399841 .3561554Z"/>
<path id="font_6_7" d="M.5359955 .4011383C.5 .3911438 .48199464 .35714723 .48199464 .33215333 .48199464 .31015016 .49899293 .28614808 .5319977 .28614808 .5669861 .28614808 .60398867 .31515504 .60398867 .364151 .60398867 .41714479 .5509949 .45214845 .48999024 .45214845 .43299867 .45214845 .3959961 .4091339 .3829956 .3911438 .35798646 .433136 .3019867 .45214845 .24499512 .45214845 .11898804 .45214845 .050994874 .32914735 .050994874 .29615785 .050994874 .28215028 .06599426 .28215028 .07499695 .28215028 .08699036 .28215028 .09399414 .28215028 .09799194 .29515077 .1269989 .38613893 .19898987 .4161377 .23999024 .4161377 .27799989 .4161377 .29599 .39814759 .29599 .3661499 .29599 .3471527 .28199769 .29216004 .272995 .2561493L.23899842 .11917114C.22399903 .058181764 .18798828 .028182984 .1539917 .028182984 .14898682 .028182984 .12599182 .028182984 .10598755 .043182374 .14199829 .05317688 .1599884 .08717346 .1599884 .11216736 .1599884 .13417053 .14299011 .1581726 .10998535 .1581726 .07499695 .1581726 .037994386 .12916565 .037994386 .08016968 .037994386 .027175904 .09098816-.0078125 .1519928-.0078125 .20899964-.0078125 .24598694 .035186769 .25898744 .05317688 .28399659 .011184692 .33999635-.0078125 .39698792-.0078125 .522995-.0078125 .59098818 .11517334 .59098818 .14816284 .59098818 .16217041 .57598879 .16217041 .5669861 .16217041 .5549927 .16217041 .5479889 .16217041 .5439911 .14916992 .5149994 .058181764 .44299317 .028182984 .4019928 .028182984 .3639984 .028182984 .34599305 .046173097 .34599305 .07817078 .34599305 .09916687 .35899354 .15216065 .36799623 .18916321 .375 .21516419 .397995 .30915834 .40299989 .32514955 .41799928 .3851471 .45298768 .4161377 .48799134 .4161377 .49299623 .4161377 .5159912 .4161377 .5359955 .4011383Z"/>
<path id="font_3_9" d="M.6159973 .37213136C.6199951 .38612367 .6199951 .38812257 .6199951 .39611817 .6199951 .42411805 .598999 .4441223 .56900027 .4441223 .5499878 .4441223 .5169983 .43211366 .5049896 .40011598 .5019989 .39411927 .49299623 .35812379 .48799134 .3371277L.42900086 .10218811C.42799378 .10118103 .38398744 .033203126 .31498719 .033203126 .25099183 .033203126 .25099183 .08518982 .25099183 .10618591 .25099183 .16316223 .2789917 .2351532 .31199647 .3181305 .31799317 .33213807 .32299806 .34413148 .32299806 .36112977 .32299806 .42211915 .2599945 .453125 .20098877 .453125 .08999634 .453125 .033996583 .3221283 .033996583 .29614259 .033996583 .2791443 .04899597 .2791443 .06199646 .2791443 .08099365 .2791443 .084991458 .2791443 .09098816 .2971344 .11898804 .38911439 .17098999 .41111756 .19499207 .41111756 .20098877 .41111756 .21199036 .41111756 .21199036 .38812257 .21199036 .36712647 .20298767 .34413148 .19599915 .32814027 .13699341 .1851654 .13699341 .15116883 .13699341 .12617493 .13699341 .011199951 .23599243-.008804321 .30799867-.008804321 .35499574-.008804321 .3899994 .00819397 .4079895 .020202637 .38598634-.08720398 .30699159-.16113281 .22999573-.16113281 .22299195-.16113281 .20098877-.16113281 .17599488-.15219116 .20599365-.13421631 .21598816-.10421753 .21598816-.08421326 .21598816-.052215578 .19198609-.033203126 .1619873-.033203126 .115997318-.033203126 .08299255-.07220459 .08299255-.114212039 .08299255-.1721344 .14498902-.203125 .22999573-.203125 .34799195-.203125 .48999024-.13121033 .5219879-.0018005371L.6159973 .37213136Z"/>
<path id="font_4_13" d="M.83999636 .33691407C.85198977 .33691407 .8839874 .33691407 .8839874 .37091065 .8839874 .40490724 .84799197 .40490724 .83399966 .40490724H.117996219C.10398865 .40490724 .067993167 .40490724 .067993167 .37091065 .067993167 .33691407 .099990848 .33691407 .11199951 .33691407H.83999636M.83399966 .095077518C.84799197 .095077518 .8839874 .095077518 .8839874 .1290741 .8839874 .16308594 .85198977 .16308594 .83999636 .16308594H.11199951C.099990848 .16308594 .067993167 .16308594 .067993167 .1290741 .067993167 .095077518 .10398865 .095077518 .117996219 .095077518H.83399966Z"/>
<path id="font_9_75" d="M.98999026 0V.051986696H.923996V.3034973C.923996 .42315675 .8509979 .45117188 .7589874 .45117188 .6539917 .45117188 .598999 .39059449 .5779877 .35958863 .55400088 .4371643 .4869995 .45117188 .4189911 .45117188 .2979889 .45117188 .24398804 .3715973 .23199463 .34959413H.23098755V.45117188L.055999757 .44335938V.39135743C.114990238 .39135743 .12199402 .39135743 .12199402 .35231019V.051986696H.055999757V0C.10998535 .0029907227 .14498902 .0029907227 .18299866 .0029907227 .22200012 .0029907227 .2559967 .0029907227 .30999757 0V.051986696H.24398804V.25320436C.24398804 .36413575 .33999635 .40916444 .4039917 .40916444 .43899537 .40916444 .46199037 .39215089 .46199037 .31411744V.051986696H.3959961V0C.44999696 .0029907227 .4850006 .0029907227 .522995 .0029907227 .56199648 .0029907227 .59599307 .0029907227 .6499939 0V.051986696H.58399966V.25308229C.58399966 .36413575 .6799927 .40916444 .74398806 .40916444 .7789917 .40916444 .8019867 .39215089 .8019867 .31411744V.051986696H.73599246V0C.7899933 .0029907227 .82499697 .0029907227 .86299136 .0029907227 .9019928 .0029907227 .9359894 .0029907227 .98999026 0Z"/>
<path id="font_9_66" d="M.2999878 0V.051986696H.24099732V.45117188L.06199646 .44335938V.39135743C.117996219 .39135743 .125 .39135743 .125 .35331727V.051986696H.05899048V0C.116989139 .0029907227 .12799073 .0029907227 .18099976 .0029907227 .22200012 .0029907227 .25099183 .0029907227 .2999878 0M.25099183 .6053772C.25099183 .6503906 .21299744 .685379 .17098999 .685379 .12599182 .685379 .08999634 .64938357 .08999634 .6053772 .08999634 .560379 .12799073 .5253906 .16999817 .5253906 .21499634 .5253906 .25099183 .5613861 .25099183 .6053772Z"/>
<path id="font_9_47" d="M.6339874 0V.051986696C.57499697 .051986696 .56799319 .051986696 .56799319 .09101868V.69433596L.38598634 .6855469V.6335449C.44499208 .6335449 .45199586 .6335449 .45199586 .5946808V.40815736C.397995 .4451599 .34599305 .45117188 .30899049 .45117188 .13999939 .45117188 .040985109 .35116578 .040985109 .22215271 .040985109 .091156009 .13798523-.0068359377 .29699708-.0068359377 .36999513-.007003784 .41999818 .021987915 .44599916 .041992189V-.0068359377L.6339874 0M.44599916 .11099243C.39898683 .045150758 .33999635 .03515625 .30599977 .03515625 .17599488 .03515625 .17599488 .15916443 .17599488 .21916199 .17599488 .28216554 .17599488 .40916444 .31900025 .40916444 .36499024 .40916444 .4119873 .39016725 .44599916 .34716798V.11099243Z"/>
<path id="font_9_72" d="M.30699159 0V.051986696H.24099732V.69433596L.05899048 .6855469V.6335449C.117996219 .6335449 .125 .6335449 .125 .594574V.051986696H.05899048V0C.116989139 .0029907227 .1269989 .0029907227 .18299866 .0029907227 .23899842 .0029907227 .24899292 .0029907227 .30699159 0Z"/>
<path id="font_9_77" d="M.6499939 0V.051986696H.58399966V.3034973C.58399966 .4251709 .5079956 .45117188 .4189911 .45117188 .2979889 .45117188 .24398804 .3715973 .23199463 .34959413H.23098755V.45117188L.055999757 .44335938V.39135743C.114990238 .39135743 .12199402 .39135743 .12199402 .35231019V.051986696H.055999757V0C.10998535 .0029907227 .14498902 .0029907227 .18299866 .0029907227 .22200012 .0029907227 .2559967 .0029907227 .30999757 0V.051986696H.24398804V.25320436C.24398804 .36413575 .33999635 .40916444 .4039917 .40916444 .43899537 .40916444 .46199037 .39215089 .46199037 .31411744V.051986696H.3959961V0C.44999696 .0029907227 .4850006 .0029907227 .522995 .0029907227 .56199648 .0029907227 .59599307 .0029907227 .6499939 0Z"/>
<path id="font_9_50" d="M.526001 .11508179C.526001 .13604737 .5049896 .13604737 .49798585 .13604737 .48098756 .13604737 .47698976 .13404846 .46899415 .11706543 .43699647 .04714966 .35198976 .040161134 .32398988 .040161134 .17599488 .040161134 .17098999 .15603638 .16899109 .2119751H.49198915C.5130005 .2119751 .526001 .2119751 .526001 .2409668 .526001 .28399659 .5159912 .35003663 .46598817 .3990631 .4099884 .45507813 .31999208 .45507813 .29699708 .45507813 .11898804 .45507813 .033996583 .34402467 .033996583 .2259674 .033996583 .09609985 .13398743-.0068359377 .31199647-.0068359377 .48799134-.0068359377 .526001 .10108948 .526001 .11508179M.42799378 .25097657H.16899109C.16999817 .29100038 .17399597 .41307069 .2979889 .41307069 .42199708 .41307069 .4269867 .2899933 .42799378 .25097657Z"/>
<path id="font_10_28" d="M.71598818 .034179689C.71598818 .06712341 .69898989 .06712341 .6779938 .06712341H.6719971C.6589966 .06712341 .621994 .06712341 .6009979 .07710266V.28977967C.6009979 .36997987 .5379944 .4560547 .32499696 .4560547 .2539978 .4560547 .10598755 .4560547 .10598755 .34791566 .10598755 .2998047 .14099121 .27172853 .18099976 .27172853 .22499085 .27172853 .2559967 .30381776 .2559967 .34692384 .2559967 .36395265 .25099183 .38000489 .24198914 .3920288 .2789917 .40003968 .30899049 .40003968 .32598878 .40003968 .41600038 .40003968 .46798707 .3659668 .46798707 .28677369V.2677307C.45498658 .26672364 .35198976 .26872254 .25299073 .25071717 .13398743 .22871399 .057998659 .19378662 .057998659 .11997986 .057998659-.0078125 .25099183-.0078125 .2899933-.0078125 .3880005-.0078125 .46099855 .015182495 .49198915 .060150148 .5 .00018310547 .56999209 .00018310547 .644989 .00018310547 .70899966 .00018310547 .71598818 .00018310547 .71598818 .034179689M.46798707 .13294983C.46798707 .10902405 .46798707 .08308411 .4169922 .06413269 .37599183 .048187257 .32299806 .048187257 .31698609 .048187257 .24598694 .048187257 .19099427 .07510376 .19099427 .12098694 .19099427 .20974732 .41999818 .21772766 .46798707 .21972656V.13294983Z"/>
<path id="font_10_75" d="M1.1799927 0V.066986087H1.1080017V.29508973C1.1080017 .44114686 .98999026 .45214845 .91400149 .45214845 .84999087 .45214845 .7630005 .43914796 .69699099 .3571167 .6689911 .42913819 .6100006 .45214845 .5109863 .45214845 .37199403 .45214845 .30799867 .38012696 .2849884 .3451233V.45214845L.09700012 .44433595V.3773346C.16099549 .3773346 .16899109 .3773346 .16899109 .33828736V.066986087H.09700012V0L.23599243 .0039978029C.272995 .0039978029 .32998658 .0029907227 .37399293 0V.066986087H.3019867V.2421875C.3019867 .36412049 .4269867 .39613343 .4869995 .39613343 .5509949 .39613343 .57199099 .37213136 .57199099 .29708863V.066986087H.5V0L.6389923 .0039978029C.6759949 .0039978029 .73298647 .0029907227 .7769928 0V.066986087H.7049866V.24206543C.7049866 .36412049 .8299866 .39613343 .8899994 .39613343 .95399478 .39613343 .97499087 .37213136 .97499087 .29708863V.066986087H.9029999V0L1.0419922 .0039978029C1.0789948 .0039978029 1.1360016 .0029907227 1.1799927 0Z"/>
<path id="font_10_84" d="M.7739868 .22314453C.7739868 .33114625 .69299319 .45214845 .48399354 .45214845 .44499208 .45214845 .36099244 .44914247 .2809906 .4081421V.45214845L.083999637 .44433595V.3773346H.100997928C.1559906 .3773346 .1559906 .37132264 .1559906 .3433075V-.12695313H.083999637V-.19395447L.22200012-.18995667 .36099244-.19395447V-.12695313H.2889862V.03718567C.31698609 .020187378 .375-.0078125 .45999146-.0078125 .6689911-.0078125 .7739868 .10119629 .7739868 .22325135V.22314453M.6239929 .22225952C.6239929 .112213138 .5499878 .048187257 .44499208 .048187257 .397995 .048187257 .33799745 .063186649 .2889862 .1282196V.32730104C.33999635 .3801422 .41799928 .39013673 .45799256 .39013673 .56799319 .39013673 .6239929 .31814576 .6239929 .22213745V.22225952Z"/>
<path id="font_10_72" d="M.36999513 0V.066986087H.2979889V.69433596L.100997928 .6855469V.61854556C.16499329 .61854556 .17298889 .61854556 .17298889 .5795746V.066986087H.100997928V0C.1459961 .0029907227 .18998719 .0039978029 .23498535 .0039978029 .23899842 .0039978029 .31698609 .0039978029 .36999513 0Z"/>
<path id="font_10_66" d="M.36299134 0V.066986087H.2979889V.45214845L.10398865 .44433595V.3773346C.1659851 .3773346 .17298889 .3773346 .17298889 .33828736V.066986087H.100997928V0C.14498902 .0029907227 .18998719 .0039978029 .23399353 .0039978029 .2769928 .0039978029 .31999208 .0029907227 .36299134 0M.3039856 .60250857C.3039856 .6505127 .2639923 .68652346 .21798706 .68652346 .16999817 .68652346 .13198853 .6485138 .13198853 .6035156 .13198853 .5555115 .17199707 .519516 .21798706 .519516 .2659912 .519516 .3039856 .5575104 .3039856 .60250857Z"/>
<path id="font_10_105" d="M.49899293 .1191864V.1671753H.41600038V.123184207C.41600038 .093185428 .4059906 .05418396 .34799195 .05418396 .2849884 .054092409 .2849884 .09408569 .2849884 .12109375V.3773346H.47499085V.44433595H.2849884V.6357422H.20199585C.19999695 .53352358 .1459961 .43632508 .04399109 .43333436V.3773346H.1519928V.11820984C.1519928 .0051727297 .26098634-.0078125 .32598878-.0078125 .39898683-.0078125 .49899293 .018173218 .49899293 .11921692V.1191864Z"/>
<path id="font_10_109" d="M.776001 .00018310547V.06718445C.71199038 .06718445 .70399478 .06718445 .70399478 .106170658V.45214845L.49899293 .44433595V.3773346C.5629883 .3773346 .57099917 .3773346 .57099917 .3383026V.15823365C.57099917 .06518555 .47399903 .048187257 .4059906 .048187257 .3019867 .048187257 .3019867 .06819153 .3019867 .112213138V.45214845L.09700012 .44433595V.3773346C.16099549 .3773346 .16899109 .3773346 .16899109 .3383026V.11820984C.16899109 .0021820069 .2899933-.0078125 .3849945-.0078125 .4189911-.0078125 .5139923-.0078125 .57899478 .05718994V-.0078125L.776001 .00018310547Z"/>
<path id="font_10_47" d="M.7549896 .00018310547V.06718445C.69099429 .06718445 .68299868 .06718445 .68299868 .10618591V.69433596L.48599244 .6855469V.61854556C.5499878 .61854556 .55799868 .61854556 .55799868 .5796814V.41114808C.5179901 .43214417 .45700074 .45214845 .37799073 .45214845 .1639862 .45214845 .06498718 .34014894 .06498718 .22116089 .06498718 .11216736 .1519928-.0078125 .3639984-.0078125 .44099427-.0078125 .5039978 .013183594 .5499878 .04118347V-.0078125L.7549896 .00018310547M.5499878 .13198853C.5 .06817627 .43499757 .048187257 .37799073 .048187257 .21499634 .048187257 .21499634 .16716004 .21499634 .22015381 .21499634 .27415467 .21499634 .39613343 .3929901 .39613343 .43699647 .39613343 .4869995 .3851471 .5289917 .3511505 .5499878 .33415223 .5499878 .33314515 .5499878 .31315614V.13198853Z"/>
<path id="font_10_50" d="M.6349945 .11022949C.6349945 .1352539 .61099246 .1352539 .5970001 .1352539H.58999636C.57099917 .1352539 .5629883 .1352539 .55400088 .12124634 .5439911 .10221863 .5159912 .05418396 .4099884 .05418396 .2829895 .05418396 .21699524 .10322571 .20799256 .19726563H.5970001C.61698916 .19726563 .6349945 .19726563 .6349945 .22921753 .6349945 .2871704 .61299136 .35508729 .57099917 .39305116 .5249939 .43304444 .46499635 .4560547 .3659973 .4560547 .14199829 .4560547 .056991579 .33311463 .056991579 .2262268 .056991579 .12023926 .14199829-.0078125 .3869934-.0078125 .4119873-.0078125 .48098756-.0078125 .54100039 .016174317 .60899356 .04335022 .6349945 .096343997 .6349945 .11035156V.11022949M.5339966 .24804688H.20799256C.20899964 .28404237 .21099854 .40003968 .36698915 .40003968 .5029907 .40003968 .5289917 .31504823 .5339966 .24804688Z"/>
<path id="font_11_2" d="M.45899964 .6231842C.45899964 .654129 .45298768 .6611328 .42099 .6611328H.3999939C.31498719 .5972595 .18598938 .5972595 .16299439 .5972595H.13598633V.53027346H.16299439C.1749878 .53027346 .2519989 .53027346 .32499696 .55526736V.066986087H.14399719V0C.19299317 .0039978029 .33499146 .0039978029 .3919983 .0039978029 .44898988 .0039978029 .59098818 .0039978029 .6399994 0V.066986087H.45899964V.6231842Z"/>
<path id="font_11_3" d="M.6689911 .2110138H.58599856C.57899478 .17199707 .5649872 .14698792 .55599978 .14498902 .5319977 .14199829 .4889984 .14199829 .45498658 .14199829H.30599977C.36999513 .18299866 .43099977 .22102356 .47399903 .24401856 .58599856 .30604554 .6689911 .35205079 .6689911 .4560852 .6689911 .5801239 .5549927 .6611328 .35699464 .6611328 .30999757 .6611328 .08898926 .66012576 .08898926 .5131073 .08898926 .45307923 .13798523 .42907716 .17098999 .42907716 .21099854 .42907716 .2539978 .4570923 .2539978 .5121002 .2539978 .54811099 .23298645 .5691223 .22799683 .5741272 .2639923 .59213259 .30099488 .59413149 .32398988 .59413149 .42199708 .59413149 .5099945 .54711917 .5099945 .45509339 .5099945 .37705995 .44898988 .31803895 .3849945 .2720337L.10598755 .068984989C.08898926 .056991579 .08898926 .052993776 .08898926 .0309906V0H.6299896L.6689911 .2110138Z"/>
<path id="font_12_84" d="M.5209961 .21636963C.5209961 .34336854 .42399598 .4423828 .31199647 .4423828 .23399353 .4423828 .19198609 .39837647 .17199707 .3763733V.4423828L.027999878 .43066407V.3996582C.09899902 .3996582 .10598755 .3936615 .10598755 .34973146V-.117996219C.10598755-.16308594 .09498596-.16308594 .027999878-.16308594V-.1940918L.13999939-.19110108 .25299073-.1940918V-.16308594C.18598938-.16308594 .1749878-.16308594 .1749878-.117996219V.050186159 .059173585C.17999268 .04319763 .22200012-.0107421879 .2979889-.0107421879 .4169922-.0107421879 .5209961 .087127689 .5209961 .21594239V.21636963M.43798829 .21594239C.43798829 .09512329 .36799623 .011245728 .2939911 .011245728 .2539978 .011245728 .21598816 .031219483 .18899536 .07215881 .1749878 .09312439 .1749878 .09411621 .1749878 .114089969V.33674623C.20399475 .38838197 .25299073 .41737367 .3039856 .41737367 .3769989 .41737367 .43798829 .32937623 .43798829 .21636963V.21594239Z"/>
<path id="font_12_50" d="M.4149933 .11933899C.4149933 .12934876 .40699769 .13134766 .4019928 .13134766 .3929901 .13134766 .3909912 .12535095 .3889923 .11734009 .35398866 .014251709 .2639923 .014251709 .2539978 .014251709 .20399475 .014251709 .1639862 .044281007 .14099121 .08131409 .11099243 .12934876 .11099243 .19540406 .11099243 .23144531H.3899994C.4119873 .23144531 .4149933 .23144531 .4149933 .2524414 .4149933 .35131837 .36099244 .4482422 .23599243 .4482422 .11999512 .4482422 .027999878 .34532167 .027999878 .22042847 .027999878 .08631897 .1329956-.0107421879 .24798584-.0107421879 .36999513-.0107421879 .4149933 .10032654 .4149933 .11933899M.34899903 .2524414H.11199951C.117996219 .40126039 .20199585 .426239 .23599243 .426239 .33898927 .426239 .34899903 .2913971 .34899903 .2524414Z"/>
<path id="font_12_96" d="M.3639984 .38137818C.3639984 .41337586 .33299256 .4423828 .2899933 .4423828 .21699524 .4423828 .18099976 .37538148 .16699219 .3323822V.4423828L.027999878 .43066407V.3996582C.09799194 .3996582 .10598755 .39266969 .10598755 .34370423V.07595825C.10598755 .0309906 .09498596 .0309906 .027999878 .0309906V0L.14199829 .0029907227C.18199158 .0029907227 .22898865 .0029907227 .2689972 0V.0309906H.24798584C.17399597 .0309906 .17199707 .04197693 .17199707 .07795715V.23181153C.17199707 .33137513 .21398926 .42037965 .2899933 .42037965 .29699708 .42037965 .29899598 .42037965 .30099488 .41937257 .2979889 .41838075 .27799989 .40637208 .27799989 .3803711 .27799989 .35237123 .29899598 .33737184 .32099916 .33737184 .33898927 .33737184 .3639984 .3493805 .3639984 .38137818Z"/>
<path id="font_12_66" d="M.24699402 0V.0309906C.18099976 .0309906 .1769867 .035995485 .1769867 .075042728V.4423828L.036987306 .43066407V.3996582C.101989749 .3996582 .11099243 .3936615 .11099243 .3447113V.07595825C.11099243 .0309906 .099990848 .0309906 .032989503 .0309906V0L.14299011 .0029907227C.17799378 .0029907227 .21299744 .0009918213 .24699402 0M.19198609 .603775C.19198609 .6307678 .16899109 .6567688 .13899231 .6567688 .10499573 .6567688 .084991458 .6287689 .084991458 .603775 .084991458 .57676699 .10798645 .55078127 .13798523 .55078127 .17199707 .55078127 .19198609 .5787811 .19198609 .603775Z"/>
<path id="font_12_81" d="M.47099305 .21424866C.47099305 .34223939 .37098695 .4482422 .25 .4482422 .125 .4482422 .027999878 .3392334 .027999878 .21424866 .027999878 .085250858 .13198853-.0107421879 .24899292-.0107421879 .36999513-.0107421879 .47099305 .087249759 .47099305 .21424866M.3880005 .22224427C.3880005 .18624878 .3880005 .13224793 .3659973 .08824158 .34399415 .04324341 .2999878 .014251709 .25 .014251709 .20698548 .014251709 .16299439 .035247804 .13598633 .08125305 .11099243 .12524414 .11099243 .18624878 .11099243 .22224427 .11099243 .26124574 .11099243 .31523133 .1349945 .35923768 .1619873 .40522767 .20899964 .426239 .24899292 .426239 .29299928 .426239 .33599855 .40423585 .3619995 .36123658 .3880005 .3182373 .3880005 .26023866 .3880005 .22224427Z"/>
<path id="font_12_47" d="M.5269928 0V.0309906C.45700074 .0309906 .44898988 .038009645 .44898988 .0871582V.69433596L.30499269 .6826172V.6516113C.375 .6516113 .3829956 .64463809 .3829956 .59580996V.38035584C.35398866 .41636659 .31098939 .4423828 .25698854 .4423828 .13899231 .4423828 .033996583 .3443451 .033996583 .21531677 .033996583 .088272098 .13198853-.0107421879 .24598694-.0107421879 .30999757-.0107421879 .35499574 .023254395 .37998963 .055267335V-.0107421879L.5269928 0M.37998963 .117996219C.37998963 .099990848 .37998963 .09799194 .36898805 .08099365 .33898927 .033218385 .2939911 .011245728 .25099183 .011245728 .20599365 .011245728 .16999817 .037216188 .1459961 .075164798 .11999512 .1161499 .116989139 .17320252 .116989139 .21421814 .116989139 .25125123 .11898804 .31129457 .147995 .35632325 .16899109 .38734437 .20698548 .42037965 .26098634 .42037965 .29599 .42037965 .33799745 .405365 .36898805 .3603363 .37998963 .34332276 .37998963 .34132386 .37998963 .32330323V.117996219Z"/>
<path id="font_7_6" d="M.5169983 .22209168H.46998597C.46699525 .20207215 .45799256 .13800049 .44400025 .1309967 .43299867 .125 .35798646 .125 .34199525 .125H.19499207C.24198914 .16403198 .2939911 .20707703 .33898927 .2401123 .45298768 .3242035 .5169983 .37124635 .5169983 .4663086 .5169983 .5812988 .41299439 .65527346 .27198792 .65527346 .15098572 .65527346 .056991579 .593277 .056991579 .50331118 .056991579 .44430543 .10499573 .42930604 .1289978 .42930604 .16099549 .42930604 .20098877 .4513092 .20098877 .50131228 .20098877 .55329897 .15899658 .5693054 .14399719 .5733032 .17298889 .5972748 .21099854 .6082611 .24699402 .6082611 .33299256 .6082611 .3789978 .54029849 .3789978 .4653015 .3789978 .39627076 .34098817 .3282013 .2709961 .25712586L.069992069 .051986696C.056991579 .039993287 .056991579 .037994386 .056991579 .017990113V0H.48599244L.5169983 .22209168Z"/>
<path id="font_6_1" d="M.31199647 .34832765H.42399598C.4019928 .2552948 .3909912 .1942749 .3909912 .1352539 .3909912 .067230228 .40899659-.0087890629 .45700074-.0087890629 .48999024-.0087890629 .526001 .02420044 .526001 .05621338 .526001 .068222049 .522995 .07423401 .5139923 .0892334 .46798707 .17025757 .46798707 .24728394 .46798707 .27430726 .46798707 .29830934 .46798707 .3083191 .47399903 .34832765H.59799197C.61698916 .34832765 .6329956 .34832765 .647995 .36332704 .6549988 .3703308 .66799929 .38232423 .66799929 .40533448 .66799929 .44433595 .6329956 .44433595 .61499026 .44433595H.22200012C.20098877 .44433595 .1579895 .44433595 .10499573 .3963318 .069992069 .3643341 .0309906 .31330873 .0309906 .3033142 .0309906 .28930665 .042999269 .28930665 .053985597 .28930665 .068984989 .28930665 .069992069 .29031373 .07899475 .3013153 .116989139 .34832765 .18299866 .34832765 .20199585 .34832765H.2619934C.23699951 .26930238 .19699097 .18727112 .14299011 .08622742 .1269989 .05621338 .12399292 .051223756 .12399292 .037216188 .12399292 .01020813 .1459961-.007797241 .17199707-.007797241 .19299317-.007797241 .20799256 .0032043458 .21499634 .00920105 .22999573 .02420044 .23098755 .028213501 .23599243 .049209596L.31199647 .34832765Z"/>
</defs>
<path transform="matrix(1,0,0,-1,79.819,82.213)" stroke-width=".79701" stroke-linecap="butt" stroke-miterlimit="10" stroke-linejoin="miter" fill="none" stroke="#000000" d="M-46.92859 0H292.9777"/>
<path transform="matrix(-1,-0,0,1,32.89041,82.213)" d="M4.66248 0C3.28098 .25902 1.0361 1.0361-.51805 1.94269V-1.94269C1.0361-1.0361 3.28098-.25902 4.66248 0"/>
<path transform="matrix(1,0,0,-1,372.7967,82.213)" d="M4.66248 0C3.28098 .25902 1.0361 1.0361-.51805 1.94269V-1.94269C1.0361-1.0361 3.28098-.25902 4.66248 0"/>
<use data-text="x" xlink:href="#font_1_3" transform="matrix(8.9664,0,0,-8.9664,381.178,84.206)"/>
<path transform="matrix(1,0,0,-1,79.819,82.213)" stroke-width=".79701" stroke-linecap="butt" stroke-miterlimit="10" stroke-linejoin="miter" fill="none" stroke="#000000" d="M0-59.11783V59.11783"/>
<path transform="matrix(0,1,1,0,79.819,141.33083)" d="M4.66248 0C3.28098 .25902 1.0361 1.0361-.51805 1.94269V-1.94269C1.0361-1.0361 3.28098-.25902 4.66248 0"/>
<path transform="matrix(0,-1,-1,-0,79.819,23.09517)" d="M4.66248 0C3.28098 .25902 1.0361 1.0361-.51805 1.94269V-1.94269C1.0361-1.0361 3.28098-.25902 4.66248 0"/>
<use data-text="y" xlink:href="#font_1_4" transform="matrix(8.9664,0,0,-8.9664,76.924,12.969998)"/>
<use data-text="0" xlink:href="#font_2_4" transform="matrix(8.9664,0,0,-8.9664,83.339,91.510997)"/>
<path transform="matrix(1,0,0,-1,79.819,82.213)" stroke-width=".79701" stroke-linecap="butt" stroke-miterlimit="10" stroke-linejoin="miter" fill="none" stroke="#000000" d="M62.33716 3.40166V-3.40166"/>
<use data-text="&#x03c0;" xlink:href="#font_3_1" transform="matrix(7.9701,0,0,-7.9701,139.09999,92.87599)"/>
<path transform="matrix(1,0,0,-1,130.08499,88.20899)" stroke-width=".3587" stroke-linecap="butt" stroke-miterlimit="10" stroke-linejoin="miter" fill="none" stroke="#000000" d="M9.015-8.224H15.128"/>
<use data-text="2" xlink:href="#font_4_6" transform="matrix(7.9701,0,0,-7.9701,139.715,104.395999)"/>
<use data-text="&#x03c0;" xlink:href="#font_3_1" transform="matrix(7.9701,0,0,-7.9701,201.437,89.274997)"/>
<use data-text="2" xlink:href="#font_4_6" transform="matrix(7.9701,0,0,-7.9701,323.671,90.868999)"/>
<use data-text="&#x03c0;" xlink:href="#font_3_1" transform="matrix(7.9701,0,0,-7.9701,328.55299,90.868999)"/>
<path transform="matrix(1,0,0,-1,79.819,82.213)" stroke-width=".79701" stroke-linecap="butt" stroke-miterlimit="10" stroke-linejoin="miter" fill="none" stroke="#000000" d="M2.381 21.26009H-2.381"/>
<use data-text="1" xlink:href="#font_4_5" transform="matrix(7.9701,0,0,-7.9701,64.807,57.760995)"/>
<path transform="matrix(1,0,0,-1,55.792,53.093996)" stroke-width=".3587" stroke-linecap="butt" stroke-miterlimit="10" stroke-linejoin="miter" fill="none" stroke="#000000" d="M9.015-8.224H13.896"/>
<use data-text="2" xlink:href="#font_4_6" transform="matrix(7.9701,0,0,-7.9701,64.807,69.28099)"/>
<path transform="matrix(1,0,0,-1,79.819,82.213)" stroke-width=".79701" stroke-linecap="butt" stroke-miterlimit="10" stroke-linejoin="miter" fill="none" stroke="#000000" d="M2.381 42.5202H-2.381"/>
<use data-text="1" xlink:href="#font_4_5" transform="matrix(7.9701,0,0,-7.9701,66.002,42.260995)"/>
<path transform="matrix(1,0,0,-1,79.819,82.213)" stroke-width=".79701" stroke-linecap="butt" stroke-miterlimit="10" stroke-linejoin="miter" fill="none" stroke="#000000" d="M2.381-21.26009H-2.381"/>
<use data-text="&#x2212;" xlink:href="#font_5_1" transform="matrix(7.9701,0,0,-7.9701,56.017999,105.831)"/>
<use data-text="1" xlink:href="#font_4_5" transform="matrix(7.9701,0,0,-7.9701,64.808,100.281)"/>
<path transform="matrix(1,0,0,-1,48.198999,95.614)" stroke-width=".3587" stroke-linecap="butt" stroke-miterlimit="10" stroke-linejoin="miter" fill="none" stroke="#000000" d="M16.609-8.224H21.49"/>
<use data-text="2" xlink:href="#font_4_6" transform="matrix(7.9701,0,0,-7.9701,64.808,111.800998)"/>
<path transform="matrix(1,0,0,-1,79.819,82.213)" stroke-width=".79701" stroke-linecap="butt" stroke-miterlimit="10" stroke-linejoin="miter" fill="none" stroke="#000000" d="M2.381-42.5202H-2.381"/>
<use data-text="&#x2212;" xlink:href="#font_5_1" transform="matrix(7.9701,0,0,-7.9701,58.409,126.726)"/>
<use data-text="1" xlink:href="#font_4_5" transform="matrix(7.9701,0,0,-7.9701,66.003,126.726)"/>
<path transform="matrix(1,0,0,-1,79.819,82.213)" stroke-width="1.59404" stroke-linecap="butt" stroke-miterlimit="10" stroke-linejoin="miter" fill="none" stroke="#800021" d="M-20.35599-10.45726-22.33571-11.34306-20.86-10.667-19.38425-9.97603-17.90852-9.27078-16.43282-8.5532-14.95706-7.82329-13.48135-7.08366-12.00563-6.33362-10.52989-5.57451-9.05417-4.80763-7.57845-4.0349-6.1027-3.25568-4.62698-2.47258-3.15128-1.6856-1.67552-.89662-.19981-.10703 1.27586 .68253 2.7516 1.47212 4.22731 2.25977 5.70305 3.04419 7.17877 3.82405 8.6545 4.59872 10.13022 5.36755 11.60596 6.12862 13.08168 6.88121 14.5574 7.62411 16.03314 8.35725 17.50885 9.07808 18.98457 9.78593 20.46033 10.4808 21.93604 11.1614 23.41176 11.82643 24.8875 12.47523 26.36322 13.10652 27.83893 13.71964 29.31468 14.31396 30.7904 14.88815 32.26611 15.44159 33.74187 15.97424 35.21758 16.4855 36.6933 16.97343 38.16904 17.4373 39.64476 17.87656 41.12051 18.29243 42.59622 18.68237 44.07195 19.04636 45.54767 19.38438 47.0234 19.6958 48.49911 19.98 49.97485 20.23627 51.45059 20.46399 52.9263 20.66383 54.40204 20.83511 55.87775 20.97786 57.35349 21.09206 58.82922 21.17639 60.30493 21.23154 61.78067 21.25684 63.2564 21.25294 64.73212 21.21986 66.20784 21.15756 67.68358 21.0661 69.1593 20.94608 70.63501 20.79684 72.11076 20.61841 73.58647 20.4108 75.0622 20.17528 76.53793 19.91187 78.01366 19.62186 79.48938 19.30394 80.96512 18.96007 82.44084 18.58961 83.91655 18.19318 85.3923 17.77145 86.86801 17.32506 88.34373 16.85532 89.81949 16.36159 91.2952 15.8458 92.77092 15.30858 94.24666 14.74931 95.72238 14.1699 97.1981 13.57109 98.67384 12.95341 100.14957 12.31758 101.62527 11.66487 103.10103 10.99596 104.57674 10.31277 106.05246 9.614 107.5282 8.90227 109.00392 8.17819 110.47964 7.44308 111.95537 6.6976 113.4311 5.94305 114.90681 5.17941 116.38255 4.40991 117.85829 3.6333 119.334 2.85214 120.80974 2.06708 122.28545 1.27878 123.76118 .48918 125.23691-.30037 126.71263-1.09062 128.18837-1.87892 129.6641-2.66527 131.13982-3.44708 132.61553-4.22502 134.09128-4.99644 135.567-5.76138 137.04271-6.51854 138.51847-7.26598 139.99417-8.00366 141.4699-8.73033 142.94564-9.44466 144.42136-10.14667 145.89708-10.83374 147.37282-11.50656 148.84854-12.16316 150.32425-12.80354 151.8-13.42511 153.27571-14.02849 154.75144-14.61241 156.22719-15.17624 157.7029-15.71928 159.17862-16.24092 160.65436-16.73985 162.13008-17.21542 163.6058-17.667 165.08155-18.09456 166.55727-18.49681 168.03298-18.87311 169.50872-19.22412 170.98444-19.54854 172.46016-19.84633 173.9359-20.11559 175.41162-20.35695 176.88735-20.57042 178.36307-20.75531 179.8388-20.91232 181.31452-21.04016 182.79026-21.13875 184.26598-21.20818 185.7417-21.24841 187.21744-21.25879 188.69315-21.23997 190.16889-21.1913 191.6446-21.11409 193.12033-21.00769 194.59606-20.87276 196.0718-20.70796 197.54752-20.5146 199.02323-20.29272 200.49898-20.04358 201.9747-19.76588 203.45041-19.46095 204.92617-19.13005 206.40187-18.77255 207.8776-18.38782 209.35334-17.97841 210.82906-17.54373 212.30478-17.08566 213.78052-16.6036 215.25624-16.09818 216.73195-15.57133 218.2077-15.02245 219.68341-14.4528 221.15914-13.86302 222.63489-13.2538 224.1106-12.62706 225.58634-11.98279 227.06206-11.32167 228.53778-10.64496 230.0135-9.95332 231.48925-9.24808 232.96497-8.52985 234.44069-7.79993 235.91641-7.05966 237.39214-6.30898 238.86788-5.54987 240.3436-4.78297 241.81932-4.01025 243.29506-3.23103 244.77077-2.44727 246.24649-1.66093 247.72223-.87134 249.19795-.08109 250.67368 .70848 252.14942 1.49808 253.62514 2.28508 255.10085 3.06947 256.5766 3.84937 258.0523 4.62402 259.528 5.39221 261.00379 6.15262 262.4795 6.90523 263.95524 7.6481 265.43095 8.37996 266.90669 9.1008 268.3824 9.80864 266.43247 8.89175"/>
<path transform="matrix(-.91273,.40845,.40845,.91273,59.463029,92.670238)" d="M3.78581 0-2.27148 3.02866 0 0-2.27148-3.02866" fill="#800021"/>
<path transform="matrix(.90488,-.42557,-.42557,-.90488,346.25144,73.32124)" d="M3.78581 0-2.27148 3.02866 0 0-2.27148-3.02866" fill="#800021"/>
<path transform="matrix(1,0,0,-1,79.819,82.213)" d="M1.69069 0C1.69069 .93375 .93375 1.69069 0 1.69069-.93375 1.69069-1.69069 .93375-1.69069 0-1.69069-.93375-.93375-1.69069 0-1.69069 .93375-1.69069 1.69069-.93375 1.69069 0ZM0 0"/>
<path transform="matrix(1,0,0,-1,79.819,82.213)" stroke-width=".3985" stroke-linecap="butt" stroke-miterlimit="10" stroke-linejoin="miter" fill="none" stroke="#ffffff" d="M1.69069 0C1.69069 .93375 .93375 1.69069 0 1.69069-.93375 1.69069-1.69069 .93375-1.69069 0-1.69069-.93375-.93375-1.69069 0-1.69069 .93375-1.69069 1.69069-.93375 1.69069 0ZM0 0"/>
<path transform="matrix(1,0,0,-1,79.819,82.213)" d="M64.02786 21.26009C64.02786 22.19383 63.27092 22.95079 62.33716 22.95079 61.40341 22.95079 60.64645 22.19383 60.64645 21.26009 60.64645 20.32632 61.40341 19.56938 62.33716 19.56938 63.27092 19.56938 64.02786 20.32632 64.02786 21.26009ZM62.33716 21.26009"/>
<path transform="matrix(1,0,0,-1,79.819,82.213)" stroke-width=".3985" stroke-linecap="butt" stroke-miterlimit="10" stroke-linejoin="miter" fill="none" stroke="#ffffff" d="M64.02786 21.26009C64.02786 22.19383 63.27092 22.95079 62.33716 22.95079 61.40341 22.95079 60.64645 22.19383 60.64645 21.26009 60.64645 20.32632 61.40341 19.56938 62.33716 19.56938 63.27092 19.56938 64.02786 20.32632 64.02786 21.26009ZM62.33716 21.26009"/>
<path transform="matrix(1,0,0,-1,79.819,82.213)" d="M126.36568 0C126.36568 .93375 125.60872 1.69069 124.67497 1.69069 123.74123 1.69069 122.98427 .93375 122.98427 0 122.98427-.93375 123.74123-1.69069 124.67497-1.69069 125.60872-1.69069 126.36568-.93375 126.36568 0ZM124.67497 0"/>
<path transform="matrix(1,0,0,-1,79.819,82.213)" stroke-width=".3985" stroke-linecap="butt" stroke-miterlimit="10" stroke-linejoin="miter" fill="none" stroke="#ffffff" d="M126.36568 0C126.36568 .93375 125.60872 1.69069 124.67497 1.69069 123.74123 1.69069 122.98427 .93375 122.98427 0 122.98427-.93375 123.74123-1.69069 124.67497-1.69069 125.60872-1.69069 126.36568-.93375 126.36568 0ZM124.67497 0"/>
<path transform="matrix(1,0,0,-1,79.819,82.213)" d="M188.70285-21.26009C188.70285-20.32632 187.94589-19.56938 187.01215-19.56938 186.0784-19.56938 185.32144-20.32632 185.32144-21.26009 185.32144-22.19383 186.0784-22.95079 187.01215-22.95079 187.94589-22.95079 188.70285-22.19383 188.70285-21.26009ZM187.01215-21.26009"/>
<path transform="matrix(1,0,0,-1,79.819,82.213)" stroke-width=".3985" stroke-linecap="butt" stroke-miterlimit="10" stroke-linejoin="miter" fill="none" stroke="#ffffff" d="M188.70285-21.26009C188.70285-20.32632 187.94589-19.56938 187.01215-19.56938 186.0784-19.56938 185.32144-20.32632 185.32144-21.26009 185.32144-22.19383 186.0784-22.95079 187.01215-22.95079 187.94589-22.95079 188.70285-22.19383 188.70285-21.26009ZM187.01215-21.26009"/>
<path transform="matrix(1,0,0,-1,79.819,82.213)" d="M251.04067 0C251.04067 .93375 250.2837 1.69069 249.34996 1.69069 248.4162 1.69069 247.65926 .93375 247.65926 0 247.65926-.93375 248.4162-1.69069 249.34996-1.69069 250.2837-1.69069 251.04067-.93375 251.04067 0ZM249.34996 0"/>
<path transform="matrix(1,0,0,-1,79.819,82.213)" stroke-width=".3985" stroke-linecap="butt" stroke-miterlimit="10" stroke-linejoin="miter" fill="none" stroke="#ffffff" d="M251.04067 0C251.04067 .93375 250.2837 1.69069 249.34996 1.69069 248.4162 1.69069 247.65926 .93375 247.65926 0 247.65926-.93375 248.4162-1.69069 249.34996-1.69069 250.2837-1.69069 251.04067-.93375 251.04067 0ZM249.34996 0"/>
<use data-text="(" xlink:href="#font_4_1" transform="matrix(7.9701,0,0,-7.9701,54.818,76.701)"/>
<use data-text="0" xlink:href="#font_4_4" transform="matrix(7.9701,0,0,-7.9701,58.611768,76.701)"/>
<use data-text="," xlink:href="#font_3_3" transform="matrix(7.9701,0,0,-7.9701,63.497,76.701)"/>
<use data-text="0" xlink:href="#font_4_4" transform="matrix(7.9701,0,0,-7.9701,67.619998,76.701)"/>
<use data-text=")" xlink:href="#font_4_2" transform="matrix(7.9701,0,0,-7.9701,72.497699,76.701)"/>
<use data-text="(" xlink:href="#font_4_1" transform="matrix(7.9701,0,0,-7.9701,128.416,48.624994)"/>
<use data-text="&#x03c0;" xlink:href="#font_3_1" transform="matrix(7.9701,0,0,-7.9701,133.409,43.074995)"/>
<path transform="matrix(1,0,0,-1,120.597,38.407995)" stroke-width=".3587" stroke-linecap="butt" stroke-miterlimit="10" stroke-linejoin="miter" fill="none" stroke="#000000" d="M12.812-8.224H18.925"/>
<use data-text="2" xlink:href="#font_4_6" transform="matrix(7.9701,0,0,-7.9701,134.024,54.594995)"/>
<use data-text="," xlink:href="#font_3_3" transform="matrix(7.9701,0,0,-7.9701,140.717,48.624994)"/>
<use data-text="1" xlink:href="#font_4_5" transform="matrix(7.9701,0,0,-7.9701,146.036,43.074995)"/>
<path transform="matrix(1,0,0,-1,120.597,38.407995)" stroke-width=".3587" stroke-linecap="butt" stroke-miterlimit="10" stroke-linejoin="miter" fill="none" stroke="#000000" d="M25.439-8.224H30.321"/>
<use data-text="2" xlink:href="#font_4_6" transform="matrix(7.9701,0,0,-7.9701,146.036,54.594995)"/>
<use data-text=")" xlink:href="#font_4_2" transform="matrix(7.9701,0,0,-7.9701,152.114,48.624994)"/>
<use data-text="(" xlink:href="#font_4_1" transform="matrix(7.9701,0,0,-7.9701,208.028,76.701)"/>
<use data-text="&#x03c0;" xlink:href="#font_3_1" transform="matrix(7.9701,0,0,-7.9701,211.825,76.701)"/>
<use data-text="," xlink:href="#font_3_3" transform="matrix(7.9701,0,0,-7.9701,217.93807,76.701)"/>
<use data-text="0" xlink:href="#font_4_4" transform="matrix(7.9701,0,0,-7.9701,222.062,76.701)"/>
<use data-text=")" xlink:href="#font_4_2" transform="matrix(7.9701,0,0,-7.9701,226.9397,76.701)"/>
<use data-text="(" xlink:href="#font_4_1" transform="matrix(7.9701,0,0,-7.9701,246.867,117.682)"/>
<use data-text="3" xlink:href="#font_4_7" transform="matrix(7.9701,0,0,-7.9701,251.86,112.131999)"/>
<use data-text="&#x03c0;" xlink:href="#font_3_1" transform="matrix(7.9701,0,0,-7.9701,256.741,112.131999)"/>
<path transform="matrix(1,0,0,-1,239.048,107.465)" stroke-width=".3587" stroke-linecap="butt" stroke-miterlimit="10" stroke-linejoin="miter" fill="none" stroke="#000000" d="M12.812-8.224H23.807"/>
<use data-text="2" xlink:href="#font_4_6" transform="matrix(7.9701,0,0,-7.9701,254.916,123.65199)"/>
<use data-text="," xlink:href="#font_3_3" transform="matrix(7.9701,0,0,-7.9701,264.05,117.682)"/>
<use data-text="&#x2212;" xlink:href="#font_5_1" transform="matrix(7.9701,0,0,-7.9701,268.174,117.682)"/>
<use data-text="1" xlink:href="#font_4_5" transform="matrix(7.9701,0,0,-7.9701,276.963,112.131999)"/>
<path transform="matrix(1,0,0,-1,239.048,107.465)" stroke-width=".3587" stroke-linecap="butt" stroke-miterlimit="10" stroke-linejoin="miter" fill="none" stroke="#000000" d="M37.915-8.224H42.797"/>
<use data-text="2" xlink:href="#font_4_6" transform="matrix(7.9701,0,0,-7.9701,276.963,123.65199)"/>
<use data-text=")" xlink:href="#font_4_2" transform="matrix(7.9701,0,0,-7.9701,283.04,117.682)"/>
<use data-text="(" xlink:href="#font_4_1" transform="matrix(7.9701,0,0,-7.9701,298.083,76.701)"/>
<use data-text="2" xlink:href="#font_4_6" transform="matrix(7.9701,0,0,-7.9701,301.87678,76.701)"/>
<use data-text="&#x03c0;" xlink:href="#font_3_1" transform="matrix(7.9701,0,0,-7.9701,306.762,76.701)"/>
<use data-text="," xlink:href="#font_3_3" transform="matrix(7.9701,0,0,-7.9701,312.87507,76.701)"/>
<use data-text="0" xlink:href="#font_4_4" transform="matrix(7.9701,0,0,-7.9701,316.99903,76.701)"/>
<use data-text=")" xlink:href="#font_4_2" transform="matrix(7.9701,0,0,-7.9701,321.8767,76.701)"/>
<use data-text="y" xlink:href="#font_6_8" transform="matrix(9.9626,0,0,-9.9626,323.90299,54.93999)" fill="#800021"/>
<use data-text="=" xlink:href="#font_7_12" transform="matrix(9.9626,0,0,-9.9626,332.91999,54.93999)" fill="#800021"/>
<use data-text="1" xlink:href="#font_8_1" transform="matrix(6.9738,0,0,-6.9738,345.79399,50.715993)" fill="#800021"/>
<path transform="matrix(1,0,0,-1,316.08399,44.722993)" stroke-width=".3985" stroke-linecap="butt" stroke-miterlimit="10" stroke-linejoin="miter" fill="none" stroke="#800021" d="M29.71-7.726H34.224"/>
<use data-text="2" xlink:href="#font_8_2" transform="matrix(6.9738,0,0,-6.9738,345.79399,58.67599)" fill="#800021"/>
<use data-text="s" xlink:href="#font_7_17" transform="matrix(9.9626,0,0,-9.9626,353.16398,54.93999)" fill="#800021"/>
<use data-text="i" xlink:href="#font_7_14" transform="matrix(9.9626,0,0,-9.9626,357.67704,54.93999)" fill="#800021"/>
<use data-text="n" xlink:href="#font_7_15" transform="matrix(9.9626,0,0,-9.9626,360.8551,54.93999)" fill="#800021"/>
<use data-text="x" xlink:href="#font_6_7" transform="matrix(9.9626,0,0,-9.9626,368.891,54.93999)" fill="#800021"/>
<use data-text="y" xlink:href="#font_3_9" transform="matrix(7.9701,0,0,-7.9701,13.530998,96.537998)"/>
<use data-text="=" xlink:href="#font_4_13" transform="matrix(7.9701,0,0,-7.9701,21.212998,96.537998)"/>
<use data-text="0" xlink:href="#font_4_4" transform="matrix(7.9701,0,0,-7.9701,31.151713,96.537998)"/>
<use data-text="m" xlink:href="#font_9_75" transform="matrix(7.9701,0,0,-7.9701,8.988997,106.003)"/>
<use data-text="i" xlink:href="#font_9_66" transform="matrix(7.9701,0,0,-7.9701,17.126469,106.003)"/>
<use data-text="d" xlink:href="#font_9_47" transform="matrix(7.9701,0,0,-7.9701,19.836304,106.003)"/>
<use data-text="l" xlink:href="#font_9_72" transform="matrix(7.9701,0,0,-7.9701,25.263943,106.003)"/>
<use data-text="i" xlink:href="#font_9_66" transform="matrix(7.9701,0,0,-7.9701,27.973778,106.003)"/>
<use data-text="n" xlink:href="#font_9_77" transform="matrix(7.9701,0,0,-7.9701,30.683613,106.003)"/>
<use data-text="e" xlink:href="#font_9_50" transform="matrix(7.9701,0,0,-7.9701,36.11125,106.003)"/>
<path transform="matrix(1,0,0,-1,79.819,82.213)" stroke-width=".79701" stroke-linecap="butt" stroke-miterlimit="10" stroke-linejoin="miter" fill="none" stroke="#000000" d="M62.33716 2.59026V18.66982"/>
<path transform="matrix(0,1,1,0,142.15616,79.622737)" d="M2.59026 0-1.55415 2.0722 0 0-1.55415-2.0722"/>
<path transform="matrix(0,-1,-1,-0,142.15616,63.543176)" d="M2.59026 0-1.55415 2.0722 0 0-1.55415-2.0722"/>
<use data-text="a" xlink:href="#font_10_28" transform="matrix(4.9813,0,0,-4.9813,118.392,72.119998)"/>
<use data-text="m" xlink:href="#font_10_75" transform="matrix(4.9813,0,0,-4.9813,122.0682,72.119998)"/>
<use data-text="p" xlink:href="#font_10_84" transform="matrix(4.9813,0,0,-4.9813,128.25498,72.119998)"/>
<use data-text="l" xlink:href="#font_10_72" transform="matrix(4.9813,0,0,-4.9813,132.43428,72.119998)"/>
<use data-text="i" xlink:href="#font_10_66" transform="matrix(4.9813,0,0,-4.9813,134.60613,72.119998)"/>
<use data-text="t" xlink:href="#font_10_105" transform="matrix(4.9813,0,0,-4.9813,136.77799,72.119998)"/>
<use data-text="u" xlink:href="#font_10_109" transform="matrix(4.9813,0,0,-4.9813,139.75182,72.119998)"/>
<use data-text="d" xlink:href="#font_10_47" transform="matrix(4.9813,0,0,-4.9813,143.93112,72.119998)"/>
<use data-text="e" xlink:href="#font_10_50" transform="matrix(4.9813,0,0,-4.9813,148.11043,72.119998)"/>
<use data-text="1" xlink:href="#font_11_2" transform="matrix(4.9813,0,0,-4.9813,155.329,70.189998)"/>
<path transform="matrix(1,0,0,-1,110.573,61.902994)" stroke-width=".2419" stroke-linecap="butt" stroke-miterlimit="10" stroke-linejoin="miter" fill="none" stroke="#000000" d="M44.756-8.971H48.533"/>
<use data-text="2" xlink:href="#font_11_3" transform="matrix(4.9813,0,0,-4.9813,155.329,74.76899)"/>
<path transform="matrix(1,0,0,-1,79.819,82.213)" stroke-width=".79701" stroke-linecap="butt" stroke-miterlimit="10" stroke-linejoin="miter" fill="none" stroke="#000000" d="M.59775-51.02411H248.7522"/>
<path transform="matrix(-1,-0,0,1,85.27847,133.2371)" d="M4.66248 0C3.28098 .25902 1.0361 1.0361-.51805 1.94269V-1.94269C1.0361-1.0361 3.28098-.25902 4.66248 0"/>
<path transform="matrix(-1,-0,0,1,80.2175,133.2371)" stroke-width=".79701" stroke-linecap="butt" stroke-miterlimit="10" stroke-linejoin="miter" fill="none" stroke="#000000" d="M0 3.08846V-3.08846"/>
<path transform="matrix(1,0,0,-1,323.70948,133.2371)" d="M4.66248 0C3.28098 .25902 1.0361 1.0361-.51805 1.94269V-1.94269C1.0361-1.0361 3.28098-.25902 4.66248 0"/>
<path transform="matrix(1,0,0,-1,328.77046,133.2371)" stroke-width=".79701" stroke-linecap="butt" stroke-miterlimit="10" stroke-linejoin="miter" fill="none" stroke="#000000" d="M0 3.08846V-3.08846"/>
<path transform="matrix(1,0,0,-1,79.819,82.213)" d="M101.7136-56.44385H147.63636V-45.604394H101.7136Z" fill="#ffffff"/>
<use data-text="p" xlink:href="#font_12_84" transform="matrix(9.9626,0,0,-9.9626,182.52899,135.728)"/>
<use data-text="e" xlink:href="#font_12_50" transform="matrix(9.9626,0,0,-9.9626,188.34716,135.728)"/>
<use data-text="r" xlink:href="#font_12_96" transform="matrix(9.9626,0,0,-9.9626,192.77054,135.728)"/>
<use data-text="i" xlink:href="#font_12_66" transform="matrix(9.9626,0,0,-9.9626,196.67589,135.728)"/>
<use data-text="o" xlink:href="#font_12_81" transform="matrix(9.9626,0,0,-9.9626,199.4455,135.728)"/>
<use data-text="d" xlink:href="#font_12_47" transform="matrix(9.9626,0,0,-9.9626,204.70575,135.728)"/>
<use data-text="2" xlink:href="#font_7_6" transform="matrix(9.9626,0,0,-9.9626,213.56299,135.728)"/>
<use data-text="&#x03c0;" xlink:href="#font_6_1" transform="matrix(9.9626,0,0,-9.9626,219.29099,135.728)"/>
</svg>
