<svg style="overflow: visible;" xmlns="http://www.w3.org/2000/svg" xmlns:xlink="http://www.w3.org/1999/xlink" xmlns:inkscape="http://www.inkscape.org/namespaces/inkscape" version="1.1" width="100%" height="100%" viewBox="0 0 395.43 243.91">
<defs>
<path id="font_1_9" d="M.6159973 .37213136C.6199951 .38612367 .6199951 .38812257 .6199951 .39611817 .6199951 .42411805 .598999 .4441223 .56900027 .4441223 .5499878 .4441223 .5169983 .43211366 .5049896 .40011598 .5019989 .39411927 .49299623 .35812379 .48799134 .3371277L.42900086 .10218811C.42799378 .10118103 .38398744 .033203126 .31498719 .033203126 .25099183 .033203126 .25099183 .08518982 .25099183 .10618591 .25099183 .16316223 .2789917 .2351532 .31199647 .3181305 .31799317 .33213807 .32299806 .34413148 .32299806 .36112977 .32299806 .42211915 .2599945 .453125 .20098877 .453125 .08999634 .453125 .033996583 .3221283 .033996583 .29614259 .033996583 .2791443 .04899597 .2791443 .06199646 .2791443 .08099365 .2791443 .084991458 .2791443 .09098816 .2971344 .11898804 .38911439 .17098999 .41111756 .19499207 .41111756 .20098877 .41111756 .21199036 .41111756 .21199036 .38812257 .21199036 .36712647 .20298767 .34413148 .19599915 .32814027 .13699341 .1851654 .13699341 .15116883 .13699341 .12617493 .13699341 .011199951 .23599243-.008804321 .30799867-.008804321 .35499574-.008804321 .3899994 .00819397 .4079895 .020202637 .38598634-.08720398 .30699159-.16113281 .22999573-.16113281 .22299195-.16113281 .20098877-.16113281 .17599488-.15219116 .20599365-.13421631 .21598816-.10421753 .21598816-.08421326 .21598816-.052215578 .19198609-.033203126 .1619873-.033203126 .115997318-.033203126 .08299255-.07220459 .08299255-.114212039 .08299255-.1721344 .14498902-.203125 .22999573-.203125 .34799195-.203125 .48999024-.13121033 .5219879-.0018005371L.6159973 .37213136Z"/>
<path id="font_2_13" d="M.83999636 .33691407C.85198977 .33691407 .8839874 .33691407 .8839874 .37091065 .8839874 .40490724 .84799197 .40490724 .83399966 .40490724H.117996219C.10398865 .40490724 .067993167 .40490724 .067993167 .37091065 .067993167 .33691407 .099990848 .33691407 .11199951 .33691407H.83999636M.83399966 .095077518C.84799197 .095077518 .8839874 .095077518 .8839874 .1290741 .8839874 .16308594 .85198977 .16308594 .83999636 .16308594H.11199951C.099990848 .16308594 .067993167 .16308594 .067993167 .1290741 .067993167 .095077518 .10398865 .095077518 .117996219 .095077518H.83399966Z"/>
<path id="font_2_8" d="M.47399903 .62516787C.47399903 .6561737 .46798707 .6591797 .43899537 .6591797 .41799928 .6591797 .41099549 .6591797 .39898683 .64416506L.033996583 .20605469V.15405274H.34098817V.051986696H.22200012V0C.25898744 .0029907227 .3600006 .0029907227 .40299989 .0029907227 .45098878 .0029907227 .5329895 .0029907227 .5779877 0V.051986696H.47399903V.15405274H.5779877V.20605469H.47399903V.62516787M.35398866 .5151367V.20605469H.09599304L.35398866 .5151367Z"/>
<path id="font_3_75" d="M.98999026 0V.051986696H.923996V.3034973C.923996 .42315675 .8509979 .45117188 .7589874 .45117188 .6539917 .45117188 .598999 .39059449 .5779877 .35958863 .55400088 .4371643 .4869995 .45117188 .4189911 .45117188 .2979889 .45117188 .24398804 .3715973 .23199463 .34959413H.23098755V.45117188L.055999757 .44335938V.39135743C.114990238 .39135743 .12199402 .39135743 .12199402 .35231019V.051986696H.055999757V0C.10998535 .0029907227 .14498902 .0029907227 .18299866 .0029907227 .22200012 .0029907227 .2559967 .0029907227 .30999757 0V.051986696H.24398804V.25320436C.24398804 .36413575 .33999635 .40916444 .4039917 .40916444 .43899537 .40916444 .46199037 .39215089 .46199037 .31411744V.051986696H.3959961V0C.44999696 .0029907227 .4850006 .0029907227 .522995 .0029907227 .56199648 .0029907227 .59599307 .0029907227 .6499939 0V.051986696H.58399966V.25308229C.58399966 .36413575 .6799927 .40916444 .74398806 .40916444 .7789917 .40916444 .8019867 .39215089 .8019867 .31411744V.051986696H.73599246V0C.7899933 .0029907227 .82499697 .0029907227 .86299136 .0029907227 .9019928 .0029907227 .9359894 .0029907227 .98999026 0Z"/>
<path id="font_3_66" d="M.2999878 0V.051986696H.24099732V.45117188L.06199646 .44335938V.39135743C.117996219 .39135743 .125 .39135743 .125 .35331727V.051986696H.05899048V0C.116989139 .0029907227 .12799073 .0029907227 .18099976 .0029907227 .22200012 .0029907227 .25099183 .0029907227 .2999878 0M.25099183 .6053772C.25099183 .6503906 .21299744 .685379 .17098999 .685379 .12599182 .685379 .08999634 .64938357 .08999634 .6053772 .08999634 .560379 .12799073 .5253906 .16999817 .5253906 .21499634 .5253906 .25099183 .5613861 .25099183 .6053772Z"/>
<path id="font_3_47" d="M.6339874 0V.051986696C.57499697 .051986696 .56799319 .051986696 .56799319 .09101868V.69433596L.38598634 .6855469V.6335449C.44499208 .6335449 .45199586 .6335449 .45199586 .5946808V.40815736C.397995 .4451599 .34599305 .45117188 .30899049 .45117188 .13999939 .45117188 .040985109 .35116578 .040985109 .22215271 .040985109 .091156009 .13798523-.0068359377 .29699708-.0068359377 .36999513-.007003784 .41999818 .021987915 .44599916 .041992189V-.0068359377L.6339874 0M.44599916 .11099243C.39898683 .045150758 .33999635 .03515625 .30599977 .03515625 .17599488 .03515625 .17599488 .15916443 .17599488 .21916199 .17599488 .28216554 .17599488 .40916444 .31900025 .40916444 .36499024 .40916444 .4119873 .39016725 .44599916 .34716798V.11099243Z"/>
<path id="font_3_72" d="M.30699159 0V.051986696H.24099732V.69433596L.05899048 .6855469V.6335449C.117996219 .6335449 .125 .6335449 .125 .594574V.051986696H.05899048V0C.116989139 .0029907227 .1269989 .0029907227 .18299866 .0029907227 .23899842 .0029907227 .24899292 .0029907227 .30699159 0Z"/>
<path id="font_3_77" d="M.6499939 0V.051986696H.58399966V.3034973C.58399966 .4251709 .5079956 .45117188 .4189911 .45117188 .2979889 .45117188 .24398804 .3715973 .23199463 .34959413H.23098755V.45117188L.055999757 .44335938V.39135743C.114990238 .39135743 .12199402 .39135743 .12199402 .35231019V.051986696H.055999757V0C.10998535 .0029907227 .14498902 .0029907227 .18299866 .0029907227 .22200012 .0029907227 .2559967 .0029907227 .30999757 0V.051986696H.24398804V.25320436C.24398804 .36413575 .33999635 .40916444 .4039917 .40916444 .43899537 .40916444 .46199037 .39215089 .46199037 .31411744V.051986696H.3959961V0C.44999696 .0029907227 .4850006 .0029907227 .522995 .0029907227 .56199648 .0029907227 .59599307 .0029907227 .6499939 0Z"/>
<path id="font_3_50" d="M.526001 .11508179C.526001 .13604737 .5049896 .13604737 .49798585 .13604737 .48098756 .13604737 .47698976 .13404846 .46899415 .11706543 .43699647 .04714966 .35198976 .040161134 .32398988 .040161134 .17599488 .040161134 .17098999 .15603638 .16899109 .2119751H.49198915C.5130005 .2119751 .526001 .2119751 .526001 .2409668 .526001 .28399659 .5159912 .35003663 .46598817 .3990631 .4099884 .45507813 .31999208 .45507813 .29699708 .45507813 .11898804 .45507813 .033996583 .34402467 .033996583 .2259674 .033996583 .09609985 .13398743-.0068359377 .31199647-.0068359377 .48799134-.0068359377 .526001 .10108948 .526001 .11508179M.42799378 .25097657H.16899109C.16999817 .29100038 .17399597 .41307069 .2979889 .41307069 .42199708 .41307069 .4269867 .2899933 .42799378 .25097657Z"/>
<path id="font_4_3" d="M.5499878 .39736939C.5169983 .38838197 .49299623 .35838319 .49299623 .32537843 .49299623 .28938294 .5209961 .27539063 .54499819 .27539063 .58299258 .27539063 .62098696 .30638124 .62098696 .35838319 .62098696 .41610719 .56399539 .45210267 .5029907 .45210267 .45498658 .45210267 .4169922 .4250946 .3919983 .39338685 .37799073 .41111756 .34399415 .45210267 .25 .45210267 .117996219 .45210267 .04899597 .3303833 .04899597 .29638673 .04899597 .28138734 .06298828 .28138734 .07499695 .28138734 .09098816 .28138734 .09599304 .28138734 .099990848 .29537965 .1329956 .39338685 .21299744 .41210938 .24398804 .41210938 .30299378 .41210938 .30299378 .37438966 .30299378 .36138917 .30299378 .3423767 .2889862 .28637696 .27999879 .24926758 .27198792 .21914673 .25299073 .14093018 .24699402 .11993408 .23098755 .056930543 .19198609 .032180787 .16099549 .032180787 .13999939 .032180787 .12098694 .04005432 .11099243 .046951295 .14399719 .05593872 .16799927 .0859375 .16799927 .11894226 .16799927 .15493775 .13999939 .16894531 .115997318 .16894531 .07798767 .16894531 .039993287 .13793946 .039993287 .0859375 .039993287 .028182984 .09700012-.0078125 .1579895-.0078125 .20599365-.0078125 .24398804 .019180298 .2689972 .050933839 .2829895 .03315735 .31698609-.0078125 .41099549-.0078125 .54299929-.0078125 .6119995 .11393738 .6119995 .14793396 .6119995 .16394043 .59498599 .16394043 .58599856 .16394043 .56799319 .16394043 .5649872 .16093445 .5609894 .14894104 .5279999 .050933839 .44799806 .032180787 .4169922 .032180787 .35798646 .032180787 .35798646 .06993103 .35798646 .08293152 .35798646 .10194397 .37199403 .15794373 .3809967 .1950531 .3889923 .22517395 .4079895 .3033905 .4139862 .3243866 .42999269 .38739015 .46899415 .41210938 .5 .41210938 .5209961 .41210938 .5399933 .40423585 .5499878 .39736939Z"/>
<path id="font_4_4" d="M.59498599 .3731079C.598999 .38909913 .598999 .394104 .598999 .3981018 .598999 .4320984 .57199099 .44410707 .5509949 .44410707 .49798585 .44410707 .48599244 .3961029 .47898866 .3701172L.45298768 .26612855C.43899537 .21113587 .42599488 .15615845 .41099549 .10116577 .4099884 .09416199 .3659973 .032180787 .30099488 .032180787 .2579956 .032180787 .23799134 .057174684 .23799134 .10417175 .23799134 .16314698 .27198792 .24913025 .29899598 .3171234 .30499269 .33111573 .31098939 .3461151 .31098939 .36210633 .31098939 .41410829 .25898744 .45210267 .19299317 .45210267 .08699036 .45210267 .032989503 .32011415 .032989503 .29612733 .032989503 .28112794 .04699707 .28112794 .05899048 .28112794 .07499695 .28112794 .07998657 .28112794 .083999637 .29512025 .11898804 .4091034 .1769867 .41210938 .18699646 .41210938 .19299317 .41210938 .20399475 .41210938 .20399475 .3901062 .20399475 .36810304 .19299317 .3421173 .18798828 .32911683 .147995 .22813416 .12799073 .17315674 .12799073 .12416077 .12799073 .0231781 .20899964-.0078125 .29299928-.0078125 .30899049-.0078125 .34700013-.0078125 .3919983 .02218628 .36999513-.08416748 .29599-.16210938 .21598816-.16210938 .21398926-.16210938 .18499756-.16210938 .16099549-.15216065 .18399048-.14016724 .20399475-.11515808 .20399475-.0851593 .20399475-.04916382 .17599488-.03515625 .1519928-.03515625 .10899353-.03515625 .07598877-.07316589 .07598877-.11416626 .07598877-.17111206 .13699341-.20211792 .21598816-.20211792 .33799745-.20211792 .47099305-.123168949 .5009918-.0018157959L.59498599 .3731079Z"/>
<path id="font_5_1" d="M.9819946 .20703125C.99398806 .20703125 1.0379944 .20703125 1.0379944 .25003053 1.0379944 .2930298 .99398806 .2930298 .9819946 .2930298H.20999146C.19799805 .2930298 .1539917 .2930298 .1539917 .25003053 .1539917 .20703125 .19799805 .20703125 .20999146 .20703125H.9819946Z"/>
<path id="font_6_2" d="M.45899964 .6231842C.45899964 .654129 .45298768 .6611328 .42099 .6611328H.3999939C.31498719 .5972595 .18598938 .5972595 .16299439 .5972595H.13598633V.53027346H.16299439C.1749878 .53027346 .2519989 .53027346 .32499696 .55526736V.066986087H.14399719V0C.19299317 .0039978029 .33499146 .0039978029 .3919983 .0039978029 .44898988 .0039978029 .59098818 .0039978029 .6399994 0V.066986087H.45899964V.6231842Z"/>
<path id="font_6_3" d="M.6689911 .2110138H.58599856C.57899478 .17199707 .5649872 .14698792 .55599978 .14498902 .5319977 .14199829 .4889984 .14199829 .45498658 .14199829H.30599977C.36999513 .18299866 .43099977 .22102356 .47399903 .24401856 .58599856 .30604554 .6689911 .35205079 .6689911 .4560852 .6689911 .5801239 .5549927 .6611328 .35699464 .6611328 .30999757 .6611328 .08898926 .66012576 .08898926 .5131073 .08898926 .45307923 .13798523 .42907716 .17098999 .42907716 .21099854 .42907716 .2539978 .4570923 .2539978 .5121002 .2539978 .54811099 .23298645 .5691223 .22799683 .5741272 .2639923 .59213259 .30099488 .59413149 .32398988 .59413149 .42199708 .59413149 .5099945 .54711917 .5099945 .45509339 .5099945 .37705995 .44898988 .31803895 .3849945 .2720337L.10598755 .068984989C.08898926 .056991579 .08898926 .052993776 .08898926 .0309906V0H.6299896L.6689911 .2110138Z"/>
<path id="font_6_4" d="M.36299134 .3203125C.49699403 .3203125 .5089874 .2373352 .5089874 .18234253 .5089874 .13237 .5 .044387819 .3639984 .044387819 .34298707 .044387819 .2649994 .04638672 .21398926 .07937622 .23498535 .09437561 .25 .11936951 .25 .15135193 .25 .2003479 .21398926 .2373352 .1639862 .2373352 .11399841 .2373352 .07699585 .20333863 .07699585 .14935303 .07699585 .05038452 .17599488-.016601563 .36698915-.016601563 .6139984-.016601563 .68099978 .103378299 .68099978 .18135071 .68099978 .2703247 .598999 .3283081 .5019989 .3513031 .5609894 .37130738 .6399994 .42126466 .6399994 .51319888 .6399994 .59513857 .5499878 .6611328 .37098695 .6611328 .21099854 .6611328 .117996219 .59313967 .117996219 .5002136 .117996219 .44425965 .1619873 .41827394 .19898987 .41827394 .23999024 .41827394 .27999879 .4482422 .27999879 .49920655 .27999879 .548172 .24198914 .56915286 .23999024 .57014468 .2809906 .5991211 .33299256 .6051178 .3659973 .6051178 .46398927 .6051178 .4850006 .5631561 .4850006 .51519778 .4850006 .47323609 .45999146 .38430787 .33999635 .37930299 .32899476 .37930299 .28399659 .37730409 .2769928 .37631227 .25898744 .3722992 .25898744 .3553009 .25898744 .34831239 .25898744 .3203125 .2749939 .3203125 .2939911 .3203125H.36299134Z"/>
<path id="font_6_5" d="M.70098879 .15527344V.22225952H.56999209V.6309509C.56999209 .6619415 .56399539 .6689453 .5319977 .6689453H.46099855C.43499757 .6689453 .43099977 .66693118 .4189911 .65193179L.056991579 .22225952V.15527344H.42799378V.06689453H.2869873V-.00010681152C.33599855 .00390625 .44299317 .00390625 .49699403 .00390625 .5529938 .00390625 .647995 .00390625 .70098879-.00010681152V.06689453H.56999209V.15527344H.70098879M.44499208 .5799866V.22225952H.14399719L.44499208 .5799866Z"/>
<path id="font_6_6" d="M.23298645 .4913025C.2709961 .4873047 .31098939 .4873047 .31298829 .4873047 .46499635 .4873047 .5549927 .56030276 .5970001 .603302 .6100006 .6163025 .6119995 .6183014 .6119995 .6333008 .6119995 .6382904 .6119995 .66130068 .58999636 .66130068 .58799746 .66130068 .58599856 .66130068 .57899478 .6582947 .5399933 .6483002 .46899415 .629303 .37599183 .629303 .30799867 .629303 .24198914 .6392975 .17599488 .65730288 .1659851 .66130068 .1639862 .66130068 .16099549 .66130068 .13899231 .66130068 .13899231 .6392975 .13899231 .6252899V.32437135C.13899231 .29237367 .14399719 .28536988 .1769867 .28536988 .19799805 .28536988 .19898987 .28637696 .21699524 .30337525 .23199463 .31837464 .27398683 .359375 .38398744 .359375 .5130005 .359375 .5130005 .26637269 .5130005 .2073822 .5130005 .14738465 .5130005 .044387819 .34599305 .044387819 .32899476 .044387819 .25498963 .045394899 .20698548 .08639526 .24398804 .10739136 .24699402 .14138794 .24699402 .15538025 .24699402 .20437622 .20799256 .234375 .16799927 .234375 .13198853 .234375 .08898926 .2093811 .08898926 .15338135 .08898926 .055389406 .18899536-.016601563 .34799195-.016601563 .56999209-.016601563 .6689911 .09138489 .6689911 .2013855 .6689911 .30236817 .58999636 .41537477 .3889923 .41537477 .32899476 .41537477 .2789917 .405365 .23298645 .38136292V.4913025Z"/>
<path id="font_6_7" d="M.23399353 .34513856C.23799134 .43510438 .24099732 .4881134 .29100038 .54312136 .31999208 .5741272 .3789978 .6051178 .45700074 .6051178 .46798707 .6051178 .5029907 .6051178 .5289917 .5871277 .5209961 .5821228 .49398805 .56211856 .49398805 .52212527 .49398805 .47612 .5289917 .44711305 .56900027 .44711305 .6029968 .44711305 .6439972 .47010804 .6439972 .52412417 .6439972 .575119 .6159973 .6611328 .45700074 .6611328 .23599243 .6611328 .07699585 .53312686 .07699585 .31915284 .07699585 .1083374 .17399597-.016601563 .38398744-.016601563 .44400025-.016601563 .5130005-.01260376 .58299258 .03338623 .6359863 .068374637 .68099978 .11532593 .68099978 .20625305 .68099978 .33914186 .56999209 .42611695 .40499879 .42611695 .33799745 .42611695 .2749939 .39811708 .23399353 .34513856M.38398744 .044387819C.25099183 .044387819 .23699951 .14030457 .23699951 .22123719 .23699951 .29518128 .29299928 .3701172 .3919983 .3701172 .5239868 .3701172 .5239868 .2901764 .5239868 .20724488 .5239868 .12432861 .5239868 .044387819 .38398744 .044387819Z"/>
<path id="font_6_8" d="M.2539978 .64653018C.22799683 .64653018 .22499085 .65852358 .22399903 .66752627H.14099121L.09799194 .4335022H.18099976C.18499756 .45350648 .19099427 .47451783 .20298767 .4915161 .20899964 .49752809 .20999146 .4985199 .21998596 .49952699 .24499512 .5025177 .2889862 .5025177 .32299806 .5025177H.5049896C.43399049 .43751527 .40699769 .41349793 .375 .37149049 .2749939 .23945618 .2639923 .11941528 .2639923 .06541443 .2639923-.01260376 .32798768-.016601563 .33898927-.016601563 .36898805-.016601563 .38598634-.0016021729 .3919983 .0033874512 .4139862 .024398804 .4139862 .05039978 .4139862 .06840515 .41600038 .31147767 .48199464 .37249757 .5479889 .43450929L.6100006 .4895172 .71199038 .58251956C.71598818 .58651736 .71798709 .5905304 .7200012 .59552 .72099307 .5995178 .72099307 .6285248 .72099307 .64453127H.47200013L.2539978 .64653018Z"/>
<path id="font_6_1" d="M.68499758 .31726075C.68499758 .48518373 .6439972 .6611328 .3789978 .6611328 .116989139 .6611328 .07299805 .48918153 .07299805 .31726075 .07299805 .13934326 .125-.016601563 .3789978-.016601563 .6369934-.016601563 .68499758 .14334107 .68499758 .31726075M.3789978 .039398195C.33999635 .039398195 .25898744 .0493927 .23699951 .13034058 .22399903 .17932129 .22299195 .26028443 .22299195 .33224488 .22299195 .4052124 .22299195 .48417665 .23999024 .53215029 .25698854 .5771332 .30899049 .6051178 .3789978 .6051178 .43798829 .6051178 .49899293 .5851288 .5189972 .52716067 .5349884 .4811859 .5349884 .39822389 .5349884 .33224488 .5349884 .271286 .5349884 .17732239 .519989 .12834168 .49598695 .04838562 .41600038 .039398195 .3789978 .039398195Z"/>
<path id="font_2_1" d="M.40699769-.23200989C.40699769-.2250061 .4039917-.22200012 .3919983-.21200562 .2649994-.09700012 .21998596 .07798767 .21998596 .25 .21998596 .42099 .2630005 .59599307 .3899994 .70899966 .4059906 .723999 .40699769 .72499087 .40699769 .7319946 .40699769 .74198916 .40098573 .75 .38598634 .75 .36698915 .75 .31399537 .70500186 .2939911 .6859894 .16899109 .56199648 .11399841 .4099884 .11399841 .25 .11399841 .16099549 .13198853 .039993287 .20599365-.07800293 .2689972-.17800904 .3639984-.25 .38598634-.25 .40098573-.25 .40699769-.2420044 .40699769-.23200989Z"/>
<path id="font_2_5" d="M.3789978 .62413027C.3789978 .6582031 .37298585 .6582031 .33299256 .6582031 .27198792 .61006167 .19198609 .5939789 .11399841 .5939789H.09199524V.5419922H.11399841C.13999939 .5419922 .19400025 .5449829 .2519989 .5619812V.051986696H.101989749V0C.13798523 .0029907227 .269989 .0029907227 .31498719 .0029907227 .3600006 .0029907227 .48999024 .0029907227 .5269928 0V.051986696H.3789978V.62413027Z"/>
<path id="font_1_3" d="M.22099304 .016998291C.21199036-.08493042 .1519928-.1348877 .1309967-.15187073 .11999512-.15986634 .115997318-.16287232 .115997318-.17185974 .115997318-.18086243 .12799073-.19386292 .13899231-.19386292 .15499878-.19386292 .2639923-.106918338 .2639923 .03199768 .2639923 .10499573 .22698975 .1599884 .16899109 .1599884 .12199402 .1599884 .08999634 .12399292 .08999634 .07998657 .08999634 .038986207 .11898804 0 .16999817 0 .18998719 0 .20899964 .0069885256 .22099304 .016998291Z"/>
<path id="font_2_2" d="M.36099244 .25C.36099244 .33898927 .34298707 .45999146 .2689972 .5779877 .20599365 .6779938 .11099243 .75 .08898926 .75 .07199097 .75 .067993167 .7389984 .067993167 .7319946 .067993167 .72499087 .07199097 .72099307 .08299255 .71199038 .20999146 .5970001 .25498963 .42199708 .25498963 .25 .25498963 .07899475 .21199036-.0960083 .084991458-.2090149 .07299805-.22000122 .067993167-.22401428 .067993167-.23200989 .067993167-.23901367 .07199097-.25 .08898926-.25 .10798645-.25 .16099549-.20500183 .18099976-.18600464 .30599977-.06201172 .36099244 .08999634 .36099244 .25Z"/>
<path id="font_1_1" d="M.33599855 .3408203H.44898988C.42199708 .22695923 .41999818 .17901612 .41999818 .14805603 .41999818 .07015991 .44499208-.009765625 .49598695-.009765625 .522995-.009765625 .5669861 .018218995 .5669861 .059173585 .5669861 .073150638 .56399539 .07914734 .55599978 .09112549 .5069885 .16603089 .5029907 .24394226 .5029907 .27789308 .5029907 .30485536 .5049896 .31684876 .5079956 .3408203H.6389923C.6599884 .3408203 .6719971 .3408203 .6899872 .35481263 .70399478 .3658142 .71299746 .38581849 .71299746 .40081788 .71299746 .44381715 .6729889 .44381715 .6559906 .44381715H.23498535C.21099854 .44381715 .16799927 .44381715 .10598755 .3918152 .08999634 .37780763 .03199768 .31884767 .03199768 .30285646 .03199768 .2848816 .04899597 .2848816 .05999756 .2848816 .07699585 .2848816 .07798767 .28588868 .08699036 .296875 .10598755 .31684876 .1349945 .3408203 .21299744 .3408203H.27598573C.25498963 .27789308 .22499085 .2059784 .15699768 .085128787 .14299011 .061157228 .13999939 .05517578 .13999939 .03918457 .13999939 .008224487 .16499329-.008773804 .19099427-.008773804 .21798706-.008773804 .24499512 .008224487 .2559967 .04019165 .2659912 .06616211 .272995 .09411621 .2809906 .12608338L.33599855 .3408203Z"/>
<path id="font_2_6" d="M.5509949 .2280426H.49499513C.4869995 .16200257 .47399903 .14199829 .46798707 .13899231 .45700074 .1329956 .37998963 .1329956 .36299134 .1329956H.22499085C.35899354 .23805237 .41299439 .2680664 .45599366 .30108644 .526001 .35612489 .5509949 .40615846 .5509949 .46316529 .5509949 .58117678 .44198609 .6582031 .2899933 .6582031 .1619873 .6582031 .06098938 .6011963 .06098938 .50717166 .06098938 .4481659 .10899353 .4291687 .13699341 .4291687 .17199707 .4291687 .21398926 .4541626 .21398926 .50616458 .21398926 .5531616 .17999268 .5721588 .16699219 .5771637 .19499207 .5981903 .23498535 .6062012 .2659912 .6062012 .35598756 .6062012 .4059906 .5391693 .4059906 .4621582 .4059906 .38113404 .35299684 .31410218 .2939911 .25906373L.07299805 .052993776C.06199646 .041992189 .06098938 .040985109 .06098938 .020996094V0H.5179901L.5509949 .2280426Z"/>
<path id="font_2_3" d="M.5099945 .21617127H.83799746C.8509979 .21617127 .8839874 .21617127 .8839874 .25016786 .8839874 .2841797 .84999087 .2841797 .83799746 .2841797H.5099945V.6121979C.5099945 .62519839 .5099945 .6582031 .47599793 .6582031 .44198609 .6582031 .44198609 .6241913 .44198609 .6121979V.2841797H.11399841C.100997928 .2841797 .067993167 .2841797 .067993167 .25016786 .067993167 .21617127 .101989749 .21617127 .11399841 .21617127H.44198609V-.11218262C.44198609-.12519837 .44198609-.15820313 .47599793-.15820313 .5099945-.15820313 .5099945-.124191287 .5099945-.11218262V.21617127Z"/>
<path id="font_2_11" d="M.58299258 .5925293C.59498599 .6045227 .59498599 .6065216 .59498599 .6265259V.64453127H.36299134C.33198548 .64453127 .27198792 .647522 .23899842 .6495209 .22898865 .65052798 .21699524 .6495209 .20599365 .65052798 .1639862 .6535187 .16299439 .66352847 .1619873 .67652896H.10598755L.067993167 .41648866H.12399292C.1329956 .4855194 .14698792 .5035248 .1519928 .5055237 .1639862 .5115204 .24699402 .5115204 .2649994 .5115204H.42799378C.31698609 .3874817 .31698609 .38546754 .28599549 .3364563 .21499634 .21839905 .20498657 .10935974 .20498657 .061340333 .20498657-.013671875 .2659912-.013671875 .272995-.013671875 .30299378-.013671875 .31999208 .0043182375 .32398988 .00932312 .33999635 .026321412 .33999635 .04133606 .33999635 .08634949 .33999635 .11135864 .33999635 .15737915 .34498597 .21440125 .35798646 .34545899 .40899659 .401474 .41099549 .40348817L.58299258 .5925293Z"/>
<path id="font_2_7" d="M.28399659 .32714845C.3999939 .32714845 .40098573 .23034668 .40098573 .18035889 .40098573 .13534546 .40098573 .033325197 .28799439 .033325197 .2669983 .033325197 .20999146 .036315919 .1599884 .068359378 .1769867 .0753479 .21299744 .09635925 .21299744 .14535523 .21299744 .19335938 .1789856 .22634888 .13198853 .22634888 .08799744 .22634888 .050994874 .1963501 .050994874 .14434815 .050994874 .047332765 .15499878-.013671875 .29299928-.013671875 .4889984-.013671875 .5609894 .09234619 .5609894 .1793518 .5609894 .26127626 .49798585 .32914735 .3899994 .35313417 .4169922 .36413575 .5269928 .40715028 .5269928 .51615908 .5269928 .59617617 .44499208 .6582031 .29599 .6582031 .1659851 .6582031 .084991458 .58917239 .084991458 .50717166 .084991458 .45115663 .1289978 .4311676 .15899658 .4311676 .19898987 .4311676 .23298645 .45916749 .23298645 .5051575 .23298645 .52716067 .22499085 .5651703 .1769867 .5771637 .22099304 .6151886 .2809906 .6151886 .2899933 .6151886 .3829956 .6151886 .3829956 .5491638 .3829956 .51916506 .3829956 .4471588 .34899903 .41015626 .34599305 .40615846 .31698609 .37513734 .29899598 .3741455 .24499512 .37113954 .21398926 .36914063 .20399475 .36813355 .20399475 .34814454 .20399475 .32714845 .21699524 .32714845 .23498535 .32714845H.28399659Z"/>
<path id="font_7_8" d="M.57699587 .3771515C.58200076 .3951416 .58200076 .3971405 .58200076 .40014649 .58200076 .4221344 .56599429 .44413758 .5349884 .44413758 .48298646 .44413758 .47099305 .3971405 .46398927 .3701477L.43798829 .26615907C.42599488 .2181549 .40699769 .14117432 .3959961 .10017395 .3909912 .07817078 .3600006 .05418396 .35699464 .05218506 .34599305 .045181276 .32199098 .028182984 .2889862 .028182984 .22999573 .028182984 .22898865 .07817078 .22898865 .10116577 .22898865 .16217041 .2599945 .24015808 .28799439 .31214906 .2979889 .33815003 .30099488 .3451538 .30099488 .3621521 .30099488 .4201355 .24299622 .45214845 .18798828 .45214845 .08198547 .45214845 .03199768 .31614686 .03199768 .29615785 .03199768 .28215028 .04699707 .28215028 .055999757 .28215028 .067993167 .28215028 .07499695 .28215028 .07899475 .29515077 .11199951 .4061432 .16699219 .4161377 .18199158 .4161377 .18899536 .4161377 .19898987 .4161377 .19898987 .3951416 .19898987 .3721466 .18798828 .34614564 .18199158 .33015443 .14299011 .23016358 .12199402 .173172 .12199402 .122177127 .12199402 .008178711 .22200012-.0078125 .2809906-.0078125 .30599977-.0078125 .33999635-.0038146973 .3769989 .02218628 .34899903-.10101318 .27398683-.16615296 .20498657-.16615296 .19198609-.16615296 .1639862-.16415406 .14399719-.15213013 .17599488-.13909912 .19198609-.11204529 .19198609-.0849762 .19198609-.04890442 .16299439-.038879396 .14299011-.038879396 .10598755-.038879396 .070999149-.07095337 .070999149-.11505127 .070999149-.16615296 .12399292-.20214844 .20498657-.20214844 .31999208-.20214844 .45199586-.12506104 .48298646-.0008239746L.57699587 .3771515Z"/>
<path id="font_8_12" d="M.7879944 .33203126C.7999878 .33203126 .82899478 .33203126 .82899478 .36203004 .82899478 .39302064 .7979889 .39302064 .7829895 .39302064H.10998535C.09498596 .39302064 .06399536 .39302064 .06399536 .36203004 .06399536 .33203126 .09298706 .33203126 .10499573 .33203126H.7879944M.7829895 .107940677C.7979889 .107940677 .82899478 .107940677 .82899478 .13893128 .82899478 .16894531 .7999878 .16894531 .7879944 .16894531H.10499573C.09298706 .16894531 .06399536 .16894531 .06399536 .13893128 .06399536 .107940677 .09498596 .107940677 .10998535 .107940677H.7829895Z"/>
<path id="font_8_7" d="M.35198976 .35212709C.42099 .3731537 .49398805 .4303589 .49398805 .5164032 .49398805 .5933533 .41799928 .65527346 .2769928 .65527346 .1579895 .65527346 .07998657 .59135439 .07998657 .5113983 .07998657 .46839906 .11099243 .44140626 .14898682 .44140626 .19400025 .44140626 .21899414 .47340394 .21899414 .51039126 .21899414 .56840518 .16499329 .5793915 .16099549 .58039858 .19599915 .6082916 .23999024 .616272 .2709961 .616272 .35398866 .616272 .35699464 .5523987 .35699464 .5193939 .35699464 .50639346 .35598756 .3751526 .2519989 .36914063 .21099854 .36712647 .20899964 .36613465 .20399475 .36512757 .19400025 .36413575 .19198609 .35412599 .19198609 .34812928 .19198609 .33013917 .20199585 .33013917 .21998596 .33013917H.2639923C.37298585 .33013917 .37298585 .23240662 .37298585 .18144226 .37298585 .13444519 .37298585 .03225708 .2689972 .03225708 .24299622 .03225708 .19099427 .03627014 .14299011 .06645203 .17599488 .07543945 .20098877 .10044861 .20098877 .14144898 .20098877 .18644715 .16899109 .217453 .125 .217453 .08299255 .217453 .04798889 .19044495 .04798889 .13945008 .04798889 .049346925 .14498902-.0107421879 .27398683-.0107421879 .45298768-.0107421879 .526001 .08944702 .526001 .18045044 .526001 .23539734 .49699403 .32115174 .35198976 .35212709Z"/>
<path id="font_8_17" d="M.21099854 .29412843C.17399597 .30111695 .10899353 .31211854 .10899353 .3591156 .10899353 .42111207 .20199585 .42111207 .22099304 .42111207 .29599 .42111207 .33399964 .39212037 .33898927 .33711244 .33999635 .32211305 .34098817 .3171234 .3619995 .3171234 .38598634 .3171234 .38598634 .32211305 .38598634 .3451233V.42510987C.38598634 .4441223 .38598634 .453125 .36799623 .453125 .3639984 .453125 .3619995 .453125 .32299806 .43411256 .29699708 .44711305 .2619934 .453125 .22200012 .453125 .19198609 .453125 .037994386 .453125 .037994386 .32211305 .037994386 .28211976 .057998659 .25512696 .07798767 .23812866 .117996219 .203125 .1559906 .1971283 .23298645 .18312073 .2689972 .17712403 .34399415 .16412354 .34399415 .10513306 .34399415 .030136109 .2519989 .030136109 .22999573 .030136109 .12399292 .030136109 .09799194 .103134158 .085998538 .14613343 .08099365 .16012573 .07598877 .16012573 .06199646 .16012573 .037994386 .16012573 .037994386 .15412903 .037994386 .13113404V.022140503C.037994386 .0031280518 .037994386-.005859375 .055999757-.005859375 .06298828-.005859375 .06498718-.005859375 .085998538 .009140015 .08699036 .009140015 .10899353 .024139405 .11199951 .026138306 .1579895-.005859375 .20999146-.005859375 .22999573-.005859375 .26098634-.005859375 .4149933-.005859375 .4149933 .14012146 .4149933 .18312073 .394989 .21812439 .3600006 .24612427 .32099916 .27511598 .2889862 .28112794 .21099854 .29412843Z"/>
<path id="font_8_14" d="M.22399903 .4501953 .049987794 .44218446V.39518739C.10899353 .39518739 .115997318 .39518739 .115997318 .35617066V.04699707H.04699707V0C.07798767 .0009918213 .1269989 .0029907227 .16899109 .0029907227 .19898987 .0029907227 .25 .0009918213 .28599549 0V.04699707H.22399903V.4501953M.23399353 .6173096C.23399353 .66130068 .19799805 .6953125 .1559906 .6953125 .11299133 .6953125 .07798767 .66030886 .07798767 .6173096 .07798767 .5743103 .11299133 .53930667 .1559906 .53930667 .19799805 .53930667 .23399353 .5733032 .23399353 .6173096Z"/>
<path id="font_8_15" d="M.11399841 .3561554V.04699707H.04499817V0C.07299805 .0009918213 .1329956 .0029907227 .17098999 .0029907227 .20999146 .0029907227 .2689972 .0009918213 .29699708 0V.04699707H.22799683V.25610353C.22799683 .36515809 .31399537 .41418458 .3769989 .41418458 .41099549 .41418458 .43199159 .39317323 .43199159 .31713868V.04699707H.36299134V0C.3909912 .0009918213 .45098878 .0029907227 .4889984 .0029907227 .5279999 .0029907227 .58699038 .0009918213 .61499026 0V.04699707H.54599V.30613709C.54599 .41119386 .49198915 .4501953 .3919983 .4501953 .29599 .4501953 .24299622 .39317323 .21699524 .34214784V.4501953L.04499817 .44218446V.39518739C.10699463 .39518739 .11399841 .39518739 .11399841 .3561554Z"/>
<path id="font_8_6" d="M.5169983 .22209168H.46998597C.46699525 .20207215 .45799256 .13800049 .44400025 .1309967 .43299867 .125 .35798646 .125 .34199525 .125H.19499207C.24198914 .16403198 .2939911 .20707703 .33898927 .2401123 .45298768 .3242035 .5169983 .37124635 .5169983 .4663086 .5169983 .5812988 .41299439 .65527346 .27198792 .65527346 .15098572 .65527346 .056991579 .593277 .056991579 .50331118 .056991579 .44430543 .10499573 .42930604 .1289978 .42930604 .16099549 .42930604 .20098877 .4513092 .20098877 .50131228 .20098877 .55329897 .15899658 .5693054 .14399719 .5733032 .17298889 .5972748 .21099854 .6082611 .24699402 .6082611 .33299256 .6082611 .3789978 .54029849 .3789978 .4653015 .3789978 .39627076 .34098817 .3282013 .2709961 .25712586L.069992069 .051986696C.056991579 .039993287 .056991579 .037994386 .056991579 .017990113V0H.48599244L.5169983 .22209168Z"/>
<path id="font_8_1" d="M.3789978-.22503662C.34999085-.19802857 .2849884-.13702393 .24299622-.009033203 .21699524 .06997681 .20498657 .16197205 .20498657 .24996948 .20498657 .4469757 .2559967 .60398867 .3659973 .7149811 .3809967 .7299957 .38198854 .73098757 .38198854 .73599246 .38198854 .746994 .37199403 .75 .3639984 .75 .34700013 .75 .30499269 .7129822 .2869873 .6959839 .1309967 .5409851 .10798645 .35697938 .10798645 .25097657 .10798645 .12597656 .14099121 .015975953 .18798828-.06703186 .2539978-.18203736 .34498597-.24902344 .3639984-.24902344 .37199403-.24902344 .38198854-.24603272 .38198854-.23503113 .38198854-.23002625 .3789978-.22602844 .3789978-.22503662Z"/>
<path id="font_7_7" d="M.5359955 .4011383C.5 .3911438 .48199464 .35714723 .48199464 .33215333 .48199464 .31015016 .49899293 .28614808 .5319977 .28614808 .5669861 .28614808 .60398867 .31515504 .60398867 .364151 .60398867 .41714479 .5509949 .45214845 .48999024 .45214845 .43299867 .45214845 .3959961 .4091339 .3829956 .3911438 .35798646 .433136 .3019867 .45214845 .24499512 .45214845 .11898804 .45214845 .050994874 .32914735 .050994874 .29615785 .050994874 .28215028 .06599426 .28215028 .07499695 .28215028 .08699036 .28215028 .09399414 .28215028 .09799194 .29515077 .1269989 .38613893 .19898987 .4161377 .23999024 .4161377 .27799989 .4161377 .29599 .39814759 .29599 .3661499 .29599 .3471527 .28199769 .29216004 .272995 .2561493L.23899842 .11917114C.22399903 .058181764 .18798828 .028182984 .1539917 .028182984 .14898682 .028182984 .12599182 .028182984 .10598755 .043182374 .14199829 .05317688 .1599884 .08717346 .1599884 .11216736 .1599884 .13417053 .14299011 .1581726 .10998535 .1581726 .07499695 .1581726 .037994386 .12916565 .037994386 .08016968 .037994386 .027175904 .09098816-.0078125 .1519928-.0078125 .20899964-.0078125 .24598694 .035186769 .25898744 .05317688 .28399659 .011184692 .33999635-.0078125 .39698792-.0078125 .522995-.0078125 .59098818 .11517334 .59098818 .14816284 .59098818 .16217041 .57598879 .16217041 .5669861 .16217041 .5549927 .16217041 .5479889 .16217041 .5439911 .14916992 .5149994 .058181764 .44299317 .028182984 .4019928 .028182984 .3639984 .028182984 .34599305 .046173097 .34599305 .07817078 .34599305 .09916687 .35899354 .15216065 .36799623 .18916321 .375 .21516419 .397995 .30915834 .40299989 .32514955 .41799928 .3851471 .45298768 .4161377 .48799134 .4161377 .49299623 .4161377 .5159912 .4161377 .5359955 .4011383Z"/>
<path id="font_9_1" d="M.7519989 .22024536C.7669983 .22024536 .7969971 .22024536 .7969971 .25024415 .7969971 .28125 .7679901 .28125 .7519989 .28125H.14099121C.12599182 .28125 .09599304 .28125 .09599304 .25123597 .09599304 .22024536 .125 .22024536 .14099121 .22024536H.7519989Z"/>
<path id="font_8_5" d="M.35398866 .62316897C.35398866 .6452637 .35398866 .65527346 .32798768 .65527346 .31698609 .65527346 .31498719 .65527346 .30599977 .64826968 .22898865 .5909424 .12599182 .5909424 .10499573 .5909424H.084991458V.5439453H.10499573C.12098694 .5439453 .17599488 .54493716 .23498535 .5639343V.04699707H.09599304V0C.13999939 .0029907227 .24598694 .0029907227 .29499818 .0029907227 .34399415 .0029907227 .44999696 .0029907227 .49398805 0V.04699707H.35398866V.62316897Z"/>
<path id="font_8_2" d="M.33799745 .24996948C.33799745 .37498475 .30499269 .48498536 .2579956 .5679779 .19198609 .6829834 .100997928 .75 .08198547 .75 .07398987 .75 .06399536 .746994 .06399536 .73599246 .06399536 .73098757 .06399536 .72898867 .08099365 .7129822 .20698548 .5849762 .24099732 .40797425 .24099732 .25097657 .24099732 .053970338 .18998719-.103027347 .07998657-.21403504 .06498718-.22903443 .06399536-.23002625 .06399536-.23503113 .06399536-.24603272 .07398987-.24902344 .08198547-.24902344 .09899902-.24902344 .14099121-.21203614 .15899658-.19503784 .31498719-.040023805 .33799745 .14398194 .33799745 .24996948Z"/>
<path id="font_8_3" d="M.47698976 .22024536H.7859955C.798996 .22024536 .82899478 .22024536 .82899478 .25024415 .82899478 .28125 .7999878 .28125 .7859955 .28125H.47698976V.5908356C.47698976 .6028137 .47698976 .6328125 .44699098 .6328125 .41600038 .6328125 .41600038 .6038208 .41600038 .5908356V.28125H.10699463C.09298706 .28125 .06399536 .28125 .06399536 .25024415 .06399536 .22024536 .09399414 .22024536 .10699463 .22024536H.41600038V-.08984375C.41600038-.10183716 .41600038-.13183594 .44599916-.13183594 .47698976-.13183594 .47698976-.10284424 .47698976-.08984375V.22024536Z"/>
<path id="font_8_8" d="M.44499208 .15611267H.5419922V.203125H.44499208V.62423709C.44499208 .6512451 .44299317 .65625 .4149933 .65625 .3939972 .65625 .3929901 .6552429 .3809967 .64024356L.03199768 .203125V.15611267H.31999208V.04699707H.20799256V0C.24598694 .0029907227 .33699037 .0029907227 .37998963 .0029907227 .41999818 .0029907227 .5069885 .0029907227 .5419922 0V.04699707H.44499208V.15611267M.33099366 .203125H.083999637L.33099366 .51319888V.203125Z"/>
<path id="font_3_28" d="M.58898928 .025985718C.58898928 .051986696 .57299807 .051986696 .5589905 .051986696 .49699403 .051986696 .49699403 .06199646 .49699403 .085006717V.29605104C.49699403 .38606263 .4249878 .45507813 .2619934 .45507813 .21299744 .45507813 .069992069 .45507813 .069992069 .35606385 .069992069 .31204225 .10398865 .28804017 .13699341 .28804017 .1769867 .28804017 .20498657 .31704713 .20498657 .35505677 .20498657 .3870697 .18399048 .4060669 .18399048 .4060669 .19198609 .4080658 .22099304 .41307069 .2599945 .41307069 .33999635 .41307069 .375 .36906434 .375 .29704286V.2680359C.22499085 .26704408 .02999878 .23402405 .02999878 .11199951 .02999878 .027160645 .12599182-.0068359377 .23498535-.0068359377 .33799745-.0068359377 .3809967 .04815674 .3939972 .06816101 .3939972 .037994386 .40499879 0 .5019989 0H.5549927C.57398989 0 .58898928 0 .58898928 .025985718M.375 .13699341C.375 .03515625 .25498963 .03515625 .25099183 .03515625 .19898987 .03515625 .1519928 .066207889 .1519928 .11427307 .1519928 .1843872 .24499512 .22746277 .375 .23046875V.13699341Z"/>
<path id="font_3_84" d="M.6389923 .22315979C.6389923 .3481598 .5499878 .45117188 .3889923 .45117188 .33198548 .45117188 .27598573 .43615724 .22799683 .40415956V.45117188L.04598999 .44335938V.39135743C.06498718 .39135743 .08299255 .39135743 .09498596 .38835145 .11199951 .38534547 .11199951 .37434388 .11199951 .35533143V-.14160156H.04598999V-.19360352C.099990848-.1906128 .1349945-.1906128 .17298889-.1906128 .21199036-.1906128 .24598694-.1906128 .2999878-.19360352V-.14160156H.23399353V.03715515C.28599549-.0008392334 .33499146-.0068359377 .36999513-.0068359377 .5339966-.0068359377 .6389923 .08818054 .6389923 .2232666V.22315979M.5039978 .2232666C.5039978 .08918762 .43299867 .03515625 .3600006 .03515625 .31498719 .03515625 .2669983 .057174684 .23399353 .10620117V.34233094C.25099183 .36315919 .30099488 .40415956 .37199403 .40415956 .45098878 .40415956 .5039978 .3371582 .5039978 .22315979V.2232666Z"/>
<path id="font_3_105" d="M.40699769 .12319946V.17422486H.35099793V.12519837C.35099793 .056167604 .31298829 .040161134 .2899933 .040161134 .23199463 .040161134 .23098755 .093185428 .23098755 .12019348V.39233399H.3869934V.44433595H.23098755V.6357422H.1749878C.17399597 .53652957 .12298584 .43632508 .022994996 .43432618V.39233399H.10899353V.12319946C.10899353 .02015686 .18998719-.0068359377 .2749939-.0068359377 .35099793-.0068359377 .40699769 .044158937 .40699769 .12319946Z"/>
<path id="font_3_109" d="M.6499939 .00015258789V.05215454C.59098818 .05215454 .58399966 .05215454 .58399966 .091033939V.45117188L.3959961 .443161V.39115907C.45498658 .39115907 .46199037 .39115907 .46199037 .35214234V.1620636C.46199037 .08604431 .40899659 .03515625 .32798768 .03515625 .24699402 .03515625 .24398804 .05809021 .24398804 .10903931V.45117188L.055999757 .443161V.39115907C.114990238 .39115907 .12199402 .39115907 .12199402 .35214234V.123046878C.12199402 .011154175 .21598816-.0068359377 .31399537-.0068359377 .34700013-.0068359377 .4139862-.0068359377 .46798707 .06303406V-.0068359377L.6499939 .00015258789Z"/>
</defs>
<path transform="matrix(1,0,0,-1,106.781,217.433)" stroke-width=".79701" stroke-linecap="butt" stroke-dasharray="1.99255,1.99255" stroke-miterlimit="10" stroke-linejoin="miter" fill="none" stroke="#000000" d="M-60.90652 102.0478H267.2703"/>
<path transform="matrix(-1,-0,0,1,45.874479,115.3852)" d="M2.59026 0-1.55415 2.0722 0 0-1.55415-2.0722"/>
<path transform="matrix(1,0,0,-1,374.0513,115.3852)" d="M2.59026 0-1.55415 2.0722 0 0-1.55415-2.0722"/>
<use data-text="y" xlink:href="#font_1_9" transform="matrix(7.9701,0,0,-7.9701,11.704998,113.19401)"/>
<use data-text="=" xlink:href="#font_2_13" transform="matrix(7.9701,0,0,-7.9701,19.385998,113.19401)"/>
<use data-text="4" xlink:href="#font_2_8" transform="matrix(7.9701,0,0,-7.9701,29.324715,113.19401)"/>
<use data-text="m" xlink:href="#font_3_75" transform="matrix(7.9701,0,0,-7.9701,7.1619989,122.65801)"/>
<use data-text="i" xlink:href="#font_3_66" transform="matrix(7.9701,0,0,-7.9701,15.299469,122.65801)"/>
<use data-text="d" xlink:href="#font_3_47" transform="matrix(7.9701,0,0,-7.9701,18.009305,122.65801)"/>
<use data-text="l" xlink:href="#font_3_72" transform="matrix(7.9701,0,0,-7.9701,23.436944,122.65801)"/>
<use data-text="i" xlink:href="#font_3_66" transform="matrix(7.9701,0,0,-7.9701,26.146779,122.65801)"/>
<use data-text="n" xlink:href="#font_3_77" transform="matrix(7.9701,0,0,-7.9701,28.856614,122.65801)"/>
<use data-text="e" xlink:href="#font_3_50" transform="matrix(7.9701,0,0,-7.9701,34.284254,122.65801)"/>
<path transform="matrix(1,0,0,-1,106.781,217.433)" stroke-width=".79701" stroke-linecap="butt" stroke-miterlimit="10" stroke-linejoin="miter" fill="none" stroke="#000000" d="M-58.8343 0H265.19807"/>
<path transform="matrix(-1,-0,0,1,47.946699,217.433)" d="M4.66248 0C3.28098 .25902 1.0361 1.0361-.51805 1.94269V-1.94269C1.0361-1.0361 3.28098-.25902 4.66248 0"/>
<path transform="matrix(1,0,0,-1,371.97908,217.433)" d="M4.66248 0C3.28098 .25902 1.0361 1.0361-.51805 1.94269V-1.94269C1.0361-1.0361 3.28098-.25902 4.66248 0"/>
<use data-text="x" xlink:href="#font_4_3" transform="matrix(8.9664,0,0,-8.9664,380.361,219.426)"/>
<path transform="matrix(1,0,0,-1,106.781,217.433)" stroke-width=".79701" stroke-linecap="butt" stroke-miterlimit="10" stroke-linejoin="miter" fill="none" stroke="#000000" d="M0-15.74715V194.33084"/>
<path transform="matrix(0,1,1,0,106.781,233.18015)" d="M4.66248 0C3.28098 .25902 1.0361 1.0361-.51805 1.94269V-1.94269C1.0361-1.0361 3.28098-.25902 4.66248 0"/>
<path transform="matrix(0,-1,-1,-0,106.781,23.102158)" d="M4.66248 0C3.28098 .25902 1.0361 1.0361-.51805 1.94269V-1.94269C1.0361-1.0361 3.28098-.25902 4.66248 0"/>
<use data-text="y" xlink:href="#font_4_4" transform="matrix(8.9664,0,0,-8.9664,103.886,12.977005)"/>
<path transform="matrix(1,0,0,-1,106.781,217.433)" stroke-width=".79701" stroke-linecap="butt" stroke-miterlimit="10" stroke-linejoin="miter" fill="none" stroke="#000000" d="M-39.68535 1.53064V-1.53064"/>
<use data-text="&#x2212;" xlink:href="#font_5_1" transform="matrix(4.9813,0,0,-4.9813,62.232,227.75299)"/>
<use data-text="1" xlink:href="#font_6_2" transform="matrix(4.9813,0,0,-4.9813,68.182,227.75299)"/>
<path transform="matrix(1,0,0,-1,106.781,217.433)" stroke-width=".79701" stroke-linecap="butt" stroke-miterlimit="10" stroke-linejoin="miter" fill="none" stroke="#000000" d="M39.68535 1.53064V-1.53064"/>
<use data-text="1" xlink:href="#font_6_2" transform="matrix(4.9813,0,0,-4.9813,144.578,227.31)"/>
<path transform="matrix(1,0,0,-1,106.781,217.433)" stroke-width=".79701" stroke-linecap="butt" stroke-miterlimit="10" stroke-linejoin="miter" fill="none" stroke="#000000" d="M79.37071 1.53064V-1.53064"/>
<use data-text="2" xlink:href="#font_6_3" transform="matrix(4.9813,0,0,-4.9813,184.263,227.31)"/>
<path transform="matrix(1,0,0,-1,106.781,217.433)" stroke-width=".79701" stroke-linecap="butt" stroke-miterlimit="10" stroke-linejoin="miter" fill="none" stroke="#000000" d="M119.05606 1.53064V-1.53064"/>
<use data-text="3" xlink:href="#font_6_4" transform="matrix(4.9813,0,0,-4.9813,223.948,227.31)"/>
<path transform="matrix(1,0,0,-1,106.781,217.433)" stroke-width=".79701" stroke-linecap="butt" stroke-miterlimit="10" stroke-linejoin="miter" fill="none" stroke="#000000" d="M158.74143 1.53064V-1.53064"/>
<use data-text="4" xlink:href="#font_6_5" transform="matrix(4.9813,0,0,-4.9813,263.634,227.31)"/>
<path transform="matrix(1,0,0,-1,106.781,217.433)" stroke-width=".79701" stroke-linecap="butt" stroke-miterlimit="10" stroke-linejoin="miter" fill="none" stroke="#000000" d="M198.42679 1.53064V-1.53064"/>
<use data-text="5" xlink:href="#font_6_6" transform="matrix(4.9813,0,0,-4.9813,303.319,227.31)"/>
<path transform="matrix(1,0,0,-1,106.781,217.433)" stroke-width=".79701" stroke-linecap="butt" stroke-miterlimit="10" stroke-linejoin="miter" fill="none" stroke="#000000" d="M238.11215 1.53064V-1.53064"/>
<use data-text="6" xlink:href="#font_6_7" transform="matrix(4.9813,0,0,-4.9813,343.00404,227.31)"/>
<path transform="matrix(1,0,0,-1,106.781,217.433)" stroke-width=".79701" stroke-linecap="butt" stroke-miterlimit="10" stroke-linejoin="miter" fill="none" stroke="#000000" d="M2.381 25.51193H-2.381"/>
<use data-text="1" xlink:href="#font_6_2" transform="matrix(4.9813,0,0,-4.9813,95.486,193.526)"/>
<path transform="matrix(1,0,0,-1,106.781,217.433)" stroke-width=".79701" stroke-linecap="butt" stroke-miterlimit="10" stroke-linejoin="miter" fill="none" stroke="#000000" d="M2.381 51.0239H-2.381"/>
<use data-text="2" xlink:href="#font_6_3" transform="matrix(4.9813,0,0,-4.9813,95.486,168.014)"/>
<path transform="matrix(1,0,0,-1,106.781,217.433)" stroke-width=".79701" stroke-linecap="butt" stroke-miterlimit="10" stroke-linejoin="miter" fill="none" stroke="#000000" d="M2.381 76.53586H-2.381"/>
<use data-text="3" xlink:href="#font_6_4" transform="matrix(4.9813,0,0,-4.9813,95.486,142.502)"/>
<path transform="matrix(1,0,0,-1,106.781,217.433)" stroke-width=".79701" stroke-linecap="butt" stroke-miterlimit="10" stroke-linejoin="miter" fill="none" stroke="#000000" d="M2.381 102.0478H-2.381"/>
<use data-text="4" xlink:href="#font_6_5" transform="matrix(4.9813,0,0,-4.9813,95.486,116.99)"/>
<path transform="matrix(1,0,0,-1,106.781,217.433)" stroke-width=".79701" stroke-linecap="butt" stroke-miterlimit="10" stroke-linejoin="miter" fill="none" stroke="#000000" d="M2.381 127.55977H-2.381"/>
<use data-text="5" xlink:href="#font_6_6" transform="matrix(4.9813,0,0,-4.9813,95.486,91.478)"/>
<path transform="matrix(1,0,0,-1,106.781,217.433)" stroke-width=".79701" stroke-linecap="butt" stroke-miterlimit="10" stroke-linejoin="miter" fill="none" stroke="#000000" d="M2.381 153.07172H-2.381"/>
<use data-text="6" xlink:href="#font_6_7" transform="matrix(4.9813,0,0,-4.9813,95.486,65.966)"/>
<path transform="matrix(1,0,0,-1,106.781,217.433)" stroke-width=".79701" stroke-linecap="butt" stroke-miterlimit="10" stroke-linejoin="miter" fill="none" stroke="#000000" d="M2.381 178.58368H-2.381"/>
<use data-text="7" xlink:href="#font_6_8" transform="matrix(4.9813,0,0,-4.9813,95.486,40.453996)"/>
<use data-text="0" xlink:href="#font_6_1" transform="matrix(4.9813,0,0,-4.9813,111.151,225.58)"/>
<path transform="matrix(1,0,0,-1,106.781,217.433)" stroke-width="1.59404" stroke-linecap="butt" stroke-miterlimit="10" stroke-linejoin="miter" fill="none" stroke="#000000" d="M-30.70967 132.27378-30.63295 132.00536-29.51752 128.00199-28.40211 123.91452-27.2867 119.75816-26.17128 115.54808-25.05585 111.2948-23.94041 107.0123-22.825 102.71349-21.70958 98.41464-20.59415 94.12514-19.47873 89.86018-18.3633 85.6349-17.24786 81.4622-16.13243 77.35138-15.01703 73.31999-13.9016 69.38084-12.78616 65.5433-11.67075 61.82256-10.55531 58.22678-9.4399 54.77112-8.32448 51.46494-7.20905 48.31877-6.09361 45.34077-4.97821 42.54144-3.86278 39.93248-2.74738 37.51854-1.63194 35.30899-.51651 33.30963 .59886 31.52751 1.7143 29.96844 2.8297 28.63708 3.94513 27.53697 5.06056 26.67044 6.17598 26.04681 7.29141 25.66258 8.40685 25.5166 9.52225 25.61237 10.63768 25.95105 11.75311 26.53146 12.86853 27.34895 13.98396 28.40234 15.09938 29.6858 16.2148 31.20401 17.33023 32.94293 18.44566 34.89906 19.56107 37.06659 20.6765 39.44199 21.7919 42.01476 22.90733 44.77786 24.02277 47.7185 25.13818 50.83197 26.25362 54.1101 27.36903 57.53658 28.48447 61.10551 29.59988 64.80057 30.71532 68.61708 31.83075 72.53871 32.94617 76.55258 34.06158 80.64705 35.17702 84.80925 36.29243 89.02634 37.40787 93.28313 38.5233 97.57028 39.63872 101.86795 40.75414 106.1668 41.86957 110.45395 42.98497 114.71425 44.1004 118.93484 45.21582 123.10287 46.33124 127.20319 47.44667 131.22524 48.56209 135.15387 49.67752 138.97972 50.79295 142.68764 51.90837 146.2659 53.02379 149.7052 54.13922 152.99501 55.25464 156.12369 56.37007 159.0795 57.4855 161.85665 58.6009 164.44576 59.71634 166.83748 60.83177 169.02486 61.9472 170.99735 63.06262 172.75496 64.17805 174.2895 65.29347 175.59633 66.40889 176.6684 67.5243 177.50576 68.63972 178.10369 69.75516 178.4634 70.87057 178.5825 71.986 178.45636 73.10143 178.08966 74.21686 177.48357 75.33228 176.64037 76.44771 175.56012 77.56313 174.24745 78.67854 172.70592 79.79398 170.94362 80.90941 168.96295 82.02483 166.76976 83.14024 164.37216 84.25568 161.7784 85.3711 158.99657 86.48653 156.03376 87.60196 152.89926 88.71738 149.60477 89.8328 146.16197 90.94823 142.58019 92.06363 138.86762 93.17906 135.03943 94.29448 131.10729 95.4099 127.08524 96.52533 122.98024 97.64075 118.81105 98.75618 114.5893 99.87161 110.32782 100.98705 106.04066 102.10245 101.74184 103.21788 97.443 104.33331 93.15817 105.44873 88.90022 106.56416 84.68663 107.67958 80.5256 108.795 76.4323 109.91043 72.42076 111.02586 68.50262 112.14128 64.69078 113.25671 60.99806 114.37213 57.43497 115.48753 54.00967 116.60297 50.73737 117.71838 47.62973 118.83382 44.69261 119.94925 41.93533 121.06465 39.36842 122.18008 37.00119 123.29552 34.83833 124.41093 32.88805 125.52637 31.15495 126.64178 29.64493 127.7572 28.36848 128.87264 27.3221 129.98807 26.51045 131.1035 25.93703 132.21892 25.60654 133.33434 25.51778 134.44977 25.67075 135.56519 26.06082 136.68062 26.69379 137.79605 27.56618 138.91146 28.67328 140.02687 30.01164 141.14229 31.57538 142.25772 33.36569 143.37316 35.37088 144.48857 37.58745 145.60399 40.00606 146.71942 42.62202 147.83484 45.42719 148.95027 48.4087 150.0657 51.56071 151.1811 54.87038 152.29654 58.3307 153.41197 61.93117 154.52739 65.65543 155.64282 69.49529 156.75826 73.43796 157.87366 77.47052 158.98909 81.58366 160.10453 85.7587 161.21994 89.98631 162.33538 94.25127 163.45076 98.54193 164.5662 102.84077 165.68163 107.1396 166.79705 111.42093 167.91248 115.67305 169.02791 119.88196 170.14333 124.03598 171.25875 128.1211 172.37418 132.12213 173.48961 136.02742 174.60503 139.82758 175.72045 143.50746 176.83588 147.05655 177.9513 150.46314 179.06673 153.71675 180.18216 156.80689 181.29758 159.72531 182.413 162.4604 183.52843 165.00397 184.64385 167.349 185.75928 169.48966 186.87471 171.41777 187.9901 173.12284 189.10553 174.60483 190.22095 175.85675 191.33638 176.87862 192.45182 177.66225 193.56723 178.20528 194.68265 178.50894 195.79808 178.57434 196.9135 178.39565 198.02893 177.97522 199.14437 177.31423 200.25978 176.41616 201.3752 175.28334 202.49063 173.92046 203.60607 172.32752 204.72148 170.51387 205.83692 168.4853 206.95233 166.24657 208.06775 163.80344 209.18318 161.16411 210.29862 158.34026 211.41402 155.34006 212.52945 152.17052 213.64485 148.83985 214.76029 145.36315 215.87572 141.751 216.99114 138.01158 218.10657 134.15885 219.22199 130.20453 220.3374 126.16263 221.45284 122.04364 222.56827 117.86276 223.68369 113.62816 224.79912 109.35966 225.91454 105.06784 227.02996 100.76901 228.14539 96.4725 229.26082 92.1912 230.37624 87.94492 231.49166 83.74066 232.60709 79.59247 233.7225 75.51904 234.83794 71.52736 235.95334 67.63258 237.06877 63.8441 238.18419 60.17941 239.2996 56.64784 240.41504 53.25758 241.53047 50.02032 242.6459 46.94888 243.7613 44.05263 244.87674 41.33856 244.46135 42.27838"/>
<path transform="matrix(-.27437,-.96158,-.96158,.27437,76.07133,85.159229)" d="M3.78581 0-2.27148 3.02866 0 0-2.27148-3.02866"/>
<path transform="matrix(.40436,.91457,.91457,-.40436,351.24235,175.1546)" d="M3.78581 0-2.27148 3.02866 0 0-2.27148-3.02866"/>
<path transform="matrix(1,0,0,-1,106.781,217.433)" d="M41.51712 102.0478C41.51712 103.05946 40.697 103.87958 39.68535 103.87958 38.67369 103.87958 37.85358 103.05946 37.85358 102.0478 37.85358 101.03615 38.67369 100.21602 39.68535 100.21602 40.697 100.21602 41.51712 101.03615 41.51712 102.0478ZM39.68535 102.0478"/>
<path transform="matrix(1,0,0,-1,106.781,217.433)" stroke-width=".3985" stroke-linecap="butt" stroke-miterlimit="10" stroke-linejoin="miter" fill="none" stroke="#ffffff" d="M41.51712 102.0478C41.51712 103.05946 40.697 103.87958 39.68535 103.87958 38.67369 103.87958 37.85358 103.05946 37.85358 102.0478 37.85358 101.03615 38.67369 100.21602 39.68535 100.21602 40.697 100.21602 41.51712 101.03615 41.51712 102.0478ZM39.68535 102.0478"/>
<path transform="matrix(1,0,0,-1,106.781,217.433)" d="M103.8543 102.0478C103.8543 103.05946 103.03418 103.87958 102.02252 103.87958 101.01086 103.87958 100.19075 103.05946 100.19075 102.0478 100.19075 101.03615 101.01086 100.21602 102.02252 100.21602 103.03418 100.21602 103.8543 101.03615 103.8543 102.0478ZM102.02252 102.0478"/>
<path transform="matrix(1,0,0,-1,106.781,217.433)" stroke-width=".3985" stroke-linecap="butt" stroke-miterlimit="10" stroke-linejoin="miter" fill="none" stroke="#ffffff" d="M103.8543 102.0478C103.8543 103.05946 103.03418 103.87958 102.02252 103.87958 101.01086 103.87958 100.19075 103.05946 100.19075 102.0478 100.19075 101.03615 101.01086 100.21602 102.02252 100.21602 103.03418 100.21602 103.8543 101.03615 103.8543 102.0478ZM102.02252 102.0478"/>
<path transform="matrix(1,0,0,-1,106.781,217.433)" d="M166.19211 102.0478C166.19211 103.05946 165.372 103.87958 164.36034 103.87958 163.34867 103.87958 162.52855 103.05946 162.52855 102.0478 162.52855 101.03615 163.34867 100.21602 164.36034 100.21602 165.372 100.21602 166.19211 101.03615 166.19211 102.0478ZM164.36034 102.0478"/>
<path transform="matrix(1,0,0,-1,106.781,217.433)" stroke-width=".3985" stroke-linecap="butt" stroke-miterlimit="10" stroke-linejoin="miter" fill="none" stroke="#ffffff" d="M166.19211 102.0478C166.19211 103.05946 165.372 103.87958 164.36034 103.87958 163.34867 103.87958 162.52855 103.05946 162.52855 102.0478 162.52855 101.03615 163.34867 100.21602 164.36034 100.21602 165.372 100.21602 166.19211 101.03615 166.19211 102.0478ZM164.36034 102.0478"/>
<path transform="matrix(1,0,0,-1,106.781,217.433)" d="M72.68541 178.58368C72.68541 179.59534 71.8653 180.41547 70.85364 180.41547 69.84196 180.41547 69.02185 179.59534 69.02185 178.58368 69.02185 177.57202 69.84196 176.7519 70.85364 176.7519 71.8653 176.7519 72.68541 177.57202 72.68541 178.58368ZM70.85364 178.58368"/>
<path transform="matrix(1,0,0,-1,106.781,217.433)" stroke-width=".3985" stroke-linecap="butt" stroke-miterlimit="10" stroke-linejoin="miter" fill="none" stroke="#ffffff" d="M72.68541 178.58368C72.68541 179.59534 71.8653 180.41547 70.85364 180.41547 69.84196 180.41547 69.02185 179.59534 69.02185 178.58368 69.02185 177.57202 69.84196 176.7519 70.85364 176.7519 71.8653 176.7519 72.68541 177.57202 72.68541 178.58368ZM70.85364 178.58368"/>
<path transform="matrix(1,0,0,-1,106.781,217.433)" d="M135.02321 25.51193C135.02321 26.5236 134.2031 27.34372 133.19142 27.34372 132.17977 27.34372 131.35965 26.5236 131.35965 25.51193 131.35965 24.50027 132.17977 23.68016 133.19142 23.68016 134.2031 23.68016 135.02321 24.50027 135.02321 25.51193ZM133.19142 25.51193"/>
<path transform="matrix(1,0,0,-1,106.781,217.433)" stroke-width=".3985" stroke-linecap="butt" stroke-miterlimit="10" stroke-linejoin="miter" fill="none" stroke="#ffffff" d="M135.02321 25.51193C135.02321 26.5236 134.2031 27.34372 133.19142 27.34372 132.17977 27.34372 131.35965 26.5236 131.35965 25.51193 131.35965 24.50027 132.17977 23.68016 133.19142 23.68016 134.2031 23.68016 135.02321 24.50027 135.02321 25.51193ZM133.19142 25.51193"/>
<use data-text="(" xlink:href="#font_2_1" transform="matrix(7.9701,0,0,-7.9701,121.47,124.882999)"/>
<use data-text="1" xlink:href="#font_2_5" transform="matrix(7.9701,0,0,-7.9701,125.26376,124.882999)"/>
<use data-text="," xlink:href="#font_1_3" transform="matrix(7.9701,0,0,-7.9701,130.149,124.882999)"/>
<use data-text="4" xlink:href="#font_2_8" transform="matrix(7.9701,0,0,-7.9701,134.27301,124.882999)"/>
<use data-text=")" xlink:href="#font_2_2" transform="matrix(7.9701,0,0,-7.9701,139.1507,124.882999)"/>
<use data-text="(" xlink:href="#font_2_1" transform="matrix(7.9701,0,0,-7.9701,163.952,127.998)"/>
<use data-text="&#x03c0;" xlink:href="#font_1_1" transform="matrix(7.9701,0,0,-7.9701,168.945,122.448)"/>
<path transform="matrix(1,0,0,-1,129.171,-17.429993)" stroke-width=".3587" stroke-linecap="butt" stroke-miterlimit="10" stroke-linejoin="miter" fill="none" stroke="#000000" d="M39.774-143.436H45.887"/>
<use data-text="2" xlink:href="#font_2_6" transform="matrix(7.9701,0,0,-7.9701,169.561,133.96901)"/>
<use data-text="+" xlink:href="#font_2_3" transform="matrix(7.9701,0,0,-7.9701,178.13501,127.99802)"/>
<use data-text="1" xlink:href="#font_2_5" transform="matrix(7.9701,0,0,-7.9701,187.60349,127.99802)"/>
<use data-text="," xlink:href="#font_1_3" transform="matrix(7.9701,0,0,-7.9701,192.49301,127.99802)"/>
<use data-text="4" xlink:href="#font_2_8" transform="matrix(7.9701,0,0,-7.9701,196.616,127.99802)"/>
<use data-text=")" xlink:href="#font_2_2" transform="matrix(7.9701,0,0,-7.9701,201.49372,127.99802)"/>
<use data-text="(" xlink:href="#font_2_1" transform="matrix(7.9701,0,0,-7.9701,274.68,124.882999)"/>
<use data-text="&#x03c0;" xlink:href="#font_1_1" transform="matrix(7.9701,0,0,-7.9701,278.477,124.882999)"/>
<use data-text="+" xlink:href="#font_2_3" transform="matrix(7.9701,0,0,-7.9701,286.472,124.882999)"/>
<use data-text="1" xlink:href="#font_2_5" transform="matrix(7.9701,0,0,-7.9701,295.9405,124.882999)"/>
<use data-text="," xlink:href="#font_1_3" transform="matrix(7.9701,0,0,-7.9701,300.83003,124.882999)"/>
<use data-text="4" xlink:href="#font_2_8" transform="matrix(7.9701,0,0,-7.9701,304.953,124.882999)"/>
<use data-text=")" xlink:href="#font_2_2" transform="matrix(7.9701,0,0,-7.9701,309.8307,124.882999)"/>
<use data-text="(" xlink:href="#font_2_1" transform="matrix(7.9701,0,0,-7.9701,156.97101,29.36)"/>
<use data-text="&#x03c0;" xlink:href="#font_1_1" transform="matrix(7.9701,0,0,-7.9701,161.964,23.809998)"/>
<path transform="matrix(1,0,0,-1,122.19,-116.06799)" stroke-width=".3587" stroke-linecap="butt" stroke-miterlimit="10" stroke-linejoin="miter" fill="none" stroke="#000000" d="M39.774-143.436H45.887"/>
<use data-text="4" xlink:href="#font_2_8" transform="matrix(7.9701,0,0,-7.9701,162.58,35.33101)"/>
<use data-text="+" xlink:href="#font_2_3" transform="matrix(7.9701,0,0,-7.9701,171.154,29.360016)"/>
<use data-text="1" xlink:href="#font_2_5" transform="matrix(7.9701,0,0,-7.9701,180.62248,29.360016)"/>
<use data-text="," xlink:href="#font_1_3" transform="matrix(7.9701,0,0,-7.9701,185.512,29.360016)"/>
<use data-text="7" xlink:href="#font_2_11" transform="matrix(7.9701,0,0,-7.9701,189.63501,29.360016)"/>
<use data-text=")" xlink:href="#font_2_2" transform="matrix(7.9701,0,0,-7.9701,194.5127,29.360016)"/>
<use data-text="(" xlink:href="#font_2_1" transform="matrix(7.9701,0,0,-7.9701,216.875,206.127)"/>
<use data-text="3" xlink:href="#font_2_7" transform="matrix(7.9701,0,0,-7.9701,221.868,200.577)"/>
<use data-text="&#x03c0;" xlink:href="#font_1_1" transform="matrix(7.9701,0,0,-7.9701,226.75,200.577)"/>
<path transform="matrix(1,0,0,-1,182.094,60.699007)" stroke-width=".3587" stroke-linecap="butt" stroke-miterlimit="10" stroke-linejoin="miter" fill="none" stroke="#000000" d="M39.774-143.436H50.769"/>
<use data-text="4" xlink:href="#font_2_8" transform="matrix(7.9701,0,0,-7.9701,224.924,212.098)"/>
<use data-text="+" xlink:href="#font_2_3" transform="matrix(7.9701,0,0,-7.9701,235.94,206.12702)"/>
<use data-text="1" xlink:href="#font_2_5" transform="matrix(7.9701,0,0,-7.9701,245.40848,206.12702)"/>
<use data-text="," xlink:href="#font_1_3" transform="matrix(7.9701,0,0,-7.9701,250.298,206.12702)"/>
<use data-text="1" xlink:href="#font_2_5" transform="matrix(7.9701,0,0,-7.9701,254.42099,206.12702)"/>
<use data-text=")" xlink:href="#font_2_2" transform="matrix(7.9701,0,0,-7.9701,259.2987,206.12702)"/>
<use data-text="y" xlink:href="#font_7_8" transform="matrix(9.9626,0,0,-9.9626,217.45099,26.033005)"/>
<use data-text="=" xlink:href="#font_8_12" transform="matrix(9.9626,0,0,-9.9626,226.46799,26.033005)"/>
<use data-text="3" xlink:href="#font_8_7" transform="matrix(9.9626,0,0,-9.9626,238.1342,26.033005)"/>
<use data-text="s" xlink:href="#font_8_17" transform="matrix(9.9626,0,0,-9.9626,245.52645,26.033005)"/>
<use data-text="i" xlink:href="#font_8_14" transform="matrix(9.9626,0,0,-9.9626,250.0395,26.033005)"/>
<use data-text="n" xlink:href="#font_8_15" transform="matrix(9.9626,0,0,-9.9626,253.21758,26.033005)"/>
<use data-text="2" xlink:href="#font_8_6" transform="matrix(9.9626,0,0,-9.9626,261.2375,26.033005)"/>
<use data-text="(" xlink:href="#font_8_1" transform="matrix(9.9626,0,0,-9.9626,266.96598,26.033005)"/>
<use data-text="x" xlink:href="#font_7_7" transform="matrix(9.9626,0,0,-9.9626,271.447,26.033005)"/>
<use data-text="&#x2212;" xlink:href="#font_9_1" transform="matrix(9.9626,0,0,-9.9626,280.22599,26.033005)"/>
<use data-text="1" xlink:href="#font_8_5" transform="matrix(9.9626,0,0,-9.9626,291.35099,26.033005)"/>
<use data-text=")" xlink:href="#font_8_2" transform="matrix(9.9626,0,0,-9.9626,297.07948,26.033005)"/>
<use data-text="+" xlink:href="#font_8_3" transform="matrix(9.9626,0,0,-9.9626,303.74449,26.033005)"/>
<use data-text="4" xlink:href="#font_8_8" transform="matrix(9.9626,0,0,-9.9626,314.86274,26.033005)"/>
<path transform="matrix(1,0,0,-1,106.781,217.433)" stroke-width=".79701" stroke-linecap="butt" stroke-miterlimit="10" stroke-linejoin="miter" fill="none" stroke="#000000" d="M194.458 106.71028V173.9212"/>
<path transform="matrix(0,1,1,0,301.23899,110.72272)" d="M4.66248 0C3.28098 .25902 1.0361 1.0361-.51805 1.94269V-1.94269C1.0361-1.0361 3.28098-.25902 4.66248 0"/>
<path transform="matrix(0,-1,-1,-0,301.23899,43.511796)" d="M4.66248 0C3.28098 .25902 1.0361 1.0361-.51805 1.94269V-1.94269C1.0361-1.0361 3.28098-.25902 4.66248 0"/>
<use data-text="a" xlink:href="#font_3_28" transform="matrix(0,-7.9701,-7.9701,-0,297.279,102.613018)"/>
<use data-text="m" xlink:href="#font_3_75" transform="matrix(0,-7.9701,-7.9701,-0,297.279,97.86284)"/>
<use data-text="p" xlink:href="#font_3_84" transform="matrix(0,-7.9701,-7.9701,-0,297.279,89.725368)"/>
<use data-text="l" xlink:href="#font_3_72" transform="matrix(0,-7.9701,-7.9701,-0,297.279,84.29773)"/>
<use data-text="i" xlink:href="#font_3_66" transform="matrix(0,-7.9701,-7.9701,-0,297.279,81.58789)"/>
<use data-text="t" xlink:href="#font_3_105" transform="matrix(0,-7.9701,-7.9701,-0,297.279,78.87805)"/>
<use data-text="u" xlink:href="#font_3_109" transform="matrix(0,-7.9701,-7.9701,-0,297.279,75.08429)"/>
<use data-text="d" xlink:href="#font_3_47" transform="matrix(0,-7.9701,-7.9701,-0,297.279,69.656658)"/>
<use data-text="e" xlink:href="#font_3_50" transform="matrix(0,-7.9701,-7.9701,-0,297.279,64.22902)"/>
<use data-text="3" xlink:href="#font_2_7" transform="matrix(0,-7.9701,-7.9701,-0,297.279,56.505014)"/>
</svg>
