<svg style="overflow: visible;" xmlns="http://www.w3.org/2000/svg" xmlns:xlink="http://www.w3.org/1999/xlink" xmlns:inkscape="http://www.inkscape.org/namespaces/inkscape" version="1.1" width="100%" height="100%" viewBox="0 0 535.58 280.26">
<defs>
<path id="font_1_7" d="M.5359955 .4011383C.5 .3911438 .48199464 .35714723 .48199464 .33215333 .48199464 .31015016 .49899293 .28614808 .5319977 .28614808 .5669861 .28614808 .60398867 .31515504 .60398867 .364151 .60398867 .41714479 .5509949 .45214845 .48999024 .45214845 .43299867 .45214845 .3959961 .4091339 .3829956 .3911438 .35798646 .433136 .3019867 .45214845 .24499512 .45214845 .11898804 .45214845 .050994874 .32914735 .050994874 .29615785 .050994874 .28215028 .06599426 .28215028 .07499695 .28215028 .08699036 .28215028 .09399414 .28215028 .09799194 .29515077 .1269989 .38613893 .19898987 .4161377 .23999024 .4161377 .27799989 .4161377 .29599 .39814759 .29599 .3661499 .29599 .3471527 .28199769 .29216004 .272995 .2561493L.23899842 .11917114C.22399903 .058181764 .18798828 .028182984 .1539917 .028182984 .14898682 .028182984 .12599182 .028182984 .10598755 .043182374 .14199829 .05317688 .1599884 .08717346 .1599884 .11216736 .1599884 .13417053 .14299011 .1581726 .10998535 .1581726 .07499695 .1581726 .037994386 .12916565 .037994386 .08016968 .037994386 .027175904 .09098816-.0078125 .1519928-.0078125 .20899964-.0078125 .24598694 .035186769 .25898744 .05317688 .28399659 .011184692 .33999635-.0078125 .39698792-.0078125 .522995-.0078125 .59098818 .11517334 .59098818 .14816284 .59098818 .16217041 .57598879 .16217041 .5669861 .16217041 .5549927 .16217041 .5479889 .16217041 .5439911 .14916992 .5149994 .058181764 .44299317 .028182984 .4019928 .028182984 .3639984 .028182984 .34599305 .046173097 .34599305 .07817078 .34599305 .09916687 .35899354 .15216065 .36799623 .18916321 .375 .21516419 .397995 .30915834 .40299989 .32514955 .41799928 .3851471 .45298768 .4161377 .48799134 .4161377 .49299623 .4161377 .5159912 .4161377 .5359955 .4011383Z"/>
<path id="font_1_8" d="M.57699587 .3771515C.58200076 .3951416 .58200076 .3971405 .58200076 .40014649 .58200076 .4221344 .56599429 .44413758 .5349884 .44413758 .48298646 .44413758 .47099305 .3971405 .46398927 .3701477L.43798829 .26615907C.42599488 .2181549 .40699769 .14117432 .3959961 .10017395 .3909912 .07817078 .3600006 .05418396 .35699464 .05218506 .34599305 .045181276 .32199098 .028182984 .2889862 .028182984 .22999573 .028182984 .22898865 .07817078 .22898865 .10116577 .22898865 .16217041 .2599945 .24015808 .28799439 .31214906 .2979889 .33815003 .30099488 .3451538 .30099488 .3621521 .30099488 .4201355 .24299622 .45214845 .18798828 .45214845 .08198547 .45214845 .03199768 .31614686 .03199768 .29615785 .03199768 .28215028 .04699707 .28215028 .055999757 .28215028 .067993167 .28215028 .07499695 .28215028 .07899475 .29515077 .11199951 .4061432 .16699219 .4161377 .18199158 .4161377 .18899536 .4161377 .19898987 .4161377 .19898987 .3951416 .19898987 .3721466 .18798828 .34614564 .18199158 .33015443 .14299011 .23016358 .12199402 .173172 .12199402 .122177127 .12199402 .008178711 .22200012-.0078125 .2809906-.0078125 .30599977-.0078125 .33999635-.0038146973 .3769989 .02218628 .34899903-.10101318 .27398683-.16615296 .20498657-.16615296 .19198609-.16615296 .1639862-.16415406 .14399719-.15213013 .17599488-.13909912 .19198609-.11204529 .19198609-.0849762 .19198609-.04890442 .16299439-.038879396 .14299011-.038879396 .10598755-.038879396 .070999149-.07095337 .070999149-.11505127 .070999149-.16615296 .12399292-.20214844 .20498657-.20214844 .31999208-.20214844 .45199586-.12506104 .48298646-.0008239746L.57699587 .3771515Z"/>
<path id="font_2_1" d="M.47299195 .31976319C.47299195 .38682557 .46998597 .47288514 .43499757 .5479431 .3909912 .64201357 .31498719 .6660156 .25698854 .6660156 .19699097 .6660156 .12098694 .64201357 .07699585 .5459442 .04499817 .47688294 .039993287 .39582826 .039993287 .31976319 .039993287 .25471498 .041992189 .15765381 .084991458 .07858276 .13198853-.0064697267 .20999146-.022460938 .2559967-.022460938 .32099916-.022460938 .394989 .0055389406 .43699647 .097595218 .46699525 .1646576 .47299195 .23971558 .47299195 .31976319M.25698854 .002532959C.22698975 .002532959 .15499878 .016540528 .13598633 .12962342 .12599182 .18867493 .12599182 .2747345 .12599182 .33177186 .12599182 .39982606 .12599182 .47888185 .13798523 .53393557 .1579895 .6230011 .22200012 .64100649 .2559967 .64100649 .2939911 .64100649 .35699464 .62098696 .37599183 .5279236 .3869934 .47288514 .3869934 .39482118 .3869934 .33177186 .3869934 .2697296 .3869934 .18566895 .3769989 .12661743 .35598756 .012542725 .28199769 .002532959 .25698854 .002532959Z"/>
<path id="font_3_64" d="M.2849884 .1850586V.24707031H.010986328V.1850586H.2849884Z"/>
<path id="font_3_106" d="M.46998597 .17008972C.46998597 .25709535 .40098573 .33110047 .30499269 .35209657 .397995 .38710023 .44198609 .46009828 .44198609 .5290985 .44198609 .60606387 .35699464 .6660156 .25299073 .6660156 .14898682 .6660156 .070999149 .60705569 .070999149 .5310974 .070999149 .49809266 .09298706 .47909547 .12199402 .47909547 .15098572 .47909547 .17199707 .50009158 .17199707 .5290985 .17199707 .5640869 .147995 .57910159 .11399841 .57910159 .13999939 .6210327 .20098877 .64100649 .25 .64100649 .33299256 .64100649 .34899903 .5750885 .34899903 .52809146 .34899903 .49809266 .34298707 .45005799 .31799317 .41201783 .2869873 .36695863 .2519989 .36495973 .22299195 .36296083 .19799805 .36094667 .19599915 .36094667 .18798828 .36094667 .1789856 .35995484 .17098999 .35894776 .17098999 .34794618 .17098999 .33496095 .1789856 .33496095 .19599915 .33496095H.24299622C.32998658 .33496095 .36799623 .2646637 .36799623 .16937256 .36799623 .04145813 .2999878 .0055389406 .24899292 .0055389406 .22999573 .0055389406 .1329956 .010528564 .08799744 .0843811 .12399292 .07939148 .1519928 .10437012 .1519928 .13838196 .1519928 .17137146 .1269989 .19238281 .09799194 .19238281 .07299805 .19238281 .042999269 .17736817 .042999269 .13537598 .042999269 .046447755 .13598633-.022460938 .2519989-.022460938 .3769989-.022460938 .46998597 .06741333 .46998597 .16937256V.17008972Z"/>
<path id="font_3_107" d="M.46199037 .17704773H.43399049C.43199159 .16404724 .42399598 .10501099 .41099549 .08900452 .40499879 .07998657 .33599855 .07998657 .31599427 .07998657H.13798523L.23699951 .17404175C.40098573 .3161316 .46199037 .36915589 .46199037 .4711914 .46199037 .5860901 .36698915 .6660156 .24398804 .6660156 .1289978 .6660156 .050994874 .575119 .050994874 .4841919 .050994874 .43418885 .09399414 .42919923 .102996829 .42919923 .125 .42919923 .15499878 .44519044 .15499878 .48120118 .15499878 .51119998 .13398743 .5332031 .102996829 .5332031 .09799194 .5332031 .09498596 .5332031 .09098816 .53219607 .114990238 .6030731 .1789856 .63500979 .23298645 .63500979 .33499146 .63500979 .36999513 .5401764 .36999513 .4711914 .36999513 .36915589 .29299928 .28611756 .24499512 .23408509L.06199646 .035995485C.050994874 .024993897 .050994874 .022994996 .050994874 0H.43399049L.46199037 .17704773Z"/>
<path id="font_3_82" d="M.43199159 0V.0309906H.3999939C.30699159 .0309906 .3039856 .042999269 .3039856 .08001709V.63912966C.3039856 .6640167 .30299378 .6660156 .27799989 .6660156 .21598816 .60227969 .12399292 .60227969 .09298706 .60227969V.57128909C.11199951 .57128909 .17298889 .57128909 .22698975 .5972748V.08001709C.22698975 .042999269 .22399903 .0309906 .1309967 .0309906H.09899902V0C.1349945 .0029907227 .22399903 .0029907227 .2649994 .0029907227 .30599977 .0029907227 .3959961 .0029907227 .43199159 0Z"/>
<path id="font_3_57" d="M.48399354 .16503906V.19602967H.38198854V.649765C.38198854 .669754 .38198854 .6767578 .36299134 .6767578 .35099793 .6767578 .34999085 .67575076 .34098817 .6617584L.0289917 .19602967V.16503906H.3019867V.07901001C.3019867 .041992189 .29899598 .0309906 .22399903 .0309906H.20199585V0C.2649994 .0029907227 .33499146 .0029907227 .34199525 .0029907227 .34700013 .0029907227 .4189911 .0029907227 .48199464 0V.0309906H.45999146C.3849945 .0309906 .38198854 .041992189 .38198854 .07901001V.16503906H.48399354M.30799867 .19602967H.06098938L.30799867 .56581118V.19602967Z"/>
<path id="font_3_56" d="M.46199037 .19992066C.46199037 .3209076 .37599183 .41992188 .2669983 .41992188 .21899414 .41992188 .16999817 .4039154 .1349945 .36791993V.5647888C.16499329 .55578616 .19599915 .55078127 .22698975 .55078127 .34999085 .55078127 .42199708 .63983157 .42199708 .6529236 .42199708 .6619873 .41600038 .6660156 .41099549 .6660156 .41099549 .6660156 .40699769 .6660156 .397995 .6609802 .35099793 .6418457 .30499269 .63378909 .2630005 .63378909 .21998596 .63378909 .1749878 .6418457 .1289978 .6609802 .11898804 .6660156 .115997318 .6660156 .115997318 .6660156 .10398865 .6660156 .10398865 .6559448 .10398865 .63882449V.34490968C.10398865 .32699586 .10398865 .31599427 .117996219 .31599427 .12599182 .31562806 .1289978 .3196411 .1349945 .32867433 .16499329 .37083436 .21299744 .39491273 .2649994 .39491273 .37199403 .39491273 .37199403 .24035645 .37199403 .20422364 .37199403 .17321778 .37199403 .11122131 .34399415 .06636047 .31698609 .024475098 .2749939 .0055389406 .23599243 .0055389406 .1769867 .0055389406 .10998535 .042419435 .085998538 .11621094 .085998538 .116882327 .09298706 .11488342 .099990848 .11488342 .11999512 .11488342 .14898682 .12788391 .14898682 .1638794 .14898682 .19488526 .1269989 .21289063 .099990848 .21289063 .07899475 .21289063 .050994874 .20088196 .050994874 .16088867 .050994874 .069732669 .1269989-.022460938 .23799134-.022460938 .35899354-.02279663 .46199037 .07521057 .46199037 .19921875V.19992066Z"/>
<path id="font_3_101" d="M.46998597 .20277405C.46998597 .32977296 .37799073 .42578126 .2649994 .42578126 .20498657 .42578126 .1619873 .3907776 .13398743 .33078004 .13398743 .43276979 .14498902 .4897766 .17199707 .54177859 .19198609 .58277896 .24099732 .64100649 .31498719 .64100649 .33499146 .64100649 .3809967 .63697817 .4039917 .6007843 .36698915 .6007843 .35099793 .5817871 .35099793 .55477908 .35099793 .5287781 .36898805 .50878909 .39698792 .50878909 .4249878 .50878909 .44400025 .5267792 .44400025 .55677798 .44400025 .61299136 .4039917 .6660156 .31298829 .6660156 .18399048 .6660156 .042999269 .5389252 .042999269 .31576539 .042999269 .044555665 .16499329-.022460938 .25898744-.022460938 .36999513-.022460938 .46998597 .07052612 .46998597 .2025299V.20277405M.3789978 .20353699C.3789978 .15553284 .3789978 .106536868 .3600006 .0695343 .32899476 .012527466 .2849884 .0055389406 .2579956 .0055389406 .20098877 .0055389406 .16799927 .05253601 .1559906 .08152771 .13699341 .12652588 .13598633 .20953369 .13598633 .2255249 .13598633 .2927704 .16699219 .4007721 .2630005 .4007721 .2789917 .4007721 .32798768 .4007721 .3600006 .33877564 .3789978 .300766 .3789978 .25177003 .3789978 .20376587V.20353699Z"/>
<path id="font_3_100" d="M.49899293 .6435547H.25C.12399292 .6435547 .12098694 .6566467 .117996219 .67578127H.08999634L.056991579 .46655274H.084991458C.08898926 .48954774 .09700012 .5455475 .10998535 .55755618 .116989139 .56355288 .19599915 .56355288 .20999146 .56355288H.41999818L.32398988 .4325409C.19400025 .25354005 .18199158 .090530399 .18199158 .03353882 .18199158 .022537232 .18199158-.022460938 .22799683-.022460938 .2749939-.022460938 .2749939 .021530152 .2749939 .03453064V.08354187C.2749939 .23054505 .29699708 .34654237 .34999085 .41854859L.48999024 .60954287C.49899293 .62054446 .49899293 .62254336 .49899293 .6435547Z"/>
<path id="font_3_51" d="M.46998597 .16764832C.46998597 .26472474 .3959961 .3127594 .37098695 .32876588 .3600006 .33677674 .33099366 .35479737 .31900025 .36180116 .36898805 .38581849 .44198609 .43585206 .44198609 .51690676 .44198609 .6109772 .34799195 .6660156 .2579956 .6660156 .15299988 .6660156 .070999149 .5909729 .070999149 .49890138 .070999149 .46087647 .084991458 .42485047 .10899353 .39582826 .12599182 .3768158 .13198853 .37280274 .18998719 .3357849 .101989749 .29374696 .042999269 .23269654 .042999269 .15063477 .042999269 .044555665 .147995-.022460938 .2559967-.022460938 .37199403-.022460938 .46998597 .059570314 .46998597 .16764832M.3939972 .51690676C.3939972 .44685365 .33399964 .40083314 .2939911 .37780763L.17199707 .45387269C.14199829 .47288514 .11898804 .4998932 .11898804 .53692629 .11898804 .6019745 .18899536 .64100649 .25498963 .64100649 .33198548 .64100649 .3939972 .58695986 .3939972 .51690676M.41600038 .1326294C.41600038 .05357361 .33599855 .0055389406 .25698854 .0055389406 .16999817 .0055389406 .09700012 .06758118 .09700012 .15063477 .09700012 .22268677 .14698792 .28274537 .21699524 .31877137L.34298707 .2407074C.3659973 .22569275 .41600038 .19366455 .41600038 .1326294Z"/>
<path id="font_3_78" d="M.46998597 .3287964C.46998597 .5999756 .34999085 .6660156 .2599945 .6660156 .14498902 .6660156 .042999269 .5729675 .042999269 .44187928 .042999269 .31478883 .1349945 .21875 .24798584 .21875 .32099916 .21875 .36099244 .27175904 .3789978 .31478883V.2927704C.3789978 .04875183 .2679901 .0055389406 .21099854 .0055389406 .18798828 .0055389406 .13699341 .009552002 .11099243 .042755128H.114990238C.12298584 .040740968 .1619873 .04875183 .1619873 .088760379 .1619873 .11476135 .14399719 .13476563 .115997318 .13476563 .08799744 .13476563 .068984989 .116760257 .068984989 .086761478 .068984989 .020629883 .12199402-.022460938 .21199036-.022460938 .34098817-.022460938 .46998597 .10975647 .46998597 .32888795V.3287964M.3769989 .42089845C.3769989 .34788514 .34399415 .2437439 .25 .2437439 .23399353 .2437439 .18499756 .2437439 .15299988 .30584718 .13398743 .34388734 .13398743 .3928833 .13398743 .4409027 .13398743 .48892213 .13398743 .5389557 .15499878 .5769806 .18499756 .628006 .22399903 .64100649 .2599945 .64100649 .32798768 .64100649 .35499574 .5719757 .35899354 .56196597 .37298585 .5249481 .3769989 .46391297 .3769989 .42089845Z"/>
<path id="font_3_121" d="M.47299195 .31976319C.47299195 .38682557 .46998597 .47288514 .43499757 .5479431 .3909912 .64201357 .31498719 .6660156 .25698854 .6660156 .19699097 .6660156 .12098694 .64201357 .07699585 .5459442 .04499817 .47688294 .039993287 .39582826 .039993287 .31976319 .039993287 .25471498 .041992189 .15765381 .084991458 .07858276 .13198853-.0064697267 .20999146-.022460938 .2559967-.022460938 .32099916-.022460938 .394989 .0055389406 .43699647 .097595218 .46699525 .1646576 .47299195 .23971558 .47299195 .31976319M.3869934 .33177186C.3869934 .2697296 .3869934 .18566895 .3769989 .12661743 .35598756 .012542725 .28199769 .002532959 .25698854 .002532959 .22698975 .002532959 .15499878 .016540528 .13598633 .12962342 .12599182 .18867493 .12599182 .2747345 .12599182 .33177186 .12599182 .39982606 .12599182 .47888185 .13798523 .53393557 .1579895 .6230011 .22200012 .64100649 .2559967 .64100649 .2939911 .64100649 .35699464 .62098696 .37599183 .5279236 .3869934 .47288514 .3869934 .39482118 .3869934 .33177186Z"/>
<path id="font_4_1" d="M.3789978-.22503662C.34999085-.19802857 .2849884-.13702393 .24299622-.009033203 .21699524 .06997681 .20498657 .16197205 .20498657 .24996948 .20498657 .4469757 .2559967 .60398867 .3659973 .7149811 .3809967 .7299957 .38198854 .73098757 .38198854 .73599246 .38198854 .746994 .37199403 .75 .3639984 .75 .34700013 .75 .30499269 .7129822 .2869873 .6959839 .1309967 .5409851 .10798645 .35697938 .10798645 .25097657 .10798645 .12597656 .14099121 .015975953 .18798828-.06703186 .2539978-.18203736 .34498597-.24902344 .3639984-.24902344 .37199403-.24902344 .38198854-.24603272 .38198854-.23503113 .38198854-.23002625 .3789978-.22602844 .3789978-.22503662Z"/>
<path id="font_5_1" d="M.7519989 .22024536C.7669983 .22024536 .7969971 .22024536 .7969971 .25024415 .7969971 .28125 .7679901 .28125 .7519989 .28125H.14099121C.12599182 .28125 .09599304 .28125 .09599304 .25123597 .09599304 .22024536 .125 .22024536 .14099121 .22024536H.7519989Z"/>
<path id="font_1_1" d="M.31199647 .34832765H.42399598C.4019928 .2552948 .3909912 .1942749 .3909912 .1352539 .3909912 .067230228 .40899659-.0087890629 .45700074-.0087890629 .48999024-.0087890629 .526001 .02420044 .526001 .05621338 .526001 .068222049 .522995 .07423401 .5139923 .0892334 .46798707 .17025757 .46798707 .24728394 .46798707 .27430726 .46798707 .29830934 .46798707 .3083191 .47399903 .34832765H.59799197C.61698916 .34832765 .6329956 .34832765 .647995 .36332704 .6549988 .3703308 .66799929 .38232423 .66799929 .40533448 .66799929 .44433595 .6329956 .44433595 .61499026 .44433595H.22200012C.20098877 .44433595 .1579895 .44433595 .10499573 .3963318 .069992069 .3643341 .0309906 .31330873 .0309906 .3033142 .0309906 .28930665 .042999269 .28930665 .053985597 .28930665 .068984989 .28930665 .069992069 .29031373 .07899475 .3013153 .116989139 .34832765 .18299866 .34832765 .20199585 .34832765H.2619934C.23699951 .26930238 .19699097 .18727112 .14299011 .08622742 .1269989 .05621338 .12399292 .051223756 .12399292 .037216188 .12399292 .01020813 .1459961-.007797241 .17199707-.007797241 .19299317-.007797241 .20799256 .0032043458 .21499634 .00920105 .22999573 .02420044 .23098755 .028213501 .23599243 .049209596L.31199647 .34832765Z"/>
<path id="font_1_2" d="M.21398926 .020996094C.21099854-.04208374 .18099976-.11021423 .12599182-.15631104 .11199951-.16833496 .11099243-.16934204 .11099243-.17533875 .11099243-.18234253 .12199402-.19433594 .12998963-.19433594 .14399719-.19433594 .25-.10720825 .25 .0309906 .25 .100997928 .21398926 .1559906 .1579895 .1559906 .11199951 .1559906 .08099365 .12098694 .08099365 .07798767 .08099365 .037994386 .10899353 0 .15899658 0 .18299866 0 .20199585 .009994507 .21398926 .020996094Z"/>
<path id="font_4_4" d="M.5289917 .31925965C.5289917 .41625978 .5279999 .65527346 .2869873 .65527346 .04598999 .65527346 .04499817 .41726686 .04499817 .31925965 .04499817 .22026062 .04598999-.0107421879 .2869873-.0107421879 .5269928-.0107421879 .5289917 .21925354 .5289917 .31925965M.2869873 .025253296C.25099183 .025253296 .19499207 .04725647 .18199158 .12025452 .17298889 .17225647 .17298889 .27626039 .17298889 .33125306 .17298889 .40325929 .17298889 .46826173 .18099976 .5202637 .19299317 .6092682 .2630005 .6192627 .2869873 .6192627 .32398988 .6192627 .36499024 .6002655 .38398744 .5562744 .40098573 .51927188 .40098573 .41326905 .40098573 .33125306 .40098573 .2752533 .40098573 .18424988 .3939972 .13224793 .37998963 .039245607 .31698609 .025253296 .2869873 .025253296Z"/>
<path id="font_4_2" d="M.33799745 .24996948C.33799745 .37498475 .30499269 .48498536 .2579956 .5679779 .19198609 .6829834 .100997928 .75 .08198547 .75 .07398987 .75 .06399536 .746994 .06399536 .73599246 .06399536 .73098757 .06399536 .72898867 .08099365 .7129822 .20698548 .5849762 .24099732 .40797425 .24099732 .25097657 .24099732 .053970338 .18998719-.103027347 .07998657-.21403504 .06498718-.22903443 .06399536-.23002625 .06399536-.23503113 .06399536-.24603272 .07398987-.24902344 .08198547-.24902344 .09899902-.24902344 .14099121-.21203614 .15899658-.19503784 .31498719-.040023805 .33799745 .14398194 .33799745 .24996948Z"/>
<path id="font_4_6" d="M.5169983 .22209168H.46998597C.46699525 .20207215 .45799256 .13800049 .44400025 .1309967 .43299867 .125 .35798646 .125 .34199525 .125H.19499207C.24198914 .16403198 .2939911 .20707703 .33898927 .2401123 .45298768 .3242035 .5169983 .37124635 .5169983 .4663086 .5169983 .5812988 .41299439 .65527346 .27198792 .65527346 .15098572 .65527346 .056991579 .593277 .056991579 .50331118 .056991579 .44430543 .10499573 .42930604 .1289978 .42930604 .16099549 .42930604 .20098877 .4513092 .20098877 .50131228 .20098877 .55329897 .15899658 .5693054 .14399719 .5733032 .17298889 .5972748 .21099854 .6082611 .24699402 .6082611 .33299256 .6082611 .3789978 .54029849 .3789978 .4653015 .3789978 .39627076 .34098817 .3282013 .2709961 .25712586L.069992069 .051986696C.056991579 .039993287 .056991579 .037994386 .056991579 .017990113V0H.48599244L.5169983 .22209168Z"/>
<path id="font_4_5" d="M.35398866 .62316897C.35398866 .6452637 .35398866 .65527346 .32798768 .65527346 .31698609 .65527346 .31498719 .65527346 .30599977 .64826968 .22898865 .5909424 .12599182 .5909424 .10499573 .5909424H.084991458V.5439453H.10499573C.12098694 .5439453 .17599488 .54493716 .23498535 .5639343V.04699707H.09599304V0C.13999939 .0029907227 .24598694 .0029907227 .29499818 .0029907227 .34399415 .0029907227 .44999696 .0029907227 .49398805 0V.04699707H.35398866V.62316897Z"/>
<path id="font_4_7" d="M.35198976 .35212709C.42099 .3731537 .49398805 .4303589 .49398805 .5164032 .49398805 .5933533 .41799928 .65527346 .2769928 .65527346 .1579895 .65527346 .07998657 .59135439 .07998657 .5113983 .07998657 .46839906 .11099243 .44140626 .14898682 .44140626 .19400025 .44140626 .21899414 .47340394 .21899414 .51039126 .21899414 .56840518 .16499329 .5793915 .16099549 .58039858 .19599915 .6082916 .23999024 .616272 .2709961 .616272 .35398866 .616272 .35699464 .5523987 .35699464 .5193939 .35699464 .50639346 .35598756 .3751526 .2519989 .36914063 .21099854 .36712647 .20899964 .36613465 .20399475 .36512757 .19400025 .36413575 .19198609 .35412599 .19198609 .34812928 .19198609 .33013917 .20199585 .33013917 .21998596 .33013917H.2639923C.37298585 .33013917 .37298585 .23240662 .37298585 .18144226 .37298585 .13444519 .37298585 .03225708 .2689972 .03225708 .24299622 .03225708 .19099427 .03627014 .14299011 .06645203 .17599488 .07543945 .20098877 .10044861 .20098877 .14144898 .20098877 .18644715 .16899109 .217453 .125 .217453 .08299255 .217453 .04798889 .19044495 .04798889 .13945008 .04798889 .049346925 .14498902-.0107421879 .27398683-.0107421879 .45298768-.0107421879 .526001 .08944702 .526001 .18045044 .526001 .23539734 .49699403 .32115174 .35198976 .35212709Z"/>
<path id="font_4_9" d="M.5169983 .20147705C.5169983 .31629945 .43798829 .4091797 .2899933 .4091797 .26098634 .4091797 .20799256 .4061737 .16099549 .37417604V.5060425C.18899536 .5010376 .19999695 .4990387 .23399353 .4990387 .37998963 .4990387 .47200013 .6120453 .47200013 .6370392 .47200013 .64404299 .46998597 .65504458 .45799256 .65504458 .45498658 .65504458 .45399476 .65504458 .44299317 .65104678 .38598634 .6290436 .33299256 .6230469 .2899933 .6230469 .21398926 .6230469 .16099549 .64204409 .1349945 .65104678 .12599182 .6540375 .125 .65504458 .12199402 .65504458 .10798645 .65504458 .10798645 .64404299 .10798645 .6280365V.33625794C.10798645 .31829835 .10798645 .3053131 .12998963 .3053131 .14299011 .3053131 .14498902 .3093109 .1519928 .31729127 .19099427 .3631897 .24499512 .37316896 .28599549 .37316896 .375 .37316896 .375 .28536988 .375 .20549011 .375 .1324768 .375 .03225708 .25498963 .03225708 .23098755 .03225708 .16799927 .037261964 .12599182 .09448242 .1619873 .09648132 .19099427 .1204834 .19099427 .16148377 .19099427 .21447754 .147995 .22949219 .12399292 .22949219 .10899353 .22949219 .056991579 .2204895 .056991579 .15948487 .056991579 .074417117 .1349945-.0107421879 .25898744-.0107421879 .4189911-.0107421879 .5169983 .079437259 .5169983 .20147705Z"/>
<path id="font_6_3" d="M.7709961 .3310547C.7859955 .3310547 .81199648 .3310547 .81199648 .35905458 .81199648 .38604737 .7849884 .38604737 .7719879 .38604737H.101989749C.08898926 .38604737 .06199646 .38604737 .06199646 .35905458 .06199646 .3310547 .08799744 .3310547 .102996829 .3310547H.7709961M.7719879 .112960819C.7849884 .112960819 .81199648 .112960819 .81199648 .13995362 .81199648 .16796875 .7859955 .16796875 .7709961 .16796875H.102996829C.08799744 .16796875 .06199646 .16796875 .06199646 .13995362 .06199646 .112960819 .08898926 .112960819 .101989749 .112960819H.7719879Z"/>
<path id="font_6_8" d="M.3769989 .42712403C.3769989 .44612123 .3769989 .453125 .3619995 .453125 .35598756 .453125 .35398866 .453125 .33898927 .4441223 .33499146 .44111634 .32398988 .43411256 .31900025 .43112184 .29100038 .44711305 .2539978 .453125 .21798706 .453125 .18798828 .453125 .037994386 .453125 .037994386 .32312013 .037994386 .21812439 .1619873 .19612122 .19299317 .19113159 .21998596 .18612671 .25299073 .18013 .25698854 .18013 .29699708 .17112732 .33699037 .14613343 .33699037 .10412598 .33699037 .027130127 .24598694 .027130127 .22499085 .027130127 .17399597 .027130127 .11099243 .043136598 .08299255 .14012146 .07699585 .16012573 .07598877 .16113281 .05899048 .16113281 .037994386 .16113281 .037994386 .15812683 .037994386 .13513184V.020126343C.037994386 .0011291504 .037994386-.005859375 .052993776-.005859375 .05999756-.005859375 .06199646-.005859375 .08198547 .010131836L.10798645 .029129029C.15299988-.005859375 .20698548-.005859375 .22499085-.005859375 .27999879-.005859375 .40499879 .006134033 .40499879 .13912964 .40499879 .18713379 .3789978 .22012329 .35899354 .23812866 .31799317 .27212525 .28399659 .27812196 .22999573 .28811646 .1659851 .29911805 .10598755 .31011964 .10598755 .35812379 .10598755 .42311097 .19499207 .42311097 .21598816 .42311097 .32699586 .42311097 .33299256 .3531189 .33499146 .328125 .33599855 .3151245 .34399415 .3151245 .35598756 .3151245 .3769989 .3151245 .3769989 .31811524 .3769989 .3411255V.42712403Z"/>
<path id="font_6_5" d="M.22299195 .6233063C.22299195 .66430667 .18998719 .6953125 .15098572 .6953125 .10998535 .6953125 .07899475 .66130068 .07899475 .6233063 .07899475 .5853119 .10998535 .55130007 .15098572 .55130007 .18998719 .55130007 .22299195 .5823059 .22299195 .6233063M.04699707 .44218446V.39918519C.10598755 .39918519 .11299133 .39918519 .11299133 .36016847V.042999269H.04399109V0C.066986087 .0019989014 .13598633 .0019989014 .16299439 .0019989014 .19099427 .0019989014 .25498963 .0019989014 .2789917 0V.042999269H.21699524V.4501953L.04699707 .44218446Z"/>
<path id="font_6_6" d="M.5309906 .30613709C.5309906 .40118409 .48999024 .4501953 .37998963 .4501953 .30799867 .4501953 .24598694 .41519166 .21199036 .34014894H.21099854V.4501953L.041992189 .44218446V.39918519C.10398865 .39918519 .11099243 .39918519 .11099243 .3601532V.042999269H.041992189V0C.06498718 .0019989014 .13699341 .0019989014 .16499329 .0019989014 .19299317 .0019989014 .2659912 .0019989014 .2889862 0V.042999269H.21998596V.25610353C.21998596 .36416627 .2999878 .41719056 .3639984 .41719056 .40098573 .41719056 .42199708 .39317323 .42199708 .31713868V.042999269H.35299684V0C.37599183 .0019989014 .44799806 .0019989014 .47599793 .0019989014 .5039978 .0019989014 .57699587 .0019989014 .59999087 0V.042999269H.5309906V.30613709Z"/>
<path id="font_6_1" d="M.5049896 .21514893H.46299745C.45999146 .19412232 .45298768 .13502503 .43798829 .125 .42999269 .117996219 .35198976 .117996219 .33699037 .117996219H.18199158C.21998596 .15003968 .31098939 .22616577 .32598878 .23718262 .43699647 .3203125 .5049896 .37139894 .5049896 .46749879 .5049896 .5853729 .397995 .65625 .2659912 .65625 .15299988 .65625 .055999757 .5923462 .055999757 .49749757 .055999757 .44448854 .09899902 .42948915 .12199402 .42948915 .15299988 .42948915 .18899536 .45048524 .18899536 .49649049 .18899536 .5384979 .1579895 .559494 .1269989 .5634918 .16699219 .6092682 .21998596 .6132355 .24099732 .6132355 .33299256 .6132355 .3769989 .5384979 .3769989 .4664917 .3769989 .38842774 .32398988 .3163147 .2829895 .27323915L.06599426 .04598999C.055999757 .036987306 .055999757 .034988405 .055999757 .016998291V0H.47599793L.5049896 .21514893Z"/>
<path id="font_7_28" d="M.5529938 .023986817C.5529938 .04699707 .5399933 .04699707 .5269928 .04699707 .46598817 .04798889 .46598817 .06100464 .46598817 .083999637V.29907228C.46598817 .3881073 .394989 .453125 .24598694 .453125 .18899536 .453125 .066986087 .44911195 .066986087 .36109925 .066986087 .3170929 .101989749 .29808045 .1289978 .29808045 .1599884 .29808045 .19198609 .3190918 .19198609 .36109925 .19198609 .39111329 .17298889 .40811158 .16999817 .41011048 .19799805 .41612245 .22999573 .41711427 .24198914 .41711427 .31698609 .41711427 .35198976 .3751068 .35198976 .29907228V.26506043C.2809906 .2620697 .026992798 .25306703 .026992798 .10801697 .026992798 .012130737 .15098572-.005859375 .21998596-.005859375 .2999878-.005859375 .34700013 .035125734 .36898805 .07713318 .36898805 .04598999 .36898805 0 .47299195 0H.5209961C.54100039 0 .5529938 0 .5529938 .023986817M.35198976 .13899231C.35198976 .043151857 .2599945 .030136109 .23498535 .030136109 .18399048 .030136109 .14399719 .06517029 .14399719 .10922241 .14399719 .21734619 .3019867 .23136902 .35198976 .234375V.13899231Z"/>
<path id="font_7_75" d="M.93499758 0V.04699707H.8659973V.30613709C.8659973 .40919496 .8149872 .4501953 .71199038 .4501953 .62098696 .4501953 .56900027 .40019227 .54299929 .3541565 .522995 .44718934 .43099977 .4501953 .3929901 .4501953 .30599977 .4501953 .24899292 .40518189 .21699524 .3421631V.4501953L.04499817 .4423828V.39537049C.10699463 .39537049 .11399841 .39537049 .11399841 .3563385V.04699707H.04499817V0L.17098999 .0029907227 .29699708 0V.04699707H.22799683V.2562256C.22799683 .3653412 .31498719 .41436769 .3769989 .41436769 .41099549 .41436769 .43299867 .39437867 .43299867 .31729127V.04699707H.3639984V0L.48999024 .0029907227 .6159973 0V.04699707H.5469971V.2562256C.5469971 .3653412 .6339874 .41436769 .69599917 .41436769 .7299957 .41436769 .7519989 .39437867 .7519989 .31729127V.04699707H.68299868V0L.8089905 .0029907227 .93499758 0Z"/>
<path id="font_7_84" d="M.59999087 .22319031C.59999087 .3561859 .5089874 .4501953 .36499024 .4501953 .2899933 .4501953 .23699951 .41918946 .21398926 .40118409V.4501953L.036987306 .4423828V.39537049C.09899902 .39537049 .10598755 .39537049 .10598755 .3573761V-.14648438H.036987306V-.1934967L.16299439-.19049073 .2889862-.1934967V-.14648438H.21998596V.03945923C.2630005 .004135132 .30699159-.005859375 .34799195-.005859375 .49798585-.005859375 .59999087 .08413696 .59999087 .22312927V.22319031M.47200013 .22312927C.47200013 .08213806 .4019928 .030136109 .33699037 .030136109 .32299806 .030136109 .27598573 .030136109 .23098755 .08413696 .21998596 .09713745 .21998596 .09812927 .21998596 .117126468V.32913209C.21998596 .34814454 .22099304 .3491516 .23498535 .36314393 .2749939 .4041443 .32699586 .41015626 .34899903 .41015626 .41600038 .41015626 .47200013 .3491516 .47200013 .22314453V.22312927Z"/>
<path id="font_7_72" d="M.29299928 0V.04699707H.22399903V.69433596L.04699707 .6855469V.63853457C.10899353 .63853457 .115997318 .63853457 .115997318 .5995636V.04699707H.04699707V0L.16999817 .0029907227 .29299928 0Z"/>
<path id="font_7_66" d="M.28599549 0V.04699707H.22399903V.4501953L.049987794 .4423828V.39537049C.10899353 .39537049 .115997318 .39537049 .115997318 .3563385V.04699707H.04699707V0L.16899109 .0029907227 .28599549 0M.23799134 .60728457C.23799134 .6502838 .20298767 .6852875 .1599884 .6852875 .116989139 .6852875 .08198547 .6502838 .08198547 .60728457 .08198547 .5642853 .116989139 .5292969 .1599884 .5292969 .20298767 .5292969 .23799134 .5642853 .23799134 .60728457Z"/>
<path id="font_7_105" d="M.38198854 .124176029V.17721558H.33499146V.12619019C.33499146 .058151246 .30299378 .03413391 .2749939 .03413391 .21699524 .03413391 .21699524 .09817505 .21699524 .1211853V.3973236H.36299134V.44433595H.21699524V.6357422H.16999817C.16899109 .53552249 .11999512 .43632508 .020996094 .43333436V.3973236H.102996829V.123184207C.102996829 .01612854 .18998719-.005859375 .26098634-.005859375 .33699037-.005859375 .38198854 .05114746 .38198854 .124176029Z"/>
<path id="font_7_109" d="M.61499026 .0001373291V.0471344C.5529938 .0471344 .54599 .0471344 .54599 .086135867V.4501953L.36299134 .44218446V.39518739C.4249878 .39518739 .43199159 .39518739 .43199159 .3561859V.16514588C.43199159 .08314514 .3809967 .030136109 .30799867 .030136109 .23098755 .030136109 .22799683 .055130006 .22799683 .10914612V.4501953L.04499817 .44218446V.39518739C.10699463 .39518739 .11399841 .39518739 .11399841 .3561859V.12313843C.11399841 .01612854 .19499207-.005859375 .2939911-.005859375 .31999208-.005859375 .3919983-.005859375 .43798829 .072143558V-.005859375L.61499026 .0001373291Z"/>
<path id="font_7_47" d="M.6009979 0V.04699707C.5389862 .04699707 .5319977 .04699707 .5319977 .086013797V.69433596L.35499574 .6855469V.63853457C.4169922 .63853457 .42399598 .63853457 .42399598 .5996704V.40518189C.37399293 .44418336 .32199098 .4501953 .2889862 .4501953 .14299011 .4501953 .037994386 .36218263 .037994386 .22116089 .037994386 .089141849 .12998963-.005859375 .27799989-.005859375 .33898927-.005859375 .3869934 .018127442 .41799928 .043136598V-.005859375L.6009979 0M.41799928 .102996829C.40499879 .08514404 .3639984 .030136109 .28799439 .030136109 .1659851 .030136109 .1659851 .15115357 .1659851 .22116089 .1659851 .26916505 .1659851 .3231659 .19198609 .36218263 .22099304 .40419007 .2679901 .41418458 .29899598 .41418458 .35598756 .41418458 .3959961 .3821869 .41799928 .35317994V.102996829Z"/>
<path id="font_7_50" d="M.49398805 .11706543C.49398805 .13504029 .47499085 .13504029 .46998597 .13504029 .45298768 .13504029 .45098878 .13005066 .44499208 .11405945 .42399598 .066101077 .36698915 .03413391 .3019867 .03413391 .16099549 .03413391 .1599884 .16700745 .1599884 .2179718H.46199037C.48399354 .2179718 .49398805 .2179718 .49398805 .2449646 .49398805 .27598573 .48799134 .34906007 .43798829 .3991089 .40098573 .43511964 .34799195 .453125 .2789917 .453125 .11898804 .453125 .03199768 .35005189 .03199768 .22497559 .03199768 .09107971 .13198853-.005859375 .29299928-.005859375 .45098878-.005859375 .49398805 .10006714 .49398805 .11706543M.39898683 .25097657H.1599884C.1619873 .29000855 .16299439 .3320465 .18399048 .36506654 .20999146 .4051056 .25 .41711427 .2789917 .41711427 .3959961 .41711427 .397995 .28599549 .39898683 .25097657Z"/>
<path id="font_7_107" d="M.5169983 .22200012H.46998597C.46699525 .20199585 .45799256 .13798523 .44400025 .1309967 .43299867 .125 .35798646 .125 .34199525 .125H.19499207C.24198914 .1639862 .2939911 .20698548 .33898927 .23999024 .45298768 .3242035 .5169983 .37124635 .5169983 .4663086 .5169983 .5812988 .41299439 .65527346 .27198792 .65527346 .15098572 .65527346 .056991579 .593277 .056991579 .50331118 .056991579 .44430543 .10499573 .42930604 .1289978 .42930604 .16099549 .42930604 .20098877 .4513092 .20098877 .50131228 .20098877 .55329897 .15899658 .5693054 .14399719 .5733032 .17298889 .5972748 .21099854 .6082611 .24699402 .6082611 .33299256 .6082611 .3789978 .54029849 .3789978 .4653015 .3789978 .39627076 .34098817 .3282013 .2709961 .25712586L.069992069 .051986696C.056991579 .039993287 .056991579 .037994386 .056991579 .017990113V0H.48599244L.5169983 .22200012Z"/>
<path id="font_7_96" d="M.44198609 .36819459C.44198609 .42118836 .3880005 .4501953 .33599855 .4501953 .2659912 .4501953 .22599793 .40019227 .20298767 .33718873V.4501953L.036987306 .4423828V.39537049C.09899902 .39537049 .10598755 .39537049 .10598755 .3563385V.04699707H.036987306V0L.16299439 .0029907227C.20098877 .0029907227 .2649994 .0029907227 .30099488 0V.04699707H.21398926V.22218323C.21398926 .29226686 .23899842 .41436769 .33898927 .41436769 .33898927 .41436769 .31999208 .39736939 .31999208 .36834718 .31999208 .32730104 .35198976 .3072815 .3809967 .3072815 .4099884 .3072815 .44198609 .3283081 .44198609 .36834718V.36819459Z"/>
<path id="font_7_81" d="M.5419922 .21812439C.5419922 .35212709 .44999696 .453125 .2869873 .453125 .12298584 .453125 .03199768 .35112 .03199768 .21812439 .03199768 .09413147 .11999512-.005859375 .2869873-.005859375 .45498658-.005859375 .5419922 .09512329 .5419922 .21812439M.4139862 .22912598C.4139862 .14213562 .4139862 .03413391 .2869873 .03413391 .1599884 .03413391 .1599884 .14213562 .1599884 .22912598 .1599884 .27412416 .1599884 .32511903 .1769867 .3591156 .19599915 .39611817 .23799134 .41711427 .2869873 .41711427 .32899476 .41711427 .37098695 .40112306 .3929901 .36611939 .4139862 .3321228 .4139862 .27713014 .4139862 .22912598Z"/>
</defs>
<path transform="matrix(1,0,0,-1,142.13,146.63303)" stroke-width=".3985" stroke-linecap="butt" stroke-miterlimit="10" stroke-linejoin="miter" fill="none" stroke="#faebeb" d="M-136.06433-127.55865H374.17695M-136.06433-119.05475H374.17695M-136.06433-110.55083H374.17695M-136.06433-102.04692H374.17695M-136.06433-93.54301H374.17695M-136.06433-85.0391H374.17695M-136.06433-76.53519H374.17695M-136.06433-68.03128H374.17695M-136.06433-59.52737H374.17695M-136.06433-51.02345H374.17695M-136.06433-42.51955H374.17695M-136.06433-34.01564H374.17695M-136.06433-25.51172H374.17695M-136.06433-17.00781H374.17695M-136.06433-8.5039H374.17695M-136.06433 0H374.17695M-136.06433 8.5039H374.17695M-136.06433 17.00781H374.17695M-136.06433 25.51172H374.17695M-136.06433 34.01564H374.17695M-136.06433 42.51955H374.17695M-136.06433 51.02345H374.17695M-136.06433 59.52737H374.17695M-136.06433 68.03128H374.17695M-136.06433 76.53519H374.17695M-136.06433 85.0391H374.17695M-136.06433 93.54301H374.17695M-136.06433 102.04692H374.17695M-136.06433 110.55083H374.17695M-136.06433 119.05475H374.17695M-136.06433 127.55865H374.17695M-136.06221-127.56062V127.56062M-129.2591-127.56062V127.56062M-122.456-127.56062V127.56062M-115.65288-127.56062V127.56062M-108.84976-127.56062V127.56062M-102.04665-127.56062V127.56062M-95.24355-127.56062V127.56062M-88.44043-127.56062V127.56062M-81.63733-127.56062V127.56062M-74.83421-127.56062V127.56062M-68.0311-127.56062V127.56062M-61.22798-127.56062V127.56062M-54.42487-127.56062V127.56062M-47.62177-127.56062V127.56062M-40.81866-127.56062V127.56062M-34.01555-127.56062V127.56062M-27.21243-127.56062V127.56062M-20.40932-127.56062V127.56062M-13.6062-127.56062V127.56062M-6.80309-127.56062V127.56062M0-127.56062V127.56062M6.80309-127.56062V127.56062M13.6062-127.56062V127.56062M20.40932-127.56062V127.56062M27.21243-127.56062V127.56062M34.01555-127.56062V127.56062M40.81866-127.56062V127.56062M47.62177-127.56062V127.56062M54.42487-127.56062V127.56062M61.22798-127.56062V127.56062M68.0311-127.56062V127.56062M74.83421-127.56062V127.56062M81.63733-127.56062V127.56062M88.44043-127.56062V127.56062M95.24355-127.56062V127.56062M102.04665-127.56062V127.56062M108.84976-127.56062V127.56062M115.65288-127.56062V127.56062M122.456-127.56062V127.56062M129.2591-127.56062V127.56062M136.06221-127.56062V127.56062M142.86533-127.56062V127.56062M149.66843-127.56062V127.56062M156.47154-127.56062V127.56062M163.27466-127.56062V127.56062M170.07776-127.56062V127.56062M176.88088-127.56062V127.56062M183.68399-127.56062V127.56062M190.4871-127.56062V127.56062M197.2902-127.56062V127.56062M204.09333-127.56062V127.56062M210.89643-127.56062V127.56062M217.69954-127.56062V127.56062M224.50266-127.56062V127.56062M231.30577-127.56062V127.56062M238.10889-127.56062V127.56062M244.912-127.56062V127.56062M251.71509-127.56062V127.56062M258.5182-127.56062V127.56062M265.32133-127.56062V127.56062M272.12446-127.56062V127.56062M278.92756-127.56062V127.56062M285.73069-127.56062V127.56062M292.53379-127.56062V127.56062M299.33689-127.56062V127.56062M306.13999-127.56062V127.56062M312.9431-127.56062V127.56062M319.74623-127.56062V127.56062M326.54933-127.56062V127.56062M333.35246-127.56062V127.56062M340.15556-127.56062V127.56062M346.95866-127.56062V127.56062M353.76176-127.56062V127.56062M360.56489-127.56062V127.56062M367.368-127.56062V127.56062M374.1711-127.56062V127.56062M374.17695 127.56062"/>
<path transform="matrix(1,0,0,-1,142.13,146.63303)" stroke-width=".79701" stroke-linecap="butt" stroke-miterlimit="10" stroke-linejoin="miter" fill="none" stroke="#f5d7d7" d="M-136.06433-127.56062H374.17695M-136.06433-85.04042H374.17695M-136.06433-42.5202H374.17695M-136.06433 0H374.17695M-136.06433 42.5202H374.17695M-136.06433 85.04042H374.17695M-136.06433 127.5457H374.17695M-136.06433-127.56062V127.56062M-102.04825-127.56062V127.56062M-68.03217-127.56062V127.56062M-34.01608-127.56062V127.56062M0-127.56062V127.56062M34.01608-127.56062V127.56062M68.03217-127.56062V127.56062M102.04825-127.56062V127.56062M136.06433-127.56062V127.56062M170.08042-127.56062V127.56062M204.0965-127.56062V127.56062M238.11258-127.56062V127.56062M272.12867-127.56062V127.56062M306.14476-127.56062V127.56062M340.16084-127.56062V127.56062M374.16499-127.56062V127.56062M374.17695 127.56062"/>
<path transform="matrix(1,0,0,-1,142.13,146.63303)" stroke-width=".79701" stroke-linecap="butt" stroke-miterlimit="10" stroke-linejoin="miter" fill="none" stroke="#000000" d="M-131.40186 0H369.51445"/>
<path transform="matrix(-1,-0,0,1,10.728149,146.63303)" d="M4.66248 0C3.28098 .25902 1.0361 1.0361-.51805 1.94269V-1.94269C1.0361-1.0361 3.28098-.25902 4.66248 0"/>
<path transform="matrix(1,0,0,-1,511.64445,146.63303)" d="M4.66248 0C3.28098 .25902 1.0361 1.0361-.51805 1.94269V-1.94269C1.0361-1.0361 3.28098-.25902 4.66248 0"/>
<use data-text="x" xlink:href="#font_1_7" transform="matrix(9.9626,0,0,-9.9626,520.026,148.84702)"/>
<path transform="matrix(1,0,0,-1,142.13,146.63303)" stroke-width=".79701" stroke-linecap="butt" stroke-miterlimit="10" stroke-linejoin="miter" fill="none" stroke="#000000" d="M0-122.89815V122.89815"/>
<path transform="matrix(0,1,1,0,142.13,269.5312)" d="M4.66248 0C3.28098 .25902 1.0361 1.0361-.51805 1.94269V-1.94269C1.0361-1.0361 3.28098-.25902 4.66248 0"/>
<path transform="matrix(0,-1,-1,-0,142.13,23.734879)" d="M4.66248 0C3.28098 .25902 1.0361 1.0361-.51805 1.94269V-1.94269C1.0361-1.0361 3.28098-.25902 4.66248 0"/>
<use data-text="y" xlink:href="#font_1_8" transform="matrix(9.9626,0,0,-9.9626,139.005,13.416031)"/>
<use data-text="0" xlink:href="#font_2_1" transform="matrix(8.9664,0,0,-8.9664,145.65,155.93103)"/>
<use data-text="-" xlink:href="#font_3_64" transform="matrix(8.9664,0,0,-8.9664,36.240007,158.95902)"/>
<use data-text="3" xlink:href="#font_3_106" transform="matrix(8.9664,0,0,-8.9664,39.315485,158.95902)"/>
<use data-text="-" xlink:href="#font_3_64" transform="matrix(8.9664,0,0,-8.9664,70.256008,158.95902)"/>
<use data-text="2" xlink:href="#font_3_107" transform="matrix(8.9664,0,0,-8.9664,73.33148,158.95902)"/>
<use data-text="-" xlink:href="#font_3_64" transform="matrix(8.9664,0,0,-8.9664,104.272,158.95902)"/>
<use data-text="1" xlink:href="#font_3_82" transform="matrix(8.9664,0,0,-8.9664,107.34748,158.95902)"/>
<use data-text="1" xlink:href="#font_3_82" transform="matrix(8.9664,0,0,-8.9664,173.84201,158.95902)"/>
<use data-text="2" xlink:href="#font_3_107" transform="matrix(8.9664,0,0,-8.9664,207.858,158.95902)"/>
<use data-text="3" xlink:href="#font_3_106" transform="matrix(8.9664,0,0,-8.9664,241.87403,158.95902)"/>
<use data-text="4" xlink:href="#font_3_57" transform="matrix(8.9664,0,0,-8.9664,275.89,159.05803)"/>
<use data-text="5" xlink:href="#font_3_56" transform="matrix(8.9664,0,0,-8.9664,309.906,158.95902)"/>
<use data-text="6" xlink:href="#font_3_101" transform="matrix(8.9664,0,0,-8.9664,343.92204,158.95902)"/>
<use data-text="7" xlink:href="#font_3_100" transform="matrix(8.9664,0,0,-8.9664,377.93803,159.04903)"/>
<use data-text="8" xlink:href="#font_3_51" transform="matrix(8.9664,0,0,-8.9664,411.954,158.95902)"/>
<use data-text="9" xlink:href="#font_3_78" transform="matrix(8.9664,0,0,-8.9664,445.97,158.95902)"/>
<use data-text="1" xlink:href="#font_3_82" transform="matrix(8.9664,0,0,-8.9664,477.682,158.95902)"/>
<use data-text="0" xlink:href="#font_3_121" transform="matrix(8.9664,0,0,-8.9664,482.2907,158.95902)"/>
<use data-text="-" xlink:href="#font_3_64" transform="matrix(8.9664,0,0,-8.9664,128.091,234.65903)"/>
<use data-text="2" xlink:href="#font_3_107" transform="matrix(8.9664,0,0,-8.9664,131.16648,234.65903)"/>
<use data-text="-" xlink:href="#font_3_64" transform="matrix(8.9664,0,0,-8.9664,128.091,192.13904)"/>
<use data-text="1" xlink:href="#font_3_82" transform="matrix(8.9664,0,0,-8.9664,131.16648,192.13904)"/>
<use data-text="1" xlink:href="#font_3_82" transform="matrix(8.9664,0,0,-8.9664,131.167,107.09903)"/>
<use data-text="2" xlink:href="#font_3_107" transform="matrix(8.9664,0,0,-8.9664,131.167,64.578029)"/>
<path transform="matrix(1,0,0,-1,142.13,146.63303)" stroke-width="1.59404" stroke-linecap="butt" stroke-miterlimit="10" stroke-linejoin="miter" fill="none" stroke="#d73589" d="M-116.61493 12.02148-116.71487 12.1398-114.37344 9.30841-112.03206 6.43355-109.69064 3.5282-107.34921 .60532-105.00783-2.31946-102.66641-5.23392-100.325-8.12369-97.9836-10.9752-95.6422-13.77481-93.30077-16.50821-90.95937-19.16444-88.61797-21.72917-86.27654-24.19075-83.93515-26.53813-81.59373-28.76094-79.25232-30.8462-76.91092-32.7855-74.56952-34.57036-72.22809-36.19044-69.88669-37.6405-67.54529-38.91089-65.20387-39.99763-62.86247-40.89493-60.52106-41.59889-58.17966-42.10626-55.83824-42.41248-53.49683-42.5189-51.15543-42.42351-48.81401-42.12767-46.47261-41.63197-44.1312-40.9384-41.7898-40.05212-39.44838-38.97511-37.10698-37.71448-34.76555-36.27477-32.42415-34.66379-30.08275-32.888-27.74132-30.95717-25.39993-28.87968-23.05852-26.66464-20.7171-24.32375-18.3757-21.86868-16.0343-19.30783-13.69287-16.6568-11.35147-13.92728-9.01007-11.13026-6.66864-8.282-4.32726-5.39351-1.98584-2.47972 .35551 .44443 2.69693 3.36664 5.03835 6.27396 7.37975 9.15138 9.72116 11.98538 12.06256 14.76292 14.40398 17.47105 16.74538 20.09547 19.08679 22.62518 21.4282 25.04782 23.7696 27.35175 26.11102 29.52588 28.45244 31.55989 30.79384 33.44469 33.13524 35.17116 35.47667 36.7309 37.81805 38.11674 40.15947 39.32156 42.50087 40.34149 44.84229 41.17001 47.1837 41.80263 49.52509 42.23798 51.86652 42.47281 54.20792 42.5072 56.54932 42.33983 58.89073 41.97195 61.23215 41.40555 63.57355 40.64319 65.91496 39.68814 68.25638 38.54495 70.59776 37.21878 72.9392 35.7168 75.2806 34.04547 77.62201 32.21324 79.96342 30.22789 82.30482 28.09982 84.64624 25.83807 86.98764 23.455 89.32906 20.96034 91.67046 18.36641 94.01187 15.68489 96.35327 12.93005 98.69469 10.11293 101.0361 7.24974 103.3775 4.35022 105.71892 1.43124 108.06032-1.49355 110.40173-4.41252 112.74313-7.31073 115.08455-10.17392 117.42595-12.98975 119.76736-15.74327 122.10878-18.42221 124.45018-21.01418 126.7916-23.5069 129.133-25.88737 131.47441-28.14651 133.81581-30.27203 136.15724-32.25346 138.49864-34.08246 140.84004-35.75055 143.18148-37.24928 145.52286-38.5709 147.86428-39.71086 150.20566-40.66135 152.54709-41.42046 154.88849-41.98233 157.22989-42.34567 159.57132-42.50917 161.91272-42.47025 164.25412-42.23083 166.59554-41.79158 168.93695-41.1538 171.27834-40.32138 173.61977-39.29822 175.96118-38.08884 178.30257-36.69908 180.644-35.13612 182.9854-33.40575 185.3268-31.51772 187.66822-29.48045 190.00963-27.30437 192.35103-24.99785 194.69245-22.57262 197.03386-20.04097 199.37526-17.41396 201.71668-14.70518 204.05808-11.92569 206.39949-9.09105 208.74089-6.21231 211.0823-3.30501 213.42372-.38148 215.76512 2.54266 218.10654 5.4558 220.44794 8.34297 222.78936 11.18996 225.13076 13.98566 227.47217 16.7139 229.81357 19.36363 232.15499 21.92188 234.4964 24.37502 236.8378 26.7133 239.17922 28.9251 241.52062 31.00063 243.86205 32.92822 246.20343 34.69946 248.54485 36.3072 250.88626 37.74303 253.22766 39.00041 255.56908 40.07224 257.91047 40.95462 260.2519 41.64365 262.5933 42.13545 264.9347 42.42676 267.27613 42.5189 269.61753 42.4073 271.95893 42.09715 274.30036 41.58655 276.64176 40.87871 278.98316 39.97688 281.3246 38.88623 283.666 37.61131 286.0074 36.15799 288.3488 34.53337 290.6902 32.74593 293.0316 30.80275 295.37303 28.71423 297.71443 26.48947 300.05583 24.13948 302.39726 21.67596 304.73866 19.10799 307.08006 16.45049 309.42149 13.71512 311.76289 10.91422 314.1043 8.06271 316.4457 5.17227 318.7871 2.25719 321.1285-.66759 323.4699-3.59047 325.81135-6.4952 328.15275-9.37006 330.49418-12.20015 332.83558-14.97314 335.17698-17.67413 337.51838-20.29208 339.8598-22.81396 342.2012-25.22755 344.5426-27.52237 344.1038-27.11684"/>
<path transform="matrix(-.64487,-.76424,-.76424,.64487,25.515099,134.61156)" d="M3.78581 0-2.27148 3.02866 0 0-2.27148-3.02866" fill="#d73589"/>
<path transform="matrix(.73438,.67867,.67867,-.73438,486.2338,173.74985)" d="M3.78581 0-2.27148 3.02866 0 0-2.27148-3.02866" fill="#d73589"/>
<path transform="matrix(1,0,0,-1,142.13,146.63303)" stroke-width="1.59404" stroke-linecap="butt" stroke-miterlimit="10" stroke-linejoin="miter" fill="none" stroke="#8c8413" d="M-117.5849 26.34149-116.71487 24.27963-114.37344 18.61685-112.03206 12.86711-109.69064 7.05641-107.34921 1.21065-105.00783-4.63895-102.66641-10.46783-100.325-16.24739-97.9836-21.95042-95.6422-27.54962-93.30077-33.01646-90.95937-38.3289-88.61797-43.45836-86.27654-48.38152-83.93515-53.07628-81.59373-57.52191-79.25232-61.69243-76.91092-65.57101-74.56952-69.14075-72.22809-72.3809-69.88669-75.28104-67.54529-77.82178-65.20387-79.99529-62.86247-81.78987-60.52106-83.1978-58.17966-84.21254-55.83824-84.825-53.49683-85.03783-51.15543-84.84706-48.81401-84.25536-46.47261-83.26398-44.1312-81.87683-41.7898-80.10428-39.44838-77.95026-37.10698-75.42899-34.76555-72.54956-32.42415-69.32759-30.08275-65.77603-27.74132-61.91434-25.39993-57.75938-23.05852-53.32932-20.7171-48.64752-18.3757-43.73737-16.0343-38.61568-13.69287-33.31363-11.35147-27.85457-9.01007-22.26054-6.66864-16.56403-4.32726-10.78705-1.98584-4.95946 .35551 .88885 2.69693 6.73329 5.03835 12.54791 7.37975 18.30281 9.72116 23.97081 12.06256 29.52588 14.40398 34.94212 16.74538 40.19096 19.08679 45.25038 21.4282 50.09566 23.7696 54.70349 26.11102 59.05179 28.45244 63.11981 30.79384 66.88939 33.13524 70.34233 35.47667 73.4618 37.81805 76.2335 40.15947 78.64316 42.50087 80.68301 44.84229 82.34006 47.1837 83.60526 49.52509 84.47595 51.86652 84.94566 54.20792 85.01443 56.54932 84.67967 58.89073 83.94392 61.23215 82.81111 63.57355 81.2864 65.91496 79.37631 68.25638 77.08994 70.59776 74.4376 72.9392 71.43364 75.2806 68.09097 77.62201 64.42651 79.96342 60.45581 82.30482 56.19965 84.64624 51.67616 86.98764 46.91003 89.32906 41.9207 91.67046 36.73283 94.01187 31.36981 96.35327 25.86012 98.69469 20.22588 101.0361 14.4995 103.3775 8.70049 105.71892 2.8625 108.06032-2.98709 110.40173-8.82506 112.74313-14.6215 115.08455-20.34785 117.42595-25.9795 119.76736-31.48657 122.10878-36.84444 124.45018-42.02838 126.7916-47.01382 129.133-51.77477 131.47441-56.29306 133.81581-60.54407 136.15724-64.50696 138.49864-68.16495 140.84004-71.50111 143.18148-74.49858 145.52286-77.14185 147.86428-79.42174 150.20566-81.32274 152.54709-82.84096 154.88849-83.96469 157.22989-84.69136 159.57132-85.01834 161.91272-84.9405 164.25412-84.46169 166.59554-83.58319 168.93695-82.30763 171.27834-80.64279 173.61977-78.59645 175.96118-76.1777 178.30257-73.3982 180.644-70.27226 182.9854-66.81152 185.3268-63.03546 187.66822-58.96095 190.00963-54.60876 192.35103-49.99574 194.69245-45.14526 197.03386-40.08197 199.37526-34.82794 201.71668-29.4104 204.05808-23.85141 206.39949-18.18213 208.74089-12.42465 211.0823-6.61003 213.42372-.76299 215.76512 5.08533 218.10654 10.91162 220.44794 16.68599 222.78936 22.37991 225.13076 27.97134 227.47217 33.42783 229.81357 38.72728 232.15499 43.84377 234.4964 48.75005 236.8378 53.42664 239.17922 57.8502 241.52062 62.00128 243.86205 65.85648 246.20343 69.39897 248.54485 72.61446 250.88626 75.48607 253.22766 78.00084 255.56908 80.1445 257.91047 81.90927 260.2519 83.28732 262.5933 84.27094 264.9347 84.85355 267.27613 85.03783 269.61753 84.81462 271.95893 84.19435 274.30036 83.17314 276.64176 81.75745 278.98316 79.95377 281.3246 77.77248 283.666 75.22267 286.0074 72.316 288.3488 69.06677 290.6902 65.49185 293.0316 61.6055 295.37303 57.4285 297.71443 52.97896 300.05583 48.27899 302.39726 43.35196 304.73866 38.216 307.08006 32.90099 309.42149 27.43025 311.76289 21.82845 314.1043 16.12543 316.4457 10.34456 318.7871 4.51439 321.1285-1.3352 323.4699-7.18097 325.81135-12.99039 328.15275-18.74013 330.49418-24.40031 332.83558-29.9463 335.17698-35.34828 337.51838-40.58417 339.8598-45.62798 342.2012-50.45511 344.5426-55.04475 345.0826-56.04279"/>
<path transform="matrix(-.38866,-.92134,-.92134,.38866,24.545105,120.291538)" d="M3.78581 0-2.27148 3.02866 0 0-2.27148-3.02866" fill="#8c8413"/>
<path transform="matrix(.47583,.87947,.87947,-.47583,487.21263,202.67581)" d="M3.78581 0-2.27148 3.02866 0 0-2.27148-3.02866" fill="#8c8413"/>
<path transform="matrix(1,0,0,-1,142.13,146.63303)" d="M-105.17375 0C-105.17375 .93375-105.93071 1.69069-106.86446 1.69069-107.7982 1.69069-108.55516 .93375-108.55516 0-108.55516-.93375-107.7982-1.69069-106.86446-1.69069-105.93071-1.69069-105.17375-.93375-105.17375 0ZM-106.86446 0"/>
<path transform="matrix(1,0,0,-1,142.13,146.63303)" stroke-width=".3985" stroke-linecap="butt" stroke-miterlimit="10" stroke-linejoin="miter" fill="none" stroke="#ffffff" d="M-105.17375 0C-105.17375 .93375-105.93071 1.69069-106.86446 1.69069-107.7982 1.69069-108.55516 .93375-108.55516 0-108.55516-.93375-107.7982-1.69069-106.86446-1.69069-105.93071-1.69069-105.17375-.93375-105.17375 0ZM-106.86446 0"/>
<path transform="matrix(1,0,0,-1,142.13,146.63303)" d="M-51.74124-42.5202C-51.74124-41.58644-52.4982-40.8295-53.43195-40.8295-54.3657-40.8295-55.12265-41.58644-55.12265-42.5202-55.12265-43.45395-54.3657-44.2109-53.43195-44.2109-52.4982-44.2109-51.74124-43.45395-51.74124-42.5202ZM-53.43195-42.5202"/>
<path transform="matrix(1,0,0,-1,142.13,146.63303)" stroke-width=".3985" stroke-linecap="butt" stroke-miterlimit="10" stroke-linejoin="miter" fill="none" stroke="#ffffff" d="M-51.74124-42.5202C-51.74124-41.58644-52.4982-40.8295-53.43195-40.8295-54.3657-40.8295-55.12265-41.58644-55.12265-42.5202-55.12265-43.45395-54.3657-44.2109-53.43195-44.2109-52.4982-44.2109-51.74124-43.45395-51.74124-42.5202ZM-53.43195-42.5202"/>
<path transform="matrix(1,0,0,-1,142.13,146.63303)" d="M55.12265 42.5202C55.12265 43.45395 54.3657 44.2109 53.43195 44.2109 52.4982 44.2109 51.74124 43.45395 51.74124 42.5202 51.74124 41.58644 52.4982 40.8295 53.43195 40.8295 54.3657 40.8295 55.12265 41.58644 55.12265 42.5202ZM53.43195 42.5202"/>
<path transform="matrix(1,0,0,-1,142.13,146.63303)" stroke-width=".3985" stroke-linecap="butt" stroke-miterlimit="10" stroke-linejoin="miter" fill="none" stroke="#ffffff" d="M55.12265 42.5202C55.12265 43.45395 54.3657 44.2109 53.43195 44.2109 52.4982 44.2109 51.74124 43.45395 51.74124 42.5202 51.74124 41.58644 52.4982 40.8295 53.43195 40.8295 54.3657 40.8295 55.12265 41.58644 55.12265 42.5202ZM53.43195 42.5202"/>
<path transform="matrix(1,0,0,-1,142.13,146.63303)" d="M108.55516 0C108.55516 .93375 107.7982 1.69069 106.86446 1.69069 105.93071 1.69069 105.17375 .93375 105.17375 0 105.17375-.93375 105.93071-1.69069 106.86446-1.69069 107.7982-1.69069 108.55516-.93375 108.55516 0ZM106.86446 0"/>
<path transform="matrix(1,0,0,-1,142.13,146.63303)" stroke-width=".3985" stroke-linecap="butt" stroke-miterlimit="10" stroke-linejoin="miter" fill="none" stroke="#ffffff" d="M108.55516 0C108.55516 .93375 107.7982 1.69069 106.86446 1.69069 105.93071 1.69069 105.17375 .93375 105.17375 0 105.17375-.93375 105.93071-1.69069 106.86446-1.69069 107.7982-1.69069 108.55516-.93375 108.55516 0ZM106.86446 0"/>
<path transform="matrix(1,0,0,-1,142.13,146.63303)" d="M161.98712-42.5202C161.98712-41.58644 161.23017-40.8295 160.29642-40.8295 159.36267-40.8295 158.60572-41.58644 158.60572-42.5202 158.60572-43.45395 159.36267-44.2109 160.29642-44.2109 161.23017-44.2109 161.98712-43.45395 161.98712-42.5202ZM160.29642-42.5202"/>
<path transform="matrix(1,0,0,-1,142.13,146.63303)" stroke-width=".3985" stroke-linecap="butt" stroke-miterlimit="10" stroke-linejoin="miter" fill="none" stroke="#ffffff" d="M161.98712-42.5202C161.98712-41.58644 161.23017-40.8295 160.29642-40.8295 159.36267-40.8295 158.60572-41.58644 158.60572-42.5202 158.60572-43.45395 159.36267-44.2109 160.29642-44.2109 161.23017-44.2109 161.98712-43.45395 161.98712-42.5202ZM160.29642-42.5202"/>
<path transform="matrix(1,0,0,-1,142.13,146.63303)" d="M215.41963 0C215.41963 .93375 214.66268 1.69069 213.72893 1.69069 212.79517 1.69069 212.03823 .93375 212.03823 0 212.03823-.93375 212.79517-1.69069 213.72893-1.69069 214.66268-1.69069 215.41963-.93375 215.41963 0ZM213.72893 0"/>
<path transform="matrix(1,0,0,-1,142.13,146.63303)" stroke-width=".3985" stroke-linecap="butt" stroke-miterlimit="10" stroke-linejoin="miter" fill="none" stroke="#ffffff" d="M215.41963 0C215.41963 .93375 214.66268 1.69069 213.72893 1.69069 212.79517 1.69069 212.03823 .93375 212.03823 0 212.03823-.93375 212.79517-1.69069 213.72893-1.69069 214.66268-1.69069 215.41963-.93375 215.41963 0ZM213.72893 0"/>
<path transform="matrix(1,0,0,-1,142.13,146.63303)" d="M268.8516 42.5202C268.8516 43.45395 268.09465 44.2109 267.1609 44.2109 266.22715 44.2109 265.47019 43.45395 265.47019 42.5202 265.47019 41.58644 266.22715 40.8295 267.1609 40.8295 268.09465 40.8295 268.8516 41.58644 268.8516 42.5202ZM267.1609 42.5202"/>
<path transform="matrix(1,0,0,-1,142.13,146.63303)" stroke-width=".3985" stroke-linecap="butt" stroke-miterlimit="10" stroke-linejoin="miter" fill="none" stroke="#ffffff" d="M268.8516 42.5202C268.8516 43.45395 268.09465 44.2109 267.1609 44.2109 266.22715 44.2109 265.47019 43.45395 265.47019 42.5202 265.47019 41.58644 266.22715 40.8295 267.1609 40.8295 268.09465 40.8295 268.8516 41.58644 268.8516 42.5202ZM267.1609 42.5202"/>
<path transform="matrix(1,0,0,-1,142.13,146.63303)" d="M322.2841 0C322.2841 .93375 321.52717 1.69069 320.59339 1.69069 319.65965 1.69069 318.90269 .93375 318.90269 0 318.90269-.93375 319.65965-1.69069 320.59339-1.69069 321.52717-1.69069 322.2841-.93375 322.2841 0ZM320.59339 0"/>
<path transform="matrix(1,0,0,-1,142.13,146.63303)" stroke-width=".3985" stroke-linecap="butt" stroke-miterlimit="10" stroke-linejoin="miter" fill="none" stroke="#ffffff" d="M322.2841 0C322.2841 .93375 321.52717 1.69069 320.59339 1.69069 319.65965 1.69069 318.90269 .93375 318.90269 0 318.90269-.93375 319.65965-1.69069 320.59339-1.69069 321.52717-1.69069 322.2841-.93375 322.2841 0ZM320.59339 0"/>
<path transform="matrix(1,0,0,-1,142.13,146.63303)" d="M1.69069 0C1.69069 .93375 .93375 1.69069 0 1.69069-.93375 1.69069-1.69069 .93375-1.69069 0-1.69069-.93375-.93375-1.69069 0-1.69069 .93375-1.69069 1.69069-.93375 1.69069 0ZM0 0"/>
<path transform="matrix(1,0,0,-1,142.13,146.63303)" stroke-width=".3985" stroke-linecap="butt" stroke-miterlimit="10" stroke-linejoin="miter" fill="none" stroke="#ffffff" d="M1.69069 0C1.69069 .93375 .93375 1.69069 0 1.69069-.93375 1.69069-1.69069 .93375-1.69069 0-1.69069-.93375-.93375-1.69069 0-1.69069 .93375-1.69069 1.69069-.93375 1.69069 0ZM0 0"/>
<path transform="matrix(1,0,0,-1,142.13,146.63303)" d="M-51.74124-85.04042C-51.74124-84.10667-52.4982-83.34972-53.43195-83.34972-54.3657-83.34972-55.12265-84.10667-55.12265-85.04042-55.12265-85.97417-54.3657-86.73112-53.43195-86.73112-52.4982-86.73112-51.74124-85.97417-51.74124-85.04042ZM-53.43195-85.04042"/>
<path transform="matrix(1,0,0,-1,142.13,146.63303)" stroke-width=".3985" stroke-linecap="butt" stroke-miterlimit="10" stroke-linejoin="miter" fill="none" stroke="#ffffff" d="M-51.74124-85.04042C-51.74124-84.10667-52.4982-83.34972-53.43195-83.34972-54.3657-83.34972-55.12265-84.10667-55.12265-85.04042-55.12265-85.97417-54.3657-86.73112-53.43195-86.73112-52.4982-86.73112-51.74124-85.97417-51.74124-85.04042ZM-53.43195-85.04042"/>
<path transform="matrix(1,0,0,-1,142.13,146.63303)" d="M55.12265 85.04042C55.12265 85.97417 54.3657 86.73112 53.43195 86.73112 52.4982 86.73112 51.74124 85.97417 51.74124 85.04042 51.74124 84.10667 52.4982 83.34972 53.43195 83.34972 54.3657 83.34972 55.12265 84.10667 55.12265 85.04042ZM53.43195 85.04042"/>
<path transform="matrix(1,0,0,-1,142.13,146.63303)" stroke-width=".3985" stroke-linecap="butt" stroke-miterlimit="10" stroke-linejoin="miter" fill="none" stroke="#ffffff" d="M55.12265 85.04042C55.12265 85.97417 54.3657 86.73112 53.43195 86.73112 52.4982 86.73112 51.74124 85.97417 51.74124 85.04042 51.74124 84.10667 52.4982 83.34972 53.43195 83.34972 54.3657 83.34972 55.12265 84.10667 55.12265 85.04042ZM53.43195 85.04042"/>
<path transform="matrix(1,0,0,-1,142.13,146.63303)" d="M161.98712-85.04042C161.98712-84.10667 161.23017-83.34972 160.29642-83.34972 159.36267-83.34972 158.60572-84.10667 158.60572-85.04042 158.60572-85.97417 159.36267-86.73112 160.29642-86.73112 161.23017-86.73112 161.98712-85.97417 161.98712-85.04042ZM160.29642-85.04042"/>
<path transform="matrix(1,0,0,-1,142.13,146.63303)" stroke-width=".3985" stroke-linecap="butt" stroke-miterlimit="10" stroke-linejoin="miter" fill="none" stroke="#ffffff" d="M161.98712-85.04042C161.98712-84.10667 161.23017-83.34972 160.29642-83.34972 159.36267-83.34972 158.60572-84.10667 158.60572-85.04042 158.60572-85.97417 159.36267-86.73112 160.29642-86.73112 161.23017-86.73112 161.98712-85.97417 161.98712-85.04042ZM160.29642-85.04042"/>
<path transform="matrix(1,0,0,-1,142.13,146.63303)" d="M268.8516 85.04042C268.8516 85.97417 268.09465 86.73112 267.1609 86.73112 266.22715 86.73112 265.47019 85.97417 265.47019 85.04042 265.47019 84.10667 266.22715 83.34972 267.1609 83.34972 268.09465 83.34972 268.8516 84.10667 268.8516 85.04042ZM267.1609 85.04042"/>
<path transform="matrix(1,0,0,-1,142.13,146.63303)" stroke-width=".3985" stroke-linecap="butt" stroke-miterlimit="10" stroke-linejoin="miter" fill="none" stroke="#ffffff" d="M268.8516 85.04042C268.8516 85.97417 268.09465 86.73112 267.1609 86.73112 266.22715 86.73112 265.47019 85.97417 265.47019 85.04042 265.47019 84.10667 266.22715 83.34972 267.1609 83.34972 268.09465 83.34972 268.8516 84.10667 268.8516 85.04042ZM267.1609 85.04042"/>
<use data-text="(" xlink:href="#font_4_1" transform="matrix(9.9626,0,0,-9.9626,38.765008,140.62203)"/>
<use data-text="&#x2212;" xlink:href="#font_5_1" transform="matrix(9.9626,0,0,-9.9626,43.22101,140.62203)"/>
<use data-text="&#x03c0;" xlink:href="#font_1_1" transform="matrix(9.9626,0,0,-9.9626,52.13201,140.62203)"/>
<use data-text="," xlink:href="#font_1_2" transform="matrix(9.9626,0,0,-9.9626,59.29512,140.62203)"/>
<use data-text="0" xlink:href="#font_4_4" transform="matrix(9.9626,0,0,-9.9626,64.14201,140.62203)"/>
<use data-text=")" xlink:href="#font_4_2" transform="matrix(9.9626,0,0,-9.9626,69.87051,140.62203)"/>
<use data-text="(" xlink:href="#font_4_1" transform="matrix(9.9626,0,0,-9.9626,65.256008,204.54502)"/>
<use data-text="&#x2212;" xlink:href="#font_5_1" transform="matrix(9.9626,0,0,-9.9626,69.712009,204.54502)"/>
<use data-text="&#x03c0;" xlink:href="#font_1_1" transform="matrix(9.9626,0,0,-9.9626,79.81801,197.10602)"/>
<path transform="matrix(1,0,0,-1,-4.873993,129.91202)" stroke-width=".3985" stroke-linecap="butt" stroke-miterlimit="10" stroke-linejoin="miter" fill="none" stroke="#000000" d="M84.692-72.142H91.86"/>
<use data-text="2" xlink:href="#font_4_6" transform="matrix(9.9626,0,0,-9.9626,80.53801,212.07802)"/>
<use data-text="," xlink:href="#font_1_2" transform="matrix(9.9626,0,0,-9.9626,88.18101,204.54502)"/>
<use data-text="&#x2212;" xlink:href="#font_5_1" transform="matrix(9.9626,0,0,-9.9626,93.02401,204.54502)"/>
<use data-text="1" xlink:href="#font_4_5" transform="matrix(9.9626,0,0,-9.9626,101.93501,204.54502)"/>
<use data-text=")" xlink:href="#font_4_2" transform="matrix(9.9626,0,0,-9.9626,107.663509,204.54502)"/>
<use data-text="(" xlink:href="#font_4_1" transform="matrix(9.9626,0,0,-9.9626,181.052,93.05403)"/>
<use data-text="&#x03c0;" xlink:href="#font_1_1" transform="matrix(9.9626,0,0,-9.9626,186.703,85.61502)"/>
<path transform="matrix(1,0,0,-1,110.92201,18.421025)" stroke-width=".3985" stroke-linecap="butt" stroke-miterlimit="10" stroke-linejoin="miter" fill="none" stroke="#000000" d="M75.781-72.142H82.949"/>
<use data-text="2" xlink:href="#font_4_6" transform="matrix(9.9626,0,0,-9.9626,187.423,100.58702)"/>
<use data-text="," xlink:href="#font_1_2" transform="matrix(9.9626,0,0,-9.9626,195.06601,93.05403)"/>
<use data-text="1" xlink:href="#font_4_5" transform="matrix(9.9626,0,0,-9.9626,199.90901,93.05403)"/>
<use data-text=")" xlink:href="#font_4_2" transform="matrix(9.9626,0,0,-9.9626,205.63751,93.05403)"/>
<use data-text="(" xlink:href="#font_4_1" transform="matrix(9.9626,0,0,-9.9626,252.535,140.62203)"/>
<use data-text="&#x03c0;" xlink:href="#font_1_1" transform="matrix(9.9626,0,0,-9.9626,256.991,140.62203)"/>
<use data-text="," xlink:href="#font_1_2" transform="matrix(9.9626,0,0,-9.9626,264.1541,140.62203)"/>
<use data-text="0" xlink:href="#font_4_4" transform="matrix(9.9626,0,0,-9.9626,269.001,140.62203)"/>
<use data-text=")" xlink:href="#font_4_2" transform="matrix(9.9626,0,0,-9.9626,274.7295,140.62203)"/>
<use data-text="(" xlink:href="#font_4_1" transform="matrix(9.9626,0,0,-9.9626,280.617,206.53803)"/>
<use data-text="3" xlink:href="#font_4_7" transform="matrix(9.9626,0,0,-9.9626,286.268,199.09903)"/>
<use data-text="&#x03c0;" xlink:href="#font_1_1" transform="matrix(9.9626,0,0,-9.9626,291.997,199.09903)"/>
<path transform="matrix(1,0,0,-1,210.487,131.90503)" stroke-width=".3985" stroke-linecap="butt" stroke-miterlimit="10" stroke-linejoin="miter" fill="none" stroke="#000000" d="M75.781-72.142H88.677"/>
<use data-text="2" xlink:href="#font_4_6" transform="matrix(9.9626,0,0,-9.9626,289.852,214.07103)"/>
<use data-text="," xlink:href="#font_1_2" transform="matrix(9.9626,0,0,-9.9626,300.36,206.53803)"/>
<use data-text="&#x2212;" xlink:href="#font_5_1" transform="matrix(9.9626,0,0,-9.9626,305.203,206.53803)"/>
<use data-text="1" xlink:href="#font_4_5" transform="matrix(9.9626,0,0,-9.9626,314.114,206.53803)"/>
<use data-text=")" xlink:href="#font_4_2" transform="matrix(9.9626,0,0,-9.9626,319.8425,206.53803)"/>
<use data-text="(" xlink:href="#font_4_1" transform="matrix(9.9626,0,0,-9.9626,320.001,140.62203)"/>
<use data-text="2" xlink:href="#font_4_6" transform="matrix(9.9626,0,0,-9.9626,324.45429,140.62203)"/>
<use data-text="&#x03c0;" xlink:href="#font_1_1" transform="matrix(9.9626,0,0,-9.9626,330.185,140.62203)"/>
<use data-text="," xlink:href="#font_1_2" transform="matrix(9.9626,0,0,-9.9626,337.3481,140.62203)"/>
<use data-text="0" xlink:href="#font_4_4" transform="matrix(9.9626,0,0,-9.9626,342.19599,140.62203)"/>
<use data-text=")" xlink:href="#font_4_2" transform="matrix(9.9626,0,0,-9.9626,347.9245,140.62203)"/>
<use data-text="(" xlink:href="#font_4_1" transform="matrix(9.9626,0,0,-9.9626,391.957,93.05403)"/>
<use data-text="5" xlink:href="#font_4_9" transform="matrix(9.9626,0,0,-9.9626,397.608,85.61502)"/>
<use data-text="&#x03c0;" xlink:href="#font_1_1" transform="matrix(9.9626,0,0,-9.9626,403.33699,85.61502)"/>
<path transform="matrix(1,0,0,-1,321.827,18.421025)" stroke-width=".3985" stroke-linecap="butt" stroke-miterlimit="10" stroke-linejoin="miter" fill="none" stroke="#000000" d="M75.781-72.142H88.677"/>
<use data-text="2" xlink:href="#font_4_6" transform="matrix(9.9626,0,0,-9.9626,401.192,100.58702)"/>
<use data-text="," xlink:href="#font_1_2" transform="matrix(9.9626,0,0,-9.9626,411.7,93.05403)"/>
<use data-text="1" xlink:href="#font_4_5" transform="matrix(9.9626,0,0,-9.9626,416.543,93.05403)"/>
<use data-text=")" xlink:href="#font_4_2" transform="matrix(9.9626,0,0,-9.9626,422.27149,93.05403)"/>
<use data-text="(" xlink:href="#font_4_1" transform="matrix(9.9626,0,0,-9.9626,466.305,140.62203)"/>
<use data-text="3" xlink:href="#font_4_7" transform="matrix(9.9626,0,0,-9.9626,470.75828,140.62203)"/>
<use data-text="&#x03c0;" xlink:href="#font_1_1" transform="matrix(9.9626,0,0,-9.9626,476.48899,140.62203)"/>
<use data-text="," xlink:href="#font_1_2" transform="matrix(9.9626,0,0,-9.9626,483.6521,140.62203)"/>
<use data-text="0" xlink:href="#font_4_4" transform="matrix(9.9626,0,0,-9.9626,488.5,140.62203)"/>
<use data-text=")" xlink:href="#font_4_2" transform="matrix(9.9626,0,0,-9.9626,494.2285,140.62203)"/>
<use data-text="(" xlink:href="#font_4_1" transform="matrix(9.9626,0,0,-9.9626,65.256008,247.07102)"/>
<use data-text="&#x2212;" xlink:href="#font_5_1" transform="matrix(9.9626,0,0,-9.9626,69.712009,247.07102)"/>
<use data-text="&#x03c0;" xlink:href="#font_1_1" transform="matrix(9.9626,0,0,-9.9626,79.81801,239.63202)"/>
<path transform="matrix(1,0,0,-1,-4.873993,172.43802)" stroke-width=".3985" stroke-linecap="butt" stroke-miterlimit="10" stroke-linejoin="miter" fill="none" stroke="#000000" d="M84.692-72.142H91.86"/>
<use data-text="2" xlink:href="#font_4_6" transform="matrix(9.9626,0,0,-9.9626,80.53801,254.60402)"/>
<use data-text="," xlink:href="#font_1_2" transform="matrix(9.9626,0,0,-9.9626,88.18101,247.07102)"/>
<use data-text="&#x2212;" xlink:href="#font_5_1" transform="matrix(9.9626,0,0,-9.9626,93.02401,247.07102)"/>
<use data-text="2" xlink:href="#font_4_6" transform="matrix(9.9626,0,0,-9.9626,101.93501,247.07102)"/>
<use data-text=")" xlink:href="#font_4_2" transform="matrix(9.9626,0,0,-9.9626,107.663509,247.07102)"/>
<use data-text="(" xlink:href="#font_4_1" transform="matrix(9.9626,0,0,-9.9626,181.052,50.52903)"/>
<use data-text="&#x03c0;" xlink:href="#font_1_1" transform="matrix(9.9626,0,0,-9.9626,186.703,43.090028)"/>
<path transform="matrix(1,0,0,-1,110.92201,-24.103974)" stroke-width=".3985" stroke-linecap="butt" stroke-miterlimit="10" stroke-linejoin="miter" fill="none" stroke="#000000" d="M75.781-72.142H82.949"/>
<use data-text="2" xlink:href="#font_4_6" transform="matrix(9.9626,0,0,-9.9626,187.423,58.062028)"/>
<use data-text="," xlink:href="#font_1_2" transform="matrix(9.9626,0,0,-9.9626,195.06601,50.52903)"/>
<use data-text="2" xlink:href="#font_4_6" transform="matrix(9.9626,0,0,-9.9626,199.90901,50.52903)"/>
<use data-text=")" xlink:href="#font_4_2" transform="matrix(9.9626,0,0,-9.9626,205.63751,50.52903)"/>
<use data-text="(" xlink:href="#font_4_1" transform="matrix(9.9626,0,0,-9.9626,280.617,249.06302)"/>
<use data-text="3" xlink:href="#font_4_7" transform="matrix(9.9626,0,0,-9.9626,286.268,241.62403)"/>
<use data-text="&#x03c0;" xlink:href="#font_1_1" transform="matrix(9.9626,0,0,-9.9626,291.997,241.62403)"/>
<path transform="matrix(1,0,0,-1,210.487,174.43003)" stroke-width=".3985" stroke-linecap="butt" stroke-miterlimit="10" stroke-linejoin="miter" fill="none" stroke="#000000" d="M75.781-72.142H88.677"/>
<use data-text="2" xlink:href="#font_4_6" transform="matrix(9.9626,0,0,-9.9626,289.852,256.596)"/>
<use data-text="," xlink:href="#font_1_2" transform="matrix(9.9626,0,0,-9.9626,300.36,249.06302)"/>
<use data-text="&#x2212;" xlink:href="#font_5_1" transform="matrix(9.9626,0,0,-9.9626,305.203,249.06302)"/>
<use data-text="2" xlink:href="#font_4_6" transform="matrix(9.9626,0,0,-9.9626,314.114,249.06302)"/>
<use data-text=")" xlink:href="#font_4_2" transform="matrix(9.9626,0,0,-9.9626,319.8425,249.06302)"/>
<use data-text="(" xlink:href="#font_4_1" transform="matrix(9.9626,0,0,-9.9626,391.957,50.52903)"/>
<use data-text="5" xlink:href="#font_4_9" transform="matrix(9.9626,0,0,-9.9626,397.608,43.090028)"/>
<use data-text="&#x03c0;" xlink:href="#font_1_1" transform="matrix(9.9626,0,0,-9.9626,403.33699,43.090028)"/>
<path transform="matrix(1,0,0,-1,321.827,-24.103974)" stroke-width=".3985" stroke-linecap="butt" stroke-miterlimit="10" stroke-linejoin="miter" fill="none" stroke="#000000" d="M75.781-72.142H88.677"/>
<use data-text="2" xlink:href="#font_4_6" transform="matrix(9.9626,0,0,-9.9626,401.192,58.062028)"/>
<use data-text="," xlink:href="#font_1_2" transform="matrix(9.9626,0,0,-9.9626,411.7,50.52903)"/>
<use data-text="2" xlink:href="#font_4_6" transform="matrix(9.9626,0,0,-9.9626,416.543,50.52903)"/>
<use data-text=")" xlink:href="#font_4_2" transform="matrix(9.9626,0,0,-9.9626,422.27149,50.52903)"/>
<use data-text="(" xlink:href="#font_4_1" transform="matrix(9.9626,0,0,-9.9626,113.399,140.62203)"/>
<use data-text="0" xlink:href="#font_4_4" transform="matrix(9.9626,0,0,-9.9626,117.85229,140.62203)"/>
<use data-text="," xlink:href="#font_1_2" transform="matrix(9.9626,0,0,-9.9626,123.583,140.62203)"/>
<use data-text="0" xlink:href="#font_4_4" transform="matrix(9.9626,0,0,-9.9626,128.426,140.62203)"/>
<use data-text=")" xlink:href="#font_4_2" transform="matrix(9.9626,0,0,-9.9626,134.1545,140.62203)"/>
<use data-text="y" xlink:href="#font_1_8" transform="matrix(11.9552,0,0,-11.9552,31.596009,77.33803)" fill="#d73589"/>
<use data-text="=" xlink:href="#font_6_3" transform="matrix(11.9552,0,0,-11.9552,42.417009,77.33803)" fill="#d73589"/>
<use data-text="s" xlink:href="#font_6_8" transform="matrix(11.9552,0,0,-11.9552,56.1894,77.33803)" fill="#d73589"/>
<use data-text="i" xlink:href="#font_6_5" transform="matrix(11.9552,0,0,-11.9552,61.485559,77.33803)" fill="#d73589"/>
<use data-text="n" xlink:href="#font_6_6" transform="matrix(11.9552,0,0,-11.9552,65.21558,77.33803)" fill="#d73589"/>
<use data-text="x" xlink:href="#font_1_7" transform="matrix(11.9552,0,0,-11.9552,74.704,77.33803)" fill="#d73589"/>
<use data-text="y" xlink:href="#font_1_8" transform="matrix(11.9552,0,0,-11.9552,435.431,77.33803)" fill="#827c26"/>
<use data-text="=" xlink:href="#font_6_3" transform="matrix(11.9552,0,0,-11.9552,446.25199,77.33803)" fill="#827c26"/>
<use data-text="2" xlink:href="#font_6_1" transform="matrix(11.9552,0,0,-11.9552,460.02439,77.33803)" fill="#827c26"/>
<use data-text="s" xlink:href="#font_6_8" transform="matrix(11.9552,0,0,-11.9552,468.73976,77.33803)" fill="#827c26"/>
<use data-text="i" xlink:href="#font_6_5" transform="matrix(11.9552,0,0,-11.9552,474.0359,77.33803)" fill="#827c26"/>
<use data-text="n" xlink:href="#font_6_6" transform="matrix(11.9552,0,0,-11.9552,477.76594,77.33803)" fill="#827c26"/>
<use data-text="x" xlink:href="#font_1_7" transform="matrix(11.9552,0,0,-11.9552,487.25599,77.33803)" fill="#827c26"/>
<path transform="matrix(1,0,0,-1,142.13,146.63303)" stroke-width=".79701" stroke-linecap="butt" stroke-miterlimit="10" stroke-linejoin="miter" fill="none" stroke="#000000" d="M170.08042 .59775V84.44266"/>
<path transform="matrix(0,1,1,0,312.21043,141.17356)" d="M4.66248 0C3.28098 .25902 1.0361 1.0361-.51805 1.94269V-1.94269C1.0361-1.0361 3.28098-.25902 4.66248 0"/>
<path transform="matrix(0,1,1,0,312.21043,146.23453)" stroke-width=".79701" stroke-linecap="butt" stroke-miterlimit="10" stroke-linejoin="miter" fill="none" stroke="#000000" d="M0 3.08846V-3.08846"/>
<path transform="matrix(0,-1,-1,-0,312.21043,67.05209)" d="M4.66248 0C3.28098 .25902 1.0361 1.0361-.51805 1.94269V-1.94269C1.0361-1.0361 3.28098-.25902 4.66248 0"/>
<path transform="matrix(0,-1,-1,-0,312.21043,61.991106)" stroke-width=".79701" stroke-linecap="butt" stroke-miterlimit="10" stroke-linejoin="miter" fill="none" stroke="#000000" d="M0 3.08846V-3.08846"/>
<path transform="matrix(1,0,0,-1,142.13,146.63303)" d="M152.13146 75.74901V9.2914H167.61949V75.74901ZM167.61949 9.2914" fill="#ffffff"/>
<use data-text="a" xlink:href="#font_7_28" transform="matrix(0,-9.9626,-9.9626,-0,304.497,134.02103)"/>
<use data-text="m" xlink:href="#font_7_75" transform="matrix(0,-9.9626,-9.9626,-0,304.497,128.45194)"/>
<use data-text="p" xlink:href="#font_7_84" transform="matrix(0,-9.9626,-9.9626,-0,304.497,118.90777)"/>
<use data-text="l" xlink:href="#font_7_72" transform="matrix(0,-9.9626,-9.9626,-0,304.497,112.541667)"/>
<use data-text="i" xlink:href="#font_7_66" transform="matrix(0,-9.9626,-9.9626,-0,304.497,109.363597)"/>
<use data-text="t" xlink:href="#font_7_105" transform="matrix(0,-9.9626,-9.9626,-0,304.497,106.185527)"/>
<use data-text="u" xlink:href="#font_7_109" transform="matrix(0,-9.9626,-9.9626,-0,304.497,101.73224)"/>
<use data-text="d" xlink:href="#font_7_47" transform="matrix(0,-9.9626,-9.9626,-0,304.497,95.366138)"/>
<use data-text="e" xlink:href="#font_7_50" transform="matrix(0,-9.9626,-9.9626,-0,304.497,89.00003)"/>
<use data-text="2" xlink:href="#font_7_107" transform="matrix(0,-9.9626,-9.9626,-0,304.497,79.93407)"/>
<path transform="matrix(1,0,0,-1,142.13,146.63303)" stroke-width=".79701" stroke-linecap="butt" stroke-miterlimit="10" stroke-linejoin="miter" fill="none" stroke="#000000" d="M.59775-114.80443H213.13117"/>
<path transform="matrix(-1,-0,0,1,147.58948,261.43745)" d="M4.66248 0C3.28098 .25902 1.0361 1.0361-.51805 1.94269V-1.94269C1.0361-1.0361 3.28098-.25902 4.66248 0"/>
<path transform="matrix(-1,-0,0,1,142.5285,261.43745)" stroke-width=".79701" stroke-linecap="butt" stroke-miterlimit="10" stroke-linejoin="miter" fill="none" stroke="#000000" d="M0 3.08846V-3.08846"/>
<path transform="matrix(1,0,0,-1,350.39945,261.43745)" d="M4.66248 0C3.28098 .25902 1.0361 1.0361-.51805 1.94269V-1.94269C1.0361-1.0361 3.28098-.25902 4.66248 0"/>
<path transform="matrix(1,0,0,-1,355.46043,261.43745)" stroke-width=".79701" stroke-linecap="butt" stroke-miterlimit="10" stroke-linejoin="miter" fill="none" stroke="#000000" d="M0 3.08846V-3.08846"/>
<path transform="matrix(1,0,0,-1,142.13,146.63303)" d="M79.06319-122.54845H134.66573V-107.06041H79.06319Z" fill="#ffffff"/>
<use data-text="p" xlink:href="#font_7_84" transform="matrix(9.9626,0,0,-9.9626,224.514,263.928)"/>
<use data-text="e" xlink:href="#font_7_50" transform="matrix(9.9626,0,0,-9.9626,231.19892,263.928)"/>
<use data-text="r" xlink:href="#font_7_96" transform="matrix(9.9626,0,0,-9.9626,236.44919,263.928)"/>
<use data-text="i" xlink:href="#font_7_66" transform="matrix(9.9626,0,0,-9.9626,241.17148,263.928)"/>
<use data-text="o" xlink:href="#font_7_81" transform="matrix(9.9626,0,0,-9.9626,244.34955,263.928)"/>
<use data-text="d" xlink:href="#font_7_47" transform="matrix(9.9626,0,0,-9.9626,250.39684,263.928)"/>
<use data-text="2" xlink:href="#font_4_6" transform="matrix(9.9626,0,0,-9.9626,260.57899,263.928)"/>
<use data-text="&#x03c0;" xlink:href="#font_1_1" transform="matrix(9.9626,0,0,-9.9626,266.30799,263.928)"/>
</svg>
