<svg style="overflow: visible;" xmlns="http://www.w3.org/2000/svg" xmlns:xlink="http://www.w3.org/1999/xlink" xmlns:inkscape="http://www.inkscape.org/namespaces/inkscape" version="1.1" width="100%" height="100%" viewBox="0 0 370.97 183.25">
<defs>
<path id="font_1_3" d="M.5499878 .39736939C.5169983 .38838197 .49299623 .35838319 .49299623 .32537843 .49299623 .28938294 .5209961 .27539063 .54499819 .27539063 .58299258 .27539063 .62098696 .30638124 .62098696 .35838319 .62098696 .41610719 .56399539 .45210267 .5029907 .45210267 .45498658 .45210267 .4169922 .4250946 .3919983 .39338685 .37799073 .41111756 .34399415 .45210267 .25 .45210267 .117996219 .45210267 .04899597 .3303833 .04899597 .29638673 .04899597 .28138734 .06298828 .28138734 .07499695 .28138734 .09098816 .28138734 .09599304 .28138734 .099990848 .29537965 .1329956 .39338685 .21299744 .41210938 .24398804 .41210938 .30299378 .41210938 .30299378 .37438966 .30299378 .36138917 .30299378 .3423767 .2889862 .28637696 .27999879 .24926758 .27198792 .21914673 .25299073 .14093018 .24699402 .11993408 .23098755 .056930543 .19198609 .032180787 .16099549 .032180787 .13999939 .032180787 .12098694 .04005432 .11099243 .046951295 .14399719 .05593872 .16799927 .0859375 .16799927 .11894226 .16799927 .15493775 .13999939 .16894531 .115997318 .16894531 .07798767 .16894531 .039993287 .13793946 .039993287 .0859375 .039993287 .028182984 .09700012-.0078125 .1579895-.0078125 .20599365-.0078125 .24398804 .019180298 .2689972 .050933839 .2829895 .03315735 .31698609-.0078125 .41099549-.0078125 .54299929-.0078125 .6119995 .11393738 .6119995 .14793396 .6119995 .16394043 .59498599 .16394043 .58599856 .16394043 .56799319 .16394043 .5649872 .16093445 .5609894 .14894104 .5279999 .050933839 .44799806 .032180787 .4169922 .032180787 .35798646 .032180787 .35798646 .06993103 .35798646 .08293152 .35798646 .10194397 .37199403 .15794373 .3809967 .1950531 .3889923 .22517395 .4079895 .3033905 .4139862 .3243866 .42999269 .38739015 .46899415 .41210938 .5 .41210938 .5209961 .41210938 .5399933 .40423585 .5499878 .39736939Z"/>
<path id="font_1_4" d="M.59498599 .3731079C.598999 .38909913 .598999 .394104 .598999 .3981018 .598999 .4320984 .57199099 .44410707 .5509949 .44410707 .49798585 .44410707 .48599244 .3961029 .47898866 .3701172L.45298768 .26612855C.43899537 .21113587 .42599488 .15615845 .41099549 .10116577 .4099884 .09416199 .3659973 .032180787 .30099488 .032180787 .2579956 .032180787 .23799134 .057174684 .23799134 .10417175 .23799134 .16314698 .27198792 .24913025 .29899598 .3171234 .30499269 .33111573 .31098939 .3461151 .31098939 .36210633 .31098939 .41410829 .25898744 .45210267 .19299317 .45210267 .08699036 .45210267 .032989503 .32011415 .032989503 .29612733 .032989503 .28112794 .04699707 .28112794 .05899048 .28112794 .07499695 .28112794 .07998657 .28112794 .083999637 .29512025 .11898804 .4091034 .1769867 .41210938 .18699646 .41210938 .19299317 .41210938 .20399475 .41210938 .20399475 .3901062 .20399475 .36810304 .19299317 .3421173 .18798828 .32911683 .147995 .22813416 .12799073 .17315674 .12799073 .12416077 .12799073 .0231781 .20899964-.0078125 .29299928-.0078125 .30899049-.0078125 .34700013-.0078125 .3919983 .02218628 .36999513-.08416748 .29599-.16210938 .21598816-.16210938 .21398926-.16210938 .18499756-.16210938 .16099549-.15216065 .18399048-.14016724 .20399475-.11515808 .20399475-.0851593 .20399475-.04916382 .17599488-.03515625 .1519928-.03515625 .10899353-.03515625 .07598877-.07316589 .07598877-.11416626 .07598877-.17111206 .13699341-.20211792 .21598816-.20211792 .33799745-.20211792 .47099305-.123168949 .5009918-.0018157959L.59498599 .3731079Z"/>
<path id="font_2_4" d="M.5529938 .34713746C.5569916 .36012269 .56199648 .38111878 .56199648 .38812257 .56199648 .41111756 .5439911 .43511964 .5109863 .43511964 .5009918 .43511964 .47698976 .43211366 .45899964 .41111756 .4149933 .453125 .3600006 .453125 .34399415 .453125 .15699768 .453125 .04798889 .29414369 .04798889 .16116333 .04798889 .04119873 .13899231-.008804321 .23699951-.008804321 .2899933-.008804321 .33999635 .00819397 .3869934 .045196535 .42099-.008804321 .5009918-.008804321 .5079956-.008804321 .6119995-.008804321 .6419983 .1461792 .6419983 .1481781 .6419983 .16616822 .6230011 .16616822 .6139984 .16616822 .58999636 .16616822 .58898928 .16116333 .58399966 .14016724 .56799319 .08018494 .5479889 .033203126 .5139923 .033203126 .4889984 .033203126 .4889984 .059188844 .4889984 .07318115 .4889984 .09017944 .49598695 .12017822 .5019989 .14317322L.5529938 .34713746M.37399293 .10018921C.32499696 .044189454 .2709961 .033203126 .24198914 .033203126 .20098877 .033203126 .16899109 .05519104 .16899109 .11117554 .16899109 .1541748 .19999695 .27815248 .22099304 .3221283 .2539978 .38911439 .3039856 .41111756 .34498597 .41111756 .4139862 .41111756 .43499757 .35913087 .43499757 .35212709 .43499757 .35012818 .43499757 .34812928 .43199159 .3371277L.37399293 .10018921Z"/>
<path id="font_3_1" d="M.8019867 .21617127C.81599429 .21617127 .84999087 .21617127 .84999087 .25016786 .84999087 .2841797 .81599429 .2841797 .8019867 .2841797H.1499939C.13598633 .2841797 .101989749 .2841797 .101989749 .25016786 .101989749 .21617127 .13598633 .21617127 .1499939 .21617127H.8019867Z"/>
<path id="font_4_4" d="M.54499819 .31925965C.54499819 .4212494 .5419922 .65625 .29599 .65625 .051986696 .65625 .04598999 .429245 .04598999 .31925965 .04598999 .21525574 .04899597-.01171875 .29499818-.01171875 .5389862-.01171875 .54499819 .20826721 .54499819 .31925965M.29599 .028274537C.2689972 .028274537 .19999695 .040267946 .18699646 .13226319 .1789856 .18527222 .1789856 .27626039 .1789856 .33125306 .1789856 .3942566 .1789856 .47824098 .18699646 .52523806 .20199585 .60523989 .2689972 .61624148 .29499818 .61624148 .32798768 .61624148 .3909912 .600235 .4039917 .5222473 .4119873 .47424317 .4119873 .3882599 .4119873 .33125306 .4119873 .25326539 .4119873 .13426209 .3959961 .09527588 .37399293 .046279909 .32899476 .028274537 .29599 .028274537Z"/>
<path id="font_5_1" d="M.40699769-.23200989C.40699769-.2250061 .4039917-.22200012 .3919983-.21200562 .2649994-.09700012 .21998596 .07798767 .21998596 .25 .21998596 .42099 .2630005 .59599307 .3899994 .70899966 .4059906 .723999 .40699769 .72499087 .40699769 .7319946 .40699769 .74198916 .40098573 .75 .38598634 .75 .36698915 .75 .31399537 .70500186 .2939911 .6859894 .16899109 .56199648 .11399841 .4099884 .11399841 .25 .11399841 .16099549 .13198853 .039993287 .20599365-.07800293 .2689972-.17800904 .3639984-.25 .38598634-.25 .40098573-.25 .40699769-.2420044 .40699769-.23200989Z"/>
<path id="font_5_4" d="M.56399539 .31925965C.56399539 .4352417 .5549927 .6582031 .30599977 .6582031 .055999757 .6582031 .04798889 .4332428 .04798889 .31925965 .04798889 .20729065 .054992677-.013671875 .30599977-.013671875 .55799868-.013671875 .56399539 .20828247 .56399539 .31925965M.30599977 .028320313C.2789917 .028320313 .25099183 .03831482 .22999573 .05531311 .19799805 .08331299 .18299866 .0973053 .18299866 .33125306 .18299866 .40324403 .18299866 .4762268 .19299317 .5262146 .20599365 .5971985 .2679901 .6161957 .30599977 .6161957 .32998658 .6161957 .4059906 .610199 .42099 .515213 .42900086 .4662323 .42900086 .3892517 .42900086 .33125306 .42900086 .10231018 .4149933 .08830261 .38398744 .05831909 .37599183 .049316408 .34799195 .028320313 .30599977 .028320313Z"/>
<path id="font_2_3" d="M.22099304 .016998291C.21199036-.08493042 .1519928-.1348877 .1309967-.15187073 .11999512-.15986634 .115997318-.16287232 .115997318-.17185974 .115997318-.18086243 .12799073-.19386292 .13899231-.19386292 .15499878-.19386292 .2639923-.106918338 .2639923 .03199768 .2639923 .10499573 .22698975 .1599884 .16899109 .1599884 .12199402 .1599884 .08999634 .12399292 .08999634 .07998657 .08999634 .038986207 .11898804 0 .16999817 0 .18998719 0 .20899964 .0069885256 .22099304 .016998291Z"/>
<path id="font_5_2" d="M.36099244 .25C.36099244 .33898927 .34298707 .45999146 .2689972 .5779877 .20599365 .6779938 .11099243 .75 .08898926 .75 .07199097 .75 .067993167 .7389984 .067993167 .7319946 .067993167 .72499087 .07199097 .72099307 .08299255 .71199038 .20999146 .5970001 .25498963 .42199708 .25498963 .25 .25498963 .07899475 .21199036-.0960083 .084991458-.2090149 .07299805-.22000122 .067993167-.22401428 .067993167-.23200989 .067993167-.23901367 .07199097-.25 .08898926-.25 .10798645-.25 .16099549-.20500183 .18099976-.18600464 .30599977-.06201172 .36099244 .08999634 .36099244 .25Z"/>
<path id="font_5_6" d="M.5509949 .2280426H.49499513C.4869995 .16200257 .47399903 .14199829 .46798707 .13899231 .45700074 .1329956 .37998963 .1329956 .36299134 .1329956H.22499085C.35899354 .23805237 .41299439 .2680664 .45599366 .30108644 .526001 .35612489 .5509949 .40615846 .5509949 .46316529 .5509949 .58117678 .44198609 .6582031 .2899933 .6582031 .1619873 .6582031 .06098938 .6011963 .06098938 .50717166 .06098938 .4481659 .10899353 .4291687 .13699341 .4291687 .17199707 .4291687 .21398926 .4541626 .21398926 .50616458 .21398926 .5531616 .17999268 .5721588 .16699219 .5771637 .19499207 .5981903 .23498535 .6062012 .2659912 .6062012 .35598756 .6062012 .4059906 .5391693 .4059906 .4621582 .4059906 .38113404 .35299684 .31410218 .2939911 .25906373L.07299805 .052993776C.06199646 .041992189 .06098938 .040985109 .06098938 .020996094V0H.5179901L.5509949 .2280426Z"/>
<path id="font_2_1" d="M.33599855 .3408203H.44898988C.42199708 .22695923 .41999818 .17901612 .41999818 .14805603 .41999818 .07015991 .44499208-.009765625 .49598695-.009765625 .522995-.009765625 .5669861 .018218995 .5669861 .059173585 .5669861 .073150638 .56399539 .07914734 .55599978 .09112549 .5069885 .16603089 .5029907 .24394226 .5029907 .27789308 .5029907 .30485536 .5049896 .31684876 .5079956 .3408203H.6389923C.6599884 .3408203 .6719971 .3408203 .6899872 .35481263 .70399478 .3658142 .71299746 .38581849 .71299746 .40081788 .71299746 .44381715 .6729889 .44381715 .6559906 .44381715H.23498535C.21099854 .44381715 .16799927 .44381715 .10598755 .3918152 .08999634 .37780763 .03199768 .31884767 .03199768 .30285646 .03199768 .2848816 .04899597 .2848816 .05999756 .2848816 .07699585 .2848816 .07798767 .28588868 .08699036 .296875 .10598755 .31684876 .1349945 .3408203 .21299744 .3408203H.27598573C.25498963 .27789308 .22499085 .2059784 .15699768 .085128787 .14299011 .061157228 .13999939 .05517578 .13999939 .03918457 .13999939 .008224487 .16499329-.008773804 .19099427-.008773804 .21798706-.008773804 .24499512 .008224487 .2559967 .04019165 .2659912 .06616211 .272995 .09411621 .2809906 .12608338L.33599855 .3408203Z"/>
<path id="font_2_5" d="M.2899933 .65078738C.2939911 .66477969 .2939911 .66677859 .2939911 .67277529 .2939911 .68078616 .2889862 .6937866 .269989 .6937866 .2649994 .6937866 .2639923 .6937866 .2619934 .69277957L.1329956 .68678286C.12098694 .68577578 .09899902 .68478396 .09899902 .65478518 .09899902 .63378909 .11898804 .63378909 .1349945 .63378909 .147995 .63378909 .1639862 .63378909 .1639862 .6287842 .1639862 .62579348 .14698792 .55693057 .1309967 .4950409L.07998657 .2931366C.05999756 .2121582 .054992677 .19116211 .054992677 .15916443 .054992677 .049194337 .13198853-.008804321 .23899842-.008804321 .43399049-.008804321 .5359955 .15716553 .5359955 .2831421 .5359955 .39411927 .45599366 .453125 .34700013 .453125 .29699708 .453125 .2559967 .43611146 .23298645 .42311097L.2899933 .65078738M.24099732 .033203126C.1639862 .033203126 .1639862 .10218811 .1639862 .11917114 .1639862 .15916443 .18998719 .25715638 .21199036 .34013368 .21699524 .35812379 .27598573 .41111756 .34199525 .41111756 .3829956 .41111756 .4149933 .39012147 .4149933 .33312989 .4149933 .29014588 .38398744 .16616822 .36299134 .122177127 .32199098 .03919983 .2599945 .033203126 .24099732 .033203126Z"/>
<path id="font_5_7" d="M.28399659 .32714845C.3999939 .32714845 .40098573 .23034668 .40098573 .18035889 .40098573 .13534546 .40098573 .033325197 .28799439 .033325197 .2669983 .033325197 .20999146 .036315919 .1599884 .068359378 .1769867 .0753479 .21299744 .09635925 .21299744 .14535523 .21299744 .19335938 .1789856 .22634888 .13198853 .22634888 .08799744 .22634888 .050994874 .1963501 .050994874 .14434815 .050994874 .047332765 .15499878-.013671875 .29299928-.013671875 .4889984-.013671875 .5609894 .09234619 .5609894 .1793518 .5609894 .26127626 .49798585 .32914735 .3899994 .35313417 .4169922 .36413575 .5269928 .40715028 .5269928 .51615908 .5269928 .59617617 .44499208 .6582031 .29599 .6582031 .1659851 .6582031 .084991458 .58917239 .084991458 .50717166 .084991458 .45115663 .1289978 .4311676 .15899658 .4311676 .19898987 .4311676 .23298645 .45916749 .23298645 .5051575 .23298645 .52716067 .22499085 .5651703 .1769867 .5771637 .22099304 .6151886 .2809906 .6151886 .2899933 .6151886 .3829956 .6151886 .3829956 .5491638 .3829956 .51916506 .3829956 .4471588 .34899903 .41015626 .34599305 .40615846 .31698609 .37513734 .29899598 .3741455 .24499512 .37113954 .21398926 .36914063 .20399475 .36813355 .20399475 .34814454 .20399475 .32714845 .21699524 .32714845 .23498535 .32714845H.28399659Z"/>
<path id="font_5_9" d="M.17599488 .5010834C.20799256 .49609376 .24198914 .49609376 .24798584 .49609376 .27398683 .49609376 .34199525 .49609376 .4169922 .54408267 .44299317 .56108096 .5029907 .611084 .5029907 .63708499 .5029907 .65208438 .49499513 .65808108 .4850006 .65808108 .48298646 .65808108 .48098756 .65808108 .46998597 .65309146 .42099 .63609316 .3619995 .6260834 .30699159 .6260834 .2619934 .6260834 .20498657 .6320801 .13999939 .65408328 .13198853 .65808108 .12998963 .65808108 .1269989 .65808108 .10998535 .65808108 .10998535 .64108279 .10998535 .62709048V.33319093C.10998535 .3142395 .10998535 .29927064 .13699341 .29927064 .1519928 .29927064 .15499878 .30126954 .16499329 .31323243 .20498657 .36112977 .2669983 .3701172 .30599977 .3701172 .4019928 .3701172 .4019928 .27931214 .4019928 .20341492 .4019928 .13441468 .4019928 .033325197 .27198792 .033325197 .21998596 .033325197 .16999817 .055358888 .14299011 .089416507 .18499756 .09541321 .20498657 .12741089 .20498657 .16041565 .20498657 .2064209 .16899109 .23242188 .1329956 .23242188 .101989749 .23242188 .06098938 .2124176 .06098938 .15841675 .06098938 .068374637 .1459961-.013671875 .27598573-.013671875 .45399476-.013671875 .5509949 .08340454 .5509949 .20141602 .5509949 .31323243 .47099305 .41210938 .30999757 .41210938 .2619934 .41210938 .21598816 .4031067 .17599488 .3781128V.5010834Z"/>
<path id="font_6_8" d="M.57699587 .3771515C.58200076 .3951416 .58200076 .3971405 .58200076 .40014649 .58200076 .4221344 .56599429 .44413758 .5349884 .44413758 .48298646 .44413758 .47099305 .3971405 .46398927 .3701477L.43798829 .26615907C.42599488 .2181549 .40699769 .14117432 .3959961 .10017395 .3909912 .07817078 .3600006 .05418396 .35699464 .05218506 .34599305 .045181276 .32199098 .028182984 .2889862 .028182984 .22999573 .028182984 .22898865 .07817078 .22898865 .10116577 .22898865 .16217041 .2599945 .24015808 .28799439 .31214906 .2979889 .33815003 .30099488 .3451538 .30099488 .3621521 .30099488 .4201355 .24299622 .45214845 .18798828 .45214845 .08198547 .45214845 .03199768 .31614686 .03199768 .29615785 .03199768 .28215028 .04699707 .28215028 .055999757 .28215028 .067993167 .28215028 .07499695 .28215028 .07899475 .29515077 .11199951 .4061432 .16699219 .4161377 .18199158 .4161377 .18899536 .4161377 .19898987 .4161377 .19898987 .3951416 .19898987 .3721466 .18798828 .34614564 .18199158 .33015443 .14299011 .23016358 .12199402 .173172 .12199402 .122177127 .12199402 .008178711 .22200012-.0078125 .2809906-.0078125 .30599977-.0078125 .33999635-.0038146973 .3769989 .02218628 .34899903-.10101318 .27398683-.16615296 .20498657-.16615296 .19198609-.16615296 .1639862-.16415406 .14399719-.15213013 .17599488-.13909912 .19198609-.11204529 .19198609-.0849762 .19198609-.04890442 .16299439-.038879396 .14299011-.038879396 .10598755-.038879396 .070999149-.07095337 .070999149-.11505127 .070999149-.16615296 .12399292-.20214844 .20498657-.20214844 .31999208-.20214844 .45199586-.12506104 .48298646-.0008239746L.57699587 .3771515Z"/>
<path id="font_7_12" d="M.7879944 .33203126C.7999878 .33203126 .82899478 .33203126 .82899478 .36203004 .82899478 .39302064 .7979889 .39302064 .7829895 .39302064H.10998535C.09498596 .39302064 .06399536 .39302064 .06399536 .36203004 .06399536 .33203126 .09298706 .33203126 .10499573 .33203126H.7879944M.7829895 .107940677C.7979889 .107940677 .82899478 .107940677 .82899478 .13893128 .82899478 .16894531 .7999878 .16894531 .7879944 .16894531H.10499573C.09298706 .16894531 .06399536 .16894531 .06399536 .13893128 .06399536 .107940677 .09498596 .107940677 .10998535 .107940677H.7829895Z"/>
<path id="font_6_3" d="M.5149994 .31715394C.5209961 .34214784 .5309906 .3821411 .5309906 .3911438 .5309906 .42314149 .5049896 .4351349 .48399354 .4351349 .46499635 .4351349 .44499208 .42514039 .43299867 .410141 .41799928 .42614747 .3849945 .45214845 .32699586 .45214845 .15299988 .45214845 .04499817 .29415895 .04499817 .15716553 .04499817 .034179689 .13699341-.0078125 .21998596-.0078125 .29100038-.0078125 .34298707 .031173706 .35899354 .046173097 .39698792-.0078125 .46299745-.0078125 .47399903-.0078125 .5109863-.0078125 .5399933 .013183594 .5609894 .049179079 .58599856 .08917236 .598999 .14317322 .598999 .14816284 .598999 .16217041 .58399966 .16217041 .57499697 .16217041 .56399539 .16217041 .55999758 .16217041 .5549927 .15716553 .5529938 .15516663 .5529938 .15316773 .5469971 .12817383 .5269928 .048171998 .5039978 .028182984 .47898866 .028182984 .46798707 .028182984 .45599366 .032180787 .45599366 .06517029 .45599366 .08216858 .45999146 .09817505 .46998597 .13816834 .47698976 .16616822 .4869995 .2061615 .49198915 .22816468L.5149994 .31715394M.34899903 .093170169C.31999208 .059173585 .272995 .028182984 .22499085 .028182984 .16299439 .028182984 .1579895 .08216858 .1579895 .10417175 .1579895 .1561737 .19198609 .27915956 .20799256 .31814576 .23899842 .3911438 .28799439 .4161377 .32899476 .4161377 .3880005 .4161377 .4119873 .36914063 .4119873 .35813905L.4099884 .34414674 .34899903 .093170169Z"/>
<path id="font_7_13" d="M.3600006 .40711976C.34199525 .39111329 .33999635 .3701172 .33999635 .3611145 .33999635 .3171234 .375 .29812623 .4019928 .29812623 .43299867 .29812623 .46499635 .3191223 .46499635 .3611145 .46499635 .44711305 .34899903 .453125 .29100038 .453125 .11199951 .453125 .037994386 .3381195 .037994386 .22212219 .037994386 .08912659 .13198853-.005859375 .28599549-.005859375 .44799806-.005859375 .47799684 .11012268 .47799684 .117126468 .47799684 .13113404 .46398927 .13113404 .45399476 .13113404 .43598939 .13113404 .43499757 .12913513 .42999269 .11613464 .4039917 .053131105 .35598756 .03413391 .30499269 .03413391 .1659851 .03413391 .1659851 .18112183 .1659851 .22712708 .1659851 .28312684 .1659851 .41311646 .29499818 .41311646 .32998658 .41311646 .34700013 .41011048 .3600006 .40711976Z"/>
<path id="font_7_16" d="M.5419922 .21812439C.5419922 .35212709 .44999696 .453125 .2869873 .453125 .12298584 .453125 .03199768 .35112 .03199768 .21812439 .03199768 .09413147 .11999512-.005859375 .2869873-.005859375 .45498658-.005859375 .5419922 .09512329 .5419922 .21812439M.2869873 .03413391C.1599884 .03413391 .1599884 .14213562 .1599884 .22912598 .1599884 .27412416 .1599884 .32511903 .1769867 .3591156 .19599915 .39611817 .23799134 .41711427 .2869873 .41711427 .32899476 .41711427 .37098695 .40112306 .3929901 .36611939 .4139862 .3321228 .4139862 .27713014 .4139862 .22912598 .4139862 .14213562 .4139862 .03413391 .2869873 .03413391Z"/>
<path id="font_7_17" d="M.21099854 .29412843C.17399597 .30111695 .10899353 .31211854 .10899353 .3591156 .10899353 .42111207 .20199585 .42111207 .22099304 .42111207 .29599 .42111207 .33399964 .39212037 .33898927 .33711244 .33999635 .32211305 .34098817 .3171234 .3619995 .3171234 .38598634 .3171234 .38598634 .32211305 .38598634 .3451233V.42510987C.38598634 .4441223 .38598634 .453125 .36799623 .453125 .3639984 .453125 .3619995 .453125 .32299806 .43411256 .29699708 .44711305 .2619934 .453125 .22200012 .453125 .19198609 .453125 .037994386 .453125 .037994386 .32211305 .037994386 .28211976 .057998659 .25512696 .07798767 .23812866 .117996219 .203125 .1559906 .1971283 .23298645 .18312073 .2689972 .17712403 .34399415 .16412354 .34399415 .10513306 .34399415 .030136109 .2519989 .030136109 .22999573 .030136109 .12399292 .030136109 .09799194 .103134158 .085998538 .14613343 .08099365 .16012573 .07598877 .16012573 .06199646 .16012573 .037994386 .16012573 .037994386 .15412903 .037994386 .13113404V.022140503C.037994386 .0031280518 .037994386-.005859375 .055999757-.005859375 .06298828-.005859375 .06498718-.005859375 .085998538 .009140015 .08699036 .009140015 .10899353 .024139405 .11199951 .026138306 .1579895-.005859375 .20999146-.005859375 .22999573-.005859375 .26098634-.005859375 .4149933-.005859375 .4149933 .14012146 .4149933 .18312073 .394989 .21812439 .3600006 .24612427 .32099916 .27511598 .2889862 .28112794 .21099854 .29412843Z"/>
<path id="font_6_4" d="M.2809906 .6593323C.2849884 .6733246 .2849884 .6753235 .2849884 .67633059 .2849884 .68933108 .27398683 .69433596 .2630005 .69433596 .25898744 .69433596 .2579956 .69433596 .2559967 .69332888L.1269989 .68733218C.11299133 .6863251 .09498596 .68533328 .09498596 .6573334 .09498596 .639328 .11399841 .639328 .12098694 .639328 .13198853 .639328 .1499939 .639328 .16299439 .6373291 .15499878 .60328677 .14498902 .5602417 .1349945 .5222168L.06599426 .24615479C.051986696 .19017029 .051986696 .17816162 .051986696 .15516663 .051986696 .027175904 .14698792-.0078125 .22200012-.0078125 .40299989-.0078125 .5059967 .15516663 .5059967 .28715516 .5059967 .410141 .4139862 .45214845 .33099366 .45214845 .2829895 .45214845 .24299622 .433136 .22200012 .4201355L.2809906 .6593323M.22399903 .028182984C.18499756 .028182984 .1519928 .049179079 .1519928 .11117554 .1519928 .14317322 .1619873 .18016052 .16899109 .21116638 .1789856 .24916077 .19599915 .31814576 .20298767 .34814454 .20799256 .36514283 .2649994 .4161377 .32598878 .4161377 .3880005 .4161377 .3929901 .3621521 .3929901 .34014894 .3929901 .28814698 .35899354 .16516114 .34298707 .12617493 .30899049 .045181276 .25299073 .028182984 .22399903 .028182984Z"/>
<path id="font_6_7" d="M.5359955 .4011383C.5 .3911438 .48199464 .35714723 .48199464 .33215333 .48199464 .31015016 .49899293 .28614808 .5319977 .28614808 .5669861 .28614808 .60398867 .31515504 .60398867 .364151 .60398867 .41714479 .5509949 .45214845 .48999024 .45214845 .43299867 .45214845 .3959961 .4091339 .3829956 .3911438 .35798646 .433136 .3019867 .45214845 .24499512 .45214845 .11898804 .45214845 .050994874 .32914735 .050994874 .29615785 .050994874 .28215028 .06599426 .28215028 .07499695 .28215028 .08699036 .28215028 .09399414 .28215028 .09799194 .29515077 .1269989 .38613893 .19898987 .4161377 .23999024 .4161377 .27799989 .4161377 .29599 .39814759 .29599 .3661499 .29599 .3471527 .28199769 .29216004 .272995 .2561493L.23899842 .11917114C.22399903 .058181764 .18798828 .028182984 .1539917 .028182984 .14898682 .028182984 .12599182 .028182984 .10598755 .043182374 .14199829 .05317688 .1599884 .08717346 .1599884 .11216736 .1599884 .13417053 .14299011 .1581726 .10998535 .1581726 .07499695 .1581726 .037994386 .12916565 .037994386 .08016968 .037994386 .027175904 .09098816-.0078125 .1519928-.0078125 .20899964-.0078125 .24598694 .035186769 .25898744 .05317688 .28399659 .011184692 .33999635-.0078125 .39698792-.0078125 .522995-.0078125 .59098818 .11517334 .59098818 .14816284 .59098818 .16217041 .57598879 .16217041 .5669861 .16217041 .5549927 .16217041 .5479889 .16217041 .5439911 .14916992 .5149994 .058181764 .44299317 .028182984 .4019928 .028182984 .3639984 .028182984 .34599305 .046173097 .34599305 .07817078 .34599305 .09916687 .35899354 .15216065 .36799623 .18916321 .375 .21516419 .397995 .30915834 .40299989 .32514955 .41799928 .3851471 .45298768 .4161377 .48799134 .4161377 .49299623 .4161377 .5159912 .4161377 .5359955 .4011383Z"/>
<path id="font_8_84" d="M.59999087 .22319031C.59999087 .3561859 .5089874 .4501953 .36499024 .4501953 .2899933 .4501953 .23699951 .41918946 .21398926 .40118409V.4501953L.036987306 .4423828V.39537049C.09899902 .39537049 .10598755 .39537049 .10598755 .3573761V-.14648438H.036987306V-.1934967L.16299439-.19049073 .2889862-.1934967V-.14648438H.21998596V.03945923C.2630005 .004135132 .30699159-.005859375 .34799195-.005859375 .49798585-.005859375 .59999087 .08413696 .59999087 .22312927V.22319031M.47200013 .22312927C.47200013 .08213806 .4019928 .030136109 .33699037 .030136109 .32299806 .030136109 .27598573 .030136109 .23098755 .08413696 .21998596 .09713745 .21998596 .09812927 .21998596 .117126468V.32913209C.21998596 .34814454 .22099304 .3491516 .23498535 .36314393 .2749939 .4041443 .32699586 .41015626 .34899903 .41015626 .41600038 .41015626 .47200013 .3491516 .47200013 .22314453V.22312927Z"/>
<path id="font_8_50" d="M.49398805 .11706543C.49398805 .13504029 .47499085 .13504029 .46998597 .13504029 .45298768 .13504029 .45098878 .13005066 .44499208 .11405945 .42399598 .066101077 .36698915 .03413391 .3019867 .03413391 .16099549 .03413391 .1599884 .16700745 .1599884 .2179718H.46199037C.48399354 .2179718 .49398805 .2179718 .49398805 .2449646 .49398805 .27598573 .48799134 .34906007 .43798829 .3991089 .40098573 .43511964 .34799195 .453125 .2789917 .453125 .11898804 .453125 .03199768 .35005189 .03199768 .22497559 .03199768 .09107971 .13198853-.005859375 .29299928-.005859375 .45098878-.005859375 .49398805 .10006714 .49398805 .11706543M.39898683 .25097657H.1599884C.1619873 .29000855 .16299439 .3320465 .18399048 .36506654 .20999146 .4051056 .25 .41711427 .2789917 .41711427 .3959961 .41711427 .397995 .28599549 .39898683 .25097657Z"/>
<path id="font_8_96" d="M.44198609 .36819459C.44198609 .42118836 .3880005 .4501953 .33599855 .4501953 .2659912 .4501953 .22599793 .40019227 .20298767 .33718873V.4501953L.036987306 .4423828V.39537049C.09899902 .39537049 .10598755 .39537049 .10598755 .3563385V.04699707H.036987306V0L.16299439 .0029907227C.20098877 .0029907227 .2649994 .0029907227 .30099488 0V.04699707H.21398926V.22218323C.21398926 .29226686 .23899842 .41436769 .33898927 .41436769 .33898927 .41436769 .31999208 .39736939 .31999208 .36834718 .31999208 .32730104 .35198976 .3072815 .3809967 .3072815 .4099884 .3072815 .44198609 .3283081 .44198609 .36834718V.36819459Z"/>
<path id="font_8_66" d="M.28599549 0V.04699707H.22399903V.4501953L.049987794 .4423828V.39537049C.10899353 .39537049 .115997318 .39537049 .115997318 .3563385V.04699707H.04699707V0L.16899109 .0029907227 .28599549 0M.23799134 .60728457C.23799134 .6502838 .20298767 .6852875 .1599884 .6852875 .116989139 .6852875 .08198547 .6502838 .08198547 .60728457 .08198547 .5642853 .116989139 .5292969 .1599884 .5292969 .20298767 .5292969 .23799134 .5642853 .23799134 .60728457Z"/>
<path id="font_8_81" d="M.5419922 .21812439C.5419922 .35212709 .44999696 .453125 .2869873 .453125 .12298584 .453125 .03199768 .35112 .03199768 .21812439 .03199768 .09413147 .11999512-.005859375 .2869873-.005859375 .45498658-.005859375 .5419922 .09512329 .5419922 .21812439M.4139862 .22912598C.4139862 .14213562 .4139862 .03413391 .2869873 .03413391 .1599884 .03413391 .1599884 .14213562 .1599884 .22912598 .1599884 .27412416 .1599884 .32511903 .1769867 .3591156 .19599915 .39611817 .23799134 .41711427 .2869873 .41711427 .32899476 .41711427 .37098695 .40112306 .3929901 .36611939 .4139862 .3321228 .4139862 .27713014 .4139862 .22912598Z"/>
<path id="font_8_47" d="M.6009979 0V.04699707C.5389862 .04699707 .5319977 .04699707 .5319977 .086013797V.69433596L.35499574 .6855469V.63853457C.4169922 .63853457 .42399598 .63853457 .42399598 .5996704V.40518189C.37399293 .44418336 .32199098 .4501953 .2889862 .4501953 .14299011 .4501953 .037994386 .36218263 .037994386 .22116089 .037994386 .089141849 .12998963-.005859375 .27799989-.005859375 .33898927-.005859375 .3869934 .018127442 .41799928 .043136598V-.005859375L.6009979 0M.41799928 .102996829C.40499879 .08514404 .3639984 .030136109 .28799439 .030136109 .1659851 .030136109 .1659851 .15115357 .1659851 .22116089 .1659851 .26916505 .1659851 .3231659 .19198609 .36218263 .22099304 .40419007 .2679901 .41418458 .29899598 .41418458 .35598756 .41418458 .3959961 .3821869 .41799928 .35317994V.102996829Z"/>
<path id="font_7_6" d="M.5169983 .22209168H.46998597C.46699525 .20207215 .45799256 .13800049 .44400025 .1309967 .43299867 .125 .35798646 .125 .34199525 .125H.19499207C.24198914 .16403198 .2939911 .20707703 .33898927 .2401123 .45298768 .3242035 .5169983 .37124635 .5169983 .4663086 .5169983 .5812988 .41299439 .65527346 .27198792 .65527346 .15098572 .65527346 .056991579 .593277 .056991579 .50331118 .056991579 .44430543 .10499573 .42930604 .1289978 .42930604 .16099549 .42930604 .20098877 .4513092 .20098877 .50131228 .20098877 .55329897 .15899658 .5693054 .14399719 .5733032 .17298889 .5972748 .21099854 .6082611 .24699402 .6082611 .33299256 .6082611 .3789978 .54029849 .3789978 .4653015 .3789978 .39627076 .34098817 .3282013 .2709961 .25712586L.069992069 .051986696C.056991579 .039993287 .056991579 .037994386 .056991579 .017990113V0H.48599244L.5169983 .22209168Z"/>
<path id="font_6_1" d="M.31199647 .34832765H.42399598C.4019928 .2552948 .3909912 .1942749 .3909912 .1352539 .3909912 .067230228 .40899659-.0087890629 .45700074-.0087890629 .48999024-.0087890629 .526001 .02420044 .526001 .05621338 .526001 .068222049 .522995 .07423401 .5139923 .0892334 .46798707 .17025757 .46798707 .24728394 .46798707 .27430726 .46798707 .29830934 .46798707 .3083191 .47399903 .34832765H.59799197C.61698916 .34832765 .6329956 .34832765 .647995 .36332704 .6549988 .3703308 .66799929 .38232423 .66799929 .40533448 .66799929 .44433595 .6329956 .44433595 .61499026 .44433595H.22200012C.20098877 .44433595 .1579895 .44433595 .10499573 .3963318 .069992069 .3643341 .0309906 .31330873 .0309906 .3033142 .0309906 .28930665 .042999269 .28930665 .053985597 .28930665 .068984989 .28930665 .069992069 .29031373 .07899475 .3013153 .116989139 .34832765 .18299866 .34832765 .20199585 .34832765H.2619934C.23699951 .26930238 .19699097 .18727112 .14299011 .08622742 .1269989 .05621338 .12399292 .051223756 .12399292 .037216188 .12399292 .01020813 .1459961-.007797241 .17199707-.007797241 .19299317-.007797241 .20799256 .0032043458 .21499634 .00920105 .22999573 .02420044 .23098755 .028213501 .23599243 .049209596L.31199647 .34832765Z"/>
<path id="font_9_28" d="M.71598818 .034179689C.71598818 .06712341 .69898989 .06712341 .6779938 .06712341H.6719971C.6589966 .06712341 .621994 .06712341 .6009979 .07710266V.28977967C.6009979 .36997987 .5379944 .4560547 .32499696 .4560547 .2539978 .4560547 .10598755 .4560547 .10598755 .34791566 .10598755 .2998047 .14099121 .27172853 .18099976 .27172853 .22499085 .27172853 .2559967 .30381776 .2559967 .34692384 .2559967 .36395265 .25099183 .38000489 .24198914 .3920288 .2789917 .40003968 .30899049 .40003968 .32598878 .40003968 .41600038 .40003968 .46798707 .3659668 .46798707 .28677369V.2677307C.45498658 .26672364 .35198976 .26872254 .25299073 .25071717 .13398743 .22871399 .057998659 .19378662 .057998659 .11997986 .057998659-.0078125 .25099183-.0078125 .2899933-.0078125 .3880005-.0078125 .46099855 .015182495 .49198915 .060150148 .5 .00018310547 .56999209 .00018310547 .644989 .00018310547 .70899966 .00018310547 .71598818 .00018310547 .71598818 .034179689M.46798707 .13294983C.46798707 .10902405 .46798707 .08308411 .4169922 .06413269 .37599183 .048187257 .32299806 .048187257 .31698609 .048187257 .24598694 .048187257 .19099427 .07510376 .19099427 .12098694 .19099427 .20974732 .41999818 .21772766 .46798707 .21972656V.13294983Z"/>
<path id="font_9_75" d="M1.1799927 0V.066986087H1.1080017V.29508973C1.1080017 .44114686 .98999026 .45214845 .91400149 .45214845 .84999087 .45214845 .7630005 .43914796 .69699099 .3571167 .6689911 .42913819 .6100006 .45214845 .5109863 .45214845 .37199403 .45214845 .30799867 .38012696 .2849884 .3451233V.45214845L.09700012 .44433595V.3773346C.16099549 .3773346 .16899109 .3773346 .16899109 .33828736V.066986087H.09700012V0L.23599243 .0039978029C.272995 .0039978029 .32998658 .0029907227 .37399293 0V.066986087H.3019867V.2421875C.3019867 .36412049 .4269867 .39613343 .4869995 .39613343 .5509949 .39613343 .57199099 .37213136 .57199099 .29708863V.066986087H.5V0L.6389923 .0039978029C.6759949 .0039978029 .73298647 .0029907227 .7769928 0V.066986087H.7049866V.24206543C.7049866 .36412049 .8299866 .39613343 .8899994 .39613343 .95399478 .39613343 .97499087 .37213136 .97499087 .29708863V.066986087H.9029999V0L1.0419922 .0039978029C1.0789948 .0039978029 1.1360016 .0029907227 1.1799927 0Z"/>
<path id="font_9_84" d="M.7739868 .22314453C.7739868 .33114625 .69299319 .45214845 .48399354 .45214845 .44499208 .45214845 .36099244 .44914247 .2809906 .4081421V.45214845L.083999637 .44433595V.3773346H.100997928C.1559906 .3773346 .1559906 .37132264 .1559906 .3433075V-.12695313H.083999637V-.19395447L.22200012-.18995667 .36099244-.19395447V-.12695313H.2889862V.03718567C.31698609 .020187378 .375-.0078125 .45999146-.0078125 .6689911-.0078125 .7739868 .10119629 .7739868 .22325135V.22314453M.6239929 .22225952C.6239929 .112213138 .5499878 .048187257 .44499208 .048187257 .397995 .048187257 .33799745 .063186649 .2889862 .1282196V.32730104C.33999635 .3801422 .41799928 .39013673 .45799256 .39013673 .56799319 .39013673 .6239929 .31814576 .6239929 .22213745V.22225952Z"/>
<path id="font_9_72" d="M.36999513 0V.066986087H.2979889V.69433596L.100997928 .6855469V.61854556C.16499329 .61854556 .17298889 .61854556 .17298889 .5795746V.066986087H.100997928V0C.1459961 .0029907227 .18998719 .0039978029 .23498535 .0039978029 .23899842 .0039978029 .31698609 .0039978029 .36999513 0Z"/>
<path id="font_9_66" d="M.36299134 0V.066986087H.2979889V.45214845L.10398865 .44433595V.3773346C.1659851 .3773346 .17298889 .3773346 .17298889 .33828736V.066986087H.100997928V0C.14498902 .0029907227 .18998719 .0039978029 .23399353 .0039978029 .2769928 .0039978029 .31999208 .0029907227 .36299134 0M.3039856 .60250857C.3039856 .6505127 .2639923 .68652346 .21798706 .68652346 .16999817 .68652346 .13198853 .6485138 .13198853 .6035156 .13198853 .5555115 .17199707 .519516 .21798706 .519516 .2659912 .519516 .3039856 .5575104 .3039856 .60250857Z"/>
<path id="font_9_105" d="M.49899293 .1191864V.1671753H.41600038V.123184207C.41600038 .093185428 .4059906 .05418396 .34799195 .05418396 .2849884 .054092409 .2849884 .09408569 .2849884 .12109375V.3773346H.47499085V.44433595H.2849884V.6357422H.20199585C.19999695 .53352358 .1459961 .43632508 .04399109 .43333436V.3773346H.1519928V.11820984C.1519928 .0051727297 .26098634-.0078125 .32598878-.0078125 .39898683-.0078125 .49899293 .018173218 .49899293 .11921692V.1191864Z"/>
<path id="font_9_109" d="M.776001 .00018310547V.06718445C.71199038 .06718445 .70399478 .06718445 .70399478 .106170658V.45214845L.49899293 .44433595V.3773346C.5629883 .3773346 .57099917 .3773346 .57099917 .3383026V.15823365C.57099917 .06518555 .47399903 .048187257 .4059906 .048187257 .3019867 .048187257 .3019867 .06819153 .3019867 .112213138V.45214845L.09700012 .44433595V.3773346C.16099549 .3773346 .16899109 .3773346 .16899109 .3383026V.11820984C.16899109 .0021820069 .2899933-.0078125 .3849945-.0078125 .4189911-.0078125 .5139923-.0078125 .57899478 .05718994V-.0078125L.776001 .00018310547Z"/>
<path id="font_9_47" d="M.7549896 .00018310547V.06718445C.69099429 .06718445 .68299868 .06718445 .68299868 .10618591V.69433596L.48599244 .6855469V.61854556C.5499878 .61854556 .55799868 .61854556 .55799868 .5796814V.41114808C.5179901 .43214417 .45700074 .45214845 .37799073 .45214845 .1639862 .45214845 .06498718 .34014894 .06498718 .22116089 .06498718 .11216736 .1519928-.0078125 .3639984-.0078125 .44099427-.0078125 .5039978 .013183594 .5499878 .04118347V-.0078125L.7549896 .00018310547M.5499878 .13198853C.5 .06817627 .43499757 .048187257 .37799073 .048187257 .21499634 .048187257 .21499634 .16716004 .21499634 .22015381 .21499634 .27415467 .21499634 .39613343 .3929901 .39613343 .43699647 .39613343 .4869995 .3851471 .5289917 .3511505 .5499878 .33415223 .5499878 .33314515 .5499878 .31315614V.13198853Z"/>
<path id="font_9_50" d="M.6349945 .11022949C.6349945 .1352539 .61099246 .1352539 .5970001 .1352539H.58999636C.57099917 .1352539 .5629883 .1352539 .55400088 .12124634 .5439911 .10221863 .5159912 .05418396 .4099884 .05418396 .2829895 .05418396 .21699524 .10322571 .20799256 .19726563H.5970001C.61698916 .19726563 .6349945 .19726563 .6349945 .22921753 .6349945 .2871704 .61299136 .35508729 .57099917 .39305116 .5249939 .43304444 .46499635 .4560547 .3659973 .4560547 .14199829 .4560547 .056991579 .33311463 .056991579 .2262268 .056991579 .12023926 .14199829-.0078125 .3869934-.0078125 .4119873-.0078125 .48098756-.0078125 .54100039 .016174317 .60899356 .04335022 .6349945 .096343997 .6349945 .11035156V.11022949M.5339966 .24804688H.20799256C.20899964 .28404237 .21099854 .40003968 .36698915 .40003968 .5029907 .40003968 .5289917 .31504823 .5339966 .24804688Z"/>
<path id="font_10_1" d="M.4850006 .14419556C.47999574 .12619019 .47999574 .124191287 .46299745 .10620117 .44299317 .08520508 .3899994 .04623413 .31999208 .04623413 .2709961 .04623413 .22399903 .06222534 .22399903 .13020325 .22399903 .15917969 .24398804 .26715089 .2769928 .3221283 .30599977 .3691101 .35899354 .39808656 .41799928 .39808656 .5130005 .39808656 .5299988 .33111573 .5299988 .32511903 .5299988 .32312013 .5279999 .3121338 .5269928 .3101349L.4850006 .14419556M.56199648 .41108705C.5209961 .44309999 .46998597 .45410157 .4189911 .45410157 .20298767 .45410157 .08799744 .30014039 .08799744 .1711731 .08799744 .052230836 .18199158-.009765625 .31399537-.009765625 .39698792-.009765625 .45700074 .019226075 .49198915 .04222107 .5299988-.0067749025 .6119995-.009765625 .6329956-.009765625 .7480011-.009765625 .7939911 .13018799 .7939911 .1481781 .7939911 .17016602 .7739868 .17016602 .7519989 .17016602 .71798709 .17016602 .71499636 .17016602 .70700076 .14117432 .70199587 .12019348 .68099978 .04623413 .6399994 .04623413 .6239929 .04623413 .6029968 .056228639 .6029968 .08821106 .6029968 .10719299 .6469879 .2741089 .6549988 .30708314 .6619873 .33207704 .6719971 .37104798 .6719971 .38204957 .6719971 .41903688 .6429901 .43502809 .61698916 .43502809 .58599856 .43502809 .5649872 .41403199 .56199648 .411026V.41108705Z"/>
</defs>
<path transform="matrix(1,0,0,-1,146.383,97.812)" stroke-width=".79701" stroke-linecap="butt" stroke-miterlimit="10" stroke-linejoin="miter" fill="none" stroke="#000000" d="M-135.65499 0H201.13668"/>
<path transform="matrix(-1,-0,0,1,10.728012,97.812)" d="M4.66248 0C3.28098 .25902 1.0361 1.0361-.51805 1.94269V-1.94269C1.0361-1.0361 3.28098-.25902 4.66248 0"/>
<path transform="matrix(1,0,0,-1,347.51966,97.812)" d="M4.66248 0C3.28098 .25902 1.0361 1.0361-.51805 1.94269V-1.94269C1.0361-1.0361 3.28098-.25902 4.66248 0"/>
<use data-text="x" xlink:href="#font_1_3" transform="matrix(8.9664,0,0,-8.9664,355.901,99.805)"/>
<path transform="matrix(1,0,0,-1,146.383,97.812)" stroke-width=".79701" stroke-linecap="butt" stroke-miterlimit="10" stroke-linejoin="miter" fill="none" stroke="#000000" d="M0-74.70865V74.70865"/>
<path transform="matrix(0,1,1,0,146.383,172.52065)" d="M4.66248 0C3.28098 .25902 1.0361 1.0361-.51805 1.94269V-1.94269C1.0361-1.0361 3.28098-.25902 4.66248 0"/>
<path transform="matrix(0,-1,-1,-0,146.383,23.103348)" d="M4.66248 0C3.28098 .25902 1.0361 1.0361-.51805 1.94269V-1.94269C1.0361-1.0361 3.28098-.25902 4.66248 0"/>
<use data-text="y" xlink:href="#font_1_4" transform="matrix(8.9664,0,0,-8.9664,143.488,12.977997)"/>
<path transform="matrix(1,0,0,-1,146.383,97.812)" stroke-width=".79701" stroke-linecap="butt" stroke-miterlimit="10" stroke-linejoin="miter" fill="none" stroke="#000000" d="M1.55916 51.02432H-1.55916"/>
<use data-text="a" xlink:href="#font_2_4" transform="matrix(7.9701,0,0,-7.9701,134.297,62.552999)"/>
<path transform="matrix(1,0,0,-1,146.383,97.812)" stroke-width=".79701" stroke-linecap="butt" stroke-miterlimit="10" stroke-linejoin="miter" fill="none" stroke="#000000" d="M1.55916-51.02432H-1.55916"/>
<use data-text="&#x2212;" xlink:href="#font_3_1" transform="matrix(7.9701,0,0,-7.9701,126.702999,150.829)"/>
<use data-text="a" xlink:href="#font_2_4" transform="matrix(7.9701,0,0,-7.9701,134.297,150.829)"/>
<use data-text="0" xlink:href="#font_4_4" transform="matrix(8.9664,0,0,-8.9664,136.14099,108.52799)"/>
<path transform="matrix(1,0,0,-1,146.383,97.812)" stroke-width="1.59404" stroke-linecap="butt" stroke-miterlimit="10" stroke-linejoin="miter" fill="none" stroke="#000000" d="M-107.34947 32.74026-108.00912 33.97281-106.88245 31.75693-105.75577 29.44154-104.62909 27.031-103.50241 24.53267-102.3757 21.95476-101.24902 19.30588-100.12234 16.59734-98.99567 13.83255-97.86899 11.0245-96.74231 8.18102-95.61563 5.31026-94.48895 2.4235-93.36227-.47015-92.2356-3.36383-91.1089-6.2454-89.98222-9.1075-88.85555-11.94063-87.72887-14.73654-86.60219-17.48402-85.4755-20.17485-84.3488-22.7995-83.22212-25.3532-82.09544-27.82515-80.96877-30.20497-79.84207-32.48964-78.7154-34.66878-77.58871-36.73672-76.46204-38.68619-75.33536-40.5102-74.20868-42.2053-73.082-43.76375-71.95532-45.1803-70.82864-46.45241-69.70197-47.57571-68.57529-48.54501-67.4486-49.35733-66.3219-50.01132-65.19522-50.50398-64.06854-50.83401-62.94186-51.0001-61.81519-51.0014-60.6885-50.8405-59.56183-50.51567-58.43515-50.02518-57.30847-49.3768-56.18178-48.56839-55.0551-47.60295-53.92842-46.4844-52.80174-45.21577-51.67506-43.80267-50.54839-42.249-49.4217-40.55692-48.29501-38.73506-47.16833-36.79037-46.04166-34.72543-44.91496-32.54803-43.78828-30.26683-42.6616-27.88873-41.53493-25.42024-40.40825-22.86955-39.28157-20.24405-38.15489-17.5567-37.02821-14.80965-35.90154-12.01546-34.77486-9.18362-33.64818-6.32196-32.52147-3.43953-31.39479-.54713-30.2681 2.34738-29.14142 5.23499-28.01474 8.10489-26.88806 10.94969-25.76138 13.75859-24.6347 16.52425-23.50803 19.23581-22.38135 21.88469-21.25465 24.46477-20.12798 26.96613-19.0013 29.37926-17.87462 31.69766-16.74794 33.91486-15.62126 36.02348-14.49458 38.014-13.3679 39.88345-12.24121 41.6244-11.11453 43.23215-9.98784 44.69888-8.86116 46.02159-7.73448 47.19724-6.6078 48.22278-5.48112 49.08916-4.35445 49.79851-3.22777 50.34914-2.10109 50.73668-.97441 50.96031 .15222 51.02 1.2789 50.91577 2.4056 50.64975 3.53227 50.21678 4.65895 49.62334 5.78564 48.86986 6.91232 47.96022 8.039 46.89532 9.16568 45.67859 10.29236 44.3161 11.41904 42.81087 12.54572 41.16722 13.67241 39.39078 14.79909 37.48805 15.92577 35.4642 17.05244 33.3266 18.17912 31.08086 19.3058 28.73521 20.43248 26.2983 21.55916 23.77487 22.68584 21.17531 23.81253 18.50786 24.93924 15.782 26.06592 13.00337 27.1926 10.18408 28.31927 7.33151 29.44595 4.45468 30.57263 1.56491 31.69931-1.32874 32.82599-4.22026 33.95267-7.09706 35.07935-9.95313 36.20602-12.77544 37.33272-15.55621 38.4594-18.28899 39.58607-20.96034 40.71275-23.56552 41.83945-26.09586 42.96613-28.54057 44.0928-30.89357 45.21948-33.14754 46.34616-35.29465 47.47284-37.32845 48.59953-39.24026 49.72621-41.02707 50.85289-42.68153 51.97957-44.2006 53.10625-45.57349 54.23293-46.80103 55.3596-47.87848 56.48628-48.80194 57.61296-49.56798 58.73964-50.17395 59.86635-50.61903 60.99303-50.90105 62.1197-51.01785 63.24638-50.97026 64.37306-50.76093 65.49974-50.38719 66.62642-49.84999 67.7531-49.15231 68.87978-48.29848 70.00645-47.28676 71.13313-46.12367 72.25983-44.8118 73.3865-43.35587 74.51318-41.76067 75.63986-40.02922 76.76654-38.16972 77.89323-36.18828 79.01991-34.0909 80.14659-31.88148 81.27327-29.57043 82.39995-27.16467 83.52666-24.67195 84.65334-22.09706 85.78001-19.45251 86.9067-16.747 88.03337-13.98523 89.16005-11.1785 90.28673-8.3376 91.4134-5.4677 92.54008-2.58223 93.66676 .3114 94.79344 3.2051 95.92015 6.08838 97.04683 8.95265 98.17351 11.78752 99.30019 14.58388 100.42686 17.33481 101.55354 20.02908 102.68022 22.65848 103.8069 25.2161 104.93358 27.69193 106.06026 30.07738 107.18695 32.36723 108.31363 34.55199 109.4403 36.62686 110.56699 38.58324 111.69366 40.41287 112.82034 42.11578 113.94704 43.68199 115.07372 45.10764 116.2004 46.3871 117.32707 47.51732 118.45377 48.49614 119.58044 49.31667 120.70712 49.97932 121.8338 50.47975 122.96048 50.82018 124.08716 50.99622 125.21384 51.00615 126.34052 50.85262 127.4672 50.5373 128.59387 50.05717 129.72055 49.41615 130.84725 48.61597 131.97394 47.66005 133.10062 46.54973 134.2273 45.28845 135.35399 43.88313 136.48067 42.33768 137.60735 40.65337 138.73403 38.83801 139.8607 36.89851 140.98738 34.84134 142.11408 32.67001 143.24076 30.39357 144.36743 28.02066 145.49411 25.55779 146.62079 23.011 147.74747 20.38983 148.87415 17.70462 150.00084 14.96147 151.12752 12.169 152.2542 9.33934 153.38089 6.4781 154.50757 3.5974 155.63425 .70502 156.76093-2.1882 157.8876-5.07625 159.01428-7.94917 160.14096-10.79527 161.26764-13.6059 162.39432-16.3737 163.521-19.08961 164.64768-21.74194 165.77437-24.32549 166.90105-26.83075 168.02774-29.24994 169.15442-31.57396 170.2811-33.79677 169.62665-32.56918"/>
<path transform="matrix(-.47185,-.88164,-.88164,.47185,39.03354,65.07173)" d="M3.78581 0-2.27148 3.02866 0 0-2.27148-3.02866"/>
<path transform="matrix(.47047,.88239,.88239,-.47047,316.00965,130.38117)" d="M3.78581 0-2.27148 3.02866 0 0-2.27148-3.02866"/>
<path transform="matrix(1,0,0,-1,146.383,97.812)" d="M1.83177 51.02432C1.83177 52.03598 1.01166 52.8561 0 52.8561-1.01166 52.8561-1.83177 52.03598-1.83177 51.02432-1.83177 50.01266-1.01166 49.19255 0 49.19255 1.01166 49.19255 1.83177 50.01266 1.83177 51.02432ZM0 51.02432"/>
<path transform="matrix(1,0,0,-1,146.383,97.812)" stroke-width=".3985" stroke-linecap="butt" stroke-miterlimit="10" stroke-linejoin="miter" fill="none" stroke="#ffffff" d="M1.83177 51.02432C1.83177 52.03598 1.01166 52.8561 0 52.8561-1.01166 52.8561-1.83177 52.03598-1.83177 51.02432-1.83177 50.01266-1.01166 49.19255 0 49.19255 1.01166 49.19255 1.83177 50.01266 1.83177 51.02432ZM0 51.02432"/>
<path transform="matrix(1,0,0,-1,146.383,97.812)" d="M126.55843 51.02432C126.55843 52.03598 125.73831 52.8561 124.72664 52.8561 123.71498 52.8561 122.89487 52.03598 122.89487 51.02432 122.89487 50.01266 123.71498 49.19255 124.72664 49.19255 125.73831 49.19255 126.55843 50.01266 126.55843 51.02432ZM124.72664 51.02432"/>
<path transform="matrix(1,0,0,-1,146.383,97.812)" stroke-width=".3985" stroke-linecap="butt" stroke-miterlimit="10" stroke-linejoin="miter" fill="none" stroke="#ffffff" d="M126.55843 51.02432C126.55843 52.03598 125.73831 52.8561 124.72664 52.8561 123.71498 52.8561 122.89487 52.03598 122.89487 51.02432 122.89487 50.01266 123.71498 49.19255 124.72664 49.19255 125.73831 49.19255 126.55843 50.01266 126.55843 51.02432ZM124.72664 51.02432"/>
<path transform="matrix(1,0,0,-1,146.383,97.812)" d="M-60.53154-51.02432C-60.53154-50.01266-61.35165-49.19255-62.36331-49.19255-63.37497-49.19255-64.19508-50.01266-64.19508-51.02432-64.19508-52.03598-63.37497-52.8561-62.36331-52.8561-61.35165-52.8561-60.53154-52.03598-60.53154-51.02432ZM-62.36331-51.02432"/>
<path transform="matrix(1,0,0,-1,146.383,97.812)" stroke-width=".3985" stroke-linecap="butt" stroke-miterlimit="10" stroke-linejoin="miter" fill="none" stroke="#ffffff" d="M-60.53154-51.02432C-60.53154-50.01266-61.35165-49.19255-62.36331-49.19255-63.37497-49.19255-64.19508-50.01266-64.19508-51.02432-64.19508-52.03598-63.37497-52.8561-62.36331-52.8561-61.35165-52.8561-60.53154-52.03598-60.53154-51.02432ZM-62.36331-51.02432"/>
<path transform="matrix(1,0,0,-1,146.383,97.812)" d="M64.19508-51.02432C64.19508-50.01266 63.37497-49.19255 62.36331-49.19255 61.35165-49.19255 60.53154-50.01266 60.53154-51.02432 60.53154-52.03598 61.35165-52.8561 62.36331-52.8561 63.37497-52.8561 64.19508-52.03598 64.19508-51.02432ZM62.36331-51.02432"/>
<path transform="matrix(1,0,0,-1,146.383,97.812)" stroke-width=".3985" stroke-linecap="butt" stroke-miterlimit="10" stroke-linejoin="miter" fill="none" stroke="#ffffff" d="M64.19508-51.02432C64.19508-50.01266 63.37497-49.19255 62.36331-49.19255 61.35165-49.19255 60.53154-50.01266 60.53154-51.02432 60.53154-52.03598 61.35165-52.8561 62.36331-52.8561 63.37497-52.8561 64.19508-52.03598 64.19508-51.02432ZM62.36331-51.02432"/>
<path transform="matrix(1,0,0,-1,146.383,97.812)" d="M-91.7132 0C-91.7132 1.01166-92.53331 1.83177-93.54497 1.83177-94.55663 1.83177-95.37675 1.01166-95.37675 0-95.37675-1.01166-94.55663-1.83177-93.54497-1.83177-92.53331-1.83177-91.7132-1.01166-91.7132 0ZM-93.54497 0"/>
<path transform="matrix(1,0,0,-1,146.383,97.812)" stroke-width=".3985" stroke-linecap="butt" stroke-miterlimit="10" stroke-linejoin="miter" fill="none" stroke="#ffffff" d="M-91.7132 0C-91.7132 1.01166-92.53331 1.83177-93.54497 1.83177-94.55663 1.83177-95.37675 1.01166-95.37675 0-95.37675-1.01166-94.55663-1.83177-93.54497-1.83177-92.53331-1.83177-91.7132-1.01166-91.7132 0ZM-93.54497 0"/>
<path transform="matrix(1,0,0,-1,146.383,97.812)" d="M-29.34987 0C-29.34987 1.01166-30.17 1.83177-31.18166 1.83177-32.19331 1.83177-33.01343 1.01166-33.01343 0-33.01343-1.01166-32.19331-1.83177-31.18166-1.83177-30.17-1.83177-29.34987-1.01166-29.34987 0ZM-31.18166 0"/>
<path transform="matrix(1,0,0,-1,146.383,97.812)" stroke-width=".3985" stroke-linecap="butt" stroke-miterlimit="10" stroke-linejoin="miter" fill="none" stroke="#ffffff" d="M-29.34987 0C-29.34987 1.01166-30.17 1.83177-31.18166 1.83177-32.19331 1.83177-33.01343 1.01166-33.01343 0-33.01343-1.01166-32.19331-1.83177-31.18166-1.83177-30.17-1.83177-29.34987-1.01166-29.34987 0ZM-31.18166 0"/>
<path transform="matrix(1,0,0,-1,146.383,97.812)" d="M33.01343 0C33.01343 1.01166 32.19331 1.83177 31.18166 1.83177 30.17 1.83177 29.34987 1.01166 29.34987 0 29.34987-1.01166 30.17-1.83177 31.18166-1.83177 32.19331-1.83177 33.01343-1.01166 33.01343 0ZM31.18166 0"/>
<path transform="matrix(1,0,0,-1,146.383,97.812)" stroke-width=".3985" stroke-linecap="butt" stroke-miterlimit="10" stroke-linejoin="miter" fill="none" stroke="#ffffff" d="M33.01343 0C33.01343 1.01166 32.19331 1.83177 31.18166 1.83177 30.17 1.83177 29.34987 1.01166 29.34987 0 29.34987-1.01166 30.17-1.83177 31.18166-1.83177 32.19331-1.83177 33.01343-1.01166 33.01343 0ZM31.18166 0"/>
<path transform="matrix(1,0,0,-1,146.383,97.812)" d="M95.37675 0C95.37675 1.01166 94.55663 1.83177 93.54497 1.83177 92.53331 1.83177 91.7132 1.01166 91.7132 0 91.7132-1.01166 92.53331-1.83177 93.54497-1.83177 94.55663-1.83177 95.37675-1.01166 95.37675 0ZM93.54497 0"/>
<path transform="matrix(1,0,0,-1,146.383,97.812)" stroke-width=".3985" stroke-linecap="butt" stroke-miterlimit="10" stroke-linejoin="miter" fill="none" stroke="#ffffff" d="M95.37675 0C95.37675 1.01166 94.55663 1.83177 93.54497 1.83177 92.53331 1.83177 91.7132 1.01166 91.7132 0 91.7132-1.01166 92.53331-1.83177 93.54497-1.83177 94.55663-1.83177 95.37675-1.01166 95.37675 0ZM93.54497 0"/>
<path transform="matrix(1,0,0,-1,146.383,97.812)" d="M157.74008 0C157.74008 1.01166 156.91997 1.83177 155.90831 1.83177 154.89664 1.83177 154.07653 1.01166 154.07653 0 154.07653-1.01166 154.89664-1.83177 155.90831-1.83177 156.91997-1.83177 157.74008-1.01166 157.74008 0ZM155.90831 0"/>
<path transform="matrix(1,0,0,-1,146.383,97.812)" stroke-width=".3985" stroke-linecap="butt" stroke-miterlimit="10" stroke-linejoin="miter" fill="none" stroke="#ffffff" d="M157.74008 0C157.74008 1.01166 156.91997 1.83177 155.90831 1.83177 154.89664 1.83177 154.07653 1.01166 154.07653 0 154.07653-1.01166 154.89664-1.83177 155.90831-1.83177 156.91997-1.83177 157.74008-1.01166 157.74008 0ZM155.90831 0"/>
<use data-text="(" xlink:href="#font_5_1" transform="matrix(7.9701,0,0,-7.9701,120.87399,41.274999)"/>
<use data-text="0" xlink:href="#font_5_4" transform="matrix(7.9701,0,0,-7.9701,124.66776,41.274999)"/>
<use data-text="," xlink:href="#font_2_3" transform="matrix(7.9701,0,0,-7.9701,129.553,41.274999)"/>
<use data-text="a" xlink:href="#font_2_4" transform="matrix(7.9701,0,0,-7.9701,133.67353,41.274999)"/>
<use data-text=")" xlink:href="#font_5_2" transform="matrix(7.9701,0,0,-7.9701,139.06699,41.274999)"/>
<use data-text="(" xlink:href="#font_5_1" transform="matrix(7.9701,0,0,-7.9701,255.863,37.296998)"/>
<use data-text="2" xlink:href="#font_5_6" transform="matrix(7.9701,0,0,-7.9701,260.85603,31.747998)"/>
<use data-text="&#x03c0;" xlink:href="#font_2_1" transform="matrix(7.9701,0,0,-7.9701,265.738,31.747998)"/>
<path transform="matrix(1,0,0,-1,181.48,11.489998)" stroke-width=".3587" stroke-linecap="butt" stroke-miterlimit="10" stroke-linejoin="miter" fill="none" stroke="#000000" d="M79.376-23.815H90.371"/>
<use data-text="b" xlink:href="#font_2_5" transform="matrix(7.9701,0,0,-7.9701,264.159,43.267999)"/>
<use data-text="," xlink:href="#font_2_3" transform="matrix(7.9701,0,0,-7.9701,273.046,37.296998)"/>
<use data-text="a" xlink:href="#font_2_4" transform="matrix(7.9701,0,0,-7.9701,277.16654,37.296998)"/>
<use data-text=")" xlink:href="#font_5_2" transform="matrix(7.9701,0,0,-7.9701,282.56,37.296998)"/>
<use data-text="(" xlink:href="#font_5_1" transform="matrix(7.9701,0,0,-7.9701,63.619997,161.448)"/>
<use data-text="&#x2212;" xlink:href="#font_3_1" transform="matrix(7.9701,0,0,-7.9701,67.41699,161.448)"/>
<use data-text="&#x03c0;" xlink:href="#font_2_1" transform="matrix(7.9701,0,0,-7.9701,76.20699,155.89899)"/>
<path transform="matrix(1,0,0,-1,-10.763008,135.64099)" stroke-width=".3587" stroke-linecap="butt" stroke-miterlimit="10" stroke-linejoin="miter" fill="none" stroke="#000000" d="M86.97-23.815H93.083"/>
<use data-text="b" xlink:href="#font_2_5" transform="matrix(7.9701,0,0,-7.9701,77.06899,167.41899)"/>
<use data-text="," xlink:href="#font_2_3" transform="matrix(7.9701,0,0,-7.9701,83.51499,161.448)"/>
<use data-text="&#x2212;" xlink:href="#font_3_1" transform="matrix(7.9701,0,0,-7.9701,87.63899,161.448)"/>
<use data-text="a" xlink:href="#font_2_4" transform="matrix(7.9701,0,0,-7.9701,95.232997,161.448)"/>
<use data-text=")" xlink:href="#font_5_2" transform="matrix(7.9701,0,0,-7.9701,100.62299,161.448)"/>
<use data-text="(" xlink:href="#font_5_1" transform="matrix(7.9701,0,0,-7.9701,192.143,161.448)"/>
<use data-text="&#x03c0;" xlink:href="#font_2_1" transform="matrix(7.9701,0,0,-7.9701,197.136,155.89899)"/>
<path transform="matrix(1,0,0,-1,117.759998,135.64099)" stroke-width=".3587" stroke-linecap="butt" stroke-miterlimit="10" stroke-linejoin="miter" fill="none" stroke="#000000" d="M79.376-23.815H85.489"/>
<use data-text="b" xlink:href="#font_2_5" transform="matrix(7.9701,0,0,-7.9701,197.99799,167.41899)"/>
<use data-text="," xlink:href="#font_2_3" transform="matrix(7.9701,0,0,-7.9701,204.44499,161.448)"/>
<use data-text="&#x2212;" xlink:href="#font_3_1" transform="matrix(7.9701,0,0,-7.9701,208.568,161.448)"/>
<use data-text="a" xlink:href="#font_2_4" transform="matrix(7.9701,0,0,-7.9701,216.16199,161.448)"/>
<use data-text=")" xlink:href="#font_5_2" transform="matrix(7.9701,0,0,-7.9701,221.552,161.448)"/>
<use data-text="(" xlink:href="#font_5_1" transform="matrix(7.9701,0,0,-7.9701,11.738998,112.018)"/>
<use data-text="&#x2212;" xlink:href="#font_3_1" transform="matrix(7.9701,0,0,-7.9701,15.5359959,112.018)"/>
<use data-text="3" xlink:href="#font_5_7" transform="matrix(7.9701,0,0,-7.9701,24.325997,106.468997)"/>
<use data-text="&#x03c0;" xlink:href="#font_2_1" transform="matrix(7.9701,0,0,-7.9701,29.206994,106.468997)"/>
<path transform="matrix(1,0,0,-1,-62.644006,86.211)" stroke-width=".3587" stroke-linecap="butt" stroke-miterlimit="10" stroke-linejoin="miter" fill="none" stroke="#000000" d="M86.97-23.815H97.965"/>
<use data-text="2" xlink:href="#font_5_6" transform="matrix(7.9701,0,0,-7.9701,25.187996,117.989)"/>
<use data-text="b" xlink:href="#font_2_5" transform="matrix(7.9701,0,0,-7.9701,30.068993,117.989)"/>
<use data-text="," xlink:href="#font_2_3" transform="matrix(7.9701,0,0,-7.9701,36.51599,112.018)"/>
<use data-text="0" xlink:href="#font_5_4" transform="matrix(7.9701,0,0,-7.9701,40.63999,112.018)"/>
<use data-text=")" xlink:href="#font_5_2" transform="matrix(7.9701,0,0,-7.9701,45.517694,112.018)"/>
<use data-text="(" xlink:href="#font_5_1" transform="matrix(7.9701,0,0,-7.9701,75.826,88.322)"/>
<use data-text="&#x2212;" xlink:href="#font_3_1" transform="matrix(7.9701,0,0,-7.9701,79.62299,88.322)"/>
<use data-text="&#x03c0;" xlink:href="#font_2_1" transform="matrix(7.9701,0,0,-7.9701,89.991,82.772998)"/>
<path transform="matrix(1,0,0,-1,1.4429932,62.515)" stroke-width=".3587" stroke-linecap="butt" stroke-miterlimit="10" stroke-linejoin="miter" fill="none" stroke="#000000" d="M86.97-23.815H96.241"/>
<use data-text="2" xlink:href="#font_5_6" transform="matrix(7.9701,0,0,-7.9701,88.412998,94.293)"/>
<use data-text="b" xlink:href="#font_2_5" transform="matrix(7.9701,0,0,-7.9701,93.29399,94.293)"/>
<use data-text="," xlink:href="#font_2_3" transform="matrix(7.9701,0,0,-7.9701,98.87899,88.322)"/>
<use data-text="0" xlink:href="#font_5_4" transform="matrix(7.9701,0,0,-7.9701,103.00199,88.322)"/>
<use data-text=")" xlink:href="#font_5_2" transform="matrix(7.9701,0,0,-7.9701,107.87969,88.322)"/>
<use data-text="(" xlink:href="#font_5_1" transform="matrix(7.9701,0,0,-7.9701,181.08399,88.322)"/>
<use data-text="&#x03c0;" xlink:href="#font_2_1" transform="matrix(7.9701,0,0,-7.9701,187.65599,82.772998)"/>
<path transform="matrix(1,0,0,-1,106.70099,62.515)" stroke-width=".3587" stroke-linecap="butt" stroke-miterlimit="10" stroke-linejoin="miter" fill="none" stroke="#000000" d="M79.376-23.815H88.647"/>
<use data-text="2" xlink:href="#font_5_6" transform="matrix(7.9701,0,0,-7.9701,186.077,94.293)"/>
<use data-text="b" xlink:href="#font_2_5" transform="matrix(7.9701,0,0,-7.9701,190.95899,94.293)"/>
<use data-text="," xlink:href="#font_2_3" transform="matrix(7.9701,0,0,-7.9701,196.54299,88.322)"/>
<use data-text="0" xlink:href="#font_5_4" transform="matrix(7.9701,0,0,-7.9701,200.66699,88.322)"/>
<use data-text=")" xlink:href="#font_5_2" transform="matrix(7.9701,0,0,-7.9701,205.54468,88.322)"/>
<use data-text="(" xlink:href="#font_5_1" transform="matrix(7.9701,0,0,-7.9701,243.448,112.018)"/>
<use data-text="3" xlink:href="#font_5_7" transform="matrix(7.9701,0,0,-7.9701,248.44101,106.468997)"/>
<use data-text="&#x03c0;" xlink:href="#font_2_1" transform="matrix(7.9701,0,0,-7.9701,253.32302,106.468997)"/>
<path transform="matrix(1,0,0,-1,169.065,86.211)" stroke-width=".3587" stroke-linecap="butt" stroke-miterlimit="10" stroke-linejoin="miter" fill="none" stroke="#000000" d="M79.376-23.815H90.371"/>
<use data-text="2" xlink:href="#font_5_6" transform="matrix(7.9701,0,0,-7.9701,249.30301,117.989)"/>
<use data-text="b" xlink:href="#font_2_5" transform="matrix(7.9701,0,0,-7.9701,254.185,117.989)"/>
<use data-text="," xlink:href="#font_2_3" transform="matrix(7.9701,0,0,-7.9701,260.63099,112.018)"/>
<use data-text="0" xlink:href="#font_5_4" transform="matrix(7.9701,0,0,-7.9701,264.755,112.018)"/>
<use data-text=")" xlink:href="#font_5_2" transform="matrix(7.9701,0,0,-7.9701,269.6327,112.018)"/>
<use data-text="(" xlink:href="#font_5_1" transform="matrix(7.9701,0,0,-7.9701,311.47999,112.018)"/>
<use data-text="5" xlink:href="#font_5_9" transform="matrix(7.9701,0,0,-7.9701,316.473,106.468997)"/>
<use data-text="&#x03c0;" xlink:href="#font_2_1" transform="matrix(7.9701,0,0,-7.9701,321.35499,106.468997)"/>
<path transform="matrix(1,0,0,-1,237.09699,86.211)" stroke-width=".3587" stroke-linecap="butt" stroke-miterlimit="10" stroke-linejoin="miter" fill="none" stroke="#000000" d="M79.376-23.815H90.371"/>
<use data-text="2" xlink:href="#font_5_6" transform="matrix(7.9701,0,0,-7.9701,317.335,117.989)"/>
<use data-text="b" xlink:href="#font_2_5" transform="matrix(7.9701,0,0,-7.9701,322.21699,117.989)"/>
<use data-text="," xlink:href="#font_2_3" transform="matrix(7.9701,0,0,-7.9701,328.66297,112.018)"/>
<use data-text="0" xlink:href="#font_5_4" transform="matrix(7.9701,0,0,-7.9701,332.787,112.018)"/>
<use data-text=")" xlink:href="#font_5_2" transform="matrix(7.9701,0,0,-7.9701,337.66468,112.018)"/>
<use data-text="y" xlink:href="#font_6_8" transform="matrix(9.9626,0,0,-9.9626,18.939995,37.939996)"/>
<use data-text="=" xlink:href="#font_7_12" transform="matrix(9.9626,0,0,-9.9626,27.956994,37.939996)"/>
<use data-text="a" xlink:href="#font_6_3" transform="matrix(9.9626,0,0,-9.9626,39.635995,37.939996)"/>
<use data-text="c" xlink:href="#font_7_13" transform="matrix(9.9626,0,0,-9.9626,47.600999,37.939996)"/>
<use data-text="o" xlink:href="#font_7_16" transform="matrix(9.9626,0,0,-9.9626,52.691888,37.939996)"/>
<use data-text="s" xlink:href="#font_7_17" transform="matrix(9.9626,0,0,-9.9626,58.42038,37.939996)"/>
<use data-text="b" xlink:href="#font_6_4" transform="matrix(9.9626,0,0,-9.9626,64.601,37.939996)"/>
<use data-text="x" xlink:href="#font_6_7" transform="matrix(9.9626,0,0,-9.9626,69.78155,37.939996)"/>
<path transform="matrix(1,0,0,-1,146.383,97.812)" stroke-width=".79701" stroke-linecap="butt" stroke-miterlimit="10" stroke-linejoin="miter" fill="none" stroke="#000000" d="M10.8987 51.02432H113.82791"/>
<path transform="matrix(-1,-0,0,1,157.2817,46.787679)" d="M4.66248 0C3.28098 .25902 1.0361 1.0361-.51805 1.94269V-1.94269C1.0361-1.0361 3.28098-.25902 4.66248 0"/>
<path transform="matrix(1,0,0,-1,260.2109,46.787679)" d="M4.66248 0C3.28098 .25902 1.0361 1.0361-.51805 1.94269V-1.94269C1.0361-1.0361 3.28098-.25902 4.66248 0"/>
<path transform="matrix(1,0,0,-1,146.383,97.812)" d="M35.19264 38.83334H89.533939V63.2153H35.19264Z" fill="#ffffff"/>
<use data-text="p" xlink:href="#font_8_84" transform="matrix(9.9626,0,0,-9.9626,183.07,49.950998)"/>
<use data-text="e" xlink:href="#font_8_50" transform="matrix(9.9626,0,0,-9.9626,189.75492,49.950998)"/>
<use data-text="r" xlink:href="#font_8_96" transform="matrix(9.9626,0,0,-9.9626,195.00519,49.950998)"/>
<use data-text="i" xlink:href="#font_8_66" transform="matrix(9.9626,0,0,-9.9626,199.72748,49.950998)"/>
<use data-text="o" xlink:href="#font_8_81" transform="matrix(9.9626,0,0,-9.9626,202.90555,49.950998)"/>
<use data-text="d" xlink:href="#font_8_47" transform="matrix(9.9626,0,0,-9.9626,208.95284,49.950998)"/>
<use data-text="2" xlink:href="#font_7_6" transform="matrix(9.9626,0,0,-9.9626,220.331,42.511999)"/>
<use data-text="&#x03c0;" xlink:href="#font_6_1" transform="matrix(9.9626,0,0,-9.9626,226.05899,42.511999)"/>
<path transform="matrix(1,0,0,-1,108.687,24.143998)" stroke-width=".3985" stroke-linecap="butt" stroke-miterlimit="10" stroke-linejoin="miter" fill="none" stroke="#000000" d="M111.644-23.317H124.54"/>
<use data-text="b" xlink:href="#font_6_4" transform="matrix(9.9626,0,0,-9.9626,224.18399,57.484998)"/>
<path transform="matrix(1,0,0,-1,146.383,97.812)" stroke-width=".79701" stroke-linecap="butt" stroke-miterlimit="10" stroke-linejoin="miter" fill="none" stroke="#000000" d="M193.3262 .59775V50.42656"/>
<path transform="matrix(0,1,1,0,339.7092,92.35252)" d="M4.66248 0C3.28098 .25902 1.0361 1.0361-.51805 1.94269V-1.94269C1.0361-1.0361 3.28098-.25902 4.66248 0"/>
<path transform="matrix(0,1,1,0,339.7092,97.4135)" stroke-width=".79701" stroke-linecap="butt" stroke-miterlimit="10" stroke-linejoin="miter" fill="none" stroke="#000000" d="M0 3.08846V-3.08846"/>
<path transform="matrix(0,-1,-1,-0,339.7092,52.247167)" d="M4.66248 0C3.28098 .25902 1.0361 1.0361-.51805 1.94269V-1.94269C1.0361-1.0361 3.28098-.25902 4.66248 0"/>
<path transform="matrix(0,-1,-1,-0,339.7092,47.186178)" stroke-width=".79701" stroke-linecap="butt" stroke-miterlimit="10" stroke-linejoin="miter" fill="none" stroke="#000000" d="M0 3.08846V-3.08846"/>
<path transform="matrix(1,0,0,-1,146.383,97.812)" d="M183.38384 47.04141V3.98245H190.7961V47.04141ZM190.7961 3.98245" fill="#ffffff"/>
<use data-text="a" xlink:href="#font_9_28" transform="matrix(0,-4.9813,-4.9813,-0,334.718,92.33599)"/>
<use data-text="m" xlink:href="#font_9_75" transform="matrix(0,-4.9813,-4.9813,-0,334.718,88.65979)"/>
<use data-text="p" xlink:href="#font_9_84" transform="matrix(0,-4.9813,-4.9813,-0,334.718,82.473018)"/>
<use data-text="l" xlink:href="#font_9_72" transform="matrix(0,-4.9813,-4.9813,-0,334.718,78.2937)"/>
<use data-text="i" xlink:href="#font_9_66" transform="matrix(0,-4.9813,-4.9813,-0,334.718,76.12186)"/>
<use data-text="t" xlink:href="#font_9_105" transform="matrix(0,-4.9813,-4.9813,-0,334.718,73.95001)"/>
<use data-text="u" xlink:href="#font_9_109" transform="matrix(0,-4.9813,-4.9813,-0,334.718,70.97617)"/>
<use data-text="d" xlink:href="#font_9_47" transform="matrix(0,-4.9813,-4.9813,-0,334.718,66.79686)"/>
<use data-text="e" xlink:href="#font_9_50" transform="matrix(0,-4.9813,-4.9813,-0,334.718,62.617547)"/>
<use data-text="a" xlink:href="#font_10_1" transform="matrix(0,-4.9813,-4.9813,-0,334.718,56.594987)"/>
</svg>
