<svg style="overflow: visible;" xmlns="http://www.w3.org/2000/svg" xmlns:xlink="http://www.w3.org/1999/xlink" xmlns:inkscape="http://www.inkscape.org/namespaces/inkscape" version="1.1" width="100%" height="100%" viewBox="0 0 390.41 246.24">
<defs>
<path id="font_1_7" d="M.5359955 .4011383C.5 .3911438 .48199464 .35714723 .48199464 .33215333 .48199464 .31015016 .49899293 .28614808 .5319977 .28614808 .5669861 .28614808 .60398867 .31515504 .60398867 .364151 .60398867 .41714479 .5509949 .45214845 .48999024 .45214845 .43299867 .45214845 .3959961 .4091339 .3829956 .3911438 .35798646 .433136 .3019867 .45214845 .24499512 .45214845 .11898804 .45214845 .050994874 .32914735 .050994874 .29615785 .050994874 .28215028 .06599426 .28215028 .07499695 .28215028 .08699036 .28215028 .09399414 .28215028 .09799194 .29515077 .1269989 .38613893 .19898987 .4161377 .23999024 .4161377 .27799989 .4161377 .29599 .39814759 .29599 .3661499 .29599 .3471527 .28199769 .29216004 .272995 .2561493L.23899842 .11917114C.22399903 .058181764 .18798828 .028182984 .1539917 .028182984 .14898682 .028182984 .12599182 .028182984 .10598755 .043182374 .14199829 .05317688 .1599884 .08717346 .1599884 .11216736 .1599884 .13417053 .14299011 .1581726 .10998535 .1581726 .07499695 .1581726 .037994386 .12916565 .037994386 .08016968 .037994386 .027175904 .09098816-.0078125 .1519928-.0078125 .20899964-.0078125 .24598694 .035186769 .25898744 .05317688 .28399659 .011184692 .33999635-.0078125 .39698792-.0078125 .522995-.0078125 .59098818 .11517334 .59098818 .14816284 .59098818 .16217041 .57598879 .16217041 .5669861 .16217041 .5549927 .16217041 .5479889 .16217041 .5439911 .14916992 .5149994 .058181764 .44299317 .028182984 .4019928 .028182984 .3639984 .028182984 .34599305 .046173097 .34599305 .07817078 .34599305 .09916687 .35899354 .15216065 .36799623 .18916321 .375 .21516419 .397995 .30915834 .40299989 .32514955 .41799928 .3851471 .45298768 .4161377 .48799134 .4161377 .49299623 .4161377 .5159912 .4161377 .5359955 .4011383Z"/>
<path id="font_1_8" d="M.57699587 .3771515C.58200076 .3951416 .58200076 .3971405 .58200076 .40014649 .58200076 .4221344 .56599429 .44413758 .5349884 .44413758 .48298646 .44413758 .47099305 .3971405 .46398927 .3701477L.43798829 .26615907C.42599488 .2181549 .40699769 .14117432 .3959961 .10017395 .3909912 .07817078 .3600006 .05418396 .35699464 .05218506 .34599305 .045181276 .32199098 .028182984 .2889862 .028182984 .22999573 .028182984 .22898865 .07817078 .22898865 .10116577 .22898865 .16217041 .2599945 .24015808 .28799439 .31214906 .2979889 .33815003 .30099488 .3451538 .30099488 .3621521 .30099488 .4201355 .24299622 .45214845 .18798828 .45214845 .08198547 .45214845 .03199768 .31614686 .03199768 .29615785 .03199768 .28215028 .04699707 .28215028 .055999757 .28215028 .067993167 .28215028 .07499695 .28215028 .07899475 .29515077 .11199951 .4061432 .16699219 .4161377 .18199158 .4161377 .18899536 .4161377 .19898987 .4161377 .19898987 .3951416 .19898987 .3721466 .18798828 .34614564 .18199158 .33015443 .14299011 .23016358 .12199402 .173172 .12199402 .122177127 .12199402 .008178711 .22200012-.0078125 .2809906-.0078125 .30599977-.0078125 .33999635-.0038146973 .3769989 .02218628 .34899903-.10101318 .27398683-.16615296 .20498657-.16615296 .19198609-.16615296 .1639862-.16415406 .14399719-.15213013 .17599488-.13909912 .19198609-.11204529 .19198609-.0849762 .19198609-.04890442 .16299439-.038879396 .14299011-.038879396 .10598755-.038879396 .070999149-.07095337 .070999149-.11505127 .070999149-.16615296 .12399292-.20214844 .20498657-.20214844 .31999208-.20214844 .45199586-.12506104 .48298646-.0008239746L.57699587 .3771515Z"/>
<path id="font_2_4" d="M.54499819 .31925965C.54499819 .4212494 .5419922 .65625 .29599 .65625 .051986696 .65625 .04598999 .429245 .04598999 .31925965 .04598999 .21525574 .04899597-.01171875 .29499818-.01171875 .5389862-.01171875 .54499819 .20826721 .54499819 .31925965M.29599 .028274537C.2689972 .028274537 .19999695 .040267946 .18699646 .13226319 .1789856 .18527222 .1789856 .27626039 .1789856 .33125306 .1789856 .3942566 .1789856 .47824098 .18699646 .52523806 .20199585 .60523989 .2689972 .61624148 .29499818 .61624148 .32798768 .61624148 .3909912 .600235 .4039917 .5222473 .4119873 .47424317 .4119873 .3882599 .4119873 .33125306 .4119873 .25326539 .4119873 .13426209 .3959961 .09527588 .37399293 .046279909 .32899476 .028274537 .29599 .028274537Z"/>
<path id="font_3_82" d="M.43199159 0V.0309906H.3999939C.30699159 .0309906 .3039856 .042999269 .3039856 .08001709V.63912966C.3039856 .6640167 .30299378 .6660156 .27799989 .6660156 .21598816 .60227969 .12399292 .60227969 .09298706 .60227969V.57128909C.11199951 .57128909 .17298889 .57128909 .22698975 .5972748V.08001709C.22698975 .042999269 .22399903 .0309906 .1309967 .0309906H.09899902V0C.1349945 .0029907227 .22399903 .0029907227 .2649994 .0029907227 .30599977 .0029907227 .3959961 .0029907227 .43199159 0Z"/>
<path id="font_3_107" d="M.46199037 .17704773H.43399049C.43199159 .16404724 .42399598 .10501099 .41099549 .08900452 .40499879 .07998657 .33599855 .07998657 .31599427 .07998657H.13798523L.23699951 .17404175C.40098573 .3161316 .46199037 .36915589 .46199037 .4711914 .46199037 .5860901 .36698915 .6660156 .24398804 .6660156 .1289978 .6660156 .050994874 .575119 .050994874 .4841919 .050994874 .43418885 .09399414 .42919923 .102996829 .42919923 .125 .42919923 .15499878 .44519044 .15499878 .48120118 .15499878 .51119998 .13398743 .5332031 .102996829 .5332031 .09799194 .5332031 .09498596 .5332031 .09098816 .53219607 .114990238 .6030731 .1789856 .63500979 .23298645 .63500979 .33499146 .63500979 .36999513 .5401764 .36999513 .4711914 .36999513 .36915589 .29299928 .28611756 .24499512 .23408509L.06199646 .035995485C.050994874 .024993897 .050994874 .022994996 .050994874 0H.43399049L.46199037 .17704773Z"/>
<path id="font_3_106" d="M.46998597 .17008972C.46998597 .25709535 .40098573 .33110047 .30499269 .35209657 .397995 .38710023 .44198609 .46009828 .44198609 .5290985 .44198609 .60606387 .35699464 .6660156 .25299073 .6660156 .14898682 .6660156 .070999149 .60705569 .070999149 .5310974 .070999149 .49809266 .09298706 .47909547 .12199402 .47909547 .15098572 .47909547 .17199707 .50009158 .17199707 .5290985 .17199707 .5640869 .147995 .57910159 .11399841 .57910159 .13999939 .6210327 .20098877 .64100649 .25 .64100649 .33299256 .64100649 .34899903 .5750885 .34899903 .52809146 .34899903 .49809266 .34298707 .45005799 .31799317 .41201783 .2869873 .36695863 .2519989 .36495973 .22299195 .36296083 .19799805 .36094667 .19599915 .36094667 .18798828 .36094667 .1789856 .35995484 .17098999 .35894776 .17098999 .34794618 .17098999 .33496095 .1789856 .33496095 .19599915 .33496095H.24299622C.32998658 .33496095 .36799623 .2646637 .36799623 .16937256 .36799623 .04145813 .2999878 .0055389406 .24899292 .0055389406 .22999573 .0055389406 .1329956 .010528564 .08799744 .0843811 .12399292 .07939148 .1519928 .10437012 .1519928 .13838196 .1519928 .17137146 .1269989 .19238281 .09799194 .19238281 .07299805 .19238281 .042999269 .17736817 .042999269 .13537598 .042999269 .046447755 .13598633-.022460938 .2519989-.022460938 .3769989-.022460938 .46998597 .06741333 .46998597 .16937256V.17008972Z"/>
<path id="font_3_57" d="M.48399354 .16503906V.19602967H.38198854V.649765C.38198854 .669754 .38198854 .6767578 .36299134 .6767578 .35099793 .6767578 .34999085 .67575076 .34098817 .6617584L.0289917 .19602967V.16503906H.3019867V.07901001C.3019867 .041992189 .29899598 .0309906 .22399903 .0309906H.20199585V0C.2649994 .0029907227 .33499146 .0029907227 .34199525 .0029907227 .34700013 .0029907227 .4189911 .0029907227 .48199464 0V.0309906H.45999146C.3849945 .0309906 .38198854 .041992189 .38198854 .07901001V.16503906H.48399354M.30799867 .19602967H.06098938L.30799867 .56581118V.19602967Z"/>
<path id="font_3_56" d="M.46199037 .19992066C.46199037 .3209076 .37599183 .41992188 .2669983 .41992188 .21899414 .41992188 .16999817 .4039154 .1349945 .36791993V.5647888C.16499329 .55578616 .19599915 .55078127 .22698975 .55078127 .34999085 .55078127 .42199708 .63983157 .42199708 .6529236 .42199708 .6619873 .41600038 .6660156 .41099549 .6660156 .41099549 .6660156 .40699769 .6660156 .397995 .6609802 .35099793 .6418457 .30499269 .63378909 .2630005 .63378909 .21998596 .63378909 .1749878 .6418457 .1289978 .6609802 .11898804 .6660156 .115997318 .6660156 .115997318 .6660156 .10398865 .6660156 .10398865 .6559448 .10398865 .63882449V.34490968C.10398865 .32699586 .10398865 .31599427 .117996219 .31599427 .12599182 .31562806 .1289978 .3196411 .1349945 .32867433 .16499329 .37083436 .21299744 .39491273 .2649994 .39491273 .37199403 .39491273 .37199403 .24035645 .37199403 .20422364 .37199403 .17321778 .37199403 .11122131 .34399415 .06636047 .31698609 .024475098 .2749939 .0055389406 .23599243 .0055389406 .1769867 .0055389406 .10998535 .042419435 .085998538 .11621094 .085998538 .116882327 .09298706 .11488342 .099990848 .11488342 .11999512 .11488342 .14898682 .12788391 .14898682 .1638794 .14898682 .19488526 .1269989 .21289063 .099990848 .21289063 .07899475 .21289063 .050994874 .20088196 .050994874 .16088867 .050994874 .069732669 .1269989-.022460938 .23799134-.022460938 .35899354-.02279663 .46199037 .07521057 .46199037 .19921875V.19992066Z"/>
<path id="font_3_101" d="M.46998597 .20277405C.46998597 .32977296 .37799073 .42578126 .2649994 .42578126 .20498657 .42578126 .1619873 .3907776 .13398743 .33078004 .13398743 .43276979 .14498902 .4897766 .17199707 .54177859 .19198609 .58277896 .24099732 .64100649 .31498719 .64100649 .33499146 .64100649 .3809967 .63697817 .4039917 .6007843 .36698915 .6007843 .35099793 .5817871 .35099793 .55477908 .35099793 .5287781 .36898805 .50878909 .39698792 .50878909 .4249878 .50878909 .44400025 .5267792 .44400025 .55677798 .44400025 .61299136 .4039917 .6660156 .31298829 .6660156 .18399048 .6660156 .042999269 .5389252 .042999269 .31576539 .042999269 .044555665 .16499329-.022460938 .25898744-.022460938 .36999513-.022460938 .46998597 .07052612 .46998597 .2025299V.20277405M.3789978 .20353699C.3789978 .15553284 .3789978 .106536868 .3600006 .0695343 .32899476 .012527466 .2849884 .0055389406 .2579956 .0055389406 .20098877 .0055389406 .16799927 .05253601 .1559906 .08152771 .13699341 .12652588 .13598633 .20953369 .13598633 .2255249 .13598633 .2927704 .16699219 .4007721 .2630005 .4007721 .2789917 .4007721 .32798768 .4007721 .3600006 .33877564 .3789978 .300766 .3789978 .25177003 .3789978 .20376587V.20353699Z"/>
<path id="font_3_100" d="M.49899293 .6435547H.25C.12399292 .6435547 .12098694 .6566467 .117996219 .67578127H.08999634L.056991579 .46655274H.084991458C.08898926 .48954774 .09700012 .5455475 .10998535 .55755618 .116989139 .56355288 .19599915 .56355288 .20999146 .56355288H.41999818L.32398988 .4325409C.19400025 .25354005 .18199158 .090530399 .18199158 .03353882 .18199158 .022537232 .18199158-.022460938 .22799683-.022460938 .2749939-.022460938 .2749939 .021530152 .2749939 .03453064V.08354187C.2749939 .23054505 .29699708 .34654237 .34999085 .41854859L.48999024 .60954287C.49899293 .62054446 .49899293 .62254336 .49899293 .6435547Z"/>
<path id="font_3_51" d="M.46998597 .16764832C.46998597 .26472474 .3959961 .3127594 .37098695 .32876588 .3600006 .33677674 .33099366 .35479737 .31900025 .36180116 .36898805 .38581849 .44198609 .43585206 .44198609 .51690676 .44198609 .6109772 .34799195 .6660156 .2579956 .6660156 .15299988 .6660156 .070999149 .5909729 .070999149 .49890138 .070999149 .46087647 .084991458 .42485047 .10899353 .39582826 .12599182 .3768158 .13198853 .37280274 .18998719 .3357849 .101989749 .29374696 .042999269 .23269654 .042999269 .15063477 .042999269 .044555665 .147995-.022460938 .2559967-.022460938 .37199403-.022460938 .46998597 .059570314 .46998597 .16764832M.3939972 .51690676C.3939972 .44685365 .33399964 .40083314 .2939911 .37780763L.17199707 .45387269C.14199829 .47288514 .11898804 .4998932 .11898804 .53692629 .11898804 .6019745 .18899536 .64100649 .25498963 .64100649 .33198548 .64100649 .3939972 .58695986 .3939972 .51690676M.41600038 .1326294C.41600038 .05357361 .33599855 .0055389406 .25698854 .0055389406 .16999817 .0055389406 .09700012 .06758118 .09700012 .15063477 .09700012 .22268677 .14698792 .28274537 .21699524 .31877137L.34298707 .2407074C.3659973 .22569275 .41600038 .19366455 .41600038 .1326294Z"/>
<path id="font_3_64" d="M.2849884 .1850586V.24707031H.010986328V.1850586H.2849884Z"/>
<path id="font_4_4" d="M.59498599 .3731079C.598999 .38909913 .598999 .394104 .598999 .3981018 .598999 .4320984 .57199099 .44410707 .5509949 .44410707 .49798585 .44410707 .48599244 .3961029 .47898866 .3701172L.45298768 .26612855C.43899537 .21113587 .42599488 .15615845 .41099549 .10116577 .4099884 .09416199 .3659973 .032180787 .30099488 .032180787 .2579956 .032180787 .23799134 .057174684 .23799134 .10417175 .23799134 .16314698 .27198792 .24913025 .29899598 .3171234 .30499269 .33111573 .31098939 .3461151 .31098939 .36210633 .31098939 .41410829 .25898744 .45210267 .19299317 .45210267 .08699036 .45210267 .032989503 .32011415 .032989503 .29612733 .032989503 .28112794 .04699707 .28112794 .05899048 .28112794 .07499695 .28112794 .07998657 .28112794 .083999637 .29512025 .11898804 .4091034 .1769867 .41210938 .18699646 .41210938 .19299317 .41210938 .20399475 .41210938 .20399475 .3901062 .20399475 .36810304 .19299317 .3421173 .18798828 .32911683 .147995 .22813416 .12799073 .17315674 .12799073 .12416077 .12799073 .0231781 .20899964-.0078125 .29299928-.0078125 .30899049-.0078125 .34700013-.0078125 .3919983 .02218628 .36999513-.08416748 .29599-.16210938 .21598816-.16210938 .21398926-.16210938 .18499756-.16210938 .16099549-.15216065 .18399048-.14016724 .20399475-.11515808 .20399475-.0851593 .20399475-.04916382 .17599488-.03515625 .1519928-.03515625 .10899353-.03515625 .07598877-.07316589 .07598877-.11416626 .07598877-.17111206 .13699341-.20211792 .21598816-.20211792 .33799745-.20211792 .47099305-.123168949 .5009918-.0018157959L.59498599 .3731079Z"/>
<path id="font_2_13" d="M.80799868 .33398438C.82199099 .33398438 .8529968 .33398438 .8529968 .36598207 .8529968 .39797975 .82199099 .39797975 .8089905 .39797975H.10998535C.09700012 .39797975 .06599426 .39797975 .06599426 .36598207 .06599426 .33398438 .09799194 .33398438 .11099243 .33398438H.80799868M.8089905 .102005008C.82199099 .102005008 .8529968 .102005008 .8529968 .13400269 .8529968 .16601563 .82099917 .16601563 .80799868 .16601563H.11099243C.09799194 .16601563 .06599426 .16601563 .06599426 .13400269 .06599426 .102005008 .09700012 .102005008 .10998535 .102005008H.8089905Z"/>
<path id="font_2_5" d="M.3639984 .6231537C.3639984 .6452484 .3639984 .65625 .33499146 .65625 .32299806 .65625 .32099916 .65625 .31199647 .6492462 .23498535 .5919647 .12799073 .5919647 .10798645 .5919647H.08799744V.54296877H.10798645C.13198853 .54296877 .18598938 .5459595 .24198914 .56295779V.04899597H.09899902V0C.13699341 .0029907227 .2579956 .0029907227 .30299378 .0029907227 .34999085 .0029907227 .46798707 .0029907227 .5089874 0V.04899597H.3639984V.6231537Z"/>
<path id="font_5_75" d="M.95899966-.0002746582V.048721315H.8909912V.30471803C.8909912 .42271424 .81999209 .4497223 .7319946 .4497223 .6279907 .4497223 .57699587 .38671876 .55799868 .3557129 .5359955 .4457245 .44799806 .4497223 .4039917 .4497223 .27999879 .4497223 .23098755 .35972596 .22399903 .34472657H.22299195V.4497223L.049987794 .44172669V.39271546C.10998535 .39271546 .117996219 .39271546 .117996219 .353714V.048721315H.049987794V-.0002746582L.17599488 .0027160645 .30299378-.0002746582V.048721315H.23498535V.25372315C.23498535 .36471559 .32699586 .40971376 .3869934 .40971376 .4249878 .40971376 .44599916 .38972474 .44599916 .3137207V.048721315H.37799073V-.0002746582L.5039978 .0027160645 .6309967-.0002746582V.048721315H.5629883V.25372315C.5629883 .36471559 .6549988 .40971376 .71499636 .40971376 .7529907 .40971376 .7739868 .38972474 .7739868 .3137207V.048721315H.70599368V-.0002746582L.83200076 .0027160645 .95899966-.0002746582Z"/>
<path id="font_5_66" d="M.2919922 0V.04899597H.23098755V.4501953L.054992677 .4423828V.39337159C.11299133 .39337159 .11999512 .39337159 .11999512 .3543396V.04899597H.051986696V0C.11898804 .0019989014 .13198853 .0029907227 .17399597 .0029907227 .22299195 .0029907227 .23599243 .0019989014 .2919922 0M.24198914 .6053314C.24198914 .65234377 .20399475 .68434146 .1639862 .68434146 .12199402 .68434146 .085998538 .6503296 .085998538 .6063385 .085998538 .55934146 .12399292 .52734377 .1639862 .52734377 .20599365 .52734377 .24198914 .56134036 .24198914 .6053314Z"/>
<path id="font_5_47" d="M.61499026 0V.04899597C.5549927 .04899597 .5469971 .04899597 .5469971 .088012699V.69433596L.36799623 .6855469V.63653567C.42799378 .63653567 .43598939 .63653567 .43598939 .5976715V.40518189C.3919983 .43719483 .34498597 .4501953 .29699708 .4501953 .13398743 .4501953 .038986207 .35118104 .038986207 .22216797 .038986207 .089141849 .1329956-.005859375 .2849884-.005859375 .34799195-.005859375 .397995 .018127442 .42999269 .044128419V-.005859375L.61499026 0M.42999269 .10899353C.4079895 .074142459 .3600006 .03413391 .29599 .03413391 .17199707 .03413391 .17199707 .15414429 .17199707 .22015381 .17199707 .27816773 .17298889 .32118226 .19898987 .3581848 .22499085 .39819337 .272995 .41018678 .30799867 .41018678 .35798646 .41018678 .39898683 .3881836 .42999269 .34918214V.10899353Z"/>
<path id="font_5_72" d="M.29899598 0V.04899597H.23098755V.69433596L.051986696 .6855469V.63653567C.11199951 .63653567 .11999512 .63653567 .11999512 .5975647V.04899597H.051986696V0L.1749878 .0029907227 .29899598 0Z"/>
<path id="font_5_77" d="M.6299896-.0002746582V.048721315H.56199648V.30471803C.56199648 .4237213 .48999024 .4497223 .40299989 .4497223 .27999879 .4497223 .23098755 .35972596 .22399903 .34472657H.22299195V.4497223L.049987794 .44172669V.39271546C.10998535 .39271546 .117996219 .39271546 .117996219 .353714V.048721315H.049987794V-.0002746582L.17599488 .0027160645 .30299378-.0002746582V.048721315H.23498535V.25372315C.23498535 .36572267 .32699586 .40971376 .3869934 .40971376 .4249878 .40971376 .44499208 .38871766 .44499208 .3137207V.048721315H.3769989V-.0002746582L.5029907 .0027160645 .6299896-.0002746582Z"/>
<path id="font_5_50" d="M.5089874 .11605835C.5089874 .13604737 .4889984 .13604737 .48298646 .13604737 .46499635 .13604737 .46299745 .13005066 .45700074 .11605835 .43399049 .06410217 .37298585 .037139894 .30999757 .037139894 .16799927 .037139894 .1659851 .16601563 .1659851 .21496582H.47599793C.49699403 .21496582 .5089874 .21496582 .5089874 .2429657 .5089874 .26498414 .5069885 .35305787 .44198609 .4071045 .39698792 .4441223 .33699037 .453125 .28799439 .453125 .116989139 .453125 .032989503 .345047 .032989503 .22497559 .032989503 .09408569 .13198853-.005859375 .3019867-.005859375 .46699525-.005859375 .5089874 .1000824 .5089874 .11605835M.41099549 .25097657H.1659851C.16799927 .29701234 .17298889 .41311646 .28799439 .41311646 .40499879 .41311646 .40899659 .29100038 .41099549 .25097657Z"/>
<path id="font_6_1" d="M.40699769-.23200989C.40699769-.2250061 .4039917-.22200012 .3919983-.21200562 .2649994-.09700012 .21998596 .07798767 .21998596 .25 .21998596 .42099 .2630005 .59599307 .3899994 .70899966 .4059906 .723999 .40699769 .72499087 .40699769 .7319946 .40699769 .74198916 .40098573 .75 .38598634 .75 .36698915 .75 .31399537 .70500186 .2939911 .6859894 .16899109 .56199648 .11399841 .4099884 .11399841 .25 .11399841 .16099549 .13198853 .039993287 .20599365-.07800293 .2689972-.17800904 .3639984-.25 .38598634-.25 .40098573-.25 .40699769-.2420044 .40699769-.23200989Z"/>
<path id="font_6_6" d="M.5509949 .2280426H.49499513C.4869995 .16200257 .47399903 .14199829 .46798707 .13899231 .45700074 .1329956 .37998963 .1329956 .36299134 .1329956H.22499085C.35899354 .23805237 .41299439 .2680664 .45599366 .30108644 .526001 .35612489 .5509949 .40615846 .5509949 .46316529 .5509949 .58117678 .44198609 .6582031 .2899933 .6582031 .1619873 .6582031 .06098938 .6011963 .06098938 .50717166 .06098938 .4481659 .10899353 .4291687 .13699341 .4291687 .17199707 .4291687 .21398926 .4541626 .21398926 .50616458 .21398926 .5531616 .17999268 .5721588 .16699219 .5771637 .19499207 .5981903 .23498535 .6062012 .2659912 .6062012 .35598756 .6062012 .4059906 .5391693 .4059906 .4621582 .4059906 .38113404 .35299684 .31410218 .2939911 .25906373L.07299805 .052993776C.06199646 .041992189 .06098938 .040985109 .06098938 .020996094V0H.5179901L.5509949 .2280426Z"/>
<path id="font_7_3" d="M.22099304 .016998291C.21199036-.08493042 .1519928-.1348877 .1309967-.15187073 .11999512-.15986634 .115997318-.16287232 .115997318-.17185974 .115997318-.18086243 .12799073-.19386292 .13899231-.19386292 .15499878-.19386292 .2639923-.106918338 .2639923 .03199768 .2639923 .10499573 .22698975 .1599884 .16899109 .1599884 .12199402 .1599884 .08999634 .12399292 .08999634 .07998657 .08999634 .038986207 .11898804 0 .16999817 0 .18998719 0 .20899964 .0069885256 .22099304 .016998291Z"/>
<path id="font_6_5" d="M.3789978 .62413027C.3789978 .6582031 .37298585 .6582031 .33299256 .6582031 .27198792 .61006167 .19198609 .5939789 .11399841 .5939789H.09199524V.5419922H.11399841C.13999939 .5419922 .19400025 .5449829 .2519989 .5619812V.051986696H.101989749V0C.13798523 .0029907227 .269989 .0029907227 .31498719 .0029907227 .3600006 .0029907227 .48999024 .0029907227 .5269928 0V.051986696H.3789978V.62413027Z"/>
<path id="font_6_2" d="M.36099244 .25C.36099244 .33898927 .34298707 .45999146 .2689972 .5779877 .20599365 .6779938 .11099243 .75 .08898926 .75 .07199097 .75 .067993167 .7389984 .067993167 .7319946 .067993167 .72499087 .07199097 .72099307 .08299255 .71199038 .20999146 .5970001 .25498963 .42199708 .25498963 .25 .25498963 .07899475 .21199036-.0960083 .084991458-.2090149 .07299805-.22000122 .067993167-.22401428 .067993167-.23200989 .067993167-.23901367 .07199097-.25 .08898926-.25 .10798645-.25 .16099549-.20500183 .18099976-.18600464 .30599977-.06201172 .36099244 .08999634 .36099244 .25Z"/>
<path id="font_6_11" d="M.58299258 .5925293C.59498599 .6045227 .59498599 .6065216 .59498599 .6265259V.64453127H.36299134C.33198548 .64453127 .27198792 .647522 .23899842 .6495209 .22898865 .65052798 .21699524 .6495209 .20599365 .65052798 .1639862 .6535187 .16299439 .66352847 .1619873 .67652896H.10598755L.067993167 .41648866H.12399292C.1329956 .4855194 .14698792 .5035248 .1519928 .5055237 .1639862 .5115204 .24699402 .5115204 .2649994 .5115204H.42799378C.31698609 .3874817 .31698609 .38546754 .28599549 .3364563 .21499634 .21839905 .20498657 .10935974 .20498657 .061340333 .20498657-.013671875 .2659912-.013671875 .272995-.013671875 .30299378-.013671875 .31999208 .0043182375 .32398988 .00932312 .33999635 .026321412 .33999635 .04133606 .33999635 .08634949 .33999635 .11135864 .33999635 .15737915 .34498597 .21440125 .35798646 .34545899 .40899659 .401474 .41099549 .40348817L.58299258 .5925293Z"/>
<path id="font_6_7" d="M.28399659 .32714845C.3999939 .32714845 .40098573 .23034668 .40098573 .18035889 .40098573 .13534546 .40098573 .033325197 .28799439 .033325197 .2669983 .033325197 .20999146 .036315919 .1599884 .068359378 .1769867 .0753479 .21299744 .09635925 .21299744 .14535523 .21299744 .19335938 .1789856 .22634888 .13198853 .22634888 .08799744 .22634888 .050994874 .1963501 .050994874 .14434815 .050994874 .047332765 .15499878-.013671875 .29299928-.013671875 .4889984-.013671875 .5609894 .09234619 .5609894 .1793518 .5609894 .26127626 .49798585 .32914735 .3899994 .35313417 .4169922 .36413575 .5269928 .40715028 .5269928 .51615908 .5269928 .59617617 .44499208 .6582031 .29599 .6582031 .1659851 .6582031 .084991458 .58917239 .084991458 .50717166 .084991458 .45115663 .1289978 .4311676 .15899658 .4311676 .19898987 .4311676 .23298645 .45916749 .23298645 .5051575 .23298645 .52716067 .22499085 .5651703 .1769867 .5771637 .22099304 .6151886 .2809906 .6151886 .2899933 .6151886 .3829956 .6151886 .3829956 .5491638 .3829956 .51916506 .3829956 .4471588 .34899903 .41015626 .34599305 .40615846 .31698609 .37513734 .29899598 .3741455 .24499512 .37113954 .21398926 .36914063 .20399475 .36813355 .20399475 .34814454 .20399475 .32714845 .21699524 .32714845 .23498535 .32714845H.28399659Z"/>
<path id="font_6_9" d="M.17599488 .5010834C.20799256 .49609376 .24198914 .49609376 .24798584 .49609376 .27398683 .49609376 .34199525 .49609376 .4169922 .54408267 .44299317 .56108096 .5029907 .611084 .5029907 .63708499 .5029907 .65208438 .49499513 .65808108 .4850006 .65808108 .48298646 .65808108 .48098756 .65808108 .46998597 .65309146 .42099 .63609316 .3619995 .6260834 .30699159 .6260834 .2619934 .6260834 .20498657 .6320801 .13999939 .65408328 .13198853 .65808108 .12998963 .65808108 .1269989 .65808108 .10998535 .65808108 .10998535 .64108279 .10998535 .62709048V.33319093C.10998535 .3142395 .10998535 .29927064 .13699341 .29927064 .1519928 .29927064 .15499878 .30126954 .16499329 .31323243 .20498657 .36112977 .2669983 .3701172 .30599977 .3701172 .4019928 .3701172 .4019928 .27931214 .4019928 .20341492 .4019928 .13441468 .4019928 .033325197 .27198792 .033325197 .21998596 .033325197 .16999817 .055358888 .14299011 .089416507 .18499756 .09541321 .20498657 .12741089 .20498657 .16041565 .20498657 .2064209 .16899109 .23242188 .1329956 .23242188 .101989749 .23242188 .06098938 .2124176 .06098938 .15841675 .06098938 .068374637 .1459961-.013671875 .27598573-.013671875 .45399476-.013671875 .5509949 .08340454 .5509949 .20141602 .5509949 .31323243 .47099305 .41210938 .30999757 .41210938 .2619934 .41210938 .21598816 .4031067 .17599488 .3781128V.5010834Z"/>
<path id="font_8_1" d="M.8019867 .21617127C.81599429 .21617127 .84999087 .21617127 .84999087 .25016786 .84999087 .2841797 .81599429 .2841797 .8019867 .2841797H.1499939C.13598633 .2841797 .101989749 .2841797 .101989749 .25016786 .101989749 .21617127 .13598633 .21617127 .1499939 .21617127H.8019867Z"/>
<path id="font_6_12" d="M.4249878 .37023927C.46699525 .39323426 .5269928 .43023683 .5269928 .5082092 .5269928 .64720156 .36799623 .6582031 .30799867 .6582031 .15899658 .6582031 .084991458 .5782013 .084991458 .4802246 .084991458 .41323854 .1269989 .36024476 .18099976 .33026124 .07699585 .28427125 .050994874 .22128296 .050994874 .1612854 .050994874 .036315919 .1639862-.013671875 .3039856-.013671875 .47599793-.013671875 .5609894 .07531738 .5609894 .18728638 .5609894 .29826356 .46398927 .35025025 .4249878 .37023927M.21499634 .4802246C.19599915 .49021913 .16799927 .5072174 .16799927 .5392151 .16799927 .6021881 .24299622 .6151886 .30299378 .6151886 .3939972 .6151886 .44400025 .5742035 .44400025 .5082092 .44400025 .4702301 .42799378 .43122865 .37199403 .39823915L.21499634 .4802246M.4039917 .21228028C.41999818 .20327759 .46598817 .17929077 .46598817 .1322937 .46598817 .047317506 .36898805 .033325197 .30799867 .033325197 .21099854 .033325197 .1459961 .077316287 .1459961 .1612854 .1459961 .26026917 .23599243 .29826356 .23799134 .29826356 .23999024 .29826356 .27198792 .28126527 .2899933 .27226258L.4039917 .21228028Z"/>
<path id="font_9_12" d="M.7879944 .33203126C.7999878 .33203126 .82899478 .33203126 .82899478 .36203004 .82899478 .39302064 .7979889 .39302064 .7829895 .39302064H.10998535C.09498596 .39302064 .06399536 .39302064 .06399536 .36203004 .06399536 .33203126 .09298706 .33203126 .10499573 .33203126H.7879944M.7829895 .107940677C.7979889 .107940677 .82899478 .107940677 .82899478 .13893128 .82899478 .16894531 .7999878 .16894531 .7879944 .16894531H.10499573C.09298706 .16894531 .06399536 .16894531 .06399536 .13893128 .06399536 .107940677 .09498596 .107940677 .10998535 .107940677H.7829895Z"/>
<path id="font_9_6" d="M.5169983 .22209168H.46998597C.46699525 .20207215 .45799256 .13800049 .44400025 .1309967 .43299867 .125 .35798646 .125 .34199525 .125H.19499207C.24198914 .16403198 .2939911 .20707703 .33898927 .2401123 .45298768 .3242035 .5169983 .37124635 .5169983 .4663086 .5169983 .5812988 .41299439 .65527346 .27198792 .65527346 .15098572 .65527346 .056991579 .593277 .056991579 .50331118 .056991579 .44430543 .10499573 .42930604 .1289978 .42930604 .16099549 .42930604 .20098877 .4513092 .20098877 .50131228 .20098877 .55329897 .15899658 .5693054 .14399719 .5733032 .17298889 .5972748 .21099854 .6082611 .24699402 .6082611 .33299256 .6082611 .3789978 .54029849 .3789978 .4653015 .3789978 .39627076 .34098817 .3282013 .2709961 .25712586L.069992069 .051986696C.056991579 .039993287 .056991579 .037994386 .056991579 .017990113V0H.48599244L.5169983 .22209168Z"/>
<path id="font_9_17" d="M.21099854 .29412843C.17399597 .30111695 .10899353 .31211854 .10899353 .3591156 .10899353 .42111207 .20199585 .42111207 .22099304 .42111207 .29599 .42111207 .33399964 .39212037 .33898927 .33711244 .33999635 .32211305 .34098817 .3171234 .3619995 .3171234 .38598634 .3171234 .38598634 .32211305 .38598634 .3451233V.42510987C.38598634 .4441223 .38598634 .453125 .36799623 .453125 .3639984 .453125 .3619995 .453125 .32299806 .43411256 .29699708 .44711305 .2619934 .453125 .22200012 .453125 .19198609 .453125 .037994386 .453125 .037994386 .32211305 .037994386 .28211976 .057998659 .25512696 .07798767 .23812866 .117996219 .203125 .1559906 .1971283 .23298645 .18312073 .2689972 .17712403 .34399415 .16412354 .34399415 .10513306 .34399415 .030136109 .2519989 .030136109 .22999573 .030136109 .12399292 .030136109 .09799194 .103134158 .085998538 .14613343 .08099365 .16012573 .07598877 .16012573 .06199646 .16012573 .037994386 .16012573 .037994386 .15412903 .037994386 .13113404V.022140503C.037994386 .0031280518 .037994386-.005859375 .055999757-.005859375 .06298828-.005859375 .06498718-.005859375 .085998538 .009140015 .08699036 .009140015 .10899353 .024139405 .11199951 .026138306 .1579895-.005859375 .20999146-.005859375 .22999573-.005859375 .26098634-.005859375 .4149933-.005859375 .4149933 .14012146 .4149933 .18312073 .394989 .21812439 .3600006 .24612427 .32099916 .27511598 .2889862 .28112794 .21099854 .29412843Z"/>
<path id="font_9_14" d="M.22399903 .4501953 .049987794 .44218446V.39518739C.10899353 .39518739 .115997318 .39518739 .115997318 .35617066V.04699707H.04699707V0C.07798767 .0009918213 .1269989 .0029907227 .16899109 .0029907227 .19898987 .0029907227 .25 .0009918213 .28599549 0V.04699707H.22399903V.4501953M.23399353 .6173096C.23399353 .66130068 .19799805 .6953125 .1559906 .6953125 .11299133 .6953125 .07798767 .66030886 .07798767 .6173096 .07798767 .5743103 .11299133 .53930667 .1559906 .53930667 .19799805 .53930667 .23399353 .5733032 .23399353 .6173096Z"/>
<path id="font_9_15" d="M.11399841 .3561554V.04699707H.04499817V0C.07299805 .0009918213 .1329956 .0029907227 .17098999 .0029907227 .20999146 .0029907227 .2689972 .0009918213 .29699708 0V.04699707H.22799683V.25610353C.22799683 .36515809 .31399537 .41418458 .3769989 .41418458 .41099549 .41418458 .43199159 .39317323 .43199159 .31713868V.04699707H.36299134V0C.3909912 .0009918213 .45098878 .0029907227 .4889984 .0029907227 .5279999 .0029907227 .58699038 .0009918213 .61499026 0V.04699707H.54599V.30613709C.54599 .41119386 .49198915 .4501953 .3919983 .4501953 .29599 .4501953 .24299622 .39317323 .21699524 .34214784V.4501953L.04499817 .44218446V.39518739C.10699463 .39518739 .11399841 .39518739 .11399841 .3561554Z"/>
<path id="font_10_1" d="M.36099244 .33633424H.47499085C.46699525 .3023224 .44799806 .22328186 .44799806 .15725708 .44799806 .085235599 .47499085-.0087890629 .5309906-.0087890629 .56599429-.0087890629 .60598757 .02720642 .60598757 .06321716 .60598757 .07922363 .598999 .0892334 .58999636 .10324097 .5379944 .17726135 .5379944 .25630189 .5379944 .28230287 .5379944 .28330995 .5379944 .31532289 .54100039 .33633424H.6759949C.69699099 .33633424 .71099856 .33633424 .7299957 .35232545 .7369995 .35832215 .7519989 .3743286 .7519989 .3993225 .7519989 .44433595 .71199038 .44433595 .69400027 .44433595H.25299073C.22898865 .44433595 .18199158 .44433595 .115997318 .389328 .09199524 .36932374 .041992189 .31932069 .041992189 .3033142 .041992189 .28530885 .056991579 .28530885 .07299805 .28530885 .09298706 .28530885 .09498596 .28530885 .101989749 .2933197 .117996219 .31132508 .14099121 .33633424 .22799683 .33633424H.2939911C.2659912 .2472992 .20698548 .14025879 .1769867 .0892334 .16699219 .07221985 .15899658 .05822754 .15899658 .04222107 .15899658 .019210816 .1769867-.007797241 .21398926-.007797241 .24398804-.007797241 .2689972 .014205933 .2789917 .036209108 .2829895 .045211793 .29499818 .082229617 .30499269 .12023926L.36099244 .33633424Z"/>
<path id="font_11_3" d="M.3019867 .3251953C.42099 .3251953 .42599488 .23521424 .42599488 .18223572 .42599488 .14024353 .42599488 .039276124 .30599977 .039276124 .2789917 .039276124 .21598816 .044265748 .17298889 .071258548 .19400025 .08026123 .21998596 .103256229 .21998596 .14624024 .21998596 .19223023 .18699646 .22721863 .13899231 .22721863 .08898926 .22721863 .056991579 .19223023 .056991579 .14524842 .056991579 .043273927 .16799927-.01171875 .30999757-.01171875 .5189972-.01171875 .58898928 .09725952 .58898928 .18122864 .58898928 .25820924 .5279999 .32818605 .4139862 .35118104 .48599244 .3781891 .5529938 .4302063 .5529938 .5142212 .5529938 .5922394 .47299195 .65625 .31298829 .65625 .1769867 .65625 .09298706 .5892334 .09298706 .5062256 .09298706 .45620729 .1289978 .42919923 .16799927 .42919923 .21798706 .42919923 .24398804 .46621705 .24398804 .5042114 .24398804 .5552368 .20399475 .5732269 .19400025 .5762329 .23498535 .60624697 .28799439 .61024478 .30799867 .61024478 .4059906 .61024478 .4059906 .54522708 .4059906 .5172272 .4059906 .47120667 .38598634 .37919618 .28599549 .37419129 .26098634 .3731842 .23599243 .37219239 .22999573 .37019349 .21699524 .36618043 .21699524 .354187 .21699524 .3481903 .21699524 .3251953 .22999573 .3251953 .24899292 .3251953H.3019867Z"/>
<path id="font_9_1" d="M.3789978-.22503662C.34999085-.19802857 .2849884-.13702393 .24299622-.009033203 .21699524 .06997681 .20498657 .16197205 .20498657 .24996948 .20498657 .4469757 .2559967 .60398867 .3659973 .7149811 .3809967 .7299957 .38198854 .73098757 .38198854 .73599246 .38198854 .746994 .37199403 .75 .3639984 .75 .34700013 .75 .30499269 .7129822 .2869873 .6959839 .1309967 .5409851 .10798645 .35697938 .10798645 .25097657 .10798645 .12597656 .14099121 .015975953 .18798828-.06703186 .2539978-.18203736 .34498597-.24902344 .3639984-.24902344 .37199403-.24902344 .38198854-.24603272 .38198854-.23503113 .38198854-.23002625 .3789978-.22602844 .3789978-.22503662Z"/>
<path id="font_12_1" d="M.7519989 .22024536C.7669983 .22024536 .7969971 .22024536 .7969971 .25024415 .7969971 .28125 .7679901 .28125 .7519989 .28125H.14099121C.12599182 .28125 .09599304 .28125 .09599304 .25123597 .09599304 .22024536 .125 .22024536 .14099121 .22024536H.7519989Z"/>
<path id="font_9_2" d="M.33799745 .24996948C.33799745 .37498475 .30499269 .48498536 .2579956 .5679779 .19198609 .6829834 .100997928 .75 .08198547 .75 .07398987 .75 .06399536 .746994 .06399536 .73599246 .06399536 .73098757 .06399536 .72898867 .08099365 .7129822 .20698548 .5849762 .24099732 .40797425 .24099732 .25097657 .24099732 .053970338 .18998719-.103027347 .07998657-.21403504 .06498718-.22903443 .06399536-.23002625 .06399536-.23503113 .06399536-.24603272 .07398987-.24902344 .08198547-.24902344 .09899902-.24902344 .14099121-.21203614 .15899658-.19503784 .31498719-.040023805 .33799745 .14398194 .33799745 .24996948Z"/>
<path id="font_9_3" d="M.47698976 .22024536H.7859955C.798996 .22024536 .82899478 .22024536 .82899478 .25024415 .82899478 .28125 .7999878 .28125 .7859955 .28125H.47698976V.5908356C.47698976 .6028137 .47698976 .6328125 .44699098 .6328125 .41600038 .6328125 .41600038 .6038208 .41600038 .5908356V.28125H.10699463C.09298706 .28125 .06399536 .28125 .06399536 .25024415 .06399536 .22024536 .09399414 .22024536 .10699463 .22024536H.41600038V-.08984375C.41600038-.10183716 .41600038-.13183594 .44599916-.13183594 .47698976-.13183594 .47698976-.10284424 .47698976-.08984375V.22024536Z"/>
<path id="font_9_5" d="M.35398866 .62316897C.35398866 .6452637 .35398866 .65527346 .32798768 .65527346 .31698609 .65527346 .31498719 .65527346 .30599977 .64826968 .22898865 .5909424 .12599182 .5909424 .10499573 .5909424H.084991458V.5439453H.10499573C.12098694 .5439453 .17599488 .54493716 .23498535 .5639343V.04699707H.09599304V0C.13999939 .0029907227 .24598694 .0029907227 .29499818 .0029907227 .34399415 .0029907227 .44999696 .0029907227 .49398805 0V.04699707H.35398866V.62316897Z"/>
<path id="font_5_28" d="M.56900027 .025131226C.56900027 .0491333 .5529938 .0491333 .54299929 .0491333 .47898866 .050125123 .47898866 .060134889 .47898866 .08413696V.29812623C.47898866 .38612367 .40699769 .453125 .25299073 .453125 .19599915 .453125 .067993167 .45111085 .067993167 .3591156 .067993167 .31411744 .101989749 .29312135 .1329956 .29312135 .16699219 .29312135 .19799805 .3171234 .19799805 .35812379 .19799805 .38711549 .18099976 .40411378 .17799378 .40711976 .18798828 .40911866 .21199036 .41311646 .24899292 .41311646 .32099916 .41311646 .3619995 .37712098 .3619995 .29812623V.26612855C.19599915 .26612855 .027999878 .22312927 .027999878 .11213684 .027999878 .013137817 .15299988-.005859375 .22499085-.005859375 .30099488-.005859375 .35299684 .027130127 .37998963 .0741272 .37998963 .04798889 .37998963 0 .4869995 0H.5359955C.5549927 0 .56900027 0 .56900027 .024993897V.025131226M.3619995 .13899231C.3619995 .033996583 .24598694 .033996583 .24198914 .033996583 .19099427 .033996583 .14898682 .066986087 .14898682 .11199951 .14898682 .14498902 .16699219 .22299195 .3619995 .23199463V.13899231Z"/>
<path id="font_5_84" d="M.61698916 .22218323C.61698916 .354187 .526001 .4501953 .375 .4501953 .2939911 .45033265 .23899842 .41633607 .21998596 .40234376V.4501953L.040985109 .4423828V.39337159C.06098938 .39337159 .07699585 .39337159 .08999634 .39038087 .10899353 .38737489 .10899353 .3763733 .10899353 .3553772V-.14453125H.040985109V-.19354248L.16699219-.1905365 .2939911-.19354248V-.14453125H.22599793V.03942871C.2849884-.005859375 .33999635-.005859375 .35899354-.005859375 .5159912-.005859375 .61698916 .089141849 .61698916 .22216797V.22218323M.48399354 .22315979C.48399354 .08413696 .41299439 .03413391 .34700013 .03413391 .29599 .03413391 .25299073 .06314087 .22599793 .104141239V.34518434C.24398804 .3671875 .29100038 .4071808 .35899354 .4071808 .42900086 .4071808 .48399354 .34518434 .48399354 .22315979Z"/>
<path id="font_5_105" d="M.3929901 .123184207V.1762085H.34199525V.12617493C.34199525 .055145265 .30599977 .037139894 .2809906 .037139894 .22299195 .037139894 .22299195 .09716797 .22299195 .1211853V.3953247H.37399293V.44433595H.22299195V.6357422H.17199707C.17098999 .5415344 .12399292 .43832398 .021987915 .43533326V.3953247H.10598755V.123184207C.10598755 .009140015 .20498657-.005859375 .2669983-.005859375 .34498597-.005859375 .3929901 .05014038 .3929901 .123184207Z"/>
<path id="font_5_109" d="M.6299896 0V.04899597C.56999209 .04899597 .56199648 .04899597 .56199648 .088012699V.4501953L.3769989 .4423828V.39337159C.43699647 .39337159 .44499208 .39337159 .44499208 .35437013V.16433716C.44499208 .08433533 .3929901 .03413391 .31599427 .03413391 .23899842 .03413391 .23498535 .056259157 .23498535 .10932922V.4501953L.049987794 .4423828V.39337159C.10998535 .39337159 .117996219 .39337159 .117996219 .35437013V.12333679C.117996219 .014129639 .20399475-.005859375 .30099488-.005859375 .33198548-.005859375 .3999939-.005859375 .45098878 .06933594V-.005859375L.6299896 0Z"/>
<path id="font_5_107" d="M.5319977 .22503662H.48098756C.47898866 .21102906 .46998597 .13999939 .45498658 .1329956 .44198609 .12799073 .36799623 .12799073 .35099793 .12799073H.20799256C.26098634 .17102051 .32099916 .21803284 .37098695 .25305177 .45498658 .312088 .5319977 .36611939 .5319977 .46417237 .5319977 .58122256 .4249878 .65625 .27999879 .65625 .1559906 .65625 .05899048 .597229 .05899048 .505188 .05899048 .45318605 .09899902 .42918397 .13398743 .42918397 .1659851 .42918397 .20799256 .4521942 .20799256 .5041809 .20799256 .5261841 .19898987 .56318667 .15499878 .5751953 .18998719 .60324099 .23498535 .60723879 .25498963 .60723879 .33699037 .60723879 .3889923 .54618838 .3889923 .46318055 .3889923 .39115907 .34599305 .32511903 .29299928 .27108766L.069992069 .050994874C.05899048 .039993287 .05899048 .038986207 .05899048 .018997193V0H.5009918L.5319977 .22503662Z"/>
<path id="font_5_96" d="M.45498658 .36618043C.45498658 .41719056 .40299989 .4501953 .34399415 .4501953 .27398683 .4501953 .23098755 .39918519 .20899964 .34118653H.20799256V.4501953L.040985109 .4423828V.39337159C.100997928 .39337159 .10899353 .39337159 .10899353 .3543396V.04899597H.040985109V0L.16899109 .0029907227C.19400025 .0029907227 .2519989 .0029907227 .30499269 0V.04899597H.21998596V.21818543C.21998596 .29125978 .24699402 .40737916 .34399415 .41036988 .33299256 .39898683 .32798768 .38198854 .32798768 .3659973 .32798768 .32199098 .36299134 .3019867 .3909912 .3019867 .4229889 .3019867 .45498658 .32398988 .45498658 .3659973V.36618043Z"/>
<path id="font_5_81" d="M.55799868 .21812439C.55799868 .3491211 .46598817 .453125 .29599 .453125 .11999512 .453125 .032989503 .3441162 .032989503 .21812439 .032989503 .09413147 .12298584-.005859375 .29499818-.005859375 .47399903-.005859375 .55799868 .09913635 .55799868 .21812439M.4249878 .22912598C.4249878 .14312744 .4249878 .037139894 .29599 .037139894 .1659851 .037139894 .1659851 .14213562 .1659851 .22912598 .1659851 .3131256 .1659851 .41311646 .29499818 .41311646 .4249878 .41311646 .4249878 .3131256 .4249878 .22912598Z"/>
<path id="font_2_10" d="M.18998719 .3609314C.18998719 .48590089 .21499634 .5259094 .22499085 .5429077 .2539978 .58891299 .30699159 .61624148 .36099244 .61624148 .3789978 .61624148 .41099549 .61421206 .43499757 .59091189 .394989 .5819092 .38198854 .5519104 .38198854 .52690127 .38198854 .48490907 .4139862 .46191407 .44699098 .46191407 .47399903 .46191407 .5119934 .47891236 .5119934 .52890017 .5119934 .59091189 .47099305 .65625 .35899354 .65625 .21398926 .65625 .04899597 .5649109 .04899597 .31697084 .04899597 .2680359 .051986696 .17112732 .09498596 .09919739 .13899231 .023269654 .20899964-.01171875 .2999878-.01171875 .44198609-.01171875 .5419922 .070236209 .5419922 .20509339 .5419922 .2590332 .5319977 .3139801 .47299195 .36592103 .42199708 .4099121 .36999513 .41992188 .30799867 .41992188 .24398804 .41992188 .20599365 .37391664 .18998719 .34394837V.3609314M.2979889 .03327942C.23899842 .03327942 .21199036 .07823181 .20498657 .095214847 .19198609 .127182 .19198609 .20709229 .19198609 .21008301 .19198609 .3139801 .23498535 .3789215 .30499269 .3789215 .40098573 .3789215 .40098573 .30699159 .40098573 .20709229 .40098573 .10620117 .40098573 .03327942 .2979889 .03327942Z"/>
</defs>
<path transform="matrix(1,0,0,-1,74.914,166.472)" stroke-width=".79701" stroke-linecap="butt" stroke-miterlimit="10" stroke-linejoin="miter" fill="none" stroke="#000000" d="M-26.51918 0H291.56333"/>
<path transform="matrix(-1,-0,0,1,48.39482,166.472)" d="M4.66248 0C3.28098 .25902 1.0361 1.0361-.51805 1.94269V-1.94269C1.0361-1.0361 3.28098-.25902 4.66248 0"/>
<path transform="matrix(1,0,0,-1,366.47734,166.472)" d="M4.66248 0C3.28098 .25902 1.0361 1.0361-.51805 1.94269V-1.94269C1.0361-1.0361 3.28098-.25902 4.66248 0"/>
<use data-text="x" xlink:href="#font_1_7" transform="matrix(9.9626,0,0,-9.9626,374.859,168.686)"/>
<path transform="matrix(1,0,0,-1,74.914,166.472)" stroke-width=".79701" stroke-linecap="butt" stroke-miterlimit="10" stroke-linejoin="miter" fill="none" stroke="#000000" d="M0-69.03938V142.74126"/>
<path transform="matrix(0,1,1,0,74.914,235.51139)" d="M4.66248 0C3.28098 .25902 1.0361 1.0361-.51805 1.94269V-1.94269C1.0361-1.0361 3.28098-.25902 4.66248 0"/>
<path transform="matrix(0,-1,-1,-0,74.914,23.730744)" d="M4.66248 0C3.28098 .25902 1.0361 1.0361-.51805 1.94269V-1.94269C1.0361-1.0361 3.28098-.25902 4.66248 0"/>
<use data-text="y" xlink:href="#font_1_8" transform="matrix(9.9626,0,0,-9.9626,71.789,13.412003)"/>
<use data-text="0" xlink:href="#font_2_4" transform="matrix(8.9664,0,0,-8.9664,75.599,175.77)"/>
<path transform="matrix(1,0,0,-1,74.914,166.472)" stroke-width=".79701" stroke-linecap="butt" stroke-miterlimit="10" stroke-linejoin="miter" fill="none" stroke="#000000" d="M31.18166 2.9481V-2.9481"/>
<use data-text="1" xlink:href="#font_3_82" transform="matrix(8.9664,0,0,-8.9664,103.791,181.946)"/>
<path transform="matrix(1,0,0,-1,74.914,166.472)" stroke-width=".79701" stroke-linecap="butt" stroke-miterlimit="10" stroke-linejoin="miter" fill="none" stroke="#000000" d="M62.36331 2.9481V-2.9481"/>
<use data-text="2" xlink:href="#font_3_107" transform="matrix(8.9664,0,0,-8.9664,134.97299,181.946)"/>
<path transform="matrix(1,0,0,-1,74.914,166.472)" stroke-width=".79701" stroke-linecap="butt" stroke-miterlimit="10" stroke-linejoin="miter" fill="none" stroke="#000000" d="M93.54497 2.9481V-2.9481"/>
<use data-text="3" xlink:href="#font_3_106" transform="matrix(8.9664,0,0,-8.9664,166.155,181.946)"/>
<path transform="matrix(1,0,0,-1,74.914,166.472)" stroke-width=".79701" stroke-linecap="butt" stroke-miterlimit="10" stroke-linejoin="miter" fill="none" stroke="#000000" d="M124.72664 2.9481V-2.9481"/>
<use data-text="4" xlink:href="#font_3_57" transform="matrix(8.9664,0,0,-8.9664,197.336,182.044)"/>
<path transform="matrix(1,0,0,-1,74.914,166.472)" stroke-width=".79701" stroke-linecap="butt" stroke-miterlimit="10" stroke-linejoin="miter" fill="none" stroke="#000000" d="M155.90831 2.9481V-2.9481"/>
<use data-text="5" xlink:href="#font_3_56" transform="matrix(8.9664,0,0,-8.9664,228.518,181.946)"/>
<path transform="matrix(1,0,0,-1,74.914,166.472)" stroke-width=".79701" stroke-linecap="butt" stroke-miterlimit="10" stroke-linejoin="miter" fill="none" stroke="#000000" d="M187.08997 2.9481V-2.9481"/>
<use data-text="6" xlink:href="#font_3_101" transform="matrix(8.9664,0,0,-8.9664,259.7,181.946)"/>
<path transform="matrix(1,0,0,-1,74.914,166.472)" stroke-width=".79701" stroke-linecap="butt" stroke-miterlimit="10" stroke-linejoin="miter" fill="none" stroke="#000000" d="M218.27162 2.9481V-2.9481"/>
<use data-text="7" xlink:href="#font_3_100" transform="matrix(8.9664,0,0,-8.9664,290.88099,182.035)"/>
<path transform="matrix(1,0,0,-1,74.914,166.472)" stroke-width=".79701" stroke-linecap="butt" stroke-miterlimit="10" stroke-linejoin="miter" fill="none" stroke="#000000" d="M249.4533 2.9481V-2.9481"/>
<use data-text="8" xlink:href="#font_3_51" transform="matrix(8.9664,0,0,-8.9664,322.063,181.946)"/>
<path transform="matrix(1,0,0,-1,74.914,166.472)" stroke-width=".79701" stroke-linecap="butt" stroke-miterlimit="10" stroke-linejoin="miter" fill="none" stroke="#000000" d="M1.8708-36.85092H-1.8708"/>
<use data-text="-" xlink:href="#font_3_64" transform="matrix(8.9664,0,0,-8.9664,58.805,206.309)"/>
<use data-text="1" xlink:href="#font_3_82" transform="matrix(8.9664,0,0,-8.9664,61.880475,206.309)"/>
<path transform="matrix(1,0,0,-1,74.914,166.472)" stroke-width=".79701" stroke-linecap="butt" stroke-miterlimit="10" stroke-linejoin="miter" fill="none" stroke="#000000" d="M1.8708 36.85092H-1.8708"/>
<use data-text="1" xlink:href="#font_3_82" transform="matrix(8.9664,0,0,-8.9664,61.881,132.607)"/>
<path transform="matrix(1,0,0,-1,74.914,166.472)" stroke-width=".79701" stroke-linecap="butt" stroke-miterlimit="10" stroke-linejoin="miter" fill="none" stroke="#000000" d="M1.8708 73.70186H-1.8708"/>
<use data-text="2" xlink:href="#font_3_107" transform="matrix(8.9664,0,0,-8.9664,61.881,95.756)"/>
<path transform="matrix(1,0,0,-1,74.914,166.472)" stroke-width=".79701" stroke-linecap="butt" stroke-miterlimit="10" stroke-linejoin="miter" fill="none" stroke="#000000" d="M1.8708 110.55281H-1.8708"/>
<use data-text="3" xlink:href="#font_3_106" transform="matrix(8.9664,0,0,-8.9664,61.881,58.806)"/>
<path transform="matrix(1,0,0,-1,74.914,166.472)" stroke-width="1.19553" stroke-linecap="butt" stroke-dasharray="2.98883,2.98883" stroke-miterlimit="10" stroke-linejoin="miter" fill="none" stroke="#ff0000" d="M-21.75731 36.85092H277.44688"/>
<path transform="matrix(-1,-0,0,1,53.156694,129.62108)" d="M3.18808 0-1.91284 2.55046 0 0-1.91284-2.55046" fill="#ff0000"/>
<path transform="matrix(1,0,0,-1,352.36088,129.62108)" d="M3.18808 0-1.91284 2.55046 0 0-1.91284-2.55046" fill="#ff0000"/>
<use data-text="y" xlink:href="#font_4_4" transform="matrix(8.9664,0,0,-8.9664,13.925997,127.004)" fill="#ff0000"/>
<use data-text="=" xlink:href="#font_2_13" transform="matrix(8.9664,0,0,-8.9664,22.274998,127.004)" fill="#ff0000"/>
<use data-text="1" xlink:href="#font_2_5" transform="matrix(8.9664,0,0,-8.9664,33.07951,127.004)" fill="#ff0000"/>
<use data-text="m" xlink:href="#font_5_75" transform="matrix(8.9664,0,0,-8.9664,8.988997,137.963)" fill="#ff0000"/>
<use data-text="i" xlink:href="#font_5_66" transform="matrix(8.9664,0,0,-8.9664,17.829869,137.963)" fill="#ff0000"/>
<use data-text="d" xlink:href="#font_5_47" transform="matrix(8.9664,0,0,-8.9664,20.779814,137.963)" fill="#ff0000"/>
<use data-text="l" xlink:href="#font_5_72" transform="matrix(8.9664,0,0,-8.9664,26.670739,137.963)" fill="#ff0000"/>
<use data-text="i" xlink:href="#font_5_66" transform="matrix(8.9664,0,0,-8.9664,29.620684,137.963)" fill="#ff0000"/>
<use data-text="n" xlink:href="#font_5_77" transform="matrix(8.9664,0,0,-8.9664,32.57063,137.963)" fill="#ff0000"/>
<use data-text="e" xlink:href="#font_5_50" transform="matrix(8.9664,0,0,-8.9664,38.461557,137.963)" fill="#ff0000"/>
<path transform="matrix(1,0,0,-1,74.914,166.472)" stroke-width="1.59404" stroke-linecap="butt" stroke-miterlimit="10" stroke-linejoin="miter" fill="none" stroke="#1f8fff" d="M36.40411-19.62608 35.47473-21.01651 36.64948-19.17105 37.8242-17.24011 38.99893-15.22484 40.17368-13.12633 41.34842-10.95023 42.52316-8.70102 43.69788-6.38097 44.87262-3.99118 46.04736-1.54068 47.22209 .96938 48.39685 3.53683 49.57156 6.15604 50.7463 8.8236 51.92104 11.53276 53.09578 14.28241 54.27052 17.06917 55.44525 19.88293 56.62 22.72481 57.79472 25.58916 58.96945 28.4704 60.1442 31.36398 61.31894 34.26772 62.49368 37.17255 63.6684 40.07852 64.84314 42.97998 66.01788 45.87247 67.19261 48.75032 68.36737 51.60905 69.54208 54.44644 70.71683 57.25569 71.89156 60.03345 73.0663 62.77298 74.24104 65.4754 75.41577 68.13171 76.59052 70.73854 77.76524 73.29362 78.93997 75.7925 80.11472 78.22949 81.28946 80.60242 82.4642 82.90672 83.63892 85.14243 84.81366 87.29942 85.9884 89.3788 87.16313 91.37608 88.33789 93.29128 89.5126 95.1154 90.68735 96.85065 91.86208 98.49144 93.03682 100.03777 94.21156 101.48401 95.38629 102.83015 96.56104 104.07397 97.73576 105.21431 98.91049 106.24667 100.08524 107.17 101.25998 107.98758 102.43472 108.69159 103.60944 109.28423 104.78418 109.76219 105.95892 110.13107 107.13365 110.38298 108.3084 110.52017 109.48314 110.54492 110.65785 110.45496 111.8326 110.24802 113.00734 109.92752 114.18208 109.49342 115.35681 108.94911 116.53156 108.28786 117.70628 107.51637 118.88101 106.63805 120.05576 105.65063 121.2305 104.55304 122.40524 103.35197 123.57996 102.04855 124.7547 100.6428 125.92944 99.13583 127.10417 97.53328 128.27892 95.83739 129.45366 94.04926 130.62837 92.17004 131.80312 90.20763 132.97786 88.15971 134.1526 86.03424 135.32733 83.83002 136.50208 81.55383 137.6768 79.21016 138.85153 76.79675 140.02628 74.32376 141.20102 71.79002 142.37577 69.20456 143.55048 66.56737 144.72522 63.8841 145.89997 61.15918 147.07469 58.39716 148.24944 55.59915 149.42418 52.77301 150.59889 49.92216 151.77364 47.05217 152.94838 44.16533 154.12313 41.26723 155.29785 38.36237 156.4726 35.45642 157.64733 32.55045 158.82205 29.65233 159.9968 26.76549 161.17154 23.89325 162.34629 21.04239 163.521 18.21628 164.69574 15.41714 165.87049 12.65173 167.04521 9.92682 168.21996 7.24129 169.3947 4.60184 170.56941 2.013 171.74416-.52068 172.9189-2.99817 174.09365-5.41156 175.26837-7.76085 176.4431-10.03816 177.61785-12.24574 178.79257-14.37575 179.96732-16.42477 181.14206-18.39171 182.3168-20.27316 183.49152-22.06691 184.66626-23.76505 185.841-25.37212 187.01573-26.88245 188.19048-28.2927 189.36522-29.59949 190.53993-30.80507 191.71468-31.90717 192.88942-32.9002 194.06417-33.78188 195.23889-34.55785 196.4136-35.22249 197.58837-35.77354 198.76309-36.20988 199.93784-36.53377 201.11258-36.74632 202.28733-36.8419 203.46204-36.82167 204.63678-36.68784 205.81153-36.44269 206.98625-36.0783 208.161-35.6026 209.33574-35.01445 210.51045-34.31607 211.6852-33.5041 212.85994-32.58417 214.03469-31.55518 215.20941-30.42157 216.38413-29.18001 217.55889-27.83723 218.73361-26.3955 219.90836-24.85368 221.0831-23.21512 222.25785-21.48549 223.43256-19.66364 224.6073-17.75294 225.78205-15.75902 226.95677-13.683 228.13152-11.52827 229.30626-9.29593 230.48097-6.99388 231.65572-4.62434 232.83046-2.18956 234.0052 .30699 235.17993 2.85983 236.35465 5.4644 237.5294 8.1196 238.70413 10.81863 239.87888 13.5593 241.05362 16.33482 242.22837 19.14407 243.40308 21.97806 244.5778 24.83792 245.75257 27.71352 246.92729 30.606 248.10204 33.50746 249.27678 36.41344 250.45149 39.31941 251.62624 42.22314 252.80098 45.11674 253.97573 47.9991 255.15045 50.86458 256.32518 53.7053 257.4999 56.52356 258.67466 59.3092 259.8494 62.06224 261.02415 64.7714 262.19889 67.4412 263.3736 70.06152 264.5483 72.63235 265.72309 75.14359 266.8978 77.5986 266.40257 76.59099"/>
<path transform="matrix(-.55579,.83128,.83128,.55579,111.318119,186.09809)" d="M3.78581 0-2.27148 3.02866 0 0-2.27148-3.02866" fill="#1f8fff"/>
<path transform="matrix(.44112,-.8974,-.8974,-.44112,341.31657,89.88103)" d="M3.78581 0-2.27148 3.02866 0 0-2.27148-3.02866" fill="#1f8fff"/>
<path transform="matrix(1,0,0,-1,74.914,166.472)" d="M64.61783 36.85092C64.61783 38.09607 63.60846 39.10544 62.36331 39.10544 61.11816 39.10544 60.1088 38.09607 60.1088 36.85092 60.1088 35.60577 61.11816 34.5964 62.36331 34.5964 63.60846 34.5964 64.61783 35.60577 64.61783 36.85092ZM62.36331 36.85092"/>
<path transform="matrix(1,0,0,-1,74.914,166.472)" stroke-width=".49814" stroke-linecap="butt" stroke-miterlimit="10" stroke-linejoin="miter" fill="none" stroke="#ffffff" d="M64.61783 36.85092C64.61783 38.09607 63.60846 39.10544 62.36331 39.10544 61.11816 39.10544 60.1088 38.09607 60.1088 36.85092 60.1088 35.60577 61.11816 34.5964 62.36331 34.5964 63.60846 34.5964 64.61783 35.60577 64.61783 36.85092ZM62.36331 36.85092"/>
<path transform="matrix(1,0,0,-1,74.914,166.472)" d="M111.39032 110.55281C111.39032 111.79796 110.38095 112.80733 109.1358 112.80733 107.89066 112.80733 106.88129 111.79796 106.88129 110.55281 106.88129 109.30766 107.89066 108.2983 109.1358 108.2983 110.38095 108.2983 111.39032 109.30766 111.39032 110.55281ZM109.1358 110.55281"/>
<path transform="matrix(1,0,0,-1,74.914,166.472)" stroke-width=".49814" stroke-linecap="butt" stroke-miterlimit="10" stroke-linejoin="miter" fill="none" stroke="#ffffff" d="M111.39032 110.55281C111.39032 111.79796 110.38095 112.80733 109.1358 112.80733 107.89066 112.80733 106.88129 111.79796 106.88129 110.55281 106.88129 109.30766 107.89066 108.2983 109.1358 108.2983 110.38095 108.2983 111.39032 109.30766 111.39032 110.55281ZM109.1358 110.55281"/>
<path transform="matrix(1,0,0,-1,74.914,166.472)" d="M158.16283 36.85092C158.16283 38.09607 157.15346 39.10544 155.90831 39.10544 154.66316 39.10544 153.6538 38.09607 153.6538 36.85092 153.6538 35.60577 154.66316 34.5964 155.90831 34.5964 157.15346 34.5964 158.16283 35.60577 158.16283 36.85092ZM155.90831 36.85092"/>
<path transform="matrix(1,0,0,-1,74.914,166.472)" stroke-width=".49814" stroke-linecap="butt" stroke-miterlimit="10" stroke-linejoin="miter" fill="none" stroke="#ffffff" d="M158.16283 36.85092C158.16283 38.09607 157.15346 39.10544 155.90831 39.10544 154.66316 39.10544 153.6538 38.09607 153.6538 36.85092 153.6538 35.60577 154.66316 34.5964 155.90831 34.5964 157.15346 34.5964 158.16283 35.60577 158.16283 36.85092ZM155.90831 36.85092"/>
<path transform="matrix(1,0,0,-1,74.914,166.472)" d="M204.9353-36.85092C204.9353-35.60577 203.92595-34.5964 202.6808-34.5964 201.43566-34.5964 200.42629-35.60577 200.42629-36.85092 200.42629-38.09607 201.43566-39.10544 202.6808-39.10544 203.92595-39.10544 204.9353-38.09607 204.9353-36.85092ZM202.6808-36.85092"/>
<path transform="matrix(1,0,0,-1,74.914,166.472)" stroke-width=".49814" stroke-linecap="butt" stroke-miterlimit="10" stroke-linejoin="miter" fill="none" stroke="#ffffff" d="M204.9353-36.85092C204.9353-35.60577 203.92595-34.5964 202.6808-34.5964 201.43566-34.5964 200.42629-35.60577 200.42629-36.85092 200.42629-38.09607 201.43566-39.10544 202.6808-39.10544 203.92595-39.10544 204.9353-38.09607 204.9353-36.85092ZM202.6808-36.85092"/>
<path transform="matrix(1,0,0,-1,74.914,166.472)" d="M251.70781 36.85092C251.70781 38.09607 250.69844 39.10544 249.4533 39.10544 248.20815 39.10544 247.19879 38.09607 247.19879 36.85092 247.19879 35.60577 248.20815 34.5964 249.4533 34.5964 250.69844 34.5964 251.70781 35.60577 251.70781 36.85092ZM249.4533 36.85092"/>
<path transform="matrix(1,0,0,-1,74.914,166.472)" stroke-width=".49814" stroke-linecap="butt" stroke-miterlimit="10" stroke-linejoin="miter" fill="none" stroke="#ffffff" d="M251.70781 36.85092C251.70781 38.09607 250.69844 39.10544 249.4533 39.10544 248.20815 39.10544 247.19879 38.09607 247.19879 36.85092 247.19879 35.60577 248.20815 34.5964 249.4533 34.5964 250.69844 34.5964 251.70781 35.60577 251.70781 36.85092ZM249.4533 36.85092"/>
<use data-text="(" xlink:href="#font_6_1" transform="matrix(7.9701,0,0,-7.9701,112.285,124.102008)"/>
<use data-text="2" xlink:href="#font_6_6" transform="matrix(7.9701,0,0,-7.9701,116.078769,124.102008)"/>
<use data-text="," xlink:href="#font_7_3" transform="matrix(7.9701,0,0,-7.9701,120.963008,124.102008)"/>
<use data-text="1" xlink:href="#font_6_5" transform="matrix(7.9701,0,0,-7.9701,125.087009,124.102008)"/>
<use data-text=")" xlink:href="#font_6_2" transform="matrix(7.9701,0,0,-7.9701,129.9647,124.102008)"/>
<use data-text="(" xlink:href="#font_6_1" transform="matrix(7.9701,0,0,-7.9701,172.129,46.406999)"/>
<use data-text="7" xlink:href="#font_6_11" transform="matrix(7.9701,0,0,-7.9701,177.121,40.856996)"/>
<path transform="matrix(1,0,0,-1,169.215,-48.069)" stroke-width=".3587" stroke-linecap="butt" stroke-miterlimit="10" stroke-linejoin="miter" fill="none" stroke="#000000" d="M7.906-92.483H12.788"/>
<use data-text="2" xlink:href="#font_6_6" transform="matrix(7.9701,0,0,-7.9701,177.121,52.377)"/>
<use data-text="," xlink:href="#font_7_3" transform="matrix(7.9701,0,0,-7.9701,183.198,46.406999)"/>
<use data-text="3" xlink:href="#font_6_7" transform="matrix(7.9701,0,0,-7.9701,187.32199,46.406999)"/>
<use data-text=")" xlink:href="#font_6_2" transform="matrix(7.9701,0,0,-7.9701,192.1997,46.406999)"/>
<use data-text="(" xlink:href="#font_6_1" transform="matrix(7.9701,0,0,-7.9701,234.363,124.102008)"/>
<use data-text="5" xlink:href="#font_6_9" transform="matrix(7.9701,0,0,-7.9701,238.15677,124.102008)"/>
<use data-text="," xlink:href="#font_7_3" transform="matrix(7.9701,0,0,-7.9701,243.041,124.102008)"/>
<use data-text="1" xlink:href="#font_6_5" transform="matrix(7.9701,0,0,-7.9701,247.16501,124.102008)"/>
<use data-text=")" xlink:href="#font_6_2" transform="matrix(7.9701,0,0,-7.9701,252.04271,124.102008)"/>
<use data-text="(" xlink:href="#font_6_1" transform="matrix(7.9701,0,0,-7.9701,259.449,217.536)"/>
<use data-text="1" xlink:href="#font_6_5" transform="matrix(7.9701,0,0,-7.9701,264.441,211.986)"/>
<use data-text="3" xlink:href="#font_6_7" transform="matrix(7.9701,0,0,-7.9701,269.3187,211.986)"/>
<path transform="matrix(1,0,0,-1,256.535,123.06)" stroke-width=".3587" stroke-linecap="butt" stroke-miterlimit="10" stroke-linejoin="miter" fill="none" stroke="#000000" d="M7.906-92.483H17.67"/>
<use data-text="2" xlink:href="#font_6_6" transform="matrix(7.9701,0,0,-7.9701,266.88203,223.506)"/>
<use data-text="," xlink:href="#font_7_3" transform="matrix(7.9701,0,0,-7.9701,275.4,217.536)"/>
<use data-text="&#x2212;" xlink:href="#font_8_1" transform="matrix(7.9701,0,0,-7.9701,279.52403,217.536)"/>
<use data-text="1" xlink:href="#font_6_5" transform="matrix(7.9701,0,0,-7.9701,287.117,217.536)"/>
<use data-text=")" xlink:href="#font_6_2" transform="matrix(7.9701,0,0,-7.9701,291.9947,217.536)"/>
<use data-text="(" xlink:href="#font_6_1" transform="matrix(7.9701,0,0,-7.9701,327.92103,124.102008)"/>
<use data-text="8" xlink:href="#font_6_12" transform="matrix(7.9701,0,0,-7.9701,331.71479,124.102008)"/>
<use data-text="," xlink:href="#font_7_3" transform="matrix(7.9701,0,0,-7.9701,336.59904,124.102008)"/>
<use data-text="1" xlink:href="#font_6_5" transform="matrix(7.9701,0,0,-7.9701,340.72303,124.102008)"/>
<use data-text=")" xlink:href="#font_6_2" transform="matrix(7.9701,0,0,-7.9701,345.6007,124.102008)"/>
<use data-text="y" xlink:href="#font_1_8" transform="matrix(9.9626,0,0,-9.9626,265.375,50.417)" fill="#1f8fff"/>
<use data-text="=" xlink:href="#font_9_12" transform="matrix(9.9626,0,0,-9.9626,274.392,50.417)" fill="#1f8fff"/>
<use data-text="2" xlink:href="#font_9_6" transform="matrix(9.9626,0,0,-9.9626,286.0582,50.417)" fill="#1f8fff"/>
<use data-text="s" xlink:href="#font_9_17" transform="matrix(9.9626,0,0,-9.9626,293.45045,50.417)" fill="#1f8fff"/>
<use data-text="i" xlink:href="#font_9_14" transform="matrix(9.9626,0,0,-9.9626,297.9635,50.417)" fill="#1f8fff"/>
<use data-text="n" xlink:href="#font_9_15" transform="matrix(9.9626,0,0,-9.9626,301.14158,50.417)" fill="#1f8fff"/>
<use data-text="&#x03c0;" xlink:href="#font_10_1" transform="matrix(6.9738,0,0,-6.9738,310.38099,46.193)" fill="#1f8fff"/>
<path transform="matrix(1,0,0,-1,262.461,-44.059)" stroke-width=".3985" stroke-linecap="butt" stroke-miterlimit="10" stroke-linejoin="miter" fill="none" stroke="#1f8fff" d="M47.92-91.985H53.617"/>
<use data-text="3" xlink:href="#font_11_3" transform="matrix(6.9738,0,0,-6.9738,310.973,54.153)" fill="#1f8fff"/>
<use data-text="(" xlink:href="#font_9_1" transform="matrix(9.9626,0,0,-9.9626,317.274,50.417)" fill="#1f8fff"/>
<use data-text="x" xlink:href="#font_1_7" transform="matrix(9.9626,0,0,-9.9626,321.729,50.417)" fill="#1f8fff"/>
<use data-text="&#x2212;" xlink:href="#font_12_1" transform="matrix(9.9626,0,0,-9.9626,330.509,50.417)" fill="#1f8fff"/>
<use data-text="2" xlink:href="#font_9_6" transform="matrix(9.9626,0,0,-9.9626,341.634,50.417)" fill="#1f8fff"/>
<use data-text=")" xlink:href="#font_9_2" transform="matrix(9.9626,0,0,-9.9626,347.3625,50.417)" fill="#1f8fff"/>
<use data-text="+" xlink:href="#font_9_3" transform="matrix(9.9626,0,0,-9.9626,354.02748,50.417)" fill="#1f8fff"/>
<use data-text="1" xlink:href="#font_9_5" transform="matrix(9.9626,0,0,-9.9626,365.14576,50.417)" fill="#1f8fff"/>
<path transform="matrix(1,0,0,-1,74.914,166.472)" stroke-width=".79701" stroke-linecap="butt" stroke-miterlimit="10" stroke-linejoin="miter" fill="none" stroke="#000000" d="M109.1358 41.5134V105.89034"/>
<path transform="matrix(0,1,1,0,184.0498,124.9586)" d="M4.66248 0C3.28098 .25902 1.0361 1.0361-.51805 1.94269V-1.94269C1.0361-1.0361 3.28098-.25902 4.66248 0"/>
<path transform="matrix(0,-1,-1,-0,184.0498,60.581659)" d="M4.66248 0C3.28098 .25902 1.0361 1.0361-.51805 1.94269V-1.94269C1.0361-1.0361 3.28098-.25902 4.66248 0"/>
<use data-text="a" xlink:href="#font_5_28" transform="matrix(0,-8.9664,-8.9664,-0,178.791,120.472)"/>
<use data-text="m" xlink:href="#font_5_75" transform="matrix(0,-8.9664,-8.9664,-0,178.791,115.31632)"/>
<use data-text="p" xlink:href="#font_5_84" transform="matrix(0,-8.9664,-8.9664,-0,178.791,106.47545)"/>
<use data-text="l" xlink:href="#font_5_72" transform="matrix(0,-8.9664,-8.9664,-0,178.791,100.584529)"/>
<use data-text="i" xlink:href="#font_5_66" transform="matrix(0,-8.9664,-8.9664,-0,178.791,97.63458)"/>
<use data-text="t" xlink:href="#font_5_105" transform="matrix(0,-8.9664,-8.9664,-0,178.791,94.68463)"/>
<use data-text="u" xlink:href="#font_5_109" transform="matrix(0,-8.9664,-8.9664,-0,178.791,90.56009)"/>
<use data-text="d" xlink:href="#font_5_47" transform="matrix(0,-8.9664,-8.9664,-0,178.791,84.66916)"/>
<use data-text="e" xlink:href="#font_5_50" transform="matrix(0,-8.9664,-8.9664,-0,178.791,78.77824)"/>
<use data-text="2" xlink:href="#font_5_107" transform="matrix(0,-8.9664,-8.9664,-0,178.791,70.38568)"/>
<path transform="matrix(1,0,0,-1,74.914,166.472)" stroke-width=".79701" stroke-linecap="butt" stroke-miterlimit="10" stroke-linejoin="miter" fill="none" stroke="#000000" d="M62.96107-62.64647H248.85555"/>
<path transform="matrix(-1,-0,0,1,142.7368,229.11847)" d="M4.66248 0C3.28098 .25902 1.0361 1.0361-.51805 1.94269V-1.94269C1.0361-1.0361 3.28098-.25902 4.66248 0"/>
<path transform="matrix(-1,-0,0,1,137.67581,229.11847)" stroke-width=".79701" stroke-linecap="butt" stroke-miterlimit="10" stroke-linejoin="miter" fill="none" stroke="#000000" d="M0 3.08846V-3.08846"/>
<path transform="matrix(1,0,0,-1,318.90785,229.11847)" d="M4.66248 0C3.28098 .25902 1.0361 1.0361-.51805 1.94269V-1.94269C1.0361-1.0361 3.28098-.25902 4.66248 0"/>
<path transform="matrix(1,0,0,-1,323.9688,229.11847)" stroke-width=".79701" stroke-linecap="butt" stroke-miterlimit="10" stroke-linejoin="miter" fill="none" stroke="#000000" d="M0 3.08846V-3.08846"/>
<path transform="matrix(1,0,0,-1,74.914,166.472)" d="M135.05675-68.122H176.75984V-57.17097H135.05675Z" fill="#ffffff"/>
<use data-text="p" xlink:href="#font_5_84" transform="matrix(8.9664,0,0,-8.9664,211.465,231.36)"/>
<use data-text="e" xlink:href="#font_5_50" transform="matrix(8.9664,0,0,-8.9664,217.64284,231.36)"/>
<use data-text="r" xlink:href="#font_5_96" transform="matrix(8.9664,0,0,-8.9664,222.5116,231.36)"/>
<use data-text="i" xlink:href="#font_5_66" transform="matrix(8.9664,0,0,-8.9664,226.8872,231.36)"/>
<use data-text="o" xlink:href="#font_5_81" transform="matrix(8.9664,0,0,-8.9664,229.83715,231.36)"/>
<use data-text="d" xlink:href="#font_5_47" transform="matrix(8.9664,0,0,-8.9664,235.44115,231.36)"/>
<use data-text="6" xlink:href="#font_2_10" transform="matrix(8.9664,0,0,-8.9664,244.873,231.36)"/>
</svg>
