<svg style="overflow: visible;" xmlns="http://www.w3.org/2000/svg" xmlns:xlink="http://www.w3.org/1999/xlink" xmlns:inkscape="http://www.inkscape.org/namespaces/inkscape" version="1.1" width="100%" height="100%" viewBox="0 0 430.21 221.8">
<defs>
<path id="font_1_3" d="M.5499878 .39736939C.5169983 .38838197 .49299623 .35838319 .49299623 .32537843 .49299623 .28938294 .5209961 .27539063 .54499819 .27539063 .58299258 .27539063 .62098696 .30638124 .62098696 .35838319 .62098696 .41610719 .56399539 .45210267 .5029907 .45210267 .45498658 .45210267 .4169922 .4250946 .3919983 .39338685 .37799073 .41111756 .34399415 .45210267 .25 .45210267 .117996219 .45210267 .04899597 .3303833 .04899597 .29638673 .04899597 .28138734 .06298828 .28138734 .07499695 .28138734 .09098816 .28138734 .09599304 .28138734 .099990848 .29537965 .1329956 .39338685 .21299744 .41210938 .24398804 .41210938 .30299378 .41210938 .30299378 .37438966 .30299378 .36138917 .30299378 .3423767 .2889862 .28637696 .27999879 .24926758 .27198792 .21914673 .25299073 .14093018 .24699402 .11993408 .23098755 .056930543 .19198609 .032180787 .16099549 .032180787 .13999939 .032180787 .12098694 .04005432 .11099243 .046951295 .14399719 .05593872 .16799927 .0859375 .16799927 .11894226 .16799927 .15493775 .13999939 .16894531 .115997318 .16894531 .07798767 .16894531 .039993287 .13793946 .039993287 .0859375 .039993287 .028182984 .09700012-.0078125 .1579895-.0078125 .20599365-.0078125 .24398804 .019180298 .2689972 .050933839 .2829895 .03315735 .31698609-.0078125 .41099549-.0078125 .54299929-.0078125 .6119995 .11393738 .6119995 .14793396 .6119995 .16394043 .59498599 .16394043 .58599856 .16394043 .56799319 .16394043 .5649872 .16093445 .5609894 .14894104 .5279999 .050933839 .44799806 .032180787 .4169922 .032180787 .35798646 .032180787 .35798646 .06993103 .35798646 .08293152 .35798646 .10194397 .37199403 .15794373 .3809967 .1950531 .3889923 .22517395 .4079895 .3033905 .4139862 .3243866 .42999269 .38739015 .46899415 .41210938 .5 .41210938 .5209961 .41210938 .5399933 .40423585 .5499878 .39736939Z"/>
<path id="font_1_4" d="M.59498599 .3731079C.598999 .38909913 .598999 .394104 .598999 .3981018 .598999 .4320984 .57199099 .44410707 .5509949 .44410707 .49798585 .44410707 .48599244 .3961029 .47898866 .3701172L.45298768 .26612855C.43899537 .21113587 .42599488 .15615845 .41099549 .10116577 .4099884 .09416199 .3659973 .032180787 .30099488 .032180787 .2579956 .032180787 .23799134 .057174684 .23799134 .10417175 .23799134 .16314698 .27198792 .24913025 .29899598 .3171234 .30499269 .33111573 .31098939 .3461151 .31098939 .36210633 .31098939 .41410829 .25898744 .45210267 .19299317 .45210267 .08699036 .45210267 .032989503 .32011415 .032989503 .29612733 .032989503 .28112794 .04699707 .28112794 .05899048 .28112794 .07499695 .28112794 .07998657 .28112794 .083999637 .29512025 .11898804 .4091034 .1769867 .41210938 .18699646 .41210938 .19299317 .41210938 .20399475 .41210938 .20399475 .3901062 .20399475 .36810304 .19299317 .3421173 .18798828 .32911683 .147995 .22813416 .12799073 .17315674 .12799073 .12416077 .12799073 .0231781 .20899964-.0078125 .29299928-.0078125 .30899049-.0078125 .34700013-.0078125 .3919983 .02218628 .36999513-.08416748 .29599-.16210938 .21598816-.16210938 .21398926-.16210938 .18499756-.16210938 .16099549-.15216065 .18399048-.14016724 .20399475-.11515808 .20399475-.0851593 .20399475-.04916382 .17599488-.03515625 .1519928-.03515625 .10899353-.03515625 .07598877-.07316589 .07598877-.11416626 .07598877-.17111206 .13699341-.20211792 .21598816-.20211792 .33799745-.20211792 .47099305-.123168949 .5009918-.0018157959L.59498599 .3731079Z"/>
<path id="font_2_1" d="M.8799896 .2223053C.8959961 .2223053 .9229889 .2223053 .9229889 .25030519 .9229889 .2783203 .8959961 .2783203 .8799896 .2783203H.20298767C.18699646 .2783203 .1599884 .2783203 .1599884 .25030519 .1599884 .2223053 .18699646 .2223053 .20298767 .2223053H.8799896Z"/>
<path id="font_3_2" d="M.58898928 .19296265H.5469971C.5439911 .17396546 .5339966 .11198425 .5179901 .101989749 .5099945 .09599304 .42599488 .09599304 .41099549 .09599304H.21499634C.2809906 .14497376 .35499574 .20095825 .4149933 .24093628 .5049896 .30291749 .58898928 .36090089 .58898928 .46687318 .58898928 .59495547 .46798707 .6660156 .32499696 .6660156 .18998719 .6660156 .09098816 .58795168 .09098816 .48986817 .09098816 .4378662 .1349945 .42886354 .14898682 .42886354 .17599488 .42886354 .20799256 .4468689 .20799256 .48786927 .20799256 .52386477 .18199158 .543869 .15098572 .546875 .1789856 .59194949 .23699951 .6220093 .3039856 .6220093 .40098573 .6220093 .48199464 .5639038 .48199464 .4658661 .48199464 .3818817 .42399598 .31791688 .34700013 .2529297L.102996829 .04598999C.09298706 .036987306 .09199524 .036987306 .09098816 .02999878V0H.55599978L.58898928 .19296265Z"/>
<path id="font_3_1" d="M.397995 .63591006C.397995 .6660156 .394989 .6660156 .3619995 .6660156 .29100038 .6016083 .17999268 .6016083 .1599884 .6016083H.14299011V.5576172H.1599884C.18299866 .5576172 .24798584 .5606079 .30599977 .58561709V.08596802C.30599977 .054977418 .30599977 .04399109 .19999695 .04399109H.1499939V0C.20498657 .0039978029 .2939911 .0039978029 .35198976 .0039978029 .4099884 .0039978029 .49899293 .0039978029 .55400088 0V.04399109H.5039978C.397995 .04399109 .397995 .054977418 .397995 .08596802V.63591006Z"/>
<path id="font_3_3" d="M.32998658 .3310547C.42199708 .3310547 .48298646 .2737732 .48298646 .17437744 .48298646 .07237244 .41999818 .01852417 .33099366 .01852417 .31999208 .01852417 .20098877 .01852417 .1499939 .070373538 .19099427 .07637024 .20298767 .1073761 .20298767 .13137818 .20298767 .16838074 .1749878 .19238281 .14199829 .19238281 .10998535 .19238281 .07998657 .17137146 .07998657 .12937927 .07998657 .025512696 .19799805-.022460938 .33399964-.022460938 .49798585-.022460938 .59999087 .07637024 .59999087 .17337036 .59999087 .25567628 .5269928 .3260193 .41299439 .35205079 .5329895 .3909912 .5649872 .46684266 .5649872 .5228424 .5649872 .60491946 .46299745 .6660156 .33699037 .6660156 .21398926 .6660156 .114990238 .61395266 .114990238 .5238342 .114990238 .47683717 .15299988 .46484376 .17199707 .46484376 .20098877 .46484376 .22898865 .48583985 .22898865 .5218353 .22898865 .5448303 .21699524 .5728302 .18099976 .57884219 .22399903 .625 .31298829 .628006 .33399964 .628006 .40699769 .628006 .45899964 .5908661 .45899964 .5228424 .45899964 .46484376 .42099 .37402345 .31599427 .368042 .28799439 .3670349 .28399659 .3660431 .2579956 .365036 .24699402 .3640442 .23599243 .36305238 .23599243 .34805299 .23599243 .3310547 .24598694 .3310547 .2639923 .3310547H.32998658Z"/>
<path id="font_3_4" d="M.61698916 .1630249V.20703125H.49198915V.64675906C.49198915 .67074587 .4909973 .6767578 .46499635 .6767578 .44499208 .6767578 .44400025 .67575076 .43299867 .66174319L.06298828 .20703125V.1630249H.3959961V.085006717C.3959961 .054000856 .3959961 .04399109 .30899049 .04399109H.27398683V0C.32099916 .0019989014 .38598634 .0039978029 .44400025 .0039978029 .5019989 .0039978029 .56599429 .0019989014 .6139984 0V.04399109H.57899478C.49198915 .04399109 .49198915 .054000856 .49198915 .085006717V.1630249H.61698916M.4039917 .5688019V.20703125H.10998535L.4039917 .5688019Z"/>
<path id="font_3_5" d="M.19599915 .55078127C.24899292 .53778079 .2939911 .53778079 .30499269 .53778079 .37298585 .53778079 .4229889 .55778506 .44898988 .57177737 .47299195 .583786 .54100039 .6267853 .54100039 .64878848 .54100039 .66378787 .5299988 .66578677 .5269928 .66578677 .5249939 .66578677 .522995 .66578677 .5119934 .66078189 .47399903 .6477814 .4119873 .63378909 .34599305 .63378909 .2889862 .63378909 .23399353 .64378359 .18099976 .66178897 .16999817 .66578677 .16799927 .66578677 .1659851 .66578677 .1519928 .66578677 .1519928 .6537781 .1519928 .63778689V.33763124C.1519928 .32061769 .1519928 .30760194 .17098999 .30760194 .18199158 .30760194 .18299866 .30960084 .19198609 .32061769 .22999573 .36468507 .2829895 .38671876 .35099793 .38671876 .40899659 .38671876 .44099427 .35266114 .45498658 .33163453 .47799684 .2975769 .48298646 .2525177 .48298646 .20446778 .48298646 .16246033 .47898866 .10646057 .43998719 .067489627 .394989 .021530152 .33799745 .01852417 .31599427 .01852417 .25099183 .01852417 .17799378 .04650879 .14698792 .10546875 .18899536 .10845947 .20298767 .13845825 .20298767 .1614685 .20298767 .19346619 .1789856 .21746826 .14698792 .21746826 .125 .21746826 .09098816 .20446778 .09098816 .15846253 .09098816 .0605011 .18699646-.022460938 .31799317-.022460938 .46699525-.022460938 .58898928 .07748413 .58898928 .20146179 .58898928 .3146057 .49198915 .41970826 .35299684 .41970826 .2899933 .41970826 .23899842 .40371705 .19599915 .37068177V.55078127Z"/>
<path id="font_3_6" d="M.18598938 .32769776C.18699646 .37371827 .18798828 .4528656 .22399903 .51808169 .25299073 .5720825 .31799317 .628006 .41099549 .628006 .42999269 .628006 .47499085 .6260071 .5049896 .6020813 .4889984 .5980835 .46299745 .5830841 .46299745 .5490875 .46299745 .51708987 .4869995 .49609376 .5159912 .49609376 .5329895 .49609376 .56900027 .5050812 .56900027 .5520935 .56900027 .6060791 .5309906 .6660156 .4099884 .6660156 .23799134 .6660156 .07998657 .52508547 .07998657 .317688 .07998657 .078567508 .19699097-.022460938 .34298707-.022460938 .44198609-.022460938 .4889984 .014526367 .522995 .042541505 .58699038 .095565799 .59999087 .15460205 .59999087 .20463562 .59999087 .26565553 .5799866 .314682 .5279999 .36071778 .48399354 .40072633 .43798829 .42773438 .35099793 .42773438 .29299928 .42773438 .22799683 .39971925 .18598938 .32769776M.34298707 .01852417C.18899536 .01852417 .18899536 .18461609 .18899536 .2266388 .18899536 .30368043 .24398804 .39372254 .34899903 .39372254 .3999939 .39372254 .43199159 .38072206 .46299745 .34069825 .49299623 .30368043 .49398805 .2616577 .49398805 .20562744 .49398805 .14759827 .49398805 .109573367 .46199037 .06956482 .43399049 .0365448 .39898683 .01852417 .34298707 .01852417Z"/>
<path id="font_4_4" d="M.56399539 .31925965C.56399539 .4352417 .5549927 .6582031 .30599977 .6582031 .055999757 .6582031 .04798889 .4332428 .04798889 .31925965 .04798889 .20729065 .054992677-.013671875 .30599977-.013671875 .55799868-.013671875 .56399539 .20828247 .56399539 .31925965M.30599977 .028320313C.2789917 .028320313 .25099183 .03831482 .22999573 .05531311 .19799805 .08331299 .18299866 .0973053 .18299866 .33125306 .18299866 .40324403 .18299866 .4762268 .19299317 .5262146 .20599365 .5971985 .2679901 .6161957 .30599977 .6161957 .32998658 .6161957 .4059906 .610199 .42099 .515213 .42900086 .4662323 .42900086 .3892517 .42900086 .33125306 .42900086 .10231018 .4149933 .08830261 .38398744 .05831909 .37599183 .049316408 .34799195 .028320313 .30599977 .028320313Z"/>
<path id="font_4_1" d="M.40699769-.23200989C.40699769-.2250061 .4039917-.22200012 .3919983-.21200562 .2649994-.09700012 .21998596 .07798767 .21998596 .25 .21998596 .42099 .2630005 .59599307 .3899994 .70899966 .4059906 .723999 .40699769 .72499087 .40699769 .7319946 .40699769 .74198916 .40098573 .75 .38598634 .75 .36698915 .75 .31399537 .70500186 .2939911 .6859894 .16899109 .56199648 .11399841 .4099884 .11399841 .25 .11399841 .16099549 .13198853 .039993287 .20599365-.07800293 .2689972-.17800904 .3639984-.25 .38598634-.25 .40098573-.25 .40699769-.2420044 .40699769-.23200989Z"/>
<path id="font_5_3" d="M.22099304 .016998291C.21199036-.08493042 .1519928-.1348877 .1309967-.15187073 .11999512-.15986634 .115997318-.16287232 .115997318-.17185974 .115997318-.18086243 .12799073-.19386292 .13899231-.19386292 .15499878-.19386292 .2639923-.106918338 .2639923 .03199768 .2639923 .10499573 .22698975 .1599884 .16899109 .1599884 .12199402 .1599884 .08999634 .12399292 .08999634 .07998657 .08999634 .038986207 .11898804 0 .16999817 0 .18998719 0 .20899964 .0069885256 .22099304 .016998291Z"/>
<path id="font_4_2" d="M.36099244 .25C.36099244 .33898927 .34298707 .45999146 .2689972 .5779877 .20599365 .6779938 .11099243 .75 .08898926 .75 .07199097 .75 .067993167 .7389984 .067993167 .7319946 .067993167 .72499087 .07199097 .72099307 .08299255 .71199038 .20999146 .5970001 .25498963 .42199708 .25498963 .25 .25498963 .07899475 .21199036-.0960083 .084991458-.2090149 .07299805-.22000122 .067993167-.22401428 .067993167-.23200989 .067993167-.23901367 .07199097-.25 .08898926-.25 .10798645-.25 .16099549-.20500183 .18099976-.18600464 .30599977-.06201172 .36099244 .08999634 .36099244 .25Z"/>
<path id="font_6_13" d="M.80799868 .33398438C.82199099 .33398438 .8529968 .33398438 .8529968 .36598207 .8529968 .39797975 .82199099 .39797975 .8089905 .39797975H.10998535C.09700012 .39797975 .06599426 .39797975 .06599426 .36598207 .06599426 .33398438 .09799194 .33398438 .11099243 .33398438H.80799868M.8089905 .102005008C.82199099 .102005008 .8529968 .102005008 .8529968 .13400269 .8529968 .16601563 .82099917 .16601563 .80799868 .16601563H.11099243C.09799194 .16601563 .06599426 .16601563 .06599426 .13400269 .06599426 .102005008 .09700012 .102005008 .10998535 .102005008H.8089905Z"/>
<path id="font_7_1" d="M.7749939 .21821594C.78900149 .21821594 .82099917 .21821594 .82099917 .25021363 .82099917 .28222657 .78900149 .28222657 .7749939 .28222657H.14399719C.12998963 .28222657 .09799194 .28222657 .09799194 .25021363 .09799194 .21821594 .12998963 .21821594 .14399719 .21821594H.7749939Z"/>
<path id="font_6_6" d="M.5319977 .22505188H.48098756C.47898866 .21104431 .46998597 .13999939 .45498658 .1329956 .44198609 .12799073 .36799623 .12799073 .35099793 .12799073H.20799256C.26098634 .17102051 .32099916 .2180481 .37098695 .25306703 .45498658 .31211854 .5319977 .3661499 .5319977 .46418763 .5319977 .581192 .4249878 .65625 .27999879 .65625 .1559906 .65625 .05899048 .597229 .05899048 .505188 .05899048 .45318605 .09899902 .42918397 .13398743 .42918397 .1659851 .42918397 .20799256 .4521942 .20799256 .5041809 .20799256 .5261841 .19898987 .56318667 .15499878 .5751953 .18998719 .60324099 .23498535 .60723879 .25498963 .60723879 .33699037 .60723879 .3889923 .54618838 .3889923 .46318055 .3889923 .39115907 .34599305 .32511903 .29299928 .27108766L.069992069 .050994874C.05899048 .039993287 .05899048 .038986207 .05899048 .018997193V0H.5009918L.5319977 .22505188Z"/>
<path id="font_6_18" d="M.39698792 .42411805C.39698792 .4421234 .39698792 .453125 .3769989 .453125 .36698915 .453125 .35099793 .44511415 .33299256 .43511964 .30099488 .44911195 .2619934 .453125 .22898865 .453125 .19799805 .453125 .038986207 .453125 .038986207 .32112123 .038986207 .21612549 .16999817 .19412232 .20498657 .18812561 .2869873 .1741333 .35299684 .16313172 .35299684 .10612488 .35299684 .03413391 .25898744 .03413391 .23699951 .03413391 .18598938 .03413391 .12098694 .0471344 .09199524 .13912964 .08699036 .15612793 .085998538 .15913391 .06498718 .15913391 .038986207 .15913391 .038986207 .15312195 .038986207 .12913513V.023132325C.038986207 .005126953 .038986207-.005859375 .05899048-.005859375 .06599426-.005859375 .067993167-.005859375 .08999634 .008132935L.116989139 .025131226C.1639862-.005859375 .21699524-.005859375 .23699951-.005859375 .2669983-.005859375 .4269867-.005859375 .4269867 .14012146 .4269867 .19113159 .397995 .22312927 .37998963 .23812866 .33499146 .27612306 .30299378 .28112794 .22399903 .29412843 .17599488 .30212403 .11299133 .31211854 .11299133 .3571167 .11299133 .41711427 .20599365 .41711427 .22799683 .41711427 .33999635 .41711427 .34399415 .35812379 .34599305 .33111573 .34700013 .3171234 .36099244 .3171234 .37098695 .3171234 .3959961 .3171234 .39698792 .3221283 .39698792 .3461151V.42411805Z"/>
<path id="font_6_15" d="M.23999024 .6163025C.23999024 .66830447 .19799805 .6953125 .1619873 .6953125 .115997318 .6953125 .08299255 .65631106 .08299255 .6173096 .08299255 .5753021 .116989139 .53829959 .1619873 .53829959 .19999695 .53829959 .23999024 .56829836 .23999024 .6163025M.054992677 .44218446V.39318849C.11299133 .39318849 .11999512 .39318849 .11999512 .35417176V.04899597H.051986696V0C.11898804 .0019989014 .13198853 .0029907227 .17399597 .0029907227 .22299195 .0029907227 .23599243 .0019989014 .2919922 0V.04899597H.23098755V.4501953L.054992677 .44218446Z"/>
<path id="font_6_16" d="M.56199648 .30513C.56199648 .42419435 .48999024 .4501953 .40299989 .4501953 .27999879 .4501953 .23098755 .3601532 .22399903 .3451538H.22299195V.4501953L.049987794 .44218446V.39317323C.10998535 .39317323 .117996219 .39317323 .117996219 .3541565V.04899597H.049987794V0C.12399292 .0029907227 .13598633 .0029907227 .17599488 .0029907227 .21699524 .0029907227 .22698975 .0029907227 .30299378 0V.04899597H.23498535V.2541046C.23498535 .36616517 .32699586 .41018678 .3869934 .41018678 .4249878 .41018678 .44499208 .38917542 .44499208 .3141327V.04899597H.3769989V0C.45098878 .0029907227 .46299745 .0029907227 .5029907 .0029907227 .5439911 .0029907227 .55400088 .0029907227 .6299896 0V.04899597H.56199648V.30513Z"/>
<path id="font_1_1" d="M.32299806 .34472657H.43499757C.41799928 .27182008 .4039917 .20892334 .4039917 .14102173 .4039917 .070114139 .42399598-.0087890629 .47499085-.0087890629 .5039978-.0087890629 .5439911 .021194458 .5439911 .058135988 .5439911 .07211304 .5399933 .07810974 .5339966 .08909607 .4869995 .1659851 .48399354 .23487854 .48399354 .27581788 .48399354 .29179383 .48399354 .3127594 .4889984 .34472657H.61698916C.6349945 .34472657 .651001 .34472657 .6669922 .35972596 .6879883 .37872315 .6879883 .40072633 .6879883 .40272523 .6879883 .4437256 .6499939 .4437256 .6339874 .4437256H.22698975C.20298767 .4437256 .16299439 .4437256 .102996829 .39071656 .08099365 .37171937 .03199768 .31576539 .03199768 .30278016 .03199768 .2868042 .04798889 .2868042 .056991579 .2868042 .07299805 .2868042 .07398987 .2868042 .083999637 .29878236 .12199402 .34472657 .18598938 .34472657 .20799256 .34472657H.2689972C.23999024 .26083375 .20999146 .19593811 .147995 .083099368 .13598633 .06112671 .1309967 .053146364 .1309967 .03816223 .1309967 .015197754 .14898682-.007797241 .18099976-.007797241 .21499634-.007797241 .23399353 .019195557 .23799134 .026184082 .24499512 .03616333 .2579956 .09109497 .25898744 .09307861L.32299806 .34472657Z"/>
<path id="font_8_1" d="M.8019867 .21617127C.81599429 .21617127 .84999087 .21617127 .84999087 .25016786 .84999087 .2841797 .81599429 .2841797 .8019867 .2841797H.1499939C.13598633 .2841797 .101989749 .2841797 .101989749 .25016786 .101989749 .21617127 .13598633 .21617127 .1499939 .21617127H.8019867Z"/>
<path id="font_4_5" d="M.3789978 .62413027C.3789978 .6582031 .37298585 .6582031 .33299256 .6582031 .27198792 .61006167 .19198609 .5939789 .11399841 .5939789H.09199524V.5419922H.11399841C.13999939 .5419922 .19400025 .5449829 .2519989 .5619812V.051986696H.101989749V0C.13798523 .0029907227 .269989 .0029907227 .31498719 .0029907227 .3600006 .0029907227 .48999024 .0029907227 .5269928 0V.051986696H.3789978V.62413027Z"/>
<path id="font_4_6" d="M.5509949 .2280426H.49499513C.4869995 .16200257 .47399903 .14199829 .46798707 .13899231 .45700074 .1329956 .37998963 .1329956 .36299134 .1329956H.22499085C.35899354 .23805237 .41299439 .2680664 .45599366 .30108644 .526001 .35612489 .5509949 .40615846 .5509949 .46316529 .5509949 .58117678 .44198609 .6582031 .2899933 .6582031 .1619873 .6582031 .06098938 .6011963 .06098938 .50717166 .06098938 .4481659 .10899353 .4291687 .13699341 .4291687 .17199707 .4291687 .21398926 .4541626 .21398926 .50616458 .21398926 .5531616 .17999268 .5721588 .16699219 .5771637 .19499207 .5981903 .23498535 .6062012 .2659912 .6062012 .35598756 .6062012 .4059906 .5391693 .4059906 .4621582 .4059906 .38113404 .35299684 .31410218 .2939911 .25906373L.07299805 .052993776C.06199646 .041992189 .06098938 .040985109 .06098938 .020996094V0H.5179901L.5509949 .2280426Z"/>
<path id="font_4_7" d="M.28399659 .32714845C.3999939 .32714845 .40098573 .23034668 .40098573 .18035889 .40098573 .13534546 .40098573 .033325197 .28799439 .033325197 .2669983 .033325197 .20999146 .036315919 .1599884 .068359378 .1769867 .0753479 .21299744 .09635925 .21299744 .14535523 .21299744 .19335938 .1789856 .22634888 .13198853 .22634888 .08799744 .22634888 .050994874 .1963501 .050994874 .14434815 .050994874 .047332765 .15499878-.013671875 .29299928-.013671875 .4889984-.013671875 .5609894 .09234619 .5609894 .1793518 .5609894 .26127626 .49798585 .32914735 .3899994 .35313417 .4169922 .36413575 .5269928 .40715028 .5269928 .51615908 .5269928 .59617617 .44499208 .6582031 .29599 .6582031 .1659851 .6582031 .084991458 .58917239 .084991458 .50717166 .084991458 .45115663 .1289978 .4311676 .15899658 .4311676 .19898987 .4311676 .23298645 .45916749 .23298645 .5051575 .23298645 .52716067 .22499085 .5651703 .1769867 .5771637 .22099304 .6151886 .2809906 .6151886 .2899933 .6151886 .3829956 .6151886 .3829956 .5491638 .3829956 .51916506 .3829956 .4471588 .34899903 .41015626 .34599305 .40615846 .31698609 .37513734 .29899598 .3741455 .24499512 .37113954 .21398926 .36914063 .20399475 .36813355 .20399475 .34814454 .20399475 .32714845 .21699524 .32714845 .23498535 .32714845H.28399659Z"/>
<path id="font_4_9" d="M.17599488 .5010834C.20799256 .49609376 .24198914 .49609376 .24798584 .49609376 .27398683 .49609376 .34199525 .49609376 .4169922 .54408267 .44299317 .56108096 .5029907 .611084 .5029907 .63708499 .5029907 .65208438 .49499513 .65808108 .4850006 .65808108 .48298646 .65808108 .48098756 .65808108 .46998597 .65309146 .42099 .63609316 .3619995 .6260834 .30699159 .6260834 .2619934 .6260834 .20498657 .6320801 .13999939 .65408328 .13198853 .65808108 .12998963 .65808108 .1269989 .65808108 .10998535 .65808108 .10998535 .64108279 .10998535 .62709048V.33319093C.10998535 .3142395 .10998535 .29927064 .13699341 .29927064 .1519928 .29927064 .15499878 .30126954 .16499329 .31323243 .20498657 .36112977 .2669983 .3701172 .30599977 .3701172 .4019928 .3701172 .4019928 .27931214 .4019928 .20341492 .4019928 .13441468 .4019928 .033325197 .27198792 .033325197 .21998596 .033325197 .16999817 .055358888 .14299011 .089416507 .18499756 .09541321 .20498657 .12741089 .20498657 .16041565 .20498657 .2064209 .16899109 .23242188 .1329956 .23242188 .101989749 .23242188 .06098938 .2124176 .06098938 .15841675 .06098938 .068374637 .1459961-.013671875 .27598573-.013671875 .45399476-.013671875 .5509949 .08340454 .5509949 .20141602 .5509949 .31323243 .47099305 .41210938 .30999757 .41210938 .2619934 .41210938 .21598816 .4031067 .17599488 .3781128V.5010834Z"/>
<path id="font_9_28" d="M.58898928 .025985718C.58898928 .051986696 .57299807 .051986696 .5589905 .051986696 .49699403 .051986696 .49699403 .06199646 .49699403 .085006717V.29605104C.49699403 .38606263 .4249878 .45507813 .2619934 .45507813 .21299744 .45507813 .069992069 .45507813 .069992069 .35606385 .069992069 .31204225 .10398865 .28804017 .13699341 .28804017 .1769867 .28804017 .20498657 .31704713 .20498657 .35505677 .20498657 .3870697 .18399048 .4060669 .18399048 .4060669 .19198609 .4080658 .22099304 .41307069 .2599945 .41307069 .33999635 .41307069 .375 .36906434 .375 .29704286V.2680359C.22499085 .26704408 .02999878 .23402405 .02999878 .11199951 .02999878 .027160645 .12599182-.0068359377 .23498535-.0068359377 .33799745-.0068359377 .3809967 .04815674 .3939972 .06816101 .3939972 .037994386 .40499879 0 .5019989 0H.5549927C.57398989 0 .58898928 0 .58898928 .025985718M.375 .13699341C.375 .03515625 .25498963 .03515625 .25099183 .03515625 .19898987 .03515625 .1519928 .066207889 .1519928 .11427307 .1519928 .1843872 .24499512 .22746277 .375 .23046875V.13699341Z"/>
<path id="font_9_75" d="M.98999026 0V.051986696H.923996V.3034973C.923996 .42315675 .8509979 .45117188 .7589874 .45117188 .6539917 .45117188 .598999 .39059449 .5779877 .35958863 .55400088 .4371643 .4869995 .45117188 .4189911 .45117188 .2979889 .45117188 .24398804 .3715973 .23199463 .34959413H.23098755V.45117188L.055999757 .44335938V.39135743C.114990238 .39135743 .12199402 .39135743 .12199402 .35231019V.051986696H.055999757V0C.10998535 .0029907227 .14498902 .0029907227 .18299866 .0029907227 .22200012 .0029907227 .2559967 .0029907227 .30999757 0V.051986696H.24398804V.25320436C.24398804 .36413575 .33999635 .40916444 .4039917 .40916444 .43899537 .40916444 .46199037 .39215089 .46199037 .31411744V.051986696H.3959961V0C.44999696 .0029907227 .4850006 .0029907227 .522995 .0029907227 .56199648 .0029907227 .59599307 .0029907227 .6499939 0V.051986696H.58399966V.25308229C.58399966 .36413575 .6799927 .40916444 .74398806 .40916444 .7789917 .40916444 .8019867 .39215089 .8019867 .31411744V.051986696H.73599246V0C.7899933 .0029907227 .82499697 .0029907227 .86299136 .0029907227 .9019928 .0029907227 .9359894 .0029907227 .98999026 0Z"/>
<path id="font_9_84" d="M.6389923 .22315979C.6389923 .3481598 .5499878 .45117188 .3889923 .45117188 .33198548 .45117188 .27598573 .43615724 .22799683 .40415956V.45117188L.04598999 .44335938V.39135743C.06498718 .39135743 .08299255 .39135743 .09498596 .38835145 .11199951 .38534547 .11199951 .37434388 .11199951 .35533143V-.14160156H.04598999V-.19360352C.099990848-.1906128 .1349945-.1906128 .17298889-.1906128 .21199036-.1906128 .24598694-.1906128 .2999878-.19360352V-.14160156H.23399353V.03715515C.28599549-.0008392334 .33499146-.0068359377 .36999513-.0068359377 .5339966-.0068359377 .6389923 .08818054 .6389923 .2232666V.22315979M.5039978 .2232666C.5039978 .08918762 .43299867 .03515625 .3600006 .03515625 .31498719 .03515625 .2669983 .057174684 .23399353 .10620117V.34233094C.25099183 .36315919 .30099488 .40415956 .37199403 .40415956 .45098878 .40415956 .5039978 .3371582 .5039978 .22315979V.2232666Z"/>
<path id="font_9_72" d="M.30699159 0V.051986696H.24099732V.69433596L.05899048 .6855469V.6335449C.117996219 .6335449 .125 .6335449 .125 .594574V.051986696H.05899048V0C.116989139 .0029907227 .1269989 .0029907227 .18299866 .0029907227 .23899842 .0029907227 .24899292 .0029907227 .30699159 0Z"/>
<path id="font_9_66" d="M.2999878 0V.051986696H.24099732V.45117188L.06199646 .44335938V.39135743C.117996219 .39135743 .125 .39135743 .125 .35331727V.051986696H.05899048V0C.116989139 .0029907227 .12799073 .0029907227 .18099976 .0029907227 .22200012 .0029907227 .25099183 .0029907227 .2999878 0M.25099183 .6053772C.25099183 .6503906 .21299744 .685379 .17098999 .685379 .12599182 .685379 .08999634 .64938357 .08999634 .6053772 .08999634 .560379 .12799073 .5253906 .16999817 .5253906 .21499634 .5253906 .25099183 .5613861 .25099183 .6053772Z"/>
<path id="font_9_105" d="M.40699769 .12319946V.17422486H.35099793V.12519837C.35099793 .056167604 .31298829 .040161134 .2899933 .040161134 .23199463 .040161134 .23098755 .093185428 .23098755 .12019348V.39233399H.3869934V.44433595H.23098755V.6357422H.1749878C.17399597 .53652957 .12298584 .43632508 .022994996 .43432618V.39233399H.10899353V.12319946C.10899353 .02015686 .18998719-.0068359377 .2749939-.0068359377 .35099793-.0068359377 .40699769 .044158937 .40699769 .12319946Z"/>
<path id="font_9_109" d="M.6499939 .00015258789V.05215454C.59098818 .05215454 .58399966 .05215454 .58399966 .091033939V.45117188L.3959961 .443161V.39115907C.45498658 .39115907 .46199037 .39115907 .46199037 .35214234V.1620636C.46199037 .08604431 .40899659 .03515625 .32798768 .03515625 .24699402 .03515625 .24398804 .05809021 .24398804 .10903931V.45117188L.055999757 .443161V.39115907C.114990238 .39115907 .12199402 .39115907 .12199402 .35214234V.123046878C.12199402 .011154175 .21598816-.0068359377 .31399537-.0068359377 .34700013-.0068359377 .4139862-.0068359377 .46798707 .06303406V-.0068359377L.6499939 .00015258789Z"/>
<path id="font_9_47" d="M.6339874 0V.051986696C.57499697 .051986696 .56799319 .051986696 .56799319 .09101868V.69433596L.38598634 .6855469V.6335449C.44499208 .6335449 .45199586 .6335449 .45199586 .5946808V.40815736C.397995 .4451599 .34599305 .45117188 .30899049 .45117188 .13999939 .45117188 .040985109 .35116578 .040985109 .22215271 .040985109 .091156009 .13798523-.0068359377 .29699708-.0068359377 .36999513-.007003784 .41999818 .021987915 .44599916 .041992189V-.0068359377L.6339874 0M.44599916 .11099243C.39898683 .045150758 .33999635 .03515625 .30599977 .03515625 .17599488 .03515625 .17599488 .15916443 .17599488 .21916199 .17599488 .28216554 .17599488 .40916444 .31900025 .40916444 .36499024 .40916444 .4119873 .39016725 .44599916 .34716798V.11099243Z"/>
<path id="font_9_50" d="M.526001 .11508179C.526001 .13604737 .5049896 .13604737 .49798585 .13604737 .48098756 .13604737 .47698976 .13404846 .46899415 .11706543 .43699647 .04714966 .35198976 .040161134 .32398988 .040161134 .17599488 .040161134 .17098999 .15603638 .16899109 .2119751H.49198915C.5130005 .2119751 .526001 .2119751 .526001 .2409668 .526001 .28399659 .5159912 .35003663 .46598817 .3990631 .4099884 .45507813 .31999208 .45507813 .29699708 .45507813 .11898804 .45507813 .033996583 .34402467 .033996583 .2259674 .033996583 .09609985 .13398743-.0068359377 .31199647-.0068359377 .48799134-.0068359377 .526001 .10108948 .526001 .11508179M.42799378 .25097657H.16899109C.16999817 .29100038 .17399597 .41307069 .2979889 .41307069 .42199708 .41307069 .4269867 .2899933 .42799378 .25097657Z"/>
<path id="font_10_84" d="M.59999087 .22319031C.59999087 .3561859 .5089874 .4501953 .36499024 .4501953 .2899933 .4501953 .23699951 .41918946 .21398926 .40118409V.4501953L.036987306 .4423828V.39537049C.09899902 .39537049 .10598755 .39537049 .10598755 .3573761V-.14648438H.036987306V-.1934967L.16299439-.19049073 .2889862-.1934967V-.14648438H.21998596V.03945923C.2630005 .004135132 .30699159-.005859375 .34799195-.005859375 .49798585-.005859375 .59999087 .08413696 .59999087 .22312927V.22319031M.47200013 .22312927C.47200013 .08213806 .4019928 .030136109 .33699037 .030136109 .32299806 .030136109 .27598573 .030136109 .23098755 .08413696 .21998596 .09713745 .21998596 .09812927 .21998596 .117126468V.32913209C.21998596 .34814454 .22099304 .3491516 .23498535 .36314393 .2749939 .4041443 .32699586 .41015626 .34899903 .41015626 .41600038 .41015626 .47200013 .3491516 .47200013 .22314453V.22312927Z"/>
<path id="font_10_50" d="M.49398805 .11706543C.49398805 .13504029 .47499085 .13504029 .46998597 .13504029 .45298768 .13504029 .45098878 .13005066 .44499208 .11405945 .42399598 .066101077 .36698915 .03413391 .3019867 .03413391 .16099549 .03413391 .1599884 .16700745 .1599884 .2179718H.46199037C.48399354 .2179718 .49398805 .2179718 .49398805 .2449646 .49398805 .27598573 .48799134 .34906007 .43798829 .3991089 .40098573 .43511964 .34799195 .453125 .2789917 .453125 .11898804 .453125 .03199768 .35005189 .03199768 .22497559 .03199768 .09107971 .13198853-.005859375 .29299928-.005859375 .45098878-.005859375 .49398805 .10006714 .49398805 .11706543M.39898683 .25097657H.1599884C.1619873 .29000855 .16299439 .3320465 .18399048 .36506654 .20999146 .4051056 .25 .41711427 .2789917 .41711427 .3959961 .41711427 .397995 .28599549 .39898683 .25097657Z"/>
<path id="font_10_96" d="M.44198609 .36819459C.44198609 .42118836 .3880005 .4501953 .33599855 .4501953 .2659912 .4501953 .22599793 .40019227 .20298767 .33718873V.4501953L.036987306 .4423828V.39537049C.09899902 .39537049 .10598755 .39537049 .10598755 .3563385V.04699707H.036987306V0L.16299439 .0029907227C.20098877 .0029907227 .2649994 .0029907227 .30099488 0V.04699707H.21398926V.22218323C.21398926 .29226686 .23899842 .41436769 .33898927 .41436769 .33898927 .41436769 .31999208 .39736939 .31999208 .36834718 .31999208 .32730104 .35198976 .3072815 .3809967 .3072815 .4099884 .3072815 .44198609 .3283081 .44198609 .36834718V.36819459Z"/>
<path id="font_10_66" d="M.28599549 0V.04699707H.22399903V.4501953L.049987794 .4423828V.39537049C.10899353 .39537049 .115997318 .39537049 .115997318 .3563385V.04699707H.04699707V0L.16899109 .0029907227 .28599549 0M.23799134 .60728457C.23799134 .6502838 .20298767 .6852875 .1599884 .6852875 .116989139 .6852875 .08198547 .6502838 .08198547 .60728457 .08198547 .5642853 .116989139 .5292969 .1599884 .5292969 .20298767 .5292969 .23799134 .5642853 .23799134 .60728457Z"/>
<path id="font_10_81" d="M.5419922 .21812439C.5419922 .35212709 .44999696 .453125 .2869873 .453125 .12298584 .453125 .03199768 .35112 .03199768 .21812439 .03199768 .09413147 .11999512-.005859375 .2869873-.005859375 .45498658-.005859375 .5419922 .09512329 .5419922 .21812439M.4139862 .22912598C.4139862 .14213562 .4139862 .03413391 .2869873 .03413391 .1599884 .03413391 .1599884 .14213562 .1599884 .22912598 .1599884 .27412416 .1599884 .32511903 .1769867 .3591156 .19599915 .39611817 .23799134 .41711427 .2869873 .41711427 .32899476 .41711427 .37098695 .40112306 .3929901 .36611939 .4139862 .3321228 .4139862 .27713014 .4139862 .22912598Z"/>
<path id="font_10_47" d="M.6009979 0V.04699707C.5389862 .04699707 .5319977 .04699707 .5319977 .086013797V.69433596L.35499574 .6855469V.63853457C.4169922 .63853457 .42399598 .63853457 .42399598 .5996704V.40518189C.37399293 .44418336 .32199098 .4501953 .2889862 .4501953 .14299011 .4501953 .037994386 .36218263 .037994386 .22116089 .037994386 .089141849 .12998963-.005859375 .27799989-.005859375 .33898927-.005859375 .3869934 .018127442 .41799928 .043136598V-.005859375L.6009979 0M.41799928 .102996829C.40499879 .08514404 .3639984 .030136109 .28799439 .030136109 .1659851 .030136109 .1659851 .15115357 .1659851 .22116089 .1659851 .26916505 .1659851 .3231659 .19198609 .36218263 .22099304 .40419007 .2679901 .41418458 .29899598 .41418458 .35598756 .41418458 .3959961 .3821869 .41799928 .35317994V.102996829Z"/>
<path id="font_11_8" d="M.44499208 .15611267H.5419922V.203125H.44499208V.62423709C.44499208 .6512451 .44299317 .65625 .4149933 .65625 .3939972 .65625 .3929901 .6552429 .3809967 .64024356L.03199768 .203125V.15611267H.31999208V.04699707H.20799256V0C.24598694 .0029907227 .33699037 .0029907227 .37998963 .0029907227 .41999818 .0029907227 .5069885 .0029907227 .5419922 0V.04699707H.44499208V.15611267M.33099366 .203125H.083999637L.33099366 .51319888V.203125Z"/>
</defs>
<path transform="matrix(1,0,0,-1,138.73001,113.685)" stroke-width=".3985" stroke-linecap="butt" stroke-miterlimit="10" stroke-linejoin="miter" fill="none" stroke="#f3d5e3" d="M-132.66358-102.04665H272.69673M-132.66358-95.24355H272.69673M-132.66358-88.44043H272.69673M-132.66358-81.63733H272.69673M-132.66358-74.83421H272.69673M-132.66358-68.0311H272.69673M-132.66358-61.22798H272.69673M-132.66358-54.42487H272.69673M-132.66358-47.62177H272.69673M-132.66358-40.81866H272.69673M-132.66358-34.01555H272.69673M-132.66358-27.21243H272.69673M-132.66358-20.40932H272.69673M-132.66358-13.6062H272.69673M-132.66358-6.80309H272.69673M-132.66358 0H272.69673M-132.66358 6.80309H272.69673M-132.66358 13.6062H272.69673M-132.66358 20.40932H272.69673M-132.66358 27.21243H272.69673M-132.66358 34.01555H272.69673M-132.66358 40.81866H272.69673M-132.66358 47.62177H272.69673M-132.66358 54.42487H272.69673M-132.66358 61.22798H272.69673M-132.66358 68.0311H272.69673M-132.66358 74.83421H272.69673M-132.66358 81.63733H272.69673M-132.66358 88.44043H272.69673M-132.66358 95.24355H272.69673M-132.6613-102.04825V95.24512M-125.29123-102.04825V95.24512M-117.92116-102.04825V95.24512M-110.55109-102.04825V95.24512M-103.181-102.04825V95.24512M-95.81093-102.04825V95.24512M-88.44086-102.04825V95.24512M-81.07079-102.04825V95.24512M-73.70071-102.04825V95.24512M-66.33064-102.04825V95.24512M-58.96057-102.04825V95.24512M-51.59048-102.04825V95.24512M-44.22041-102.04825V95.24512M-36.85034-102.04825V95.24512M-29.48027-102.04825V95.24512M-22.1102-102.04825V95.24512M-14.74013-102.04825V95.24512M-7.37006-102.04825V95.24512M0-102.04825V95.24512M7.37006-102.04825V95.24512M14.74013-102.04825V95.24512M22.1102-102.04825V95.24512M29.48027-102.04825V95.24512M36.85034-102.04825V95.24512M44.22041-102.04825V95.24512M51.59048-102.04825V95.24512M58.96057-102.04825V95.24512M66.33064-102.04825V95.24512M73.70071-102.04825V95.24512M81.07079-102.04825V95.24512M88.44086-102.04825V95.24512M95.81093-102.04825V95.24512M103.181-102.04825V95.24512M110.55109-102.04825V95.24512M117.92116-102.04825V95.24512M125.29123-102.04825V95.24512M132.6613-102.04825V95.24512M140.03137-102.04825V95.24512M147.40145-102.04825V95.24512M154.77152-102.04825V95.24512M162.1416-102.04825V95.24512M169.51168-102.04825V95.24512M176.88175-102.04825V95.24512M184.25182-102.04825V95.24512M191.62189-102.04825V95.24512M198.99196-102.04825V95.24512M206.36203-102.04825V95.24512M213.73212-102.04825V95.24512M221.10219-102.04825V95.24512M228.47226-102.04825V95.24512M235.84233-102.04825V95.24512M243.2124-102.04825V95.24512M250.58248-102.04825V95.24512M257.95256-102.04825V95.24512M265.32264-102.04825V95.24512M272.6927-102.04825V95.24512M272.69673 95.24512"/>
<path transform="matrix(1,0,0,-1,138.73001,113.685)" stroke-width=".79701" stroke-linecap="butt" stroke-miterlimit="10" stroke-linejoin="miter" fill="none" stroke="#000000" d="M-128.0011 0H268.03425"/>
<path transform="matrix(-1,-0,0,1,10.728912,113.685)" d="M4.66248 0C3.28098 .25902 1.0361 1.0361-.51805 1.94269V-1.94269C1.0361-1.0361 3.28098-.25902 4.66248 0"/>
<path transform="matrix(1,0,0,-1,406.76426,113.685)" d="M4.66248 0C3.28098 .25902 1.0361 1.0361-.51805 1.94269V-1.94269C1.0361-1.0361 3.28098-.25902 4.66248 0"/>
<use data-text="x" xlink:href="#font_1_3" transform="matrix(8.9664,0,0,-8.9664,415.146,115.67799)"/>
<path transform="matrix(1,0,0,-1,138.73001,113.685)" stroke-width=".79701" stroke-linecap="butt" stroke-miterlimit="10" stroke-linejoin="miter" fill="none" stroke="#000000" d="M0-97.38577V90.58264"/>
<path transform="matrix(0,1,1,0,138.73001,211.07077)" d="M4.66248 0C3.28098 .25902 1.0361 1.0361-.51805 1.94269V-1.94269C1.0361-1.0361 3.28098-.25902 4.66248 0"/>
<path transform="matrix(0,-1,-1,-0,138.73001,23.102356)" d="M4.66248 0C3.28098 .25902 1.0361 1.0361-.51805 1.94269V-1.94269C1.0361-1.0361 3.28098-.25902 4.66248 0"/>
<use data-text="y" xlink:href="#font_1_4" transform="matrix(8.9664,0,0,-8.9664,135.83502,12.976997)"/>
<path transform="matrix(1,0,0,-1,138.73001,113.685)" stroke-width=".79701" stroke-linecap="butt" stroke-miterlimit="10" stroke-linejoin="miter" fill="none" stroke="#000000" d="M-73.70186 1.70088V-1.70088"/>
<use data-text="&#x2212;" xlink:href="#font_2_1" transform="matrix(4.9813,0,0,-4.9813,60.63501,124.242)"/>
<use data-text="2" xlink:href="#font_3_2" transform="matrix(4.9813,0,0,-4.9813,66.03101,124.242)"/>
<path transform="matrix(1,0,0,-1,138.73001,113.685)" stroke-width=".79701" stroke-linecap="butt" stroke-miterlimit="10" stroke-linejoin="miter" fill="none" stroke="#000000" d="M-36.85092 1.70088V-1.70088"/>
<use data-text="&#x2212;" xlink:href="#font_2_1" transform="matrix(4.9813,0,0,-4.9813,97.48601,124.242)"/>
<use data-text="1" xlink:href="#font_3_1" transform="matrix(4.9813,0,0,-4.9813,102.88202,124.242)"/>
<path transform="matrix(1,0,0,-1,138.73001,113.685)" stroke-width=".79701" stroke-linecap="butt" stroke-miterlimit="10" stroke-linejoin="miter" fill="none" stroke="#000000" d="M36.85092 1.70088V-1.70088"/>
<use data-text="1" xlink:href="#font_3_1" transform="matrix(4.9813,0,0,-4.9813,173.88602,124.131)"/>
<path transform="matrix(1,0,0,-1,138.73001,113.685)" stroke-width=".79701" stroke-linecap="butt" stroke-miterlimit="10" stroke-linejoin="miter" fill="none" stroke="#000000" d="M73.70186 1.70088V-1.70088"/>
<use data-text="2" xlink:href="#font_3_2" transform="matrix(4.9813,0,0,-4.9813,210.73703,124.131)"/>
<path transform="matrix(1,0,0,-1,138.73001,113.685)" stroke-width=".79701" stroke-linecap="butt" stroke-miterlimit="10" stroke-linejoin="miter" fill="none" stroke="#000000" d="M110.55281 1.70088V-1.70088"/>
<use data-text="3" xlink:href="#font_3_3" transform="matrix(4.9813,0,0,-4.9813,247.58802,124.131)"/>
<path transform="matrix(1,0,0,-1,138.73001,113.685)" stroke-width=".79701" stroke-linecap="butt" stroke-miterlimit="10" stroke-linejoin="miter" fill="none" stroke="#000000" d="M147.40375 1.70088V-1.70088"/>
<use data-text="4" xlink:href="#font_3_4" transform="matrix(4.9813,0,0,-4.9813,284.43904,124.131)"/>
<path transform="matrix(1,0,0,-1,138.73001,113.685)" stroke-width=".79701" stroke-linecap="butt" stroke-miterlimit="10" stroke-linejoin="miter" fill="none" stroke="#000000" d="M184.25467 1.70088V-1.70088"/>
<use data-text="5" xlink:href="#font_3_5" transform="matrix(4.9813,0,0,-4.9813,321.29,124.131)"/>
<path transform="matrix(1,0,0,-1,138.73001,113.685)" stroke-width=".79701" stroke-linecap="butt" stroke-miterlimit="10" stroke-linejoin="miter" fill="none" stroke="#000000" d="M221.10562 1.70088V-1.70088"/>
<use data-text="6" xlink:href="#font_3_6" transform="matrix(4.9813,0,0,-4.9813,358.14103,124.131)"/>
<path transform="matrix(1,0,0,-1,138.73001,113.685)" stroke-width=".79701" stroke-linecap="butt" stroke-miterlimit="10" stroke-linejoin="miter" fill="none" stroke="#000000" d="M1.84262-68.03217H-1.84262"/>
<use data-text="&#x2212;" xlink:href="#font_2_1" transform="matrix(4.9813,0,0,-4.9813,122.56601,182.963)"/>
<use data-text="2" xlink:href="#font_3_2" transform="matrix(4.9813,0,0,-4.9813,127.96201,182.963)"/>
<path transform="matrix(1,0,0,-1,138.73001,113.685)" stroke-width=".79701" stroke-linecap="butt" stroke-miterlimit="10" stroke-linejoin="miter" fill="none" stroke="#000000" d="M1.84262-34.01608H-1.84262"/>
<use data-text="&#x2212;" xlink:href="#font_2_1" transform="matrix(4.9813,0,0,-4.9813,122.56601,148.946)"/>
<use data-text="1" xlink:href="#font_3_1" transform="matrix(4.9813,0,0,-4.9813,127.96201,148.946)"/>
<path transform="matrix(1,0,0,-1,138.73001,113.685)" stroke-width=".79701" stroke-linecap="butt" stroke-miterlimit="10" stroke-linejoin="miter" fill="none" stroke="#000000" d="M1.84262 34.01608H-1.84262"/>
<use data-text="1" xlink:href="#font_3_1" transform="matrix(4.9813,0,0,-4.9813,127.96201,81.274)"/>
<path transform="matrix(1,0,0,-1,138.73001,113.685)" stroke-width=".79701" stroke-linecap="butt" stroke-miterlimit="10" stroke-linejoin="miter" fill="none" stroke="#000000" d="M1.84262 68.03217H-1.84262"/>
<use data-text="2" xlink:href="#font_3_2" transform="matrix(4.9813,0,0,-4.9813,127.96201,47.257997)"/>
<use data-text="0" xlink:href="#font_4_4" transform="matrix(7.9701,0,0,-7.9701,143.1,123.192)"/>
<use data-text="(" xlink:href="#font_4_1" transform="matrix(7.9701,0,0,-7.9701,112.87901,107.322)"/>
<use data-text="0" xlink:href="#font_4_4" transform="matrix(7.9701,0,0,-7.9701,116.67278,107.322)"/>
<use data-text="," xlink:href="#font_5_3" transform="matrix(7.9701,0,0,-7.9701,121.557018,107.322)"/>
<use data-text="0" xlink:href="#font_4_4" transform="matrix(7.9701,0,0,-7.9701,125.681018,107.322)"/>
<use data-text=")" xlink:href="#font_4_2" transform="matrix(7.9701,0,0,-7.9701,130.55872,107.322)"/>
<path transform="matrix(1,0,0,-1,138.73001,113.685)" stroke-width="1.59404" stroke-linecap="butt" stroke-miterlimit="10" stroke-linejoin="miter" fill="none" stroke="#009bca" d="M-90.512-44.6803-90.49779-44.65024-88.86824-40.97957-87.2387-37.11163-85.60915-33.06517-83.9796-28.8578-82.35005-24.51236-80.72049-20.04857-79.09094-15.48825-77.4614-10.85318-75.83183-6.16725-74.20229-1.45016-72.57275 3.27309-70.9432 7.98184-69.31366 12.65117-67.68411 17.25925-66.05457 21.7853-64.42502 26.20549-62.79547 30.50006-61.16592 34.64618-59.53636 38.6262-57.90681 42.41937-56.27728 46.00807-54.64774 49.37563-53.01819 52.50443-51.38864 55.37991-49.7591 57.98863-48.12955 60.31708-46.5 62.35483-44.87045 64.09363-43.24089 65.51997-41.61134 66.6328-39.9818 67.42487-38.35226 67.8889-36.7227 68.028-35.09315 67.83698-33.46361 67.32106-31.83406 66.47917-30.20451 65.31651-28.57497 63.8393-26.94542 62.05484-25.31587 59.97034-23.68633 57.59729-22.0568 54.94496-20.42725 52.02794-18.7977 48.86177-17.16815 45.45787-15.5386 41.83598-13.90906 38.01167-12.27951 34.00362-10.64993 29.83255-9.02039 25.51723-7.39084 21.07835-5.76129 16.53777-4.13176 11.91827-2.50221 7.24063-.87267 2.52771 .75684-2.19243 2.38638-6.90639 4.01593-11.58713 5.64548-16.21077 7.27502-20.7576 8.90457-25.20477 10.53412-29.52943 12.16365-33.7119 13.7932-37.73138 15.42274-41.5692 17.05229-45.20667 18.68184-48.62611 20.31142-51.81096 21.94096-54.74565 23.57051-57.41664 25.20006-59.80943 26.8296-61.91573 28.45915-63.722 30.08868-65.221 31.71823-66.40651 33.34778-67.27122 34.97733-67.81105 36.60687-68.02591 38.23642-67.90967 39.86597-67.46848 41.49551-66.69925 43.12506-65.61029 44.75461-64.20576 46.38414-62.48874 48.0137-60.4728 49.64325-58.16304 51.2728-55.57405 52.90236-52.71826 54.5319-49.60712 56.16145-46.25616 57.791-42.68204 59.42055-38.90236 61.0501-34.9358 62.67964-30.80005 64.30917-26.51585 65.93872-22.10504 67.56827-17.58417 69.19781-12.98232 70.82738-8.31506 72.45692-3.60837 74.08647 1.11385 75.71602 5.83092 77.34557 10.52101 78.97511 15.16022 80.60464 19.72885 82.23419 24.19885 83.86374 28.55363 85.4933 32.77036 87.12285 36.82823 88.7524 40.70966 90.38194 44.39488 92.0115 47.8652 93.64105 51.10405 95.2706 54.09787 96.90015 56.83012 98.52968 59.28833 100.15923 61.46 101.78877 63.33583 103.41832 64.90646 105.04787 66.16463 106.67741 67.102 108.30696 67.71657 109.93651 68.00516 111.56606 67.96468 113.1956 67.59718 114.82513 66.90479 116.45468 65.88747 118.08426 64.55455 119.7138 62.90814 121.34335 60.95862 122.9729 58.7153 124.60245 56.18964 126.232 53.39302 127.86154 50.33792 129.49109 47.04199 131.12064 43.51768 132.75017 39.78262 134.37972 35.85764 136.00926 31.75822 137.63881 27.50621 139.26836 23.12236 140.8979 18.6264 142.52745 14.03908 144.157 9.38533 145.78656 4.68695 147.4161-.03423 149.04566-4.75548 150.6752-9.4528 152.30475-14.10759 153.9343-18.6918 155.56385-23.18776 157.19339-27.56952 158.82294-31.81946 160.45249-35.91577 162.08203-39.8387 163.71158-43.57065 165.34113-47.09183 166.97066-50.38464 168.60022-53.43556 170.22977-56.22906 171.85932-58.75163 173.48886-60.98975 175.11841-62.93513 176.74796-64.57634 178.3775-65.9051 180.00705-66.91725 181.63661-67.60548 183.26615-67.96777 184.89569-68.00308 186.52524-67.71034 188.15479-67.09059 189.78435-66.14801 191.4139-64.8857 193.04344-63.31197 194.67299-61.43094 196.30254-59.25407 197.93209-56.79173 199.56162-54.05533 201.19116-51.05836 202.82071-47.81642 204.45026-44.34192 206.0798-40.65463 207.70935-36.77011 209.3389-32.71013 210.96845-28.49135 212.59799-24.13449 214.22757-19.66136 215.85712-15.09378 217.48665-10.45352 219.1162-5.7624 220.74575-1.04532 222.37529 3.6769 224.00484 8.38358 225.63439 13.04875 227.26393 17.65163 228.89348 22.16939 230.52303 26.57921 230.80614 27.32315"/>
<path transform="matrix(-.42668,.90434,.90434,.42668,48.21801,158.36528)" d="M3.78581 0-2.27148 3.02866 0 0-2.27148-3.02866" fill="#009bca"/>
<path transform="matrix(.35565,-.93459,-.93459,-.35565,369.53614,86.36186)" d="M3.78581 0-2.27148 3.02866 0 0-2.27148-3.02866" fill="#009bca"/>
<use data-text="y" xlink:href="#font_1_4" transform="matrix(8.9664,0,0,-8.9664,341.24504,47.503999)" fill="#009bca"/>
<use data-text="=" xlink:href="#font_6_13" transform="matrix(8.9664,0,0,-8.9664,349.59403,47.503999)" fill="#009bca"/>
<use data-text="&#x2212;" xlink:href="#font_7_1" transform="matrix(8.9664,0,0,-8.9664,360.406,47.503999)" fill="#009bca"/>
<use data-text="2" xlink:href="#font_6_6" transform="matrix(8.9664,0,0,-8.9664,368.65803,47.503999)" fill="#009bca"/>
<use data-text="s" xlink:href="#font_6_18" transform="matrix(8.9664,0,0,-8.9664,375.49043,47.503999)" fill="#009bca"/>
<use data-text="i" xlink:href="#font_6_15" transform="matrix(8.9664,0,0,-8.9664,379.66877,47.503999)" fill="#009bca"/>
<use data-text="n" xlink:href="#font_6_16" transform="matrix(8.9664,0,0,-8.9664,382.60975,47.503999)" fill="#009bca"/>
<use data-text="&#x03c0;" xlink:href="#font_1_1" transform="matrix(8.9664,0,0,-8.9664,391.25703,41.704999)" fill="#009bca"/>
<path transform="matrix(1,0,0,-1,274.515,5.822998)" stroke-width=".3786" stroke-linecap="butt" stroke-miterlimit="10" stroke-linejoin="miter" fill="none" stroke="#009bca" d="M116.742-39.44H123.383"/>
<use data-text="2" xlink:href="#font_6_6" transform="matrix(8.9664,0,0,-8.9664,391.92503,53.585)" fill="#009bca"/>
<use data-text="x" xlink:href="#font_1_3" transform="matrix(8.9664,0,0,-8.9664,399.09303,47.503999)" fill="#009bca"/>
<path transform="matrix(1,0,0,-1,138.73001,113.685)" stroke-width="1.59404" stroke-linecap="butt" stroke-dasharray="1.99255,1.49442" stroke-miterlimit="10" stroke-linejoin="miter" fill="none" stroke="#009bca" d="M-90.512 44.6803-90.49779 44.65024-88.86824 40.97957-87.2387 37.11163-85.60915 33.06517-83.9796 28.8578-82.35005 24.51236-80.72049 20.04857-79.09094 15.48825-77.4614 10.85318-75.83183 6.16725-74.20229 1.45016-72.57275-3.27309-70.9432-7.98184-69.31366-12.65117-67.68411-17.25925-66.05457-21.7853-64.42502-26.20549-62.79547-30.50006-61.16592-34.64618-59.53636-38.6262-57.90681-42.41937-56.27728-46.00807-54.64774-49.37563-53.01819-52.50443-51.38864-55.37991-49.7591-57.98863-48.12955-60.31708-46.5-62.35483-44.87045-64.09363-43.24089-65.51997-41.61134-66.6328-39.9818-67.42487-38.35226-67.8889-36.7227-68.028-35.09315-67.83698-33.46361-67.32106-31.83406-66.47917-30.20451-65.31651-28.57497-63.8393-26.94542-62.05484-25.31587-59.97034-23.68633-57.59729-22.0568-54.94496-20.42725-52.02794-18.7977-48.86177-17.16815-45.45787-15.5386-41.83598-13.90906-38.01167-12.27951-34.00362-10.64993-29.83255-9.02039-25.51723-7.39084-21.07835-5.76129-16.53777-4.13176-11.91827-2.50221-7.24063-.87267-2.52771 .75684 2.19243 2.38638 6.90639 4.01593 11.58713 5.64548 16.21077 7.27502 20.7576 8.90457 25.20477 10.53412 29.52943 12.16365 33.7119 13.7932 37.73138 15.42274 41.5692 17.05229 45.20667 18.68184 48.62611 20.31142 51.81096 21.94096 54.74565 23.57051 57.41664 25.20006 59.80943 26.8296 61.91573 28.45915 63.722 30.08868 65.221 31.71823 66.40651 33.34778 67.27122 34.97733 67.81105 36.60687 68.02591 38.23642 67.90967 39.86597 67.46848 41.49551 66.69925 43.12506 65.61029 44.75461 64.20576 46.38414 62.48874 48.0137 60.4728 49.64325 58.16304 51.2728 55.57405 52.90236 52.71826 54.5319 49.60712 56.16145 46.25616 57.791 42.68204 59.42055 38.90236 61.0501 34.9358 62.67964 30.80005 64.30917 26.51585 65.93872 22.10504 67.56827 17.58417 69.19781 12.98232 70.82738 8.31506 72.45692 3.60837 74.08647-1.11385 75.71602-5.83092 77.34557-10.52101 78.97511-15.16022 80.60464-19.72885 82.23419-24.19885 83.86374-28.55363 85.4933-32.77036 87.12285-36.82823 88.7524-40.70966 90.38194-44.39488 92.0115-47.8652 93.64105-51.10405 95.2706-54.09787 96.90015-56.83012 98.52968-59.28833 100.15923-61.46 101.78877-63.33583 103.41832-64.90646 105.04787-66.16463 106.67741-67.102 108.30696-67.71657 109.93651-68.00516 111.56606-67.96468 113.1956-67.59718 114.82513-66.90479 116.45468-65.88747 118.08426-64.55455 119.7138-62.90814 121.34335-60.95862 122.9729-58.7153 124.60245-56.18964 126.232-53.39302 127.86154-50.33792 129.49109-47.04199 131.12064-43.51768 132.75017-39.78262 134.37972-35.85764 136.00926-31.75822 137.63881-27.50621 139.26836-23.12236 140.8979-18.6264 142.52745-14.03908 144.157-9.38533 145.78656-4.68695 147.4161 .03423 149.04566 4.75548 150.6752 9.4528 152.30475 14.10759 153.9343 18.6918 155.56385 23.18776 157.19339 27.56952 158.82294 31.81946 160.45249 35.91577 162.08203 39.8387 163.71158 43.57065 165.34113 47.09183 166.97066 50.38464 168.60022 53.43556 170.22977 56.22906 171.85932 58.75163 173.48886 60.98975 175.11841 62.93513 176.74796 64.57634 178.3775 65.9051 180.00705 66.91725 181.63661 67.60548 183.26615 67.96777 184.89569 68.00308 186.52524 67.71034 188.15479 67.09059 189.78435 66.14801 191.4139 64.8857 193.04344 63.31197 194.67299 61.43094 196.30254 59.25407 197.93209 56.79173 199.56162 54.05533 201.19116 51.05836 202.82071 47.81642 204.45026 44.34192 206.0798 40.65463 207.70935 36.77011 209.3389 32.71013 210.96845 28.49135 212.59799 24.13449 214.22757 19.66136 215.85712 15.09378 217.48665 10.45352 219.1162 5.7624 220.74575 1.04532 222.37529-3.6769 224.00484-8.38358 225.63439-13.04875 227.26393-17.65163 228.89348-22.16939 230.52303-26.57921 230.80614-27.32315"/>
<path transform="matrix(-.42668,-.90434,-.90434,.42668,48.21801,69.004718)" d="M3.78581 0-2.27148 3.02866 0 0-2.27148-3.02866" fill="#009bca"/>
<path transform="matrix(.35565,.93459,.93459,-.35565,369.53614,141.00814)" d="M3.78581 0-2.27148 3.02866 0 0-2.27148-3.02866" fill="#009bca"/>
<use data-text="y" xlink:href="#font_1_4" transform="matrix(8.9664,0,0,-8.9664,344.93003,176.765)" fill="#009bca"/>
<use data-text="=" xlink:href="#font_6_13" transform="matrix(8.9664,0,0,-8.9664,353.27903,176.765)" fill="#009bca"/>
<use data-text="2" xlink:href="#font_6_6" transform="matrix(8.9664,0,0,-8.9664,364.08354,176.765)" fill="#009bca"/>
<use data-text="s" xlink:href="#font_6_18" transform="matrix(8.9664,0,0,-8.9664,370.91593,176.765)" fill="#009bca"/>
<use data-text="i" xlink:href="#font_6_15" transform="matrix(8.9664,0,0,-8.9664,375.09428,176.765)" fill="#009bca"/>
<use data-text="n" xlink:href="#font_6_16" transform="matrix(8.9664,0,0,-8.9664,378.03526,176.765)" fill="#009bca"/>
<use data-text="&#x03c0;" xlink:href="#font_1_1" transform="matrix(8.9664,0,0,-8.9664,386.69,170.966)" fill="#009bca"/>
<path transform="matrix(1,0,0,-1,278.2,135.084)" stroke-width=".3786" stroke-linecap="butt" stroke-miterlimit="10" stroke-linejoin="miter" fill="none" stroke="#009bca" d="M108.49-39.44H115.13"/>
<use data-text="2" xlink:href="#font_6_6" transform="matrix(8.9664,0,0,-8.9664,387.358,182.84601)" fill="#009bca"/>
<use data-text="x" xlink:href="#font_1_3" transform="matrix(8.9664,0,0,-8.9664,394.526,176.765)" fill="#009bca"/>
<path transform="matrix(1,0,0,-1,138.73001,113.685)" d="M-71.87009 0C-71.87009 1.01166-72.6902 1.83177-73.70186 1.83177-74.71352 1.83177-75.53363 1.01166-75.53363 0-75.53363-1.01166-74.71352-1.83177-73.70186-1.83177-72.6902-1.83177-71.87009-1.01166-71.87009 0ZM-73.70186 0"/>
<path transform="matrix(1,0,0,-1,138.73001,113.685)" stroke-width=".3985" stroke-linecap="butt" stroke-miterlimit="10" stroke-linejoin="miter" fill="none" stroke="#ffffff" d="M-71.87009 0C-71.87009 1.01166-72.6902 1.83177-73.70186 1.83177-74.71352 1.83177-75.53363 1.01166-75.53363 0-75.53363-1.01166-74.71352-1.83177-73.70186-1.83177-72.6902-1.83177-71.87009-1.01166-71.87009 0ZM-73.70186 0"/>
<path transform="matrix(1,0,0,-1,138.73001,113.685)" d="M1.83177 0C1.83177 1.01166 1.01166 1.83177 0 1.83177-1.01166 1.83177-1.83177 1.01166-1.83177 0-1.83177-1.01166-1.01166-1.83177 0-1.83177 1.01166-1.83177 1.83177-1.01166 1.83177 0ZM0 0"/>
<path transform="matrix(1,0,0,-1,138.73001,113.685)" stroke-width=".3985" stroke-linecap="butt" stroke-miterlimit="10" stroke-linejoin="miter" fill="none" stroke="#ffffff" d="M1.83177 0C1.83177 1.01166 1.01166 1.83177 0 1.83177-1.01166 1.83177-1.83177 1.01166-1.83177 0-1.83177-1.01166-1.01166-1.83177 0-1.83177 1.01166-1.83177 1.83177-1.01166 1.83177 0ZM0 0"/>
<path transform="matrix(1,0,0,-1,138.73001,113.685)" d="M75.53363 0C75.53363 1.01166 74.71352 1.83177 73.70186 1.83177 72.6902 1.83177 71.87009 1.01166 71.87009 0 71.87009-1.01166 72.6902-1.83177 73.70186-1.83177 74.71352-1.83177 75.53363-1.01166 75.53363 0ZM73.70186 0"/>
<path transform="matrix(1,0,0,-1,138.73001,113.685)" stroke-width=".3985" stroke-linecap="butt" stroke-miterlimit="10" stroke-linejoin="miter" fill="none" stroke="#ffffff" d="M75.53363 0C75.53363 1.01166 74.71352 1.83177 73.70186 1.83177 72.6902 1.83177 71.87009 1.01166 71.87009 0 71.87009-1.01166 72.6902-1.83177 73.70186-1.83177 74.71352-1.83177 75.53363-1.01166 75.53363 0ZM73.70186 0"/>
<path transform="matrix(1,0,0,-1,138.73001,113.685)" d="M149.23552 0C149.23552 1.01166 148.4154 1.83177 147.40375 1.83177 146.39208 1.83177 145.57196 1.01166 145.57196 0 145.57196-1.01166 146.39208-1.83177 147.40375-1.83177 148.4154-1.83177 149.23552-1.01166 149.23552 0ZM147.40375 0"/>
<path transform="matrix(1,0,0,-1,138.73001,113.685)" stroke-width=".3985" stroke-linecap="butt" stroke-miterlimit="10" stroke-linejoin="miter" fill="none" stroke="#ffffff" d="M149.23552 0C149.23552 1.01166 148.4154 1.83177 147.40375 1.83177 146.39208 1.83177 145.57196 1.01166 145.57196 0 145.57196-1.01166 146.39208-1.83177 147.40375-1.83177 148.4154-1.83177 149.23552-1.01166 149.23552 0ZM147.40375 0"/>
<path transform="matrix(1,0,0,-1,138.73001,113.685)" d="M222.9374 0C222.9374 1.01166 222.11728 1.83177 221.10562 1.83177 220.09397 1.83177 219.27385 1.01166 219.27385 0 219.27385-1.01166 220.09397-1.83177 221.10562-1.83177 222.11728-1.83177 222.9374-1.01166 222.9374 0ZM221.10562 0"/>
<path transform="matrix(1,0,0,-1,138.73001,113.685)" stroke-width=".3985" stroke-linecap="butt" stroke-miterlimit="10" stroke-linejoin="miter" fill="none" stroke="#ffffff" d="M222.9374 0C222.9374 1.01166 222.11728 1.83177 221.10562 1.83177 220.09397 1.83177 219.27385 1.01166 219.27385 0 219.27385-1.01166 220.09397-1.83177 221.10562-1.83177 222.11728-1.83177 222.9374-1.01166 222.9374 0ZM221.10562 0"/>
<path transform="matrix(1,0,0,-1,138.73001,113.685)" d="M-35.01915 68.03217C-35.01915 69.04382-35.83926 69.86394-36.85092 69.86394-37.8626 69.86394-38.68271 69.04382-38.68271 68.03217-38.68271 67.0205-37.8626 66.20038-36.85092 66.20038-35.83926 66.20038-35.01915 67.0205-35.01915 68.03217ZM-36.85092 68.03217"/>
<path transform="matrix(1,0,0,-1,138.73001,113.685)" stroke-width=".3985" stroke-linecap="butt" stroke-miterlimit="10" stroke-linejoin="miter" fill="none" stroke="#ffffff" d="M-35.01915 68.03217C-35.01915 69.04382-35.83926 69.86394-36.85092 69.86394-37.8626 69.86394-38.68271 69.04382-38.68271 68.03217-38.68271 67.0205-37.8626 66.20038-36.85092 66.20038-35.83926 66.20038-35.01915 67.0205-35.01915 68.03217ZM-36.85092 68.03217"/>
<use data-text="(" xlink:href="#font_4_1" transform="matrix(7.9701,0,0,-7.9701,87.334018,38.71)"/>
<use data-text="&#x2212;" xlink:href="#font_8_1" transform="matrix(7.9701,0,0,-7.9701,91.13101,38.71)"/>
<use data-text="1" xlink:href="#font_4_5" transform="matrix(7.9701,0,0,-7.9701,98.724018,38.71)"/>
<use data-text="," xlink:href="#font_5_3" transform="matrix(7.9701,0,0,-7.9701,103.606,38.71)"/>
<use data-text="2" xlink:href="#font_4_6" transform="matrix(7.9701,0,0,-7.9701,107.73001,38.71)"/>
<use data-text=")" xlink:href="#font_4_2" transform="matrix(7.9701,0,0,-7.9701,112.60771,38.71)"/>
<path transform="matrix(1,0,0,-1,138.73001,113.685)" d="M38.68271 68.03217C38.68271 69.04382 37.8626 69.86394 36.85092 69.86394 35.83926 69.86394 35.01915 69.04382 35.01915 68.03217 35.01915 67.0205 35.83926 66.20038 36.85092 66.20038 37.8626 66.20038 38.68271 67.0205 38.68271 68.03217ZM36.85092 68.03217"/>
<path transform="matrix(1,0,0,-1,138.73001,113.685)" stroke-width=".3985" stroke-linecap="butt" stroke-miterlimit="10" stroke-linejoin="miter" fill="none" stroke="#ffffff" d="M38.68271 68.03217C38.68271 69.04382 37.8626 69.86394 36.85092 69.86394 35.83926 69.86394 35.01915 69.04382 35.01915 68.03217 35.01915 67.0205 35.83926 66.20038 36.85092 66.20038 37.8626 66.20038 38.68271 67.0205 38.68271 68.03217ZM36.85092 68.03217"/>
<use data-text="(" xlink:href="#font_4_1" transform="matrix(7.9701,0,0,-7.9701,164.84803,38.71)"/>
<use data-text="1" xlink:href="#font_4_5" transform="matrix(7.9701,0,0,-7.9701,168.64179,38.71)"/>
<use data-text="," xlink:href="#font_5_3" transform="matrix(7.9701,0,0,-7.9701,173.52602,38.71)"/>
<use data-text="2" xlink:href="#font_4_6" transform="matrix(7.9701,0,0,-7.9701,177.65003,38.71)"/>
<use data-text=")" xlink:href="#font_4_2" transform="matrix(7.9701,0,0,-7.9701,182.52771,38.71)"/>
<path transform="matrix(1,0,0,-1,138.73001,113.685)" d="M112.38458 68.03217C112.38458 69.04382 111.56447 69.86394 110.55281 69.86394 109.54115 69.86394 108.72102 69.04382 108.72102 68.03217 108.72102 67.0205 109.54115 66.20038 110.55281 66.20038 111.56447 66.20038 112.38458 67.0205 112.38458 68.03217ZM110.55281 68.03217"/>
<path transform="matrix(1,0,0,-1,138.73001,113.685)" stroke-width=".3985" stroke-linecap="butt" stroke-miterlimit="10" stroke-linejoin="miter" fill="none" stroke="#ffffff" d="M112.38458 68.03217C112.38458 69.04382 111.56447 69.86394 110.55281 69.86394 109.54115 69.86394 108.72102 69.04382 108.72102 68.03217 108.72102 67.0205 109.54115 66.20038 110.55281 66.20038 111.56447 66.20038 112.38458 67.0205 112.38458 68.03217ZM110.55281 68.03217"/>
<use data-text="(" xlink:href="#font_4_1" transform="matrix(7.9701,0,0,-7.9701,238.56403,38.71)"/>
<use data-text="3" xlink:href="#font_4_7" transform="matrix(7.9701,0,0,-7.9701,242.35779,38.71)"/>
<use data-text="," xlink:href="#font_5_3" transform="matrix(7.9701,0,0,-7.9701,247.24202,38.71)"/>
<use data-text="2" xlink:href="#font_4_6" transform="matrix(7.9701,0,0,-7.9701,251.36603,38.71)"/>
<use data-text=")" xlink:href="#font_4_2" transform="matrix(7.9701,0,0,-7.9701,256.2437,38.71)"/>
<path transform="matrix(1,0,0,-1,138.73001,113.685)" d="M186.08646 68.03217C186.08646 69.04382 185.26634 69.86394 184.25467 69.86394 183.24301 69.86394 182.4229 69.04382 182.4229 68.03217 182.4229 67.0205 183.24301 66.20038 184.25467 66.20038 185.26634 66.20038 186.08646 67.0205 186.08646 68.03217ZM184.25467 68.03217"/>
<path transform="matrix(1,0,0,-1,138.73001,113.685)" stroke-width=".3985" stroke-linecap="butt" stroke-miterlimit="10" stroke-linejoin="miter" fill="none" stroke="#ffffff" d="M186.08646 68.03217C186.08646 69.04382 185.26634 69.86394 184.25467 69.86394 183.24301 69.86394 182.4229 69.04382 182.4229 68.03217 182.4229 67.0205 183.24301 66.20038 184.25467 66.20038 185.26634 66.20038 186.08646 67.0205 186.08646 68.03217ZM184.25467 68.03217"/>
<use data-text="(" xlink:href="#font_4_1" transform="matrix(7.9701,0,0,-7.9701,312.28004,38.71)"/>
<use data-text="5" xlink:href="#font_4_9" transform="matrix(7.9701,0,0,-7.9701,316.0738,38.71)"/>
<use data-text="," xlink:href="#font_5_3" transform="matrix(7.9701,0,0,-7.9701,320.958,38.71)"/>
<use data-text="2" xlink:href="#font_4_6" transform="matrix(7.9701,0,0,-7.9701,325.08204,38.71)"/>
<use data-text=")" xlink:href="#font_4_2" transform="matrix(7.9701,0,0,-7.9701,329.95973,38.71)"/>
<path transform="matrix(1,0,0,-1,138.73001,113.685)" d="M-35.01915-68.03217C-35.01915-67.0205-35.83926-66.20038-36.85092-66.20038-37.8626-66.20038-38.68271-67.0205-38.68271-68.03217-38.68271-69.04382-37.8626-69.86394-36.85092-69.86394-35.83926-69.86394-35.01915-69.04382-35.01915-68.03217ZM-36.85092-68.03217"/>
<path transform="matrix(1,0,0,-1,138.73001,113.685)" stroke-width=".3985" stroke-linecap="butt" stroke-miterlimit="10" stroke-linejoin="miter" fill="none" stroke="#ffffff" d="M-35.01915-68.03217C-35.01915-67.0205-35.83926-66.20038-36.85092-66.20038-37.8626-66.20038-38.68271-67.0205-38.68271-68.03217-38.68271-69.04382-37.8626-69.86394-36.85092-69.86394-35.83926-69.86394-35.01915-69.04382-35.01915-68.03217ZM-36.85092-68.03217"/>
<use data-text="(" xlink:href="#font_4_1" transform="matrix(7.9701,0,0,-7.9701,83.53801,192.64499)"/>
<use data-text="&#x2212;" xlink:href="#font_8_1" transform="matrix(7.9701,0,0,-7.9701,87.33501,192.64499)"/>
<use data-text="1" xlink:href="#font_4_5" transform="matrix(7.9701,0,0,-7.9701,94.92801,192.64499)"/>
<use data-text="," xlink:href="#font_5_3" transform="matrix(7.9701,0,0,-7.9701,99.810009,192.64499)"/>
<use data-text="&#x2212;" xlink:href="#font_8_1" transform="matrix(7.9701,0,0,-7.9701,103.934009,192.64499)"/>
<use data-text="2" xlink:href="#font_4_6" transform="matrix(7.9701,0,0,-7.9701,111.52701,192.64499)"/>
<use data-text=")" xlink:href="#font_4_2" transform="matrix(7.9701,0,0,-7.9701,116.40471,192.64499)"/>
<path transform="matrix(1,0,0,-1,138.73001,113.685)" d="M38.68271-68.03217C38.68271-67.0205 37.8626-66.20038 36.85092-66.20038 35.83926-66.20038 35.01915-67.0205 35.01915-68.03217 35.01915-69.04382 35.83926-69.86394 36.85092-69.86394 37.8626-69.86394 38.68271-69.04382 38.68271-68.03217ZM36.85092-68.03217"/>
<path transform="matrix(1,0,0,-1,138.73001,113.685)" stroke-width=".3985" stroke-linecap="butt" stroke-miterlimit="10" stroke-linejoin="miter" fill="none" stroke="#ffffff" d="M38.68271-68.03217C38.68271-67.0205 37.8626-66.20038 36.85092-66.20038 35.83926-66.20038 35.01915-67.0205 35.01915-68.03217 35.01915-69.04382 35.83926-69.86394 36.85092-69.86394 37.8626-69.86394 38.68271-69.04382 38.68271-68.03217ZM36.85092-68.03217"/>
<use data-text="(" xlink:href="#font_4_1" transform="matrix(7.9701,0,0,-7.9701,161.05101,192.64499)"/>
<use data-text="1" xlink:href="#font_4_5" transform="matrix(7.9701,0,0,-7.9701,164.84479,192.64499)"/>
<use data-text="," xlink:href="#font_5_3" transform="matrix(7.9701,0,0,-7.9701,169.729,192.64499)"/>
<use data-text="&#x2212;" xlink:href="#font_8_1" transform="matrix(7.9701,0,0,-7.9701,173.85301,192.64499)"/>
<use data-text="2" xlink:href="#font_4_6" transform="matrix(7.9701,0,0,-7.9701,181.44702,192.64499)"/>
<use data-text=")" xlink:href="#font_4_2" transform="matrix(7.9701,0,0,-7.9701,186.3247,192.64499)"/>
<path transform="matrix(1,0,0,-1,138.73001,113.685)" d="M112.38458-68.03217C112.38458-67.0205 111.56447-66.20038 110.55281-66.20038 109.54115-66.20038 108.72102-67.0205 108.72102-68.03217 108.72102-69.04382 109.54115-69.86394 110.55281-69.86394 111.56447-69.86394 112.38458-69.04382 112.38458-68.03217ZM110.55281-68.03217"/>
<path transform="matrix(1,0,0,-1,138.73001,113.685)" stroke-width=".3985" stroke-linecap="butt" stroke-miterlimit="10" stroke-linejoin="miter" fill="none" stroke="#ffffff" d="M112.38458-68.03217C112.38458-67.0205 111.56447-66.20038 110.55281-66.20038 109.54115-66.20038 108.72102-67.0205 108.72102-68.03217 108.72102-69.04382 109.54115-69.86394 110.55281-69.86394 111.56447-69.86394 112.38458-69.04382 112.38458-68.03217ZM110.55281-68.03217"/>
<use data-text="(" xlink:href="#font_4_1" transform="matrix(7.9701,0,0,-7.9701,234.76703,192.64499)"/>
<use data-text="3" xlink:href="#font_4_7" transform="matrix(7.9701,0,0,-7.9701,238.56079,192.64499)"/>
<use data-text="," xlink:href="#font_5_3" transform="matrix(7.9701,0,0,-7.9701,243.44503,192.64499)"/>
<use data-text="&#x2212;" xlink:href="#font_8_1" transform="matrix(7.9701,0,0,-7.9701,247.56903,192.64499)"/>
<use data-text="2" xlink:href="#font_4_6" transform="matrix(7.9701,0,0,-7.9701,255.16303,192.64499)"/>
<use data-text=")" xlink:href="#font_4_2" transform="matrix(7.9701,0,0,-7.9701,260.0407,192.64499)"/>
<path transform="matrix(1,0,0,-1,138.73001,113.685)" d="M186.08646-68.03217C186.08646-67.0205 185.26634-66.20038 184.25467-66.20038 183.24301-66.20038 182.4229-67.0205 182.4229-68.03217 182.4229-69.04382 183.24301-69.86394 184.25467-69.86394 185.26634-69.86394 186.08646-69.04382 186.08646-68.03217ZM184.25467-68.03217"/>
<path transform="matrix(1,0,0,-1,138.73001,113.685)" stroke-width=".3985" stroke-linecap="butt" stroke-miterlimit="10" stroke-linejoin="miter" fill="none" stroke="#ffffff" d="M186.08646-68.03217C186.08646-67.0205 185.26634-66.20038 184.25467-66.20038 183.24301-66.20038 182.4229-67.0205 182.4229-68.03217 182.4229-69.04382 183.24301-69.86394 184.25467-69.86394 185.26634-69.86394 186.08646-69.04382 186.08646-68.03217ZM184.25467-68.03217"/>
<use data-text="(" xlink:href="#font_4_1" transform="matrix(7.9701,0,0,-7.9701,308.48304,192.64499)"/>
<use data-text="5" xlink:href="#font_4_9" transform="matrix(7.9701,0,0,-7.9701,312.2768,192.64499)"/>
<use data-text="," xlink:href="#font_5_3" transform="matrix(7.9701,0,0,-7.9701,317.161,192.64499)"/>
<use data-text="&#x2212;" xlink:href="#font_8_1" transform="matrix(7.9701,0,0,-7.9701,321.28504,192.64499)"/>
<use data-text="2" xlink:href="#font_4_6" transform="matrix(7.9701,0,0,-7.9701,328.87904,192.64499)"/>
<use data-text=")" xlink:href="#font_4_2" transform="matrix(7.9701,0,0,-7.9701,333.7567,192.64499)"/>
<path transform="matrix(1,0,0,-1,138.73001,113.685)" stroke-width=".3985" stroke-linecap="butt" stroke-miterlimit="10" stroke-linejoin="miter" fill="none" stroke="#000000" d="M110.55281 .29886V67.73329"/>
<path transform="matrix(0,1,1,0,249.28282,109.69995)" d="M3.58653 0C2.52383 .19925 .797 .797-.3985 1.49438V-1.49438C.797-.797 2.52383-.19925 3.58653 0"/>
<path transform="matrix(0,1,1,0,249.28282,113.48575)" stroke-width=".3985" stroke-linecap="butt" stroke-miterlimit="10" stroke-linejoin="miter" fill="none" stroke="#000000" d="M0 2.29141V-2.29141"/>
<path transform="matrix(0,-1,-1,-0,249.28282,49.63788)" d="M3.58653 0C2.52383 .19925 .797 .797-.3985 1.49438V-1.49438C.797-.797 2.52383-.19925 3.58653 0"/>
<path transform="matrix(0,-1,-1,-0,249.28282,45.852098)" stroke-width=".3985" stroke-linecap="butt" stroke-miterlimit="10" stroke-linejoin="miter" fill="none" stroke="#000000" d="M0 2.29141V-2.29141"/>
<use data-text="a" xlink:href="#font_9_28" transform="matrix(0,-7.9701,-7.9701,-0,247.58902,105.163997)"/>
<use data-text="m" xlink:href="#font_9_75" transform="matrix(0,-7.9701,-7.9701,-0,247.58902,100.41381)"/>
<use data-text="p" xlink:href="#font_9_84" transform="matrix(0,-7.9701,-7.9701,-0,247.58902,92.27634)"/>
<use data-text="l" xlink:href="#font_9_72" transform="matrix(0,-7.9701,-7.9701,-0,247.58902,86.8487)"/>
<use data-text="i" xlink:href="#font_9_66" transform="matrix(0,-7.9701,-7.9701,-0,247.58902,84.13887)"/>
<use data-text="t" xlink:href="#font_9_105" transform="matrix(0,-7.9701,-7.9701,-0,247.58902,81.42904)"/>
<use data-text="u" xlink:href="#font_9_109" transform="matrix(0,-7.9701,-7.9701,-0,247.58902,77.63527)"/>
<use data-text="d" xlink:href="#font_9_47" transform="matrix(0,-7.9701,-7.9701,-0,247.58902,72.207637)"/>
<use data-text="e" xlink:href="#font_9_50" transform="matrix(0,-7.9701,-7.9701,-0,247.58902,66.78)"/>
<use data-text="2" xlink:href="#font_4_6" transform="matrix(0,-7.9701,-7.9701,-0,247.58902,59.05699)"/>
<path transform="matrix(1,0,0,-1,138.73001,113.685)" stroke-width=".3985" stroke-linecap="butt" stroke-miterlimit="10" stroke-linejoin="miter" fill="none" stroke="#000000" d="M.29886-88.442H147.10488"/>
<path transform="matrix(-1,-0,0,1,142.71506,202.127)" d="M3.58653 0C2.52383 .19925 .797 .797-.3985 1.49438V-1.49438C.797-.797 2.52383-.19925 3.58653 0"/>
<path transform="matrix(-1,-0,0,1,138.92926,202.127)" stroke-width=".3985" stroke-linecap="butt" stroke-miterlimit="10" stroke-linejoin="miter" fill="none" stroke="#000000" d="M0 2.29141V-2.29141"/>
<path transform="matrix(1,0,0,-1,282.1487,202.127)" d="M3.58653 0C2.52383 .19925 .797 .797-.3985 1.49438V-1.49438C.797-.797 2.52383-.19925 3.58653 0"/>
<path transform="matrix(1,0,0,-1,285.9345,202.127)" stroke-width=".3985" stroke-linecap="butt" stroke-miterlimit="10" stroke-linejoin="miter" fill="none" stroke="#000000" d="M0 2.29141V-2.29141"/>
<path transform="matrix(1,0,0,-1,138.73001,113.685)" d="M51.31056-94.35988H96.093158V-82.52414H51.31056Z" fill="#ffffff"/>
<use data-text="p" xlink:href="#font_10_84" transform="matrix(9.9626,0,0,-9.9626,191.535,204.618)"/>
<use data-text="e" xlink:href="#font_10_50" transform="matrix(9.9626,0,0,-9.9626,198.20996,204.618)"/>
<use data-text="r" xlink:href="#font_10_96" transform="matrix(9.9626,0,0,-9.9626,203.46024,204.618)"/>
<use data-text="i" xlink:href="#font_10_66" transform="matrix(9.9626,0,0,-9.9626,208.18253,204.618)"/>
<use data-text="o" xlink:href="#font_10_81" transform="matrix(9.9626,0,0,-9.9626,211.3606,204.618)"/>
<use data-text="d" xlink:href="#font_10_47" transform="matrix(9.9626,0,0,-9.9626,217.40789,204.618)"/>
<use data-text="4" xlink:href="#font_11_8" transform="matrix(9.9626,0,0,-9.9626,227.59902,204.618)"/>
</svg>
