<svg style="overflow: visible;" xmlns="http://www.w3.org/2000/svg" xmlns:xlink="http://www.w3.org/1999/xlink" xmlns:inkscape="http://www.inkscape.org/namespaces/inkscape" version="1.1" width="100%" height="100%" viewBox="0 0 464.67 235.19">
<defs>
<path id="font_1_7" d="M.5359955 .4011383C.5 .3911438 .48199464 .35714723 .48199464 .33215333 .48199464 .31015016 .49899293 .28614808 .5319977 .28614808 .5669861 .28614808 .60398867 .31515504 .60398867 .364151 .60398867 .41714479 .5509949 .45214845 .48999024 .45214845 .43299867 .45214845 .3959961 .4091339 .3829956 .3911438 .35798646 .433136 .3019867 .45214845 .24499512 .45214845 .11898804 .45214845 .050994874 .32914735 .050994874 .29615785 .050994874 .28215028 .06599426 .28215028 .07499695 .28215028 .08699036 .28215028 .09399414 .28215028 .09799194 .29515077 .1269989 .38613893 .19898987 .4161377 .23999024 .4161377 .27799989 .4161377 .29599 .39814759 .29599 .3661499 .29599 .3471527 .28199769 .29216004 .272995 .2561493L.23899842 .11917114C.22399903 .058181764 .18798828 .028182984 .1539917 .028182984 .14898682 .028182984 .12599182 .028182984 .10598755 .043182374 .14199829 .05317688 .1599884 .08717346 .1599884 .11216736 .1599884 .13417053 .14299011 .1581726 .10998535 .1581726 .07499695 .1581726 .037994386 .12916565 .037994386 .08016968 .037994386 .027175904 .09098816-.0078125 .1519928-.0078125 .20899964-.0078125 .24598694 .035186769 .25898744 .05317688 .28399659 .011184692 .33999635-.0078125 .39698792-.0078125 .522995-.0078125 .59098818 .11517334 .59098818 .14816284 .59098818 .16217041 .57598879 .16217041 .5669861 .16217041 .5549927 .16217041 .5479889 .16217041 .5439911 .14916992 .5149994 .058181764 .44299317 .028182984 .4019928 .028182984 .3639984 .028182984 .34599305 .046173097 .34599305 .07817078 .34599305 .09916687 .35899354 .15216065 .36799623 .18916321 .375 .21516419 .397995 .30915834 .40299989 .32514955 .41799928 .3851471 .45298768 .4161377 .48799134 .4161377 .49299623 .4161377 .5159912 .4161377 .5359955 .4011383Z"/>
<path id="font_1_8" d="M.57699587 .3771515C.58200076 .3951416 .58200076 .3971405 .58200076 .40014649 .58200076 .4221344 .56599429 .44413758 .5349884 .44413758 .48298646 .44413758 .47099305 .3971405 .46398927 .3701477L.43798829 .26615907C.42599488 .2181549 .40699769 .14117432 .3959961 .10017395 .3909912 .07817078 .3600006 .05418396 .35699464 .05218506 .34599305 .045181276 .32199098 .028182984 .2889862 .028182984 .22999573 .028182984 .22898865 .07817078 .22898865 .10116577 .22898865 .16217041 .2599945 .24015808 .28799439 .31214906 .2979889 .33815003 .30099488 .3451538 .30099488 .3621521 .30099488 .4201355 .24299622 .45214845 .18798828 .45214845 .08198547 .45214845 .03199768 .31614686 .03199768 .29615785 .03199768 .28215028 .04699707 .28215028 .055999757 .28215028 .067993167 .28215028 .07499695 .28215028 .07899475 .29515077 .11199951 .4061432 .16699219 .4161377 .18199158 .4161377 .18899536 .4161377 .19898987 .4161377 .19898987 .3951416 .19898987 .3721466 .18798828 .34614564 .18199158 .33015443 .14299011 .23016358 .12199402 .173172 .12199402 .122177127 .12199402 .008178711 .22200012-.0078125 .2809906-.0078125 .30599977-.0078125 .33999635-.0038146973 .3769989 .02218628 .34899903-.10101318 .27398683-.16615296 .20498657-.16615296 .19198609-.16615296 .1639862-.16415406 .14399719-.15213013 .17599488-.13909912 .19198609-.11204529 .19198609-.0849762 .19198609-.04890442 .16299439-.038879396 .14299011-.038879396 .10598755-.038879396 .070999149-.07095337 .070999149-.11505127 .070999149-.16615296 .12399292-.20214844 .20498657-.20214844 .31999208-.20214844 .45199586-.12506104 .48298646-.0008239746L.57699587 .3771515Z"/>
<path id="font_2_4" d="M.54499819 .31925965C.54499819 .4212494 .5419922 .65625 .29599 .65625 .051986696 .65625 .04598999 .429245 .04598999 .31925965 .04598999 .21525574 .04899597-.01171875 .29499818-.01171875 .5389862-.01171875 .54499819 .20826721 .54499819 .31925965M.29599 .028274537C.2689972 .028274537 .19999695 .040267946 .18699646 .13226319 .1789856 .18527222 .1789856 .27626039 .1789856 .33125306 .1789856 .3942566 .1789856 .47824098 .18699646 .52523806 .20199585 .60523989 .2689972 .61624148 .29499818 .61624148 .32798768 .61624148 .3909912 .600235 .4039917 .5222473 .4119873 .47424317 .4119873 .3882599 .4119873 .33125306 .4119873 .25326539 .4119873 .13426209 .3959961 .09527588 .37399293 .046279909 .32899476 .028274537 .29599 .028274537Z"/>
<path id="font_3_1" d="M.7749939 .21821594C.78900149 .21821594 .82099917 .21821594 .82099917 .25021363 .82099917 .28222657 .78900149 .28222657 .7749939 .28222657H.14399719C.12998963 .28222657 .09799194 .28222657 .09799194 .25021363 .09799194 .21821594 .12998963 .21821594 .14399719 .21821594H.7749939Z"/>
<path id="font_2_5" d="M.3639984 .6231537C.3639984 .6452484 .3639984 .65625 .33499146 .65625 .32299806 .65625 .32099916 .65625 .31199647 .6492462 .23498535 .5919647 .12799073 .5919647 .10798645 .5919647H.08799744V.54296877H.10798645C.13198853 .54296877 .18598938 .5459595 .24198914 .56295779V.04899597H.09899902V0C.13699341 .0029907227 .2579956 .0029907227 .30299378 .0029907227 .34999085 .0029907227 .46798707 .0029907227 .5089874 0V.04899597H.3639984V.6231537Z"/>
<path id="font_4_82" d="M.43199159 0V.0309906H.3999939C.30699159 .0309906 .3039856 .042999269 .3039856 .08001709V.63912966C.3039856 .6640167 .30299378 .6660156 .27799989 .6660156 .21598816 .60227969 .12399292 .60227969 .09298706 .60227969V.57128909C.11199951 .57128909 .17298889 .57128909 .22698975 .5972748V.08001709C.22698975 .042999269 .22399903 .0309906 .1309967 .0309906H.09899902V0C.1349945 .0029907227 .22399903 .0029907227 .2649994 .0029907227 .30599977 .0029907227 .3959961 .0029907227 .43199159 0Z"/>
<path id="font_4_107" d="M.46199037 .17704773H.43399049C.43199159 .16404724 .42399598 .10501099 .41099549 .08900452 .40499879 .07998657 .33599855 .07998657 .31599427 .07998657H.13798523L.23699951 .17404175C.40098573 .3161316 .46199037 .36915589 .46199037 .4711914 .46199037 .5860901 .36698915 .6660156 .24398804 .6660156 .1289978 .6660156 .050994874 .575119 .050994874 .4841919 .050994874 .43418885 .09399414 .42919923 .102996829 .42919923 .125 .42919923 .15499878 .44519044 .15499878 .48120118 .15499878 .51119998 .13398743 .5332031 .102996829 .5332031 .09799194 .5332031 .09498596 .5332031 .09098816 .53219607 .114990238 .6030731 .1789856 .63500979 .23298645 .63500979 .33499146 .63500979 .36999513 .5401764 .36999513 .4711914 .36999513 .36915589 .29299928 .28611756 .24499512 .23408509L.06199646 .035995485C.050994874 .024993897 .050994874 .022994996 .050994874 0H.43399049L.46199037 .17704773Z"/>
<path id="font_4_106" d="M.46998597 .17008972C.46998597 .25709535 .40098573 .33110047 .30499269 .35209657 .397995 .38710023 .44198609 .46009828 .44198609 .5290985 .44198609 .60606387 .35699464 .6660156 .25299073 .6660156 .14898682 .6660156 .070999149 .60705569 .070999149 .5310974 .070999149 .49809266 .09298706 .47909547 .12199402 .47909547 .15098572 .47909547 .17199707 .50009158 .17199707 .5290985 .17199707 .5640869 .147995 .57910159 .11399841 .57910159 .13999939 .6210327 .20098877 .64100649 .25 .64100649 .33299256 .64100649 .34899903 .5750885 .34899903 .52809146 .34899903 .49809266 .34298707 .45005799 .31799317 .41201783 .2869873 .36695863 .2519989 .36495973 .22299195 .36296083 .19799805 .36094667 .19599915 .36094667 .18798828 .36094667 .1789856 .35995484 .17098999 .35894776 .17098999 .34794618 .17098999 .33496095 .1789856 .33496095 .19599915 .33496095H.24299622C.32998658 .33496095 .36799623 .2646637 .36799623 .16937256 .36799623 .04145813 .2999878 .0055389406 .24899292 .0055389406 .22999573 .0055389406 .1329956 .010528564 .08799744 .0843811 .12399292 .07939148 .1519928 .10437012 .1519928 .13838196 .1519928 .17137146 .1269989 .19238281 .09799194 .19238281 .07299805 .19238281 .042999269 .17736817 .042999269 .13537598 .042999269 .046447755 .13598633-.022460938 .2519989-.022460938 .3769989-.022460938 .46998597 .06741333 .46998597 .16937256V.17008972Z"/>
<path id="font_4_57" d="M.48399354 .16503906V.19602967H.38198854V.649765C.38198854 .669754 .38198854 .6767578 .36299134 .6767578 .35099793 .6767578 .34999085 .67575076 .34098817 .6617584L.0289917 .19602967V.16503906H.3019867V.07901001C.3019867 .041992189 .29899598 .0309906 .22399903 .0309906H.20199585V0C.2649994 .0029907227 .33499146 .0029907227 .34199525 .0029907227 .34700013 .0029907227 .4189911 .0029907227 .48199464 0V.0309906H.45999146C.3849945 .0309906 .38198854 .041992189 .38198854 .07901001V.16503906H.48399354M.30799867 .19602967H.06098938L.30799867 .56581118V.19602967Z"/>
<path id="font_4_56" d="M.46199037 .19992066C.46199037 .3209076 .37599183 .41992188 .2669983 .41992188 .21899414 .41992188 .16999817 .4039154 .1349945 .36791993V.5647888C.16499329 .55578616 .19599915 .55078127 .22698975 .55078127 .34999085 .55078127 .42199708 .63983157 .42199708 .6529236 .42199708 .6619873 .41600038 .6660156 .41099549 .6660156 .41099549 .6660156 .40699769 .6660156 .397995 .6609802 .35099793 .6418457 .30499269 .63378909 .2630005 .63378909 .21998596 .63378909 .1749878 .6418457 .1289978 .6609802 .11898804 .6660156 .115997318 .6660156 .115997318 .6660156 .10398865 .6660156 .10398865 .6559448 .10398865 .63882449V.34490968C.10398865 .32699586 .10398865 .31599427 .117996219 .31599427 .12599182 .31562806 .1289978 .3196411 .1349945 .32867433 .16499329 .37083436 .21299744 .39491273 .2649994 .39491273 .37199403 .39491273 .37199403 .24035645 .37199403 .20422364 .37199403 .17321778 .37199403 .11122131 .34399415 .06636047 .31698609 .024475098 .2749939 .0055389406 .23599243 .0055389406 .1769867 .0055389406 .10998535 .042419435 .085998538 .11621094 .085998538 .116882327 .09298706 .11488342 .099990848 .11488342 .11999512 .11488342 .14898682 .12788391 .14898682 .1638794 .14898682 .19488526 .1269989 .21289063 .099990848 .21289063 .07899475 .21289063 .050994874 .20088196 .050994874 .16088867 .050994874 .069732669 .1269989-.022460938 .23799134-.022460938 .35899354-.02279663 .46199037 .07521057 .46199037 .19921875V.19992066Z"/>
<path id="font_4_101" d="M.46998597 .20277405C.46998597 .32977296 .37799073 .42578126 .2649994 .42578126 .20498657 .42578126 .1619873 .3907776 .13398743 .33078004 .13398743 .43276979 .14498902 .4897766 .17199707 .54177859 .19198609 .58277896 .24099732 .64100649 .31498719 .64100649 .33499146 .64100649 .3809967 .63697817 .4039917 .6007843 .36698915 .6007843 .35099793 .5817871 .35099793 .55477908 .35099793 .5287781 .36898805 .50878909 .39698792 .50878909 .4249878 .50878909 .44400025 .5267792 .44400025 .55677798 .44400025 .61299136 .4039917 .6660156 .31298829 .6660156 .18399048 .6660156 .042999269 .5389252 .042999269 .31576539 .042999269 .044555665 .16499329-.022460938 .25898744-.022460938 .36999513-.022460938 .46998597 .07052612 .46998597 .2025299V.20277405M.3789978 .20353699C.3789978 .15553284 .3789978 .106536868 .3600006 .0695343 .32899476 .012527466 .2849884 .0055389406 .2579956 .0055389406 .20098877 .0055389406 .16799927 .05253601 .1559906 .08152771 .13699341 .12652588 .13598633 .20953369 .13598633 .2255249 .13598633 .2927704 .16699219 .4007721 .2630005 .4007721 .2789917 .4007721 .32798768 .4007721 .3600006 .33877564 .3789978 .300766 .3789978 .25177003 .3789978 .20376587V.20353699Z"/>
<path id="font_4_100" d="M.49899293 .6435547H.25C.12399292 .6435547 .12098694 .6566467 .117996219 .67578127H.08999634L.056991579 .46655274H.084991458C.08898926 .48954774 .09700012 .5455475 .10998535 .55755618 .116989139 .56355288 .19599915 .56355288 .20999146 .56355288H.41999818L.32398988 .4325409C.19400025 .25354005 .18199158 .090530399 .18199158 .03353882 .18199158 .022537232 .18199158-.022460938 .22799683-.022460938 .2749939-.022460938 .2749939 .021530152 .2749939 .03453064V.08354187C.2749939 .23054505 .29699708 .34654237 .34999085 .41854859L.48999024 .60954287C.49899293 .62054446 .49899293 .62254336 .49899293 .6435547Z"/>
<path id="font_4_51" d="M.46998597 .16764832C.46998597 .26472474 .3959961 .3127594 .37098695 .32876588 .3600006 .33677674 .33099366 .35479737 .31900025 .36180116 .36898805 .38581849 .44198609 .43585206 .44198609 .51690676 .44198609 .6109772 .34799195 .6660156 .2579956 .6660156 .15299988 .6660156 .070999149 .5909729 .070999149 .49890138 .070999149 .46087647 .084991458 .42485047 .10899353 .39582826 .12599182 .3768158 .13198853 .37280274 .18998719 .3357849 .101989749 .29374696 .042999269 .23269654 .042999269 .15063477 .042999269 .044555665 .147995-.022460938 .2559967-.022460938 .37199403-.022460938 .46998597 .059570314 .46998597 .16764832M.3939972 .51690676C.3939972 .44685365 .33399964 .40083314 .2939911 .37780763L.17199707 .45387269C.14199829 .47288514 .11898804 .4998932 .11898804 .53692629 .11898804 .6019745 .18899536 .64100649 .25498963 .64100649 .33198548 .64100649 .3939972 .58695986 .3939972 .51690676M.41600038 .1326294C.41600038 .05357361 .33599855 .0055389406 .25698854 .0055389406 .16999817 .0055389406 .09700012 .06758118 .09700012 .15063477 .09700012 .22268677 .14698792 .28274537 .21699524 .31877137L.34298707 .2407074C.3659973 .22569275 .41600038 .19366455 .41600038 .1326294Z"/>
<path id="font_4_78" d="M.46998597 .3287964C.46998597 .5999756 .34999085 .6660156 .2599945 .6660156 .14498902 .6660156 .042999269 .5729675 .042999269 .44187928 .042999269 .31478883 .1349945 .21875 .24798584 .21875 .32099916 .21875 .36099244 .27175904 .3789978 .31478883V.2927704C.3789978 .04875183 .2679901 .0055389406 .21099854 .0055389406 .18798828 .0055389406 .13699341 .009552002 .11099243 .042755128H.114990238C.12298584 .040740968 .1619873 .04875183 .1619873 .088760379 .1619873 .11476135 .14399719 .13476563 .115997318 .13476563 .08799744 .13476563 .068984989 .116760257 .068984989 .086761478 .068984989 .020629883 .12199402-.022460938 .21199036-.022460938 .34098817-.022460938 .46998597 .10975647 .46998597 .32888795V.3287964M.3769989 .42089845C.3769989 .34788514 .34399415 .2437439 .25 .2437439 .23399353 .2437439 .18499756 .2437439 .15299988 .30584718 .13398743 .34388734 .13398743 .3928833 .13398743 .4409027 .13398743 .48892213 .13398743 .5389557 .15499878 .5769806 .18499756 .628006 .22399903 .64100649 .2599945 .64100649 .32798768 .64100649 .35499574 .5719757 .35899354 .56196597 .37298585 .5249481 .3769989 .46391297 .3769989 .42089845Z"/>
<path id="font_4_121" d="M.47299195 .31976319C.47299195 .38682557 .46998597 .47288514 .43499757 .5479431 .3909912 .64201357 .31498719 .6660156 .25698854 .6660156 .19699097 .6660156 .12098694 .64201357 .07699585 .5459442 .04499817 .47688294 .039993287 .39582826 .039993287 .31976319 .039993287 .25471498 .041992189 .15765381 .084991458 .07858276 .13198853-.0064697267 .20999146-.022460938 .2559967-.022460938 .32099916-.022460938 .394989 .0055389406 .43699647 .097595218 .46699525 .1646576 .47299195 .23971558 .47299195 .31976319M.3869934 .33177186C.3869934 .2697296 .3869934 .18566895 .3769989 .12661743 .35598756 .012542725 .28199769 .002532959 .25698854 .002532959 .22698975 .002532959 .15499878 .016540528 .13598633 .12962342 .12599182 .18867493 .12599182 .2747345 .12599182 .33177186 .12599182 .39982606 .12599182 .47888185 .13798523 .53393557 .1579895 .6230011 .22200012 .64100649 .2559967 .64100649 .2939911 .64100649 .35699464 .62098696 .37599183 .5279236 .3869934 .47288514 .3869934 .39482118 .3869934 .33177186Z"/>
<path id="font_5_4" d="M.59498599 .3731079C.598999 .38909913 .598999 .394104 .598999 .3981018 .598999 .4320984 .57199099 .44410707 .5509949 .44410707 .49798585 .44410707 .48599244 .3961029 .47898866 .3701172L.45298768 .26612855C.43899537 .21113587 .42599488 .15615845 .41099549 .10116577 .4099884 .09416199 .3659973 .032180787 .30099488 .032180787 .2579956 .032180787 .23799134 .057174684 .23799134 .10417175 .23799134 .16314698 .27198792 .24913025 .29899598 .3171234 .30499269 .33111573 .31098939 .3461151 .31098939 .36210633 .31098939 .41410829 .25898744 .45210267 .19299317 .45210267 .08699036 .45210267 .032989503 .32011415 .032989503 .29612733 .032989503 .28112794 .04699707 .28112794 .05899048 .28112794 .07499695 .28112794 .07998657 .28112794 .083999637 .29512025 .11898804 .4091034 .1769867 .41210938 .18699646 .41210938 .19299317 .41210938 .20399475 .41210938 .20399475 .3901062 .20399475 .36810304 .19299317 .3421173 .18798828 .32911683 .147995 .22813416 .12799073 .17315674 .12799073 .12416077 .12799073 .0231781 .20899964-.0078125 .29299928-.0078125 .30899049-.0078125 .34700013-.0078125 .3919983 .02218628 .36999513-.08416748 .29599-.16210938 .21598816-.16210938 .21398926-.16210938 .18499756-.16210938 .16099549-.15216065 .18399048-.14016724 .20399475-.11515808 .20399475-.0851593 .20399475-.04916382 .17599488-.03515625 .1519928-.03515625 .10899353-.03515625 .07598877-.07316589 .07598877-.11416626 .07598877-.17111206 .13699341-.20211792 .21598816-.20211792 .33799745-.20211792 .47099305-.123168949 .5009918-.0018157959L.59498599 .3731079Z"/>
<path id="font_2_13" d="M.80799868 .33398438C.82199099 .33398438 .8529968 .33398438 .8529968 .36598207 .8529968 .39797975 .82199099 .39797975 .8089905 .39797975H.10998535C.09700012 .39797975 .06599426 .39797975 .06599426 .36598207 .06599426 .33398438 .09799194 .33398438 .11099243 .33398438H.80799868M.8089905 .102005008C.82199099 .102005008 .8529968 .102005008 .8529968 .13400269 .8529968 .16601563 .82099917 .16601563 .80799868 .16601563H.11099243C.09799194 .16601563 .06599426 .16601563 .06599426 .13400269 .06599426 .102005008 .09700012 .102005008 .10998535 .102005008H.8089905Z"/>
<path id="font_2_6" d="M.5319977 .22505188H.48098756C.47898866 .21104431 .46998597 .13999939 .45498658 .1329956 .44198609 .12799073 .36799623 .12799073 .35099793 .12799073H.20799256C.26098634 .17102051 .32099916 .2180481 .37098695 .25306703 .45498658 .31211854 .5319977 .3661499 .5319977 .46418763 .5319977 .581192 .4249878 .65625 .27999879 .65625 .1559906 .65625 .05899048 .597229 .05899048 .505188 .05899048 .45318605 .09899902 .42918397 .13398743 .42918397 .1659851 .42918397 .20799256 .4521942 .20799256 .5041809 .20799256 .5261841 .19898987 .56318667 .15499878 .5751953 .18998719 .60324099 .23498535 .60723879 .25498963 .60723879 .33699037 .60723879 .3889923 .54618838 .3889923 .46318055 .3889923 .39115907 .34599305 .32511903 .29299928 .27108766L.069992069 .050994874C.05899048 .039993287 .05899048 .038986207 .05899048 .018997193V0H.5009918L.5319977 .22505188Z"/>
<path id="font_6_75" d="M.95899966-.0002746582V.048721315H.8909912V.30471803C.8909912 .42271424 .81999209 .4497223 .7319946 .4497223 .6279907 .4497223 .57699587 .38671876 .55799868 .3557129 .5359955 .4457245 .44799806 .4497223 .4039917 .4497223 .27999879 .4497223 .23098755 .35972596 .22399903 .34472657H.22299195V.4497223L.049987794 .44172669V.39271546C.10998535 .39271546 .117996219 .39271546 .117996219 .353714V.048721315H.049987794V-.0002746582L.17599488 .0027160645 .30299378-.0002746582V.048721315H.23498535V.25372315C.23498535 .36471559 .32699586 .40971376 .3869934 .40971376 .4249878 .40971376 .44599916 .38972474 .44599916 .3137207V.048721315H.37799073V-.0002746582L.5039978 .0027160645 .6309967-.0002746582V.048721315H.5629883V.25372315C.5629883 .36471559 .6549988 .40971376 .71499636 .40971376 .7529907 .40971376 .7739868 .38972474 .7739868 .3137207V.048721315H.70599368V-.0002746582L.83200076 .0027160645 .95899966-.0002746582Z"/>
<path id="font_6_66" d="M.2919922 0V.04899597H.23098755V.4501953L.054992677 .4423828V.39337159C.11299133 .39337159 .11999512 .39337159 .11999512 .3543396V.04899597H.051986696V0C.11898804 .0019989014 .13198853 .0029907227 .17399597 .0029907227 .22299195 .0029907227 .23599243 .0019989014 .2919922 0M.24198914 .6053314C.24198914 .65234377 .20399475 .68434146 .1639862 .68434146 .12199402 .68434146 .085998538 .6503296 .085998538 .6063385 .085998538 .55934146 .12399292 .52734377 .1639862 .52734377 .20599365 .52734377 .24198914 .56134036 .24198914 .6053314Z"/>
<path id="font_6_47" d="M.61499026 0V.04899597C.5549927 .04899597 .5469971 .04899597 .5469971 .088012699V.69433596L.36799623 .6855469V.63653567C.42799378 .63653567 .43598939 .63653567 .43598939 .5976715V.40518189C.3919983 .43719483 .34498597 .4501953 .29699708 .4501953 .13398743 .4501953 .038986207 .35118104 .038986207 .22216797 .038986207 .089141849 .1329956-.005859375 .2849884-.005859375 .34799195-.005859375 .397995 .018127442 .42999269 .044128419V-.005859375L.61499026 0M.42999269 .10899353C.4079895 .074142459 .3600006 .03413391 .29599 .03413391 .17199707 .03413391 .17199707 .15414429 .17199707 .22015381 .17199707 .27816773 .17298889 .32118226 .19898987 .3581848 .22499085 .39819337 .272995 .41018678 .30799867 .41018678 .35798646 .41018678 .39898683 .3881836 .42999269 .34918214V.10899353Z"/>
<path id="font_6_72" d="M.29899598 0V.04899597H.23098755V.69433596L.051986696 .6855469V.63653567C.11199951 .63653567 .11999512 .63653567 .11999512 .5975647V.04899597H.051986696V0L.1749878 .0029907227 .29899598 0Z"/>
<path id="font_6_77" d="M.6299896-.0002746582V.048721315H.56199648V.30471803C.56199648 .4237213 .48999024 .4497223 .40299989 .4497223 .27999879 .4497223 .23098755 .35972596 .22399903 .34472657H.22299195V.4497223L.049987794 .44172669V.39271546C.10998535 .39271546 .117996219 .39271546 .117996219 .353714V.048721315H.049987794V-.0002746582L.17599488 .0027160645 .30299378-.0002746582V.048721315H.23498535V.25372315C.23498535 .36572267 .32699586 .40971376 .3869934 .40971376 .4249878 .40971376 .44499208 .38871766 .44499208 .3137207V.048721315H.3769989V-.0002746582L.5029907 .0027160645 .6299896-.0002746582Z"/>
<path id="font_6_50" d="M.5089874 .11605835C.5089874 .13604737 .4889984 .13604737 .48298646 .13604737 .46499635 .13604737 .46299745 .13005066 .45700074 .11605835 .43399049 .06410217 .37298585 .037139894 .30999757 .037139894 .16799927 .037139894 .1659851 .16601563 .1659851 .21496582H.47599793C.49699403 .21496582 .5089874 .21496582 .5089874 .2429657 .5089874 .26498414 .5069885 .35305787 .44198609 .4071045 .39698792 .4441223 .33699037 .453125 .28799439 .453125 .116989139 .453125 .032989503 .345047 .032989503 .22497559 .032989503 .09408569 .13198853-.005859375 .3019867-.005859375 .46699525-.005859375 .5089874 .1000824 .5089874 .11605835M.41099549 .25097657H.1659851C.16799927 .29701234 .17298889 .41311646 .28799439 .41311646 .40499879 .41311646 .40899659 .29100038 .41099549 .25097657Z"/>
<path id="font_7_1" d="M.40699769-.23200989C.40699769-.2250061 .4039917-.22200012 .3919983-.21200562 .2649994-.09700012 .21998596 .07798767 .21998596 .25 .21998596 .42099 .2630005 .59599307 .3899994 .70899966 .4059906 .723999 .40699769 .72499087 .40699769 .7319946 .40699769 .74198916 .40098573 .75 .38598634 .75 .36698915 .75 .31399537 .70500186 .2939911 .6859894 .16899109 .56199648 .11399841 .4099884 .11399841 .25 .11399841 .16099549 .13198853 .039993287 .20599365-.07800293 .2689972-.17800904 .3639984-.25 .38598634-.25 .40098573-.25 .40699769-.2420044 .40699769-.23200989Z"/>
<path id="font_8_1" d="M.8019867 .21617127C.81599429 .21617127 .84999087 .21617127 .84999087 .25016786 .84999087 .2841797 .81599429 .2841797 .8019867 .2841797H.1499939C.13598633 .2841797 .101989749 .2841797 .101989749 .25016786 .101989749 .21617127 .13598633 .21617127 .1499939 .21617127H.8019867Z"/>
<path id="font_7_5" d="M.3789978 .62413027C.3789978 .6582031 .37298585 .6582031 .33299256 .6582031 .27198792 .61006167 .19198609 .5939789 .11399841 .5939789H.09199524V.5419922H.11399841C.13999939 .5419922 .19400025 .5449829 .2519989 .5619812V.051986696H.101989749V0C.13798523 .0029907227 .269989 .0029907227 .31498719 .0029907227 .3600006 .0029907227 .48999024 .0029907227 .5269928 0V.051986696H.3789978V.62413027Z"/>
<path id="font_9_3" d="M.22099304 .016998291C.21199036-.08493042 .1519928-.1348877 .1309967-.15187073 .11999512-.15986634 .115997318-.16287232 .115997318-.17185974 .115997318-.18086243 .12799073-.19386292 .13899231-.19386292 .15499878-.19386292 .2639923-.106918338 .2639923 .03199768 .2639923 .10499573 .22698975 .1599884 .16899109 .1599884 .12199402 .1599884 .08999634 .12399292 .08999634 .07998657 .08999634 .038986207 .11898804 0 .16999817 0 .18998719 0 .20899964 .0069885256 .22099304 .016998291Z"/>
<path id="font_7_6" d="M.5509949 .2280426H.49499513C.4869995 .16200257 .47399903 .14199829 .46798707 .13899231 .45700074 .1329956 .37998963 .1329956 .36299134 .1329956H.22499085C.35899354 .23805237 .41299439 .2680664 .45599366 .30108644 .526001 .35612489 .5509949 .40615846 .5509949 .46316529 .5509949 .58117678 .44198609 .6582031 .2899933 .6582031 .1619873 .6582031 .06098938 .6011963 .06098938 .50717166 .06098938 .4481659 .10899353 .4291687 .13699341 .4291687 .17199707 .4291687 .21398926 .4541626 .21398926 .50616458 .21398926 .5531616 .17999268 .5721588 .16699219 .5771637 .19499207 .5981903 .23498535 .6062012 .2659912 .6062012 .35598756 .6062012 .4059906 .5391693 .4059906 .4621582 .4059906 .38113404 .35299684 .31410218 .2939911 .25906373L.07299805 .052993776C.06199646 .041992189 .06098938 .040985109 .06098938 .020996094V0H.5179901L.5509949 .2280426Z"/>
<path id="font_7_2" d="M.36099244 .25C.36099244 .33898927 .34298707 .45999146 .2689972 .5779877 .20599365 .6779938 .11099243 .75 .08898926 .75 .07199097 .75 .067993167 .7389984 .067993167 .7319946 .067993167 .72499087 .07199097 .72099307 .08299255 .71199038 .20999146 .5970001 .25498963 .42199708 .25498963 .25 .25498963 .07899475 .21199036-.0960083 .084991458-.2090149 .07299805-.22000122 .067993167-.22401428 .067993167-.23200989 .067993167-.23901367 .07199097-.25 .08898926-.25 .10798645-.25 .16099549-.20500183 .18099976-.18600464 .30599977-.06201172 .36099244 .08999634 .36099244 .25Z"/>
<path id="font_9_1" d="M.33599855 .3408203H.44898988C.42199708 .22695923 .41999818 .17901612 .41999818 .14805603 .41999818 .07015991 .44499208-.009765625 .49598695-.009765625 .522995-.009765625 .5669861 .018218995 .5669861 .059173585 .5669861 .073150638 .56399539 .07914734 .55599978 .09112549 .5069885 .16603089 .5029907 .24394226 .5029907 .27789308 .5029907 .30485536 .5049896 .31684876 .5079956 .3408203H.6389923C.6599884 .3408203 .6719971 .3408203 .6899872 .35481263 .70399478 .3658142 .71299746 .38581849 .71299746 .40081788 .71299746 .44381715 .6729889 .44381715 .6559906 .44381715H.23498535C.21099854 .44381715 .16799927 .44381715 .10598755 .3918152 .08999634 .37780763 .03199768 .31884767 .03199768 .30285646 .03199768 .2848816 .04899597 .2848816 .05999756 .2848816 .07699585 .2848816 .07798767 .28588868 .08699036 .296875 .10598755 .31684876 .1349945 .3408203 .21299744 .3408203H.27598573C.25498963 .27789308 .22499085 .2059784 .15699768 .085128787 .14299011 .061157228 .13999939 .05517578 .13999939 .03918457 .13999939 .008224487 .16499329-.008773804 .19099427-.008773804 .21798706-.008773804 .24499512 .008224487 .2559967 .04019165 .2659912 .06616211 .272995 .09411621 .2809906 .12608338L.33599855 .3408203Z"/>
<path id="font_7_4" d="M.56399539 .31925965C.56399539 .4352417 .5549927 .6582031 .30599977 .6582031 .055999757 .6582031 .04798889 .4332428 .04798889 .31925965 .04798889 .20729065 .054992677-.013671875 .30599977-.013671875 .55799868-.013671875 .56399539 .20828247 .56399539 .31925965M.30599977 .028320313C.2789917 .028320313 .25099183 .03831482 .22999573 .05531311 .19799805 .08331299 .18299866 .0973053 .18299866 .33125306 .18299866 .40324403 .18299866 .4762268 .19299317 .5262146 .20599365 .5971985 .2679901 .6161957 .30599977 .6161957 .32998658 .6161957 .4059906 .610199 .42099 .515213 .42900086 .4662323 .42900086 .3892517 .42900086 .33125306 .42900086 .10231018 .4149933 .08830261 .38398744 .05831909 .37599183 .049316408 .34799195 .028320313 .30599977 .028320313Z"/>
<path id="font_7_7" d="M.28399659 .32714845C.3999939 .32714845 .40098573 .23034668 .40098573 .18035889 .40098573 .13534546 .40098573 .033325197 .28799439 .033325197 .2669983 .033325197 .20999146 .036315919 .1599884 .068359378 .1769867 .0753479 .21299744 .09635925 .21299744 .14535523 .21299744 .19335938 .1789856 .22634888 .13198853 .22634888 .08799744 .22634888 .050994874 .1963501 .050994874 .14434815 .050994874 .047332765 .15499878-.013671875 .29299928-.013671875 .4889984-.013671875 .5609894 .09234619 .5609894 .1793518 .5609894 .26127626 .49798585 .32914735 .3899994 .35313417 .4169922 .36413575 .5269928 .40715028 .5269928 .51615908 .5269928 .59617617 .44499208 .6582031 .29599 .6582031 .1659851 .6582031 .084991458 .58917239 .084991458 .50717166 .084991458 .45115663 .1289978 .4311676 .15899658 .4311676 .19898987 .4311676 .23298645 .45916749 .23298645 .5051575 .23298645 .52716067 .22499085 .5651703 .1769867 .5771637 .22099304 .6151886 .2809906 .6151886 .2899933 .6151886 .3829956 .6151886 .3829956 .5491638 .3829956 .51916506 .3829956 .4471588 .34899903 .41015626 .34599305 .40615846 .31698609 .37513734 .29899598 .3741455 .24499512 .37113954 .21398926 .36914063 .20399475 .36813355 .20399475 .34814454 .20399475 .32714845 .21699524 .32714845 .23498535 .32714845H.28399659Z"/>
<path id="font_7_8" d="M.47399903 .62516787C.47399903 .6561737 .46798707 .6591797 .43899537 .6591797 .41799928 .6591797 .41099549 .6591797 .39898683 .64416506L.033996583 .20605469V.15405274H.34098817V.051986696H.22200012V0C.25898744 .0029907227 .3600006 .0029907227 .40299989 .0029907227 .45098878 .0029907227 .5329895 .0029907227 .5779877 0V.051986696H.47399903V.15405274H.5779877V.20605469H.47399903V.62516787M.35398866 .5151367V.20605469H.09599304L.35398866 .5151367Z"/>
<path id="font_10_1" d="M.3789978-.22503662C.34999085-.19802857 .2849884-.13702393 .24299622-.009033203 .21699524 .06997681 .20498657 .16197205 .20498657 .24996948 .20498657 .4469757 .2559967 .60398867 .3659973 .7149811 .3809967 .7299957 .38198854 .73098757 .38198854 .73599246 .38198854 .746994 .37199403 .75 .3639984 .75 .34700013 .75 .30499269 .7129822 .2869873 .6959839 .1309967 .5409851 .10798645 .35697938 .10798645 .25097657 .10798645 .12597656 .14099121 .015975953 .18798828-.06703186 .2539978-.18203736 .34498597-.24902344 .3639984-.24902344 .37199403-.24902344 .38198854-.24603272 .38198854-.23503113 .38198854-.23002625 .3789978-.22602844 .3789978-.22503662Z"/>
<path id="font_10_8" d="M.44499208 .15611267H.5419922V.203125H.44499208V.62423709C.44499208 .6512451 .44299317 .65625 .4149933 .65625 .3939972 .65625 .3929901 .6552429 .3809967 .64024356L.03199768 .203125V.15611267H.31999208V.04699707H.20799256V0C.24598694 .0029907227 .33699037 .0029907227 .37998963 .0029907227 .41999818 .0029907227 .5069885 .0029907227 .5419922 0V.04699707H.44499208V.15611267M.33099366 .203125H.083999637L.33099366 .51319888V.203125Z"/>
<path id="font_1_1" d="M.31199647 .34832765H.42399598C.4019928 .2552948 .3909912 .1942749 .3909912 .1352539 .3909912 .067230228 .40899659-.0087890629 .45700074-.0087890629 .48999024-.0087890629 .526001 .02420044 .526001 .05621338 .526001 .068222049 .522995 .07423401 .5139923 .0892334 .46798707 .17025757 .46798707 .24728394 .46798707 .27430726 .46798707 .29830934 .46798707 .3083191 .47399903 .34832765H.59799197C.61698916 .34832765 .6329956 .34832765 .647995 .36332704 .6549988 .3703308 .66799929 .38232423 .66799929 .40533448 .66799929 .44433595 .6329956 .44433595 .61499026 .44433595H.22200012C.20098877 .44433595 .1579895 .44433595 .10499573 .3963318 .069992069 .3643341 .0309906 .31330873 .0309906 .3033142 .0309906 .28930665 .042999269 .28930665 .053985597 .28930665 .068984989 .28930665 .069992069 .29031373 .07899475 .3013153 .116989139 .34832765 .18299866 .34832765 .20199585 .34832765H.2619934C.23699951 .26930238 .19699097 .18727112 .14299011 .08622742 .1269989 .05621338 .12399292 .051223756 .12399292 .037216188 .12399292 .01020813 .1459961-.007797241 .17199707-.007797241 .19299317-.007797241 .20799256 .0032043458 .21499634 .00920105 .22999573 .02420044 .23098755 .028213501 .23599243 .049209596L.31199647 .34832765Z"/>
<path id="font_11_1" d="M.7519989 .22024536C.7669983 .22024536 .7969971 .22024536 .7969971 .25024415 .7969971 .28125 .7679901 .28125 .7519989 .28125H.14099121C.12599182 .28125 .09599304 .28125 .09599304 .25123597 .09599304 .22024536 .125 .22024536 .14099121 .22024536H.7519989Z"/>
<path id="font_10_5" d="M.35398866 .62316897C.35398866 .6452637 .35398866 .65527346 .32798768 .65527346 .31698609 .65527346 .31498719 .65527346 .30599977 .64826968 .22898865 .5909424 .12599182 .5909424 .10499573 .5909424H.084991458V.5439453H.10499573C.12098694 .5439453 .17599488 .54493716 .23498535 .5639343V.04699707H.09599304V0C.13999939 .0029907227 .24598694 .0029907227 .29499818 .0029907227 .34399415 .0029907227 .44999696 .0029907227 .49398805 0V.04699707H.35398866V.62316897Z"/>
<path id="font_1_2" d="M.21398926 .020996094C.21099854-.04208374 .18099976-.11021423 .12599182-.15631104 .11199951-.16833496 .11099243-.16934204 .11099243-.17533875 .11099243-.18234253 .12199402-.19433594 .12998963-.19433594 .14399719-.19433594 .25-.10720825 .25 .0309906 .25 .100997928 .21398926 .1559906 .1579895 .1559906 .11199951 .1559906 .08099365 .12098694 .08099365 .07798767 .08099365 .037994386 .10899353 0 .15899658 0 .18299866 0 .20199585 .009994507 .21398926 .020996094Z"/>
<path id="font_10_6" d="M.5169983 .22209168H.46998597C.46699525 .20207215 .45799256 .13800049 .44400025 .1309967 .43299867 .125 .35798646 .125 .34199525 .125H.19499207C.24198914 .16403198 .2939911 .20707703 .33898927 .2401123 .45298768 .3242035 .5169983 .37124635 .5169983 .4663086 .5169983 .5812988 .41299439 .65527346 .27198792 .65527346 .15098572 .65527346 .056991579 .593277 .056991579 .50331118 .056991579 .44430543 .10499573 .42930604 .1289978 .42930604 .16099549 .42930604 .20098877 .4513092 .20098877 .50131228 .20098877 .55329897 .15899658 .5693054 .14399719 .5733032 .17298889 .5972748 .21099854 .6082611 .24699402 .6082611 .33299256 .6082611 .3789978 .54029849 .3789978 .4653015 .3789978 .39627076 .34098817 .3282013 .2709961 .25712586L.069992069 .051986696C.056991579 .039993287 .056991579 .037994386 .056991579 .017990113V0H.48599244L.5169983 .22209168Z"/>
<path id="font_10_2" d="M.33799745 .24996948C.33799745 .37498475 .30499269 .48498536 .2579956 .5679779 .19198609 .6829834 .100997928 .75 .08198547 .75 .07398987 .75 .06399536 .746994 .06399536 .73599246 .06399536 .73098757 .06399536 .72898867 .08099365 .7129822 .20698548 .5849762 .24099732 .40797425 .24099732 .25097657 .24099732 .053970338 .18998719-.103027347 .07998657-.21403504 .06498718-.22903443 .06399536-.23002625 .06399536-.23503113 .06399536-.24603272 .07398987-.24902344 .08198547-.24902344 .09899902-.24902344 .14099121-.21203614 .15899658-.19503784 .31498719-.040023805 .33799745 .14398194 .33799745 .24996948Z"/>
<path id="font_10_12" d="M.7879944 .33203126C.7999878 .33203126 .82899478 .33203126 .82899478 .36203004 .82899478 .39302064 .7979889 .39302064 .7829895 .39302064H.10998535C.09498596 .39302064 .06399536 .39302064 .06399536 .36203004 .06399536 .33203126 .09298706 .33203126 .10499573 .33203126H.7879944M.7829895 .107940677C.7979889 .107940677 .82899478 .107940677 .82899478 .13893128 .82899478 .16894531 .7999878 .16894531 .7879944 .16894531H.10499573C.09298706 .16894531 .06399536 .16894531 .06399536 .13893128 .06399536 .107940677 .09498596 .107940677 .10998535 .107940677H.7829895Z"/>
<path id="font_10_17" d="M.21099854 .29412843C.17399597 .30111695 .10899353 .31211854 .10899353 .3591156 .10899353 .42111207 .20199585 .42111207 .22099304 .42111207 .29599 .42111207 .33399964 .39212037 .33898927 .33711244 .33999635 .32211305 .34098817 .3171234 .3619995 .3171234 .38598634 .3171234 .38598634 .32211305 .38598634 .3451233V.42510987C.38598634 .4441223 .38598634 .453125 .36799623 .453125 .3639984 .453125 .3619995 .453125 .32299806 .43411256 .29699708 .44711305 .2619934 .453125 .22200012 .453125 .19198609 .453125 .037994386 .453125 .037994386 .32211305 .037994386 .28211976 .057998659 .25512696 .07798767 .23812866 .117996219 .203125 .1559906 .1971283 .23298645 .18312073 .2689972 .17712403 .34399415 .16412354 .34399415 .10513306 .34399415 .030136109 .2519989 .030136109 .22999573 .030136109 .12399292 .030136109 .09799194 .103134158 .085998538 .14613343 .08099365 .16012573 .07598877 .16012573 .06199646 .16012573 .037994386 .16012573 .037994386 .15412903 .037994386 .13113404V.022140503C.037994386 .0031280518 .037994386-.005859375 .055999757-.005859375 .06298828-.005859375 .06498718-.005859375 .085998538 .009140015 .08699036 .009140015 .10899353 .024139405 .11199951 .026138306 .1579895-.005859375 .20999146-.005859375 .22999573-.005859375 .26098634-.005859375 .4149933-.005859375 .4149933 .14012146 .4149933 .18312073 .394989 .21812439 .3600006 .24612427 .32099916 .27511598 .2889862 .28112794 .21099854 .29412843Z"/>
<path id="font_10_14" d="M.22399903 .4501953 .049987794 .44218446V.39518739C.10899353 .39518739 .115997318 .39518739 .115997318 .35617066V.04699707H.04699707V0C.07798767 .0009918213 .1269989 .0029907227 .16899109 .0029907227 .19898987 .0029907227 .25 .0009918213 .28599549 0V.04699707H.22399903V.4501953M.23399353 .6173096C.23399353 .66130068 .19799805 .6953125 .1559906 .6953125 .11299133 .6953125 .07798767 .66030886 .07798767 .6173096 .07798767 .5743103 .11299133 .53930667 .1559906 .53930667 .19799805 .53930667 .23399353 .5733032 .23399353 .6173096Z"/>
<path id="font_10_15" d="M.11399841 .3561554V.04699707H.04499817V0C.07299805 .0009918213 .1329956 .0029907227 .17098999 .0029907227 .20999146 .0029907227 .2689972 .0009918213 .29699708 0V.04699707H.22799683V.25610353C.22799683 .36515809 .31399537 .41418458 .3769989 .41418458 .41099549 .41418458 .43199159 .39317323 .43199159 .31713868V.04699707H.36299134V0C.3909912 .0009918213 .45098878 .0029907227 .4889984 .0029907227 .5279999 .0029907227 .58699038 .0009918213 .61499026 0V.04699707H.54599V.30613709C.54599 .41119386 .49198915 .4501953 .3919983 .4501953 .29599 .4501953 .24299622 .39317323 .21699524 .34214784V.4501953L.04499817 .44218446V.39518739C.10699463 .39518739 .11399841 .39518739 .11399841 .3561554Z"/>
<path id="font_12_1" d="M.39898683 .62120059C.39898683 .65625 .3919983 .65625 .34999085 .65625 .28799439 .6061554 .20599365 .59213259 .12599182 .59213259H.101989749V.5361328H.12599182C.1659851 .5361328 .22698975 .54312136 .2689972 .5571289V.055999757H.11099243V0C.1599884 .0039978029 .27999879 .0039978029 .33399964 .0039978029 .36999513 .0039978029 .4059906 .0029907227 .44198609 .0029907227 .47200013 .0029907227 .5239868 .0019989014 .5529938 0V.055999757H.39898683V.62120059Z"/>
<path id="font_12_2" d="M.5779877 .2280426H.5149994C.5130005 .21603394 .5039978 .14500427 .48599244 .14099121 .46499635 .13699341 .40499879 .13699341 .38198854 .13699341H.24499512C.2999878 .17800904 .35598756 .21903992 .4139862 .25605775 .49499513 .3080902 .5779877 .3611145 .5779877 .46116639 .5779877 .5812378 .46499635 .65625 .30599977 .65625 .16999817 .65625 .067993167 .60324099 .067993167 .50819399 .067993167 .4501648 .114990238 .42915345 .14498902 .42915345 .18099976 .42915345 .22299195 .4541626 .22299195 .5071869 .22299195 .55522158 .18598938 .57522585 .18299866 .5762329 .21899414 .59924319 .2649994 .600235 .2769928 .600235 .3619995 .600235 .42900086 .5462189 .42900086 .4601593 .42900086 .38311769 .3769989 .3190918 .31900025 .2680664L.08099365 .056991579C.068984989 .04499817 .067993167 .04399109 .067993167 .023986817V0H.5439911L.5779877 .2280426Z"/>
<path id="font_10_3" d="M.47698976 .22024536H.7859955C.798996 .22024536 .82899478 .22024536 .82899478 .25024415 .82899478 .28125 .7999878 .28125 .7859955 .28125H.47698976V.5908356C.47698976 .6028137 .47698976 .6328125 .44699098 .6328125 .41600038 .6328125 .41600038 .6038208 .41600038 .5908356V.28125H.10699463C.09298706 .28125 .06399536 .28125 .06399536 .25024415 .06399536 .22024536 .09399414 .22024536 .10699463 .22024536H.41600038V-.08984375C.41600038-.10183716 .41600038-.13183594 .44599916-.13183594 .47698976-.13183594 .47698976-.10284424 .47698976-.08984375V.22024536Z"/>
<path id="font_6_28" d="M.56900027 .025131226C.56900027 .0491333 .5529938 .0491333 .54299929 .0491333 .47898866 .050125123 .47898866 .060134889 .47898866 .08413696V.29812623C.47898866 .38612367 .40699769 .453125 .25299073 .453125 .19599915 .453125 .067993167 .45111085 .067993167 .3591156 .067993167 .31411744 .101989749 .29312135 .1329956 .29312135 .16699219 .29312135 .19799805 .3171234 .19799805 .35812379 .19799805 .38711549 .18099976 .40411378 .17799378 .40711976 .18798828 .40911866 .21199036 .41311646 .24899292 .41311646 .32099916 .41311646 .3619995 .37712098 .3619995 .29812623V.26612855C.19599915 .26612855 .027999878 .22312927 .027999878 .11213684 .027999878 .013137817 .15299988-.005859375 .22499085-.005859375 .30099488-.005859375 .35299684 .027130127 .37998963 .0741272 .37998963 .04798889 .37998963 0 .4869995 0H.5359955C.5549927 0 .56900027 0 .56900027 .024993897V.025131226M.3619995 .13899231C.3619995 .033996583 .24598694 .033996583 .24198914 .033996583 .19099427 .033996583 .14898682 .066986087 .14898682 .11199951 .14898682 .14498902 .16699219 .22299195 .3619995 .23199463V.13899231Z"/>
<path id="font_6_84" d="M.61698916 .22218323C.61698916 .354187 .526001 .4501953 .375 .4501953 .2939911 .45033265 .23899842 .41633607 .21998596 .40234376V.4501953L.040985109 .4423828V.39337159C.06098938 .39337159 .07699585 .39337159 .08999634 .39038087 .10899353 .38737489 .10899353 .3763733 .10899353 .3553772V-.14453125H.040985109V-.19354248L.16699219-.1905365 .2939911-.19354248V-.14453125H.22599793V.03942871C.2849884-.005859375 .33999635-.005859375 .35899354-.005859375 .5159912-.005859375 .61698916 .089141849 .61698916 .22216797V.22218323M.48399354 .22315979C.48399354 .08413696 .41299439 .03413391 .34700013 .03413391 .29599 .03413391 .25299073 .06314087 .22599793 .104141239V.34518434C.24398804 .3671875 .29100038 .4071808 .35899354 .4071808 .42900086 .4071808 .48399354 .34518434 .48399354 .22315979Z"/>
<path id="font_6_105" d="M.3929901 .123184207V.1762085H.34199525V.12617493C.34199525 .055145265 .30599977 .037139894 .2809906 .037139894 .22299195 .037139894 .22299195 .09716797 .22299195 .1211853V.3953247H.37399293V.44433595H.22299195V.6357422H.17199707C.17098999 .5415344 .12399292 .43832398 .021987915 .43533326V.3953247H.10598755V.123184207C.10598755 .009140015 .20498657-.005859375 .2669983-.005859375 .34498597-.005859375 .3929901 .05014038 .3929901 .123184207Z"/>
<path id="font_6_109" d="M.6299896 0V.04899597C.56999209 .04899597 .56199648 .04899597 .56199648 .088012699V.4501953L.3769989 .4423828V.39337159C.43699647 .39337159 .44499208 .39337159 .44499208 .35437013V.16433716C.44499208 .08433533 .3929901 .03413391 .31599427 .03413391 .23899842 .03413391 .23498535 .056259157 .23498535 .10932922V.4501953L.049987794 .4423828V.39337159C.10998535 .39337159 .117996219 .39337159 .117996219 .35437013V.12333679C.117996219 .014129639 .20399475-.005859375 .30099488-.005859375 .33198548-.005859375 .3999939-.005859375 .45098878 .06933594V-.005859375L.6299896 0Z"/>
<path id="font_6_107" d="M.5319977 .22503662H.48098756C.47898866 .21102906 .46998597 .13999939 .45498658 .1329956 .44198609 .12799073 .36799623 .12799073 .35099793 .12799073H.20799256C.26098634 .17102051 .32099916 .21803284 .37098695 .25305177 .45498658 .312088 .5319977 .36611939 .5319977 .46417237 .5319977 .58122256 .4249878 .65625 .27999879 .65625 .1559906 .65625 .05899048 .597229 .05899048 .505188 .05899048 .45318605 .09899902 .42918397 .13398743 .42918397 .1659851 .42918397 .20799256 .4521942 .20799256 .5041809 .20799256 .5261841 .19898987 .56318667 .15499878 .5751953 .18998719 .60324099 .23498535 .60723879 .25498963 .60723879 .33699037 .60723879 .3889923 .54618838 .3889923 .46318055 .3889923 .39115907 .34599305 .32511903 .29299928 .27108766L.069992069 .050994874C.05899048 .039993287 .05899048 .038986207 .05899048 .018997193V0H.5009918L.5319977 .22503662Z"/>
<path id="font_13_84" d="M.59999087 .22319031C.59999087 .3561859 .5089874 .4501953 .36499024 .4501953 .2899933 .4501953 .23699951 .41918946 .21398926 .40118409V.4501953L.036987306 .4423828V.39537049C.09899902 .39537049 .10598755 .39537049 .10598755 .3573761V-.14648438H.036987306V-.1934967L.16299439-.19049073 .2889862-.1934967V-.14648438H.21998596V.03945923C.2630005 .004135132 .30699159-.005859375 .34799195-.005859375 .49798585-.005859375 .59999087 .08413696 .59999087 .22312927V.22319031M.47200013 .22312927C.47200013 .08213806 .4019928 .030136109 .33699037 .030136109 .32299806 .030136109 .27598573 .030136109 .23098755 .08413696 .21998596 .09713745 .21998596 .09812927 .21998596 .117126468V.32913209C.21998596 .34814454 .22099304 .3491516 .23498535 .36314393 .2749939 .4041443 .32699586 .41015626 .34899903 .41015626 .41600038 .41015626 .47200013 .3491516 .47200013 .22314453V.22312927Z"/>
<path id="font_13_50" d="M.49398805 .11706543C.49398805 .13504029 .47499085 .13504029 .46998597 .13504029 .45298768 .13504029 .45098878 .13005066 .44499208 .11405945 .42399598 .066101077 .36698915 .03413391 .3019867 .03413391 .16099549 .03413391 .1599884 .16700745 .1599884 .2179718H.46199037C.48399354 .2179718 .49398805 .2179718 .49398805 .2449646 .49398805 .27598573 .48799134 .34906007 .43798829 .3991089 .40098573 .43511964 .34799195 .453125 .2789917 .453125 .11898804 .453125 .03199768 .35005189 .03199768 .22497559 .03199768 .09107971 .13198853-.005859375 .29299928-.005859375 .45098878-.005859375 .49398805 .10006714 .49398805 .11706543M.39898683 .25097657H.1599884C.1619873 .29000855 .16299439 .3320465 .18399048 .36506654 .20999146 .4051056 .25 .41711427 .2789917 .41711427 .3959961 .41711427 .397995 .28599549 .39898683 .25097657Z"/>
<path id="font_13_96" d="M.44198609 .36819459C.44198609 .42118836 .3880005 .4501953 .33599855 .4501953 .2659912 .4501953 .22599793 .40019227 .20298767 .33718873V.4501953L.036987306 .4423828V.39537049C.09899902 .39537049 .10598755 .39537049 .10598755 .3563385V.04699707H.036987306V0L.16299439 .0029907227C.20098877 .0029907227 .2649994 .0029907227 .30099488 0V.04699707H.21398926V.22218323C.21398926 .29226686 .23899842 .41436769 .33898927 .41436769 .33898927 .41436769 .31999208 .39736939 .31999208 .36834718 .31999208 .32730104 .35198976 .3072815 .3809967 .3072815 .4099884 .3072815 .44198609 .3283081 .44198609 .36834718V.36819459Z"/>
<path id="font_13_66" d="M.28599549 0V.04699707H.22399903V.4501953L.049987794 .4423828V.39537049C.10899353 .39537049 .115997318 .39537049 .115997318 .3563385V.04699707H.04699707V0L.16899109 .0029907227 .28599549 0M.23799134 .60728457C.23799134 .6502838 .20298767 .6852875 .1599884 .6852875 .116989139 .6852875 .08198547 .6502838 .08198547 .60728457 .08198547 .5642853 .116989139 .5292969 .1599884 .5292969 .20298767 .5292969 .23799134 .5642853 .23799134 .60728457Z"/>
<path id="font_13_81" d="M.5419922 .21812439C.5419922 .35212709 .44999696 .453125 .2869873 .453125 .12298584 .453125 .03199768 .35112 .03199768 .21812439 .03199768 .09413147 .11999512-.005859375 .2869873-.005859375 .45498658-.005859375 .5419922 .09512329 .5419922 .21812439M.4139862 .22912598C.4139862 .14213562 .4139862 .03413391 .2869873 .03413391 .1599884 .03413391 .1599884 .14213562 .1599884 .22912598 .1599884 .27412416 .1599884 .32511903 .1769867 .3591156 .19599915 .39611817 .23799134 .41711427 .2869873 .41711427 .32899476 .41711427 .37098695 .40112306 .3929901 .36611939 .4139862 .3321228 .4139862 .27713014 .4139862 .22912598Z"/>
<path id="font_13_47" d="M.6009979 0V.04699707C.5389862 .04699707 .5319977 .04699707 .5319977 .086013797V.69433596L.35499574 .6855469V.63853457C.4169922 .63853457 .42399598 .63853457 .42399598 .5996704V.40518189C.37399293 .44418336 .32199098 .4501953 .2889862 .4501953 .14299011 .4501953 .037994386 .36218263 .037994386 .22116089 .037994386 .089141849 .12998963-.005859375 .27799989-.005859375 .33898927-.005859375 .3869934 .018127442 .41799928 .043136598V-.005859375L.6009979 0M.41799928 .102996829C.40499879 .08514404 .3639984 .030136109 .28799439 .030136109 .1659851 .030136109 .1659851 .15115357 .1659851 .22116089 .1659851 .26916505 .1659851 .3231659 .19198609 .36218263 .22099304 .40419007 .2679901 .41418458 .29899598 .41418458 .35598756 .41418458 .3959961 .3821869 .41799928 .35317994V.102996829Z"/>
</defs>
<path transform="matrix(1,0,0,-1,100.992008,184.90201)" stroke-width=".79701" stroke-linecap="butt" stroke-miterlimit="10" stroke-linejoin="miter" fill="none" stroke="#000000" d="M-46.36142 0H339.7489"/>
<path transform="matrix(-1,-0,0,1,54.630586,184.90201)" d="M4.66248 0C3.28098 .25902 1.0361 1.0361-.51805 1.94269V-1.94269C1.0361-1.0361 3.28098-.25902 4.66248 0"/>
<path transform="matrix(1,0,0,-1,440.7409,184.90201)" d="M4.66248 0C3.28098 .25902 1.0361 1.0361-.51805 1.94269V-1.94269C1.0361-1.0361 3.28098-.25902 4.66248 0"/>
<use data-text="x" xlink:href="#font_1_7" transform="matrix(9.9626,0,0,-9.9626,449.122,187.116)"/>
<path transform="matrix(1,0,0,-1,100.992008,184.90201)" stroke-width=".79701" stroke-linecap="butt" stroke-miterlimit="10" stroke-linejoin="miter" fill="none" stroke="#000000" d="M0-39.55852V161.16674"/>
<path transform="matrix(0,1,1,0,100.992008,224.46053)" d="M4.66248 0C3.28098 .25902 1.0361 1.0361-.51805 1.94269V-1.94269C1.0361-1.0361 3.28098-.25902 4.66248 0"/>
<path transform="matrix(0,-1,-1,-0,100.992008,23.735276)" d="M4.66248 0C3.28098 .25902 1.0361 1.0361-.51805 1.94269V-1.94269C1.0361-1.0361 3.28098-.25902 4.66248 0"/>
<use data-text="y" xlink:href="#font_1_8" transform="matrix(9.9626,0,0,-9.9626,97.867008,13.417007)"/>
<use data-text="0" xlink:href="#font_2_4" transform="matrix(8.9664,0,0,-8.9664,104.51199,194.20001)"/>
<path transform="matrix(1,0,0,-1,100.992008,184.90201)" stroke-width=".79701" stroke-linecap="butt" stroke-miterlimit="10" stroke-linejoin="miter" fill="none" stroke="#000000" d="M-25.51193 2.9481V-2.9481"/>
<use data-text="&#x2212;" xlink:href="#font_3_1" transform="matrix(8.9664,0,0,-8.9664,68.701007,200.182)"/>
<use data-text="1" xlink:href="#font_2_5" transform="matrix(8.9664,0,0,-8.9664,76.953,200.182)"/>
<path transform="matrix(1,0,0,-1,100.992008,184.90201)" stroke-width=".79701" stroke-linecap="butt" stroke-miterlimit="10" stroke-linejoin="miter" fill="none" stroke="#000000" d="M25.51193 2.9481V-2.9481"/>
<use data-text="1" xlink:href="#font_4_82" transform="matrix(8.9664,0,0,-8.9664,124.2,200.376)"/>
<path transform="matrix(1,0,0,-1,100.992008,184.90201)" stroke-width=".79701" stroke-linecap="butt" stroke-miterlimit="10" stroke-linejoin="miter" fill="none" stroke="#000000" d="M51.0239 2.9481V-2.9481"/>
<use data-text="2" xlink:href="#font_4_107" transform="matrix(8.9664,0,0,-8.9664,149.712,200.376)"/>
<path transform="matrix(1,0,0,-1,100.992008,184.90201)" stroke-width=".79701" stroke-linecap="butt" stroke-miterlimit="10" stroke-linejoin="miter" fill="none" stroke="#000000" d="M76.53586 2.9481V-2.9481"/>
<use data-text="3" xlink:href="#font_4_106" transform="matrix(8.9664,0,0,-8.9664,175.223,200.376)"/>
<path transform="matrix(1,0,0,-1,100.992008,184.90201)" stroke-width=".79701" stroke-linecap="butt" stroke-miterlimit="10" stroke-linejoin="miter" fill="none" stroke="#000000" d="M102.0478 2.9481V-2.9481"/>
<use data-text="4" xlink:href="#font_4_57" transform="matrix(8.9664,0,0,-8.9664,200.735,200.474)"/>
<path transform="matrix(1,0,0,-1,100.992008,184.90201)" stroke-width=".79701" stroke-linecap="butt" stroke-miterlimit="10" stroke-linejoin="miter" fill="none" stroke="#000000" d="M127.55977 2.9481V-2.9481"/>
<use data-text="5" xlink:href="#font_4_56" transform="matrix(8.9664,0,0,-8.9664,226.24701,200.376)"/>
<path transform="matrix(1,0,0,-1,100.992008,184.90201)" stroke-width=".79701" stroke-linecap="butt" stroke-miterlimit="10" stroke-linejoin="miter" fill="none" stroke="#000000" d="M153.07172 2.9481V-2.9481"/>
<use data-text="6" xlink:href="#font_4_101" transform="matrix(8.9664,0,0,-8.9664,251.759,200.376)"/>
<path transform="matrix(1,0,0,-1,100.992008,184.90201)" stroke-width=".79701" stroke-linecap="butt" stroke-miterlimit="10" stroke-linejoin="miter" fill="none" stroke="#000000" d="M178.58368 2.9481V-2.9481"/>
<use data-text="7" xlink:href="#font_4_100" transform="matrix(8.9664,0,0,-8.9664,277.271,200.46501)"/>
<path transform="matrix(1,0,0,-1,100.992008,184.90201)" stroke-width=".79701" stroke-linecap="butt" stroke-miterlimit="10" stroke-linejoin="miter" fill="none" stroke="#000000" d="M204.09563 2.9481V-2.9481"/>
<use data-text="8" xlink:href="#font_4_51" transform="matrix(8.9664,0,0,-8.9664,302.78303,200.376)"/>
<path transform="matrix(1,0,0,-1,100.992008,184.90201)" stroke-width=".79701" stroke-linecap="butt" stroke-miterlimit="10" stroke-linejoin="miter" fill="none" stroke="#000000" d="M229.60759 2.9481V-2.9481"/>
<use data-text="9" xlink:href="#font_4_78" transform="matrix(8.9664,0,0,-8.9664,328.29499,200.376)"/>
<path transform="matrix(1,0,0,-1,100.992008,184.90201)" stroke-width=".79701" stroke-linecap="butt" stroke-miterlimit="10" stroke-linejoin="miter" fill="none" stroke="#000000" d="M255.11956 2.9481V-2.9481"/>
<use data-text="1" xlink:href="#font_4_82" transform="matrix(8.9664,0,0,-8.9664,351.503,200.376)"/>
<use data-text="0" xlink:href="#font_4_121" transform="matrix(8.9664,0,0,-8.9664,356.11174,200.376)"/>
<path transform="matrix(1,0,0,-1,100.992008,184.90201)" stroke-width=".79701" stroke-linecap="butt" stroke-miterlimit="10" stroke-linejoin="miter" fill="none" stroke="#000000" d="M280.6315 2.9481V-2.9481"/>
<use data-text="1" xlink:href="#font_4_82" transform="matrix(8.9664,0,0,-8.9664,377.015,200.376)"/>
<use data-text="1" xlink:href="#font_4_82" transform="matrix(8.9664,0,0,-8.9664,381.62376,200.376)"/>
<path transform="matrix(1,0,0,-1,100.992008,184.90201)" stroke-width=".79701" stroke-linecap="butt" stroke-miterlimit="10" stroke-linejoin="miter" fill="none" stroke="#000000" d="M306.14347 2.9481V-2.9481"/>
<use data-text="1" xlink:href="#font_4_82" transform="matrix(8.9664,0,0,-8.9664,402.527,200.376)"/>
<use data-text="2" xlink:href="#font_4_107" transform="matrix(8.9664,0,0,-8.9664,407.13575,200.376)"/>
<path transform="matrix(1,0,0,-1,100.992008,184.90201)" stroke-width=".79701" stroke-linecap="butt" stroke-miterlimit="10" stroke-linejoin="miter" fill="none" stroke="#000000" d="M1.53064 36.85092H-1.53064"/>
<use data-text="1" xlink:href="#font_4_82" transform="matrix(8.9664,0,0,-8.9664,88.298999,151.037)"/>
<path transform="matrix(1,0,0,-1,100.992008,184.90201)" stroke-width=".79701" stroke-linecap="butt" stroke-miterlimit="10" stroke-linejoin="miter" fill="none" stroke="#000000" d="M1.53064 73.70186H-1.53064"/>
<use data-text="2" xlink:href="#font_4_107" transform="matrix(8.9664,0,0,-8.9664,88.298999,114.186008)"/>
<path transform="matrix(1,0,0,-1,100.992008,184.90201)" stroke-width=".79701" stroke-linecap="butt" stroke-miterlimit="10" stroke-linejoin="miter" fill="none" stroke="#000000" d="M1.53064 110.55281H-1.53064"/>
<use data-text="3" xlink:href="#font_4_106" transform="matrix(8.9664,0,0,-8.9664,88.298999,77.23601)"/>
<path transform="matrix(1,0,0,-1,100.992008,184.90201)" stroke-width=".79701" stroke-linecap="butt" stroke-miterlimit="10" stroke-linejoin="miter" fill="none" stroke="#000000" d="M1.53064 147.40375H-1.53064"/>
<use data-text="4" xlink:href="#font_4_57" transform="matrix(8.9664,0,0,-8.9664,88.298999,40.533006)"/>
<path transform="matrix(1,0,0,-1,100.992008,184.90201)" stroke-width="1.19553" stroke-linecap="butt" stroke-dasharray="2.98883,2.98883" stroke-miterlimit="10" stroke-linejoin="miter" fill="none" stroke="#ff0000" d="M-42.73349 73.70186H323.365"/>
<path transform="matrix(-1,-0,0,1,58.258516,111.20015)" d="M3.18808 0-1.91284 2.55046 0 0-1.91284-2.55046" fill="#ff0000"/>
<path transform="matrix(1,0,0,-1,424.357,111.20015)" d="M3.18808 0-1.91284 2.55046 0 0-1.91284-2.55046" fill="#ff0000"/>
<use data-text="y" xlink:href="#font_5_4" transform="matrix(8.9664,0,0,-8.9664,13.9260029,108.58301)" fill="#cc0000"/>
<use data-text="=" xlink:href="#font_2_13" transform="matrix(8.9664,0,0,-8.9664,22.276001,108.58301)" fill="#cc0000"/>
<use data-text="2" xlink:href="#font_2_6" transform="matrix(8.9664,0,0,-8.9664,33.080514,108.58301)" fill="#cc0000"/>
<use data-text="m" xlink:href="#font_6_75" transform="matrix(8.9664,0,0,-8.9664,8.989002,119.54201)" fill="#cc0000"/>
<use data-text="i" xlink:href="#font_6_66" transform="matrix(8.9664,0,0,-8.9664,17.829873,119.54201)" fill="#cc0000"/>
<use data-text="d" xlink:href="#font_6_47" transform="matrix(8.9664,0,0,-8.9664,20.77982,119.54201)" fill="#cc0000"/>
<use data-text="l" xlink:href="#font_6_72" transform="matrix(8.9664,0,0,-8.9664,26.670746,119.54201)" fill="#cc0000"/>
<use data-text="i" xlink:href="#font_6_66" transform="matrix(8.9664,0,0,-8.9664,29.620694,119.54201)" fill="#cc0000"/>
<use data-text="n" xlink:href="#font_6_77" transform="matrix(8.9664,0,0,-8.9664,32.57064,119.54201)" fill="#cc0000"/>
<use data-text="e" xlink:href="#font_6_50" transform="matrix(8.9664,0,0,-8.9664,38.461568,119.54201)" fill="#cc0000"/>
<path transform="matrix(1,0,0,-1,100.992008,184.90201)" stroke-width="1.59404" stroke-linecap="butt" stroke-miterlimit="10" stroke-linejoin="miter" fill="none" stroke="#4d7d64" d="M-38.60597 92.40964-38.99898 92.95503-37.1787 90.40556-35.35843 87.83585-33.53815 85.24588-31.71785 82.64355-29.89757 80.02885-28.0773 77.40402-26.25702 74.77809-24.43674 72.1499-22.61646 69.52284-20.79617 66.9014-18.97589 64.28783-17.15562 61.68773-15.33534 59.10004-13.51506 56.5348-11.69478 53.98758-9.8745 51.46848-8.05421 48.97525-6.23395 46.51573-4.41367 44.08885-2.59337 41.70132-.77309 39.35313 1.04713 37.04884 2.86742 34.79178 4.6877 32.58417 6.50798 30.4283 8.32826 28.32756 10.14856 26.28416 11.96883 24.30373 13.78911 22.38516 15.6094 20.52957 17.42967 18.74483 19.24995 17.02869 21.07024 15.3834 22.8905 13.81346 24.7108 12.31998 26.53108 10.90411 28.35136 9.56807 30.17163 8.31415 31.99191 7.14345 33.8122 6.05707 35.63248 5.05618 37.45276 4.143 39.27304 3.31868 41.0933 2.5843 42.91359 1.9399 44.73389 1.38661 46.55415 .92554 48.37444 .55553 50.19472 .28113 52.01498 .09894 53.83528 .0101 55.65556 .01683 57.47585 .11807 59.29611 .31035 61.1164 .59601 62.93669 .97725 64.75696 1.44847 66.57724 2.013 68.39752 2.66753 70.21779 3.41315 72.0381 4.2476 73.85838 5.17203 75.67865 6.18303 77.49893 7.27953 79.31921 8.46034 81.13948 9.7244 82.95978 11.06941 84.78006 12.49428 86.60033 13.99677 88.42061 15.5757 90.24089 17.22888 92.06119 18.95401 93.88145 20.74774 95.70174 22.6112 97.52202 24.53877 99.34229 26.52707 101.16258 28.57835 102.98286 30.68585 104.80313 32.8462 106.62341 35.06055 108.4437 37.32326 110.26398 39.6332 112.08426 41.98586 113.90454 44.37787 115.72481 46.80927 117.54509 49.27214 119.36539 51.76875 121.18567 54.29237 123.00594 56.84181 124.82622 59.41043 126.6465 61.99812 128.46677 64.60158 130.28707 67.21516 132.10735 69.8377 133.92761 72.46478 135.74791 75.09299 137.56819 77.72006 139.38848 80.34149 141.20876 82.9562 143.02904 85.55739 144.8493 88.14513 146.66959 90.71259 148.48989 93.25867 150.31015 95.78227 152.13043 98.27663 153.95072 100.73839 155.771 103.16641 157.59128 105.5573 159.41156 107.90775 161.23184 110.2143 163.05211 112.4736 164.87239 114.68457 166.69268 116.84494 168.51296 118.94795 170.33324 120.9947 172.15352 122.97963 173.97379 124.90382 175.79407 126.76167 177.61437 128.55205 179.43463 130.27268 181.25492 131.92247 183.0752 133.49579 184.89548 134.99488 186.71576 136.41526 188.53604 137.75577 190.35633 139.01532 192.17659 140.19167 193.99687 141.28253 195.81717 142.28792 197.63744 143.20784 199.45774 144.03556 201.27802 144.77666 203.09828 145.4267 204.91858 145.98561 206.73886 146.45343 208.55913 146.82682 210.37941 147.10796 212.19969 147.29578 214.01996 147.39138H215.84026L217.66054 147.29578 219.4808 147.10796 221.30109 146.82794 223.12137 146.45343 224.94167 145.98784 226.76194 145.42893 228.58222 144.7789 230.4025 144.0378 232.22277 143.20897 234.04306 142.29016 235.86334 141.28478 237.68361 140.1939 239.50389 139.01869 241.32418 137.75916 243.14446 136.41863 244.96474 134.99939 246.78502 133.50029 248.60529 131.92583 250.42557 130.27718 252.24587 128.55652 254.06615 126.7673 255.88642 124.90945 257.7067 122.9864 259.52699 121.00034 261.34724 118.95355 263.16758 116.84944 264.98786 114.69133 266.8081 112.48148 268.6284 110.2199 270.44868 107.91335 272.26896 105.56294 274.08924 103.17316 275.90953 100.74515 277.72978 98.28227 279.55006 95.78789 281.37037 93.26654 283.19065 90.71931 285.0109 88.15186 286.83119 85.56416 288.65147 82.96295 290.47178 80.34938 292.29206 77.72679 294.11235 75.09973 295.9326 72.47154 297.75288 69.8456 299.57316 67.2219 301.39344 64.60832 303.2137 62.00598 305.034 59.41718 306.85426 56.84859 308.67457 54.30023 310.49485 51.77663 312.31513 49.28001 314.13539 46.81488 315.95567 44.38461 317.77598 41.99146 319.59626 39.6388 319.07286 40.30284"/>
<path transform="matrix(-.58463,-.81125,-.81125,.58463,62.386037,92.49237)" d="M3.78581 0-2.27148 3.02866 0 0-2.27148-3.02866" fill="#4d7d64"/>
<path transform="matrix(.61906,.78526,.78526,-.61906,420.06486,144.59915)" d="M3.78581 0-2.27148 3.02866 0 0-2.27148-3.02866" fill="#4d7d64"/>
<path transform="matrix(1,0,0,-1,100.992008,184.90201)" d="M-23.25742 73.70186C-23.25742 74.947-24.26678 75.95638-25.51193 75.95638-26.75708 75.95638-27.76645 74.947-27.76645 73.70186-27.76645 72.45671-26.75708 71.44734-25.51193 71.44734-24.26678 71.44734-23.25742 72.45671-23.25742 73.70186ZM-25.51193 73.70186"/>
<path transform="matrix(1,0,0,-1,100.992008,184.90201)" stroke-width=".49814" stroke-linecap="butt" stroke-miterlimit="10" stroke-linejoin="miter" fill="none" stroke="#ffffff" d="M-23.25742 73.70186C-23.25742 74.947-24.26678 75.95638-25.51193 75.95638-26.75708 75.95638-27.76645 74.947-27.76645 73.70186-27.76645 72.45671-26.75708 71.44734-25.51193 71.44734-24.26678 71.44734-23.25742 72.45671-23.25742 73.70186ZM-25.51193 73.70186"/>
<path transform="matrix(1,0,0,-1,100.992008,184.90201)" d="M56.89055 0C56.89055 1.24515 55.8812 2.2545 54.63603 2.2545 53.39088 2.2545 52.38153 1.24515 52.38153 0 52.38153-1.24515 53.39088-2.2545 54.63603-2.2545 55.8812-2.2545 56.89055-1.24515 56.89055 0ZM54.63603 0"/>
<path transform="matrix(1,0,0,-1,100.992008,184.90201)" stroke-width=".49814" stroke-linecap="butt" stroke-miterlimit="10" stroke-linejoin="miter" fill="none" stroke="#ffffff" d="M56.89055 0C56.89055 1.24515 55.8812 2.2545 54.63603 2.2545 53.39088 2.2545 52.38153 1.24515 52.38153 0 52.38153-1.24515 53.39088-2.2545 54.63603-2.2545 55.8812-2.2545 56.89055-1.24515 56.89055 0ZM54.63603 0"/>
<path transform="matrix(1,0,0,-1,100.992008,184.90201)" d="M137.03856 73.70186C137.03856 74.947 136.02919 75.95638 134.78404 75.95638 133.5389 75.95638 132.52953 74.947 132.52953 73.70186 132.52953 72.45671 133.5389 71.44734 134.78404 71.44734 136.02919 71.44734 137.03856 72.45671 137.03856 73.70186ZM134.78404 73.70186"/>
<path transform="matrix(1,0,0,-1,100.992008,184.90201)" stroke-width=".49814" stroke-linecap="butt" stroke-miterlimit="10" stroke-linejoin="miter" fill="none" stroke="#ffffff" d="M137.03856 73.70186C137.03856 74.947 136.02919 75.95638 134.78404 75.95638 133.5389 75.95638 132.52953 74.947 132.52953 73.70186 132.52953 72.45671 133.5389 71.44734 134.78404 71.44734 136.02919 71.44734 137.03856 72.45671 137.03856 73.70186ZM134.78404 73.70186"/>
<path transform="matrix(1,0,0,-1,100.992008,184.90201)" d="M217.18659 147.40375C217.18659 148.6489 216.17722 149.65825 214.93207 149.65825 213.68692 149.65825 212.67755 148.6489 212.67755 147.40375 212.67755 146.1586 213.68692 145.14923 214.93207 145.14923 216.17722 145.14923 217.18659 146.1586 217.18659 147.40375ZM214.93207 147.40375"/>
<path transform="matrix(1,0,0,-1,100.992008,184.90201)" stroke-width=".49814" stroke-linecap="butt" stroke-miterlimit="10" stroke-linejoin="miter" fill="none" stroke="#ffffff" d="M217.18659 147.40375C217.18659 148.6489 216.17722 149.65825 214.93207 149.65825 213.68692 149.65825 212.67755 148.6489 212.67755 147.40375 212.67755 146.1586 213.68692 145.14923 214.93207 145.14923 216.17722 145.14923 217.18659 146.1586 217.18659 147.40375ZM214.93207 147.40375"/>
<path transform="matrix(1,0,0,-1,100.992008,184.90201)" d="M297.3346 73.70186C297.3346 74.947 296.32524 75.95638 295.08009 75.95638 293.83494 75.95638 292.82557 74.947 292.82557 73.70186 292.82557 72.45671 293.83494 71.44734 295.08009 71.44734 296.32524 71.44734 297.3346 72.45671 297.3346 73.70186ZM295.08009 73.70186"/>
<path transform="matrix(1,0,0,-1,100.992008,184.90201)" stroke-width=".49814" stroke-linecap="butt" stroke-miterlimit="10" stroke-linejoin="miter" fill="none" stroke="#ffffff" d="M297.3346 73.70186C297.3346 74.947 296.32524 75.95638 295.08009 75.95638 293.83494 75.95638 292.82557 74.947 292.82557 73.70186 292.82557 72.45671 293.83494 71.44734 295.08009 71.44734 296.32524 71.44734 297.3346 72.45671 297.3346 73.70186ZM295.08009 73.70186"/>
<use data-text="(" xlink:href="#font_7_1" transform="matrix(7.9701,0,0,-7.9701,42.885004,126.35301)"/>
<use data-text="&#x2212;" xlink:href="#font_8_1" transform="matrix(7.9701,0,0,-7.9701,46.682004,126.35301)"/>
<use data-text="1" xlink:href="#font_7_5" transform="matrix(7.9701,0,0,-7.9701,54.276006,126.35301)"/>
<use data-text="," xlink:href="#font_9_3" transform="matrix(7.9701,0,0,-7.9701,59.157007,126.35301)"/>
<use data-text="2" xlink:href="#font_7_6" transform="matrix(7.9701,0,0,-7.9701,63.281007,126.35301)"/>
<use data-text=")" xlink:href="#font_7_2" transform="matrix(7.9701,0,0,-7.9701,68.15871,126.35301)"/>
<use data-text="(" xlink:href="#font_7_1" transform="matrix(7.9701,0,0,-7.9701,136.15201,208.573)" fill="#004521"/>
<use data-text="&#x03c0;" xlink:href="#font_9_1" transform="matrix(7.9701,0,0,-7.9701,139.949,208.573)" fill="#004521"/>
<use data-text="&#x2212;" xlink:href="#font_8_1" transform="matrix(7.9701,0,0,-7.9701,147.944,208.573)" fill="#004521"/>
<use data-text="1" xlink:href="#font_7_5" transform="matrix(7.9701,0,0,-7.9701,157.42002,208.573)" fill="#004521"/>
<use data-text="," xlink:href="#font_9_3" transform="matrix(7.9701,0,0,-7.9701,162.30101,208.573)" fill="#004521"/>
<use data-text="0" xlink:href="#font_7_4" transform="matrix(7.9701,0,0,-7.9701,166.425,208.573)" fill="#004521"/>
<use data-text=")" xlink:href="#font_7_2" transform="matrix(7.9701,0,0,-7.9701,171.3027,208.573)" fill="#004521"/>
<use data-text="(" xlink:href="#font_7_1" transform="matrix(7.9701,0,0,-7.9701,239.295,126.35301)"/>
<use data-text="2" xlink:href="#font_7_6" transform="matrix(7.9701,0,0,-7.9701,243.08876,126.35301)"/>
<use data-text="&#x03c0;" xlink:href="#font_9_1" transform="matrix(7.9701,0,0,-7.9701,247.974,126.35301)"/>
<use data-text="&#x2212;" xlink:href="#font_8_1" transform="matrix(7.9701,0,0,-7.9701,255.969,126.35301)"/>
<use data-text="1" xlink:href="#font_7_5" transform="matrix(7.9701,0,0,-7.9701,265.444,126.35301)"/>
<use data-text="," xlink:href="#font_9_3" transform="matrix(7.9701,0,0,-7.9701,270.326,126.35301)"/>
<use data-text="2" xlink:href="#font_7_6" transform="matrix(7.9701,0,0,-7.9701,274.44999,126.35301)"/>
<use data-text=")" xlink:href="#font_7_2" transform="matrix(7.9701,0,0,-7.9701,279.3277,126.35301)"/>
<use data-text="(" xlink:href="#font_7_1" transform="matrix(7.9701,0,0,-7.9701,294.006,31.957)" fill="#004521"/>
<use data-text="3" xlink:href="#font_7_7" transform="matrix(7.9701,0,0,-7.9701,297.79978,31.957)" fill="#004521"/>
<use data-text="&#x03c0;" xlink:href="#font_9_1" transform="matrix(7.9701,0,0,-7.9701,302.685,31.957)" fill="#004521"/>
<use data-text="&#x2212;" xlink:href="#font_8_1" transform="matrix(7.9701,0,0,-7.9701,310.68,31.957)" fill="#004521"/>
<use data-text="1" xlink:href="#font_7_5" transform="matrix(7.9701,0,0,-7.9701,320.155,31.957)" fill="#004521"/>
<use data-text="," xlink:href="#font_9_3" transform="matrix(7.9701,0,0,-7.9701,325.03703,31.957)" fill="#004521"/>
<use data-text="4" xlink:href="#font_7_8" transform="matrix(7.9701,0,0,-7.9701,329.161,31.957)" fill="#004521"/>
<use data-text=")" xlink:href="#font_7_2" transform="matrix(7.9701,0,0,-7.9701,334.0387,31.957)" fill="#004521"/>
<use data-text="(" xlink:href="#font_10_1" transform="matrix(9.9626,0,0,-9.9626,339.688,127.84701)"/>
<use data-text="4" xlink:href="#font_10_8" transform="matrix(9.9626,0,0,-9.9626,344.14128,127.84701)"/>
<use data-text="&#x03c0;" xlink:href="#font_1_1" transform="matrix(9.9626,0,0,-9.9626,349.87199,127.84701)"/>
<use data-text="&#x2212;" xlink:href="#font_11_1" transform="matrix(9.9626,0,0,-9.9626,359.253,127.84701)"/>
<use data-text="1" xlink:href="#font_10_5" transform="matrix(9.9626,0,0,-9.9626,370.378,127.84701)"/>
<use data-text="," xlink:href="#font_1_2" transform="matrix(9.9626,0,0,-9.9626,376.107,127.84701)"/>
<use data-text="2" xlink:href="#font_10_6" transform="matrix(9.9626,0,0,-9.9626,380.94999,127.84701)"/>
<use data-text=")" xlink:href="#font_10_2" transform="matrix(9.9626,0,0,-9.9626,386.67848,127.84701)"/>
<use data-text="y" xlink:href="#font_1_8" transform="matrix(9.9626,0,0,-9.9626,133.664,58.41401)" fill="#004521"/>
<use data-text="=" xlink:href="#font_10_12" transform="matrix(9.9626,0,0,-9.9626,142.681,58.41401)" fill="#004521"/>
<use data-text="&#x2212;" xlink:href="#font_11_1" transform="matrix(9.9626,0,0,-9.9626,154.35901,58.41401)" fill="#004521"/>
<use data-text="2" xlink:href="#font_10_6" transform="matrix(9.9626,0,0,-9.9626,163.27,58.41401)" fill="#004521"/>
<use data-text="s" xlink:href="#font_10_17" transform="matrix(9.9626,0,0,-9.9626,170.65229,58.41401)" fill="#004521"/>
<use data-text="i" xlink:href="#font_10_14" transform="matrix(9.9626,0,0,-9.9626,175.16535,58.41401)" fill="#004521"/>
<use data-text="n" xlink:href="#font_10_15" transform="matrix(9.9626,0,0,-9.9626,178.34342,58.41401)" fill="#004521"/>
<use data-text="1" xlink:href="#font_12_1" transform="matrix(6.9738,0,0,-6.9738,187.582,54.19001)" fill="#004521"/>
<path transform="matrix(1,0,0,-1,104.672,-54.48699)" stroke-width=".3985" stroke-linecap="butt" stroke-miterlimit="10" stroke-linejoin="miter" fill="none" stroke="#004521" d="M82.91-110.41H87.423"/>
<use data-text="2" xlink:href="#font_12_2" transform="matrix(6.9738,0,0,-6.9738,187.582,62.15001)" fill="#004521"/>
<use data-text="(" xlink:href="#font_10_1" transform="matrix(9.9626,0,0,-9.9626,193.291,58.41401)" fill="#004521"/>
<use data-text="x" xlink:href="#font_1_7" transform="matrix(9.9626,0,0,-9.9626,197.746,58.41401)" fill="#004521"/>
<use data-text="+" xlink:href="#font_10_3" transform="matrix(9.9626,0,0,-9.9626,206.526,58.41401)" fill="#004521"/>
<use data-text="1" xlink:href="#font_10_5" transform="matrix(9.9626,0,0,-9.9626,217.64426,58.41401)" fill="#004521"/>
<use data-text=")" xlink:href="#font_10_2" transform="matrix(9.9626,0,0,-9.9626,223.37276,58.41401)" fill="#004521"/>
<use data-text="+" xlink:href="#font_10_3" transform="matrix(9.9626,0,0,-9.9626,230.03775,58.41401)" fill="#004521"/>
<use data-text="2" xlink:href="#font_10_6" transform="matrix(9.9626,0,0,-9.9626,241.156,58.41401)" fill="#004521"/>
<path transform="matrix(1,0,0,-1,100.992008,184.90201)" stroke-width=".79701" stroke-linecap="butt" stroke-miterlimit="10" stroke-linejoin="miter" fill="none" stroke="#000000" d="M214.93207 78.36433V142.74126"/>
<path transform="matrix(0,1,1,0,315.92408,106.53768)" d="M4.66248 0C3.28098 .25902 1.0361 1.0361-.51805 1.94269V-1.94269C1.0361-1.0361 3.28098-.25902 4.66248 0"/>
<path transform="matrix(0,-1,-1,-0,315.92408,42.16075)" d="M4.66248 0C3.28098 .25902 1.0361 1.0361-.51805 1.94269V-1.94269C1.0361-1.0361 3.28098-.25902 4.66248 0"/>
<use data-text="a" xlink:href="#font_6_28" transform="matrix(0,-8.9664,-8.9664,-0,310.665,102.050998)"/>
<use data-text="m" xlink:href="#font_6_75" transform="matrix(0,-8.9664,-8.9664,-0,310.665,96.89532)"/>
<use data-text="p" xlink:href="#font_6_84" transform="matrix(0,-8.9664,-8.9664,-0,310.665,88.05444)"/>
<use data-text="l" xlink:href="#font_6_72" transform="matrix(0,-8.9664,-8.9664,-0,310.665,82.16352)"/>
<use data-text="i" xlink:href="#font_6_66" transform="matrix(0,-8.9664,-8.9664,-0,310.665,79.21358)"/>
<use data-text="t" xlink:href="#font_6_105" transform="matrix(0,-8.9664,-8.9664,-0,310.665,76.263629)"/>
<use data-text="u" xlink:href="#font_6_109" transform="matrix(0,-8.9664,-8.9664,-0,310.665,72.139087)"/>
<use data-text="d" xlink:href="#font_6_47" transform="matrix(0,-8.9664,-8.9664,-0,310.665,66.24816)"/>
<use data-text="e" xlink:href="#font_6_50" transform="matrix(0,-8.9664,-8.9664,-0,310.665,60.35724)"/>
<use data-text="2" xlink:href="#font_6_107" transform="matrix(0,-8.9664,-8.9664,-0,310.665,51.95572)"/>
<path transform="matrix(1,0,0,-1,100.992008,184.90201)" stroke-width=".79701" stroke-linecap="butt" stroke-miterlimit="10" stroke-linejoin="miter" fill="none" stroke="#000000" d="M-24.91418-29.48082H294.48234"/>
<path transform="matrix(-1,-0,0,1,80.93956,214.38283)" d="M4.66248 0C3.28098 .25902 1.0361 1.0361-.51805 1.94269V-1.94269C1.0361-1.0361 3.28098-.25902 4.66248 0"/>
<path transform="matrix(-1,-0,0,1,75.87857,214.38283)" stroke-width=".79701" stroke-linecap="butt" stroke-miterlimit="10" stroke-linejoin="miter" fill="none" stroke="#000000" d="M0 3.08846V-3.08846"/>
<path transform="matrix(1,0,0,-1,390.61259,214.38283)" d="M4.66248 0C3.28098 .25902 1.0361 1.0361-.51805 1.94269V-1.94269C1.0361-1.0361 3.28098-.25902 4.66248 0"/>
<path transform="matrix(1,0,0,-1,395.67356,214.38283)" stroke-width=".79701" stroke-linecap="butt" stroke-miterlimit="10" stroke-linejoin="miter" fill="none" stroke="#000000" d="M0 3.08846V-3.08846"/>
<path transform="matrix(1,0,0,-1,100.992008,184.90201)" d="M108.80893-35.3987H160.75916V-23.562962H108.80893Z" fill="#ffffff"/>
<use data-text="p" xlink:href="#font_13_84" transform="matrix(9.9626,0,0,-9.9626,211.29502,216.87401)"/>
<use data-text="e" xlink:href="#font_13_50" transform="matrix(9.9626,0,0,-9.9626,217.96996,216.87401)"/>
<use data-text="r" xlink:href="#font_13_96" transform="matrix(9.9626,0,0,-9.9626,223.22025,216.87401)"/>
<use data-text="i" xlink:href="#font_13_66" transform="matrix(9.9626,0,0,-9.9626,227.95249,216.87401)"/>
<use data-text="o" xlink:href="#font_13_81" transform="matrix(9.9626,0,0,-9.9626,231.13056,216.87401)"/>
<use data-text="d" xlink:href="#font_13_47" transform="matrix(9.9626,0,0,-9.9626,237.17784,216.87401)"/>
<use data-text="4" xlink:href="#font_10_8" transform="matrix(9.9626,0,0,-9.9626,247.36002,216.87401)"/>
<use data-text="&#x03c0;" xlink:href="#font_1_1" transform="matrix(9.9626,0,0,-9.9626,253.08802,216.87401)"/>
</svg>
