<svg style="overflow: visible;" xmlns="http://www.w3.org/2000/svg" xmlns:xlink="http://www.w3.org/1999/xlink" xmlns:inkscape="http://www.inkscape.org/namespaces/inkscape" version="1.1" width="100%" height="100%" viewBox="0 0 491.32 253.61">
<defs>
<path id="font_1_7" d="M.5359955 .4011383C.5 .3911438 .48199464 .35714723 .48199464 .33215333 .48199464 .31015016 .49899293 .28614808 .5319977 .28614808 .5669861 .28614808 .60398867 .31515504 .60398867 .364151 .60398867 .41714479 .5509949 .45214845 .48999024 .45214845 .43299867 .45214845 .3959961 .4091339 .3829956 .3911438 .35798646 .433136 .3019867 .45214845 .24499512 .45214845 .11898804 .45214845 .050994874 .32914735 .050994874 .29615785 .050994874 .28215028 .06599426 .28215028 .07499695 .28215028 .08699036 .28215028 .09399414 .28215028 .09799194 .29515077 .1269989 .38613893 .19898987 .4161377 .23999024 .4161377 .27799989 .4161377 .29599 .39814759 .29599 .3661499 .29599 .3471527 .28199769 .29216004 .272995 .2561493L.23899842 .11917114C.22399903 .058181764 .18798828 .028182984 .1539917 .028182984 .14898682 .028182984 .12599182 .028182984 .10598755 .043182374 .14199829 .05317688 .1599884 .08717346 .1599884 .11216736 .1599884 .13417053 .14299011 .1581726 .10998535 .1581726 .07499695 .1581726 .037994386 .12916565 .037994386 .08016968 .037994386 .027175904 .09098816-.0078125 .1519928-.0078125 .20899964-.0078125 .24598694 .035186769 .25898744 .05317688 .28399659 .011184692 .33999635-.0078125 .39698792-.0078125 .522995-.0078125 .59098818 .11517334 .59098818 .14816284 .59098818 .16217041 .57598879 .16217041 .5669861 .16217041 .5549927 .16217041 .5479889 .16217041 .5439911 .14916992 .5149994 .058181764 .44299317 .028182984 .4019928 .028182984 .3639984 .028182984 .34599305 .046173097 .34599305 .07817078 .34599305 .09916687 .35899354 .15216065 .36799623 .18916321 .375 .21516419 .397995 .30915834 .40299989 .32514955 .41799928 .3851471 .45298768 .4161377 .48799134 .4161377 .49299623 .4161377 .5159912 .4161377 .5359955 .4011383Z"/>
<path id="font_1_8" d="M.57699587 .3771515C.58200076 .3951416 .58200076 .3971405 .58200076 .40014649 .58200076 .4221344 .56599429 .44413758 .5349884 .44413758 .48298646 .44413758 .47099305 .3971405 .46398927 .3701477L.43798829 .26615907C.42599488 .2181549 .40699769 .14117432 .3959961 .10017395 .3909912 .07817078 .3600006 .05418396 .35699464 .05218506 .34599305 .045181276 .32199098 .028182984 .2889862 .028182984 .22999573 .028182984 .22898865 .07817078 .22898865 .10116577 .22898865 .16217041 .2599945 .24015808 .28799439 .31214906 .2979889 .33815003 .30099488 .3451538 .30099488 .3621521 .30099488 .4201355 .24299622 .45214845 .18798828 .45214845 .08198547 .45214845 .03199768 .31614686 .03199768 .29615785 .03199768 .28215028 .04699707 .28215028 .055999757 .28215028 .067993167 .28215028 .07499695 .28215028 .07899475 .29515077 .11199951 .4061432 .16699219 .4161377 .18199158 .4161377 .18899536 .4161377 .19898987 .4161377 .19898987 .3951416 .19898987 .3721466 .18798828 .34614564 .18199158 .33015443 .14299011 .23016358 .12199402 .173172 .12199402 .122177127 .12199402 .008178711 .22200012-.0078125 .2809906-.0078125 .30599977-.0078125 .33999635-.0038146973 .3769989 .02218628 .34899903-.10101318 .27398683-.16615296 .20498657-.16615296 .19198609-.16615296 .1639862-.16415406 .14399719-.15213013 .17599488-.13909912 .19198609-.11204529 .19198609-.0849762 .19198609-.04890442 .16299439-.038879396 .14299011-.038879396 .10598755-.038879396 .070999149-.07095337 .070999149-.11505127 .070999149-.16615296 .12399292-.20214844 .20498657-.20214844 .31999208-.20214844 .45199586-.12506104 .48298646-.0008239746L.57699587 .3771515Z"/>
<path id="font_2_4" d="M.54499819 .31925965C.54499819 .4212494 .5419922 .65625 .29599 .65625 .051986696 .65625 .04598999 .429245 .04598999 .31925965 .04598999 .21525574 .04899597-.01171875 .29499818-.01171875 .5389862-.01171875 .54499819 .20826721 .54499819 .31925965M.29599 .028274537C.2689972 .028274537 .19999695 .040267946 .18699646 .13226319 .1789856 .18527222 .1789856 .27626039 .1789856 .33125306 .1789856 .3942566 .1789856 .47824098 .18699646 .52523806 .20199585 .60523989 .2689972 .61624148 .29499818 .61624148 .32798768 .61624148 .3909912 .600235 .4039917 .5222473 .4119873 .47424317 .4119873 .3882599 .4119873 .33125306 .4119873 .25326539 .4119873 .13426209 .3959961 .09527588 .37399293 .046279909 .32899476 .028274537 .29599 .028274537Z"/>
<path id="font_3_64" d="M.2849884 .1850586V.24707031H.010986328V.1850586H.2849884Z"/>
<path id="font_3_106" d="M.46998597 .17008972C.46998597 .25709535 .40098573 .33110047 .30499269 .35209657 .397995 .38710023 .44198609 .46009828 .44198609 .5290985 .44198609 .60606387 .35699464 .6660156 .25299073 .6660156 .14898682 .6660156 .070999149 .60705569 .070999149 .5310974 .070999149 .49809266 .09298706 .47909547 .12199402 .47909547 .15098572 .47909547 .17199707 .50009158 .17199707 .5290985 .17199707 .5640869 .147995 .57910159 .11399841 .57910159 .13999939 .6210327 .20098877 .64100649 .25 .64100649 .33299256 .64100649 .34899903 .5750885 .34899903 .52809146 .34899903 .49809266 .34298707 .45005799 .31799317 .41201783 .2869873 .36695863 .2519989 .36495973 .22299195 .36296083 .19799805 .36094667 .19599915 .36094667 .18798828 .36094667 .1789856 .35995484 .17098999 .35894776 .17098999 .34794618 .17098999 .33496095 .1789856 .33496095 .19599915 .33496095H.24299622C.32998658 .33496095 .36799623 .2646637 .36799623 .16937256 .36799623 .04145813 .2999878 .0055389406 .24899292 .0055389406 .22999573 .0055389406 .1329956 .010528564 .08799744 .0843811 .12399292 .07939148 .1519928 .10437012 .1519928 .13838196 .1519928 .17137146 .1269989 .19238281 .09799194 .19238281 .07299805 .19238281 .042999269 .17736817 .042999269 .13537598 .042999269 .046447755 .13598633-.022460938 .2519989-.022460938 .3769989-.022460938 .46998597 .06741333 .46998597 .16937256V.17008972Z"/>
<path id="font_3_107" d="M.46199037 .17704773H.43399049C.43199159 .16404724 .42399598 .10501099 .41099549 .08900452 .40499879 .07998657 .33599855 .07998657 .31599427 .07998657H.13798523L.23699951 .17404175C.40098573 .3161316 .46199037 .36915589 .46199037 .4711914 .46199037 .5860901 .36698915 .6660156 .24398804 .6660156 .1289978 .6660156 .050994874 .575119 .050994874 .4841919 .050994874 .43418885 .09399414 .42919923 .102996829 .42919923 .125 .42919923 .15499878 .44519044 .15499878 .48120118 .15499878 .51119998 .13398743 .5332031 .102996829 .5332031 .09799194 .5332031 .09498596 .5332031 .09098816 .53219607 .114990238 .6030731 .1789856 .63500979 .23298645 .63500979 .33499146 .63500979 .36999513 .5401764 .36999513 .4711914 .36999513 .36915589 .29299928 .28611756 .24499512 .23408509L.06199646 .035995485C.050994874 .024993897 .050994874 .022994996 .050994874 0H.43399049L.46199037 .17704773Z"/>
<path id="font_3_82" d="M.43199159 0V.0309906H.3999939C.30699159 .0309906 .3039856 .042999269 .3039856 .08001709V.63912966C.3039856 .6640167 .30299378 .6660156 .27799989 .6660156 .21598816 .60227969 .12399292 .60227969 .09298706 .60227969V.57128909C.11199951 .57128909 .17298889 .57128909 .22698975 .5972748V.08001709C.22698975 .042999269 .22399903 .0309906 .1309967 .0309906H.09899902V0C.1349945 .0029907227 .22399903 .0029907227 .2649994 .0029907227 .30599977 .0029907227 .3959961 .0029907227 .43199159 0Z"/>
<path id="font_3_57" d="M.48399354 .16503906V.19602967H.38198854V.649765C.38198854 .669754 .38198854 .6767578 .36299134 .6767578 .35099793 .6767578 .34999085 .67575076 .34098817 .6617584L.0289917 .19602967V.16503906H.3019867V.07901001C.3019867 .041992189 .29899598 .0309906 .22399903 .0309906H.20199585V0C.2649994 .0029907227 .33499146 .0029907227 .34199525 .0029907227 .34700013 .0029907227 .4189911 .0029907227 .48199464 0V.0309906H.45999146C.3849945 .0309906 .38198854 .041992189 .38198854 .07901001V.16503906H.48399354M.30799867 .19602967H.06098938L.30799867 .56581118V.19602967Z"/>
<path id="font_3_56" d="M.46199037 .19992066C.46199037 .3209076 .37599183 .41992188 .2669983 .41992188 .21899414 .41992188 .16999817 .4039154 .1349945 .36791993V.5647888C.16499329 .55578616 .19599915 .55078127 .22698975 .55078127 .34999085 .55078127 .42199708 .63983157 .42199708 .6529236 .42199708 .6619873 .41600038 .6660156 .41099549 .6660156 .41099549 .6660156 .40699769 .6660156 .397995 .6609802 .35099793 .6418457 .30499269 .63378909 .2630005 .63378909 .21998596 .63378909 .1749878 .6418457 .1289978 .6609802 .11898804 .6660156 .115997318 .6660156 .115997318 .6660156 .10398865 .6660156 .10398865 .6559448 .10398865 .63882449V.34490968C.10398865 .32699586 .10398865 .31599427 .117996219 .31599427 .12599182 .31562806 .1289978 .3196411 .1349945 .32867433 .16499329 .37083436 .21299744 .39491273 .2649994 .39491273 .37199403 .39491273 .37199403 .24035645 .37199403 .20422364 .37199403 .17321778 .37199403 .11122131 .34399415 .06636047 .31698609 .024475098 .2749939 .0055389406 .23599243 .0055389406 .1769867 .0055389406 .10998535 .042419435 .085998538 .11621094 .085998538 .116882327 .09298706 .11488342 .099990848 .11488342 .11999512 .11488342 .14898682 .12788391 .14898682 .1638794 .14898682 .19488526 .1269989 .21289063 .099990848 .21289063 .07899475 .21289063 .050994874 .20088196 .050994874 .16088867 .050994874 .069732669 .1269989-.022460938 .23799134-.022460938 .35899354-.02279663 .46199037 .07521057 .46199037 .19921875V.19992066Z"/>
<path id="font_3_101" d="M.46998597 .20277405C.46998597 .32977296 .37799073 .42578126 .2649994 .42578126 .20498657 .42578126 .1619873 .3907776 .13398743 .33078004 .13398743 .43276979 .14498902 .4897766 .17199707 .54177859 .19198609 .58277896 .24099732 .64100649 .31498719 .64100649 .33499146 .64100649 .3809967 .63697817 .4039917 .6007843 .36698915 .6007843 .35099793 .5817871 .35099793 .55477908 .35099793 .5287781 .36898805 .50878909 .39698792 .50878909 .4249878 .50878909 .44400025 .5267792 .44400025 .55677798 .44400025 .61299136 .4039917 .6660156 .31298829 .6660156 .18399048 .6660156 .042999269 .5389252 .042999269 .31576539 .042999269 .044555665 .16499329-.022460938 .25898744-.022460938 .36999513-.022460938 .46998597 .07052612 .46998597 .2025299V.20277405M.3789978 .20353699C.3789978 .15553284 .3789978 .106536868 .3600006 .0695343 .32899476 .012527466 .2849884 .0055389406 .2579956 .0055389406 .20098877 .0055389406 .16799927 .05253601 .1559906 .08152771 .13699341 .12652588 .13598633 .20953369 .13598633 .2255249 .13598633 .2927704 .16699219 .4007721 .2630005 .4007721 .2789917 .4007721 .32798768 .4007721 .3600006 .33877564 .3789978 .300766 .3789978 .25177003 .3789978 .20376587V.20353699Z"/>
<path id="font_3_100" d="M.49899293 .6435547H.25C.12399292 .6435547 .12098694 .6566467 .117996219 .67578127H.08999634L.056991579 .46655274H.084991458C.08898926 .48954774 .09700012 .5455475 .10998535 .55755618 .116989139 .56355288 .19599915 .56355288 .20999146 .56355288H.41999818L.32398988 .4325409C.19400025 .25354005 .18199158 .090530399 .18199158 .03353882 .18199158 .022537232 .18199158-.022460938 .22799683-.022460938 .2749939-.022460938 .2749939 .021530152 .2749939 .03453064V.08354187C.2749939 .23054505 .29699708 .34654237 .34999085 .41854859L.48999024 .60954287C.49899293 .62054446 .49899293 .62254336 .49899293 .6435547Z"/>
<path id="font_3_51" d="M.46998597 .16764832C.46998597 .26472474 .3959961 .3127594 .37098695 .32876588 .3600006 .33677674 .33099366 .35479737 .31900025 .36180116 .36898805 .38581849 .44198609 .43585206 .44198609 .51690676 .44198609 .6109772 .34799195 .6660156 .2579956 .6660156 .15299988 .6660156 .070999149 .5909729 .070999149 .49890138 .070999149 .46087647 .084991458 .42485047 .10899353 .39582826 .12599182 .3768158 .13198853 .37280274 .18998719 .3357849 .101989749 .29374696 .042999269 .23269654 .042999269 .15063477 .042999269 .044555665 .147995-.022460938 .2559967-.022460938 .37199403-.022460938 .46998597 .059570314 .46998597 .16764832M.3939972 .51690676C.3939972 .44685365 .33399964 .40083314 .2939911 .37780763L.17199707 .45387269C.14199829 .47288514 .11898804 .4998932 .11898804 .53692629 .11898804 .6019745 .18899536 .64100649 .25498963 .64100649 .33198548 .64100649 .3939972 .58695986 .3939972 .51690676M.41600038 .1326294C.41600038 .05357361 .33599855 .0055389406 .25698854 .0055389406 .16999817 .0055389406 .09700012 .06758118 .09700012 .15063477 .09700012 .22268677 .14698792 .28274537 .21699524 .31877137L.34298707 .2407074C.3659973 .22569275 .41600038 .19366455 .41600038 .1326294Z"/>
<path id="font_3_78" d="M.46998597 .3287964C.46998597 .5999756 .34999085 .6660156 .2599945 .6660156 .14498902 .6660156 .042999269 .5729675 .042999269 .44187928 .042999269 .31478883 .1349945 .21875 .24798584 .21875 .32099916 .21875 .36099244 .27175904 .3789978 .31478883V.2927704C.3789978 .04875183 .2679901 .0055389406 .21099854 .0055389406 .18798828 .0055389406 .13699341 .009552002 .11099243 .042755128H.114990238C.12298584 .040740968 .1619873 .04875183 .1619873 .088760379 .1619873 .11476135 .14399719 .13476563 .115997318 .13476563 .08799744 .13476563 .068984989 .116760257 .068984989 .086761478 .068984989 .020629883 .12199402-.022460938 .21199036-.022460938 .34098817-.022460938 .46998597 .10975647 .46998597 .32888795V.3287964M.3769989 .42089845C.3769989 .34788514 .34399415 .2437439 .25 .2437439 .23399353 .2437439 .18499756 .2437439 .15299988 .30584718 .13398743 .34388734 .13398743 .3928833 .13398743 .4409027 .13398743 .48892213 .13398743 .5389557 .15499878 .5769806 .18499756 .628006 .22399903 .64100649 .2599945 .64100649 .32798768 .64100649 .35499574 .5719757 .35899354 .56196597 .37298585 .5249481 .3769989 .46391297 .3769989 .42089845Z"/>
<path id="font_3_121" d="M.47299195 .31976319C.47299195 .38682557 .46998597 .47288514 .43499757 .5479431 .3909912 .64201357 .31498719 .6660156 .25698854 .6660156 .19699097 .6660156 .12098694 .64201357 .07699585 .5459442 .04499817 .47688294 .039993287 .39582826 .039993287 .31976319 .039993287 .25471498 .041992189 .15765381 .084991458 .07858276 .13198853-.0064697267 .20999146-.022460938 .2559967-.022460938 .32099916-.022460938 .394989 .0055389406 .43699647 .097595218 .46699525 .1646576 .47299195 .23971558 .47299195 .31976319M.3869934 .33177186C.3869934 .2697296 .3869934 .18566895 .3769989 .12661743 .35598756 .012542725 .28199769 .002532959 .25698854 .002532959 .22698975 .002532959 .15499878 .016540528 .13598633 .12962342 .12599182 .18867493 .12599182 .2747345 .12599182 .33177186 .12599182 .39982606 .12599182 .47888185 .13798523 .53393557 .1579895 .6230011 .22200012 .64100649 .2559967 .64100649 .2939911 .64100649 .35699464 .62098696 .37599183 .5279236 .3869934 .47288514 .3869934 .39482118 .3869934 .33177186Z"/>
<path id="font_4_1" d="M.40699769-.23200989C.40699769-.2250061 .4039917-.22200012 .3919983-.21200562 .2649994-.09700012 .21998596 .07798767 .21998596 .25 .21998596 .42099 .2630005 .59599307 .3899994 .70899966 .4059906 .723999 .40699769 .72499087 .40699769 .7319946 .40699769 .74198916 .40098573 .75 .38598634 .75 .36698915 .75 .31399537 .70500186 .2939911 .6859894 .16899109 .56199648 .11399841 .4099884 .11399841 .25 .11399841 .16099549 .13198853 .039993287 .20599365-.07800293 .2689972-.17800904 .3639984-.25 .38598634-.25 .40098573-.25 .40699769-.2420044 .40699769-.23200989Z"/>
<path id="font_4_4" d="M.56399539 .31925965C.56399539 .4352417 .5549927 .6582031 .30599977 .6582031 .055999757 .6582031 .04798889 .4332428 .04798889 .31925965 .04798889 .20729065 .054992677-.013671875 .30599977-.013671875 .55799868-.013671875 .56399539 .20828247 .56399539 .31925965M.30599977 .028320313C.2789917 .028320313 .25099183 .03831482 .22999573 .05531311 .19799805 .08331299 .18299866 .0973053 .18299866 .33125306 .18299866 .40324403 .18299866 .4762268 .19299317 .5262146 .20599365 .5971985 .2679901 .6161957 .30599977 .6161957 .32998658 .6161957 .4059906 .610199 .42099 .515213 .42900086 .4662323 .42900086 .3892517 .42900086 .33125306 .42900086 .10231018 .4149933 .08830261 .38398744 .05831909 .37599183 .049316408 .34799195 .028320313 .30599977 .028320313Z"/>
<path id="font_5_3" d="M.22099304 .016998291C.21199036-.08493042 .1519928-.1348877 .1309967-.15187073 .11999512-.15986634 .115997318-.16287232 .115997318-.17185974 .115997318-.18086243 .12799073-.19386292 .13899231-.19386292 .15499878-.19386292 .2639923-.106918338 .2639923 .03199768 .2639923 .10499573 .22698975 .1599884 .16899109 .1599884 .12199402 .1599884 .08999634 .12399292 .08999634 .07998657 .08999634 .038986207 .11898804 0 .16999817 0 .18998719 0 .20899964 .0069885256 .22099304 .016998291Z"/>
<path id="font_4_6" d="M.5509949 .2280426H.49499513C.4869995 .16200257 .47399903 .14199829 .46798707 .13899231 .45700074 .1329956 .37998963 .1329956 .36299134 .1329956H.22499085C.35899354 .23805237 .41299439 .2680664 .45599366 .30108644 .526001 .35612489 .5509949 .40615846 .5509949 .46316529 .5509949 .58117678 .44198609 .6582031 .2899933 .6582031 .1619873 .6582031 .06098938 .6011963 .06098938 .50717166 .06098938 .4481659 .10899353 .4291687 .13699341 .4291687 .17199707 .4291687 .21398926 .4541626 .21398926 .50616458 .21398926 .5531616 .17999268 .5721588 .16699219 .5771637 .19499207 .5981903 .23498535 .6062012 .2659912 .6062012 .35598756 .6062012 .4059906 .5391693 .4059906 .4621582 .4059906 .38113404 .35299684 .31410218 .2939911 .25906373L.07299805 .052993776C.06199646 .041992189 .06098938 .040985109 .06098938 .020996094V0H.5179901L.5509949 .2280426Z"/>
<path id="font_4_2" d="M.36099244 .25C.36099244 .33898927 .34298707 .45999146 .2689972 .5779877 .20599365 .6779938 .11099243 .75 .08898926 .75 .07199097 .75 .067993167 .7389984 .067993167 .7319946 .067993167 .72499087 .07199097 .72099307 .08299255 .71199038 .20999146 .5970001 .25498963 .42199708 .25498963 .25 .25498963 .07899475 .21199036-.0960083 .084991458-.2090149 .07299805-.22000122 .067993167-.22401428 .067993167-.23200989 .067993167-.23901367 .07199097-.25 .08898926-.25 .10798645-.25 .16099549-.20500183 .18099976-.18600464 .30599977-.06201172 .36099244 .08999634 .36099244 .25Z"/>
<path id="font_4_8" d="M.47399903 .62516787C.47399903 .6561737 .46798707 .6591797 .43899537 .6591797 .41799928 .6591797 .41099549 .6591797 .39898683 .64416506L.033996583 .20605469V.15405274H.34098817V.051986696H.22200012V0C.25898744 .0029907227 .3600006 .0029907227 .40299989 .0029907227 .45098878 .0029907227 .5329895 .0029907227 .5779877 0V.051986696H.47399903V.15405274H.5779877V.20605469H.47399903V.62516787M.35398866 .5151367V.20605469H.09599304L.35398866 .5151367Z"/>
<path id="font_6_1" d="M.8019867 .21617127C.81599429 .21617127 .84999087 .21617127 .84999087 .25016786 .84999087 .2841797 .81599429 .2841797 .8019867 .2841797H.1499939C.13598633 .2841797 .101989749 .2841797 .101989749 .25016786 .101989749 .21617127 .13598633 .21617127 .1499939 .21617127H.8019867Z"/>
<path id="font_4_10" d="M.19400025 .34695436C.19400025 .4039154 .19699097 .4789734 .22499085 .5299835 .2579956 .5909729 .32099916 .6151886 .37298585 .6151886 .40098573 .6151886 .4249878 .6101532 .44599916 .59198 .42199708 .5859833 .394989 .5639801 .394989 .52597048 .394989 .48797608 .4229889 .45898438 .46199037 .45898438 .5009918 .45898438 .5299988 .48597718 .5299988 .52796939 .5299988 .588974 .4889984 .6582031 .37199403 .6582031 .21598816 .6582031 .050994874 .5619812 .050994874 .31698609 .050994874 .18913269 .08198547-.013671875 .30999757-.013671875 .45899964-.013671875 .5609894 .07028198 .5609894 .2051239 .5609894 .26205445 .548996 .31399537 .4909973 .36393739 .43598939 .4109192 .3809967 .42092896 .31799317 .42092896 .25698854 .42092896 .21598816 .3819275 .19400025 .34695436M.30899049 .033325197C.2599945 .033325197 .22799683 .061294557 .21299744 .09324646 .19599915 .12721253 .19599915 .20811463 .19599915 .21211243 .19599915 .30200196 .23599243 .3779297 .31599427 .3779297 .41799928 .3779297 .41799928 .30101014 .41799928 .20611573 .41799928 .11123657 .41799928 .033325197 .30899049 .033325197Z"/>
<path id="font_4_12" d="M.4249878 .37023927C.46699525 .39323426 .5269928 .43023683 .5269928 .5082092 .5269928 .64720156 .36799623 .6582031 .30799867 .6582031 .15899658 .6582031 .084991458 .5782013 .084991458 .4802246 .084991458 .41323854 .1269989 .36024476 .18099976 .33026124 .07699585 .28427125 .050994874 .22128296 .050994874 .1612854 .050994874 .036315919 .1639862-.013671875 .3039856-.013671875 .47599793-.013671875 .5609894 .07531738 .5609894 .18728638 .5609894 .29826356 .46398927 .35025025 .4249878 .37023927M.21499634 .4802246C.19599915 .49021913 .16799927 .5072174 .16799927 .5392151 .16799927 .6021881 .24299622 .6151886 .30299378 .6151886 .3939972 .6151886 .44400025 .5742035 .44400025 .5082092 .44400025 .4702301 .42799378 .43122865 .37199403 .39823915L.21499634 .4802246M.4039917 .21228028C.41999818 .20327759 .46598817 .17929077 .46598817 .1322937 .46598817 .047317506 .36898805 .033325197 .30799867 .033325197 .21099854 .033325197 .1459961 .077316287 .1459961 .1612854 .1459961 .26026917 .23599243 .29826356 .23799134 .29826356 .23999024 .29826356 .27198792 .28126527 .2899933 .27226258L.4039917 .21228028Z"/>
<path id="font_4_5" d="M.3789978 .62413027C.3789978 .6582031 .37298585 .6582031 .33299256 .6582031 .27198792 .61006167 .19198609 .5939789 .11399841 .5939789H.09199524V.5419922H.11399841C.13999939 .5419922 .19400025 .5449829 .2519989 .5619812V.051986696H.101989749V0C.13798523 .0029907227 .269989 .0029907227 .31498719 .0029907227 .3600006 .0029907227 .48999024 .0029907227 .5269928 0V.051986696H.3789978V.62413027Z"/>
<path id="font_7_12" d="M.7879944 .33203126C.7999878 .33203126 .82899478 .33203126 .82899478 .36203004 .82899478 .39302064 .7979889 .39302064 .7829895 .39302064H.10998535C.09498596 .39302064 .06399536 .39302064 .06399536 .36203004 .06399536 .33203126 .09298706 .33203126 .10499573 .33203126H.7879944M.7829895 .107940677C.7979889 .107940677 .82899478 .107940677 .82899478 .13893128 .82899478 .16894531 .7999878 .16894531 .7879944 .16894531H.10499573C.09298706 .16894531 .06399536 .16894531 .06399536 .13893128 .06399536 .107940677 .09498596 .107940677 .10998535 .107940677H.7829895Z"/>
<path id="font_7_6" d="M.5169983 .22209168H.46998597C.46699525 .20207215 .45799256 .13800049 .44400025 .1309967 .43299867 .125 .35798646 .125 .34199525 .125H.19499207C.24198914 .16403198 .2939911 .20707703 .33898927 .2401123 .45298768 .3242035 .5169983 .37124635 .5169983 .4663086 .5169983 .5812988 .41299439 .65527346 .27198792 .65527346 .15098572 .65527346 .056991579 .593277 .056991579 .50331118 .056991579 .44430543 .10499573 .42930604 .1289978 .42930604 .16099549 .42930604 .20098877 .4513092 .20098877 .50131228 .20098877 .55329897 .15899658 .5693054 .14399719 .5733032 .17298889 .5972748 .21099854 .6082611 .24699402 .6082611 .33299256 .6082611 .3789978 .54029849 .3789978 .4653015 .3789978 .39627076 .34098817 .3282013 .2709961 .25712586L.069992069 .051986696C.056991579 .039993287 .056991579 .037994386 .056991579 .017990113V0H.48599244L.5169983 .22209168Z"/>
<path id="font_7_13" d="M.3600006 .40711976C.34199525 .39111329 .33999635 .3701172 .33999635 .3611145 .33999635 .3171234 .375 .29812623 .4019928 .29812623 .43299867 .29812623 .46499635 .3191223 .46499635 .3611145 .46499635 .44711305 .34899903 .453125 .29100038 .453125 .11199951 .453125 .037994386 .3381195 .037994386 .22212219 .037994386 .08912659 .13198853-.005859375 .28599549-.005859375 .44799806-.005859375 .47799684 .11012268 .47799684 .117126468 .47799684 .13113404 .46398927 .13113404 .45399476 .13113404 .43598939 .13113404 .43499757 .12913513 .42999269 .11613464 .4039917 .053131105 .35598756 .03413391 .30499269 .03413391 .1659851 .03413391 .1659851 .18112183 .1659851 .22712708 .1659851 .28312684 .1659851 .41311646 .29499818 .41311646 .32998658 .41311646 .34700013 .41011048 .3600006 .40711976Z"/>
<path id="font_7_16" d="M.5419922 .21812439C.5419922 .35212709 .44999696 .453125 .2869873 .453125 .12298584 .453125 .03199768 .35112 .03199768 .21812439 .03199768 .09413147 .11999512-.005859375 .2869873-.005859375 .45498658-.005859375 .5419922 .09512329 .5419922 .21812439M.2869873 .03413391C.1599884 .03413391 .1599884 .14213562 .1599884 .22912598 .1599884 .27412416 .1599884 .32511903 .1769867 .3591156 .19599915 .39611817 .23799134 .41711427 .2869873 .41711427 .32899476 .41711427 .37098695 .40112306 .3929901 .36611939 .4139862 .3321228 .4139862 .27713014 .4139862 .22912598 .4139862 .14213562 .4139862 .03413391 .2869873 .03413391Z"/>
<path id="font_7_17" d="M.21099854 .29412843C.17399597 .30111695 .10899353 .31211854 .10899353 .3591156 .10899353 .42111207 .20199585 .42111207 .22099304 .42111207 .29599 .42111207 .33399964 .39212037 .33898927 .33711244 .33999635 .32211305 .34098817 .3171234 .3619995 .3171234 .38598634 .3171234 .38598634 .32211305 .38598634 .3451233V.42510987C.38598634 .4441223 .38598634 .453125 .36799623 .453125 .3639984 .453125 .3619995 .453125 .32299806 .43411256 .29699708 .44711305 .2619934 .453125 .22200012 .453125 .19198609 .453125 .037994386 .453125 .037994386 .32211305 .037994386 .28211976 .057998659 .25512696 .07798767 .23812866 .117996219 .203125 .1559906 .1971283 .23298645 .18312073 .2689972 .17712403 .34399415 .16412354 .34399415 .10513306 .34399415 .030136109 .2519989 .030136109 .22999573 .030136109 .12399292 .030136109 .09799194 .103134158 .085998538 .14613343 .08099365 .16012573 .07598877 .16012573 .06199646 .16012573 .037994386 .16012573 .037994386 .15412903 .037994386 .13113404V.022140503C.037994386 .0031280518 .037994386-.005859375 .055999757-.005859375 .06298828-.005859375 .06498718-.005859375 .085998538 .009140015 .08699036 .009140015 .10899353 .024139405 .11199951 .026138306 .1579895-.005859375 .20999146-.005859375 .22999573-.005859375 .26098634-.005859375 .4149933-.005859375 .4149933 .14012146 .4149933 .18312073 .394989 .21812439 .3600006 .24612427 .32099916 .27511598 .2889862 .28112794 .21099854 .29412843Z"/>
<path id="font_1_1" d="M.31199647 .34832765H.42399598C.4019928 .2552948 .3909912 .1942749 .3909912 .1352539 .3909912 .067230228 .40899659-.0087890629 .45700074-.0087890629 .48999024-.0087890629 .526001 .02420044 .526001 .05621338 .526001 .068222049 .522995 .07423401 .5139923 .0892334 .46798707 .17025757 .46798707 .24728394 .46798707 .27430726 .46798707 .29830934 .46798707 .3083191 .47399903 .34832765H.59799197C.61698916 .34832765 .6329956 .34832765 .647995 .36332704 .6549988 .3703308 .66799929 .38232423 .66799929 .40533448 .66799929 .44433595 .6329956 .44433595 .61499026 .44433595H.22200012C.20098877 .44433595 .1579895 .44433595 .10499573 .3963318 .069992069 .3643341 .0309906 .31330873 .0309906 .3033142 .0309906 .28930665 .042999269 .28930665 .053985597 .28930665 .068984989 .28930665 .069992069 .29031373 .07899475 .3013153 .116989139 .34832765 .18299866 .34832765 .20199585 .34832765H.2619934C.23699951 .26930238 .19699097 .18727112 .14299011 .08622742 .1269989 .05621338 .12399292 .051223756 .12399292 .037216188 .12399292 .01020813 .1459961-.007797241 .17199707-.007797241 .19299317-.007797241 .20799256 .0032043458 .21499634 .00920105 .22999573 .02420044 .23098755 .028213501 .23599243 .049209596L.31199647 .34832765Z"/>
<path id="font_7_8" d="M.44499208 .15611267H.5419922V.203125H.44499208V.62423709C.44499208 .6512451 .44299317 .65625 .4149933 .65625 .3939972 .65625 .3929901 .6552429 .3809967 .64024356L.03199768 .203125V.15611267H.31999208V.04699707H.20799256V0C.24598694 .0029907227 .33699037 .0029907227 .37998963 .0029907227 .41999818 .0029907227 .5069885 .0029907227 .5419922 0V.04699707H.44499208V.15611267M.33099366 .203125H.083999637L.33099366 .51319888V.203125Z"/>
<path id="font_8_4" d="M.59498599 .3731079C.598999 .38909913 .598999 .394104 .598999 .3981018 .598999 .4320984 .57199099 .44410707 .5509949 .44410707 .49798585 .44410707 .48599244 .3961029 .47898866 .3701172L.45298768 .26612855C.43899537 .21113587 .42599488 .15615845 .41099549 .10116577 .4099884 .09416199 .3659973 .032180787 .30099488 .032180787 .2579956 .032180787 .23799134 .057174684 .23799134 .10417175 .23799134 .16314698 .27198792 .24913025 .29899598 .3171234 .30499269 .33111573 .31098939 .3461151 .31098939 .36210633 .31098939 .41410829 .25898744 .45210267 .19299317 .45210267 .08699036 .45210267 .032989503 .32011415 .032989503 .29612733 .032989503 .28112794 .04699707 .28112794 .05899048 .28112794 .07499695 .28112794 .07998657 .28112794 .083999637 .29512025 .11898804 .4091034 .1769867 .41210938 .18699646 .41210938 .19299317 .41210938 .20399475 .41210938 .20399475 .3901062 .20399475 .36810304 .19299317 .3421173 .18798828 .32911683 .147995 .22813416 .12799073 .17315674 .12799073 .12416077 .12799073 .0231781 .20899964-.0078125 .29299928-.0078125 .30899049-.0078125 .34700013-.0078125 .3919983 .02218628 .36999513-.08416748 .29599-.16210938 .21598816-.16210938 .21398926-.16210938 .18499756-.16210938 .16099549-.15216065 .18399048-.14016724 .20399475-.11515808 .20399475-.0851593 .20399475-.04916382 .17599488-.03515625 .1519928-.03515625 .10899353-.03515625 .07598877-.07316589 .07598877-.11416626 .07598877-.17111206 .13699341-.20211792 .21598816-.20211792 .33799745-.20211792 .47099305-.123168949 .5009918-.0018157959L.59498599 .3731079Z"/>
<path id="font_2_13" d="M.80799868 .33398438C.82199099 .33398438 .8529968 .33398438 .8529968 .36598207 .8529968 .39797975 .82199099 .39797975 .8089905 .39797975H.10998535C.09700012 .39797975 .06599426 .39797975 .06599426 .36598207 .06599426 .33398438 .09799194 .33398438 .11099243 .33398438H.80799868M.8089905 .102005008C.82199099 .102005008 .8529968 .102005008 .8529968 .13400269 .8529968 .16601563 .82099917 .16601563 .80799868 .16601563H.11099243C.09799194 .16601563 .06599426 .16601563 .06599426 .13400269 .06599426 .102005008 .09700012 .102005008 .10998535 .102005008H.8089905Z"/>
<path id="font_9_75" d="M.95899966-.0002746582V.048721315H.8909912V.30471803C.8909912 .42271424 .81999209 .4497223 .7319946 .4497223 .6279907 .4497223 .57699587 .38671876 .55799868 .3557129 .5359955 .4457245 .44799806 .4497223 .4039917 .4497223 .27999879 .4497223 .23098755 .35972596 .22399903 .34472657H.22299195V.4497223L.049987794 .44172669V.39271546C.10998535 .39271546 .117996219 .39271546 .117996219 .353714V.048721315H.049987794V-.0002746582L.17599488 .0027160645 .30299378-.0002746582V.048721315H.23498535V.25372315C.23498535 .36471559 .32699586 .40971376 .3869934 .40971376 .4249878 .40971376 .44599916 .38972474 .44599916 .3137207V.048721315H.37799073V-.0002746582L.5039978 .0027160645 .6309967-.0002746582V.048721315H.5629883V.25372315C.5629883 .36471559 .6549988 .40971376 .71499636 .40971376 .7529907 .40971376 .7739868 .38972474 .7739868 .3137207V.048721315H.70599368V-.0002746582L.83200076 .0027160645 .95899966-.0002746582Z"/>
<path id="font_9_66" d="M.2919922 0V.04899597H.23098755V.4501953L.054992677 .4423828V.39337159C.11299133 .39337159 .11999512 .39337159 .11999512 .3543396V.04899597H.051986696V0C.11898804 .0019989014 .13198853 .0029907227 .17399597 .0029907227 .22299195 .0029907227 .23599243 .0019989014 .2919922 0M.24198914 .6053314C.24198914 .65234377 .20399475 .68434146 .1639862 .68434146 .12199402 .68434146 .085998538 .6503296 .085998538 .6063385 .085998538 .55934146 .12399292 .52734377 .1639862 .52734377 .20599365 .52734377 .24198914 .56134036 .24198914 .6053314Z"/>
<path id="font_9_47" d="M.61499026 0V.04899597C.5549927 .04899597 .5469971 .04899597 .5469971 .088012699V.69433596L.36799623 .6855469V.63653567C.42799378 .63653567 .43598939 .63653567 .43598939 .5976715V.40518189C.3919983 .43719483 .34498597 .4501953 .29699708 .4501953 .13398743 .4501953 .038986207 .35118104 .038986207 .22216797 .038986207 .089141849 .1329956-.005859375 .2849884-.005859375 .34799195-.005859375 .397995 .018127442 .42999269 .044128419V-.005859375L.61499026 0M.42999269 .10899353C.4079895 .074142459 .3600006 .03413391 .29599 .03413391 .17199707 .03413391 .17199707 .15414429 .17199707 .22015381 .17199707 .27816773 .17298889 .32118226 .19898987 .3581848 .22499085 .39819337 .272995 .41018678 .30799867 .41018678 .35798646 .41018678 .39898683 .3881836 .42999269 .34918214V.10899353Z"/>
<path id="font_9_72" d="M.29899598 0V.04899597H.23098755V.69433596L.051986696 .6855469V.63653567C.11199951 .63653567 .11999512 .63653567 .11999512 .5975647V.04899597H.051986696V0L.1749878 .0029907227 .29899598 0Z"/>
<path id="font_9_77" d="M.6299896-.0002746582V.048721315H.56199648V.30471803C.56199648 .4237213 .48999024 .4497223 .40299989 .4497223 .27999879 .4497223 .23098755 .35972596 .22399903 .34472657H.22299195V.4497223L.049987794 .44172669V.39271546C.10998535 .39271546 .117996219 .39271546 .117996219 .353714V.048721315H.049987794V-.0002746582L.17599488 .0027160645 .30299378-.0002746582V.048721315H.23498535V.25372315C.23498535 .36572267 .32699586 .40971376 .3869934 .40971376 .4249878 .40971376 .44499208 .38871766 .44499208 .3137207V.048721315H.3769989V-.0002746582L.5029907 .0027160645 .6299896-.0002746582Z"/>
<path id="font_9_50" d="M.5089874 .11605835C.5089874 .13604737 .4889984 .13604737 .48298646 .13604737 .46499635 .13604737 .46299745 .13005066 .45700074 .11605835 .43399049 .06410217 .37298585 .037139894 .30999757 .037139894 .16799927 .037139894 .1659851 .16601563 .1659851 .21496582H.47599793C.49699403 .21496582 .5089874 .21496582 .5089874 .2429657 .5089874 .26498414 .5069885 .35305787 .44198609 .4071045 .39698792 .4441223 .33699037 .453125 .28799439 .453125 .116989139 .453125 .032989503 .345047 .032989503 .22497559 .032989503 .09408569 .13198853-.005859375 .3019867-.005859375 .46699525-.005859375 .5089874 .1000824 .5089874 .11605835M.41099549 .25097657H.1659851C.16799927 .29701234 .17298889 .41311646 .28799439 .41311646 .40499879 .41311646 .40899659 .29100038 .41099549 .25097657Z"/>
<path id="font_9_28" d="M.56900027 .025131226C.56900027 .0491333 .5529938 .0491333 .54299929 .0491333 .47898866 .050125123 .47898866 .060134889 .47898866 .08413696V.29812623C.47898866 .38612367 .40699769 .453125 .25299073 .453125 .19599915 .453125 .067993167 .45111085 .067993167 .3591156 .067993167 .31411744 .101989749 .29312135 .1329956 .29312135 .16699219 .29312135 .19799805 .3171234 .19799805 .35812379 .19799805 .38711549 .18099976 .40411378 .17799378 .40711976 .18798828 .40911866 .21199036 .41311646 .24899292 .41311646 .32099916 .41311646 .3619995 .37712098 .3619995 .29812623V.26612855C.19599915 .26612855 .027999878 .22312927 .027999878 .11213684 .027999878 .013137817 .15299988-.005859375 .22499085-.005859375 .30099488-.005859375 .35299684 .027130127 .37998963 .0741272 .37998963 .04798889 .37998963 0 .4869995 0H.5359955C.5549927 0 .56900027 0 .56900027 .024993897V.025131226M.3619995 .13899231C.3619995 .033996583 .24598694 .033996583 .24198914 .033996583 .19099427 .033996583 .14898682 .066986087 .14898682 .11199951 .14898682 .14498902 .16699219 .22299195 .3619995 .23199463V.13899231Z"/>
<path id="font_9_84" d="M.61698916 .22218323C.61698916 .354187 .526001 .4501953 .375 .4501953 .2939911 .45033265 .23899842 .41633607 .21998596 .40234376V.4501953L.040985109 .4423828V.39337159C.06098938 .39337159 .07699585 .39337159 .08999634 .39038087 .10899353 .38737489 .10899353 .3763733 .10899353 .3553772V-.14453125H.040985109V-.19354248L.16699219-.1905365 .2939911-.19354248V-.14453125H.22599793V.03942871C.2849884-.005859375 .33999635-.005859375 .35899354-.005859375 .5159912-.005859375 .61698916 .089141849 .61698916 .22216797V.22218323M.48399354 .22315979C.48399354 .08413696 .41299439 .03413391 .34700013 .03413391 .29599 .03413391 .25299073 .06314087 .22599793 .104141239V.34518434C.24398804 .3671875 .29100038 .4071808 .35899354 .4071808 .42900086 .4071808 .48399354 .34518434 .48399354 .22315979Z"/>
<path id="font_9_105" d="M.3929901 .123184207V.1762085H.34199525V.12617493C.34199525 .055145265 .30599977 .037139894 .2809906 .037139894 .22299195 .037139894 .22299195 .09716797 .22299195 .1211853V.3953247H.37399293V.44433595H.22299195V.6357422H.17199707C.17098999 .5415344 .12399292 .43832398 .021987915 .43533326V.3953247H.10598755V.123184207C.10598755 .009140015 .20498657-.005859375 .2669983-.005859375 .34498597-.005859375 .3929901 .05014038 .3929901 .123184207Z"/>
<path id="font_9_109" d="M.6299896 0V.04899597C.56999209 .04899597 .56199648 .04899597 .56199648 .088012699V.4501953L.3769989 .4423828V.39337159C.43699647 .39337159 .44499208 .39337159 .44499208 .35437013V.16433716C.44499208 .08433533 .3929901 .03413391 .31599427 .03413391 .23899842 .03413391 .23498535 .056259157 .23498535 .10932922V.4501953L.049987794 .4423828V.39337159C.10998535 .39337159 .117996219 .39337159 .117996219 .35437013V.12333679C.117996219 .014129639 .20399475-.005859375 .30099488-.005859375 .33198548-.005859375 .3999939-.005859375 .45098878 .06933594V-.005859375L.6299896 0Z"/>
<path id="font_9_107" d="M.5319977 .22503662H.48098756C.47898866 .21102906 .46998597 .13999939 .45498658 .1329956 .44198609 .12799073 .36799623 .12799073 .35099793 .12799073H.20799256C.26098634 .17102051 .32099916 .21803284 .37098695 .25305177 .45498658 .312088 .5319977 .36611939 .5319977 .46417237 .5319977 .58122256 .4249878 .65625 .27999879 .65625 .1559906 .65625 .05899048 .597229 .05899048 .505188 .05899048 .45318605 .09899902 .42918397 .13398743 .42918397 .1659851 .42918397 .20799256 .4521942 .20799256 .5041809 .20799256 .5261841 .19898987 .56318667 .15499878 .5751953 .18998719 .60324099 .23498535 .60723879 .25498963 .60723879 .33699037 .60723879 .3889923 .54618838 .3889923 .46318055 .3889923 .39115907 .34599305 .32511903 .29299928 .27108766L.069992069 .050994874C.05899048 .039993287 .05899048 .038986207 .05899048 .018997193V0H.5009918L.5319977 .22503662Z"/>
<path id="font_10_84" d="M.59999087 .22319031C.59999087 .3561859 .5089874 .4501953 .36499024 .4501953 .2899933 .4501953 .23699951 .41918946 .21398926 .40118409V.4501953L.036987306 .4423828V.39537049C.09899902 .39537049 .10598755 .39537049 .10598755 .3573761V-.14648438H.036987306V-.1934967L.16299439-.19049073 .2889862-.1934967V-.14648438H.21998596V.03945923C.2630005 .004135132 .30699159-.005859375 .34799195-.005859375 .49798585-.005859375 .59999087 .08413696 .59999087 .22312927V.22319031M.47200013 .22312927C.47200013 .08213806 .4019928 .030136109 .33699037 .030136109 .32299806 .030136109 .27598573 .030136109 .23098755 .08413696 .21998596 .09713745 .21998596 .09812927 .21998596 .117126468V.32913209C.21998596 .34814454 .22099304 .3491516 .23498535 .36314393 .2749939 .4041443 .32699586 .41015626 .34899903 .41015626 .41600038 .41015626 .47200013 .3491516 .47200013 .22314453V.22312927Z"/>
<path id="font_10_50" d="M.49398805 .11706543C.49398805 .13504029 .47499085 .13504029 .46998597 .13504029 .45298768 .13504029 .45098878 .13005066 .44499208 .11405945 .42399598 .066101077 .36698915 .03413391 .3019867 .03413391 .16099549 .03413391 .1599884 .16700745 .1599884 .2179718H.46199037C.48399354 .2179718 .49398805 .2179718 .49398805 .2449646 .49398805 .27598573 .48799134 .34906007 .43798829 .3991089 .40098573 .43511964 .34799195 .453125 .2789917 .453125 .11898804 .453125 .03199768 .35005189 .03199768 .22497559 .03199768 .09107971 .13198853-.005859375 .29299928-.005859375 .45098878-.005859375 .49398805 .10006714 .49398805 .11706543M.39898683 .25097657H.1599884C.1619873 .29000855 .16299439 .3320465 .18399048 .36506654 .20999146 .4051056 .25 .41711427 .2789917 .41711427 .3959961 .41711427 .397995 .28599549 .39898683 .25097657Z"/>
<path id="font_10_96" d="M.44198609 .36819459C.44198609 .42118836 .3880005 .4501953 .33599855 .4501953 .2659912 .4501953 .22599793 .40019227 .20298767 .33718873V.4501953L.036987306 .4423828V.39537049C.09899902 .39537049 .10598755 .39537049 .10598755 .3563385V.04699707H.036987306V0L.16299439 .0029907227C.20098877 .0029907227 .2649994 .0029907227 .30099488 0V.04699707H.21398926V.22218323C.21398926 .29226686 .23899842 .41436769 .33898927 .41436769 .33898927 .41436769 .31999208 .39736939 .31999208 .36834718 .31999208 .32730104 .35198976 .3072815 .3809967 .3072815 .4099884 .3072815 .44198609 .3283081 .44198609 .36834718V.36819459Z"/>
<path id="font_10_66" d="M.28599549 0V.04699707H.22399903V.4501953L.049987794 .4423828V.39537049C.10899353 .39537049 .115997318 .39537049 .115997318 .3563385V.04699707H.04699707V0L.16899109 .0029907227 .28599549 0M.23799134 .60728457C.23799134 .6502838 .20298767 .6852875 .1599884 .6852875 .116989139 .6852875 .08198547 .6502838 .08198547 .60728457 .08198547 .5642853 .116989139 .5292969 .1599884 .5292969 .20298767 .5292969 .23799134 .5642853 .23799134 .60728457Z"/>
<path id="font_10_81" d="M.5419922 .21812439C.5419922 .35212709 .44999696 .453125 .2869873 .453125 .12298584 .453125 .03199768 .35112 .03199768 .21812439 .03199768 .09413147 .11999512-.005859375 .2869873-.005859375 .45498658-.005859375 .5419922 .09512329 .5419922 .21812439M.4139862 .22912598C.4139862 .14213562 .4139862 .03413391 .2869873 .03413391 .1599884 .03413391 .1599884 .14213562 .1599884 .22912598 .1599884 .27412416 .1599884 .32511903 .1769867 .3591156 .19599915 .39611817 .23799134 .41711427 .2869873 .41711427 .32899476 .41711427 .37098695 .40112306 .3929901 .36611939 .4139862 .3321228 .4139862 .27713014 .4139862 .22912598Z"/>
<path id="font_10_47" d="M.6009979 0V.04699707C.5389862 .04699707 .5319977 .04699707 .5319977 .086013797V.69433596L.35499574 .6855469V.63853457C.4169922 .63853457 .42399598 .63853457 .42399598 .5996704V.40518189C.37399293 .44418336 .32199098 .4501953 .2889862 .4501953 .14299011 .4501953 .037994386 .36218263 .037994386 .22116089 .037994386 .089141849 .12998963-.005859375 .27799989-.005859375 .33898927-.005859375 .3869934 .018127442 .41799928 .043136598V-.005859375L.6009979 0M.41799928 .102996829C.40499879 .08514404 .3639984 .030136109 .28799439 .030136109 .1659851 .030136109 .1659851 .15115357 .1659851 .22116089 .1659851 .26916505 .1659851 .3231659 .19198609 .36218263 .22099304 .40419007 .2679901 .41418458 .29899598 .41418458 .35598756 .41418458 .3959961 .3821869 .41799928 .35317994V.102996829Z"/>
<path id="font_7_11" d="M.19898987 .4792633C.18299866 .488266 .15499878 .5052643 .15499878 .53926089 .15499878 .6092682 .24499512 .616272 .2849884 .616272 .36898805 .616272 .4189911 .5752716 .4189911 .5072632 .4189911 .4582672 .3929901 .42425538 .34899903 .39526368L.19898987 .4792633M.3929901 .37025453C.46299745 .40626527 .49398805 .45025636 .49398805 .50827029 .49398805 .61027529 .40299989 .65527346 .2889862 .65527346 .1499939 .65527346 .07998657 .5762634 .07998657 .4802704 .07998657 .43626405 .09799194 .3732605 .17599488 .32925416 .09199524 .2922516 .04798889 .23526001 .04798889 .16125489 .04798889 .040252687 .1559906-.0107421879 .2849884-.0107421879 .44499208-.0107421879 .526001 .07725525 .526001 .18725586 .526001 .29525758 .44198609 .34225465 .3929901 .37025453M.22200012 .30226136C.25698854 .28425599 .3039856 .25726319 .35899354 .22625733 .40299989 .20124817 .43998719 .18025208 .43998719 .13224793 .43998719 .04824829 .34599305 .03225708 .2889862 .03225708 .19099427 .03225708 .13398743 .08325195 .13398743 .16125489 .13398743 .23925781 .18699646 .28225709 .22200012 .30226136Z"/>
</defs>
<path transform="matrix(1,0,0,-1,131.89,136.991)" stroke-width=".79701" stroke-linecap="butt" stroke-miterlimit="10" stroke-linejoin="miter" fill="none" stroke="#000000" d="M-108.72476 0H335.49925"/>
<path transform="matrix(-1,-0,0,1,23.165238,136.991)" d="M4.66248 0C3.28098 .25902 1.0361 1.0361-.51805 1.94269V-1.94269C1.0361-1.0361 3.28098-.25902 4.66248 0"/>
<path transform="matrix(1,0,0,-1,467.38923,136.991)" d="M4.66248 0C3.28098 .25902 1.0361 1.0361-.51805 1.94269V-1.94269C1.0361-1.0361 3.28098-.25902 4.66248 0"/>
<use data-text="x" xlink:href="#font_1_7" transform="matrix(9.9626,0,0,-9.9626,475.771,139.20499)"/>
<path transform="matrix(1,0,0,-1,131.89,136.991)" stroke-width=".79701" stroke-linecap="butt" stroke-miterlimit="10" stroke-linejoin="miter" fill="none" stroke="#000000" d="M0-105.89034V113.2604"/>
<path transform="matrix(0,1,1,0,131.89,242.88135)" d="M4.66248 0C3.28098 .25902 1.0361 1.0361-.51805 1.94269V-1.94269C1.0361-1.0361 3.28098-.25902 4.66248 0"/>
<path transform="matrix(0,-1,-1,-0,131.89,23.730599)" d="M4.66248 0C3.28098 .25902 1.0361 1.0361-.51805 1.94269V-1.94269C1.0361-1.0361 3.28098-.25902 4.66248 0"/>
<use data-text="y" xlink:href="#font_1_8" transform="matrix(9.9626,0,0,-9.9626,128.765,13.411995)"/>
<use data-text="0" xlink:href="#font_2_4" transform="matrix(8.9664,0,0,-8.9664,133.993,146.289)"/>
<path transform="matrix(1,0,0,-1,131.89,136.991)" stroke-width=".79701" stroke-linecap="butt" stroke-miterlimit="10" stroke-linejoin="miter" fill="none" stroke="#000000" d="M-85.04042 2.9481V-2.9481"/>
<use data-text="-" xlink:href="#font_3_64" transform="matrix(8.9664,0,0,-8.9664,43.006998,152.465)"/>
<use data-text="3" xlink:href="#font_3_106" transform="matrix(8.9664,0,0,-8.9664,46.08247,152.465)"/>
<path transform="matrix(1,0,0,-1,131.89,136.991)" stroke-width=".79701" stroke-linecap="butt" stroke-miterlimit="10" stroke-linejoin="miter" fill="none" stroke="#000000" d="M-56.69362 2.9481V-2.9481"/>
<use data-text="-" xlink:href="#font_3_64" transform="matrix(8.9664,0,0,-8.9664,71.354007,152.465)"/>
<use data-text="2" xlink:href="#font_3_107" transform="matrix(8.9664,0,0,-8.9664,74.429477,152.465)"/>
<path transform="matrix(1,0,0,-1,131.89,136.991)" stroke-width=".79701" stroke-linecap="butt" stroke-miterlimit="10" stroke-linejoin="miter" fill="none" stroke="#000000" d="M-28.3468 2.9481V-2.9481"/>
<use data-text="-" xlink:href="#font_3_64" transform="matrix(8.9664,0,0,-8.9664,99.701007,152.465)"/>
<use data-text="1" xlink:href="#font_3_82" transform="matrix(8.9664,0,0,-8.9664,102.776477,152.465)"/>
<path transform="matrix(1,0,0,-1,131.89,136.991)" stroke-width=".79701" stroke-linecap="butt" stroke-miterlimit="10" stroke-linejoin="miter" fill="none" stroke="#000000" d="M28.3468 2.9481V-2.9481"/>
<use data-text="1" xlink:href="#font_3_82" transform="matrix(8.9664,0,0,-8.9664,157.932,152.465)"/>
<path transform="matrix(1,0,0,-1,131.89,136.991)" stroke-width=".79701" stroke-linecap="butt" stroke-miterlimit="10" stroke-linejoin="miter" fill="none" stroke="#000000" d="M56.69362 2.9481V-2.9481"/>
<use data-text="2" xlink:href="#font_3_107" transform="matrix(8.9664,0,0,-8.9664,186.27899,152.465)"/>
<path transform="matrix(1,0,0,-1,131.89,136.991)" stroke-width=".79701" stroke-linecap="butt" stroke-miterlimit="10" stroke-linejoin="miter" fill="none" stroke="#000000" d="M85.04042 2.9481V-2.9481"/>
<use data-text="3" xlink:href="#font_3_106" transform="matrix(8.9664,0,0,-8.9664,214.62599,152.465)"/>
<path transform="matrix(1,0,0,-1,131.89,136.991)" stroke-width=".79701" stroke-linecap="butt" stroke-miterlimit="10" stroke-linejoin="miter" fill="none" stroke="#000000" d="M113.38724 2.9481V-2.9481"/>
<use data-text="4" xlink:href="#font_3_57" transform="matrix(8.9664,0,0,-8.9664,242.973,152.56299)"/>
<path transform="matrix(1,0,0,-1,131.89,136.991)" stroke-width=".79701" stroke-linecap="butt" stroke-miterlimit="10" stroke-linejoin="miter" fill="none" stroke="#000000" d="M141.73404 2.9481V-2.9481"/>
<use data-text="5" xlink:href="#font_3_56" transform="matrix(8.9664,0,0,-8.9664,271.32,152.465)"/>
<path transform="matrix(1,0,0,-1,131.89,136.991)" stroke-width=".79701" stroke-linecap="butt" stroke-miterlimit="10" stroke-linejoin="miter" fill="none" stroke="#000000" d="M170.08086 2.9481V-2.9481"/>
<use data-text="6" xlink:href="#font_3_101" transform="matrix(8.9664,0,0,-8.9664,299.66603,152.465)"/>
<path transform="matrix(1,0,0,-1,131.89,136.991)" stroke-width=".79701" stroke-linecap="butt" stroke-miterlimit="10" stroke-linejoin="miter" fill="none" stroke="#000000" d="M198.42766 2.9481V-2.9481"/>
<use data-text="7" xlink:href="#font_3_100" transform="matrix(8.9664,0,0,-8.9664,328.013,152.55399)"/>
<path transform="matrix(1,0,0,-1,131.89,136.991)" stroke-width=".79701" stroke-linecap="butt" stroke-miterlimit="10" stroke-linejoin="miter" fill="none" stroke="#000000" d="M226.77448 2.9481V-2.9481"/>
<use data-text="8" xlink:href="#font_3_51" transform="matrix(8.9664,0,0,-8.9664,356.36,152.465)"/>
<path transform="matrix(1,0,0,-1,131.89,136.991)" stroke-width=".79701" stroke-linecap="butt" stroke-miterlimit="10" stroke-linejoin="miter" fill="none" stroke="#000000" d="M255.12128 2.9481V-2.9481"/>
<use data-text="9" xlink:href="#font_3_78" transform="matrix(8.9664,0,0,-8.9664,384.70704,152.465)"/>
<path transform="matrix(1,0,0,-1,131.89,136.991)" stroke-width=".79701" stroke-linecap="butt" stroke-miterlimit="10" stroke-linejoin="miter" fill="none" stroke="#000000" d="M283.4681 2.9481V-2.9481"/>
<use data-text="1" xlink:href="#font_3_82" transform="matrix(8.9664,0,0,-8.9664,410.74903,152.465)"/>
<use data-text="0" xlink:href="#font_3_121" transform="matrix(8.9664,0,0,-8.9664,415.35774,152.465)"/>
<path transform="matrix(1,0,0,-1,131.89,136.991)" stroke-width=".79701" stroke-linecap="butt" stroke-miterlimit="10" stroke-linejoin="miter" fill="none" stroke="#000000" d="M311.8149 2.9481V-2.9481"/>
<use data-text="1" xlink:href="#font_3_82" transform="matrix(8.9664,0,0,-8.9664,439.096,152.465)"/>
<use data-text="1" xlink:href="#font_3_82" transform="matrix(8.9664,0,0,-8.9664,443.7047,152.465)"/>
<path transform="matrix(1,0,0,-1,131.89,136.991)" stroke-width=".79701" stroke-linecap="butt" stroke-miterlimit="10" stroke-linejoin="miter" fill="none" stroke="#000000" d="M1.70073-73.70186H-1.70073"/>
<use data-text="-" xlink:href="#font_3_64" transform="matrix(8.9664,0,0,-8.9664,115.951007,213.67899)"/>
<use data-text="2" xlink:href="#font_3_107" transform="matrix(8.9664,0,0,-8.9664,119.026477,213.67899)"/>
<path transform="matrix(1,0,0,-1,131.89,136.991)" stroke-width=".79701" stroke-linecap="butt" stroke-miterlimit="10" stroke-linejoin="miter" fill="none" stroke="#000000" d="M1.70073-36.85092H-1.70073"/>
<use data-text="-" xlink:href="#font_3_64" transform="matrix(8.9664,0,0,-8.9664,115.951007,176.828)"/>
<use data-text="1" xlink:href="#font_3_82" transform="matrix(8.9664,0,0,-8.9664,119.026477,176.828)"/>
<path transform="matrix(1,0,0,-1,131.89,136.991)" stroke-width=".79701" stroke-linecap="butt" stroke-miterlimit="10" stroke-linejoin="miter" fill="none" stroke="#000000" d="M1.70073 36.85092H-1.70073"/>
<use data-text="1" xlink:href="#font_3_82" transform="matrix(8.9664,0,0,-8.9664,119.027,103.12599)"/>
<path transform="matrix(1,0,0,-1,131.89,136.991)" stroke-width=".79701" stroke-linecap="butt" stroke-miterlimit="10" stroke-linejoin="miter" fill="none" stroke="#000000" d="M1.70073 73.70186H-1.70073"/>
<use data-text="2" xlink:href="#font_3_107" transform="matrix(8.9664,0,0,-8.9664,119.027,66.274997)"/>
<path transform="matrix(1,0,0,-1,131.89,136.991)" stroke-width="1.59404" stroke-linecap="butt" stroke-miterlimit="10" stroke-linejoin="miter" fill="none" stroke="#80ff00" d="M-69.10767-24.84743-69.01532-24.67148-67.16362-21.07837-65.31192-17.42679-63.46022-13.73247-61.60854-10.00105-59.75684-6.24376-57.90515-2.4696-56.05344 1.309-54.20175 5.08542-52.35005 8.84833-50.49837 12.58987-48.64667 16.29657-46.79497 19.96165-44.94327 23.57274-43.09158 27.12311-41.23988 30.60152-39.3882 33.99893-37.53648 37.30862-35.6848 40.51823-33.8331 43.62102-31.98141 46.6102-30.12971 49.4768-28.27803 52.21297-26.42632 54.81192-24.57463 57.26694-22.72293 59.57011-20.87125 61.71698-19.01955 63.7019-17.16785 65.517-15.31615 67.1623-13.46446 68.6299-11.61276 69.91759-9.76108 71.01968-7.90936 71.93622-6.05768 72.66385-4.20598 73.19803-2.3543 73.54216-.5026 73.69284 1.34908 73.64787 3.20078 73.41058 5.05246 72.97986 6.90416 72.35571 8.75584 71.54262 10.60756 70.53947 12.45924 69.35188 14.31094 67.981 16.16263 66.43132 18.01433 64.70842 19.86603 62.81348 21.71773 60.75432 23.56941 58.53548 25.42111 56.16145 27.2728 53.6412 29.12451 50.97815 30.9762 48.18239 32.8279 45.25957 34.67958 42.21863 36.53128 39.06412 38.38298 35.80841 40.23468 32.45709 42.08636 29.02144 43.93806 25.50932 45.78975 21.92859 47.64145 18.29161 49.49315 14.60742 51.34485 10.88387 53.19653 7.12994 55.04823 3.36029 56.89992-.41832 58.75163-4.19586 60.60332-7.9644 62.45502-11.71156 64.3067-15.42726 66.1584-19.10245 68.0101-22.7293 69.8618-26.29317 71.71349-29.78955 73.56519-33.20721 75.41687-36.53603 77.26859-39.7715 79.12027-42.90015 80.97197-45.91634 82.82365-48.81331 84.67535-51.57982 86.52705-54.2114 88.37874-56.70012 90.23044-59.04156 92.08212-61.22552 93.93382-63.24869 95.78552-65.10652 97.63722-66.7923 99.4889-68.30151 101.3406-69.63193 103.19229-70.77675 105.044-71.73718 106.89569-72.50978 108.74739-73.08894 110.59908-73.47693 112.45078-73.6726 114.30247-73.67487 116.15417-73.48143 118.00586-73.0968 119.85756-72.51878 121.70924-71.74841 123.56094-70.79138 125.41264-69.64766 127.26434-68.32178 129.11603-66.81479 130.96773-65.13127 132.81941-63.27455 134.67113-61.25476 136.52281-59.07304 138.37451-56.73389 140.2262-54.24626 142.0779-51.61694 143.9296-48.85153 145.7813-45.95793 147.63298-42.94177 149.48468-39.81535 151.33637-36.58327 153.18808-33.25331 155.03977-29.83678 156.89147-26.34152 158.74315-22.77765 160.59485-19.15308 162.44655-15.479 164.29825-11.76219 166.14994-8.01501 168.00164-4.24872 169.85332-.47118 171.70503 3.30743 173.55672 7.07822 175.40842 10.83101 177.2601 14.55457 179.1118 18.24101 180.9635 21.88023 182.8152 25.45982 184.66689 28.9731 186.51859 32.40987 188.37027 35.76343 190.22199 39.02026 192.07367 42.17477 193.92537 45.21794 195.77706 48.14415 197.62876 50.94102 199.48044 53.60411 201.33216 56.1277 203.18384 58.504 205.03554 60.72507 206.88722 62.78647 208.73892 64.68254 210.59062 66.4088 212.44232 67.96075 214.294 69.33391 216.1457 70.52373 217.99739 71.53024 219.8491 72.3467 221.70079 72.972 223.55249 73.40495 225.40418 73.64561 227.25588 73.69284 229.10758 73.54442 230.95928 73.20477 232.81096 72.6706 234.66266 71.94635 236.51435 71.03206 238.36606 69.9333 240.21775 68.64789 242.06945 67.18254 243.92113 65.54062 245.77283 63.72664 247.62453 61.74507 249.47623 59.60161 251.32791 57.29842 253.17961 54.84453 255.0313 52.24895 256.883 49.51392 258.7347 46.64957 260.5864 43.66263 262.43809 40.56099 264.2898 37.35248 266.14146 34.0439 267.9932 30.64763 269.84486 27.1692 271.69657 23.62222 273.54826 20.01114 275.39997 16.34605 277.25166 12.6405 279.10337 8.90118 280.95503 5.13829 282.80674 1.35962 284.65843-2.41899 286.51014-6.19316 288.36183-9.95157 290.21354-13.683 292.0652-17.37732 293.9169-21.02777 295.7686-24.622 295.86183-24.79968"/>
<path transform="matrix(-.46472,.88539,.88539,.46472,62.78235,161.83843)" d="M3.78581 0-2.27148 3.02866 0 0-2.27148-3.02866" fill="#80ff00"/>
<path transform="matrix(.4645,.88553,.88553,-.4645,427.75178,161.79067)" d="M3.78581 0-2.27148 3.02866 0 0-2.27148-3.02866" fill="#80ff00"/>
<path transform="matrix(1,0,0,-1,131.89,136.991)" d="M2.2545 73.70186C2.2545 74.947 1.24515 75.95638 0 75.95638-1.24515 75.95638-2.2545 74.947-2.2545 73.70186-2.2545 72.45671-1.24515 71.44734 0 71.44734 1.24515 71.44734 2.2545 72.45671 2.2545 73.70186ZM0 73.70186"/>
<path transform="matrix(1,0,0,-1,131.89,136.991)" stroke-width=".49814" stroke-linecap="butt" stroke-miterlimit="10" stroke-linejoin="miter" fill="none" stroke="#ffffff" d="M2.2545 73.70186C2.2545 74.947 1.24515 75.95638 0 75.95638-1.24515 75.95638-2.2545 74.947-2.2545 73.70186-2.2545 72.45671-1.24515 71.44734 0 71.44734 1.24515 71.44734 2.2545 72.45671 2.2545 73.70186ZM0 73.70186"/>
<path transform="matrix(1,0,0,-1,131.89,136.991)" d="M58.94812 0C58.94812 1.24515 57.93877 2.2545 56.69362 2.2545 55.44847 2.2545 54.4391 1.24515 54.4391 0 54.4391-1.24515 55.44847-2.2545 56.69362-2.2545 57.93877-2.2545 58.94812-1.24515 58.94812 0ZM56.69362 0"/>
<path transform="matrix(1,0,0,-1,131.89,136.991)" stroke-width=".49814" stroke-linecap="butt" stroke-miterlimit="10" stroke-linejoin="miter" fill="none" stroke="#ffffff" d="M58.94812 0C58.94812 1.24515 57.93877 2.2545 56.69362 2.2545 55.44847 2.2545 54.4391 1.24515 54.4391 0 54.4391-1.24515 55.44847-2.2545 56.69362-2.2545 57.93877-2.2545 58.94812-1.24515 58.94812 0ZM56.69362 0"/>
<path transform="matrix(1,0,0,-1,131.89,136.991)" d="M115.64174-73.70186C115.64174-72.45671 114.63239-71.44734 113.38724-71.44734 112.14209-71.44734 111.13272-72.45671 111.13272-73.70186 111.13272-74.947 112.14209-75.95638 113.38724-75.95638 114.63239-75.95638 115.64174-74.947 115.64174-73.70186ZM113.38724-73.70186"/>
<path transform="matrix(1,0,0,-1,131.89,136.991)" stroke-width=".49814" stroke-linecap="butt" stroke-miterlimit="10" stroke-linejoin="miter" fill="none" stroke="#ffffff" d="M115.64174-73.70186C115.64174-72.45671 114.63239-71.44734 113.38724-71.44734 112.14209-71.44734 111.13272-72.45671 111.13272-73.70186 111.13272-74.947 112.14209-75.95638 113.38724-75.95638 114.63239-75.95638 115.64174-74.947 115.64174-73.70186ZM113.38724-73.70186"/>
<path transform="matrix(1,0,0,-1,131.89,136.991)" d="M172.33538 0C172.33538 1.24515 171.326 2.2545 170.08086 2.2545 168.83571 2.2545 167.82634 1.24515 167.82634 0 167.82634-1.24515 168.83571-2.2545 170.08086-2.2545 171.326-2.2545 172.33538-1.24515 172.33538 0ZM170.08086 0"/>
<path transform="matrix(1,0,0,-1,131.89,136.991)" stroke-width=".49814" stroke-linecap="butt" stroke-miterlimit="10" stroke-linejoin="miter" fill="none" stroke="#ffffff" d="M172.33538 0C172.33538 1.24515 171.326 2.2545 170.08086 2.2545 168.83571 2.2545 167.82634 1.24515 167.82634 0 167.82634-1.24515 168.83571-2.2545 170.08086-2.2545 171.326-2.2545 172.33538-1.24515 172.33538 0ZM170.08086 0"/>
<path transform="matrix(1,0,0,-1,131.89,136.991)" d="M229.02899 73.70186C229.02899 74.947 228.01963 75.95638 226.77448 75.95638 225.52933 75.95638 224.51996 74.947 224.51996 73.70186 224.51996 72.45671 225.52933 71.44734 226.77448 71.44734 228.01963 71.44734 229.02899 72.45671 229.02899 73.70186ZM226.77448 73.70186"/>
<path transform="matrix(1,0,0,-1,131.89,136.991)" stroke-width=".49814" stroke-linecap="butt" stroke-miterlimit="10" stroke-linejoin="miter" fill="none" stroke="#ffffff" d="M229.02899 73.70186C229.02899 74.947 228.01963 75.95638 226.77448 75.95638 225.52933 75.95638 224.51996 74.947 224.51996 73.70186 224.51996 72.45671 225.52933 71.44734 226.77448 71.44734 228.01963 71.44734 229.02899 72.45671 229.02899 73.70186ZM226.77448 73.70186"/>
<path transform="matrix(1,0,0,-1,131.89,136.991)" d="M-54.4391 0C-54.4391 1.24515-55.44847 2.2545-56.69362 2.2545-57.93877 2.2545-58.94812 1.24515-58.94812 0-58.94812-1.24515-57.93877-2.2545-56.69362-2.2545-55.44847-2.2545-54.4391-1.24515-54.4391 0ZM-56.69362 0"/>
<path transform="matrix(1,0,0,-1,131.89,136.991)" stroke-width=".49814" stroke-linecap="butt" stroke-miterlimit="10" stroke-linejoin="miter" fill="none" stroke="#ffffff" d="M-54.4391 0C-54.4391 1.24515-55.44847 2.2545-56.69362 2.2545-57.93877 2.2545-58.94812 1.24515-58.94812 0-58.94812-1.24515-57.93877-2.2545-56.69362-2.2545-55.44847-2.2545-54.4391-1.24515-54.4391 0ZM-56.69362 0"/>
<path transform="matrix(1,0,0,-1,131.89,136.991)" d="M285.7226 0C285.7226 1.24515 284.71324 2.2545 283.4681 2.2545 282.22297 2.2545 281.2136 1.24515 281.2136 0 281.2136-1.24515 282.22297-2.2545 283.4681-2.2545 284.71324-2.2545 285.7226-1.24515 285.7226 0ZM283.4681 0"/>
<path transform="matrix(1,0,0,-1,131.89,136.991)" stroke-width=".49814" stroke-linecap="butt" stroke-miterlimit="10" stroke-linejoin="miter" fill="none" stroke="#ffffff" d="M285.7226 0C285.7226 1.24515 284.71324 2.2545 283.4681 2.2545 282.22297 2.2545 281.2136 1.24515 281.2136 0 281.2136-1.24515 282.22297-2.2545 283.4681-2.2545 284.71324-2.2545 285.7226-1.24515 285.7226 0ZM283.4681 0"/>
<use data-text="(" xlink:href="#font_4_1" transform="matrix(7.9701,0,0,-7.9701,138.244,57.762)"/>
<use data-text="0" xlink:href="#font_4_4" transform="matrix(7.9701,0,0,-7.9701,142.03777,57.762)"/>
<use data-text="," xlink:href="#font_5_3" transform="matrix(7.9701,0,0,-7.9701,146.923,57.762)"/>
<use data-text="2" xlink:href="#font_4_6" transform="matrix(7.9701,0,0,-7.9701,151.046,57.762)"/>
<use data-text=")" xlink:href="#font_4_2" transform="matrix(7.9701,0,0,-7.9701,155.9237,57.762)"/>
<use data-text="(" xlink:href="#font_4_1" transform="matrix(7.9701,0,0,-7.9701,194.938,131.479)"/>
<use data-text="2" xlink:href="#font_4_6" transform="matrix(7.9701,0,0,-7.9701,198.73177,131.479)"/>
<use data-text="," xlink:href="#font_5_3" transform="matrix(7.9701,0,0,-7.9701,203.617,131.479)"/>
<use data-text="0" xlink:href="#font_4_4" transform="matrix(7.9701,0,0,-7.9701,207.74,131.479)"/>
<use data-text=")" xlink:href="#font_4_2" transform="matrix(7.9701,0,0,-7.9701,212.6177,131.479)"/>
<use data-text="(" xlink:href="#font_4_1" transform="matrix(7.9701,0,0,-7.9701,230.74,224.457)"/>
<use data-text="4" xlink:href="#font_4_8" transform="matrix(7.9701,0,0,-7.9701,234.53377,224.457)"/>
<use data-text="," xlink:href="#font_5_3" transform="matrix(7.9701,0,0,-7.9701,239.419,224.457)"/>
<use data-text="&#x2212;" xlink:href="#font_6_1" transform="matrix(7.9701,0,0,-7.9701,243.542,224.457)"/>
<use data-text="2" xlink:href="#font_4_6" transform="matrix(7.9701,0,0,-7.9701,251.13602,224.457)"/>
<use data-text=")" xlink:href="#font_4_2" transform="matrix(7.9701,0,0,-7.9701,256.0137,224.457)"/>
<use data-text="(" xlink:href="#font_4_1" transform="matrix(7.9701,0,0,-7.9701,279.805,131.479)"/>
<use data-text="6" xlink:href="#font_4_10" transform="matrix(7.9701,0,0,-7.9701,283.59877,131.479)"/>
<use data-text="," xlink:href="#font_5_3" transform="matrix(7.9701,0,0,-7.9701,288.484,131.479)"/>
<use data-text="0" xlink:href="#font_4_4" transform="matrix(7.9701,0,0,-7.9701,292.607,131.479)"/>
<use data-text=")" xlink:href="#font_4_2" transform="matrix(7.9701,0,0,-7.9701,297.48469,131.479)"/>
<use data-text="(" xlink:href="#font_4_1" transform="matrix(7.9701,0,0,-7.9701,347.924,54.927995)"/>
<use data-text="8" xlink:href="#font_4_12" transform="matrix(7.9701,0,0,-7.9701,351.71778,54.927995)"/>
<use data-text="," xlink:href="#font_5_3" transform="matrix(7.9701,0,0,-7.9701,356.603,54.927995)"/>
<use data-text="2" xlink:href="#font_4_6" transform="matrix(7.9701,0,0,-7.9701,360.726,54.927995)"/>
<use data-text=")" xlink:href="#font_4_2" transform="matrix(7.9701,0,0,-7.9701,365.6037,54.927995)"/>
<use data-text="(" xlink:href="#font_4_1" transform="matrix(7.9701,0,0,-7.9701,45.435998,131.479)"/>
<use data-text="&#x2212;" xlink:href="#font_6_1" transform="matrix(7.9701,0,0,-7.9701,49.232999,131.479)"/>
<use data-text="2" xlink:href="#font_4_6" transform="matrix(7.9701,0,0,-7.9701,56.826997,131.479)"/>
<use data-text="," xlink:href="#font_5_3" transform="matrix(7.9701,0,0,-7.9701,61.708993,131.479)"/>
<use data-text="0" xlink:href="#font_4_4" transform="matrix(7.9701,0,0,-7.9701,65.83199,131.479)"/>
<use data-text=")" xlink:href="#font_4_2" transform="matrix(7.9701,0,0,-7.9701,70.709697,131.479)"/>
<use data-text="(" xlink:href="#font_4_1" transform="matrix(7.9701,0,0,-7.9701,421.713,131.479)"/>
<use data-text="1" xlink:href="#font_4_5" transform="matrix(7.9701,0,0,-7.9701,425.50679,131.479)"/>
<use data-text="0" xlink:href="#font_4_4" transform="matrix(7.9701,0,0,-7.9701,430.38447,131.479)"/>
<use data-text="," xlink:href="#font_5_3" transform="matrix(7.9701,0,0,-7.9701,435.273,131.479)"/>
<use data-text="0" xlink:href="#font_4_4" transform="matrix(7.9701,0,0,-7.9701,439.397,131.479)"/>
<use data-text=")" xlink:href="#font_4_2" transform="matrix(7.9701,0,0,-7.9701,444.2747,131.479)"/>
<use data-text="y" xlink:href="#font_1_8" transform="matrix(9.9626,0,0,-9.9626,36.087999,61.770998)" fill="#66cc00"/>
<use data-text="=" xlink:href="#font_7_12" transform="matrix(9.9626,0,0,-9.9626,45.104997,61.770998)" fill="#66cc00"/>
<use data-text="2" xlink:href="#font_7_6" transform="matrix(9.9626,0,0,-9.9626,56.771203,61.770998)" fill="#66cc00"/>
<use data-text="c" xlink:href="#font_7_13" transform="matrix(9.9626,0,0,-9.9626,64.16345,61.770998)" fill="#66cc00"/>
<use data-text="o" xlink:href="#font_7_16" transform="matrix(9.9626,0,0,-9.9626,69.25434,61.770998)" fill="#66cc00"/>
<use data-text="s" xlink:href="#font_7_17" transform="matrix(9.9626,0,0,-9.9626,74.982837,61.770998)" fill="#66cc00"/>
<use data-text="&#x03c0;" xlink:href="#font_1_1" transform="matrix(9.9626,0,0,-9.9626,82.368,54.331998)" fill="#66cc00"/>
<path transform="matrix(1,0,0,-1,-23.802002,-3.2240067)" stroke-width=".3985" stroke-linecap="butt" stroke-miterlimit="10" stroke-linejoin="miter" fill="none" stroke="#66cc00" d="M106.17-62.505H113.337"/>
<use data-text="4" xlink:href="#font_7_8" transform="matrix(9.9626,0,0,-9.9626,83.087,69.30399)" fill="#66cc00"/>
<use data-text="x" xlink:href="#font_1_7" transform="matrix(9.9626,0,0,-9.9626,90.730998,61.770998)" fill="#66cc00"/>
<use data-text="y" xlink:href="#font_8_4" transform="matrix(8.9664,0,0,-8.9664,13.9260029,146.28899)"/>
<use data-text="=" xlink:href="#font_2_13" transform="matrix(8.9664,0,0,-8.9664,22.275002,146.28899)"/>
<use data-text="0" xlink:href="#font_2_4" transform="matrix(8.9664,0,0,-8.9664,33.079515,146.28899)"/>
<use data-text="m" xlink:href="#font_9_75" transform="matrix(8.9664,0,0,-8.9664,8.988003,157.24799)"/>
<use data-text="i" xlink:href="#font_9_66" transform="matrix(8.9664,0,0,-8.9664,17.828873,157.24799)"/>
<use data-text="d" xlink:href="#font_9_47" transform="matrix(8.9664,0,0,-8.9664,20.778817,157.24799)"/>
<use data-text="l" xlink:href="#font_9_72" transform="matrix(8.9664,0,0,-8.9664,26.669739,157.24799)"/>
<use data-text="i" xlink:href="#font_9_66" transform="matrix(8.9664,0,0,-8.9664,29.619683,157.24799)"/>
<use data-text="n" xlink:href="#font_9_77" transform="matrix(8.9664,0,0,-8.9664,32.569627,157.24799)"/>
<use data-text="e" xlink:href="#font_9_50" transform="matrix(8.9664,0,0,-8.9664,38.46055,157.24799)"/>
<path transform="matrix(1,0,0,-1,131.89,136.991)" stroke-width=".79701" stroke-linecap="butt" stroke-miterlimit="10" stroke-linejoin="miter" fill="none" stroke="#000000" d="M226.77448 4.66248V69.03938"/>
<path transform="matrix(0,1,1,0,358.6645,132.32852)" d="M4.66248 0C3.28098 .25902 1.0361 1.0361-.51805 1.94269V-1.94269C1.0361-1.0361 3.28098-.25902 4.66248 0"/>
<path transform="matrix(0,-1,-1,-0,358.6645,67.951618)" d="M4.66248 0C3.28098 .25902 1.0361 1.0361-.51805 1.94269V-1.94269C1.0361-1.0361 3.28098-.25902 4.66248 0"/>
<use data-text="a" xlink:href="#font_9_28" transform="matrix(0,-8.9664,-8.9664,-0,350.57,127.841999)"/>
<use data-text="m" xlink:href="#font_9_75" transform="matrix(0,-8.9664,-8.9664,-0,350.57,122.68632)"/>
<use data-text="p" xlink:href="#font_9_84" transform="matrix(0,-8.9664,-8.9664,-0,350.57,113.84544)"/>
<use data-text="l" xlink:href="#font_9_72" transform="matrix(0,-8.9664,-8.9664,-0,350.57,107.95452)"/>
<use data-text="i" xlink:href="#font_9_66" transform="matrix(0,-8.9664,-8.9664,-0,350.57,105.00458)"/>
<use data-text="t" xlink:href="#font_9_105" transform="matrix(0,-8.9664,-8.9664,-0,350.57,102.054637)"/>
<use data-text="u" xlink:href="#font_9_109" transform="matrix(0,-8.9664,-8.9664,-0,350.57,97.93009)"/>
<use data-text="d" xlink:href="#font_9_47" transform="matrix(0,-8.9664,-8.9664,-0,350.57,92.03917)"/>
<use data-text="e" xlink:href="#font_9_50" transform="matrix(0,-8.9664,-8.9664,-0,350.57,86.14825)"/>
<use data-text="2" xlink:href="#font_9_107" transform="matrix(0,-8.9664,-8.9664,-0,350.57,77.74673)"/>
<path transform="matrix(1,0,0,-1,131.89,136.991)" stroke-width=".79701" stroke-linecap="butt" stroke-miterlimit="10" stroke-linejoin="miter" fill="none" stroke="#000000" d="M.59775-99.49739H226.17671"/>
<path transform="matrix(-1,-0,0,1,137.34947,236.48839)" d="M4.66248 0C3.28098 .25902 1.0361 1.0361-.51805 1.94269V-1.94269C1.0361-1.0361 3.28098-.25902 4.66248 0"/>
<path transform="matrix(-1,-0,0,1,132.2885,236.48839)" stroke-width=".79701" stroke-linecap="butt" stroke-miterlimit="10" stroke-linejoin="miter" fill="none" stroke="#000000" d="M0 3.08846V-3.08846"/>
<path transform="matrix(1,0,0,-1,353.205,236.48839)" d="M4.66248 0C3.28098 .25902 1.0361 1.0361-.51805 1.94269V-1.94269C1.0361-1.0361 3.28098-.25902 4.66248 0"/>
<path transform="matrix(1,0,0,-1,358.26597,236.48839)" stroke-width=".79701" stroke-linecap="butt" stroke-miterlimit="10" stroke-linejoin="miter" fill="none" stroke="#000000" d="M0 3.08846V-3.08846"/>
<path transform="matrix(1,0,0,-1,131.89,136.991)" d="M90.99594-105.41527H135.77854V-93.57953H90.99594Z" fill="#ffffff"/>
<use data-text="p" xlink:href="#font_10_84" transform="matrix(9.9626,0,0,-9.9626,224.37999,238.979)"/>
<use data-text="e" xlink:href="#font_10_50" transform="matrix(9.9626,0,0,-9.9626,231.0649,238.979)"/>
<use data-text="r" xlink:href="#font_10_96" transform="matrix(9.9626,0,0,-9.9626,236.31519,238.979)"/>
<use data-text="i" xlink:href="#font_10_66" transform="matrix(9.9626,0,0,-9.9626,241.03746,238.979)"/>
<use data-text="o" xlink:href="#font_10_81" transform="matrix(9.9626,0,0,-9.9626,244.21553,238.979)"/>
<use data-text="d" xlink:href="#font_10_47" transform="matrix(9.9626,0,0,-9.9626,250.26282,238.979)"/>
<use data-text="8" xlink:href="#font_7_11" transform="matrix(9.9626,0,0,-9.9626,260.445,238.979)"/>
</svg>
