<svg style="overflow: visible;" xmlns="http://www.w3.org/2000/svg" xmlns:xlink="http://www.w3.org/1999/xlink" xmlns:inkscape="http://www.inkscape.org/namespaces/inkscape" version="1.1" width="100%" height="100%" viewBox="0 0 368.58 246.24">
<defs>
<path id="font_1_7" d="M.5359955 .4011383C.5 .3911438 .48199464 .35714723 .48199464 .33215333 .48199464 .31015016 .49899293 .28614808 .5319977 .28614808 .5669861 .28614808 .60398867 .31515504 .60398867 .364151 .60398867 .41714479 .5509949 .45214845 .48999024 .45214845 .43299867 .45214845 .3959961 .4091339 .3829956 .3911438 .35798646 .433136 .3019867 .45214845 .24499512 .45214845 .11898804 .45214845 .050994874 .32914735 .050994874 .29615785 .050994874 .28215028 .06599426 .28215028 .07499695 .28215028 .08699036 .28215028 .09399414 .28215028 .09799194 .29515077 .1269989 .38613893 .19898987 .4161377 .23999024 .4161377 .27799989 .4161377 .29599 .39814759 .29599 .3661499 .29599 .3471527 .28199769 .29216004 .272995 .2561493L.23899842 .11917114C.22399903 .058181764 .18798828 .028182984 .1539917 .028182984 .14898682 .028182984 .12599182 .028182984 .10598755 .043182374 .14199829 .05317688 .1599884 .08717346 .1599884 .11216736 .1599884 .13417053 .14299011 .1581726 .10998535 .1581726 .07499695 .1581726 .037994386 .12916565 .037994386 .08016968 .037994386 .027175904 .09098816-.0078125 .1519928-.0078125 .20899964-.0078125 .24598694 .035186769 .25898744 .05317688 .28399659 .011184692 .33999635-.0078125 .39698792-.0078125 .522995-.0078125 .59098818 .11517334 .59098818 .14816284 .59098818 .16217041 .57598879 .16217041 .5669861 .16217041 .5549927 .16217041 .5479889 .16217041 .5439911 .14916992 .5149994 .058181764 .44299317 .028182984 .4019928 .028182984 .3639984 .028182984 .34599305 .046173097 .34599305 .07817078 .34599305 .09916687 .35899354 .15216065 .36799623 .18916321 .375 .21516419 .397995 .30915834 .40299989 .32514955 .41799928 .3851471 .45298768 .4161377 .48799134 .4161377 .49299623 .4161377 .5159912 .4161377 .5359955 .4011383Z"/>
<path id="font_1_8" d="M.57699587 .3771515C.58200076 .3951416 .58200076 .3971405 .58200076 .40014649 .58200076 .4221344 .56599429 .44413758 .5349884 .44413758 .48298646 .44413758 .47099305 .3971405 .46398927 .3701477L.43798829 .26615907C.42599488 .2181549 .40699769 .14117432 .3959961 .10017395 .3909912 .07817078 .3600006 .05418396 .35699464 .05218506 .34599305 .045181276 .32199098 .028182984 .2889862 .028182984 .22999573 .028182984 .22898865 .07817078 .22898865 .10116577 .22898865 .16217041 .2599945 .24015808 .28799439 .31214906 .2979889 .33815003 .30099488 .3451538 .30099488 .3621521 .30099488 .4201355 .24299622 .45214845 .18798828 .45214845 .08198547 .45214845 .03199768 .31614686 .03199768 .29615785 .03199768 .28215028 .04699707 .28215028 .055999757 .28215028 .067993167 .28215028 .07499695 .28215028 .07899475 .29515077 .11199951 .4061432 .16699219 .4161377 .18199158 .4161377 .18899536 .4161377 .19898987 .4161377 .19898987 .3951416 .19898987 .3721466 .18798828 .34614564 .18199158 .33015443 .14299011 .23016358 .12199402 .173172 .12199402 .122177127 .12199402 .008178711 .22200012-.0078125 .2809906-.0078125 .30599977-.0078125 .33999635-.0038146973 .3769989 .02218628 .34899903-.10101318 .27398683-.16615296 .20498657-.16615296 .19198609-.16615296 .1639862-.16415406 .14399719-.15213013 .17599488-.13909912 .19198609-.11204529 .19198609-.0849762 .19198609-.04890442 .16299439-.038879396 .14299011-.038879396 .10598755-.038879396 .070999149-.07095337 .070999149-.11505127 .070999149-.16615296 .12399292-.20214844 .20498657-.20214844 .31999208-.20214844 .45199586-.12506104 .48298646-.0008239746L.57699587 .3771515Z"/>
<path id="font_2_1" d="M.47299195 .31976319C.47299195 .38682557 .46998597 .47288514 .43499757 .5479431 .3909912 .64201357 .31498719 .6660156 .25698854 .6660156 .19699097 .6660156 .12098694 .64201357 .07699585 .5459442 .04499817 .47688294 .039993287 .39582826 .039993287 .31976319 .039993287 .25471498 .041992189 .15765381 .084991458 .07858276 .13198853-.0064697267 .20999146-.022460938 .2559967-.022460938 .32099916-.022460938 .394989 .0055389406 .43699647 .097595218 .46699525 .1646576 .47299195 .23971558 .47299195 .31976319M.25698854 .002532959C.22698975 .002532959 .15499878 .016540528 .13598633 .12962342 .12599182 .18867493 .12599182 .2747345 .12599182 .33177186 .12599182 .39982606 .12599182 .47888185 .13798523 .53393557 .1579895 .6230011 .22200012 .64100649 .2559967 .64100649 .2939911 .64100649 .35699464 .62098696 .37599183 .5279236 .3869934 .47288514 .3869934 .39482118 .3869934 .33177186 .3869934 .2697296 .3869934 .18566895 .3769989 .12661743 .35598756 .012542725 .28199769 .002532959 .25698854 .002532959Z"/>
<path id="font_3_82" d="M.43199159 0V.0309906H.3999939C.30699159 .0309906 .3039856 .042999269 .3039856 .08001709V.63912966C.3039856 .6640167 .30299378 .6660156 .27799989 .6660156 .21598816 .60227969 .12399292 .60227969 .09298706 .60227969V.57128909C.11199951 .57128909 .17298889 .57128909 .22698975 .5972748V.08001709C.22698975 .042999269 .22399903 .0309906 .1309967 .0309906H.09899902V0C.1349945 .0029907227 .22399903 .0029907227 .2649994 .0029907227 .30599977 .0029907227 .3959961 .0029907227 .43199159 0Z"/>
<path id="font_3_107" d="M.46199037 .17704773H.43399049C.43199159 .16404724 .42399598 .10501099 .41099549 .08900452 .40499879 .07998657 .33599855 .07998657 .31599427 .07998657H.13798523L.23699951 .17404175C.40098573 .3161316 .46199037 .36915589 .46199037 .4711914 .46199037 .5860901 .36698915 .6660156 .24398804 .6660156 .1289978 .6660156 .050994874 .575119 .050994874 .4841919 .050994874 .43418885 .09399414 .42919923 .102996829 .42919923 .125 .42919923 .15499878 .44519044 .15499878 .48120118 .15499878 .51119998 .13398743 .5332031 .102996829 .5332031 .09799194 .5332031 .09498596 .5332031 .09098816 .53219607 .114990238 .6030731 .1789856 .63500979 .23298645 .63500979 .33499146 .63500979 .36999513 .5401764 .36999513 .4711914 .36999513 .36915589 .29299928 .28611756 .24499512 .23408509L.06199646 .035995485C.050994874 .024993897 .050994874 .022994996 .050994874 0H.43399049L.46199037 .17704773Z"/>
<path id="font_3_106" d="M.46998597 .17008972C.46998597 .25709535 .40098573 .33110047 .30499269 .35209657 .397995 .38710023 .44198609 .46009828 .44198609 .5290985 .44198609 .60606387 .35699464 .6660156 .25299073 .6660156 .14898682 .6660156 .070999149 .60705569 .070999149 .5310974 .070999149 .49809266 .09298706 .47909547 .12199402 .47909547 .15098572 .47909547 .17199707 .50009158 .17199707 .5290985 .17199707 .5640869 .147995 .57910159 .11399841 .57910159 .13999939 .6210327 .20098877 .64100649 .25 .64100649 .33299256 .64100649 .34899903 .5750885 .34899903 .52809146 .34899903 .49809266 .34298707 .45005799 .31799317 .41201783 .2869873 .36695863 .2519989 .36495973 .22299195 .36296083 .19799805 .36094667 .19599915 .36094667 .18798828 .36094667 .1789856 .35995484 .17098999 .35894776 .17098999 .34794618 .17098999 .33496095 .1789856 .33496095 .19599915 .33496095H.24299622C.32998658 .33496095 .36799623 .2646637 .36799623 .16937256 .36799623 .04145813 .2999878 .0055389406 .24899292 .0055389406 .22999573 .0055389406 .1329956 .010528564 .08799744 .0843811 .12399292 .07939148 .1519928 .10437012 .1519928 .13838196 .1519928 .17137146 .1269989 .19238281 .09799194 .19238281 .07299805 .19238281 .042999269 .17736817 .042999269 .13537598 .042999269 .046447755 .13598633-.022460938 .2519989-.022460938 .3769989-.022460938 .46998597 .06741333 .46998597 .16937256V.17008972Z"/>
<path id="font_3_57" d="M.48399354 .16503906V.19602967H.38198854V.649765C.38198854 .669754 .38198854 .6767578 .36299134 .6767578 .35099793 .6767578 .34999085 .67575076 .34098817 .6617584L.0289917 .19602967V.16503906H.3019867V.07901001C.3019867 .041992189 .29899598 .0309906 .22399903 .0309906H.20199585V0C.2649994 .0029907227 .33499146 .0029907227 .34199525 .0029907227 .34700013 .0029907227 .4189911 .0029907227 .48199464 0V.0309906H.45999146C.3849945 .0309906 .38198854 .041992189 .38198854 .07901001V.16503906H.48399354M.30799867 .19602967H.06098938L.30799867 .56581118V.19602967Z"/>
<path id="font_3_56" d="M.46199037 .19992066C.46199037 .3209076 .37599183 .41992188 .2669983 .41992188 .21899414 .41992188 .16999817 .4039154 .1349945 .36791993V.5647888C.16499329 .55578616 .19599915 .55078127 .22698975 .55078127 .34999085 .55078127 .42199708 .63983157 .42199708 .6529236 .42199708 .6619873 .41600038 .6660156 .41099549 .6660156 .41099549 .6660156 .40699769 .6660156 .397995 .6609802 .35099793 .6418457 .30499269 .63378909 .2630005 .63378909 .21998596 .63378909 .1749878 .6418457 .1289978 .6609802 .11898804 .6660156 .115997318 .6660156 .115997318 .6660156 .10398865 .6660156 .10398865 .6559448 .10398865 .63882449V.34490968C.10398865 .32699586 .10398865 .31599427 .117996219 .31599427 .12599182 .31562806 .1289978 .3196411 .1349945 .32867433 .16499329 .37083436 .21299744 .39491273 .2649994 .39491273 .37199403 .39491273 .37199403 .24035645 .37199403 .20422364 .37199403 .17321778 .37199403 .11122131 .34399415 .06636047 .31698609 .024475098 .2749939 .0055389406 .23599243 .0055389406 .1769867 .0055389406 .10998535 .042419435 .085998538 .11621094 .085998538 .116882327 .09298706 .11488342 .099990848 .11488342 .11999512 .11488342 .14898682 .12788391 .14898682 .1638794 .14898682 .19488526 .1269989 .21289063 .099990848 .21289063 .07899475 .21289063 .050994874 .20088196 .050994874 .16088867 .050994874 .069732669 .1269989-.022460938 .23799134-.022460938 .35899354-.02279663 .46199037 .07521057 .46199037 .19921875V.19992066Z"/>
<path id="font_3_101" d="M.46998597 .20277405C.46998597 .32977296 .37799073 .42578126 .2649994 .42578126 .20498657 .42578126 .1619873 .3907776 .13398743 .33078004 .13398743 .43276979 .14498902 .4897766 .17199707 .54177859 .19198609 .58277896 .24099732 .64100649 .31498719 .64100649 .33499146 .64100649 .3809967 .63697817 .4039917 .6007843 .36698915 .6007843 .35099793 .5817871 .35099793 .55477908 .35099793 .5287781 .36898805 .50878909 .39698792 .50878909 .4249878 .50878909 .44400025 .5267792 .44400025 .55677798 .44400025 .61299136 .4039917 .6660156 .31298829 .6660156 .18399048 .6660156 .042999269 .5389252 .042999269 .31576539 .042999269 .044555665 .16499329-.022460938 .25898744-.022460938 .36999513-.022460938 .46998597 .07052612 .46998597 .2025299V.20277405M.3789978 .20353699C.3789978 .15553284 .3789978 .106536868 .3600006 .0695343 .32899476 .012527466 .2849884 .0055389406 .2579956 .0055389406 .20098877 .0055389406 .16799927 .05253601 .1559906 .08152771 .13699341 .12652588 .13598633 .20953369 .13598633 .2255249 .13598633 .2927704 .16699219 .4007721 .2630005 .4007721 .2789917 .4007721 .32798768 .4007721 .3600006 .33877564 .3789978 .300766 .3789978 .25177003 .3789978 .20376587V.20353699Z"/>
<path id="font_3_100" d="M.49899293 .6435547H.25C.12399292 .6435547 .12098694 .6566467 .117996219 .67578127H.08999634L.056991579 .46655274H.084991458C.08898926 .48954774 .09700012 .5455475 .10998535 .55755618 .116989139 .56355288 .19599915 .56355288 .20999146 .56355288H.41999818L.32398988 .4325409C.19400025 .25354005 .18199158 .090530399 .18199158 .03353882 .18199158 .022537232 .18199158-.022460938 .22799683-.022460938 .2749939-.022460938 .2749939 .021530152 .2749939 .03453064V.08354187C.2749939 .23054505 .29699708 .34654237 .34999085 .41854859L.48999024 .60954287C.49899293 .62054446 .49899293 .62254336 .49899293 .6435547Z"/>
<path id="font_3_51" d="M.46998597 .16764832C.46998597 .26472474 .3959961 .3127594 .37098695 .32876588 .3600006 .33677674 .33099366 .35479737 .31900025 .36180116 .36898805 .38581849 .44198609 .43585206 .44198609 .51690676 .44198609 .6109772 .34799195 .6660156 .2579956 .6660156 .15299988 .6660156 .070999149 .5909729 .070999149 .49890138 .070999149 .46087647 .084991458 .42485047 .10899353 .39582826 .12599182 .3768158 .13198853 .37280274 .18998719 .3357849 .101989749 .29374696 .042999269 .23269654 .042999269 .15063477 .042999269 .044555665 .147995-.022460938 .2559967-.022460938 .37199403-.022460938 .46998597 .059570314 .46998597 .16764832M.3939972 .51690676C.3939972 .44685365 .33399964 .40083314 .2939911 .37780763L.17199707 .45387269C.14199829 .47288514 .11898804 .4998932 .11898804 .53692629 .11898804 .6019745 .18899536 .64100649 .25498963 .64100649 .33198548 .64100649 .3939972 .58695986 .3939972 .51690676M.41600038 .1326294C.41600038 .05357361 .33599855 .0055389406 .25698854 .0055389406 .16999817 .0055389406 .09700012 .06758118 .09700012 .15063477 .09700012 .22268677 .14698792 .28274537 .21699524 .31877137L.34298707 .2407074C.3659973 .22569275 .41600038 .19366455 .41600038 .1326294Z"/>
<path id="font_3_64" d="M.2849884 .1850586V.24707031H.010986328V.1850586H.2849884Z"/>
<path id="font_4_1" d="M.40699769-.23200989C.40699769-.2250061 .4039917-.22200012 .3919983-.21200562 .2649994-.09700012 .21998596 .07798767 .21998596 .25 .21998596 .42099 .2630005 .59599307 .3899994 .70899966 .4059906 .723999 .40699769 .72499087 .40699769 .7319946 .40699769 .74198916 .40098573 .75 .38598634 .75 .36698915 .75 .31399537 .70500186 .2939911 .6859894 .16899109 .56199648 .11399841 .4099884 .11399841 .25 .11399841 .16099549 .13198853 .039993287 .20599365-.07800293 .2689972-.17800904 .3639984-.25 .38598634-.25 .40098573-.25 .40699769-.2420044 .40699769-.23200989Z"/>
<path id="font_4_4" d="M.56399539 .31925965C.56399539 .4352417 .5549927 .6582031 .30599977 .6582031 .055999757 .6582031 .04798889 .4332428 .04798889 .31925965 .04798889 .20729065 .054992677-.013671875 .30599977-.013671875 .55799868-.013671875 .56399539 .20828247 .56399539 .31925965M.30599977 .028320313C.2789917 .028320313 .25099183 .03831482 .22999573 .05531311 .19799805 .08331299 .18299866 .0973053 .18299866 .33125306 .18299866 .40324403 .18299866 .4762268 .19299317 .5262146 .20599365 .5971985 .2679901 .6161957 .30599977 .6161957 .32998658 .6161957 .4059906 .610199 .42099 .515213 .42900086 .4662323 .42900086 .3892517 .42900086 .33125306 .42900086 .10231018 .4149933 .08830261 .38398744 .05831909 .37599183 .049316408 .34799195 .028320313 .30599977 .028320313Z"/>
<path id="font_5_3" d="M.22099304 .016998291C.21199036-.08493042 .1519928-.1348877 .1309967-.15187073 .11999512-.15986634 .115997318-.16287232 .115997318-.17185974 .115997318-.18086243 .12799073-.19386292 .13899231-.19386292 .15499878-.19386292 .2639923-.106918338 .2639923 .03199768 .2639923 .10499573 .22698975 .1599884 .16899109 .1599884 .12199402 .1599884 .08999634 .12399292 .08999634 .07998657 .08999634 .038986207 .11898804 0 .16999817 0 .18998719 0 .20899964 .0069885256 .22099304 .016998291Z"/>
<path id="font_4_2" d="M.36099244 .25C.36099244 .33898927 .34298707 .45999146 .2689972 .5779877 .20599365 .6779938 .11099243 .75 .08898926 .75 .07199097 .75 .067993167 .7389984 .067993167 .7319946 .067993167 .72499087 .07199097 .72099307 .08299255 .71199038 .20999146 .5970001 .25498963 .42199708 .25498963 .25 .25498963 .07899475 .21199036-.0960083 .084991458-.2090149 .07299805-.22000122 .067993167-.22401428 .067993167-.23200989 .067993167-.23901367 .07199097-.25 .08898926-.25 .10798645-.25 .16099549-.20500183 .18099976-.18600464 .30599977-.06201172 .36099244 .08999634 .36099244 .25Z"/>
<path id="font_4_6" d="M.5509949 .2280426H.49499513C.4869995 .16200257 .47399903 .14199829 .46798707 .13899231 .45700074 .1329956 .37998963 .1329956 .36299134 .1329956H.22499085C.35899354 .23805237 .41299439 .2680664 .45599366 .30108644 .526001 .35612489 .5509949 .40615846 .5509949 .46316529 .5509949 .58117678 .44198609 .6582031 .2899933 .6582031 .1619873 .6582031 .06098938 .6011963 .06098938 .50717166 .06098938 .4481659 .10899353 .4291687 .13699341 .4291687 .17199707 .4291687 .21398926 .4541626 .21398926 .50616458 .21398926 .5531616 .17999268 .5721588 .16699219 .5771637 .19499207 .5981903 .23498535 .6062012 .2659912 .6062012 .35598756 .6062012 .4059906 .5391693 .4059906 .4621582 .4059906 .38113404 .35299684 .31410218 .2939911 .25906373L.07299805 .052993776C.06199646 .041992189 .06098938 .040985109 .06098938 .020996094V0H.5179901L.5509949 .2280426Z"/>
<path id="font_4_8" d="M.47399903 .62516787C.47399903 .6561737 .46798707 .6591797 .43899537 .6591797 .41799928 .6591797 .41099549 .6591797 .39898683 .64416506L.033996583 .20605469V.15405274H.34098817V.051986696H.22200012V0C.25898744 .0029907227 .3600006 .0029907227 .40299989 .0029907227 .45098878 .0029907227 .5329895 .0029907227 .5779877 0V.051986696H.47399903V.15405274H.5779877V.20605469H.47399903V.62516787M.35398866 .5151367V.20605469H.09599304L.35398866 .5151367Z"/>
<path id="font_4_10" d="M.19400025 .34695436C.19400025 .4039154 .19699097 .4789734 .22499085 .5299835 .2579956 .5909729 .32099916 .6151886 .37298585 .6151886 .40098573 .6151886 .4249878 .6101532 .44599916 .59198 .42199708 .5859833 .394989 .5639801 .394989 .52597048 .394989 .48797608 .4229889 .45898438 .46199037 .45898438 .5009918 .45898438 .5299988 .48597718 .5299988 .52796939 .5299988 .588974 .4889984 .6582031 .37199403 .6582031 .21598816 .6582031 .050994874 .5619812 .050994874 .31698609 .050994874 .18913269 .08198547-.013671875 .30999757-.013671875 .45899964-.013671875 .5609894 .07028198 .5609894 .2051239 .5609894 .26205445 .548996 .31399537 .4909973 .36393739 .43598939 .4109192 .3809967 .42092896 .31799317 .42092896 .25698854 .42092896 .21598816 .3819275 .19400025 .34695436M.30899049 .033325197C.2599945 .033325197 .22799683 .061294557 .21299744 .09324646 .19599915 .12721253 .19599915 .20811463 .19599915 .21211243 .19599915 .30200196 .23599243 .3779297 .31599427 .3779297 .41799928 .3779297 .41799928 .30101014 .41799928 .20611573 .41799928 .11123657 .41799928 .033325197 .30899049 .033325197Z"/>
<path id="font_6_1" d="M.8019867 .21617127C.81599429 .21617127 .84999087 .21617127 .84999087 .25016786 .84999087 .2841797 .81599429 .2841797 .8019867 .2841797H.1499939C.13598633 .2841797 .101989749 .2841797 .101989749 .25016786 .101989749 .21617127 .13598633 .21617127 .1499939 .21617127H.8019867Z"/>
<path id="font_4_12" d="M.4249878 .37023927C.46699525 .39323426 .5269928 .43023683 .5269928 .5082092 .5269928 .64720156 .36799623 .6582031 .30799867 .6582031 .15899658 .6582031 .084991458 .5782013 .084991458 .4802246 .084991458 .41323854 .1269989 .36024476 .18099976 .33026124 .07699585 .28427125 .050994874 .22128296 .050994874 .1612854 .050994874 .036315919 .1639862-.013671875 .3039856-.013671875 .47599793-.013671875 .5609894 .07531738 .5609894 .18728638 .5609894 .29826356 .46398927 .35025025 .4249878 .37023927M.21499634 .4802246C.19599915 .49021913 .16799927 .5072174 .16799927 .5392151 .16799927 .6021881 .24299622 .6151886 .30299378 .6151886 .3939972 .6151886 .44400025 .5742035 .44400025 .5082092 .44400025 .4702301 .42799378 .43122865 .37199403 .39823915L.21499634 .4802246M.4039917 .21228028C.41999818 .20327759 .46598817 .17929077 .46598817 .1322937 .46598817 .047317506 .36898805 .033325197 .30799867 .033325197 .21099854 .033325197 .1459961 .077316287 .1459961 .1612854 .1459961 .26026917 .23599243 .29826356 .23799134 .29826356 .23999024 .29826356 .27198792 .28126527 .2899933 .27226258L.4039917 .21228028Z"/>
<path id="font_7_12" d="M.7879944 .33203126C.7999878 .33203126 .82899478 .33203126 .82899478 .36203004 .82899478 .39302064 .7979889 .39302064 .7829895 .39302064H.10998535C.09498596 .39302064 .06399536 .39302064 .06399536 .36203004 .06399536 .33203126 .09298706 .33203126 .10499573 .33203126H.7879944M.7829895 .107940677C.7979889 .107940677 .82899478 .107940677 .82899478 .13893128 .82899478 .16894531 .7999878 .16894531 .7879944 .16894531H.10499573C.09298706 .16894531 .06399536 .16894531 .06399536 .13893128 .06399536 .107940677 .09498596 .107940677 .10998535 .107940677H.7829895Z"/>
<path id="font_7_6" d="M.5169983 .22209168H.46998597C.46699525 .20207215 .45799256 .13800049 .44400025 .1309967 .43299867 .125 .35798646 .125 .34199525 .125H.19499207C.24198914 .16403198 .2939911 .20707703 .33898927 .2401123 .45298768 .3242035 .5169983 .37124635 .5169983 .4663086 .5169983 .5812988 .41299439 .65527346 .27198792 .65527346 .15098572 .65527346 .056991579 .593277 .056991579 .50331118 .056991579 .44430543 .10499573 .42930604 .1289978 .42930604 .16099549 .42930604 .20098877 .4513092 .20098877 .50131228 .20098877 .55329897 .15899658 .5693054 .14399719 .5733032 .17298889 .5972748 .21099854 .6082611 .24699402 .6082611 .33299256 .6082611 .3789978 .54029849 .3789978 .4653015 .3789978 .39627076 .34098817 .3282013 .2709961 .25712586L.069992069 .051986696C.056991579 .039993287 .056991579 .037994386 .056991579 .017990113V0H.48599244L.5169983 .22209168Z"/>
<path id="font_7_17" d="M.21099854 .29412843C.17399597 .30111695 .10899353 .31211854 .10899353 .3591156 .10899353 .42111207 .20199585 .42111207 .22099304 .42111207 .29599 .42111207 .33399964 .39212037 .33898927 .33711244 .33999635 .32211305 .34098817 .3171234 .3619995 .3171234 .38598634 .3171234 .38598634 .32211305 .38598634 .3451233V.42510987C.38598634 .4441223 .38598634 .453125 .36799623 .453125 .3639984 .453125 .3619995 .453125 .32299806 .43411256 .29699708 .44711305 .2619934 .453125 .22200012 .453125 .19198609 .453125 .037994386 .453125 .037994386 .32211305 .037994386 .28211976 .057998659 .25512696 .07798767 .23812866 .117996219 .203125 .1559906 .1971283 .23298645 .18312073 .2689972 .17712403 .34399415 .16412354 .34399415 .10513306 .34399415 .030136109 .2519989 .030136109 .22999573 .030136109 .12399292 .030136109 .09799194 .103134158 .085998538 .14613343 .08099365 .16012573 .07598877 .16012573 .06199646 .16012573 .037994386 .16012573 .037994386 .15412903 .037994386 .13113404V.022140503C.037994386 .0031280518 .037994386-.005859375 .055999757-.005859375 .06298828-.005859375 .06498718-.005859375 .085998538 .009140015 .08699036 .009140015 .10899353 .024139405 .11199951 .026138306 .1579895-.005859375 .20999146-.005859375 .22999573-.005859375 .26098634-.005859375 .4149933-.005859375 .4149933 .14012146 .4149933 .18312073 .394989 .21812439 .3600006 .24612427 .32099916 .27511598 .2889862 .28112794 .21099854 .29412843Z"/>
<path id="font_7_14" d="M.22399903 .4501953 .049987794 .44218446V.39518739C.10899353 .39518739 .115997318 .39518739 .115997318 .35617066V.04699707H.04699707V0C.07798767 .0009918213 .1269989 .0029907227 .16899109 .0029907227 .19898987 .0029907227 .25 .0009918213 .28599549 0V.04699707H.22399903V.4501953M.23399353 .6173096C.23399353 .66130068 .19799805 .6953125 .1559906 .6953125 .11299133 .6953125 .07798767 .66030886 .07798767 .6173096 .07798767 .5743103 .11299133 .53930667 .1559906 .53930667 .19799805 .53930667 .23399353 .5733032 .23399353 .6173096Z"/>
<path id="font_7_15" d="M.11399841 .3561554V.04699707H.04499817V0C.07299805 .0009918213 .1329956 .0029907227 .17098999 .0029907227 .20999146 .0029907227 .2689972 .0009918213 .29699708 0V.04699707H.22799683V.25610353C.22799683 .36515809 .31399537 .41418458 .3769989 .41418458 .41099549 .41418458 .43199159 .39317323 .43199159 .31713868V.04699707H.36299134V0C.3909912 .0009918213 .45098878 .0029907227 .4889984 .0029907227 .5279999 .0029907227 .58699038 .0009918213 .61499026 0V.04699707H.54599V.30613709C.54599 .41119386 .49198915 .4501953 .3919983 .4501953 .29599 .4501953 .24299622 .39317323 .21699524 .34214784V.4501953L.04499817 .44218446V.39518739C.10699463 .39518739 .11399841 .39518739 .11399841 .3561554Z"/>
<path id="font_1_1" d="M.31199647 .34832765H.42399598C.4019928 .2552948 .3909912 .1942749 .3909912 .1352539 .3909912 .067230228 .40899659-.0087890629 .45700074-.0087890629 .48999024-.0087890629 .526001 .02420044 .526001 .05621338 .526001 .068222049 .522995 .07423401 .5139923 .0892334 .46798707 .17025757 .46798707 .24728394 .46798707 .27430726 .46798707 .29830934 .46798707 .3083191 .47399903 .34832765H.59799197C.61698916 .34832765 .6329956 .34832765 .647995 .36332704 .6549988 .3703308 .66799929 .38232423 .66799929 .40533448 .66799929 .44433595 .6329956 .44433595 .61499026 .44433595H.22200012C.20098877 .44433595 .1579895 .44433595 .10499573 .3963318 .069992069 .3643341 .0309906 .31330873 .0309906 .3033142 .0309906 .28930665 .042999269 .28930665 .053985597 .28930665 .068984989 .28930665 .069992069 .29031373 .07899475 .3013153 .116989139 .34832765 .18299866 .34832765 .20199585 .34832765H.2619934C.23699951 .26930238 .19699097 .18727112 .14299011 .08622742 .1269989 .05621338 .12399292 .051223756 .12399292 .037216188 .12399292 .01020813 .1459961-.007797241 .17199707-.007797241 .19299317-.007797241 .20799256 .0032043458 .21499634 .00920105 .22999573 .02420044 .23098755 .028213501 .23599243 .049209596L.31199647 .34832765Z"/>
<path id="font_7_8" d="M.44499208 .15611267H.5419922V.203125H.44499208V.62423709C.44499208 .6512451 .44299317 .65625 .4149933 .65625 .3939972 .65625 .3929901 .6552429 .3809967 .64024356L.03199768 .203125V.15611267H.31999208V.04699707H.20799256V0C.24598694 .0029907227 .33699037 .0029907227 .37998963 .0029907227 .41999818 .0029907227 .5069885 .0029907227 .5419922 0V.04699707H.44499208V.15611267M.33099366 .203125H.083999637L.33099366 .51319888V.203125Z"/>
<path id="font_8_4" d="M.59498599 .3731079C.598999 .38909913 .598999 .394104 .598999 .3981018 .598999 .4320984 .57199099 .44410707 .5509949 .44410707 .49798585 .44410707 .48599244 .3961029 .47898866 .3701172L.45298768 .26612855C.43899537 .21113587 .42599488 .15615845 .41099549 .10116577 .4099884 .09416199 .3659973 .032180787 .30099488 .032180787 .2579956 .032180787 .23799134 .057174684 .23799134 .10417175 .23799134 .16314698 .27198792 .24913025 .29899598 .3171234 .30499269 .33111573 .31098939 .3461151 .31098939 .36210633 .31098939 .41410829 .25898744 .45210267 .19299317 .45210267 .08699036 .45210267 .032989503 .32011415 .032989503 .29612733 .032989503 .28112794 .04699707 .28112794 .05899048 .28112794 .07499695 .28112794 .07998657 .28112794 .083999637 .29512025 .11898804 .4091034 .1769867 .41210938 .18699646 .41210938 .19299317 .41210938 .20399475 .41210938 .20399475 .3901062 .20399475 .36810304 .19299317 .3421173 .18798828 .32911683 .147995 .22813416 .12799073 .17315674 .12799073 .12416077 .12799073 .0231781 .20899964-.0078125 .29299928-.0078125 .30899049-.0078125 .34700013-.0078125 .3919983 .02218628 .36999513-.08416748 .29599-.16210938 .21598816-.16210938 .21398926-.16210938 .18499756-.16210938 .16099549-.15216065 .18399048-.14016724 .20399475-.11515808 .20399475-.0851593 .20399475-.04916382 .17599488-.03515625 .1519928-.03515625 .10899353-.03515625 .07598877-.07316589 .07598877-.11416626 .07598877-.17111206 .13699341-.20211792 .21598816-.20211792 .33799745-.20211792 .47099305-.123168949 .5009918-.0018157959L.59498599 .3731079Z"/>
<path id="font_9_13" d="M.80799868 .33398438C.82199099 .33398438 .8529968 .33398438 .8529968 .36598207 .8529968 .39797975 .82199099 .39797975 .8089905 .39797975H.10998535C.09700012 .39797975 .06599426 .39797975 .06599426 .36598207 .06599426 .33398438 .09799194 .33398438 .11099243 .33398438H.80799868M.8089905 .102005008C.82199099 .102005008 .8529968 .102005008 .8529968 .13400269 .8529968 .16601563 .82099917 .16601563 .80799868 .16601563H.11099243C.09799194 .16601563 .06599426 .16601563 .06599426 .13400269 .06599426 .102005008 .09700012 .102005008 .10998535 .102005008H.8089905Z"/>
<path id="font_9_4" d="M.54499819 .31925965C.54499819 .4212494 .5419922 .65625 .29599 .65625 .051986696 .65625 .04598999 .429245 .04598999 .31925965 .04598999 .21525574 .04899597-.01171875 .29499818-.01171875 .5389862-.01171875 .54499819 .20826721 .54499819 .31925965M.29599 .028274537C.2689972 .028274537 .19999695 .040267946 .18699646 .13226319 .1789856 .18527222 .1789856 .27626039 .1789856 .33125306 .1789856 .3942566 .1789856 .47824098 .18699646 .52523806 .20199585 .60523989 .2689972 .61624148 .29499818 .61624148 .32798768 .61624148 .3909912 .600235 .4039917 .5222473 .4119873 .47424317 .4119873 .3882599 .4119873 .33125306 .4119873 .25326539 .4119873 .13426209 .3959961 .09527588 .37399293 .046279909 .32899476 .028274537 .29599 .028274537Z"/>
<path id="font_10_75" d="M.95899966-.0002746582V.048721315H.8909912V.30471803C.8909912 .42271424 .81999209 .4497223 .7319946 .4497223 .6279907 .4497223 .57699587 .38671876 .55799868 .3557129 .5359955 .4457245 .44799806 .4497223 .4039917 .4497223 .27999879 .4497223 .23098755 .35972596 .22399903 .34472657H.22299195V.4497223L.049987794 .44172669V.39271546C.10998535 .39271546 .117996219 .39271546 .117996219 .353714V.048721315H.049987794V-.0002746582L.17599488 .0027160645 .30299378-.0002746582V.048721315H.23498535V.25372315C.23498535 .36471559 .32699586 .40971376 .3869934 .40971376 .4249878 .40971376 .44599916 .38972474 .44599916 .3137207V.048721315H.37799073V-.0002746582L.5039978 .0027160645 .6309967-.0002746582V.048721315H.5629883V.25372315C.5629883 .36471559 .6549988 .40971376 .71499636 .40971376 .7529907 .40971376 .7739868 .38972474 .7739868 .3137207V.048721315H.70599368V-.0002746582L.83200076 .0027160645 .95899966-.0002746582Z"/>
<path id="font_10_66" d="M.2919922 0V.04899597H.23098755V.4501953L.054992677 .4423828V.39337159C.11299133 .39337159 .11999512 .39337159 .11999512 .3543396V.04899597H.051986696V0C.11898804 .0019989014 .13198853 .0029907227 .17399597 .0029907227 .22299195 .0029907227 .23599243 .0019989014 .2919922 0M.24198914 .6053314C.24198914 .65234377 .20399475 .68434146 .1639862 .68434146 .12199402 .68434146 .085998538 .6503296 .085998538 .6063385 .085998538 .55934146 .12399292 .52734377 .1639862 .52734377 .20599365 .52734377 .24198914 .56134036 .24198914 .6053314Z"/>
<path id="font_10_47" d="M.61499026 0V.04899597C.5549927 .04899597 .5469971 .04899597 .5469971 .088012699V.69433596L.36799623 .6855469V.63653567C.42799378 .63653567 .43598939 .63653567 .43598939 .5976715V.40518189C.3919983 .43719483 .34498597 .4501953 .29699708 .4501953 .13398743 .4501953 .038986207 .35118104 .038986207 .22216797 .038986207 .089141849 .1329956-.005859375 .2849884-.005859375 .34799195-.005859375 .397995 .018127442 .42999269 .044128419V-.005859375L.61499026 0M.42999269 .10899353C.4079895 .074142459 .3600006 .03413391 .29599 .03413391 .17199707 .03413391 .17199707 .15414429 .17199707 .22015381 .17199707 .27816773 .17298889 .32118226 .19898987 .3581848 .22499085 .39819337 .272995 .41018678 .30799867 .41018678 .35798646 .41018678 .39898683 .3881836 .42999269 .34918214V.10899353Z"/>
<path id="font_10_72" d="M.29899598 0V.04899597H.23098755V.69433596L.051986696 .6855469V.63653567C.11199951 .63653567 .11999512 .63653567 .11999512 .5975647V.04899597H.051986696V0L.1749878 .0029907227 .29899598 0Z"/>
<path id="font_10_77" d="M.6299896-.0002746582V.048721315H.56199648V.30471803C.56199648 .4237213 .48999024 .4497223 .40299989 .4497223 .27999879 .4497223 .23098755 .35972596 .22399903 .34472657H.22299195V.4497223L.049987794 .44172669V.39271546C.10998535 .39271546 .117996219 .39271546 .117996219 .353714V.048721315H.049987794V-.0002746582L.17599488 .0027160645 .30299378-.0002746582V.048721315H.23498535V.25372315C.23498535 .36572267 .32699586 .40971376 .3869934 .40971376 .4249878 .40971376 .44499208 .38871766 .44499208 .3137207V.048721315H.3769989V-.0002746582L.5029907 .0027160645 .6299896-.0002746582Z"/>
<path id="font_10_50" d="M.5089874 .11605835C.5089874 .13604737 .4889984 .13604737 .48298646 .13604737 .46499635 .13604737 .46299745 .13005066 .45700074 .11605835 .43399049 .06410217 .37298585 .037139894 .30999757 .037139894 .16799927 .037139894 .1659851 .16601563 .1659851 .21496582H.47599793C.49699403 .21496582 .5089874 .21496582 .5089874 .2429657 .5089874 .26498414 .5069885 .35305787 .44198609 .4071045 .39698792 .4441223 .33699037 .453125 .28799439 .453125 .116989139 .453125 .032989503 .345047 .032989503 .22497559 .032989503 .09408569 .13198853-.005859375 .3019867-.005859375 .46699525-.005859375 .5089874 .1000824 .5089874 .11605835M.41099549 .25097657H.1659851C.16799927 .29701234 .17298889 .41311646 .28799439 .41311646 .40499879 .41311646 .40899659 .29100038 .41099549 .25097657Z"/>
<path id="font_10_28" d="M.56900027 .025131226C.56900027 .0491333 .5529938 .0491333 .54299929 .0491333 .47898866 .050125123 .47898866 .060134889 .47898866 .08413696V.29812623C.47898866 .38612367 .40699769 .453125 .25299073 .453125 .19599915 .453125 .067993167 .45111085 .067993167 .3591156 .067993167 .31411744 .101989749 .29312135 .1329956 .29312135 .16699219 .29312135 .19799805 .3171234 .19799805 .35812379 .19799805 .38711549 .18099976 .40411378 .17799378 .40711976 .18798828 .40911866 .21199036 .41311646 .24899292 .41311646 .32099916 .41311646 .3619995 .37712098 .3619995 .29812623V.26612855C.19599915 .26612855 .027999878 .22312927 .027999878 .11213684 .027999878 .013137817 .15299988-.005859375 .22499085-.005859375 .30099488-.005859375 .35299684 .027130127 .37998963 .0741272 .37998963 .04798889 .37998963 0 .4869995 0H.5359955C.5549927 0 .56900027 0 .56900027 .024993897V.025131226M.3619995 .13899231C.3619995 .033996583 .24598694 .033996583 .24198914 .033996583 .19099427 .033996583 .14898682 .066986087 .14898682 .11199951 .14898682 .14498902 .16699219 .22299195 .3619995 .23199463V.13899231Z"/>
<path id="font_10_84" d="M.61698916 .22218323C.61698916 .354187 .526001 .4501953 .375 .4501953 .2939911 .45033265 .23899842 .41633607 .21998596 .40234376V.4501953L.040985109 .4423828V.39337159C.06098938 .39337159 .07699585 .39337159 .08999634 .39038087 .10899353 .38737489 .10899353 .3763733 .10899353 .3553772V-.14453125H.040985109V-.19354248L.16699219-.1905365 .2939911-.19354248V-.14453125H.22599793V.03942871C.2849884-.005859375 .33999635-.005859375 .35899354-.005859375 .5159912-.005859375 .61698916 .089141849 .61698916 .22216797V.22218323M.48399354 .22315979C.48399354 .08413696 .41299439 .03413391 .34700013 .03413391 .29599 .03413391 .25299073 .06314087 .22599793 .104141239V.34518434C.24398804 .3671875 .29100038 .4071808 .35899354 .4071808 .42900086 .4071808 .48399354 .34518434 .48399354 .22315979Z"/>
<path id="font_10_105" d="M.3929901 .123184207V.1762085H.34199525V.12617493C.34199525 .055145265 .30599977 .037139894 .2809906 .037139894 .22299195 .037139894 .22299195 .09716797 .22299195 .1211853V.3953247H.37399293V.44433595H.22299195V.6357422H.17199707C.17098999 .5415344 .12399292 .43832398 .021987915 .43533326V.3953247H.10598755V.123184207C.10598755 .009140015 .20498657-.005859375 .2669983-.005859375 .34498597-.005859375 .3929901 .05014038 .3929901 .123184207Z"/>
<path id="font_10_109" d="M.6299896 0V.04899597C.56999209 .04899597 .56199648 .04899597 .56199648 .088012699V.4501953L.3769989 .4423828V.39337159C.43699647 .39337159 .44499208 .39337159 .44499208 .35437013V.16433716C.44499208 .08433533 .3929901 .03413391 .31599427 .03413391 .23899842 .03413391 .23498535 .056259157 .23498535 .10932922V.4501953L.049987794 .4423828V.39337159C.10998535 .39337159 .117996219 .39337159 .117996219 .35437013V.12333679C.117996219 .014129639 .20399475-.005859375 .30099488-.005859375 .33198548-.005859375 .3999939-.005859375 .45098878 .06933594V-.005859375L.6299896 0Z"/>
<path id="font_10_107" d="M.5319977 .22503662H.48098756C.47898866 .21102906 .46998597 .13999939 .45498658 .1329956 .44198609 .12799073 .36799623 .12799073 .35099793 .12799073H.20799256C.26098634 .17102051 .32099916 .21803284 .37098695 .25305177 .45498658 .312088 .5319977 .36611939 .5319977 .46417237 .5319977 .58122256 .4249878 .65625 .27999879 .65625 .1559906 .65625 .05899048 .597229 .05899048 .505188 .05899048 .45318605 .09899902 .42918397 .13398743 .42918397 .1659851 .42918397 .20799256 .4521942 .20799256 .5041809 .20799256 .5261841 .19898987 .56318667 .15499878 .5751953 .18998719 .60324099 .23498535 .60723879 .25498963 .60723879 .33699037 .60723879 .3889923 .54618838 .3889923 .46318055 .3889923 .39115907 .34599305 .32511903 .29299928 .27108766L.069992069 .050994874C.05899048 .039993287 .05899048 .038986207 .05899048 .018997193V0H.5009918L.5319977 .22503662Z"/>
<path id="font_10_96" d="M.45498658 .36618043C.45498658 .41719056 .40299989 .4501953 .34399415 .4501953 .27398683 .4501953 .23098755 .39918519 .20899964 .34118653H.20799256V.4501953L.040985109 .4423828V.39337159C.100997928 .39337159 .10899353 .39337159 .10899353 .3543396V.04899597H.040985109V0L.16899109 .0029907227C.19400025 .0029907227 .2519989 .0029907227 .30499269 0V.04899597H.21998596V.21818543C.21998596 .29125978 .24699402 .40737916 .34399415 .41036988 .33299256 .39898683 .32798768 .38198854 .32798768 .3659973 .32798768 .32199098 .36299134 .3019867 .3909912 .3019867 .4229889 .3019867 .45498658 .32398988 .45498658 .3659973V.36618043Z"/>
<path id="font_10_81" d="M.55799868 .21812439C.55799868 .3491211 .46598817 .453125 .29599 .453125 .11999512 .453125 .032989503 .3441162 .032989503 .21812439 .032989503 .09413147 .12298584-.005859375 .29499818-.005859375 .47399903-.005859375 .55799868 .09913635 .55799868 .21812439M.4249878 .22912598C.4249878 .14312744 .4249878 .037139894 .29599 .037139894 .1659851 .037139894 .1659851 .14213562 .1659851 .22912598 .1659851 .3131256 .1659851 .41311646 .29499818 .41311646 .4249878 .41311646 .4249878 .3131256 .4249878 .22912598Z"/>
<path id="font_9_12" d="M.40699769 .37025453C.47898866 .40525819 .5089874 .45324708 .5089874 .5092468 .5089874 .60523989 .4249878 .65625 .2979889 .65625 .1539917 .65625 .08198547 .57724 .08198547 .47924806 .08198547 .4252472 .11099243 .36724855 .1769867 .33026124 .12399292 .30226136 .04899597 .26226808 .04899597 .16127014 .04899597 .03727722 .16099549-.01171875 .2939911-.01171875 .45599366-.01171875 .5419922 .073272708 .5419922 .18727112 .5419922 .29325868 .45999146 .34025575 .40699769 .37025453M.20298767 .48025514C.19799805 .48324586 .1599884 .50424197 .1599884 .5392456 .1599884 .60523989 .23799134 .61624148 .29299928 .61624148 .38198854 .61624148 .43099977 .57424929 .43099977 .50823977 .43099977 .45625306 .39898683 .4192505 .35798646 .3972473L.20298767 .48025514M.22898865 .30125428C.2639923 .28326417 .34399415 .23925781 .3619995 .2292633 .41600038 .19926453 .45199586 .18026734 .45199586 .13226319 .45199586 .039276124 .33499146 .03327942 .29699708 .03327942 .20799256 .03327942 .13899231 .07426453 .13899231 .16226197 .13899231 .20826721 .1579895 .2602539 .22898865 .30125428Z"/>
</defs>
<path transform="matrix(1,0,0,-1,62.441,129.621)" stroke-width=".79701" stroke-linecap="butt" stroke-miterlimit="10" stroke-linejoin="miter" fill="none" stroke="#000000" d="M-42.10999 0H282.2087"/>
<path transform="matrix(-1,-0,0,1,20.331013,129.621)" d="M4.66248 0C3.28098 .25902 1.0361 1.0361-.51805 1.94269V-1.94269C1.0361-1.0361 3.28098-.25902 4.66248 0"/>
<path transform="matrix(1,0,0,-1,344.64973,129.621)" d="M4.66248 0C3.28098 .25902 1.0361 1.0361-.51805 1.94269V-1.94269C1.0361-1.0361 3.28098-.25902 4.66248 0"/>
<use data-text="x" xlink:href="#font_1_7" transform="matrix(9.9626,0,0,-9.9626,353.031,131.83499)"/>
<path transform="matrix(1,0,0,-1,62.441,129.621)" stroke-width=".79701" stroke-linecap="butt" stroke-miterlimit="10" stroke-linejoin="miter" fill="none" stroke="#000000" d="M0-105.89034V105.89034"/>
<path transform="matrix(0,1,1,0,62.441,235.51136)" d="M4.66248 0C3.28098 .25902 1.0361 1.0361-.51805 1.94269V-1.94269C1.0361-1.0361 3.28098-.25902 4.66248 0"/>
<path transform="matrix(0,-1,-1,-0,62.441,23.73066)" d="M4.66248 0C3.28098 .25902 1.0361 1.0361-.51805 1.94269V-1.94269C1.0361-1.0361 3.28098-.25902 4.66248 0"/>
<use data-text="y" xlink:href="#font_1_8" transform="matrix(9.9626,0,0,-9.9626,59.316,13.412003)"/>
<use data-text="0" xlink:href="#font_2_1" transform="matrix(8.9664,0,0,-8.9664,63.126,138.919)"/>
<path transform="matrix(1,0,0,-1,62.441,129.621)" stroke-width=".79701" stroke-linecap="butt" stroke-miterlimit="10" stroke-linejoin="miter" fill="none" stroke="#000000" d="M31.18166 2.9481V-2.9481"/>
<use data-text="1" xlink:href="#font_3_82" transform="matrix(8.9664,0,0,-8.9664,91.318,145.095)"/>
<path transform="matrix(1,0,0,-1,62.441,129.621)" stroke-width=".79701" stroke-linecap="butt" stroke-miterlimit="10" stroke-linejoin="miter" fill="none" stroke="#000000" d="M62.36331 2.9481V-2.9481"/>
<use data-text="2" xlink:href="#font_3_107" transform="matrix(8.9664,0,0,-8.9664,122.49999,145.095)"/>
<path transform="matrix(1,0,0,-1,62.441,129.621)" stroke-width=".79701" stroke-linecap="butt" stroke-miterlimit="10" stroke-linejoin="miter" fill="none" stroke="#000000" d="M93.54497 2.9481V-2.9481"/>
<use data-text="3" xlink:href="#font_3_106" transform="matrix(8.9664,0,0,-8.9664,153.68199,145.095)"/>
<path transform="matrix(1,0,0,-1,62.441,129.621)" stroke-width=".79701" stroke-linecap="butt" stroke-miterlimit="10" stroke-linejoin="miter" fill="none" stroke="#000000" d="M124.72664 2.9481V-2.9481"/>
<use data-text="4" xlink:href="#font_3_57" transform="matrix(8.9664,0,0,-8.9664,184.86299,145.193)"/>
<path transform="matrix(1,0,0,-1,62.441,129.621)" stroke-width=".79701" stroke-linecap="butt" stroke-miterlimit="10" stroke-linejoin="miter" fill="none" stroke="#000000" d="M155.90831 2.9481V-2.9481"/>
<use data-text="5" xlink:href="#font_3_56" transform="matrix(8.9664,0,0,-8.9664,216.045,145.095)"/>
<path transform="matrix(1,0,0,-1,62.441,129.621)" stroke-width=".79701" stroke-linecap="butt" stroke-miterlimit="10" stroke-linejoin="miter" fill="none" stroke="#000000" d="M187.08997 2.9481V-2.9481"/>
<use data-text="6" xlink:href="#font_3_101" transform="matrix(8.9664,0,0,-8.9664,247.227,145.095)"/>
<path transform="matrix(1,0,0,-1,62.441,129.621)" stroke-width=".79701" stroke-linecap="butt" stroke-miterlimit="10" stroke-linejoin="miter" fill="none" stroke="#000000" d="M218.27162 2.9481V-2.9481"/>
<use data-text="7" xlink:href="#font_3_100" transform="matrix(8.9664,0,0,-8.9664,278.408,145.184)"/>
<path transform="matrix(1,0,0,-1,62.441,129.621)" stroke-width=".79701" stroke-linecap="butt" stroke-miterlimit="10" stroke-linejoin="miter" fill="none" stroke="#000000" d="M249.4533 2.9481V-2.9481"/>
<use data-text="8" xlink:href="#font_3_51" transform="matrix(8.9664,0,0,-8.9664,309.59,145.095)"/>
<path transform="matrix(1,0,0,-1,62.441,129.621)" stroke-width=".79701" stroke-linecap="butt" stroke-miterlimit="10" stroke-linejoin="miter" fill="none" stroke="#000000" d="M1.8708-73.70186H-1.8708"/>
<use data-text="-" xlink:href="#font_3_64" transform="matrix(8.9664,0,0,-8.9664,46.332,206.309)"/>
<use data-text="2" xlink:href="#font_3_107" transform="matrix(8.9664,0,0,-8.9664,49.407476,206.309)"/>
<path transform="matrix(1,0,0,-1,62.441,129.621)" stroke-width=".79701" stroke-linecap="butt" stroke-miterlimit="10" stroke-linejoin="miter" fill="none" stroke="#000000" d="M1.8708-36.85092H-1.8708"/>
<use data-text="-" xlink:href="#font_3_64" transform="matrix(8.9664,0,0,-8.9664,46.332,169.45801)"/>
<use data-text="1" xlink:href="#font_3_82" transform="matrix(8.9664,0,0,-8.9664,49.407476,169.45801)"/>
<path transform="matrix(1,0,0,-1,62.441,129.621)" stroke-width=".79701" stroke-linecap="butt" stroke-miterlimit="10" stroke-linejoin="miter" fill="none" stroke="#000000" d="M1.8708 36.85092H-1.8708"/>
<use data-text="1" xlink:href="#font_3_82" transform="matrix(8.9664,0,0,-8.9664,49.407999,95.756)"/>
<path transform="matrix(1,0,0,-1,62.441,129.621)" stroke-width=".79701" stroke-linecap="butt" stroke-miterlimit="10" stroke-linejoin="miter" fill="none" stroke="#000000" d="M1.8708 73.70186H-1.8708"/>
<use data-text="2" xlink:href="#font_3_107" transform="matrix(8.9664,0,0,-8.9664,49.407999,58.905)"/>
<path transform="matrix(1,0,0,-1,62.441,129.621)" stroke-width="1.59404" stroke-linecap="butt" stroke-miterlimit="10" stroke-linejoin="miter" fill="none" stroke="#e3d10a" d="M-22.86711-40.15431-23.4414-41.0288-21.93744-38.67952-20.43344-36.27737-18.92946-33.82011-17.42548-31.31676-15.9215-28.76953-14.4175-26.17732-12.91351-23.55025-11.40952-20.88832-9.90555-18.19489-8.40155-15.479-6.89757-12.73721-5.39359-9.97969-3.8896-7.20644-2.38562-4.42416-.88162-1.63515 .62231 1.15494 2.12631 3.94283 3.63028 6.72847 5.13428 9.50285 6.63826 12.26376 8.14224 15.00665 9.64622 17.72821 11.15024 20.42612 12.6542 23.09367 14.15819 25.72635 15.66219 28.32419 17.16615 30.8804 18.67015 33.39389 20.17413 35.85901 21.67812 38.27016 23.18211 40.62732 24.68611 42.92601 26.19008 45.1651 27.69408 47.34007 29.19806 49.4442 30.70204 51.47748 32.20602 53.43767 33.71 55.32137 35.214 57.12747 36.71799 58.85037 38.22197 60.48778 39.72595 62.03749 41.22995 63.49948 42.73392 64.87149 44.23792 66.14903 45.7419 67.3355 47.24588 68.4196 48.74988 69.40813 50.25388 70.29544 51.75784 71.08379 53.26183 71.77092 54.76582 72.35458 56.26979 72.83142 57.77379 73.20703 59.27777 73.4747 60.78177 73.64 62.28575 73.69962 63.78975 73.65237 65.29372 73.4983 66.79771 73.23964 68.3017 72.87526 69.80566 72.40855 71.30966 71.83727 72.81366 71.1625 74.31764 70.38315 75.82162 69.50597 77.32562 68.52643 78.82959 67.45132 80.33359 66.27948 81.83757 65.01205 83.34155 63.64903 84.84555 62.19493 86.34953 60.6531 87.85352 59.02469 89.35751 57.31305 90.86148 55.51593 92.36546 53.63898 93.86946 51.68666 95.37343 49.659 96.87744 47.56274 98.38142 45.39789 99.8854 43.16443 101.38939 40.87138 102.89339 38.51982 104.39735 36.11319 105.90135 33.65366 107.40533 31.14694 108.9093 28.5952 110.41331 26.00076 111.9173 23.37144 113.42128 20.70726 114.92526 18.01273 116.42926 15.29456 117.93323 12.55165 119.43723 9.793 120.94121 7.01974 122.4452 4.23523 123.94919 1.44734 125.45319-1.34387 126.95715-4.13176 128.46114-6.91628 129.96512-9.69179 131.4691-12.45042 132.9731-15.19447 134.47708-17.91261 135.98108-20.6083 137.48506-23.27362 138.98905-25.90404 140.49303-28.49962 141.99703-31.05246 143.50099-33.56259 145.00499-36.02321 146.50899-38.43211 148.01297-40.78477 149.51696-43.0801 151.02094-45.31578 152.52492-47.48515 154.0289-49.58365 155.5329-51.61357 157.03687-53.56812 158.54088-55.44733 160.04486-57.2478 161.54885-58.96507 163.05283-60.59462 164.55683-62.13983 166.06079-63.59619 167.56478-64.96257 169.06877-66.2345 170.57276-67.41083 172.07675-68.48933 173.58074-69.4711 175.08472-70.35278 176.5887-71.13438 178.09268-71.81477 179.59667-72.38943 181.10066-72.85951 182.60463-73.22726 184.10865-73.49043 185.61263-73.64787 187.1166-73.70073 188.62059-73.64449 190.12458-73.48256 191.62856-73.21826 193.13254-72.84714 194.63654-72.37369 196.14052-71.79453 197.64452-71.11078 199.1485-70.32693 200.65248-69.44186 202.15647-68.45782 203.66046-67.37596 205.16443-66.19626 206.66841-64.92096 208.17243-63.55232 209.67639-62.09372 211.18039-60.54626 212.68437-58.91335 214.18836-57.1927 215.69234-55.3911 217.19634-53.50961 218.7003-51.55171 220.20432-49.52068 221.7083-47.4188 223.21228-45.2472 224.71627-43.01036 226.22023-40.71278 227.72423-38.35788 229.22821-35.94897 230.7322-33.4861 232.23619-30.97485 233.74019-28.41864 235.24416-25.82306 236.74816-23.1915 238.25214-20.52509 239.75612-17.82828 241.2601-15.109 242.7641-12.36496 244.26808-9.6052 245.77208-6.8308 247.27606-4.04741 248.78003-1.2584 250.28403 1.5328 251.78801 4.32181 253.29199 7.1052 254.79598 9.8796 256.29997 12.63712 257.80397 15.37889 259.30796 18.09595 260.81196 20.78822 262.31593 23.45352 263.8199 26.08061 265.32389 28.67395 266.82789 31.22452 268.33186 33.73128 269.83586 36.18852 271.33985 38.59404 272.84385 40.94334 272.2709 40.07022"/>
<path transform="matrix(-.54897,.8358,.8358,.54897,39.573904,169.77532)" d="M3.78581 0-2.27148 3.02866 0 0-2.27148-3.02866" fill="#e3d10a"/>
<path transform="matrix(.5486,-.83603,-.83603,-.5486,334.7119,89.55078)" d="M3.78581 0-2.27148 3.02866 0 0-2.27148-3.02866" fill="#e3d10a"/>
<path transform="matrix(1,0,0,-1,62.441,129.621)" d="M2.2545 0C2.2545 1.24515 1.24515 2.2545 0 2.2545-1.24515 2.2545-2.2545 1.24515-2.2545 0-2.2545-1.24515-1.24515-2.2545 0-2.2545 1.24515-2.2545 2.2545-1.24515 2.2545 0ZM0 0"/>
<path transform="matrix(1,0,0,-1,62.441,129.621)" stroke-width=".49814" stroke-linecap="butt" stroke-miterlimit="10" stroke-linejoin="miter" fill="none" stroke="#ffffff" d="M2.2545 0C2.2545 1.24515 1.24515 2.2545 0 2.2545-1.24515 2.2545-2.2545 1.24515-2.2545 0-2.2545-1.24515-1.24515-2.2545 0-2.2545 1.24515-2.2545 2.2545-1.24515 2.2545 0ZM0 0"/>
<path transform="matrix(1,0,0,-1,62.441,129.621)" d="M64.61783 73.70186C64.61783 74.947 63.60846 75.95638 62.36331 75.95638 61.11816 75.95638 60.1088 74.947 60.1088 73.70186 60.1088 72.45671 61.11816 71.44734 62.36331 71.44734 63.60846 71.44734 64.61783 72.45671 64.61783 73.70186ZM62.36331 73.70186"/>
<path transform="matrix(1,0,0,-1,62.441,129.621)" stroke-width=".49814" stroke-linecap="butt" stroke-miterlimit="10" stroke-linejoin="miter" fill="none" stroke="#ffffff" d="M64.61783 73.70186C64.61783 74.947 63.60846 75.95638 62.36331 75.95638 61.11816 75.95638 60.1088 74.947 60.1088 73.70186 60.1088 72.45671 61.11816 71.44734 62.36331 71.44734 63.60846 71.44734 64.61783 72.45671 64.61783 73.70186ZM62.36331 73.70186"/>
<path transform="matrix(1,0,0,-1,62.441,129.621)" d="M126.98116 0C126.98116 1.24515 125.9718 2.2545 124.72664 2.2545 123.48149 2.2545 122.47214 1.24515 122.47214 0 122.47214-1.24515 123.48149-2.2545 124.72664-2.2545 125.9718-2.2545 126.98116-1.24515 126.98116 0ZM124.72664 0"/>
<path transform="matrix(1,0,0,-1,62.441,129.621)" stroke-width=".49814" stroke-linecap="butt" stroke-miterlimit="10" stroke-linejoin="miter" fill="none" stroke="#ffffff" d="M126.98116 0C126.98116 1.24515 125.9718 2.2545 124.72664 2.2545 123.48149 2.2545 122.47214 1.24515 122.47214 0 122.47214-1.24515 123.48149-2.2545 124.72664-2.2545 125.9718-2.2545 126.98116-1.24515 126.98116 0ZM124.72664 0"/>
<path transform="matrix(1,0,0,-1,62.441,129.621)" d="M189.34449-73.70186C189.34449-72.45671 188.33512-71.44734 187.08997-71.44734 185.84482-71.44734 184.83545-72.45671 184.83545-73.70186 184.83545-74.947 185.84482-75.95638 187.08997-75.95638 188.33512-75.95638 189.34449-74.947 189.34449-73.70186ZM187.08997-73.70186"/>
<path transform="matrix(1,0,0,-1,62.441,129.621)" stroke-width=".49814" stroke-linecap="butt" stroke-miterlimit="10" stroke-linejoin="miter" fill="none" stroke="#ffffff" d="M189.34449-73.70186C189.34449-72.45671 188.33512-71.44734 187.08997-71.44734 185.84482-71.44734 184.83545-72.45671 184.83545-73.70186 184.83545-74.947 185.84482-75.95638 187.08997-75.95638 188.33512-75.95638 189.34449-74.947 189.34449-73.70186ZM187.08997-73.70186"/>
<path transform="matrix(1,0,0,-1,62.441,129.621)" d="M251.70781 0C251.70781 1.24515 250.69844 2.2545 249.4533 2.2545 248.20815 2.2545 247.19879 1.24515 247.19879 0 247.19879-1.24515 248.20815-2.2545 249.4533-2.2545 250.69844-2.2545 251.70781-1.24515 251.70781 0ZM249.4533 0"/>
<path transform="matrix(1,0,0,-1,62.441,129.621)" stroke-width=".49814" stroke-linecap="butt" stroke-miterlimit="10" stroke-linejoin="miter" fill="none" stroke="#ffffff" d="M251.70781 0C251.70781 1.24515 250.69844 2.2545 249.4533 2.2545 248.20815 2.2545 247.19879 1.24515 247.19879 0 247.19879-1.24515 248.20815-2.2545 249.4533-2.2545 250.69844-2.2545 251.70781-1.24515 251.70781 0ZM249.4533 0"/>
<use data-text="(" xlink:href="#font_4_1" transform="matrix(7.9701,0,0,-7.9701,37.440004,124.109)"/>
<use data-text="0" xlink:href="#font_4_4" transform="matrix(7.9701,0,0,-7.9701,41.23377,124.109)"/>
<use data-text="," xlink:href="#font_5_3" transform="matrix(7.9701,0,0,-7.9701,46.119,124.109)"/>
<use data-text="0" xlink:href="#font_4_4" transform="matrix(7.9701,0,0,-7.9701,50.243,124.109)"/>
<use data-text=")" xlink:href="#font_4_2" transform="matrix(7.9701,0,0,-7.9701,55.120706,124.109)"/>
<use data-text="(" xlink:href="#font_4_1" transform="matrix(7.9701,0,0,-7.9701,114.072,50.392007)"/>
<use data-text="2" xlink:href="#font_4_6" transform="matrix(7.9701,0,0,-7.9701,117.86577,50.392007)"/>
<use data-text="," xlink:href="#font_5_3" transform="matrix(7.9701,0,0,-7.9701,122.751,50.392007)"/>
<use data-text="2" xlink:href="#font_4_6" transform="matrix(7.9701,0,0,-7.9701,126.875,50.392007)"/>
<use data-text=")" xlink:href="#font_4_2" transform="matrix(7.9701,0,0,-7.9701,131.7527,50.392007)"/>
<use data-text="(" xlink:href="#font_4_1" transform="matrix(7.9701,0,0,-7.9701,190.705,124.109)"/>
<use data-text="4" xlink:href="#font_4_8" transform="matrix(7.9701,0,0,-7.9701,194.49878,124.109)"/>
<use data-text="," xlink:href="#font_5_3" transform="matrix(7.9701,0,0,-7.9701,199.384,124.109)"/>
<use data-text="0" xlink:href="#font_4_4" transform="matrix(7.9701,0,0,-7.9701,203.50801,124.109)"/>
<use data-text=")" xlink:href="#font_4_2" transform="matrix(7.9701,0,0,-7.9701,208.38571,124.109)"/>
<use data-text="(" xlink:href="#font_4_1" transform="matrix(7.9701,0,0,-7.9701,235.019,212.83499)"/>
<use data-text="6" xlink:href="#font_4_10" transform="matrix(7.9701,0,0,-7.9701,238.81278,212.83499)"/>
<use data-text="," xlink:href="#font_5_3" transform="matrix(7.9701,0,0,-7.9701,243.698,212.83499)"/>
<use data-text="&#x2212;" xlink:href="#font_6_1" transform="matrix(7.9701,0,0,-7.9701,247.822,212.83499)"/>
<use data-text="2" xlink:href="#font_4_6" transform="matrix(7.9701,0,0,-7.9701,255.41501,212.83499)"/>
<use data-text=")" xlink:href="#font_4_2" transform="matrix(7.9701,0,0,-7.9701,260.2927,212.83499)"/>
<use data-text="(" xlink:href="#font_4_1" transform="matrix(7.9701,0,0,-7.9701,286.928,124.109)"/>
<use data-text="8" xlink:href="#font_4_12" transform="matrix(7.9701,0,0,-7.9701,290.72178,124.109)"/>
<use data-text="," xlink:href="#font_5_3" transform="matrix(7.9701,0,0,-7.9701,295.607,124.109)"/>
<use data-text="0" xlink:href="#font_4_4" transform="matrix(7.9701,0,0,-7.9701,299.731,124.109)"/>
<use data-text=")" xlink:href="#font_4_2" transform="matrix(7.9701,0,0,-7.9701,304.6087,124.109)"/>
<use data-text="y" xlink:href="#font_1_8" transform="matrix(9.9626,0,0,-9.9626,260.09904,65.456)" fill="#b6a708"/>
<use data-text="=" xlink:href="#font_7_12" transform="matrix(9.9626,0,0,-9.9626,269.11604,65.456)" fill="#b6a708"/>
<use data-text="2" xlink:href="#font_7_6" transform="matrix(9.9626,0,0,-9.9626,280.78224,65.456)" fill="#b6a708"/>
<use data-text="s" xlink:href="#font_7_17" transform="matrix(9.9626,0,0,-9.9626,288.17448,65.456)" fill="#b6a708"/>
<use data-text="i" xlink:href="#font_7_14" transform="matrix(9.9626,0,0,-9.9626,292.68754,65.456)" fill="#b6a708"/>
<use data-text="n" xlink:href="#font_7_15" transform="matrix(9.9626,0,0,-9.9626,295.8656,65.456)" fill="#b6a708"/>
<use data-text="&#x03c0;" xlink:href="#font_1_1" transform="matrix(9.9626,0,0,-9.9626,305.10603,58.017004)" fill="#b6a708"/>
<path transform="matrix(1,0,0,-1,269.65803,7.8310015)" stroke-width=".3985" stroke-linecap="butt" stroke-miterlimit="10" stroke-linejoin="miter" fill="none" stroke="#b6a708" d="M35.448-55.135H42.616"/>
<use data-text="4" xlink:href="#font_7_8" transform="matrix(9.9626,0,0,-9.9626,305.82603,72.99)" fill="#b6a708"/>
<use data-text="x" xlink:href="#font_1_7" transform="matrix(9.9626,0,0,-9.9626,313.46903,65.45599)" fill="#b6a708"/>
<use data-text="y" xlink:href="#font_8_4" transform="matrix(8.9664,0,0,-8.9664,13.927,144.589)"/>
<use data-text="=" xlink:href="#font_9_13" transform="matrix(8.9664,0,0,-8.9664,22.276001,144.589)"/>
<use data-text="0" xlink:href="#font_9_4" transform="matrix(8.9664,0,0,-8.9664,33.080514,144.589)"/>
<use data-text="m" xlink:href="#font_10_75" transform="matrix(8.9664,0,0,-8.9664,8.989,155.548)"/>
<use data-text="i" xlink:href="#font_10_66" transform="matrix(8.9664,0,0,-8.9664,17.829873,155.548)"/>
<use data-text="d" xlink:href="#font_10_47" transform="matrix(8.9664,0,0,-8.9664,20.779818,155.548)"/>
<use data-text="l" xlink:href="#font_10_72" transform="matrix(8.9664,0,0,-8.9664,26.670742,155.548)"/>
<use data-text="i" xlink:href="#font_10_66" transform="matrix(8.9664,0,0,-8.9664,29.620688,155.548)"/>
<use data-text="n" xlink:href="#font_10_77" transform="matrix(8.9664,0,0,-8.9664,32.570634,155.548)"/>
<use data-text="e" xlink:href="#font_10_50" transform="matrix(8.9664,0,0,-8.9664,38.461557,155.548)"/>
<path transform="matrix(1,0,0,-1,62.441,129.621)" stroke-width=".79701" stroke-linecap="butt" stroke-miterlimit="10" stroke-linejoin="miter" fill="none" stroke="#000000" d="M62.36331 4.66248V69.03938"/>
<path transform="matrix(0,1,1,0,124.80431,124.95852)" d="M4.66248 0C3.28098 .25902 1.0361 1.0361-.51805 1.94269V-1.94269C1.0361-1.0361 3.28098-.25902 4.66248 0"/>
<path transform="matrix(0,-1,-1,-0,124.80431,60.58162)" d="M4.66248 0C3.28098 .25902 1.0361 1.0361-.51805 1.94269V-1.94269C1.0361-1.0361 3.28098-.25902 4.66248 0"/>
<use data-text="a" xlink:href="#font_10_28" transform="matrix(0,-8.9664,-8.9664,-0,119.545,120.473)"/>
<use data-text="m" xlink:href="#font_10_75" transform="matrix(0,-8.9664,-8.9664,-0,119.545,115.31732)"/>
<use data-text="p" xlink:href="#font_10_84" transform="matrix(0,-8.9664,-8.9664,-0,119.545,106.47645)"/>
<use data-text="l" xlink:href="#font_10_72" transform="matrix(0,-8.9664,-8.9664,-0,119.545,100.585529)"/>
<use data-text="i" xlink:href="#font_10_66" transform="matrix(0,-8.9664,-8.9664,-0,119.545,97.63558)"/>
<use data-text="t" xlink:href="#font_10_105" transform="matrix(0,-8.9664,-8.9664,-0,119.545,94.68564)"/>
<use data-text="u" xlink:href="#font_10_109" transform="matrix(0,-8.9664,-8.9664,-0,119.545,90.56109)"/>
<use data-text="d" xlink:href="#font_10_47" transform="matrix(0,-8.9664,-8.9664,-0,119.545,84.670169)"/>
<use data-text="e" xlink:href="#font_10_50" transform="matrix(0,-8.9664,-8.9664,-0,119.545,78.779239)"/>
<use data-text="2" xlink:href="#font_10_107" transform="matrix(0,-8.9664,-8.9664,-0,119.545,70.37772)"/>
<path transform="matrix(1,0,0,-1,62.441,129.621)" stroke-width=".79701" stroke-linecap="butt" stroke-miterlimit="10" stroke-linejoin="miter" fill="none" stroke="#000000" d="M.59775-95.81264H248.85555"/>
<path transform="matrix(-1,-0,0,1,67.900478,225.43364)" d="M4.66248 0C3.28098 .25902 1.0361 1.0361-.51805 1.94269V-1.94269C1.0361-1.0361 3.28098-.25902 4.66248 0"/>
<path transform="matrix(-1,-0,0,1,62.8395,225.43364)" stroke-width=".79701" stroke-linecap="butt" stroke-miterlimit="10" stroke-linejoin="miter" fill="none" stroke="#000000" d="M0 3.08846V-3.08846"/>
<path transform="matrix(1,0,0,-1,306.4348,225.43364)" d="M4.66248 0C3.28098 .25902 1.0361 1.0361-.51805 1.94269V-1.94269C1.0361-1.0361 3.28098-.25902 4.66248 0"/>
<path transform="matrix(1,0,0,-1,311.4958,225.43364)" stroke-width=".79701" stroke-linecap="butt" stroke-miterlimit="10" stroke-linejoin="miter" fill="none" stroke="#000000" d="M0 3.08846V-3.08846"/>
<path transform="matrix(1,0,0,-1,62.441,129.621)" d="M103.87509-101.28816H145.57819V-90.337139H103.87509Z" fill="#ffffff"/>
<use data-text="p" xlink:href="#font_10_84" transform="matrix(8.9664,0,0,-8.9664,167.81099,227.675)"/>
<use data-text="e" xlink:href="#font_10_50" transform="matrix(8.9664,0,0,-8.9664,173.99782,227.675)"/>
<use data-text="r" xlink:href="#font_10_96" transform="matrix(8.9664,0,0,-8.9664,178.86656,227.675)"/>
<use data-text="i" xlink:href="#font_10_66" transform="matrix(8.9664,0,0,-8.9664,183.24217,227.675)"/>
<use data-text="o" xlink:href="#font_10_81" transform="matrix(8.9664,0,0,-8.9664,186.19213,227.675)"/>
<use data-text="d" xlink:href="#font_10_47" transform="matrix(8.9664,0,0,-8.9664,191.79611,227.675)"/>
<use data-text="8" xlink:href="#font_9_12" transform="matrix(8.9664,0,0,-8.9664,201.22,227.675)"/>
</svg>
