<svg style="overflow: visible;" xmlns="http://www.w3.org/2000/svg" xmlns:xlink="http://www.w3.org/1999/xlink" xmlns:inkscape="http://www.inkscape.org/namespaces/inkscape" version="1.1" width="100%" height="100%" viewBox="0 0 388.57 194.58">
<defs>
<path id="font_1_3" d="M.5499878 .39736939C.5169983 .38838197 .49299623 .35838319 .49299623 .32537843 .49299623 .28938294 .5209961 .27539063 .54499819 .27539063 .58299258 .27539063 .62098696 .30638124 .62098696 .35838319 .62098696 .41610719 .56399539 .45210267 .5029907 .45210267 .45498658 .45210267 .4169922 .4250946 .3919983 .39338685 .37799073 .41111756 .34399415 .45210267 .25 .45210267 .117996219 .45210267 .04899597 .3303833 .04899597 .29638673 .04899597 .28138734 .06298828 .28138734 .07499695 .28138734 .09098816 .28138734 .09599304 .28138734 .099990848 .29537965 .1329956 .39338685 .21299744 .41210938 .24398804 .41210938 .30299378 .41210938 .30299378 .37438966 .30299378 .36138917 .30299378 .3423767 .2889862 .28637696 .27999879 .24926758 .27198792 .21914673 .25299073 .14093018 .24699402 .11993408 .23098755 .056930543 .19198609 .032180787 .16099549 .032180787 .13999939 .032180787 .12098694 .04005432 .11099243 .046951295 .14399719 .05593872 .16799927 .0859375 .16799927 .11894226 .16799927 .15493775 .13999939 .16894531 .115997318 .16894531 .07798767 .16894531 .039993287 .13793946 .039993287 .0859375 .039993287 .028182984 .09700012-.0078125 .1579895-.0078125 .20599365-.0078125 .24398804 .019180298 .2689972 .050933839 .2829895 .03315735 .31698609-.0078125 .41099549-.0078125 .54299929-.0078125 .6119995 .11393738 .6119995 .14793396 .6119995 .16394043 .59498599 .16394043 .58599856 .16394043 .56799319 .16394043 .5649872 .16093445 .5609894 .14894104 .5279999 .050933839 .44799806 .032180787 .4169922 .032180787 .35798646 .032180787 .35798646 .06993103 .35798646 .08293152 .35798646 .10194397 .37199403 .15794373 .3809967 .1950531 .3889923 .22517395 .4079895 .3033905 .4139862 .3243866 .42999269 .38739015 .46899415 .41210938 .5 .41210938 .5209961 .41210938 .5399933 .40423585 .5499878 .39736939Z"/>
<path id="font_1_4" d="M.59498599 .3731079C.598999 .38909913 .598999 .394104 .598999 .3981018 .598999 .4320984 .57199099 .44410707 .5509949 .44410707 .49798585 .44410707 .48599244 .3961029 .47898866 .3701172L.45298768 .26612855C.43899537 .21113587 .42599488 .15615845 .41099549 .10116577 .4099884 .09416199 .3659973 .032180787 .30099488 .032180787 .2579956 .032180787 .23799134 .057174684 .23799134 .10417175 .23799134 .16314698 .27198792 .24913025 .29899598 .3171234 .30499269 .33111573 .31098939 .3461151 .31098939 .36210633 .31098939 .41410829 .25898744 .45210267 .19299317 .45210267 .08699036 .45210267 .032989503 .32011415 .032989503 .29612733 .032989503 .28112794 .04699707 .28112794 .05899048 .28112794 .07499695 .28112794 .07998657 .28112794 .083999637 .29512025 .11898804 .4091034 .1769867 .41210938 .18699646 .41210938 .19299317 .41210938 .20399475 .41210938 .20399475 .3901062 .20399475 .36810304 .19299317 .3421173 .18798828 .32911683 .147995 .22813416 .12799073 .17315674 .12799073 .12416077 .12799073 .0231781 .20899964-.0078125 .29299928-.0078125 .30899049-.0078125 .34700013-.0078125 .3919983 .02218628 .36999513-.08416748 .29599-.16210938 .21598816-.16210938 .21398926-.16210938 .18499756-.16210938 .16099549-.15216065 .18399048-.14016724 .20399475-.11515808 .20399475-.0851593 .20399475-.04916382 .17599488-.03515625 .1519928-.03515625 .10899353-.03515625 .07598877-.07316589 .07598877-.11416626 .07598877-.17111206 .13699341-.20211792 .21598816-.20211792 .33799745-.20211792 .47099305-.123168949 .5009918-.0018157959L.59498599 .3731079Z"/>
<path id="font_2_4" d="M.5529938 .34713746C.5569916 .36012269 .56199648 .38111878 .56199648 .38812257 .56199648 .41111756 .5439911 .43511964 .5109863 .43511964 .5009918 .43511964 .47698976 .43211366 .45899964 .41111756 .4149933 .453125 .3600006 .453125 .34399415 .453125 .15699768 .453125 .04798889 .29414369 .04798889 .16116333 .04798889 .04119873 .13899231-.008804321 .23699951-.008804321 .2899933-.008804321 .33999635 .00819397 .3869934 .045196535 .42099-.008804321 .5009918-.008804321 .5079956-.008804321 .6119995-.008804321 .6419983 .1461792 .6419983 .1481781 .6419983 .16616822 .6230011 .16616822 .6139984 .16616822 .58999636 .16616822 .58898928 .16116333 .58399966 .14016724 .56799319 .08018494 .5479889 .033203126 .5139923 .033203126 .4889984 .033203126 .4889984 .059188844 .4889984 .07318115 .4889984 .09017944 .49598695 .12017822 .5019989 .14317322L.5529938 .34713746M.37399293 .10018921C.32499696 .044189454 .2709961 .033203126 .24198914 .033203126 .20098877 .033203126 .16899109 .05519104 .16899109 .11117554 .16899109 .1541748 .19999695 .27815248 .22099304 .3221283 .2539978 .38911439 .3039856 .41111756 .34498597 .41111756 .4139862 .41111756 .43499757 .35913087 .43499757 .35212709 .43499757 .35012818 .43499757 .34812928 .43199159 .3371277L.37399293 .10018921Z"/>
<path id="font_3_1" d="M.8019867 .21617127C.81599429 .21617127 .84999087 .21617127 .84999087 .25016786 .84999087 .2841797 .81599429 .2841797 .8019867 .2841797H.1499939C.13598633 .2841797 .101989749 .2841797 .101989749 .25016786 .101989749 .21617127 .13598633 .21617127 .1499939 .21617127H.8019867Z"/>
<path id="font_4_1" d="M.40699769-.23200989C.40699769-.2250061 .4039917-.22200012 .3919983-.21200562 .2649994-.09700012 .21998596 .07798767 .21998596 .25 .21998596 .42099 .2630005 .59599307 .3899994 .70899966 .4059906 .723999 .40699769 .72499087 .40699769 .7319946 .40699769 .74198916 .40098573 .75 .38598634 .75 .36698915 .75 .31399537 .70500186 .2939911 .6859894 .16899109 .56199648 .11399841 .4099884 .11399841 .25 .11399841 .16099549 .13198853 .039993287 .20599365-.07800293 .2689972-.17800904 .3639984-.25 .38598634-.25 .40098573-.25 .40699769-.2420044 .40699769-.23200989Z"/>
<path id="font_4_4" d="M.56399539 .31925965C.56399539 .4352417 .5549927 .6582031 .30599977 .6582031 .055999757 .6582031 .04798889 .4332428 .04798889 .31925965 .04798889 .20729065 .054992677-.013671875 .30599977-.013671875 .55799868-.013671875 .56399539 .20828247 .56399539 .31925965M.30599977 .028320313C.2789917 .028320313 .25099183 .03831482 .22999573 .05531311 .19799805 .08331299 .18299866 .0973053 .18299866 .33125306 .18299866 .40324403 .18299866 .4762268 .19299317 .5262146 .20599365 .5971985 .2679901 .6161957 .30599977 .6161957 .32998658 .6161957 .4059906 .610199 .42099 .515213 .42900086 .4662323 .42900086 .3892517 .42900086 .33125306 .42900086 .10231018 .4149933 .08830261 .38398744 .05831909 .37599183 .049316408 .34799195 .028320313 .30599977 .028320313Z"/>
<path id="font_2_3" d="M.22099304 .016998291C.21199036-.08493042 .1519928-.1348877 .1309967-.15187073 .11999512-.15986634 .115997318-.16287232 .115997318-.17185974 .115997318-.18086243 .12799073-.19386292 .13899231-.19386292 .15499878-.19386292 .2639923-.106918338 .2639923 .03199768 .2639923 .10499573 .22698975 .1599884 .16899109 .1599884 .12199402 .1599884 .08999634 .12399292 .08999634 .07998657 .08999634 .038986207 .11898804 0 .16999817 0 .18998719 0 .20899964 .0069885256 .22099304 .016998291Z"/>
<path id="font_4_2" d="M.36099244 .25C.36099244 .33898927 .34298707 .45999146 .2689972 .5779877 .20599365 .6779938 .11099243 .75 .08898926 .75 .07199097 .75 .067993167 .7389984 .067993167 .7319946 .067993167 .72499087 .07199097 .72099307 .08299255 .71199038 .20999146 .5970001 .25498963 .42199708 .25498963 .25 .25498963 .07899475 .21199036-.0960083 .084991458-.2090149 .07299805-.22000122 .067993167-.22401428 .067993167-.23200989 .067993167-.23901367 .07199097-.25 .08898926-.25 .10798645-.25 .16099549-.20500183 .18099976-.18600464 .30599977-.06201172 .36099244 .08999634 .36099244 .25Z"/>
<path id="font_2_1" d="M.33599855 .3408203H.44898988C.42199708 .22695923 .41999818 .17901612 .41999818 .14805603 .41999818 .07015991 .44499208-.009765625 .49598695-.009765625 .522995-.009765625 .5669861 .018218995 .5669861 .059173585 .5669861 .073150638 .56399539 .07914734 .55599978 .09112549 .5069885 .16603089 .5029907 .24394226 .5029907 .27789308 .5029907 .30485536 .5049896 .31684876 .5079956 .3408203H.6389923C.6599884 .3408203 .6719971 .3408203 .6899872 .35481263 .70399478 .3658142 .71299746 .38581849 .71299746 .40081788 .71299746 .44381715 .6729889 .44381715 .6559906 .44381715H.23498535C.21099854 .44381715 .16799927 .44381715 .10598755 .3918152 .08999634 .37780763 .03199768 .31884767 .03199768 .30285646 .03199768 .2848816 .04899597 .2848816 .05999756 .2848816 .07699585 .2848816 .07798767 .28588868 .08699036 .296875 .10598755 .31684876 .1349945 .3408203 .21299744 .3408203H.27598573C.25498963 .27789308 .22499085 .2059784 .15699768 .085128787 .14299011 .061157228 .13999939 .05517578 .13999939 .03918457 .13999939 .008224487 .16499329-.008773804 .19099427-.008773804 .21798706-.008773804 .24499512 .008224487 .2559967 .04019165 .2659912 .06616211 .272995 .09411621 .2809906 .12608338L.33599855 .3408203Z"/>
<path id="font_2_5" d="M.2899933 .65078738C.2939911 .66477969 .2939911 .66677859 .2939911 .67277529 .2939911 .68078616 .2889862 .6937866 .269989 .6937866 .2649994 .6937866 .2639923 .6937866 .2619934 .69277957L.1329956 .68678286C.12098694 .68577578 .09899902 .68478396 .09899902 .65478518 .09899902 .63378909 .11898804 .63378909 .1349945 .63378909 .147995 .63378909 .1639862 .63378909 .1639862 .6287842 .1639862 .62579348 .14698792 .55693057 .1309967 .4950409L.07998657 .2931366C.05999756 .2121582 .054992677 .19116211 .054992677 .15916443 .054992677 .049194337 .13198853-.008804321 .23899842-.008804321 .43399049-.008804321 .5359955 .15716553 .5359955 .2831421 .5359955 .39411927 .45599366 .453125 .34700013 .453125 .29699708 .453125 .2559967 .43611146 .23298645 .42311097L.2899933 .65078738M.24099732 .033203126C.1639862 .033203126 .1639862 .10218811 .1639862 .11917114 .1639862 .15916443 .18998719 .25715638 .21199036 .34013368 .21699524 .35812379 .27598573 .41111756 .34199525 .41111756 .3829956 .41111756 .4149933 .39012147 .4149933 .33312989 .4149933 .29014588 .38398744 .16616822 .36299134 .122177127 .32199098 .03919983 .2599945 .033203126 .24099732 .033203126Z"/>
<path id="font_4_6" d="M.5509949 .2280426H.49499513C.4869995 .16200257 .47399903 .14199829 .46798707 .13899231 .45700074 .1329956 .37998963 .1329956 .36299134 .1329956H.22499085C.35899354 .23805237 .41299439 .2680664 .45599366 .30108644 .526001 .35612489 .5509949 .40615846 .5509949 .46316529 .5509949 .58117678 .44198609 .6582031 .2899933 .6582031 .1619873 .6582031 .06098938 .6011963 .06098938 .50717166 .06098938 .4481659 .10899353 .4291687 .13699341 .4291687 .17199707 .4291687 .21398926 .4541626 .21398926 .50616458 .21398926 .5531616 .17999268 .5721588 .16699219 .5771637 .19499207 .5981903 .23498535 .6062012 .2659912 .6062012 .35598756 .6062012 .4059906 .5391693 .4059906 .4621582 .4059906 .38113404 .35299684 .31410218 .2939911 .25906373L.07299805 .052993776C.06199646 .041992189 .06098938 .040985109 .06098938 .020996094V0H.5179901L.5509949 .2280426Z"/>
<path id="font_4_7" d="M.28399659 .32714845C.3999939 .32714845 .40098573 .23034668 .40098573 .18035889 .40098573 .13534546 .40098573 .033325197 .28799439 .033325197 .2669983 .033325197 .20999146 .036315919 .1599884 .068359378 .1769867 .0753479 .21299744 .09635925 .21299744 .14535523 .21299744 .19335938 .1789856 .22634888 .13198853 .22634888 .08799744 .22634888 .050994874 .1963501 .050994874 .14434815 .050994874 .047332765 .15499878-.013671875 .29299928-.013671875 .4889984-.013671875 .5609894 .09234619 .5609894 .1793518 .5609894 .26127626 .49798585 .32914735 .3899994 .35313417 .4169922 .36413575 .5269928 .40715028 .5269928 .51615908 .5269928 .59617617 .44499208 .6582031 .29599 .6582031 .1659851 .6582031 .084991458 .58917239 .084991458 .50717166 .084991458 .45115663 .1289978 .4311676 .15899658 .4311676 .19898987 .4311676 .23298645 .45916749 .23298645 .5051575 .23298645 .52716067 .22499085 .5651703 .1769867 .5771637 .22099304 .6151886 .2809906 .6151886 .2899933 .6151886 .3829956 .6151886 .3829956 .5491638 .3829956 .51916506 .3829956 .4471588 .34899903 .41015626 .34599305 .40615846 .31698609 .37513734 .29899598 .3741455 .24499512 .37113954 .21398926 .36914063 .20399475 .36813355 .20399475 .34814454 .20399475 .32714845 .21699524 .32714845 .23498535 .32714845H.28399659Z"/>
<path id="font_5_1" d="M.7279968 .33398438C.74598696 .33398438 .7639923 .33398438 .7819977 .3499756 .79299929 .3599701 .80400088 .37698365 .80400088 .39797975 .80400088 .44396974 .7599945 .44396974 .74398806 .44396974H.27598573C.25299073 .44396974 .20399475 .44396974 .13598633 .39198304 .115997318 .37698365 .054992677 .32199098 .054992677 .30299378 .054992677 .28201295 .07299805 .28201295 .08999634 .28201295 .11299133 .28201295 .11399841 .28302003 .125 .29501344 .15699768 .3289795 .21099854 .33398438 .2519989 .33398438H.32099916C.28799439 .24205017 .2579956 .1790924 .20199585 .08317566 .19198609 .06617737 .18798828 .060195924 .18798828 .04319763 .18798828 .009231567 .21499634-.008773804 .24299622-.008773804 .2999878-.008773804 .31698609 .045196535 .33799745 .11514282L.3959961 .33398438H.5109863C.5009918 .28800965 .48799134 .22206116 .48799134 .1690979 .48799134 .08117676 .5239868-.009765625 .57899478-.009765625 .61299136-.009765625 .6539917 .025222779 .6539917 .063186649 .6539917 .08016968 .6469879 .090164188 .6389923 .10015869 .59298709 .16210938 .58200076 .22906494 .58200076 .28102113 .58200076 .30699159 .58299258 .31199647 .58599856 .33398438H.7279968Z"/>
<path id="font_6_2" d="M.6159973 .2220459H.54499819C.54299929 .21003723 .5339966 .1459961 .5119934 .14299011 .49198915 .13899231 .44499208 .13899231 .41099549 .13899231H.272995C.2829895 .1459961 .30699159 .16200257 .31599427 .16900635 .48298646 .28208924 .46499635 .2600708 .5209961 .30110169 .57598879 .34213258 .6159973 .38916017 .6159973 .45819093 .6159973 .581192 .5009918 .6582031 .32699586 .6582031 .17098999 .6582031 .07598877 .6031952 .07598877 .5101929 .07598877 .45018006 .12399292 .42918397 .15499878 .42918397 .19299317 .42918397 .23498535 .45518495 .23498535 .5091858 .23498535 .53318789 .22599793 .55918887 .20199585 .57418826 .24198914 .5981903 .2889862 .5981903 .2999878 .5981903 .3999939 .5981903 .46299745 .53718569 .46299745 .45718385 .46299745 .37815858 .3999939 .31210328 .33699037 .26107789L.08999634 .06098938C.07598877 .049987794 .07598877 .04499817 .07598877 .024993897V0H.5799866L.6159973 .2220459Z"/>
<path id="font_5_2" d="M.31999208 .65496829C.32099916 .65997317 .32299806 .66496279 .32299806 .67097476 .32299806 .67297366 .32199098 .6939697 .29599 .6939697 .2809906 .6939697 .13899231 .6859741 .1329956 .6839752 .11399841 .67796328 .11399841 .6499634 .11399841 .64897158 .11399841 .62597659 .13598633 .62597659 .15098572 .62597659 .16899109 .62597659 .18399048 .62597659 .18399048 .6209717 .18399048 .61798098 .17399597 .58000186 .17298889 .5730133L.08898926 .23905945C.083999637 .220047 .07798767 .19404602 .07798767 .16603089 .07798767 .053985597 .15899658-.009017944 .2829895-.009017944 .49198915-.009017944 .598999 .15202332 .598999 .2770691 .598999 .3841095 .519989 .453125 .3889923 .453125 .35099793 .453125 .30899049 .44612123 .2619934 .42311097L.31999208 .65496829M.2849884 .041992189C.24499512 .041992189 .19499207 .056991579 .19499207 .12901306 .19499207 .1570282 .20098877 .18203736 .22200012 .2640686 .22698975 .28607179 .23699951 .32609559 .23799134 .3290863 .24099732 .33509828 .29699708 .40211488 .38398744 .40211488 .45498658 .40211488 .46899415 .35610963 .46899415 .32008363 .46899415 .27607728 .44099427 .16703797 .4189911 .12501526 .3869934 .06599426 .32998658 .041992189 .2849884 .041992189Z"/>
<path id="font_6_4" d="M.20799256 .49327088C.23098755 .49028016 .27799989 .48828126 .2869873 .48828126 .33599855 .48828126 .40299989 .49926759 .46598817 .53627017 .48399354 .5472717 .5629883 .60028079 .5629883 .63227847 .5629883 .65026858 .55400088 .6582794 .5419922 .6582794 .5399933 .6582794 .5379944 .6582794 .5239868 .65327456 .46099855 .63427737 .40098573 .6262665 .34399415 .6262665 .27598573 .6262665 .21798706 .63726809 .1619873 .65426638 .1499939 .6582794 .147995 .6582794 .1459961 .6582794 .125 .6582794 .125 .63827517 .125 .6242676V.32633973C.125 .30036927 .1269989 .29037477 .15899658 .29037477 .1789856 .29037477 .17999268 .29136659 .19099427 .30336 .22999573 .34632875 .2869873 .36132813 .34799195 .36132813 .46299745 .36132813 .46299745 .27038575 .46299745 .20741272 .46299745 .14341736 .46299745 .0413208 .31199647 .0413208 .269989 .0413208 .21398926 .053344728 .17999268 .08641052 .21998596 .10140991 .22799683 .13841248 .22799683 .15641785 .22799683 .19641114 .19898987 .23242188 .1519928 .23242188 .10998535 .23242188 .07598877 .20341492 .07598877 .15541077 .07598877 .05935669 .17298889-.013671875 .31498719-.013671875 .5189972-.013671875 .6159973 .089416507 .6159973 .20141602 .6159973 .30236817 .5389862 .412323 .35299684 .412323 .31498719 .412323 .2579956 .40731813 .20799256 .37931825V.49327088Z"/>
<path id="font_6_3" d="M.2639923 .37425233C.24398804 .3732605 .23399353 .3672638 .23399353 .34825135 .23399353 .32226563 .24899292 .32226563 .2679901 .32226563H.32699586C.45599366 .32226563 .45999146 .22918701 .45999146 .18118286 .45999146 .1381836 .45700074 .0413208 .32998658 .0413208 .31399537 .0413208 .24499512 .0413208 .19198609 .076187137 .21199036 .08718872 .23199463 .111190799 .23199463 .14819336 .23199463 .19718933 .19599915 .23118592 .14898682 .23118592 .102996829 .23118592 .06498718 .20019531 .06498718 .14619446 .06498718 .04928589 .16499329-.013671875 .33399964-.013671875 .5499878-.013671875 .6269989 .093185428 .6269989 .18118286 .6269989 .24620056 .58099368 .32025147 .45498658 .3522644 .5219879 .3772583 .58898928 .4302063 .58898928 .51420596 .58898928 .59220889 .5049896 .6582031 .33699037 .6582031 .19198609 .6582031 .102996829 .59220889 .102996829 .50320437 .102996829 .45021058 .14299011 .4242096 .18099976 .4242096 .22099304 .4242096 .25898744 .45321656 .25898744 .5022125 .25898744 .5512085 .22099304 .57121279 .21299744 .57421877 .22898865 .58621218 .2709961 .6082001 .33198548 .6082001 .42099 .6082001 .43899537 .5622101 .43899537 .51620486 .43899537 .43721009 .38198854 .38024903 .32499696 .3772583L.2639923 .37425233Z"/>
<path id="font_7_8" d="M.57699587 .3771515C.58200076 .3951416 .58200076 .3971405 .58200076 .40014649 .58200076 .4221344 .56599429 .44413758 .5349884 .44413758 .48298646 .44413758 .47099305 .3971405 .46398927 .3701477L.43798829 .26615907C.42599488 .2181549 .40699769 .14117432 .3959961 .10017395 .3909912 .07817078 .3600006 .05418396 .35699464 .05218506 .34599305 .045181276 .32199098 .028182984 .2889862 .028182984 .22999573 .028182984 .22898865 .07817078 .22898865 .10116577 .22898865 .16217041 .2599945 .24015808 .28799439 .31214906 .2979889 .33815003 .30099488 .3451538 .30099488 .3621521 .30099488 .4201355 .24299622 .45214845 .18798828 .45214845 .08198547 .45214845 .03199768 .31614686 .03199768 .29615785 .03199768 .28215028 .04699707 .28215028 .055999757 .28215028 .067993167 .28215028 .07499695 .28215028 .07899475 .29515077 .11199951 .4061432 .16699219 .4161377 .18199158 .4161377 .18899536 .4161377 .19898987 .4161377 .19898987 .3951416 .19898987 .3721466 .18798828 .34614564 .18199158 .33015443 .14299011 .23016358 .12199402 .173172 .12199402 .122177127 .12199402 .008178711 .22200012-.0078125 .2809906-.0078125 .30599977-.0078125 .33999635-.0038146973 .3769989 .02218628 .34899903-.10101318 .27398683-.16615296 .20498657-.16615296 .19198609-.16615296 .1639862-.16415406 .14399719-.15213013 .17599488-.13909912 .19198609-.11204529 .19198609-.0849762 .19198609-.04890442 .16299439-.038879396 .14299011-.038879396 .10598755-.038879396 .070999149-.07095337 .070999149-.11505127 .070999149-.16615296 .12399292-.20214844 .20498657-.20214844 .31999208-.20214844 .45199586-.12506104 .48298646-.0008239746L.57699587 .3771515Z"/>
<path id="font_8_3" d="M.7709961 .3310547C.7859955 .3310547 .81199648 .3310547 .81199648 .35905458 .81199648 .38604737 .7849884 .38604737 .7719879 .38604737H.101989749C.08898926 .38604737 .06199646 .38604737 .06199646 .35905458 .06199646 .3310547 .08799744 .3310547 .102996829 .3310547H.7709961M.7719879 .112960819C.7849884 .112960819 .81199648 .112960819 .81199648 .13995362 .81199648 .16796875 .7859955 .16796875 .7709961 .16796875H.102996829C.08799744 .16796875 .06199646 .16796875 .06199646 .13995362 .06199646 .112960819 .08898926 .112960819 .101989749 .112960819H.7719879Z"/>
<path id="font_7_3" d="M.5149994 .31715394C.5209961 .34214784 .5309906 .3821411 .5309906 .3911438 .5309906 .42314149 .5049896 .4351349 .48399354 .4351349 .46499635 .4351349 .44499208 .42514039 .43299867 .410141 .41799928 .42614747 .3849945 .45214845 .32699586 .45214845 .15299988 .45214845 .04499817 .29415895 .04499817 .15716553 .04499817 .034179689 .13699341-.0078125 .21998596-.0078125 .29100038-.0078125 .34298707 .031173706 .35899354 .046173097 .39698792-.0078125 .46299745-.0078125 .47399903-.0078125 .5109863-.0078125 .5399933 .013183594 .5609894 .049179079 .58599856 .08917236 .598999 .14317322 .598999 .14816284 .598999 .16217041 .58399966 .16217041 .57499697 .16217041 .56399539 .16217041 .55999758 .16217041 .5549927 .15716553 .5529938 .15516663 .5529938 .15316773 .5469971 .12817383 .5269928 .048171998 .5039978 .028182984 .47898866 .028182984 .46798707 .028182984 .45599366 .032180787 .45599366 .06517029 .45599366 .08216858 .45999146 .09817505 .46998597 .13816834 .47698976 .16616822 .4869995 .2061615 .49198915 .22816468L.5149994 .31715394M.34899903 .093170169C.31999208 .059173585 .272995 .028182984 .22499085 .028182984 .16299439 .028182984 .1579895 .08216858 .1579895 .10417175 .1579895 .1561737 .19198609 .27915956 .20799256 .31814576 .23899842 .3911438 .28799439 .4161377 .32899476 .4161377 .3880005 .4161377 .4119873 .36914063 .4119873 .35813905L.4099884 .34414674 .34899903 .093170169Z"/>
<path id="font_8_8" d="M.3769989 .42712403C.3769989 .44612123 .3769989 .453125 .3619995 .453125 .35598756 .453125 .35398866 .453125 .33898927 .4441223 .33499146 .44111634 .32398988 .43411256 .31900025 .43112184 .29100038 .44711305 .2539978 .453125 .21798706 .453125 .18798828 .453125 .037994386 .453125 .037994386 .32312013 .037994386 .21812439 .1619873 .19612122 .19299317 .19113159 .21998596 .18612671 .25299073 .18013 .25698854 .18013 .29699708 .17112732 .33699037 .14613343 .33699037 .10412598 .33699037 .027130127 .24598694 .027130127 .22499085 .027130127 .17399597 .027130127 .11099243 .043136598 .08299255 .14012146 .07699585 .16012573 .07598877 .16113281 .05899048 .16113281 .037994386 .16113281 .037994386 .15812683 .037994386 .13513184V.020126343C.037994386 .0011291504 .037994386-.005859375 .052993776-.005859375 .05999756-.005859375 .06199646-.005859375 .08198547 .010131836L.10798645 .029129029C.15299988-.005859375 .20698548-.005859375 .22499085-.005859375 .27999879-.005859375 .40499879 .006134033 .40499879 .13912964 .40499879 .18713379 .3789978 .22012329 .35899354 .23812866 .31799317 .27212525 .28399659 .27812196 .22999573 .28811646 .1659851 .29911805 .10598755 .31011964 .10598755 .35812379 .10598755 .42311097 .19499207 .42311097 .21598816 .42311097 .32699586 .42311097 .33299256 .3531189 .33499146 .328125 .33599855 .3151245 .34399415 .3151245 .35598756 .3151245 .3769989 .3151245 .3769989 .31811524 .3769989 .3411255V.42712403Z"/>
<path id="font_8_5" d="M.22299195 .6233063C.22299195 .66430667 .18998719 .6953125 .15098572 .6953125 .10998535 .6953125 .07899475 .66130068 .07899475 .6233063 .07899475 .5853119 .10998535 .55130007 .15098572 .55130007 .18998719 .55130007 .22299195 .5823059 .22299195 .6233063M.04699707 .44218446V.39918519C.10598755 .39918519 .11299133 .39918519 .11299133 .36016847V.042999269H.04399109V0C.066986087 .0019989014 .13598633 .0019989014 .16299439 .0019989014 .19099427 .0019989014 .25498963 .0019989014 .2789917 0V.042999269H.21699524V.4501953L.04699707 .44218446Z"/>
<path id="font_8_6" d="M.5309906 .30613709C.5309906 .40118409 .48999024 .4501953 .37998963 .4501953 .30799867 .4501953 .24598694 .41519166 .21199036 .34014894H.21099854V.4501953L.041992189 .44218446V.39918519C.10398865 .39918519 .11099243 .39918519 .11099243 .3601532V.042999269H.041992189V0C.06498718 .0019989014 .13699341 .0019989014 .16499329 .0019989014 .19299317 .0019989014 .2659912 .0019989014 .2889862 0V.042999269H.21998596V.25610353C.21998596 .36416627 .2999878 .41719056 .3639984 .41719056 .40098573 .41719056 .42199708 .39317323 .42199708 .31713868V.042999269H.35299684V0C.37599183 .0019989014 .44799806 .0019989014 .47599793 .0019989014 .5039978 .0019989014 .57699587 .0019989014 .59999087 0V.042999269H.5309906V.30613709Z"/>
<path id="font_7_4" d="M.2809906 .6593323C.2849884 .6733246 .2849884 .6753235 .2849884 .67633059 .2849884 .68933108 .27398683 .69433596 .2630005 .69433596 .25898744 .69433596 .2579956 .69433596 .2559967 .69332888L.1269989 .68733218C.11299133 .6863251 .09498596 .68533328 .09498596 .6573334 .09498596 .639328 .11399841 .639328 .12098694 .639328 .13198853 .639328 .1499939 .639328 .16299439 .6373291 .15499878 .60328677 .14498902 .5602417 .1349945 .5222168L.06599426 .24615479C.051986696 .19017029 .051986696 .17816162 .051986696 .15516663 .051986696 .027175904 .14698792-.0078125 .22200012-.0078125 .40299989-.0078125 .5059967 .15516663 .5059967 .28715516 .5059967 .410141 .4139862 .45214845 .33099366 .45214845 .2829895 .45214845 .24299622 .433136 .22200012 .4201355L.2809906 .6593323M.22399903 .028182984C.18499756 .028182984 .1519928 .049179079 .1519928 .11117554 .1519928 .14317322 .1619873 .18016052 .16899109 .21116638 .1789856 .24916077 .19599915 .31814576 .20298767 .34814454 .20799256 .36514283 .2649994 .4161377 .32598878 .4161377 .3880005 .4161377 .3929901 .3621521 .3929901 .34014894 .3929901 .28814698 .35899354 .16516114 .34298707 .12617493 .30899049 .045181276 .25299073 .028182984 .22399903 .028182984Z"/>
<path id="font_7_7" d="M.5359955 .4011383C.5 .3911438 .48199464 .35714723 .48199464 .33215333 .48199464 .31015016 .49899293 .28614808 .5319977 .28614808 .5669861 .28614808 .60398867 .31515504 .60398867 .364151 .60398867 .41714479 .5509949 .45214845 .48999024 .45214845 .43299867 .45214845 .3959961 .4091339 .3829956 .3911438 .35798646 .433136 .3019867 .45214845 .24499512 .45214845 .11898804 .45214845 .050994874 .32914735 .050994874 .29615785 .050994874 .28215028 .06599426 .28215028 .07499695 .28215028 .08699036 .28215028 .09399414 .28215028 .09799194 .29515077 .1269989 .38613893 .19898987 .4161377 .23999024 .4161377 .27799989 .4161377 .29599 .39814759 .29599 .3661499 .29599 .3471527 .28199769 .29216004 .272995 .2561493L.23899842 .11917114C.22399903 .058181764 .18798828 .028182984 .1539917 .028182984 .14898682 .028182984 .12599182 .028182984 .10598755 .043182374 .14199829 .05317688 .1599884 .08717346 .1599884 .11216736 .1599884 .13417053 .14299011 .1581726 .10998535 .1581726 .07499695 .1581726 .037994386 .12916565 .037994386 .08016968 .037994386 .027175904 .09098816-.0078125 .1519928-.0078125 .20899964-.0078125 .24598694 .035186769 .25898744 .05317688 .28399659 .011184692 .33999635-.0078125 .39698792-.0078125 .522995-.0078125 .59098818 .11517334 .59098818 .14816284 .59098818 .16217041 .57598879 .16217041 .5669861 .16217041 .5549927 .16217041 .5479889 .16217041 .5439911 .14916992 .5149994 .058181764 .44299317 .028182984 .4019928 .028182984 .3639984 .028182984 .34599305 .046173097 .34599305 .07817078 .34599305 .09916687 .35899354 .15216065 .36799623 .18916321 .375 .21516419 .397995 .30915834 .40299989 .32514955 .41799928 .3851471 .45298768 .4161377 .48799134 .4161377 .49299623 .4161377 .5159912 .4161377 .5359955 .4011383Z"/>
<path id="font_9_84" d="M.6389923 .22315979C.6389923 .3481598 .5499878 .45117188 .3889923 .45117188 .33198548 .45117188 .27598573 .43615724 .22799683 .40415956V.45117188L.04598999 .44335938V.39135743C.06498718 .39135743 .08299255 .39135743 .09498596 .38835145 .11199951 .38534547 .11199951 .37434388 .11199951 .35533143V-.14160156H.04598999V-.19360352C.099990848-.1906128 .1349945-.1906128 .17298889-.1906128 .21199036-.1906128 .24598694-.1906128 .2999878-.19360352V-.14160156H.23399353V.03715515C.28599549-.0008392334 .33499146-.0068359377 .36999513-.0068359377 .5339966-.0068359377 .6389923 .08818054 .6389923 .2232666V.22315979M.5039978 .2232666C.5039978 .08918762 .43299867 .03515625 .3600006 .03515625 .31498719 .03515625 .2669983 .057174684 .23399353 .10620117V.34233094C.25099183 .36315919 .30099488 .40415956 .37199403 .40415956 .45098878 .40415956 .5039978 .3371582 .5039978 .22315979V.2232666Z"/>
<path id="font_9_50" d="M.526001 .11508179C.526001 .13604737 .5049896 .13604737 .49798585 .13604737 .48098756 .13604737 .47698976 .13404846 .46899415 .11706543 .43699647 .04714966 .35198976 .040161134 .32398988 .040161134 .17599488 .040161134 .17098999 .15603638 .16899109 .2119751H.49198915C.5130005 .2119751 .526001 .2119751 .526001 .2409668 .526001 .28399659 .5159912 .35003663 .46598817 .3990631 .4099884 .45507813 .31999208 .45507813 .29699708 .45507813 .11898804 .45507813 .033996583 .34402467 .033996583 .2259674 .033996583 .09609985 .13398743-.0068359377 .31199647-.0068359377 .48799134-.0068359377 .526001 .10108948 .526001 .11508179M.42799378 .25097657H.16899109C.16999817 .29100038 .17399597 .41307069 .2979889 .41307069 .42199708 .41307069 .4269867 .2899933 .42799378 .25097657Z"/>
<path id="font_9_96" d="M.47099305 .36416627C.47099305 .41915895 .4149933 .45117188 .35699464 .45117188 .27198792 .45117188 .23098755 .38116456 .21598816 .34317018L.21499634 .344162V.45117188L.04598999 .44335938V.39135743C.10499573 .39135743 .11199951 .39135743 .11199951 .35231019V.051986696H.04598999V0C.10398865 .0029907227 .11399841 .0029907227 .17399597 .0029907227L.30999757 0V.051986696H.22799683V.2141571C.22799683 .2932434 .25898744 .4063568 .35499574 .40934754 .35499574 .40916444 .33898927 .39216615 .33898927 .36416627 .33898927 .3241577 .36799623 .29815675 .40499879 .29815675 .44198609 .29815675 .47099305 .3251648 .47099305 .36416627Z"/>
<path id="font_9_66" d="M.2999878 0V.051986696H.24099732V.45117188L.06199646 .44335938V.39135743C.117996219 .39135743 .125 .39135743 .125 .35331727V.051986696H.05899048V0C.116989139 .0029907227 .12799073 .0029907227 .18099976 .0029907227 .22200012 .0029907227 .25099183 .0029907227 .2999878 0M.25099183 .6053772C.25099183 .6503906 .21299744 .685379 .17098999 .685379 .12599182 .685379 .08999634 .64938357 .08999634 .6053772 .08999634 .560379 .12799073 .5253906 .16999817 .5253906 .21499634 .5253906 .25099183 .5613861 .25099183 .6053772Z"/>
<path id="font_9_81" d="M.5779877 .21810913C.5779877 .3440857 .4889984 .45507813 .30599977 .45507813 .12199402 .45507813 .033996583 .3430786 .033996583 .21810913 .033996583 .09913635 .12199402-.0068359377 .30599977-.0068359377 .49198915-.0068359377 .5779877 .10014343 .5779877 .21810913M.44299317 .2301178C.44299317 .14312744 .44299317 .040161134 .30599977 .040161134 .16899109 .040161134 .16899109 .14312744 .16899109 .2301178 .16899109 .312088 .16899109 .41307069 .30599977 .41307069 .44299317 .41307069 .44299317 .3110962 .44299317 .2301178Z"/>
<path id="font_9_47" d="M.6339874 0V.051986696C.57499697 .051986696 .56799319 .051986696 .56799319 .09101868V.69433596L.38598634 .6855469V.6335449C.44499208 .6335449 .45199586 .6335449 .45199586 .5946808V.40815736C.397995 .4451599 .34599305 .45117188 .30899049 .45117188 .13999939 .45117188 .040985109 .35116578 .040985109 .22215271 .040985109 .091156009 .13798523-.0068359377 .29699708-.0068359377 .36999513-.007003784 .41999818 .021987915 .44599916 .041992189V-.0068359377L.6339874 0M.44599916 .11099243C.39898683 .045150758 .33999635 .03515625 .30599977 .03515625 .17599488 .03515625 .17599488 .15916443 .17599488 .21916199 .17599488 .28216554 .17599488 .40916444 .31900025 .40916444 .36499024 .40916444 .4119873 .39016725 .44599916 .34716798V.11099243Z"/>
<path id="font_10_28" d="M.71598818 .034179689C.71598818 .06712341 .69898989 .06712341 .6779938 .06712341H.6719971C.6589966 .06712341 .621994 .06712341 .6009979 .07710266V.28977967C.6009979 .36997987 .5379944 .4560547 .32499696 .4560547 .2539978 .4560547 .10598755 .4560547 .10598755 .34791566 .10598755 .2998047 .14099121 .27172853 .18099976 .27172853 .22499085 .27172853 .2559967 .30381776 .2559967 .34692384 .2559967 .36395265 .25099183 .38000489 .24198914 .3920288 .2789917 .40003968 .30899049 .40003968 .32598878 .40003968 .41600038 .40003968 .46798707 .3659668 .46798707 .28677369V.2677307C.45498658 .26672364 .35198976 .26872254 .25299073 .25071717 .13398743 .22871399 .057998659 .19378662 .057998659 .11997986 .057998659-.0078125 .25099183-.0078125 .2899933-.0078125 .3880005-.0078125 .46099855 .015182495 .49198915 .060150148 .5 .00018310547 .56999209 .00018310547 .644989 .00018310547 .70899966 .00018310547 .71598818 .00018310547 .71598818 .034179689M.46798707 .13294983C.46798707 .10902405 .46798707 .08308411 .4169922 .06413269 .37599183 .048187257 .32299806 .048187257 .31698609 .048187257 .24598694 .048187257 .19099427 .07510376 .19099427 .12098694 .19099427 .20974732 .41999818 .21772766 .46798707 .21972656V.13294983Z"/>
<path id="font_10_75" d="M1.1799927 0V.066986087H1.1080017V.29508973C1.1080017 .44114686 .98999026 .45214845 .91400149 .45214845 .84999087 .45214845 .7630005 .43914796 .69699099 .3571167 .6689911 .42913819 .6100006 .45214845 .5109863 .45214845 .37199403 .45214845 .30799867 .38012696 .2849884 .3451233V.45214845L.09700012 .44433595V.3773346C.16099549 .3773346 .16899109 .3773346 .16899109 .33828736V.066986087H.09700012V0L.23599243 .0039978029C.272995 .0039978029 .32998658 .0029907227 .37399293 0V.066986087H.3019867V.2421875C.3019867 .36412049 .4269867 .39613343 .4869995 .39613343 .5509949 .39613343 .57199099 .37213136 .57199099 .29708863V.066986087H.5V0L.6389923 .0039978029C.6759949 .0039978029 .73298647 .0029907227 .7769928 0V.066986087H.7049866V.24206543C.7049866 .36412049 .8299866 .39613343 .8899994 .39613343 .95399478 .39613343 .97499087 .37213136 .97499087 .29708863V.066986087H.9029999V0L1.0419922 .0039978029C1.0789948 .0039978029 1.1360016 .0029907227 1.1799927 0Z"/>
<path id="font_10_84" d="M.7739868 .22314453C.7739868 .33114625 .69299319 .45214845 .48399354 .45214845 .44499208 .45214845 .36099244 .44914247 .2809906 .4081421V.45214845L.083999637 .44433595V.3773346H.100997928C.1559906 .3773346 .1559906 .37132264 .1559906 .3433075V-.12695313H.083999637V-.19395447L.22200012-.18995667 .36099244-.19395447V-.12695313H.2889862V.03718567C.31698609 .020187378 .375-.0078125 .45999146-.0078125 .6689911-.0078125 .7739868 .10119629 .7739868 .22325135V.22314453M.6239929 .22225952C.6239929 .112213138 .5499878 .048187257 .44499208 .048187257 .397995 .048187257 .33799745 .063186649 .2889862 .1282196V.32730104C.33999635 .3801422 .41799928 .39013673 .45799256 .39013673 .56799319 .39013673 .6239929 .31814576 .6239929 .22213745V.22225952Z"/>
<path id="font_10_72" d="M.36999513 0V.066986087H.2979889V.69433596L.100997928 .6855469V.61854556C.16499329 .61854556 .17298889 .61854556 .17298889 .5795746V.066986087H.100997928V0C.1459961 .0029907227 .18998719 .0039978029 .23498535 .0039978029 .23899842 .0039978029 .31698609 .0039978029 .36999513 0Z"/>
<path id="font_10_66" d="M.36299134 0V.066986087H.2979889V.45214845L.10398865 .44433595V.3773346C.1659851 .3773346 .17298889 .3773346 .17298889 .33828736V.066986087H.100997928V0C.14498902 .0029907227 .18998719 .0039978029 .23399353 .0039978029 .2769928 .0039978029 .31999208 .0029907227 .36299134 0M.3039856 .60250857C.3039856 .6505127 .2639923 .68652346 .21798706 .68652346 .16999817 .68652346 .13198853 .6485138 .13198853 .6035156 .13198853 .5555115 .17199707 .519516 .21798706 .519516 .2659912 .519516 .3039856 .5575104 .3039856 .60250857Z"/>
<path id="font_10_105" d="M.49899293 .1191864V.1671753H.41600038V.123184207C.41600038 .093185428 .4059906 .05418396 .34799195 .05418396 .2849884 .054092409 .2849884 .09408569 .2849884 .12109375V.3773346H.47499085V.44433595H.2849884V.6357422H.20199585C.19999695 .53352358 .1459961 .43632508 .04399109 .43333436V.3773346H.1519928V.11820984C.1519928 .0051727297 .26098634-.0078125 .32598878-.0078125 .39898683-.0078125 .49899293 .018173218 .49899293 .11921692V.1191864Z"/>
<path id="font_10_109" d="M.776001 .00018310547V.06718445C.71199038 .06718445 .70399478 .06718445 .70399478 .106170658V.45214845L.49899293 .44433595V.3773346C.5629883 .3773346 .57099917 .3773346 .57099917 .3383026V.15823365C.57099917 .06518555 .47399903 .048187257 .4059906 .048187257 .3019867 .048187257 .3019867 .06819153 .3019867 .112213138V.45214845L.09700012 .44433595V.3773346C.16099549 .3773346 .16899109 .3773346 .16899109 .3383026V.11820984C.16899109 .0021820069 .2899933-.0078125 .3849945-.0078125 .4189911-.0078125 .5139923-.0078125 .57899478 .05718994V-.0078125L.776001 .00018310547Z"/>
<path id="font_10_47" d="M.7549896 .00018310547V.06718445C.69099429 .06718445 .68299868 .06718445 .68299868 .10618591V.69433596L.48599244 .6855469V.61854556C.5499878 .61854556 .55799868 .61854556 .55799868 .5796814V.41114808C.5179901 .43214417 .45700074 .45214845 .37799073 .45214845 .1639862 .45214845 .06498718 .34014894 .06498718 .22116089 .06498718 .11216736 .1519928-.0078125 .3639984-.0078125 .44099427-.0078125 .5039978 .013183594 .5499878 .04118347V-.0078125L.7549896 .00018310547M.5499878 .13198853C.5 .06817627 .43499757 .048187257 .37799073 .048187257 .21499634 .048187257 .21499634 .16716004 .21499634 .22015381 .21499634 .27415467 .21499634 .39613343 .3929901 .39613343 .43699647 .39613343 .4869995 .3851471 .5289917 .3511505 .5499878 .33415223 .5499878 .33314515 .5499878 .31315614V.13198853Z"/>
<path id="font_10_50" d="M.6349945 .11022949C.6349945 .1352539 .61099246 .1352539 .5970001 .1352539H.58999636C.57099917 .1352539 .5629883 .1352539 .55400088 .12124634 .5439911 .10221863 .5159912 .05418396 .4099884 .05418396 .2829895 .05418396 .21699524 .10322571 .20799256 .19726563H.5970001C.61698916 .19726563 .6349945 .19726563 .6349945 .22921753 .6349945 .2871704 .61299136 .35508729 .57099917 .39305116 .5249939 .43304444 .46499635 .4560547 .3659973 .4560547 .14199829 .4560547 .056991579 .33311463 .056991579 .2262268 .056991579 .12023926 .14199829-.0078125 .3869934-.0078125 .4119873-.0078125 .48098756-.0078125 .54100039 .016174317 .60899356 .04335022 .6349945 .096343997 .6349945 .11035156V.11022949M.5339966 .24804688H.20799256C.20899964 .28404237 .21099854 .40003968 .36698915 .40003968 .5029907 .40003968 .5289917 .31504823 .5339966 .24804688Z"/>
<path id="font_11_1" d="M.4850006 .14419556C.47999574 .12619019 .47999574 .124191287 .46299745 .10620117 .44299317 .08520508 .3899994 .04623413 .31999208 .04623413 .2709961 .04623413 .22399903 .06222534 .22399903 .13020325 .22399903 .15917969 .24398804 .26715089 .2769928 .3221283 .30599977 .3691101 .35899354 .39808656 .41799928 .39808656 .5130005 .39808656 .5299988 .33111573 .5299988 .32511903 .5299988 .32312013 .5279999 .3121338 .5269928 .3101349L.4850006 .14419556M.56199648 .41108705C.5209961 .44309999 .46998597 .45410157 .4189911 .45410157 .20298767 .45410157 .08799744 .30014039 .08799744 .1711731 .08799744 .052230836 .18199158-.009765625 .31399537-.009765625 .39698792-.009765625 .45700074 .019226075 .49198915 .04222107 .5299988-.0067749025 .6119995-.009765625 .6329956-.009765625 .7480011-.009765625 .7939911 .13018799 .7939911 .1481781 .7939911 .17016602 .7739868 .17016602 .7519989 .17016602 .71798709 .17016602 .71499636 .17016602 .70700076 .14117432 .70199587 .12019348 .68099978 .04623413 .6399994 .04623413 .6239929 .04623413 .6029968 .056228639 .6029968 .08821106 .6029968 .10719299 .6469879 .2741089 .6549988 .30708314 .6619873 .33207704 .6719971 .37104798 .6719971 .38204957 .6719971 .41903688 .6429901 .43502809 .61698916 .43502809 .58599856 .43502809 .5649872 .41403199 .56199648 .411026V.41108705Z"/>
</defs>
<path transform="matrix(1,0,0,-1,135.919,97.803)" stroke-width=".79701" stroke-linecap="butt" stroke-miterlimit="10" stroke-linejoin="miter" fill="none" stroke="#000000" d="M-113.82791 0H229.19998"/>
<path transform="matrix(-1,-0,0,1,22.091095,97.803)" d="M4.66248 0C3.28098 .25902 1.0361 1.0361-.51805 1.94269V-1.94269C1.0361-1.0361 3.28098-.25902 4.66248 0"/>
<path transform="matrix(1,0,0,-1,365.119,97.803)" d="M4.66248 0C3.28098 .25902 1.0361 1.0361-.51805 1.94269V-1.94269C1.0361-1.0361 3.28098-.25902 4.66248 0"/>
<use data-text="x" xlink:href="#font_1_3" transform="matrix(8.9664,0,0,-8.9664,373.501,99.796)"/>
<path transform="matrix(1,0,0,-1,135.919,97.803)" stroke-width=".79701" stroke-linecap="butt" stroke-miterlimit="10" stroke-linejoin="miter" fill="none" stroke="#000000" d="M0-86.04723V74.70865"/>
<path transform="matrix(0,1,1,0,135.919,183.85024)" d="M4.66248 0C3.28098 .25902 1.0361 1.0361-.51805 1.94269V-1.94269C1.0361-1.0361 3.28098-.25902 4.66248 0"/>
<path transform="matrix(0,-1,-1,-0,135.919,23.094353)" d="M4.66248 0C3.28098 .25902 1.0361 1.0361-.51805 1.94269V-1.94269C1.0361-1.0361 3.28098-.25902 4.66248 0"/>
<use data-text="y" xlink:href="#font_1_4" transform="matrix(8.9664,0,0,-8.9664,133.02402,12.969002)"/>
<path transform="matrix(1,0,0,-1,135.919,97.803)" stroke-width=".79701" stroke-linecap="butt" stroke-miterlimit="10" stroke-linejoin="miter" fill="none" stroke="#000000" d="M1.55916 51.02432H-1.55916"/>
<use data-text="a" xlink:href="#font_2_4" transform="matrix(7.9701,0,0,-7.9701,123.83301,48.550004)"/>
<path transform="matrix(1,0,0,-1,135.919,97.803)" stroke-width=".79701" stroke-linecap="butt" stroke-miterlimit="10" stroke-linejoin="miter" fill="none" stroke="#000000" d="M1.55916-51.02432H-1.55916"/>
<use data-text="&#x2212;" xlink:href="#font_3_1" transform="matrix(7.9701,0,0,-7.9701,116.239009,150.82)"/>
<use data-text="a" xlink:href="#font_2_4" transform="matrix(7.9701,0,0,-7.9701,123.83301,150.82)"/>
<path transform="matrix(1,0,0,-1,135.919,97.803)" stroke-width="1.59404" stroke-linecap="butt" stroke-miterlimit="10" stroke-linejoin="miter" fill="none" stroke="#000000" d="M-84.44879 46.04596-86.14447 47.51645-84.9802 46.34557-83.81593 45.01595-82.65166 43.52975-81.48738 41.89519-80.3231 40.11572-79.15884 38.19785-77.99457 36.15108-76.83032 33.97714-75.66605 31.68771-74.50177 29.29016-73.3375 26.79053-72.17322 24.19919-71.00897 21.52481-69.8447 18.77559-68.68044 15.9628-67.51616 13.09464-66.35188 10.18106-65.18762 7.23332-64.02335 4.26006-62.85909 1.27295-61.69481-1.71716-60.53055-4.70383-59.36629-7.67407-58.20201-10.61792-57.03773-13.52414-55.87346-16.38539-54.7092-19.18997-53.54492-21.92749-52.38066-24.5902-51.2164-27.16856-50.05212-29.65219-48.88785-32.0372-47.72357-34.3089-46.55933-36.46336-45.39505-38.4937-44.23077-40.38953-43.06651-42.14778-41.90224-43.76158-40.73798-45.22313-39.5737-46.53026-38.40944-47.67693-37.24516-48.6605-36.08089-49.47714-34.91664-50.12163-33.75237-50.59438-32.58809-50.895-31.42381-51.0187-30.25955-50.96637-29.09528-50.74144-27.93102-50.33876-26.76674-49.7652-25.60248-49.02081-24.4382-48.10513-23.27393-47.02681-22.10968-45.78586-20.9454-44.38661-19.78113-42.83595-18.61685-41.1378-17.45259-39.29736-16.28833-37.32368-15.12405-35.21852-13.9598-32.99486-12.79552-30.65741-11.63124-28.2127-10.46696-25.67241-9.30272-23.04475-8.13844-20.33533-6.97417-17.558-5.8099-14.71925-4.64563-11.83032-3.48137-8.90118-2.3171-5.94046-1.15282-2.96071 .0114 .02766 1.17567 3.01823 2.33992 5.99928 3.5042 8.95871 4.66847 11.88786 5.83275 14.77635 6.99702 17.61337 8.16127 20.38983 9.32555 23.09665 10.4898 25.72388 11.65408 28.26245 12.81836 30.70413 13.98264 33.03897 15.1469 35.26178 16.31116 37.36261 17.47543 39.3337 18.6397 41.17285 19.80397 42.8684 20.96823 44.41559 22.1325 45.81139 23.29678 47.04932 24.46104 48.12546 25.62532 49.03639 26.78957 49.77776 27.95384 50.34828 29.11812 50.74751 30.2824 50.96896 31.44667 51.01785 32.61095 50.89024 33.77519 50.5866 34.93945 50.11168 36.10373 49.46245 37.268 48.64233 38.43228 47.65746 39.59654 46.50517 40.76082 45.19588 41.92508 43.73044 43.08934 42.11404 44.25362 40.3536 45.41788 38.45477 46.58215 36.42271 47.74643 34.26521 48.9107 31.9905 50.07497 29.60506 51.23921 27.11969 52.40349 24.53958 53.56776 21.87386 54.73204 19.13547 55.89632 16.33046 57.0606 13.46748 58.22485 10.5604 59.3891 7.61655 60.55338 4.64545 61.71765 1.65877 62.88193-1.33176 64.04619-4.31845 65.21046-7.29128 66.37474-10.23946 67.53899-13.15216 68.70326-16.01816 69.86752-18.8301 71.0318-21.57802 72.19608-24.25066 73.36035-26.84027 74.52463-29.33861 75.68886-31.73357 76.85313-34.02168 78.01741-36.19174 79.18169-38.23764 80.34596-40.15292 81.51024-41.92805 82.6745-43.56001 83.83876-45.0445 85.00302-46.36978 86.1673-47.53851 87.33157-48.54414 88.49583-49.38069 89.66011-50.04852 90.82439-50.54378 91.98865-50.86385 93.15291-51.01222 94.31717-50.98367 95.48145-50.77864 96.64572-50.4019 97.81-49.84912 98.97427-49.12505 100.13853-48.23532 101.30278-47.17474 102.46706-45.95499 103.63133-44.57735 104.79561-43.04443 105.95988-41.36533 107.12415-39.54347 108.2884-37.58537 109.45268-35.49796 110.61694-33.28899 111.78122-30.96495 112.94548-28.53494 114.10976-26.00633 115.27403-23.38817 116.4383-20.69087 117.60257-17.9209 118.76682-15.08907 119.93109-12.2062 121.09537-9.28181 122.25964-6.32498 123.42392-3.3461 124.58818-.3564 125.75244 2.6337 126.9167 5.61562 128.08098 8.57893 129.24526 11.51155 130.40953 14.40565 131.57379 17.25133 132.73805 20.03558 133.90233 22.75104 135.0666 25.38953 136.23087 27.94022 137.39513 30.39357 138.5594 32.74484 139.72368 34.98236 140.88794 37.09877 142.05222 39.08844 143.21649 40.94316 144.38074 42.65775 145.54502 44.2257 146.70929 45.63966 147.87357 46.89836 149.03783 47.997 150.20209 48.92738 151.36637 49.69254 152.53063 50.28513 153.6949 50.70424 154.85918 50.95166 156.02344 51.02087 157.1877 50.91577 158.35198 50.6372 159.51625 50.1809 160.68053 49.55586 161.84477 48.75783 163.00905 47.7924 164.17333 46.66391 165.33759 45.37321 166.50186 43.92725 167.66614 42.33205 168.8304 40.58893 169.99466 38.70651 171.15894 36.69218 172.32321 34.55026 173.48748 32.29024 174.65174 29.91864 175.81601 27.44496 176.98029 24.87741 178.14455 22.22249 179.30883 19.49144 180.47309 16.69553 181.63735 13.83946 182.80162 10.93715 183.9659 7.99718 185.13018 5.02954 186.29445 2.04416 187.4587-.94595 188.62297-3.93478 189.78723-6.9089 190.9515-9.86098 192.11579-12.77759 193.28005-15.65224 194.44432-18.47066 195.60858-21.22679 196.77285-23.91112 197.93712-26.51155 199.10138-29.02112 200.26566-31.43208 201.42993-33.73363 200.81389-32.57742"/>
<path transform="matrix(-.75543,-.6552,-.6552,.75543,51.470216,51.757043)" d="M3.78581 0-2.27148 3.02866 0 0-2.27148-3.02866"/>
<path transform="matrix(.47026,.88249,.88249,-.47026,336.73289,130.38042)" d="M3.78581 0-2.27148 3.02866 0 0-2.27148-3.02866"/>
<path transform="matrix(1,0,0,-1,135.919,97.803)" d="M1.83177 0C1.83177 1.01166 1.01166 1.83177 0 1.83177-1.01166 1.83177-1.83177 1.01166-1.83177 0-1.83177-1.01166-1.01166-1.83177 0-1.83177 1.01166-1.83177 1.83177-1.01166 1.83177 0ZM0 0"/>
<path transform="matrix(1,0,0,-1,135.919,97.803)" stroke-width=".3985" stroke-linecap="butt" stroke-miterlimit="10" stroke-linejoin="miter" fill="none" stroke="#ffffff" d="M1.83177 0C1.83177 1.01166 1.01166 1.83177 0 1.83177-1.01166 1.83177-1.83177 1.01166-1.83177 0-1.83177-1.01166-1.01166-1.83177 0-1.83177 1.01166-1.83177 1.83177-1.01166 1.83177 0ZM0 0"/>
<path transform="matrix(1,0,0,-1,135.919,97.803)" d="M-60.53154 0C-60.53154 1.01166-61.35165 1.83177-62.36331 1.83177-63.37497 1.83177-64.19508 1.01166-64.19508 0-64.19508-1.01166-63.37497-1.83177-62.36331-1.83177-61.35165-1.83177-60.53154-1.01166-60.53154 0ZM-62.36331 0"/>
<path transform="matrix(1,0,0,-1,135.919,97.803)" stroke-width=".3985" stroke-linecap="butt" stroke-miterlimit="10" stroke-linejoin="miter" fill="none" stroke="#ffffff" d="M-60.53154 0C-60.53154 1.01166-61.35165 1.83177-62.36331 1.83177-63.37497 1.83177-64.19508 1.01166-64.19508 0-64.19508-1.01166-63.37497-1.83177-62.36331-1.83177-61.35165-1.83177-60.53154-1.01166-60.53154 0ZM-62.36331 0"/>
<path transform="matrix(1,0,0,-1,135.919,97.803)" d="M64.19508 0C64.19508 1.01166 63.37497 1.83177 62.36331 1.83177 61.35165 1.83177 60.53154 1.01166 60.53154 0 60.53154-1.01166 61.35165-1.83177 62.36331-1.83177 63.37497-1.83177 64.19508-1.01166 64.19508 0ZM62.36331 0"/>
<path transform="matrix(1,0,0,-1,135.919,97.803)" stroke-width=".3985" stroke-linecap="butt" stroke-miterlimit="10" stroke-linejoin="miter" fill="none" stroke="#ffffff" d="M64.19508 0C64.19508 1.01166 63.37497 1.83177 62.36331 1.83177 61.35165 1.83177 60.53154 1.01166 60.53154 0 60.53154-1.01166 61.35165-1.83177 62.36331-1.83177 63.37497-1.83177 64.19508-1.01166 64.19508 0ZM62.36331 0"/>
<path transform="matrix(1,0,0,-1,135.919,97.803)" d="M126.55843 0C126.55843 1.01166 125.73831 1.83177 124.72664 1.83177 123.71498 1.83177 122.89487 1.01166 122.89487 0 122.89487-1.01166 123.71498-1.83177 124.72664-1.83177 125.73831-1.83177 126.55843-1.01166 126.55843 0ZM124.72664 0"/>
<path transform="matrix(1,0,0,-1,135.919,97.803)" stroke-width=".3985" stroke-linecap="butt" stroke-miterlimit="10" stroke-linejoin="miter" fill="none" stroke="#ffffff" d="M126.55843 0C126.55843 1.01166 125.73831 1.83177 124.72664 1.83177 123.71498 1.83177 122.89487 1.01166 122.89487 0 122.89487-1.01166 123.71498-1.83177 124.72664-1.83177 125.73831-1.83177 126.55843-1.01166 126.55843 0ZM124.72664 0"/>
<path transform="matrix(1,0,0,-1,135.919,97.803)" d="M188.92174 0C188.92174 1.01166 188.10163 1.83177 187.08997 1.83177 186.07831 1.83177 185.2582 1.01166 185.2582 0 185.2582-1.01166 186.07831-1.83177 187.08997-1.83177 188.10163-1.83177 188.92174-1.01166 188.92174 0ZM187.08997 0"/>
<path transform="matrix(1,0,0,-1,135.919,97.803)" stroke-width=".3985" stroke-linecap="butt" stroke-miterlimit="10" stroke-linejoin="miter" fill="none" stroke="#ffffff" d="M188.92174 0C188.92174 1.01166 188.10163 1.83177 187.08997 1.83177 186.07831 1.83177 185.2582 1.01166 185.2582 0 185.2582-1.01166 186.07831-1.83177 187.08997-1.83177 188.10163-1.83177 188.92174-1.01166 188.92174 0ZM187.08997 0"/>
<path transform="matrix(1,0,0,-1,135.919,97.803)" d="M33.01343 51.02432C33.01343 52.03598 32.19331 52.8561 31.18166 52.8561 30.17 52.8561 29.34987 52.03598 29.34987 51.02432 29.34987 50.01266 30.17 49.19255 31.18166 49.19255 32.19331 49.19255 33.01343 50.01266 33.01343 51.02432ZM31.18166 51.02432"/>
<path transform="matrix(1,0,0,-1,135.919,97.803)" stroke-width=".3985" stroke-linecap="butt" stroke-miterlimit="10" stroke-linejoin="miter" fill="none" stroke="#ffffff" d="M33.01343 51.02432C33.01343 52.03598 32.19331 52.8561 31.18166 52.8561 30.17 52.8561 29.34987 52.03598 29.34987 51.02432 29.34987 50.01266 30.17 49.19255 31.18166 49.19255 32.19331 49.19255 33.01343 50.01266 33.01343 51.02432ZM31.18166 51.02432"/>
<path transform="matrix(1,0,0,-1,135.919,97.803)" d="M157.74008 51.02432C157.74008 52.03598 156.91997 52.8561 155.90831 52.8561 154.89664 52.8561 154.07653 52.03598 154.07653 51.02432 154.07653 50.01266 154.89664 49.19255 155.90831 49.19255 156.91997 49.19255 157.74008 50.01266 157.74008 51.02432ZM155.90831 51.02432"/>
<path transform="matrix(1,0,0,-1,135.919,97.803)" stroke-width=".3985" stroke-linecap="butt" stroke-miterlimit="10" stroke-linejoin="miter" fill="none" stroke="#ffffff" d="M157.74008 51.02432C157.74008 52.03598 156.91997 52.8561 155.90831 52.8561 154.89664 52.8561 154.07653 52.03598 154.07653 51.02432 154.07653 50.01266 154.89664 49.19255 155.90831 49.19255 156.91997 49.19255 157.74008 50.01266 157.74008 51.02432ZM155.90831 51.02432"/>
<path transform="matrix(1,0,0,-1,135.919,97.803)" d="M-29.34987-51.02432C-29.34987-50.01266-30.17-49.19255-31.18166-49.19255-32.19331-49.19255-33.01343-50.01266-33.01343-51.02432-33.01343-52.03598-32.19331-52.8561-31.18166-52.8561-30.17-52.8561-29.34987-52.03598-29.34987-51.02432ZM-31.18166-51.02432"/>
<path transform="matrix(1,0,0,-1,135.919,97.803)" stroke-width=".3985" stroke-linecap="butt" stroke-miterlimit="10" stroke-linejoin="miter" fill="none" stroke="#ffffff" d="M-29.34987-51.02432C-29.34987-50.01266-30.17-49.19255-31.18166-49.19255-32.19331-49.19255-33.01343-50.01266-33.01343-51.02432-33.01343-52.03598-32.19331-52.8561-31.18166-52.8561-30.17-52.8561-29.34987-52.03598-29.34987-51.02432ZM-31.18166-51.02432"/>
<path transform="matrix(1,0,0,-1,135.919,97.803)" d="M95.37675-51.02432C95.37675-50.01266 94.55663-49.19255 93.54497-49.19255 92.53331-49.19255 91.7132-50.01266 91.7132-51.02432 91.7132-52.03598 92.53331-52.8561 93.54497-52.8561 94.55663-52.8561 95.37675-52.03598 95.37675-51.02432ZM93.54497-51.02432"/>
<path transform="matrix(1,0,0,-1,135.919,97.803)" stroke-width=".3985" stroke-linecap="butt" stroke-miterlimit="10" stroke-linejoin="miter" fill="none" stroke="#ffffff" d="M95.37675-51.02432C95.37675-50.01266 94.55663-49.19255 93.54497-49.19255 92.53331-49.19255 91.7132-50.01266 91.7132-51.02432 91.7132-52.03598 92.53331-52.8561 93.54497-52.8561 94.55663-52.8561 95.37675-52.03598 95.37675-51.02432ZM93.54497-51.02432"/>
<use data-text="(" xlink:href="#font_4_1" transform="matrix(7.9701,0,0,-7.9701,139.439,107.3)"/>
<use data-text="0" xlink:href="#font_4_4" transform="matrix(7.9701,0,0,-7.9701,143.23278,107.3)"/>
<use data-text="," xlink:href="#font_2_3" transform="matrix(7.9701,0,0,-7.9701,148.11801,107.3)"/>
<use data-text="0" xlink:href="#font_4_4" transform="matrix(7.9701,0,0,-7.9701,152.241,107.3)"/>
<use data-text=")" xlink:href="#font_4_2" transform="matrix(7.9701,0,0,-7.9701,157.11872,107.3)"/>
<use data-text="(" xlink:href="#font_4_1" transform="matrix(7.9701,0,0,-7.9701,37.338006,110.415)"/>
<use data-text="&#x2212;" xlink:href="#font_3_1" transform="matrix(7.9701,0,0,-7.9701,41.135004,110.415)"/>
<use data-text="&#x03c0;" xlink:href="#font_2_1" transform="matrix(7.9701,0,0,-7.9701,49.925004,104.866)"/>
<path transform="matrix(1,0,0,-1,-26.580994,84.608)" stroke-width=".3587" stroke-linecap="butt" stroke-miterlimit="10" stroke-linejoin="miter" fill="none" stroke="#000000" d="M76.506-23.815H82.619"/>
<use data-text="b" xlink:href="#font_2_5" transform="matrix(7.9701,0,0,-7.9701,50.787004,116.386)"/>
<use data-text="," xlink:href="#font_2_3" transform="matrix(7.9701,0,0,-7.9701,57.233,110.415)"/>
<use data-text="0" xlink:href="#font_4_4" transform="matrix(7.9701,0,0,-7.9701,61.357004,110.415)"/>
<use data-text=")" xlink:href="#font_4_2" transform="matrix(7.9701,0,0,-7.9701,66.2347,110.415)"/>
<use data-text="(" xlink:href="#font_4_1" transform="matrix(7.9701,0,0,-7.9701,207.47101,110.415)"/>
<use data-text="&#x03c0;" xlink:href="#font_2_1" transform="matrix(7.9701,0,0,-7.9701,212.464,104.866)"/>
<path transform="matrix(1,0,0,-1,143.552,84.608)" stroke-width=".3587" stroke-linecap="butt" stroke-miterlimit="10" stroke-linejoin="miter" fill="none" stroke="#000000" d="M68.912-23.815H75.025"/>
<use data-text="b" xlink:href="#font_2_5" transform="matrix(7.9701,0,0,-7.9701,213.326,116.386)"/>
<use data-text="," xlink:href="#font_2_3" transform="matrix(7.9701,0,0,-7.9701,219.77301,110.415)"/>
<use data-text="0" xlink:href="#font_4_4" transform="matrix(7.9701,0,0,-7.9701,223.896,110.415)"/>
<use data-text=")" xlink:href="#font_4_2" transform="matrix(7.9701,0,0,-7.9701,228.77371,110.415)"/>
<use data-text="(" xlink:href="#font_4_1" transform="matrix(7.9701,0,0,-7.9701,264.165,112.009)"/>
<use data-text="2" xlink:href="#font_4_6" transform="matrix(7.9701,0,0,-7.9701,269.15803,106.46001)"/>
<use data-text="&#x03c0;" xlink:href="#font_2_1" transform="matrix(7.9701,0,0,-7.9701,274.04,106.46001)"/>
<path transform="matrix(1,0,0,-1,200.246,86.202)" stroke-width=".3587" stroke-linecap="butt" stroke-miterlimit="10" stroke-linejoin="miter" fill="none" stroke="#000000" d="M68.912-23.815H79.907"/>
<use data-text="b" xlink:href="#font_2_5" transform="matrix(7.9701,0,0,-7.9701,272.461,117.98)"/>
<use data-text="," xlink:href="#font_2_3" transform="matrix(7.9701,0,0,-7.9701,281.348,112.009)"/>
<use data-text="0" xlink:href="#font_4_4" transform="matrix(7.9701,0,0,-7.9701,285.472,112.009)"/>
<use data-text=")" xlink:href="#font_4_2" transform="matrix(7.9701,0,0,-7.9701,290.3497,112.009)"/>
<use data-text="(" xlink:href="#font_4_1" transform="matrix(7.9701,0,0,-7.9701,332.19804,112.009)"/>
<use data-text="3" xlink:href="#font_4_7" transform="matrix(7.9701,0,0,-7.9701,337.19105,106.46001)"/>
<use data-text="&#x03c0;" xlink:href="#font_2_1" transform="matrix(7.9701,0,0,-7.9701,342.07304,106.46001)"/>
<path transform="matrix(1,0,0,-1,268.27903,86.202)" stroke-width=".3587" stroke-linecap="butt" stroke-miterlimit="10" stroke-linejoin="miter" fill="none" stroke="#000000" d="M68.912-23.815H79.907"/>
<use data-text="b" xlink:href="#font_2_5" transform="matrix(7.9701,0,0,-7.9701,340.49403,117.98)"/>
<use data-text="," xlink:href="#font_2_3" transform="matrix(7.9701,0,0,-7.9701,349.381,112.009)"/>
<use data-text="0" xlink:href="#font_4_4" transform="matrix(7.9701,0,0,-7.9701,353.505,112.009)"/>
<use data-text=")" xlink:href="#font_4_2" transform="matrix(7.9701,0,0,-7.9701,358.38273,112.009)"/>
<use data-text="(" xlink:href="#font_4_1" transform="matrix(7.9701,0,0,-7.9701,153.38701,40.133005)"/>
<use data-text="&#x03c0;" xlink:href="#font_5_1" transform="matrix(5.9776,0,0,-5.9776,159.711,36.875005)"/>
<path transform="matrix(1,0,0,-1,89.46801,14.326004)" stroke-width=".3587" stroke-linecap="butt" stroke-miterlimit="10" stroke-linejoin="miter" fill="none" stroke="#000000" d="M68.912-23.815H76.84"/>
<use data-text="2" xlink:href="#font_6_2" transform="matrix(5.9776,0,0,-5.9776,158.38,43.259004)"/>
<use data-text="b" xlink:href="#font_5_2" transform="matrix(5.9776,0,0,-5.9776,162.52501,43.259004)"/>
<use data-text="," xlink:href="#font_2_3" transform="matrix(7.9701,0,0,-7.9701,167.504,40.133005)"/>
<use data-text="a" xlink:href="#font_2_4" transform="matrix(7.9701,0,0,-7.9701,171.62454,40.133005)"/>
<use data-text=")" xlink:href="#font_4_2" transform="matrix(7.9701,0,0,-7.9701,177.017,40.133005)"/>
<use data-text="(" xlink:href="#font_4_1" transform="matrix(7.9701,0,0,-7.9701,277.372,40.133005)"/>
<use data-text="5" xlink:href="#font_6_4" transform="matrix(5.9776,0,0,-5.9776,282.365,36.875005)"/>
<use data-text="&#x03c0;" xlink:href="#font_5_1" transform="matrix(5.9776,0,0,-5.9776,286.51,36.875005)"/>
<path transform="matrix(1,0,0,-1,213.453,14.326004)" stroke-width=".3587" stroke-linecap="butt" stroke-miterlimit="10" stroke-linejoin="miter" fill="none" stroke="#000000" d="M68.912-23.815H78.324"/>
<use data-text="2" xlink:href="#font_6_2" transform="matrix(5.9776,0,0,-5.9776,283.10603,43.259004)"/>
<use data-text="b" xlink:href="#font_5_2" transform="matrix(5.9776,0,0,-5.9776,287.252,43.259004)"/>
<use data-text="," xlink:href="#font_2_3" transform="matrix(7.9701,0,0,-7.9701,292.972,40.133005)"/>
<use data-text="a" xlink:href="#font_2_4" transform="matrix(7.9701,0,0,-7.9701,297.09254,40.133005)"/>
<use data-text=")" xlink:href="#font_4_2" transform="matrix(7.9701,0,0,-7.9701,302.486,40.133005)"/>
<use data-text="(" xlink:href="#font_4_1" transform="matrix(7.9701,0,0,-7.9701,83.43001,158.32501)"/>
<use data-text="&#x2212;" xlink:href="#font_3_1" transform="matrix(7.9701,0,0,-7.9701,87.227008,158.32501)"/>
<use data-text="&#x03c0;" xlink:href="#font_5_1" transform="matrix(5.9776,0,0,-5.9776,97.34801,155.067)"/>
<path transform="matrix(1,0,0,-1,19.51101,132.518)" stroke-width=".3587" stroke-linecap="butt" stroke-miterlimit="10" stroke-linejoin="miter" fill="none" stroke="#000000" d="M76.506-23.815H84.434"/>
<use data-text="2" xlink:href="#font_6_2" transform="matrix(5.9776,0,0,-5.9776,96.017009,161.451)"/>
<use data-text="b" xlink:href="#font_5_2" transform="matrix(5.9776,0,0,-5.9776,100.162,161.451)"/>
<use data-text="," xlink:href="#font_2_3" transform="matrix(7.9701,0,0,-7.9701,105.141,158.32501)"/>
<use data-text="&#x2212;" xlink:href="#font_3_1" transform="matrix(7.9701,0,0,-7.9701,109.264,158.32501)"/>
<use data-text="a" xlink:href="#font_2_4" transform="matrix(7.9701,0,0,-7.9701,116.858,158.32501)"/>
<use data-text=")" xlink:href="#font_4_2" transform="matrix(7.9701,0,0,-7.9701,122.248,158.32501)"/>
<use data-text="(" xlink:href="#font_4_1" transform="matrix(7.9701,0,0,-7.9701,211.212,159.45801)"/>
<use data-text="3" xlink:href="#font_6_3" transform="matrix(5.9776,0,0,-5.9776,216.205,156.2)"/>
<use data-text="&#x03c0;" xlink:href="#font_5_1" transform="matrix(5.9776,0,0,-5.9776,220.35,156.2)"/>
<path transform="matrix(1,0,0,-1,147.293,133.651)" stroke-width=".3587" stroke-linecap="butt" stroke-miterlimit="10" stroke-linejoin="miter" fill="none" stroke="#000000" d="M68.912-23.815H78.324"/>
<use data-text="2" xlink:href="#font_6_2" transform="matrix(5.9776,0,0,-5.9776,216.946,162.584)"/>
<use data-text="b" xlink:href="#font_5_2" transform="matrix(5.9776,0,0,-5.9776,221.092,162.584)"/>
<use data-text="," xlink:href="#font_2_3" transform="matrix(7.9701,0,0,-7.9701,226.812,159.45801)"/>
<use data-text="&#x2212;" xlink:href="#font_3_1" transform="matrix(7.9701,0,0,-7.9701,230.936,159.45801)"/>
<use data-text="a" xlink:href="#font_2_4" transform="matrix(7.9701,0,0,-7.9701,238.52899,159.45801)"/>
<use data-text=")" xlink:href="#font_4_2" transform="matrix(7.9701,0,0,-7.9701,243.919,159.45801)"/>
<use data-text="y" xlink:href="#font_7_8" transform="matrix(11.9552,0,0,-11.9552,8.988007,44.098)"/>
<use data-text="=" xlink:href="#font_8_3" transform="matrix(11.9552,0,0,-11.9552,19.809006,44.098)"/>
<use data-text="a" xlink:href="#font_7_3" transform="matrix(11.9552,0,0,-11.9552,33.590005,44.098)"/>
<use data-text="s" xlink:href="#font_8_8" transform="matrix(11.9552,0,0,-11.9552,43.149003,44.098)"/>
<use data-text="i" xlink:href="#font_8_5" transform="matrix(11.9552,0,0,-11.9552,48.445154,44.098)"/>
<use data-text="n" xlink:href="#font_8_6" transform="matrix(11.9552,0,0,-11.9552,52.17518,44.098)"/>
<use data-text="b" xlink:href="#font_7_4" transform="matrix(11.9552,0,0,-11.9552,61.655008,44.098)"/>
<use data-text="x" xlink:href="#font_7_7" transform="matrix(11.9552,0,0,-11.9552,67.87171,44.098)"/>
<path transform="matrix(1,0,0,-1,135.919,97.803)" stroke-width=".79701" stroke-linecap="butt" stroke-miterlimit="10" stroke-linejoin="miter" fill="none" stroke="#000000" d="M38.96248 51.02432H148.12746"/>
<path transform="matrix(-1,-0,0,1,174.88149,46.778684)" d="M4.66248 0C3.28098 .25902 1.0361 1.0361-.51805 1.94269V-1.94269C1.0361-1.0361 3.28098-.25902 4.66248 0"/>
<path transform="matrix(1,0,0,-1,284.04646,46.778684)" d="M4.66248 0C3.28098 .25902 1.0361 1.0361-.51805 1.94269V-1.94269C1.0361-1.0361 3.28098-.25902 4.66248 0"/>
<path transform="matrix(1,0,0,-1,135.919,97.803)" d="M69.98291 41.20149H117.106998V60.84715H69.98291Z" fill="#ffffff"/>
<use data-text="p" xlink:href="#font_9_84" transform="matrix(7.9701,0,0,-7.9701,207.396,49.137)"/>
<use data-text="e" xlink:href="#font_9_50" transform="matrix(7.9701,0,0,-7.9701,213.09462,49.137)"/>
<use data-text="r" xlink:href="#font_9_96" transform="matrix(7.9701,0,0,-7.9701,217.56586,49.137)"/>
<use data-text="i" xlink:href="#font_9_66" transform="matrix(7.9701,0,0,-7.9701,221.59873,49.137)"/>
<use data-text="o" xlink:href="#font_9_81" transform="matrix(7.9701,0,0,-7.9701,224.30855,49.137)"/>
<use data-text="d" xlink:href="#font_9_47" transform="matrix(7.9701,0,0,-7.9701,229.46521,49.137)"/>
<use data-text="2" xlink:href="#font_4_6" transform="matrix(7.9701,0,0,-7.9701,239.341,43.588)"/>
<use data-text="&#x03c0;" xlink:href="#font_2_1" transform="matrix(7.9701,0,0,-7.9701,244.222,43.588)"/>
<path transform="matrix(1,0,0,-1,143.477,23.330002)" stroke-width=".3587" stroke-linecap="butt" stroke-miterlimit="10" stroke-linejoin="miter" fill="none" stroke="#000000" d="M95.864-23.815H106.859"/>
<use data-text="b" xlink:href="#font_2_5" transform="matrix(7.9701,0,0,-7.9701,242.64402,55.108)"/>
<path transform="matrix(1,0,0,-1,135.919,97.803)" stroke-width=".3985" stroke-linecap="butt" stroke-miterlimit="10" stroke-linejoin="miter" fill="none" stroke="#000000" d="M.29886-79.37114H124.42778"/>
<path transform="matrix(-1,-0,0,1,140.90036,177.17414)" d="M3.7613 0C3.2994 .1127 1.26901 .75136 0 1.44638V-1.44638C1.26901-.75136 3.2994-.1127 3.7613 0Z"/>
<path transform="matrix(-1,-0,0,1,140.90036,177.17414)" stroke-width=".3985" stroke-linecap="butt" stroke-miterlimit="10" stroke-linejoin="miter" fill="none" stroke="#000000" d="M3.7613 0C3.2994 .1127 1.26901 .75136 0 1.44638V-1.44638C1.26901-.75136 3.2994-.1127 3.7613 0Z"/>
<path transform="matrix(-1,-0,0,1,136.11826,177.17414)" stroke-width=".3985" stroke-linecap="butt" stroke-miterlimit="10" stroke-linejoin="miter" fill="none" stroke="#000000" d="M0 2.29141V-2.29141"/>
<path transform="matrix(1,0,0,-1,255.6643,177.17414)" d="M3.7613 0C3.2994 .1127 1.26901 .75136 0 1.44638V-1.44638C1.26901-.75136 3.2994-.1127 3.7613 0Z"/>
<path transform="matrix(1,0,0,-1,255.6643,177.17414)" stroke-width=".3985" stroke-linecap="butt" stroke-miterlimit="10" stroke-linejoin="miter" fill="none" stroke="#000000" d="M3.7613 0C3.2994 .1127 1.26901 .75136 0 1.44638V-1.44638C1.26901-.75136 3.2994-.1127 3.7613 0Z"/>
<path transform="matrix(1,0,0,-1,260.4464,177.17414)" stroke-width=".3985" stroke-linecap="butt" stroke-miterlimit="10" stroke-linejoin="miter" fill="none" stroke="#000000" d="M0 2.29141V-2.29141"/>
<path transform="matrix(1,0,0,-1,135.919,97.803)" d="M38.80127-89.19397H85.925357V-69.54831H38.80127Z" fill="#ffffff"/>
<use data-text="p" xlink:href="#font_9_84" transform="matrix(7.9701,0,0,-7.9701,176.215,179.53202)"/>
<use data-text="e" xlink:href="#font_9_50" transform="matrix(7.9701,0,0,-7.9701,181.91362,179.53202)"/>
<use data-text="r" xlink:href="#font_9_96" transform="matrix(7.9701,0,0,-7.9701,186.38486,179.53202)"/>
<use data-text="i" xlink:href="#font_9_66" transform="matrix(7.9701,0,0,-7.9701,190.41773,179.53202)"/>
<use data-text="o" xlink:href="#font_9_81" transform="matrix(7.9701,0,0,-7.9701,193.12755,179.53202)"/>
<use data-text="d" xlink:href="#font_9_47" transform="matrix(7.9701,0,0,-7.9701,198.28421,179.53202)"/>
<use data-text="2" xlink:href="#font_4_6" transform="matrix(7.9701,0,0,-7.9701,208.16,173.983)"/>
<use data-text="&#x03c0;" xlink:href="#font_2_1" transform="matrix(7.9701,0,0,-7.9701,213.041,173.983)"/>
<path transform="matrix(1,0,0,-1,112.296009,153.725)" stroke-width=".3587" stroke-linecap="butt" stroke-miterlimit="10" stroke-linejoin="miter" fill="none" stroke="#000000" d="M95.864-23.815H106.859"/>
<use data-text="b" xlink:href="#font_2_5" transform="matrix(7.9701,0,0,-7.9701,211.46302,185.503)"/>
<path transform="matrix(1,0,0,-1,135.919,97.803)" stroke-width=".3985" stroke-linecap="butt" stroke-miterlimit="10" stroke-linejoin="miter" fill="none" stroke="#000000" d="M212.03539 .29886V50.72545"/>
<path transform="matrix(0,1,1,0,347.9544,92.821659)" d="M3.7613 0C3.2994 .1127 1.26901 .75136 0 1.44638V-1.44638C1.26901-.75136 3.2994-.1127 3.7613 0Z"/>
<path transform="matrix(0,1,1,0,347.9544,92.821659)" stroke-width=".3985" stroke-linecap="butt" stroke-miterlimit="10" stroke-linejoin="miter" fill="none" stroke="#000000" d="M3.7613 0C3.2994 .1127 1.26901 .75136 0 1.44638V-1.44638C1.26901-.75136 3.2994-.1127 3.7613 0Z"/>
<path transform="matrix(0,1,1,0,347.9544,97.60375)" stroke-width=".3985" stroke-linecap="butt" stroke-miterlimit="10" stroke-linejoin="miter" fill="none" stroke="#000000" d="M0 2.29141V-2.29141"/>
<path transform="matrix(0,-1,-1,-0,347.9544,51.760034)" d="M3.7613 0C3.2994 .1127 1.26901 .75136 0 1.44638V-1.44638C1.26901-.75136 3.2994-.1127 3.7613 0Z"/>
<path transform="matrix(0,-1,-1,-0,347.9544,51.760034)" stroke-width=".3985" stroke-linecap="butt" stroke-miterlimit="10" stroke-linejoin="miter" fill="none" stroke="#000000" d="M3.7613 0C3.2994 .1127 1.26901 .75136 0 1.44638V-1.44638C1.26901-.75136 3.2994-.1127 3.7613 0Z"/>
<path transform="matrix(0,-1,-1,-0,347.9544,46.977933)" stroke-width=".3985" stroke-linecap="butt" stroke-miterlimit="10" stroke-linejoin="miter" fill="none" stroke="#000000" d="M0 2.29141V-2.29141"/>
<use data-text="a" xlink:href="#font_10_28" transform="matrix(0,-4.9813,-4.9813,-0,342.963,91.76)"/>
<use data-text="m" xlink:href="#font_10_75" transform="matrix(0,-4.9813,-4.9813,-0,342.963,88.0838)"/>
<use data-text="p" xlink:href="#font_10_84" transform="matrix(0,-4.9813,-4.9813,-0,342.963,81.897029)"/>
<use data-text="l" xlink:href="#font_10_72" transform="matrix(0,-4.9813,-4.9813,-0,342.963,77.71771)"/>
<use data-text="i" xlink:href="#font_10_66" transform="matrix(0,-4.9813,-4.9813,-0,342.963,75.54587)"/>
<use data-text="t" xlink:href="#font_10_105" transform="matrix(0,-4.9813,-4.9813,-0,342.963,73.37402)"/>
<use data-text="u" xlink:href="#font_10_109" transform="matrix(0,-4.9813,-4.9813,-0,342.963,70.400188)"/>
<use data-text="d" xlink:href="#font_10_47" transform="matrix(0,-4.9813,-4.9813,-0,342.963,66.22087)"/>
<use data-text="e" xlink:href="#font_10_50" transform="matrix(0,-4.9813,-4.9813,-0,342.963,62.041559)"/>
<use data-text="a" xlink:href="#font_11_1" transform="matrix(0,-4.9813,-4.9813,-0,342.963,56.018999)"/>
</svg>
