<svg style="overflow: visible;" xmlns="http://www.w3.org/2000/svg" xmlns:xlink="http://www.w3.org/1999/xlink" xmlns:inkscape="http://www.inkscape.org/namespaces/inkscape" version="1.1" width="100%" height="100%" viewBox="0 0 444.39 187.78">
<defs>
<path id="font_1_3" d="M.5499878 .39736939C.5169983 .38838197 .49299623 .35838319 .49299623 .32537843 .49299623 .28938294 .5209961 .27539063 .54499819 .27539063 .58299258 .27539063 .62098696 .30638124 .62098696 .35838319 .62098696 .41610719 .56399539 .45210267 .5029907 .45210267 .45498658 .45210267 .4169922 .4250946 .3919983 .39338685 .37799073 .41111756 .34399415 .45210267 .25 .45210267 .117996219 .45210267 .04899597 .3303833 .04899597 .29638673 .04899597 .28138734 .06298828 .28138734 .07499695 .28138734 .09098816 .28138734 .09599304 .28138734 .099990848 .29537965 .1329956 .39338685 .21299744 .41210938 .24398804 .41210938 .30299378 .41210938 .30299378 .37438966 .30299378 .36138917 .30299378 .3423767 .2889862 .28637696 .27999879 .24926758 .27198792 .21914673 .25299073 .14093018 .24699402 .11993408 .23098755 .056930543 .19198609 .032180787 .16099549 .032180787 .13999939 .032180787 .12098694 .04005432 .11099243 .046951295 .14399719 .05593872 .16799927 .0859375 .16799927 .11894226 .16799927 .15493775 .13999939 .16894531 .115997318 .16894531 .07798767 .16894531 .039993287 .13793946 .039993287 .0859375 .039993287 .028182984 .09700012-.0078125 .1579895-.0078125 .20599365-.0078125 .24398804 .019180298 .2689972 .050933839 .2829895 .03315735 .31698609-.0078125 .41099549-.0078125 .54299929-.0078125 .6119995 .11393738 .6119995 .14793396 .6119995 .16394043 .59498599 .16394043 .58599856 .16394043 .56799319 .16394043 .5649872 .16093445 .5609894 .14894104 .5279999 .050933839 .44799806 .032180787 .4169922 .032180787 .35798646 .032180787 .35798646 .06993103 .35798646 .08293152 .35798646 .10194397 .37199403 .15794373 .3809967 .1950531 .3889923 .22517395 .4079895 .3033905 .4139862 .3243866 .42999269 .38739015 .46899415 .41210938 .5 .41210938 .5209961 .41210938 .5399933 .40423585 .5499878 .39736939Z"/>
<path id="font_1_4" d="M.59498599 .3731079C.598999 .38909913 .598999 .394104 .598999 .3981018 .598999 .4320984 .57199099 .44410707 .5509949 .44410707 .49798585 .44410707 .48599244 .3961029 .47898866 .3701172L.45298768 .26612855C.43899537 .21113587 .42599488 .15615845 .41099549 .10116577 .4099884 .09416199 .3659973 .032180787 .30099488 .032180787 .2579956 .032180787 .23799134 .057174684 .23799134 .10417175 .23799134 .16314698 .27198792 .24913025 .29899598 .3171234 .30499269 .33111573 .31098939 .3461151 .31098939 .36210633 .31098939 .41410829 .25898744 .45210267 .19299317 .45210267 .08699036 .45210267 .032989503 .32011415 .032989503 .29612733 .032989503 .28112794 .04699707 .28112794 .05899048 .28112794 .07499695 .28112794 .07998657 .28112794 .083999637 .29512025 .11898804 .4091034 .1769867 .41210938 .18699646 .41210938 .19299317 .41210938 .20399475 .41210938 .20399475 .3901062 .20399475 .36810304 .19299317 .3421173 .18798828 .32911683 .147995 .22813416 .12799073 .17315674 .12799073 .12416077 .12799073 .0231781 .20899964-.0078125 .29299928-.0078125 .30899049-.0078125 .34700013-.0078125 .3919983 .02218628 .36999513-.08416748 .29599-.16210938 .21598816-.16210938 .21398926-.16210938 .18499756-.16210938 .16099549-.15216065 .18399048-.14016724 .20399475-.11515808 .20399475-.0851593 .20399475-.04916382 .17599488-.03515625 .1519928-.03515625 .10899353-.03515625 .07598877-.07316589 .07598877-.11416626 .07598877-.17111206 .13699341-.20211792 .21598816-.20211792 .33799745-.20211792 .47099305-.123168949 .5009918-.0018157959L.59498599 .3731079Z"/>
<path id="font_2_1" d="M.9819946 .20703125C.99398806 .20703125 1.0379944 .20703125 1.0379944 .25003053 1.0379944 .2930298 .99398806 .2930298 .9819946 .2930298H.20999146C.19799805 .2930298 .1539917 .2930298 .1539917 .25003053 .1539917 .20703125 .19799805 .20703125 .20999146 .20703125H.9819946Z"/>
<path id="font_3_6" d="M.23298645 .4913025C.2709961 .4873047 .31098939 .4873047 .31298829 .4873047 .46499635 .4873047 .5549927 .56030276 .5970001 .603302 .6100006 .6163025 .6119995 .6183014 .6119995 .6333008 .6119995 .6382904 .6119995 .66130068 .58999636 .66130068 .58799746 .66130068 .58599856 .66130068 .57899478 .6582947 .5399933 .6483002 .46899415 .629303 .37599183 .629303 .30799867 .629303 .24198914 .6392975 .17599488 .65730288 .1659851 .66130068 .1639862 .66130068 .16099549 .66130068 .13899231 .66130068 .13899231 .6392975 .13899231 .6252899V.32437135C.13899231 .29237367 .14399719 .28536988 .1769867 .28536988 .19799805 .28536988 .19898987 .28637696 .21699524 .30337525 .23199463 .31837464 .27398683 .359375 .38398744 .359375 .5130005 .359375 .5130005 .26637269 .5130005 .2073822 .5130005 .14738465 .5130005 .044387819 .34599305 .044387819 .32899476 .044387819 .25498963 .045394899 .20698548 .08639526 .24398804 .10739136 .24699402 .14138794 .24699402 .15538025 .24699402 .20437622 .20799256 .234375 .16799927 .234375 .13198853 .234375 .08898926 .2093811 .08898926 .15338135 .08898926 .055389406 .18899536-.016601563 .34799195-.016601563 .56999209-.016601563 .6689911 .09138489 .6689911 .2013855 .6689911 .30236817 .58999636 .41537477 .3889923 .41537477 .32899476 .41537477 .2789917 .405365 .23298645 .38136292V.4913025Z"/>
<path id="font_3_5" d="M.70098879 .15527344V.22225952H.56999209V.6309509C.56999209 .6619415 .56399539 .6689453 .5319977 .6689453H.46099855C.43499757 .6689453 .43099977 .66693118 .4189911 .65193179L.056991579 .22225952V.15527344H.42799378V.06689453H.2869873V-.00010681152C.33599855 .00390625 .44299317 .00390625 .49699403 .00390625 .5529938 .00390625 .647995 .00390625 .70098879-.00010681152V.06689453H.56999209V.15527344H.70098879M.44499208 .5799866V.22225952H.14399719L.44499208 .5799866Z"/>
<path id="font_3_4" d="M.36299134 .3203125C.49699403 .3203125 .5089874 .2373352 .5089874 .18234253 .5089874 .13237 .5 .044387819 .3639984 .044387819 .34298707 .044387819 .2649994 .04638672 .21398926 .07937622 .23498535 .09437561 .25 .11936951 .25 .15135193 .25 .2003479 .21398926 .2373352 .1639862 .2373352 .11399841 .2373352 .07699585 .20333863 .07699585 .14935303 .07699585 .05038452 .17599488-.016601563 .36698915-.016601563 .6139984-.016601563 .68099978 .103378299 .68099978 .18135071 .68099978 .2703247 .598999 .3283081 .5019989 .3513031 .5609894 .37130738 .6399994 .42126466 .6399994 .51319888 .6399994 .59513857 .5499878 .6611328 .37098695 .6611328 .21099854 .6611328 .117996219 .59313967 .117996219 .5002136 .117996219 .44425965 .1619873 .41827394 .19898987 .41827394 .23999024 .41827394 .27999879 .4482422 .27999879 .49920655 .27999879 .548172 .24198914 .56915286 .23999024 .57014468 .2809906 .5991211 .33299256 .6051178 .3659973 .6051178 .46398927 .6051178 .4850006 .5631561 .4850006 .51519778 .4850006 .47323609 .45999146 .38430787 .33999635 .37930299 .32899476 .37930299 .28399659 .37730409 .2769928 .37631227 .25898744 .3722992 .25898744 .3553009 .25898744 .34831239 .25898744 .3203125 .2749939 .3203125 .2939911 .3203125H.36299134Z"/>
<path id="font_3_3" d="M.6689911 .2110138H.58599856C.57899478 .17199707 .5649872 .14698792 .55599978 .14498902 .5319977 .14199829 .4889984 .14199829 .45498658 .14199829H.30599977C.36999513 .18299866 .43099977 .22102356 .47399903 .24401856 .58599856 .30604554 .6689911 .35205079 .6689911 .4560852 .6689911 .5801239 .5549927 .6611328 .35699464 .6611328 .30999757 .6611328 .08898926 .66012576 .08898926 .5131073 .08898926 .45307923 .13798523 .42907716 .17098999 .42907716 .21099854 .42907716 .2539978 .4570923 .2539978 .5121002 .2539978 .54811099 .23298645 .5691223 .22799683 .5741272 .2639923 .59213259 .30099488 .59413149 .32398988 .59413149 .42199708 .59413149 .5099945 .54711917 .5099945 .45509339 .5099945 .37705995 .44898988 .31803895 .3849945 .2720337L.10598755 .068984989C.08898926 .056991579 .08898926 .052993776 .08898926 .0309906V0H.6299896L.6689911 .2110138Z"/>
<path id="font_3_2" d="M.45899964 .6231842C.45899964 .654129 .45298768 .6611328 .42099 .6611328H.3999939C.31498719 .5972595 .18598938 .5972595 .16299439 .5972595H.13598633V.53027346H.16299439C.1749878 .53027346 .2519989 .53027346 .32499696 .55526736V.066986087H.14399719V0C.19299317 .0039978029 .33499146 .0039978029 .3919983 .0039978029 .44898988 .0039978029 .59098818 .0039978029 .6399994 0V.066986087H.45899964V.6231842Z"/>
<path id="font_3_7" d="M.23399353 .34513856C.23799134 .43510438 .24099732 .4881134 .29100038 .54312136 .31999208 .5741272 .3789978 .6051178 .45700074 .6051178 .46798707 .6051178 .5029907 .6051178 .5289917 .5871277 .5209961 .5821228 .49398805 .56211856 .49398805 .52212527 .49398805 .47612 .5289917 .44711305 .56900027 .44711305 .6029968 .44711305 .6439972 .47010804 .6439972 .52412417 .6439972 .575119 .6159973 .6611328 .45700074 .6611328 .23599243 .6611328 .07699585 .53312686 .07699585 .31915284 .07699585 .1083374 .17399597-.016601563 .38398744-.016601563 .44400025-.016601563 .5130005-.01260376 .58299258 .03338623 .6359863 .068374637 .68099978 .11532593 .68099978 .20625305 .68099978 .33914186 .56999209 .42611695 .40499879 .42611695 .33799745 .42611695 .2749939 .39811708 .23399353 .34513856M.38398744 .044387819C.25099183 .044387819 .23699951 .14030457 .23699951 .22123719 .23699951 .29518128 .29299928 .3701172 .3919983 .3701172 .5239868 .3701172 .5239868 .2901764 .5239868 .20724488 .5239868 .12432861 .5239868 .044387819 .38398744 .044387819Z"/>
<path id="font_3_8" d="M.2539978 .64653018C.22799683 .64653018 .22499085 .65852358 .22399903 .66752627H.14099121L.09799194 .4335022H.18099976C.18499756 .45350648 .19099427 .47451783 .20298767 .4915161 .20899964 .49752809 .20999146 .4985199 .21998596 .49952699 .24499512 .5025177 .2889862 .5025177 .32299806 .5025177H.5049896C.43399049 .43751527 .40699769 .41349793 .375 .37149049 .2749939 .23945618 .2639923 .11941528 .2639923 .06541443 .2639923-.01260376 .32798768-.016601563 .33898927-.016601563 .36898805-.016601563 .38598634-.0016021729 .3919983 .0033874512 .4139862 .024398804 .4139862 .05039978 .4139862 .06840515 .41600038 .31147767 .48199464 .37249757 .5479889 .43450929L.6100006 .4895172 .71199038 .58251956C.71598818 .58651736 .71798709 .5905304 .7200012 .59552 .72099307 .5995178 .72099307 .6285248 .72099307 .64453127H.47200013L.2539978 .64653018Z"/>
<path id="font_3_9" d="M.5269928 .36723329C.6179962 .4072113 .6399994 .4611969 .6399994 .50717166 .6399994 .65312197 .46499635 .6611328 .3829956 .6611328 .272995 .6611328 .117996219 .6311188 .117996219 .48017884 .117996219 .39822389 .18598938 .35124208 .22099304 .33325196 .14498902 .30526734 .07699585 .2572937 .07699585 .16233826 .07699585-.0056152346 .27398683-.016601563 .37599183-.016601563 .4249878-.016601563 .68099978-.016601563 .68099978 .18632508 .68099978 .2632904 .6279907 .32725526 .5269928 .36723329M.45199586 .4012146 .31098939 .46418763C.24198914 .49417115 .21798706 .5051727 .21798706 .53515627 .21798706 .58013918 .2539978 .6051178 .37298585 .6051178 .43499757 .6051178 .5399933 .5961304 .5399933 .50616458 .5399933 .45819093 .5089874 .42321778 .45199586 .4012146M.5029907 .20831299C.5069885 .20631409 .5649872 .18132019 .5649872 .13635254 .5649872 .07937622 .5189972 .044387819 .3829956 .044387819 .30499269 .044387819 .19299317 .06037903 .19299317 .16333008 .19299317 .22531128 .23298645 .26828004 .30299378 .29626466L.5029907 .20831299Z"/>
<path id="font_4_5" d="M.3789978 .62413027C.3789978 .6582031 .37298585 .6582031 .33299256 .6582031 .27198792 .61006167 .19198609 .5939789 .11399841 .5939789H.09199524V.5419922H.11399841C.13999939 .5419922 .19400025 .5449829 .2519989 .5619812V.051986696H.101989749V0C.13798523 .0029907227 .269989 .0029907227 .31498719 .0029907227 .3600006 .0029907227 .48999024 .0029907227 .5269928 0V.051986696H.3789978V.62413027Z"/>
<path id="font_5_1" d="M.8019867 .21617127C.81599429 .21617127 .84999087 .21617127 .84999087 .25016786 .84999087 .2841797 .81599429 .2841797 .8019867 .2841797H.1499939C.13598633 .2841797 .101989749 .2841797 .101989749 .25016786 .101989749 .21617127 .13598633 .21617127 .1499939 .21617127H.8019867Z"/>
<path id="font_3_1" d="M.68499758 .31726075C.68499758 .48518373 .6439972 .6611328 .3789978 .6611328 .116989139 .6611328 .07299805 .48918153 .07299805 .31726075 .07299805 .13934326 .125-.016601563 .3789978-.016601563 .6369934-.016601563 .68499758 .14334107 .68499758 .31726075M.3789978 .039398195C.33999635 .039398195 .25898744 .0493927 .23699951 .13034058 .22399903 .17932129 .22299195 .26028443 .22299195 .33224488 .22299195 .4052124 .22299195 .48417665 .23999024 .53215029 .25698854 .5771332 .30899049 .6051178 .3789978 .6051178 .43798829 .6051178 .49899293 .5851288 .5189972 .52716067 .5349884 .4811859 .5349884 .39822389 .5349884 .33224488 .5349884 .271286 .5349884 .17732239 .519989 .12834168 .49598695 .04838562 .41600038 .039398195 .3789978 .039398195Z"/>
<path id="font_6_1" d="M.3789978-.22503662C.34999085-.19802857 .2849884-.13702393 .24299622-.009033203 .21699524 .06997681 .20498657 .16197205 .20498657 .24996948 .20498657 .4469757 .2559967 .60398867 .3659973 .7149811 .3809967 .7299957 .38198854 .73098757 .38198854 .73599246 .38198854 .746994 .37199403 .75 .3639984 .75 .34700013 .75 .30499269 .7129822 .2869873 .6959839 .1309967 .5409851 .10798645 .35697938 .10798645 .25097657 .10798645 .12597656 .14099121 .015975953 .18798828-.06703186 .2539978-.18203736 .34498597-.24902344 .3639984-.24902344 .37199403-.24902344 .38198854-.24603272 .38198854-.23503113 .38198854-.23002625 .3789978-.22602844 .3789978-.22503662Z"/>
<path id="font_6_4" d="M.5289917 .31925965C.5289917 .41625978 .5279999 .65527346 .2869873 .65527346 .04598999 .65527346 .04499817 .41726686 .04499817 .31925965 .04499817 .22026062 .04598999-.0107421879 .2869873-.0107421879 .5269928-.0107421879 .5289917 .21925354 .5289917 .31925965M.2869873 .025253296C.25099183 .025253296 .19499207 .04725647 .18199158 .12025452 .17298889 .17225647 .17298889 .27626039 .17298889 .33125306 .17298889 .40325929 .17298889 .46826173 .18099976 .5202637 .19299317 .6092682 .2630005 .6192627 .2869873 .6192627 .32398988 .6192627 .36499024 .6002655 .38398744 .5562744 .40098573 .51927188 .40098573 .41326905 .40098573 .33125306 .40098573 .2752533 .40098573 .18424988 .3939972 .13224793 .37998963 .039245607 .31698609 .025253296 .2869873 .025253296Z"/>
<path id="font_7_2" d="M.21398926 .020996094C.21099854-.04208374 .18099976-.11021423 .12599182-.15631104 .11199951-.16833496 .11099243-.16934204 .11099243-.17533875 .11099243-.18234253 .12199402-.19433594 .12998963-.19433594 .14399719-.19433594 .25-.10720825 .25 .0309906 .25 .100997928 .21398926 .1559906 .1579895 .1559906 .11199951 .1559906 .08099365 .12098694 .08099365 .07798767 .08099365 .037994386 .10899353 0 .15899658 0 .18299866 0 .20199585 .009994507 .21398926 .020996094Z"/>
<path id="font_6_5" d="M.35398866 .62316897C.35398866 .6452637 .35398866 .65527346 .32798768 .65527346 .31698609 .65527346 .31498719 .65527346 .30599977 .64826968 .22898865 .5909424 .12599182 .5909424 .10499573 .5909424H.084991458V.5439453H.10499573C.12098694 .5439453 .17599488 .54493716 .23498535 .5639343V.04699707H.09599304V0C.13999939 .0029907227 .24598694 .0029907227 .29499818 .0029907227 .34399415 .0029907227 .44999696 .0029907227 .49398805 0V.04699707H.35398866V.62316897Z"/>
<path id="font_6_2" d="M.33799745 .24996948C.33799745 .37498475 .30499269 .48498536 .2579956 .5679779 .19198609 .6829834 .100997928 .75 .08198547 .75 .07398987 .75 .06399536 .746994 .06399536 .73599246 .06399536 .73098757 .06399536 .72898867 .08099365 .7129822 .20698548 .5849762 .24099732 .40797425 .24099732 .25097657 .24099732 .053970338 .18998719-.103027347 .07998657-.21403504 .06498718-.22903443 .06399536-.23002625 .06399536-.23503113 .06399536-.24603272 .07398987-.24902344 .08198547-.24902344 .09899902-.24902344 .14099121-.21203614 .15899658-.19503784 .31498719-.040023805 .33799745 .14398194 .33799745 .24996948Z"/>
<path id="font_4_1" d="M.40699769-.23200989C.40699769-.2250061 .4039917-.22200012 .3919983-.21200562 .2649994-.09700012 .21998596 .07798767 .21998596 .25 .21998596 .42099 .2630005 .59599307 .3899994 .70899966 .4059906 .723999 .40699769 .72499087 .40699769 .7319946 .40699769 .74198916 .40098573 .75 .38598634 .75 .36698915 .75 .31399537 .70500186 .2939911 .6859894 .16899109 .56199648 .11399841 .4099884 .11399841 .25 .11399841 .16099549 .13198853 .039993287 .20599365-.07800293 .2689972-.17800904 .3639984-.25 .38598634-.25 .40098573-.25 .40699769-.2420044 .40699769-.23200989Z"/>
<path id="font_4_6" d="M.5509949 .2280426H.49499513C.4869995 .16200257 .47399903 .14199829 .46798707 .13899231 .45700074 .1329956 .37998963 .1329956 .36299134 .1329956H.22499085C.35899354 .23805237 .41299439 .2680664 .45599366 .30108644 .526001 .35612489 .5509949 .40615846 .5509949 .46316529 .5509949 .58117678 .44198609 .6582031 .2899933 .6582031 .1619873 .6582031 .06098938 .6011963 .06098938 .50717166 .06098938 .4481659 .10899353 .4291687 .13699341 .4291687 .17199707 .4291687 .21398926 .4541626 .21398926 .50616458 .21398926 .5531616 .17999268 .5721588 .16699219 .5771637 .19499207 .5981903 .23498535 .6062012 .2659912 .6062012 .35598756 .6062012 .4059906 .5391693 .4059906 .4621582 .4059906 .38113404 .35299684 .31410218 .2939911 .25906373L.07299805 .052993776C.06199646 .041992189 .06098938 .040985109 .06098938 .020996094V0H.5179901L.5509949 .2280426Z"/>
<path id="font_8_1" d="M.33599855 .3408203H.44898988C.42199708 .22695923 .41999818 .17901612 .41999818 .14805603 .41999818 .07015991 .44499208-.009765625 .49598695-.009765625 .522995-.009765625 .5669861 .018218995 .5669861 .059173585 .5669861 .073150638 .56399539 .07914734 .55599978 .09112549 .5069885 .16603089 .5029907 .24394226 .5029907 .27789308 .5029907 .30485536 .5049896 .31684876 .5079956 .3408203H.6389923C.6599884 .3408203 .6719971 .3408203 .6899872 .35481263 .70399478 .3658142 .71299746 .38581849 .71299746 .40081788 .71299746 .44381715 .6729889 .44381715 .6559906 .44381715H.23498535C.21099854 .44381715 .16799927 .44381715 .10598755 .3918152 .08999634 .37780763 .03199768 .31884767 .03199768 .30285646 .03199768 .2848816 .04899597 .2848816 .05999756 .2848816 .07699585 .2848816 .07798767 .28588868 .08699036 .296875 .10598755 .31684876 .1349945 .3408203 .21299744 .3408203H.27598573C.25498963 .27789308 .22499085 .2059784 .15699768 .085128787 .14299011 .061157228 .13999939 .05517578 .13999939 .03918457 .13999939 .008224487 .16499329-.008773804 .19099427-.008773804 .21798706-.008773804 .24499512 .008224487 .2559967 .04019165 .2659912 .06616211 .272995 .09411621 .2809906 .12608338L.33599855 .3408203Z"/>
<path id="font_8_3" d="M.22099304 .016998291C.21199036-.08493042 .1519928-.1348877 .1309967-.15187073 .11999512-.15986634 .115997318-.16287232 .115997318-.17185974 .115997318-.18086243 .12799073-.19386292 .13899231-.19386292 .15499878-.19386292 .2639923-.106918338 .2639923 .03199768 .2639923 .10499573 .22698975 .1599884 .16899109 .1599884 .12199402 .1599884 .08999634 .12399292 .08999634 .07998657 .08999634 .038986207 .11898804 0 .16999817 0 .18998719 0 .20899964 .0069885256 .22099304 .016998291Z"/>
<path id="font_4_2" d="M.36099244 .25C.36099244 .33898927 .34298707 .45999146 .2689972 .5779877 .20599365 .6779938 .11099243 .75 .08898926 .75 .07199097 .75 .067993167 .7389984 .067993167 .7319946 .067993167 .72499087 .07199097 .72099307 .08299255 .71199038 .20999146 .5970001 .25498963 .42199708 .25498963 .25 .25498963 .07899475 .21199036-.0960083 .084991458-.2090149 .07299805-.22000122 .067993167-.22401428 .067993167-.23200989 .067993167-.23901367 .07199097-.25 .08898926-.25 .10798645-.25 .16099549-.20500183 .18099976-.18600464 .30599977-.06201172 .36099244 .08999634 .36099244 .25Z"/>
<path id="font_9_1" d="M.7519989 .22024536C.7669983 .22024536 .7969971 .22024536 .7969971 .25024415 .7969971 .28125 .7679901 .28125 .7519989 .28125H.14099121C.12599182 .28125 .09599304 .28125 .09599304 .25123597 .09599304 .22024536 .125 .22024536 .14099121 .22024536H.7519989Z"/>
<path id="font_7_1" d="M.31199647 .34832765H.42399598C.4019928 .2552948 .3909912 .1942749 .3909912 .1352539 .3909912 .067230228 .40899659-.0087890629 .45700074-.0087890629 .48999024-.0087890629 .526001 .02420044 .526001 .05621338 .526001 .068222049 .522995 .07423401 .5139923 .0892334 .46798707 .17025757 .46798707 .24728394 .46798707 .27430726 .46798707 .29830934 .46798707 .3083191 .47399903 .34832765H.59799197C.61698916 .34832765 .6329956 .34832765 .647995 .36332704 .6549988 .3703308 .66799929 .38232423 .66799929 .40533448 .66799929 .44433595 .6329956 .44433595 .61499026 .44433595H.22200012C.20098877 .44433595 .1579895 .44433595 .10499573 .3963318 .069992069 .3643341 .0309906 .31330873 .0309906 .3033142 .0309906 .28930665 .042999269 .28930665 .053985597 .28930665 .068984989 .28930665 .069992069 .29031373 .07899475 .3013153 .116989139 .34832765 .18299866 .34832765 .20199585 .34832765H.2619934C.23699951 .26930238 .19699097 .18727112 .14299011 .08622742 .1269989 .05621338 .12399292 .051223756 .12399292 .037216188 .12399292 .01020813 .1459961-.007797241 .17199707-.007797241 .19299317-.007797241 .20799256 .0032043458 .21499634 .00920105 .22999573 .02420044 .23098755 .028213501 .23599243 .049209596L.31199647 .34832765Z"/>
<path id="font_4_7" d="M.28399659 .32714845C.3999939 .32714845 .40098573 .23034668 .40098573 .18035889 .40098573 .13534546 .40098573 .033325197 .28799439 .033325197 .2669983 .033325197 .20999146 .036315919 .1599884 .068359378 .1769867 .0753479 .21299744 .09635925 .21299744 .14535523 .21299744 .19335938 .1789856 .22634888 .13198853 .22634888 .08799744 .22634888 .050994874 .1963501 .050994874 .14434815 .050994874 .047332765 .15499878-.013671875 .29299928-.013671875 .4889984-.013671875 .5609894 .09234619 .5609894 .1793518 .5609894 .26127626 .49798585 .32914735 .3899994 .35313417 .4169922 .36413575 .5269928 .40715028 .5269928 .51615908 .5269928 .59617617 .44499208 .6582031 .29599 .6582031 .1659851 .6582031 .084991458 .58917239 .084991458 .50717166 .084991458 .45115663 .1289978 .4311676 .15899658 .4311676 .19898987 .4311676 .23298645 .45916749 .23298645 .5051575 .23298645 .52716067 .22499085 .5651703 .1769867 .5771637 .22099304 .6151886 .2809906 .6151886 .2899933 .6151886 .3829956 .6151886 .3829956 .5491638 .3829956 .51916506 .3829956 .4471588 .34899903 .41015626 .34599305 .40615846 .31698609 .37513734 .29899598 .3741455 .24499512 .37113954 .21398926 .36914063 .20399475 .36813355 .20399475 .34814454 .20399475 .32714845 .21699524 .32714845 .23498535 .32714845H.28399659Z"/>
<path id="font_4_4" d="M.56399539 .31925965C.56399539 .4352417 .5549927 .6582031 .30599977 .6582031 .055999757 .6582031 .04798889 .4332428 .04798889 .31925965 .04798889 .20729065 .054992677-.013671875 .30599977-.013671875 .55799868-.013671875 .56399539 .20828247 .56399539 .31925965M.30599977 .028320313C.2789917 .028320313 .25099183 .03831482 .22999573 .05531311 .19799805 .08331299 .18299866 .0973053 .18299866 .33125306 .18299866 .40324403 .18299866 .4762268 .19299317 .5262146 .20599365 .5971985 .2679901 .6161957 .30599977 .6161957 .32998658 .6161957 .4059906 .610199 .42099 .515213 .42900086 .4662323 .42900086 .3892517 .42900086 .33125306 .42900086 .10231018 .4149933 .08830261 .38398744 .05831909 .37599183 .049316408 .34799195 .028320313 .30599977 .028320313Z"/>
<path id="font_4_9" d="M.17599488 .5010834C.20799256 .49609376 .24198914 .49609376 .24798584 .49609376 .27398683 .49609376 .34199525 .49609376 .4169922 .54408267 .44299317 .56108096 .5029907 .611084 .5029907 .63708499 .5029907 .65208438 .49499513 .65808108 .4850006 .65808108 .48298646 .65808108 .48098756 .65808108 .46998597 .65309146 .42099 .63609316 .3619995 .6260834 .30699159 .6260834 .2619934 .6260834 .20498657 .6320801 .13999939 .65408328 .13198853 .65808108 .12998963 .65808108 .1269989 .65808108 .10998535 .65808108 .10998535 .64108279 .10998535 .62709048V.33319093C.10998535 .3142395 .10998535 .29927064 .13699341 .29927064 .1519928 .29927064 .15499878 .30126954 .16499329 .31323243 .20498657 .36112977 .2669983 .3701172 .30599977 .3701172 .4019928 .3701172 .4019928 .27931214 .4019928 .20341492 .4019928 .13441468 .4019928 .033325197 .27198792 .033325197 .21998596 .033325197 .16999817 .055358888 .14299011 .089416507 .18499756 .09541321 .20498657 .12741089 .20498657 .16041565 .20498657 .2064209 .16899109 .23242188 .1329956 .23242188 .101989749 .23242188 .06098938 .2124176 .06098938 .15841675 .06098938 .068374637 .1459961-.013671875 .27598573-.013671875 .45399476-.013671875 .5509949 .08340454 .5509949 .20141602 .5509949 .31323243 .47099305 .41210938 .30999757 .41210938 .2619934 .41210938 .21598816 .4031067 .17599488 .3781128V.5010834Z"/>
<path id="font_7_8" d="M.57699587 .3771515C.58200076 .3951416 .58200076 .3971405 .58200076 .40014649 .58200076 .4221344 .56599429 .44413758 .5349884 .44413758 .48298646 .44413758 .47099305 .3971405 .46398927 .3701477L.43798829 .26615907C.42599488 .2181549 .40699769 .14117432 .3959961 .10017395 .3909912 .07817078 .3600006 .05418396 .35699464 .05218506 .34599305 .045181276 .32199098 .028182984 .2889862 .028182984 .22999573 .028182984 .22898865 .07817078 .22898865 .10116577 .22898865 .16217041 .2599945 .24015808 .28799439 .31214906 .2979889 .33815003 .30099488 .3451538 .30099488 .3621521 .30099488 .4201355 .24299622 .45214845 .18798828 .45214845 .08198547 .45214845 .03199768 .31614686 .03199768 .29615785 .03199768 .28215028 .04699707 .28215028 .055999757 .28215028 .067993167 .28215028 .07499695 .28215028 .07899475 .29515077 .11199951 .4061432 .16699219 .4161377 .18199158 .4161377 .18899536 .4161377 .19898987 .4161377 .19898987 .3951416 .19898987 .3721466 .18798828 .34614564 .18199158 .33015443 .14299011 .23016358 .12199402 .173172 .12199402 .122177127 .12199402 .008178711 .22200012-.0078125 .2809906-.0078125 .30599977-.0078125 .33999635-.0038146973 .3769989 .02218628 .34899903-.10101318 .27398683-.16615296 .20498657-.16615296 .19198609-.16615296 .1639862-.16415406 .14399719-.15213013 .17599488-.13909912 .19198609-.11204529 .19198609-.0849762 .19198609-.04890442 .16299439-.038879396 .14299011-.038879396 .10598755-.038879396 .070999149-.07095337 .070999149-.11505127 .070999149-.16615296 .12399292-.20214844 .20498657-.20214844 .31999208-.20214844 .45199586-.12506104 .48298646-.0008239746L.57699587 .3771515Z"/>
<path id="font_10_3" d="M.7709961 .3310547C.7859955 .3310547 .81199648 .3310547 .81199648 .35905458 .81199648 .38604737 .7849884 .38604737 .7719879 .38604737H.101989749C.08898926 .38604737 .06199646 .38604737 .06199646 .35905458 .06199646 .3310547 .08799744 .3310547 .102996829 .3310547H.7709961M.7719879 .112960819C.7849884 .112960819 .81199648 .112960819 .81199648 .13995362 .81199648 .16796875 .7859955 .16796875 .7709961 .16796875H.102996829C.08799744 .16796875 .06199646 .16796875 .06199646 .13995362 .06199646 .112960819 .08898926 .112960819 .101989749 .112960819H.7719879Z"/>
<path id="font_10_4" d="M.46798707 .117126468C.46798707 .12913513 .45700074 .12913513 .44699098 .12913513 .43099977 .12913513 .42999269 .12812805 .4249878 .11613464 .41799928 .09713745 .3909912 .030136109 .29899598 .030136109 .1579895 .030136109 .1579895 .1821289 .1579895 .22712708 .1579895 .28611756 .15899658 .41711427 .2899933 .41711427 .29699708 .41711427 .35598756 .41511537 .35598756 .41011048 .35598756 .40911866 .35499574 .40811158 .35299684 .40711976 .34999085 .40411378 .33699037 .38911439 .33699037 .36412049 .33699037 .32211305 .37098695 .30511476 .3959961 .30511476 .4169922 .30511476 .45498658 .31811524 .45498658 .3651123 .45498658 .44711305 .33999635 .453125 .28599549 .453125 .10798645 .453125 .037994386 .33711244 .037994386 .22212219 .037994386 .086135867 .1329956-.005859375 .27999879-.005859375 .43699647-.005859375 .46798707 .11012268 .46798707 .117126468Z"/>
<path id="font_10_7" d="M.5299988 .21913147C.5299988 .35412599 .43798829 .453125 .2809906 .453125 .117996219 .453125 .0309906 .3491211 .0309906 .21913147 .0309906 .088134769 .12298584-.005859375 .27999879-.005859375 .44299317-.005859375 .5299988 .09312439 .5299988 .21913147M.2809906 .030136109C.15098572 .030136109 .15098572 .14712525 .15098572 .22912598 .15098572 .27612306 .15098572 .3261261 .16999817 .36212159 .19198609 .40211488 .23699951 .42012025 .27999879 .42012025 .33699037 .42012025 .37298585 .39311219 .3899994 .3651123 .4099884 .32911683 .4099884 .27713014 .4099884 .22912598 .4099884 .14613343 .4099884 .030136109 .2809906 .030136109Z"/>
<path id="font_10_8" d="M.3769989 .42712403C.3769989 .44612123 .3769989 .453125 .3619995 .453125 .35598756 .453125 .35398866 .453125 .33898927 .4441223 .33499146 .44111634 .32398988 .43411256 .31900025 .43112184 .29100038 .44711305 .2539978 .453125 .21798706 .453125 .18798828 .453125 .037994386 .453125 .037994386 .32312013 .037994386 .21812439 .1619873 .19612122 .19299317 .19113159 .21998596 .18612671 .25299073 .18013 .25698854 .18013 .29699708 .17112732 .33699037 .14613343 .33699037 .10412598 .33699037 .027130127 .24598694 .027130127 .22499085 .027130127 .17399597 .027130127 .11099243 .043136598 .08299255 .14012146 .07699585 .16012573 .07598877 .16113281 .05899048 .16113281 .037994386 .16113281 .037994386 .15812683 .037994386 .13513184V.020126343C.037994386 .0011291504 .037994386-.005859375 .052993776-.005859375 .05999756-.005859375 .06199646-.005859375 .08198547 .010131836L.10798645 .029129029C.15299988-.005859375 .20698548-.005859375 .22499085-.005859375 .27999879-.005859375 .40499879 .006134033 .40499879 .13912964 .40499879 .18713379 .3789978 .22012329 .35899354 .23812866 .31799317 .27212525 .28399659 .27812196 .22999573 .28811646 .1659851 .29911805 .10598755 .31011964 .10598755 .35812379 .10598755 .42311097 .19499207 .42311097 .21598816 .42311097 .32699586 .42311097 .33299256 .3531189 .33499146 .328125 .33599855 .3151245 .34399415 .3151245 .35598756 .3151245 .3769989 .3151245 .3769989 .31811524 .3769989 .3411255V.42712403Z"/>
<path id="font_7_7" d="M.5359955 .4011383C.5 .3911438 .48199464 .35714723 .48199464 .33215333 .48199464 .31015016 .49899293 .28614808 .5319977 .28614808 .5669861 .28614808 .60398867 .31515504 .60398867 .364151 .60398867 .41714479 .5509949 .45214845 .48999024 .45214845 .43299867 .45214845 .3959961 .4091339 .3829956 .3911438 .35798646 .433136 .3019867 .45214845 .24499512 .45214845 .11898804 .45214845 .050994874 .32914735 .050994874 .29615785 .050994874 .28215028 .06599426 .28215028 .07499695 .28215028 .08699036 .28215028 .09399414 .28215028 .09799194 .29515077 .1269989 .38613893 .19898987 .4161377 .23999024 .4161377 .27799989 .4161377 .29599 .39814759 .29599 .3661499 .29599 .3471527 .28199769 .29216004 .272995 .2561493L.23899842 .11917114C.22399903 .058181764 .18798828 .028182984 .1539917 .028182984 .14898682 .028182984 .12599182 .028182984 .10598755 .043182374 .14199829 .05317688 .1599884 .08717346 .1599884 .11216736 .1599884 .13417053 .14299011 .1581726 .10998535 .1581726 .07499695 .1581726 .037994386 .12916565 .037994386 .08016968 .037994386 .027175904 .09098816-.0078125 .1519928-.0078125 .20899964-.0078125 .24598694 .035186769 .25898744 .05317688 .28399659 .011184692 .33999635-.0078125 .39698792-.0078125 .522995-.0078125 .59098818 .11517334 .59098818 .14816284 .59098818 .16217041 .57598879 .16217041 .5669861 .16217041 .5549927 .16217041 .5479889 .16217041 .5439911 .14916992 .5149994 .058181764 .44299317 .028182984 .4019928 .028182984 .3639984 .028182984 .34599305 .046173097 .34599305 .07817078 .34599305 .09916687 .35899354 .15216065 .36799623 .18916321 .375 .21516419 .397995 .30915834 .40299989 .32514955 .41799928 .3851471 .45298768 .4161377 .48799134 .4161377 .49299623 .4161377 .5159912 .4161377 .5359955 .4011383Z"/>
<path id="font_11_84" d="M.59999087 .22319031C.59999087 .3561859 .5089874 .4501953 .36499024 .4501953 .2899933 .4501953 .23699951 .41918946 .21398926 .40118409V.4501953L.036987306 .4423828V.39537049C.09899902 .39537049 .10598755 .39537049 .10598755 .3573761V-.14648438H.036987306V-.1934967L.16299439-.19049073 .2889862-.1934967V-.14648438H.21998596V.03945923C.2630005 .004135132 .30699159-.005859375 .34799195-.005859375 .49798585-.005859375 .59999087 .08413696 .59999087 .22312927V.22319031M.47200013 .22312927C.47200013 .08213806 .4019928 .030136109 .33699037 .030136109 .32299806 .030136109 .27598573 .030136109 .23098755 .08413696 .21998596 .09713745 .21998596 .09812927 .21998596 .117126468V.32913209C.21998596 .34814454 .22099304 .3491516 .23498535 .36314393 .2749939 .4041443 .32699586 .41015626 .34899903 .41015626 .41600038 .41015626 .47200013 .3491516 .47200013 .22314453V.22312927Z"/>
<path id="font_11_50" d="M.49398805 .11706543C.49398805 .13504029 .47499085 .13504029 .46998597 .13504029 .45298768 .13504029 .45098878 .13005066 .44499208 .11405945 .42399598 .066101077 .36698915 .03413391 .3019867 .03413391 .16099549 .03413391 .1599884 .16700745 .1599884 .2179718H.46199037C.48399354 .2179718 .49398805 .2179718 .49398805 .2449646 .49398805 .27598573 .48799134 .34906007 .43798829 .3991089 .40098573 .43511964 .34799195 .453125 .2789917 .453125 .11898804 .453125 .03199768 .35005189 .03199768 .22497559 .03199768 .09107971 .13198853-.005859375 .29299928-.005859375 .45098878-.005859375 .49398805 .10006714 .49398805 .11706543M.39898683 .25097657H.1599884C.1619873 .29000855 .16299439 .3320465 .18399048 .36506654 .20999146 .4051056 .25 .41711427 .2789917 .41711427 .3959961 .41711427 .397995 .28599549 .39898683 .25097657Z"/>
<path id="font_11_96" d="M.44198609 .36819459C.44198609 .42118836 .3880005 .4501953 .33599855 .4501953 .2659912 .4501953 .22599793 .40019227 .20298767 .33718873V.4501953L.036987306 .4423828V.39537049C.09899902 .39537049 .10598755 .39537049 .10598755 .3563385V.04699707H.036987306V0L.16299439 .0029907227C.20098877 .0029907227 .2649994 .0029907227 .30099488 0V.04699707H.21398926V.22218323C.21398926 .29226686 .23899842 .41436769 .33898927 .41436769 .33898927 .41436769 .31999208 .39736939 .31999208 .36834718 .31999208 .32730104 .35198976 .3072815 .3809967 .3072815 .4099884 .3072815 .44198609 .3283081 .44198609 .36834718V.36819459Z"/>
<path id="font_11_66" d="M.28599549 0V.04699707H.22399903V.4501953L.049987794 .4423828V.39537049C.10899353 .39537049 .115997318 .39537049 .115997318 .3563385V.04699707H.04699707V0L.16899109 .0029907227 .28599549 0M.23799134 .60728457C.23799134 .6502838 .20298767 .6852875 .1599884 .6852875 .116989139 .6852875 .08198547 .6502838 .08198547 .60728457 .08198547 .5642853 .116989139 .5292969 .1599884 .5292969 .20298767 .5292969 .23799134 .5642853 .23799134 .60728457Z"/>
<path id="font_11_81" d="M.5419922 .21812439C.5419922 .35212709 .44999696 .453125 .2869873 .453125 .12298584 .453125 .03199768 .35112 .03199768 .21812439 .03199768 .09413147 .11999512-.005859375 .2869873-.005859375 .45498658-.005859375 .5419922 .09512329 .5419922 .21812439M.4139862 .22912598C.4139862 .14213562 .4139862 .03413391 .2869873 .03413391 .1599884 .03413391 .1599884 .14213562 .1599884 .22912598 .1599884 .27412416 .1599884 .32511903 .1769867 .3591156 .19599915 .39611817 .23799134 .41711427 .2869873 .41711427 .32899476 .41711427 .37098695 .40112306 .3929901 .36611939 .4139862 .3321228 .4139862 .27713014 .4139862 .22912598Z"/>
<path id="font_11_47" d="M.6009979 0V.04699707C.5389862 .04699707 .5319977 .04699707 .5319977 .086013797V.69433596L.35499574 .6855469V.63853457C.4169922 .63853457 .42399598 .63853457 .42399598 .5996704V.40518189C.37399293 .44418336 .32199098 .4501953 .2889862 .4501953 .14299011 .4501953 .037994386 .36218263 .037994386 .22116089 .037994386 .089141849 .12998963-.005859375 .27799989-.005859375 .33898927-.005859375 .3869934 .018127442 .41799928 .043136598V-.005859375L.6009979 0M.41799928 .102996829C.40499879 .08514404 .3639984 .030136109 .28799439 .030136109 .1659851 .030136109 .1659851 .15115357 .1659851 .22116089 .1659851 .26916505 .1659851 .3231659 .19198609 .36218263 .22099304 .40419007 .2679901 .41418458 .29899598 .41418458 .35598756 .41418458 .3959961 .3821869 .41799928 .35317994V.102996829Z"/>
<path id="font_6_6" d="M.5169983 .22209168H.46998597C.46699525 .20207215 .45799256 .13800049 .44400025 .1309967 .43299867 .125 .35798646 .125 .34199525 .125H.19499207C.24198914 .16403198 .2939911 .20707703 .33898927 .2401123 .45298768 .3242035 .5169983 .37124635 .5169983 .4663086 .5169983 .5812988 .41299439 .65527346 .27198792 .65527346 .15098572 .65527346 .056991579 .593277 .056991579 .50331118 .056991579 .44430543 .10499573 .42930604 .1289978 .42930604 .16099549 .42930604 .20098877 .4513092 .20098877 .50131228 .20098877 .55329897 .15899658 .5693054 .14399719 .5733032 .17298889 .5972748 .21099854 .6082611 .24699402 .6082611 .33299256 .6082611 .3789978 .54029849 .3789978 .4653015 .3789978 .39627076 .34098817 .3282013 .2709961 .25712586L.069992069 .051986696C.056991579 .039993287 .056991579 .037994386 .056991579 .017990113V0H.48599244L.5169983 .22209168Z"/>
<path id="font_12_28" d="M.71598818 .034179689C.71598818 .06712341 .69898989 .06712341 .6779938 .06712341H.6719971C.6589966 .06712341 .621994 .06712341 .6009979 .07710266V.28977967C.6009979 .36997987 .5379944 .4560547 .32499696 .4560547 .2539978 .4560547 .10598755 .4560547 .10598755 .34791566 .10598755 .2998047 .14099121 .27172853 .18099976 .27172853 .22499085 .27172853 .2559967 .30381776 .2559967 .34692384 .2559967 .36395265 .25099183 .38000489 .24198914 .3920288 .2789917 .40003968 .30899049 .40003968 .32598878 .40003968 .41600038 .40003968 .46798707 .3659668 .46798707 .28677369V.2677307C.45498658 .26672364 .35198976 .26872254 .25299073 .25071717 .13398743 .22871399 .057998659 .19378662 .057998659 .11997986 .057998659-.0078125 .25099183-.0078125 .2899933-.0078125 .3880005-.0078125 .46099855 .015182495 .49198915 .060150148 .5 .00018310547 .56999209 .00018310547 .644989 .00018310547 .70899966 .00018310547 .71598818 .00018310547 .71598818 .034179689M.46798707 .13294983C.46798707 .10902405 .46798707 .08308411 .4169922 .06413269 .37599183 .048187257 .32299806 .048187257 .31698609 .048187257 .24598694 .048187257 .19099427 .07510376 .19099427 .12098694 .19099427 .20974732 .41999818 .21772766 .46798707 .21972656V.13294983Z"/>
<path id="font_12_75" d="M1.1799927 0V.066986087H1.1080017V.29508973C1.1080017 .44114686 .98999026 .45214845 .91400149 .45214845 .84999087 .45214845 .7630005 .43914796 .69699099 .3571167 .6689911 .42913819 .6100006 .45214845 .5109863 .45214845 .37199403 .45214845 .30799867 .38012696 .2849884 .3451233V.45214845L.09700012 .44433595V.3773346C.16099549 .3773346 .16899109 .3773346 .16899109 .33828736V.066986087H.09700012V0L.23599243 .0039978029C.272995 .0039978029 .32998658 .0029907227 .37399293 0V.066986087H.3019867V.2421875C.3019867 .36412049 .4269867 .39613343 .4869995 .39613343 .5509949 .39613343 .57199099 .37213136 .57199099 .29708863V.066986087H.5V0L.6389923 .0039978029C.6759949 .0039978029 .73298647 .0029907227 .7769928 0V.066986087H.7049866V.24206543C.7049866 .36412049 .8299866 .39613343 .8899994 .39613343 .95399478 .39613343 .97499087 .37213136 .97499087 .29708863V.066986087H.9029999V0L1.0419922 .0039978029C1.0789948 .0039978029 1.1360016 .0029907227 1.1799927 0Z"/>
<path id="font_12_84" d="M.7739868 .22314453C.7739868 .33114625 .69299319 .45214845 .48399354 .45214845 .44499208 .45214845 .36099244 .44914247 .2809906 .4081421V.45214845L.083999637 .44433595V.3773346H.100997928C.1559906 .3773346 .1559906 .37132264 .1559906 .3433075V-.12695313H.083999637V-.19395447L.22200012-.18995667 .36099244-.19395447V-.12695313H.2889862V.03718567C.31698609 .020187378 .375-.0078125 .45999146-.0078125 .6689911-.0078125 .7739868 .10119629 .7739868 .22325135V.22314453M.6239929 .22225952C.6239929 .112213138 .5499878 .048187257 .44499208 .048187257 .397995 .048187257 .33799745 .063186649 .2889862 .1282196V.32730104C.33999635 .3801422 .41799928 .39013673 .45799256 .39013673 .56799319 .39013673 .6239929 .31814576 .6239929 .22213745V.22225952Z"/>
<path id="font_12_72" d="M.36999513 0V.066986087H.2979889V.69433596L.100997928 .6855469V.61854556C.16499329 .61854556 .17298889 .61854556 .17298889 .5795746V.066986087H.100997928V0C.1459961 .0029907227 .18998719 .0039978029 .23498535 .0039978029 .23899842 .0039978029 .31698609 .0039978029 .36999513 0Z"/>
<path id="font_12_66" d="M.36299134 0V.066986087H.2979889V.45214845L.10398865 .44433595V.3773346C.1659851 .3773346 .17298889 .3773346 .17298889 .33828736V.066986087H.100997928V0C.14498902 .0029907227 .18998719 .0039978029 .23399353 .0039978029 .2769928 .0039978029 .31999208 .0029907227 .36299134 0M.3039856 .60250857C.3039856 .6505127 .2639923 .68652346 .21798706 .68652346 .16999817 .68652346 .13198853 .6485138 .13198853 .6035156 .13198853 .5555115 .17199707 .519516 .21798706 .519516 .2659912 .519516 .3039856 .5575104 .3039856 .60250857Z"/>
<path id="font_12_105" d="M.49899293 .1191864V.1671753H.41600038V.123184207C.41600038 .093185428 .4059906 .05418396 .34799195 .05418396 .2849884 .054092409 .2849884 .09408569 .2849884 .12109375V.3773346H.47499085V.44433595H.2849884V.6357422H.20199585C.19999695 .53352358 .1459961 .43632508 .04399109 .43333436V.3773346H.1519928V.11820984C.1519928 .0051727297 .26098634-.0078125 .32598878-.0078125 .39898683-.0078125 .49899293 .018173218 .49899293 .11921692V.1191864Z"/>
<path id="font_12_109" d="M.776001 .00018310547V.06718445C.71199038 .06718445 .70399478 .06718445 .70399478 .106170658V.45214845L.49899293 .44433595V.3773346C.5629883 .3773346 .57099917 .3773346 .57099917 .3383026V.15823365C.57099917 .06518555 .47399903 .048187257 .4059906 .048187257 .3019867 .048187257 .3019867 .06819153 .3019867 .112213138V.45214845L.09700012 .44433595V.3773346C.16099549 .3773346 .16899109 .3773346 .16899109 .3383026V.11820984C.16899109 .0021820069 .2899933-.0078125 .3849945-.0078125 .4189911-.0078125 .5139923-.0078125 .57899478 .05718994V-.0078125L.776001 .00018310547Z"/>
<path id="font_12_47" d="M.7549896 .00018310547V.06718445C.69099429 .06718445 .68299868 .06718445 .68299868 .10618591V.69433596L.48599244 .6855469V.61854556C.5499878 .61854556 .55799868 .61854556 .55799868 .5796814V.41114808C.5179901 .43214417 .45700074 .45214845 .37799073 .45214845 .1639862 .45214845 .06498718 .34014894 .06498718 .22116089 .06498718 .11216736 .1519928-.0078125 .3639984-.0078125 .44099427-.0078125 .5039978 .013183594 .5499878 .04118347V-.0078125L.7549896 .00018310547M.5499878 .13198853C.5 .06817627 .43499757 .048187257 .37799073 .048187257 .21499634 .048187257 .21499634 .16716004 .21499634 .22015381 .21499634 .27415467 .21499634 .39613343 .3929901 .39613343 .43699647 .39613343 .4869995 .3851471 .5289917 .3511505 .5499878 .33415223 .5499878 .33314515 .5499878 .31315614V.13198853Z"/>
<path id="font_12_50" d="M.6349945 .11022949C.6349945 .1352539 .61099246 .1352539 .5970001 .1352539H.58999636C.57099917 .1352539 .5629883 .1352539 .55400088 .12124634 .5439911 .10221863 .5159912 .05418396 .4099884 .05418396 .2829895 .05418396 .21699524 .10322571 .20799256 .19726563H.5970001C.61698916 .19726563 .6349945 .19726563 .6349945 .22921753 .6349945 .2871704 .61299136 .35508729 .57099917 .39305116 .5249939 .43304444 .46499635 .4560547 .3659973 .4560547 .14199829 .4560547 .056991579 .33311463 .056991579 .2262268 .056991579 .12023926 .14199829-.0078125 .3869934-.0078125 .4119873-.0078125 .48098756-.0078125 .54100039 .016174317 .60899356 .04335022 .6349945 .096343997 .6349945 .11035156V.11022949M.5339966 .24804688H.20799256C.20899964 .28404237 .21099854 .40003968 .36698915 .40003968 .5029907 .40003968 .5289917 .31504823 .5339966 .24804688Z"/>
<path id="font_12_82" d="M.6399994 0V.066986087H.45899964V.6232147C.45899964 .6541443 .45298768 .6611328 .42099 .6611328H.3999939C.31498719 .5972595 .18598938 .5972595 .16299439 .5972595H.13598633V.53027346H.16299439C.1749878 .53027346 .2519989 .53027346 .32499696 .55526736V.066986087H.14399719V0C.19299317 .0039978029 .33499146 .0039978029 .3919983 .0039978029 .44898988 .0039978029 .59098818 .0039978029 .6399994 0Z"/>
</defs>
<path transform="matrix(1,0,0,-1,176.146,109.144)" stroke-width=".3985" stroke-linecap="butt" stroke-miterlimit="10" stroke-linejoin="miter" fill="none" stroke="#c9e6f5" d="M-170.08086-72.56697H249.452M-170.08086-63.4961H249.452M-170.08086-54.42522H249.452M-170.08086-45.35435H249.452M-170.08086-36.28348H249.452M-170.08086-27.2126H249.452M-170.08086-18.14172H249.452M-170.08086-9.07086H249.452M-170.08086 0H249.452M-170.08086 9.07086H249.452M-170.08086 18.14172H249.452M-170.08086 27.2126H249.452M-170.08086 36.28348H249.452M-170.08086 45.35435H249.452M-170.08086 54.42522H249.452M-170.08086 63.4961H249.452M-170.08086 72.56697H249.452M-170.08086 81.63783H249.452M-170.08086 90.70871H249.452M-170.0782-72.56836V90.71013M-164.40894-72.56836V90.71013M-158.73966-72.56836V90.71013M-153.07039-72.56836V90.71013M-147.40111-72.56836V90.71013M-141.73184-72.56836V90.71013M-136.06256-72.56836V90.71013M-130.3933-72.56836V90.71013M-124.72401-72.56836V90.71013M-119.05475-72.56836V90.71013M-113.38547-72.56836V90.71013M-107.7162-72.56836V90.71013M-102.04692-72.56836V90.71013M-96.37764-72.56836V90.71013M-90.70837-72.56836V90.71013M-85.0391-72.56836V90.71013M-79.36983-72.56836V90.71013M-73.70055-72.56836V90.71013M-68.03128-72.56836V90.71013M-62.362-72.56836V90.71013M-56.69273-72.56836V90.71013M-51.02345-72.56836V90.71013M-45.35419-72.56836V90.71013M-39.6849-72.56836V90.71013M-34.01564-72.56836V90.71013M-28.34636-72.56836V90.71013M-22.6771-72.56836V90.71013M-17.00781-72.56836V90.71013M-11.33855-72.56836V90.71013M-5.66927-72.56836V90.71013M0-72.56836V90.71013M5.66927-72.56836V90.71013M11.33855-72.56836V90.71013M17.00781-72.56836V90.71013M22.6771-72.56836V90.71013M28.34636-72.56836V90.71013M34.01564-72.56836V90.71013M39.6849-72.56836V90.71013M45.35419-72.56836V90.71013M51.02345-72.56836V90.71013M56.69273-72.56836V90.71013M62.362-72.56836V90.71013M68.03128-72.56836V90.71013M73.70055-72.56836V90.71013M79.36983-72.56836V90.71013M85.0391-72.56836V90.71013M90.70837-72.56836V90.71013M96.37764-72.56836V90.71013M102.04692-72.56836V90.71013M107.7162-72.56836V90.71013M113.38547-72.56836V90.71013M119.05475-72.56836V90.71013M124.72401-72.56836V90.71013M130.3933-72.56836V90.71013M136.06256-72.56836V90.71013M141.73184-72.56836V90.71013M147.40111-72.56836V90.71013M153.07039-72.56836V90.71013M158.73966-72.56836V90.71013M164.40894-72.56836V90.71013M170.0782-72.56836V90.71013M175.74748-72.56836V90.71013M181.41675-72.56836V90.71013M187.08603-72.56836V90.71013M192.7553-72.56836V90.71013M198.42458-72.56836V90.71013M204.09384-72.56836V90.71013M209.76313-72.56836V90.71013M215.4324-72.56836V90.71013M221.10167-72.56836V90.71013M226.77095-72.56836V90.71013M232.44022-72.56836V90.71013M238.1095-72.56836V90.71013M243.77877-72.56836V90.71013M249.44805-72.56836V90.71013M249.452 90.71013"/>
<path transform="matrix(1,0,0,-1,176.146,109.144)" stroke-width=".79701" stroke-linecap="butt" stroke-miterlimit="10" stroke-linejoin="miter" fill="none" stroke="#000000" d="M-165.41838 0H244.78952"/>
<path transform="matrix(-1,-0,0,1,10.727615,109.144)" d="M4.66248 0C3.28098 .25902 1.0361 1.0361-.51805 1.94269V-1.94269C1.0361-1.0361 3.28098-.25902 4.66248 0"/>
<path transform="matrix(1,0,0,-1,420.93553,109.144)" d="M4.66248 0C3.28098 .25902 1.0361 1.0361-.51805 1.94269V-1.94269C1.0361-1.0361 3.28098-.25902 4.66248 0"/>
<use data-text="x" xlink:href="#font_1_3" transform="matrix(8.9664,0,0,-8.9664,429.317,111.13699)"/>
<path transform="matrix(1,0,0,-1,176.146,109.144)" stroke-width=".79701" stroke-linecap="butt" stroke-miterlimit="10" stroke-linejoin="miter" fill="none" stroke="#000000" d="M0-67.90588V86.04764"/>
<path transform="matrix(0,1,1,0,176.146,177.04988)" d="M4.66248 0C3.28098 .25902 1.0361 1.0361-.51805 1.94269V-1.94269C1.0361-1.0361 3.28098-.25902 4.66248 0"/>
<path transform="matrix(0,-1,-1,-0,176.146,23.09636)" d="M4.66248 0C3.28098 .25902 1.0361 1.0361-.51805 1.94269V-1.94269C1.0361-1.0361 3.28098-.25902 4.66248 0"/>
<use data-text="y" xlink:href="#font_1_4" transform="matrix(8.9664,0,0,-8.9664,173.251,12.9710049)"/>
<path transform="matrix(1,0,0,-1,176.146,109.144)" stroke-width=".79701" stroke-linecap="butt" stroke-miterlimit="10" stroke-linejoin="miter" fill="none" stroke="#000000" d="M-141.73404 1.81386V-1.81386"/>
<use data-text="&#x2212;" xlink:href="#font_2_1" transform="matrix(4.9813,0,0,-4.9813,29.547989,119.746997)"/>
<use data-text="5" xlink:href="#font_3_6" transform="matrix(4.9813,0,0,-4.9813,35.497987,119.746997)"/>
<path transform="matrix(1,0,0,-1,176.146,109.144)" stroke-width=".79701" stroke-linecap="butt" stroke-miterlimit="10" stroke-linejoin="miter" fill="none" stroke="#000000" d="M-113.38724 1.81386V-1.81386"/>
<use data-text="&#x2212;" xlink:href="#font_2_1" transform="matrix(4.9813,0,0,-4.9813,57.894998,119.746997)"/>
<use data-text="4" xlink:href="#font_3_5" transform="matrix(4.9813,0,0,-4.9813,63.844995,119.746997)"/>
<path transform="matrix(1,0,0,-1,176.146,109.144)" stroke-width=".79701" stroke-linecap="butt" stroke-miterlimit="10" stroke-linejoin="miter" fill="none" stroke="#000000" d="M-85.04042 1.81386V-1.81386"/>
<use data-text="&#x2212;" xlink:href="#font_2_1" transform="matrix(4.9813,0,0,-4.9813,86.242,119.746997)"/>
<use data-text="3" xlink:href="#font_3_4" transform="matrix(4.9813,0,0,-4.9813,92.19199,119.746997)"/>
<path transform="matrix(1,0,0,-1,176.146,109.144)" stroke-width=".79701" stroke-linecap="butt" stroke-miterlimit="10" stroke-linejoin="miter" fill="none" stroke="#000000" d="M-56.69362 1.81386V-1.81386"/>
<use data-text="&#x2212;" xlink:href="#font_2_1" transform="matrix(4.9813,0,0,-4.9813,114.589,119.746997)"/>
<use data-text="2" xlink:href="#font_3_3" transform="matrix(4.9813,0,0,-4.9813,120.538997,119.746997)"/>
<path transform="matrix(1,0,0,-1,176.146,109.144)" stroke-width=".79701" stroke-linecap="butt" stroke-miterlimit="10" stroke-linejoin="miter" fill="none" stroke="#000000" d="M-28.3468 1.81386V-1.81386"/>
<use data-text="&#x2212;" xlink:href="#font_2_1" transform="matrix(4.9813,0,0,-4.9813,142.936,119.746997)"/>
<use data-text="1" xlink:href="#font_3_2" transform="matrix(4.9813,0,0,-4.9813,148.88599,119.746997)"/>
<path transform="matrix(1,0,0,-1,176.146,109.144)" stroke-width=".79701" stroke-linecap="butt" stroke-miterlimit="10" stroke-linejoin="miter" fill="none" stroke="#000000" d="M28.3468 1.81386V-1.81386"/>
<use data-text="1" xlink:href="#font_3_2" transform="matrix(4.9813,0,0,-4.9813,202.604,119.304)"/>
<path transform="matrix(1,0,0,-1,176.146,109.144)" stroke-width=".79701" stroke-linecap="butt" stroke-miterlimit="10" stroke-linejoin="miter" fill="none" stroke="#000000" d="M56.69362 1.81386V-1.81386"/>
<use data-text="2" xlink:href="#font_3_3" transform="matrix(4.9813,0,0,-4.9813,230.95099,119.304)"/>
<path transform="matrix(1,0,0,-1,176.146,109.144)" stroke-width=".79701" stroke-linecap="butt" stroke-miterlimit="10" stroke-linejoin="miter" fill="none" stroke="#000000" d="M85.04042 1.81386V-1.81386"/>
<use data-text="3" xlink:href="#font_3_4" transform="matrix(4.9813,0,0,-4.9813,259.298,119.304)"/>
<path transform="matrix(1,0,0,-1,176.146,109.144)" stroke-width=".79701" stroke-linecap="butt" stroke-miterlimit="10" stroke-linejoin="miter" fill="none" stroke="#000000" d="M113.38724 1.81386V-1.81386"/>
<use data-text="4" xlink:href="#font_3_5" transform="matrix(4.9813,0,0,-4.9813,287.645,119.304)"/>
<path transform="matrix(1,0,0,-1,176.146,109.144)" stroke-width=".79701" stroke-linecap="butt" stroke-miterlimit="10" stroke-linejoin="miter" fill="none" stroke="#000000" d="M141.73404 1.81386V-1.81386"/>
<use data-text="5" xlink:href="#font_3_6" transform="matrix(4.9813,0,0,-4.9813,315.991,119.304)"/>
<path transform="matrix(1,0,0,-1,176.146,109.144)" stroke-width=".79701" stroke-linecap="butt" stroke-miterlimit="10" stroke-linejoin="miter" fill="none" stroke="#000000" d="M170.08086 1.81386V-1.81386"/>
<use data-text="6" xlink:href="#font_3_7" transform="matrix(4.9813,0,0,-4.9813,344.33799,119.304)"/>
<path transform="matrix(1,0,0,-1,176.146,109.144)" stroke-width=".79701" stroke-linecap="butt" stroke-miterlimit="10" stroke-linejoin="miter" fill="none" stroke="#000000" d="M198.42766 1.81386V-1.81386"/>
<use data-text="7" xlink:href="#font_3_8" transform="matrix(4.9813,0,0,-4.9813,372.685,119.304)"/>
<path transform="matrix(1,0,0,-1,176.146,109.144)" stroke-width=".79701" stroke-linecap="butt" stroke-miterlimit="10" stroke-linejoin="miter" fill="none" stroke="#000000" d="M226.77448 1.81386V-1.81386"/>
<use data-text="8" xlink:href="#font_3_9" transform="matrix(4.9813,0,0,-4.9813,401.03199,119.304)"/>
<path transform="matrix(1,0,0,-1,176.146,109.144)" stroke-width=".79701" stroke-linecap="butt" stroke-miterlimit="10" stroke-linejoin="miter" fill="none" stroke="#000000" d="M1.13367 45.35506H-1.13367"/>
<use data-text="1" xlink:href="#font_4_5" transform="matrix(7.9701,0,0,-7.9701,165.561,72.644)"/>
<path transform="matrix(1,0,0,-1,176.146,109.144)" stroke-width=".79701" stroke-linecap="butt" stroke-miterlimit="10" stroke-linejoin="miter" fill="none" stroke="#000000" d="M1.13367-45.35506H-1.13367"/>
<use data-text="&#x2212;" xlink:href="#font_5_1" transform="matrix(7.9701,0,0,-7.9701,157.967,156.492)"/>
<use data-text="1" xlink:href="#font_4_5" transform="matrix(7.9701,0,0,-7.9701,165.561,156.492)"/>
<use data-text="0" xlink:href="#font_3_1" transform="matrix(4.9813,0,0,-4.9813,180.51599,116.724)"/>
<path transform="matrix(1,0,0,-1,176.146,109.144)" stroke-width="1.59404" stroke-linecap="butt" stroke-miterlimit="10" stroke-linejoin="miter" fill="none" stroke="#06bab1" d="M-147.98613 22.09972-148.95873 23.41386-147.67926 21.63664-146.39981 19.8165-145.12038 17.95557-143.84093 16.05794-142.5615 14.12915-141.28203 12.16922-140.00258 10.18576-138.72315 8.18155-137.4437 6.16074-136.16425 4.12607-134.8848 2.08379-133.60535 .03802-132.3259-2.00694-131.04647-4.04926-129.767-6.08391-128.48755-8.10475-127.20811-10.11034-125.92867-12.09448-124.64922-14.05508-123.36977-15.98593-122.09032-17.88496-120.81087-19.7473-119.53143-21.56952-118.25198-23.34811-116.97253-25.07759-115.69308-26.75722-114.41364-28.38219-113.1342-29.94969-111.85474-31.45633-110.57529-32.89789-109.29585-34.27371-108.0164-35.57828-106.73695-36.81151-105.4575-37.97002-104.17805-39.04967-102.8986-40.05176-101.61917-40.96944-100.3397-41.80615-99.06026-42.55704-97.78082-43.2207-96.50137-43.7979-95.22194-44.28374-93.94247-44.68098-92.66302-44.98618-91.38359-45.19934-90.10414-45.32184-88.82469-45.35156-87.54524-45.28998-86.2658-45.13289-84.98634-44.8865-83.70691-44.54878-82.42744-44.1197-81.148-43.60135-79.86856-42.99234-78.58911-42.2982-77.30966-41.51617-76.03021-40.6497-74.75076-39.70088-73.47133-38.6704-72.19188-37.5631-70.91243-36.37828-69.63298-35.11806-68.35353-33.78787-67.07408-32.38783-65.79465-30.92413-64.51518-29.39465-63.23573-27.80638-61.9563-26.16135-60.67685-24.46303-59.3974-22.71558-58.11795-20.92035-56.8385-19.0843-55.55905-17.20744-54.27962-15.29735-53.00017-13.35472-51.7207-11.38512-50.44127-9.39336-49.16182-7.38152-47.88239-5.35516-46.60292-3.31773-45.32347-1.27339-44.04404 .77231-42.76459 2.81805-41.48514 4.85687-40.20569 6.8867-38.92624 8.90198-37.64679 10.89928-36.36736 12.87442-35.0879 14.82468-33.80844 16.74307-32.529 18.62756-31.24956 20.47467-29.97011 22.27957-28.69066 24.03949-27.41121 25.74959-26.13177 27.40846-24.85233 29.01057-23.57288 30.55388-22.29343 32.03627-21.01398 33.45087-19.73453 34.79901-18.4551 36.07655-17.17563 37.27934-15.89618 38.40741-14.61674 39.45589-13.3373 40.42549-12.05785 41.31062-10.7784 42.11409-9.49895 42.8304-8.2195 43.45947-6.94006 44.00204-5.66061 44.4512-4.38116 44.81247-3.10172 45.08168-1.82227 45.25885-.54283 45.34535 .7366 45.33705 2.01605 45.23877 3.29549 45.04707 4.57494 44.76402 5.85439 44.38962 7.13383 43.92384 8.41328 43.37088 9.69273 42.72726 10.97217 41.99783 12.25162 41.18259 13.53108 40.28362 14.81052 39.30295 16.08997 38.24062 17.36942 37.1022 18.64886 35.88693 19.92831 34.599 21.20775 33.24117 22.4872 31.81483 23.76665 30.32549 25.0461 28.77182 26.32555 27.16138 27.605 25.49422 28.88443 23.77583 30.16388 22.00966 31.44334 20.19714 32.72278 18.3445 34.00223 16.45448 35.28168 14.53053 36.56113 12.57755 37.84058 10.59824 39.12003 8.59816 40.39946 6.58011 41.67891 4.54889 42.95836 2.508 44.23781 .46227 45.51726-1.58272 46.79669-3.62639 48.07614-5.66313 49.3556-7.68672 50.63504-9.69649 51.91449-11.68616 53.19394-13.65092 54.47339-15.58939 55.75284-17.49463 57.03229-19.36461 58.31172-21.19511 59.59117-22.98271 60.87064-24.72462 62.15007-26.41394 63.42952-28.05069 64.70897-29.63068 65.98842-31.14906 67.26787-32.60516 68.5473-33.99344 69.82675-35.31459 71.1062-36.56236 72.38565-37.73543 73.6651-38.83234 74.94455-39.84969 76.22398-40.78673 77.50343-41.63937 78.7829-42.40823 80.06233-43.0906 81.34178-43.68442 82.62123-44.19167 83.90068-44.60553 85.18013-44.9308 86.45958-45.16333 87.73901-45.30383 89.01846-45.35435 90.29791-45.30867 91.57736-45.17441 92.85681-44.94533 94.13625-44.6263 95.4157-44.2166 96.69516-43.71483 97.9746-43.12729 99.25404-42.44836 100.5335-41.68503 101.81294-40.83586 103.09239-39.90366 104.37184-38.89117 105.65128-37.7984 106.93073-36.6302 108.21019-35.38516 109.48962-34.06888 110.76907-32.68475 112.04851-31.23209 113.32796-29.71716 114.60742-28.13927 115.88686-26.5067 117.1663-24.81944 118.44576-23.08167 119.7252-21.29684 121.00465-19.46771 122.2841-17.59984 123.56354-15.69597 124.84299-13.76025 126.12245-11.7955 127.40189-9.80789 128.68134-7.8002 129.96079-5.77594 131.24022-3.74059 132.51969-1.6976 133.79914 .34807 135.07857 2.39383 136.35802 4.43472 137.63747 6.4673 138.91692 8.48605 140.19637 10.48682 141.4758 12.46819 142.75525 14.42258 144.03472 16.3486 145.31415 18.23999 146.5936 20.09471 147.87305 21.91 149.1525 23.67824 150.43195 25.40009 151.7114 27.06934 152.99083 28.68391 154.27028 30.23967 155.54975 31.73386 156.82918 33.16434 158.10863 34.52495 159.38806 35.8177 160.66751 37.03645 161.94698 38.17903 163.22641 39.24551 164.50586 40.23032 165.78531 41.13484 167.06476 41.95424 168.34421 42.68922 169.62366 43.33698 170.90309 43.8955 172.18254 44.36678 173.462 44.74464 174.74144 45.03462 176.02089 45.23047 177.30034 45.33429 178.57978 45.34811 179.85924 45.26576 181.13867 45.09413 182.41812 44.82906 183.69757 44.47475 184.97702 44.02904 186.25647 43.49202 187.53592 42.86914 188.81536 42.15633 190.0948 41.35837 191.37427 40.47668 192.6537 39.51196 193.93315 38.4683 195.2126 37.34373 196.49204 36.14575 197.7715 34.87166 199.05095 33.52768 200.33039 32.11656 201.60984 30.63832 202.8893 29.09917 204.16873 27.4998 205.44818 25.84369 206.72762 24.13637 208.00707 22.37852 209.28653 20.57639 210.56597 18.73135 211.84542 16.84895 213.12487 14.93193 214.4043 12.98447 215.68376 11.01001 216.96321 9.01408 218.24265 6.99951 219.5221 4.96968 220.80156 2.93155 222.081 .88649 223.36045-1.1592 224.6399-3.20424 225.91933-5.24236 227.19879-7.26872 228.47823-9.28194 229.75768-11.27437 231.03713-13.24606 230.23484-12.02756"/>
<path transform="matrix(-.59486,-.80377,-.80377,.59486,28.159882,87.04428)" d="M3.78581 0-2.27148 3.02866 0 0-2.27148-3.02866" fill="#06bab1"/>
<path transform="matrix(.54988,.83517,.83517,-.54988,406.3808,121.17154)" d="M3.78581 0-2.27148 3.02866 0 0-2.27148-3.02866" fill="#06bab1"/>
<path transform="matrix(1,0,0,-1,176.146,109.144)" d="M1.69069 45.35506C1.69069 46.2888 .93375 47.04575 0 47.04575-.93375 47.04575-1.69069 46.2888-1.69069 45.35506-1.69069 44.4213-.93375 43.66435 0 43.66435 .93375 43.66435 1.69069 44.4213 1.69069 45.35506ZM0 45.35506" fill="#ec008c"/>
<path transform="matrix(1,0,0,-1,176.146,109.144)" stroke-width=".3985" stroke-linecap="butt" stroke-miterlimit="10" stroke-linejoin="miter" fill="none" stroke="#ffffff" d="M1.69069 45.35506C1.69069 46.2888 .93375 47.04575 0 47.04575-.93375 47.04575-1.69069 46.2888-1.69069 45.35506-1.69069 44.4213-.93375 43.66435 0 43.66435 .93375 43.66435 1.69069 44.4213 1.69069 45.35506ZM0 45.35506"/>
<use data-text="(" xlink:href="#font_6_1" transform="matrix(9.9626,0,0,-9.9626,148.832,57.767004)"/>
<use data-text="0" xlink:href="#font_6_4" transform="matrix(9.9626,0,0,-9.9626,153.28528,57.767004)"/>
<use data-text="," xlink:href="#font_7_2" transform="matrix(9.9626,0,0,-9.9626,159.01599,57.767004)"/>
<use data-text="1" xlink:href="#font_6_5" transform="matrix(9.9626,0,0,-9.9626,163.859,57.767004)"/>
<use data-text=")" xlink:href="#font_6_2" transform="matrix(9.9626,0,0,-9.9626,169.5875,57.767004)"/>
<path transform="matrix(1,0,0,-1,176.146,109.144)" d="M179.7986 45.35506C179.7986 46.2888 179.04164 47.04575 178.1079 47.04575 177.17414 47.04575 176.41719 46.2888 176.41719 45.35506 176.41719 44.4213 177.17414 43.66435 178.1079 43.66435 179.04164 43.66435 179.7986 44.4213 179.7986 45.35506ZM178.1079 45.35506" fill="#ec008c"/>
<path transform="matrix(1,0,0,-1,176.146,109.144)" stroke-width=".3985" stroke-linecap="butt" stroke-miterlimit="10" stroke-linejoin="miter" fill="none" stroke="#ffffff" d="M179.7986 45.35506C179.7986 46.2888 179.04164 47.04575 178.1079 47.04575 177.17414 47.04575 176.41719 46.2888 176.41719 45.35506 176.41719 44.4213 177.17414 43.66435 178.1079 43.66435 179.04164 43.66435 179.7986 44.4213 179.7986 45.35506ZM178.1079 45.35506"/>
<use data-text="(" xlink:href="#font_4_1" transform="matrix(7.9701,0,0,-7.9701,340.457,56.848)"/>
<use data-text="2" xlink:href="#font_4_6" transform="matrix(7.9701,0,0,-7.9701,344.2508,56.848)"/>
<use data-text="&#x03c0;" xlink:href="#font_8_1" transform="matrix(7.9701,0,0,-7.9701,349.13603,56.848)"/>
<use data-text="," xlink:href="#font_8_3" transform="matrix(7.9701,0,0,-7.9701,355.24909,56.848)"/>
<use data-text="1" xlink:href="#font_4_5" transform="matrix(7.9701,0,0,-7.9701,359.37303,56.848)"/>
<use data-text=")" xlink:href="#font_4_2" transform="matrix(7.9701,0,0,-7.9701,364.2507,56.848)"/>
<path transform="matrix(1,0,0,-1,176.146,109.144)" d="M-87.36324-45.35506C-87.36324-44.4213-88.1202-43.66435-89.05394-43.66435-89.98769-43.66435-90.74464-44.4213-90.74464-45.35506-90.74464-46.2888-89.98769-47.04575-89.05394-47.04575-88.1202-47.04575-87.36324-46.2888-87.36324-45.35506ZM-89.05394-45.35506" fill="#ec008c"/>
<path transform="matrix(1,0,0,-1,176.146,109.144)" stroke-width=".3985" stroke-linecap="butt" stroke-miterlimit="10" stroke-linejoin="miter" fill="none" stroke="#ffffff" d="M-87.36324-45.35506C-87.36324-44.4213-88.1202-43.66435-89.05394-43.66435-89.98769-43.66435-90.74464-44.4213-90.74464-45.35506-90.74464-46.2888-89.98769-47.04575-89.05394-47.04575-88.1202-47.04575-87.36324-46.2888-87.36324-45.35506ZM-89.05394-45.35506"/>
<use data-text="(" xlink:href="#font_6_1" transform="matrix(9.9626,0,0,-9.9626,64.855998,165.502)"/>
<use data-text="&#x2212;" xlink:href="#font_9_1" transform="matrix(9.9626,0,0,-9.9626,69.312,165.502)"/>
<use data-text="&#x03c0;" xlink:href="#font_7_1" transform="matrix(9.9626,0,0,-9.9626,78.223,165.502)"/>
<use data-text="," xlink:href="#font_7_2" transform="matrix(9.9626,0,0,-9.9626,85.38611,165.502)"/>
<use data-text="&#x2212;" xlink:href="#font_9_1" transform="matrix(9.9626,0,0,-9.9626,90.233,165.502)"/>
<use data-text="1" xlink:href="#font_6_5" transform="matrix(9.9626,0,0,-9.9626,99.144,165.502)"/>
<use data-text=")" xlink:href="#font_6_2" transform="matrix(9.9626,0,0,-9.9626,104.8725,165.502)"/>
<path transform="matrix(1,0,0,-1,176.146,109.144)" d="M90.74464-45.35506C90.74464-44.4213 89.98769-43.66435 89.05394-43.66435 88.1202-43.66435 87.36324-44.4213 87.36324-45.35506 87.36324-46.2888 88.1202-47.04575 89.05394-47.04575 89.98769-47.04575 90.74464-46.2888 90.74464-45.35506ZM89.05394-45.35506" fill="#ec008c"/>
<path transform="matrix(1,0,0,-1,176.146,109.144)" stroke-width=".3985" stroke-linecap="butt" stroke-miterlimit="10" stroke-linejoin="miter" fill="none" stroke="#ffffff" d="M90.74464-45.35506C90.74464-44.4213 89.98769-43.66435 89.05394-43.66435 88.1202-43.66435 87.36324-44.4213 87.36324-45.35506 87.36324-46.2888 88.1202-47.04575 89.05394-47.04575 89.98769-47.04575 90.74464-46.2888 90.74464-45.35506ZM89.05394-45.35506"/>
<use data-text="(" xlink:href="#font_6_1" transform="matrix(9.9626,0,0,-9.9626,247.419,165.502)"/>
<use data-text="&#x03c0;" xlink:href="#font_7_1" transform="matrix(9.9626,0,0,-9.9626,251.875,165.502)"/>
<use data-text="," xlink:href="#font_7_2" transform="matrix(9.9626,0,0,-9.9626,259.03813,165.502)"/>
<use data-text="&#x2212;" xlink:href="#font_9_1" transform="matrix(9.9626,0,0,-9.9626,263.885,165.502)"/>
<use data-text="1" xlink:href="#font_6_5" transform="matrix(9.9626,0,0,-9.9626,272.79603,165.502)"/>
<use data-text=")" xlink:href="#font_6_2" transform="matrix(9.9626,0,0,-9.9626,278.5245,165.502)"/>
<path transform="matrix(1,0,0,-1,176.146,109.144)" d="M-131.88999 0C-131.88999 .93375-132.64694 1.69069-133.58069 1.69069-134.51444 1.69069-135.2714 .93375-135.2714 0-135.2714-.93375-134.51444-1.69069-133.58069-1.69069-132.64694-1.69069-131.88999-.93375-131.88999 0ZM-133.58069 0" fill="#ec008c"/>
<path transform="matrix(1,0,0,-1,176.146,109.144)" stroke-width=".3985" stroke-linecap="butt" stroke-miterlimit="10" stroke-linejoin="miter" fill="none" stroke="#ffffff" d="M-131.88999 0C-131.88999 .93375-132.64694 1.69069-133.58069 1.69069-134.51444 1.69069-135.2714 .93375-135.2714 0-135.2714-.93375-134.51444-1.69069-133.58069-1.69069-132.64694-1.69069-131.88999-.93375-131.88999 0ZM-133.58069 0"/>
<use data-text="(" xlink:href="#font_4_1" transform="matrix(7.9701,0,0,-7.9701,40.416,99.65401)"/>
<use data-text="&#x2212;" xlink:href="#font_5_1" transform="matrix(7.9701,0,0,-7.9701,44.212999,99.65401)"/>
<use data-text="3" xlink:href="#font_4_7" transform="matrix(7.9701,0,0,-7.9701,53.003,94.104007)"/>
<use data-text="&#x03c0;" xlink:href="#font_8_1" transform="matrix(7.9701,0,0,-7.9701,57.883996,94.104007)"/>
<path transform="matrix(1,0,0,-1,-63.730005,62.508005)" stroke-width=".3587" stroke-linecap="butt" stroke-miterlimit="10" stroke-linejoin="miter" fill="none" stroke="#000000" d="M116.733-35.154H127.728"/>
<use data-text="2" xlink:href="#font_4_6" transform="matrix(7.9701,0,0,-7.9701,56.059,105.625)"/>
<use data-text="," xlink:href="#font_8_3" transform="matrix(7.9701,0,0,-7.9701,65.193,99.65401)"/>
<use data-text="0" xlink:href="#font_4_4" transform="matrix(7.9701,0,0,-7.9701,69.31699,99.65401)"/>
<use data-text=")" xlink:href="#font_4_2" transform="matrix(7.9701,0,0,-7.9701,74.194698,99.65401)"/>
<path transform="matrix(1,0,0,-1,176.146,109.144)" d="M-42.83603 0C-42.83603 .93375-43.59299 1.69069-44.52673 1.69069-45.4605 1.69069-46.21744 .93375-46.21744 0-46.21744-.93375-45.4605-1.69069-44.52673-1.69069-43.59299-1.69069-42.83603-.93375-42.83603 0ZM-44.52673 0" fill="#ec008c"/>
<path transform="matrix(1,0,0,-1,176.146,109.144)" stroke-width=".3985" stroke-linecap="butt" stroke-miterlimit="10" stroke-linejoin="miter" fill="none" stroke="#ffffff" d="M-42.83603 0C-42.83603 .93375-43.59299 1.69069-44.52673 1.69069-45.4605 1.69069-46.21744 .93375-46.21744 0-46.21744-.93375-45.4605-1.69069-44.52673-1.69069-43.59299-1.69069-42.83603-.93375-42.83603 0ZM-44.52673 0"/>
<use data-text="(" xlink:href="#font_4_1" transform="matrix(7.9701,0,0,-7.9701,101.071,99.65401)"/>
<use data-text="&#x2212;" xlink:href="#font_5_1" transform="matrix(7.9701,0,0,-7.9701,104.868,99.65401)"/>
<use data-text="&#x03c0;" xlink:href="#font_8_1" transform="matrix(7.9701,0,0,-7.9701,113.658,94.104007)"/>
<path transform="matrix(1,0,0,-1,-3.0750046,62.508005)" stroke-width=".3587" stroke-linecap="butt" stroke-miterlimit="10" stroke-linejoin="miter" fill="none" stroke="#000000" d="M116.733-35.154H122.846"/>
<use data-text="2" xlink:href="#font_4_6" transform="matrix(7.9701,0,0,-7.9701,114.272998,105.625)"/>
<use data-text="," xlink:href="#font_8_3" transform="matrix(7.9701,0,0,-7.9701,120.965999,99.65401)"/>
<use data-text="0" xlink:href="#font_4_4" transform="matrix(7.9701,0,0,-7.9701,125.08999,99.65401)"/>
<use data-text=")" xlink:href="#font_4_2" transform="matrix(7.9701,0,0,-7.9701,129.96768,99.65401)"/>
<path transform="matrix(1,0,0,-1,176.146,109.144)" d="M46.21744 0C46.21744 .93375 45.4605 1.69069 44.52673 1.69069 43.59299 1.69069 42.83603 .93375 42.83603 0 42.83603-.93375 43.59299-1.69069 44.52673-1.69069 45.4605-1.69069 46.21744-.93375 46.21744 0ZM44.52673 0" fill="#ec008c"/>
<path transform="matrix(1,0,0,-1,176.146,109.144)" stroke-width=".3985" stroke-linecap="butt" stroke-miterlimit="10" stroke-linejoin="miter" fill="none" stroke="#ffffff" d="M46.21744 0C46.21744 .93375 45.4605 1.69069 44.52673 1.69069 43.59299 1.69069 42.83603 .93375 42.83603 0 42.83603-.93375 43.59299-1.69069 44.52673-1.69069 45.4605-1.69069 46.21744-.93375 46.21744 0ZM44.52673 0"/>
<use data-text="(" xlink:href="#font_4_1" transform="matrix(7.9701,0,0,-7.9701,218.523,99.65401)"/>
<use data-text="&#x03c0;" xlink:href="#font_8_1" transform="matrix(7.9701,0,0,-7.9701,223.51599,94.104007)"/>
<path transform="matrix(1,0,0,-1,114.37699,62.508005)" stroke-width=".3587" stroke-linecap="butt" stroke-miterlimit="10" stroke-linejoin="miter" fill="none" stroke="#000000" d="M109.139-35.154H115.252"/>
<use data-text="2" xlink:href="#font_4_6" transform="matrix(7.9701,0,0,-7.9701,224.13199,105.625)"/>
<use data-text="," xlink:href="#font_8_3" transform="matrix(7.9701,0,0,-7.9701,230.82498,99.65401)"/>
<use data-text="0" xlink:href="#font_4_4" transform="matrix(7.9701,0,0,-7.9701,234.948,99.65401)"/>
<use data-text=")" xlink:href="#font_4_2" transform="matrix(7.9701,0,0,-7.9701,239.82569,99.65401)"/>
<path transform="matrix(1,0,0,-1,176.146,109.144)" d="M135.2714 0C135.2714 .93375 134.51444 1.69069 133.58069 1.69069 132.64694 1.69069 131.88999 .93375 131.88999 0 131.88999-.93375 132.64694-1.69069 133.58069-1.69069 134.51444-1.69069 135.2714-.93375 135.2714 0ZM133.58069 0" fill="#ec008c"/>
<path transform="matrix(1,0,0,-1,176.146,109.144)" stroke-width=".3985" stroke-linecap="butt" stroke-miterlimit="10" stroke-linejoin="miter" fill="none" stroke="#ffffff" d="M135.2714 0C135.2714 .93375 134.51444 1.69069 133.58069 1.69069 132.64694 1.69069 131.88999 .93375 131.88999 0 131.88999-.93375 132.64694-1.69069 133.58069-1.69069 134.51444-1.69069 135.2714-.93375 135.2714 0ZM133.58069 0"/>
<use data-text="(" xlink:href="#font_4_1" transform="matrix(7.9701,0,0,-7.9701,281.891,99.65401)"/>
<use data-text="3" xlink:href="#font_4_7" transform="matrix(7.9701,0,0,-7.9701,286.884,94.104007)"/>
<use data-text="&#x03c0;" xlink:href="#font_8_1" transform="matrix(7.9701,0,0,-7.9701,291.766,94.104007)"/>
<path transform="matrix(1,0,0,-1,177.745,62.508005)" stroke-width=".3587" stroke-linecap="butt" stroke-miterlimit="10" stroke-linejoin="miter" fill="none" stroke="#000000" d="M109.139-35.154H120.134"/>
<use data-text="2" xlink:href="#font_4_6" transform="matrix(7.9701,0,0,-7.9701,289.94,105.625)"/>
<use data-text="," xlink:href="#font_8_3" transform="matrix(7.9701,0,0,-7.9701,299.074,99.65401)"/>
<use data-text="0" xlink:href="#font_4_4" transform="matrix(7.9701,0,0,-7.9701,303.198,99.65401)"/>
<use data-text=")" xlink:href="#font_4_2" transform="matrix(7.9701,0,0,-7.9701,308.07569,99.65401)"/>
<path transform="matrix(1,0,0,-1,176.146,109.144)" d="M224.32535 0C224.32535 .93375 223.56839 1.69069 222.63465 1.69069 221.70088 1.69069 220.94394 .93375 220.94394 0 220.94394-.93375 221.70088-1.69069 222.63465-1.69069 223.56839-1.69069 224.32535-.93375 224.32535 0ZM222.63465 0" fill="#ec008c"/>
<path transform="matrix(1,0,0,-1,176.146,109.144)" stroke-width=".3985" stroke-linecap="butt" stroke-miterlimit="10" stroke-linejoin="miter" fill="none" stroke="#ffffff" d="M224.32535 0C224.32535 .93375 223.56839 1.69069 222.63465 1.69069 221.70088 1.69069 220.94394 .93375 220.94394 0 220.94394-.93375 221.70088-1.69069 222.63465-1.69069 223.56839-1.69069 224.32535-.93375 224.32535 0ZM222.63465 0"/>
<use data-text="(" xlink:href="#font_4_1" transform="matrix(7.9701,0,0,-7.9701,396.63099,99.65401)"/>
<use data-text="5" xlink:href="#font_4_9" transform="matrix(7.9701,0,0,-7.9701,401.624,94.104007)"/>
<use data-text="&#x03c0;" xlink:href="#font_8_1" transform="matrix(7.9701,0,0,-7.9701,406.50599,94.104007)"/>
<path transform="matrix(1,0,0,-1,292.485,62.508005)" stroke-width=".3587" stroke-linecap="butt" stroke-miterlimit="10" stroke-linejoin="miter" fill="none" stroke="#000000" d="M109.139-35.154H120.134"/>
<use data-text="2" xlink:href="#font_4_6" transform="matrix(7.9701,0,0,-7.9701,404.68,105.625)"/>
<use data-text="," xlink:href="#font_8_3" transform="matrix(7.9701,0,0,-7.9701,413.814,99.65401)"/>
<use data-text="0" xlink:href="#font_4_4" transform="matrix(7.9701,0,0,-7.9701,417.938,99.65401)"/>
<use data-text=")" xlink:href="#font_4_2" transform="matrix(7.9701,0,0,-7.9701,422.81568,99.65401)"/>
<use data-text="y" xlink:href="#font_7_8" transform="matrix(11.9552,0,0,-11.9552,80.451999,47.142004)" fill="#06bab1"/>
<use data-text="=" xlink:href="#font_10_3" transform="matrix(11.9552,0,0,-11.9552,91.272998,47.142004)" fill="#06bab1"/>
<use data-text="c" xlink:href="#font_10_4" transform="matrix(11.9552,0,0,-11.9552,105.04539,47.142004)" fill="#06bab1"/>
<use data-text="o" xlink:href="#font_10_7" transform="matrix(11.9552,0,0,-11.9552,111.02299,47.142004)" fill="#06bab1"/>
<use data-text="s" xlink:href="#font_10_8" transform="matrix(11.9552,0,0,-11.9552,117.74181,47.142004)" fill="#06bab1"/>
<use data-text="x" xlink:href="#font_7_7" transform="matrix(11.9552,0,0,-11.9552,125.05399,47.142004)" fill="#06bab1"/>
<path transform="matrix(1,0,0,-1,176.146,109.144)" stroke-width=".79701" stroke-linecap="butt" stroke-miterlimit="10" stroke-linejoin="miter" fill="none" stroke="#000000" d="M7.49731 49.89084H170.61055"/>
<path transform="matrix(-1,-0,0,1,183.64331,59.25316)" d="M4.66248 0C3.28098 .25902 1.0361 1.0361-.51805 1.94269V-1.94269C1.0361-1.0361 3.28098-.25902 4.66248 0"/>
<path transform="matrix(1,0,0,-1,346.75654,59.25316)" d="M4.66248 0C3.28098 .25902 1.0361 1.0361-.51805 1.94269V-1.94269C1.0361-1.0361 3.28098-.25902 4.66248 0"/>
<path transform="matrix(1,0,0,-1,176.146,109.144)" d="M63.07881 43.97296H115.02904V55.8087H63.07881Z" fill="#ffffff"/>
<use data-text="p" xlink:href="#font_11_84" transform="matrix(9.9626,0,0,-9.9626,240.719,61.744)"/>
<use data-text="e" xlink:href="#font_11_50" transform="matrix(9.9626,0,0,-9.9626,247.4039,61.744)"/>
<use data-text="r" xlink:href="#font_11_96" transform="matrix(9.9626,0,0,-9.9626,252.6542,61.744)"/>
<use data-text="i" xlink:href="#font_11_66" transform="matrix(9.9626,0,0,-9.9626,257.37648,61.744)"/>
<use data-text="o" xlink:href="#font_11_81" transform="matrix(9.9626,0,0,-9.9626,260.55455,61.744)"/>
<use data-text="d" xlink:href="#font_11_47" transform="matrix(9.9626,0,0,-9.9626,266.60185,61.744)"/>
<use data-text="2" xlink:href="#font_6_6" transform="matrix(9.9626,0,0,-9.9626,276.784,61.744)"/>
<use data-text="&#x03c0;" xlink:href="#font_7_1" transform="matrix(9.9626,0,0,-9.9626,282.513,61.744)"/>
<path transform="matrix(1,0,0,-1,176.146,109.144)" stroke-width=".79701" stroke-linecap="butt" stroke-miterlimit="10" stroke-linejoin="miter" fill="none" stroke="#000000" d="M178.01792 4.66248V40.69257"/>
<path transform="matrix(0,1,1,0,354.1639,104.481517)" d="M4.66248 0C3.28098 .25902 1.0361 1.0361-.51805 1.94269V-1.94269C1.0361-1.0361 3.28098-.25902 4.66248 0"/>
<path transform="matrix(0,-1,-1,-0,354.1639,68.45143)" d="M4.66248 0C3.28098 .25902 1.0361 1.0361-.51805 1.94269V-1.94269C1.0361-1.0361 3.28098-.25902 4.66248 0"/>
<use data-text="a" xlink:href="#font_12_28" transform="matrix(0,-4.9813,-4.9813,-0,350.30699,106.22599)"/>
<use data-text="m" xlink:href="#font_12_75" transform="matrix(0,-4.9813,-4.9813,-0,350.30699,102.54979)"/>
<use data-text="p" xlink:href="#font_12_84" transform="matrix(0,-4.9813,-4.9813,-0,350.30699,96.363018)"/>
<use data-text="l" xlink:href="#font_12_72" transform="matrix(0,-4.9813,-4.9813,-0,350.30699,92.1837)"/>
<use data-text="i" xlink:href="#font_12_66" transform="matrix(0,-4.9813,-4.9813,-0,350.30699,90.011859)"/>
<use data-text="t" xlink:href="#font_12_105" transform="matrix(0,-4.9813,-4.9813,-0,350.30699,87.84001)"/>
<use data-text="u" xlink:href="#font_12_109" transform="matrix(0,-4.9813,-4.9813,-0,350.30699,84.86617)"/>
<use data-text="d" xlink:href="#font_12_47" transform="matrix(0,-4.9813,-4.9813,-0,350.30699,80.68686)"/>
<use data-text="e" xlink:href="#font_12_50" transform="matrix(0,-4.9813,-4.9813,-0,350.30699,76.50755)"/>
<use data-text="1" xlink:href="#font_12_82" transform="matrix(0,-4.9813,-4.9813,-0,350.30699,70.48517)"/>
</svg>
