<svg style="overflow: visible;" xmlns="http://www.w3.org/2000/svg" xmlns:xlink="http://www.w3.org/1999/xlink" xmlns:inkscape="http://www.inkscape.org/namespaces/inkscape" version="1.1" width="100%" height="100%" viewBox="0 0 429.05 188.42">
<defs>
<path id="font_1_7" d="M.5359955 .4011383C.5 .3911438 .48199464 .35714723 .48199464 .33215333 .48199464 .31015016 .49899293 .28614808 .5319977 .28614808 .5669861 .28614808 .60398867 .31515504 .60398867 .364151 .60398867 .41714479 .5509949 .45214845 .48999024 .45214845 .43299867 .45214845 .3959961 .4091339 .3829956 .3911438 .35798646 .433136 .3019867 .45214845 .24499512 .45214845 .11898804 .45214845 .050994874 .32914735 .050994874 .29615785 .050994874 .28215028 .06599426 .28215028 .07499695 .28215028 .08699036 .28215028 .09399414 .28215028 .09799194 .29515077 .1269989 .38613893 .19898987 .4161377 .23999024 .4161377 .27799989 .4161377 .29599 .39814759 .29599 .3661499 .29599 .3471527 .28199769 .29216004 .272995 .2561493L.23899842 .11917114C.22399903 .058181764 .18798828 .028182984 .1539917 .028182984 .14898682 .028182984 .12599182 .028182984 .10598755 .043182374 .14199829 .05317688 .1599884 .08717346 .1599884 .11216736 .1599884 .13417053 .14299011 .1581726 .10998535 .1581726 .07499695 .1581726 .037994386 .12916565 .037994386 .08016968 .037994386 .027175904 .09098816-.0078125 .1519928-.0078125 .20899964-.0078125 .24598694 .035186769 .25898744 .05317688 .28399659 .011184692 .33999635-.0078125 .39698792-.0078125 .522995-.0078125 .59098818 .11517334 .59098818 .14816284 .59098818 .16217041 .57598879 .16217041 .5669861 .16217041 .5549927 .16217041 .5479889 .16217041 .5439911 .14916992 .5149994 .058181764 .44299317 .028182984 .4019928 .028182984 .3639984 .028182984 .34599305 .046173097 .34599305 .07817078 .34599305 .09916687 .35899354 .15216065 .36799623 .18916321 .375 .21516419 .397995 .30915834 .40299989 .32514955 .41799928 .3851471 .45298768 .4161377 .48799134 .4161377 .49299623 .4161377 .5159912 .4161377 .5359955 .4011383Z"/>
<path id="font_1_8" d="M.57699587 .3771515C.58200076 .3951416 .58200076 .3971405 .58200076 .40014649 .58200076 .4221344 .56599429 .44413758 .5349884 .44413758 .48298646 .44413758 .47099305 .3971405 .46398927 .3701477L.43798829 .26615907C.42599488 .2181549 .40699769 .14117432 .3959961 .10017395 .3909912 .07817078 .3600006 .05418396 .35699464 .05218506 .34599305 .045181276 .32199098 .028182984 .2889862 .028182984 .22999573 .028182984 .22898865 .07817078 .22898865 .10116577 .22898865 .16217041 .2599945 .24015808 .28799439 .31214906 .2979889 .33815003 .30099488 .3451538 .30099488 .3621521 .30099488 .4201355 .24299622 .45214845 .18798828 .45214845 .08198547 .45214845 .03199768 .31614686 .03199768 .29615785 .03199768 .28215028 .04699707 .28215028 .055999757 .28215028 .067993167 .28215028 .07499695 .28215028 .07899475 .29515077 .11199951 .4061432 .16699219 .4161377 .18199158 .4161377 .18899536 .4161377 .19898987 .4161377 .19898987 .3951416 .19898987 .3721466 .18798828 .34614564 .18199158 .33015443 .14299011 .23016358 .12199402 .173172 .12199402 .122177127 .12199402 .008178711 .22200012-.0078125 .2809906-.0078125 .30599977-.0078125 .33999635-.0038146973 .3769989 .02218628 .34899903-.10101318 .27398683-.16615296 .20498657-.16615296 .19198609-.16615296 .1639862-.16415406 .14399719-.15213013 .17599488-.13909912 .19198609-.11204529 .19198609-.0849762 .19198609-.04890442 .16299439-.038879396 .14299011-.038879396 .10598755-.038879396 .070999149-.07095337 .070999149-.11505127 .070999149-.16615296 .12399292-.20214844 .20498657-.20214844 .31999208-.20214844 .45199586-.12506104 .48298646-.0008239746L.57699587 .3771515Z"/>
<path id="font_2_4" d="M.54499819 .31925965C.54499819 .4212494 .5419922 .65625 .29599 .65625 .051986696 .65625 .04598999 .429245 .04598999 .31925965 .04598999 .21525574 .04899597-.01171875 .29499818-.01171875 .5389862-.01171875 .54499819 .20826721 .54499819 .31925965M.29599 .028274537C.2689972 .028274537 .19999695 .040267946 .18699646 .13226319 .1789856 .18527222 .1789856 .27626039 .1789856 .33125306 .1789856 .3942566 .1789856 .47824098 .18699646 .52523806 .20199585 .60523989 .2689972 .61624148 .29499818 .61624148 .32798768 .61624148 .3909912 .600235 .4039917 .5222473 .4119873 .47424317 .4119873 .3882599 .4119873 .33125306 .4119873 .25326539 .4119873 .13426209 .3959961 .09527588 .37399293 .046279909 .32899476 .028274537 .29599 .028274537Z"/>
<path id="font_3_1" d="M.33599855 .3408203H.44898988C.42199708 .22695923 .41999818 .17901612 .41999818 .14805603 .41999818 .07015991 .44499208-.009765625 .49598695-.009765625 .522995-.009765625 .5669861 .018218995 .5669861 .059173585 .5669861 .073150638 .56399539 .07914734 .55599978 .09112549 .5069885 .16603089 .5029907 .24394226 .5029907 .27789308 .5029907 .30485536 .5049896 .31684876 .5079956 .3408203H.6389923C.6599884 .3408203 .6719971 .3408203 .6899872 .35481263 .70399478 .3658142 .71299746 .38581849 .71299746 .40081788 .71299746 .44381715 .6729889 .44381715 .6559906 .44381715H.23498535C.21099854 .44381715 .16799927 .44381715 .10598755 .3918152 .08999634 .37780763 .03199768 .31884767 .03199768 .30285646 .03199768 .2848816 .04899597 .2848816 .05999756 .2848816 .07699585 .2848816 .07798767 .28588868 .08699036 .296875 .10598755 .31684876 .1349945 .3408203 .21299744 .3408203H.27598573C.25498963 .27789308 .22499085 .2059784 .15699768 .085128787 .14299011 .061157228 .13999939 .05517578 .13999939 .03918457 .13999939 .008224487 .16499329-.008773804 .19099427-.008773804 .21798706-.008773804 .24499512 .008224487 .2559967 .04019165 .2659912 .06616211 .272995 .09411621 .2809906 .12608338L.33599855 .3408203Z"/>
<path id="font_4_8" d="M.47399903 .62516787C.47399903 .6561737 .46798707 .6591797 .43899537 .6591797 .41799928 .6591797 .41099549 .6591797 .39898683 .64416506L.033996583 .20605469V.15405274H.34098817V.051986696H.22200012V0C.25898744 .0029907227 .3600006 .0029907227 .40299989 .0029907227 .45098878 .0029907227 .5329895 .0029907227 .5779877 0V.051986696H.47399903V.15405274H.5779877V.20605469H.47399903V.62516787M.35398866 .5151367V.20605469H.09599304L.35398866 .5151367Z"/>
<path id="font_5_1" d="M.8019867 .21617127C.81599429 .21617127 .84999087 .21617127 .84999087 .25016786 .84999087 .2841797 .81599429 .2841797 .8019867 .2841797H.1499939C.13598633 .2841797 .101989749 .2841797 .101989749 .25016786 .101989749 .21617127 .13598633 .21617127 .1499939 .21617127H.8019867Z"/>
<path id="font_4_7" d="M.28399659 .32714845C.3999939 .32714845 .40098573 .23034668 .40098573 .18035889 .40098573 .13534546 .40098573 .033325197 .28799439 .033325197 .2669983 .033325197 .20999146 .036315919 .1599884 .068359378 .1769867 .0753479 .21299744 .09635925 .21299744 .14535523 .21299744 .19335938 .1789856 .22634888 .13198853 .22634888 .08799744 .22634888 .050994874 .1963501 .050994874 .14434815 .050994874 .047332765 .15499878-.013671875 .29299928-.013671875 .4889984-.013671875 .5609894 .09234619 .5609894 .1793518 .5609894 .26127626 .49798585 .32914735 .3899994 .35313417 .4169922 .36413575 .5269928 .40715028 .5269928 .51615908 .5269928 .59617617 .44499208 .6582031 .29599 .6582031 .1659851 .6582031 .084991458 .58917239 .084991458 .50717166 .084991458 .45115663 .1289978 .4311676 .15899658 .4311676 .19898987 .4311676 .23298645 .45916749 .23298645 .5051575 .23298645 .52716067 .22499085 .5651703 .1769867 .5771637 .22099304 .6151886 .2809906 .6151886 .2899933 .6151886 .3829956 .6151886 .3829956 .5491638 .3829956 .51916506 .3829956 .4471588 .34899903 .41015626 .34599305 .40615846 .31698609 .37513734 .29899598 .3741455 .24499512 .37113954 .21398926 .36914063 .20399475 .36813355 .20399475 .34814454 .20399475 .32714845 .21699524 .32714845 .23498535 .32714845H.28399659Z"/>
<path id="font_4_1" d="M.40699769-.23200989C.40699769-.2250061 .4039917-.22200012 .3919983-.21200562 .2649994-.09700012 .21998596 .07798767 .21998596 .25 .21998596 .42099 .2630005 .59599307 .3899994 .70899966 .4059906 .723999 .40699769 .72499087 .40699769 .7319946 .40699769 .74198916 .40098573 .75 .38598634 .75 .36698915 .75 .31399537 .70500186 .2939911 .6859894 .16899109 .56199648 .11399841 .4099884 .11399841 .25 .11399841 .16099549 .13198853 .039993287 .20599365-.07800293 .2689972-.17800904 .3639984-.25 .38598634-.25 .40098573-.25 .40699769-.2420044 .40699769-.23200989Z"/>
<path id="font_4_4" d="M.56399539 .31925965C.56399539 .4352417 .5549927 .6582031 .30599977 .6582031 .055999757 .6582031 .04798889 .4332428 .04798889 .31925965 .04798889 .20729065 .054992677-.013671875 .30599977-.013671875 .55799868-.013671875 .56399539 .20828247 .56399539 .31925965M.30599977 .028320313C.2789917 .028320313 .25099183 .03831482 .22999573 .05531311 .19799805 .08331299 .18299866 .0973053 .18299866 .33125306 .18299866 .40324403 .18299866 .4762268 .19299317 .5262146 .20599365 .5971985 .2679901 .6161957 .30599977 .6161957 .32998658 .6161957 .4059906 .610199 .42099 .515213 .42900086 .4662323 .42900086 .3892517 .42900086 .33125306 .42900086 .10231018 .4149933 .08830261 .38398744 .05831909 .37599183 .049316408 .34799195 .028320313 .30599977 .028320313Z"/>
<path id="font_3_3" d="M.22099304 .016998291C.21199036-.08493042 .1519928-.1348877 .1309967-.15187073 .11999512-.15986634 .115997318-.16287232 .115997318-.17185974 .115997318-.18086243 .12799073-.19386292 .13899231-.19386292 .15499878-.19386292 .2639923-.106918338 .2639923 .03199768 .2639923 .10499573 .22698975 .1599884 .16899109 .1599884 .12199402 .1599884 .08999634 .12399292 .08999634 .07998657 .08999634 .038986207 .11898804 0 .16999817 0 .18998719 0 .20899964 .0069885256 .22099304 .016998291Z"/>
<path id="font_4_5" d="M.3789978 .62413027C.3789978 .6582031 .37298585 .6582031 .33299256 .6582031 .27198792 .61006167 .19198609 .5939789 .11399841 .5939789H.09199524V.5419922H.11399841C.13999939 .5419922 .19400025 .5449829 .2519989 .5619812V.051986696H.101989749V0C.13798523 .0029907227 .269989 .0029907227 .31498719 .0029907227 .3600006 .0029907227 .48999024 .0029907227 .5269928 0V.051986696H.3789978V.62413027Z"/>
<path id="font_4_6" d="M.5509949 .2280426H.49499513C.4869995 .16200257 .47399903 .14199829 .46798707 .13899231 .45700074 .1329956 .37998963 .1329956 .36299134 .1329956H.22499085C.35899354 .23805237 .41299439 .2680664 .45599366 .30108644 .526001 .35612489 .5509949 .40615846 .5509949 .46316529 .5509949 .58117678 .44198609 .6582031 .2899933 .6582031 .1619873 .6582031 .06098938 .6011963 .06098938 .50717166 .06098938 .4481659 .10899353 .4291687 .13699341 .4291687 .17199707 .4291687 .21398926 .4541626 .21398926 .50616458 .21398926 .5531616 .17999268 .5721588 .16699219 .5771637 .19499207 .5981903 .23498535 .6062012 .2659912 .6062012 .35598756 .6062012 .4059906 .5391693 .4059906 .4621582 .4059906 .38113404 .35299684 .31410218 .2939911 .25906373L.07299805 .052993776C.06199646 .041992189 .06098938 .040985109 .06098938 .020996094V0H.5179901L.5509949 .2280426Z"/>
<path id="font_4_2" d="M.36099244 .25C.36099244 .33898927 .34298707 .45999146 .2689972 .5779877 .20599365 .6779938 .11099243 .75 .08898926 .75 .07199097 .75 .067993167 .7389984 .067993167 .7319946 .067993167 .72499087 .07199097 .72099307 .08299255 .71199038 .20999146 .5970001 .25498963 .42199708 .25498963 .25 .25498963 .07899475 .21199036-.0960083 .084991458-.2090149 .07299805-.22000122 .067993167-.22401428 .067993167-.23200989 .067993167-.23901367 .07199097-.25 .08898926-.25 .10798645-.25 .16099549-.20500183 .18099976-.18600464 .30599977-.06201172 .36099244 .08999634 .36099244 .25Z"/>
<path id="font_6_1" d="M.7279968 .33398438C.74598696 .33398438 .7639923 .33398438 .7819977 .3499756 .79299929 .3599701 .80400088 .37698365 .80400088 .39797975 .80400088 .44396974 .7599945 .44396974 .74398806 .44396974H.27598573C.25299073 .44396974 .20399475 .44396974 .13598633 .39198304 .115997318 .37698365 .054992677 .32199098 .054992677 .30299378 .054992677 .28201295 .07299805 .28201295 .08999634 .28201295 .11299133 .28201295 .11399841 .28302003 .125 .29501344 .15699768 .3289795 .21099854 .33398438 .2519989 .33398438H.32099916C.28799439 .24205017 .2579956 .1790924 .20199585 .08317566 .19198609 .06617737 .18798828 .060195924 .18798828 .04319763 .18798828 .009231567 .21499634-.008773804 .24299622-.008773804 .2999878-.008773804 .31698609 .045196535 .33799745 .11514282L.3959961 .33398438H.5109863C.5009918 .28800965 .48799134 .22206116 .48799134 .1690979 .48799134 .08117676 .5239868-.009765625 .57899478-.009765625 .61299136-.009765625 .6539917 .025222779 .6539917 .063186649 .6539917 .08016968 .6469879 .090164188 .6389923 .10015869 .59298709 .16210938 .58200076 .22906494 .58200076 .28102113 .58200076 .30699159 .58299258 .31199647 .58599856 .33398438H.7279968Z"/>
<path id="font_7_2" d="M.6159973 .2220459H.54499819C.54299929 .21003723 .5339966 .1459961 .5119934 .14299011 .49198915 .13899231 .44499208 .13899231 .41099549 .13899231H.272995C.2829895 .1459961 .30699159 .16200257 .31599427 .16900635 .48298646 .28208924 .46499635 .2600708 .5209961 .30110169 .57598879 .34213258 .6159973 .38916017 .6159973 .45819093 .6159973 .581192 .5009918 .6582031 .32699586 .6582031 .17098999 .6582031 .07598877 .6031952 .07598877 .5101929 .07598877 .45018006 .12399292 .42918397 .15499878 .42918397 .19299317 .42918397 .23498535 .45518495 .23498535 .5091858 .23498535 .53318789 .22599793 .55918887 .20199585 .57418826 .24198914 .5981903 .2889862 .5981903 .2999878 .5981903 .3999939 .5981903 .46299745 .53718569 .46299745 .45718385 .46299745 .37815858 .3999939 .31210328 .33699037 .26107789L.08999634 .06098938C.07598877 .049987794 .07598877 .04499817 .07598877 .024993897V0H.5799866L.6159973 .2220459Z"/>
<path id="font_7_1" d="M.42399598 .6221924C.42399598 .65219119 .4189911 .6582031 .3880005 .6582031H.37098695C.2889862 .59417727 .16299439 .59417727 .14099121 .59417727H.115997318V.5341797H.14099121C.16299439 .5341797 .22399903 .5361786 .2919922 .5561676V.05999756H.12298584V0C.17399597 .0039978029 .2999878 .0039978029 .35699464 .0039978029 .4119873 .0039978029 .5399933 .0039978029 .58898928 0V.05999756H.42399598V.6221924Z"/>
<path id="font_8_12" d="M.7879944 .33203126C.7999878 .33203126 .82899478 .33203126 .82899478 .36203004 .82899478 .39302064 .7979889 .39302064 .7829895 .39302064H.10998535C.09498596 .39302064 .06399536 .39302064 .06399536 .36203004 .06399536 .33203126 .09298706 .33203126 .10499573 .33203126H.7879944M.7829895 .107940677C.7979889 .107940677 .82899478 .107940677 .82899478 .13893128 .82899478 .16894531 .7999878 .16894531 .7879944 .16894531H.10499573C.09298706 .16894531 .06399536 .16894531 .06399536 .13893128 .06399536 .107940677 .09498596 .107940677 .10998535 .107940677H.7829895Z"/>
<path id="font_8_5" d="M.35398866 .62316897C.35398866 .6452637 .35398866 .65527346 .32798768 .65527346 .31698609 .65527346 .31498719 .65527346 .30599977 .64826968 .22898865 .5909424 .12599182 .5909424 .10499573 .5909424H.084991458V.5439453H.10499573C.12098694 .5439453 .17599488 .54493716 .23498535 .5639343V.04699707H.09599304V0C.13999939 .0029907227 .24598694 .0029907227 .29499818 .0029907227 .34399415 .0029907227 .44999696 .0029907227 .49398805 0V.04699707H.35398866V.62316897Z"/>
<path id="font_8_6" d="M.5169983 .22209168H.46998597C.46699525 .20207215 .45799256 .13800049 .44400025 .1309967 .43299867 .125 .35798646 .125 .34199525 .125H.19499207C.24198914 .16403198 .2939911 .20707703 .33898927 .2401123 .45298768 .3242035 .5169983 .37124635 .5169983 .4663086 .5169983 .5812988 .41299439 .65527346 .27198792 .65527346 .15098572 .65527346 .056991579 .593277 .056991579 .50331118 .056991579 .44430543 .10499573 .42930604 .1289978 .42930604 .16099549 .42930604 .20098877 .4513092 .20098877 .50131228 .20098877 .55329897 .15899658 .5693054 .14399719 .5733032 .17298889 .5972748 .21099854 .6082611 .24699402 .6082611 .33299256 .6082611 .3789978 .54029849 .3789978 .4653015 .3789978 .39627076 .34098817 .3282013 .2709961 .25712586L.069992069 .051986696C.056991579 .039993287 .056991579 .037994386 .056991579 .017990113V0H.48599244L.5169983 .22209168Z"/>
<path id="font_8_13" d="M.3600006 .40711976C.34199525 .39111329 .33999635 .3701172 .33999635 .3611145 .33999635 .3171234 .375 .29812623 .4019928 .29812623 .43299867 .29812623 .46499635 .3191223 .46499635 .3611145 .46499635 .44711305 .34899903 .453125 .29100038 .453125 .11199951 .453125 .037994386 .3381195 .037994386 .22212219 .037994386 .08912659 .13198853-.005859375 .28599549-.005859375 .44799806-.005859375 .47799684 .11012268 .47799684 .117126468 .47799684 .13113404 .46398927 .13113404 .45399476 .13113404 .43598939 .13113404 .43499757 .12913513 .42999269 .11613464 .4039917 .053131105 .35598756 .03413391 .30499269 .03413391 .1659851 .03413391 .1659851 .18112183 .1659851 .22712708 .1659851 .28312684 .1659851 .41311646 .29499818 .41311646 .32998658 .41311646 .34700013 .41011048 .3600006 .40711976Z"/>
<path id="font_8_16" d="M.5419922 .21812439C.5419922 .35212709 .44999696 .453125 .2869873 .453125 .12298584 .453125 .03199768 .35112 .03199768 .21812439 .03199768 .09413147 .11999512-.005859375 .2869873-.005859375 .45498658-.005859375 .5419922 .09512329 .5419922 .21812439M.2869873 .03413391C.1599884 .03413391 .1599884 .14213562 .1599884 .22912598 .1599884 .27412416 .1599884 .32511903 .1769867 .3591156 .19599915 .39611817 .23799134 .41711427 .2869873 .41711427 .32899476 .41711427 .37098695 .40112306 .3929901 .36611939 .4139862 .3321228 .4139862 .27713014 .4139862 .22912598 .4139862 .14213562 .4139862 .03413391 .2869873 .03413391Z"/>
<path id="font_8_17" d="M.21099854 .29412843C.17399597 .30111695 .10899353 .31211854 .10899353 .3591156 .10899353 .42111207 .20199585 .42111207 .22099304 .42111207 .29599 .42111207 .33399964 .39212037 .33898927 .33711244 .33999635 .32211305 .34098817 .3171234 .3619995 .3171234 .38598634 .3171234 .38598634 .32211305 .38598634 .3451233V.42510987C.38598634 .4441223 .38598634 .453125 .36799623 .453125 .3639984 .453125 .3619995 .453125 .32299806 .43411256 .29699708 .44711305 .2619934 .453125 .22200012 .453125 .19198609 .453125 .037994386 .453125 .037994386 .32211305 .037994386 .28211976 .057998659 .25512696 .07798767 .23812866 .117996219 .203125 .1559906 .1971283 .23298645 .18312073 .2689972 .17712403 .34399415 .16412354 .34399415 .10513306 .34399415 .030136109 .2519989 .030136109 .22999573 .030136109 .12399292 .030136109 .09799194 .103134158 .085998538 .14613343 .08099365 .16012573 .07598877 .16012573 .06199646 .16012573 .037994386 .16012573 .037994386 .15412903 .037994386 .13113404V.022140503C.037994386 .0031280518 .037994386-.005859375 .055999757-.005859375 .06298828-.005859375 .06498718-.005859375 .085998538 .009140015 .08699036 .009140015 .10899353 .024139405 .11199951 .026138306 .1579895-.005859375 .20999146-.005859375 .22999573-.005859375 .26098634-.005859375 .4149933-.005859375 .4149933 .14012146 .4149933 .18312073 .394989 .21812439 .3600006 .24612427 .32099916 .27511598 .2889862 .28112794 .21099854 .29412843Z"/>
<path id="font_9_28" d="M.58898928 .025985718C.58898928 .051986696 .57299807 .051986696 .5589905 .051986696 .49699403 .051986696 .49699403 .06199646 .49699403 .085006717V.29605104C.49699403 .38606263 .4249878 .45507813 .2619934 .45507813 .21299744 .45507813 .069992069 .45507813 .069992069 .35606385 .069992069 .31204225 .10398865 .28804017 .13699341 .28804017 .1769867 .28804017 .20498657 .31704713 .20498657 .35505677 .20498657 .3870697 .18399048 .4060669 .18399048 .4060669 .19198609 .4080658 .22099304 .41307069 .2599945 .41307069 .33999635 .41307069 .375 .36906434 .375 .29704286V.2680359C.22499085 .26704408 .02999878 .23402405 .02999878 .11199951 .02999878 .027160645 .12599182-.0068359377 .23498535-.0068359377 .33799745-.0068359377 .3809967 .04815674 .3939972 .06816101 .3939972 .037994386 .40499879 0 .5019989 0H.5549927C.57398989 0 .58898928 0 .58898928 .025985718M.375 .13699341C.375 .03515625 .25498963 .03515625 .25099183 .03515625 .19898987 .03515625 .1519928 .066207889 .1519928 .11427307 .1519928 .1843872 .24499512 .22746277 .375 .23046875V.13699341Z"/>
<path id="font_9_75" d="M.98999026 0V.051986696H.923996V.3034973C.923996 .42315675 .8509979 .45117188 .7589874 .45117188 .6539917 .45117188 .598999 .39059449 .5779877 .35958863 .55400088 .4371643 .4869995 .45117188 .4189911 .45117188 .2979889 .45117188 .24398804 .3715973 .23199463 .34959413H.23098755V.45117188L.055999757 .44335938V.39135743C.114990238 .39135743 .12199402 .39135743 .12199402 .35231019V.051986696H.055999757V0C.10998535 .0029907227 .14498902 .0029907227 .18299866 .0029907227 .22200012 .0029907227 .2559967 .0029907227 .30999757 0V.051986696H.24398804V.25320436C.24398804 .36413575 .33999635 .40916444 .4039917 .40916444 .43899537 .40916444 .46199037 .39215089 .46199037 .31411744V.051986696H.3959961V0C.44999696 .0029907227 .4850006 .0029907227 .522995 .0029907227 .56199648 .0029907227 .59599307 .0029907227 .6499939 0V.051986696H.58399966V.25308229C.58399966 .36413575 .6799927 .40916444 .74398806 .40916444 .7789917 .40916444 .8019867 .39215089 .8019867 .31411744V.051986696H.73599246V0C.7899933 .0029907227 .82499697 .0029907227 .86299136 .0029907227 .9019928 .0029907227 .9359894 .0029907227 .98999026 0Z"/>
<path id="font_9_84" d="M.6389923 .22315979C.6389923 .3481598 .5499878 .45117188 .3889923 .45117188 .33198548 .45117188 .27598573 .43615724 .22799683 .40415956V.45117188L.04598999 .44335938V.39135743C.06498718 .39135743 .08299255 .39135743 .09498596 .38835145 .11199951 .38534547 .11199951 .37434388 .11199951 .35533143V-.14160156H.04598999V-.19360352C.099990848-.1906128 .1349945-.1906128 .17298889-.1906128 .21199036-.1906128 .24598694-.1906128 .2999878-.19360352V-.14160156H.23399353V.03715515C.28599549-.0008392334 .33499146-.0068359377 .36999513-.0068359377 .5339966-.0068359377 .6389923 .08818054 .6389923 .2232666V.22315979M.5039978 .2232666C.5039978 .08918762 .43299867 .03515625 .3600006 .03515625 .31498719 .03515625 .2669983 .057174684 .23399353 .10620117V.34233094C.25099183 .36315919 .30099488 .40415956 .37199403 .40415956 .45098878 .40415956 .5039978 .3371582 .5039978 .22315979V.2232666Z"/>
<path id="font_9_72" d="M.30699159 0V.051986696H.24099732V.69433596L.05899048 .6855469V.6335449C.117996219 .6335449 .125 .6335449 .125 .594574V.051986696H.05899048V0C.116989139 .0029907227 .1269989 .0029907227 .18299866 .0029907227 .23899842 .0029907227 .24899292 .0029907227 .30699159 0Z"/>
<path id="font_9_66" d="M.2999878 0V.051986696H.24099732V.45117188L.06199646 .44335938V.39135743C.117996219 .39135743 .125 .39135743 .125 .35331727V.051986696H.05899048V0C.116989139 .0029907227 .12799073 .0029907227 .18099976 .0029907227 .22200012 .0029907227 .25099183 .0029907227 .2999878 0M.25099183 .6053772C.25099183 .6503906 .21299744 .685379 .17098999 .685379 .12599182 .685379 .08999634 .64938357 .08999634 .6053772 .08999634 .560379 .12799073 .5253906 .16999817 .5253906 .21499634 .5253906 .25099183 .5613861 .25099183 .6053772Z"/>
<path id="font_9_105" d="M.40699769 .12319946V.17422486H.35099793V.12519837C.35099793 .056167604 .31298829 .040161134 .2899933 .040161134 .23199463 .040161134 .23098755 .093185428 .23098755 .12019348V.39233399H.3869934V.44433595H.23098755V.6357422H.1749878C.17399597 .53652957 .12298584 .43632508 .022994996 .43432618V.39233399H.10899353V.12319946C.10899353 .02015686 .18998719-.0068359377 .2749939-.0068359377 .35099793-.0068359377 .40699769 .044158937 .40699769 .12319946Z"/>
<path id="font_9_109" d="M.6499939 .00015258789V.05215454C.59098818 .05215454 .58399966 .05215454 .58399966 .091033939V.45117188L.3959961 .443161V.39115907C.45498658 .39115907 .46199037 .39115907 .46199037 .35214234V.1620636C.46199037 .08604431 .40899659 .03515625 .32798768 .03515625 .24699402 .03515625 .24398804 .05809021 .24398804 .10903931V.45117188L.055999757 .443161V.39115907C.114990238 .39115907 .12199402 .39115907 .12199402 .35214234V.123046878C.12199402 .011154175 .21598816-.0068359377 .31399537-.0068359377 .34700013-.0068359377 .4139862-.0068359377 .46798707 .06303406V-.0068359377L.6499939 .00015258789Z"/>
<path id="font_9_47" d="M.6339874 0V.051986696C.57499697 .051986696 .56799319 .051986696 .56799319 .09101868V.69433596L.38598634 .6855469V.6335449C.44499208 .6335449 .45199586 .6335449 .45199586 .5946808V.40815736C.397995 .4451599 .34599305 .45117188 .30899049 .45117188 .13999939 .45117188 .040985109 .35116578 .040985109 .22215271 .040985109 .091156009 .13798523-.0068359377 .29699708-.0068359377 .36999513-.007003784 .41999818 .021987915 .44599916 .041992189V-.0068359377L.6339874 0M.44599916 .11099243C.39898683 .045150758 .33999635 .03515625 .30599977 .03515625 .17599488 .03515625 .17599488 .15916443 .17599488 .21916199 .17599488 .28216554 .17599488 .40916444 .31900025 .40916444 .36499024 .40916444 .4119873 .39016725 .44599916 .34716798V.11099243Z"/>
<path id="font_9_50" d="M.526001 .11508179C.526001 .13604737 .5049896 .13604737 .49798585 .13604737 .48098756 .13604737 .47698976 .13404846 .46899415 .11706543 .43699647 .04714966 .35198976 .040161134 .32398988 .040161134 .17599488 .040161134 .17098999 .15603638 .16899109 .2119751H.49198915C.5130005 .2119751 .526001 .2119751 .526001 .2409668 .526001 .28399659 .5159912 .35003663 .46598817 .3990631 .4099884 .45507813 .31999208 .45507813 .29699708 .45507813 .11898804 .45507813 .033996583 .34402467 .033996583 .2259674 .033996583 .09609985 .13398743-.0068359377 .31199647-.0068359377 .48799134-.0068359377 .526001 .10108948 .526001 .11508179M.42799378 .25097657H.16899109C.16999817 .29100038 .17399597 .41307069 .2979889 .41307069 .42199708 .41307069 .4269867 .2899933 .42799378 .25097657Z"/>
<path id="font_3_9" d="M.6159973 .37213136C.6199951 .38612367 .6199951 .38812257 .6199951 .39611817 .6199951 .42411805 .598999 .4441223 .56900027 .4441223 .5499878 .4441223 .5169983 .43211366 .5049896 .40011598 .5019989 .39411927 .49299623 .35812379 .48799134 .3371277L.42900086 .10218811C.42799378 .10118103 .38398744 .033203126 .31498719 .033203126 .25099183 .033203126 .25099183 .08518982 .25099183 .10618591 .25099183 .16316223 .2789917 .2351532 .31199647 .3181305 .31799317 .33213807 .32299806 .34413148 .32299806 .36112977 .32299806 .42211915 .2599945 .453125 .20098877 .453125 .08999634 .453125 .033996583 .3221283 .033996583 .29614259 .033996583 .2791443 .04899597 .2791443 .06199646 .2791443 .08099365 .2791443 .084991458 .2791443 .09098816 .2971344 .11898804 .38911439 .17098999 .41111756 .19499207 .41111756 .20098877 .41111756 .21199036 .41111756 .21199036 .38812257 .21199036 .36712647 .20298767 .34413148 .19599915 .32814027 .13699341 .1851654 .13699341 .15116883 .13699341 .12617493 .13699341 .011199951 .23599243-.008804321 .30799867-.008804321 .35499574-.008804321 .3899994 .00819397 .4079895 .020202637 .38598634-.08720398 .30699159-.16113281 .22999573-.16113281 .22299195-.16113281 .20098877-.16113281 .17599488-.15219116 .20599365-.13421631 .21598816-.10421753 .21598816-.08421326 .21598816-.052215578 .19198609-.033203126 .1619873-.033203126 .115997318-.033203126 .08299255-.07220459 .08299255-.114212039 .08299255-.1721344 .14498902-.203125 .22999573-.203125 .34799195-.203125 .48999024-.13121033 .5219879-.0018005371L.6159973 .37213136Z"/>
<path id="font_4_13" d="M.83999636 .33691407C.85198977 .33691407 .8839874 .33691407 .8839874 .37091065 .8839874 .40490724 .84799197 .40490724 .83399966 .40490724H.117996219C.10398865 .40490724 .067993167 .40490724 .067993167 .37091065 .067993167 .33691407 .099990848 .33691407 .11199951 .33691407H.83999636M.83399966 .095077518C.84799197 .095077518 .8839874 .095077518 .8839874 .1290741 .8839874 .16308594 .85198977 .16308594 .83999636 .16308594H.11199951C.099990848 .16308594 .067993167 .16308594 .067993167 .1290741 .067993167 .095077518 .10398865 .095077518 .117996219 .095077518H.83399966Z"/>
<path id="font_9_77" d="M.6499939 0V.051986696H.58399966V.3034973C.58399966 .4251709 .5079956 .45117188 .4189911 .45117188 .2979889 .45117188 .24398804 .3715973 .23199463 .34959413H.23098755V.45117188L.055999757 .44335938V.39135743C.114990238 .39135743 .12199402 .39135743 .12199402 .35231019V.051986696H.055999757V0C.10998535 .0029907227 .14498902 .0029907227 .18299866 .0029907227 .22200012 .0029907227 .2559967 .0029907227 .30999757 0V.051986696H.24398804V.25320436C.24398804 .36413575 .33999635 .40916444 .4039917 .40916444 .43899537 .40916444 .46199037 .39215089 .46199037 .31411744V.051986696H.3959961V0C.44999696 .0029907227 .4850006 .0029907227 .522995 .0029907227 .56199648 .0029907227 .59599307 .0029907227 .6499939 0Z"/>
<path id="font_10_84" d="M.59999087 .22319031C.59999087 .3561859 .5089874 .4501953 .36499024 .4501953 .2899933 .4501953 .23699951 .41918946 .21398926 .40118409V.4501953L.036987306 .4423828V.39537049C.09899902 .39537049 .10598755 .39537049 .10598755 .3573761V-.14648438H.036987306V-.1934967L.16299439-.19049073 .2889862-.1934967V-.14648438H.21998596V.03945923C.2630005 .004135132 .30699159-.005859375 .34799195-.005859375 .49798585-.005859375 .59999087 .08413696 .59999087 .22312927V.22319031M.47200013 .22312927C.47200013 .08213806 .4019928 .030136109 .33699037 .030136109 .32299806 .030136109 .27598573 .030136109 .23098755 .08413696 .21998596 .09713745 .21998596 .09812927 .21998596 .117126468V.32913209C.21998596 .34814454 .22099304 .3491516 .23498535 .36314393 .2749939 .4041443 .32699586 .41015626 .34899903 .41015626 .41600038 .41015626 .47200013 .3491516 .47200013 .22314453V.22312927Z"/>
<path id="font_10_50" d="M.49398805 .11706543C.49398805 .13504029 .47499085 .13504029 .46998597 .13504029 .45298768 .13504029 .45098878 .13005066 .44499208 .11405945 .42399598 .066101077 .36698915 .03413391 .3019867 .03413391 .16099549 .03413391 .1599884 .16700745 .1599884 .2179718H.46199037C.48399354 .2179718 .49398805 .2179718 .49398805 .2449646 .49398805 .27598573 .48799134 .34906007 .43798829 .3991089 .40098573 .43511964 .34799195 .453125 .2789917 .453125 .11898804 .453125 .03199768 .35005189 .03199768 .22497559 .03199768 .09107971 .13198853-.005859375 .29299928-.005859375 .45098878-.005859375 .49398805 .10006714 .49398805 .11706543M.39898683 .25097657H.1599884C.1619873 .29000855 .16299439 .3320465 .18399048 .36506654 .20999146 .4051056 .25 .41711427 .2789917 .41711427 .3959961 .41711427 .397995 .28599549 .39898683 .25097657Z"/>
<path id="font_10_96" d="M.44198609 .36819459C.44198609 .42118836 .3880005 .4501953 .33599855 .4501953 .2659912 .4501953 .22599793 .40019227 .20298767 .33718873V.4501953L.036987306 .4423828V.39537049C.09899902 .39537049 .10598755 .39537049 .10598755 .3563385V.04699707H.036987306V0L.16299439 .0029907227C.20098877 .0029907227 .2649994 .0029907227 .30099488 0V.04699707H.21398926V.22218323C.21398926 .29226686 .23899842 .41436769 .33898927 .41436769 .33898927 .41436769 .31999208 .39736939 .31999208 .36834718 .31999208 .32730104 .35198976 .3072815 .3809967 .3072815 .4099884 .3072815 .44198609 .3283081 .44198609 .36834718V.36819459Z"/>
<path id="font_10_66" d="M.28599549 0V.04699707H.22399903V.4501953L.049987794 .4423828V.39537049C.10899353 .39537049 .115997318 .39537049 .115997318 .3563385V.04699707H.04699707V0L.16899109 .0029907227 .28599549 0M.23799134 .60728457C.23799134 .6502838 .20298767 .6852875 .1599884 .6852875 .116989139 .6852875 .08198547 .6502838 .08198547 .60728457 .08198547 .5642853 .116989139 .5292969 .1599884 .5292969 .20298767 .5292969 .23799134 .5642853 .23799134 .60728457Z"/>
<path id="font_10_81" d="M.5419922 .21812439C.5419922 .35212709 .44999696 .453125 .2869873 .453125 .12298584 .453125 .03199768 .35112 .03199768 .21812439 .03199768 .09413147 .11999512-.005859375 .2869873-.005859375 .45498658-.005859375 .5419922 .09512329 .5419922 .21812439M.4139862 .22912598C.4139862 .14213562 .4139862 .03413391 .2869873 .03413391 .1599884 .03413391 .1599884 .14213562 .1599884 .22912598 .1599884 .27412416 .1599884 .32511903 .1769867 .3591156 .19599915 .39611817 .23799134 .41711427 .2869873 .41711427 .32899476 .41711427 .37098695 .40112306 .3929901 .36611939 .4139862 .3321228 .4139862 .27713014 .4139862 .22912598Z"/>
<path id="font_10_47" d="M.6009979 0V.04699707C.5389862 .04699707 .5319977 .04699707 .5319977 .086013797V.69433596L.35499574 .6855469V.63853457C.4169922 .63853457 .42399598 .63853457 .42399598 .5996704V.40518189C.37399293 .44418336 .32199098 .4501953 .2889862 .4501953 .14299011 .4501953 .037994386 .36218263 .037994386 .22116089 .037994386 .089141849 .12998963-.005859375 .27799989-.005859375 .33898927-.005859375 .3869934 .018127442 .41799928 .043136598V-.005859375L.6009979 0M.41799928 .102996829C.40499879 .08514404 .3639984 .030136109 .28799439 .030136109 .1659851 .030136109 .1659851 .15115357 .1659851 .22116089 .1659851 .26916505 .1659851 .3231659 .19198609 .36218263 .22099304 .40419007 .2679901 .41418458 .29899598 .41418458 .35598756 .41418458 .3959961 .3821869 .41799928 .35317994V.102996829Z"/>
<path id="font_1_1" d="M.31199647 .34832765H.42399598C.4019928 .2552948 .3909912 .1942749 .3909912 .1352539 .3909912 .067230228 .40899659-.0087890629 .45700074-.0087890629 .48999024-.0087890629 .526001 .02420044 .526001 .05621338 .526001 .068222049 .522995 .07423401 .5139923 .0892334 .46798707 .17025757 .46798707 .24728394 .46798707 .27430726 .46798707 .29830934 .46798707 .3083191 .47399903 .34832765H.59799197C.61698916 .34832765 .6329956 .34832765 .647995 .36332704 .6549988 .3703308 .66799929 .38232423 .66799929 .40533448 .66799929 .44433595 .6329956 .44433595 .61499026 .44433595H.22200012C.20098877 .44433595 .1579895 .44433595 .10499573 .3963318 .069992069 .3643341 .0309906 .31330873 .0309906 .3033142 .0309906 .28930665 .042999269 .28930665 .053985597 .28930665 .068984989 .28930665 .069992069 .29031373 .07899475 .3013153 .116989139 .34832765 .18299866 .34832765 .20199585 .34832765H.2619934C.23699951 .26930238 .19699097 .18727112 .14299011 .08622742 .1269989 .05621338 .12399292 .051223756 .12399292 .037216188 .12399292 .01020813 .1459961-.007797241 .17199707-.007797241 .19299317-.007797241 .20799256 .0032043458 .21499634 .00920105 .22999573 .02420044 .23098755 .028213501 .23599243 .049209596L.31199647 .34832765Z"/>
</defs>
<path transform="matrix(1,0,0,-1,137.647,100.714)" stroke-width=".79701" stroke-linecap="butt" stroke-miterlimit="10" stroke-linejoin="miter" fill="none" stroke="#000000" d="M-122.89813 0H267.46665"/>
<path transform="matrix(-1,-0,0,1,14.748871,100.714)" d="M4.66248 0C3.28098 .25902 1.0361 1.0361-.51805 1.94269V-1.94269C1.0361-1.0361 3.28098-.25902 4.66248 0"/>
<path transform="matrix(1,0,0,-1,405.11366,100.714)" d="M4.66248 0C3.28098 .25902 1.0361 1.0361-.51805 1.94269V-1.94269C1.0361-1.0361 3.28098-.25902 4.66248 0"/>
<use data-text="x" xlink:href="#font_1_7" transform="matrix(9.9626,0,0,-9.9626,413.495,102.92799)"/>
<path transform="matrix(1,0,0,-1,137.647,100.714)" stroke-width=".79701" stroke-linecap="butt" stroke-miterlimit="10" stroke-linejoin="miter" fill="none" stroke="#000000" d="M0-76.97675V76.97675"/>
<path transform="matrix(0,1,1,0,137.647,177.69075)" d="M4.66248 0C3.28098 .25902 1.0361 1.0361-.51805 1.94269V-1.94269C1.0361-1.0361 3.28098-.25902 4.66248 0"/>
<path transform="matrix(0,-1,-1,-0,137.647,23.737244)" d="M4.66248 0C3.28098 .25902 1.0361 1.0361-.51805 1.94269V-1.94269C1.0361-1.0361 3.28098-.25902 4.66248 0"/>
<use data-text="y" xlink:href="#font_1_8" transform="matrix(9.9626,0,0,-9.9626,134.522,13.418001)"/>
<use data-text="0" xlink:href="#font_2_4" transform="matrix(8.9664,0,0,-8.9664,139.75,110.012)"/>
<use data-text="&#x03c0;" xlink:href="#font_3_1" transform="matrix(7.9701,0,0,-7.9701,201.379,110.611)"/>
<path transform="matrix(1,0,0,-1,134.537,87.449)" stroke-width=".3587" stroke-linecap="butt" stroke-miterlimit="10" stroke-linejoin="miter" fill="none" stroke="#000000" d="M66.842-26.719H72.956"/>
<use data-text="4" xlink:href="#font_4_8" transform="matrix(7.9701,0,0,-7.9701,201.995,122.131)"/>
<use data-text="&#x2212;" xlink:href="#font_5_1" transform="matrix(7.9701,0,0,-7.9701,62.808008,116.160999)"/>
<use data-text="&#x03c0;" xlink:href="#font_3_1" transform="matrix(7.9701,0,0,-7.9701,71.59701,110.61099)"/>
<path transform="matrix(1,0,0,-1,-2.838997,87.449)" stroke-width=".3587" stroke-linecap="butt" stroke-miterlimit="10" stroke-linejoin="miter" fill="none" stroke="#000000" d="M74.436-26.719H80.549"/>
<use data-text="4" xlink:href="#font_4_8" transform="matrix(7.9701,0,0,-7.9701,72.213008,122.131)"/>
<use data-text="3" xlink:href="#font_4_7" transform="matrix(7.9701,0,0,-7.9701,332.52,112.205)"/>
<use data-text="&#x03c0;" xlink:href="#font_3_1" transform="matrix(7.9701,0,0,-7.9701,337.40199,112.205)"/>
<path transform="matrix(1,0,0,-1,265.67799,89.043)" stroke-width=".3587" stroke-linecap="butt" stroke-miterlimit="10" stroke-linejoin="miter" fill="none" stroke="#000000" d="M66.842-26.719H77.837"/>
<use data-text="4" xlink:href="#font_4_8" transform="matrix(7.9701,0,0,-7.9701,335.57698,123.725)"/>
<path transform="matrix(1,0,0,-1,137.647,100.714)" stroke-width="1.59404" stroke-linecap="butt" stroke-miterlimit="10" stroke-linejoin="miter" fill="none" stroke="#bf0040" d="M-90.14752-13.34328-91.8788-14.19406-90.21268-13.35243-88.54655-12.49055-86.88039-11.61-85.21428-10.71075-83.54816-9.79515-81.88203-8.86475-80.21587-7.92116-78.54974-6.96507-76.88362-5.99806-75.21745-5.0225-73.55133-4.0384-71.88521-3.04884-70.21904-2.05461-68.55292-1.0565-66.8868-.05759-65.22063 .94127-63.5545 1.93939-61.88838 2.93361-60.22221 3.92474-58.55609 4.90884-56.88997 5.88596-55.22382 6.85371-53.5577 7.81136-51.89157 8.75732-50.2254 9.68849-48.55928 10.60565-46.89316 11.50645-45.22699 12.39012-43.56087 13.25433-41.89474 14.09752-40.22858 14.91968-38.56245 15.71928-36.89633 16.49397-35.23016 17.24373-33.56404 17.96701-31.89792 18.66307-30.2318 19.32951-28.56563 19.96638-26.8995 20.57367-25.2334 21.14981-23.56723 21.6917-21.90111 22.20087-20.23499 22.67583-18.56882 23.11725-16.9027 23.52133-15.23657 23.89038-13.5704 24.22282-11.90428 24.51791-10.23816 24.77563-8.57199 24.9944-6.90587 25.17503-5.23975 25.31828-3.57358 25.42105-1.90746 25.4849-.24133 25.51059 1.42477 25.49734 3.0909 25.44362 4.757 25.35098 6.42317 25.22018 8.0893 25.05122 9.75542 24.84258 11.42159 24.59576 13.0877 24.31158 14.75383 23.99081 16.42 23.63268 18.08612 23.23795 19.75224 22.80739 21.41837 22.34259 23.08453 21.84274 24.75066 21.30943 26.41678 20.74341 28.08295 20.14624 29.74907 19.51791 31.41519 18.85849 33.08134 18.171 34.74747 17.45627 36.41359 16.71431 38.07976 15.94585 39.74588 15.15326 41.412 14.3381 43.07817 13.50037 44.7443 12.64238 46.41042 11.76414 48.07658 10.86882 49.7427 9.95631 51.40883 9.02827 53.075 8.08698 54.74112 7.13245 56.40724 6.1678 58.07341 5.19302 59.73953 4.21048 61.40565 3.22168 63.07181 2.22746 64.73793 1.23088 66.40405 .23122 68.07022-.76686 69.73634-1.76576 71.40247-2.76077 73.06859-3.75269 74.73476-4.73834 76.40088-5.71625 78.067-6.68634 79.73317-7.64551 81.39929-8.59303 83.06541-9.52733 84.73158-10.4476 86.3977-11.35074 88.06383-12.23676 89.73-13.10486 91.39612-13.95195 93.06223-14.778 94.7284-15.58147 96.39452-16.36082 98.06064-17.11526 99.7268-17.84322 101.39293-18.54315 103.05905-19.21585 104.72522-19.85817 106.39134-20.47012 108.05746-21.05095 109.72363-21.59982 111.38976-22.11525 113.05588-22.59563 114.72205-23.04253 116.38817-23.4536 118.05429-23.82887 119.72046-24.16756 121.38657-24.46886 123.05269-24.73357 124.71881-24.95938 126.38498-25.14621 128.0511-25.29492 129.71723-25.40547 131.38339-25.47713 133.04952-25.50902 134.71564-25.50125 136.3818-25.4553 138.04793-25.37045 139.71405-25.24586 141.38022-25.08238 143.04634-24.8815 144.71247-24.64247 146.37863-24.36375 148.04476-24.04921 149.71088-23.69731 151.37703-23.30957 153.04315-22.88448 154.70928-22.42511 156.37545-21.93227 158.04157-21.4052 159.70769-20.84462 161.37386-20.25212 163.03998-19.62927 164.7061-18.97604 166.37227-18.29324 168.03839-17.58241 169.70452-16.84511 171.37068-16.08133 173.0368-15.29343 174.70293-14.48138 176.36905-13.6483 178.03522-12.79343 179.70134-11.9191 181.36745-11.0253 183.03362-10.11592 184.69974-9.191 186.36586-8.25201 188.03203-7.29984 189.69815-6.33598 191.36428-5.36353 193.03044-4.38177 194.69657-3.39452 196.36269-2.40108 198.02886-1.40451 199.69498-.4056 201.3611 .59245 203.02727 1.59137 204.69339 2.58794 206.35951 3.57983 208.02568 4.56705 209.69179 5.54651 211.35791 6.51736 213.02408 7.47969 214.6902 8.42877 216.35633 9.3654 218.02249 10.288 219.68862 11.19502 221.35474 12.08417 223.0209 12.95537 224.68703 13.80557 226.35315 14.63632 228.01927 15.44368 229.68544 16.22693 231.35157 16.98526 233.01769 17.71866 234.68386 18.42326 236.34998 19.09984 234.48827 18.37538"/>
<path transform="matrix(-.89742,.44109,.44109,.89742,47.499505,114.05726)" d="M3.78581 0-2.27148 3.02866 0 0-2.27148-3.02866" fill="#bf0040"/>
<path transform="matrix(.93185,-.36267,-.36267,-.93185,372.13526,82.33862)" d="M3.78581 0-2.27148 3.02866 0 0-2.27148-3.02866" fill="#bf0040"/>
<path transform="matrix(1,0,0,-1,137.647,100.714)" d="M2.2545 25.51215C2.2545 26.7573 1.24515 27.76666 0 27.76666-1.24515 27.76666-2.2545 26.7573-2.2545 25.51215-2.2545 24.267-1.24515 23.25763 0 23.25763 1.24515 23.25763 2.2545 24.267 2.2545 25.51215ZM0 25.51215"/>
<path transform="matrix(1,0,0,-1,137.647,100.714)" stroke-width=".49814" stroke-linecap="butt" stroke-miterlimit="10" stroke-linejoin="miter" fill="none" stroke="#ffffff" d="M2.2545 25.51215C2.2545 26.7573 1.24515 27.76666 0 27.76666-1.24515 27.76666-2.2545 26.7573-2.2545 25.51215-2.2545 24.267-1.24515 23.25763 0 23.25763 1.24515 23.25763 2.2545 24.267 2.2545 25.51215ZM0 25.51215"/>
<path transform="matrix(1,0,0,-1,137.647,100.714)" d="M69.04399 0C69.04399 1.24515 68.03462 2.2545 66.78947 2.2545 65.54433 2.2545 64.53496 1.24515 64.53496 0 64.53496-1.24515 65.54433-2.2545 66.78947-2.2545 68.03462-2.2545 69.04399-1.24515 69.04399 0ZM66.78947 0"/>
<path transform="matrix(1,0,0,-1,137.647,100.714)" stroke-width=".49814" stroke-linecap="butt" stroke-miterlimit="10" stroke-linejoin="miter" fill="none" stroke="#ffffff" d="M69.04399 0C69.04399 1.24515 68.03462 2.2545 66.78947 2.2545 65.54433 2.2545 64.53496 1.24515 64.53496 0 64.53496-1.24515 65.54433-2.2545 66.78947-2.2545 68.03462-2.2545 69.04399-1.24515 69.04399 0ZM66.78947 0"/>
<path transform="matrix(1,0,0,-1,137.647,100.714)" d="M135.83475-25.51215C135.83475-24.267 134.82538-23.25763 133.58023-23.25763 132.33509-23.25763 131.32572-24.267 131.32572-25.51215 131.32572-26.7573 132.33509-27.76666 133.58023-27.76666 134.82538-27.76666 135.83475-26.7573 135.83475-25.51215ZM133.58023-25.51215"/>
<path transform="matrix(1,0,0,-1,137.647,100.714)" stroke-width=".49814" stroke-linecap="butt" stroke-miterlimit="10" stroke-linejoin="miter" fill="none" stroke="#ffffff" d="M135.83475-25.51215C135.83475-24.267 134.82538-23.25763 133.58023-23.25763 132.33509-23.25763 131.32572-24.267 131.32572-25.51215 131.32572-26.7573 132.33509-27.76666 133.58023-27.76666 134.82538-27.76666 135.83475-26.7573 135.83475-25.51215ZM133.58023-25.51215"/>
<path transform="matrix(1,0,0,-1,137.647,100.714)" d="M202.62555 0C202.62555 1.24515 201.61618 2.2545 200.37104 2.2545 199.12589 2.2545 198.11652 1.24515 198.11652 0 198.11652-1.24515 199.12589-2.2545 200.37104-2.2545 201.61618-2.2545 202.62555-1.24515 202.62555 0ZM200.37104 0"/>
<path transform="matrix(1,0,0,-1,137.647,100.714)" stroke-width=".49814" stroke-linecap="butt" stroke-miterlimit="10" stroke-linejoin="miter" fill="none" stroke="#ffffff" d="M202.62555 0C202.62555 1.24515 201.61618 2.2545 200.37104 2.2545 199.12589 2.2545 198.11652 1.24515 198.11652 0 198.11652-1.24515 199.12589-2.2545 200.37104-2.2545 201.61618-2.2545 202.62555-1.24515 202.62555 0ZM200.37104 0"/>
<path transform="matrix(1,0,0,-1,137.647,100.714)" d="M-64.53496 0C-64.53496 1.24515-65.54433 2.2545-66.78947 2.2545-68.03462 2.2545-69.04399 1.24515-69.04399 0-69.04399-1.24515-68.03462-2.2545-66.78947-2.2545-65.54433-2.2545-64.53496-1.24515-64.53496 0ZM-66.78947 0"/>
<path transform="matrix(1,0,0,-1,137.647,100.714)" stroke-width=".49814" stroke-linecap="butt" stroke-miterlimit="10" stroke-linejoin="miter" fill="none" stroke="#ffffff" d="M-64.53496 0C-64.53496 1.24515-65.54433 2.2545-66.78947 2.2545-68.03462 2.2545-69.04399 1.24515-69.04399 0-69.04399-1.24515-68.03462-2.2545-66.78947-2.2545-65.54433-2.2545-64.53496-1.24515-64.53496 0ZM-66.78947 0"/>
<use data-text="(" xlink:href="#font_4_1" transform="matrix(7.9701,0,0,-7.9701,141.16699,65.708)"/>
<use data-text="0" xlink:href="#font_4_4" transform="matrix(7.9701,0,0,-7.9701,144.96077,65.708)"/>
<use data-text="," xlink:href="#font_3_3" transform="matrix(7.9701,0,0,-7.9701,149.84601,65.708)"/>
<use data-text="1" xlink:href="#font_4_5" transform="matrix(7.9701,0,0,-7.9701,155.164,60.157999)"/>
<path transform="matrix(1,0,0,-1,75.52,36.996)" stroke-width=".3587" stroke-linecap="butt" stroke-miterlimit="10" stroke-linejoin="miter" fill="none" stroke="#000000" d="M79.644-26.719H84.526"/>
<use data-text="2" xlink:href="#font_4_6" transform="matrix(7.9701,0,0,-7.9701,155.164,71.67799)"/>
<use data-text=")" xlink:href="#font_4_2" transform="matrix(7.9701,0,0,-7.9701,161.242,65.708)"/>
<use data-text="(" xlink:href="#font_4_1" transform="matrix(7.9701,0,0,-7.9701,207.955,91.224)"/>
<use data-text="&#x03c0;" xlink:href="#font_3_1" transform="matrix(7.9701,0,0,-7.9701,212.94699,85.673999)"/>
<path transform="matrix(1,0,0,-1,142.308,62.512)" stroke-width=".3587" stroke-linecap="butt" stroke-miterlimit="10" stroke-linejoin="miter" fill="none" stroke="#000000" d="M70.639-26.719H76.753"/>
<use data-text="4" xlink:href="#font_4_8" transform="matrix(7.9701,0,0,-7.9701,213.56299,97.194)"/>
<use data-text="," xlink:href="#font_3_3" transform="matrix(7.9701,0,0,-7.9701,220.256,91.224)"/>
<use data-text="0" xlink:href="#font_4_4" transform="matrix(7.9701,0,0,-7.9701,224.38,91.224)"/>
<use data-text=")" xlink:href="#font_4_2" transform="matrix(7.9701,0,0,-7.9701,229.25769,91.224)"/>
<use data-text="(" xlink:href="#font_4_1" transform="matrix(7.9701,0,0,-7.9701,254.472,136.86)"/>
<use data-text="&#x03c0;" xlink:href="#font_6_1" transform="matrix(5.9776,0,0,-5.9776,259.464,133.60199)"/>
<path transform="matrix(1,0,0,-1,188.825,108.147998)" stroke-width=".3587" stroke-linecap="butt" stroke-miterlimit="10" stroke-linejoin="miter" fill="none" stroke="#000000" d="M70.639-26.719H75.906"/>
<use data-text="2" xlink:href="#font_7_2" transform="matrix(5.9776,0,0,-5.9776,260.025,139.986)"/>
<use data-text="," xlink:href="#font_3_3" transform="matrix(7.9701,0,0,-7.9701,265.926,136.86)"/>
<use data-text="&#x2212;" xlink:href="#font_5_1" transform="matrix(7.9701,0,0,-7.9701,270.05,136.86)"/>
<use data-text="1" xlink:href="#font_7_1" transform="matrix(5.9776,0,0,-5.9776,278.839,133.60199)"/>
<path transform="matrix(1,0,0,-1,188.825,108.147998)" stroke-width=".3587" stroke-linecap="butt" stroke-miterlimit="10" stroke-linejoin="miter" fill="none" stroke="#000000" d="M90.014-26.719H94.159"/>
<use data-text="2" xlink:href="#font_7_2" transform="matrix(5.9776,0,0,-5.9776,278.839,139.986)"/>
<use data-text=")" xlink:href="#font_4_2" transform="matrix(7.9701,0,0,-7.9701,284.18,136.86)"/>
<use data-text="(" xlink:href="#font_4_1" transform="matrix(7.9701,0,0,-7.9701,304.51,91.224)"/>
<use data-text="3" xlink:href="#font_4_7" transform="matrix(7.9701,0,0,-7.9701,309.502,85.673999)"/>
<use data-text="&#x03c0;" xlink:href="#font_3_1" transform="matrix(7.9701,0,0,-7.9701,314.384,85.673999)"/>
<path transform="matrix(1,0,0,-1,238.863,62.512)" stroke-width=".3587" stroke-linecap="butt" stroke-miterlimit="10" stroke-linejoin="miter" fill="none" stroke="#000000" d="M70.639-26.719H81.634"/>
<use data-text="4" xlink:href="#font_4_8" transform="matrix(7.9701,0,0,-7.9701,312.55903,97.194)"/>
<use data-text="," xlink:href="#font_3_3" transform="matrix(7.9701,0,0,-7.9701,321.693,91.224)"/>
<use data-text="0" xlink:href="#font_4_4" transform="matrix(7.9701,0,0,-7.9701,325.816,91.224)"/>
<use data-text=")" xlink:href="#font_4_2" transform="matrix(7.9701,0,0,-7.9701,330.69374,91.224)"/>
<use data-text="y" xlink:href="#font_1_8" transform="matrix(9.9626,0,0,-9.9626,323.288,52.852998)" fill="#bf0040"/>
<use data-text="=" xlink:href="#font_8_12" transform="matrix(9.9626,0,0,-9.9626,332.305,52.852998)" fill="#bf0040"/>
<use data-text="1" xlink:href="#font_8_5" transform="matrix(9.9626,0,0,-9.9626,345.179,45.413999)" fill="#bf0040"/>
<path transform="matrix(1,0,0,-1,257.641,24.140999)" stroke-width=".3985" stroke-linecap="butt" stroke-miterlimit="10" stroke-linejoin="miter" fill="none" stroke="#bf0040" d="M87.538-26.221H93.266"/>
<use data-text="2" xlink:href="#font_8_6" transform="matrix(9.9626,0,0,-9.9626,345.179,60.385999)" fill="#bf0040"/>
<use data-text="c" xlink:href="#font_8_13" transform="matrix(9.9626,0,0,-9.9626,353.763,52.852998)" fill="#bf0040"/>
<use data-text="o" xlink:href="#font_8_16" transform="matrix(9.9626,0,0,-9.9626,358.85389,52.852998)" fill="#bf0040"/>
<use data-text="s" xlink:href="#font_8_17" transform="matrix(9.9626,0,0,-9.9626,364.58238,52.852998)" fill="#bf0040"/>
<use data-text="2" xlink:href="#font_8_6" transform="matrix(9.9626,0,0,-9.9626,370.7492,52.852998)" fill="#bf0040"/>
<use data-text="x" xlink:href="#font_1_7" transform="matrix(9.9626,0,0,-9.9626,376.492,52.852998)" fill="#bf0040"/>
<path transform="matrix(1,0,0,-1,137.647,100.714)" stroke-width=".79701" stroke-linecap="butt" stroke-miterlimit="10" stroke-linejoin="miter" fill="none" stroke="#000000" d="M133.58023-2.59026V-22.92189"/>
<path transform="matrix(0,-1,-1,-0,271.22724,103.30426)" d="M2.59026 0-1.55415 2.0722 0 0-1.55415-2.0722"/>
<path transform="matrix(0,1,1,0,271.22724,123.63589)" d="M2.59026 0-1.55415 2.0722 0 0-1.55415-2.0722"/>
<use data-text="a" xlink:href="#font_9_28" transform="matrix(7.9701,0,0,-7.9701,246.531,115.463)"/>
<use data-text="m" xlink:href="#font_9_75" transform="matrix(7.9701,0,0,-7.9701,251.28119,115.463)"/>
<use data-text="p" xlink:href="#font_9_84" transform="matrix(7.9701,0,0,-7.9701,259.41868,115.463)"/>
<use data-text="l" xlink:href="#font_9_72" transform="matrix(7.9701,0,0,-7.9701,264.8463,115.463)"/>
<use data-text="i" xlink:href="#font_9_66" transform="matrix(7.9701,0,0,-7.9701,267.55613,115.463)"/>
<use data-text="t" xlink:href="#font_9_105" transform="matrix(7.9701,0,0,-7.9701,270.26597,115.463)"/>
<use data-text="u" xlink:href="#font_9_109" transform="matrix(7.9701,0,0,-7.9701,274.05973,115.463)"/>
<use data-text="d" xlink:href="#font_9_47" transform="matrix(7.9701,0,0,-7.9701,279.48738,115.463)"/>
<use data-text="e" xlink:href="#font_9_50" transform="matrix(7.9701,0,0,-7.9701,284.915,115.463)"/>
<use data-text="1" xlink:href="#font_7_1" transform="matrix(5.9776,0,0,-5.9776,290.582,112.205)"/>
<path transform="matrix(1,0,0,-1,180.884,86.751)" stroke-width=".3587" stroke-linecap="butt" stroke-miterlimit="10" stroke-linejoin="miter" fill="none" stroke="#000000" d="M109.698-26.719H113.843"/>
<use data-text="2" xlink:href="#font_7_2" transform="matrix(5.9776,0,0,-5.9776,290.582,118.589)"/>
<use data-text="y" xlink:href="#font_3_9" transform="matrix(7.9701,0,0,-7.9701,13.530006,114.474)"/>
<use data-text="=" xlink:href="#font_4_13" transform="matrix(7.9701,0,0,-7.9701,21.211007,114.474)"/>
<use data-text="0" xlink:href="#font_4_4" transform="matrix(7.9701,0,0,-7.9701,31.14972,114.474)"/>
<use data-text="m" xlink:href="#font_9_75" transform="matrix(7.9701,0,0,-7.9701,8.988007,123.937999)"/>
<use data-text="i" xlink:href="#font_9_66" transform="matrix(7.9701,0,0,-7.9701,17.12548,123.937999)"/>
<use data-text="d" xlink:href="#font_9_47" transform="matrix(7.9701,0,0,-7.9701,19.835312,123.937999)"/>
<use data-text="l" xlink:href="#font_9_72" transform="matrix(7.9701,0,0,-7.9701,25.262948,123.937999)"/>
<use data-text="i" xlink:href="#font_9_66" transform="matrix(7.9701,0,0,-7.9701,27.972779,123.937999)"/>
<use data-text="n" xlink:href="#font_9_77" transform="matrix(7.9701,0,0,-7.9701,30.68261,123.937999)"/>
<use data-text="e" xlink:href="#font_9_50" transform="matrix(7.9701,0,0,-7.9701,36.110246,123.937999)"/>
<path transform="matrix(1,0,0,-1,137.647,100.714)" stroke-width=".79701" stroke-linecap="butt" stroke-miterlimit="10" stroke-linejoin="miter" fill="none" stroke="#000000" d="M199.77329-51.02432H-66.19171"/>
<path transform="matrix(1,0,0,-1,332.55854,151.73831)" d="M4.66248 0C3.28098 .25902 1.0361 1.0361-.51805 1.94269V-1.94269C1.0361-1.0361 3.28098-.25902 4.66248 0"/>
<path transform="matrix(1,0,0,-1,337.61955,151.73831)" stroke-width=".79701" stroke-linecap="butt" stroke-miterlimit="10" stroke-linejoin="miter" fill="none" stroke="#000000" d="M0 3.08846V-3.08846"/>
<path transform="matrix(-1,-0,0,1,76.31702,151.73831)" d="M4.66248 0C3.28098 .25902 1.0361 1.0361-.51805 1.94269V-1.94269C1.0361-1.0361 3.28098-.25902 4.66248 0"/>
<path transform="matrix(-1,-0,0,1,71.25602,151.73831)" stroke-width=".79701" stroke-linecap="butt" stroke-miterlimit="10" stroke-linejoin="miter" fill="none" stroke="#000000" d="M0 3.08846V-3.08846"/>
<path transform="matrix(1,0,0,-1,137.647,100.714)" d="M41.85248-58.76834H91.72646V-43.2803H41.85248Z" fill="#ffffff"/>
<use data-text="p" xlink:href="#font_10_84" transform="matrix(9.9626,0,0,-9.9626,182.82,154.229)"/>
<use data-text="e" xlink:href="#font_10_50" transform="matrix(9.9626,0,0,-9.9626,189.49495,154.229)"/>
<use data-text="r" xlink:href="#font_10_96" transform="matrix(9.9626,0,0,-9.9626,194.74524,154.229)"/>
<use data-text="i" xlink:href="#font_10_66" transform="matrix(9.9626,0,0,-9.9626,199.46752,154.229)"/>
<use data-text="o" xlink:href="#font_10_81" transform="matrix(9.9626,0,0,-9.9626,202.64559,154.229)"/>
<use data-text="d" xlink:href="#font_10_47" transform="matrix(9.9626,0,0,-9.9626,208.69287,154.229)"/>
<use data-text="&#x03c0;" xlink:href="#font_1_1" transform="matrix(9.9626,0,0,-9.9626,218.88501,154.229)"/>
</svg>
