<svg style="overflow: visible;" xmlns="http://www.w3.org/2000/svg" xmlns:xlink="http://www.w3.org/1999/xlink" xmlns:inkscape="http://www.inkscape.org/namespaces/inkscape" version="1.1" width="100%" height="100%" viewBox="0 0 457.46 178.27">
<defs>
<path id="font_1_4" d="M.59498599 .3731079C.598999 .38909913 .598999 .394104 .598999 .3981018 .598999 .4320984 .57199099 .44410707 .5509949 .44410707 .49798585 .44410707 .48599244 .3961029 .47898866 .3701172L.45298768 .26612855C.43899537 .21113587 .42599488 .15615845 .41099549 .10116577 .4099884 .09416199 .3659973 .032180787 .30099488 .032180787 .2579956 .032180787 .23799134 .057174684 .23799134 .10417175 .23799134 .16314698 .27198792 .24913025 .29899598 .3171234 .30499269 .33111573 .31098939 .3461151 .31098939 .36210633 .31098939 .41410829 .25898744 .45210267 .19299317 .45210267 .08699036 .45210267 .032989503 .32011415 .032989503 .29612733 .032989503 .28112794 .04699707 .28112794 .05899048 .28112794 .07499695 .28112794 .07998657 .28112794 .083999637 .29512025 .11898804 .4091034 .1769867 .41210938 .18699646 .41210938 .19299317 .41210938 .20399475 .41210938 .20399475 .3901062 .20399475 .36810304 .19299317 .3421173 .18798828 .32911683 .147995 .22813416 .12799073 .17315674 .12799073 .12416077 .12799073 .0231781 .20899964-.0078125 .29299928-.0078125 .30899049-.0078125 .34700013-.0078125 .3919983 .02218628 .36999513-.08416748 .29599-.16210938 .21598816-.16210938 .21398926-.16210938 .18499756-.16210938 .16099549-.15216065 .18399048-.14016724 .20399475-.11515808 .20399475-.0851593 .20399475-.04916382 .17599488-.03515625 .1519928-.03515625 .10899353-.03515625 .07598877-.07316589 .07598877-.11416626 .07598877-.17111206 .13699341-.20211792 .21598816-.20211792 .33799745-.20211792 .47099305-.123168949 .5009918-.0018157959L.59498599 .3731079Z"/>
<path id="font_2_13" d="M.80799868 .33398438C.82199099 .33398438 .8529968 .33398438 .8529968 .36598207 .8529968 .39797975 .82199099 .39797975 .8089905 .39797975H.10998535C.09700012 .39797975 .06599426 .39797975 .06599426 .36598207 .06599426 .33398438 .09799194 .33398438 .11099243 .33398438H.80799868M.8089905 .102005008C.82199099 .102005008 .8529968 .102005008 .8529968 .13400269 .8529968 .16601563 .82099917 .16601563 .80799868 .16601563H.11099243C.09799194 .16601563 .06599426 .16601563 .06599426 .13400269 .06599426 .102005008 .09700012 .102005008 .10998535 .102005008H.8089905Z"/>
<path id="font_1_2" d="M.31999208 .6577301C.32398988 .6707306 .32398988 .6727295 .32398988 .6737366 .32398988 .68573 .31199647 .69374087 .2999878 .69374087 .29599 .69374087 .29499818 .69374087 .29299928 .69273379L.16499329 .68673709C.1519928 .68573 .1309967 .68473818 .1309967 .6557312 .1309967 .6537323 .1309967 .636734 .1559906 .6357422 .1639862 .6357422 .19299317 .6347351 .19898987 .6337433L.055999757 .064208988C.051986696 .048187257 .051986696 .04019165 .051986696 .03918457 .051986696 .012176514 .07199097-.0078125 .101989749-.0078125 .12599182-.0078125 .1499939 .008178711 .16099549 .028182984 .16499329 .03718567 .1769867 .08622742 .18399048 .115249637 .19299317 .14727783 .20098877 .18029785 .20899964 .21232605 .27999879 .20332337 .31999208 .18029785 .31999208 .14027405 .31999208 .13526917 .31999208 .1312561 .31799317 .12025452 .31498719 .11024475 .31399537 .097229007 .31399537 .0952301 .31399537 .029174805 .3789978-.0078125 .44499208-.0078125 .548996-.0078125 .58699038 .13827515 .58699038 .14826966 .58699038 .16429138 .56999209 .16429138 .5609894 .16429138 .5399933 .16429138 .5389862 .1592865 .5339966 .14227295 .5269928 .118255618 .5029907 .032180787 .45098878 .032180787 .43499757 .032180787 .4249878 .04219055 .4249878 .07321167 .4249878 .081222537 .4269867 .098236087 .42999269 .11024475 .43199159 .12025452 .43499757 .13226319 .43499757 .14427185 .43499757 .23234558 .32598878 .24736023 .26098634 .2533722 .2829895 .26837159 .30499269 .28738404 .33198548 .3113861 .3829956 .35939027 .44099427 .41210938 .49798585 .41210938 .5109863 .41210938 .5189972 .40818788 .522995 .3993683 .46899415 .39338685 .45098878 .35238648 .45098878 .32537843 .45098878 .28938294 .47898866 .27539063 .5029907 .27539063 .5349884 .27539063 .5799866 .29937745 .5799866 .36637879 .5799866 .40719605 .5569916 .45210267 .5009918 .45210267 .43699647 .45210267 .37998963 .40621949 .31698609 .3473816 .28199769 .31437684 .25498963 .29039 .22399903 .27438355L.31999208 .6577301Z"/>
<path id="font_3_75" d="M.95899966-.0002746582V.048721315H.8909912V.30471803C.8909912 .42271424 .81999209 .4497223 .7319946 .4497223 .6279907 .4497223 .57699587 .38671876 .55799868 .3557129 .5359955 .4457245 .44799806 .4497223 .4039917 .4497223 .27999879 .4497223 .23098755 .35972596 .22399903 .34472657H.22299195V.4497223L.049987794 .44172669V.39271546C.10998535 .39271546 .117996219 .39271546 .117996219 .353714V.048721315H.049987794V-.0002746582L.17599488 .0027160645 .30299378-.0002746582V.048721315H.23498535V.25372315C.23498535 .36471559 .32699586 .40971376 .3869934 .40971376 .4249878 .40971376 .44599916 .38972474 .44599916 .3137207V.048721315H.37799073V-.0002746582L.5039978 .0027160645 .6309967-.0002746582V.048721315H.5629883V.25372315C.5629883 .36471559 .6549988 .40971376 .71499636 .40971376 .7529907 .40971376 .7739868 .38972474 .7739868 .3137207V.048721315H.70599368V-.0002746582L.83200076 .0027160645 .95899966-.0002746582Z"/>
<path id="font_3_66" d="M.2919922 0V.04899597H.23098755V.4501953L.054992677 .4423828V.39337159C.11299133 .39337159 .11999512 .39337159 .11999512 .3543396V.04899597H.051986696V0C.11898804 .0019989014 .13198853 .0029907227 .17399597 .0029907227 .22299195 .0029907227 .23599243 .0019989014 .2919922 0M.24198914 .6053314C.24198914 .65234377 .20399475 .68434146 .1639862 .68434146 .12199402 .68434146 .085998538 .6503296 .085998538 .6063385 .085998538 .55934146 .12399292 .52734377 .1639862 .52734377 .20599365 .52734377 .24198914 .56134036 .24198914 .6053314Z"/>
<path id="font_3_47" d="M.61499026 0V.04899597C.5549927 .04899597 .5469971 .04899597 .5469971 .088012699V.69433596L.36799623 .6855469V.63653567C.42799378 .63653567 .43598939 .63653567 .43598939 .5976715V.40518189C.3919983 .43719483 .34498597 .4501953 .29699708 .4501953 .13398743 .4501953 .038986207 .35118104 .038986207 .22216797 .038986207 .089141849 .1329956-.005859375 .2849884-.005859375 .34799195-.005859375 .397995 .018127442 .42999269 .044128419V-.005859375L.61499026 0M.42999269 .10899353C.4079895 .074142459 .3600006 .03413391 .29599 .03413391 .17199707 .03413391 .17199707 .15414429 .17199707 .22015381 .17199707 .27816773 .17298889 .32118226 .19898987 .3581848 .22499085 .39819337 .272995 .41018678 .30799867 .41018678 .35798646 .41018678 .39898683 .3881836 .42999269 .34918214V.10899353Z"/>
<path id="font_3_72" d="M.29899598 0V.04899597H.23098755V.69433596L.051986696 .6855469V.63653567C.11199951 .63653567 .11999512 .63653567 .11999512 .5975647V.04899597H.051986696V0L.1749878 .0029907227 .29899598 0Z"/>
<path id="font_3_77" d="M.6299896-.0002746582V.048721315H.56199648V.30471803C.56199648 .4237213 .48999024 .4497223 .40299989 .4497223 .27999879 .4497223 .23098755 .35972596 .22399903 .34472657H.22299195V.4497223L.049987794 .44172669V.39271546C.10998535 .39271546 .117996219 .39271546 .117996219 .353714V.048721315H.049987794V-.0002746582L.17599488 .0027160645 .30299378-.0002746582V.048721315H.23498535V.25372315C.23498535 .36572267 .32699586 .40971376 .3869934 .40971376 .4249878 .40971376 .44499208 .38871766 .44499208 .3137207V.048721315H.3769989V-.0002746582L.5029907 .0027160645 .6299896-.0002746582Z"/>
<path id="font_3_50" d="M.5089874 .11605835C.5089874 .13604737 .4889984 .13604737 .48298646 .13604737 .46499635 .13604737 .46299745 .13005066 .45700074 .11605835 .43399049 .06410217 .37298585 .037139894 .30999757 .037139894 .16799927 .037139894 .1659851 .16601563 .1659851 .21496582H.47599793C.49699403 .21496582 .5089874 .21496582 .5089874 .2429657 .5089874 .26498414 .5069885 .35305787 .44198609 .4071045 .39698792 .4441223 .33699037 .453125 .28799439 .453125 .116989139 .453125 .032989503 .345047 .032989503 .22497559 .032989503 .09408569 .13198853-.005859375 .3019867-.005859375 .46699525-.005859375 .5089874 .1000824 .5089874 .11605835M.41099549 .25097657H.1659851C.16799927 .29701234 .17298889 .41311646 .28799439 .41311646 .40499879 .41311646 .40899659 .29100038 .41099549 .25097657Z"/>
<path id="font_4_1" d="M.40699769-.23200989C.40699769-.2250061 .4039917-.22200012 .3919983-.21200562 .2649994-.09700012 .21998596 .07798767 .21998596 .25 .21998596 .42099 .2630005 .59599307 .3899994 .70899966 .4059906 .723999 .40699769 .72499087 .40699769 .7319946 .40699769 .74198916 .40098573 .75 .38598634 .75 .36698915 .75 .31399537 .70500186 .2939911 .6859894 .16899109 .56199648 .11399841 .4099884 .11399841 .25 .11399841 .16099549 .13198853 .039993287 .20599365-.07800293 .2689972-.17800904 .3639984-.25 .38598634-.25 .40098573-.25 .40699769-.2420044 .40699769-.23200989Z"/>
<path id="font_5_6" d="M.32499696 .65078738C.32899476 .66477969 .32899476 .66677859 .32899476 .67277529 .32899476 .68078616 .32398988 .6937866 .30499269 .6937866 .2999878 .6937866 .29899598 .6937866 .29699708 .69277957L.16899109 .68678286C.15499878 .68577578 .13398743 .68478396 .13398743 .65478518 .13398743 .63378909 .1539917 .63378909 .16699219 .63378909 .18399048 .63378909 .19898987 .63378909 .19898987 .6287842 .19898987 .62680056 .19799805 .62179568 .19599915 .6148224L.057998659 .06518555C.055999757 .05619812 .053985597 .049194337 .053985597 .03919983 .053985597 .012191772 .07598877-.008804321 .10499573-.008804321 .1309967-.008804321 .1579895 .0072021486 .16999817 .035202028 .17098999 .03919983 .18299866 .08518982 .18899536 .11117554L.21299744 .20315552C.22698975 .262146 .22698975 .2641449 .22999573 .27314759 .23399353 .29014588 .30099488 .41111756 .41099549 .41111756 .45199586 .41111756 .46499635 .38911439 .46499635 .35212709 .46499635 .2931366 .41600038 .1691742 .3999939 .13017273 .3899994 .10418701 .3880005 .09718323 .3880005 .08319092 .3880005 .021194458 .45298768-.008804321 .5099945-.008804321 .62098696-.008804321 .6769867 .122177127 .6769867 .1481781 .6769867 .16616822 .6579895 .16616822 .6489868 .16616822 .6269989 .16616822 .625 .16116333 .6199951 .1461792 .59498599 .064193729 .5469971 .033203126 .5159912 .033203126 .5099945 .033203126 .49899293 .033203126 .49899293 .05619812 .49899293 .077178958 .5069885 .09718323 .5169983 .121170047 .5329895 .16017151 .57899478 .2761383 .57899478 .33213807 .57899478 .42411805 .5039978 .453125 .4189911 .453125 .3789978 .453125 .32499696 .44612123 .25898744 .38911439L.32499696 .65078738Z"/>
<path id="font_5_3" d="M.22099304 .016998291C.21199036-.08493042 .1519928-.1348877 .1309967-.15187073 .11999512-.15986634 .115997318-.16287232 .115997318-.17185974 .115997318-.18086243 .12799073-.19386292 .13899231-.19386292 .15499878-.19386292 .2639923-.106918338 .2639923 .03199768 .2639923 .10499573 .22698975 .1599884 .16899109 .1599884 .12199402 .1599884 .08999634 .12399292 .08999634 .07998657 .08999634 .038986207 .11898804 0 .16999817 0 .18998719 0 .20899964 .0069885256 .22099304 .016998291Z"/>
<path id="font_5_7" d="M.32499696 .65078738C.32899476 .66477969 .32899476 .66677859 .32899476 .67277529 .32899476 .68078616 .32398988 .6937866 .30499269 .6937866 .2999878 .6937866 .29899598 .6937866 .29699708 .69277957L.16799927 .68678286C.1559906 .68577578 .13398743 .68478396 .13398743 .65478518 .13398743 .63378909 .1539917 .63378909 .16999817 .63378909 .18299866 .63378909 .19898987 .63378909 .19898987 .6287842 .19898987 .62680056 .19799805 .62179568 .19599915 .6148224L.057998659 .06523132C.055999757 .05621338 .053985597 .049209596 .053985597 .03919983 .053985597 .012191772 .07598877-.008804321 .10499573-.008804321 .1269989-.008804321 .15098572 .0021972657 .16699219 .029190064 .17098999 .036193849 .18299866 .085250858 .18998719 .11427307L.21398926 .20936585C.2689972 .20336914 .32899476 .18734741 .32899476 .13830567 .32899476 .13529969 .32899476 .1302948 .32699586 .120285037 .32398988 .11126709 .32299806 .1002655 .32299806 .09526062 .32299806 .027191163 .3919983-.008804321 .46099855-.008804321 .5669861-.008804321 .60798647 .13529969 .60798647 .14831543 .60798647 .1663208 .58898928 .1663208 .5799866 .1663208 .5569916 .1663208 .5549927 .16131592 .548996 .14129639 .5349884 .08924866 .5079956 .033203126 .46598817 .033203126 .44099427 .033203126 .43899537 .05921936 .43899537 .07623291 .43899537 .085250858 .43899537 .09326172 .44299317 .11126709 .44799806 .13128662 .44799806 .14230347 .44799806 .14331055 .44799806 .24040222 .31900025 .24841309 .269989 .2514038 .2869873 .26441957 .2889862 .26441957 .3659973 .33143617 .40699769 .36743165 .45799256 .41111756 .5119934 .41111756 .5219879 .41111756 .5319977 .40818788 .5359955 .3993988 .4909973 .39343263 .46199037 .35842896 .46199037 .3214264 .46199037 .283432 .4909973 .26942445 .5159912 .26942445 .5439911 .26942445 .59599307 .2884369 .59599307 .36343385 .59599307 .41711427 .56399539 .453125 .5149994 .453125 .44898988 .453125 .3909912 .4072113 .33099366 .35342408 .2659912 .2934265 .25 .2854309 .22999573 .27442933L.32499696 .65078738Z"/>
<path id="font_4_2" d="M.36099244 .25C.36099244 .33898927 .34298707 .45999146 .2689972 .5779877 .20599365 .6779938 .11099243 .75 .08898926 .75 .07199097 .75 .067993167 .7389984 .067993167 .7319946 .067993167 .72499087 .07199097 .72099307 .08299255 .71199038 .20999146 .5970001 .25498963 .42199708 .25498963 .25 .25498963 .07899475 .21199036-.0960083 .084991458-.2090149 .07299805-.22000122 .067993167-.22401428 .067993167-.23200989 .067993167-.23901367 .07199097-.25 .08898926-.25 .10798645-.25 .16099549-.20500183 .18099976-.18600464 .30599977-.06201172 .36099244 .08999634 .36099244 .25Z"/>
<path id="font_6_1" d="M.8019867 .21617127C.81599429 .21617127 .84999087 .21617127 .84999087 .25016786 .84999087 .2841797 .81599429 .2841797 .8019867 .2841797H.1499939C.13598633 .2841797 .101989749 .2841797 .101989749 .25016786 .101989749 .21617127 .13598633 .21617127 .1499939 .21617127H.8019867Z"/>
<path id="font_5_1" d="M.33599855 .3408203H.44898988C.42199708 .22695923 .41999818 .17901612 .41999818 .14805603 .41999818 .07015991 .44499208-.009765625 .49598695-.009765625 .522995-.009765625 .5669861 .018218995 .5669861 .059173585 .5669861 .073150638 .56399539 .07914734 .55599978 .09112549 .5069885 .16603089 .5029907 .24394226 .5029907 .27789308 .5029907 .30485536 .5049896 .31684876 .5079956 .3408203H.6389923C.6599884 .3408203 .6719971 .3408203 .6899872 .35481263 .70399478 .3658142 .71299746 .38581849 .71299746 .40081788 .71299746 .44381715 .6729889 .44381715 .6559906 .44381715H.23498535C.21099854 .44381715 .16799927 .44381715 .10598755 .3918152 .08999634 .37780763 .03199768 .31884767 .03199768 .30285646 .03199768 .2848816 .04899597 .2848816 .05999756 .2848816 .07699585 .2848816 .07798767 .28588868 .08699036 .296875 .10598755 .31684876 .1349945 .3408203 .21299744 .3408203H.27598573C.25498963 .27789308 .22499085 .2059784 .15699768 .085128787 .14299011 .061157228 .13999939 .05517578 .13999939 .03918457 .13999939 .008224487 .16499329-.008773804 .19099427-.008773804 .21798706-.008773804 .24499512 .008224487 .2559967 .04019165 .2659912 .06616211 .272995 .09411621 .2809906 .12608338L.33599855 .3408203Z"/>
<path id="font_5_5" d="M.2899933 .65078738C.2939911 .66477969 .2939911 .66677859 .2939911 .67277529 .2939911 .68078616 .2889862 .6937866 .269989 .6937866 .2649994 .6937866 .2639923 .6937866 .2619934 .69277957L.1329956 .68678286C.12098694 .68577578 .09899902 .68478396 .09899902 .65478518 .09899902 .63378909 .11898804 .63378909 .1349945 .63378909 .147995 .63378909 .1639862 .63378909 .1639862 .6287842 .1639862 .62579348 .14698792 .55693057 .1309967 .4950409L.07998657 .2931366C.05999756 .2121582 .054992677 .19116211 .054992677 .15916443 .054992677 .049194337 .13198853-.008804321 .23899842-.008804321 .43399049-.008804321 .5359955 .15716553 .5359955 .2831421 .5359955 .39411927 .45599366 .453125 .34700013 .453125 .29699708 .453125 .2559967 .43611146 .23298645 .42311097L.2899933 .65078738M.24099732 .033203126C.1639862 .033203126 .1639862 .10218811 .1639862 .11917114 .1639862 .15916443 .18998719 .25715638 .21199036 .34013368 .21699524 .35812379 .27598573 .41111756 .34199525 .41111756 .3829956 .41111756 .4149933 .39012147 .4149933 .33312989 .4149933 .29014588 .38398744 .16616822 .36299134 .122177127 .32199098 .03919983 .2599945 .033203126 .24099732 .033203126Z"/>
<path id="font_4_3" d="M.5099945 .21617127H.83799746C.8509979 .21617127 .8839874 .21617127 .8839874 .25016786 .8839874 .2841797 .84999087 .2841797 .83799746 .2841797H.5099945V.6121979C.5099945 .62519839 .5099945 .6582031 .47599793 .6582031 .44198609 .6582031 .44198609 .6241913 .44198609 .6121979V.2841797H.11399841C.100997928 .2841797 .067993167 .2841797 .067993167 .25016786 .067993167 .21617127 .101989749 .21617127 .11399841 .21617127H.44198609V-.11218262C.44198609-.12519837 .44198609-.15820313 .47599793-.15820313 .5099945-.15820313 .5099945-.124191287 .5099945-.11218262V.21617127Z"/>
<path id="font_4_6" d="M.5509949 .2280426H.49499513C.4869995 .16200257 .47399903 .14199829 .46798707 .13899231 .45700074 .1329956 .37998963 .1329956 .36299134 .1329956H.22499085C.35899354 .23805237 .41299439 .2680664 .45599366 .30108644 .526001 .35612489 .5509949 .40615846 .5509949 .46316529 .5509949 .58117678 .44198609 .6582031 .2899933 .6582031 .1619873 .6582031 .06098938 .6011963 .06098938 .50717166 .06098938 .4481659 .10899353 .4291687 .13699341 .4291687 .17199707 .4291687 .21398926 .4541626 .21398926 .50616458 .21398926 .5531616 .17999268 .5721588 .16699219 .5771637 .19499207 .5981903 .23498535 .6062012 .2659912 .6062012 .35598756 .6062012 .4059906 .5391693 .4059906 .4621582 .4059906 .38113404 .35299684 .31410218 .2939911 .25906373L.07299805 .052993776C.06199646 .041992189 .06098938 .040985109 .06098938 .020996094V0H.5179901L.5509949 .2280426Z"/>
<path id="font_4_7" d="M.28399659 .32714845C.3999939 .32714845 .40098573 .23034668 .40098573 .18035889 .40098573 .13534546 .40098573 .033325197 .28799439 .033325197 .2669983 .033325197 .20999146 .036315919 .1599884 .068359378 .1769867 .0753479 .21299744 .09635925 .21299744 .14535523 .21299744 .19335938 .1789856 .22634888 .13198853 .22634888 .08799744 .22634888 .050994874 .1963501 .050994874 .14434815 .050994874 .047332765 .15499878-.013671875 .29299928-.013671875 .4889984-.013671875 .5609894 .09234619 .5609894 .1793518 .5609894 .26127626 .49798585 .32914735 .3899994 .35313417 .4169922 .36413575 .5269928 .40715028 .5269928 .51615908 .5269928 .59617617 .44499208 .6582031 .29599 .6582031 .1659851 .6582031 .084991458 .58917239 .084991458 .50717166 .084991458 .45115663 .1289978 .4311676 .15899658 .4311676 .19898987 .4311676 .23298645 .45916749 .23298645 .5051575 .23298645 .52716067 .22499085 .5651703 .1769867 .5771637 .22099304 .6151886 .2809906 .6151886 .2899933 .6151886 .3829956 .6151886 .3829956 .5491638 .3829956 .51916506 .3829956 .4471588 .34899903 .41015626 .34599305 .40615846 .31698609 .37513734 .29899598 .3741455 .24499512 .37113954 .21398926 .36914063 .20399475 .36813355 .20399475 .34814454 .20399475 .32714845 .21699524 .32714845 .23498535 .32714845H.28399659Z"/>
<path id="font_5_4" d="M.5529938 .34713746C.5569916 .36012269 .56199648 .38111878 .56199648 .38812257 .56199648 .41111756 .5439911 .43511964 .5109863 .43511964 .5009918 .43511964 .47698976 .43211366 .45899964 .41111756 .4149933 .453125 .3600006 .453125 .34399415 .453125 .15699768 .453125 .04798889 .29414369 .04798889 .16116333 .04798889 .04119873 .13899231-.008804321 .23699951-.008804321 .2899933-.008804321 .33999635 .00819397 .3869934 .045196535 .42099-.008804321 .5009918-.008804321 .5079956-.008804321 .6119995-.008804321 .6419983 .1461792 .6419983 .1481781 .6419983 .16616822 .6230011 .16616822 .6139984 .16616822 .58999636 .16616822 .58898928 .16116333 .58399966 .14016724 .56799319 .08018494 .5479889 .033203126 .5139923 .033203126 .4889984 .033203126 .4889984 .059188844 .4889984 .07318115 .4889984 .09017944 .49598695 .12017822 .5019989 .14317322L.5529938 .34713746M.37399293 .10018921C.32499696 .044189454 .2709961 .033203126 .24198914 .033203126 .20098877 .033203126 .16899109 .05519104 .16899109 .11117554 .16899109 .1541748 .19999695 .27815248 .22099304 .3221283 .2539978 .38911439 .3039856 .41111756 .34498597 .41111756 .4139862 .41111756 .43499757 .35913087 .43499757 .35212709 .43499757 .35012818 .43499757 .34812928 .43199159 .3371277L.37399293 .10018921Z"/>
<path id="font_4_9" d="M.17599488 .5010834C.20799256 .49609376 .24198914 .49609376 .24798584 .49609376 .27398683 .49609376 .34199525 .49609376 .4169922 .54408267 .44299317 .56108096 .5029907 .611084 .5029907 .63708499 .5029907 .65208438 .49499513 .65808108 .4850006 .65808108 .48298646 .65808108 .48098756 .65808108 .46998597 .65309146 .42099 .63609316 .3619995 .6260834 .30699159 .6260834 .2619934 .6260834 .20498657 .6320801 .13999939 .65408328 .13198853 .65808108 .12998963 .65808108 .1269989 .65808108 .10998535 .65808108 .10998535 .64108279 .10998535 .62709048V.33319093C.10998535 .3142395 .10998535 .29927064 .13699341 .29927064 .1519928 .29927064 .15499878 .30126954 .16499329 .31323243 .20498657 .36112977 .2669983 .3701172 .30599977 .3701172 .4019928 .3701172 .4019928 .27931214 .4019928 .20341492 .4019928 .13441468 .4019928 .033325197 .27198792 .033325197 .21998596 .033325197 .16999817 .055358888 .14299011 .089416507 .18499756 .09541321 .20498657 .12741089 .20498657 .16041565 .20498657 .2064209 .16899109 .23242188 .1329956 .23242188 .101989749 .23242188 .06098938 .2124176 .06098938 .15841675 .06098938 .068374637 .1459961-.013671875 .27598573-.013671875 .45399476-.013671875 .5509949 .08340454 .5509949 .20141602 .5509949 .31323243 .47099305 .41210938 .30999757 .41210938 .2619934 .41210938 .21598816 .4031067 .17599488 .3781128V.5010834Z"/>
<path id="font_7_8" d="M.57699587 .3771515C.58200076 .3951416 .58200076 .3971405 .58200076 .40014649 .58200076 .4221344 .56599429 .44413758 .5349884 .44413758 .48298646 .44413758 .47099305 .3971405 .46398927 .3701477L.43798829 .26615907C.42599488 .2181549 .40699769 .14117432 .3959961 .10017395 .3909912 .07817078 .3600006 .05418396 .35699464 .05218506 .34599305 .045181276 .32199098 .028182984 .2889862 .028182984 .22999573 .028182984 .22898865 .07817078 .22898865 .10116577 .22898865 .16217041 .2599945 .24015808 .28799439 .31214906 .2979889 .33815003 .30099488 .3451538 .30099488 .3621521 .30099488 .4201355 .24299622 .45214845 .18798828 .45214845 .08198547 .45214845 .03199768 .31614686 .03199768 .29615785 .03199768 .28215028 .04699707 .28215028 .055999757 .28215028 .067993167 .28215028 .07499695 .28215028 .07899475 .29515077 .11199951 .4061432 .16699219 .4161377 .18199158 .4161377 .18899536 .4161377 .19898987 .4161377 .19898987 .3951416 .19898987 .3721466 .18798828 .34614564 .18199158 .33015443 .14299011 .23016358 .12199402 .173172 .12199402 .122177127 .12199402 .008178711 .22200012-.0078125 .2809906-.0078125 .30599977-.0078125 .33999635-.0038146973 .3769989 .02218628 .34899903-.10101318 .27398683-.16615296 .20498657-.16615296 .19198609-.16615296 .1639862-.16415406 .14399719-.15213013 .17599488-.13909912 .19198609-.11204529 .19198609-.0849762 .19198609-.04890442 .16299439-.038879396 .14299011-.038879396 .10598755-.038879396 .070999149-.07095337 .070999149-.11505127 .070999149-.16615296 .12399292-.20214844 .20498657-.20214844 .31999208-.20214844 .45199586-.12506104 .48298646-.0008239746L.57699587 .3771515Z"/>
<path id="font_8_12" d="M.7879944 .33203126C.7999878 .33203126 .82899478 .33203126 .82899478 .36203004 .82899478 .39302064 .7979889 .39302064 .7829895 .39302064H.10998535C.09498596 .39302064 .06399536 .39302064 .06399536 .36203004 .06399536 .33203126 .09298706 .33203126 .10499573 .33203126H.7879944M.7829895 .107940677C.7979889 .107940677 .82899478 .107940677 .82899478 .13893128 .82899478 .16894531 .7999878 .16894531 .7879944 .16894531H.10499573C.09298706 .16894531 .06399536 .16894531 .06399536 .13893128 .06399536 .107940677 .09498596 .107940677 .10998535 .107940677H.7829895Z"/>
<path id="font_7_3" d="M.5149994 .31715394C.5209961 .34214784 .5309906 .3821411 .5309906 .3911438 .5309906 .42314149 .5049896 .4351349 .48399354 .4351349 .46499635 .4351349 .44499208 .42514039 .43299867 .410141 .41799928 .42614747 .3849945 .45214845 .32699586 .45214845 .15299988 .45214845 .04499817 .29415895 .04499817 .15716553 .04499817 .034179689 .13699341-.0078125 .21998596-.0078125 .29100038-.0078125 .34298707 .031173706 .35899354 .046173097 .39698792-.0078125 .46299745-.0078125 .47399903-.0078125 .5109863-.0078125 .5399933 .013183594 .5609894 .049179079 .58599856 .08917236 .598999 .14317322 .598999 .14816284 .598999 .16217041 .58399966 .16217041 .57499697 .16217041 .56399539 .16217041 .55999758 .16217041 .5549927 .15716553 .5529938 .15516663 .5529938 .15316773 .5469971 .12817383 .5269928 .048171998 .5039978 .028182984 .47898866 .028182984 .46798707 .028182984 .45599366 .032180787 .45599366 .06517029 .45599366 .08216858 .45999146 .09817505 .46998597 .13816834 .47698976 .16616822 .4869995 .2061615 .49198915 .22816468L.5149994 .31715394M.34899903 .093170169C.31999208 .059173585 .272995 .028182984 .22499085 .028182984 .16299439 .028182984 .1579895 .08216858 .1579895 .10417175 .1579895 .1561737 .19198609 .27915956 .20799256 .31814576 .23899842 .3911438 .28799439 .4161377 .32899476 .4161377 .3880005 .4161377 .4119873 .36914063 .4119873 .35813905L.4099884 .34414674 .34899903 .093170169Z"/>
<path id="font_8_17" d="M.21099854 .29412843C.17399597 .30111695 .10899353 .31211854 .10899353 .3591156 .10899353 .42111207 .20199585 .42111207 .22099304 .42111207 .29599 .42111207 .33399964 .39212037 .33898927 .33711244 .33999635 .32211305 .34098817 .3171234 .3619995 .3171234 .38598634 .3171234 .38598634 .32211305 .38598634 .3451233V.42510987C.38598634 .4441223 .38598634 .453125 .36799623 .453125 .3639984 .453125 .3619995 .453125 .32299806 .43411256 .29699708 .44711305 .2619934 .453125 .22200012 .453125 .19198609 .453125 .037994386 .453125 .037994386 .32211305 .037994386 .28211976 .057998659 .25512696 .07798767 .23812866 .117996219 .203125 .1559906 .1971283 .23298645 .18312073 .2689972 .17712403 .34399415 .16412354 .34399415 .10513306 .34399415 .030136109 .2519989 .030136109 .22999573 .030136109 .12399292 .030136109 .09799194 .103134158 .085998538 .14613343 .08099365 .16012573 .07598877 .16012573 .06199646 .16012573 .037994386 .16012573 .037994386 .15412903 .037994386 .13113404V.022140503C.037994386 .0031280518 .037994386-.005859375 .055999757-.005859375 .06298828-.005859375 .06498718-.005859375 .085998538 .009140015 .08699036 .009140015 .10899353 .024139405 .11199951 .026138306 .1579895-.005859375 .20999146-.005859375 .22999573-.005859375 .26098634-.005859375 .4149933-.005859375 .4149933 .14012146 .4149933 .18312073 .394989 .21812439 .3600006 .24612427 .32099916 .27511598 .2889862 .28112794 .21099854 .29412843Z"/>
<path id="font_8_14" d="M.22399903 .4501953 .049987794 .44218446V.39518739C.10899353 .39518739 .115997318 .39518739 .115997318 .35617066V.04699707H.04699707V0C.07798767 .0009918213 .1269989 .0029907227 .16899109 .0029907227 .19898987 .0029907227 .25 .0009918213 .28599549 0V.04699707H.22399903V.4501953M.23399353 .6173096C.23399353 .66130068 .19799805 .6953125 .1559906 .6953125 .11299133 .6953125 .07798767 .66030886 .07798767 .6173096 .07798767 .5743103 .11299133 .53930667 .1559906 .53930667 .19799805 .53930667 .23399353 .5733032 .23399353 .6173096Z"/>
<path id="font_8_15" d="M.11399841 .3561554V.04699707H.04499817V0C.07299805 .0009918213 .1329956 .0029907227 .17098999 .0029907227 .20999146 .0029907227 .2689972 .0009918213 .29699708 0V.04699707H.22799683V.25610353C.22799683 .36515809 .31399537 .41418458 .3769989 .41418458 .41099549 .41418458 .43199159 .39317323 .43199159 .31713868V.04699707H.36299134V0C.3909912 .0009918213 .45098878 .0029907227 .4889984 .0029907227 .5279999 .0029907227 .58699038 .0009918213 .61499026 0V.04699707H.54599V.30613709C.54599 .41119386 .49198915 .4501953 .3919983 .4501953 .29599 .4501953 .24299622 .39317323 .21699524 .34214784V.4501953L.04499817 .44218446V.39518739C.10699463 .39518739 .11399841 .39518739 .11399841 .3561554Z"/>
<path id="font_7_4" d="M.2809906 .6593323C.2849884 .6733246 .2849884 .6753235 .2849884 .67633059 .2849884 .68933108 .27398683 .69433596 .2630005 .69433596 .25898744 .69433596 .2579956 .69433596 .2559967 .69332888L.1269989 .68733218C.11299133 .6863251 .09498596 .68533328 .09498596 .6573334 .09498596 .639328 .11399841 .639328 .12098694 .639328 .13198853 .639328 .1499939 .639328 .16299439 .6373291 .15499878 .60328677 .14498902 .5602417 .1349945 .5222168L.06599426 .24615479C.051986696 .19017029 .051986696 .17816162 .051986696 .15516663 .051986696 .027175904 .14698792-.0078125 .22200012-.0078125 .40299989-.0078125 .5059967 .15516663 .5059967 .28715516 .5059967 .410141 .4139862 .45214845 .33099366 .45214845 .2829895 .45214845 .24299622 .433136 .22200012 .4201355L.2809906 .6593323M.22399903 .028182984C.18499756 .028182984 .1519928 .049179079 .1519928 .11117554 .1519928 .14317322 .1619873 .18016052 .16899109 .21116638 .1789856 .24916077 .19599915 .31814576 .20298767 .34814454 .20799256 .36514283 .2649994 .4161377 .32598878 .4161377 .3880005 .4161377 .3929901 .3621521 .3929901 .34014894 .3929901 .28814698 .35899354 .16516114 .34298707 .12617493 .30899049 .045181276 .25299073 .028182984 .22399903 .028182984Z"/>
<path id="font_8_1" d="M.3789978-.22503662C.34999085-.19802857 .2849884-.13702393 .24299622-.009033203 .21699524 .06997681 .20498657 .16197205 .20498657 .24996948 .20498657 .4469757 .2559967 .60398867 .3659973 .7149811 .3809967 .7299957 .38198854 .73098757 .38198854 .73599246 .38198854 .746994 .37199403 .75 .3639984 .75 .34700013 .75 .30499269 .7129822 .2869873 .6959839 .1309967 .5409851 .10798645 .35697938 .10798645 .25097657 .10798645 .12597656 .14099121 .015975953 .18798828-.06703186 .2539978-.18203736 .34498597-.24902344 .3639984-.24902344 .37199403-.24902344 .38198854-.24603272 .38198854-.23503113 .38198854-.23002625 .3789978-.22602844 .3789978-.22503662Z"/>
<path id="font_7_7" d="M.5359955 .4011383C.5 .3911438 .48199464 .35714723 .48199464 .33215333 .48199464 .31015016 .49899293 .28614808 .5319977 .28614808 .5669861 .28614808 .60398867 .31515504 .60398867 .364151 .60398867 .41714479 .5509949 .45214845 .48999024 .45214845 .43299867 .45214845 .3959961 .4091339 .3829956 .3911438 .35798646 .433136 .3019867 .45214845 .24499512 .45214845 .11898804 .45214845 .050994874 .32914735 .050994874 .29615785 .050994874 .28215028 .06599426 .28215028 .07499695 .28215028 .08699036 .28215028 .09399414 .28215028 .09799194 .29515077 .1269989 .38613893 .19898987 .4161377 .23999024 .4161377 .27799989 .4161377 .29599 .39814759 .29599 .3661499 .29599 .3471527 .28199769 .29216004 .272995 .2561493L.23899842 .11917114C.22399903 .058181764 .18798828 .028182984 .1539917 .028182984 .14898682 .028182984 .12599182 .028182984 .10598755 .043182374 .14199829 .05317688 .1599884 .08717346 .1599884 .11216736 .1599884 .13417053 .14299011 .1581726 .10998535 .1581726 .07499695 .1581726 .037994386 .12916565 .037994386 .08016968 .037994386 .027175904 .09098816-.0078125 .1519928-.0078125 .20899964-.0078125 .24598694 .035186769 .25898744 .05317688 .28399659 .011184692 .33999635-.0078125 .39698792-.0078125 .522995-.0078125 .59098818 .11517334 .59098818 .14816284 .59098818 .16217041 .57598879 .16217041 .5669861 .16217041 .5549927 .16217041 .5479889 .16217041 .5439911 .14916992 .5149994 .058181764 .44299317 .028182984 .4019928 .028182984 .3639984 .028182984 .34599305 .046173097 .34599305 .07817078 .34599305 .09916687 .35899354 .15216065 .36799623 .18916321 .375 .21516419 .397995 .30915834 .40299989 .32514955 .41799928 .3851471 .45298768 .4161377 .48799134 .4161377 .49299623 .4161377 .5159912 .4161377 .5359955 .4011383Z"/>
<path id="font_9_1" d="M.7519989 .22024536C.7669983 .22024536 .7969971 .22024536 .7969971 .25024415 .7969971 .28125 .7679901 .28125 .7519989 .28125H.14099121C.12599182 .28125 .09599304 .28125 .09599304 .25123597 .09599304 .22024536 .125 .22024536 .14099121 .22024536H.7519989Z"/>
<path id="font_7_5" d="M.31599427 .6593323C.31999208 .6733246 .31999208 .6753235 .31999208 .67633059 .31999208 .68933108 .30899049 .69433596 .2979889 .69433596 .2939911 .69433596 .29299928 .69433596 .29100038 .69332888L.1619873 .68733218C.147995 .6863251 .12998963 .68533328 .12998963 .6573334 .12998963 .639328 .147995 .639328 .1559906 .639328 .16699219 .639328 .18499756 .639328 .19799805 .6373291L.053985597 .060180665C.052993776 .05618286 .049987794 .04118347 .049987794 .03718567 .049987794 .013183594 .068984989-.0078125 .09799194-.0078125 .10398865-.0078125 .14898682-.0078125 .16299439 .048171998L.22299195 .28515626C.22799683 .30415345 .22799683 .30615235 .24299622 .32615663 .25898744 .34814454 .30899049 .4161377 .3919983 .4161377 .41799928 .4161377 .44198609 .4061432 .44198609 .35714723 .44198609 .29914857 .397995 .18215943 .3789978 .13316345 .36799623 .106170658 .36499024 .09916687 .36499024 .08216858 .36499024 .02418518 .4229889-.0078125 .47799684-.0078125 .58399966-.0078125 .6339874 .12817383 .6339874 .14816284 .6339874 .16217041 .61898806 .16217041 .6100006 .16217041 .59799197 .16217041 .59098818 .16217041 .58699038 .14916992 .5549927 .03817749 .5 .028182984 .48399354 .028182984 .47698976 .028182984 .46699525 .028182984 .46699525 .049179079 .46699525 .07118225 .47799684 .09817505 .48399354 .11416626 .5029907 .16316223 .548996 .28015138 .548996 .33615113 .548996 .42814637 .47200013 .45214845 .3999939 .45214845 .37799073 .45214845 .31698609 .45214845 .24899292 .39013673L.31599427 .6593323Z"/>
<path id="font_8_2" d="M.33799745 .24996948C.33799745 .37498475 .30499269 .48498536 .2579956 .5679779 .19198609 .6829834 .100997928 .75 .08198547 .75 .07398987 .75 .06399536 .746994 .06399536 .73599246 .06399536 .73098757 .06399536 .72898867 .08099365 .7129822 .20698548 .5849762 .24099732 .40797425 .24099732 .25097657 .24099732 .053970338 .18998719-.103027347 .07998657-.21403504 .06498718-.22903443 .06399536-.23002625 .06399536-.23503113 .06399536-.24603272 .07398987-.24902344 .08198547-.24902344 .09899902-.24902344 .14099121-.21203614 .15899658-.19503784 .31498719-.040023805 .33799745 .14398194 .33799745 .24996948Z"/>
<path id="font_8_3" d="M.47698976 .22024536H.7859955C.798996 .22024536 .82899478 .22024536 .82899478 .25024415 .82899478 .28125 .7999878 .28125 .7859955 .28125H.47698976V.5908356C.47698976 .6028137 .47698976 .6328125 .44699098 .6328125 .41600038 .6328125 .41600038 .6038208 .41600038 .5908356V.28125H.10699463C.09298706 .28125 .06399536 .28125 .06399536 .25024415 .06399536 .22024536 .09399414 .22024536 .10699463 .22024536H.41600038V-.08984375C.41600038-.10183716 .41600038-.13183594 .44599916-.13183594 .47698976-.13183594 .47698976-.10284424 .47698976-.08984375V.22024536Z"/>
<path id="font_7_6" d="M.31599427 .6593323C.31999208 .6733246 .31999208 .6753235 .31999208 .67633059 .31999208 .68933108 .30899049 .69433596 .2979889 .69433596 .2939911 .69433596 .29299928 .69433596 .29100038 .69332888L.1619873 .68733218C.147995 .6863251 .12998963 .68533328 .12998963 .6573334 .12998963 .639328 .14898682 .639328 .1559906 .639328 .16699219 .639328 .18499756 .639328 .19799805 .6373291L.053985597 .060180665C.052993776 .05618286 .049987794 .04118347 .049987794 .03718567 .049987794 .013183594 .068984989-.0078125 .09799194-.0078125 .115997318-.0078125 .14498902 .0011749268 .15899658 .032180787 .1619873 .04118347 .17599488 .09916687 .20498657 .21516419 .22399903 .21316529 .31098939 .20115662 .31098939 .14016724 .31098939 .13316345 .31098939 .13017273 .30799867 .11917114 .30499269 .106170658 .30499269 .10517883 .30499269 .09516907 .30499269 .030181885 .36698915-.0078125 .43299867-.0078125 .5329895-.0078125 .56999209 .14016724 .56999209 .14816284 .56999209 .16217041 .5549927 .16217041 .54599 .16217041 .5279999 .16217041 .526001 .16017151 .5209961 .14216614 .5130005 .11317444 .4889984 .028182984 .43798829 .028182984 .42199708 .028182984 .4119873 .03718567 .4119873 .06716919 .4119873 .077178958 .4139862 .09617615 .41999818 .11917114 .4229889 .13017273 .4229889 .13716126 .4229889 .14416504 .4229889 .2291565 .32199098 .24516297 .25 .2521515 .2599945 .25915528 .28399659 .27516175 .33898927 .32815553 .41600038 .4041443 .45799256 .4161377 .48799134 .4161377 .5069885 .4161377 .5139923 .4051361 .5139923 .4041443 .46398927 .3971405 .44499208 .35714723 .44499208 .33215333 .44499208 .31015016 .46199037 .28614808 .49499513 .28614808 .5139923 .28614808 .5669861 .29914857 .5669861 .3701477 .5669861 .4221344 .5339966 .45214845 .4909973 .45214845 .42999269 .45214845 .375 .4081421 .31599427 .3511505 .30599977 .34014894 .2579956 .29415895 .21998596 .27314759L.31599427 .6593323Z"/>
<path id="font_10_84" d="M.59999087 .22319031C.59999087 .3561859 .5089874 .4501953 .36499024 .4501953 .2899933 .4501953 .23699951 .41918946 .21398926 .40118409V.4501953L.036987306 .4423828V.39537049C.09899902 .39537049 .10598755 .39537049 .10598755 .3573761V-.14648438H.036987306V-.1934967L.16299439-.19049073 .2889862-.1934967V-.14648438H.21998596V.03945923C.2630005 .004135132 .30699159-.005859375 .34799195-.005859375 .49798585-.005859375 .59999087 .08413696 .59999087 .22312927V.22319031M.47200013 .22312927C.47200013 .08213806 .4019928 .030136109 .33699037 .030136109 .32299806 .030136109 .27598573 .030136109 .23098755 .08413696 .21998596 .09713745 .21998596 .09812927 .21998596 .117126468V.32913209C.21998596 .34814454 .22099304 .3491516 .23498535 .36314393 .2749939 .4041443 .32699586 .41015626 .34899903 .41015626 .41600038 .41015626 .47200013 .3491516 .47200013 .22314453V.22312927Z"/>
<path id="font_10_50" d="M.49398805 .11706543C.49398805 .13504029 .47499085 .13504029 .46998597 .13504029 .45298768 .13504029 .45098878 .13005066 .44499208 .11405945 .42399598 .066101077 .36698915 .03413391 .3019867 .03413391 .16099549 .03413391 .1599884 .16700745 .1599884 .2179718H.46199037C.48399354 .2179718 .49398805 .2179718 .49398805 .2449646 .49398805 .27598573 .48799134 .34906007 .43798829 .3991089 .40098573 .43511964 .34799195 .453125 .2789917 .453125 .11898804 .453125 .03199768 .35005189 .03199768 .22497559 .03199768 .09107971 .13198853-.005859375 .29299928-.005859375 .45098878-.005859375 .49398805 .10006714 .49398805 .11706543M.39898683 .25097657H.1599884C.1619873 .29000855 .16299439 .3320465 .18399048 .36506654 .20999146 .4051056 .25 .41711427 .2789917 .41711427 .3959961 .41711427 .397995 .28599549 .39898683 .25097657Z"/>
<path id="font_10_96" d="M.44198609 .36819459C.44198609 .42118836 .3880005 .4501953 .33599855 .4501953 .2659912 .4501953 .22599793 .40019227 .20298767 .33718873V.4501953L.036987306 .4423828V.39537049C.09899902 .39537049 .10598755 .39537049 .10598755 .3563385V.04699707H.036987306V0L.16299439 .0029907227C.20098877 .0029907227 .2649994 .0029907227 .30099488 0V.04699707H.21398926V.22218323C.21398926 .29226686 .23899842 .41436769 .33898927 .41436769 .33898927 .41436769 .31999208 .39736939 .31999208 .36834718 .31999208 .32730104 .35198976 .3072815 .3809967 .3072815 .4099884 .3072815 .44198609 .3283081 .44198609 .36834718V.36819459Z"/>
<path id="font_10_66" d="M.28599549 0V.04699707H.22399903V.4501953L.049987794 .4423828V.39537049C.10899353 .39537049 .115997318 .39537049 .115997318 .3563385V.04699707H.04699707V0L.16899109 .0029907227 .28599549 0M.23799134 .60728457C.23799134 .6502838 .20298767 .6852875 .1599884 .6852875 .116989139 .6852875 .08198547 .6502838 .08198547 .60728457 .08198547 .5642853 .116989139 .5292969 .1599884 .5292969 .20298767 .5292969 .23799134 .5642853 .23799134 .60728457Z"/>
<path id="font_10_81" d="M.5419922 .21812439C.5419922 .35212709 .44999696 .453125 .2869873 .453125 .12298584 .453125 .03199768 .35112 .03199768 .21812439 .03199768 .09413147 .11999512-.005859375 .2869873-.005859375 .45498658-.005859375 .5419922 .09512329 .5419922 .21812439M.4139862 .22912598C.4139862 .14213562 .4139862 .03413391 .2869873 .03413391 .1599884 .03413391 .1599884 .14213562 .1599884 .22912598 .1599884 .27412416 .1599884 .32511903 .1769867 .3591156 .19599915 .39611817 .23799134 .41711427 .2869873 .41711427 .32899476 .41711427 .37098695 .40112306 .3929901 .36611939 .4139862 .3321228 .4139862 .27713014 .4139862 .22912598Z"/>
<path id="font_10_47" d="M.6009979 0V.04699707C.5389862 .04699707 .5319977 .04699707 .5319977 .086013797V.69433596L.35499574 .6855469V.63853457C.4169922 .63853457 .42399598 .63853457 .42399598 .5996704V.40518189C.37399293 .44418336 .32199098 .4501953 .2889862 .4501953 .14299011 .4501953 .037994386 .36218263 .037994386 .22116089 .037994386 .089141849 .12998963-.005859375 .27799989-.005859375 .33898927-.005859375 .3869934 .018127442 .41799928 .043136598V-.005859375L.6009979 0M.41799928 .102996829C.40499879 .08514404 .3639984 .030136109 .28799439 .030136109 .1659851 .030136109 .1659851 .15115357 .1659851 .22116089 .1659851 .26916505 .1659851 .3231659 .19198609 .36218263 .22099304 .40419007 .2679901 .41418458 .29899598 .41418458 .35598756 .41418458 .3959961 .3821869 .41799928 .35317994V.102996829Z"/>
<path id="font_8_6" d="M.5169983 .22209168H.46998597C.46699525 .20207215 .45799256 .13800049 .44400025 .1309967 .43299867 .125 .35798646 .125 .34199525 .125H.19499207C.24198914 .16403198 .2939911 .20707703 .33898927 .2401123 .45298768 .3242035 .5169983 .37124635 .5169983 .4663086 .5169983 .5812988 .41299439 .65527346 .27198792 .65527346 .15098572 .65527346 .056991579 .593277 .056991579 .50331118 .056991579 .44430543 .10499573 .42930604 .1289978 .42930604 .16099549 .42930604 .20098877 .4513092 .20098877 .50131228 .20098877 .55329897 .15899658 .5693054 .14399719 .5733032 .17298889 .5972748 .21099854 .6082611 .24699402 .6082611 .33299256 .6082611 .3789978 .54029849 .3789978 .4653015 .3789978 .39627076 .34098817 .3282013 .2709961 .25712586L.069992069 .051986696C.056991579 .039993287 .056991579 .037994386 .056991579 .017990113V0H.48599244L.5169983 .22209168Z"/>
<path id="font_7_1" d="M.31199647 .34832765H.42399598C.4019928 .2552948 .3909912 .1942749 .3909912 .1352539 .3909912 .067230228 .40899659-.0087890629 .45700074-.0087890629 .48999024-.0087890629 .526001 .02420044 .526001 .05621338 .526001 .068222049 .522995 .07423401 .5139923 .0892334 .46798707 .17025757 .46798707 .24728394 .46798707 .27430726 .46798707 .29830934 .46798707 .3083191 .47399903 .34832765H.59799197C.61698916 .34832765 .6329956 .34832765 .647995 .36332704 .6549988 .3703308 .66799929 .38232423 .66799929 .40533448 .66799929 .44433595 .6329956 .44433595 .61499026 .44433595H.22200012C.20098877 .44433595 .1579895 .44433595 .10499573 .3963318 .069992069 .3643341 .0309906 .31330873 .0309906 .3033142 .0309906 .28930665 .042999269 .28930665 .053985597 .28930665 .068984989 .28930665 .069992069 .29031373 .07899475 .3013153 .116989139 .34832765 .18299866 .34832765 .20199585 .34832765H.2619934C.23699951 .26930238 .19699097 .18727112 .14299011 .08622742 .1269989 .05621338 .12399292 .051223756 .12399292 .037216188 .12399292 .01020813 .1459961-.007797241 .17199707-.007797241 .19299317-.007797241 .20799256 .0032043458 .21499634 .00920105 .22999573 .02420044 .23098755 .028213501 .23599243 .049209596L.31199647 .34832765Z"/>
<path id="font_11_28" d="M.71598818 .034179689C.71598818 .06712341 .69898989 .06712341 .6779938 .06712341H.6719971C.6589966 .06712341 .621994 .06712341 .6009979 .07710266V.28977967C.6009979 .36997987 .5379944 .4560547 .32499696 .4560547 .2539978 .4560547 .10598755 .4560547 .10598755 .34791566 .10598755 .2998047 .14099121 .27172853 .18099976 .27172853 .22499085 .27172853 .2559967 .30381776 .2559967 .34692384 .2559967 .36395265 .25099183 .38000489 .24198914 .3920288 .2789917 .40003968 .30899049 .40003968 .32598878 .40003968 .41600038 .40003968 .46798707 .3659668 .46798707 .28677369V.2677307C.45498658 .26672364 .35198976 .26872254 .25299073 .25071717 .13398743 .22871399 .057998659 .19378662 .057998659 .11997986 .057998659-.0078125 .25099183-.0078125 .2899933-.0078125 .3880005-.0078125 .46099855 .015182495 .49198915 .060150148 .5 .00018310547 .56999209 .00018310547 .644989 .00018310547 .70899966 .00018310547 .71598818 .00018310547 .71598818 .034179689M.46798707 .13294983C.46798707 .10902405 .46798707 .08308411 .4169922 .06413269 .37599183 .048187257 .32299806 .048187257 .31698609 .048187257 .24598694 .048187257 .19099427 .07510376 .19099427 .12098694 .19099427 .20974732 .41999818 .21772766 .46798707 .21972656V.13294983Z"/>
<path id="font_11_75" d="M1.1799927 0V.066986087H1.1080017V.29508973C1.1080017 .44114686 .98999026 .45214845 .91400149 .45214845 .84999087 .45214845 .7630005 .43914796 .69699099 .3571167 .6689911 .42913819 .6100006 .45214845 .5109863 .45214845 .37199403 .45214845 .30799867 .38012696 .2849884 .3451233V.45214845L.09700012 .44433595V.3773346C.16099549 .3773346 .16899109 .3773346 .16899109 .33828736V.066986087H.09700012V0L.23599243 .0039978029C.272995 .0039978029 .32998658 .0029907227 .37399293 0V.066986087H.3019867V.2421875C.3019867 .36412049 .4269867 .39613343 .4869995 .39613343 .5509949 .39613343 .57199099 .37213136 .57199099 .29708863V.066986087H.5V0L.6389923 .0039978029C.6759949 .0039978029 .73298647 .0029907227 .7769928 0V.066986087H.7049866V.24206543C.7049866 .36412049 .8299866 .39613343 .8899994 .39613343 .95399478 .39613343 .97499087 .37213136 .97499087 .29708863V.066986087H.9029999V0L1.0419922 .0039978029C1.0789948 .0039978029 1.1360016 .0029907227 1.1799927 0Z"/>
<path id="font_11_84" d="M.7739868 .22314453C.7739868 .33114625 .69299319 .45214845 .48399354 .45214845 .44499208 .45214845 .36099244 .44914247 .2809906 .4081421V.45214845L.083999637 .44433595V.3773346H.100997928C.1559906 .3773346 .1559906 .37132264 .1559906 .3433075V-.12695313H.083999637V-.19395447L.22200012-.18995667 .36099244-.19395447V-.12695313H.2889862V.03718567C.31698609 .020187378 .375-.0078125 .45999146-.0078125 .6689911-.0078125 .7739868 .10119629 .7739868 .22325135V.22314453M.6239929 .22225952C.6239929 .112213138 .5499878 .048187257 .44499208 .048187257 .397995 .048187257 .33799745 .063186649 .2889862 .1282196V.32730104C.33999635 .3801422 .41799928 .39013673 .45799256 .39013673 .56799319 .39013673 .6239929 .31814576 .6239929 .22213745V.22225952Z"/>
<path id="font_11_72" d="M.36999513 0V.066986087H.2979889V.69433596L.100997928 .6855469V.61854556C.16499329 .61854556 .17298889 .61854556 .17298889 .5795746V.066986087H.100997928V0C.1459961 .0029907227 .18998719 .0039978029 .23498535 .0039978029 .23899842 .0039978029 .31698609 .0039978029 .36999513 0Z"/>
<path id="font_11_66" d="M.36299134 0V.066986087H.2979889V.45214845L.10398865 .44433595V.3773346C.1659851 .3773346 .17298889 .3773346 .17298889 .33828736V.066986087H.100997928V0C.14498902 .0029907227 .18998719 .0039978029 .23399353 .0039978029 .2769928 .0039978029 .31999208 .0029907227 .36299134 0M.3039856 .60250857C.3039856 .6505127 .2639923 .68652346 .21798706 .68652346 .16999817 .68652346 .13198853 .6485138 .13198853 .6035156 .13198853 .5555115 .17199707 .519516 .21798706 .519516 .2659912 .519516 .3039856 .5575104 .3039856 .60250857Z"/>
<path id="font_11_105" d="M.49899293 .1191864V.1671753H.41600038V.123184207C.41600038 .093185428 .4059906 .05418396 .34799195 .05418396 .2849884 .054092409 .2849884 .09408569 .2849884 .12109375V.3773346H.47499085V.44433595H.2849884V.6357422H.20199585C.19999695 .53352358 .1459961 .43632508 .04399109 .43333436V.3773346H.1519928V.11820984C.1519928 .0051727297 .26098634-.0078125 .32598878-.0078125 .39898683-.0078125 .49899293 .018173218 .49899293 .11921692V.1191864Z"/>
<path id="font_11_109" d="M.776001 .00018310547V.06718445C.71199038 .06718445 .70399478 .06718445 .70399478 .106170658V.45214845L.49899293 .44433595V.3773346C.5629883 .3773346 .57099917 .3773346 .57099917 .3383026V.15823365C.57099917 .06518555 .47399903 .048187257 .4059906 .048187257 .3019867 .048187257 .3019867 .06819153 .3019867 .112213138V.45214845L.09700012 .44433595V.3773346C.16099549 .3773346 .16899109 .3773346 .16899109 .3383026V.11820984C.16899109 .0021820069 .2899933-.0078125 .3849945-.0078125 .4189911-.0078125 .5139923-.0078125 .57899478 .05718994V-.0078125L.776001 .00018310547Z"/>
<path id="font_11_47" d="M.7549896 .00018310547V.06718445C.69099429 .06718445 .68299868 .06718445 .68299868 .10618591V.69433596L.48599244 .6855469V.61854556C.5499878 .61854556 .55799868 .61854556 .55799868 .5796814V.41114808C.5179901 .43214417 .45700074 .45214845 .37799073 .45214845 .1639862 .45214845 .06498718 .34014894 .06498718 .22116089 .06498718 .11216736 .1519928-.0078125 .3639984-.0078125 .44099427-.0078125 .5039978 .013183594 .5499878 .04118347V-.0078125L.7549896 .00018310547M.5499878 .13198853C.5 .06817627 .43499757 .048187257 .37799073 .048187257 .21499634 .048187257 .21499634 .16716004 .21499634 .22015381 .21499634 .27415467 .21499634 .39613343 .3929901 .39613343 .43699647 .39613343 .4869995 .3851471 .5289917 .3511505 .5499878 .33415223 .5499878 .33314515 .5499878 .31315614V.13198853Z"/>
<path id="font_11_50" d="M.6349945 .11022949C.6349945 .1352539 .61099246 .1352539 .5970001 .1352539H.58999636C.57099917 .1352539 .5629883 .1352539 .55400088 .12124634 .5439911 .10221863 .5159912 .05418396 .4099884 .05418396 .2829895 .05418396 .21699524 .10322571 .20799256 .19726563H.5970001C.61698916 .19726563 .6349945 .19726563 .6349945 .22921753 .6349945 .2871704 .61299136 .35508729 .57099917 .39305116 .5249939 .43304444 .46499635 .4560547 .3659973 .4560547 .14199829 .4560547 .056991579 .33311463 .056991579 .2262268 .056991579 .12023926 .14199829-.0078125 .3869934-.0078125 .4119873-.0078125 .48098756-.0078125 .54100039 .016174317 .60899356 .04335022 .6349945 .096343997 .6349945 .11035156V.11022949M.5339966 .24804688H.20799256C.20899964 .28404237 .21099854 .40003968 .36698915 .40003968 .5029907 .40003968 .5289917 .31504823 .5339966 .24804688Z"/>
<path id="font_12_1" d="M.4850006 .14419556C.47999574 .12619019 .47999574 .124191287 .46299745 .10620117 .44299317 .08520508 .3899994 .04623413 .31999208 .04623413 .2709961 .04623413 .22399903 .06222534 .22399903 .13020325 .22399903 .15917969 .24398804 .26715089 .2769928 .3221283 .30599977 .3691101 .35899354 .39808656 .41799928 .39808656 .5130005 .39808656 .5299988 .33111573 .5299988 .32511903 .5299988 .32312013 .5279999 .3121338 .5269928 .3101349L.4850006 .14419556M.56199648 .41108705C.5209961 .44309999 .46998597 .45410157 .4189911 .45410157 .20298767 .45410157 .08799744 .30014039 .08799744 .1711731 .08799744 .052230836 .18199158-.009765625 .31399537-.009765625 .39698792-.009765625 .45700074 .019226075 .49198915 .04222107 .5299988-.0067749025 .6119995-.009765625 .6329956-.009765625 .7480011-.009765625 .7939911 .13018799 .7939911 .1481781 .7939911 .17016602 .7739868 .17016602 .7519989 .17016602 .71798709 .17016602 .71499636 .17016602 .70700076 .14117432 .70199587 .12019348 .68099978 .04623413 .6399994 .04623413 .6239929 .04623413 .6029968 .056228639 .6029968 .08821106 .6029968 .10719299 .6469879 .2741089 .6549988 .30708314 .6619873 .33207704 .6719971 .37104798 .6719971 .38204957 .6719971 .41903688 .6429901 .43502809 .61698916 .43502809 .58599856 .43502809 .5649872 .41403199 .56199648 .411026V.41108705Z"/>
</defs>
<path transform="matrix(1,0,0,-1,186.349,81.04001)" stroke-width=".79701" stroke-linecap="butt" stroke-dasharray="1.99255,1.99255" stroke-miterlimit="10" stroke-linejoin="miter" fill="none" stroke="#000000" d="M-137.72719 0H262.45384"/>
<path transform="matrix(-1,-0,0,1,48.62181,81.04001)" d="M2.59026 0-1.55415 2.0722 0 0-1.55415-2.0722"/>
<path transform="matrix(1,0,0,-1,448.80284,81.04001)" d="M2.59026 0-1.55415 2.0722 0 0-1.55415-2.0722"/>
<use data-text="y" xlink:href="#font_1_4" transform="matrix(8.9664,0,0,-8.9664,11.896004,78.64701)"/>
<use data-text="=" xlink:href="#font_2_13" transform="matrix(8.9664,0,0,-8.9664,20.245003,78.64701)"/>
<use data-text="k" xlink:href="#font_1_2" transform="matrix(8.9664,0,0,-8.9664,31.057007,78.64701)"/>
<use data-text="m" xlink:href="#font_3_75" transform="matrix(8.9664,0,0,-8.9664,7.1620028,89.60601)"/>
<use data-text="i" xlink:href="#font_3_66" transform="matrix(8.9664,0,0,-8.9664,16.002877,89.60601)"/>
<use data-text="d" xlink:href="#font_3_47" transform="matrix(8.9664,0,0,-8.9664,18.95282,89.60601)"/>
<use data-text="l" xlink:href="#font_3_72" transform="matrix(8.9664,0,0,-8.9664,24.84375,89.60601)"/>
<use data-text="i" xlink:href="#font_3_66" transform="matrix(8.9664,0,0,-8.9664,27.793702,89.60601)"/>
<use data-text="n" xlink:href="#font_3_77" transform="matrix(8.9664,0,0,-8.9664,30.743653,89.60601)"/>
<use data-text="e" xlink:href="#font_3_50" transform="matrix(8.9664,0,0,-8.9664,36.634584,89.60601)"/>
<path transform="matrix(1,0,0,-1,186.349,81.04001)" stroke-width="1.59404" stroke-linecap="butt" stroke-miterlimit="10" stroke-linejoin="miter" fill="none" stroke="#000000" d="M-76.16939 32.7394-76.78987 33.90015-75.6256 31.6064-74.46132 29.20538-73.29706 26.70142-72.1328 24.10748-70.96852 21.43051-69.80426 18.67827-68.63998 15.86374-67.47571 12.9943-66.31145 10.07985-65.14719 7.12994-63.98291 4.15666-62.81863 1.16913-61.65437-1.82182-60.4901-4.80765-59.32584-7.77615-58.16156-10.71913-56.99728-13.62494-55.83302-16.48444-54.66875-19.28555-53.5045-22.02092-52.34023-24.6819-51.17595-27.2568-50.01167-29.7374-48.8474-32.11723-47.68315-34.38545-46.51888-36.5356-45.35461-38.5616-44.19034-40.45354-43.02606-42.20618-41.86179-43.81392-40.69753-45.27113-39.53326-46.57307-38.36899-47.71368-37.20473-48.69165-36.04045-49.50267-34.87619-50.14108-33.71191-50.60823-32.54764-50.90192-31.38336-51.01956-30.2191-50.96161-29.05486-50.72977-27.89058-50.32188-26.7263-49.74185-25.56203-48.99054-24.39775-48.07095-23.23347-46.98701-22.06923-45.73914-20.90497-44.33556-19.74069-42.7806-18.57642-41.07639-17.41214-39.23117-16.24788-37.25275-15.0836-35.14369-13.91934-32.91525-12.75508-30.5735-11.5908-28.1262-10.42654-25.58374-9.26227-22.95131-8.09799-20.24016-6.93372-17.46068-5.76944-14.61977-4.60521-11.72913-3.44093-8.7978-2.27666-5.83752-1.11238-2.85646 .05185 .13277 1.21611 3.12248 2.38039 6.10223 3.54463 9.06165 4.70891 11.9882 5.87318 14.87495 7.03745 17.7107 8.20172 20.48456 9.366 23.18964 10.53027 25.81342 11.69452 28.3481 12.85878 30.7876 14.02306 33.11855 15.18733 35.33661 16.35161 37.43356 17.51588 39.40074 18.68016 41.23427 19.8444 42.92375 21.00867 44.46706 22.17294 45.8581 23.33722 47.0891 24.5015 48.15964 25.66576 49.06537 26.83003 49.80025 27.9943 50.36557 29.15855 50.75703 30.32283 50.9733 31.48709 51.01698 32.65137 50.88159 33.81564 50.57233 34.97992 50.09135 36.14418 49.43648 37.30844 48.6112 38.4727 47.62025 39.63698 46.46234 40.80125 45.1483 41.96553 43.67767 43.12979 42.0548 44.29405 40.29091 45.45833 38.38643 46.62259 36.34874 47.78687 34.18822 48.95114 31.90875 50.1154 29.5207 51.27966 27.03188 52.44394 24.44704 53.60822 21.78087 54.77248 19.03902 55.93675 16.23053 57.10101 13.36714 58.26529 10.45918 59.42955 7.51317 60.59383 4.54207 61.7581 1.5554 62.92235-1.43558 64.08662-4.42268 65.2509-7.39465 66.41518-10.34067 67.57944-13.25165 68.7437-16.11765 69.90797-18.92699 71.07225-21.67188 72.23651-24.34193 73.40079-26.9298 74.56506-29.42252 75.72931-31.81532 76.89359-34.09955 78.05786-36.2657 79.22214-38.30554 80.3864-40.21693 81.55066-41.9873 82.71494-43.61452 83.8792-45.09207 85.04347-46.41261 86.20775-47.57657 87.37201-48.57487 88.53627-49.40535 89.70055-50.06798 90.86482-50.55762 92.02908-50.87207 93.19336-51.01567 94.35762-50.97804 95.5219-50.7687 96.68617-50.38547 97.85043-49.82578 99.01471-49.09781 100.17896-48.20029 101.34323-47.13495 102.5075-45.91043 103.67178-44.52545 104.83606-42.98863 106.0003-41.30519 107.16458-39.47643 108.32884-37.51443 109.49312-35.42398 110.6574-33.20982 111.82167-30.8819 112.98593-28.448 114.15019-25.9168 115.31447-23.29605 116.47873-20.59528 117.643-17.82272 118.80727-14.99045 119.97154-12.105 121.13582-9.1793 122.3001-6.22205 123.46436-3.24272 124.6286-.25215 125.79288 2.73795 126.95715 5.71857 128.12143 8.68102 129.2857 11.61276 130.44998 14.50601 131.61423 17.34866 132.77849 20.13116 133.94277 22.84448 135.10704 25.47993 136.27132 28.0267 137.43558 30.47835 138.59986 32.82486 139.76412 35.05719 140.92838 37.17014 142.09265 39.15549 143.25691 41.0046 144.42119 42.7144 145.58547 44.27716 146.74974 45.68637 147.91402 46.9403 149.07825 48.03116 150.24253 48.95679 151.4068 49.71677 152.57108 50.30243 153.73535 50.71635 154.89963 50.95642 156.06389 51.02 157.22814 50.90884 158.39241 50.6238 159.55669 50.16228 160.72097 49.53078 161.88523 48.72668 163.0495 47.75565 164.21378 46.62195 165.37802 45.32564 166.5423 43.87448 167.70656 42.27365 168.87084 40.52489 170.03511 38.63947 171.19939 36.61995 172.36367 34.47327 173.5279 32.20935 174.69217 29.83516 175.85645 27.35715 177.02072 24.78615 178.185 22.12819 179.34928 19.39629 180.51354 16.59734 181.6778 13.73912 182.84206 10.83594 184.00634 7.89467 185.17061 4.92572 186.33487 1.93991 187.49915-1.04933 188.66342-4.03816 189.82769-7.01228 190.99195-9.96306 192.1562-12.87794 193.32048-15.75085 194.48476-18.56885 195.64904-21.32152 196.81331-24.00238 197.97757-26.6002 199.14182-29.10677 200.30609-31.51299 201.47037-33.81062 202.63465-35.9932 203.79892-38.04993 204.96318-39.97688 206.12744-41.76758 207.29172-43.41295 208.45598-44.90912 209.62026-46.253 210.78452-47.4347 209.1021-45.96007"/>
<path transform="matrix(-.47144,-.88187,-.88187,.47144,110.17963,48.30061)" d="M3.78581 0-2.27148 3.02866 0 0-2.27148-3.02866"/>
<path transform="matrix(.75194,.65915,.65915,-.75194,395.45109,127.00008)" d="M3.78581 0-2.27148 3.02866 0 0-2.27148-3.02866"/>
<path transform="matrix(1,0,0,-1,186.349,81.04001)" d="M1.83177 0C1.83177 1.01166 1.01166 1.83177 0 1.83177-1.01166 1.83177-1.83177 1.01166-1.83177 0-1.83177-1.01166-1.01166-1.83177 0-1.83177 1.01166-1.83177 1.83177-1.01166 1.83177 0ZM0 0"/>
<path transform="matrix(1,0,0,-1,186.349,81.04001)" stroke-width=".3985" stroke-linecap="butt" stroke-miterlimit="10" stroke-linejoin="miter" fill="none" stroke="#ffffff" d="M1.83177 0C1.83177 1.01166 1.01166 1.83177 0 1.83177-1.01166 1.83177-1.83177 1.01166-1.83177 0-1.83177-1.01166-1.01166-1.83177 0-1.83177 1.01166-1.83177 1.83177-1.01166 1.83177 0ZM0 0"/>
<path transform="matrix(1,0,0,-1,186.349,81.04001)" d="M-60.53154 0C-60.53154 1.01166-61.35165 1.83177-62.36331 1.83177-63.37497 1.83177-64.19508 1.01166-64.19508 0-64.19508-1.01166-63.37497-1.83177-62.36331-1.83177-61.35165-1.83177-60.53154-1.01166-60.53154 0ZM-62.36331 0"/>
<path transform="matrix(1,0,0,-1,186.349,81.04001)" stroke-width=".3985" stroke-linecap="butt" stroke-miterlimit="10" stroke-linejoin="miter" fill="none" stroke="#ffffff" d="M-60.53154 0C-60.53154 1.01166-61.35165 1.83177-62.36331 1.83177-63.37497 1.83177-64.19508 1.01166-64.19508 0-64.19508-1.01166-63.37497-1.83177-62.36331-1.83177-61.35165-1.83177-60.53154-1.01166-60.53154 0ZM-62.36331 0"/>
<path transform="matrix(1,0,0,-1,186.349,81.04001)" d="M64.19508 0C64.19508 1.01166 63.37497 1.83177 62.36331 1.83177 61.35165 1.83177 60.53154 1.01166 60.53154 0 60.53154-1.01166 61.35165-1.83177 62.36331-1.83177 63.37497-1.83177 64.19508-1.01166 64.19508 0ZM62.36331 0"/>
<path transform="matrix(1,0,0,-1,186.349,81.04001)" stroke-width=".3985" stroke-linecap="butt" stroke-miterlimit="10" stroke-linejoin="miter" fill="none" stroke="#ffffff" d="M64.19508 0C64.19508 1.01166 63.37497 1.83177 62.36331 1.83177 61.35165 1.83177 60.53154 1.01166 60.53154 0 60.53154-1.01166 61.35165-1.83177 62.36331-1.83177 63.37497-1.83177 64.19508-1.01166 64.19508 0ZM62.36331 0"/>
<path transform="matrix(1,0,0,-1,186.349,81.04001)" d="M126.55843 0C126.55843 1.01166 125.73831 1.83177 124.72664 1.83177 123.71498 1.83177 122.89487 1.01166 122.89487 0 122.89487-1.01166 123.71498-1.83177 124.72664-1.83177 125.73831-1.83177 126.55843-1.01166 126.55843 0ZM124.72664 0"/>
<path transform="matrix(1,0,0,-1,186.349,81.04001)" stroke-width=".3985" stroke-linecap="butt" stroke-miterlimit="10" stroke-linejoin="miter" fill="none" stroke="#ffffff" d="M126.55843 0C126.55843 1.01166 125.73831 1.83177 124.72664 1.83177 123.71498 1.83177 122.89487 1.01166 122.89487 0 122.89487-1.01166 123.71498-1.83177 124.72664-1.83177 125.73831-1.83177 126.55843-1.01166 126.55843 0ZM124.72664 0"/>
<path transform="matrix(1,0,0,-1,186.349,81.04001)" d="M188.92174 0C188.92174 1.01166 188.10163 1.83177 187.08997 1.83177 186.07831 1.83177 185.2582 1.01166 185.2582 0 185.2582-1.01166 186.07831-1.83177 187.08997-1.83177 188.10163-1.83177 188.92174-1.01166 188.92174 0ZM187.08997 0"/>
<path transform="matrix(1,0,0,-1,186.349,81.04001)" stroke-width=".3985" stroke-linecap="butt" stroke-miterlimit="10" stroke-linejoin="miter" fill="none" stroke="#ffffff" d="M188.92174 0C188.92174 1.01166 188.10163 1.83177 187.08997 1.83177 186.07831 1.83177 185.2582 1.01166 185.2582 0 185.2582-1.01166 186.07831-1.83177 187.08997-1.83177 188.10163-1.83177 188.92174-1.01166 188.92174 0ZM187.08997 0"/>
<path transform="matrix(1,0,0,-1,186.349,81.04001)" d="M33.01343 51.02432C33.01343 52.03598 32.19331 52.8561 31.18166 52.8561 30.17 52.8561 29.34987 52.03598 29.34987 51.02432 29.34987 50.01266 30.17 49.19255 31.18166 49.19255 32.19331 49.19255 33.01343 50.01266 33.01343 51.02432ZM31.18166 51.02432"/>
<path transform="matrix(1,0,0,-1,186.349,81.04001)" stroke-width=".3985" stroke-linecap="butt" stroke-miterlimit="10" stroke-linejoin="miter" fill="none" stroke="#ffffff" d="M33.01343 51.02432C33.01343 52.03598 32.19331 52.8561 31.18166 52.8561 30.17 52.8561 29.34987 52.03598 29.34987 51.02432 29.34987 50.01266 30.17 49.19255 31.18166 49.19255 32.19331 49.19255 33.01343 50.01266 33.01343 51.02432ZM31.18166 51.02432"/>
<path transform="matrix(1,0,0,-1,186.349,81.04001)" d="M157.74008 51.02432C157.74008 52.03598 156.91997 52.8561 155.90831 52.8561 154.89664 52.8561 154.07653 52.03598 154.07653 51.02432 154.07653 50.01266 154.89664 49.19255 155.90831 49.19255 156.91997 49.19255 157.74008 50.01266 157.74008 51.02432ZM155.90831 51.02432"/>
<path transform="matrix(1,0,0,-1,186.349,81.04001)" stroke-width=".3985" stroke-linecap="butt" stroke-miterlimit="10" stroke-linejoin="miter" fill="none" stroke="#ffffff" d="M157.74008 51.02432C157.74008 52.03598 156.91997 52.8561 155.90831 52.8561 154.89664 52.8561 154.07653 52.03598 154.07653 51.02432 154.07653 50.01266 154.89664 49.19255 155.90831 49.19255 156.91997 49.19255 157.74008 50.01266 157.74008 51.02432ZM155.90831 51.02432"/>
<path transform="matrix(1,0,0,-1,186.349,81.04001)" d="M-29.34987-51.02432C-29.34987-50.01266-30.17-49.19255-31.18166-49.19255-32.19331-49.19255-33.01343-50.01266-33.01343-51.02432-33.01343-52.03598-32.19331-52.8561-31.18166-52.8561-30.17-52.8561-29.34987-52.03598-29.34987-51.02432ZM-31.18166-51.02432"/>
<path transform="matrix(1,0,0,-1,186.349,81.04001)" stroke-width=".3985" stroke-linecap="butt" stroke-miterlimit="10" stroke-linejoin="miter" fill="none" stroke="#ffffff" d="M-29.34987-51.02432C-29.34987-50.01266-30.17-49.19255-31.18166-49.19255-32.19331-49.19255-33.01343-50.01266-33.01343-51.02432-33.01343-52.03598-32.19331-52.8561-31.18166-52.8561-30.17-52.8561-29.34987-52.03598-29.34987-51.02432ZM-31.18166-51.02432"/>
<path transform="matrix(1,0,0,-1,186.349,81.04001)" d="M95.37675-51.02432C95.37675-50.01266 94.55663-49.19255 93.54497-49.19255 92.53331-49.19255 91.7132-50.01266 91.7132-51.02432 91.7132-52.03598 92.53331-52.8561 93.54497-52.8561 94.55663-52.8561 95.37675-52.03598 95.37675-51.02432ZM93.54497-51.02432"/>
<path transform="matrix(1,0,0,-1,186.349,81.04001)" stroke-width=".3985" stroke-linecap="butt" stroke-miterlimit="10" stroke-linejoin="miter" fill="none" stroke="#ffffff" d="M95.37675-51.02432C95.37675-50.01266 94.55663-49.19255 93.54497-49.19255 92.53331-49.19255 91.7132-50.01266 91.7132-51.02432 91.7132-52.03598 92.53331-52.8561 93.54497-52.8561 94.55663-52.8561 95.37675-52.03598 95.37675-51.02432ZM93.54497-51.02432"/>
<use data-text="(" xlink:href="#font_4_1" transform="matrix(7.9701,0,0,-7.9701,189.86899,90.53701)"/>
<use data-text="h" xlink:href="#font_5_6" transform="matrix(7.9701,0,0,-7.9701,193.66599,90.53701)"/>
<use data-text="," xlink:href="#font_5_3" transform="matrix(7.9701,0,0,-7.9701,199.33274,90.53701)"/>
<use data-text="k" xlink:href="#font_5_7" transform="matrix(7.9701,0,0,-7.9701,203.45328,90.53701)"/>
<use data-text=")" xlink:href="#font_4_2" transform="matrix(7.9701,0,0,-7.9701,208.686,90.53701)"/>
<use data-text="(" xlink:href="#font_4_1" transform="matrix(7.9701,0,0,-7.9701,73.229999,93.65201)"/>
<use data-text="&#x2212;" xlink:href="#font_6_1" transform="matrix(7.9701,0,0,-7.9701,77.02699,93.65201)"/>
<use data-text="&#x03c0;" xlink:href="#font_5_1" transform="matrix(7.9701,0,0,-7.9701,85.815998,88.102008)"/>
<path transform="matrix(1,0,0,-1,-41.119005,84.61201)" stroke-width=".3587" stroke-linecap="butt" stroke-miterlimit="10" stroke-linejoin="miter" fill="none" stroke="#000000" d="M126.935-7.048H133.048"/>
<use data-text="b" xlink:href="#font_5_5" transform="matrix(7.9701,0,0,-7.9701,86.67799,99.62301)"/>
<use data-text="+" xlink:href="#font_4_3" transform="matrix(7.9701,0,0,-7.9701,95.00699,93.65201)"/>
<use data-text="h" xlink:href="#font_5_6" transform="matrix(7.9701,0,0,-7.9701,104.481998,93.65201)"/>
<use data-text="," xlink:href="#font_5_3" transform="matrix(7.9701,0,0,-7.9701,110.14874,93.65201)"/>
<use data-text="k" xlink:href="#font_5_7" transform="matrix(7.9701,0,0,-7.9701,114.26929,93.65201)"/>
<use data-text=")" xlink:href="#font_4_2" transform="matrix(7.9701,0,0,-7.9701,119.50299,93.65201)"/>
<use data-text="(" xlink:href="#font_4_1" transform="matrix(7.9701,0,0,-7.9701,255.067,93.65201)"/>
<use data-text="&#x03c0;" xlink:href="#font_5_1" transform="matrix(7.9701,0,0,-7.9701,260.059,88.102008)"/>
<path transform="matrix(1,0,0,-1,140.718,84.61201)" stroke-width=".3587" stroke-linecap="butt" stroke-miterlimit="10" stroke-linejoin="miter" fill="none" stroke="#000000" d="M119.341-7.048H125.454"/>
<use data-text="b" xlink:href="#font_5_5" transform="matrix(7.9701,0,0,-7.9701,260.92103,99.62301)"/>
<use data-text="+" xlink:href="#font_4_3" transform="matrix(7.9701,0,0,-7.9701,269.25,93.65201)"/>
<use data-text="h" xlink:href="#font_5_6" transform="matrix(7.9701,0,0,-7.9701,278.726,93.65201)"/>
<use data-text="," xlink:href="#font_5_3" transform="matrix(7.9701,0,0,-7.9701,284.39277,93.65201)"/>
<use data-text="k" xlink:href="#font_5_7" transform="matrix(7.9701,0,0,-7.9701,288.5133,93.65201)"/>
<use data-text=")" xlink:href="#font_4_2" transform="matrix(7.9701,0,0,-7.9701,293.746,93.65201)"/>
<use data-text="(" xlink:href="#font_4_1" transform="matrix(7.9701,0,0,-7.9701,314.595,95.24601)"/>
<use data-text="2" xlink:href="#font_4_6" transform="matrix(7.9701,0,0,-7.9701,319.587,89.69601)"/>
<use data-text="&#x03c0;" xlink:href="#font_5_1" transform="matrix(7.9701,0,0,-7.9701,324.469,89.69601)"/>
<path transform="matrix(1,0,0,-1,200.246,86.20601)" stroke-width=".3587" stroke-linecap="butt" stroke-miterlimit="10" stroke-linejoin="miter" fill="none" stroke="#000000" d="M119.341-7.048H130.336"/>
<use data-text="b" xlink:href="#font_5_5" transform="matrix(7.9701,0,0,-7.9701,322.89,101.21701)"/>
<use data-text="+" xlink:href="#font_4_3" transform="matrix(7.9701,0,0,-7.9701,333.66,95.24601)"/>
<use data-text="h" xlink:href="#font_5_6" transform="matrix(7.9701,0,0,-7.9701,343.135,95.24601)"/>
<use data-text="," xlink:href="#font_5_3" transform="matrix(7.9701,0,0,-7.9701,348.80177,95.24601)"/>
<use data-text="k" xlink:href="#font_5_7" transform="matrix(7.9701,0,0,-7.9701,352.9223,95.24601)"/>
<use data-text=")" xlink:href="#font_4_2" transform="matrix(7.9701,0,0,-7.9701,358.156,95.24601)"/>
<use data-text="(" xlink:href="#font_4_1" transform="matrix(7.9701,0,0,-7.9701,379.793,95.24601)"/>
<use data-text="3" xlink:href="#font_4_7" transform="matrix(7.9701,0,0,-7.9701,384.785,89.69601)"/>
<use data-text="&#x03c0;" xlink:href="#font_5_1" transform="matrix(7.9701,0,0,-7.9701,389.667,89.69601)"/>
<path transform="matrix(1,0,0,-1,265.444,86.20601)" stroke-width=".3587" stroke-linecap="butt" stroke-miterlimit="10" stroke-linejoin="miter" fill="none" stroke="#000000" d="M119.341-7.048H130.336"/>
<use data-text="b" xlink:href="#font_5_5" transform="matrix(7.9701,0,0,-7.9701,388.088,101.21701)"/>
<use data-text="+" xlink:href="#font_4_3" transform="matrix(7.9701,0,0,-7.9701,398.858,95.24601)"/>
<use data-text="h" xlink:href="#font_5_6" transform="matrix(7.9701,0,0,-7.9701,408.333,95.24601)"/>
<use data-text="," xlink:href="#font_5_3" transform="matrix(7.9701,0,0,-7.9701,413.99977,95.24601)"/>
<use data-text="k" xlink:href="#font_5_7" transform="matrix(7.9701,0,0,-7.9701,418.1203,95.24601)"/>
<use data-text=")" xlink:href="#font_4_2" transform="matrix(7.9701,0,0,-7.9701,423.354,95.24601)"/>
<use data-text="(" xlink:href="#font_4_1" transform="matrix(7.9701,0,0,-7.9701,186.34,19.675007)"/>
<use data-text="&#x03c0;" xlink:href="#font_5_1" transform="matrix(7.9701,0,0,-7.9701,192.911,14.125006)"/>
<path transform="matrix(1,0,0,-1,71.991,10.635006)" stroke-width=".3587" stroke-linecap="butt" stroke-miterlimit="10" stroke-linejoin="miter" fill="none" stroke="#000000" d="M119.341-7.048H128.612"/>
<use data-text="2" xlink:href="#font_4_6" transform="matrix(7.9701,0,0,-7.9701,191.332,25.646006)"/>
<use data-text="b" xlink:href="#font_5_5" transform="matrix(7.9701,0,0,-7.9701,196.214,25.646006)"/>
<use data-text="+" xlink:href="#font_4_3" transform="matrix(7.9701,0,0,-7.9701,203.68001,19.675005)"/>
<use data-text="h" xlink:href="#font_5_6" transform="matrix(7.9701,0,0,-7.9701,213.156,19.675005)"/>
<use data-text="," xlink:href="#font_5_3" transform="matrix(7.9701,0,0,-7.9701,218.82276,19.675005)"/>
<use data-text="a" xlink:href="#font_5_4" transform="matrix(7.9701,0,0,-7.9701,222.9433,19.675005)"/>
<use data-text="+" xlink:href="#font_4_3" transform="matrix(7.9701,0,0,-7.9701,230.224,19.675005)"/>
<use data-text="k" xlink:href="#font_5_7" transform="matrix(7.9701,0,0,-7.9701,239.699,19.675005)"/>
<use data-text=")" xlink:href="#font_4_2" transform="matrix(7.9701,0,0,-7.9701,244.92401,19.675005)"/>
<use data-text="(" xlink:href="#font_4_1" transform="matrix(7.9701,0,0,-7.9701,310.204,19.675007)"/>
<use data-text="5" xlink:href="#font_4_9" transform="matrix(7.9701,0,0,-7.9701,315.196,14.125006)"/>
<use data-text="&#x03c0;" xlink:href="#font_5_1" transform="matrix(7.9701,0,0,-7.9701,320.078,14.125006)"/>
<path transform="matrix(1,0,0,-1,195.85501,10.635006)" stroke-width=".3587" stroke-linecap="butt" stroke-miterlimit="10" stroke-linejoin="miter" fill="none" stroke="#000000" d="M119.341-7.048H130.336"/>
<use data-text="2" xlink:href="#font_4_6" transform="matrix(7.9701,0,0,-7.9701,316.058,25.646006)"/>
<use data-text="b" xlink:href="#font_5_5" transform="matrix(7.9701,0,0,-7.9701,320.94,25.646006)"/>
<use data-text="+" xlink:href="#font_4_3" transform="matrix(7.9701,0,0,-7.9701,329.269,19.675005)"/>
<use data-text="h" xlink:href="#font_5_6" transform="matrix(7.9701,0,0,-7.9701,338.74403,19.675005)"/>
<use data-text="," xlink:href="#font_5_3" transform="matrix(7.9701,0,0,-7.9701,344.41078,19.675005)"/>
<use data-text="a" xlink:href="#font_5_4" transform="matrix(7.9701,0,0,-7.9701,348.5313,19.675005)"/>
<use data-text="+" xlink:href="#font_4_3" transform="matrix(7.9701,0,0,-7.9701,355.812,19.675005)"/>
<use data-text="k" xlink:href="#font_5_7" transform="matrix(7.9701,0,0,-7.9701,365.28804,19.675005)"/>
<use data-text=")" xlink:href="#font_4_2" transform="matrix(7.9701,0,0,-7.9701,370.51203,19.675005)"/>
<use data-text="(" xlink:href="#font_4_1" transform="matrix(7.9701,0,0,-7.9701,116.381999,144.67601)"/>
<use data-text="&#x2212;" xlink:href="#font_6_1" transform="matrix(7.9701,0,0,-7.9701,120.17899,144.67601)"/>
<use data-text="&#x03c0;" xlink:href="#font_5_1" transform="matrix(7.9701,0,0,-7.9701,130.547,139.12602)"/>
<path transform="matrix(1,0,0,-1,2.0329972,135.63602)" stroke-width=".3587" stroke-linecap="butt" stroke-miterlimit="10" stroke-linejoin="miter" fill="none" stroke="#000000" d="M126.935-7.048H136.206"/>
<use data-text="2" xlink:href="#font_4_6" transform="matrix(7.9701,0,0,-7.9701,128.96799,150.64702)"/>
<use data-text="b" xlink:href="#font_5_5" transform="matrix(7.9701,0,0,-7.9701,133.85,150.64702)"/>
<use data-text="+" xlink:href="#font_4_3" transform="matrix(7.9701,0,0,-7.9701,141.31601,144.67601)"/>
<use data-text="h" xlink:href="#font_5_6" transform="matrix(7.9701,0,0,-7.9701,150.79199,144.67601)"/>
<use data-text="," xlink:href="#font_5_3" transform="matrix(7.9701,0,0,-7.9701,156.45874,144.67601)"/>
<use data-text="&#x2212;" xlink:href="#font_6_1" transform="matrix(7.9701,0,0,-7.9701,160.58802,144.67601)"/>
<use data-text="a" xlink:href="#font_5_4" transform="matrix(7.9701,0,0,-7.9701,168.182,144.67601)"/>
<use data-text="+" xlink:href="#font_4_3" transform="matrix(7.9701,0,0,-7.9701,175.453,144.67601)"/>
<use data-text="k" xlink:href="#font_5_7" transform="matrix(7.9701,0,0,-7.9701,184.92899,144.67601)"/>
<use data-text=")" xlink:href="#font_4_2" transform="matrix(7.9701,0,0,-7.9701,190.15399,144.67601)"/>
<use data-text="(" xlink:href="#font_4_1" transform="matrix(7.9701,0,0,-7.9701,244.044,146.27)"/>
<use data-text="3" xlink:href="#font_4_7" transform="matrix(7.9701,0,0,-7.9701,249.03601,140.72002)"/>
<use data-text="&#x03c0;" xlink:href="#font_5_1" transform="matrix(7.9701,0,0,-7.9701,253.918,140.72002)"/>
<path transform="matrix(1,0,0,-1,129.695,137.23001)" stroke-width=".3587" stroke-linecap="butt" stroke-miterlimit="10" stroke-linejoin="miter" fill="none" stroke="#000000" d="M119.341-7.048H130.336"/>
<use data-text="2" xlink:href="#font_4_6" transform="matrix(7.9701,0,0,-7.9701,249.89801,152.24102)"/>
<use data-text="b" xlink:href="#font_5_5" transform="matrix(7.9701,0,0,-7.9701,254.78002,152.24102)"/>
<use data-text="+" xlink:href="#font_4_3" transform="matrix(7.9701,0,0,-7.9701,263.109,146.27)"/>
<use data-text="h" xlink:href="#font_5_6" transform="matrix(7.9701,0,0,-7.9701,272.584,146.27)"/>
<use data-text="," xlink:href="#font_5_3" transform="matrix(7.9701,0,0,-7.9701,278.25077,146.27)"/>
<use data-text="&#x2212;" xlink:href="#font_6_1" transform="matrix(7.9701,0,0,-7.9701,282.38,146.27)"/>
<use data-text="a" xlink:href="#font_5_4" transform="matrix(7.9701,0,0,-7.9701,289.974,146.27)"/>
<use data-text="+" xlink:href="#font_4_3" transform="matrix(7.9701,0,0,-7.9701,297.24604,146.27)"/>
<use data-text="k" xlink:href="#font_5_7" transform="matrix(7.9701,0,0,-7.9701,306.721,146.27)"/>
<use data-text=")" xlink:href="#font_4_2" transform="matrix(7.9701,0,0,-7.9701,311.94606,146.27)"/>
<use data-text="y" xlink:href="#font_7_8" transform="matrix(9.9626,0,0,-9.9626,33.961,21.168007)"/>
<use data-text="=" xlink:href="#font_8_12" transform="matrix(9.9626,0,0,-9.9626,42.977998,21.168007)"/>
<use data-text="a" xlink:href="#font_7_3" transform="matrix(9.9626,0,0,-9.9626,54.65599,21.168007)"/>
<use data-text="s" xlink:href="#font_8_17" transform="matrix(9.9626,0,0,-9.9626,62.621995,21.168007)"/>
<use data-text="i" xlink:href="#font_8_14" transform="matrix(9.9626,0,0,-9.9626,67.135059,21.168007)"/>
<use data-text="n" xlink:href="#font_8_15" transform="matrix(9.9626,0,0,-9.9626,70.313129,21.168007)"/>
<use data-text="b" xlink:href="#font_7_4" transform="matrix(9.9626,0,0,-9.9626,78.349,21.168007)"/>
<use data-text="(" xlink:href="#font_8_1" transform="matrix(9.9626,0,0,-9.9626,83.537,21.168007)"/>
<use data-text="x" xlink:href="#font_7_7" transform="matrix(9.9626,0,0,-9.9626,87.993,21.168007)"/>
<use data-text="&#x2212;" xlink:href="#font_9_1" transform="matrix(9.9626,0,0,-9.9626,96.772,21.168007)"/>
<use data-text="h" xlink:href="#font_7_5" transform="matrix(9.9626,0,0,-9.9626,107.897,21.168007)"/>
<use data-text=")" xlink:href="#font_8_2" transform="matrix(9.9626,0,0,-9.9626,114.548007,21.168007)"/>
<use data-text="+" xlink:href="#font_8_3" transform="matrix(9.9626,0,0,-9.9626,121.21298,21.168007)"/>
<use data-text="k" xlink:href="#font_7_6" transform="matrix(9.9626,0,0,-9.9626,132.34201,21.168007)"/>
<path transform="matrix(1,0,0,-1,186.349,81.04001)" stroke-width=".3985" stroke-linecap="butt" stroke-miterlimit="10" stroke-linejoin="miter" fill="none" stroke="#000000" d="M37.88655 51.02432H149.2034"/>
<path transform="matrix(-1,-0,0,1,224.23555,30.01569)" d="M3.58653 0C2.52383 .19925 .797 .797-.3985 1.49438V-1.49438C.797-.797 2.52383-.19925 3.58653 0"/>
<path transform="matrix(1,0,0,-1,335.5524,30.01569)" d="M3.58653 0C2.52383 .19925 .797 .797-.3985 1.49438V-1.49438C.797-.797 2.52383-.19925 3.58653 0"/>
<path transform="matrix(1,0,0,-1,186.349,81.04001)" d="M66.37431 38.83334H120.715618V63.2153H66.37431Z" fill="#ffffff"/>
<use data-text="p" xlink:href="#font_10_84" transform="matrix(9.9626,0,0,-9.9626,254.218,33.17901)"/>
<use data-text="e" xlink:href="#font_10_50" transform="matrix(9.9626,0,0,-9.9626,260.89295,33.17901)"/>
<use data-text="r" xlink:href="#font_10_96" transform="matrix(9.9626,0,0,-9.9626,266.14326,33.17901)"/>
<use data-text="i" xlink:href="#font_10_66" transform="matrix(9.9626,0,0,-9.9626,270.8655,33.17901)"/>
<use data-text="o" xlink:href="#font_10_81" transform="matrix(9.9626,0,0,-9.9626,274.04359,33.17901)"/>
<use data-text="d" xlink:href="#font_10_47" transform="matrix(9.9626,0,0,-9.9626,280.09089,33.17901)"/>
<use data-text="2" xlink:href="#font_8_6" transform="matrix(9.9626,0,0,-9.9626,291.478,25.740008)"/>
<use data-text="&#x03c0;" xlink:href="#font_7_1" transform="matrix(9.9626,0,0,-9.9626,297.207,25.740008)"/>
<path transform="matrix(1,0,0,-1,139.869,24.139008)" stroke-width=".3985" stroke-linecap="butt" stroke-miterlimit="10" stroke-linejoin="miter" fill="none" stroke="#000000" d="M151.609-6.55H164.505"/>
<use data-text="b" xlink:href="#font_7_4" transform="matrix(9.9626,0,0,-9.9626,295.332,40.713006)"/>
<path transform="matrix(1,0,0,-1,186.349,81.04001)" stroke-width=".3985" stroke-linecap="butt" stroke-miterlimit="10" stroke-linejoin="miter" fill="none" stroke="#000000" d="M62.66219-79.37114H186.79109"/>
<path transform="matrix(-1,-0,0,1,252.69736,160.41115)" d="M3.58653 0C2.52383 .19925 .797 .797-.3985 1.49438V-1.49438C.797-.797 2.52383-.19925 3.58653 0"/>
<path transform="matrix(-1,-0,0,1,248.91156,160.41115)" stroke-width=".3985" stroke-linecap="butt" stroke-miterlimit="10" stroke-linejoin="miter" fill="none" stroke="#000000" d="M0 2.29141V-2.29141"/>
<path transform="matrix(1,0,0,-1,369.45393,160.41115)" d="M3.58653 0C2.52383 .19925 .797 .797-.3985 1.49438V-1.49438C.797-.797 2.52383-.19925 3.58653 0"/>
<path transform="matrix(1,0,0,-1,373.23973,160.41115)" stroke-width=".3985" stroke-linecap="butt" stroke-miterlimit="10" stroke-linejoin="miter" fill="none" stroke="#000000" d="M0 2.29141V-2.29141"/>
<path transform="matrix(1,0,0,-1,186.349,81.04001)" d="M97.556-91.56212H151.89731V-67.18016H97.556Z" fill="#ffffff"/>
<use data-text="p" xlink:href="#font_10_84" transform="matrix(9.9626,0,0,-9.9626,285.399,163.57399)"/>
<use data-text="e" xlink:href="#font_10_50" transform="matrix(9.9626,0,0,-9.9626,292.07395,163.57399)"/>
<use data-text="r" xlink:href="#font_10_96" transform="matrix(9.9626,0,0,-9.9626,297.32423,163.57399)"/>
<use data-text="i" xlink:href="#font_10_66" transform="matrix(9.9626,0,0,-9.9626,302.0465,163.57399)"/>
<use data-text="o" xlink:href="#font_10_81" transform="matrix(9.9626,0,0,-9.9626,305.22459,163.57399)"/>
<use data-text="d" xlink:href="#font_10_47" transform="matrix(9.9626,0,0,-9.9626,311.27189,163.57399)"/>
<use data-text="2" xlink:href="#font_8_6" transform="matrix(9.9626,0,0,-9.9626,322.659,156.135)"/>
<use data-text="&#x03c0;" xlink:href="#font_7_1" transform="matrix(9.9626,0,0,-9.9626,328.388,156.135)"/>
<path transform="matrix(1,0,0,-1,171.05,154.534)" stroke-width=".3985" stroke-linecap="butt" stroke-miterlimit="10" stroke-linejoin="miter" fill="none" stroke="#000000" d="M151.609-6.55H164.505"/>
<use data-text="b" xlink:href="#font_7_4" transform="matrix(9.9626,0,0,-9.9626,326.513,171.108)"/>
<path transform="matrix(1,0,0,-1,186.349,81.04001)" stroke-width=".3985" stroke-linecap="butt" stroke-miterlimit="10" stroke-linejoin="miter" fill="none" stroke="#000000" d="M-31.18166 .29886V50.72545"/>
<path transform="matrix(0,1,1,0,155.16735,77.05496)" d="M3.58653 0C2.52383 .19925 .797 .797-.3985 1.49438V-1.49438C.797-.797 2.52383-.19925 3.58653 0"/>
<path transform="matrix(0,1,1,0,155.16735,80.84076)" stroke-width=".3985" stroke-linecap="butt" stroke-miterlimit="10" stroke-linejoin="miter" fill="none" stroke="#000000" d="M0 2.29141V-2.29141"/>
<path transform="matrix(0,-1,-1,-0,155.16735,34.00073)" d="M3.58653 0C2.52383 .19925 .797 .797-.3985 1.49438V-1.49438C.797-.797 2.52383-.19925 3.58653 0"/>
<path transform="matrix(0,-1,-1,-0,155.16735,30.21494)" stroke-width=".3985" stroke-linecap="butt" stroke-miterlimit="10" stroke-linejoin="miter" fill="none" stroke="#000000" d="M0 2.29141V-2.29141"/>
<use data-text="a" xlink:href="#font_11_28" transform="matrix(0,-4.9813,-4.9813,-0,150.176,75.56302)"/>
<use data-text="m" xlink:href="#font_11_75" transform="matrix(0,-4.9813,-4.9813,-0,150.176,71.88682)"/>
<use data-text="p" xlink:href="#font_11_84" transform="matrix(0,-4.9813,-4.9813,-0,150.176,65.70004)"/>
<use data-text="l" xlink:href="#font_11_72" transform="matrix(0,-4.9813,-4.9813,-0,150.176,61.520738)"/>
<use data-text="i" xlink:href="#font_11_66" transform="matrix(0,-4.9813,-4.9813,-0,150.176,59.348894)"/>
<use data-text="t" xlink:href="#font_11_105" transform="matrix(0,-4.9813,-4.9813,-0,150.176,57.177049)"/>
<use data-text="u" xlink:href="#font_11_109" transform="matrix(0,-4.9813,-4.9813,-0,150.176,54.203218)"/>
<use data-text="d" xlink:href="#font_11_47" transform="matrix(0,-4.9813,-4.9813,-0,150.176,50.02391)"/>
<use data-text="e" xlink:href="#font_11_50" transform="matrix(0,-4.9813,-4.9813,-0,150.176,45.844606)"/>
<use data-text="a" xlink:href="#font_12_1" transform="matrix(0,-4.9813,-4.9813,-0,150.176,39.82202)"/>
</svg>
