<svg style="overflow: visible;" xmlns="http://www.w3.org/2000/svg" xmlns:xlink="http://www.w3.org/1999/xlink" xmlns:inkscape="http://www.inkscape.org/namespaces/inkscape" version="1.1" width="100%" height="100%" viewBox="0 0 422.19 239.44">
<defs>
<path id="font_1_7" d="M.5359955 .4011383C.5 .3911438 .48199464 .35714723 .48199464 .33215333 .48199464 .31015016 .49899293 .28614808 .5319977 .28614808 .5669861 .28614808 .60398867 .31515504 .60398867 .364151 .60398867 .41714479 .5509949 .45214845 .48999024 .45214845 .43299867 .45214845 .3959961 .4091339 .3829956 .3911438 .35798646 .433136 .3019867 .45214845 .24499512 .45214845 .11898804 .45214845 .050994874 .32914735 .050994874 .29615785 .050994874 .28215028 .06599426 .28215028 .07499695 .28215028 .08699036 .28215028 .09399414 .28215028 .09799194 .29515077 .1269989 .38613893 .19898987 .4161377 .23999024 .4161377 .27799989 .4161377 .29599 .39814759 .29599 .3661499 .29599 .3471527 .28199769 .29216004 .272995 .2561493L.23899842 .11917114C.22399903 .058181764 .18798828 .028182984 .1539917 .028182984 .14898682 .028182984 .12599182 .028182984 .10598755 .043182374 .14199829 .05317688 .1599884 .08717346 .1599884 .11216736 .1599884 .13417053 .14299011 .1581726 .10998535 .1581726 .07499695 .1581726 .037994386 .12916565 .037994386 .08016968 .037994386 .027175904 .09098816-.0078125 .1519928-.0078125 .20899964-.0078125 .24598694 .035186769 .25898744 .05317688 .28399659 .011184692 .33999635-.0078125 .39698792-.0078125 .522995-.0078125 .59098818 .11517334 .59098818 .14816284 .59098818 .16217041 .57598879 .16217041 .5669861 .16217041 .5549927 .16217041 .5479889 .16217041 .5439911 .14916992 .5149994 .058181764 .44299317 .028182984 .4019928 .028182984 .3639984 .028182984 .34599305 .046173097 .34599305 .07817078 .34599305 .09916687 .35899354 .15216065 .36799623 .18916321 .375 .21516419 .397995 .30915834 .40299989 .32514955 .41799928 .3851471 .45298768 .4161377 .48799134 .4161377 .49299623 .4161377 .5159912 .4161377 .5359955 .4011383Z"/>
<path id="font_1_8" d="M.57699587 .3771515C.58200076 .3951416 .58200076 .3971405 .58200076 .40014649 .58200076 .4221344 .56599429 .44413758 .5349884 .44413758 .48298646 .44413758 .47099305 .3971405 .46398927 .3701477L.43798829 .26615907C.42599488 .2181549 .40699769 .14117432 .3959961 .10017395 .3909912 .07817078 .3600006 .05418396 .35699464 .05218506 .34599305 .045181276 .32199098 .028182984 .2889862 .028182984 .22999573 .028182984 .22898865 .07817078 .22898865 .10116577 .22898865 .16217041 .2599945 .24015808 .28799439 .31214906 .2979889 .33815003 .30099488 .3451538 .30099488 .3621521 .30099488 .4201355 .24299622 .45214845 .18798828 .45214845 .08198547 .45214845 .03199768 .31614686 .03199768 .29615785 .03199768 .28215028 .04699707 .28215028 .055999757 .28215028 .067993167 .28215028 .07499695 .28215028 .07899475 .29515077 .11199951 .4061432 .16699219 .4161377 .18199158 .4161377 .18899536 .4161377 .19898987 .4161377 .19898987 .3951416 .19898987 .3721466 .18798828 .34614564 .18199158 .33015443 .14299011 .23016358 .12199402 .173172 .12199402 .122177127 .12199402 .008178711 .22200012-.0078125 .2809906-.0078125 .30599977-.0078125 .33999635-.0038146973 .3769989 .02218628 .34899903-.10101318 .27398683-.16615296 .20498657-.16615296 .19198609-.16615296 .1639862-.16415406 .14399719-.15213013 .17599488-.13909912 .19198609-.11204529 .19198609-.0849762 .19198609-.04890442 .16299439-.038879396 .14299011-.038879396 .10598755-.038879396 .070999149-.07095337 .070999149-.11505127 .070999149-.16615296 .12399292-.20214844 .20498657-.20214844 .31999208-.20214844 .45199586-.12506104 .48298646-.0008239746L.57699587 .3771515Z"/>
<path id="font_2_4" d="M.54499819 .31925965C.54499819 .4212494 .5419922 .65625 .29599 .65625 .051986696 .65625 .04598999 .429245 .04598999 .31925965 .04598999 .21525574 .04899597-.01171875 .29499818-.01171875 .5389862-.01171875 .54499819 .20826721 .54499819 .31925965M.29599 .028274537C.2689972 .028274537 .19999695 .040267946 .18699646 .13226319 .1789856 .18527222 .1789856 .27626039 .1789856 .33125306 .1789856 .3942566 .1789856 .47824098 .18699646 .52523806 .20199585 .60523989 .2689972 .61624148 .29499818 .61624148 .32798768 .61624148 .3909912 .600235 .4039917 .5222473 .4119873 .47424317 .4119873 .3882599 .4119873 .33125306 .4119873 .25326539 .4119873 .13426209 .3959961 .09527588 .37399293 .046279909 .32899476 .028274537 .29599 .028274537Z"/>
<path id="font_3_1" d="M.33599855 .3408203H.44898988C.42199708 .22695923 .41999818 .17901612 .41999818 .14805603 .41999818 .07015991 .44499208-.009765625 .49598695-.009765625 .522995-.009765625 .5669861 .018218995 .5669861 .059173585 .5669861 .073150638 .56399539 .07914734 .55599978 .09112549 .5069885 .16603089 .5029907 .24394226 .5029907 .27789308 .5029907 .30485536 .5049896 .31684876 .5079956 .3408203H.6389923C.6599884 .3408203 .6719971 .3408203 .6899872 .35481263 .70399478 .3658142 .71299746 .38581849 .71299746 .40081788 .71299746 .44381715 .6729889 .44381715 .6559906 .44381715H.23498535C.21099854 .44381715 .16799927 .44381715 .10598755 .3918152 .08999634 .37780763 .03199768 .31884767 .03199768 .30285646 .03199768 .2848816 .04899597 .2848816 .05999756 .2848816 .07699585 .2848816 .07798767 .28588868 .08699036 .296875 .10598755 .31684876 .1349945 .3408203 .21299744 .3408203H.27598573C.25498963 .27789308 .22499085 .2059784 .15699768 .085128787 .14299011 .061157228 .13999939 .05517578 .13999939 .03918457 .13999939 .008224487 .16499329-.008773804 .19099427-.008773804 .21798706-.008773804 .24499512 .008224487 .2559967 .04019165 .2659912 .06616211 .272995 .09411621 .2809906 .12608338L.33599855 .3408203Z"/>
<path id="font_4_12" d="M.4249878 .37023927C.46699525 .39323426 .5269928 .43023683 .5269928 .5082092 .5269928 .64720156 .36799623 .6582031 .30799867 .6582031 .15899658 .6582031 .084991458 .5782013 .084991458 .4802246 .084991458 .41323854 .1269989 .36024476 .18099976 .33026124 .07699585 .28427125 .050994874 .22128296 .050994874 .1612854 .050994874 .036315919 .1639862-.013671875 .3039856-.013671875 .47599793-.013671875 .5609894 .07531738 .5609894 .18728638 .5609894 .29826356 .46398927 .35025025 .4249878 .37023927M.21499634 .4802246C.19599915 .49021913 .16799927 .5072174 .16799927 .5392151 .16799927 .6021881 .24299622 .6151886 .30299378 .6151886 .3939972 .6151886 .44400025 .5742035 .44400025 .5082092 .44400025 .4702301 .42799378 .43122865 .37199403 .39823915L.21499634 .4802246M.4039917 .21228028C.41999818 .20327759 .46598817 .17929077 .46598817 .1322937 .46598817 .047317506 .36898805 .033325197 .30799867 .033325197 .21099854 .033325197 .1459961 .077316287 .1459961 .1612854 .1459961 .26026917 .23599243 .29826356 .23799134 .29826356 .23999024 .29826356 .27198792 .28126527 .2899933 .27226258L.4039917 .21228028Z"/>
<path id="font_5_1" d="M.8019867 .21617127C.81599429 .21617127 .84999087 .21617127 .84999087 .25016786 .84999087 .2841797 .81599429 .2841797 .8019867 .2841797H.1499939C.13598633 .2841797 .101989749 .2841797 .101989749 .25016786 .101989749 .21617127 .13598633 .21617127 .1499939 .21617127H.8019867Z"/>
<path id="font_4_8" d="M.47399903 .62516787C.47399903 .6561737 .46798707 .6591797 .43899537 .6591797 .41799928 .6591797 .41099549 .6591797 .39898683 .64416506L.033996583 .20605469V.15405274H.34098817V.051986696H.22200012V0C.25898744 .0029907227 .3600006 .0029907227 .40299989 .0029907227 .45098878 .0029907227 .5329895 .0029907227 .5779877 0V.051986696H.47399903V.15405274H.5779877V.20605469H.47399903V.62516787M.35398866 .5151367V.20605469H.09599304L.35398866 .5151367Z"/>
<path id="font_4_7" d="M.28399659 .32714845C.3999939 .32714845 .40098573 .23034668 .40098573 .18035889 .40098573 .13534546 .40098573 .033325197 .28799439 .033325197 .2669983 .033325197 .20999146 .036315919 .1599884 .068359378 .1769867 .0753479 .21299744 .09635925 .21299744 .14535523 .21299744 .19335938 .1789856 .22634888 .13198853 .22634888 .08799744 .22634888 .050994874 .1963501 .050994874 .14434815 .050994874 .047332765 .15499878-.013671875 .29299928-.013671875 .4889984-.013671875 .5609894 .09234619 .5609894 .1793518 .5609894 .26127626 .49798585 .32914735 .3899994 .35313417 .4169922 .36413575 .5269928 .40715028 .5269928 .51615908 .5269928 .59617617 .44499208 .6582031 .29599 .6582031 .1659851 .6582031 .084991458 .58917239 .084991458 .50717166 .084991458 .45115663 .1289978 .4311676 .15899658 .4311676 .19898987 .4311676 .23298645 .45916749 .23298645 .5051575 .23298645 .52716067 .22499085 .5651703 .1769867 .5771637 .22099304 .6151886 .2809906 .6151886 .2899933 .6151886 .3829956 .6151886 .3829956 .5491638 .3829956 .51916506 .3829956 .4471588 .34899903 .41015626 .34599305 .40615846 .31698609 .37513734 .29899598 .3741455 .24499512 .37113954 .21398926 .36914063 .20399475 .36813355 .20399475 .34814454 .20399475 .32714845 .21699524 .32714845 .23498535 .32714845H.28399659Z"/>
<path id="font_4_6" d="M.5509949 .2280426H.49499513C.4869995 .16200257 .47399903 .14199829 .46798707 .13899231 .45700074 .1329956 .37998963 .1329956 .36299134 .1329956H.22499085C.35899354 .23805237 .41299439 .2680664 .45599366 .30108644 .526001 .35612489 .5509949 .40615846 .5509949 .46316529 .5509949 .58117678 .44198609 .6582031 .2899933 .6582031 .1619873 .6582031 .06098938 .6011963 .06098938 .50717166 .06098938 .4481659 .10899353 .4291687 .13699341 .4291687 .17199707 .4291687 .21398926 .4541626 .21398926 .50616458 .21398926 .5531616 .17999268 .5721588 .16699219 .5771637 .19499207 .5981903 .23498535 .6062012 .2659912 .6062012 .35598756 .6062012 .4059906 .5391693 .4059906 .4621582 .4059906 .38113404 .35299684 .31410218 .2939911 .25906373L.07299805 .052993776C.06199646 .041992189 .06098938 .040985109 .06098938 .020996094V0H.5179901L.5509949 .2280426Z"/>
<path id="font_4_5" d="M.3789978 .62413027C.3789978 .6582031 .37298585 .6582031 .33299256 .6582031 .27198792 .61006167 .19198609 .5939789 .11399841 .5939789H.09199524V.5419922H.11399841C.13999939 .5419922 .19400025 .5449829 .2519989 .5619812V.051986696H.101989749V0C.13798523 .0029907227 .269989 .0029907227 .31498719 .0029907227 .3600006 .0029907227 .48999024 .0029907227 .5269928 0V.051986696H.3789978V.62413027Z"/>
<path id="font_4_9" d="M.17599488 .5010834C.20799256 .49609376 .24198914 .49609376 .24798584 .49609376 .27398683 .49609376 .34199525 .49609376 .4169922 .54408267 .44299317 .56108096 .5029907 .611084 .5029907 .63708499 .5029907 .65208438 .49499513 .65808108 .4850006 .65808108 .48298646 .65808108 .48098756 .65808108 .46998597 .65309146 .42099 .63609316 .3619995 .6260834 .30699159 .6260834 .2619934 .6260834 .20498657 .6320801 .13999939 .65408328 .13198853 .65808108 .12998963 .65808108 .1269989 .65808108 .10998535 .65808108 .10998535 .64108279 .10998535 .62709048V.33319093C.10998535 .3142395 .10998535 .29927064 .13699341 .29927064 .1519928 .29927064 .15499878 .30126954 .16499329 .31323243 .20498657 .36112977 .2669983 .3701172 .30599977 .3701172 .4019928 .3701172 .4019928 .27931214 .4019928 .20341492 .4019928 .13441468 .4019928 .033325197 .27198792 .033325197 .21998596 .033325197 .16999817 .055358888 .14299011 .089416507 .18499756 .09541321 .20498657 .12741089 .20498657 .16041565 .20498657 .2064209 .16899109 .23242188 .1329956 .23242188 .101989749 .23242188 .06098938 .2124176 .06098938 .15841675 .06098938 .068374637 .1459961-.013671875 .27598573-.013671875 .45399476-.013671875 .5509949 .08340454 .5509949 .20141602 .5509949 .31323243 .47099305 .41210938 .30999757 .41210938 .2619934 .41210938 .21598816 .4031067 .17599488 .3781128V.5010834Z"/>
<path id="font_4_1" d="M.40699769-.23200989C.40699769-.2250061 .4039917-.22200012 .3919983-.21200562 .2649994-.09700012 .21998596 .07798767 .21998596 .25 .21998596 .42099 .2630005 .59599307 .3899994 .70899966 .4059906 .723999 .40699769 .72499087 .40699769 .7319946 .40699769 .74198916 .40098573 .75 .38598634 .75 .36698915 .75 .31399537 .70500186 .2939911 .6859894 .16899109 .56199648 .11399841 .4099884 .11399841 .25 .11399841 .16099549 .13198853 .039993287 .20599365-.07800293 .2689972-.17800904 .3639984-.25 .38598634-.25 .40098573-.25 .40699769-.2420044 .40699769-.23200989Z"/>
<path id="font_4_4" d="M.56399539 .31925965C.56399539 .4352417 .5549927 .6582031 .30599977 .6582031 .055999757 .6582031 .04798889 .4332428 .04798889 .31925965 .04798889 .20729065 .054992677-.013671875 .30599977-.013671875 .55799868-.013671875 .56399539 .20828247 .56399539 .31925965M.30599977 .028320313C.2789917 .028320313 .25099183 .03831482 .22999573 .05531311 .19799805 .08331299 .18299866 .0973053 .18299866 .33125306 .18299866 .40324403 .18299866 .4762268 .19299317 .5262146 .20599365 .5971985 .2679901 .6161957 .30599977 .6161957 .32998658 .6161957 .4059906 .610199 .42099 .515213 .42900086 .4662323 .42900086 .3892517 .42900086 .33125306 .42900086 .10231018 .4149933 .08830261 .38398744 .05831909 .37599183 .049316408 .34799195 .028320313 .30599977 .028320313Z"/>
<path id="font_3_3" d="M.22099304 .016998291C.21199036-.08493042 .1519928-.1348877 .1309967-.15187073 .11999512-.15986634 .115997318-.16287232 .115997318-.17185974 .115997318-.18086243 .12799073-.19386292 .13899231-.19386292 .15499878-.19386292 .2639923-.106918338 .2639923 .03199768 .2639923 .10499573 .22698975 .1599884 .16899109 .1599884 .12199402 .1599884 .08999634 .12399292 .08999634 .07998657 .08999634 .038986207 .11898804 0 .16999817 0 .18998719 0 .20899964 .0069885256 .22099304 .016998291Z"/>
<path id="font_4_2" d="M.36099244 .25C.36099244 .33898927 .34298707 .45999146 .2689972 .5779877 .20599365 .6779938 .11099243 .75 .08898926 .75 .07199097 .75 .067993167 .7389984 .067993167 .7319946 .067993167 .72499087 .07199097 .72099307 .08299255 .71199038 .20999146 .5970001 .25498963 .42199708 .25498963 .25 .25498963 .07899475 .21199036-.0960083 .084991458-.2090149 .07299805-.22000122 .067993167-.22401428 .067993167-.23200989 .067993167-.23901367 .07199097-.25 .08898926-.25 .10798645-.25 .16099549-.20500183 .18099976-.18600464 .30599977-.06201172 .36099244 .08999634 .36099244 .25Z"/>
<path id="font_6_3" d="M.7709961 .3310547C.7859955 .3310547 .81199648 .3310547 .81199648 .35905458 .81199648 .38604737 .7849884 .38604737 .7719879 .38604737H.101989749C.08898926 .38604737 .06199646 .38604737 .06199646 .35905458 .06199646 .3310547 .08799744 .3310547 .102996829 .3310547H.7709961M.7719879 .112960819C.7849884 .112960819 .81199648 .112960819 .81199648 .13995362 .81199648 .16796875 .7859955 .16796875 .7709961 .16796875H.102996829C.08799744 .16796875 .06199646 .16796875 .06199646 .13995362 .06199646 .112960819 .08898926 .112960819 .101989749 .112960819H.7719879Z"/>
<path id="font_6_4" d="M.46798707 .117126468C.46798707 .12913513 .45700074 .12913513 .44699098 .12913513 .43099977 .12913513 .42999269 .12812805 .4249878 .11613464 .41799928 .09713745 .3909912 .030136109 .29899598 .030136109 .1579895 .030136109 .1579895 .1821289 .1579895 .22712708 .1579895 .28611756 .15899658 .41711427 .2899933 .41711427 .29699708 .41711427 .35598756 .41511537 .35598756 .41011048 .35598756 .40911866 .35499574 .40811158 .35299684 .40711976 .34999085 .40411378 .33699037 .38911439 .33699037 .36412049 .33699037 .32211305 .37098695 .30511476 .3959961 .30511476 .4169922 .30511476 .45498658 .31811524 .45498658 .3651123 .45498658 .44711305 .33999635 .453125 .28599549 .453125 .10798645 .453125 .037994386 .33711244 .037994386 .22212219 .037994386 .086135867 .1329956-.005859375 .27999879-.005859375 .43699647-.005859375 .46798707 .11012268 .46798707 .117126468Z"/>
<path id="font_6_7" d="M.5299988 .21913147C.5299988 .35412599 .43798829 .453125 .2809906 .453125 .117996219 .453125 .0309906 .3491211 .0309906 .21913147 .0309906 .088134769 .12298584-.005859375 .27999879-.005859375 .44299317-.005859375 .5299988 .09312439 .5299988 .21913147M.2809906 .030136109C.15098572 .030136109 .15098572 .14712525 .15098572 .22912598 .15098572 .27612306 .15098572 .3261261 .16999817 .36212159 .19198609 .40211488 .23699951 .42012025 .27999879 .42012025 .33699037 .42012025 .37298585 .39311219 .3899994 .3651123 .4099884 .32911683 .4099884 .27713014 .4099884 .22912598 .4099884 .14613343 .4099884 .030136109 .2809906 .030136109Z"/>
<path id="font_6_8" d="M.3769989 .42712403C.3769989 .44612123 .3769989 .453125 .3619995 .453125 .35598756 .453125 .35398866 .453125 .33898927 .4441223 .33499146 .44111634 .32398988 .43411256 .31900025 .43112184 .29100038 .44711305 .2539978 .453125 .21798706 .453125 .18798828 .453125 .037994386 .453125 .037994386 .32312013 .037994386 .21812439 .1619873 .19612122 .19299317 .19113159 .21998596 .18612671 .25299073 .18013 .25698854 .18013 .29699708 .17112732 .33699037 .14613343 .33699037 .10412598 .33699037 .027130127 .24598694 .027130127 .22499085 .027130127 .17399597 .027130127 .11099243 .043136598 .08299255 .14012146 .07699585 .16012573 .07598877 .16113281 .05899048 .16113281 .037994386 .16113281 .037994386 .15812683 .037994386 .13513184V.020126343C.037994386 .0011291504 .037994386-.005859375 .052993776-.005859375 .05999756-.005859375 .06199646-.005859375 .08198547 .010131836L.10798645 .029129029C.15299988-.005859375 .20698548-.005859375 .22499085-.005859375 .27999879-.005859375 .40499879 .006134033 .40499879 .13912964 .40499879 .18713379 .3789978 .22012329 .35899354 .23812866 .31799317 .27212525 .28399659 .27812196 .22999573 .28811646 .1659851 .29911805 .10598755 .31011964 .10598755 .35812379 .10598755 .42311097 .19499207 .42311097 .21598816 .42311097 .32699586 .42311097 .33299256 .3531189 .33499146 .328125 .33599855 .3151245 .34399415 .3151245 .35598756 .3151245 .3769989 .3151245 .3769989 .31811524 .3769989 .3411255V.42712403Z"/>
<path id="font_6_2" d="M.43299867 .15718079H.5299988V.20019531H.43299867V.62919619C.43299867 .65419009 .43199159 .6582031 .40699769 .6582031 .3889923 .6582031 .3869934 .6582031 .375 .6431885L.0309906 .20019531V.15718079H.31498719V.042999269H.20599365V0C.23498535 .0019989014 .33399964 .0019989014 .36999513 .0019989014 .4039917 .0019989014 .5029907 .0019989014 .5299988 0V.042999269H.43299867V.15718079M.32398988 .5181885V.20019531H.07699585L.32398988 .5181885Z"/>
<path id="font_7_4" d="M.59498599 .3731079C.598999 .38909913 .598999 .394104 .598999 .3981018 .598999 .4320984 .57199099 .44410707 .5509949 .44410707 .49798585 .44410707 .48599244 .3961029 .47898866 .3701172L.45298768 .26612855C.43899537 .21113587 .42599488 .15615845 .41099549 .10116577 .4099884 .09416199 .3659973 .032180787 .30099488 .032180787 .2579956 .032180787 .23799134 .057174684 .23799134 .10417175 .23799134 .16314698 .27198792 .24913025 .29899598 .3171234 .30499269 .33111573 .31098939 .3461151 .31098939 .36210633 .31098939 .41410829 .25898744 .45210267 .19299317 .45210267 .08699036 .45210267 .032989503 .32011415 .032989503 .29612733 .032989503 .28112794 .04699707 .28112794 .05899048 .28112794 .07499695 .28112794 .07998657 .28112794 .083999637 .29512025 .11898804 .4091034 .1769867 .41210938 .18699646 .41210938 .19299317 .41210938 .20399475 .41210938 .20399475 .3901062 .20399475 .36810304 .19299317 .3421173 .18798828 .32911683 .147995 .22813416 .12799073 .17315674 .12799073 .12416077 .12799073 .0231781 .20899964-.0078125 .29299928-.0078125 .30899049-.0078125 .34700013-.0078125 .3919983 .02218628 .36999513-.08416748 .29599-.16210938 .21598816-.16210938 .21398926-.16210938 .18499756-.16210938 .16099549-.15216065 .18399048-.14016724 .20399475-.11515808 .20399475-.0851593 .20399475-.04916382 .17599488-.03515625 .1519928-.03515625 .10899353-.03515625 .07598877-.07316589 .07598877-.11416626 .07598877-.17111206 .13699341-.20211792 .21598816-.20211792 .33799745-.20211792 .47099305-.123168949 .5009918-.0018157959L.59498599 .3731079Z"/>
<path id="font_2_13" d="M.80799868 .33398438C.82199099 .33398438 .8529968 .33398438 .8529968 .36598207 .8529968 .39797975 .82199099 .39797975 .8089905 .39797975H.10998535C.09700012 .39797975 .06599426 .39797975 .06599426 .36598207 .06599426 .33398438 .09799194 .33398438 .11099243 .33398438H.80799868M.8089905 .102005008C.82199099 .102005008 .8529968 .102005008 .8529968 .13400269 .8529968 .16601563 .82099917 .16601563 .80799868 .16601563H.11099243C.09799194 .16601563 .06599426 .16601563 .06599426 .13400269 .06599426 .102005008 .09700012 .102005008 .10998535 .102005008H.8089905Z"/>
<path id="font_8_75" d="M.95899966-.0002746582V.048721315H.8909912V.30471803C.8909912 .42271424 .81999209 .4497223 .7319946 .4497223 .6279907 .4497223 .57699587 .38671876 .55799868 .3557129 .5359955 .4457245 .44799806 .4497223 .4039917 .4497223 .27999879 .4497223 .23098755 .35972596 .22399903 .34472657H.22299195V.4497223L.049987794 .44172669V.39271546C.10998535 .39271546 .117996219 .39271546 .117996219 .353714V.048721315H.049987794V-.0002746582L.17599488 .0027160645 .30299378-.0002746582V.048721315H.23498535V.25372315C.23498535 .36471559 .32699586 .40971376 .3869934 .40971376 .4249878 .40971376 .44599916 .38972474 .44599916 .3137207V.048721315H.37799073V-.0002746582L.5039978 .0027160645 .6309967-.0002746582V.048721315H.5629883V.25372315C.5629883 .36471559 .6549988 .40971376 .71499636 .40971376 .7529907 .40971376 .7739868 .38972474 .7739868 .3137207V.048721315H.70599368V-.0002746582L.83200076 .0027160645 .95899966-.0002746582Z"/>
<path id="font_8_66" d="M.2919922 0V.04899597H.23098755V.4501953L.054992677 .4423828V.39337159C.11299133 .39337159 .11999512 .39337159 .11999512 .3543396V.04899597H.051986696V0C.11898804 .0019989014 .13198853 .0029907227 .17399597 .0029907227 .22299195 .0029907227 .23599243 .0019989014 .2919922 0M.24198914 .6053314C.24198914 .65234377 .20399475 .68434146 .1639862 .68434146 .12199402 .68434146 .085998538 .6503296 .085998538 .6063385 .085998538 .55934146 .12399292 .52734377 .1639862 .52734377 .20599365 .52734377 .24198914 .56134036 .24198914 .6053314Z"/>
<path id="font_8_47" d="M.61499026 0V.04899597C.5549927 .04899597 .5469971 .04899597 .5469971 .088012699V.69433596L.36799623 .6855469V.63653567C.42799378 .63653567 .43598939 .63653567 .43598939 .5976715V.40518189C.3919983 .43719483 .34498597 .4501953 .29699708 .4501953 .13398743 .4501953 .038986207 .35118104 .038986207 .22216797 .038986207 .089141849 .1329956-.005859375 .2849884-.005859375 .34799195-.005859375 .397995 .018127442 .42999269 .044128419V-.005859375L.61499026 0M.42999269 .10899353C.4079895 .074142459 .3600006 .03413391 .29599 .03413391 .17199707 .03413391 .17199707 .15414429 .17199707 .22015381 .17199707 .27816773 .17298889 .32118226 .19898987 .3581848 .22499085 .39819337 .272995 .41018678 .30799867 .41018678 .35798646 .41018678 .39898683 .3881836 .42999269 .34918214V.10899353Z"/>
<path id="font_8_72" d="M.29899598 0V.04899597H.23098755V.69433596L.051986696 .6855469V.63653567C.11199951 .63653567 .11999512 .63653567 .11999512 .5975647V.04899597H.051986696V0L.1749878 .0029907227 .29899598 0Z"/>
<path id="font_8_77" d="M.6299896-.0002746582V.048721315H.56199648V.30471803C.56199648 .4237213 .48999024 .4497223 .40299989 .4497223 .27999879 .4497223 .23098755 .35972596 .22399903 .34472657H.22299195V.4497223L.049987794 .44172669V.39271546C.10998535 .39271546 .117996219 .39271546 .117996219 .353714V.048721315H.049987794V-.0002746582L.17599488 .0027160645 .30299378-.0002746582V.048721315H.23498535V.25372315C.23498535 .36572267 .32699586 .40971376 .3869934 .40971376 .4249878 .40971376 .44499208 .38871766 .44499208 .3137207V.048721315H.3769989V-.0002746582L.5029907 .0027160645 .6299896-.0002746582Z"/>
<path id="font_8_50" d="M.5089874 .11605835C.5089874 .13604737 .4889984 .13604737 .48298646 .13604737 .46499635 .13604737 .46299745 .13005066 .45700074 .11605835 .43399049 .06410217 .37298585 .037139894 .30999757 .037139894 .16799927 .037139894 .1659851 .16601563 .1659851 .21496582H.47599793C.49699403 .21496582 .5089874 .21496582 .5089874 .2429657 .5089874 .26498414 .5069885 .35305787 .44198609 .4071045 .39698792 .4441223 .33699037 .453125 .28799439 .453125 .116989139 .453125 .032989503 .345047 .032989503 .22497559 .032989503 .09408569 .13198853-.005859375 .3019867-.005859375 .46699525-.005859375 .5089874 .1000824 .5089874 .11605835M.41099549 .25097657H.1659851C.16799927 .29701234 .17298889 .41311646 .28799439 .41311646 .40499879 .41311646 .40899659 .29100038 .41099549 .25097657Z"/>
<path id="font_9_28" d="M.71598818 .034179689C.71598818 .06712341 .69898989 .06712341 .6779938 .06712341H.6719971C.6589966 .06712341 .621994 .06712341 .6009979 .07710266V.28977967C.6009979 .36997987 .5379944 .4560547 .32499696 .4560547 .2539978 .4560547 .10598755 .4560547 .10598755 .34791566 .10598755 .2998047 .14099121 .27172853 .18099976 .27172853 .22499085 .27172853 .2559967 .30381776 .2559967 .34692384 .2559967 .36395265 .25099183 .38000489 .24198914 .3920288 .2789917 .40003968 .30899049 .40003968 .32598878 .40003968 .41600038 .40003968 .46798707 .3659668 .46798707 .28677369V.2677307C.45498658 .26672364 .35198976 .26872254 .25299073 .25071717 .13398743 .22871399 .057998659 .19378662 .057998659 .11997986 .057998659-.0078125 .25099183-.0078125 .2899933-.0078125 .3880005-.0078125 .46099855 .015182495 .49198915 .060150148 .5 .00018310547 .56999209 .00018310547 .644989 .00018310547 .70899966 .00018310547 .71598818 .00018310547 .71598818 .034179689M.46798707 .13294983C.46798707 .10902405 .46798707 .08308411 .4169922 .06413269 .37599183 .048187257 .32299806 .048187257 .31698609 .048187257 .24598694 .048187257 .19099427 .07510376 .19099427 .12098694 .19099427 .20974732 .41999818 .21772766 .46798707 .21972656V.13294983Z"/>
<path id="font_9_75" d="M1.1799927 0V.066986087H1.1080017V.29508973C1.1080017 .44114686 .98999026 .45214845 .91400149 .45214845 .84999087 .45214845 .7630005 .43914796 .69699099 .3571167 .6689911 .42913819 .6100006 .45214845 .5109863 .45214845 .37199403 .45214845 .30799867 .38012696 .2849884 .3451233V.45214845L.09700012 .44433595V.3773346C.16099549 .3773346 .16899109 .3773346 .16899109 .33828736V.066986087H.09700012V0L.23599243 .0039978029C.272995 .0039978029 .32998658 .0029907227 .37399293 0V.066986087H.3019867V.2421875C.3019867 .36412049 .4269867 .39613343 .4869995 .39613343 .5509949 .39613343 .57199099 .37213136 .57199099 .29708863V.066986087H.5V0L.6389923 .0039978029C.6759949 .0039978029 .73298647 .0029907227 .7769928 0V.066986087H.7049866V.24206543C.7049866 .36412049 .8299866 .39613343 .8899994 .39613343 .95399478 .39613343 .97499087 .37213136 .97499087 .29708863V.066986087H.9029999V0L1.0419922 .0039978029C1.0789948 .0039978029 1.1360016 .0029907227 1.1799927 0Z"/>
<path id="font_9_84" d="M.7739868 .22314453C.7739868 .33114625 .69299319 .45214845 .48399354 .45214845 .44499208 .45214845 .36099244 .44914247 .2809906 .4081421V.45214845L.083999637 .44433595V.3773346H.100997928C.1559906 .3773346 .1559906 .37132264 .1559906 .3433075V-.12695313H.083999637V-.19395447L.22200012-.18995667 .36099244-.19395447V-.12695313H.2889862V.03718567C.31698609 .020187378 .375-.0078125 .45999146-.0078125 .6689911-.0078125 .7739868 .10119629 .7739868 .22325135V.22314453M.6239929 .22225952C.6239929 .112213138 .5499878 .048187257 .44499208 .048187257 .397995 .048187257 .33799745 .063186649 .2889862 .1282196V.32730104C.33999635 .3801422 .41799928 .39013673 .45799256 .39013673 .56799319 .39013673 .6239929 .31814576 .6239929 .22213745V.22225952Z"/>
<path id="font_9_72" d="M.36999513 0V.066986087H.2979889V.69433596L.100997928 .6855469V.61854556C.16499329 .61854556 .17298889 .61854556 .17298889 .5795746V.066986087H.100997928V0C.1459961 .0029907227 .18998719 .0039978029 .23498535 .0039978029 .23899842 .0039978029 .31698609 .0039978029 .36999513 0Z"/>
<path id="font_9_66" d="M.36299134 0V.066986087H.2979889V.45214845L.10398865 .44433595V.3773346C.1659851 .3773346 .17298889 .3773346 .17298889 .33828736V.066986087H.100997928V0C.14498902 .0029907227 .18998719 .0039978029 .23399353 .0039978029 .2769928 .0039978029 .31999208 .0029907227 .36299134 0M.3039856 .60250857C.3039856 .6505127 .2639923 .68652346 .21798706 .68652346 .16999817 .68652346 .13198853 .6485138 .13198853 .6035156 .13198853 .5555115 .17199707 .519516 .21798706 .519516 .2659912 .519516 .3039856 .5575104 .3039856 .60250857Z"/>
<path id="font_9_105" d="M.49899293 .1191864V.1671753H.41600038V.123184207C.41600038 .093185428 .4059906 .05418396 .34799195 .05418396 .2849884 .054092409 .2849884 .09408569 .2849884 .12109375V.3773346H.47499085V.44433595H.2849884V.6357422H.20199585C.19999695 .53352358 .1459961 .43632508 .04399109 .43333436V.3773346H.1519928V.11820984C.1519928 .0051727297 .26098634-.0078125 .32598878-.0078125 .39898683-.0078125 .49899293 .018173218 .49899293 .11921692V.1191864Z"/>
<path id="font_9_109" d="M.776001 .00018310547V.06718445C.71199038 .06718445 .70399478 .06718445 .70399478 .106170658V.45214845L.49899293 .44433595V.3773346C.5629883 .3773346 .57099917 .3773346 .57099917 .3383026V.15823365C.57099917 .06518555 .47399903 .048187257 .4059906 .048187257 .3019867 .048187257 .3019867 .06819153 .3019867 .112213138V.45214845L.09700012 .44433595V.3773346C.16099549 .3773346 .16899109 .3773346 .16899109 .3383026V.11820984C.16899109 .0021820069 .2899933-.0078125 .3849945-.0078125 .4189911-.0078125 .5139923-.0078125 .57899478 .05718994V-.0078125L.776001 .00018310547Z"/>
<path id="font_9_47" d="M.7549896 .00018310547V.06718445C.69099429 .06718445 .68299868 .06718445 .68299868 .10618591V.69433596L.48599244 .6855469V.61854556C.5499878 .61854556 .55799868 .61854556 .55799868 .5796814V.41114808C.5179901 .43214417 .45700074 .45214845 .37799073 .45214845 .1639862 .45214845 .06498718 .34014894 .06498718 .22116089 .06498718 .11216736 .1519928-.0078125 .3639984-.0078125 .44099427-.0078125 .5039978 .013183594 .5499878 .04118347V-.0078125L.7549896 .00018310547M.5499878 .13198853C.5 .06817627 .43499757 .048187257 .37799073 .048187257 .21499634 .048187257 .21499634 .16716004 .21499634 .22015381 .21499634 .27415467 .21499634 .39613343 .3929901 .39613343 .43699647 .39613343 .4869995 .3851471 .5289917 .3511505 .5499878 .33415223 .5499878 .33314515 .5499878 .31315614V.13198853Z"/>
<path id="font_9_50" d="M.6349945 .11022949C.6349945 .1352539 .61099246 .1352539 .5970001 .1352539H.58999636C.57099917 .1352539 .5629883 .1352539 .55400088 .12124634 .5439911 .10221863 .5159912 .05418396 .4099884 .05418396 .2829895 .05418396 .21699524 .10322571 .20799256 .19726563H.5970001C.61698916 .19726563 .6349945 .19726563 .6349945 .22921753 .6349945 .2871704 .61299136 .35508729 .57099917 .39305116 .5249939 .43304444 .46499635 .4560547 .3659973 .4560547 .14199829 .4560547 .056991579 .33311463 .056991579 .2262268 .056991579 .12023926 .14199829-.0078125 .3869934-.0078125 .4119873-.0078125 .48098756-.0078125 .54100039 .016174317 .60899356 .04335022 .6349945 .096343997 .6349945 .11035156V.11022949M.5339966 .24804688H.20799256C.20899964 .28404237 .21099854 .40003968 .36698915 .40003968 .5029907 .40003968 .5289917 .31504823 .5339966 .24804688Z"/>
<path id="font_9_82" d="M.6399994 0V.066986087H.45899964V.6232147C.45899964 .6541443 .45298768 .6611328 .42099 .6611328H.3999939C.31498719 .5972595 .18598938 .5972595 .16299439 .5972595H.13598633V.53027346H.16299439C.1749878 .53027346 .2519989 .53027346 .32499696 .55526736V.066986087H.14399719V0C.19299317 .0039978029 .33499146 .0039978029 .3919983 .0039978029 .44898988 .0039978029 .59098818 .0039978029 .6399994 0Z"/>
<path id="font_10_84" d="M.59999087 .22319031C.59999087 .3561859 .5089874 .4501953 .36499024 .4501953 .2899933 .4501953 .23699951 .41918946 .21398926 .40118409V.4501953L.036987306 .4423828V.39537049C.09899902 .39537049 .10598755 .39537049 .10598755 .3573761V-.14648438H.036987306V-.1934967L.16299439-.19049073 .2889862-.1934967V-.14648438H.21998596V.03945923C.2630005 .004135132 .30699159-.005859375 .34799195-.005859375 .49798585-.005859375 .59999087 .08413696 .59999087 .22312927V.22319031M.47200013 .22312927C.47200013 .08213806 .4019928 .030136109 .33699037 .030136109 .32299806 .030136109 .27598573 .030136109 .23098755 .08413696 .21998596 .09713745 .21998596 .09812927 .21998596 .117126468V.32913209C.21998596 .34814454 .22099304 .3491516 .23498535 .36314393 .2749939 .4041443 .32699586 .41015626 .34899903 .41015626 .41600038 .41015626 .47200013 .3491516 .47200013 .22314453V.22312927Z"/>
<path id="font_10_50" d="M.49398805 .11706543C.49398805 .13504029 .47499085 .13504029 .46998597 .13504029 .45298768 .13504029 .45098878 .13005066 .44499208 .11405945 .42399598 .066101077 .36698915 .03413391 .3019867 .03413391 .16099549 .03413391 .1599884 .16700745 .1599884 .2179718H.46199037C.48399354 .2179718 .49398805 .2179718 .49398805 .2449646 .49398805 .27598573 .48799134 .34906007 .43798829 .3991089 .40098573 .43511964 .34799195 .453125 .2789917 .453125 .11898804 .453125 .03199768 .35005189 .03199768 .22497559 .03199768 .09107971 .13198853-.005859375 .29299928-.005859375 .45098878-.005859375 .49398805 .10006714 .49398805 .11706543M.39898683 .25097657H.1599884C.1619873 .29000855 .16299439 .3320465 .18399048 .36506654 .20999146 .4051056 .25 .41711427 .2789917 .41711427 .3959961 .41711427 .397995 .28599549 .39898683 .25097657Z"/>
<path id="font_10_96" d="M.44198609 .36819459C.44198609 .42118836 .3880005 .4501953 .33599855 .4501953 .2659912 .4501953 .22599793 .40019227 .20298767 .33718873V.4501953L.036987306 .4423828V.39537049C.09899902 .39537049 .10598755 .39537049 .10598755 .3563385V.04699707H.036987306V0L.16299439 .0029907227C.20098877 .0029907227 .2649994 .0029907227 .30099488 0V.04699707H.21398926V.22218323C.21398926 .29226686 .23899842 .41436769 .33898927 .41436769 .33898927 .41436769 .31999208 .39736939 .31999208 .36834718 .31999208 .32730104 .35198976 .3072815 .3809967 .3072815 .4099884 .3072815 .44198609 .3283081 .44198609 .36834718V.36819459Z"/>
<path id="font_10_66" d="M.28599549 0V.04699707H.22399903V.4501953L.049987794 .4423828V.39537049C.10899353 .39537049 .115997318 .39537049 .115997318 .3563385V.04699707H.04699707V0L.16899109 .0029907227 .28599549 0M.23799134 .60728457C.23799134 .6502838 .20298767 .6852875 .1599884 .6852875 .116989139 .6852875 .08198547 .6502838 .08198547 .60728457 .08198547 .5642853 .116989139 .5292969 .1599884 .5292969 .20298767 .5292969 .23799134 .5642853 .23799134 .60728457Z"/>
<path id="font_10_81" d="M.5419922 .21812439C.5419922 .35212709 .44999696 .453125 .2869873 .453125 .12298584 .453125 .03199768 .35112 .03199768 .21812439 .03199768 .09413147 .11999512-.005859375 .2869873-.005859375 .45498658-.005859375 .5419922 .09512329 .5419922 .21812439M.4139862 .22912598C.4139862 .14213562 .4139862 .03413391 .2869873 .03413391 .1599884 .03413391 .1599884 .14213562 .1599884 .22912598 .1599884 .27412416 .1599884 .32511903 .1769867 .3591156 .19599915 .39611817 .23799134 .41711427 .2869873 .41711427 .32899476 .41711427 .37098695 .40112306 .3929901 .36611939 .4139862 .3321228 .4139862 .27713014 .4139862 .22912598Z"/>
<path id="font_10_47" d="M.6009979 0V.04699707C.5389862 .04699707 .5319977 .04699707 .5319977 .086013797V.69433596L.35499574 .6855469V.63853457C.4169922 .63853457 .42399598 .63853457 .42399598 .5996704V.40518189C.37399293 .44418336 .32199098 .4501953 .2889862 .4501953 .14299011 .4501953 .037994386 .36218263 .037994386 .22116089 .037994386 .089141849 .12998963-.005859375 .27799989-.005859375 .33898927-.005859375 .3869934 .018127442 .41799928 .043136598V-.005859375L.6009979 0M.41799928 .102996829C.40499879 .08514404 .3639984 .030136109 .28799439 .030136109 .1659851 .030136109 .1659851 .15115357 .1659851 .22116089 .1659851 .26916505 .1659851 .3231659 .19198609 .36218263 .22099304 .40419007 .2679901 .41418458 .29899598 .41418458 .35598756 .41418458 .3959961 .3821869 .41799928 .35317994V.102996829Z"/>
<path id="font_1_1" d="M.31199647 .34832765H.42399598C.4019928 .2552948 .3909912 .1942749 .3909912 .1352539 .3909912 .067230228 .40899659-.0087890629 .45700074-.0087890629 .48999024-.0087890629 .526001 .02420044 .526001 .05621338 .526001 .068222049 .522995 .07423401 .5139923 .0892334 .46798707 .17025757 .46798707 .24728394 .46798707 .27430726 .46798707 .29830934 .46798707 .3083191 .47399903 .34832765H.59799197C.61698916 .34832765 .6329956 .34832765 .647995 .36332704 .6549988 .3703308 .66799929 .38232423 .66799929 .40533448 .66799929 .44433595 .6329956 .44433595 .61499026 .44433595H.22200012C.20098877 .44433595 .1579895 .44433595 .10499573 .3963318 .069992069 .3643341 .0309906 .31330873 .0309906 .3033142 .0309906 .28930665 .042999269 .28930665 .053985597 .28930665 .068984989 .28930665 .069992069 .29031373 .07899475 .3013153 .116989139 .34832765 .18299866 .34832765 .20199585 .34832765H.2619934C.23699951 .26930238 .19699097 .18727112 .14299011 .08622742 .1269989 .05621338 .12399292 .051223756 .12399292 .037216188 .12399292 .01020813 .1459961-.007797241 .17199707-.007797241 .19299317-.007797241 .20799256 .0032043458 .21499634 .00920105 .22999573 .02420044 .23098755 .028213501 .23599243 .049209596L.31199647 .34832765Z"/>
<path id="font_11_6" d="M.5169983 .22209168H.46998597C.46699525 .20207215 .45799256 .13800049 .44400025 .1309967 .43299867 .125 .35798646 .125 .34199525 .125H.19499207C.24198914 .16403198 .2939911 .20707703 .33898927 .2401123 .45298768 .3242035 .5169983 .37124635 .5169983 .4663086 .5169983 .5812988 .41299439 .65527346 .27198792 .65527346 .15098572 .65527346 .056991579 .593277 .056991579 .50331118 .056991579 .44430543 .10499573 .42930604 .1289978 .42930604 .16099549 .42930604 .20098877 .4513092 .20098877 .50131228 .20098877 .55329897 .15899658 .5693054 .14399719 .5733032 .17298889 .5972748 .21099854 .6082611 .24699402 .6082611 .33299256 .6082611 .3789978 .54029849 .3789978 .4653015 .3789978 .39627076 .34098817 .3282013 .2709961 .25712586L.069992069 .051986696C.056991579 .039993287 .056991579 .037994386 .056991579 .017990113V0H.48599244L.5169983 .22209168Z"/>
</defs>
<path transform="matrix(1,0,0,-1,119.453998,121.12001)" stroke-width=".79701" stroke-linecap="butt" stroke-miterlimit="10" stroke-linejoin="miter" fill="none" stroke="#000000" d="M-108.72476 0H278.8056"/>
<path transform="matrix(-1,-0,0,1,10.729233,121.12001)" d="M4.66248 0C3.28098 .25902 1.0361 1.0361-.51805 1.94269V-1.94269C1.0361-1.0361 3.28098-.25902 4.66248 0"/>
<path transform="matrix(1,0,0,-1,398.25959,121.12001)" d="M4.66248 0C3.28098 .25902 1.0361 1.0361-.51805 1.94269V-1.94269C1.0361-1.0361 3.28098-.25902 4.66248 0"/>
<use data-text="x" xlink:href="#font_1_7" transform="matrix(9.9626,0,0,-9.9626,406.64103,123.334)"/>
<path transform="matrix(1,0,0,-1,119.453998,121.12001)" stroke-width=".79701" stroke-linecap="butt" stroke-miterlimit="10" stroke-linejoin="miter" fill="none" stroke="#000000" d="M0-107.5909V97.38618"/>
<path transform="matrix(0,1,1,0,119.453998,228.7109)" d="M4.66248 0C3.28098 .25902 1.0361 1.0361-.51805 1.94269V-1.94269C1.0361-1.0361 3.28098-.25902 4.66248 0"/>
<path transform="matrix(0,-1,-1,-0,119.453998,23.733834)" d="M4.66248 0C3.28098 .25902 1.0361 1.0361-.51805 1.94269V-1.94269C1.0361-1.0361 3.28098-.25902 4.66248 0"/>
<use data-text="y" xlink:href="#font_1_8" transform="matrix(9.9626,0,0,-9.9626,116.328998,13.415005)"/>
<use data-text="0" xlink:href="#font_2_4" transform="matrix(8.9664,0,0,-8.9664,120.13899,130.41802)"/>
<use data-text="&#x03c0;" xlink:href="#font_3_1" transform="matrix(7.9701,0,0,-7.9701,160.922,132.434)"/>
<path transform="matrix(1,0,0,-1,112.272998,88.86301)" stroke-width=".3587" stroke-linecap="butt" stroke-miterlimit="10" stroke-linejoin="miter" fill="none" stroke="#000000" d="M48.649-47.129H54.762"/>
<use data-text="8" xlink:href="#font_4_12" transform="matrix(7.9701,0,0,-7.9701,161.538,143.955)"/>
<use data-text="&#x2212;" xlink:href="#font_5_1" transform="matrix(7.9701,0,0,-7.9701,72.548999,137.98401)"/>
<use data-text="&#x03c0;" xlink:href="#font_3_1" transform="matrix(7.9701,0,0,-7.9701,81.338,132.434)"/>
<path transform="matrix(1,0,0,-1,25.095002,88.86301)" stroke-width=".3587" stroke-linecap="butt" stroke-miterlimit="10" stroke-linejoin="miter" fill="none" stroke="#000000" d="M56.243-47.129H62.356"/>
<use data-text="8" xlink:href="#font_4_12" transform="matrix(7.9701,0,0,-7.9701,81.954,143.955)"/>
<path transform="matrix(1,0,0,-1,119.453998,121.12001)" stroke-width=".79701" stroke-linecap="butt" stroke-miterlimit="10" stroke-linejoin="miter" fill="none" stroke="#000000" d="M89.05263 4.08202V-4.08202"/>
<use data-text="&#x03c0;" xlink:href="#font_3_1" transform="matrix(7.9701,0,0,-7.9701,205.449,132.46302)"/>
<path transform="matrix(1,0,0,-1,156.8,88.892009)" stroke-width=".3587" stroke-linecap="butt" stroke-miterlimit="10" stroke-linejoin="miter" fill="none" stroke="#000000" d="M48.649-47.129H54.762"/>
<use data-text="4" xlink:href="#font_4_8" transform="matrix(7.9701,0,0,-7.9701,206.065,143.98401)"/>
<use data-text="3" xlink:href="#font_4_7" transform="matrix(7.9701,0,0,-7.9701,253.205,134.02802)"/>
<use data-text="&#x03c0;" xlink:href="#font_3_1" transform="matrix(7.9701,0,0,-7.9701,258.087,134.02802)"/>
<path transform="matrix(1,0,0,-1,204.556,90.45701)" stroke-width=".3587" stroke-linecap="butt" stroke-miterlimit="10" stroke-linejoin="miter" fill="none" stroke="#000000" d="M48.649-47.129H59.644"/>
<use data-text="8" xlink:href="#font_4_12" transform="matrix(7.9701,0,0,-7.9701,256.262,145.54901)"/>
<path transform="matrix(1,0,0,-1,119.453998,121.12001)" stroke-width=".79701" stroke-linecap="butt" stroke-miterlimit="10" stroke-linejoin="miter" fill="none" stroke="#000000" d="M178.10698 4.08202V-4.08202"/>
<use data-text="&#x03c0;" xlink:href="#font_3_1" transform="matrix(7.9701,0,0,-7.9701,294.504,132.46302)"/>
<path transform="matrix(1,0,0,-1,245.855,88.892009)" stroke-width=".3587" stroke-linecap="butt" stroke-miterlimit="10" stroke-linejoin="miter" fill="none" stroke="#000000" d="M48.649-47.129H54.762"/>
<use data-text="2" xlink:href="#font_4_6" transform="matrix(7.9701,0,0,-7.9701,295.12,143.98401)"/>
<path transform="matrix(1,0,0,-1,119.453998,121.12001)" stroke-width=".79701" stroke-linecap="butt" stroke-miterlimit="10" stroke-linejoin="miter" fill="none" stroke="#000000" d="M5.66966 51.02432H-5.66966"/>
<use data-text="1" xlink:href="#font_4_5" transform="matrix(7.9701,0,0,-7.9701,100.931,72.664)"/>
<path transform="matrix(1,0,0,-1,119.453998,121.12001)" stroke-width=".79701" stroke-linecap="butt" stroke-miterlimit="10" stroke-linejoin="miter" fill="none" stroke="#000000" d="M5.66966-51.02432H-5.66966"/>
<use data-text="&#x2212;" xlink:href="#font_5_1" transform="matrix(7.9701,0,0,-7.9701,93.338,174.13701)"/>
<use data-text="1" xlink:href="#font_4_5" transform="matrix(7.9701,0,0,-7.9701,100.931,174.13701)"/>
<use data-text="5" xlink:href="#font_4_9" transform="matrix(7.9701,0,0,-7.9701,332.047,134.02802)"/>
<use data-text="&#x03c0;" xlink:href="#font_3_1" transform="matrix(7.9701,0,0,-7.9701,336.92903,134.02802)"/>
<path transform="matrix(1,0,0,-1,283.398,90.45701)" stroke-width=".3587" stroke-linecap="butt" stroke-miterlimit="10" stroke-linejoin="miter" fill="none" stroke="#000000" d="M48.649-47.129H59.644"/>
<use data-text="8" xlink:href="#font_4_12" transform="matrix(7.9701,0,0,-7.9701,335.104,145.54901)"/>
<path transform="matrix(1,0,0,-1,119.453998,121.12001)" stroke-width="1.59404" stroke-linecap="butt" stroke-miterlimit="10" stroke-linejoin="miter" fill="none" stroke="#00bfff" d="M-65.67014-34.66591-66.46724-35.66391-64.90143-33.59525-63.33563-31.42459-61.76982-29.15663-60.20409-26.80067-58.63828-24.36218-57.07248-21.84975-55.50667-19.27191-53.94093-16.63489-52.37512-13.94571-50.80933-11.2145-49.24352-8.44978-47.67778-5.65862-46.11197-2.85031-44.54617-.03421-42.98042 2.7818-41.41463 5.58934-39.84882 8.38127-38.28302 11.14754-36.71727 13.87874-35.15146 16.56949-33.58566 19.20805-32.01985 21.78825-30.45412 24.30147-28.8883 26.7415-27.32251 29.10057-25.7567 31.3701-24.19096 33.54388-22.62515 35.61407-21.05936 37.57686-19.4936 39.4252-17.92781 41.15361-16.362 42.75668-14.7962 44.22896-13.23045 45.5642-11.66466 46.76166-10.09885 47.81816-8.53305 48.72754-6.9673 49.48975-5.4015 50.0994-3.8357 50.55562-2.2699 50.85771-.70415 51.0064 .86157 50.99863 2.42738 50.8359 3.99313 50.51747 5.55893 50.04408 7.12474 49.4189 8.69054 48.64268 10.25629 47.7185 11.82208 46.64876 13.3879 45.43808 14.95369 44.08571 16.51944 42.60019 18.08524 40.98544 19.65105 39.24533 21.21678 37.38531 22.7826 35.41167 24.34839 33.32977 25.9142 31.14511 27.47993 28.86621 29.04575 26.50015 30.61154 24.05312 32.17735 21.5321 33.74309 18.94492 35.3089 16.30089 36.8747 13.60626 38.4405 10.87036 40.00624 8.10178 41.57205 5.30824 43.13786 2.49918 44.7036-.31763 46.26941-3.13371 47.8352-5.93967 49.40102-8.72852 50.96675-11.49089 52.53256-14.21822 54.09836-16.90193 55.66417-19.53351 57.2299-22.10669 58.79572-24.61214 60.36151-27.04205 61.92732-29.38864 63.49306-31.64648 65.05887-33.80704 66.62466-35.86559 68.19041-37.81433 69.75621-39.64862 71.32202-41.36151 72.88782-42.94664 74.45357-44.4018 76.01936-45.72226 77.58517-46.90259 79.15097-47.9412 80.71672-48.83109 82.28253-49.57384 83.84833-50.16399 85.41414-50.60233 86.97987-50.88493 88.54568-51.01497 90.11148-50.98695 91.67723-50.8032 93.24303-50.46529 94.80884-49.97403 96.37463-49.33093 97.94038-48.53679 99.50618-47.59314 101.07199-46.50471 102.63779-45.27458 104.20354-43.90665 105.76933-42.40556 107.33514-40.776 108.90094-39.01875 110.46669-37.14397 112.03249-35.15628 113.5983-33.06116 115.16403-30.86638 116.72984-28.57582 118.29564-26.19963 119.86145-23.74089 121.4272-21.21133 122.993-18.61714 124.5588-15.96687 126.1246-13.26678 127.69035-10.52701 129.25615-7.75374 130.82196-4.9571 132.38776-2.1465 133.9535 .66956 135.5193 3.48561 137.08512 6.29002 138.65085 9.07576 140.21666 11.83345 141.78246 14.55612 143.34827 17.23361 144.914 19.85896 146.47982 22.42357 148.04561 24.91963 149.61142 27.33946 151.17716 29.67593 152.74297 31.92209 154.30876 34.07173 155.87458 36.11626 157.44033 38.05023 159.00612 39.86818 160.57193 41.56625 162.13767 43.13664 163.70348 44.57541 165.26927 45.87874 166.83509 47.03958 168.40082 48.05873 169.96663 48.93153 171.53243 49.6556 173.09824 50.22783 174.66397 50.64748 176.22978 50.90987 177.79558 51.01884 179.36139 50.97215 180.92713 50.7697 182.49294 50.41315 184.05873 49.90395 185.62448 49.23904 187.19028 48.42624 188.75609 47.46391 190.32189 46.35834 191.88764 45.11185 193.45343 43.72755 195.01924 42.20937 196.58504 40.5619 198.15079 38.79066 199.7166 36.90184 201.2824 34.90092 202.8482 32.79332 204.41394 30.58453 205.97975 28.28307 207.54555 25.89597 209.1113 23.42868 210.6771 20.89056 212.2429 18.28935 213.8087 15.6313 215.37445 12.9258 216.94025 10.18132 218.50606 7.40497 220.07186 4.60675 221.6376 1.79457 223.2034-1.02223 224.76921-3.83678 226.335-6.63959 227.90076-9.423 229.46656-12.17601 231.03237-14.894 232.5981-17.56529 234.16391-20.18283 235.7297-22.73886 237.29552-25.22641 238.86127-27.63687 240.42707-29.96245 241.99288-32.19693 241.32044-31.2794"/>
<path transform="matrix(-.62413,.78125,.78125,.62413,53.78385,155.78592)" d="M3.78581 0-2.27148 3.02866 0 0-2.27148-3.02866" fill="#00bfff"/>
<path transform="matrix(.59122,.80647,.80647,-.59122,360.7744,152.3994)" d="M3.78581 0-2.27148 3.02866 0 0-2.27148-3.02866" fill="#00bfff"/>
<path transform="matrix(1,0,0,-1,119.453998,121.12001)" d="M2.2545 51.02432C2.2545 52.26947 1.24515 53.27884 0 53.27884-1.24515 53.27884-2.2545 52.26947-2.2545 51.02432-2.2545 49.77917-1.24515 48.7698 0 48.7698 1.24515 48.7698 2.2545 49.77917 2.2545 51.02432ZM0 51.02432"/>
<path transform="matrix(1,0,0,-1,119.453998,121.12001)" stroke-width=".49814" stroke-linecap="butt" stroke-miterlimit="10" stroke-linejoin="miter" fill="none" stroke="#ffffff" d="M2.2545 51.02432C2.2545 52.26947 1.24515 53.27884 0 53.27884-1.24515 53.27884-2.2545 52.26947-2.2545 51.02432-2.2545 49.77917-1.24515 48.7698 0 48.7698 1.24515 48.7698 2.2545 49.77917 2.2545 51.02432ZM0 51.02432"/>
<path transform="matrix(1,0,0,-1,119.453998,121.12001)" d="M46.77995 0C46.77995 1.24515 45.77058 2.2545 44.52544 2.2545 43.28029 2.2545 42.27092 1.24515 42.27092 0 42.27092-1.24515 43.28029-2.2545 44.52544-2.2545 45.77058-2.2545 46.77995-1.24515 46.77995 0ZM44.52544 0"/>
<path transform="matrix(1,0,0,-1,119.453998,121.12001)" stroke-width=".49814" stroke-linecap="butt" stroke-miterlimit="10" stroke-linejoin="miter" fill="none" stroke="#ffffff" d="M46.77995 0C46.77995 1.24515 45.77058 2.2545 44.52544 2.2545 43.28029 2.2545 42.27092 1.24515 42.27092 0 42.27092-1.24515 43.28029-2.2545 44.52544-2.2545 45.77058-2.2545 46.77995-1.24515 46.77995 0ZM44.52544 0"/>
<path transform="matrix(1,0,0,-1,119.453998,121.12001)" d="M91.30714-51.02432C91.30714-49.77917 90.29779-48.7698 89.05263-48.7698 87.80748-48.7698 86.79813-49.77917 86.79813-51.02432 86.79813-52.26947 87.80748-53.27884 89.05263-53.27884 90.29779-53.27884 91.30714-52.26947 91.30714-51.02432ZM89.05263-51.02432"/>
<path transform="matrix(1,0,0,-1,119.453998,121.12001)" stroke-width=".49814" stroke-linecap="butt" stroke-miterlimit="10" stroke-linejoin="miter" fill="none" stroke="#ffffff" d="M91.30714-51.02432C91.30714-49.77917 90.29779-48.7698 89.05263-48.7698 87.80748-48.7698 86.79813-49.77917 86.79813-51.02432 86.79813-52.26947 87.80748-53.27884 89.05263-53.27884 90.29779-53.27884 91.30714-52.26947 91.30714-51.02432ZM89.05263-51.02432"/>
<path transform="matrix(1,0,0,-1,119.453998,121.12001)" d="M135.83429 0C135.83429 1.24515 134.82492 2.2545 133.57978 2.2545 132.33463 2.2545 131.32526 1.24515 131.32526 0 131.32526-1.24515 132.33463-2.2545 133.57978-2.2545 134.82492-2.2545 135.83429-1.24515 135.83429 0ZM133.57978 0"/>
<path transform="matrix(1,0,0,-1,119.453998,121.12001)" stroke-width=".49814" stroke-linecap="butt" stroke-miterlimit="10" stroke-linejoin="miter" fill="none" stroke="#ffffff" d="M135.83429 0C135.83429 1.24515 134.82492 2.2545 133.57978 2.2545 132.33463 2.2545 131.32526 1.24515 131.32526 0 131.32526-1.24515 132.33463-2.2545 133.57978-2.2545 134.82492-2.2545 135.83429-1.24515 135.83429 0ZM133.57978 0"/>
<path transform="matrix(1,0,0,-1,119.453998,121.12001)" d="M180.3615 51.02432C180.3615 52.26947 179.35213 53.27884 178.10698 53.27884 176.86183 53.27884 175.85247 52.26947 175.85247 51.02432 175.85247 49.77917 176.86183 48.7698 178.10698 48.7698 179.35213 48.7698 180.3615 49.77917 180.3615 51.02432ZM178.10698 51.02432"/>
<path transform="matrix(1,0,0,-1,119.453998,121.12001)" stroke-width=".49814" stroke-linecap="butt" stroke-miterlimit="10" stroke-linejoin="miter" fill="none" stroke="#ffffff" d="M180.3615 51.02432C180.3615 52.26947 179.35213 53.27884 178.10698 53.27884 176.86183 53.27884 175.85247 52.26947 175.85247 51.02432 175.85247 49.77917 176.86183 48.7698 178.10698 48.7698 179.35213 48.7698 180.3615 49.77917 180.3615 51.02432ZM178.10698 51.02432"/>
<path transform="matrix(1,0,0,-1,119.453998,121.12001)" d="M-42.27092 0C-42.27092 1.24515-43.28029 2.2545-44.52544 2.2545-45.77058 2.2545-46.77995 1.24515-46.77995 0-46.77995-1.24515-45.77058-2.2545-44.52544-2.2545-43.28029-2.2545-42.27092-1.24515-42.27092 0ZM-44.52544 0"/>
<path transform="matrix(1,0,0,-1,119.453998,121.12001)" stroke-width=".49814" stroke-linecap="butt" stroke-miterlimit="10" stroke-linejoin="miter" fill="none" stroke="#ffffff" d="M-42.27092 0C-42.27092 1.24515-43.28029 2.2545-44.52544 2.2545-45.77058 2.2545-46.77995 1.24515-46.77995 0-46.77995-1.24515-45.77058-2.2545-44.52544-2.2545-43.28029-2.2545-42.27092-1.24515-42.27092 0ZM-44.52544 0"/>
<path transform="matrix(1,0,0,-1,119.453998,121.12001)" d="M224.8887 0C224.8887 1.24515 223.87934 2.2545 222.63419 2.2545 221.38904 2.2545 220.37967 1.24515 220.37967 0 220.37967-1.24515 221.38904-2.2545 222.63419-2.2545 223.87934-2.2545 224.8887-1.24515 224.8887 0ZM222.63419 0"/>
<path transform="matrix(1,0,0,-1,119.453998,121.12001)" stroke-width=".49814" stroke-linecap="butt" stroke-miterlimit="10" stroke-linejoin="miter" fill="none" stroke="#ffffff" d="M224.8887 0C224.8887 1.24515 223.87934 2.2545 222.63419 2.2545 221.38904 2.2545 220.37967 1.24515 220.37967 0 220.37967-1.24515 221.38904-2.2545 222.63419-2.2545 223.87934-2.2545 224.8887-1.24515 224.8887 0ZM222.63419 0"/>
<use data-text="(" xlink:href="#font_4_1" transform="matrix(7.9701,0,0,-7.9701,125.808,64.576007)"/>
<use data-text="0" xlink:href="#font_4_4" transform="matrix(7.9701,0,0,-7.9701,129.60178,64.576007)"/>
<use data-text="," xlink:href="#font_3_3" transform="matrix(7.9701,0,0,-7.9701,134.48601,64.576007)"/>
<use data-text="1" xlink:href="#font_4_5" transform="matrix(7.9701,0,0,-7.9701,138.61,64.576007)"/>
<use data-text=")" xlink:href="#font_4_2" transform="matrix(7.9701,0,0,-7.9701,143.4877,64.576007)"/>
<use data-text="(" xlink:href="#font_4_1" transform="matrix(7.9701,0,0,-7.9701,161.83,111.630008)"/>
<use data-text="&#x03c0;" xlink:href="#font_3_1" transform="matrix(7.9701,0,0,-7.9701,166.82199,106.08001)"/>
<path transform="matrix(1,0,0,-1,114.376,62.50901)" stroke-width=".3587" stroke-linecap="butt" stroke-miterlimit="10" stroke-linejoin="miter" fill="none" stroke="#000000" d="M52.446-47.129H58.559"/>
<use data-text="8" xlink:href="#font_4_12" transform="matrix(7.9701,0,0,-7.9701,167.438,117.60101)"/>
<use data-text="," xlink:href="#font_3_3" transform="matrix(7.9701,0,0,-7.9701,174.131,111.630008)"/>
<use data-text="0" xlink:href="#font_4_4" transform="matrix(7.9701,0,0,-7.9701,178.254,111.630008)"/>
<use data-text=")" xlink:href="#font_4_2" transform="matrix(7.9701,0,0,-7.9701,183.13172,111.630008)"/>
<use data-text="(" xlink:href="#font_4_1" transform="matrix(7.9701,0,0,-7.9701,192.158,189.01602)"/>
<use data-text="&#x03c0;" xlink:href="#font_3_1" transform="matrix(7.9701,0,0,-7.9701,197.15001,183.46602)"/>
<path transform="matrix(1,0,0,-1,144.70401,139.89502)" stroke-width=".3587" stroke-linecap="butt" stroke-miterlimit="10" stroke-linejoin="miter" fill="none" stroke="#000000" d="M52.446-47.129H58.559"/>
<use data-text="4" xlink:href="#font_4_8" transform="matrix(7.9701,0,0,-7.9701,197.766,194.98702)"/>
<use data-text="," xlink:href="#font_3_3" transform="matrix(7.9701,0,0,-7.9701,204.45902,189.01602)"/>
<use data-text="&#x2212;" xlink:href="#font_5_1" transform="matrix(7.9701,0,0,-7.9701,208.58202,189.01602)"/>
<use data-text="1" xlink:href="#font_4_5" transform="matrix(7.9701,0,0,-7.9701,216.17601,189.01602)"/>
<use data-text=")" xlink:href="#font_4_2" transform="matrix(7.9701,0,0,-7.9701,221.05371,189.01602)"/>
<use data-text="(" xlink:href="#font_4_1" transform="matrix(7.9701,0,0,-7.9701,225.198,111.630008)"/>
<use data-text="3" xlink:href="#font_4_7" transform="matrix(7.9701,0,0,-7.9701,230.19,106.08001)"/>
<use data-text="&#x03c0;" xlink:href="#font_3_1" transform="matrix(7.9701,0,0,-7.9701,235.072,106.08001)"/>
<path transform="matrix(1,0,0,-1,177.744,62.50901)" stroke-width=".3587" stroke-linecap="butt" stroke-miterlimit="10" stroke-linejoin="miter" fill="none" stroke="#000000" d="M52.446-47.129H63.441"/>
<use data-text="8" xlink:href="#font_4_12" transform="matrix(7.9701,0,0,-7.9701,233.24701,117.60101)"/>
<use data-text="," xlink:href="#font_3_3" transform="matrix(7.9701,0,0,-7.9701,242.38,111.630008)"/>
<use data-text="0" xlink:href="#font_4_4" transform="matrix(7.9701,0,0,-7.9701,246.504,111.630008)"/>
<use data-text=")" xlink:href="#font_4_2" transform="matrix(7.9701,0,0,-7.9701,251.38172,111.630008)"/>
<use data-text="(" xlink:href="#font_4_1" transform="matrix(7.9701,0,0,-7.9701,285.009,57.76301)"/>
<use data-text="&#x03c0;" xlink:href="#font_3_1" transform="matrix(7.9701,0,0,-7.9701,290.00099,52.21301)"/>
<path transform="matrix(1,0,0,-1,237.555,8.64201)" stroke-width=".3587" stroke-linecap="butt" stroke-miterlimit="10" stroke-linejoin="miter" fill="none" stroke="#000000" d="M52.446-47.129H58.559"/>
<use data-text="2" xlink:href="#font_4_6" transform="matrix(7.9701,0,0,-7.9701,290.617,63.73401)"/>
<use data-text="," xlink:href="#font_3_3" transform="matrix(7.9701,0,0,-7.9701,297.31,57.76301)"/>
<use data-text="1" xlink:href="#font_4_5" transform="matrix(7.9701,0,0,-7.9701,301.43299,57.76301)"/>
<use data-text=")" xlink:href="#font_4_2" transform="matrix(7.9701,0,0,-7.9701,306.3107,57.76301)"/>
<use data-text="y" xlink:href="#font_1_8" transform="matrix(11.9552,0,0,-11.9552,34.051,52.376005)" fill="#00bfff"/>
<use data-text="=" xlink:href="#font_6_3" transform="matrix(11.9552,0,0,-11.9552,44.871,52.376005)" fill="#00bfff"/>
<use data-text="c" xlink:href="#font_6_4" transform="matrix(11.9552,0,0,-11.9552,58.643396,52.376005)" fill="#00bfff"/>
<use data-text="o" xlink:href="#font_6_7" transform="matrix(11.9552,0,0,-11.9552,64.620998,52.376005)" fill="#00bfff"/>
<use data-text="s" xlink:href="#font_6_8" transform="matrix(11.9552,0,0,-11.9552,71.33982,52.376005)" fill="#00bfff"/>
<use data-text="4" xlink:href="#font_6_2" transform="matrix(11.9552,0,0,-11.9552,78.63249,52.376005)" fill="#00bfff"/>
<use data-text="x" xlink:href="#font_1_7" transform="matrix(11.9552,0,0,-11.9552,85.377,52.376005)" fill="#00bfff"/>
<use data-text="y" xlink:href="#font_7_4" transform="matrix(8.9664,0,0,-8.9664,16.510003,130.41802)"/>
<use data-text="=" xlink:href="#font_2_13" transform="matrix(8.9664,0,0,-8.9664,24.859002,130.41802)"/>
<use data-text="0" xlink:href="#font_2_4" transform="matrix(8.9664,0,0,-8.9664,35.66352,130.41802)"/>
<use data-text="m" xlink:href="#font_8_75" transform="matrix(8.9664,0,0,-8.9664,11.573002,141.37702)"/>
<use data-text="i" xlink:href="#font_8_66" transform="matrix(8.9664,0,0,-8.9664,20.413872,141.37702)"/>
<use data-text="d" xlink:href="#font_8_47" transform="matrix(8.9664,0,0,-8.9664,23.36382,141.37702)"/>
<use data-text="l" xlink:href="#font_8_72" transform="matrix(8.9664,0,0,-8.9664,29.254746,141.37702)"/>
<use data-text="i" xlink:href="#font_8_66" transform="matrix(8.9664,0,0,-8.9664,32.20469,141.37702)"/>
<use data-text="n" xlink:href="#font_8_77" transform="matrix(8.9664,0,0,-8.9664,35.154634,141.37702)"/>
<use data-text="e" xlink:href="#font_8_50" transform="matrix(8.9664,0,0,-8.9664,41.045557,141.37702)"/>
<path transform="matrix(1,0,0,-1,119.453998,121.12001)" stroke-width=".79701" stroke-linecap="butt" stroke-miterlimit="10" stroke-linejoin="miter" fill="none" stroke="#000000" d="M178.10698 4.66248V46.36185"/>
<path transform="matrix(0,1,1,0,297.56098,116.45753)" d="M4.66248 0C3.28098 .25902 1.0361 1.0361-.51805 1.94269V-1.94269C1.0361-1.0361 3.28098-.25902 4.66248 0"/>
<path transform="matrix(0,-1,-1,-0,297.56098,74.75816)" d="M4.66248 0C3.28098 .25902 1.0361 1.0361-.51805 1.94269V-1.94269C1.0361-1.0361 3.28098-.25902 4.66248 0"/>
<use data-text="a" xlink:href="#font_9_28" transform="matrix(0,-4.9813,-4.9813,-0,290.78,115.36601)"/>
<use data-text="m" xlink:href="#font_9_75" transform="matrix(0,-4.9813,-4.9813,-0,290.78,111.689807)"/>
<use data-text="p" xlink:href="#font_9_84" transform="matrix(0,-4.9813,-4.9813,-0,290.78,105.50304)"/>
<use data-text="l" xlink:href="#font_9_72" transform="matrix(0,-4.9813,-4.9813,-0,290.78,101.32372)"/>
<use data-text="i" xlink:href="#font_9_66" transform="matrix(0,-4.9813,-4.9813,-0,290.78,99.15187)"/>
<use data-text="t" xlink:href="#font_9_105" transform="matrix(0,-4.9813,-4.9813,-0,290.78,96.98003)"/>
<use data-text="u" xlink:href="#font_9_109" transform="matrix(0,-4.9813,-4.9813,-0,290.78,94.00619)"/>
<use data-text="d" xlink:href="#font_9_47" transform="matrix(0,-4.9813,-4.9813,-0,290.78,89.82687)"/>
<use data-text="e" xlink:href="#font_9_50" transform="matrix(0,-4.9813,-4.9813,-0,290.78,85.64756)"/>
<use data-text="1" xlink:href="#font_9_82" transform="matrix(0,-4.9813,-4.9813,-0,290.78,79.63015)"/>
<path transform="matrix(1,0,0,-1,119.453998,121.12001)" stroke-width=".79701" stroke-linecap="butt" stroke-miterlimit="10" stroke-linejoin="miter" fill="none" stroke="#000000" d="M.59775-91.84393H177.50922"/>
<path transform="matrix(-1,-0,0,1,124.91347,212.96395)" d="M4.66248 0C3.28098 .25902 1.0361 1.0361-.51805 1.94269V-1.94269C1.0361-1.0361 3.28098-.25902 4.66248 0"/>
<path transform="matrix(-1,-0,0,1,119.85249,212.96395)" stroke-width=".79701" stroke-linecap="butt" stroke-miterlimit="10" stroke-linejoin="miter" fill="none" stroke="#000000" d="M0 3.08846V-3.08846"/>
<path transform="matrix(1,0,0,-1,292.1015,212.96395)" d="M4.66248 0C3.28098 .25902 1.0361 1.0361-.51805 1.94269V-1.94269C1.0361-1.0361 3.28098-.25902 4.66248 0"/>
<path transform="matrix(1,0,0,-1,297.16249,212.96395)" stroke-width=".79701" stroke-linecap="butt" stroke-miterlimit="10" stroke-linejoin="miter" fill="none" stroke="#000000" d="M0 3.08846V-3.08846"/>
<path transform="matrix(1,0,0,-1,119.453998,121.12001)" d="M64.74712-103.03864H113.35985V-80.64925H64.74712Z" fill="#ffffff"/>
<use data-text="p" xlink:href="#font_10_84" transform="matrix(9.9626,0,0,-9.9626,185.696,215.13101)"/>
<use data-text="e" xlink:href="#font_10_50" transform="matrix(9.9626,0,0,-9.9626,192.37094,215.13101)"/>
<use data-text="r" xlink:href="#font_10_96" transform="matrix(9.9626,0,0,-9.9626,197.62123,215.13101)"/>
<use data-text="i" xlink:href="#font_10_66" transform="matrix(9.9626,0,0,-9.9626,202.3435,215.13101)"/>
<use data-text="o" xlink:href="#font_10_81" transform="matrix(9.9626,0,0,-9.9626,205.52158,215.13101)"/>
<use data-text="d" xlink:href="#font_10_47" transform="matrix(9.9626,0,0,-9.9626,211.56888,215.13101)"/>
<use data-text="&#x03c0;" xlink:href="#font_1_1" transform="matrix(9.9626,0,0,-9.9626,222.956,207.69202)"/>
<path transform="matrix(1,0,0,-1,138.242,166.01001)" stroke-width=".3985" stroke-linecap="butt" stroke-miterlimit="10" stroke-linejoin="miter" fill="none" stroke="#000000" d="M84.714-46.631H91.881"/>
<use data-text="2" xlink:href="#font_11_6" transform="matrix(9.9626,0,0,-9.9626,223.675,222.664)"/>
</svg>
