<svg style="overflow: visible;" xmlns="http://www.w3.org/2000/svg" xmlns:xlink="http://www.w3.org/1999/xlink" xmlns:inkscape="http://www.inkscape.org/namespaces/inkscape" version="1.1" width="100%" height="100%" viewBox="0 0 399.51 208.83">
<defs>
<path id="font_1_7" d="M.5359955 .4011383C.5 .3911438 .48199464 .35714723 .48199464 .33215333 .48199464 .31015016 .49899293 .28614808 .5319977 .28614808 .5669861 .28614808 .60398867 .31515504 .60398867 .364151 .60398867 .41714479 .5509949 .45214845 .48999024 .45214845 .43299867 .45214845 .3959961 .4091339 .3829956 .3911438 .35798646 .433136 .3019867 .45214845 .24499512 .45214845 .11898804 .45214845 .050994874 .32914735 .050994874 .29615785 .050994874 .28215028 .06599426 .28215028 .07499695 .28215028 .08699036 .28215028 .09399414 .28215028 .09799194 .29515077 .1269989 .38613893 .19898987 .4161377 .23999024 .4161377 .27799989 .4161377 .29599 .39814759 .29599 .3661499 .29599 .3471527 .28199769 .29216004 .272995 .2561493L.23899842 .11917114C.22399903 .058181764 .18798828 .028182984 .1539917 .028182984 .14898682 .028182984 .12599182 .028182984 .10598755 .043182374 .14199829 .05317688 .1599884 .08717346 .1599884 .11216736 .1599884 .13417053 .14299011 .1581726 .10998535 .1581726 .07499695 .1581726 .037994386 .12916565 .037994386 .08016968 .037994386 .027175904 .09098816-.0078125 .1519928-.0078125 .20899964-.0078125 .24598694 .035186769 .25898744 .05317688 .28399659 .011184692 .33999635-.0078125 .39698792-.0078125 .522995-.0078125 .59098818 .11517334 .59098818 .14816284 .59098818 .16217041 .57598879 .16217041 .5669861 .16217041 .5549927 .16217041 .5479889 .16217041 .5439911 .14916992 .5149994 .058181764 .44299317 .028182984 .4019928 .028182984 .3639984 .028182984 .34599305 .046173097 .34599305 .07817078 .34599305 .09916687 .35899354 .15216065 .36799623 .18916321 .375 .21516419 .397995 .30915834 .40299989 .32514955 .41799928 .3851471 .45298768 .4161377 .48799134 .4161377 .49299623 .4161377 .5159912 .4161377 .5359955 .4011383Z"/>
<path id="font_1_8" d="M.57699587 .3771515C.58200076 .3951416 .58200076 .3971405 .58200076 .40014649 .58200076 .4221344 .56599429 .44413758 .5349884 .44413758 .48298646 .44413758 .47099305 .3971405 .46398927 .3701477L.43798829 .26615907C.42599488 .2181549 .40699769 .14117432 .3959961 .10017395 .3909912 .07817078 .3600006 .05418396 .35699464 .05218506 .34599305 .045181276 .32199098 .028182984 .2889862 .028182984 .22999573 .028182984 .22898865 .07817078 .22898865 .10116577 .22898865 .16217041 .2599945 .24015808 .28799439 .31214906 .2979889 .33815003 .30099488 .3451538 .30099488 .3621521 .30099488 .4201355 .24299622 .45214845 .18798828 .45214845 .08198547 .45214845 .03199768 .31614686 .03199768 .29615785 .03199768 .28215028 .04699707 .28215028 .055999757 .28215028 .067993167 .28215028 .07499695 .28215028 .07899475 .29515077 .11199951 .4061432 .16699219 .4161377 .18199158 .4161377 .18899536 .4161377 .19898987 .4161377 .19898987 .3951416 .19898987 .3721466 .18798828 .34614564 .18199158 .33015443 .14299011 .23016358 .12199402 .173172 .12199402 .122177127 .12199402 .008178711 .22200012-.0078125 .2809906-.0078125 .30599977-.0078125 .33999635-.0038146973 .3769989 .02218628 .34899903-.10101318 .27398683-.16615296 .20498657-.16615296 .19198609-.16615296 .1639862-.16415406 .14399719-.15213013 .17599488-.13909912 .19198609-.11204529 .19198609-.0849762 .19198609-.04890442 .16299439-.038879396 .14299011-.038879396 .10598755-.038879396 .070999149-.07095337 .070999149-.11505127 .070999149-.16615296 .12399292-.20214844 .20498657-.20214844 .31999208-.20214844 .45199586-.12506104 .48298646-.0008239746L.57699587 .3771515Z"/>
<path id="font_2_4" d="M.54499819 .31925965C.54499819 .4212494 .5419922 .65625 .29599 .65625 .051986696 .65625 .04598999 .429245 .04598999 .31925965 .04598999 .21525574 .04899597-.01171875 .29499818-.01171875 .5389862-.01171875 .54499819 .20826721 .54499819 .31925965M.29599 .028274537C.2689972 .028274537 .19999695 .040267946 .18699646 .13226319 .1789856 .18527222 .1789856 .27626039 .1789856 .33125306 .1789856 .3942566 .1789856 .47824098 .18699646 .52523806 .20199585 .60523989 .2689972 .61624148 .29499818 .61624148 .32798768 .61624148 .3909912 .600235 .4039917 .5222473 .4119873 .47424317 .4119873 .3882599 .4119873 .33125306 .4119873 .25326539 .4119873 .13426209 .3959961 .09527588 .37399293 .046279909 .32899476 .028274537 .29599 .028274537Z"/>
<path id="font_3_82" d="M.43199159 0V.0309906H.3999939C.30699159 .0309906 .3039856 .042999269 .3039856 .08001709V.63912966C.3039856 .6640167 .30299378 .6660156 .27799989 .6660156 .21598816 .60227969 .12399292 .60227969 .09298706 .60227969V.57128909C.11199951 .57128909 .17298889 .57128909 .22698975 .5972748V.08001709C.22698975 .042999269 .22399903 .0309906 .1309967 .0309906H.09899902V0C.1349945 .0029907227 .22399903 .0029907227 .2649994 .0029907227 .30599977 .0029907227 .3959961 .0029907227 .43199159 0Z"/>
<path id="font_3_107" d="M.46199037 .17704773H.43399049C.43199159 .16404724 .42399598 .10501099 .41099549 .08900452 .40499879 .07998657 .33599855 .07998657 .31599427 .07998657H.13798523L.23699951 .17404175C.40098573 .3161316 .46199037 .36915589 .46199037 .4711914 .46199037 .5860901 .36698915 .6660156 .24398804 .6660156 .1289978 .6660156 .050994874 .575119 .050994874 .4841919 .050994874 .43418885 .09399414 .42919923 .102996829 .42919923 .125 .42919923 .15499878 .44519044 .15499878 .48120118 .15499878 .51119998 .13398743 .5332031 .102996829 .5332031 .09799194 .5332031 .09498596 .5332031 .09098816 .53219607 .114990238 .6030731 .1789856 .63500979 .23298645 .63500979 .33499146 .63500979 .36999513 .5401764 .36999513 .4711914 .36999513 .36915589 .29299928 .28611756 .24499512 .23408509L.06199646 .035995485C.050994874 .024993897 .050994874 .022994996 .050994874 0H.43399049L.46199037 .17704773Z"/>
<path id="font_3_106" d="M.46998597 .17008972C.46998597 .25709535 .40098573 .33110047 .30499269 .35209657 .397995 .38710023 .44198609 .46009828 .44198609 .5290985 .44198609 .60606387 .35699464 .6660156 .25299073 .6660156 .14898682 .6660156 .070999149 .60705569 .070999149 .5310974 .070999149 .49809266 .09298706 .47909547 .12199402 .47909547 .15098572 .47909547 .17199707 .50009158 .17199707 .5290985 .17199707 .5640869 .147995 .57910159 .11399841 .57910159 .13999939 .6210327 .20098877 .64100649 .25 .64100649 .33299256 .64100649 .34899903 .5750885 .34899903 .52809146 .34899903 .49809266 .34298707 .45005799 .31799317 .41201783 .2869873 .36695863 .2519989 .36495973 .22299195 .36296083 .19799805 .36094667 .19599915 .36094667 .18798828 .36094667 .1789856 .35995484 .17098999 .35894776 .17098999 .34794618 .17098999 .33496095 .1789856 .33496095 .19599915 .33496095H.24299622C.32998658 .33496095 .36799623 .2646637 .36799623 .16937256 .36799623 .04145813 .2999878 .0055389406 .24899292 .0055389406 .22999573 .0055389406 .1329956 .010528564 .08799744 .0843811 .12399292 .07939148 .1519928 .10437012 .1519928 .13838196 .1519928 .17137146 .1269989 .19238281 .09799194 .19238281 .07299805 .19238281 .042999269 .17736817 .042999269 .13537598 .042999269 .046447755 .13598633-.022460938 .2519989-.022460938 .3769989-.022460938 .46998597 .06741333 .46998597 .16937256V.17008972Z"/>
<path id="font_3_64" d="M.2849884 .1850586V.24707031H.010986328V.1850586H.2849884Z"/>
<path id="font_4_5" d="M.3789978 .62413027C.3789978 .6582031 .37298585 .6582031 .33299256 .6582031 .27198792 .61006167 .19198609 .5939789 .11399841 .5939789H.09199524V.5419922H.11399841C.13999939 .5419922 .19400025 .5449829 .2519989 .5619812V.051986696H.101989749V0C.13798523 .0029907227 .269989 .0029907227 .31498719 .0029907227 .3600006 .0029907227 .48999024 .0029907227 .5269928 0V.051986696H.3789978V.62413027Z"/>
<path id="font_4_6" d="M.5509949 .2280426H.49499513C.4869995 .16200257 .47399903 .14199829 .46798707 .13899231 .45700074 .1329956 .37998963 .1329956 .36299134 .1329956H.22499085C.35899354 .23805237 .41299439 .2680664 .45599366 .30108644 .526001 .35612489 .5509949 .40615846 .5509949 .46316529 .5509949 .58117678 .44198609 .6582031 .2899933 .6582031 .1619873 .6582031 .06098938 .6011963 .06098938 .50717166 .06098938 .4481659 .10899353 .4291687 .13699341 .4291687 .17199707 .4291687 .21398926 .4541626 .21398926 .50616458 .21398926 .5531616 .17999268 .5721588 .16699219 .5771637 .19499207 .5981903 .23498535 .6062012 .2659912 .6062012 .35598756 .6062012 .4059906 .5391693 .4059906 .4621582 .4059906 .38113404 .35299684 .31410218 .2939911 .25906373L.07299805 .052993776C.06199646 .041992189 .06098938 .040985109 .06098938 .020996094V0H.5179901L.5509949 .2280426Z"/>
<path id="font_5_1" d="M.8019867 .21617127C.81599429 .21617127 .84999087 .21617127 .84999087 .25016786 .84999087 .2841797 .81599429 .2841797 .8019867 .2841797H.1499939C.13598633 .2841797 .101989749 .2841797 .101989749 .25016786 .101989749 .21617127 .13598633 .21617127 .1499939 .21617127H.8019867Z"/>
<path id="font_4_7" d="M.28399659 .32714845C.3999939 .32714845 .40098573 .23034668 .40098573 .18035889 .40098573 .13534546 .40098573 .033325197 .28799439 .033325197 .2669983 .033325197 .20999146 .036315919 .1599884 .068359378 .1769867 .0753479 .21299744 .09635925 .21299744 .14535523 .21299744 .19335938 .1789856 .22634888 .13198853 .22634888 .08799744 .22634888 .050994874 .1963501 .050994874 .14434815 .050994874 .047332765 .15499878-.013671875 .29299928-.013671875 .4889984-.013671875 .5609894 .09234619 .5609894 .1793518 .5609894 .26127626 .49798585 .32914735 .3899994 .35313417 .4169922 .36413575 .5269928 .40715028 .5269928 .51615908 .5269928 .59617617 .44499208 .6582031 .29599 .6582031 .1659851 .6582031 .084991458 .58917239 .084991458 .50717166 .084991458 .45115663 .1289978 .4311676 .15899658 .4311676 .19898987 .4311676 .23298645 .45916749 .23298645 .5051575 .23298645 .52716067 .22499085 .5651703 .1769867 .5771637 .22099304 .6151886 .2809906 .6151886 .2899933 .6151886 .3829956 .6151886 .3829956 .5491638 .3829956 .51916506 .3829956 .4471588 .34899903 .41015626 .34599305 .40615846 .31698609 .37513734 .29899598 .3741455 .24499512 .37113954 .21398926 .36914063 .20399475 .36813355 .20399475 .34814454 .20399475 .32714845 .21699524 .32714845 .23498535 .32714845H.28399659Z"/>
<path id="font_4_9" d="M.17599488 .5010834C.20799256 .49609376 .24198914 .49609376 .24798584 .49609376 .27398683 .49609376 .34199525 .49609376 .4169922 .54408267 .44299317 .56108096 .5029907 .611084 .5029907 .63708499 .5029907 .65208438 .49499513 .65808108 .4850006 .65808108 .48298646 .65808108 .48098756 .65808108 .46998597 .65309146 .42099 .63609316 .3619995 .6260834 .30699159 .6260834 .2619934 .6260834 .20498657 .6320801 .13999939 .65408328 .13198853 .65808108 .12998963 .65808108 .1269989 .65808108 .10998535 .65808108 .10998535 .64108279 .10998535 .62709048V.33319093C.10998535 .3142395 .10998535 .29927064 .13699341 .29927064 .1519928 .29927064 .15499878 .30126954 .16499329 .31323243 .20498657 .36112977 .2669983 .3701172 .30599977 .3701172 .4019928 .3701172 .4019928 .27931214 .4019928 .20341492 .4019928 .13441468 .4019928 .033325197 .27198792 .033325197 .21998596 .033325197 .16999817 .055358888 .14299011 .089416507 .18499756 .09541321 .20498657 .12741089 .20498657 .16041565 .20498657 .2064209 .16899109 .23242188 .1329956 .23242188 .101989749 .23242188 .06098938 .2124176 .06098938 .15841675 .06098938 .068374637 .1459961-.013671875 .27598573-.013671875 .45399476-.013671875 .5509949 .08340454 .5509949 .20141602 .5509949 .31323243 .47099305 .41210938 .30999757 .41210938 .2619934 .41210938 .21598816 .4031067 .17599488 .3781128V.5010834Z"/>
<path id="font_4_1" d="M.40699769-.23200989C.40699769-.2250061 .4039917-.22200012 .3919983-.21200562 .2649994-.09700012 .21998596 .07798767 .21998596 .25 .21998596 .42099 .2630005 .59599307 .3899994 .70899966 .4059906 .723999 .40699769 .72499087 .40699769 .7319946 .40699769 .74198916 .40098573 .75 .38598634 .75 .36698915 .75 .31399537 .70500186 .2939911 .6859894 .16899109 .56199648 .11399841 .4099884 .11399841 .25 .11399841 .16099549 .13198853 .039993287 .20599365-.07800293 .2689972-.17800904 .3639984-.25 .38598634-.25 .40098573-.25 .40699769-.2420044 .40699769-.23200989Z"/>
<path id="font_4_4" d="M.56399539 .31925965C.56399539 .4352417 .5549927 .6582031 .30599977 .6582031 .055999757 .6582031 .04798889 .4332428 .04798889 .31925965 .04798889 .20729065 .054992677-.013671875 .30599977-.013671875 .55799868-.013671875 .56399539 .20828247 .56399539 .31925965M.30599977 .028320313C.2789917 .028320313 .25099183 .03831482 .22999573 .05531311 .19799805 .08331299 .18299866 .0973053 .18299866 .33125306 .18299866 .40324403 .18299866 .4762268 .19299317 .5262146 .20599365 .5971985 .2679901 .6161957 .30599977 .6161957 .32998658 .6161957 .4059906 .610199 .42099 .515213 .42900086 .4662323 .42900086 .3892517 .42900086 .33125306 .42900086 .10231018 .4149933 .08830261 .38398744 .05831909 .37599183 .049316408 .34799195 .028320313 .30599977 .028320313Z"/>
<path id="font_6_3" d="M.22099304 .016998291C.21199036-.08493042 .1519928-.1348877 .1309967-.15187073 .11999512-.15986634 .115997318-.16287232 .115997318-.17185974 .115997318-.18086243 .12799073-.19386292 .13899231-.19386292 .15499878-.19386292 .2639923-.106918338 .2639923 .03199768 .2639923 .10499573 .22698975 .1599884 .16899109 .1599884 .12199402 .1599884 .08999634 .12399292 .08999634 .07998657 .08999634 .038986207 .11898804 0 .16999817 0 .18998719 0 .20899964 .0069885256 .22099304 .016998291Z"/>
<path id="font_4_2" d="M.36099244 .25C.36099244 .33898927 .34298707 .45999146 .2689972 .5779877 .20599365 .6779938 .11099243 .75 .08898926 .75 .07199097 .75 .067993167 .7389984 .067993167 .7319946 .067993167 .72499087 .07199097 .72099307 .08299255 .71199038 .20999146 .5970001 .25498963 .42199708 .25498963 .25 .25498963 .07899475 .21199036-.0960083 .084991458-.2090149 .07299805-.22000122 .067993167-.22401428 .067993167-.23200989 .067993167-.23901367 .07199097-.25 .08898926-.25 .10798645-.25 .16099549-.20500183 .18099976-.18600464 .30599977-.06201172 .36099244 .08999634 .36099244 .25Z"/>
<path id="font_7_12" d="M.7879944 .33203126C.7999878 .33203126 .82899478 .33203126 .82899478 .36203004 .82899478 .39302064 .7979889 .39302064 .7829895 .39302064H.10998535C.09498596 .39302064 .06399536 .39302064 .06399536 .36203004 .06399536 .33203126 .09298706 .33203126 .10499573 .33203126H.7879944M.7829895 .107940677C.7979889 .107940677 .82899478 .107940677 .82899478 .13893128 .82899478 .16894531 .7999878 .16894531 .7879944 .16894531H.10499573C.09298706 .16894531 .06399536 .16894531 .06399536 .13893128 .06399536 .107940677 .09498596 .107940677 .10998535 .107940677H.7829895Z"/>
<path id="font_8_1" d="M.7519989 .22024536C.7669983 .22024536 .7969971 .22024536 .7969971 .25024415 .7969971 .28125 .7679901 .28125 .7519989 .28125H.14099121C.12599182 .28125 .09599304 .28125 .09599304 .25123597 .09599304 .22024536 .125 .22024536 .14099121 .22024536H.7519989Z"/>
<path id="font_7_13" d="M.3600006 .40711976C.34199525 .39111329 .33999635 .3701172 .33999635 .3611145 .33999635 .3171234 .375 .29812623 .4019928 .29812623 .43299867 .29812623 .46499635 .3191223 .46499635 .3611145 .46499635 .44711305 .34899903 .453125 .29100038 .453125 .11199951 .453125 .037994386 .3381195 .037994386 .22212219 .037994386 .08912659 .13198853-.005859375 .28599549-.005859375 .44799806-.005859375 .47799684 .11012268 .47799684 .117126468 .47799684 .13113404 .46398927 .13113404 .45399476 .13113404 .43598939 .13113404 .43499757 .12913513 .42999269 .11613464 .4039917 .053131105 .35598756 .03413391 .30499269 .03413391 .1659851 .03413391 .1659851 .18112183 .1659851 .22712708 .1659851 .28312684 .1659851 .41311646 .29499818 .41311646 .32998658 .41311646 .34700013 .41011048 .3600006 .40711976Z"/>
<path id="font_7_16" d="M.5419922 .21812439C.5419922 .35212709 .44999696 .453125 .2869873 .453125 .12298584 .453125 .03199768 .35112 .03199768 .21812439 .03199768 .09413147 .11999512-.005859375 .2869873-.005859375 .45498658-.005859375 .5419922 .09512329 .5419922 .21812439M.2869873 .03413391C.1599884 .03413391 .1599884 .14213562 .1599884 .22912598 .1599884 .27412416 .1599884 .32511903 .1769867 .3591156 .19599915 .39611817 .23799134 .41711427 .2869873 .41711427 .32899476 .41711427 .37098695 .40112306 .3929901 .36611939 .4139862 .3321228 .4139862 .27713014 .4139862 .22912598 .4139862 .14213562 .4139862 .03413391 .2869873 .03413391Z"/>
<path id="font_7_17" d="M.21099854 .29412843C.17399597 .30111695 .10899353 .31211854 .10899353 .3591156 .10899353 .42111207 .20199585 .42111207 .22099304 .42111207 .29599 .42111207 .33399964 .39212037 .33898927 .33711244 .33999635 .32211305 .34098817 .3171234 .3619995 .3171234 .38598634 .3171234 .38598634 .32211305 .38598634 .3451233V.42510987C.38598634 .4441223 .38598634 .453125 .36799623 .453125 .3639984 .453125 .3619995 .453125 .32299806 .43411256 .29699708 .44711305 .2619934 .453125 .22200012 .453125 .19198609 .453125 .037994386 .453125 .037994386 .32211305 .037994386 .28211976 .057998659 .25512696 .07798767 .23812866 .117996219 .203125 .1559906 .1971283 .23298645 .18312073 .2689972 .17712403 .34399415 .16412354 .34399415 .10513306 .34399415 .030136109 .2519989 .030136109 .22999573 .030136109 .12399292 .030136109 .09799194 .103134158 .085998538 .14613343 .08099365 .16012573 .07598877 .16012573 .06199646 .16012573 .037994386 .16012573 .037994386 .15412903 .037994386 .13113404V.022140503C.037994386 .0031280518 .037994386-.005859375 .055999757-.005859375 .06298828-.005859375 .06498718-.005859375 .085998538 .009140015 .08699036 .009140015 .10899353 .024139405 .11199951 .026138306 .1579895-.005859375 .20999146-.005859375 .22999573-.005859375 .26098634-.005859375 .4149933-.005859375 .4149933 .14012146 .4149933 .18312073 .394989 .21812439 .3600006 .24612427 .32099916 .27511598 .2889862 .28112794 .21099854 .29412843Z"/>
<path id="font_1_1" d="M.31199647 .34832765H.42399598C.4019928 .2552948 .3909912 .1942749 .3909912 .1352539 .3909912 .067230228 .40899659-.0087890629 .45700074-.0087890629 .48999024-.0087890629 .526001 .02420044 .526001 .05621338 .526001 .068222049 .522995 .07423401 .5139923 .0892334 .46798707 .17025757 .46798707 .24728394 .46798707 .27430726 .46798707 .29830934 .46798707 .3083191 .47399903 .34832765H.59799197C.61698916 .34832765 .6329956 .34832765 .647995 .36332704 .6549988 .3703308 .66799929 .38232423 .66799929 .40533448 .66799929 .44433595 .6329956 .44433595 .61499026 .44433595H.22200012C.20098877 .44433595 .1579895 .44433595 .10499573 .3963318 .069992069 .3643341 .0309906 .31330873 .0309906 .3033142 .0309906 .28930665 .042999269 .28930665 .053985597 .28930665 .068984989 .28930665 .069992069 .29031373 .07899475 .3013153 .116989139 .34832765 .18299866 .34832765 .20199585 .34832765H.2619934C.23699951 .26930238 .19699097 .18727112 .14299011 .08622742 .1269989 .05621338 .12399292 .051223756 .12399292 .037216188 .12399292 .01020813 .1459961-.007797241 .17199707-.007797241 .19299317-.007797241 .20799256 .0032043458 .21499634 .00920105 .22999573 .02420044 .23098755 .028213501 .23599243 .049209596L.31199647 .34832765Z"/>
<path id="font_9_4" d="M.59498599 .3731079C.598999 .38909913 .598999 .394104 .598999 .3981018 .598999 .4320984 .57199099 .44410707 .5509949 .44410707 .49798585 .44410707 .48599244 .3961029 .47898866 .3701172L.45298768 .26612855C.43899537 .21113587 .42599488 .15615845 .41099549 .10116577 .4099884 .09416199 .3659973 .032180787 .30099488 .032180787 .2579956 .032180787 .23799134 .057174684 .23799134 .10417175 .23799134 .16314698 .27198792 .24913025 .29899598 .3171234 .30499269 .33111573 .31098939 .3461151 .31098939 .36210633 .31098939 .41410829 .25898744 .45210267 .19299317 .45210267 .08699036 .45210267 .032989503 .32011415 .032989503 .29612733 .032989503 .28112794 .04699707 .28112794 .05899048 .28112794 .07499695 .28112794 .07998657 .28112794 .083999637 .29512025 .11898804 .4091034 .1769867 .41210938 .18699646 .41210938 .19299317 .41210938 .20399475 .41210938 .20399475 .3901062 .20399475 .36810304 .19299317 .3421173 .18798828 .32911683 .147995 .22813416 .12799073 .17315674 .12799073 .12416077 .12799073 .0231781 .20899964-.0078125 .29299928-.0078125 .30899049-.0078125 .34700013-.0078125 .3919983 .02218628 .36999513-.08416748 .29599-.16210938 .21598816-.16210938 .21398926-.16210938 .18499756-.16210938 .16099549-.15216065 .18399048-.14016724 .20399475-.11515808 .20399475-.0851593 .20399475-.04916382 .17599488-.03515625 .1519928-.03515625 .10899353-.03515625 .07598877-.07316589 .07598877-.11416626 .07598877-.17111206 .13699341-.20211792 .21598816-.20211792 .33799745-.20211792 .47099305-.123168949 .5009918-.0018157959L.59498599 .3731079Z"/>
<path id="font_2_13" d="M.80799868 .33398438C.82199099 .33398438 .8529968 .33398438 .8529968 .36598207 .8529968 .39797975 .82199099 .39797975 .8089905 .39797975H.10998535C.09700012 .39797975 .06599426 .39797975 .06599426 .36598207 .06599426 .33398438 .09799194 .33398438 .11099243 .33398438H.80799868M.8089905 .102005008C.82199099 .102005008 .8529968 .102005008 .8529968 .13400269 .8529968 .16601563 .82099917 .16601563 .80799868 .16601563H.11099243C.09799194 .16601563 .06599426 .16601563 .06599426 .13400269 .06599426 .102005008 .09700012 .102005008 .10998535 .102005008H.8089905Z"/>
<path id="font_10_75" d="M.95899966-.0002746582V.048721315H.8909912V.30471803C.8909912 .42271424 .81999209 .4497223 .7319946 .4497223 .6279907 .4497223 .57699587 .38671876 .55799868 .3557129 .5359955 .4457245 .44799806 .4497223 .4039917 .4497223 .27999879 .4497223 .23098755 .35972596 .22399903 .34472657H.22299195V.4497223L.049987794 .44172669V.39271546C.10998535 .39271546 .117996219 .39271546 .117996219 .353714V.048721315H.049987794V-.0002746582L.17599488 .0027160645 .30299378-.0002746582V.048721315H.23498535V.25372315C.23498535 .36471559 .32699586 .40971376 .3869934 .40971376 .4249878 .40971376 .44599916 .38972474 .44599916 .3137207V.048721315H.37799073V-.0002746582L.5039978 .0027160645 .6309967-.0002746582V.048721315H.5629883V.25372315C.5629883 .36471559 .6549988 .40971376 .71499636 .40971376 .7529907 .40971376 .7739868 .38972474 .7739868 .3137207V.048721315H.70599368V-.0002746582L.83200076 .0027160645 .95899966-.0002746582Z"/>
<path id="font_10_66" d="M.2919922 0V.04899597H.23098755V.4501953L.054992677 .4423828V.39337159C.11299133 .39337159 .11999512 .39337159 .11999512 .3543396V.04899597H.051986696V0C.11898804 .0019989014 .13198853 .0029907227 .17399597 .0029907227 .22299195 .0029907227 .23599243 .0019989014 .2919922 0M.24198914 .6053314C.24198914 .65234377 .20399475 .68434146 .1639862 .68434146 .12199402 .68434146 .085998538 .6503296 .085998538 .6063385 .085998538 .55934146 .12399292 .52734377 .1639862 .52734377 .20599365 .52734377 .24198914 .56134036 .24198914 .6053314Z"/>
<path id="font_10_47" d="M.61499026 0V.04899597C.5549927 .04899597 .5469971 .04899597 .5469971 .088012699V.69433596L.36799623 .6855469V.63653567C.42799378 .63653567 .43598939 .63653567 .43598939 .5976715V.40518189C.3919983 .43719483 .34498597 .4501953 .29699708 .4501953 .13398743 .4501953 .038986207 .35118104 .038986207 .22216797 .038986207 .089141849 .1329956-.005859375 .2849884-.005859375 .34799195-.005859375 .397995 .018127442 .42999269 .044128419V-.005859375L.61499026 0M.42999269 .10899353C.4079895 .074142459 .3600006 .03413391 .29599 .03413391 .17199707 .03413391 .17199707 .15414429 .17199707 .22015381 .17199707 .27816773 .17298889 .32118226 .19898987 .3581848 .22499085 .39819337 .272995 .41018678 .30799867 .41018678 .35798646 .41018678 .39898683 .3881836 .42999269 .34918214V.10899353Z"/>
<path id="font_10_72" d="M.29899598 0V.04899597H.23098755V.69433596L.051986696 .6855469V.63653567C.11199951 .63653567 .11999512 .63653567 .11999512 .5975647V.04899597H.051986696V0L.1749878 .0029907227 .29899598 0Z"/>
<path id="font_10_77" d="M.6299896-.0002746582V.048721315H.56199648V.30471803C.56199648 .4237213 .48999024 .4497223 .40299989 .4497223 .27999879 .4497223 .23098755 .35972596 .22399903 .34472657H.22299195V.4497223L.049987794 .44172669V.39271546C.10998535 .39271546 .117996219 .39271546 .117996219 .353714V.048721315H.049987794V-.0002746582L.17599488 .0027160645 .30299378-.0002746582V.048721315H.23498535V.25372315C.23498535 .36572267 .32699586 .40971376 .3869934 .40971376 .4249878 .40971376 .44499208 .38871766 .44499208 .3137207V.048721315H.3769989V-.0002746582L.5029907 .0027160645 .6299896-.0002746582Z"/>
<path id="font_10_50" d="M.5089874 .11605835C.5089874 .13604737 .4889984 .13604737 .48298646 .13604737 .46499635 .13604737 .46299745 .13005066 .45700074 .11605835 .43399049 .06410217 .37298585 .037139894 .30999757 .037139894 .16799927 .037139894 .1659851 .16601563 .1659851 .21496582H.47599793C.49699403 .21496582 .5089874 .21496582 .5089874 .2429657 .5089874 .26498414 .5069885 .35305787 .44198609 .4071045 .39698792 .4441223 .33699037 .453125 .28799439 .453125 .116989139 .453125 .032989503 .345047 .032989503 .22497559 .032989503 .09408569 .13198853-.005859375 .3019867-.005859375 .46699525-.005859375 .5089874 .1000824 .5089874 .11605835M.41099549 .25097657H.1659851C.16799927 .29701234 .17298889 .41311646 .28799439 .41311646 .40499879 .41311646 .40899659 .29100038 .41099549 .25097657Z"/>
<path id="font_11_28" d="M.71598818 .034179689C.71598818 .06712341 .69898989 .06712341 .6779938 .06712341H.6719971C.6589966 .06712341 .621994 .06712341 .6009979 .07710266V.28977967C.6009979 .36997987 .5379944 .4560547 .32499696 .4560547 .2539978 .4560547 .10598755 .4560547 .10598755 .34791566 .10598755 .2998047 .14099121 .27172853 .18099976 .27172853 .22499085 .27172853 .2559967 .30381776 .2559967 .34692384 .2559967 .36395265 .25099183 .38000489 .24198914 .3920288 .2789917 .40003968 .30899049 .40003968 .32598878 .40003968 .41600038 .40003968 .46798707 .3659668 .46798707 .28677369V.2677307C.45498658 .26672364 .35198976 .26872254 .25299073 .25071717 .13398743 .22871399 .057998659 .19378662 .057998659 .11997986 .057998659-.0078125 .25099183-.0078125 .2899933-.0078125 .3880005-.0078125 .46099855 .015182495 .49198915 .060150148 .5 .00018310547 .56999209 .00018310547 .644989 .00018310547 .70899966 .00018310547 .71598818 .00018310547 .71598818 .034179689M.46798707 .13294983C.46798707 .10902405 .46798707 .08308411 .4169922 .06413269 .37599183 .048187257 .32299806 .048187257 .31698609 .048187257 .24598694 .048187257 .19099427 .07510376 .19099427 .12098694 .19099427 .20974732 .41999818 .21772766 .46798707 .21972656V.13294983Z"/>
<path id="font_11_75" d="M1.1799927 0V.066986087H1.1080017V.29508973C1.1080017 .44114686 .98999026 .45214845 .91400149 .45214845 .84999087 .45214845 .7630005 .43914796 .69699099 .3571167 .6689911 .42913819 .6100006 .45214845 .5109863 .45214845 .37199403 .45214845 .30799867 .38012696 .2849884 .3451233V.45214845L.09700012 .44433595V.3773346C.16099549 .3773346 .16899109 .3773346 .16899109 .33828736V.066986087H.09700012V0L.23599243 .0039978029C.272995 .0039978029 .32998658 .0029907227 .37399293 0V.066986087H.3019867V.2421875C.3019867 .36412049 .4269867 .39613343 .4869995 .39613343 .5509949 .39613343 .57199099 .37213136 .57199099 .29708863V.066986087H.5V0L.6389923 .0039978029C.6759949 .0039978029 .73298647 .0029907227 .7769928 0V.066986087H.7049866V.24206543C.7049866 .36412049 .8299866 .39613343 .8899994 .39613343 .95399478 .39613343 .97499087 .37213136 .97499087 .29708863V.066986087H.9029999V0L1.0419922 .0039978029C1.0789948 .0039978029 1.1360016 .0029907227 1.1799927 0Z"/>
<path id="font_11_84" d="M.7739868 .22314453C.7739868 .33114625 .69299319 .45214845 .48399354 .45214845 .44499208 .45214845 .36099244 .44914247 .2809906 .4081421V.45214845L.083999637 .44433595V.3773346H.100997928C.1559906 .3773346 .1559906 .37132264 .1559906 .3433075V-.12695313H.083999637V-.19395447L.22200012-.18995667 .36099244-.19395447V-.12695313H.2889862V.03718567C.31698609 .020187378 .375-.0078125 .45999146-.0078125 .6689911-.0078125 .7739868 .10119629 .7739868 .22325135V.22314453M.6239929 .22225952C.6239929 .112213138 .5499878 .048187257 .44499208 .048187257 .397995 .048187257 .33799745 .063186649 .2889862 .1282196V.32730104C.33999635 .3801422 .41799928 .39013673 .45799256 .39013673 .56799319 .39013673 .6239929 .31814576 .6239929 .22213745V.22225952Z"/>
<path id="font_11_72" d="M.36999513 0V.066986087H.2979889V.69433596L.100997928 .6855469V.61854556C.16499329 .61854556 .17298889 .61854556 .17298889 .5795746V.066986087H.100997928V0C.1459961 .0029907227 .18998719 .0039978029 .23498535 .0039978029 .23899842 .0039978029 .31698609 .0039978029 .36999513 0Z"/>
<path id="font_11_66" d="M.36299134 0V.066986087H.2979889V.45214845L.10398865 .44433595V.3773346C.1659851 .3773346 .17298889 .3773346 .17298889 .33828736V.066986087H.100997928V0C.14498902 .0029907227 .18998719 .0039978029 .23399353 .0039978029 .2769928 .0039978029 .31999208 .0029907227 .36299134 0M.3039856 .60250857C.3039856 .6505127 .2639923 .68652346 .21798706 .68652346 .16999817 .68652346 .13198853 .6485138 .13198853 .6035156 .13198853 .5555115 .17199707 .519516 .21798706 .519516 .2659912 .519516 .3039856 .5575104 .3039856 .60250857Z"/>
<path id="font_11_105" d="M.49899293 .1191864V.1671753H.41600038V.123184207C.41600038 .093185428 .4059906 .05418396 .34799195 .05418396 .2849884 .054092409 .2849884 .09408569 .2849884 .12109375V.3773346H.47499085V.44433595H.2849884V.6357422H.20199585C.19999695 .53352358 .1459961 .43632508 .04399109 .43333436V.3773346H.1519928V.11820984C.1519928 .0051727297 .26098634-.0078125 .32598878-.0078125 .39898683-.0078125 .49899293 .018173218 .49899293 .11921692V.1191864Z"/>
<path id="font_11_109" d="M.776001 .00018310547V.06718445C.71199038 .06718445 .70399478 .06718445 .70399478 .106170658V.45214845L.49899293 .44433595V.3773346C.5629883 .3773346 .57099917 .3773346 .57099917 .3383026V.15823365C.57099917 .06518555 .47399903 .048187257 .4059906 .048187257 .3019867 .048187257 .3019867 .06819153 .3019867 .112213138V.45214845L.09700012 .44433595V.3773346C.16099549 .3773346 .16899109 .3773346 .16899109 .3383026V.11820984C.16899109 .0021820069 .2899933-.0078125 .3849945-.0078125 .4189911-.0078125 .5139923-.0078125 .57899478 .05718994V-.0078125L.776001 .00018310547Z"/>
<path id="font_11_47" d="M.7549896 .00018310547V.06718445C.69099429 .06718445 .68299868 .06718445 .68299868 .10618591V.69433596L.48599244 .6855469V.61854556C.5499878 .61854556 .55799868 .61854556 .55799868 .5796814V.41114808C.5179901 .43214417 .45700074 .45214845 .37799073 .45214845 .1639862 .45214845 .06498718 .34014894 .06498718 .22116089 .06498718 .11216736 .1519928-.0078125 .3639984-.0078125 .44099427-.0078125 .5039978 .013183594 .5499878 .04118347V-.0078125L.7549896 .00018310547M.5499878 .13198853C.5 .06817627 .43499757 .048187257 .37799073 .048187257 .21499634 .048187257 .21499634 .16716004 .21499634 .22015381 .21499634 .27415467 .21499634 .39613343 .3929901 .39613343 .43699647 .39613343 .4869995 .3851471 .5289917 .3511505 .5499878 .33415223 .5499878 .33314515 .5499878 .31315614V.13198853Z"/>
<path id="font_11_50" d="M.6349945 .11022949C.6349945 .1352539 .61099246 .1352539 .5970001 .1352539H.58999636C.57099917 .1352539 .5629883 .1352539 .55400088 .12124634 .5439911 .10221863 .5159912 .05418396 .4099884 .05418396 .2829895 .05418396 .21699524 .10322571 .20799256 .19726563H.5970001C.61698916 .19726563 .6349945 .19726563 .6349945 .22921753 .6349945 .2871704 .61299136 .35508729 .57099917 .39305116 .5249939 .43304444 .46499635 .4560547 .3659973 .4560547 .14199829 .4560547 .056991579 .33311463 .056991579 .2262268 .056991579 .12023926 .14199829-.0078125 .3869934-.0078125 .4119873-.0078125 .48098756-.0078125 .54100039 .016174317 .60899356 .04335022 .6349945 .096343997 .6349945 .11035156V.11022949M.5339966 .24804688H.20799256C.20899964 .28404237 .21099854 .40003968 .36698915 .40003968 .5029907 .40003968 .5289917 .31504823 .5339966 .24804688Z"/>
<path id="font_11_82" d="M.6399994 0V.066986087H.45899964V.6232147C.45899964 .6541443 .45298768 .6611328 .42099 .6611328H.3999939C.31498719 .5972595 .18598938 .5972595 .16299439 .5972595H.13598633V.53027346H.16299439C.1749878 .53027346 .2519989 .53027346 .32499696 .55526736V.066986087H.14399719V0C.19299317 .0039978029 .33499146 .0039978029 .3919983 .0039978029 .44898988 .0039978029 .59098818 .0039978029 .6399994 0Z"/>
<path id="font_10_84" d="M.61698916 .22218323C.61698916 .354187 .526001 .4501953 .375 .4501953 .2939911 .45033265 .23899842 .41633607 .21998596 .40234376V.4501953L.040985109 .4423828V.39337159C.06098938 .39337159 .07699585 .39337159 .08999634 .39038087 .10899353 .38737489 .10899353 .3763733 .10899353 .3553772V-.14453125H.040985109V-.19354248L.16699219-.1905365 .2939911-.19354248V-.14453125H.22599793V.03942871C.2849884-.005859375 .33999635-.005859375 .35899354-.005859375 .5159912-.005859375 .61698916 .089141849 .61698916 .22216797V.22218323M.48399354 .22315979C.48399354 .08413696 .41299439 .03413391 .34700013 .03413391 .29599 .03413391 .25299073 .06314087 .22599793 .104141239V.34518434C.24398804 .3671875 .29100038 .4071808 .35899354 .4071808 .42900086 .4071808 .48399354 .34518434 .48399354 .22315979Z"/>
<path id="font_10_96" d="M.45498658 .36618043C.45498658 .41719056 .40299989 .4501953 .34399415 .4501953 .27398683 .4501953 .23098755 .39918519 .20899964 .34118653H.20799256V.4501953L.040985109 .4423828V.39337159C.100997928 .39337159 .10899353 .39337159 .10899353 .3543396V.04899597H.040985109V0L.16899109 .0029907227C.19400025 .0029907227 .2519989 .0029907227 .30499269 0V.04899597H.21998596V.21818543C.21998596 .29125978 .24699402 .40737916 .34399415 .41036988 .33299256 .39898683 .32798768 .38198854 .32798768 .3659973 .32798768 .32199098 .36299134 .3019867 .3909912 .3019867 .4229889 .3019867 .45498658 .32398988 .45498658 .3659973V.36618043Z"/>
<path id="font_10_81" d="M.55799868 .21812439C.55799868 .3491211 .46598817 .453125 .29599 .453125 .11999512 .453125 .032989503 .3441162 .032989503 .21812439 .032989503 .09413147 .12298584-.005859375 .29499818-.005859375 .47399903-.005859375 .55799868 .09913635 .55799868 .21812439M.4249878 .22912598C.4249878 .14312744 .4249878 .037139894 .29599 .037139894 .1659851 .037139894 .1659851 .14213562 .1659851 .22912598 .1659851 .3131256 .1659851 .41311646 .29499818 .41311646 .4249878 .41311646 .4249878 .3131256 .4249878 .22912598Z"/>
<path id="font_2_6" d="M.5319977 .22505188H.48098756C.47898866 .21104431 .46998597 .13999939 .45498658 .1329956 .44198609 .12799073 .36799623 .12799073 .35099793 .12799073H.20799256C.26098634 .17102051 .32099916 .2180481 .37098695 .25306703 .45498658 .31211854 .5319977 .3661499 .5319977 .46418763 .5319977 .581192 .4249878 .65625 .27999879 .65625 .1559906 .65625 .05899048 .597229 .05899048 .505188 .05899048 .45318605 .09899902 .42918397 .13398743 .42918397 .1659851 .42918397 .20799256 .4521942 .20799256 .5041809 .20799256 .5261841 .19898987 .56318667 .15499878 .5751953 .18998719 .60324099 .23498535 .60723879 .25498963 .60723879 .33699037 .60723879 .3889923 .54618838 .3889923 .46318055 .3889923 .39115907 .34599305 .32511903 .29299928 .27108766L.069992069 .050994874C.05899048 .039993287 .05899048 .038986207 .05899048 .018997193V0H.5009918L.5319977 .22505188Z"/>
</defs>
<path transform="matrix(1,0,0,-1,108.115009,110.920009)" stroke-width=".79701" stroke-linecap="butt" stroke-miterlimit="10" stroke-linejoin="miter" fill="none" stroke="#000000" d="M-97.38577 0H267.46665"/>
<path transform="matrix(-1,-0,0,1,10.729233,110.920009)" d="M4.66248 0C3.28098 .25902 1.0361 1.0361-.51805 1.94269V-1.94269C1.0361-1.0361 3.28098-.25902 4.66248 0"/>
<path transform="matrix(1,0,0,-1,375.58168,110.920009)" d="M4.66248 0C3.28098 .25902 1.0361 1.0361-.51805 1.94269V-1.94269C1.0361-1.0361 3.28098-.25902 4.66248 0"/>
<use data-text="x" xlink:href="#font_1_7" transform="matrix(9.9626,0,0,-9.9626,383.96299,113.134)"/>
<path transform="matrix(1,0,0,-1,108.115009,110.920009)" stroke-width=".79701" stroke-linecap="butt" stroke-miterlimit="10" stroke-linejoin="miter" fill="none" stroke="#000000" d="M0-87.18146V87.18146"/>
<path transform="matrix(0,1,1,0,108.115009,198.10147)" d="M4.66248 0C3.28098 .25902 1.0361 1.0361-.51805 1.94269V-1.94269C1.0361-1.0361 3.28098-.25902 4.66248 0"/>
<path transform="matrix(0,-1,-1,-0,108.115009,23.738549)" d="M4.66248 0C3.28098 .25902 1.0361 1.0361-.51805 1.94269V-1.94269C1.0361-1.0361 3.28098-.25902 4.66248 0"/>
<use data-text="y" xlink:href="#font_1_8" transform="matrix(9.9626,0,0,-9.9626,104.990009,13.420006)"/>
<use data-text="0" xlink:href="#font_2_4" transform="matrix(8.9664,0,0,-8.9664,110.218,120.21801)"/>
<path transform="matrix(1,0,0,-1,108.115009,110.920009)" stroke-width=".79701" stroke-linecap="butt" stroke-miterlimit="10" stroke-linejoin="miter" fill="none" stroke="#000000" d="M85.04042 2.55135V-2.55135"/>
<use data-text="1" xlink:href="#font_3_82" transform="matrix(8.9664,0,0,-8.9664,190.851,125.997)"/>
<path transform="matrix(1,0,0,-1,108.115009,110.920009)" stroke-width=".79701" stroke-linecap="butt" stroke-miterlimit="10" stroke-linejoin="miter" fill="none" stroke="#000000" d="M170.08086 2.55135V-2.55135"/>
<use data-text="2" xlink:href="#font_3_107" transform="matrix(8.9664,0,0,-8.9664,275.891,125.997)"/>
<path transform="matrix(1,0,0,-1,108.115009,110.920009)" stroke-width=".79701" stroke-linecap="butt" stroke-miterlimit="10" stroke-linejoin="miter" fill="none" stroke="#000000" d="M255.12128 2.55135V-2.55135"/>
<use data-text="3" xlink:href="#font_3_106" transform="matrix(8.9664,0,0,-8.9664,360.932,125.997)"/>
<path transform="matrix(1,0,0,-1,108.115009,110.920009)" stroke-width=".79701" stroke-linecap="butt" stroke-miterlimit="10" stroke-linejoin="miter" fill="none" stroke="#000000" d="M4.25224-51.02432H-4.25224"/>
<use data-text="-" xlink:href="#font_3_64" transform="matrix(8.9664,0,0,-8.9664,89.625,164.93)"/>
<use data-text="1" xlink:href="#font_3_82" transform="matrix(8.9664,0,0,-8.9664,92.70048,164.93)"/>
<path transform="matrix(1,0,0,-1,108.115009,110.920009)" stroke-width=".79701" stroke-linecap="butt" stroke-miterlimit="10" stroke-linejoin="miter" fill="none" stroke="#000000" d="M4.25224 51.02432H-4.25224"/>
<use data-text="1" xlink:href="#font_3_82" transform="matrix(8.9664,0,0,-8.9664,92.7,62.882009)"/>
<use data-text="1" xlink:href="#font_4_5" transform="matrix(7.9701,0,0,-7.9701,148.194,125.24501)"/>
<path transform="matrix(1,0,0,-1,110.884,91.878009)" stroke-width=".3587" stroke-linecap="butt" stroke-miterlimit="10" stroke-linejoin="miter" fill="none" stroke="#000000" d="M37.31-36.924H42.192"/>
<use data-text="2" xlink:href="#font_4_6" transform="matrix(7.9701,0,0,-7.9701,148.194,136.76502)"/>
<use data-text="&#x2212;" xlink:href="#font_5_1" transform="matrix(7.9701,0,0,-7.9701,52.492,130.79502)"/>
<use data-text="1" xlink:href="#font_4_5" transform="matrix(7.9701,0,0,-7.9701,61.281,125.24501)"/>
<path transform="matrix(1,0,0,-1,16.376999,91.878009)" stroke-width=".3587" stroke-linecap="butt" stroke-miterlimit="10" stroke-linejoin="miter" fill="none" stroke="#000000" d="M44.904-36.924H49.786"/>
<use data-text="2" xlink:href="#font_4_6" transform="matrix(7.9701,0,0,-7.9701,61.281,136.76502)"/>
<use data-text="3" xlink:href="#font_4_7" transform="matrix(7.9701,0,0,-7.9701,233.23401,125.24501)"/>
<path transform="matrix(1,0,0,-1,195.92401,91.878009)" stroke-width=".3587" stroke-linecap="butt" stroke-miterlimit="10" stroke-linejoin="miter" fill="none" stroke="#000000" d="M37.31-36.924H42.192"/>
<use data-text="2" xlink:href="#font_4_6" transform="matrix(7.9701,0,0,-7.9701,233.23401,136.76502)"/>
<use data-text="5" xlink:href="#font_4_9" transform="matrix(7.9701,0,0,-7.9701,318.275,125.24501)"/>
<path transform="matrix(1,0,0,-1,280.965,91.878009)" stroke-width=".3587" stroke-linecap="butt" stroke-miterlimit="10" stroke-linejoin="miter" fill="none" stroke="#000000" d="M37.31-36.924H42.192"/>
<use data-text="2" xlink:href="#font_4_6" transform="matrix(7.9701,0,0,-7.9701,318.275,136.76502)"/>
<path transform="matrix(1,0,0,-1,108.115009,110.920009)" stroke-width="1.59404" stroke-linecap="butt" stroke-miterlimit="10" stroke-linejoin="miter" fill="none" stroke="#bf00ff" d="M-65.55083 38.42015-66.4949 39.50774-64.95721 37.61032-63.41956 35.59305-61.88187 33.46135-60.34421 31.21983-58.80652 28.8779-57.26888 26.4433-55.73117 23.92308-54.19353 21.32654-52.65582 18.65993-51.11818 15.93417-49.58049 13.15623-48.04283 10.33705-46.50514 7.48358-44.96748 4.60521-43.4298 1.71283-41.89215-1.18416-40.35445-4.07813-38.8168-6.95882-37.2791-9.81775-35.74146-12.64395-34.20377-15.42967-32.6661-18.16557-31.12842-20.84462-29.59076-23.45438-28.05307-25.98941-26.51543-28.44035-24.97772-30.79942-23.44008-33.0588-21.90237-35.21236-20.36473-37.2522-18.82704-39.17058-17.28938-40.96443-15.7517-42.62433-14.21404-44.14876-12.67635-45.52994-11.13869-46.76242-9.601-47.84618-8.06335-48.77582-6.52565-49.54659-4.988-50.15778-3.4503-50.60777-1.91266-50.89586-.37497-51.0181 1.16263-50.9745 2.70032-50.76819 4.23798-50.39912 5.77567-49.86502 7.31331-49.17133 8.85101-48.31956 10.38866-47.3121 11.92636-46.14969 13.464-44.83937 15.0017-43.38579 16.53935-41.79204 18.07704-40.06206 19.6147-38.20284 21.15239-36.22215 22.69003-34.1239 24.22774-31.91432 25.76538-29.60197 27.30309-27.19542 28.84073-24.70166 30.37842-22.12614 31.91608-19.47978 33.45377-16.77194 34.99142-14.00879 36.52911-11.20049 38.06676-8.35637 39.60446-5.48499 41.1421-2.59573 42.67981 .29973 44.21745 3.196 45.75516 6.08138 47.2928 8.94884 48.83049 11.78519 50.36815 14.58492 51.90584 17.33795 53.4435 20.03412 54.98119 22.6657 56.51883 25.22406 58.05653 27.70227 59.59418 30.09013 61.13188 32.38068 62.66953 34.56769 64.20721 36.64256 65.74487 38.59912 67.28256 40.43108 68.82022 42.13228 70.35791 43.69876 71.89555 45.12354 73.43326 46.40196 74.9709 47.53242 76.5086 48.50954 78.04625 49.32857 79.58394 49.98882 81.1216 50.48788 82.65929 50.82579 84.19695 50.99709 85.73463 51.00485 87.27228 50.84836 88.80998 50.52916 90.34763 50.04488 91.88533 49.39944 93.42297 48.59518 94.96068 47.63521 96.49832 46.5195 98.03601 45.25433 99.57367 43.84358 101.11136 42.29266 102.64902 40.60237 104.1867 38.78209 105.72435 36.83798 107.26205 34.77557 108.7997 32.5987 110.3374 30.31671 111.87505 27.93817 113.41273 25.47087 114.9504 22.91872 116.48808 20.29338 118.02574 17.60266 119.56343 14.85664 121.10107 12.06 122.63878 9.22604 124.17642 6.36243 125.71413 3.47784 127.25177 .58313 128.78946-2.31311 130.32712-5.20393 131.8648-8.07764 133.40247-10.92409 134.94016-13.73627 136.4778-16.50487 138.0155-19.21896 139.55315-21.87079 141.09085-24.45251 142.6285-26.9564 144.16619-29.3723 145.70384-31.69319 147.24153-33.91135 148.77919-36.02206 150.31688-38.0152 151.85454-39.88531 153.39223-41.62854 154.92987-43.23706 156.46758-44.70389 158.00522-46.02747 159.54293-47.20389 161.08057-48.22925 162.61826-49.09503 164.15592-49.80429 165.6936-50.35318 167.23126-50.74092 168.76895-50.96202 170.3066-51.02042 171.8443-50.91298 173.38195-50.64516 174.91965-50.20993 176.45729-49.61356 177.99498-48.85678 179.53264-47.94507 181.07033-46.87532 182.60799-45.65453 184.14568-44.28893 185.68332-42.78003 187.22103-41.13101 188.75867-39.35043 190.29637-37.44371 191.83402-35.41556 193.3717-33.27368 194.90937-31.02287 196.44705-28.67392 197.98471-26.23233 199.5224-23.70432 201.06006-21.10078 202.59775-18.42949 204.13539-15.69907 205.6731-12.91646 207.21074-10.09335 208.74845-7.23755 210.28609-4.35918 211.82378-1.466 213.36144 1.43098 214.89913 4.3249 216.43679 7.20409 217.97447 10.05986 219.51212 12.88373 221.04982 15.66637 222.58747 18.39835 224.12517 21.06963 225.66281 23.67393 227.2005 26.20274 228.73816 28.64511 230.27585 30.99638 231.8135 33.24724 233.3512 35.39142 234.88884 37.42114 236.42655 39.32863 235.49114 38.2445"/>
<path transform="matrix(-.65553,-.75514,-.75514,.65553,42.56418,72.499858)" d="M3.78581 0-2.27148 3.02866 0 0-2.27148-3.02866" fill="#bf00ff"/>
<path transform="matrix(.65324,-.75711,-.75711,-.65324,343.60615,72.67551)" d="M3.78581 0-2.27148 3.02866 0 0-2.27148-3.02866" fill="#bf00ff"/>
<path transform="matrix(1,0,0,-1,108.115009,110.920009)" d="M2.2545-51.02432C2.2545-49.77917 1.24515-48.7698 0-48.7698-1.24515-48.7698-2.2545-49.77917-2.2545-51.02432-2.2545-52.26947-1.24515-53.27884 0-53.27884 1.24515-53.27884 2.2545-52.26947 2.2545-51.02432ZM0-51.02432"/>
<path transform="matrix(1,0,0,-1,108.115009,110.920009)" stroke-width=".49814" stroke-linecap="butt" stroke-miterlimit="10" stroke-linejoin="miter" fill="none" stroke="#ffffff" d="M2.2545-51.02432C2.2545-49.77917 1.24515-48.7698 0-48.7698-1.24515-48.7698-2.2545-49.77917-2.2545-51.02432-2.2545-52.26947-1.24515-53.27884 0-53.27884 1.24515-53.27884 2.2545-52.26947 2.2545-51.02432ZM0-51.02432"/>
<path transform="matrix(1,0,0,-1,108.115009,110.920009)" d="M44.7747 0C44.7747 1.24515 43.76534 2.2545 42.52019 2.2545 41.27504 2.2545 40.26567 1.24515 40.26567 0 40.26567-1.24515 41.27504-2.2545 42.52019-2.2545 43.76534-2.2545 44.7747-1.24515 44.7747 0ZM42.52019 0"/>
<path transform="matrix(1,0,0,-1,108.115009,110.920009)" stroke-width=".49814" stroke-linecap="butt" stroke-miterlimit="10" stroke-linejoin="miter" fill="none" stroke="#ffffff" d="M44.7747 0C44.7747 1.24515 43.76534 2.2545 42.52019 2.2545 41.27504 2.2545 40.26567 1.24515 40.26567 0 40.26567-1.24515 41.27504-2.2545 42.52019-2.2545 43.76534-2.2545 44.7747-1.24515 44.7747 0ZM42.52019 0"/>
<path transform="matrix(1,0,0,-1,108.115009,110.920009)" d="M87.29494 51.02432C87.29494 52.26947 86.28557 53.27884 85.04042 53.27884 83.79527 53.27884 82.7859 52.26947 82.7859 51.02432 82.7859 49.77917 83.79527 48.7698 85.04042 48.7698 86.28557 48.7698 87.29494 49.77917 87.29494 51.02432ZM85.04042 51.02432"/>
<path transform="matrix(1,0,0,-1,108.115009,110.920009)" stroke-width=".49814" stroke-linecap="butt" stroke-miterlimit="10" stroke-linejoin="miter" fill="none" stroke="#ffffff" d="M87.29494 51.02432C87.29494 52.26947 86.28557 53.27884 85.04042 53.27884 83.79527 53.27884 82.7859 52.26947 82.7859 51.02432 82.7859 49.77917 83.79527 48.7698 85.04042 48.7698 86.28557 48.7698 87.29494 49.77917 87.29494 51.02432ZM85.04042 51.02432"/>
<path transform="matrix(1,0,0,-1,108.115009,110.920009)" d="M129.81513 0C129.81513 1.24515 128.80576 2.2545 127.56061 2.2545 126.31546 2.2545 125.3061 1.24515 125.3061 0 125.3061-1.24515 126.31546-2.2545 127.56061-2.2545 128.80576-2.2545 129.81513-1.24515 129.81513 0ZM127.56061 0"/>
<path transform="matrix(1,0,0,-1,108.115009,110.920009)" stroke-width=".49814" stroke-linecap="butt" stroke-miterlimit="10" stroke-linejoin="miter" fill="none" stroke="#ffffff" d="M129.81513 0C129.81513 1.24515 128.80576 2.2545 127.56061 2.2545 126.31546 2.2545 125.3061 1.24515 125.3061 0 125.3061-1.24515 126.31546-2.2545 127.56061-2.2545 128.80576-2.2545 129.81513-1.24515 129.81513 0ZM127.56061 0"/>
<path transform="matrix(1,0,0,-1,108.115009,110.920009)" d="M172.33538-51.02432C172.33538-49.77917 171.326-48.7698 170.08086-48.7698 168.83571-48.7698 167.82634-49.77917 167.82634-51.02432 167.82634-52.26947 168.83571-53.27884 170.08086-53.27884 171.326-53.27884 172.33538-52.26947 172.33538-51.02432ZM170.08086-51.02432"/>
<path transform="matrix(1,0,0,-1,108.115009,110.920009)" stroke-width=".49814" stroke-linecap="butt" stroke-miterlimit="10" stroke-linejoin="miter" fill="none" stroke="#ffffff" d="M172.33538-51.02432C172.33538-49.77917 171.326-48.7698 170.08086-48.7698 168.83571-48.7698 167.82634-49.77917 167.82634-51.02432 167.82634-52.26947 168.83571-53.27884 170.08086-53.27884 171.326-53.27884 172.33538-52.26947 172.33538-51.02432ZM170.08086-51.02432"/>
<path transform="matrix(1,0,0,-1,108.115009,110.920009)" d="M-40.26567 0C-40.26567 1.24515-41.27504 2.2545-42.52019 2.2545-43.76534 2.2545-44.7747 1.24515-44.7747 0-44.7747-1.24515-43.76534-2.2545-42.52019-2.2545-41.27504-2.2545-40.26567-1.24515-40.26567 0ZM-42.52019 0"/>
<path transform="matrix(1,0,0,-1,108.115009,110.920009)" stroke-width=".49814" stroke-linecap="butt" stroke-miterlimit="10" stroke-linejoin="miter" fill="none" stroke="#ffffff" d="M-40.26567 0C-40.26567 1.24515-41.27504 2.2545-42.52019 2.2545-43.76534 2.2545-44.7747 1.24515-44.7747 0-44.7747-1.24515-43.76534-2.2545-42.52019-2.2545-41.27504-2.2545-40.26567-1.24515-40.26567 0ZM-42.52019 0"/>
<path transform="matrix(1,0,0,-1,108.115009,110.920009)" d="M214.85556 0C214.85556 1.24515 213.84619 2.2545 212.60105 2.2545 211.3559 2.2545 210.34653 1.24515 210.34653 0 210.34653-1.24515 211.3559-2.2545 212.60105-2.2545 213.84619-2.2545 214.85556-1.24515 214.85556 0ZM212.60105 0"/>
<path transform="matrix(1,0,0,-1,108.115009,110.920009)" stroke-width=".49814" stroke-linecap="butt" stroke-miterlimit="10" stroke-linejoin="miter" fill="none" stroke="#ffffff" d="M214.85556 0C214.85556 1.24515 213.84619 2.2545 212.60105 2.2545 211.3559 2.2545 210.34653 1.24515 210.34653 0 210.34653-1.24515 211.3559-2.2545 212.60105-2.2545 213.84619-2.2545 214.85556-1.24515 214.85556 0ZM212.60105 0"/>
<use data-text="(" xlink:href="#font_4_1" transform="matrix(7.9701,0,0,-7.9701,111.634998,177.11801)"/>
<use data-text="0" xlink:href="#font_4_4" transform="matrix(7.9701,0,0,-7.9701,115.428768,177.11801)"/>
<use data-text="," xlink:href="#font_6_3" transform="matrix(7.9701,0,0,-7.9701,120.313,177.11801)"/>
<use data-text="&#x2212;" xlink:href="#font_5_1" transform="matrix(7.9701,0,0,-7.9701,124.437,177.11801)"/>
<use data-text="1" xlink:href="#font_4_5" transform="matrix(7.9701,0,0,-7.9701,132.031,177.11801)"/>
<use data-text=")" xlink:href="#font_4_2" transform="matrix(7.9701,0,0,-7.9701,136.90869,177.11801)"/>
<use data-text="(" xlink:href="#font_4_1" transform="matrix(7.9701,0,0,-7.9701,128.912,101.43001)"/>
<use data-text="1" xlink:href="#font_4_5" transform="matrix(7.9701,0,0,-7.9701,133.90399,95.880008)"/>
<path transform="matrix(1,0,0,-1,92.797,62.51301)" stroke-width=".3587" stroke-linecap="butt" stroke-miterlimit="10" stroke-linejoin="miter" fill="none" stroke="#000000" d="M41.107-36.924H45.989"/>
<use data-text="2" xlink:href="#font_4_6" transform="matrix(7.9701,0,0,-7.9701,133.90399,107.40001)"/>
<use data-text="," xlink:href="#font_6_3" transform="matrix(7.9701,0,0,-7.9701,139.98099,101.43001)"/>
<use data-text="0" xlink:href="#font_4_4" transform="matrix(7.9701,0,0,-7.9701,144.105,101.43001)"/>
<use data-text=")" xlink:href="#font_4_2" transform="matrix(7.9701,0,0,-7.9701,148.9827,101.43001)"/>
<use data-text="(" xlink:href="#font_4_1" transform="matrix(7.9701,0,0,-7.9701,182.41402,48.707006)"/>
<use data-text="1" xlink:href="#font_4_5" transform="matrix(7.9701,0,0,-7.9701,186.20778,48.707006)"/>
<use data-text="," xlink:href="#font_6_3" transform="matrix(7.9701,0,0,-7.9701,191.09201,48.707006)"/>
<use data-text="1" xlink:href="#font_4_5" transform="matrix(7.9701,0,0,-7.9701,195.21602,48.707006)"/>
<use data-text=")" xlink:href="#font_4_2" transform="matrix(7.9701,0,0,-7.9701,200.09372,48.707006)"/>
<use data-text="(" xlink:href="#font_4_1" transform="matrix(7.9701,0,0,-7.9701,239.19301,101.43001)"/>
<use data-text="3" xlink:href="#font_4_7" transform="matrix(7.9701,0,0,-7.9701,244.185,95.880008)"/>
<path transform="matrix(1,0,0,-1,203.078,62.51301)" stroke-width=".3587" stroke-linecap="butt" stroke-miterlimit="10" stroke-linejoin="miter" fill="none" stroke="#000000" d="M41.107-36.924H45.989"/>
<use data-text="2" xlink:href="#font_4_6" transform="matrix(7.9701,0,0,-7.9701,244.185,107.40001)"/>
<use data-text="," xlink:href="#font_6_3" transform="matrix(7.9701,0,0,-7.9701,250.262,101.43001)"/>
<use data-text="0" xlink:href="#font_4_4" transform="matrix(7.9701,0,0,-7.9701,254.386,101.43001)"/>
<use data-text=")" xlink:href="#font_4_2" transform="matrix(7.9701,0,0,-7.9701,259.2637,101.43001)"/>
<use data-text="(" xlink:href="#font_4_1" transform="matrix(7.9701,0,0,-7.9701,263.656,177.11801)"/>
<use data-text="2" xlink:href="#font_4_6" transform="matrix(7.9701,0,0,-7.9701,267.44978,177.11801)"/>
<use data-text="," xlink:href="#font_6_3" transform="matrix(7.9701,0,0,-7.9701,272.334,177.11801)"/>
<use data-text="&#x2212;" xlink:href="#font_5_1" transform="matrix(7.9701,0,0,-7.9701,276.458,177.11801)"/>
<use data-text="1" xlink:href="#font_4_5" transform="matrix(7.9701,0,0,-7.9701,284.052,177.11801)"/>
<use data-text=")" xlink:href="#font_4_2" transform="matrix(7.9701,0,0,-7.9701,288.9297,177.11801)"/>
<use data-text="y" xlink:href="#font_1_8" transform="matrix(9.9626,0,0,-9.9626,281.716,51.877008)" fill="#bf00ff"/>
<use data-text="=" xlink:href="#font_7_12" transform="matrix(9.9626,0,0,-9.9626,290.733,51.877008)" fill="#bf00ff"/>
<use data-text="&#x2212;" xlink:href="#font_8_1" transform="matrix(9.9626,0,0,-9.9626,302.411,51.877008)" fill="#bf00ff"/>
<use data-text="c" xlink:href="#font_7_13" transform="matrix(9.9626,0,0,-9.9626,312.982,51.877008)" fill="#bf00ff"/>
<use data-text="o" xlink:href="#font_7_16" transform="matrix(9.9626,0,0,-9.9626,318.07289,51.877008)" fill="#bf00ff"/>
<use data-text="s" xlink:href="#font_7_17" transform="matrix(9.9626,0,0,-9.9626,323.8014,51.877008)" fill="#bf00ff"/>
<use data-text="&#x03c0;" xlink:href="#font_1_1" transform="matrix(9.9626,0,0,-9.9626,329.982,51.877008)" fill="#bf00ff"/>
<use data-text="x" xlink:href="#font_1_7" transform="matrix(9.9626,0,0,-9.9626,337.1451,51.877008)" fill="#bf00ff"/>
<use data-text="y" xlink:href="#font_9_4" transform="matrix(8.9664,0,0,-8.9664,15.662998,120.21801)"/>
<use data-text="=" xlink:href="#font_2_13" transform="matrix(8.9664,0,0,-8.9664,24.011998,120.21801)"/>
<use data-text="0" xlink:href="#font_2_4" transform="matrix(8.9664,0,0,-8.9664,34.81651,120.21801)"/>
<use data-text="m" xlink:href="#font_10_75" transform="matrix(8.9664,0,0,-8.9664,10.725998,131.177)"/>
<use data-text="i" xlink:href="#font_10_66" transform="matrix(8.9664,0,0,-8.9664,19.566868,131.177)"/>
<use data-text="d" xlink:href="#font_10_47" transform="matrix(8.9664,0,0,-8.9664,22.516816,131.177)"/>
<use data-text="l" xlink:href="#font_10_72" transform="matrix(8.9664,0,0,-8.9664,28.407742,131.177)"/>
<use data-text="i" xlink:href="#font_10_66" transform="matrix(8.9664,0,0,-8.9664,31.357689,131.177)"/>
<use data-text="n" xlink:href="#font_10_77" transform="matrix(8.9664,0,0,-8.9664,34.307638,131.177)"/>
<use data-text="e" xlink:href="#font_10_50" transform="matrix(8.9664,0,0,-8.9664,40.198564,131.177)"/>
<path transform="matrix(1,0,0,-1,108.115009,110.920009)" stroke-width=".79701" stroke-linecap="butt" stroke-miterlimit="10" stroke-linejoin="miter" fill="none" stroke="#000000" d="M85.04042 4.66248V46.36185"/>
<path transform="matrix(0,1,1,0,193.15543,106.25752)" d="M4.66248 0C3.28098 .25902 1.0361 1.0361-.51805 1.94269V-1.94269C1.0361-1.0361 3.28098-.25902 4.66248 0"/>
<path transform="matrix(0,-1,-1,-0,193.15543,64.55815)" d="M4.66248 0C3.28098 .25902 1.0361 1.0361-.51805 1.94269V-1.94269C1.0361-1.0361 3.28098-.25902 4.66248 0"/>
<use data-text="a" xlink:href="#font_11_28" transform="matrix(0,-4.9813,-4.9813,-0,187.25199,105.166)"/>
<use data-text="m" xlink:href="#font_11_75" transform="matrix(0,-4.9813,-4.9813,-0,187.25199,101.48981)"/>
<use data-text="p" xlink:href="#font_11_84" transform="matrix(0,-4.9813,-4.9813,-0,187.25199,95.303028)"/>
<use data-text="l" xlink:href="#font_11_72" transform="matrix(0,-4.9813,-4.9813,-0,187.25199,91.12372)"/>
<use data-text="i" xlink:href="#font_11_66" transform="matrix(0,-4.9813,-4.9813,-0,187.25199,88.95187)"/>
<use data-text="t" xlink:href="#font_11_105" transform="matrix(0,-4.9813,-4.9813,-0,187.25199,86.78002)"/>
<use data-text="u" xlink:href="#font_11_109" transform="matrix(0,-4.9813,-4.9813,-0,187.25199,83.80618)"/>
<use data-text="d" xlink:href="#font_11_47" transform="matrix(0,-4.9813,-4.9813,-0,187.25199,79.62688)"/>
<use data-text="e" xlink:href="#font_11_50" transform="matrix(0,-4.9813,-4.9813,-0,187.25199,75.44756)"/>
<use data-text="1" xlink:href="#font_11_82" transform="matrix(0,-4.9813,-4.9813,-0,187.25199,69.43015)"/>
<path transform="matrix(1,0,0,-1,108.115009,110.920009)" stroke-width=".79701" stroke-linecap="butt" stroke-miterlimit="10" stroke-linejoin="miter" fill="none" stroke="#000000" d="M.59775-76.53648H169.4831"/>
<path transform="matrix(-1,-0,0,1,113.57448,187.45648)" d="M4.66248 0C3.28098 .25902 1.0361 1.0361-.51805 1.94269V-1.94269C1.0361-1.0361 3.28098-.25902 4.66248 0"/>
<path transform="matrix(-1,-0,0,1,108.513507,187.45648)" stroke-width=".79701" stroke-linecap="butt" stroke-miterlimit="10" stroke-linejoin="miter" fill="none" stroke="#000000" d="M0 3.08846V-3.08846"/>
<path transform="matrix(1,0,0,-1,272.7364,187.45648)" d="M4.66248 0C3.28098 .25902 1.0361 1.0361-.51805 1.94269V-1.94269C1.0361-1.0361 3.28098-.25902 4.66248 0"/>
<path transform="matrix(1,0,0,-1,277.79737,187.45648)" stroke-width=".79701" stroke-linecap="butt" stroke-miterlimit="10" stroke-linejoin="miter" fill="none" stroke="#000000" d="M0 3.08846V-3.08846"/>
<path transform="matrix(1,0,0,-1,108.115009,110.920009)" d="M64.18887-82.01201H105.89197V-71.06098H64.18887Z" fill="#ffffff"/>
<use data-text="p" xlink:href="#font_10_84" transform="matrix(8.9664,0,0,-8.9664,173.798,189.698)"/>
<use data-text="e" xlink:href="#font_10_50" transform="matrix(8.9664,0,0,-8.9664,179.97586,189.698)"/>
<use data-text="r" xlink:href="#font_10_96" transform="matrix(8.9664,0,0,-8.9664,184.8446,189.698)"/>
<use data-text="i" xlink:href="#font_10_66" transform="matrix(8.9664,0,0,-8.9664,189.22022,189.698)"/>
<use data-text="o" xlink:href="#font_10_81" transform="matrix(8.9664,0,0,-8.9664,192.17017,189.698)"/>
<use data-text="d" xlink:href="#font_10_47" transform="matrix(8.9664,0,0,-8.9664,197.77416,189.698)"/>
<use data-text="2" xlink:href="#font_2_6" transform="matrix(8.9664,0,0,-8.9664,207.206,189.698)"/>
</svg>
