<svg style="overflow: visible;" xmlns="http://www.w3.org/2000/svg" xmlns:xlink="http://www.w3.org/1999/xlink" xmlns:inkscape="http://www.inkscape.org/namespaces/inkscape" version="1.1" width="100%" height="100%" viewBox="0 0 444.17 237.1">
<defs>
<path id="font_1_9" d="M.6159973 .37213136C.6199951 .38612367 .6199951 .38812257 .6199951 .39611817 .6199951 .42411805 .598999 .4441223 .56900027 .4441223 .5499878 .4441223 .5169983 .43211366 .5049896 .40011598 .5019989 .39411927 .49299623 .35812379 .48799134 .3371277L.42900086 .10218811C.42799378 .10118103 .38398744 .033203126 .31498719 .033203126 .25099183 .033203126 .25099183 .08518982 .25099183 .10618591 .25099183 .16316223 .2789917 .2351532 .31199647 .3181305 .31799317 .33213807 .32299806 .34413148 .32299806 .36112977 .32299806 .42211915 .2599945 .453125 .20098877 .453125 .08999634 .453125 .033996583 .3221283 .033996583 .29614259 .033996583 .2791443 .04899597 .2791443 .06199646 .2791443 .08099365 .2791443 .084991458 .2791443 .09098816 .2971344 .11898804 .38911439 .17098999 .41111756 .19499207 .41111756 .20098877 .41111756 .21199036 .41111756 .21199036 .38812257 .21199036 .36712647 .20298767 .34413148 .19599915 .32814027 .13699341 .1851654 .13699341 .15116883 .13699341 .12617493 .13699341 .011199951 .23599243-.008804321 .30799867-.008804321 .35499574-.008804321 .3899994 .00819397 .4079895 .020202637 .38598634-.08720398 .30699159-.16113281 .22999573-.16113281 .22299195-.16113281 .20098877-.16113281 .17599488-.15219116 .20599365-.13421631 .21598816-.10421753 .21598816-.08421326 .21598816-.052215578 .19198609-.033203126 .1619873-.033203126 .115997318-.033203126 .08299255-.07220459 .08299255-.114212039 .08299255-.1721344 .14498902-.203125 .22999573-.203125 .34799195-.203125 .48999024-.13121033 .5219879-.0018005371L.6159973 .37213136Z"/>
<path id="font_2_13" d="M.83999636 .33691407C.85198977 .33691407 .8839874 .33691407 .8839874 .37091065 .8839874 .40490724 .84799197 .40490724 .83399966 .40490724H.117996219C.10398865 .40490724 .067993167 .40490724 .067993167 .37091065 .067993167 .33691407 .099990848 .33691407 .11199951 .33691407H.83999636M.83399966 .095077518C.84799197 .095077518 .8839874 .095077518 .8839874 .1290741 .8839874 .16308594 .85198977 .16308594 .83999636 .16308594H.11199951C.099990848 .16308594 .067993167 .16308594 .067993167 .1290741 .067993167 .095077518 .10398865 .095077518 .117996219 .095077518H.83399966Z"/>
<path id="font_2_7" d="M.28399659 .32714845C.3999939 .32714845 .40098573 .23034668 .40098573 .18035889 .40098573 .13534546 .40098573 .033325197 .28799439 .033325197 .2669983 .033325197 .20999146 .036315919 .1599884 .068359378 .1769867 .0753479 .21299744 .09635925 .21299744 .14535523 .21299744 .19335938 .1789856 .22634888 .13198853 .22634888 .08799744 .22634888 .050994874 .1963501 .050994874 .14434815 .050994874 .047332765 .15499878-.013671875 .29299928-.013671875 .4889984-.013671875 .5609894 .09234619 .5609894 .1793518 .5609894 .26127626 .49798585 .32914735 .3899994 .35313417 .4169922 .36413575 .5269928 .40715028 .5269928 .51615908 .5269928 .59617617 .44499208 .6582031 .29599 .6582031 .1659851 .6582031 .084991458 .58917239 .084991458 .50717166 .084991458 .45115663 .1289978 .4311676 .15899658 .4311676 .19898987 .4311676 .23298645 .45916749 .23298645 .5051575 .23298645 .52716067 .22499085 .5651703 .1769867 .5771637 .22099304 .6151886 .2809906 .6151886 .2899933 .6151886 .3829956 .6151886 .3829956 .5491638 .3829956 .51916506 .3829956 .4471588 .34899903 .41015626 .34599305 .40615846 .31698609 .37513734 .29899598 .3741455 .24499512 .37113954 .21398926 .36914063 .20399475 .36813355 .20399475 .34814454 .20399475 .32714845 .21699524 .32714845 .23498535 .32714845H.28399659Z"/>
<path id="font_3_75" d="M.98999026 0V.051986696H.923996V.3034973C.923996 .42315675 .8509979 .45117188 .7589874 .45117188 .6539917 .45117188 .598999 .39059449 .5779877 .35958863 .55400088 .4371643 .4869995 .45117188 .4189911 .45117188 .2979889 .45117188 .24398804 .3715973 .23199463 .34959413H.23098755V.45117188L.055999757 .44335938V.39135743C.114990238 .39135743 .12199402 .39135743 .12199402 .35231019V.051986696H.055999757V0C.10998535 .0029907227 .14498902 .0029907227 .18299866 .0029907227 .22200012 .0029907227 .2559967 .0029907227 .30999757 0V.051986696H.24398804V.25320436C.24398804 .36413575 .33999635 .40916444 .4039917 .40916444 .43899537 .40916444 .46199037 .39215089 .46199037 .31411744V.051986696H.3959961V0C.44999696 .0029907227 .4850006 .0029907227 .522995 .0029907227 .56199648 .0029907227 .59599307 .0029907227 .6499939 0V.051986696H.58399966V.25308229C.58399966 .36413575 .6799927 .40916444 .74398806 .40916444 .7789917 .40916444 .8019867 .39215089 .8019867 .31411744V.051986696H.73599246V0C.7899933 .0029907227 .82499697 .0029907227 .86299136 .0029907227 .9019928 .0029907227 .9359894 .0029907227 .98999026 0Z"/>
<path id="font_3_66" d="M.2999878 0V.051986696H.24099732V.45117188L.06199646 .44335938V.39135743C.117996219 .39135743 .125 .39135743 .125 .35331727V.051986696H.05899048V0C.116989139 .0029907227 .12799073 .0029907227 .18099976 .0029907227 .22200012 .0029907227 .25099183 .0029907227 .2999878 0M.25099183 .6053772C.25099183 .6503906 .21299744 .685379 .17098999 .685379 .12599182 .685379 .08999634 .64938357 .08999634 .6053772 .08999634 .560379 .12799073 .5253906 .16999817 .5253906 .21499634 .5253906 .25099183 .5613861 .25099183 .6053772Z"/>
<path id="font_3_47" d="M.6339874 0V.051986696C.57499697 .051986696 .56799319 .051986696 .56799319 .09101868V.69433596L.38598634 .6855469V.6335449C.44499208 .6335449 .45199586 .6335449 .45199586 .5946808V.40815736C.397995 .4451599 .34599305 .45117188 .30899049 .45117188 .13999939 .45117188 .040985109 .35116578 .040985109 .22215271 .040985109 .091156009 .13798523-.0068359377 .29699708-.0068359377 .36999513-.007003784 .41999818 .021987915 .44599916 .041992189V-.0068359377L.6339874 0M.44599916 .11099243C.39898683 .045150758 .33999635 .03515625 .30599977 .03515625 .17599488 .03515625 .17599488 .15916443 .17599488 .21916199 .17599488 .28216554 .17599488 .40916444 .31900025 .40916444 .36499024 .40916444 .4119873 .39016725 .44599916 .34716798V.11099243Z"/>
<path id="font_3_72" d="M.30699159 0V.051986696H.24099732V.69433596L.05899048 .6855469V.6335449C.117996219 .6335449 .125 .6335449 .125 .594574V.051986696H.05899048V0C.116989139 .0029907227 .1269989 .0029907227 .18299866 .0029907227 .23899842 .0029907227 .24899292 .0029907227 .30699159 0Z"/>
<path id="font_3_77" d="M.6499939 0V.051986696H.58399966V.3034973C.58399966 .4251709 .5079956 .45117188 .4189911 .45117188 .2979889 .45117188 .24398804 .3715973 .23199463 .34959413H.23098755V.45117188L.055999757 .44335938V.39135743C.114990238 .39135743 .12199402 .39135743 .12199402 .35231019V.051986696H.055999757V0C.10998535 .0029907227 .14498902 .0029907227 .18299866 .0029907227 .22200012 .0029907227 .2559967 .0029907227 .30999757 0V.051986696H.24398804V.25320436C.24398804 .36413575 .33999635 .40916444 .4039917 .40916444 .43899537 .40916444 .46199037 .39215089 .46199037 .31411744V.051986696H.3959961V0C.44999696 .0029907227 .4850006 .0029907227 .522995 .0029907227 .56199648 .0029907227 .59599307 .0029907227 .6499939 0Z"/>
<path id="font_3_50" d="M.526001 .11508179C.526001 .13604737 .5049896 .13604737 .49798585 .13604737 .48098756 .13604737 .47698976 .13404846 .46899415 .11706543 .43699647 .04714966 .35198976 .040161134 .32398988 .040161134 .17599488 .040161134 .17098999 .15603638 .16899109 .2119751H.49198915C.5130005 .2119751 .526001 .2119751 .526001 .2409668 .526001 .28399659 .5159912 .35003663 .46598817 .3990631 .4099884 .45507813 .31999208 .45507813 .29699708 .45507813 .11898804 .45507813 .033996583 .34402467 .033996583 .2259674 .033996583 .09609985 .13398743-.0068359377 .31199647-.0068359377 .48799134-.0068359377 .526001 .10108948 .526001 .11508179M.42799378 .25097657H.16899109C.16999817 .29100038 .17399597 .41307069 .2979889 .41307069 .42199708 .41307069 .4269867 .2899933 .42799378 .25097657Z"/>
<path id="font_4_3" d="M.5499878 .39736939C.5169983 .38838197 .49299623 .35838319 .49299623 .32537843 .49299623 .28938294 .5209961 .27539063 .54499819 .27539063 .58299258 .27539063 .62098696 .30638124 .62098696 .35838319 .62098696 .41610719 .56399539 .45210267 .5029907 .45210267 .45498658 .45210267 .4169922 .4250946 .3919983 .39338685 .37799073 .41111756 .34399415 .45210267 .25 .45210267 .117996219 .45210267 .04899597 .3303833 .04899597 .29638673 .04899597 .28138734 .06298828 .28138734 .07499695 .28138734 .09098816 .28138734 .09599304 .28138734 .099990848 .29537965 .1329956 .39338685 .21299744 .41210938 .24398804 .41210938 .30299378 .41210938 .30299378 .37438966 .30299378 .36138917 .30299378 .3423767 .2889862 .28637696 .27999879 .24926758 .27198792 .21914673 .25299073 .14093018 .24699402 .11993408 .23098755 .056930543 .19198609 .032180787 .16099549 .032180787 .13999939 .032180787 .12098694 .04005432 .11099243 .046951295 .14399719 .05593872 .16799927 .0859375 .16799927 .11894226 .16799927 .15493775 .13999939 .16894531 .115997318 .16894531 .07798767 .16894531 .039993287 .13793946 .039993287 .0859375 .039993287 .028182984 .09700012-.0078125 .1579895-.0078125 .20599365-.0078125 .24398804 .019180298 .2689972 .050933839 .2829895 .03315735 .31698609-.0078125 .41099549-.0078125 .54299929-.0078125 .6119995 .11393738 .6119995 .14793396 .6119995 .16394043 .59498599 .16394043 .58599856 .16394043 .56799319 .16394043 .5649872 .16093445 .5609894 .14894104 .5279999 .050933839 .44799806 .032180787 .4169922 .032180787 .35798646 .032180787 .35798646 .06993103 .35798646 .08293152 .35798646 .10194397 .37199403 .15794373 .3809967 .1950531 .3889923 .22517395 .4079895 .3033905 .4139862 .3243866 .42999269 .38739015 .46899415 .41210938 .5 .41210938 .5209961 .41210938 .5399933 .40423585 .5499878 .39736939Z"/>
<path id="font_4_4" d="M.59498599 .3731079C.598999 .38909913 .598999 .394104 .598999 .3981018 .598999 .4320984 .57199099 .44410707 .5509949 .44410707 .49798585 .44410707 .48599244 .3961029 .47898866 .3701172L.45298768 .26612855C.43899537 .21113587 .42599488 .15615845 .41099549 .10116577 .4099884 .09416199 .3659973 .032180787 .30099488 .032180787 .2579956 .032180787 .23799134 .057174684 .23799134 .10417175 .23799134 .16314698 .27198792 .24913025 .29899598 .3171234 .30499269 .33111573 .31098939 .3461151 .31098939 .36210633 .31098939 .41410829 .25898744 .45210267 .19299317 .45210267 .08699036 .45210267 .032989503 .32011415 .032989503 .29612733 .032989503 .28112794 .04699707 .28112794 .05899048 .28112794 .07499695 .28112794 .07998657 .28112794 .083999637 .29512025 .11898804 .4091034 .1769867 .41210938 .18699646 .41210938 .19299317 .41210938 .20399475 .41210938 .20399475 .3901062 .20399475 .36810304 .19299317 .3421173 .18798828 .32911683 .147995 .22813416 .12799073 .17315674 .12799073 .12416077 .12799073 .0231781 .20899964-.0078125 .29299928-.0078125 .30899049-.0078125 .34700013-.0078125 .3919983 .02218628 .36999513-.08416748 .29599-.16210938 .21598816-.16210938 .21398926-.16210938 .18499756-.16210938 .16099549-.15216065 .18399048-.14016724 .20399475-.11515808 .20399475-.0851593 .20399475-.04916382 .17599488-.03515625 .1519928-.03515625 .10899353-.03515625 .07598877-.07316589 .07598877-.11416626 .07598877-.17111206 .13699341-.20211792 .21598816-.20211792 .33799745-.20211792 .47099305-.123168949 .5009918-.0018157959L.59498599 .3731079Z"/>
<path id="font_5_1" d="M.9819946 .20703125C.99398806 .20703125 1.0379944 .20703125 1.0379944 .25003053 1.0379944 .2930298 .99398806 .2930298 .9819946 .2930298H.20999146C.19799805 .2930298 .1539917 .2930298 .1539917 .25003053 .1539917 .20703125 .19799805 .20703125 .20999146 .20703125H.9819946Z"/>
<path id="font_6_4" d="M.36299134 .3203125C.49699403 .3203125 .5089874 .2373352 .5089874 .18234253 .5089874 .13237 .5 .044387819 .3639984 .044387819 .34298707 .044387819 .2649994 .04638672 .21398926 .07937622 .23498535 .09437561 .25 .11936951 .25 .15135193 .25 .2003479 .21398926 .2373352 .1639862 .2373352 .11399841 .2373352 .07699585 .20333863 .07699585 .14935303 .07699585 .05038452 .17599488-.016601563 .36698915-.016601563 .6139984-.016601563 .68099978 .103378299 .68099978 .18135071 .68099978 .2703247 .598999 .3283081 .5019989 .3513031 .5609894 .37130738 .6399994 .42126466 .6399994 .51319888 .6399994 .59513857 .5499878 .6611328 .37098695 .6611328 .21099854 .6611328 .117996219 .59313967 .117996219 .5002136 .117996219 .44425965 .1619873 .41827394 .19898987 .41827394 .23999024 .41827394 .27999879 .4482422 .27999879 .49920655 .27999879 .548172 .24198914 .56915286 .23999024 .57014468 .2809906 .5991211 .33299256 .6051178 .3659973 .6051178 .46398927 .6051178 .4850006 .5631561 .4850006 .51519778 .4850006 .47323609 .45999146 .38430787 .33999635 .37930299 .32899476 .37930299 .28399659 .37730409 .2769928 .37631227 .25898744 .3722992 .25898744 .3553009 .25898744 .34831239 .25898744 .3203125 .2749939 .3203125 .2939911 .3203125H.36299134Z"/>
<path id="font_6_3" d="M.6689911 .2110138H.58599856C.57899478 .17199707 .5649872 .14698792 .55599978 .14498902 .5319977 .14199829 .4889984 .14199829 .45498658 .14199829H.30599977C.36999513 .18299866 .43099977 .22102356 .47399903 .24401856 .58599856 .30604554 .6689911 .35205079 .6689911 .4560852 .6689911 .5801239 .5549927 .6611328 .35699464 .6611328 .30999757 .6611328 .08898926 .66012576 .08898926 .5131073 .08898926 .45307923 .13798523 .42907716 .17098999 .42907716 .21099854 .42907716 .2539978 .4570923 .2539978 .5121002 .2539978 .54811099 .23298645 .5691223 .22799683 .5741272 .2639923 .59213259 .30099488 .59413149 .32398988 .59413149 .42199708 .59413149 .5099945 .54711917 .5099945 .45509339 .5099945 .37705995 .44898988 .31803895 .3849945 .2720337L.10598755 .068984989C.08898926 .056991579 .08898926 .052993776 .08898926 .0309906V0H.6299896L.6689911 .2110138Z"/>
<path id="font_6_2" d="M.45899964 .6231842C.45899964 .654129 .45298768 .6611328 .42099 .6611328H.3999939C.31498719 .5972595 .18598938 .5972595 .16299439 .5972595H.13598633V.53027346H.16299439C.1749878 .53027346 .2519989 .53027346 .32499696 .55526736V.066986087H.14399719V0C.19299317 .0039978029 .33499146 .0039978029 .3919983 .0039978029 .44898988 .0039978029 .59098818 .0039978029 .6399994 0V.066986087H.45899964V.6231842Z"/>
<path id="font_6_5" d="M.70098879 .15527344V.22225952H.56999209V.6309509C.56999209 .6619415 .56399539 .6689453 .5319977 .6689453H.46099855C.43499757 .6689453 .43099977 .66693118 .4189911 .65193179L.056991579 .22225952V.15527344H.42799378V.06689453H.2869873V-.00010681152C.33599855 .00390625 .44299317 .00390625 .49699403 .00390625 .5529938 .00390625 .647995 .00390625 .70098879-.00010681152V.06689453H.56999209V.15527344H.70098879M.44499208 .5799866V.22225952H.14399719L.44499208 .5799866Z"/>
<path id="font_6_6" d="M.23298645 .4913025C.2709961 .4873047 .31098939 .4873047 .31298829 .4873047 .46499635 .4873047 .5549927 .56030276 .5970001 .603302 .6100006 .6163025 .6119995 .6183014 .6119995 .6333008 .6119995 .6382904 .6119995 .66130068 .58999636 .66130068 .58799746 .66130068 .58599856 .66130068 .57899478 .6582947 .5399933 .6483002 .46899415 .629303 .37599183 .629303 .30799867 .629303 .24198914 .6392975 .17599488 .65730288 .1659851 .66130068 .1639862 .66130068 .16099549 .66130068 .13899231 .66130068 .13899231 .6392975 .13899231 .6252899V.32437135C.13899231 .29237367 .14399719 .28536988 .1769867 .28536988 .19799805 .28536988 .19898987 .28637696 .21699524 .30337525 .23199463 .31837464 .27398683 .359375 .38398744 .359375 .5130005 .359375 .5130005 .26637269 .5130005 .2073822 .5130005 .14738465 .5130005 .044387819 .34599305 .044387819 .32899476 .044387819 .25498963 .045394899 .20698548 .08639526 .24398804 .10739136 .24699402 .14138794 .24699402 .15538025 .24699402 .20437622 .20799256 .234375 .16799927 .234375 .13198853 .234375 .08898926 .2093811 .08898926 .15338135 .08898926 .055389406 .18899536-.016601563 .34799195-.016601563 .56999209-.016601563 .6689911 .09138489 .6689911 .2013855 .6689911 .30236817 .58999636 .41537477 .3889923 .41537477 .32899476 .41537477 .2789917 .405365 .23298645 .38136292V.4913025Z"/>
<path id="font_6_7" d="M.23399353 .34513856C.23799134 .43510438 .24099732 .4881134 .29100038 .54312136 .31999208 .5741272 .3789978 .6051178 .45700074 .6051178 .46798707 .6051178 .5029907 .6051178 .5289917 .5871277 .5209961 .5821228 .49398805 .56211856 .49398805 .52212527 .49398805 .47612 .5289917 .44711305 .56900027 .44711305 .6029968 .44711305 .6439972 .47010804 .6439972 .52412417 .6439972 .575119 .6159973 .6611328 .45700074 .6611328 .23599243 .6611328 .07699585 .53312686 .07699585 .31915284 .07699585 .1083374 .17399597-.016601563 .38398744-.016601563 .44400025-.016601563 .5130005-.01260376 .58299258 .03338623 .6359863 .068374637 .68099978 .11532593 .68099978 .20625305 .68099978 .33914186 .56999209 .42611695 .40499879 .42611695 .33799745 .42611695 .2749939 .39811708 .23399353 .34513856M.38398744 .044387819C.25099183 .044387819 .23699951 .14030457 .23699951 .22123719 .23699951 .29518128 .29299928 .3701172 .3919983 .3701172 .5239868 .3701172 .5239868 .2901764 .5239868 .20724488 .5239868 .12432861 .5239868 .044387819 .38398744 .044387819Z"/>
<path id="font_6_8" d="M.2539978 .64653018C.22799683 .64653018 .22499085 .65852358 .22399903 .66752627H.14099121L.09799194 .4335022H.18099976C.18499756 .45350648 .19099427 .47451783 .20298767 .4915161 .20899964 .49752809 .20999146 .4985199 .21998596 .49952699 .24499512 .5025177 .2889862 .5025177 .32299806 .5025177H.5049896C.43399049 .43751527 .40699769 .41349793 .375 .37149049 .2749939 .23945618 .2639923 .11941528 .2639923 .06541443 .2639923-.01260376 .32798768-.016601563 .33898927-.016601563 .36898805-.016601563 .38598634-.0016021729 .3919983 .0033874512 .4139862 .024398804 .4139862 .05039978 .4139862 .06840515 .41600038 .31147767 .48199464 .37249757 .5479889 .43450929L.6100006 .4895172 .71199038 .58251956C.71598818 .58651736 .71798709 .5905304 .7200012 .59552 .72099307 .5995178 .72099307 .6285248 .72099307 .64453127H.47200013L.2539978 .64653018Z"/>
<path id="font_6_1" d="M.68499758 .31726075C.68499758 .48518373 .6439972 .6611328 .3789978 .6611328 .116989139 .6611328 .07299805 .48918153 .07299805 .31726075 .07299805 .13934326 .125-.016601563 .3789978-.016601563 .6369934-.016601563 .68499758 .14334107 .68499758 .31726075M.3789978 .039398195C.33999635 .039398195 .25898744 .0493927 .23699951 .13034058 .22399903 .17932129 .22299195 .26028443 .22299195 .33224488 .22299195 .4052124 .22299195 .48417665 .23999024 .53215029 .25698854 .5771332 .30899049 .6051178 .3789978 .6051178 .43798829 .6051178 .49899293 .5851288 .5189972 .52716067 .5349884 .4811859 .5349884 .39822389 .5349884 .33224488 .5349884 .271286 .5349884 .17732239 .519989 .12834168 .49598695 .04838562 .41600038 .039398195 .3789978 .039398195Z"/>
<path id="font_7_13" d="M.80799868 .33398438C.82199099 .33398438 .8529968 .33398438 .8529968 .36598207 .8529968 .39797975 .82199099 .39797975 .8089905 .39797975H.10998535C.09700012 .39797975 .06599426 .39797975 .06599426 .36598207 .06599426 .33398438 .09799194 .33398438 .11099243 .33398438H.80799868M.8089905 .102005008C.82199099 .102005008 .8529968 .102005008 .8529968 .13400269 .8529968 .16601563 .82099917 .16601563 .80799868 .16601563H.11099243C.09799194 .16601563 .06599426 .16601563 .06599426 .13400269 .06599426 .102005008 .09700012 .102005008 .10998535 .102005008H.8089905Z"/>
<path id="font_8_1" d="M.7749939 .21821594C.78900149 .21821594 .82099917 .21821594 .82099917 .25021363 .82099917 .28222657 .78900149 .28222657 .7749939 .28222657H.14399719C.12998963 .28222657 .09799194 .28222657 .09799194 .25021363 .09799194 .21821594 .12998963 .21821594 .14399719 .21821594H.7749939Z"/>
<path id="font_7_6" d="M.5319977 .22505188H.48098756C.47898866 .21104431 .46998597 .13999939 .45498658 .1329956 .44198609 .12799073 .36799623 .12799073 .35099793 .12799073H.20799256C.26098634 .17102051 .32099916 .2180481 .37098695 .25306703 .45498658 .31211854 .5319977 .3661499 .5319977 .46418763 .5319977 .581192 .4249878 .65625 .27999879 .65625 .1559906 .65625 .05899048 .597229 .05899048 .505188 .05899048 .45318605 .09899902 .42918397 .13398743 .42918397 .1659851 .42918397 .20799256 .4521942 .20799256 .5041809 .20799256 .5261841 .19898987 .56318667 .15499878 .5751953 .18998719 .60324099 .23498535 .60723879 .25498963 .60723879 .33699037 .60723879 .3889923 .54618838 .3889923 .46318055 .3889923 .39115907 .34599305 .32511903 .29299928 .27108766L.069992069 .050994874C.05899048 .039993287 .05899048 .038986207 .05899048 .018997193V0H.5009918L.5319977 .22505188Z"/>
<path id="font_7_14" d="M.49198915 .11613464C.49198915 .13212586 .47698976 .13212586 .46598817 .13212586 .44599916 .13212586 .44599916 .13113404 .43798829 .11312866 .41799928 .06512451 .37298585 .037139894 .31399537 .037139894 .17199707 .037139894 .17199707 .18112183 .17199707 .22612 .17199707 .28611756 .17298889 .41011048 .3039856 .41011048 .31098939 .41011048 .36499024 .40911866 .36499024 .40411378 .36499024 .40312196 .36299134 .40011598 .3619995 .39912416 .35299684 .38812257 .34899903 .3721161 .34899903 .35812379 .34899903 .3171234 .37998963 .29312135 .4139862 .29312135 .44499208 .29312135 .47898866 .31411744 .47898866 .3591156 .47898866 .453125 .33898927 .453125 .2999878 .453125 .10798645 .453125 .038986207 .33111573 .038986207 .22212219 .038986207 .09613037 .1289978-.005859375 .29499818-.005859375 .33198548-.005859375 .3809967 .0001373291 .4229889 .026138306 .47999574 .06112671 .49198915 .11312866 .49198915 .11613464Z"/>
<path id="font_7_17" d="M.55799868 .21812439C.55799868 .3491211 .46598817 .453125 .29599 .453125 .11999512 .453125 .032989503 .3441162 .032989503 .21812439 .032989503 .09413147 .12298584-.005859375 .29499818-.005859375 .47399903-.005859375 .55799868 .09913635 .55799868 .21812439M.29599 .037139894C.1659851 .037139894 .1659851 .14213562 .1659851 .22912598 .1659851 .3131256 .1659851 .41311646 .29499818 .41311646 .4249878 .41311646 .4249878 .3131256 .4249878 .22912598 .4249878 .14312744 .4249878 .037139894 .29599 .037139894Z"/>
<path id="font_7_18" d="M.39698792 .42411805C.39698792 .4421234 .39698792 .453125 .3769989 .453125 .36698915 .453125 .35099793 .44511415 .33299256 .43511964 .30099488 .44911195 .2619934 .453125 .22898865 .453125 .19799805 .453125 .038986207 .453125 .038986207 .32112123 .038986207 .21612549 .16999817 .19412232 .20498657 .18812561 .2869873 .1741333 .35299684 .16313172 .35299684 .10612488 .35299684 .03413391 .25898744 .03413391 .23699951 .03413391 .18598938 .03413391 .12098694 .0471344 .09199524 .13912964 .08699036 .15612793 .085998538 .15913391 .06498718 .15913391 .038986207 .15913391 .038986207 .15312195 .038986207 .12913513V.023132325C.038986207 .005126953 .038986207-.005859375 .05899048-.005859375 .06599426-.005859375 .067993167-.005859375 .08999634 .008132935L.116989139 .025131226C.1639862-.005859375 .21699524-.005859375 .23699951-.005859375 .2669983-.005859375 .4269867-.005859375 .4269867 .14012146 .4269867 .19113159 .397995 .22312927 .37998963 .23812866 .33499146 .27612306 .30299378 .28112794 .22399903 .29412843 .17599488 .30212403 .11299133 .31211854 .11299133 .3571167 .11299133 .41711427 .20599365 .41711427 .22799683 .41711427 .33999635 .41711427 .34399415 .35812379 .34599305 .33111573 .34700013 .3171234 .36099244 .3171234 .37098695 .3171234 .3959961 .3171234 .39698792 .3221283 .39698792 .3461151V.42411805Z"/>
<path id="font_9_1" d="M.7279968 .33398438C.74598696 .33398438 .7639923 .33398438 .7819977 .3499756 .79299929 .3599701 .80400088 .37698365 .80400088 .39797975 .80400088 .44396974 .7599945 .44396974 .74398806 .44396974H.27598573C.25299073 .44396974 .20399475 .44396974 .13598633 .39198304 .115997318 .37698365 .054992677 .32199098 .054992677 .30299378 .054992677 .28201295 .07299805 .28201295 .08999634 .28201295 .11299133 .28201295 .11399841 .28302003 .125 .29501344 .15699768 .3289795 .21099854 .33398438 .2519989 .33398438H.32099916C.28799439 .24205017 .2579956 .1790924 .20199585 .08317566 .19198609 .06617737 .18798828 .060195924 .18798828 .04319763 .18798828 .009231567 .21499634-.008773804 .24299622-.008773804 .2999878-.008773804 .31698609 .045196535 .33799745 .11514282L.3959961 .33398438H.5109863C.5009918 .28800965 .48799134 .22206116 .48799134 .1690979 .48799134 .08117676 .5239868-.009765625 .57899478-.009765625 .61299136-.009765625 .6539917 .025222779 .6539917 .063186649 .6539917 .08016968 .6469879 .090164188 .6389923 .10015869 .59298709 .16210938 .58200076 .22906494 .58200076 .28102113 .58200076 .30699159 .58299258 .31199647 .58599856 .33398438H.7279968Z"/>
<path id="font_10_3" d="M.2639923 .37425233C.24398804 .3732605 .23399353 .3672638 .23399353 .34825135 .23399353 .32226563 .24899292 .32226563 .2679901 .32226563H.32699586C.45599366 .32226563 .45999146 .22918701 .45999146 .18118286 .45999146 .1381836 .45700074 .0413208 .32998658 .0413208 .31399537 .0413208 .24499512 .0413208 .19198609 .076187137 .21199036 .08718872 .23199463 .111190799 .23199463 .14819336 .23199463 .19718933 .19599915 .23118592 .14898682 .23118592 .102996829 .23118592 .06498718 .20019531 .06498718 .14619446 .06498718 .04928589 .16499329-.013671875 .33399964-.013671875 .5499878-.013671875 .6269989 .093185428 .6269989 .18118286 .6269989 .24620056 .58099368 .32025147 .45498658 .3522644 .5219879 .3772583 .58898928 .4302063 .58898928 .51420596 .58898928 .59220889 .5049896 .6582031 .33699037 .6582031 .19198609 .6582031 .102996829 .59220889 .102996829 .50320437 .102996829 .45021058 .14299011 .4242096 .18099976 .4242096 .22099304 .4242096 .25898744 .45321656 .25898744 .5022125 .25898744 .5512085 .22099304 .57121279 .21299744 .57421877 .22898865 .58621218 .2709961 .6082001 .33198548 .6082001 .42099 .6082001 .43899537 .5622101 .43899537 .51620486 .43899537 .43721009 .38198854 .38024903 .32499696 .3772583L.2639923 .37425233Z"/>
<path id="font_7_1" d="M.3929901-.23400879C.3929901-.22801209 .3899994-.2250061 .37799073-.2130127 .24699402-.0900116 .21099854 .08799744 .21099854 .25 .21099854 .4169922 .25 .59098818 .37399293 .71099856 .3919983 .7279968 .3929901 .72898867 .3929901 .73498538 .3929901 .746994 .38198854 .75 .37298585 .75 .35198976 .75 .29899598 .69999697 .28799439 .68899539 .18798828 .5950012 .10998535 .43998719 .10998535 .25 .10998535 .008987427 .23199463-.13800049 .28399659-.18701172 .2919922-.19400025 .35099793-.25 .37298585-.25 .3769989-.25 .3929901-.25 .3929901-.23400879Z"/>
<path id="font_7_3" d="M.49198915 .21821594H.8089905C.82199099 .21821594 .8529968 .21821594 .8529968 .25021363 .8529968 .28222657 .82199099 .28222657 .8089905 .28222657H.49198915V.6000366C.49198915 .61302188 .49198915 .64401248 .45999146 .64401248 .42799378 .64401248 .42799378 .61302188 .42799378 .6000366V.28222657H.10998535C.09700012 .28222657 .06599426 .28222657 .06599426 .25021363 .06599426 .21821594 .09700012 .21821594 .10998535 .21821594H.42799378V-.10003662C.42799378-.11305237 .42799378-.14405823 .45999146-.14405823 .49198915-.14405823 .49198915-.11305237 .49198915-.10003662V.21821594Z"/>
<path id="font_7_5" d="M.3639984 .6231537C.3639984 .6452484 .3639984 .65625 .33499146 .65625 .32299806 .65625 .32099916 .65625 .31199647 .6492462 .23498535 .5919647 .12799073 .5919647 .10798645 .5919647H.08799744V.54296877H.10798645C.13198853 .54296877 .18598938 .5459595 .24198914 .56295779V.04899597H.09899902V0C.13699341 .0029907227 .2579956 .0029907227 .30299378 .0029907227 .34999085 .0029907227 .46798707 .0029907227 .5089874 0V.04899597H.3639984V.6231537Z"/>
<path id="font_7_2" d="M.34899903 .25C.34899903 .4909973 .22698975 .6380005 .1749878 .68699648 .16699219 .69400027 .10798645 .75 .085998538 .75 .07899475 .75 .06599426 .74798586 .06599426 .73399356 .06599426 .7279968 .069992069 .723999 .07998657 .71398928 .20199585 .59599307 .24798584 .43699647 .24798584 .25 .24798584 .08299255 .20899964-.09100342 .084991458-.2110138 .066986087-.22801209 .06599426-.2290039 .06599426-.23400879 .06599426-.2480011 .07798767-.25 .085998538-.25 .10699463-.25 .1599884-.2000122 .17098999-.18901062 .2709961-.09500122 .34899903 .05999756 .34899903 .25Z"/>
<path id="font_7_7" d="M.272995 .328125C.3849945 .328125 .3849945 .23036194 .3849945 .18037415 .3849945 .13537598 .3849945 .03327942 .27799989 .03327942 .2659912 .03327942 .19699097 .03527832 .15098572 .068374637 .19699097 .08137512 .20698548 .12037659 .20698548 .14337158 .20698548 .19036865 .17399597 .22238159 .12799073 .22238159 .084991458 .22238159 .04899597 .19337464 .04899597 .14237976 .04899597 .048324586 .14898682-.01171875 .2829895-.01171875 .46598817-.01171875 .5419922 .088378909 .5419922 .18037415 .5419922 .2592926 .48199464 .328125 .36898805 .35211183 .46998597 .38711549 .5089874 .45610047 .5089874 .51708987 .5089874 .5921478 .43399049 .65625 .2849884 .65625 .1619873 .65625 .08198547 .59013369 .08198547 .50909426 .08198547 .46409608 .11399841 .4360962 .1539917 .4360962 .19699097 .4360962 .22599793 .4670868 .22599793 .50808718 .22599793 .5410919 .20698548 .5700989 .16699219 .57910159 .1749878 .5861206 .21598816 .61624148 .27999879 .61624148 .36698915 .61624148 .36698915 .5510864 .36698915 .51908877 .36698915 .463089 .34599305 .3761139 .2599945 .37112428 .25698854 .37112428 .22399903 .3691101 .21299744 .3681183 .19699097 .36611939 .19699097 .3551178 .19699097 .348114 .19699097 .328125 .20799256 .328125 .22599793 .328125H.272995Z"/>
<path id="font_11_8" d="M.57699587 .3771515C.58200076 .3951416 .58200076 .3971405 .58200076 .40014649 .58200076 .4221344 .56599429 .44413758 .5349884 .44413758 .48298646 .44413758 .47099305 .3971405 .46398927 .3701477L.43798829 .26615907C.42599488 .2181549 .40699769 .14117432 .3959961 .10017395 .3909912 .07817078 .3600006 .05418396 .35699464 .05218506 .34599305 .045181276 .32199098 .028182984 .2889862 .028182984 .22999573 .028182984 .22898865 .07817078 .22898865 .10116577 .22898865 .16217041 .2599945 .24015808 .28799439 .31214906 .2979889 .33815003 .30099488 .3451538 .30099488 .3621521 .30099488 .4201355 .24299622 .45214845 .18798828 .45214845 .08198547 .45214845 .03199768 .31614686 .03199768 .29615785 .03199768 .28215028 .04699707 .28215028 .055999757 .28215028 .067993167 .28215028 .07499695 .28215028 .07899475 .29515077 .11199951 .4061432 .16699219 .4161377 .18199158 .4161377 .18899536 .4161377 .19898987 .4161377 .19898987 .3951416 .19898987 .3721466 .18798828 .34614564 .18199158 .33015443 .14299011 .23016358 .12199402 .173172 .12199402 .122177127 .12199402 .008178711 .22200012-.0078125 .2809906-.0078125 .30599977-.0078125 .33999635-.0038146973 .3769989 .02218628 .34899903-.10101318 .27398683-.16615296 .20498657-.16615296 .19198609-.16615296 .1639862-.16415406 .14399719-.15213013 .17599488-.13909912 .19198609-.11204529 .19198609-.0849762 .19198609-.04890442 .16299439-.038879396 .14299011-.038879396 .10598755-.038879396 .070999149-.07095337 .070999149-.11505127 .070999149-.16615296 .12399292-.20214844 .20498657-.20214844 .31999208-.20214844 .45199586-.12506104 .48298646-.0008239746L.57699587 .3771515Z"/>
<path id="font_12_12" d="M.7879944 .33203126C.7999878 .33203126 .82899478 .33203126 .82899478 .36203004 .82899478 .39302064 .7979889 .39302064 .7829895 .39302064H.10998535C.09498596 .39302064 .06399536 .39302064 .06399536 .36203004 .06399536 .33203126 .09298706 .33203126 .10499573 .33203126H.7879944M.7829895 .107940677C.7979889 .107940677 .82899478 .107940677 .82899478 .13893128 .82899478 .16894531 .7999878 .16894531 .7879944 .16894531H.10499573C.09298706 .16894531 .06399536 .16894531 .06399536 .13893128 .06399536 .107940677 .09498596 .107940677 .10998535 .107940677H.7829895Z"/>
<path id="font_12_6" d="M.5169983 .22209168H.46998597C.46699525 .20207215 .45799256 .13800049 .44400025 .1309967 .43299867 .125 .35798646 .125 .34199525 .125H.19499207C.24198914 .16403198 .2939911 .20707703 .33898927 .2401123 .45298768 .3242035 .5169983 .37124635 .5169983 .4663086 .5169983 .5812988 .41299439 .65527346 .27198792 .65527346 .15098572 .65527346 .056991579 .593277 .056991579 .50331118 .056991579 .44430543 .10499573 .42930604 .1289978 .42930604 .16099549 .42930604 .20098877 .4513092 .20098877 .50131228 .20098877 .55329897 .15899658 .5693054 .14399719 .5733032 .17298889 .5972748 .21099854 .6082611 .24699402 .6082611 .33299256 .6082611 .3789978 .54029849 .3789978 .4653015 .3789978 .39627076 .34098817 .3282013 .2709961 .25712586L.069992069 .051986696C.056991579 .039993287 .056991579 .037994386 .056991579 .017990113V0H.48599244L.5169983 .22209168Z"/>
<path id="font_12_13" d="M.3600006 .40711976C.34199525 .39111329 .33999635 .3701172 .33999635 .3611145 .33999635 .3171234 .375 .29812623 .4019928 .29812623 .43299867 .29812623 .46499635 .3191223 .46499635 .3611145 .46499635 .44711305 .34899903 .453125 .29100038 .453125 .11199951 .453125 .037994386 .3381195 .037994386 .22212219 .037994386 .08912659 .13198853-.005859375 .28599549-.005859375 .44799806-.005859375 .47799684 .11012268 .47799684 .117126468 .47799684 .13113404 .46398927 .13113404 .45399476 .13113404 .43598939 .13113404 .43499757 .12913513 .42999269 .11613464 .4039917 .053131105 .35598756 .03413391 .30499269 .03413391 .1659851 .03413391 .1659851 .18112183 .1659851 .22712708 .1659851 .28312684 .1659851 .41311646 .29499818 .41311646 .32998658 .41311646 .34700013 .41011048 .3600006 .40711976Z"/>
<path id="font_12_16" d="M.5419922 .21812439C.5419922 .35212709 .44999696 .453125 .2869873 .453125 .12298584 .453125 .03199768 .35112 .03199768 .21812439 .03199768 .09413147 .11999512-.005859375 .2869873-.005859375 .45498658-.005859375 .5419922 .09512329 .5419922 .21812439M.2869873 .03413391C.1599884 .03413391 .1599884 .14213562 .1599884 .22912598 .1599884 .27412416 .1599884 .32511903 .1769867 .3591156 .19599915 .39611817 .23799134 .41711427 .2869873 .41711427 .32899476 .41711427 .37098695 .40112306 .3929901 .36611939 .4139862 .3321228 .4139862 .27713014 .4139862 .22912598 .4139862 .14213562 .4139862 .03413391 .2869873 .03413391Z"/>
<path id="font_12_17" d="M.21099854 .29412843C.17399597 .30111695 .10899353 .31211854 .10899353 .3591156 .10899353 .42111207 .20199585 .42111207 .22099304 .42111207 .29599 .42111207 .33399964 .39212037 .33898927 .33711244 .33999635 .32211305 .34098817 .3171234 .3619995 .3171234 .38598634 .3171234 .38598634 .32211305 .38598634 .3451233V.42510987C.38598634 .4441223 .38598634 .453125 .36799623 .453125 .3639984 .453125 .3619995 .453125 .32299806 .43411256 .29699708 .44711305 .2619934 .453125 .22200012 .453125 .19198609 .453125 .037994386 .453125 .037994386 .32211305 .037994386 .28211976 .057998659 .25512696 .07798767 .23812866 .117996219 .203125 .1559906 .1971283 .23298645 .18312073 .2689972 .17712403 .34399415 .16412354 .34399415 .10513306 .34399415 .030136109 .2519989 .030136109 .22999573 .030136109 .12399292 .030136109 .09799194 .103134158 .085998538 .14613343 .08099365 .16012573 .07598877 .16012573 .06199646 .16012573 .037994386 .16012573 .037994386 .15412903 .037994386 .13113404V.022140503C.037994386 .0031280518 .037994386-.005859375 .055999757-.005859375 .06298828-.005859375 .06498718-.005859375 .085998538 .009140015 .08699036 .009140015 .10899353 .024139405 .11199951 .026138306 .1579895-.005859375 .20999146-.005859375 .22999573-.005859375 .26098634-.005859375 .4149933-.005859375 .4149933 .14012146 .4149933 .18312073 .394989 .21812439 .3600006 .24612427 .32099916 .27511598 .2889862 .28112794 .21099854 .29412843Z"/>
<path id="font_13_1" d="M.36099244 .33633424H.47499085C.46699525 .3023224 .44799806 .22328186 .44799806 .15725708 .44799806 .085235599 .47499085-.0087890629 .5309906-.0087890629 .56599429-.0087890629 .60598757 .02720642 .60598757 .06321716 .60598757 .07922363 .598999 .0892334 .58999636 .10324097 .5379944 .17726135 .5379944 .25630189 .5379944 .28230287 .5379944 .28330995 .5379944 .31532289 .54100039 .33633424H.6759949C.69699099 .33633424 .71099856 .33633424 .7299957 .35232545 .7369995 .35832215 .7519989 .3743286 .7519989 .3993225 .7519989 .44433595 .71199038 .44433595 .69400027 .44433595H.25299073C.22898865 .44433595 .18199158 .44433595 .115997318 .389328 .09199524 .36932374 .041992189 .31932069 .041992189 .3033142 .041992189 .28530885 .056991579 .28530885 .07299805 .28530885 .09298706 .28530885 .09498596 .28530885 .101989749 .2933197 .117996219 .31132508 .14099121 .33633424 .22799683 .33633424H.2939911C.2659912 .2472992 .20698548 .14025879 .1769867 .0892334 .16699219 .07221985 .15899658 .05822754 .15899658 .04222107 .15899658 .019210816 .1769867-.007797241 .21398926-.007797241 .24398804-.007797241 .2689972 .014205933 .2789917 .036209108 .2829895 .045211793 .29499818 .082229617 .30499269 .12023926L.36099244 .33633424Z"/>
<path id="font_14_3" d="M.3019867 .3251953C.42099 .3251953 .42599488 .23521424 .42599488 .18223572 .42599488 .14024353 .42599488 .039276124 .30599977 .039276124 .2789917 .039276124 .21598816 .044265748 .17298889 .071258548 .19400025 .08026123 .21998596 .103256229 .21998596 .14624024 .21998596 .19223023 .18699646 .22721863 .13899231 .22721863 .08898926 .22721863 .056991579 .19223023 .056991579 .14524842 .056991579 .043273927 .16799927-.01171875 .30999757-.01171875 .5189972-.01171875 .58898928 .09725952 .58898928 .18122864 .58898928 .25820924 .5279999 .32818605 .4139862 .35118104 .48599244 .3781891 .5529938 .4302063 .5529938 .5142212 .5529938 .5922394 .47299195 .65625 .31298829 .65625 .1769867 .65625 .09298706 .5892334 .09298706 .5062256 .09298706 .45620729 .1289978 .42919923 .16799927 .42919923 .21798706 .42919923 .24398804 .46621705 .24398804 .5042114 .24398804 .5552368 .20399475 .5732269 .19400025 .5762329 .23498535 .60624697 .28799439 .61024478 .30799867 .61024478 .4059906 .61024478 .4059906 .54522708 .4059906 .5172272 .4059906 .47120667 .38598634 .37919618 .28599549 .37419129 .26098634 .3731842 .23599243 .37219239 .22999573 .37019349 .21699524 .36618043 .21699524 .354187 .21699524 .3481903 .21699524 .3251953 .22999573 .3251953 .24899292 .3251953H.3019867Z"/>
<path id="font_12_1" d="M.3789978-.22503662C.34999085-.19802857 .2849884-.13702393 .24299622-.009033203 .21699524 .06997681 .20498657 .16197205 .20498657 .24996948 .20498657 .4469757 .2559967 .60398867 .3659973 .7149811 .3809967 .7299957 .38198854 .73098757 .38198854 .73599246 .38198854 .746994 .37199403 .75 .3639984 .75 .34700013 .75 .30499269 .7129822 .2869873 .6959839 .1309967 .5409851 .10798645 .35697938 .10798645 .25097657 .10798645 .12597656 .14099121 .015975953 .18798828-.06703186 .2539978-.18203736 .34498597-.24902344 .3639984-.24902344 .37199403-.24902344 .38198854-.24603272 .38198854-.23503113 .38198854-.23002625 .3789978-.22602844 .3789978-.22503662Z"/>
<path id="font_11_7" d="M.5359955 .4011383C.5 .3911438 .48199464 .35714723 .48199464 .33215333 .48199464 .31015016 .49899293 .28614808 .5319977 .28614808 .5669861 .28614808 .60398867 .31515504 .60398867 .364151 .60398867 .41714479 .5509949 .45214845 .48999024 .45214845 .43299867 .45214845 .3959961 .4091339 .3829956 .3911438 .35798646 .433136 .3019867 .45214845 .24499512 .45214845 .11898804 .45214845 .050994874 .32914735 .050994874 .29615785 .050994874 .28215028 .06599426 .28215028 .07499695 .28215028 .08699036 .28215028 .09399414 .28215028 .09799194 .29515077 .1269989 .38613893 .19898987 .4161377 .23999024 .4161377 .27799989 .4161377 .29599 .39814759 .29599 .3661499 .29599 .3471527 .28199769 .29216004 .272995 .2561493L.23899842 .11917114C.22399903 .058181764 .18798828 .028182984 .1539917 .028182984 .14898682 .028182984 .12599182 .028182984 .10598755 .043182374 .14199829 .05317688 .1599884 .08717346 .1599884 .11216736 .1599884 .13417053 .14299011 .1581726 .10998535 .1581726 .07499695 .1581726 .037994386 .12916565 .037994386 .08016968 .037994386 .027175904 .09098816-.0078125 .1519928-.0078125 .20899964-.0078125 .24598694 .035186769 .25898744 .05317688 .28399659 .011184692 .33999635-.0078125 .39698792-.0078125 .522995-.0078125 .59098818 .11517334 .59098818 .14816284 .59098818 .16217041 .57598879 .16217041 .5669861 .16217041 .5549927 .16217041 .5479889 .16217041 .5439911 .14916992 .5149994 .058181764 .44299317 .028182984 .4019928 .028182984 .3639984 .028182984 .34599305 .046173097 .34599305 .07817078 .34599305 .09916687 .35899354 .15216065 .36799623 .18916321 .375 .21516419 .397995 .30915834 .40299989 .32514955 .41799928 .3851471 .45298768 .4161377 .48799134 .4161377 .49299623 .4161377 .5159912 .4161377 .5359955 .4011383Z"/>
<path id="font_12_3" d="M.47698976 .22024536H.7859955C.798996 .22024536 .82899478 .22024536 .82899478 .25024415 .82899478 .28125 .7999878 .28125 .7859955 .28125H.47698976V.5908356C.47698976 .6028137 .47698976 .6328125 .44699098 .6328125 .41600038 .6328125 .41600038 .6038208 .41600038 .5908356V.28125H.10699463C.09298706 .28125 .06399536 .28125 .06399536 .25024415 .06399536 .22024536 .09399414 .22024536 .10699463 .22024536H.41600038V-.08984375C.41600038-.10183716 .41600038-.13183594 .44599916-.13183594 .47698976-.13183594 .47698976-.10284424 .47698976-.08984375V.22024536Z"/>
<path id="font_12_5" d="M.35398866 .62316897C.35398866 .6452637 .35398866 .65527346 .32798768 .65527346 .31698609 .65527346 .31498719 .65527346 .30599977 .64826968 .22898865 .5909424 .12599182 .5909424 .10499573 .5909424H.084991458V.5439453H.10499573C.12098694 .5439453 .17599488 .54493716 .23498535 .5639343V.04699707H.09599304V0C.13999939 .0029907227 .24598694 .0029907227 .29499818 .0029907227 .34399415 .0029907227 .44999696 .0029907227 .49398805 0V.04699707H.35398866V.62316897Z"/>
<path id="font_12_2" d="M.33799745 .24996948C.33799745 .37498475 .30499269 .48498536 .2579956 .5679779 .19198609 .6829834 .100997928 .75 .08198547 .75 .07398987 .75 .06399536 .746994 .06399536 .73599246 .06399536 .73098757 .06399536 .72898867 .08099365 .7129822 .20698548 .5849762 .24099732 .40797425 .24099732 .25097657 .24099732 .053970338 .18998719-.103027347 .07998657-.21403504 .06498718-.22903443 .06399536-.23002625 .06399536-.23503113 .06399536-.24603272 .07398987-.24902344 .08198547-.24902344 .09899902-.24902344 .14099121-.21203614 .15899658-.19503784 .31498719-.040023805 .33799745 .14398194 .33799745 .24996948Z"/>
<path id="font_12_7" d="M.35198976 .35212709C.42099 .3731537 .49398805 .4303589 .49398805 .5164032 .49398805 .5933533 .41799928 .65527346 .2769928 .65527346 .1579895 .65527346 .07998657 .59135439 .07998657 .5113983 .07998657 .46839906 .11099243 .44140626 .14898682 .44140626 .19400025 .44140626 .21899414 .47340394 .21899414 .51039126 .21899414 .56840518 .16499329 .5793915 .16099549 .58039858 .19599915 .6082916 .23999024 .616272 .2709961 .616272 .35398866 .616272 .35699464 .5523987 .35699464 .5193939 .35699464 .50639346 .35598756 .3751526 .2519989 .36914063 .21099854 .36712647 .20899964 .36613465 .20399475 .36512757 .19400025 .36413575 .19198609 .35412599 .19198609 .34812928 .19198609 .33013917 .20199585 .33013917 .21998596 .33013917H.2639923C.37298585 .33013917 .37298585 .23240662 .37298585 .18144226 .37298585 .13444519 .37298585 .03225708 .2689972 .03225708 .24299622 .03225708 .19099427 .03627014 .14299011 .06645203 .17599488 .07543945 .20098877 .10044861 .20098877 .14144898 .20098877 .18644715 .16899109 .217453 .125 .217453 .08299255 .217453 .04798889 .19044495 .04798889 .13945008 .04798889 .049346925 .14498902-.0107421879 .27398683-.0107421879 .45298768-.0107421879 .526001 .08944702 .526001 .18045044 .526001 .23539734 .49699403 .32115174 .35198976 .35212709Z"/>
<path id="font_2_1" d="M.40699769-.23200989C.40699769-.2250061 .4039917-.22200012 .3919983-.21200562 .2649994-.09700012 .21998596 .07798767 .21998596 .25 .21998596 .42099 .2630005 .59599307 .3899994 .70899966 .4059906 .723999 .40699769 .72499087 .40699769 .7319946 .40699769 .74198916 .40098573 .75 .38598634 .75 .36698915 .75 .31399537 .70500186 .2939911 .6859894 .16899109 .56199648 .11399841 .4099884 .11399841 .25 .11399841 .16099549 .13198853 .039993287 .20599365-.07800293 .2689972-.17800904 .3639984-.25 .38598634-.25 .40098573-.25 .40699769-.2420044 .40699769-.23200989Z"/>
<path id="font_2_4" d="M.56399539 .31925965C.56399539 .4352417 .5549927 .6582031 .30599977 .6582031 .055999757 .6582031 .04798889 .4332428 .04798889 .31925965 .04798889 .20729065 .054992677-.013671875 .30599977-.013671875 .55799868-.013671875 .56399539 .20828247 .56399539 .31925965M.30599977 .028320313C.2789917 .028320313 .25099183 .03831482 .22999573 .05531311 .19799805 .08331299 .18299866 .0973053 .18299866 .33125306 .18299866 .40324403 .18299866 .4762268 .19299317 .5262146 .20599365 .5971985 .2679901 .6161957 .30599977 .6161957 .32998658 .6161957 .4059906 .610199 .42099 .515213 .42900086 .4662323 .42900086 .3892517 .42900086 .33125306 .42900086 .10231018 .4149933 .08830261 .38398744 .05831909 .37599183 .049316408 .34799195 .028320313 .30599977 .028320313Z"/>
<path id="font_1_2" d="M.25 .07998657C.25 .12399292 .21398926 .1599884 .16999817 .1599884 .12599182 .1599884 .08999634 .12399292 .08999634 .07998657 .08999634 .035995485 .12599182 0 .16999817 0 .21398926 0 .25 .035995485 .25 .07998657Z"/>
<path id="font_2_9" d="M.17599488 .5010834C.20799256 .49609376 .24198914 .49609376 .24798584 .49609376 .27398683 .49609376 .34199525 .49609376 .4169922 .54408267 .44299317 .56108096 .5029907 .611084 .5029907 .63708499 .5029907 .65208438 .49499513 .65808108 .4850006 .65808108 .48298646 .65808108 .48098756 .65808108 .46998597 .65309146 .42099 .63609316 .3619995 .6260834 .30699159 .6260834 .2619934 .6260834 .20498657 .6320801 .13999939 .65408328 .13198853 .65808108 .12998963 .65808108 .1269989 .65808108 .10998535 .65808108 .10998535 .64108279 .10998535 .62709048V.33319093C.10998535 .3142395 .10998535 .29927064 .13699341 .29927064 .1519928 .29927064 .15499878 .30126954 .16499329 .31323243 .20498657 .36112977 .2669983 .3701172 .30599977 .3701172 .4019928 .3701172 .4019928 .27931214 .4019928 .20341492 .4019928 .13441468 .4019928 .033325197 .27198792 .033325197 .21998596 .033325197 .16999817 .055358888 .14299011 .089416507 .18499756 .09541321 .20498657 .12741089 .20498657 .16041565 .20498657 .2064209 .16899109 .23242188 .1329956 .23242188 .101989749 .23242188 .06098938 .2124176 .06098938 .15841675 .06098938 .068374637 .1459961-.013671875 .27598573-.013671875 .45399476-.013671875 .5509949 .08340454 .5509949 .20141602 .5509949 .31323243 .47099305 .41210938 .30999757 .41210938 .2619934 .41210938 .21598816 .4031067 .17599488 .3781128V.5010834Z"/>
<path id="font_1_3" d="M.22099304 .016998291C.21199036-.08493042 .1519928-.1348877 .1309967-.15187073 .11999512-.15986634 .115997318-.16287232 .115997318-.17185974 .115997318-.18086243 .12799073-.19386292 .13899231-.19386292 .15499878-.19386292 .2639923-.106918338 .2639923 .03199768 .2639923 .10499573 .22698975 .1599884 .16899109 .1599884 .12199402 .1599884 .08999634 .12399292 .08999634 .07998657 .08999634 .038986207 .11898804 0 .16999817 0 .18998719 0 .20899964 .0069885256 .22099304 .016998291Z"/>
<path id="font_2_2" d="M.36099244 .25C.36099244 .33898927 .34298707 .45999146 .2689972 .5779877 .20599365 .6779938 .11099243 .75 .08898926 .75 .07199097 .75 .067993167 .7389984 .067993167 .7319946 .067993167 .72499087 .07199097 .72099307 .08299255 .71199038 .20999146 .5970001 .25498963 .42199708 .25498963 .25 .25498963 .07899475 .21199036-.0960083 .084991458-.2090149 .07299805-.22000122 .067993167-.22401428 .067993167-.23200989 .067993167-.23901367 .07199097-.25 .08898926-.25 .10798645-.25 .16099549-.20500183 .18099976-.18600464 .30599977-.06201172 .36099244 .08999634 .36099244 .25Z"/>
<path id="font_15_1" d="M.8019867 .21617127C.81599429 .21617127 .84999087 .21617127 .84999087 .25016786 .84999087 .2841797 .81599429 .2841797 .8019867 .2841797H.1499939C.13598633 .2841797 .101989749 .2841797 .101989749 .25016786 .101989749 .21617127 .13598633 .21617127 .1499939 .21617127H.8019867Z"/>
<path id="font_2_5" d="M.3789978 .62413027C.3789978 .6582031 .37298585 .6582031 .33299256 .6582031 .27198792 .61006167 .19198609 .5939789 .11399841 .5939789H.09199524V.5419922H.11399841C.13999939 .5419922 .19400025 .5449829 .2519989 .5619812V.051986696H.101989749V0C.13798523 .0029907227 .269989 .0029907227 .31498719 .0029907227 .3600006 .0029907227 .48999024 .0029907227 .5269928 0V.051986696H.3789978V.62413027Z"/>
<path id="font_2_6" d="M.5509949 .2280426H.49499513C.4869995 .16200257 .47399903 .14199829 .46798707 .13899231 .45700074 .1329956 .37998963 .1329956 .36299134 .1329956H.22499085C.35899354 .23805237 .41299439 .2680664 .45599366 .30108644 .526001 .35612489 .5509949 .40615846 .5509949 .46316529 .5509949 .58117678 .44198609 .6582031 .2899933 .6582031 .1619873 .6582031 .06098938 .6011963 .06098938 .50717166 .06098938 .4481659 .10899353 .4291687 .13699341 .4291687 .17199707 .4291687 .21398926 .4541626 .21398926 .50616458 .21398926 .5531616 .17999268 .5721588 .16699219 .5771637 .19499207 .5981903 .23498535 .6062012 .2659912 .6062012 .35598756 .6062012 .4059906 .5391693 .4059906 .4621582 .4059906 .38113404 .35299684 .31410218 .2939911 .25906373L.07299805 .052993776C.06199646 .041992189 .06098938 .040985109 .06098938 .020996094V0H.5179901L.5509949 .2280426Z"/>
<path id="font_16_84" d="M.59999087 .22319031C.59999087 .3561859 .5089874 .4501953 .36499024 .4501953 .2899933 .4501953 .23699951 .41918946 .21398926 .40118409V.4501953L.036987306 .4423828V.39537049C.09899902 .39537049 .10598755 .39537049 .10598755 .3573761V-.14648438H.036987306V-.1934967L.16299439-.19049073 .2889862-.1934967V-.14648438H.21998596V.03945923C.2630005 .004135132 .30699159-.005859375 .34799195-.005859375 .49798585-.005859375 .59999087 .08413696 .59999087 .22312927V.22319031M.47200013 .22312927C.47200013 .08213806 .4019928 .030136109 .33699037 .030136109 .32299806 .030136109 .27598573 .030136109 .23098755 .08413696 .21998596 .09713745 .21998596 .09812927 .21998596 .117126468V.32913209C.21998596 .34814454 .22099304 .3491516 .23498535 .36314393 .2749939 .4041443 .32699586 .41015626 .34899903 .41015626 .41600038 .41015626 .47200013 .3491516 .47200013 .22314453V.22312927Z"/>
<path id="font_16_50" d="M.49398805 .11706543C.49398805 .13504029 .47499085 .13504029 .46998597 .13504029 .45298768 .13504029 .45098878 .13005066 .44499208 .11405945 .42399598 .066101077 .36698915 .03413391 .3019867 .03413391 .16099549 .03413391 .1599884 .16700745 .1599884 .2179718H.46199037C.48399354 .2179718 .49398805 .2179718 .49398805 .2449646 .49398805 .27598573 .48799134 .34906007 .43798829 .3991089 .40098573 .43511964 .34799195 .453125 .2789917 .453125 .11898804 .453125 .03199768 .35005189 .03199768 .22497559 .03199768 .09107971 .13198853-.005859375 .29299928-.005859375 .45098878-.005859375 .49398805 .10006714 .49398805 .11706543M.39898683 .25097657H.1599884C.1619873 .29000855 .16299439 .3320465 .18399048 .36506654 .20999146 .4051056 .25 .41711427 .2789917 .41711427 .3959961 .41711427 .397995 .28599549 .39898683 .25097657Z"/>
<path id="font_16_96" d="M.44198609 .36819459C.44198609 .42118836 .3880005 .4501953 .33599855 .4501953 .2659912 .4501953 .22599793 .40019227 .20298767 .33718873V.4501953L.036987306 .4423828V.39537049C.09899902 .39537049 .10598755 .39537049 .10598755 .3563385V.04699707H.036987306V0L.16299439 .0029907227C.20098877 .0029907227 .2649994 .0029907227 .30099488 0V.04699707H.21398926V.22218323C.21398926 .29226686 .23899842 .41436769 .33898927 .41436769 .33898927 .41436769 .31999208 .39736939 .31999208 .36834718 .31999208 .32730104 .35198976 .3072815 .3809967 .3072815 .4099884 .3072815 .44198609 .3283081 .44198609 .36834718V.36819459Z"/>
<path id="font_16_66" d="M.28599549 0V.04699707H.22399903V.4501953L.049987794 .4423828V.39537049C.10899353 .39537049 .115997318 .39537049 .115997318 .3563385V.04699707H.04699707V0L.16899109 .0029907227 .28599549 0M.23799134 .60728457C.23799134 .6502838 .20298767 .6852875 .1599884 .6852875 .116989139 .6852875 .08198547 .6502838 .08198547 .60728457 .08198547 .5642853 .116989139 .5292969 .1599884 .5292969 .20298767 .5292969 .23799134 .5642853 .23799134 .60728457Z"/>
<path id="font_16_81" d="M.5419922 .21812439C.5419922 .35212709 .44999696 .453125 .2869873 .453125 .12298584 .453125 .03199768 .35112 .03199768 .21812439 .03199768 .09413147 .11999512-.005859375 .2869873-.005859375 .45498658-.005859375 .5419922 .09512329 .5419922 .21812439M.4139862 .22912598C.4139862 .14213562 .4139862 .03413391 .2869873 .03413391 .1599884 .03413391 .1599884 .14213562 .1599884 .22912598 .1599884 .27412416 .1599884 .32511903 .1769867 .3591156 .19599915 .39611817 .23799134 .41711427 .2869873 .41711427 .32899476 .41711427 .37098695 .40112306 .3929901 .36611939 .4139862 .3321228 .4139862 .27713014 .4139862 .22912598Z"/>
<path id="font_16_47" d="M.6009979 0V.04699707C.5389862 .04699707 .5319977 .04699707 .5319977 .086013797V.69433596L.35499574 .6855469V.63853457C.4169922 .63853457 .42399598 .63853457 .42399598 .5996704V.40518189C.37399293 .44418336 .32199098 .4501953 .2889862 .4501953 .14299011 .4501953 .037994386 .36218263 .037994386 .22116089 .037994386 .089141849 .12998963-.005859375 .27799989-.005859375 .33898927-.005859375 .3869934 .018127442 .41799928 .043136598V-.005859375L.6009979 0M.41799928 .102996829C.40499879 .08514404 .3639984 .030136109 .28799439 .030136109 .1659851 .030136109 .1659851 .15115357 .1659851 .22116089 .1659851 .26916505 .1659851 .3231659 .19198609 .36218263 .22099304 .40419007 .2679901 .41418458 .29899598 .41418458 .35598756 .41418458 .3959961 .3821869 .41799928 .35317994V.102996829Z"/>
<path id="font_16_101" d="M.526001 .20495606C.526001 .34495545 .4249878 .41796876 .3039856 .41796876 .28199769 .41781617 .22599793 .41781617 .18399048 .34181214V.36080934C.18399048 .47483827 .20498657 .51797488 .21199036 .53302 .23599243 .5801544 .2899933 .616272 .35099793 .616272 .36898805 .616272 .40299989 .6132202 .42599488 .58984377 .3899994 .58483889 .37199403 .5578308 .37199403 .52783206 .37199403 .49383546 .394989 .46583558 .43399049 .46583558 .47299195 .46583558 .49699403 .49183656 .49699403 .52983096 .49699403 .59187319 .45498658 .65527346 .34899903 .65527346 .21299744 .65527346 .04798889 .5688324 .04798889 .3170166 .04798889 .23808289 .056991579 .15814209 .09799194 .08920288 .14498902 .013244629 .22099304-.0107421879 .29100038-.0107421879 .42999269-.0107421879 .526001 .07121277 .526001 .20510865V.20495606M.3899994 .20710755C.3899994 .10618591 .3899994 .03225708 .2889862 .03225708 .23699951 .03225708 .20999146 .07121277 .20199585 .08720398 .18598938 .11917114 .18598938 .19212342 .18598938 .21009827 .18598938 .33499146 .23999024 .381958 .29499818 .381958 .3899994 .381958 .3899994 .3070221 .3899994 .20710755Z"/>
<path id="font_3_28" d="M.58898928 .025985718C.58898928 .051986696 .57299807 .051986696 .5589905 .051986696 .49699403 .051986696 .49699403 .06199646 .49699403 .085006717V.29605104C.49699403 .38606263 .4249878 .45507813 .2619934 .45507813 .21299744 .45507813 .069992069 .45507813 .069992069 .35606385 .069992069 .31204225 .10398865 .28804017 .13699341 .28804017 .1769867 .28804017 .20498657 .31704713 .20498657 .35505677 .20498657 .3870697 .18399048 .4060669 .18399048 .4060669 .19198609 .4080658 .22099304 .41307069 .2599945 .41307069 .33999635 .41307069 .375 .36906434 .375 .29704286V.2680359C.22499085 .26704408 .02999878 .23402405 .02999878 .11199951 .02999878 .027160645 .12599182-.0068359377 .23498535-.0068359377 .33799745-.0068359377 .3809967 .04815674 .3939972 .06816101 .3939972 .037994386 .40499879 0 .5019989 0H.5549927C.57398989 0 .58898928 0 .58898928 .025985718M.375 .13699341C.375 .03515625 .25498963 .03515625 .25099183 .03515625 .19898987 .03515625 .1519928 .066207889 .1519928 .11427307 .1519928 .1843872 .24499512 .22746277 .375 .23046875V.13699341Z"/>
<path id="font_3_84" d="M.6389923 .22315979C.6389923 .3481598 .5499878 .45117188 .3889923 .45117188 .33198548 .45117188 .27598573 .43615724 .22799683 .40415956V.45117188L.04598999 .44335938V.39135743C.06498718 .39135743 .08299255 .39135743 .09498596 .38835145 .11199951 .38534547 .11199951 .37434388 .11199951 .35533143V-.14160156H.04598999V-.19360352C.099990848-.1906128 .1349945-.1906128 .17298889-.1906128 .21199036-.1906128 .24598694-.1906128 .2999878-.19360352V-.14160156H.23399353V.03715515C.28599549-.0008392334 .33499146-.0068359377 .36999513-.0068359377 .5339966-.0068359377 .6389923 .08818054 .6389923 .2232666V.22315979M.5039978 .2232666C.5039978 .08918762 .43299867 .03515625 .3600006 .03515625 .31498719 .03515625 .2669983 .057174684 .23399353 .10620117V.34233094C.25099183 .36315919 .30099488 .40415956 .37199403 .40415956 .45098878 .40415956 .5039978 .3371582 .5039978 .22315979V.2232666Z"/>
<path id="font_3_105" d="M.40699769 .12319946V.17422486H.35099793V.12519837C.35099793 .056167604 .31298829 .040161134 .2899933 .040161134 .23199463 .040161134 .23098755 .093185428 .23098755 .12019348V.39233399H.3869934V.44433595H.23098755V.6357422H.1749878C.17399597 .53652957 .12298584 .43632508 .022994996 .43432618V.39233399H.10899353V.12319946C.10899353 .02015686 .18998719-.0068359377 .2749939-.0068359377 .35099793-.0068359377 .40699769 .044158937 .40699769 .12319946Z"/>
<path id="font_3_109" d="M.6499939 .00015258789V.05215454C.59098818 .05215454 .58399966 .05215454 .58399966 .091033939V.45117188L.3959961 .443161V.39115907C.45498658 .39115907 .46199037 .39115907 .46199037 .35214234V.1620636C.46199037 .08604431 .40899659 .03515625 .32798768 .03515625 .24699402 .03515625 .24398804 .05809021 .24398804 .10903931V.45117188L.055999757 .443161V.39115907C.114990238 .39115907 .12199402 .39115907 .12199402 .35214234V.123046878C.12199402 .011154175 .21598816-.0068359377 .31399537-.0068359377 .34700013-.0068359377 .4139862-.0068359377 .46798707 .06303406V-.0068359377L.6499939 .00015258789Z"/>
<path id="font_3_107" d="M.5509949 .22802735H.49499513C.4869995 .16200257 .47399903 .14199829 .46798707 .13899231 .45700074 .1329956 .37998963 .1329956 .36299134 .1329956H.22499085C.35899354 .23803711 .41299439 .26805116 .45599366 .30107118 .526001 .35609437 .5509949 .40611268 .5509949 .46313478 .5509949 .581192 .44198609 .6582031 .2899933 .6582031 .1619873 .6579895 .06098938 .6009979 .06098938 .5069885 .06098938 .4481659 .10899353 .4291687 .13699341 .4291687 .17199707 .42912293 .21398926 .45413209 .21398926 .5061493 .21398926 .5531769 .17999268 .57218936 .16699219 .57717898 .19499207 .5981903 .23498535 .6062012 .2659912 .6062012 .35598756 .6062012 .4059906 .5391693 .4059906 .46214295 .4059906 .38110353 .35299684 .31407167 .2939911 .25904847L.07299805 .052993776C.06199646 .041992189 .06098938 .040985109 .06098938 .020996094V0H.5179901L.5509949 .22802735Z"/>
</defs>
<path transform="matrix(1,0,0,-1,175.93,202.686)" stroke-width="1.19553" stroke-linecap="butt" stroke-dasharray="1.99255,1.99255" stroke-miterlimit="10" stroke-linejoin="miter" fill="none" stroke="#000000" d="M-121.53856 85.04042H246.26522"/>
<path transform="matrix(-1,-0,0,1,54.391435,117.645587)" d="M3.18808 0-1.91284 2.55046 0 0-1.91284-2.55046"/>
<path transform="matrix(1,0,0,-1,422.1952,117.645587)" d="M3.18808 0-1.91284 2.55046 0 0-1.91284-2.55046"/>
<use data-text="y" xlink:href="#font_1_9" transform="matrix(7.9701,0,0,-7.9701,17.79699,115.45401)"/>
<use data-text="=" xlink:href="#font_2_13" transform="matrix(7.9701,0,0,-7.9701,25.47799,115.45401)"/>
<use data-text="3" xlink:href="#font_2_7" transform="matrix(7.9701,0,0,-7.9701,35.416704,115.45401)"/>
<use data-text="m" xlink:href="#font_3_75" transform="matrix(7.9701,0,0,-7.9701,13.25499,124.91801)"/>
<use data-text="i" xlink:href="#font_3_66" transform="matrix(7.9701,0,0,-7.9701,21.392464,124.91801)"/>
<use data-text="d" xlink:href="#font_3_47" transform="matrix(7.9701,0,0,-7.9701,24.102295,124.91801)"/>
<use data-text="l" xlink:href="#font_3_72" transform="matrix(7.9701,0,0,-7.9701,29.52993,124.91801)"/>
<use data-text="i" xlink:href="#font_3_66" transform="matrix(7.9701,0,0,-7.9701,32.23976,124.91801)"/>
<use data-text="n" xlink:href="#font_3_77" transform="matrix(7.9701,0,0,-7.9701,34.949594,124.91801)"/>
<use data-text="e" xlink:href="#font_3_50" transform="matrix(7.9701,0,0,-7.9701,40.377237,124.91801)"/>
<path transform="matrix(1,0,0,-1,175.93,202.686)" stroke-width=".79701" stroke-linecap="butt" stroke-miterlimit="10" stroke-linejoin="miter" fill="none" stroke="#000000" d="M-120.06416 0H244.79082"/>
<path transform="matrix(-1,-0,0,1,55.86583,202.686)" d="M4.66248 0C3.28098 .25902 1.0361 1.0361-.51805 1.94269V-1.94269C1.0361-1.0361 3.28098-.25902 4.66248 0"/>
<path transform="matrix(1,0,0,-1,420.72084,202.686)" d="M4.66248 0C3.28098 .25902 1.0361 1.0361-.51805 1.94269V-1.94269C1.0361-1.0361 3.28098-.25902 4.66248 0"/>
<use data-text="x" xlink:href="#font_4_3" transform="matrix(8.9664,0,0,-8.9664,429.102,204.679)"/>
<path transform="matrix(1,0,0,-1,175.93,202.686)" stroke-width=".79701" stroke-linecap="butt" stroke-miterlimit="10" stroke-linejoin="miter" fill="none" stroke="#000000" d="M0-23.68433V179.59177"/>
<path transform="matrix(0,1,1,0,175.93,226.37033)" d="M4.66248 0C3.28098 .25902 1.0361 1.0361-.51805 1.94269V-1.94269C1.0361-1.0361 3.28098-.25902 4.66248 0"/>
<path transform="matrix(0,-1,-1,-0,175.93,23.094239)" d="M4.66248 0C3.28098 .25902 1.0361 1.0361-.51805 1.94269V-1.94269C1.0361-1.0361 3.28098-.25902 4.66248 0"/>
<use data-text="y" xlink:href="#font_4_4" transform="matrix(8.9664,0,0,-8.9664,173.035,12.969009)"/>
<path transform="matrix(1,0,0,-1,175.93,202.686)" stroke-width=".79701" stroke-linecap="butt" stroke-miterlimit="10" stroke-linejoin="miter" fill="none" stroke="#000000" d="M-93.54497 1.70073V-1.70073"/>
<use data-text="&#x2212;" xlink:href="#font_5_1" transform="matrix(4.9813,0,0,-4.9813,77.520999,213.176)"/>
<use data-text="3" xlink:href="#font_6_4" transform="matrix(4.9813,0,0,-4.9813,83.47099,213.176)"/>
<path transform="matrix(1,0,0,-1,175.93,202.686)" stroke-width=".79701" stroke-linecap="butt" stroke-miterlimit="10" stroke-linejoin="miter" fill="none" stroke="#000000" d="M-62.36331 1.70073V-1.70073"/>
<use data-text="&#x2212;" xlink:href="#font_5_1" transform="matrix(4.9813,0,0,-4.9813,108.702999,213.176)"/>
<use data-text="2" xlink:href="#font_6_3" transform="matrix(4.9813,0,0,-4.9813,114.65299,213.176)"/>
<path transform="matrix(1,0,0,-1,175.93,202.686)" stroke-width=".79701" stroke-linecap="butt" stroke-miterlimit="10" stroke-linejoin="miter" fill="none" stroke="#000000" d="M-31.18166 1.70073V-1.70073"/>
<use data-text="&#x2212;" xlink:href="#font_5_1" transform="matrix(4.9813,0,0,-4.9813,139.885,213.176)"/>
<use data-text="1" xlink:href="#font_6_2" transform="matrix(4.9813,0,0,-4.9813,145.83499,213.176)"/>
<path transform="matrix(1,0,0,-1,175.93,202.686)" stroke-width=".79701" stroke-linecap="butt" stroke-miterlimit="10" stroke-linejoin="miter" fill="none" stroke="#000000" d="M31.18166 1.70073V-1.70073"/>
<use data-text="1" xlink:href="#font_6_2" transform="matrix(4.9813,0,0,-4.9813,205.22299,212.733)"/>
<path transform="matrix(1,0,0,-1,175.93,202.686)" stroke-width=".79701" stroke-linecap="butt" stroke-miterlimit="10" stroke-linejoin="miter" fill="none" stroke="#000000" d="M62.36331 1.70073V-1.70073"/>
<use data-text="2" xlink:href="#font_6_3" transform="matrix(4.9813,0,0,-4.9813,236.405,212.733)"/>
<path transform="matrix(1,0,0,-1,175.93,202.686)" stroke-width=".79701" stroke-linecap="butt" stroke-miterlimit="10" stroke-linejoin="miter" fill="none" stroke="#000000" d="M93.54497 1.70073V-1.70073"/>
<use data-text="3" xlink:href="#font_6_4" transform="matrix(4.9813,0,0,-4.9813,267.586,212.733)"/>
<path transform="matrix(1,0,0,-1,175.93,202.686)" stroke-width=".79701" stroke-linecap="butt" stroke-miterlimit="10" stroke-linejoin="miter" fill="none" stroke="#000000" d="M124.72664 1.70073V-1.70073"/>
<use data-text="4" xlink:href="#font_6_5" transform="matrix(4.9813,0,0,-4.9813,298.76799,212.733)"/>
<path transform="matrix(1,0,0,-1,175.93,202.686)" stroke-width=".79701" stroke-linecap="butt" stroke-miterlimit="10" stroke-linejoin="miter" fill="none" stroke="#000000" d="M155.90831 1.70073V-1.70073"/>
<use data-text="5" xlink:href="#font_6_6" transform="matrix(4.9813,0,0,-4.9813,329.94999,212.733)"/>
<path transform="matrix(1,0,0,-1,175.93,202.686)" stroke-width=".79701" stroke-linecap="butt" stroke-miterlimit="10" stroke-linejoin="miter" fill="none" stroke="#000000" d="M187.08997 1.70073V-1.70073"/>
<use data-text="6" xlink:href="#font_6_7" transform="matrix(4.9813,0,0,-4.9813,361.13099,212.733)"/>
<path transform="matrix(1,0,0,-1,175.93,202.686)" stroke-width=".79701" stroke-linecap="butt" stroke-miterlimit="10" stroke-linejoin="miter" fill="none" stroke="#000000" d="M218.27162 1.70073V-1.70073"/>
<use data-text="7" xlink:href="#font_6_8" transform="matrix(4.9813,0,0,-4.9813,392.313,212.733)"/>
<path transform="matrix(1,0,0,-1,175.93,202.686)" stroke-width=".79701" stroke-linecap="butt" stroke-miterlimit="10" stroke-linejoin="miter" fill="none" stroke="#000000" d="M1.8708 28.3468H-1.8708"/>
<use data-text="1" xlink:href="#font_6_2" transform="matrix(4.9813,0,0,-4.9813,165.14499,175.944)"/>
<path transform="matrix(1,0,0,-1,175.93,202.686)" stroke-width=".79701" stroke-linecap="butt" stroke-miterlimit="10" stroke-linejoin="miter" fill="none" stroke="#000000" d="M1.8708 56.69362H-1.8708"/>
<use data-text="2" xlink:href="#font_6_3" transform="matrix(4.9813,0,0,-4.9813,165.14499,147.597)"/>
<path transform="matrix(1,0,0,-1,175.93,202.686)" stroke-width=".79701" stroke-linecap="butt" stroke-miterlimit="10" stroke-linejoin="miter" fill="none" stroke="#000000" d="M1.8708 85.04042H-1.8708"/>
<use data-text="3" xlink:href="#font_6_4" transform="matrix(4.9813,0,0,-4.9813,165.14499,119.25101)"/>
<path transform="matrix(1,0,0,-1,175.93,202.686)" stroke-width=".79701" stroke-linecap="butt" stroke-miterlimit="10" stroke-linejoin="miter" fill="none" stroke="#000000" d="M1.8708 113.38724H-1.8708"/>
<use data-text="4" xlink:href="#font_6_5" transform="matrix(4.9813,0,0,-4.9813,165.14499,90.90401)"/>
<path transform="matrix(1,0,0,-1,175.93,202.686)" stroke-width=".79701" stroke-linecap="butt" stroke-miterlimit="10" stroke-linejoin="miter" fill="none" stroke="#000000" d="M1.8708 141.73404H-1.8708"/>
<use data-text="5" xlink:href="#font_6_6" transform="matrix(4.9813,0,0,-4.9813,165.14499,62.557008)"/>
<use data-text="0" xlink:href="#font_6_1" transform="matrix(4.9813,0,0,-4.9813,180.29999,210.83301)"/>
<path transform="matrix(1,0,0,-1,175.93,202.686)" stroke-width="1.59404" stroke-linecap="butt" stroke-miterlimit="10" stroke-linejoin="miter" fill="none" stroke="#800080" d="M-91.6003 110.13829-92.29315 111.29547-91.04134 109.16219-89.78952 106.9848-88.53772 104.76761-87.28589 102.51755-86.03407 100.23375-84.78226 97.92487-83.53044 95.59349-82.27863 93.24306-81.02682 90.87881-79.77501 88.50418-78.52318 86.12175-77.27136 83.74022-76.01955 81.35953-74.76775 78.98575-73.51593 76.62236-72.26411 74.27368-71.0123 71.94403-69.76047 69.63687-68.50867 67.35654-67.25685 65.10992-66.00504 62.89534-64.75323 60.72313-63.50139 58.59071-62.24959 56.50674-60.99777 54.47295-59.74596 52.49365-58.49416 50.57233-57.24232 48.7107-55.99051 46.91393-54.7387 45.18463-53.48688 43.52455-52.23508 41.93973-50.98326 40.4293-49.73145 38.99847-48.47961 37.64983-47.2278 36.38335-45.97598 35.20425-44.72418 34.11166-43.47237 33.11076-42.22055 32.2007-40.96873 31.38235-39.7169 30.6626-38.4651 30.03456-37.21329 29.50859-35.96147 29.07779-34.70967 28.74646-33.45782 28.51549-32.20602 28.38141-30.95421 28.35112-29.7024 28.41946-28.45059 28.58815-27.19878 28.85632-25.94695 29.22139-24.69513 29.69026-23.44331 30.2517-22.19151 30.91347-20.9397 31.66954-19.68788 32.51993-18.43605 33.46458-17.18423 34.4975-15.93242 35.62296-14.68062 36.83319-13.4288 38.12907-12.17699 39.50974-10.92517 40.96826-9.67334 42.50722-8.42154 44.11885-7.16974 45.80403-5.91791 47.55841-4.6661 49.3794-3.41426 51.26352-2.16246 53.20734-.91064 55.20567 .34113 57.2585 1.59293 59.35977 2.84474 61.50777 4.09657 63.69638 5.34839 65.92223 6.6002 68.18181 7.852 70.47166 9.10382 72.78835 10.35564 75.12405 11.60747 77.47879 12.85927 79.84737 14.1111 82.22372 15.3629 84.60614 16.6147 86.98857 17.86653 89.3684 19.11835 91.73956 20.37018 94.09949 21.62198 96.44298 22.87378 98.76657 24.12561 101.06767 25.37741 103.33936 26.62926 105.57732 27.88106 107.7798 29.13287 109.94249 30.38469 112.0602 31.63649 114.13292 32.8883 116.15115 34.14014 118.11487 35.39195 120.0215 36.64375 121.86496 37.89557 123.6453 39.14738 125.35555 40.39922 126.99487 41.65103 128.56066 42.90283 130.04772 44.15466 131.45867 45.40646 132.78395 46.65826 134.02709 47.91011 135.18367 49.16191 136.24945 50.41374 137.22873 51.66554 138.11196 52.91734 138.9035 54.16917 139.59816 55.42099 140.19765 56.6728 140.70026 57.92462 141.10167 59.17642 141.40703 60.42825 141.61206 61.68005 141.71672 62.93188 141.72193 64.1837 141.62503 65.43552 141.43126 66.68732 141.13454 67.93913 140.74007 69.19095 140.2487 70.44278 139.65699 71.6946 138.9727 72.9464 138.1881 74.19821 137.31264 75.45003 136.3446 76.70183 135.28403 77.95367 134.13866 79.20547 132.90247 80.4573 131.58409 81.7091 130.18268 82.9609 128.69994 84.21274 127.14194 85.46455 125.50867 86.71637 123.8062 87.96819 122.03279 89.21999 120.1945 90.47182 118.29393 91.72362 116.33453 92.97545 114.32065 94.22726 112.25484 95.47908 110.13972 96.73088 107.98137 97.9827 105.78146 99.23451 103.547 100.48634 101.27704 101.73816 98.98026 102.98996 96.66011 104.24178 94.31575 105.49359 91.95844 106.74539 89.58727 107.99724 87.2083 109.24904 84.82674 110.50087 82.44519 111.75267 80.06537 113.00447 77.69765 114.2563 75.34119 115.50812 73.00288 116.75993 70.68448 118.01175 68.39201 119.26355 66.129 120.51537 63.89969 121.76718 61.7076 123.01901 59.557 124.27083 57.44968 125.52264 55.39426 126.77444 53.38902 128.02626 51.44086 129.27808 49.55154 130.5299 47.72363 131.78173 45.96407 133.03353 44.27112 134.28534 42.65256 135.53716 41.10753 136.78896 39.64037 138.0408 38.25452 139.2926 36.94824 140.54442 35.73022 141.79624 34.5987 143.04804 33.5554 144.29987 32.60469 145.55168 31.74307 146.8035 30.97922 148.05532 30.30879 149.30712 29.73698 150.55893 29.26205 151.81075 28.88487 153.06258 28.60892 154.31439 28.42899 155.5662 28.35286 156.81801 28.37534 158.06983 28.49818 159.32164 28.72137 160.57347 29.04233 161.82529 29.46446 163.07709 29.98352 164.3289 30.60118 165.58072 31.31314 166.83252 32.12025 168.08437 33.0234 169.33617 34.01564 170.58797 35.10045 171.8398 36.27176 173.0916 37.5287 174.34345 38.8713 175.59525 40.29436 176.84706 41.79787 178.09888 43.37662 179.35068 45.02806 180.6025 46.75215 181.85433 48.54199 183.10614 50.39758 184.35796 52.31546 185.60976 54.2887 186.86157 56.31902 188.11339 58.39693 189.36522 60.52502 190.61702 62.69464 191.86885 64.90404 193.12065 67.14978 194.37247 69.42578 195.62429 71.73123 196.8761 74.05827 198.12793 76.40523 199.37973 78.76862 200.63153 81.14066 201.88336 83.52133 203.13516 85.90376 204.38701 88.28445 205.63881 90.66081 206.89063 93.02766 208.14244 95.37894 209.39424 97.71205 210.64606 100.02354 211.89789 102.30733 213.1497 104.56172 214.40152 106.7815 215.65332 108.9641 216.90514 111.10255 216.21373 109.94623"/>
<path transform="matrix(-.51367,-.85796,-.85796,.51367,84.32969,92.547718)" d="M3.78581 0-2.27148 3.02866 0 0-2.27148-3.02866" fill="#800080"/>
<path transform="matrix(.51329,-.85818,-.85818,-.51329,392.14375,92.73978)" d="M3.78581 0-2.27148 3.02866 0 0-2.27148-3.02866" fill="#800080"/>
<use data-text="y" xlink:href="#font_4_4" transform="matrix(8.9664,0,0,-8.9664,8.987991,76.966)" fill="#800080"/>
<use data-text="=" xlink:href="#font_7_13" transform="matrix(8.9664,0,0,-8.9664,17.33699,76.966)" fill="#800080"/>
<use data-text="&#x2212;" xlink:href="#font_8_1" transform="matrix(8.9664,0,0,-8.9664,28.148995,76.966)" fill="#800080"/>
<use data-text="2" xlink:href="#font_7_6" transform="matrix(8.9664,0,0,-8.9664,36.400995,76.966)" fill="#800080"/>
<use data-text="c" xlink:href="#font_7_14" transform="matrix(8.9664,0,0,-8.9664,43.23339,76.966)" fill="#800080"/>
<use data-text="o" xlink:href="#font_7_17" transform="matrix(8.9664,0,0,-8.9664,47.940759,76.966)" fill="#800080"/>
<use data-text="s" xlink:href="#font_7_18" transform="matrix(8.9664,0,0,-8.9664,53.239908,76.966)" fill="#800080"/>
<use data-text="&#x03c0;" xlink:href="#font_9_1" transform="matrix(5.9776,0,0,-5.9776,60.18,73.29301)" fill="#800080"/>
<path transform="matrix(1,0,0,-1,-94.94201,-53.722993)" stroke-width=".3786" stroke-linecap="butt" stroke-miterlimit="10" stroke-linejoin="miter" fill="none" stroke="#800080" d="M155.121-128.448H160.388"/>
<use data-text="3" xlink:href="#font_10_3" transform="matrix(5.9776,0,0,-5.9776,60.739999,80.009)" fill="#800080"/>
<use data-text="(" xlink:href="#font_7_1" transform="matrix(8.9664,0,0,-8.9664,66.641,76.966)" fill="#800080"/>
<use data-text="x" xlink:href="#font_4_3" transform="matrix(8.9664,0,0,-8.9664,70.767009,76.966)" fill="#800080"/>
<use data-text="+" xlink:href="#font_7_3" transform="matrix(8.9664,0,0,-8.9664,78.89701,76.966)" fill="#800080"/>
<use data-text="1" xlink:href="#font_7_5" transform="matrix(8.9664,0,0,-8.9664,89.19044,76.966)" fill="#800080"/>
<use data-text=")" xlink:href="#font_7_2" transform="matrix(8.9664,0,0,-8.9664,94.489589,76.966)" fill="#800080"/>
<use data-text="+" xlink:href="#font_7_3" transform="matrix(8.9664,0,0,-8.9664,100.65847,76.966)" fill="#800080"/>
<use data-text="3" xlink:href="#font_7_7" transform="matrix(8.9664,0,0,-8.9664,110.96085,76.966)" fill="#800080"/>
<path transform="matrix(1,0,0,-1,175.93,202.686)" stroke-width="1.59404" stroke-linecap="butt" stroke-dasharray="1.49442,1.49442" stroke-miterlimit="10" stroke-linejoin="miter" fill="none" stroke="#800080" d="M-91.6003 59.94254-92.29315 58.78535-91.04134 60.91864-89.78952 63.09604-88.53772 65.31323-87.28589 67.56328-86.03407 69.84708-84.78226 72.15598-83.53044 74.48735-82.27863 76.83777-81.02682 79.20201-79.77501 81.57664-78.52318 83.95908-77.27136 86.34062-76.01955 88.72131-74.76775 91.09508-73.51593 93.45847-72.26411 95.80714-71.0123 98.13681-69.76047 100.44397-68.50867 102.72429-67.25685 104.9709-66.00504 107.1855-64.75323 109.35771-63.50139 111.49011-62.24959 113.57408-60.99777 115.60788-59.74596 117.58717-58.49416 119.5085-57.24232 121.37015-55.99051 123.1669-54.7387 124.8962-53.48688 126.55627-52.23508 128.1411-50.98326 129.65152-49.73145 131.08235-48.47961 132.43102-47.2278 133.69748-45.97598 134.87659-44.72418 135.96916-43.47237 136.97006-42.22055 137.88013-40.96873 138.69849-39.7169 139.41823-38.4651 140.04628-37.21329 140.57224-35.96147 141.00304-34.70967 141.33437-33.45782 141.56534-32.20602 141.69944-30.95421 141.7297-29.7024 141.66136-28.45059 141.49268-27.19878 141.2245-25.94695 140.85944-24.69513 140.39057-23.44331 139.82915-22.19151 139.16736-20.9397 138.41129-19.68788 137.5609-18.43605 136.61626-17.18423 135.58335-15.93242 134.45787-14.68062 133.24765-13.4288 131.95175-12.17699 130.57109-10.92517 129.11257-9.67334 127.57361-8.42154 125.96198-7.16974 124.27681-5.91791 122.52242-4.6661 120.70143-3.41426 118.8173-2.16246 116.87349-.91064 114.87515 .34113 112.82233 1.59293 110.72107 2.84474 108.57307 4.09657 106.38445 5.34839 104.1586 6.6002 101.89902 7.852 99.60916 9.10382 97.29248 10.35564 94.95677 11.60747 92.60204 12.85927 90.23346 14.1111 87.8571 15.3629 85.47469 16.6147 83.09225 17.86653 80.71243 19.11835 78.34126 20.37018 75.98134 21.62198 73.63785 22.87378 71.31425 24.12561 69.01315 25.37741 66.74147 26.62926 64.50351 27.88106 62.30103 29.13287 60.13834 30.38469 58.02065 31.63649 55.9479 32.8883 53.92967 34.14014 51.96596 35.39195 50.05933 36.64375 48.21587 37.89557 46.43553 39.14738 44.72528 40.39922 43.08595 41.65103 41.52017 42.90283 40.03311 44.15466 38.62216 45.40646 37.29688 46.65826 36.05376 47.91011 34.89716 49.16191 33.83138 50.41374 32.85211 51.66554 31.96887 52.91734 31.17732 54.16917 30.48267 55.42099 29.88318 56.6728 29.38057 57.92462 28.97916 59.17642 28.6738 60.42825 28.46877 61.68005 28.3641 62.93188 28.3589 64.1837 28.4558 65.43552 28.64957 66.68732 28.94629 67.93913 29.34077 69.19095 29.83212 70.44278 30.42384 71.6946 31.10812 72.9464 31.89275 74.19821 32.76819 75.45003 33.73622 76.70183 34.7968 77.95367 35.94217 79.20547 37.17836 80.4573 38.49673 81.7091 39.89815 82.9609 41.38089 84.21274 42.93889 85.46455 44.57216 86.71637 46.27463 87.96819 48.04803 89.21999 49.88632 90.47182 51.7869 91.72362 53.74629 92.97545 55.76018 94.22726 57.82599 95.47908 59.9411 96.73088 62.09947 97.9827 64.29936 99.23451 66.53384 100.48634 68.8038 101.73816 71.10057 102.98996 73.42072 104.24178 75.76508 105.49359 78.12239 106.74539 80.49358 107.99724 82.87253 109.24904 85.25409 110.50087 87.63564 111.75267 90.01547 113.00447 92.38318 114.2563 94.73965 115.50812 97.07794 116.75993 99.39635 118.01175 101.68881 119.26355 103.95183 120.51537 106.18114 121.76718 108.37325 123.01901 110.52382 124.27083 112.63115 125.52264 114.68657 126.77444 116.6918 128.02626 118.63997 129.27808 120.52928 130.5299 122.3572 131.78173 124.11676 133.03353 125.80971 134.28534 127.42827 135.53716 128.9733 136.78896 130.44046 138.0408 131.82633 139.2926 133.13259 140.54442 134.3506 141.79624 135.48213 143.04804 136.52542 144.29987 137.47614 145.55168 138.33776 146.8035 139.10161 148.05532 139.77205 149.30712 140.34386 150.55893 140.81877 151.81075 141.19596 153.06258 141.47191 154.31439 141.65184 155.5662 141.72798 156.81801 141.70549 158.06983 141.58264 159.32164 141.35945 160.57347 141.0385 161.82529 140.61637 163.07709 140.0973 164.3289 139.47965 165.58072 138.7677 166.83252 137.96057 168.08437 137.05744 169.33617 136.0652 170.58797 134.98038 171.8398 133.80907 173.0916 132.55213 174.34345 131.20952 175.59525 129.78647 176.84706 128.28296 178.09888 126.70421 179.35068 125.05278 180.6025 123.32867 181.85433 121.53883 183.10614 119.68326 184.35796 117.76537 185.60976 115.79214 186.86157 113.76181 188.11339 111.6839 189.36522 109.5558 190.61702 107.38618 191.86885 105.17679 193.12065 102.93105 194.37247 100.65504 195.62429 98.34961 196.8761 96.02255 198.12793 93.6756 199.37973 91.31221 200.63153 88.94017 201.88336 86.5595 203.13516 84.17708 204.38701 81.79639 205.63881 79.42003 206.89063 77.05316 208.14244 74.70189 209.39424 72.36879 210.64606 70.0573 211.89789 67.7735 213.1497 65.5191 214.40152 63.29933 215.65332 61.11673 216.90514 58.97827 216.21373 60.1346"/>
<path transform="matrix(-.51367,.85796,.85796,.51367,84.32969,142.74347)" d="M3.78581 0-2.27148 3.02866 0 0-2.27148-3.02866" fill="#800080"/>
<path transform="matrix(.51329,.85818,.85818,-.51329,392.14375,142.5514)" d="M3.78581 0-2.27148 3.02866 0 0-2.27148-3.02866" fill="#800080"/>
<use data-text="y" xlink:href="#font_11_8" transform="matrix(9.9626,0,0,-9.9626,9.498993,167.703)" fill="#800080"/>
<use data-text="=" xlink:href="#font_12_12" transform="matrix(9.9626,0,0,-9.9626,18.515992,167.703)" fill="#800080"/>
<use data-text="2" xlink:href="#font_12_6" transform="matrix(9.9626,0,0,-9.9626,30.182198,167.703)" fill="#800080"/>
<use data-text="c" xlink:href="#font_12_13" transform="matrix(9.9626,0,0,-9.9626,37.574457,167.703)" fill="#800080"/>
<use data-text="o" xlink:href="#font_12_16" transform="matrix(9.9626,0,0,-9.9626,42.665338,167.703)" fill="#800080"/>
<use data-text="s" xlink:href="#font_12_17" transform="matrix(9.9626,0,0,-9.9626,48.393838,167.703)" fill="#800080"/>
<use data-text="&#x03c0;" xlink:href="#font_13_1" transform="matrix(6.9738,0,0,-6.9738,55.778985,163.48001)" fill="#800080"/>
<path transform="matrix(1,0,0,-1,-94.43101,37.014009)" stroke-width=".3985" stroke-linecap="butt" stroke-miterlimit="10" stroke-linejoin="miter" fill="none" stroke="#800080" d="M150.21-128.199H155.906"/>
<use data-text="3" xlink:href="#font_14_3" transform="matrix(6.9738,0,0,-6.9738,56.369989,171.44)" fill="#800080"/>
<use data-text="(" xlink:href="#font_12_1" transform="matrix(9.9626,0,0,-9.9626,62.670984,167.703)" fill="#800080"/>
<use data-text="x" xlink:href="#font_11_7" transform="matrix(9.9626,0,0,-9.9626,67.125988,167.703)" fill="#800080"/>
<use data-text="+" xlink:href="#font_12_3" transform="matrix(9.9626,0,0,-9.9626,75.90598,167.703)" fill="#800080"/>
<use data-text="1" xlink:href="#font_12_5" transform="matrix(9.9626,0,0,-9.9626,87.024257,167.703)" fill="#800080"/>
<use data-text=")" xlink:href="#font_12_2" transform="matrix(9.9626,0,0,-9.9626,92.752758,167.703)" fill="#800080"/>
<use data-text="+" xlink:href="#font_12_3" transform="matrix(9.9626,0,0,-9.9626,99.41773,167.703)" fill="#800080"/>
<use data-text="3" xlink:href="#font_12_7" transform="matrix(9.9626,0,0,-9.9626,110.536,167.703)" fill="#800080"/>
<path transform="matrix(1,0,0,-1,175.93,202.686)" d="M17.28151 85.04042C17.28151 85.97417 16.52455 86.73112 15.5908 86.73112 14.65706 86.73112 13.9001 85.97417 13.9001 85.04042 13.9001 84.10667 14.65706 83.34972 15.5908 83.34972 16.52455 83.34972 17.28151 84.10667 17.28151 85.04042ZM15.5908 85.04042"/>
<path transform="matrix(1,0,0,-1,175.93,202.686)" stroke-width=".3985" stroke-linecap="butt" stroke-miterlimit="10" stroke-linejoin="miter" fill="none" stroke="#ffffff" d="M17.28151 85.04042C17.28151 85.97417 16.52455 86.73112 15.5908 86.73112 14.65706 86.73112 13.9001 85.97417 13.9001 85.04042 13.9001 84.10667 14.65706 83.34972 15.5908 83.34972 16.52455 83.34972 17.28151 84.10667 17.28151 85.04042ZM15.5908 85.04042"/>
<use data-text="(" xlink:href="#font_2_1" transform="matrix(7.9701,0,0,-7.9701,196.458,128.56)"/>
<use data-text="0" xlink:href="#font_2_4" transform="matrix(7.9701,0,0,-7.9701,200.25177,128.56)"/>
<use data-text="." xlink:href="#font_1_2" transform="matrix(7.9701,0,0,-7.9701,205.13599,128.56)"/>
<use data-text="5" xlink:href="#font_2_9" transform="matrix(7.9701,0,0,-7.9701,207.849,128.56)"/>
<use data-text="," xlink:href="#font_1_3" transform="matrix(7.9701,0,0,-7.9701,212.72998,128.56)"/>
<use data-text="3" xlink:href="#font_2_7" transform="matrix(7.9701,0,0,-7.9701,216.85399,128.56)"/>
<use data-text=")" xlink:href="#font_2_2" transform="matrix(7.9701,0,0,-7.9701,221.73169,128.56)"/>
<path transform="matrix(1,0,0,-1,175.93,202.686)" d="M110.8265 85.04042C110.8265 85.97417 110.06955 86.73112 109.1358 86.73112 108.20206 86.73112 107.4451 85.97417 107.4451 85.04042 107.4451 84.10667 108.20206 83.34972 109.1358 83.34972 110.06955 83.34972 110.8265 84.10667 110.8265 85.04042ZM109.1358 85.04042"/>
<path transform="matrix(1,0,0,-1,175.93,202.686)" stroke-width=".3985" stroke-linecap="butt" stroke-miterlimit="10" stroke-linejoin="miter" fill="none" stroke="#ffffff" d="M110.8265 85.04042C110.8265 85.97417 110.06955 86.73112 109.1358 86.73112 108.20206 86.73112 107.4451 85.97417 107.4451 85.04042 107.4451 84.10667 108.20206 83.34972 109.1358 83.34972 110.06955 83.34972 110.8265 84.10667 110.8265 85.04042ZM109.1358 85.04042"/>
<use data-text="(" xlink:href="#font_2_1" transform="matrix(7.9701,0,0,-7.9701,290.003,128.56)"/>
<use data-text="3" xlink:href="#font_2_7" transform="matrix(7.9701,0,0,-7.9701,293.79676,128.56)"/>
<use data-text="." xlink:href="#font_1_2" transform="matrix(7.9701,0,0,-7.9701,298.681,128.56)"/>
<use data-text="5" xlink:href="#font_2_9" transform="matrix(7.9701,0,0,-7.9701,301.39399,128.56)"/>
<use data-text="," xlink:href="#font_1_3" transform="matrix(7.9701,0,0,-7.9701,306.275,128.56)"/>
<use data-text="3" xlink:href="#font_2_7" transform="matrix(7.9701,0,0,-7.9701,310.399,128.56)"/>
<use data-text=")" xlink:href="#font_2_2" transform="matrix(7.9701,0,0,-7.9701,315.2767,128.56)"/>
<path transform="matrix(1,0,0,-1,175.93,202.686)" d="M-29.49095 141.73404C-29.49095 142.66779-30.2479 143.42475-31.18166 143.42475-32.1154 143.42475-32.87236 142.66779-32.87236 141.73404-32.87236 140.8003-32.1154 140.04334-31.18166 140.04334-30.2479 140.04334-29.49095 140.8003-29.49095 141.73404ZM-31.18166 141.73404"/>
<path transform="matrix(1,0,0,-1,175.93,202.686)" stroke-width=".3985" stroke-linecap="butt" stroke-miterlimit="10" stroke-linejoin="miter" fill="none" stroke="#ffffff" d="M-29.49095 141.73404C-29.49095 142.66779-30.2479 143.42475-31.18166 143.42475-32.1154 143.42475-32.87236 142.66779-32.87236 141.73404-32.87236 140.8003-32.1154 140.04334-31.18166 140.04334-30.2479 140.04334-29.49095 140.8003-29.49095 141.73404ZM-31.18166 141.73404"/>
<use data-text="(" xlink:href="#font_2_1" transform="matrix(7.9701,0,0,-7.9701,130.211,55.440004)"/>
<use data-text="&#x2212;" xlink:href="#font_15_1" transform="matrix(7.9701,0,0,-7.9701,134.008,55.440004)"/>
<use data-text="1" xlink:href="#font_2_5" transform="matrix(7.9701,0,0,-7.9701,141.60199,55.440004)"/>
<use data-text="," xlink:href="#font_1_3" transform="matrix(7.9701,0,0,-7.9701,146.48299,55.440004)"/>
<use data-text="5" xlink:href="#font_2_9" transform="matrix(7.9701,0,0,-7.9701,150.607,55.440004)"/>
<use data-text=")" xlink:href="#font_2_2" transform="matrix(7.9701,0,0,-7.9701,155.4847,55.440004)"/>
<path transform="matrix(1,0,0,-1,175.93,202.686)" d="M64.05402 28.3468C64.05402 29.28055 63.29706 30.0375 62.36331 30.0375 61.42957 30.0375 60.6726 29.28055 60.6726 28.3468 60.6726 27.41306 61.42957 26.6561 62.36331 26.6561 63.29706 26.6561 64.05402 27.41306 64.05402 28.3468ZM62.36331 28.3468"/>
<path transform="matrix(1,0,0,-1,175.93,202.686)" stroke-width=".3985" stroke-linecap="butt" stroke-miterlimit="10" stroke-linejoin="miter" fill="none" stroke="#ffffff" d="M64.05402 28.3468C64.05402 29.28055 63.29706 30.0375 62.36331 30.0375 61.42957 30.0375 60.6726 29.28055 60.6726 28.3468 60.6726 27.41306 61.42957 26.6561 62.36331 26.6561 63.29706 26.6561 64.05402 27.41306 64.05402 28.3468ZM62.36331 28.3468"/>
<use data-text="(" xlink:href="#font_2_1" transform="matrix(7.9701,0,0,-7.9701,227.553,183.837)"/>
<use data-text="2" xlink:href="#font_2_6" transform="matrix(7.9701,0,0,-7.9701,231.34677,183.837)"/>
<use data-text="," xlink:href="#font_1_3" transform="matrix(7.9701,0,0,-7.9701,236.23099,183.837)"/>
<use data-text="1" xlink:href="#font_2_5" transform="matrix(7.9701,0,0,-7.9701,240.355,183.837)"/>
<use data-text=")" xlink:href="#font_2_2" transform="matrix(7.9701,0,0,-7.9701,245.2327,183.837)"/>
<path transform="matrix(1,0,0,-1,175.93,202.686)" d="M157.59902 141.73404C157.59902 142.66779 156.84206 143.42475 155.90831 143.42475 154.97455 143.42475 154.2176 142.66779 154.2176 141.73404 154.2176 140.8003 154.97455 140.04334 155.90831 140.04334 156.84206 140.04334 157.59902 140.8003 157.59902 141.73404ZM155.90831 141.73404"/>
<path transform="matrix(1,0,0,-1,175.93,202.686)" stroke-width=".3985" stroke-linecap="butt" stroke-miterlimit="10" stroke-linejoin="miter" fill="none" stroke="#ffffff" d="M157.59902 141.73404C157.59902 142.66779 156.84206 143.42475 155.90831 143.42475 154.97455 143.42475 154.2176 142.66779 154.2176 141.73404 154.2176 140.8003 154.97455 140.04334 155.90831 140.04334 156.84206 140.04334 157.59902 140.8003 157.59902 141.73404ZM155.90831 141.73404"/>
<use data-text="(" xlink:href="#font_2_1" transform="matrix(7.9701,0,0,-7.9701,321.098,55.440004)"/>
<use data-text="5" xlink:href="#font_2_9" transform="matrix(7.9701,0,0,-7.9701,324.89179,55.440004)"/>
<use data-text="," xlink:href="#font_1_3" transform="matrix(7.9701,0,0,-7.9701,329.776,55.440004)"/>
<use data-text="5" xlink:href="#font_2_9" transform="matrix(7.9701,0,0,-7.9701,333.9,55.440004)"/>
<use data-text=")" xlink:href="#font_2_2" transform="matrix(7.9701,0,0,-7.9701,338.7777,55.440004)"/>
<path transform="matrix(1,0,0,-1,175.93,202.686)" d="M-29.49095 28.3468C-29.49095 29.28055-30.2479 30.0375-31.18166 30.0375-32.1154 30.0375-32.87236 29.28055-32.87236 28.3468-32.87236 27.41306-32.1154 26.6561-31.18166 26.6561-30.2479 26.6561-29.49095 27.41306-29.49095 28.3468ZM-31.18166 28.3468"/>
<path transform="matrix(1,0,0,-1,175.93,202.686)" stroke-width=".3985" stroke-linecap="butt" stroke-miterlimit="10" stroke-linejoin="miter" fill="none" stroke="#ffffff" d="M-29.49095 28.3468C-29.49095 29.28055-30.2479 30.0375-31.18166 30.0375-32.1154 30.0375-32.87236 29.28055-32.87236 28.3468-32.87236 27.41306-32.1154 26.6561-31.18166 26.6561-30.2479 26.6561-29.49095 27.41306-29.49095 28.3468ZM-31.18166 28.3468"/>
<use data-text="(" xlink:href="#font_2_1" transform="matrix(7.9701,0,0,-7.9701,130.211,183.837)"/>
<use data-text="&#x2212;" xlink:href="#font_15_1" transform="matrix(7.9701,0,0,-7.9701,134.008,183.837)"/>
<use data-text="1" xlink:href="#font_2_5" transform="matrix(7.9701,0,0,-7.9701,141.60199,183.837)"/>
<use data-text="," xlink:href="#font_1_3" transform="matrix(7.9701,0,0,-7.9701,146.48299,183.837)"/>
<use data-text="1" xlink:href="#font_2_5" transform="matrix(7.9701,0,0,-7.9701,150.607,183.837)"/>
<use data-text=")" xlink:href="#font_2_2" transform="matrix(7.9701,0,0,-7.9701,155.4847,183.837)"/>
<path transform="matrix(1,0,0,-1,175.93,202.686)" d="M64.05402 141.73404C64.05402 142.66779 63.29706 143.42475 62.36331 143.42475 61.42957 143.42475 60.6726 142.66779 60.6726 141.73404 60.6726 140.8003 61.42957 140.04334 62.36331 140.04334 63.29706 140.04334 64.05402 140.8003 64.05402 141.73404ZM62.36331 141.73404"/>
<path transform="matrix(1,0,0,-1,175.93,202.686)" stroke-width=".3985" stroke-linecap="butt" stroke-miterlimit="10" stroke-linejoin="miter" fill="none" stroke="#ffffff" d="M64.05402 141.73404C64.05402 142.66779 63.29706 143.42475 62.36331 143.42475 61.42957 143.42475 60.6726 142.66779 60.6726 141.73404 60.6726 140.8003 61.42957 140.04334 62.36331 140.04334 63.29706 140.04334 64.05402 140.8003 64.05402 141.73404ZM62.36331 141.73404"/>
<use data-text="(" xlink:href="#font_2_1" transform="matrix(7.9701,0,0,-7.9701,227.553,55.440004)"/>
<use data-text="2" xlink:href="#font_2_6" transform="matrix(7.9701,0,0,-7.9701,231.34677,55.440004)"/>
<use data-text="," xlink:href="#font_1_3" transform="matrix(7.9701,0,0,-7.9701,236.23099,55.440004)"/>
<use data-text="5" xlink:href="#font_2_9" transform="matrix(7.9701,0,0,-7.9701,240.355,55.440004)"/>
<use data-text=")" xlink:href="#font_2_2" transform="matrix(7.9701,0,0,-7.9701,245.2327,55.440004)"/>
<path transform="matrix(1,0,0,-1,175.93,202.686)" d="M157.59902 28.3468C157.59902 29.28055 156.84206 30.0375 155.90831 30.0375 154.97455 30.0375 154.2176 29.28055 154.2176 28.3468 154.2176 27.41306 154.97455 26.6561 155.90831 26.6561 156.84206 26.6561 157.59902 27.41306 157.59902 28.3468ZM155.90831 28.3468"/>
<path transform="matrix(1,0,0,-1,175.93,202.686)" stroke-width=".3985" stroke-linecap="butt" stroke-miterlimit="10" stroke-linejoin="miter" fill="none" stroke="#ffffff" d="M157.59902 28.3468C157.59902 29.28055 156.84206 30.0375 155.90831 30.0375 154.97455 30.0375 154.2176 29.28055 154.2176 28.3468 154.2176 27.41306 154.97455 26.6561 155.90831 26.6561 156.84206 26.6561 157.59902 27.41306 157.59902 28.3468ZM155.90831 28.3468"/>
<use data-text="(" xlink:href="#font_2_1" transform="matrix(7.9701,0,0,-7.9701,321.098,183.837)"/>
<use data-text="5" xlink:href="#font_2_9" transform="matrix(7.9701,0,0,-7.9701,324.89179,183.837)"/>
<use data-text="," xlink:href="#font_1_3" transform="matrix(7.9701,0,0,-7.9701,329.776,183.837)"/>
<use data-text="1" xlink:href="#font_2_5" transform="matrix(7.9701,0,0,-7.9701,333.9,183.837)"/>
<use data-text=")" xlink:href="#font_2_2" transform="matrix(7.9701,0,0,-7.9701,338.7777,183.837)"/>
<path transform="matrix(1,0,0,-1,175.93,202.686)" stroke-width=".3985" stroke-linecap="butt" stroke-miterlimit="10" stroke-linejoin="miter" fill="none" stroke="#000000" d="M-30.88278 164.41156H155.60944"/>
<path transform="matrix(-1,-0,0,1,148.73339,38.274446)" d="M3.58653 0C2.52383 .19925 .797 .797-.3985 1.49438V-1.49438C.797-.797 2.52383-.19925 3.58653 0"/>
<path transform="matrix(-1,-0,0,1,144.94759,38.274446)" stroke-width=".3985" stroke-linecap="butt" stroke-miterlimit="10" stroke-linejoin="miter" fill="none" stroke="#000000" d="M0 2.29141V-2.29141"/>
<path transform="matrix(1,0,0,-1,327.85328,38.274446)" d="M3.58653 0C2.52383 .19925 .797 .797-.3985 1.49438V-1.49438C.797-.797 2.52383-.19925 3.58653 0"/>
<path transform="matrix(1,0,0,-1,331.63905,38.274446)" stroke-width=".3985" stroke-linecap="butt" stroke-miterlimit="10" stroke-linejoin="miter" fill="none" stroke="#000000" d="M0 2.29141V-2.29141"/>
<path transform="matrix(1,0,0,-1,175.93,202.686)" d="M39.972 158.4937H84.75462V170.32944H39.972Z" fill="#ffffff"/>
<use data-text="p" xlink:href="#font_16_84" transform="matrix(9.9626,0,0,-9.9626,217.396,40.765)"/>
<use data-text="e" xlink:href="#font_16_50" transform="matrix(9.9626,0,0,-9.9626,224.07093,40.765)"/>
<use data-text="r" xlink:href="#font_16_96" transform="matrix(9.9626,0,0,-9.9626,229.32123,40.765)"/>
<use data-text="i" xlink:href="#font_16_66" transform="matrix(9.9626,0,0,-9.9626,234.04349,40.765)"/>
<use data-text="o" xlink:href="#font_16_81" transform="matrix(9.9626,0,0,-9.9626,237.22156,40.765)"/>
<use data-text="d" xlink:href="#font_16_47" transform="matrix(9.9626,0,0,-9.9626,243.26886,40.765)"/>
<use data-text="6" xlink:href="#font_16_101" transform="matrix(9.9626,0,0,-9.9626,253.45064,40.765)"/>
<path transform="matrix(1,0,0,-1,175.93,202.686)" stroke-width=".79701" stroke-linecap="butt" stroke-miterlimit="10" stroke-linejoin="miter" fill="none" stroke="#000000" d="M-31.18166 89.7029V137.07157"/>
<path transform="matrix(0,1,1,0,144.74834,112.9831)" d="M4.66248 0C3.28098 .25902 1.0361 1.0361-.51805 1.94269V-1.94269C1.0361-1.0361 3.28098-.25902 4.66248 0"/>
<path transform="matrix(0,-1,-1,-0,144.74834,65.61444)" d="M4.66248 0C3.28098 .25902 1.0361 1.0361-.51805 1.94269V-1.94269C1.0361-1.0361 3.28098-.25902 4.66248 0"/>
<use data-text="a" xlink:href="#font_3_28" transform="matrix(0,-7.9701,-7.9701,-0,140.50399,114.79601)"/>
<use data-text="m" xlink:href="#font_3_75" transform="matrix(0,-7.9701,-7.9701,-0,140.50399,110.04583)"/>
<use data-text="p" xlink:href="#font_3_84" transform="matrix(0,-7.9701,-7.9701,-0,140.50399,101.908359)"/>
<use data-text="l" xlink:href="#font_3_72" transform="matrix(0,-7.9701,-7.9701,-0,140.50399,96.48072)"/>
<use data-text="i" xlink:href="#font_3_66" transform="matrix(0,-7.9701,-7.9701,-0,140.50399,93.77089)"/>
<use data-text="t" xlink:href="#font_3_105" transform="matrix(0,-7.9701,-7.9701,-0,140.50399,91.06106)"/>
<use data-text="u" xlink:href="#font_3_109" transform="matrix(0,-7.9701,-7.9701,-0,140.50399,87.26729)"/>
<use data-text="d" xlink:href="#font_3_47" transform="matrix(0,-7.9701,-7.9701,-0,140.50399,81.839649)"/>
<use data-text="e" xlink:href="#font_3_50" transform="matrix(0,-7.9701,-7.9701,-0,140.50399,76.412)"/>
<use data-text="2" xlink:href="#font_3_107" transform="matrix(0,-7.9701,-7.9701,-0,140.50399,68.696949)"/>
</svg>
