<svg style="overflow: visible;" xmlns="http://www.w3.org/2000/svg" xmlns:xlink="http://www.w3.org/1999/xlink" xmlns:inkscape="http://www.inkscape.org/namespaces/inkscape" version="1.1" width="100%" height="100%" viewBox="0 0 455.72 177.58">
<defs>
<path id="font_1_3" d="M.5499878 .39736939C.5169983 .38838197 .49299623 .35838319 .49299623 .32537843 .49299623 .28938294 .5209961 .27539063 .54499819 .27539063 .58299258 .27539063 .62098696 .30638124 .62098696 .35838319 .62098696 .41610719 .56399539 .45210267 .5029907 .45210267 .45498658 .45210267 .4169922 .4250946 .3919983 .39338685 .37799073 .41111756 .34399415 .45210267 .25 .45210267 .117996219 .45210267 .04899597 .3303833 .04899597 .29638673 .04899597 .28138734 .06298828 .28138734 .07499695 .28138734 .09098816 .28138734 .09599304 .28138734 .099990848 .29537965 .1329956 .39338685 .21299744 .41210938 .24398804 .41210938 .30299378 .41210938 .30299378 .37438966 .30299378 .36138917 .30299378 .3423767 .2889862 .28637696 .27999879 .24926758 .27198792 .21914673 .25299073 .14093018 .24699402 .11993408 .23098755 .056930543 .19198609 .032180787 .16099549 .032180787 .13999939 .032180787 .12098694 .04005432 .11099243 .046951295 .14399719 .05593872 .16799927 .0859375 .16799927 .11894226 .16799927 .15493775 .13999939 .16894531 .115997318 .16894531 .07798767 .16894531 .039993287 .13793946 .039993287 .0859375 .039993287 .028182984 .09700012-.0078125 .1579895-.0078125 .20599365-.0078125 .24398804 .019180298 .2689972 .050933839 .2829895 .03315735 .31698609-.0078125 .41099549-.0078125 .54299929-.0078125 .6119995 .11393738 .6119995 .14793396 .6119995 .16394043 .59498599 .16394043 .58599856 .16394043 .56799319 .16394043 .5649872 .16093445 .5609894 .14894104 .5279999 .050933839 .44799806 .032180787 .4169922 .032180787 .35798646 .032180787 .35798646 .06993103 .35798646 .08293152 .35798646 .10194397 .37199403 .15794373 .3809967 .1950531 .3889923 .22517395 .4079895 .3033905 .4139862 .3243866 .42999269 .38739015 .46899415 .41210938 .5 .41210938 .5209961 .41210938 .5399933 .40423585 .5499878 .39736939Z"/>
<path id="font_1_4" d="M.59498599 .3731079C.598999 .38909913 .598999 .394104 .598999 .3981018 .598999 .4320984 .57199099 .44410707 .5509949 .44410707 .49798585 .44410707 .48599244 .3961029 .47898866 .3701172L.45298768 .26612855C.43899537 .21113587 .42599488 .15615845 .41099549 .10116577 .4099884 .09416199 .3659973 .032180787 .30099488 .032180787 .2579956 .032180787 .23799134 .057174684 .23799134 .10417175 .23799134 .16314698 .27198792 .24913025 .29899598 .3171234 .30499269 .33111573 .31098939 .3461151 .31098939 .36210633 .31098939 .41410829 .25898744 .45210267 .19299317 .45210267 .08699036 .45210267 .032989503 .32011415 .032989503 .29612733 .032989503 .28112794 .04699707 .28112794 .05899048 .28112794 .07499695 .28112794 .07998657 .28112794 .083999637 .29512025 .11898804 .4091034 .1769867 .41210938 .18699646 .41210938 .19299317 .41210938 .20399475 .41210938 .20399475 .3901062 .20399475 .36810304 .19299317 .3421173 .18798828 .32911683 .147995 .22813416 .12799073 .17315674 .12799073 .12416077 .12799073 .0231781 .20899964-.0078125 .29299928-.0078125 .30899049-.0078125 .34700013-.0078125 .3919983 .02218628 .36999513-.08416748 .29599-.16210938 .21598816-.16210938 .21398926-.16210938 .18499756-.16210938 .16099549-.15216065 .18399048-.14016724 .20399475-.11515808 .20399475-.0851593 .20399475-.04916382 .17599488-.03515625 .1519928-.03515625 .10899353-.03515625 .07598877-.07316589 .07598877-.11416626 .07598877-.17111206 .13699341-.20211792 .21598816-.20211792 .33799745-.20211792 .47099305-.123168949 .5009918-.0018157959L.59498599 .3731079Z"/>
<path id="font_2_1" d="M.68499758 .31726075C.68499758 .48518373 .6439972 .6611328 .3789978 .6611328 .116989139 .6611328 .07299805 .48918153 .07299805 .31726075 .07299805 .13934326 .125-.016601563 .3789978-.016601563 .6369934-.016601563 .68499758 .14334107 .68499758 .31726075M.3789978 .039398195C.33999635 .039398195 .25898744 .0493927 .23699951 .13034058 .22399903 .17932129 .22299195 .26028443 .22299195 .33224488 .22299195 .4052124 .22299195 .48417665 .23999024 .53215029 .25698854 .5771332 .30899049 .6051178 .3789978 .6051178 .43798829 .6051178 .49899293 .5851288 .5189972 .52716067 .5349884 .4811859 .5349884 .39822389 .5349884 .33224488 .5349884 .271286 .5349884 .17732239 .519989 .12834168 .49598695 .04838562 .41600038 .039398195 .3789978 .039398195Z"/>
<path id="font_3_13" d="M.80799868 .33398438C.82199099 .33398438 .8529968 .33398438 .8529968 .36598207 .8529968 .39797975 .82199099 .39797975 .8089905 .39797975H.10998535C.09700012 .39797975 .06599426 .39797975 .06599426 .36598207 .06599426 .33398438 .09799194 .33398438 .11099243 .33398438H.80799868M.8089905 .102005008C.82199099 .102005008 .8529968 .102005008 .8529968 .13400269 .8529968 .16601563 .82099917 .16601563 .80799868 .16601563H.11099243C.09799194 .16601563 .06599426 .16601563 .06599426 .13400269 .06599426 .102005008 .09700012 .102005008 .10998535 .102005008H.8089905Z"/>
<path id="font_3_5" d="M.3639984 .6231537C.3639984 .6452484 .3639984 .65625 .33499146 .65625 .32299806 .65625 .32099916 .65625 .31199647 .6492462 .23498535 .5919647 .12799073 .5919647 .10798645 .5919647H.08799744V.54296877H.10798645C.13198853 .54296877 .18598938 .5459595 .24198914 .56295779V.04899597H.09899902V0C.13699341 .0029907227 .2579956 .0029907227 .30299378 .0029907227 .34999085 .0029907227 .46798707 .0029907227 .5089874 0V.04899597H.3639984V.6231537Z"/>
<path id="font_3_6" d="M.5319977 .22505188H.48098756C.47898866 .21104431 .46998597 .13999939 .45498658 .1329956 .44198609 .12799073 .36799623 .12799073 .35099793 .12799073H.20799256C.26098634 .17102051 .32099916 .2180481 .37098695 .25306703 .45498658 .31211854 .5319977 .3661499 .5319977 .46418763 .5319977 .581192 .4249878 .65625 .27999879 .65625 .1559906 .65625 .05899048 .597229 .05899048 .505188 .05899048 .45318605 .09899902 .42918397 .13398743 .42918397 .1659851 .42918397 .20799256 .4521942 .20799256 .5041809 .20799256 .5261841 .19898987 .56318667 .15499878 .5751953 .18998719 .60324099 .23498535 .60723879 .25498963 .60723879 .33699037 .60723879 .3889923 .54618838 .3889923 .46318055 .3889923 .39115907 .34599305 .32511903 .29299928 .27108766L.069992069 .050994874C.05899048 .039993287 .05899048 .038986207 .05899048 .018997193V0H.5009918L.5319977 .22505188Z"/>
<path id="font_3_14" d="M.49198915 .11613464C.49198915 .13212586 .47698976 .13212586 .46598817 .13212586 .44599916 .13212586 .44599916 .13113404 .43798829 .11312866 .41799928 .06512451 .37298585 .037139894 .31399537 .037139894 .17199707 .037139894 .17199707 .18112183 .17199707 .22612 .17199707 .28611756 .17298889 .41011048 .3039856 .41011048 .31098939 .41011048 .36499024 .40911866 .36499024 .40411378 .36499024 .40312196 .36299134 .40011598 .3619995 .39912416 .35299684 .38812257 .34899903 .3721161 .34899903 .35812379 .34899903 .3171234 .37998963 .29312135 .4139862 .29312135 .44499208 .29312135 .47898866 .31411744 .47898866 .3591156 .47898866 .453125 .33898927 .453125 .2999878 .453125 .10798645 .453125 .038986207 .33111573 .038986207 .22212219 .038986207 .09613037 .1289978-.005859375 .29499818-.005859375 .33198548-.005859375 .3809967 .0001373291 .4229889 .026138306 .47999574 .06112671 .49198915 .11312866 .49198915 .11613464Z"/>
<path id="font_3_17" d="M.55799868 .21812439C.55799868 .3491211 .46598817 .453125 .29599 .453125 .11999512 .453125 .032989503 .3441162 .032989503 .21812439 .032989503 .09413147 .12298584-.005859375 .29499818-.005859375 .47399903-.005859375 .55799868 .09913635 .55799868 .21812439M.29599 .037139894C.1659851 .037139894 .1659851 .14213562 .1659851 .22912598 .1659851 .3131256 .1659851 .41311646 .29499818 .41311646 .4249878 .41311646 .4249878 .3131256 .4249878 .22912598 .4249878 .14312744 .4249878 .037139894 .29599 .037139894Z"/>
<path id="font_3_18" d="M.39698792 .42411805C.39698792 .4421234 .39698792 .453125 .3769989 .453125 .36698915 .453125 .35099793 .44511415 .33299256 .43511964 .30099488 .44911195 .2619934 .453125 .22898865 .453125 .19799805 .453125 .038986207 .453125 .038986207 .32112123 .038986207 .21612549 .16999817 .19412232 .20498657 .18812561 .2869873 .1741333 .35299684 .16313172 .35299684 .10612488 .35299684 .03413391 .25898744 .03413391 .23699951 .03413391 .18598938 .03413391 .12098694 .0471344 .09199524 .13912964 .08699036 .15612793 .085998538 .15913391 .06498718 .15913391 .038986207 .15913391 .038986207 .15312195 .038986207 .12913513V.023132325C.038986207 .005126953 .038986207-.005859375 .05899048-.005859375 .06599426-.005859375 .067993167-.005859375 .08999634 .008132935L.116989139 .025131226C.1639862-.005859375 .21699524-.005859375 .23699951-.005859375 .2669983-.005859375 .4269867-.005859375 .4269867 .14012146 .4269867 .19113159 .397995 .22312927 .37998963 .23812866 .33499146 .27612306 .30299378 .28112794 .22399903 .29412843 .17599488 .30212403 .11299133 .31211854 .11299133 .3571167 .11299133 .41711427 .20599365 .41711427 .22799683 .41711427 .33999635 .41711427 .34399415 .35812379 .34599305 .33111573 .34700013 .3171234 .36099244 .3171234 .37098695 .3171234 .3959961 .3171234 .39698792 .3221283 .39698792 .3461151V.42411805Z"/>
<path id="font_4_1" d="M.7749939 .21821594C.78900149 .21821594 .82099917 .21821594 .82099917 .25021363 .82099917 .28222657 .78900149 .28222657 .7749939 .28222657H.14399719C.12998963 .28222657 .09799194 .28222657 .09799194 .25021363 .09799194 .21821594 .12998963 .21821594 .14399719 .21821594H.7749939Z"/>
<path id="font_5_1" d="M.40699769-.23200989C.40699769-.2250061 .4039917-.22200012 .3919983-.21200562 .2649994-.09700012 .21998596 .07798767 .21998596 .25 .21998596 .42099 .2630005 .59599307 .3899994 .70899966 .4059906 .723999 .40699769 .72499087 .40699769 .7319946 .40699769 .74198916 .40098573 .75 .38598634 .75 .36698915 .75 .31399537 .70500186 .2939911 .6859894 .16899109 .56199648 .11399841 .4099884 .11399841 .25 .11399841 .16099549 .13198853 .039993287 .20599365-.07800293 .2689972-.17800904 .3639984-.25 .38598634-.25 .40098573-.25 .40699769-.2420044 .40699769-.23200989Z"/>
<path id="font_6_1" d="M.8019867 .21617127C.81599429 .21617127 .84999087 .21617127 .84999087 .25016786 .84999087 .2841797 .81599429 .2841797 .8019867 .2841797H.1499939C.13598633 .2841797 .101989749 .2841797 .101989749 .25016786 .101989749 .21617127 .13598633 .21617127 .1499939 .21617127H.8019867Z"/>
<path id="font_7_1" d="M.33599855 .3408203H.44898988C.42199708 .22695923 .41999818 .17901612 .41999818 .14805603 .41999818 .07015991 .44499208-.009765625 .49598695-.009765625 .522995-.009765625 .5669861 .018218995 .5669861 .059173585 .5669861 .073150638 .56399539 .07914734 .55599978 .09112549 .5069885 .16603089 .5029907 .24394226 .5029907 .27789308 .5029907 .30485536 .5049896 .31684876 .5079956 .3408203H.6389923C.6599884 .3408203 .6719971 .3408203 .6899872 .35481263 .70399478 .3658142 .71299746 .38581849 .71299746 .40081788 .71299746 .44381715 .6729889 .44381715 .6559906 .44381715H.23498535C.21099854 .44381715 .16799927 .44381715 .10598755 .3918152 .08999634 .37780763 .03199768 .31884767 .03199768 .30285646 .03199768 .2848816 .04899597 .2848816 .05999756 .2848816 .07699585 .2848816 .07798767 .28588868 .08699036 .296875 .10598755 .31684876 .1349945 .3408203 .21299744 .3408203H.27598573C.25498963 .27789308 .22499085 .2059784 .15699768 .085128787 .14299011 .061157228 .13999939 .05517578 .13999939 .03918457 .13999939 .008224487 .16499329-.008773804 .19099427-.008773804 .21798706-.008773804 .24499512 .008224487 .2559967 .04019165 .2659912 .06616211 .272995 .09411621 .2809906 .12608338L.33599855 .3408203Z"/>
<path id="font_5_8" d="M.47399903 .62516787C.47399903 .6561737 .46798707 .6591797 .43899537 .6591797 .41799928 .6591797 .41099549 .6591797 .39898683 .64416506L.033996583 .20605469V.15405274H.34098817V.051986696H.22200012V0C.25898744 .0029907227 .3600006 .0029907227 .40299989 .0029907227 .45098878 .0029907227 .5329895 .0029907227 .5779877 0V.051986696H.47399903V.15405274H.5779877V.20605469H.47399903V.62516787M.35398866 .5151367V.20605469H.09599304L.35398866 .5151367Z"/>
<path id="font_7_3" d="M.22099304 .016998291C.21199036-.08493042 .1519928-.1348877 .1309967-.15187073 .11999512-.15986634 .115997318-.16287232 .115997318-.17185974 .115997318-.18086243 .12799073-.19386292 .13899231-.19386292 .15499878-.19386292 .2639923-.106918338 .2639923 .03199768 .2639923 .10499573 .22698975 .1599884 .16899109 .1599884 .12199402 .1599884 .08999634 .12399292 .08999634 .07998657 .08999634 .038986207 .11898804 0 .16999817 0 .18998719 0 .20899964 .0069885256 .22099304 .016998291Z"/>
<path id="font_5_4" d="M.56399539 .31925965C.56399539 .4352417 .5549927 .6582031 .30599977 .6582031 .055999757 .6582031 .04798889 .4332428 .04798889 .31925965 .04798889 .20729065 .054992677-.013671875 .30599977-.013671875 .55799868-.013671875 .56399539 .20828247 .56399539 .31925965M.30599977 .028320313C.2789917 .028320313 .25099183 .03831482 .22999573 .05531311 .19799805 .08331299 .18299866 .0973053 .18299866 .33125306 .18299866 .40324403 .18299866 .4762268 .19299317 .5262146 .20599365 .5971985 .2679901 .6161957 .30599977 .6161957 .32998658 .6161957 .4059906 .610199 .42099 .515213 .42900086 .4662323 .42900086 .3892517 .42900086 .33125306 .42900086 .10231018 .4149933 .08830261 .38398744 .05831909 .37599183 .049316408 .34799195 .028320313 .30599977 .028320313Z"/>
<path id="font_5_2" d="M.36099244 .25C.36099244 .33898927 .34298707 .45999146 .2689972 .5779877 .20599365 .6779938 .11099243 .75 .08898926 .75 .07199097 .75 .067993167 .7389984 .067993167 .7319946 .067993167 .72499087 .07199097 .72099307 .08299255 .71199038 .20999146 .5970001 .25498963 .42199708 .25498963 .25 .25498963 .07899475 .21199036-.0960083 .084991458-.2090149 .07299805-.22000122 .067993167-.22401428 .067993167-.23200989 .067993167-.23901367 .07199097-.25 .08898926-.25 .10798645-.25 .16099549-.20500183 .18099976-.18600464 .30599977-.06201172 .36099244 .08999634 .36099244 .25Z"/>
<path id="font_5_7" d="M.28399659 .32714845C.3999939 .32714845 .40098573 .23034668 .40098573 .18035889 .40098573 .13534546 .40098573 .033325197 .28799439 .033325197 .2669983 .033325197 .20999146 .036315919 .1599884 .068359378 .1769867 .0753479 .21299744 .09635925 .21299744 .14535523 .21299744 .19335938 .1789856 .22634888 .13198853 .22634888 .08799744 .22634888 .050994874 .1963501 .050994874 .14434815 .050994874 .047332765 .15499878-.013671875 .29299928-.013671875 .4889984-.013671875 .5609894 .09234619 .5609894 .1793518 .5609894 .26127626 .49798585 .32914735 .3899994 .35313417 .4169922 .36413575 .5269928 .40715028 .5269928 .51615908 .5269928 .59617617 .44499208 .6582031 .29599 .6582031 .1659851 .6582031 .084991458 .58917239 .084991458 .50717166 .084991458 .45115663 .1289978 .4311676 .15899658 .4311676 .19898987 .4311676 .23298645 .45916749 .23298645 .5051575 .23298645 .52716067 .22499085 .5651703 .1769867 .5771637 .22099304 .6151886 .2809906 .6151886 .2899933 .6151886 .3829956 .6151886 .3829956 .5491638 .3829956 .51916506 .3829956 .4471588 .34899903 .41015626 .34599305 .40615846 .31698609 .37513734 .29899598 .3741455 .24499512 .37113954 .21398926 .36914063 .20399475 .36813355 .20399475 .34814454 .20399475 .32714845 .21699524 .32714845 .23498535 .32714845H.28399659Z"/>
<path id="font_5_5" d="M.3789978 .62413027C.3789978 .6582031 .37298585 .6582031 .33299256 .6582031 .27198792 .61006167 .19198609 .5939789 .11399841 .5939789H.09199524V.5419922H.11399841C.13999939 .5419922 .19400025 .5449829 .2519989 .5619812V.051986696H.101989749V0C.13798523 .0029907227 .269989 .0029907227 .31498719 .0029907227 .3600006 .0029907227 .48999024 .0029907227 .5269928 0V.051986696H.3789978V.62413027Z"/>
<path id="font_5_6" d="M.5509949 .2280426H.49499513C.4869995 .16200257 .47399903 .14199829 .46798707 .13899231 .45700074 .1329956 .37998963 .1329956 .36299134 .1329956H.22499085C.35899354 .23805237 .41299439 .2680664 .45599366 .30108644 .526001 .35612489 .5509949 .40615846 .5509949 .46316529 .5509949 .58117678 .44198609 .6582031 .2899933 .6582031 .1619873 .6582031 .06098938 .6011963 .06098938 .50717166 .06098938 .4481659 .10899353 .4291687 .13699341 .4291687 .17199707 .4291687 .21398926 .4541626 .21398926 .50616458 .21398926 .5531616 .17999268 .5721588 .16699219 .5771637 .19499207 .5981903 .23498535 .6062012 .2659912 .6062012 .35598756 .6062012 .4059906 .5391693 .4059906 .4621582 .4059906 .38113404 .35299684 .31410218 .2939911 .25906373L.07299805 .052993776C.06199646 .041992189 .06098938 .040985109 .06098938 .020996094V0H.5179901L.5509949 .2280426Z"/>
<path id="font_8_84" d="M.59999087 .22319031C.59999087 .3561859 .5089874 .4501953 .36499024 .4501953 .2899933 .4501953 .23699951 .41918946 .21398926 .40118409V.4501953L.036987306 .4423828V.39537049C.09899902 .39537049 .10598755 .39537049 .10598755 .3573761V-.14648438H.036987306V-.1934967L.16299439-.19049073 .2889862-.1934967V-.14648438H.21998596V.03945923C.2630005 .004135132 .30699159-.005859375 .34799195-.005859375 .49798585-.005859375 .59999087 .08413696 .59999087 .22312927V.22319031M.47200013 .22312927C.47200013 .08213806 .4019928 .030136109 .33699037 .030136109 .32299806 .030136109 .27598573 .030136109 .23098755 .08413696 .21998596 .09713745 .21998596 .09812927 .21998596 .117126468V.32913209C.21998596 .34814454 .22099304 .3491516 .23498535 .36314393 .2749939 .4041443 .32699586 .41015626 .34899903 .41015626 .41600038 .41015626 .47200013 .3491516 .47200013 .22314453V.22312927Z"/>
<path id="font_8_50" d="M.49398805 .11706543C.49398805 .13504029 .47499085 .13504029 .46998597 .13504029 .45298768 .13504029 .45098878 .13005066 .44499208 .11405945 .42399598 .066101077 .36698915 .03413391 .3019867 .03413391 .16099549 .03413391 .1599884 .16700745 .1599884 .2179718H.46199037C.48399354 .2179718 .49398805 .2179718 .49398805 .2449646 .49398805 .27598573 .48799134 .34906007 .43798829 .3991089 .40098573 .43511964 .34799195 .453125 .2789917 .453125 .11898804 .453125 .03199768 .35005189 .03199768 .22497559 .03199768 .09107971 .13198853-.005859375 .29299928-.005859375 .45098878-.005859375 .49398805 .10006714 .49398805 .11706543M.39898683 .25097657H.1599884C.1619873 .29000855 .16299439 .3320465 .18399048 .36506654 .20999146 .4051056 .25 .41711427 .2789917 .41711427 .3959961 .41711427 .397995 .28599549 .39898683 .25097657Z"/>
<path id="font_8_96" d="M.44198609 .36819459C.44198609 .42118836 .3880005 .4501953 .33599855 .4501953 .2659912 .4501953 .22599793 .40019227 .20298767 .33718873V.4501953L.036987306 .4423828V.39537049C.09899902 .39537049 .10598755 .39537049 .10598755 .3563385V.04699707H.036987306V0L.16299439 .0029907227C.20098877 .0029907227 .2649994 .0029907227 .30099488 0V.04699707H.21398926V.22218323C.21398926 .29226686 .23899842 .41436769 .33898927 .41436769 .33898927 .41436769 .31999208 .39736939 .31999208 .36834718 .31999208 .32730104 .35198976 .3072815 .3809967 .3072815 .4099884 .3072815 .44198609 .3283081 .44198609 .36834718V.36819459Z"/>
<path id="font_8_66" d="M.28599549 0V.04699707H.22399903V.4501953L.049987794 .4423828V.39537049C.10899353 .39537049 .115997318 .39537049 .115997318 .3563385V.04699707H.04699707V0L.16899109 .0029907227 .28599549 0M.23799134 .60728457C.23799134 .6502838 .20298767 .6852875 .1599884 .6852875 .116989139 .6852875 .08198547 .6502838 .08198547 .60728457 .08198547 .5642853 .116989139 .5292969 .1599884 .5292969 .20298767 .5292969 .23799134 .5642853 .23799134 .60728457Z"/>
<path id="font_8_81" d="M.5419922 .21812439C.5419922 .35212709 .44999696 .453125 .2869873 .453125 .12298584 .453125 .03199768 .35112 .03199768 .21812439 .03199768 .09413147 .11999512-.005859375 .2869873-.005859375 .45498658-.005859375 .5419922 .09512329 .5419922 .21812439M.4139862 .22912598C.4139862 .14213562 .4139862 .03413391 .2869873 .03413391 .1599884 .03413391 .1599884 .14213562 .1599884 .22912598 .1599884 .27412416 .1599884 .32511903 .1769867 .3591156 .19599915 .39611817 .23799134 .41711427 .2869873 .41711427 .32899476 .41711427 .37098695 .40112306 .3929901 .36611939 .4139862 .3321228 .4139862 .27713014 .4139862 .22912598Z"/>
<path id="font_8_47" d="M.6009979 0V.04699707C.5389862 .04699707 .5319977 .04699707 .5319977 .086013797V.69433596L.35499574 .6855469V.63853457C.4169922 .63853457 .42399598 .63853457 .42399598 .5996704V.40518189C.37399293 .44418336 .32199098 .4501953 .2889862 .4501953 .14299011 .4501953 .037994386 .36218263 .037994386 .22116089 .037994386 .089141849 .12998963-.005859375 .27799989-.005859375 .33898927-.005859375 .3869934 .018127442 .41799928 .043136598V-.005859375L.6009979 0M.41799928 .102996829C.40499879 .08514404 .3639984 .030136109 .28799439 .030136109 .1659851 .030136109 .1659851 .15115357 .1659851 .22116089 .1659851 .26916505 .1659851 .3231659 .19198609 .36218263 .22099304 .40419007 .2679901 .41418458 .29899598 .41418458 .35598756 .41418458 .3959961 .3821869 .41799928 .35317994V.102996829Z"/>
<path id="font_9_1" d="M.31199647 .34832765H.42399598C.4019928 .2552948 .3909912 .1942749 .3909912 .1352539 .3909912 .067230228 .40899659-.0087890629 .45700074-.0087890629 .48999024-.0087890629 .526001 .02420044 .526001 .05621338 .526001 .068222049 .522995 .07423401 .5139923 .0892334 .46798707 .17025757 .46798707 .24728394 .46798707 .27430726 .46798707 .29830934 .46798707 .3083191 .47399903 .34832765H.59799197C.61698916 .34832765 .6329956 .34832765 .647995 .36332704 .6549988 .3703308 .66799929 .38232423 .66799929 .40533448 .66799929 .44433595 .6329956 .44433595 .61499026 .44433595H.22200012C.20098877 .44433595 .1579895 .44433595 .10499573 .3963318 .069992069 .3643341 .0309906 .31330873 .0309906 .3033142 .0309906 .28930665 .042999269 .28930665 .053985597 .28930665 .068984989 .28930665 .069992069 .29031373 .07899475 .3013153 .116989139 .34832765 .18299866 .34832765 .20199585 .34832765H.2619934C.23699951 .26930238 .19699097 .18727112 .14299011 .08622742 .1269989 .05621338 .12399292 .051223756 .12399292 .037216188 .12399292 .01020813 .1459961-.007797241 .17199707-.007797241 .19299317-.007797241 .20799256 .0032043458 .21499634 .00920105 .22999573 .02420044 .23098755 .028213501 .23599243 .049209596L.31199647 .34832765Z"/>
<path id="font_10_28" d="M.58898928 .025985718C.58898928 .051986696 .57299807 .051986696 .5589905 .051986696 .49699403 .051986696 .49699403 .06199646 .49699403 .085006717V.29605104C.49699403 .38606263 .4249878 .45507813 .2619934 .45507813 .21299744 .45507813 .069992069 .45507813 .069992069 .35606385 .069992069 .31204225 .10398865 .28804017 .13699341 .28804017 .1769867 .28804017 .20498657 .31704713 .20498657 .35505677 .20498657 .3870697 .18399048 .4060669 .18399048 .4060669 .19198609 .4080658 .22099304 .41307069 .2599945 .41307069 .33999635 .41307069 .375 .36906434 .375 .29704286V.2680359C.22499085 .26704408 .02999878 .23402405 .02999878 .11199951 .02999878 .027160645 .12599182-.0068359377 .23498535-.0068359377 .33799745-.0068359377 .3809967 .04815674 .3939972 .06816101 .3939972 .037994386 .40499879 0 .5019989 0H.5549927C.57398989 0 .58898928 0 .58898928 .025985718M.375 .13699341C.375 .03515625 .25498963 .03515625 .25099183 .03515625 .19898987 .03515625 .1519928 .066207889 .1519928 .11427307 .1519928 .1843872 .24499512 .22746277 .375 .23046875V.13699341Z"/>
<path id="font_10_75" d="M.98999026 0V.051986696H.923996V.3034973C.923996 .42315675 .8509979 .45117188 .7589874 .45117188 .6539917 .45117188 .598999 .39059449 .5779877 .35958863 .55400088 .4371643 .4869995 .45117188 .4189911 .45117188 .2979889 .45117188 .24398804 .3715973 .23199463 .34959413H.23098755V.45117188L.055999757 .44335938V.39135743C.114990238 .39135743 .12199402 .39135743 .12199402 .35231019V.051986696H.055999757V0C.10998535 .0029907227 .14498902 .0029907227 .18299866 .0029907227 .22200012 .0029907227 .2559967 .0029907227 .30999757 0V.051986696H.24398804V.25320436C.24398804 .36413575 .33999635 .40916444 .4039917 .40916444 .43899537 .40916444 .46199037 .39215089 .46199037 .31411744V.051986696H.3959961V0C.44999696 .0029907227 .4850006 .0029907227 .522995 .0029907227 .56199648 .0029907227 .59599307 .0029907227 .6499939 0V.051986696H.58399966V.25308229C.58399966 .36413575 .6799927 .40916444 .74398806 .40916444 .7789917 .40916444 .8019867 .39215089 .8019867 .31411744V.051986696H.73599246V0C.7899933 .0029907227 .82499697 .0029907227 .86299136 .0029907227 .9019928 .0029907227 .9359894 .0029907227 .98999026 0Z"/>
<path id="font_10_84" d="M.6389923 .22315979C.6389923 .3481598 .5499878 .45117188 .3889923 .45117188 .33198548 .45117188 .27598573 .43615724 .22799683 .40415956V.45117188L.04598999 .44335938V.39135743C.06498718 .39135743 .08299255 .39135743 .09498596 .38835145 .11199951 .38534547 .11199951 .37434388 .11199951 .35533143V-.14160156H.04598999V-.19360352C.099990848-.1906128 .1349945-.1906128 .17298889-.1906128 .21199036-.1906128 .24598694-.1906128 .2999878-.19360352V-.14160156H.23399353V.03715515C.28599549-.0008392334 .33499146-.0068359377 .36999513-.0068359377 .5339966-.0068359377 .6389923 .08818054 .6389923 .2232666V.22315979M.5039978 .2232666C.5039978 .08918762 .43299867 .03515625 .3600006 .03515625 .31498719 .03515625 .2669983 .057174684 .23399353 .10620117V.34233094C.25099183 .36315919 .30099488 .40415956 .37199403 .40415956 .45098878 .40415956 .5039978 .3371582 .5039978 .22315979V.2232666Z"/>
<path id="font_10_72" d="M.30699159 0V.051986696H.24099732V.69433596L.05899048 .6855469V.6335449C.117996219 .6335449 .125 .6335449 .125 .594574V.051986696H.05899048V0C.116989139 .0029907227 .1269989 .0029907227 .18299866 .0029907227 .23899842 .0029907227 .24899292 .0029907227 .30699159 0Z"/>
<path id="font_10_66" d="M.2999878 0V.051986696H.24099732V.45117188L.06199646 .44335938V.39135743C.117996219 .39135743 .125 .39135743 .125 .35331727V.051986696H.05899048V0C.116989139 .0029907227 .12799073 .0029907227 .18099976 .0029907227 .22200012 .0029907227 .25099183 .0029907227 .2999878 0M.25099183 .6053772C.25099183 .6503906 .21299744 .685379 .17098999 .685379 .12599182 .685379 .08999634 .64938357 .08999634 .6053772 .08999634 .560379 .12799073 .5253906 .16999817 .5253906 .21499634 .5253906 .25099183 .5613861 .25099183 .6053772Z"/>
<path id="font_10_105" d="M.40699769 .12319946V.17422486H.35099793V.12519837C.35099793 .056167604 .31298829 .040161134 .2899933 .040161134 .23199463 .040161134 .23098755 .093185428 .23098755 .12019348V.39233399H.3869934V.44433595H.23098755V.6357422H.1749878C.17399597 .53652957 .12298584 .43632508 .022994996 .43432618V.39233399H.10899353V.12319946C.10899353 .02015686 .18998719-.0068359377 .2749939-.0068359377 .35099793-.0068359377 .40699769 .044158937 .40699769 .12319946Z"/>
<path id="font_10_109" d="M.6499939 .00015258789V.05215454C.59098818 .05215454 .58399966 .05215454 .58399966 .091033939V.45117188L.3959961 .443161V.39115907C.45498658 .39115907 .46199037 .39115907 .46199037 .35214234V.1620636C.46199037 .08604431 .40899659 .03515625 .32798768 .03515625 .24699402 .03515625 .24398804 .05809021 .24398804 .10903931V.45117188L.055999757 .443161V.39115907C.114990238 .39115907 .12199402 .39115907 .12199402 .35214234V.123046878C.12199402 .011154175 .21598816-.0068359377 .31399537-.0068359377 .34700013-.0068359377 .4139862-.0068359377 .46798707 .06303406V-.0068359377L.6499939 .00015258789Z"/>
<path id="font_10_47" d="M.6339874 0V.051986696C.57499697 .051986696 .56799319 .051986696 .56799319 .09101868V.69433596L.38598634 .6855469V.6335449C.44499208 .6335449 .45199586 .6335449 .45199586 .5946808V.40815736C.397995 .4451599 .34599305 .45117188 .30899049 .45117188 .13999939 .45117188 .040985109 .35116578 .040985109 .22215271 .040985109 .091156009 .13798523-.0068359377 .29699708-.0068359377 .36999513-.007003784 .41999818 .021987915 .44599916 .041992189V-.0068359377L.6339874 0M.44599916 .11099243C.39898683 .045150758 .33999635 .03515625 .30599977 .03515625 .17599488 .03515625 .17599488 .15916443 .17599488 .21916199 .17599488 .28216554 .17599488 .40916444 .31900025 .40916444 .36499024 .40916444 .4119873 .39016725 .44599916 .34716798V.11099243Z"/>
<path id="font_10_50" d="M.526001 .11508179C.526001 .13604737 .5049896 .13604737 .49798585 .13604737 .48098756 .13604737 .47698976 .13404846 .46899415 .11706543 .43699647 .04714966 .35198976 .040161134 .32398988 .040161134 .17599488 .040161134 .17098999 .15603638 .16899109 .2119751H.49198915C.5130005 .2119751 .526001 .2119751 .526001 .2409668 .526001 .28399659 .5159912 .35003663 .46598817 .3990631 .4099884 .45507813 .31999208 .45507813 .29699708 .45507813 .11898804 .45507813 .033996583 .34402467 .033996583 .2259674 .033996583 .09609985 .13398743-.0068359377 .31199647-.0068359377 .48799134-.0068359377 .526001 .10108948 .526001 .11508179M.42799378 .25097657H.16899109C.16999817 .29100038 .17399597 .41307069 .2979889 .41307069 .42199708 .41307069 .4269867 .2899933 .42799378 .25097657Z"/>
<path id="font_11_1" d="M.42399598 .6221924C.42399598 .65219119 .4189911 .6582031 .3880005 .6582031H.37098695C.2889862 .59417727 .16299439 .59417727 .14099121 .59417727H.115997318V.5341797H.14099121C.16299439 .5341797 .22399903 .5361786 .2919922 .5561676V.05999756H.12298584V0C.17399597 .0039978029 .2999878 .0039978029 .35699464 .0039978029 .4119873 .0039978029 .5399933 .0039978029 .58898928 0V.05999756H.42399598V.6221924Z"/>
<path id="font_11_2" d="M.6159973 .2220459H.54499819C.54299929 .21003723 .5339966 .1459961 .5119934 .14299011 .49198915 .13899231 .44499208 .13899231 .41099549 .13899231H.272995C.2829895 .1459961 .30699159 .16200257 .31599427 .16900635 .48298646 .28208924 .46499635 .2600708 .5209961 .30110169 .57598879 .34213258 .6159973 .38916017 .6159973 .45819093 .6159973 .581192 .5009918 .6582031 .32699586 .6582031 .17098999 .6582031 .07598877 .6031952 .07598877 .5101929 .07598877 .45018006 .12399292 .42918397 .15499878 .42918397 .19299317 .42918397 .23498535 .45518495 .23498535 .5091858 .23498535 .53318789 .22599793 .55918887 .20199585 .57418826 .24198914 .5981903 .2889862 .5981903 .2999878 .5981903 .3999939 .5981903 .46299745 .53718569 .46299745 .45718385 .46299745 .37815858 .3999939 .31210328 .33699037 .26107789L.08999634 .06098938C.07598877 .049987794 .07598877 .04499817 .07598877 .024993897V0H.5799866L.6159973 .2220459Z"/>
</defs>
<path transform="matrix(1,0,0,-1,176.146,94.977008)" stroke-width=".79701" stroke-linecap="butt" stroke-miterlimit="10" stroke-linejoin="miter" fill="none" stroke="#000000" d="M-165.41838 0H256.1285"/>
<path transform="matrix(-1,-0,0,1,10.727615,94.977008)" d="M4.66248 0C3.28098 .25902 1.0361 1.0361-.51805 1.94269V-1.94269C1.0361-1.0361 3.28098-.25902 4.66248 0"/>
<path transform="matrix(1,0,0,-1,432.2745,94.977008)" d="M4.66248 0C3.28098 .25902 1.0361 1.0361-.51805 1.94269V-1.94269C1.0361-1.0361 3.28098-.25902 4.66248 0"/>
<use data-text="x" xlink:href="#font_1_3" transform="matrix(8.9664,0,0,-8.9664,440.656,96.97001)"/>
<path transform="matrix(1,0,0,-1,176.146,94.977008)" stroke-width=".79701" stroke-linecap="butt" stroke-miterlimit="10" stroke-linejoin="miter" fill="none" stroke="#000000" d="M0-71.87401V71.87401"/>
<path transform="matrix(0,1,1,0,176.146,166.85102)" d="M4.66248 0C3.28098 .25902 1.0361 1.0361-.51805 1.94269V-1.94269C1.0361-1.0361 3.28098-.25902 4.66248 0"/>
<path transform="matrix(0,-1,-1,-0,176.146,23.102997)" d="M4.66248 0C3.28098 .25902 1.0361 1.0361-.51805 1.94269V-1.94269C1.0361-1.0361 3.28098-.25902 4.66248 0"/>
<use data-text="y" xlink:href="#font_1_4" transform="matrix(8.9664,0,0,-8.9664,173.251,12.978004)"/>
<use data-text="0" xlink:href="#font_2_1" transform="matrix(4.9813,0,0,-4.9813,168.849,101.70701)"/>
<path transform="matrix(1,0,0,-1,176.146,94.977008)" stroke-width=".79701" stroke-linecap="butt" stroke-miterlimit="10" stroke-linejoin="miter" fill="none" stroke="#000000" d="M2.83482 34.01628H-2.83482"/>
<path transform="matrix(1,0,0,-1,176.146,94.977008)" stroke-width=".79701" stroke-linecap="butt" stroke-miterlimit="10" stroke-linejoin="miter" fill="none" stroke="#000000" d="M2.83482-34.01628H-2.83482"/>
<path transform="matrix(1,0,0,-1,176.146,94.977008)" stroke-width="1.59404" stroke-linecap="butt" stroke-miterlimit="10" stroke-linejoin="miter" fill="none" stroke="#7f807f" d="M-150.32558 18.98361-151.4791 20.07732-149.88564 18.50397-148.29216 16.87027-146.69869 15.184-145.10523 13.44974-143.51175 11.67331-141.91828 9.85991-140.3248 8.0147-138.73137 6.14548-137.1379 4.25613-135.54442 2.35385-133.95095 .44312-132.35749-1.46692-130.764-3.37378-129.17053-5.2709-127.57706-7.14983-125.9836-9.00735-124.39012-10.83571-122.79665-12.6303-121.20317-14.38533-119.60971-16.09364-118.01624-17.75198-116.42276-19.3539-114.82928-20.89546-113.23582-22.37085-111.64235-23.7742-110.04887-25.1036-108.4554-26.35385-106.86194-27.52107-105.2685-28.60004-103.67502-29.58882-102.08156-30.48482-100.48808-31.28545-98.8946-31.98618-97.30113-32.58502-95.70767-33.08134-94.1142-33.47388-92.52072-33.76129-90.92725-33.94035-89.33379-34.01303-87.74031-33.97801-86.14684-33.83656-84.55336-33.58742-82.9599-33.23123-81.36642-32.77057-79.77295-32.20741-78.17947-31.54303-76.58601-30.7768-74.99254-29.91388-73.39906-28.95752-71.80559-27.90906-70.21216-26.773-68.61868-25.55128-67.0252-24.24977-65.43173-22.87173-63.83827-21.42097-62.2448-19.90279-60.65132-18.32098-59.05786-16.6821-57.46439-14.99002-55.87091-13.2512-54.27744-11.47025-52.68398-9.65228-51.0905-7.80449-49.49702-5.93266-47.90355-4.04141-46.31009-2.13779-44.71661-.22707-43.12314 1.68362-41.52966 3.58917-39.9362 5.48369-38.34273 7.36134-36.74925 9.21562-35.1558 11.04137-33.56235 12.83078-31.96887 14.57999-30.3754 16.28372-28.78192 17.93626-27.18846 19.5323-25.59499 21.06543-24.00151 22.5324-22.40805 23.92862-20.81458 25.24895-19.2211 26.48947-17.62762 27.64629-16.03416 28.71619-14.44069 29.69522-12.84721 30.58084-11.25374 31.3685-9.66028 32.05882-8.0668 32.646-6.47333 33.13194-4.87985 33.51216-3.28639 33.78596-1.69295 33.95334-.09947 34.01433 1.49396 33.9676 3.08742 33.8132 4.6809 33.55173 6.27437 33.18451 7.86784 32.71283 9.4613 32.138 11.05478 31.45999 12.64825 30.68336 14.24173 29.81136 15.83519 28.84465 17.42867 27.78514 19.02214 26.63869 20.6156 25.4079 22.20908 24.09796 23.80255 22.7108 25.39603 21.25232 26.98949 19.7263 28.58296 18.13867 30.17644 16.49394 31.76991 14.79602 33.36334 13.05138 34.95682 11.2665 36.5503 9.44531 38.14377 7.59427 39.73723 5.71921 41.3307 3.82664 42.92418 1.92175 44.51765 .01036 46.11111-1.89903 47.70459-3.80458 49.29807-5.69714 50.89154-7.57219 52.485-9.42325 54.07848-11.24509 55.67195-13.03061 57.26543-14.77591 58.85889-16.4745 60.45236-18.11987 62.04584-19.70815 63.6393-21.23413 65.23277-22.6946 66.82622-24.08238 68.4197-25.39297 70.01315-26.62442 71.60663-27.77216 73.2001-28.8323 74.79358-29.80032 76.38704-30.67363 77.98051-31.45155 79.57399-32.13084 81.16747-32.70699 82.76093-33.17996 84.3544-33.54785 85.94788-33.81061 87.54135-33.96634 89.13481-34.01497 90.72829-33.95464 92.32176-33.78853 93.91524-33.51604 95.5087-33.13649 97.10217-32.65312 98.69565-32.06595 100.28912-31.37758 101.88255-30.59059 103.47603-29.7069 105.0695-28.72852 106.66296-27.65991 108.25644-26.5044 109.84991-25.26451 111.44339-23.94484 113.03685-22.54927 114.63033-21.08295 116.2238-19.54985 117.81728-17.9557 119.41074-16.30383 121.00421-14.60074 122.59769-12.85153 124.19116-11.06277 125.78462-9.23703 127.3781-7.3834 128.97158-5.50641 130.56505-3.61122 132.15851-1.7057 133.75199 .20435 135.34543 2.11507 136.9389 4.01933 138.53237 5.90997 140.12584 7.78307 141.71932 9.63087 143.31279 11.44884 144.90625 13.23045 146.49973 14.96991 148.0932 16.66264 149.68666 18.30217 151.28014 19.88397 152.87361 21.40347 154.46709 22.85486 156.06055 24.2342 157.65402 25.537 159.2475 26.75937 160.84098 27.89673 162.43444 28.9452 164.02791 29.90349 165.62139 30.76704 167.21486 31.53459 168.80832 32.20093 170.40177 32.76472 171.99524 33.22667 173.58872 33.58351 175.18218 33.83395 176.77565 33.9767 178.36913 34.01303 179.9626 33.94167 181.55606 33.76389 183.14954 33.47841 184.74301 33.08655 186.33647 32.59087 187.92995 31.9933 189.52342 31.29388 191.1169 30.49455 192.71036 29.59985 194.30384 28.61235 195.89731 27.53404 197.49079 26.3675 199.08425 25.11853 200.67772 23.79044 202.2712 22.38705 203.86464 20.91362 205.4581 19.37271 207.05158 17.77145 208.64505 16.11375 210.23853 14.40608 211.83199 12.65108 213.42546 10.85776 215.01894 9.02878 216.61241 7.17255 218.20587 5.2923 219.79935 3.3965 221.39282 1.48964 222.9863-.42041 224.57976-2.3305 226.17324-4.2341 227.76671-6.12277 229.36017-7.99327 230.95365-9.83849 232.54712-11.65256 234.1406-13.42963 235.73406-15.1639 237.32753-16.8508 238.92098-18.48448 240.51445-20.05914 242.10791-21.57088 240.89582-20.47281"/>
<path transform="matrix(-.7256,-.68803,-.68803,.7256,25.82042,75.99341)" d="M3.78581 0-2.27148 3.02866 0 0-2.27148-3.02866" fill="#7f807f"/>
<path transform="matrix(.74107,.67136,.67136,-.74107,417.0418,115.449817)" d="M3.78581 0-2.27148 3.02866 0 0-2.27148-3.02866" fill="#7f807f"/>
<use data-text="y" xlink:href="#font_1_4" transform="matrix(8.9664,0,0,-8.9664,34.996995,149.76001)" fill="#737373"/>
<use data-text="=" xlink:href="#font_3_13" transform="matrix(8.9664,0,0,-8.9664,43.346994,149.76001)" fill="#737373"/>
<use data-text="1" xlink:href="#font_3_5" transform="matrix(8.9664,0,0,-8.9664,55.353998,143.961)" fill="#737373"/>
<path transform="matrix(1,0,0,-1,-69.14901,126.787)" stroke-width=".3786" stroke-linecap="butt" stroke-miterlimit="10" stroke-linejoin="miter" fill="none" stroke="#737373" d="M124.503-20.731H129.808"/>
<use data-text="2" xlink:href="#font_3_6" transform="matrix(8.9664,0,0,-8.9664,55.35399,155.841)" fill="#737373"/>
<use data-text="c" xlink:href="#font_3_14" transform="matrix(8.9664,0,0,-8.9664,63.390985,149.76001)" fill="#737373"/>
<use data-text="o" xlink:href="#font_3_17" transform="matrix(8.9664,0,0,-8.9664,68.09835,149.76001)" fill="#737373"/>
<use data-text="s" xlink:href="#font_3_18" transform="matrix(8.9664,0,0,-8.9664,73.3975,149.76001)" fill="#737373"/>
<use data-text="2" xlink:href="#font_3_6" transform="matrix(8.9664,0,0,-8.9664,79.10909,149.76001)" fill="#737373"/>
<use data-text="x" xlink:href="#font_1_3" transform="matrix(8.9664,0,0,-8.9664,84.43699,149.76001)" fill="#737373"/>
<path transform="matrix(1,0,0,-1,176.146,94.977008)" stroke-width="1.59404" stroke-linecap="butt" stroke-dasharray="1.49442,1.49442" stroke-miterlimit="10" stroke-linejoin="miter" fill="none" stroke="#7f807f" d="M-150.32558-18.98361-151.4791-20.07732-149.88564-18.50397-148.29216-16.87027-146.69869-15.184-145.10523-13.44974-143.51175-11.67331-141.91828-9.85991-140.3248-8.0147-138.73137-6.14548-137.1379-4.25613-135.54442-2.35385-133.95095-.44312-132.35749 1.46692-130.764 3.37378-129.17053 5.2709-127.57706 7.14983-125.9836 9.00735-124.39012 10.83571-122.79665 12.6303-121.20317 14.38533-119.60971 16.09364-118.01624 17.75198-116.42276 19.3539-114.82928 20.89546-113.23582 22.37085-111.64235 23.7742-110.04887 25.1036-108.4554 26.35385-106.86194 27.52107-105.2685 28.60004-103.67502 29.58882-102.08156 30.48482-100.48808 31.28545-98.8946 31.98618-97.30113 32.58502-95.70767 33.08134-94.1142 33.47388-92.52072 33.76129-90.92725 33.94035-89.33379 34.01303-87.74031 33.97801-86.14684 33.83656-84.55336 33.58742-82.9599 33.23123-81.36642 32.77057-79.77295 32.20741-78.17947 31.54303-76.58601 30.7768-74.99254 29.91388-73.39906 28.95752-71.80559 27.90906-70.21216 26.773-68.61868 25.55128-67.0252 24.24977-65.43173 22.87173-63.83827 21.42097-62.2448 19.90279-60.65132 18.32098-59.05786 16.6821-57.46439 14.99002-55.87091 13.2512-54.27744 11.47025-52.68398 9.65228-51.0905 7.80449-49.49702 5.93266-47.90355 4.04141-46.31009 2.13779-44.71661 .22707-43.12314-1.68362-41.52966-3.58917-39.9362-5.48369-38.34273-7.36134-36.74925-9.21562-35.1558-11.04137-33.56235-12.83078-31.96887-14.57999-30.3754-16.28372-28.78192-17.93626-27.18846-19.5323-25.59499-21.06543-24.00151-22.5324-22.40805-23.92862-20.81458-25.24895-19.2211-26.48947-17.62762-27.64629-16.03416-28.71619-14.44069-29.69522-12.84721-30.58084-11.25374-31.3685-9.66028-32.05882-8.0668-32.646-6.47333-33.13194-4.87985-33.51216-3.28639-33.78596-1.69295-33.95334-.09947-34.01433 1.49396-33.9676 3.08742-33.8132 4.6809-33.55173 6.27437-33.18451 7.86784-32.71283 9.4613-32.138 11.05478-31.45999 12.64825-30.68336 14.24173-29.81136 15.83519-28.84465 17.42867-27.78514 19.02214-26.63869 20.6156-25.4079 22.20908-24.09796 23.80255-22.7108 25.39603-21.25232 26.98949-19.7263 28.58296-18.13867 30.17644-16.49394 31.76991-14.79602 33.36334-13.05138 34.95682-11.2665 36.5503-9.44531 38.14377-7.59427 39.73723-5.71921 41.3307-3.82664 42.92418-1.92175 44.51765-.01036 46.11111 1.89903 47.70459 3.80458 49.29807 5.69714 50.89154 7.57219 52.485 9.42325 54.07848 11.24509 55.67195 13.03061 57.26543 14.77591 58.85889 16.4745 60.45236 18.11987 62.04584 19.70815 63.6393 21.23413 65.23277 22.6946 66.82622 24.08238 68.4197 25.39297 70.01315 26.62442 71.60663 27.77216 73.2001 28.8323 74.79358 29.80032 76.38704 30.67363 77.98051 31.45155 79.57399 32.13084 81.16747 32.70699 82.76093 33.17996 84.3544 33.54785 85.94788 33.81061 87.54135 33.96634 89.13481 34.01497 90.72829 33.95464 92.32176 33.78853 93.91524 33.51604 95.5087 33.13649 97.10217 32.65312 98.69565 32.06595 100.28912 31.37758 101.88255 30.59059 103.47603 29.7069 105.0695 28.72852 106.66296 27.65991 108.25644 26.5044 109.84991 25.26451 111.44339 23.94484 113.03685 22.54927 114.63033 21.08295 116.2238 19.54985 117.81728 17.9557 119.41074 16.30383 121.00421 14.60074 122.59769 12.85153 124.19116 11.06277 125.78462 9.23703 127.3781 7.3834 128.97158 5.50641 130.56505 3.61122 132.15851 1.7057 133.75199-.20435 135.34543-2.11507 136.9389-4.01933 138.53237-5.90997 140.12584-7.78307 141.71932-9.63087 143.31279-11.44884 144.90625-13.23045 146.49973-14.96991 148.0932-16.66264 149.68666-18.30217 151.28014-19.88397 152.87361-21.40347 154.46709-22.85486 156.06055-24.2342 157.65402-25.537 159.2475-26.75937 160.84098-27.89673 162.43444-28.9452 164.02791-29.90349 165.62139-30.76704 167.21486-31.53459 168.80832-32.20093 170.40177-32.76472 171.99524-33.22667 173.58872-33.58351 175.18218-33.83395 176.77565-33.9767 178.36913-34.01303 179.9626-33.94167 181.55606-33.76389 183.14954-33.47841 184.74301-33.08655 186.33647-32.59087 187.92995-31.9933 189.52342-31.29388 191.1169-30.49455 192.71036-29.59985 194.30384-28.61235 195.89731-27.53404 197.49079-26.3675 199.08425-25.11853 200.67772-23.79044 202.2712-22.38705 203.86464-20.91362 205.4581-19.37271 207.05158-17.77145 208.64505-16.11375 210.23853-14.40608 211.83199-12.65108 213.42546-10.85776 215.01894-9.02878 216.61241-7.17255 218.20587-5.2923 219.79935-3.3965 221.39282-1.48964 222.9863 .42041 224.57976 2.3305 226.17324 4.2341 227.76671 6.12277 229.36017 7.99327 230.95365 9.83849 232.54712 11.65256 234.1406 13.42963 235.73406 15.1639 237.32753 16.8508 238.92098 18.48448 240.51445 20.05914 242.10791 21.57088 240.89582 20.47281"/>
<path transform="matrix(-.7256,.68803,.68803,.7256,25.82042,113.9606)" d="M3.78581 0-2.27148 3.02866 0 0-2.27148-3.02866" fill="#7f807f"/>
<path transform="matrix(.74107,-.67136,-.67136,-.74107,417.0418,74.504199)" d="M3.78581 0-2.27148 3.02866 0 0-2.27148-3.02866" fill="#7f807f"/>
<use data-text="y" xlink:href="#font_1_4" transform="matrix(8.9664,0,0,-8.9664,30.871003,45.690008)" fill="#737373"/>
<use data-text="=" xlink:href="#font_3_13" transform="matrix(8.9664,0,0,-8.9664,39.221,45.690008)" fill="#737373"/>
<use data-text="&#x2212;" xlink:href="#font_4_1" transform="matrix(8.9664,0,0,-8.9664,50.032999,45.690008)" fill="#737373"/>
<use data-text="1" xlink:href="#font_3_5" transform="matrix(8.9664,0,0,-8.9664,59.480997,39.891008)" fill="#737373"/>
<path transform="matrix(1,0,0,-1,-73.275,22.717007)" stroke-width=".3786" stroke-linecap="butt" stroke-miterlimit="10" stroke-linejoin="miter" fill="none" stroke="#737373" d="M132.756-20.731H138.061"/>
<use data-text="2" xlink:href="#font_3_6" transform="matrix(8.9664,0,0,-8.9664,59.480997,51.771009)" fill="#737373"/>
<use data-text="c" xlink:href="#font_3_14" transform="matrix(8.9664,0,0,-8.9664,67.51699,45.69001)" fill="#737373"/>
<use data-text="o" xlink:href="#font_3_17" transform="matrix(8.9664,0,0,-8.9664,72.22436,45.69001)" fill="#737373"/>
<use data-text="s" xlink:href="#font_3_18" transform="matrix(8.9664,0,0,-8.9664,77.523509,45.69001)" fill="#737373"/>
<use data-text="2" xlink:href="#font_3_6" transform="matrix(8.9664,0,0,-8.9664,83.2351,45.69001)" fill="#737373"/>
<use data-text="x" xlink:href="#font_1_3" transform="matrix(8.9664,0,0,-8.9664,88.56399,45.69001)" fill="#737373"/>
<path transform="matrix(1,0,0,-1,176.146,94.977008)" d="M1.69069 34.01628C1.69069 34.95003 .93375 35.70697 0 35.70697-.93375 35.70697-1.69069 34.95003-1.69069 34.01628-1.69069 33.08252-.93375 32.32558 0 32.32558 .93375 32.32558 1.69069 33.08252 1.69069 34.01628ZM0 34.01628"/>
<path transform="matrix(1,0,0,-1,176.146,94.977008)" stroke-width=".3985" stroke-linecap="butt" stroke-miterlimit="10" stroke-linejoin="miter" fill="none" stroke="#ffffff" d="M1.69069 34.01628C1.69069 34.95003 .93375 35.70697 0 35.70697-.93375 35.70697-1.69069 34.95003-1.69069 34.01628-1.69069 33.08252-.93375 32.32558 0 32.32558 .93375 32.32558 1.69069 33.08252 1.69069 34.01628ZM0 34.01628"/>
<path transform="matrix(1,0,0,-1,176.146,94.977008)" d="M1.69069-34.01628C1.69069-33.08252 .93375-32.32558 0-32.32558-.93375-32.32558-1.69069-33.08252-1.69069-34.01628-1.69069-34.95003-.93375-35.70697 0-35.70697 .93375-35.70697 1.69069-34.95003 1.69069-34.01628ZM0-34.01628"/>
<path transform="matrix(1,0,0,-1,176.146,94.977008)" stroke-width=".3985" stroke-linecap="butt" stroke-miterlimit="10" stroke-linejoin="miter" fill="none" stroke="#ffffff" d="M1.69069-34.01628C1.69069-33.08252 .93375-32.32558 0-32.32558-.93375-32.32558-1.69069-33.08252-1.69069-34.01628-1.69069-34.95003-.93375-35.70697 0-35.70697 .93375-35.70697 1.69069-34.95003 1.69069-34.01628ZM0-34.01628"/>
<path transform="matrix(1,0,0,-1,176.146,94.977008)" d="M-42.83562 0C-42.83562 .93375-43.59256 1.69069-44.5263 1.69069-45.46007 1.69069-46.21701 .93375-46.21701 0-46.21701-.93375-45.46007-1.69069-44.5263-1.69069-43.59256-1.69069-42.83562-.93375-42.83562 0ZM-44.5263 0"/>
<path transform="matrix(1,0,0,-1,176.146,94.977008)" stroke-width=".3985" stroke-linecap="butt" stroke-miterlimit="10" stroke-linejoin="miter" fill="none" stroke="#ffffff" d="M-42.83562 0C-42.83562 .93375-43.59256 1.69069-44.5263 1.69069-45.46007 1.69069-46.21701 .93375-46.21701 0-46.21701-.93375-45.46007-1.69069-44.5263-1.69069-43.59256-1.69069-42.83562-.93375-42.83562 0ZM-44.5263 0"/>
<use data-text="(" xlink:href="#font_5_1" transform="matrix(7.9701,0,0,-7.9701,86.897998,107.589008)"/>
<use data-text="&#x2212;" xlink:href="#font_6_1" transform="matrix(7.9701,0,0,-7.9701,90.69499,107.589008)"/>
<use data-text="&#x03c0;" xlink:href="#font_7_1" transform="matrix(7.9701,0,0,-7.9701,99.48499,102.039)"/>
<path transform="matrix(1,0,0,-1,-17.248009,84.616008)" stroke-width=".3587" stroke-linecap="butt" stroke-miterlimit="10" stroke-linejoin="miter" fill="none" stroke="#000000" d="M116.733-20.98H122.846"/>
<use data-text="4" xlink:href="#font_5_8" transform="matrix(7.9701,0,0,-7.9701,100.09999,113.559009)"/>
<use data-text="," xlink:href="#font_7_3" transform="matrix(7.9701,0,0,-7.9701,106.79299,107.589008)"/>
<use data-text="0" xlink:href="#font_5_4" transform="matrix(7.9701,0,0,-7.9701,110.916988,107.589008)"/>
<use data-text=")" xlink:href="#font_5_2" transform="matrix(7.9701,0,0,-7.9701,115.794689,107.589008)"/>
<path transform="matrix(1,0,0,-1,176.146,94.977008)" d="M46.21701 0C46.21701 .93375 45.46007 1.69069 44.5263 1.69069 43.59256 1.69069 42.83562 .93375 42.83562 0 42.83562-.93375 43.59256-1.69069 44.5263-1.69069 45.46007-1.69069 46.21701-.93375 46.21701 0ZM44.5263 0"/>
<path transform="matrix(1,0,0,-1,176.146,94.977008)" stroke-width=".3985" stroke-linecap="butt" stroke-miterlimit="10" stroke-linejoin="miter" fill="none" stroke="#ffffff" d="M46.21701 0C46.21701 .93375 45.46007 1.69069 44.5263 1.69069 43.59256 1.69069 42.83562 .93375 42.83562 0 42.83562-.93375 43.59256-1.69069 44.5263-1.69069 45.46007-1.69069 46.21701-.93375 46.21701 0ZM44.5263 0"/>
<use data-text="(" xlink:href="#font_5_1" transform="matrix(7.9701,0,0,-7.9701,183.545,107.589008)"/>
<use data-text="&#x03c0;" xlink:href="#font_7_1" transform="matrix(7.9701,0,0,-7.9701,188.538,102.039)"/>
<path transform="matrix(1,0,0,-1,79.398998,84.616008)" stroke-width=".3587" stroke-linecap="butt" stroke-miterlimit="10" stroke-linejoin="miter" fill="none" stroke="#000000" d="M109.139-20.98H115.252"/>
<use data-text="4" xlink:href="#font_5_8" transform="matrix(7.9701,0,0,-7.9701,189.15399,113.559009)"/>
<use data-text="," xlink:href="#font_7_3" transform="matrix(7.9701,0,0,-7.9701,195.84699,107.589008)"/>
<use data-text="0" xlink:href="#font_5_4" transform="matrix(7.9701,0,0,-7.9701,199.97,107.589008)"/>
<use data-text=")" xlink:href="#font_5_2" transform="matrix(7.9701,0,0,-7.9701,204.84769,107.589008)"/>
<path transform="matrix(1,0,0,-1,176.146,94.977008)" d="M135.2714 0C135.2714 .93375 134.51444 1.69069 133.58069 1.69069 132.64694 1.69069 131.88999 .93375 131.88999 0 131.88999-.93375 132.64694-1.69069 133.58069-1.69069 134.51444-1.69069 135.2714-.93375 135.2714 0ZM133.58069 0"/>
<path transform="matrix(1,0,0,-1,176.146,94.977008)" stroke-width=".3985" stroke-linecap="butt" stroke-miterlimit="10" stroke-linejoin="miter" fill="none" stroke="#ffffff" d="M135.2714 0C135.2714 .93375 134.51444 1.69069 133.58069 1.69069 132.64694 1.69069 131.88999 .93375 131.88999 0 131.88999-.93375 132.64694-1.69069 133.58069-1.69069 134.51444-1.69069 135.2714-.93375 135.2714 0ZM133.58069 0"/>
<use data-text="(" xlink:href="#font_5_1" transform="matrix(7.9701,0,0,-7.9701,267.71699,109.18301)"/>
<use data-text="3" xlink:href="#font_5_7" transform="matrix(7.9701,0,0,-7.9701,272.71,103.63301)"/>
<use data-text="&#x03c0;" xlink:href="#font_7_1" transform="matrix(7.9701,0,0,-7.9701,277.59199,103.63301)"/>
<path transform="matrix(1,0,0,-1,163.57099,86.21001)" stroke-width=".3587" stroke-linecap="butt" stroke-miterlimit="10" stroke-linejoin="miter" fill="none" stroke="#000000" d="M109.139-20.98H120.134"/>
<use data-text="4" xlink:href="#font_5_8" transform="matrix(7.9701,0,0,-7.9701,275.766,115.15301)"/>
<use data-text="," xlink:href="#font_7_3" transform="matrix(7.9701,0,0,-7.9701,284.9,109.18301)"/>
<use data-text="0" xlink:href="#font_5_4" transform="matrix(7.9701,0,0,-7.9701,289.024,109.18301)"/>
<use data-text=")" xlink:href="#font_5_2" transform="matrix(7.9701,0,0,-7.9701,293.90168,109.18301)"/>
<path transform="matrix(1,0,0,-1,176.146,94.977008)" d="M90.74419 34.01628C90.74419 34.95003 89.98724 35.70697 89.05348 35.70697 88.11974 35.70697 87.36278 34.95003 87.36278 34.01628 87.36278 33.08252 88.11974 32.32558 89.05348 32.32558 89.98724 32.32558 90.74419 33.08252 90.74419 34.01628ZM89.05348 34.01628"/>
<path transform="matrix(1,0,0,-1,176.146,94.977008)" stroke-width=".3985" stroke-linecap="butt" stroke-miterlimit="10" stroke-linejoin="miter" fill="none" stroke="#ffffff" d="M90.74419 34.01628C90.74419 34.95003 89.98724 35.70697 89.05348 35.70697 88.11974 35.70697 87.36278 34.95003 87.36278 34.01628 87.36278 33.08252 88.11974 32.32558 89.05348 32.32558 89.98724 32.32558 90.74419 33.08252 90.74419 34.01628ZM89.05348 34.01628"/>
<path transform="matrix(1,0,0,-1,176.146,94.977008)" d="M90.74419-34.01628C90.74419-33.08252 89.98724-32.32558 89.05348-32.32558 88.11974-32.32558 87.36278-33.08252 87.36278-34.01628 87.36278-34.95003 88.11974-35.70697 89.05348-35.70697 89.98724-35.70697 90.74419-34.95003 90.74419-34.01628ZM89.05348-34.01628"/>
<path transform="matrix(1,0,0,-1,176.146,94.977008)" stroke-width=".3985" stroke-linecap="butt" stroke-miterlimit="10" stroke-linejoin="miter" fill="none" stroke="#ffffff" d="M90.74419-34.01628C90.74419-33.08252 89.98724-32.32558 89.05348-32.32558 88.11974-32.32558 87.36278-33.08252 87.36278-34.01628 87.36278-34.95003 88.11974-35.70697 89.05348-35.70697 89.98724-35.70697 90.74419-34.95003 90.74419-34.01628ZM89.05348-34.01628"/>
<path transform="matrix(1,0,0,-1,176.146,94.977008)" d="M179.7986 34.01628C179.7986 34.95003 179.04164 35.70697 178.1079 35.70697 177.17414 35.70697 176.41719 34.95003 176.41719 34.01628 176.41719 33.08252 177.17414 32.32558 178.1079 32.32558 179.04164 32.32558 179.7986 33.08252 179.7986 34.01628ZM178.1079 34.01628"/>
<path transform="matrix(1,0,0,-1,176.146,94.977008)" stroke-width=".3985" stroke-linecap="butt" stroke-miterlimit="10" stroke-linejoin="miter" fill="none" stroke="#ffffff" d="M179.7986 34.01628C179.7986 34.95003 179.04164 35.70697 178.1079 35.70697 177.17414 35.70697 176.41719 34.95003 176.41719 34.01628 176.41719 33.08252 177.17414 32.32558 178.1079 32.32558 179.04164 32.32558 179.7986 33.08252 179.7986 34.01628ZM178.1079 34.01628"/>
<path transform="matrix(1,0,0,-1,176.146,94.977008)" d="M179.7986-34.01628C179.7986-33.08252 179.04164-32.32558 178.1079-32.32558 177.17414-32.32558 176.41719-33.08252 176.41719-34.01628 176.41719-34.95003 177.17414-35.70697 178.1079-35.70697 179.04164-35.70697 179.7986-34.95003 179.7986-34.01628ZM178.1079-34.01628"/>
<path transform="matrix(1,0,0,-1,176.146,94.977008)" stroke-width=".3985" stroke-linecap="butt" stroke-miterlimit="10" stroke-linejoin="miter" fill="none" stroke="#ffffff" d="M179.7986-34.01628C179.7986-33.08252 179.04164-32.32558 178.1079-32.32558 177.17414-32.32558 176.41719-33.08252 176.41719-34.01628 176.41719-34.95003 177.17414-35.70697 178.1079-35.70697 179.04164-35.70697 179.7986-34.95003 179.7986-34.01628ZM178.1079-34.01628"/>
<use data-text="(" xlink:href="#font_5_1" transform="matrix(7.9701,0,0,-7.9701,150.17099,50.053007)"/>
<use data-text="0" xlink:href="#font_5_4" transform="matrix(7.9701,0,0,-7.9701,153.96477,50.053007)"/>
<use data-text="," xlink:href="#font_7_3" transform="matrix(7.9701,0,0,-7.9701,158.85,50.053007)"/>
<use data-text="1" xlink:href="#font_5_5" transform="matrix(7.9701,0,0,-7.9701,164.169,44.503007)"/>
<path transform="matrix(1,0,0,-1,46.024995,27.080006)" stroke-width=".3587" stroke-linecap="butt" stroke-miterlimit="10" stroke-linejoin="miter" fill="none" stroke="#000000" d="M118.144-20.98H123.026"/>
<use data-text="2" xlink:href="#font_5_6" transform="matrix(7.9701,0,0,-7.9701,164.16899,56.023008)"/>
<use data-text=")" xlink:href="#font_5_2" transform="matrix(7.9701,0,0,-7.9701,170.246,50.05301)"/>
<use data-text="(" xlink:href="#font_5_1" transform="matrix(7.9701,0,0,-7.9701,142.578,144.617)"/>
<use data-text="0" xlink:href="#font_5_4" transform="matrix(7.9701,0,0,-7.9701,146.37177,144.617)"/>
<use data-text="," xlink:href="#font_7_3" transform="matrix(7.9701,0,0,-7.9701,151.25699,144.617)"/>
<use data-text="&#x2212;" xlink:href="#font_6_1" transform="matrix(7.9701,0,0,-7.9701,155.381,144.617)"/>
<use data-text="1" xlink:href="#font_5_5" transform="matrix(7.9701,0,0,-7.9701,164.17,139.067)"/>
<path transform="matrix(1,0,0,-1,38.43199,121.644008)" stroke-width=".3587" stroke-linecap="butt" stroke-miterlimit="10" stroke-linejoin="miter" fill="none" stroke="#000000" d="M125.738-20.98H130.62"/>
<use data-text="2" xlink:href="#font_5_6" transform="matrix(7.9701,0,0,-7.9701,164.16999,150.587)"/>
<use data-text=")" xlink:href="#font_5_2" transform="matrix(7.9701,0,0,-7.9701,170.247,144.617)"/>
<use data-text="(" xlink:href="#font_5_1" transform="matrix(7.9701,0,0,-7.9701,251.452,75.16301)"/>
<use data-text="&#x03c0;" xlink:href="#font_7_1" transform="matrix(7.9701,0,0,-7.9701,256.445,69.61301)"/>
<path transform="matrix(1,0,0,-1,147.306,52.190008)" stroke-width=".3587" stroke-linecap="butt" stroke-miterlimit="10" stroke-linejoin="miter" fill="none" stroke="#000000" d="M109.139-20.98H115.252"/>
<use data-text="2" xlink:href="#font_5_6" transform="matrix(7.9701,0,0,-7.9701,257.061,81.13301)"/>
<use data-text="," xlink:href="#font_7_3" transform="matrix(7.9701,0,0,-7.9701,263.754,75.16301)"/>
<use data-text="1" xlink:href="#font_5_5" transform="matrix(7.9701,0,0,-7.9701,269.073,69.61301)"/>
<path transform="matrix(1,0,0,-1,147.306,52.190008)" stroke-width=".3587" stroke-linecap="butt" stroke-miterlimit="10" stroke-linejoin="miter" fill="none" stroke="#000000" d="M121.767-20.98H126.648"/>
<use data-text="2" xlink:href="#font_5_6" transform="matrix(7.9701,0,0,-7.9701,269.073,81.13301)"/>
<use data-text=")" xlink:href="#font_5_2" transform="matrix(7.9701,0,0,-7.9701,275.15,75.16301)"/>
<use data-text="(" xlink:href="#font_5_1" transform="matrix(7.9701,0,0,-7.9701,247.655,143.20401)"/>
<use data-text="&#x03c0;" xlink:href="#font_7_1" transform="matrix(7.9701,0,0,-7.9701,252.64801,137.654)"/>
<path transform="matrix(1,0,0,-1,143.509,120.231)" stroke-width=".3587" stroke-linecap="butt" stroke-miterlimit="10" stroke-linejoin="miter" fill="none" stroke="#000000" d="M109.139-20.98H115.252"/>
<use data-text="2" xlink:href="#font_5_6" transform="matrix(7.9701,0,0,-7.9701,253.264,149.17401)"/>
<use data-text="," xlink:href="#font_7_3" transform="matrix(7.9701,0,0,-7.9701,259.957,143.20401)"/>
<use data-text="&#x2212;" xlink:href="#font_6_1" transform="matrix(7.9701,0,0,-7.9701,264.08003,143.20401)"/>
<use data-text="1" xlink:href="#font_5_5" transform="matrix(7.9701,0,0,-7.9701,272.86903,137.654)"/>
<path transform="matrix(1,0,0,-1,143.509,120.231)" stroke-width=".3587" stroke-linecap="butt" stroke-miterlimit="10" stroke-linejoin="miter" fill="none" stroke="#000000" d="M129.36-20.98H134.242"/>
<use data-text="2" xlink:href="#font_5_6" transform="matrix(7.9701,0,0,-7.9701,272.86903,149.17401)"/>
<use data-text=")" xlink:href="#font_5_2" transform="matrix(7.9701,0,0,-7.9701,278.94703,143.20401)"/>
<use data-text="(" xlink:href="#font_5_1" transform="matrix(7.9701,0,0,-7.9701,341.702,75.16301)"/>
<use data-text="&#x03c0;" xlink:href="#font_7_1" transform="matrix(7.9701,0,0,-7.9701,345.499,75.16301)"/>
<use data-text="," xlink:href="#font_7_3" transform="matrix(7.9701,0,0,-7.9701,351.61207,75.16301)"/>
<use data-text="1" xlink:href="#font_5_5" transform="matrix(7.9701,0,0,-7.9701,356.932,69.61301)"/>
<path transform="matrix(1,0,0,-1,237.556,52.190008)" stroke-width=".3587" stroke-linecap="butt" stroke-miterlimit="10" stroke-linejoin="miter" fill="none" stroke="#000000" d="M119.376-20.98H124.257"/>
<use data-text="2" xlink:href="#font_5_6" transform="matrix(7.9701,0,0,-7.9701,356.932,81.13301)"/>
<use data-text=")" xlink:href="#font_5_2" transform="matrix(7.9701,0,0,-7.9701,363.009,75.16301)"/>
<use data-text="(" xlink:href="#font_5_1" transform="matrix(7.9701,0,0,-7.9701,337.905,143.20401)"/>
<use data-text="&#x03c0;" xlink:href="#font_7_1" transform="matrix(7.9701,0,0,-7.9701,341.702,143.20401)"/>
<use data-text="," xlink:href="#font_7_3" transform="matrix(7.9701,0,0,-7.9701,347.81507,143.20401)"/>
<use data-text="&#x2212;" xlink:href="#font_6_1" transform="matrix(7.9701,0,0,-7.9701,351.939,143.20401)"/>
<use data-text="1" xlink:href="#font_5_5" transform="matrix(7.9701,0,0,-7.9701,360.728,137.654)"/>
<path transform="matrix(1,0,0,-1,233.759,120.231)" stroke-width=".3587" stroke-linecap="butt" stroke-miterlimit="10" stroke-linejoin="miter" fill="none" stroke="#000000" d="M126.969-20.98H131.851"/>
<use data-text="2" xlink:href="#font_5_6" transform="matrix(7.9701,0,0,-7.9701,360.728,149.17401)"/>
<use data-text=")" xlink:href="#font_5_2" transform="matrix(7.9701,0,0,-7.9701,366.806,143.20401)"/>
<path transform="matrix(1,0,0,-1,176.146,94.977008)" stroke-width=".79701" stroke-linecap="butt" stroke-miterlimit="10" stroke-linejoin="miter" fill="none" stroke="#000000" d="M.59775 46.77248H177.51013"/>
<path transform="matrix(-1,-0,0,1,181.60547,48.204526)" d="M4.66248 0C3.28098 .25902 1.0361 1.0361-.51805 1.94269V-1.94269C1.0361-1.0361 3.28098-.25902 4.66248 0"/>
<path transform="matrix(-1,-0,0,1,176.5445,48.204526)" stroke-width=".79701" stroke-linecap="butt" stroke-miterlimit="10" stroke-linejoin="miter" fill="none" stroke="#000000" d="M0 3.08846V-3.08846"/>
<path transform="matrix(1,0,0,-1,348.7944,48.204526)" d="M4.66248 0C3.28098 .25902 1.0361 1.0361-.51805 1.94269V-1.94269C1.0361-1.0361 3.28098-.25902 4.66248 0"/>
<path transform="matrix(1,0,0,-1,353.85539,48.204526)" stroke-width=".79701" stroke-linecap="butt" stroke-miterlimit="10" stroke-linejoin="miter" fill="none" stroke="#000000" d="M0 3.08846V-3.08846"/>
<path transform="matrix(1,0,0,-1,176.146,94.977008)" d="M65.9431 40.85461H112.164768V52.69035H65.9431Z" fill="#ffffff"/>
<use data-text="p" xlink:href="#font_8_84" transform="matrix(9.9626,0,0,-9.9626,243.58399,50.695005)"/>
<use data-text="e" xlink:href="#font_8_50" transform="matrix(9.9626,0,0,-9.9626,250.26889,50.695005)"/>
<use data-text="r" xlink:href="#font_8_96" transform="matrix(9.9626,0,0,-9.9626,255.5192,50.695005)"/>
<use data-text="i" xlink:href="#font_8_66" transform="matrix(9.9626,0,0,-9.9626,260.24147,50.695005)"/>
<use data-text="o" xlink:href="#font_8_81" transform="matrix(9.9626,0,0,-9.9626,263.41954,50.695005)"/>
<use data-text="d" xlink:href="#font_8_47" transform="matrix(9.9626,0,0,-9.9626,269.46684,50.695005)"/>
<use data-text="&#x03c0;" xlink:href="#font_9_1" transform="matrix(9.9626,0,0,-9.9626,279.649,50.695005)"/>
<path transform="matrix(1,0,0,-1,176.146,94.977008)" stroke-width=".3985" stroke-linecap="butt" stroke-miterlimit="10" stroke-linejoin="miter" fill="none" stroke="#000000" d="M-87.87527 .29886V33.7174"/>
<path transform="matrix(0,1,1,0,88.27073,92.58598)" d="M1.99252 0-1.19551 1.59401 0 0-1.19551-1.59401"/>
<path transform="matrix(0,1,1,0,88.27073,94.777759)" stroke-width=".3985" stroke-linecap="butt" stroke-miterlimit="10" stroke-linejoin="miter" fill="none" stroke="#000000" d="M0 2.29141V-2.29141"/>
<path transform="matrix(0,-1,-1,-0,88.27073,63.351766)" d="M1.99252 0-1.19551 1.59401 0 0-1.19551-1.59401"/>
<path transform="matrix(0,-1,-1,-0,88.27073,61.159986)" stroke-width=".3985" stroke-linecap="butt" stroke-miterlimit="10" stroke-linejoin="miter" fill="none" stroke="#000000" d="M0 2.29141V-2.29141"/>
<use data-text="a" xlink:href="#font_10_28" transform="matrix(7.9701,0,0,-7.9701,61.948999,84.213008)"/>
<use data-text="m" xlink:href="#font_10_75" transform="matrix(7.9701,0,0,-7.9701,66.69918,84.213008)"/>
<use data-text="p" xlink:href="#font_10_84" transform="matrix(7.9701,0,0,-7.9701,74.836658,84.213008)"/>
<use data-text="l" xlink:href="#font_10_72" transform="matrix(7.9701,0,0,-7.9701,80.26429,84.213008)"/>
<use data-text="i" xlink:href="#font_10_66" transform="matrix(7.9701,0,0,-7.9701,82.97412,84.213008)"/>
<use data-text="t" xlink:href="#font_10_105" transform="matrix(7.9701,0,0,-7.9701,85.68395,84.213008)"/>
<use data-text="u" xlink:href="#font_10_109" transform="matrix(7.9701,0,0,-7.9701,89.47772,84.213008)"/>
<use data-text="d" xlink:href="#font_10_47" transform="matrix(7.9701,0,0,-7.9701,94.905368,84.213008)"/>
<use data-text="e" xlink:href="#font_10_50" transform="matrix(7.9701,0,0,-7.9701,100.33301,84.213008)"/>
<use data-text="1" xlink:href="#font_11_1" transform="matrix(5.9776,0,0,-5.9776,109.252,80.954)"/>
<path transform="matrix(1,0,0,-1,-42.197008,61.240007)" stroke-width=".3587" stroke-linecap="butt" stroke-miterlimit="10" stroke-linejoin="miter" fill="none" stroke="#000000" d="M151.449-20.98H155.595"/>
<use data-text="2" xlink:href="#font_11_2" transform="matrix(5.9776,0,0,-5.9776,109.252,87.338008)"/>
</svg>
