<svg style="overflow: visible;" xmlns="http://www.w3.org/2000/svg" xmlns:xlink="http://www.w3.org/1999/xlink" xmlns:inkscape="http://www.inkscape.org/namespaces/inkscape" version="1.1" width="100%" height="100%" viewBox="0 0 569.59 251.91">
<defs>
<path id="font_1_7" d="M.5359955 .4011383C.5 .3911438 .48199464 .35714723 .48199464 .33215333 .48199464 .31015016 .49899293 .28614808 .5319977 .28614808 .5669861 .28614808 .60398867 .31515504 .60398867 .364151 .60398867 .41714479 .5509949 .45214845 .48999024 .45214845 .43299867 .45214845 .3959961 .4091339 .3829956 .3911438 .35798646 .433136 .3019867 .45214845 .24499512 .45214845 .11898804 .45214845 .050994874 .32914735 .050994874 .29615785 .050994874 .28215028 .06599426 .28215028 .07499695 .28215028 .08699036 .28215028 .09399414 .28215028 .09799194 .29515077 .1269989 .38613893 .19898987 .4161377 .23999024 .4161377 .27799989 .4161377 .29599 .39814759 .29599 .3661499 .29599 .3471527 .28199769 .29216004 .272995 .2561493L.23899842 .11917114C.22399903 .058181764 .18798828 .028182984 .1539917 .028182984 .14898682 .028182984 .12599182 .028182984 .10598755 .043182374 .14199829 .05317688 .1599884 .08717346 .1599884 .11216736 .1599884 .13417053 .14299011 .1581726 .10998535 .1581726 .07499695 .1581726 .037994386 .12916565 .037994386 .08016968 .037994386 .027175904 .09098816-.0078125 .1519928-.0078125 .20899964-.0078125 .24598694 .035186769 .25898744 .05317688 .28399659 .011184692 .33999635-.0078125 .39698792-.0078125 .522995-.0078125 .59098818 .11517334 .59098818 .14816284 .59098818 .16217041 .57598879 .16217041 .5669861 .16217041 .5549927 .16217041 .5479889 .16217041 .5439911 .14916992 .5149994 .058181764 .44299317 .028182984 .4019928 .028182984 .3639984 .028182984 .34599305 .046173097 .34599305 .07817078 .34599305 .09916687 .35899354 .15216065 .36799623 .18916321 .375 .21516419 .397995 .30915834 .40299989 .32514955 .41799928 .3851471 .45298768 .4161377 .48799134 .4161377 .49299623 .4161377 .5159912 .4161377 .5359955 .4011383Z"/>
<path id="font_1_8" d="M.57699587 .3771515C.58200076 .3951416 .58200076 .3971405 .58200076 .40014649 .58200076 .4221344 .56599429 .44413758 .5349884 .44413758 .48298646 .44413758 .47099305 .3971405 .46398927 .3701477L.43798829 .26615907C.42599488 .2181549 .40699769 .14117432 .3959961 .10017395 .3909912 .07817078 .3600006 .05418396 .35699464 .05218506 .34599305 .045181276 .32199098 .028182984 .2889862 .028182984 .22999573 .028182984 .22898865 .07817078 .22898865 .10116577 .22898865 .16217041 .2599945 .24015808 .28799439 .31214906 .2979889 .33815003 .30099488 .3451538 .30099488 .3621521 .30099488 .4201355 .24299622 .45214845 .18798828 .45214845 .08198547 .45214845 .03199768 .31614686 .03199768 .29615785 .03199768 .28215028 .04699707 .28215028 .055999757 .28215028 .067993167 .28215028 .07499695 .28215028 .07899475 .29515077 .11199951 .4061432 .16699219 .4161377 .18199158 .4161377 .18899536 .4161377 .19898987 .4161377 .19898987 .3951416 .19898987 .3721466 .18798828 .34614564 .18199158 .33015443 .14299011 .23016358 .12199402 .173172 .12199402 .122177127 .12199402 .008178711 .22200012-.0078125 .2809906-.0078125 .30599977-.0078125 .33999635-.0038146973 .3769989 .02218628 .34899903-.10101318 .27398683-.16615296 .20498657-.16615296 .19198609-.16615296 .1639862-.16415406 .14399719-.15213013 .17599488-.13909912 .19198609-.11204529 .19198609-.0849762 .19198609-.04890442 .16299439-.038879396 .14299011-.038879396 .10598755-.038879396 .070999149-.07095337 .070999149-.11505127 .070999149-.16615296 .12399292-.20214844 .20498657-.20214844 .31999208-.20214844 .45199586-.12506104 .48298646-.0008239746L.57699587 .3771515Z"/>
<path id="font_2_1" d="M.47299195 .31976319C.47299195 .38682557 .46998597 .47288514 .43499757 .5479431 .3909912 .64201357 .31498719 .6660156 .25698854 .6660156 .19699097 .6660156 .12098694 .64201357 .07699585 .5459442 .04499817 .47688294 .039993287 .39582826 .039993287 .31976319 .039993287 .25471498 .041992189 .15765381 .084991458 .07858276 .13198853-.0064697267 .20999146-.022460938 .2559967-.022460938 .32099916-.022460938 .394989 .0055389406 .43699647 .097595218 .46699525 .1646576 .47299195 .23971558 .47299195 .31976319M.25698854 .002532959C.22698975 .002532959 .15499878 .016540528 .13598633 .12962342 .12599182 .18867493 .12599182 .2747345 .12599182 .33177186 .12599182 .39982606 .12599182 .47888185 .13798523 .53393557 .1579895 .6230011 .22200012 .64100649 .2559967 .64100649 .2939911 .64100649 .35699464 .62098696 .37599183 .5279236 .3869934 .47288514 .3869934 .39482118 .3869934 .33177186 .3869934 .2697296 .3869934 .18566895 .3769989 .12661743 .35598756 .012542725 .28199769 .002532959 .25698854 .002532959Z"/>
<path id="font_3_64" d="M.27598573 .18710327V.24511719H.010986328V.18710327H.27598573Z"/>
<path id="font_3_106" d="M.45700074 .17037964C.45700074 .252594 .3939972 .33088685 .2899933 .35191346 .37199403 .37893678 .42999269 .4490509 .42999269 .52809146 .42999269 .6100464 .34199525 .6660156 .24598694 .6660156 .14498902 .6660156 .068984989 .60606387 .068984989 .53009036 .068984989 .49710084 .09098816 .47808839 .11999512 .47808839 .15098572 .47808839 .17098999 .50009158 .17098999 .5290985 .17098999 .57910159 .12399292 .57910159 .10899353 .57910159 .13999939 .62802127 .20599365 .64100649 .24198914 .64100649 .2829895 .64100649 .33799745 .6190338 .33799745 .5290985 .33799745 .51708987 .33599855 .45906068 .30999757 .4149933 .27999879 .36691285 .24598694 .36390687 .22099304 .36291505 .21299744 .36190797 .18899536 .35990907 .18199158 .35990907 .17399597 .35890199 .16699219 .35791017 .16699219 .3479004 .16699219 .33691407 .17399597 .33691407 .19099427 .33691407H.23498535C.31698609 .33691407 .35398866 .2686615 .35398866 .17037964 .35398866 .034469606 .2849884 .0055389406 .24099732 .0055389406 .19799805 .0055389406 .12298584 .022491456 .08799744 .08137512 .12298584 .07637024 .1539917 .09837341 .1539917 .1363678 .1539917 .17237854 .1269989 .19238281 .09799194 .19238281 .07398987 .19238281 .041992189 .17837525 .041992189 .1343689 .041992189 .043441774 .1349945-.022460938 .24398804-.022460938 .3659973-.022460938 .45700074 .06838989 .45700074 .17037964Z"/>
<path id="font_3_107" d="M.44898988 .17396546H.42399598C.4189911 .14398194 .4119873 .099990848 .4019928 .084991458 .394989 .07699585 .32899476 .07699585 .30699159 .07699585H.1269989L.23298645 .17996216C.3889923 .31803895 .44898988 .37210084 .44898988 .47216798 .44898988 .5860901 .35899354 .6660156 .23699951 .6660156 .12399292 .6660156 .049987794 .57411196 .049987794 .48516847 .049987794 .4291687 .099990848 .4291687 .102996829 .4291687 .11999512 .4291687 .15499878 .44117738 .15499878 .48217774 .15499878 .5081787 .13699341 .5341797 .101989749 .5341797 .09399414 .5341797 .09199524 .5341797 .08898926 .5331726 .11199951 .59806826 .1659851 .63500979 .22399903 .63500979 .31498719 .63500979 .35798646 .5541382 .35798646 .47216798 .35798646 .39196778 .30799867 .31297303 .25299073 .25097657L.06098938 .036987306C.049987794 .025985718 .049987794 .023986817 .049987794 0H.42099L.44898988 .17396546Z"/>
<path id="font_3_82" d="M.4189911 0V.0309906H.3869934C.29699708 .0309906 .2939911 .041992189 .2939911 .07902527V.64012148C.2939911 .6640167 .2939911 .6660156 .2709961 .6660156 .20899964 .60227969 .12098694 .60227969 .08898926 .60227969V.57128909C.10899353 .57128909 .16799927 .57128909 .21998596 .5972748V.07902527C.21998596 .042999269 .21699524 .0309906 .1269989 .0309906H.09498596V0C.12998963 .0029907227 .21699524 .0029907227 .25698854 .0029907227 .29699708 .0029907227 .38398744 .0029907227 .4189911 0Z"/>
<path id="font_3_57" d="M.47099305 .16503906V.19602967H.37098695V.6507721C.37098695 .6707611 .37098695 .6767578 .35499574 .6767578 .34599305 .6767578 .34298707 .6767578 .33499146 .6647644L.027999878 .19602967V.16503906H.2939911V.07800293C.2939911 .041992189 .2919922 .0309906 .21798706 .0309906H.19699097V0C.23799134 .0029907227 .2899933 .0029907227 .33198548 .0029907227 .37399293 .0029907227 .4269867 .0029907227 .46798707 0V.0309906H.44699098C.37298585 .0309906 .37098695 .041992189 .37098695 .07800293V.16503906H.47099305M.2999878 .19602967H.055999757L.2999878 .56881716V.19602967Z"/>
<path id="font_3_56" d="M.44898988 .20091248C.44898988 .31991578 .36698915 .41992188 .25898744 .41992188 .21099854 .41992188 .16799927 .4039154 .13198853 .36891175V.5641022C.1519928 .55778506 .18499756 .55078127 .21699524 .55078127 .33999635 .55078127 .4099884 .6418457 .4099884 .65493777 .4099884 .6609802 .40699769 .6660156 .3999939 .6660156 .3999939 .66607668 .39698792 .66607668 .3919983 .66308596 .37199403 .65408328 .32299806 .63378909 .2559967 .63378909 .21598816 .63409426 .16999817 .641098 .12298584 .6621094 .114990238 .6651001 .11099243 .6651001 .11099243 .6651001 .100997928 .66508486 .100997928 .657074 .100997928 .64108279V.3447113C.100997928 .3266449 .100997928 .31861878 .114990238 .31861878 .12199402 .31861878 .12399292 .32164 .12799073 .32765199 .13899231 .34371949 .17599488 .3979187 .25698854 .3979187 .30899049 .3979187 .33399964 .3517456 .34199525 .3336792 .35798646 .2965393 .3600006 .2574005 .3600006 .20721436 .3600006 .17218018 .3600006 .112197879 .33599855 .07032776 .31199647 .031448366 .2749939 .0055389406 .22898865 .0055389406 .1559906 .0055389406 .09899902 .05836487 .08198547 .1171875 .084991458 .11685181 .08799744 .115859989 .09899902 .115859989 .13198853 .115859989 .14898682 .14085388 .14898682 .16485596 .14898682 .18885803 .13198853 .21386719 .09899902 .21386719 .084991458 .21386719 .049987794 .2068634 .049987794 .16085816 .049987794 .07432556 .11898804-.022460938 .23098755-.022460938 .34700013-.022460938 .44898988 .07331848 .44898988 .20019531V.20091248Z"/>
<path id="font_3_101" d="M.45700074 .2036438C.45700074 .33070375 .36799623 .4267578 .25698854 .4267578 .18899536 .4267578 .1519928 .37573243 .13198853 .327713V.35173036C.13198853 .6047821 .2559967 .64100649 .30699159 .64100649 .33099366 .64100649 .37298585 .634964 .394989 .6007538 .37998963 .6007538 .33999635 .6007538 .33999635 .5557556 .33999635 .524765 .3639984 .5097656 .38598634 .5097656 .4019928 .5097656 .43199159 .51875308 .43199159 .5577545 .43199159 .6178589 .3880005 .6660156 .30499269 .6660156 .1769867 .6660156 .041992189 .5367584 .041992189 .31570436 .041992189 .048553468 .1579895-.022460938 .25099183-.022460938 .3619995-.022460938 .45700074 .07156372 .45700074 .2036438M.36698915 .20463562C.36698915 .15661621 .36698915 .10658264 .34999085 .0705719 .31999208 .010528564 .27398683 .0055389406 .25099183 .0055389406 .18798828 .0055389406 .1579895 .06556702 .1519928 .080566409 .13398743 .127594 .13398743 .2076416 .13398743 .22564698 .13398743 .30369569 .1659851 .40374757 .2559967 .40374757 .27198792 .40374757 .31799317 .40374757 .34899903 .34172059 .36698915 .30470277 .36698915 .2536621 .36698915 .20463562Z"/>
<path id="font_3_100" d="M.4850006 .6435547H.24198914C.11999512 .6435547 .117996219 .6566467 .11399841 .67578127H.08898926L.055999757 .46954347H.08099365C.083999637 .48554994 .09298706 .54855349 .10598755 .5605469 .11299133 .5665436 .19099427 .5665436 .20399475 .5665436H.41099549L.29899598 .40853883C.20899964 .2735443 .17599488 .13453675 .17599488 .03253174 .17599488 .022537232 .17599488-.022460938 .22200012-.022460938 .2679901-.022460938 .2679901 .022537232 .2679901 .03253174V.08354187C.2679901 .13853455 .2709961 .19354248 .2789917 .24754334 .2829895 .27053834 .29699708 .35653688 .34098817 .41854859L.47599793 .608551C.4850006 .62054446 .4850006 .62254336 .4850006 .6435547Z"/>
<path id="font_3_51" d="M.45700074 .16764832C.45700074 .20367432 .44599916 .24871826 .4079895 .29074098 .3889923 .31176759 .37298585 .32176209 .30899049 .36180116 .3809967 .39881898 .42999269 .4508667 .42999269 .51690676 .42999269 .6089783 .34098817 .6660156 .25 .6660156 .1499939 .6660156 .068984989 .5919647 .068984989 .49890138 .068984989 .48088075 .070999149 .43585206 .11299133 .38882447 .12399292 .3768158 .16099549 .35179139 .18598938 .33477784 .12799073 .30575563 .041992189 .24971009 .041992189 .15063477 .041992189 .044555665 .14399719-.022460938 .24899292-.022460938 .3619995-.022460938 .45700074 .060577394 .45700074 .16764832M.38598634 .51690676C.38598634 .45986939 .34700013 .41183473 .2869873 .3768158L.16299439 .4568634C.116989139 .4868927 .11299133 .5209198 .11299133 .53793337 .11299133 .5989685 .17799378 .64100649 .24899292 .64100649 .32199098 .64100649 .38598634 .588974 .38598634 .51690676M.40699769 .13162232C.40699769 .05757141 .33198548 .0055389406 .25 .0055389406 .1639862 .0055389406 .09199524 .06758118 .09199524 .15063477 .09199524 .2086792 .12399292 .2727356 .20899964 .31976319L.33198548 .24171448C.3600006 .22268677 .40699769 .19267273 .40699769 .13162232Z"/>
<path id="font_3_78" d="M.45700074 .32888795C.45700074 .598114 .34199525 .6660156 .25299073 .6660156 .19799805 .6660156 .14898682 .64801028 .10598755 .6031189 .06498718 .5580902 .041992189 .5160217 .041992189 .44091798 .041992189 .3158722 .12998963 .21777344 .24198914 .21777344 .30299378 .21777344 .34399415 .25979615 .36698915 .3178711V.28582765C.36698915 .05178833 .2630005 .0055389406 .20498657 .0055389406 .18798828 .0055389406 .13398743 .007537842 .10699463 .041778566 .15098572 .041778566 .15899658 .07078552 .15899658 .08778381 .15899658 .118774417 .1349945 .13378906 .11299133 .13378906 .09700012 .13378906 .066986087 .12478638 .066986087 .08578491 .066986087 .018615723 .12098694-.022460938 .20599365-.022460938 .33499146-.022460938 .45700074 .11378479 .45700074 .32888795M.36499024 .42089845C.36499024 .33789063 .33099366 .24076844 .24299622 .24076844 .22698975 .2407074 .18099976 .2407074 .1499939 .30371095 .13198853 .34072877 .13198853 .3908081 .13198853 .43988038 .13198853 .49397279 .13198853 .5410614 .15299988 .578125 .17999268 .62805178 .21798706 .64100649 .25299073 .64100649 .29899598 .64100649 .33198548 .60710147 .34899903 .562088 .36099244 .52989199 .36499024 .46688844 .36499024 .42089845Z"/>
<path id="font_3_121" d="M.45999146 .31976319C.45999146 .39982606 .45498658 .47988893 .41999818 .5539398 .37399293 .65000918 .2919922 .6660156 .25 .6660156 .18998719 .6660156 .116989139 .64001467 .07598877 .54693606 .04399109 .47789 .038986207 .39982606 .038986207 .31976319 .038986207 .24472046 .042999269 .15464783 .083999637 .07859802 .1269989-.0024719239 .19999695-.022460938 .24899292-.022460938 .30299378-.022460938 .3789978-.0014648438 .4229889 .09359741 .45498658 .16265869 .45999146 .2407074 .45999146 .31976319M.3769989 .3317871C.3769989 .25672914 .3769989 .18867493 .3659973 .12461853 .35099793 .029556275 .2939911-.00047302247 .24899292-.00047302247 .20999146-.00047302247 .15098572 .024551392 .1329956 .12062073 .12199402 .18066406 .12199402 .2727356 .12199402 .3317871 .12199402 .39582826 .12199402 .46188355 .12998963 .5159149 .14898682 .63500979 .22399903 .64401248 .24899292 .64401248 .28199769 .64401248 .34799195 .6259918 .36698915 .52693179 .3769989 .47088624 .3769989 .39482118 .3769989 .3317871Z"/>
<path id="font_4_1" d="M.3789978-.22503662C.34999085-.19802857 .2849884-.13702393 .24299622-.009033203 .21699524 .06997681 .20498657 .16197205 .20498657 .24996948 .20498657 .4469757 .2559967 .60398867 .3659973 .7149811 .3809967 .7299957 .38198854 .73098757 .38198854 .73599246 .38198854 .746994 .37199403 .75 .3639984 .75 .34700013 .75 .30499269 .7129822 .2869873 .6959839 .1309967 .5409851 .10798645 .35697938 .10798645 .25097657 .10798645 .12597656 .14099121 .015975953 .18798828-.06703186 .2539978-.18203736 .34498597-.24902344 .3639984-.24902344 .37199403-.24902344 .38198854-.24603272 .38198854-.23503113 .38198854-.23002625 .3789978-.22602844 .3789978-.22503662Z"/>
<path id="font_4_5" d="M.35398866 .62316897C.35398866 .6452637 .35398866 .65527346 .32798768 .65527346 .31698609 .65527346 .31498719 .65527346 .30599977 .64826968 .22898865 .5909424 .12599182 .5909424 .10499573 .5909424H.084991458V.5439453H.10499573C.12098694 .5439453 .17599488 .54493716 .23498535 .5639343V.04699707H.09599304V0C.13999939 .0029907227 .24598694 .0029907227 .29499818 .0029907227 .34399415 .0029907227 .44999696 .0029907227 .49398805 0V.04699707H.35398866V.62316897Z"/>
<path id="font_1_2" d="M.21398926 .020996094C.21099854-.04208374 .18099976-.11021423 .12599182-.15631104 .11199951-.16833496 .11099243-.16934204 .11099243-.17533875 .11099243-.18234253 .12199402-.19433594 .12998963-.19433594 .14399719-.19433594 .25-.10720825 .25 .0309906 .25 .100997928 .21398926 .1559906 .1579895 .1559906 .11199951 .1559906 .08099365 .12098694 .08099365 .07798767 .08099365 .037994386 .10899353 0 .15899658 0 .18299866 0 .20199585 .009994507 .21398926 .020996094Z"/>
<path id="font_4_2" d="M.33799745 .24996948C.33799745 .37498475 .30499269 .48498536 .2579956 .5679779 .19198609 .6829834 .100997928 .75 .08198547 .75 .07398987 .75 .06399536 .746994 .06399536 .73599246 .06399536 .73098757 .06399536 .72898867 .08099365 .7129822 .20698548 .5849762 .24099732 .40797425 .24099732 .25097657 .24099732 .053970338 .18998719-.103027347 .07998657-.21403504 .06498718-.22903443 .06399536-.23002625 .06399536-.23503113 .06399536-.24603272 .07398987-.24902344 .08198547-.24902344 .09899902-.24902344 .14099121-.21203614 .15899658-.19503784 .31498719-.040023805 .33799745 .14398194 .33799745 .24996948Z"/>
<path id="font_4_9" d="M.5169983 .20147705C.5169983 .31629945 .43798829 .4091797 .2899933 .4091797 .26098634 .4091797 .20799256 .4061737 .16099549 .37417604V.5060425C.18899536 .5010376 .19999695 .4990387 .23399353 .4990387 .37998963 .4990387 .47200013 .6120453 .47200013 .6370392 .47200013 .64404299 .46998597 .65504458 .45799256 .65504458 .45498658 .65504458 .45399476 .65504458 .44299317 .65104678 .38598634 .6290436 .33299256 .6230469 .2899933 .6230469 .21398926 .6230469 .16099549 .64204409 .1349945 .65104678 .12599182 .6540375 .125 .65504458 .12199402 .65504458 .10798645 .65504458 .10798645 .64404299 .10798645 .6280365V.33625794C.10798645 .31829835 .10798645 .3053131 .12998963 .3053131 .14299011 .3053131 .14498902 .3093109 .1519928 .31729127 .19099427 .3631897 .24499512 .37316896 .28599549 .37316896 .375 .37316896 .375 .28536988 .375 .20549011 .375 .1324768 .375 .03225708 .25498963 .03225708 .23098755 .03225708 .16799927 .037261964 .12599182 .09448242 .1619873 .09648132 .19099427 .1204834 .19099427 .16148377 .19099427 .21447754 .147995 .22949219 .12399292 .22949219 .10899353 .22949219 .056991579 .2204895 .056991579 .15948487 .056991579 .074417117 .1349945-.0107421879 .25898744-.0107421879 .4189911-.0107421879 .5169983 .079437259 .5169983 .20147705Z"/>
<path id="font_5_1" d="M.7519989 .22024536C.7669983 .22024536 .7969971 .22024536 .7969971 .25024415 .7969971 .28125 .7679901 .28125 .7519989 .28125H.14099121C.12599182 .28125 .09599304 .28125 .09599304 .25123597 .09599304 .22024536 .125 .22024536 .14099121 .22024536H.7519989Z"/>
<path id="font_4_7" d="M.35198976 .35212709C.42099 .3731537 .49398805 .4303589 .49398805 .5164032 .49398805 .5933533 .41799928 .65527346 .2769928 .65527346 .1579895 .65527346 .07998657 .59135439 .07998657 .5113983 .07998657 .46839906 .11099243 .44140626 .14898682 .44140626 .19400025 .44140626 .21899414 .47340394 .21899414 .51039126 .21899414 .56840518 .16499329 .5793915 .16099549 .58039858 .19599915 .6082916 .23999024 .616272 .2709961 .616272 .35398866 .616272 .35699464 .5523987 .35699464 .5193939 .35699464 .50639346 .35598756 .3751526 .2519989 .36914063 .21099854 .36712647 .20899964 .36613465 .20399475 .36512757 .19400025 .36413575 .19198609 .35412599 .19198609 .34812928 .19198609 .33013917 .20199585 .33013917 .21998596 .33013917H.2639923C.37298585 .33013917 .37298585 .23240662 .37298585 .18144226 .37298585 .13444519 .37298585 .03225708 .2689972 .03225708 .24299622 .03225708 .19099427 .03627014 .14299011 .06645203 .17599488 .07543945 .20098877 .10044861 .20098877 .14144898 .20098877 .18644715 .16899109 .217453 .125 .217453 .08299255 .217453 .04798889 .19044495 .04798889 .13945008 .04798889 .049346925 .14498902-.0107421879 .27398683-.0107421879 .45298768-.0107421879 .526001 .08944702 .526001 .18045044 .526001 .23539734 .49699403 .32115174 .35198976 .35212709Z"/>
<path id="font_4_4" d="M.5289917 .31925965C.5289917 .41625978 .5279999 .65527346 .2869873 .65527346 .04598999 .65527346 .04499817 .41726686 .04499817 .31925965 .04499817 .22026062 .04598999-.0107421879 .2869873-.0107421879 .5269928-.0107421879 .5289917 .21925354 .5289917 .31925965M.2869873 .025253296C.25099183 .025253296 .19499207 .04725647 .18199158 .12025452 .17298889 .17225647 .17298889 .27626039 .17298889 .33125306 .17298889 .40325929 .17298889 .46826173 .18099976 .5202637 .19299317 .6092682 .2630005 .6192627 .2869873 .6192627 .32398988 .6192627 .36499024 .6002655 .38398744 .5562744 .40098573 .51927188 .40098573 .41326905 .40098573 .33125306 .40098573 .2752533 .40098573 .18424988 .3939972 .13224793 .37998963 .039245607 .31698609 .025253296 .2869873 .025253296Z"/>
<path id="font_1_1" d="M.31199647 .34832765H.42399598C.4019928 .2552948 .3909912 .1942749 .3909912 .1352539 .3909912 .067230228 .40899659-.0087890629 .45700074-.0087890629 .48999024-.0087890629 .526001 .02420044 .526001 .05621338 .526001 .068222049 .522995 .07423401 .5139923 .0892334 .46798707 .17025757 .46798707 .24728394 .46798707 .27430726 .46798707 .29830934 .46798707 .3083191 .47399903 .34832765H.59799197C.61698916 .34832765 .6329956 .34832765 .647995 .36332704 .6549988 .3703308 .66799929 .38232423 .66799929 .40533448 .66799929 .44433595 .6329956 .44433595 .61499026 .44433595H.22200012C.20098877 .44433595 .1579895 .44433595 .10499573 .3963318 .069992069 .3643341 .0309906 .31330873 .0309906 .3033142 .0309906 .28930665 .042999269 .28930665 .053985597 .28930665 .068984989 .28930665 .069992069 .29031373 .07899475 .3013153 .116989139 .34832765 .18299866 .34832765 .20199585 .34832765H.2619934C.23699951 .26930238 .19699097 .18727112 .14299011 .08622742 .1269989 .05621338 .12399292 .051223756 .12399292 .037216188 .12399292 .01020813 .1459961-.007797241 .17199707-.007797241 .19299317-.007797241 .20799256 .0032043458 .21499634 .00920105 .22999573 .02420044 .23098755 .028213501 .23599243 .049209596L.31199647 .34832765Z"/>
<path id="font_4_6" d="M.5169983 .22209168H.46998597C.46699525 .20207215 .45799256 .13800049 .44400025 .1309967 .43299867 .125 .35798646 .125 .34199525 .125H.19499207C.24198914 .16403198 .2939911 .20707703 .33898927 .2401123 .45298768 .3242035 .5169983 .37124635 .5169983 .4663086 .5169983 .5812988 .41299439 .65527346 .27198792 .65527346 .15098572 .65527346 .056991579 .593277 .056991579 .50331118 .056991579 .44430543 .10499573 .42930604 .1289978 .42930604 .16099549 .42930604 .20098877 .4513092 .20098877 .50131228 .20098877 .55329897 .15899658 .5693054 .14399719 .5733032 .17298889 .5972748 .21099854 .6082611 .24699402 .6082611 .33299256 .6082611 .3789978 .54029849 .3789978 .4653015 .3789978 .39627076 .34098817 .3282013 .2709961 .25712586L.069992069 .051986696C.056991579 .039993287 .056991579 .037994386 .056991579 .017990113V0H.48599244L.5169983 .22209168Z"/>
<path id="font_6_3" d="M.7709961 .3310547C.7859955 .3310547 .81199648 .3310547 .81199648 .35905458 .81199648 .38604737 .7849884 .38604737 .7719879 .38604737H.101989749C.08898926 .38604737 .06199646 .38604737 .06199646 .35905458 .06199646 .3310547 .08799744 .3310547 .102996829 .3310547H.7709961M.7719879 .112960819C.7849884 .112960819 .81199648 .112960819 .81199648 .13995362 .81199648 .16796875 .7859955 .16796875 .7709961 .16796875H.102996829C.08799744 .16796875 .06199646 .16796875 .06199646 .13995362 .06199646 .112960819 .08898926 .112960819 .101989749 .112960819H.7719879Z"/>
<path id="font_6_8" d="M.3769989 .42712403C.3769989 .44612123 .3769989 .453125 .3619995 .453125 .35598756 .453125 .35398866 .453125 .33898927 .4441223 .33499146 .44111634 .32398988 .43411256 .31900025 .43112184 .29100038 .44711305 .2539978 .453125 .21798706 .453125 .18798828 .453125 .037994386 .453125 .037994386 .32312013 .037994386 .21812439 .1619873 .19612122 .19299317 .19113159 .21998596 .18612671 .25299073 .18013 .25698854 .18013 .29699708 .17112732 .33699037 .14613343 .33699037 .10412598 .33699037 .027130127 .24598694 .027130127 .22499085 .027130127 .17399597 .027130127 .11099243 .043136598 .08299255 .14012146 .07699585 .16012573 .07598877 .16113281 .05899048 .16113281 .037994386 .16113281 .037994386 .15812683 .037994386 .13513184V.020126343C.037994386 .0011291504 .037994386-.005859375 .052993776-.005859375 .05999756-.005859375 .06199646-.005859375 .08198547 .010131836L.10798645 .029129029C.15299988-.005859375 .20698548-.005859375 .22499085-.005859375 .27999879-.005859375 .40499879 .006134033 .40499879 .13912964 .40499879 .18713379 .3789978 .22012329 .35899354 .23812866 .31799317 .27212525 .28399659 .27812196 .22999573 .28811646 .1659851 .29911805 .10598755 .31011964 .10598755 .35812379 .10598755 .42311097 .19499207 .42311097 .21598816 .42311097 .32699586 .42311097 .33299256 .3531189 .33499146 .328125 .33599855 .3151245 .34399415 .3151245 .35598756 .3151245 .3769989 .3151245 .3769989 .31811524 .3769989 .3411255V.42712403Z"/>
<path id="font_6_5" d="M.22299195 .6233063C.22299195 .66430667 .18998719 .6953125 .15098572 .6953125 .10998535 .6953125 .07899475 .66130068 .07899475 .6233063 .07899475 .5853119 .10998535 .55130007 .15098572 .55130007 .18998719 .55130007 .22299195 .5823059 .22299195 .6233063M.04699707 .44218446V.39918519C.10598755 .39918519 .11299133 .39918519 .11299133 .36016847V.042999269H.04399109V0C.066986087 .0019989014 .13598633 .0019989014 .16299439 .0019989014 .19099427 .0019989014 .25498963 .0019989014 .2789917 0V.042999269H.21699524V.4501953L.04699707 .44218446Z"/>
<path id="font_6_6" d="M.5309906 .30613709C.5309906 .40118409 .48999024 .4501953 .37998963 .4501953 .30799867 .4501953 .24598694 .41519166 .21199036 .34014894H.21099854V.4501953L.041992189 .44218446V.39918519C.10398865 .39918519 .11099243 .39918519 .11099243 .3601532V.042999269H.041992189V0C.06498718 .0019989014 .13699341 .0019989014 .16499329 .0019989014 .19299317 .0019989014 .2659912 .0019989014 .2889862 0V.042999269H.21998596V.25610353C.21998596 .36416627 .2999878 .41719056 .3639984 .41719056 .40098573 .41719056 .42199708 .39317323 .42199708 .31713868V.042999269H.35299684V0C.37599183 .0019989014 .44799806 .0019989014 .47599793 .0019989014 .5039978 .0019989014 .57699587 .0019989014 .59999087 0V.042999269H.5309906V.30613709Z"/>
<path id="font_6_1" d="M.5049896 .21514893H.46299745C.45999146 .19412232 .45298768 .13502503 .43798829 .125 .42999269 .117996219 .35198976 .117996219 .33699037 .117996219H.18199158C.21998596 .15003968 .31098939 .22616577 .32598878 .23718262 .43699647 .3203125 .5049896 .37139894 .5049896 .46749879 .5049896 .5853729 .397995 .65625 .2659912 .65625 .15299988 .65625 .055999757 .5923462 .055999757 .49749757 .055999757 .44448854 .09899902 .42948915 .12199402 .42948915 .15299988 .42948915 .18899536 .45048524 .18899536 .49649049 .18899536 .5384979 .1579895 .559494 .1269989 .5634918 .16699219 .6092682 .21998596 .6132355 .24099732 .6132355 .33299256 .6132355 .3769989 .5384979 .3769989 .4664917 .3769989 .38842774 .32398988 .3163147 .2829895 .27323915L.06599426 .04598999C.055999757 .036987306 .055999757 .034988405 .055999757 .016998291V0H.47599793L.5049896 .21514893Z"/>
<path id="font_7_28" d="M.71598818 .034179689C.71598818 .06712341 .69898989 .06712341 .6779938 .06712341H.6719971C.6589966 .06712341 .621994 .06712341 .6009979 .07710266V.28977967C.6009979 .36997987 .5379944 .4560547 .32499696 .4560547 .2539978 .4560547 .10598755 .4560547 .10598755 .34791566 .10598755 .2998047 .14099121 .27172853 .18099976 .27172853 .22499085 .27172853 .2559967 .30381776 .2559967 .34692384 .2559967 .36395265 .25099183 .38000489 .24198914 .3920288 .2789917 .40003968 .30899049 .40003968 .32598878 .40003968 .41600038 .40003968 .46798707 .3659668 .46798707 .28677369V.2677307C.45498658 .26672364 .35198976 .26872254 .25299073 .25071717 .13398743 .22871399 .057998659 .19378662 .057998659 .11997986 .057998659-.0078125 .25099183-.0078125 .2899933-.0078125 .3880005-.0078125 .46099855 .015182495 .49198915 .060150148 .5 .00018310547 .56999209 .00018310547 .644989 .00018310547 .70899966 .00018310547 .71598818 .00018310547 .71598818 .034179689M.46798707 .13294983C.46798707 .10902405 .46798707 .08308411 .4169922 .06413269 .37599183 .048187257 .32299806 .048187257 .31698609 .048187257 .24598694 .048187257 .19099427 .07510376 .19099427 .12098694 .19099427 .20974732 .41999818 .21772766 .46798707 .21972656V.13294983Z"/>
<path id="font_7_75" d="M1.1799927 0V.066986087H1.1080017V.29508973C1.1080017 .44114686 .98999026 .45214845 .91400149 .45214845 .84999087 .45214845 .7630005 .43914796 .69699099 .3571167 .6689911 .42913819 .6100006 .45214845 .5109863 .45214845 .37199403 .45214845 .30799867 .38012696 .2849884 .3451233V.45214845L.09700012 .44433595V.3773346C.16099549 .3773346 .16899109 .3773346 .16899109 .33828736V.066986087H.09700012V0L.23599243 .0039978029C.272995 .0039978029 .32998658 .0029907227 .37399293 0V.066986087H.3019867V.2421875C.3019867 .36412049 .4269867 .39613343 .4869995 .39613343 .5509949 .39613343 .57199099 .37213136 .57199099 .29708863V.066986087H.5V0L.6389923 .0039978029C.6759949 .0039978029 .73298647 .0029907227 .7769928 0V.066986087H.7049866V.24206543C.7049866 .36412049 .8299866 .39613343 .8899994 .39613343 .95399478 .39613343 .97499087 .37213136 .97499087 .29708863V.066986087H.9029999V0L1.0419922 .0039978029C1.0789948 .0039978029 1.1360016 .0029907227 1.1799927 0Z"/>
<path id="font_7_84" d="M.7739868 .22314453C.7739868 .33114625 .69299319 .45214845 .48399354 .45214845 .44499208 .45214845 .36099244 .44914247 .2809906 .4081421V.45214845L.083999637 .44433595V.3773346H.100997928C.1559906 .3773346 .1559906 .37132264 .1559906 .3433075V-.12695313H.083999637V-.19395447L.22200012-.18995667 .36099244-.19395447V-.12695313H.2889862V.03718567C.31698609 .020187378 .375-.0078125 .45999146-.0078125 .6689911-.0078125 .7739868 .10119629 .7739868 .22325135V.22314453M.6239929 .22225952C.6239929 .112213138 .5499878 .048187257 .44499208 .048187257 .397995 .048187257 .33799745 .063186649 .2889862 .1282196V.32730104C.33999635 .3801422 .41799928 .39013673 .45799256 .39013673 .56799319 .39013673 .6239929 .31814576 .6239929 .22213745V.22225952Z"/>
<path id="font_7_72" d="M.36999513 0V.066986087H.2979889V.69433596L.100997928 .6855469V.61854556C.16499329 .61854556 .17298889 .61854556 .17298889 .5795746V.066986087H.100997928V0C.1459961 .0029907227 .18998719 .0039978029 .23498535 .0039978029 .23899842 .0039978029 .31698609 .0039978029 .36999513 0Z"/>
<path id="font_7_66" d="M.36299134 0V.066986087H.2979889V.45214845L.10398865 .44433595V.3773346C.1659851 .3773346 .17298889 .3773346 .17298889 .33828736V.066986087H.100997928V0C.14498902 .0029907227 .18998719 .0039978029 .23399353 .0039978029 .2769928 .0039978029 .31999208 .0029907227 .36299134 0M.3039856 .60250857C.3039856 .6505127 .2639923 .68652346 .21798706 .68652346 .16999817 .68652346 .13198853 .6485138 .13198853 .6035156 .13198853 .5555115 .17199707 .519516 .21798706 .519516 .2659912 .519516 .3039856 .5575104 .3039856 .60250857Z"/>
<path id="font_7_105" d="M.49899293 .1191864V.1671753H.41600038V.123184207C.41600038 .093185428 .4059906 .05418396 .34799195 .05418396 .2849884 .054092409 .2849884 .09408569 .2849884 .12109375V.3773346H.47499085V.44433595H.2849884V.6357422H.20199585C.19999695 .53352358 .1459961 .43632508 .04399109 .43333436V.3773346H.1519928V.11820984C.1519928 .0051727297 .26098634-.0078125 .32598878-.0078125 .39898683-.0078125 .49899293 .018173218 .49899293 .11921692V.1191864Z"/>
<path id="font_7_109" d="M.776001 .00018310547V.06718445C.71199038 .06718445 .70399478 .06718445 .70399478 .106170658V.45214845L.49899293 .44433595V.3773346C.5629883 .3773346 .57099917 .3773346 .57099917 .3383026V.15823365C.57099917 .06518555 .47399903 .048187257 .4059906 .048187257 .3019867 .048187257 .3019867 .06819153 .3019867 .112213138V.45214845L.09700012 .44433595V.3773346C.16099549 .3773346 .16899109 .3773346 .16899109 .3383026V.11820984C.16899109 .0021820069 .2899933-.0078125 .3849945-.0078125 .4189911-.0078125 .5139923-.0078125 .57899478 .05718994V-.0078125L.776001 .00018310547Z"/>
<path id="font_7_47" d="M.7549896 .00018310547V.06718445C.69099429 .06718445 .68299868 .06718445 .68299868 .10618591V.69433596L.48599244 .6855469V.61854556C.5499878 .61854556 .55799868 .61854556 .55799868 .5796814V.41114808C.5179901 .43214417 .45700074 .45214845 .37799073 .45214845 .1639862 .45214845 .06498718 .34014894 .06498718 .22116089 .06498718 .11216736 .1519928-.0078125 .3639984-.0078125 .44099427-.0078125 .5039978 .013183594 .5499878 .04118347V-.0078125L.7549896 .00018310547M.5499878 .13198853C.5 .06817627 .43499757 .048187257 .37799073 .048187257 .21499634 .048187257 .21499634 .16716004 .21499634 .22015381 .21499634 .27415467 .21499634 .39613343 .3929901 .39613343 .43699647 .39613343 .4869995 .3851471 .5289917 .3511505 .5499878 .33415223 .5499878 .33314515 .5499878 .31315614V.13198853Z"/>
<path id="font_7_50" d="M.6349945 .11022949C.6349945 .1352539 .61099246 .1352539 .5970001 .1352539H.58999636C.57099917 .1352539 .5629883 .1352539 .55400088 .12124634 .5439911 .10221863 .5159912 .05418396 .4099884 .05418396 .2829895 .05418396 .21699524 .10322571 .20799256 .19726563H.5970001C.61698916 .19726563 .6349945 .19726563 .6349945 .22921753 .6349945 .2871704 .61299136 .35508729 .57099917 .39305116 .5249939 .43304444 .46499635 .4560547 .3659973 .4560547 .14199829 .4560547 .056991579 .33311463 .056991579 .2262268 .056991579 .12023926 .14199829-.0078125 .3869934-.0078125 .4119873-.0078125 .48098756-.0078125 .54100039 .016174317 .60899356 .04335022 .6349945 .096343997 .6349945 .11035156V.11022949M.5339966 .24804688H.20799256C.20899964 .28404237 .21099854 .40003968 .36698915 .40003968 .5029907 .40003968 .5289917 .31504823 .5339966 .24804688Z"/>
<path id="font_7_82" d="M.6399994 0V.066986087H.45899964V.6232147C.45899964 .6541443 .45298768 .6611328 .42099 .6611328H.3999939C.31498719 .5972595 .18598938 .5972595 .16299439 .5972595H.13598633V.53027346H.16299439C.1749878 .53027346 .2519989 .53027346 .32499696 .55526736V.066986087H.14399719V0C.19299317 .0039978029 .33499146 .0039978029 .3919983 .0039978029 .44898988 .0039978029 .59098818 .0039978029 .6399994 0Z"/>
<path id="font_8_84" d="M.59999087 .22319031C.59999087 .3561859 .5089874 .4501953 .36499024 .4501953 .2899933 .4501953 .23699951 .41918946 .21398926 .40118409V.4501953L.036987306 .4423828V.39537049C.09899902 .39537049 .10598755 .39537049 .10598755 .3573761V-.14648438H.036987306V-.1934967L.16299439-.19049073 .2889862-.1934967V-.14648438H.21998596V.03945923C.2630005 .004135132 .30699159-.005859375 .34799195-.005859375 .49798585-.005859375 .59999087 .08413696 .59999087 .22312927V.22319031M.47200013 .22312927C.47200013 .08213806 .4019928 .030136109 .33699037 .030136109 .32299806 .030136109 .27598573 .030136109 .23098755 .08413696 .21998596 .09713745 .21998596 .09812927 .21998596 .117126468V.32913209C.21998596 .34814454 .22099304 .3491516 .23498535 .36314393 .2749939 .4041443 .32699586 .41015626 .34899903 .41015626 .41600038 .41015626 .47200013 .3491516 .47200013 .22314453V.22312927Z"/>
<path id="font_8_50" d="M.49398805 .11706543C.49398805 .13504029 .47499085 .13504029 .46998597 .13504029 .45298768 .13504029 .45098878 .13005066 .44499208 .11405945 .42399598 .066101077 .36698915 .03413391 .3019867 .03413391 .16099549 .03413391 .1599884 .16700745 .1599884 .2179718H.46199037C.48399354 .2179718 .49398805 .2179718 .49398805 .2449646 .49398805 .27598573 .48799134 .34906007 .43798829 .3991089 .40098573 .43511964 .34799195 .453125 .2789917 .453125 .11898804 .453125 .03199768 .35005189 .03199768 .22497559 .03199768 .09107971 .13198853-.005859375 .29299928-.005859375 .45098878-.005859375 .49398805 .10006714 .49398805 .11706543M.39898683 .25097657H.1599884C.1619873 .29000855 .16299439 .3320465 .18399048 .36506654 .20999146 .4051056 .25 .41711427 .2789917 .41711427 .3959961 .41711427 .397995 .28599549 .39898683 .25097657Z"/>
<path id="font_8_96" d="M.44198609 .36819459C.44198609 .42118836 .3880005 .4501953 .33599855 .4501953 .2659912 .4501953 .22599793 .40019227 .20298767 .33718873V.4501953L.036987306 .4423828V.39537049C.09899902 .39537049 .10598755 .39537049 .10598755 .3563385V.04699707H.036987306V0L.16299439 .0029907227C.20098877 .0029907227 .2649994 .0029907227 .30099488 0V.04699707H.21398926V.22218323C.21398926 .29226686 .23899842 .41436769 .33898927 .41436769 .33898927 .41436769 .31999208 .39736939 .31999208 .36834718 .31999208 .32730104 .35198976 .3072815 .3809967 .3072815 .4099884 .3072815 .44198609 .3283081 .44198609 .36834718V.36819459Z"/>
<path id="font_8_66" d="M.28599549 0V.04699707H.22399903V.4501953L.049987794 .4423828V.39537049C.10899353 .39537049 .115997318 .39537049 .115997318 .3563385V.04699707H.04699707V0L.16899109 .0029907227 .28599549 0M.23799134 .60728457C.23799134 .6502838 .20298767 .6852875 .1599884 .6852875 .116989139 .6852875 .08198547 .6502838 .08198547 .60728457 .08198547 .5642853 .116989139 .5292969 .1599884 .5292969 .20298767 .5292969 .23799134 .5642853 .23799134 .60728457Z"/>
<path id="font_8_81" d="M.5419922 .21812439C.5419922 .35212709 .44999696 .453125 .2869873 .453125 .12298584 .453125 .03199768 .35112 .03199768 .21812439 .03199768 .09413147 .11999512-.005859375 .2869873-.005859375 .45498658-.005859375 .5419922 .09512329 .5419922 .21812439M.4139862 .22912598C.4139862 .14213562 .4139862 .03413391 .2869873 .03413391 .1599884 .03413391 .1599884 .14213562 .1599884 .22912598 .1599884 .27412416 .1599884 .32511903 .1769867 .3591156 .19599915 .39611817 .23799134 .41711427 .2869873 .41711427 .32899476 .41711427 .37098695 .40112306 .3929901 .36611939 .4139862 .3321228 .4139862 .27713014 .4139862 .22912598Z"/>
<path id="font_8_47" d="M.6009979 0V.04699707C.5389862 .04699707 .5319977 .04699707 .5319977 .086013797V.69433596L.35499574 .6855469V.63853457C.4169922 .63853457 .42399598 .63853457 .42399598 .5996704V.40518189C.37399293 .44418336 .32199098 .4501953 .2889862 .4501953 .14299011 .4501953 .037994386 .36218263 .037994386 .22116089 .037994386 .089141849 .12998963-.005859375 .27799989-.005859375 .33898927-.005859375 .3869934 .018127442 .41799928 .043136598V-.005859375L.6009979 0M.41799928 .102996829C.40499879 .08514404 .3639984 .030136109 .28799439 .030136109 .1659851 .030136109 .1659851 .15115357 .1659851 .22116089 .1659851 .26916505 .1659851 .3231659 .19198609 .36218263 .22099304 .40419007 .2679901 .41418458 .29899598 .41418458 .35598756 .41418458 .3959961 .3821869 .41799928 .35317994V.102996829Z"/>
<path id="font_4_8" d="M.44499208 .15611267H.5419922V.203125H.44499208V.62423709C.44499208 .6512451 .44299317 .65625 .4149933 .65625 .3939972 .65625 .3929901 .6552429 .3809967 .64024356L.03199768 .203125V.15611267H.31999208V.04699707H.20799256V0C.24598694 .0029907227 .33699037 .0029907227 .37998963 .0029907227 .41999818 .0029907227 .5069885 .0029907227 .5419922 0V.04699707H.44499208V.15611267M.33099366 .203125H.083999637L.33099366 .51319888V.203125Z"/>
</defs>
<path transform="matrix(1,0,0,-1,176.146,132.457)" stroke-width=".3985" stroke-linecap="butt" stroke-miterlimit="10" stroke-linejoin="miter" fill="none" stroke="#faebeb" d="M-170.08042-113.38547H374.17695M-170.08042-102.04692H374.17695M-170.08042-90.70837H374.17695M-170.08042-79.36983H374.17695M-170.08042-68.03128H374.17695M-170.08042-56.69273H374.17695M-170.08042-45.35419H374.17695M-170.08042-34.01564H374.17695M-170.08042-22.6771H374.17695M-170.08042-11.33855H374.17695M-170.08042 0H374.17695M-170.08042 11.33855H374.17695M-170.08042 22.6771H374.17695M-170.08042 34.01564H374.17695M-170.08042 45.35419H374.17695M-170.08042 56.69273H374.17695M-170.08042 68.03128H374.17695M-170.08042 79.36983H374.17695M-170.08042 90.70837H374.17695M-170.08042 102.04692H374.17695M-170.08042 113.38547H374.17695M-170.07776-113.38724V113.38724M-163.27466-113.38724V113.38724M-156.47154-113.38724V113.38724M-149.66843-113.38724V113.38724M-142.86533-113.38724V113.38724M-136.06221-113.38724V113.38724M-129.2591-113.38724V113.38724M-122.456-113.38724V113.38724M-115.65288-113.38724V113.38724M-108.84976-113.38724V113.38724M-102.04665-113.38724V113.38724M-95.24355-113.38724V113.38724M-88.44043-113.38724V113.38724M-81.63733-113.38724V113.38724M-74.83421-113.38724V113.38724M-68.0311-113.38724V113.38724M-61.22798-113.38724V113.38724M-54.42487-113.38724V113.38724M-47.62177-113.38724V113.38724M-40.81866-113.38724V113.38724M-34.01555-113.38724V113.38724M-27.21243-113.38724V113.38724M-20.40932-113.38724V113.38724M-13.6062-113.38724V113.38724M-6.80309-113.38724V113.38724M0-113.38724V113.38724M6.80309-113.38724V113.38724M13.6062-113.38724V113.38724M20.40932-113.38724V113.38724M27.21243-113.38724V113.38724M34.01555-113.38724V113.38724M40.81866-113.38724V113.38724M47.62177-113.38724V113.38724M54.42487-113.38724V113.38724M61.22798-113.38724V113.38724M68.0311-113.38724V113.38724M74.83421-113.38724V113.38724M81.63733-113.38724V113.38724M88.44043-113.38724V113.38724M95.24355-113.38724V113.38724M102.04665-113.38724V113.38724M108.84976-113.38724V113.38724M115.65288-113.38724V113.38724M122.456-113.38724V113.38724M129.2591-113.38724V113.38724M136.06221-113.38724V113.38724M142.86533-113.38724V113.38724M149.66843-113.38724V113.38724M156.47154-113.38724V113.38724M163.27466-113.38724V113.38724M170.07776-113.38724V113.38724M176.88088-113.38724V113.38724M183.68399-113.38724V113.38724M190.4871-113.38724V113.38724M197.2902-113.38724V113.38724M204.09333-113.38724V113.38724M210.89643-113.38724V113.38724M217.69954-113.38724V113.38724M224.50266-113.38724V113.38724M231.30577-113.38724V113.38724M238.10889-113.38724V113.38724M244.912-113.38724V113.38724M251.71509-113.38724V113.38724M258.5182-113.38724V113.38724M265.32133-113.38724V113.38724M272.12446-113.38724V113.38724M278.92756-113.38724V113.38724M285.73069-113.38724V113.38724M292.53379-113.38724V113.38724M299.33689-113.38724V113.38724M306.13999-113.38724V113.38724M312.9431-113.38724V113.38724M319.74623-113.38724V113.38724M326.54933-113.38724V113.38724M333.35246-113.38724V113.38724M340.15556-113.38724V113.38724M346.95866-113.38724V113.38724M353.76176-113.38724V113.38724M360.56489-113.38724V113.38724M367.368-113.38724V113.38724M374.1711-113.38724V113.38724M374.17695 113.38724"/>
<path transform="matrix(1,0,0,-1,176.146,132.457)" stroke-width=".79701" stroke-linecap="butt" stroke-miterlimit="10" stroke-linejoin="miter" fill="none" stroke="#f5d7d7" d="M-170.08042-113.38724H374.17695M-170.08042-56.69362H374.17695M-170.08042 0H374.17695M-170.08042 56.69362H374.17695M-170.08042 113.36731H374.17695M-170.08042-113.38724V113.38724M-136.06433-113.38724V113.38724M-102.04825-113.38724V113.38724M-68.03217-113.38724V113.38724M-34.01608-113.38724V113.38724M0-113.38724V113.38724M34.01608-113.38724V113.38724M68.03217-113.38724V113.38724M102.04825-113.38724V113.38724M136.06433-113.38724V113.38724M170.08042-113.38724V113.38724M204.0965-113.38724V113.38724M238.11258-113.38724V113.38724M272.12867-113.38724V113.38724M306.14476-113.38724V113.38724M340.16084-113.38724V113.38724M374.16499-113.38724V113.38724M374.17695 113.38724"/>
<path transform="matrix(1,0,0,-1,176.146,132.457)" stroke-width=".79701" stroke-linecap="butt" stroke-miterlimit="10" stroke-linejoin="miter" fill="none" stroke="#000000" d="M-165.41794 0H369.51445"/>
<path transform="matrix(-1,-0,0,1,10.728058,132.457)" d="M4.66248 0C3.28098 .25902 1.0361 1.0361-.51805 1.94269V-1.94269C1.0361-1.0361 3.28098-.25902 4.66248 0"/>
<path transform="matrix(1,0,0,-1,545.6604,132.457)" d="M4.66248 0C3.28098 .25902 1.0361 1.0361-.51805 1.94269V-1.94269C1.0361-1.0361 3.28098-.25902 4.66248 0"/>
<use data-text="x" xlink:href="#font_1_7" transform="matrix(9.9626,0,0,-9.9626,554.042,134.67099)"/>
<path transform="matrix(1,0,0,-1,176.146,132.457)" stroke-width=".79701" stroke-linecap="butt" stroke-miterlimit="10" stroke-linejoin="miter" fill="none" stroke="#000000" d="M0-108.72476V108.72476"/>
<path transform="matrix(0,1,1,0,176.146,241.18177)" d="M4.66248 0C3.28098 .25902 1.0361 1.0361-.51805 1.94269V-1.94269C1.0361-1.0361 3.28098-.25902 4.66248 0"/>
<path transform="matrix(0,-1,-1,-0,176.146,23.732239)" d="M4.66248 0C3.28098 .25902 1.0361 1.0361-.51805 1.94269V-1.94269C1.0361-1.0361 3.28098-.25902 4.66248 0"/>
<use data-text="y" xlink:href="#font_1_8" transform="matrix(9.9626,0,0,-9.9626,173.021,13.414001)"/>
<use data-text="0" xlink:href="#font_2_1" transform="matrix(8.9664,0,0,-8.9664,179.66599,141.755)"/>
<use data-text="-" xlink:href="#font_3_64" transform="matrix(9.9626,0,0,-9.9626,69.948,144.02899)"/>
<use data-text="3" xlink:href="#font_3_106" transform="matrix(9.9626,0,0,-9.9626,73.26554,144.02899)"/>
<use data-text="-" xlink:href="#font_3_64" transform="matrix(9.9626,0,0,-9.9626,103.964,144.02899)"/>
<use data-text="2" xlink:href="#font_3_107" transform="matrix(9.9626,0,0,-9.9626,107.28154,144.02899)"/>
<use data-text="-" xlink:href="#font_3_64" transform="matrix(9.9626,0,0,-9.9626,137.98,144.02899)"/>
<use data-text="1" xlink:href="#font_3_82" transform="matrix(9.9626,0,0,-9.9626,141.29755,144.02899)"/>
<use data-text="1" xlink:href="#font_3_82" transform="matrix(9.9626,0,0,-9.9626,207.67099,144.02899)"/>
<use data-text="2" xlink:href="#font_3_107" transform="matrix(9.9626,0,0,-9.9626,241.68698,144.02899)"/>
<use data-text="3" xlink:href="#font_3_106" transform="matrix(9.9626,0,0,-9.9626,275.70399,144.02899)"/>
<use data-text="4" xlink:href="#font_3_57" transform="matrix(9.9626,0,0,-9.9626,309.72,144.139)"/>
<use data-text="5" xlink:href="#font_3_56" transform="matrix(9.9626,0,0,-9.9626,343.736,144.02899)"/>
<use data-text="6" xlink:href="#font_3_101" transform="matrix(9.9626,0,0,-9.9626,377.75199,144.02899)"/>
<use data-text="7" xlink:href="#font_3_100" transform="matrix(9.9626,0,0,-9.9626,411.76799,144.129)"/>
<use data-text="8" xlink:href="#font_3_51" transform="matrix(9.9626,0,0,-9.9626,445.784,144.02899)"/>
<use data-text="9" xlink:href="#font_3_78" transform="matrix(9.9626,0,0,-9.9626,479.8,144.02899)"/>
<use data-text="1" xlink:href="#font_3_82" transform="matrix(9.9626,0,0,-9.9626,511.32499,144.02899)"/>
<use data-text="0" xlink:href="#font_3_121" transform="matrix(9.9626,0,0,-9.9626,516.3063,144.02899)"/>
<use data-text="-" xlink:href="#font_3_64" transform="matrix(9.9626,0,0,-9.9626,162.91,192.46799)"/>
<use data-text="1" xlink:href="#font_3_82" transform="matrix(9.9626,0,0,-9.9626,166.22754,192.46799)"/>
<use data-text="1" xlink:href="#font_3_82" transform="matrix(9.9626,0,0,-9.9626,166.22699,79.081)"/>
<path transform="matrix(1,0,0,-1,176.146,132.457)" stroke-width="1.59404" stroke-linecap="butt" stroke-miterlimit="10" stroke-linejoin="miter" fill="none" stroke="#e60000" d="M-120.37663 21.92429-120.06529 21.45126-117.6725 17.7107-115.27971 13.88098-112.88692 9.98383-110.49413 6.03648-108.10132 2.05971-105.70853-1.92563-103.31573-5.90326-100.92294-9.85146-98.53015-13.75037-96.13736-17.58351-93.74457-21.32669-91.35176-24.96693-88.95897-28.4826-86.56618-31.8564-84.17339-35.07364-81.7806-38.11783-79.3878-40.97343-76.995-43.6249-74.6022-46.0618-72.20941-48.27122-69.81662-50.24098-67.42383-51.96162-65.03104-53.42708-62.63824-54.62694-60.24544-55.5569-57.85265-56.21262-55.45985-56.58978-53.06706-56.68753-50.67427-56.50414-48.28148-56.0422-45.88869-55.30254-43.49588-54.28954-41.10309-53.00838-38.7103-51.46422-36.3175-49.66571-33.92471-47.6224-31.53192-45.34209-29.13913-42.83853-26.74632-40.12306-24.35353-37.20947-21.96074-34.1108-19.56795-30.84341-17.17516-27.42375-14.78236-23.86829-12.38956-20.1943-9.99677-16.42172-7.60397-12.56696-5.21118-8.64986-2.81839-4.6913-.4256-.70935 1.96715 3.27602 4.35995 7.24498 6.75275 11.17935 9.14554 15.05835 11.53833 18.86298 13.93112 22.57326 16.32391 26.17284 18.7167 29.64182 21.10953 32.96542 23.50232 36.12555 25.8951 39.10748 28.28789 41.89388 30.68068 44.47612 33.07347 46.83693 35.46626 48.96587 37.85907 50.85262 40.25186 52.48846 42.64465 53.86479 45.03745 54.9747 47.43024 55.81207 49.82303 56.37352 52.21582 56.65555 54.60863 56.65813 57.00142 56.3813 59.39421 55.82417 61.787 54.99115 64.1798 53.88641 66.57259 52.5144 68.9654 50.88287 71.35818 48.99962 73.75098 46.8741 76.14377 44.51765 78.53656 41.93973 80.92935 39.15506 83.32214 36.17744 85.71495 33.01994 88.10774 29.69977 90.50053 26.23167 92.89333 22.6347 95.28612 18.92612 97.67891 15.12323 100.0717 11.24596 102.46452 7.31248 104.85732 3.34264 107.2501-.64185 109.6429-4.62468 112.03569-8.58412 114.42848-12.50119 116.82127-16.35768 119.21408-20.13203 121.60687-23.80687 123.99966-27.36493 126.39244-30.78716 128.78524-34.05716 131.17803-37.15846 133.57083-40.07549 135.96363-42.79529 138.35642-45.30313 140.7492-47.58607 143.142-49.63373 145.53479-51.43652 147.92758-52.98415 150.32039-54.27051 152.71318-55.28786 155.10597-56.03181 157.49877-56.49896 159.89156-56.68753 162.28435-56.5941 164.67714-56.22125 167.06995-55.57074 169.46274-54.64508 171.85553-53.44957 174.24832-51.98845 176.64112-50.27126 179.0339-48.30583 181.4267-46.10075 183.81952-43.66728 186.21231-41.01927 188.6051-38.16714 190.9979-35.12639 193.39069-31.91263 195.78348-28.54056 198.17629-25.02661 200.56908-21.38899 202.96187-17.64667 205.35466-13.8161 207.74745-9.91722 210.14025-5.969 212.53304-1.99225 214.92584 1.99225 217.31864 5.96986 219.71143 9.91722 222.10422 13.8161 224.49701 17.64667 226.8898 21.38985 229.28258 25.02661 231.67539 28.54056 234.06818 31.91263 236.46097 35.12726 238.85376 38.16714 241.24655 41.01927 243.63935 43.66817 246.03214 46.10075 248.42494 48.30583 250.81774 50.27126 253.21053 51.98845 255.60332 53.44957 257.99613 54.64508 260.3889 55.57074 262.7817 56.22214 265.1745 56.5941 267.5673 56.68753 269.9601 56.49896 272.35289 56.03181 274.74568 55.28786 277.13847 54.26965 279.53129 52.98415 281.92408 51.43567 284.31687 49.63373 286.70967 47.58607 289.10246 45.30313 291.49525 42.79442 293.88804 40.07549 296.28086 37.15758 298.67366 34.05629 301.0664 30.78716 303.4592 27.36493 305.852 23.80687 308.2448 20.13203 310.6376 16.35684 313.0304 12.50119 315.4232 8.58412 317.81599 4.62468 320.20878 .64185 322.60157-3.34264 324.99436-7.31248 327.38716-11.24596 329.77995-15.12238 332.17274-18.92612 334.56553-22.6347 336.9583-26.23167 339.3511-29.69977 341.7439-33.01994 344.13673-36.17744 346.5295-39.15591 348.9223-41.94058 351.3151-44.51765 351.01115-44.21829"/>
<path transform="matrix(-.5498,-.83524,-.83524,.5498,55.769365,110.53273)" d="M3.78581 0-2.27148 3.02866 0 0-2.27148-3.02866" fill="#e60000"/>
<path transform="matrix(.71233,.70175,.70175,-.71233,527.1571,176.67528)" d="M3.78581 0-2.27148 3.02866 0 0-2.27148-3.02866" fill="#e60000"/>
<path transform="matrix(1,0,0,-1,176.146,132.457)" stroke-width="1.59404" stroke-linecap="butt" stroke-miterlimit="10" stroke-linejoin="miter" fill="none" stroke="#0000cc" d="M-76.76668 22.24843-76.76714 22.24973-75.29721 18.66228-73.82727 14.9883-72.35733 11.2451-70.8874 7.45088-69.41747 3.62204-67.94754-.22316-66.47762-4.06671-65.00766-7.89207-63.53773-11.68283-62.06781-15.41823-60.59787-19.0827-59.12794-22.6589-57.658-26.13219-56.18806-29.48434-54.71814-32.70157-53.2482-35.76654-51.77827-38.66887-50.30833-41.39127-48.8384-43.92249-47.36847-46.25214-45.89853-48.36983-44.4286-50.26263-42.95868-51.9253-41.48874-53.35008-40.0188-54.52745-38.54886-55.4548-37.07893-56.12524-35.60901-56.53789-34.13907-56.69014-32.66914-56.58026-31.19919-56.21175-29.72926-55.58371-28.25934-54.6996-26.7894-53.56462-25.31947-52.1822-23.84955-50.5576-22.3796-48.70029-20.90967-46.62067-19.43973-44.32474-17.9698-41.82553-16.49988-39.1343-15.02994-36.26309-13.56-33.22237-12.09006-30.03195-10.62015-26.70053-9.15022-23.24716-7.68028-19.68652-6.21036-16.03503-4.7404-12.30916-3.27048-8.52791-1.80055-4.70772-.33061-.86505 1.13927 2.98016 2.60919 6.81331 4.07915 10.61359 5.54907 14.36717 7.01901 18.05411 8.48894 21.65715 9.95886 25.16072 11.4288 28.54921 12.89874 31.8045 14.36867 34.91617 15.83861 37.86435 17.30853 40.6378 18.77847 43.22609 20.2484 45.61371 21.71834 47.79198 23.18828 49.74962 24.6582 51.47978 26.12814 52.97205 27.59807 54.22034 29.068 55.21777 30.53795 55.96088 32.00787 56.44704 33.4778 56.67369 34.94774 56.63824 36.41766 56.34239 37.88762 55.78873 39.35754 54.97643 40.82747 53.9115 42.29741 52.59747 43.76733 51.04033 45.23727 49.24963 46.70721 47.23053 48.17714 44.99605 49.64708 42.55307 51.117 39.91547 52.58694 37.09358 54.05687 34.10129 55.52681 30.9498 56.99675 27.65646 58.46667 24.23596 59.9366 20.70299 61.40654 17.07744 62.87646 13.36974 64.34642 9.60318 65.81635 5.79079 67.28627 1.95332 68.75621-1.89276 70.22614-5.73111 71.69608-9.54349 73.16602-13.31175 74.63594-17.01949 76.10588-20.64763 77.5758-24.18144 79.04573-27.60457 80.51567-30.89877 81.98561-34.05197 83.45555-37.04684 84.92548-39.8722 86.3954-42.51326 87.86534-44.95885 89.33527-47.19766 90.80522-49.2202 92.27515-51.01436 93.74507-52.57582 95.21501-53.8925 96.68494-54.96172 98.15486-55.77663 99.62482-56.33633 101.09474-56.63564 102.56468-56.67458 104.0346-56.45311 105.50453-55.97124 106.97447-55.23248 108.44441-54.23764 109.91435-52.99367 111.38428-51.504 112.8542-49.77817 114.32414-47.82484 115.79408-45.64915 117.26402-43.26503 118.73395-40.68103 120.20387-37.90935 121.67381-34.9629 123.14374-31.85468 124.6137-28.602 126.08362-25.21521 127.55354-21.71338 129.02349-18.1112 130.49341-14.42513 131.96334-10.67326 133.43329-6.87302 134.90322-3.03984 136.37316 .80536 137.84308 4.64803 139.313 8.46907 140.78295 12.25206 142.25289 15.97794 143.72283 19.63028 145.19275 23.19267 146.66268 26.64778 148.13262 29.98091 149.60254 33.17479 151.0725 36.2164 152.54242 39.09103 154.01235 41.78488 155.48229 44.2884 156.95221 46.58691 158.42214 48.67088 159.89209 50.53168 161.36202 52.158 162.83196 53.54474 164.30188 54.68315 165.7718 55.57158 167.24175 56.20395 168.71169 56.5768 170.18163 56.691 171.65155 56.5422 173.12148 56.13475 174.59142 55.46779 176.06134 54.54387 177.5313 53.36913 179.00122 51.94865 180.47115 50.2903 181.94109 48.39926 183.41101 46.28673 184.88094 43.96056 186.35089 41.43192 187.82082 38.71298 189.29076 35.8124 190.76068 32.74916 192.2306 29.5354 193.70055 26.18497 195.17049 22.71428 196.64043 19.13977 198.11035 15.47533 199.58028 11.74167 201.05022 7.95175 202.52016 4.12639 203.9901 .28287 205.46002-3.56322 206.92995-7.39119 208.39989-11.18713 209.86981-14.93031 211.33977-18.6069 212.8097-22.19525 212.80945-22.19467"/>
<path transform="matrix(-.3884,-.92145,-.92145,.3884,99.37933,110.20859)" d="M3.78581 0-2.27148 3.02866 0 0-2.27148-3.02866" fill="#0000cc"/>
<path transform="matrix(.38834,.92148,.92148,-.38834,388.95545,154.65167)" d="M3.78581 0-2.27148 3.02866 0 0-2.27148-3.02866" fill="#0000cc"/>
<path transform="matrix(1,0,0,-1,176.146,132.457)" d="M-105.03268 0C-105.03268 1.01166-105.8528 1.83177-106.86446 1.83177-107.87611 1.83177-108.69624 1.01166-108.69624 0-108.69624-1.01166-107.87611-1.83177-106.86446-1.83177-105.8528-1.83177-105.03268-1.01166-105.03268 0ZM-106.86446 0"/>
<path transform="matrix(1,0,0,-1,176.146,132.457)" stroke-width=".3985" stroke-linecap="butt" stroke-miterlimit="10" stroke-linejoin="miter" fill="none" stroke="#ffffff" d="M-105.03268 0C-105.03268 1.01166-105.8528 1.83177-106.86446 1.83177-107.87611 1.83177-108.69624 1.01166-108.69624 0-108.69624-1.01166-107.87611-1.83177-106.86446-1.83177-105.8528-1.83177-105.03268-1.01166-105.03268 0ZM-106.86446 0"/>
<path transform="matrix(1,0,0,-1,176.146,132.457)" d="M-51.60017-56.69362C-51.60017-55.68195-52.42029-54.86183-53.43195-54.86183-54.44362-54.86183-55.26373-55.68195-55.26373-56.69362-55.26373-57.70528-54.44362-58.52539-53.43195-58.52539-52.42029-58.52539-51.60017-57.70528-51.60017-56.69362ZM-53.43195-56.69362"/>
<path transform="matrix(1,0,0,-1,176.146,132.457)" stroke-width=".3985" stroke-linecap="butt" stroke-miterlimit="10" stroke-linejoin="miter" fill="none" stroke="#ffffff" d="M-51.60017-56.69362C-51.60017-55.68195-52.42029-54.86183-53.43195-54.86183-54.44362-54.86183-55.26373-55.68195-55.26373-56.69362-55.26373-57.70528-54.44362-58.52539-53.43195-58.52539-52.42029-58.52539-51.60017-57.70528-51.60017-56.69362ZM-53.43195-56.69362"/>
<path transform="matrix(1,0,0,-1,176.146,132.457)" d="M55.26373 56.69362C55.26373 57.70528 54.44362 58.52539 53.43195 58.52539 52.42029 58.52539 51.60017 57.70528 51.60017 56.69362 51.60017 55.68195 52.42029 54.86183 53.43195 54.86183 54.44362 54.86183 55.26373 55.68195 55.26373 56.69362ZM53.43195 56.69362"/>
<path transform="matrix(1,0,0,-1,176.146,132.457)" stroke-width=".3985" stroke-linecap="butt" stroke-miterlimit="10" stroke-linejoin="miter" fill="none" stroke="#ffffff" d="M55.26373 56.69362C55.26373 57.70528 54.44362 58.52539 53.43195 58.52539 52.42029 58.52539 51.60017 57.70528 51.60017 56.69362 51.60017 55.68195 52.42029 54.86183 53.43195 54.86183 54.44362 54.86183 55.26373 55.68195 55.26373 56.69362ZM53.43195 56.69362"/>
<path transform="matrix(1,0,0,-1,176.146,132.457)" d="M108.69624 0C108.69624 1.01166 107.87611 1.83177 106.86446 1.83177 105.8528 1.83177 105.03268 1.01166 105.03268 0 105.03268-1.01166 105.8528-1.83177 106.86446-1.83177 107.87611-1.83177 108.69624-1.01166 108.69624 0ZM106.86446 0"/>
<path transform="matrix(1,0,0,-1,176.146,132.457)" stroke-width=".3985" stroke-linecap="butt" stroke-miterlimit="10" stroke-linejoin="miter" fill="none" stroke="#ffffff" d="M108.69624 0C108.69624 1.01166 107.87611 1.83177 106.86446 1.83177 105.8528 1.83177 105.03268 1.01166 105.03268 0 105.03268-1.01166 105.8528-1.83177 106.86446-1.83177 107.87611-1.83177 108.69624-1.01166 108.69624 0ZM106.86446 0"/>
<path transform="matrix(1,0,0,-1,176.146,132.457)" d="M162.12819-56.69362C162.12819-55.68195 161.30808-54.86183 160.29642-54.86183 159.28476-54.86183 158.46465-55.68195 158.46465-56.69362 158.46465-57.70528 159.28476-58.52539 160.29642-58.52539 161.30808-58.52539 162.12819-57.70528 162.12819-56.69362ZM160.29642-56.69362"/>
<path transform="matrix(1,0,0,-1,176.146,132.457)" stroke-width=".3985" stroke-linecap="butt" stroke-miterlimit="10" stroke-linejoin="miter" fill="none" stroke="#ffffff" d="M162.12819-56.69362C162.12819-55.68195 161.30808-54.86183 160.29642-54.86183 159.28476-54.86183 158.46465-55.68195 158.46465-56.69362 158.46465-57.70528 159.28476-58.52539 160.29642-58.52539 161.30808-58.52539 162.12819-57.70528 162.12819-56.69362ZM160.29642-56.69362"/>
<path transform="matrix(1,0,0,-1,176.146,132.457)" d="M215.5607 0C215.5607 1.01166 214.74059 1.83177 213.72893 1.83177 212.71727 1.83177 211.89714 1.01166 211.89714 0 211.89714-1.01166 212.71727-1.83177 213.72893-1.83177 214.74059-1.83177 215.5607-1.01166 215.5607 0ZM213.72893 0"/>
<path transform="matrix(1,0,0,-1,176.146,132.457)" stroke-width=".3985" stroke-linecap="butt" stroke-miterlimit="10" stroke-linejoin="miter" fill="none" stroke="#ffffff" d="M215.5607 0C215.5607 1.01166 214.74059 1.83177 213.72893 1.83177 212.71727 1.83177 211.89714 1.01166 211.89714 0 211.89714-1.01166 212.71727-1.83177 213.72893-1.83177 214.74059-1.83177 215.5607-1.01166 215.5607 0ZM213.72893 0"/>
<path transform="matrix(1,0,0,-1,176.146,132.457)" d="M268.99266 56.69362C268.99266 57.70528 268.17256 58.52539 267.1609 58.52539 266.14924 58.52539 265.3291 57.70528 265.3291 56.69362 265.3291 55.68195 266.14924 54.86183 267.1609 54.86183 268.17256 54.86183 268.99266 55.68195 268.99266 56.69362ZM267.1609 56.69362"/>
<path transform="matrix(1,0,0,-1,176.146,132.457)" stroke-width=".3985" stroke-linecap="butt" stroke-miterlimit="10" stroke-linejoin="miter" fill="none" stroke="#ffffff" d="M268.99266 56.69362C268.99266 57.70528 268.17256 58.52539 267.1609 58.52539 266.14924 58.52539 265.3291 57.70528 265.3291 56.69362 265.3291 55.68195 266.14924 54.86183 267.1609 54.86183 268.17256 54.86183 268.99266 55.68195 268.99266 56.69362ZM267.1609 56.69362"/>
<path transform="matrix(1,0,0,-1,176.146,132.457)" d="M322.42518 0C322.42518 1.01166 321.60508 1.83177 320.59339 1.83177 319.58174 1.83177 318.7616 1.01166 318.7616 0 318.7616-1.01166 319.58174-1.83177 320.59339-1.83177 321.60508-1.83177 322.42518-1.01166 322.42518 0ZM320.59339 0"/>
<path transform="matrix(1,0,0,-1,176.146,132.457)" stroke-width=".3985" stroke-linecap="butt" stroke-miterlimit="10" stroke-linejoin="miter" fill="none" stroke="#ffffff" d="M322.42518 0C322.42518 1.01166 321.60508 1.83177 320.59339 1.83177 319.58174 1.83177 318.7616 1.01166 318.7616 0 318.7616-1.01166 319.58174-1.83177 320.59339-1.83177 321.60508-1.83177 322.42518-1.01166 322.42518 0ZM320.59339 0"/>
<path transform="matrix(1,0,0,-1,176.146,132.457)" d="M-66.20038 0C-66.20038 1.01166-67.0205 1.83177-68.03217 1.83177-69.04382 1.83177-69.86394 1.01166-69.86394 0-69.86394-1.01166-69.04382-1.83177-68.03217-1.83177-67.0205-1.83177-66.20038-1.01166-66.20038 0ZM-68.03217 0"/>
<path transform="matrix(1,0,0,-1,176.146,132.457)" stroke-width=".3985" stroke-linecap="butt" stroke-miterlimit="10" stroke-linejoin="miter" fill="none" stroke="#ffffff" d="M-66.20038 0C-66.20038 1.01166-67.0205 1.83177-68.03217 1.83177-69.04382 1.83177-69.86394 1.01166-69.86394 0-69.86394-1.01166-69.04382-1.83177-68.03217-1.83177-67.0205-1.83177-66.20038-1.01166-66.20038 0ZM-68.03217 0"/>
<path transform="matrix(1,0,0,-1,176.146,132.457)" d="M69.86394 0C69.86394 1.01166 69.04382 1.83177 68.03217 1.83177 67.0205 1.83177 66.20038 1.01166 66.20038 0 66.20038-1.01166 67.0205-1.83177 68.03217-1.83177 69.04382-1.83177 69.86394-1.01166 69.86394 0ZM68.03217 0"/>
<path transform="matrix(1,0,0,-1,176.146,132.457)" stroke-width=".3985" stroke-linecap="butt" stroke-miterlimit="10" stroke-linejoin="miter" fill="none" stroke="#ffffff" d="M69.86394 0C69.86394 1.01166 69.04382 1.83177 68.03217 1.83177 67.0205 1.83177 66.20038 1.01166 66.20038 0 66.20038-1.01166 67.0205-1.83177 68.03217-1.83177 69.04382-1.83177 69.86394-1.01166 69.86394 0ZM68.03217 0"/>
<path transform="matrix(1,0,0,-1,176.146,132.457)" d="M137.8961 0C137.8961 1.01166 137.07599 1.83177 136.06433 1.83177 135.05268 1.83177 134.23255 1.01166 134.23255 0 134.23255-1.01166 135.05268-1.83177 136.06433-1.83177 137.07599-1.83177 137.8961-1.01166 137.8961 0ZM136.06433 0"/>
<path transform="matrix(1,0,0,-1,176.146,132.457)" stroke-width=".3985" stroke-linecap="butt" stroke-miterlimit="10" stroke-linejoin="miter" fill="none" stroke="#ffffff" d="M137.8961 0C137.8961 1.01166 137.07599 1.83177 136.06433 1.83177 135.05268 1.83177 134.23255 1.01166 134.23255 0 134.23255-1.01166 135.05268-1.83177 136.06433-1.83177 137.07599-1.83177 137.8961-1.01166 137.8961 0ZM136.06433 0"/>
<path transform="matrix(1,0,0,-1,176.146,132.457)" d="M205.92827 0C205.92827 1.01166 205.10816 1.83177 204.0965 1.83177 203.08484 1.83177 202.26471 1.01166 202.26471 0 202.26471-1.01166 203.08484-1.83177 204.0965-1.83177 205.10816-1.83177 205.92827-1.01166 205.92827 0ZM204.0965 0"/>
<path transform="matrix(1,0,0,-1,176.146,132.457)" stroke-width=".3985" stroke-linecap="butt" stroke-miterlimit="10" stroke-linejoin="miter" fill="none" stroke="#ffffff" d="M205.92827 0C205.92827 1.01166 205.10816 1.83177 204.0965 1.83177 203.08484 1.83177 202.26471 1.01166 202.26471 0 202.26471-1.01166 203.08484-1.83177 204.0965-1.83177 205.10816-1.83177 205.92827-1.01166 205.92827 0ZM204.0965 0"/>
<path transform="matrix(1,0,0,-1,176.146,132.457)" d="M-32.1843-56.69362C-32.1843-55.68195-33.00441-54.86183-34.01608-54.86183-35.02774-54.86183-35.84785-55.68195-35.84785-56.69362-35.84785-57.70528-35.02774-58.52539-34.01608-58.52539-33.00441-58.52539-32.1843-57.70528-32.1843-56.69362ZM-34.01608-56.69362"/>
<path transform="matrix(1,0,0,-1,176.146,132.457)" stroke-width=".3985" stroke-linecap="butt" stroke-miterlimit="10" stroke-linejoin="miter" fill="none" stroke="#ffffff" d="M-32.1843-56.69362C-32.1843-55.68195-33.00441-54.86183-34.01608-54.86183-35.02774-54.86183-35.84785-55.68195-35.84785-56.69362-35.84785-57.70528-35.02774-58.52539-34.01608-58.52539-33.00441-58.52539-32.1843-57.70528-32.1843-56.69362ZM-34.01608-56.69362"/>
<path transform="matrix(1,0,0,-1,176.146,132.457)" d="M35.84785 56.69362C35.84785 57.70528 35.02774 58.52539 34.01608 58.52539 33.00441 58.52539 32.1843 57.70528 32.1843 56.69362 32.1843 55.68195 33.00441 54.86183 34.01608 54.86183 35.02774 54.86183 35.84785 55.68195 35.84785 56.69362ZM34.01608 56.69362"/>
<path transform="matrix(1,0,0,-1,176.146,132.457)" stroke-width=".3985" stroke-linecap="butt" stroke-miterlimit="10" stroke-linejoin="miter" fill="none" stroke="#ffffff" d="M35.84785 56.69362C35.84785 57.70528 35.02774 58.52539 34.01608 58.52539 33.00441 58.52539 32.1843 57.70528 32.1843 56.69362 32.1843 55.68195 33.00441 54.86183 34.01608 54.86183 35.02774 54.86183 35.84785 55.68195 35.84785 56.69362ZM34.01608 56.69362"/>
<path transform="matrix(1,0,0,-1,176.146,132.457)" d="M103.88002-56.69362C103.88002-55.68195 103.0599-54.86183 102.04825-54.86183 101.03658-54.86183 100.21646-55.68195 100.21646-56.69362 100.21646-57.70528 101.03658-58.52539 102.04825-58.52539 103.0599-58.52539 103.88002-57.70528 103.88002-56.69362ZM102.04825-56.69362"/>
<path transform="matrix(1,0,0,-1,176.146,132.457)" stroke-width=".3985" stroke-linecap="butt" stroke-miterlimit="10" stroke-linejoin="miter" fill="none" stroke="#ffffff" d="M103.88002-56.69362C103.88002-55.68195 103.0599-54.86183 102.04825-54.86183 101.03658-54.86183 100.21646-55.68195 100.21646-56.69362 100.21646-57.70528 101.03658-58.52539 102.04825-58.52539 103.0599-58.52539 103.88002-57.70528 103.88002-56.69362ZM102.04825-56.69362"/>
<path transform="matrix(1,0,0,-1,176.146,132.457)" d="M171.91219 56.69362C171.91219 57.70528 171.09207 58.52539 170.08042 58.52539 169.06876 58.52539 168.24863 57.70528 168.24863 56.69362 168.24863 55.68195 169.06876 54.86183 170.08042 54.86183 171.09207 54.86183 171.91219 55.68195 171.91219 56.69362ZM170.08042 56.69362"/>
<path transform="matrix(1,0,0,-1,176.146,132.457)" stroke-width=".3985" stroke-linecap="butt" stroke-miterlimit="10" stroke-linejoin="miter" fill="none" stroke="#ffffff" d="M171.91219 56.69362C171.91219 57.70528 171.09207 58.52539 170.08042 58.52539 169.06876 58.52539 168.24863 57.70528 168.24863 56.69362 168.24863 55.68195 169.06876 54.86183 170.08042 54.86183 171.09207 54.86183 171.91219 55.68195 171.91219 56.69362ZM170.08042 56.69362"/>
<path transform="matrix(1,0,0,-1,176.146,132.457)" d="M1.83177 0C1.83177 1.01166 1.01166 1.83177 0 1.83177-1.01166 1.83177-1.83177 1.01166-1.83177 0-1.83177-1.01166-1.01166-1.83177 0-1.83177 1.01166-1.83177 1.83177-1.01166 1.83177 0ZM0 0"/>
<path transform="matrix(1,0,0,-1,176.146,132.457)" stroke-width=".3985" stroke-linecap="butt" stroke-miterlimit="10" stroke-linejoin="miter" fill="none" stroke="#ffffff" d="M1.83177 0C1.83177 1.01166 1.01166 1.83177 0 1.83177-1.01166 1.83177-1.83177 1.01166-1.83177 0-1.83177-1.01166-1.01166-1.83177 0-1.83177 1.01166-1.83177 1.83177-1.01166 1.83177 0ZM0 0"/>
<use data-text="(" xlink:href="#font_4_1" transform="matrix(9.9626,0,0,-9.9626,181.43799,69.753009)"/>
<use data-text="1" xlink:href="#font_4_5" transform="matrix(9.9626,0,0,-9.9626,185.89128,69.753009)"/>
<use data-text="," xlink:href="#font_1_2" transform="matrix(9.9626,0,0,-9.9626,191.622,69.753009)"/>
<use data-text="1" xlink:href="#font_4_5" transform="matrix(9.9626,0,0,-9.9626,196.465,69.753009)"/>
<use data-text=")" xlink:href="#font_4_2" transform="matrix(9.9626,0,0,-9.9626,202.19348,69.753009)"/>
<use data-text="(" xlink:href="#font_4_1" transform="matrix(9.9626,0,0,-9.9626,333.654,69.753009)"/>
<use data-text="5" xlink:href="#font_4_9" transform="matrix(9.9626,0,0,-9.9626,338.1073,69.753009)"/>
<use data-text="," xlink:href="#font_1_2" transform="matrix(9.9626,0,0,-9.9626,343.838,69.753009)"/>
<use data-text="1" xlink:href="#font_4_5" transform="matrix(9.9626,0,0,-9.9626,348.681,69.753009)"/>
<use data-text=")" xlink:href="#font_4_2" transform="matrix(9.9626,0,0,-9.9626,354.4095,69.753009)"/>
<use data-text="(" xlink:href="#font_4_1" transform="matrix(9.9626,0,0,-9.9626,129.111,205.81201)"/>
<use data-text="&#x2212;" xlink:href="#font_5_1" transform="matrix(9.9626,0,0,-9.9626,133.566,205.81201)"/>
<use data-text="1" xlink:href="#font_4_5" transform="matrix(9.9626,0,0,-9.9626,142.477,205.81201)"/>
<use data-text="," xlink:href="#font_1_2" transform="matrix(9.9626,0,0,-9.9626,148.20601,205.81201)"/>
<use data-text="&#x2212;" xlink:href="#font_5_1" transform="matrix(9.9626,0,0,-9.9626,153.04901,205.81201)"/>
<use data-text="1" xlink:href="#font_4_5" transform="matrix(9.9626,0,0,-9.9626,161.96,205.81201)"/>
<use data-text=")" xlink:href="#font_4_2" transform="matrix(9.9626,0,0,-9.9626,167.6885,205.81201)"/>
<use data-text="(" xlink:href="#font_4_1" transform="matrix(9.9626,0,0,-9.9626,261.15299,200.143)"/>
<use data-text="3" xlink:href="#font_4_7" transform="matrix(9.9626,0,0,-9.9626,265.60627,200.143)"/>
<use data-text="," xlink:href="#font_1_2" transform="matrix(9.9626,0,0,-9.9626,271.33699,200.143)"/>
<use data-text="&#x2212;" xlink:href="#font_5_1" transform="matrix(9.9626,0,0,-9.9626,276.18,200.143)"/>
<use data-text="1" xlink:href="#font_4_5" transform="matrix(9.9626,0,0,-9.9626,285.091,200.143)"/>
<use data-text=")" xlink:href="#font_4_2" transform="matrix(9.9626,0,0,-9.9626,290.8195,200.143)"/>
<use data-text="(" xlink:href="#font_4_1" transform="matrix(9.9626,0,0,-9.9626,147.415,126.446)"/>
<use data-text="0" xlink:href="#font_4_4" transform="matrix(9.9626,0,0,-9.9626,151.86829,126.446)"/>
<use data-text="," xlink:href="#font_1_2" transform="matrix(9.9626,0,0,-9.9626,157.599,126.446)"/>
<use data-text="0" xlink:href="#font_4_4" transform="matrix(9.9626,0,0,-9.9626,162.44199,126.446)"/>
<use data-text=")" xlink:href="#font_4_2" transform="matrix(9.9626,0,0,-9.9626,168.17049,126.446)"/>
<use data-text="(" xlink:href="#font_4_1" transform="matrix(9.9626,0,0,-9.9626,30.179993,143.449)"/>
<use data-text="&#x2212;" xlink:href="#font_5_1" transform="matrix(9.9626,0,0,-9.9626,34.634996,143.449)"/>
<use data-text="&#x03c0;" xlink:href="#font_1_1" transform="matrix(9.9626,0,0,-9.9626,43.545999,143.449)"/>
<use data-text="," xlink:href="#font_1_2" transform="matrix(9.9626,0,0,-9.9626,50.709108,143.449)"/>
<use data-text="0" xlink:href="#font_4_4" transform="matrix(9.9626,0,0,-9.9626,55.557,143.449)"/>
<use data-text=")" xlink:href="#font_4_2" transform="matrix(9.9626,0,0,-9.9626,61.2855,143.449)"/>
<use data-text="(" xlink:href="#font_4_1" transform="matrix(9.9626,0,0,-9.9626,286.551,126.446)"/>
<use data-text="&#x03c0;" xlink:href="#font_1_1" transform="matrix(9.9626,0,0,-9.9626,291.006,126.446)"/>
<use data-text="," xlink:href="#font_1_2" transform="matrix(9.9626,0,0,-9.9626,298.16914,126.446)"/>
<use data-text="0" xlink:href="#font_4_4" transform="matrix(9.9626,0,0,-9.9626,303.017,126.446)"/>
<use data-text=")" xlink:href="#font_4_2" transform="matrix(9.9626,0,0,-9.9626,308.74549,126.446)"/>
<use data-text="(" xlink:href="#font_4_1" transform="matrix(9.9626,0,0,-9.9626,393.43598,126.446)"/>
<use data-text="2" xlink:href="#font_4_6" transform="matrix(9.9626,0,0,-9.9626,397.88929,126.446)"/>
<use data-text="&#x03c0;" xlink:href="#font_1_1" transform="matrix(9.9626,0,0,-9.9626,403.62,126.446)"/>
<use data-text="," xlink:href="#font_1_2" transform="matrix(9.9626,0,0,-9.9626,410.78309,126.446)"/>
<use data-text="0" xlink:href="#font_4_4" transform="matrix(9.9626,0,0,-9.9626,415.62998,126.446)"/>
<use data-text=")" xlink:href="#font_4_2" transform="matrix(9.9626,0,0,-9.9626,421.35847,126.446)"/>
<use data-text="(" xlink:href="#font_4_1" transform="matrix(9.9626,0,0,-9.9626,500.32099,126.446)"/>
<use data-text="3" xlink:href="#font_4_7" transform="matrix(9.9626,0,0,-9.9626,504.7743,126.446)"/>
<use data-text="&#x03c0;" xlink:href="#font_1_1" transform="matrix(9.9626,0,0,-9.9626,510.505,126.446)"/>
<use data-text="," xlink:href="#font_1_2" transform="matrix(9.9626,0,0,-9.9626,517.6681,126.446)"/>
<use data-text="0" xlink:href="#font_4_4" transform="matrix(9.9626,0,0,-9.9626,522.515,126.446)"/>
<use data-text=")" xlink:href="#font_4_2" transform="matrix(9.9626,0,0,-9.9626,528.24349,126.446)"/>
<use data-text="(" xlink:href="#font_4_1" transform="matrix(9.9626,0,0,-9.9626,77.99,204.538)"/>
<use data-text="&#x2212;" xlink:href="#font_5_1" transform="matrix(9.9626,0,0,-9.9626,82.445,204.538)"/>
<use data-text="&#x03c0;" xlink:href="#font_1_1" transform="matrix(9.9626,0,0,-9.9626,92.552,197.098)"/>
<path transform="matrix(1,0,0,-1,-26.156006,144.078)" stroke-width=".3985" stroke-linecap="butt" stroke-miterlimit="10" stroke-linejoin="miter" fill="none" stroke="#000000" d="M118.708-57.969H125.876"/>
<use data-text="2" xlink:href="#font_4_6" transform="matrix(9.9626,0,0,-9.9626,93.271999,212.071)"/>
<use data-text="," xlink:href="#font_1_2" transform="matrix(9.9626,0,0,-9.9626,100.91499,204.538)"/>
<use data-text="&#x2212;" xlink:href="#font_5_1" transform="matrix(9.9626,0,0,-9.9626,105.757999,204.538)"/>
<use data-text="1" xlink:href="#font_4_5" transform="matrix(9.9626,0,0,-9.9626,114.66899,204.538)"/>
<use data-text=")" xlink:href="#font_4_2" transform="matrix(9.9626,0,0,-9.9626,120.39749,204.538)"/>
<use data-text="(" xlink:href="#font_4_1" transform="matrix(9.9626,0,0,-9.9626,215.068,64.71)"/>
<use data-text="&#x03c0;" xlink:href="#font_1_1" transform="matrix(9.9626,0,0,-9.9626,220.719,57.27)"/>
<path transform="matrix(1,0,0,-1,110.922,4.25)" stroke-width=".3985" stroke-linecap="butt" stroke-miterlimit="10" stroke-linejoin="miter" fill="none" stroke="#000000" d="M109.797-57.969H116.965"/>
<use data-text="2" xlink:href="#font_4_6" transform="matrix(9.9626,0,0,-9.9626,221.439,72.243)"/>
<use data-text="," xlink:href="#font_1_2" transform="matrix(9.9626,0,0,-9.9626,229.082,64.70999)"/>
<use data-text="1" xlink:href="#font_4_5" transform="matrix(9.9626,0,0,-9.9626,233.92499,64.70999)"/>
<use data-text=")" xlink:href="#font_4_2" transform="matrix(9.9626,0,0,-9.9626,239.65349,64.70999)"/>
<use data-text="(" xlink:href="#font_4_1" transform="matrix(9.9626,0,0,-9.9626,314.633,206.53)"/>
<use data-text="3" xlink:href="#font_4_7" transform="matrix(9.9626,0,0,-9.9626,320.284,199.09001)"/>
<use data-text="&#x03c0;" xlink:href="#font_1_1" transform="matrix(9.9626,0,0,-9.9626,326.012,199.09001)"/>
<path transform="matrix(1,0,0,-1,210.487,146.07)" stroke-width=".3985" stroke-linecap="butt" stroke-miterlimit="10" stroke-linejoin="miter" fill="none" stroke="#000000" d="M109.797-57.969H122.693"/>
<use data-text="2" xlink:href="#font_4_6" transform="matrix(9.9626,0,0,-9.9626,323.86799,214.063)"/>
<use data-text="," xlink:href="#font_1_2" transform="matrix(9.9626,0,0,-9.9626,334.376,206.53)"/>
<use data-text="&#x2212;" xlink:href="#font_5_1" transform="matrix(9.9626,0,0,-9.9626,339.21803,206.53)"/>
<use data-text="1" xlink:href="#font_4_5" transform="matrix(9.9626,0,0,-9.9626,348.129,206.53)"/>
<use data-text=")" xlink:href="#font_4_2" transform="matrix(9.9626,0,0,-9.9626,353.85749,206.53)"/>
<use data-text="(" xlink:href="#font_4_1" transform="matrix(9.9626,0,0,-9.9626,425.973,64.71)"/>
<use data-text="5" xlink:href="#font_4_9" transform="matrix(9.9626,0,0,-9.9626,431.624,57.27)"/>
<use data-text="&#x03c0;" xlink:href="#font_1_1" transform="matrix(9.9626,0,0,-9.9626,437.352,57.27)"/>
<path transform="matrix(1,0,0,-1,321.827,4.25)" stroke-width=".3985" stroke-linecap="butt" stroke-miterlimit="10" stroke-linejoin="miter" fill="none" stroke="#000000" d="M109.797-57.969H122.693"/>
<use data-text="2" xlink:href="#font_4_6" transform="matrix(9.9626,0,0,-9.9626,435.208,72.243)"/>
<use data-text="," xlink:href="#font_1_2" transform="matrix(9.9626,0,0,-9.9626,445.716,64.70999)"/>
<use data-text="1" xlink:href="#font_4_5" transform="matrix(9.9626,0,0,-9.9626,450.55799,64.70999)"/>
<use data-text=")" xlink:href="#font_4_2" transform="matrix(9.9626,0,0,-9.9626,456.2865,64.70999)"/>
<use data-text="y" xlink:href="#font_1_8" transform="matrix(11.9552,0,0,-11.9552,473.805,67.414)" fill="#e60000"/>
<use data-text="=" xlink:href="#font_6_3" transform="matrix(11.9552,0,0,-11.9552,484.625,67.414)" fill="#e60000"/>
<use data-text="s" xlink:href="#font_6_8" transform="matrix(11.9552,0,0,-11.9552,498.3974,67.414)" fill="#e60000"/>
<use data-text="i" xlink:href="#font_6_5" transform="matrix(11.9552,0,0,-11.9552,503.69355,67.414)" fill="#e60000"/>
<use data-text="n" xlink:href="#font_6_6" transform="matrix(11.9552,0,0,-11.9552,507.42359,67.414)" fill="#e60000"/>
<use data-text="x" xlink:href="#font_1_7" transform="matrix(11.9552,0,0,-11.9552,516.91299,67.414)" fill="#e60000"/>
<use data-text="y" xlink:href="#font_1_8" transform="matrix(11.9552,0,0,-11.9552,77.12399,67.025)" fill="#0000cc"/>
<use data-text="=" xlink:href="#font_6_3" transform="matrix(11.9552,0,0,-11.9552,87.94399,67.025)" fill="#0000cc"/>
<use data-text="s" xlink:href="#font_6_8" transform="matrix(11.9552,0,0,-11.9552,101.71638,67.025)" fill="#0000cc"/>
<use data-text="i" xlink:href="#font_6_5" transform="matrix(11.9552,0,0,-11.9552,107.012538,67.025)" fill="#0000cc"/>
<use data-text="n" xlink:href="#font_6_6" transform="matrix(11.9552,0,0,-11.9552,110.74256,67.025)" fill="#0000cc"/>
<use data-text="&#x03c0;" xlink:href="#font_1_1" transform="matrix(11.9552,0,0,-11.9552,121.426998,58.098)" fill="#0000cc"/>
<path transform="matrix(1,0,0,-1,-27.02201,6.5650026)" stroke-width=".4782" stroke-linecap="butt" stroke-miterlimit="10" stroke-linejoin="miter" fill="none" stroke="#0000cc" d="M148.449-57.471H157.05"/>
<use data-text="2" xlink:href="#font_6_1" transform="matrix(11.9552,0,0,-11.9552,122.36498,76.065)" fill="#0000cc"/>
<use data-text="x" xlink:href="#font_1_7" transform="matrix(11.9552,0,0,-11.9552,131.22397,67.025)" fill="#0000cc"/>
<path transform="matrix(1,0,0,-1,176.146,132.457)" stroke-width=".79701" stroke-linecap="butt" stroke-miterlimit="10" stroke-linejoin="miter" fill="none" stroke="#000000" d="M170.08042 4.66248V52.03113"/>
<path transform="matrix(0,1,1,0,346.2264,127.79452)" d="M4.66248 0C3.28098 .25902 1.0361 1.0361-.51805 1.94269V-1.94269C1.0361-1.0361 3.28098-.25902 4.66248 0"/>
<path transform="matrix(0,-1,-1,-0,346.2264,80.42587)" d="M4.66248 0C3.28098 .25902 1.0361 1.0361-.51805 1.94269V-1.94269C1.0361-1.0361 3.28098-.25902 4.66248 0"/>
<path transform="matrix(1,0,0,-1,176.146,132.457)" d="M160.06929 49.10173V7.59184H166.48528V49.10173ZM166.48528 7.59184" fill="#ffffff"/>
<use data-text="a" xlink:href="#font_7_28" transform="matrix(0,-4.9813,-4.9813,-0,340.66899,123.868007)"/>
<use data-text="m" xlink:href="#font_7_75" transform="matrix(0,-4.9813,-4.9813,-0,340.66899,120.1918)"/>
<use data-text="p" xlink:href="#font_7_84" transform="matrix(0,-4.9813,-4.9813,-0,340.66899,114.00503)"/>
<use data-text="l" xlink:href="#font_7_72" transform="matrix(0,-4.9813,-4.9813,-0,340.66899,109.825717)"/>
<use data-text="i" xlink:href="#font_7_66" transform="matrix(0,-4.9813,-4.9813,-0,340.66899,107.65387)"/>
<use data-text="t" xlink:href="#font_7_105" transform="matrix(0,-4.9813,-4.9813,-0,340.66899,105.482028)"/>
<use data-text="u" xlink:href="#font_7_109" transform="matrix(0,-4.9813,-4.9813,-0,340.66899,102.50819)"/>
<use data-text="d" xlink:href="#font_7_47" transform="matrix(0,-4.9813,-4.9813,-0,340.66899,98.32887)"/>
<use data-text="e" xlink:href="#font_7_50" transform="matrix(0,-4.9813,-4.9813,-0,340.66899,94.14957)"/>
<use data-text="1" xlink:href="#font_7_82" transform="matrix(0,-4.9813,-4.9813,-0,340.66899,88.12718)"/>
<path transform="matrix(1,0,0,-1,176.146,132.457)" stroke-width=".79701" stroke-linecap="butt" stroke-miterlimit="10" stroke-linejoin="miter" fill="none" stroke="#000000" d="M.59775-85.0404H135.46657"/>
<path transform="matrix(-1,-0,0,1,181.60547,217.4974)" d="M4.66248 0C3.28098 .25902 1.0361 1.0361-.51805 1.94269V-1.94269C1.0361-1.0361 3.28098-.25902 4.66248 0"/>
<path transform="matrix(-1,-0,0,1,176.5445,217.4974)" stroke-width=".79701" stroke-linecap="butt" stroke-miterlimit="10" stroke-linejoin="miter" fill="none" stroke="#000000" d="M0 3.08846V-3.08846"/>
<path transform="matrix(1,0,0,-1,306.75086,217.4974)" d="M4.66248 0C3.28098 .25902 1.0361 1.0361-.51805 1.94269V-1.94269C1.0361-1.0361 3.28098-.25902 4.66248 0"/>
<path transform="matrix(1,0,0,-1,311.81184,217.4974)" stroke-width=".79701" stroke-linecap="butt" stroke-miterlimit="10" stroke-linejoin="miter" fill="none" stroke="#000000" d="M0 3.08846V-3.08846"/>
<path transform="matrix(1,0,0,-1,176.146,132.457)" d="M46.139-90.46014H89.92532V-79.620677H46.139Z" fill="#ffffff"/>
<use data-text="p" xlink:href="#font_8_84" transform="matrix(9.9626,0,0,-9.9626,223.281,219.988)"/>
<use data-text="e" xlink:href="#font_8_50" transform="matrix(9.9626,0,0,-9.9626,229.96591,219.988)"/>
<use data-text="r" xlink:href="#font_8_96" transform="matrix(9.9626,0,0,-9.9626,235.21619,219.988)"/>
<use data-text="i" xlink:href="#font_8_66" transform="matrix(9.9626,0,0,-9.9626,239.93848,219.988)"/>
<use data-text="o" xlink:href="#font_8_81" transform="matrix(9.9626,0,0,-9.9626,243.11655,219.988)"/>
<use data-text="d" xlink:href="#font_8_47" transform="matrix(9.9626,0,0,-9.9626,249.16384,219.988)"/>
<use data-text="4" xlink:href="#font_4_8" transform="matrix(9.9626,0,0,-9.9626,259.346,219.988)"/>
<path transform="matrix(1,0,0,-1,176.146,132.457)" stroke-width=".79701" stroke-linecap="butt" stroke-miterlimit="10" stroke-linejoin="miter" fill="none" stroke="#000000" d="M.59775-102.04866H213.13117"/>
<path transform="matrix(-1,-0,0,1,181.60547,234.50566)" d="M4.66248 0C3.28098 .25902 1.0361 1.0361-.51805 1.94269V-1.94269C1.0361-1.0361 3.28098-.25902 4.66248 0"/>
<path transform="matrix(-1,-0,0,1,176.5445,234.50566)" stroke-width=".79701" stroke-linecap="butt" stroke-miterlimit="10" stroke-linejoin="miter" fill="none" stroke="#000000" d="M0 3.08846V-3.08846"/>
<path transform="matrix(1,0,0,-1,384.41545,234.50566)" d="M4.66248 0C3.28098 .25902 1.0361 1.0361-.51805 1.94269V-1.94269C1.0361-1.0361 3.28098-.25902 4.66248 0"/>
<path transform="matrix(1,0,0,-1,389.4764,234.50566)" stroke-width=".79701" stroke-linecap="butt" stroke-miterlimit="10" stroke-linejoin="miter" fill="none" stroke="#000000" d="M0 3.08846V-3.08846"/>
<path transform="matrix(1,0,0,-1,176.146,132.457)" d="M81.38748-107.46838H132.34143V-96.62892H81.38748Z" fill="#ffffff"/>
<use data-text="p" xlink:href="#font_8_84" transform="matrix(9.9626,0,0,-9.9626,258.53,236.996)"/>
<use data-text="e" xlink:href="#font_8_50" transform="matrix(9.9626,0,0,-9.9626,265.2149,236.996)"/>
<use data-text="r" xlink:href="#font_8_96" transform="matrix(9.9626,0,0,-9.9626,270.4652,236.996)"/>
<use data-text="i" xlink:href="#font_8_66" transform="matrix(9.9626,0,0,-9.9626,275.18748,236.996)"/>
<use data-text="o" xlink:href="#font_8_81" transform="matrix(9.9626,0,0,-9.9626,278.36555,236.996)"/>
<use data-text="d" xlink:href="#font_8_47" transform="matrix(9.9626,0,0,-9.9626,284.41285,236.996)"/>
<use data-text="2" xlink:href="#font_4_6" transform="matrix(9.9626,0,0,-9.9626,294.595,236.996)"/>
<use data-text="&#x03c0;" xlink:href="#font_1_1" transform="matrix(9.9626,0,0,-9.9626,300.323,236.996)"/>
</svg>
