<svg style="overflow: visible;" xmlns="http://www.w3.org/2000/svg" xmlns:xlink="http://www.w3.org/1999/xlink" xmlns:inkscape="http://www.inkscape.org/namespaces/inkscape" version="1.1" width="100%" height="100%" viewBox="0 0 351.83 273.96">
<defs>
<path id="font_1_8" d="M.57699587 .3771515C.58200076 .3951416 .58200076 .3971405 .58200076 .40014649 .58200076 .4221344 .56599429 .44413758 .5349884 .44413758 .48298646 .44413758 .47099305 .3971405 .46398927 .3701477L.43798829 .26615907C.42599488 .2181549 .40699769 .14117432 .3959961 .10017395 .3909912 .07817078 .3600006 .05418396 .35699464 .05218506 .34599305 .045181276 .32199098 .028182984 .2889862 .028182984 .22999573 .028182984 .22898865 .07817078 .22898865 .10116577 .22898865 .16217041 .2599945 .24015808 .28799439 .31214906 .2979889 .33815003 .30099488 .3451538 .30099488 .3621521 .30099488 .4201355 .24299622 .45214845 .18798828 .45214845 .08198547 .45214845 .03199768 .31614686 .03199768 .29615785 .03199768 .28215028 .04699707 .28215028 .055999757 .28215028 .067993167 .28215028 .07499695 .28215028 .07899475 .29515077 .11199951 .4061432 .16699219 .4161377 .18199158 .4161377 .18899536 .4161377 .19898987 .4161377 .19898987 .3951416 .19898987 .3721466 .18798828 .34614564 .18199158 .33015443 .14299011 .23016358 .12199402 .173172 .12199402 .122177127 .12199402 .008178711 .22200012-.0078125 .2809906-.0078125 .30599977-.0078125 .33999635-.0038146973 .3769989 .02218628 .34899903-.10101318 .27398683-.16615296 .20498657-.16615296 .19198609-.16615296 .1639862-.16415406 .14399719-.15213013 .17599488-.13909912 .19198609-.11204529 .19198609-.0849762 .19198609-.04890442 .16299439-.038879396 .14299011-.038879396 .10598755-.038879396 .070999149-.07095337 .070999149-.11505127 .070999149-.16615296 .12399292-.20214844 .20498657-.20214844 .31999208-.20214844 .45199586-.12506104 .48298646-.0008239746L.57699587 .3771515Z"/>
<path id="font_2_12" d="M.7879944 .33203126C.7999878 .33203126 .82899478 .33203126 .82899478 .36203004 .82899478 .39302064 .7979889 .39302064 .7829895 .39302064H.10998535C.09498596 .39302064 .06399536 .39302064 .06399536 .36203004 .06399536 .33203126 .09298706 .33203126 .10499573 .33203126H.7879944M.7829895 .107940677C.7979889 .107940677 .82899478 .107940677 .82899478 .13893128 .82899478 .16894531 .7999878 .16894531 .7879944 .16894531H.10499573C.09298706 .16894531 .06399536 .16894531 .06399536 .13893128 .06399536 .107940677 .09498596 .107940677 .10998535 .107940677H.7829895Z"/>
<path id="font_3_1" d="M.7519989 .22024536C.7669983 .22024536 .7969971 .22024536 .7969971 .25024415 .7969971 .28125 .7679901 .28125 .7519989 .28125H.14099121C.12599182 .28125 .09599304 .28125 .09599304 .25123597 .09599304 .22024536 .125 .22024536 .14099121 .22024536H.7519989Z"/>
<path id="font_2_6" d="M.5169983 .22209168H.46998597C.46699525 .20207215 .45799256 .13800049 .44400025 .1309967 .43299867 .125 .35798646 .125 .34199525 .125H.19499207C.24198914 .16403198 .2939911 .20707703 .33898927 .2401123 .45298768 .3242035 .5169983 .37124635 .5169983 .4663086 .5169983 .5812988 .41299439 .65527346 .27198792 .65527346 .15098572 .65527346 .056991579 .593277 .056991579 .50331118 .056991579 .44430543 .10499573 .42930604 .1289978 .42930604 .16099549 .42930604 .20098877 .4513092 .20098877 .50131228 .20098877 .55329897 .15899658 .5693054 .14399719 .5733032 .17298889 .5972748 .21099854 .6082611 .24699402 .6082611 .33299256 .6082611 .3789978 .54029849 .3789978 .4653015 .3789978 .39627076 .34098817 .3282013 .2709961 .25712586L.069992069 .051986696C.056991579 .039993287 .056991579 .037994386 .056991579 .017990113V0H.48599244L.5169983 .22209168Z"/>
<path id="font_4_75" d="M.93499758 0V.04699707H.8659973V.30613709C.8659973 .40919496 .8149872 .4501953 .71199038 .4501953 .62098696 .4501953 .56900027 .40019227 .54299929 .3541565 .522995 .44718934 .43099977 .4501953 .3929901 .4501953 .30599977 .4501953 .24899292 .40518189 .21699524 .3421631V.4501953L.04499817 .4423828V.39537049C.10699463 .39537049 .11399841 .39537049 .11399841 .3563385V.04699707H.04499817V0L.17098999 .0029907227 .29699708 0V.04699707H.22799683V.2562256C.22799683 .3653412 .31498719 .41436769 .3769989 .41436769 .41099549 .41436769 .43299867 .39437867 .43299867 .31729127V.04699707H.3639984V0L.48999024 .0029907227 .6159973 0V.04699707H.5469971V.2562256C.5469971 .3653412 .6339874 .41436769 .69599917 .41436769 .7299957 .41436769 .7519989 .39437867 .7519989 .31729127V.04699707H.68299868V0L.8089905 .0029907227 .93499758 0Z"/>
<path id="font_4_66" d="M.28599549 0V.04699707H.22399903V.4501953L.049987794 .4423828V.39537049C.10899353 .39537049 .115997318 .39537049 .115997318 .3563385V.04699707H.04699707V0L.16899109 .0029907227 .28599549 0M.23799134 .60728457C.23799134 .6502838 .20298767 .6852875 .1599884 .6852875 .116989139 .6852875 .08198547 .6502838 .08198547 .60728457 .08198547 .5642853 .116989139 .5292969 .1599884 .5292969 .20298767 .5292969 .23799134 .5642853 .23799134 .60728457Z"/>
<path id="font_4_47" d="M.6009979 0V.04699707C.5389862 .04699707 .5319977 .04699707 .5319977 .086013797V.69433596L.35499574 .6855469V.63853457C.4169922 .63853457 .42399598 .63853457 .42399598 .5996704V.40518189C.37399293 .44418336 .32199098 .4501953 .2889862 .4501953 .14299011 .4501953 .037994386 .36218263 .037994386 .22116089 .037994386 .089141849 .12998963-.005859375 .27799989-.005859375 .33898927-.005859375 .3869934 .018127442 .41799928 .043136598V-.005859375L.6009979 0M.41799928 .102996829C.40499879 .08514404 .3639984 .030136109 .28799439 .030136109 .1659851 .030136109 .1659851 .15115357 .1659851 .22116089 .1659851 .26916505 .1659851 .3231659 .19198609 .36218263 .22099304 .40419007 .2679901 .41418458 .29899598 .41418458 .35598756 .41418458 .3959961 .3821869 .41799928 .35317994V.102996829Z"/>
<path id="font_4_72" d="M.29299928 0V.04699707H.22399903V.69433596L.04699707 .6855469V.63853457C.10899353 .63853457 .115997318 .63853457 .115997318 .5995636V.04699707H.04699707V0L.16999817 .0029907227 .29299928 0Z"/>
<path id="font_4_77" d="M.61499026 0V.04699707H.54599V.30613709C.54599 .41119386 .49198915 .4501953 .3919983 .4501953 .29599 .4501953 .24299622 .39318849 .21699524 .3421631V.4501953L.04499817 .4423828V.39537049C.10699463 .39537049 .11399841 .39537049 .11399841 .3563385V.04699707H.04499817V0L.17098999 .0029907227 .29699708 0V.04699707H.22799683V.2562256C.22799683 .3653412 .31399537 .41436769 .3769989 .41436769 .41099549 .41436769 .43199159 .39337159 .43199159 .31729127V.04699707H.36299134V0L.4889984 .0029907227 .61499026 0Z"/>
<path id="font_4_50" d="M.49398805 .11706543C.49398805 .13504029 .47499085 .13504029 .46998597 .13504029 .45298768 .13504029 .45098878 .13005066 .44499208 .11405945 .42399598 .066101077 .36698915 .03413391 .3019867 .03413391 .16099549 .03413391 .1599884 .16700745 .1599884 .2179718H.46199037C.48399354 .2179718 .49398805 .2179718 .49398805 .2449646 .49398805 .27598573 .48799134 .34906007 .43798829 .3991089 .40098573 .43511964 .34799195 .453125 .2789917 .453125 .11898804 .453125 .03199768 .35005189 .03199768 .22497559 .03199768 .09107971 .13198853-.005859375 .29299928-.005859375 .45098878-.005859375 .49398805 .10006714 .49398805 .11706543M.39898683 .25097657H.1599884C.1619873 .29000855 .16299439 .3320465 .18399048 .36506654 .20999146 .4051056 .25 .41711427 .2789917 .41711427 .3959961 .41711427 .397995 .28599549 .39898683 .25097657Z"/>
<path id="font_5_3" d="M.5499878 .39736939C.5169983 .38838197 .49299623 .35838319 .49299623 .32537843 .49299623 .28938294 .5209961 .27539063 .54499819 .27539063 .58299258 .27539063 .62098696 .30638124 .62098696 .35838319 .62098696 .41610719 .56399539 .45210267 .5029907 .45210267 .45498658 .45210267 .4169922 .4250946 .3919983 .39338685 .37799073 .41111756 .34399415 .45210267 .25 .45210267 .117996219 .45210267 .04899597 .3303833 .04899597 .29638673 .04899597 .28138734 .06298828 .28138734 .07499695 .28138734 .09098816 .28138734 .09599304 .28138734 .099990848 .29537965 .1329956 .39338685 .21299744 .41210938 .24398804 .41210938 .30299378 .41210938 .30299378 .37438966 .30299378 .36138917 .30299378 .3423767 .2889862 .28637696 .27999879 .24926758 .27198792 .21914673 .25299073 .14093018 .24699402 .11993408 .23098755 .056930543 .19198609 .032180787 .16099549 .032180787 .13999939 .032180787 .12098694 .04005432 .11099243 .046951295 .14399719 .05593872 .16799927 .0859375 .16799927 .11894226 .16799927 .15493775 .13999939 .16894531 .115997318 .16894531 .07798767 .16894531 .039993287 .13793946 .039993287 .0859375 .039993287 .028182984 .09700012-.0078125 .1579895-.0078125 .20599365-.0078125 .24398804 .019180298 .2689972 .050933839 .2829895 .03315735 .31698609-.0078125 .41099549-.0078125 .54299929-.0078125 .6119995 .11393738 .6119995 .14793396 .6119995 .16394043 .59498599 .16394043 .58599856 .16394043 .56799319 .16394043 .5649872 .16093445 .5609894 .14894104 .5279999 .050933839 .44799806 .032180787 .4169922 .032180787 .35798646 .032180787 .35798646 .06993103 .35798646 .08293152 .35798646 .10194397 .37199403 .15794373 .3809967 .1950531 .3889923 .22517395 .4079895 .3033905 .4139862 .3243866 .42999269 .38739015 .46899415 .41210938 .5 .41210938 .5209961 .41210938 .5399933 .40423585 .5499878 .39736939Z"/>
<path id="font_5_4" d="M.59498599 .3731079C.598999 .38909913 .598999 .394104 .598999 .3981018 .598999 .4320984 .57199099 .44410707 .5509949 .44410707 .49798585 .44410707 .48599244 .3961029 .47898866 .3701172L.45298768 .26612855C.43899537 .21113587 .42599488 .15615845 .41099549 .10116577 .4099884 .09416199 .3659973 .032180787 .30099488 .032180787 .2579956 .032180787 .23799134 .057174684 .23799134 .10417175 .23799134 .16314698 .27198792 .24913025 .29899598 .3171234 .30499269 .33111573 .31098939 .3461151 .31098939 .36210633 .31098939 .41410829 .25898744 .45210267 .19299317 .45210267 .08699036 .45210267 .032989503 .32011415 .032989503 .29612733 .032989503 .28112794 .04699707 .28112794 .05899048 .28112794 .07499695 .28112794 .07998657 .28112794 .083999637 .29512025 .11898804 .4091034 .1769867 .41210938 .18699646 .41210938 .19299317 .41210938 .20399475 .41210938 .20399475 .3901062 .20399475 .36810304 .19299317 .3421173 .18798828 .32911683 .147995 .22813416 .12799073 .17315674 .12799073 .12416077 .12799073 .0231781 .20899964-.0078125 .29299928-.0078125 .30899049-.0078125 .34700013-.0078125 .3919983 .02218628 .36999513-.08416748 .29599-.16210938 .21598816-.16210938 .21398926-.16210938 .18499756-.16210938 .16099549-.15216065 .18399048-.14016724 .20399475-.11515808 .20399475-.0851593 .20399475-.04916382 .17599488-.03515625 .1519928-.03515625 .10899353-.03515625 .07598877-.07316589 .07598877-.11416626 .07598877-.17111206 .13699341-.20211792 .21598816-.20211792 .33799745-.20211792 .47099305-.123168949 .5009918-.0018157959L.59498599 .3731079Z"/>
<path id="font_6_1" d="M.9819946 .20703125C.99398806 .20703125 1.0379944 .20703125 1.0379944 .25003053 1.0379944 .2930298 .99398806 .2930298 .9819946 .2930298H.20999146C.19799805 .2930298 .1539917 .2930298 .1539917 .25003053 .1539917 .20703125 .19799805 .20703125 .20999146 .20703125H.9819946Z"/>
<path id="font_7_3" d="M.6689911 .2110138H.58599856C.57899478 .17199707 .5649872 .14698792 .55599978 .14498902 .5319977 .14199829 .4889984 .14199829 .45498658 .14199829H.30599977C.36999513 .18299866 .43099977 .22102356 .47399903 .24401856 .58599856 .30604554 .6689911 .35205079 .6689911 .4560852 .6689911 .5801239 .5549927 .6611328 .35699464 .6611328 .30999757 .6611328 .08898926 .66012576 .08898926 .5131073 .08898926 .45307923 .13798523 .42907716 .17098999 .42907716 .21099854 .42907716 .2539978 .4570923 .2539978 .5121002 .2539978 .54811099 .23298645 .5691223 .22799683 .5741272 .2639923 .59213259 .30099488 .59413149 .32398988 .59413149 .42199708 .59413149 .5099945 .54711917 .5099945 .45509339 .5099945 .37705995 .44898988 .31803895 .3849945 .2720337L.10598755 .068984989C.08898926 .056991579 .08898926 .052993776 .08898926 .0309906V0H.6299896L.6689911 .2110138Z"/>
<path id="font_7_2" d="M.45899964 .6231842C.45899964 .654129 .45298768 .6611328 .42099 .6611328H.3999939C.31498719 .5972595 .18598938 .5972595 .16299439 .5972595H.13598633V.53027346H.16299439C.1749878 .53027346 .2519989 .53027346 .32499696 .55526736V.066986087H.14399719V0C.19299317 .0039978029 .33499146 .0039978029 .3919983 .0039978029 .44898988 .0039978029 .59098818 .0039978029 .6399994 0V.066986087H.45899964V.6231842Z"/>
<path id="font_7_4" d="M.36299134 .3203125C.49699403 .3203125 .5089874 .2373352 .5089874 .18234253 .5089874 .13237 .5 .044387819 .3639984 .044387819 .34298707 .044387819 .2649994 .04638672 .21398926 .07937622 .23498535 .09437561 .25 .11936951 .25 .15135193 .25 .2003479 .21398926 .2373352 .1639862 .2373352 .11399841 .2373352 .07699585 .20333863 .07699585 .14935303 .07699585 .05038452 .17599488-.016601563 .36698915-.016601563 .6139984-.016601563 .68099978 .103378299 .68099978 .18135071 .68099978 .2703247 .598999 .3283081 .5019989 .3513031 .5609894 .37130738 .6399994 .42126466 .6399994 .51319888 .6399994 .59513857 .5499878 .6611328 .37098695 .6611328 .21099854 .6611328 .117996219 .59313967 .117996219 .5002136 .117996219 .44425965 .1619873 .41827394 .19898987 .41827394 .23999024 .41827394 .27999879 .4482422 .27999879 .49920655 .27999879 .548172 .24198914 .56915286 .23999024 .57014468 .2809906 .5991211 .33299256 .6051178 .3659973 .6051178 .46398927 .6051178 .4850006 .5631561 .4850006 .51519778 .4850006 .47323609 .45999146 .38430787 .33999635 .37930299 .32899476 .37930299 .28399659 .37730409 .2769928 .37631227 .25898744 .3722992 .25898744 .3553009 .25898744 .34831239 .25898744 .3203125 .2749939 .3203125 .2939911 .3203125H.36299134Z"/>
<path id="font_7_6" d="M.23298645 .4913025C.2709961 .4873047 .31098939 .4873047 .31298829 .4873047 .46499635 .4873047 .5549927 .56030276 .5970001 .603302 .6100006 .6163025 .6119995 .6183014 .6119995 .6333008 .6119995 .6382904 .6119995 .66130068 .58999636 .66130068 .58799746 .66130068 .58599856 .66130068 .57899478 .6582947 .5399933 .6483002 .46899415 .629303 .37599183 .629303 .30799867 .629303 .24198914 .6392975 .17599488 .65730288 .1659851 .66130068 .1639862 .66130068 .16099549 .66130068 .13899231 .66130068 .13899231 .6392975 .13899231 .6252899V.32437135C.13899231 .29237367 .14399719 .28536988 .1769867 .28536988 .19799805 .28536988 .19898987 .28637696 .21699524 .30337525 .23199463 .31837464 .27398683 .359375 .38398744 .359375 .5130005 .359375 .5130005 .26637269 .5130005 .2073822 .5130005 .14738465 .5130005 .044387819 .34599305 .044387819 .32899476 .044387819 .25498963 .045394899 .20698548 .08639526 .24398804 .10739136 .24699402 .14138794 .24699402 .15538025 .24699402 .20437622 .20799256 .234375 .16799927 .234375 .13198853 .234375 .08898926 .2093811 .08898926 .15338135 .08898926 .055389406 .18899536-.016601563 .34799195-.016601563 .56999209-.016601563 .6689911 .09138489 .6689911 .2013855 .6689911 .30236817 .58999636 .41537477 .3889923 .41537477 .32899476 .41537477 .2789917 .405365 .23298645 .38136292V.4913025Z"/>
<path id="font_7_5" d="M.70098879 .15527344V.22225952H.56999209V.6309509C.56999209 .6619415 .56399539 .6689453 .5319977 .6689453H.46099855C.43499757 .6689453 .43099977 .66693118 .4189911 .65193179L.056991579 .22225952V.15527344H.42799378V.06689453H.2869873V-.00010681152C.33599855 .00390625 .44299317 .00390625 .49699403 .00390625 .5529938 .00390625 .647995 .00390625 .70098879-.00010681152V.06689453H.56999209V.15527344H.70098879M.44499208 .5799866V.22225952H.14399719L.44499208 .5799866Z"/>
<path id="font_7_1" d="M.68499758 .31726075C.68499758 .48518373 .6439972 .6611328 .3789978 .6611328 .116989139 .6611328 .07299805 .48918153 .07299805 .31726075 .07299805 .13934326 .125-.016601563 .3789978-.016601563 .6369934-.016601563 .68499758 .14334107 .68499758 .31726075M.3789978 .039398195C.33999635 .039398195 .25898744 .0493927 .23699951 .13034058 .22399903 .17932129 .22299195 .26028443 .22299195 .33224488 .22299195 .4052124 .22299195 .48417665 .23999024 .53215029 .25698854 .5771332 .30899049 .6051178 .3789978 .6051178 .43798829 .6051178 .49899293 .5851288 .5189972 .52716067 .5349884 .4811859 .5349884 .39822389 .5349884 .33224488 .5349884 .271286 .5349884 .17732239 .519989 .12834168 .49598695 .04838562 .41600038 .039398195 .3789978 .039398195Z"/>
<path id="font_8_1" d="M.40699769-.23200989C.40699769-.2250061 .4039917-.22200012 .3919983-.21200562 .2649994-.09700012 .21998596 .07798767 .21998596 .25 .21998596 .42099 .2630005 .59599307 .3899994 .70899966 .4059906 .723999 .40699769 .72499087 .40699769 .7319946 .40699769 .74198916 .40098573 .75 .38598634 .75 .36698915 .75 .31399537 .70500186 .2939911 .6859894 .16899109 .56199648 .11399841 .4099884 .11399841 .25 .11399841 .16099549 .13198853 .039993287 .20599365-.07800293 .2689972-.17800904 .3639984-.25 .38598634-.25 .40098573-.25 .40699769-.2420044 .40699769-.23200989Z"/>
<path id="font_9_1" d="M.8019867 .21617127C.81599429 .21617127 .84999087 .21617127 .84999087 .25016786 .84999087 .2841797 .81599429 .2841797 .8019867 .2841797H.1499939C.13598633 .2841797 .101989749 .2841797 .101989749 .25016786 .101989749 .21617127 .13598633 .21617127 .1499939 .21617127H.8019867Z"/>
<path id="font_8_5" d="M.3789978 .62413027C.3789978 .6582031 .37298585 .6582031 .33299256 .6582031 .27198792 .61006167 .19198609 .5939789 .11399841 .5939789H.09199524V.5419922H.11399841C.13999939 .5419922 .19400025 .5449829 .2519989 .5619812V.051986696H.101989749V0C.13798523 .0029907227 .269989 .0029907227 .31498719 .0029907227 .3600006 .0029907227 .48999024 .0029907227 .5269928 0V.051986696H.3789978V.62413027Z"/>
<path id="font_10_3" d="M.22099304 .016998291C.21199036-.08493042 .1519928-.1348877 .1309967-.15187073 .11999512-.15986634 .115997318-.16287232 .115997318-.17185974 .115997318-.18086243 .12799073-.19386292 .13899231-.19386292 .15499878-.19386292 .2639923-.106918338 .2639923 .03199768 .2639923 .10499573 .22698975 .1599884 .16899109 .1599884 .12199402 .1599884 .08999634 .12399292 .08999634 .07998657 .08999634 .038986207 .11898804 0 .16999817 0 .18998719 0 .20899964 .0069885256 .22099304 .016998291Z"/>
<path id="font_8_6" d="M.5509949 .2280426H.49499513C.4869995 .16200257 .47399903 .14199829 .46798707 .13899231 .45700074 .1329956 .37998963 .1329956 .36299134 .1329956H.22499085C.35899354 .23805237 .41299439 .2680664 .45599366 .30108644 .526001 .35612489 .5509949 .40615846 .5509949 .46316529 .5509949 .58117678 .44198609 .6582031 .2899933 .6582031 .1619873 .6582031 .06098938 .6011963 .06098938 .50717166 .06098938 .4481659 .10899353 .4291687 .13699341 .4291687 .17199707 .4291687 .21398926 .4541626 .21398926 .50616458 .21398926 .5531616 .17999268 .5721588 .16699219 .5771637 .19499207 .5981903 .23498535 .6062012 .2659912 .6062012 .35598756 .6062012 .4059906 .5391693 .4059906 .4621582 .4059906 .38113404 .35299684 .31410218 .2939911 .25906373L.07299805 .052993776C.06199646 .041992189 .06098938 .040985109 .06098938 .020996094V0H.5179901L.5509949 .2280426Z"/>
<path id="font_8_2" d="M.36099244 .25C.36099244 .33898927 .34298707 .45999146 .2689972 .5779877 .20599365 .6779938 .11099243 .75 .08898926 .75 .07199097 .75 .067993167 .7389984 .067993167 .7319946 .067993167 .72499087 .07199097 .72099307 .08299255 .71199038 .20999146 .5970001 .25498963 .42199708 .25498963 .25 .25498963 .07899475 .21199036-.0960083 .084991458-.2090149 .07299805-.22000122 .067993167-.22401428 .067993167-.23200989 .067993167-.23901367 .07199097-.25 .08898926-.25 .10798645-.25 .16099549-.20500183 .18099976-.18600464 .30599977-.06201172 .36099244 .08999634 .36099244 .25Z"/>
<path id="font_8_4" d="M.56399539 .31925965C.56399539 .4352417 .5549927 .6582031 .30599977 .6582031 .055999757 .6582031 .04798889 .4332428 .04798889 .31925965 .04798889 .20729065 .054992677-.013671875 .30599977-.013671875 .55799868-.013671875 .56399539 .20828247 .56399539 .31925965M.30599977 .028320313C.2789917 .028320313 .25099183 .03831482 .22999573 .05531311 .19799805 .08331299 .18299866 .0973053 .18299866 .33125306 .18299866 .40324403 .18299866 .4762268 .19299317 .5262146 .20599365 .5971985 .2679901 .6161957 .30599977 .6161957 .32998658 .6161957 .4059906 .610199 .42099 .515213 .42900086 .4662323 .42900086 .3892517 .42900086 .33125306 .42900086 .10231018 .4149933 .08830261 .38398744 .05831909 .37599183 .049316408 .34799195 .028320313 .30599977 .028320313Z"/>
<path id="font_8_9" d="M.17599488 .5010834C.20799256 .49609376 .24198914 .49609376 .24798584 .49609376 .27398683 .49609376 .34199525 .49609376 .4169922 .54408267 .44299317 .56108096 .5029907 .611084 .5029907 .63708499 .5029907 .65208438 .49499513 .65808108 .4850006 .65808108 .48298646 .65808108 .48098756 .65808108 .46998597 .65309146 .42099 .63609316 .3619995 .6260834 .30699159 .6260834 .2619934 .6260834 .20498657 .6320801 .13999939 .65408328 .13198853 .65808108 .12998963 .65808108 .1269989 .65808108 .10998535 .65808108 .10998535 .64108279 .10998535 .62709048V.33319093C.10998535 .3142395 .10998535 .29927064 .13699341 .29927064 .1519928 .29927064 .15499878 .30126954 .16499329 .31323243 .20498657 .36112977 .2669983 .3701172 .30599977 .3701172 .4019928 .3701172 .4019928 .27931214 .4019928 .20341492 .4019928 .13441468 .4019928 .033325197 .27198792 .033325197 .21998596 .033325197 .16999817 .055358888 .14299011 .089416507 .18499756 .09541321 .20498657 .12741089 .20498657 .16041565 .20498657 .2064209 .16899109 .23242188 .1329956 .23242188 .101989749 .23242188 .06098938 .2124176 .06098938 .15841675 .06098938 .068374637 .1459961-.013671875 .27598573-.013671875 .45399476-.013671875 .5509949 .08340454 .5509949 .20141602 .5509949 .31323243 .47099305 .41210938 .30999757 .41210938 .2619934 .41210938 .21598816 .4031067 .17599488 .3781128V.5010834Z"/>
<path id="font_11_13" d="M.80799868 .33398438C.82199099 .33398438 .8529968 .33398438 .8529968 .36598207 .8529968 .39797975 .82199099 .39797975 .8089905 .39797975H.10998535C.09700012 .39797975 .06599426 .39797975 .06599426 .36598207 .06599426 .33398438 .09799194 .33398438 .11099243 .33398438H.80799868M.8089905 .102005008C.82199099 .102005008 .8529968 .102005008 .8529968 .13400269 .8529968 .16601563 .82099917 .16601563 .80799868 .16601563H.11099243C.09799194 .16601563 .06599426 .16601563 .06599426 .13400269 .06599426 .102005008 .09700012 .102005008 .10998535 .102005008H.8089905Z"/>
<path id="font_12_1" d="M.7749939 .21821594C.78900149 .21821594 .82099917 .21821594 .82099917 .25021363 .82099917 .28222657 .78900149 .28222657 .7749939 .28222657H.14399719C.12998963 .28222657 .09799194 .28222657 .09799194 .25021363 .09799194 .21821594 .12998963 .21821594 .14399719 .21821594H.7749939Z"/>
<path id="font_11_7" d="M.272995 .328125C.3849945 .328125 .3849945 .23036194 .3849945 .18037415 .3849945 .13537598 .3849945 .03327942 .27799989 .03327942 .2659912 .03327942 .19699097 .03527832 .15098572 .068374637 .19699097 .08137512 .20698548 .12037659 .20698548 .14337158 .20698548 .19036865 .17399597 .22238159 .12799073 .22238159 .084991458 .22238159 .04899597 .19337464 .04899597 .14237976 .04899597 .048324586 .14898682-.01171875 .2829895-.01171875 .46598817-.01171875 .5419922 .088378909 .5419922 .18037415 .5419922 .2592926 .48199464 .328125 .36898805 .35211183 .46998597 .38711549 .5089874 .45610047 .5089874 .51708987 .5089874 .5921478 .43399049 .65625 .2849884 .65625 .1619873 .65625 .08198547 .59013369 .08198547 .50909426 .08198547 .46409608 .11399841 .4360962 .1539917 .4360962 .19699097 .4360962 .22599793 .4670868 .22599793 .50808718 .22599793 .5410919 .20698548 .5700989 .16699219 .57910159 .1749878 .5861206 .21598816 .61624148 .27999879 .61624148 .36698915 .61624148 .36698915 .5510864 .36698915 .51908877 .36698915 .463089 .34599305 .3761139 .2599945 .37112428 .25698854 .37112428 .22399903 .3691101 .21299744 .3681183 .19699097 .36611939 .19699097 .3551178 .19699097 .348114 .19699097 .328125 .20799256 .328125 .22599793 .328125H.272995Z"/>
<path id="font_11_18" d="M.39698792 .42411805C.39698792 .4421234 .39698792 .453125 .3769989 .453125 .36698915 .453125 .35099793 .44511415 .33299256 .43511964 .30099488 .44911195 .2619934 .453125 .22898865 .453125 .19799805 .453125 .038986207 .453125 .038986207 .32112123 .038986207 .21612549 .16999817 .19412232 .20498657 .18812561 .2869873 .1741333 .35299684 .16313172 .35299684 .10612488 .35299684 .03413391 .25898744 .03413391 .23699951 .03413391 .18598938 .03413391 .12098694 .0471344 .09199524 .13912964 .08699036 .15612793 .085998538 .15913391 .06498718 .15913391 .038986207 .15913391 .038986207 .15312195 .038986207 .12913513V.023132325C.038986207 .005126953 .038986207-.005859375 .05899048-.005859375 .06599426-.005859375 .067993167-.005859375 .08999634 .008132935L.116989139 .025131226C.1639862-.005859375 .21699524-.005859375 .23699951-.005859375 .2669983-.005859375 .4269867-.005859375 .4269867 .14012146 .4269867 .19113159 .397995 .22312927 .37998963 .23812866 .33499146 .27612306 .30299378 .28112794 .22399903 .29412843 .17599488 .30212403 .11299133 .31211854 .11299133 .3571167 .11299133 .41711427 .20599365 .41711427 .22799683 .41711427 .33999635 .41711427 .34399415 .35812379 .34599305 .33111573 .34700013 .3171234 .36099244 .3171234 .37098695 .3171234 .3959961 .3171234 .39698792 .3221283 .39698792 .3461151V.42411805Z"/>
<path id="font_11_15" d="M.23999024 .6163025C.23999024 .66830447 .19799805 .6953125 .1619873 .6953125 .115997318 .6953125 .08299255 .65631106 .08299255 .6173096 .08299255 .5753021 .116989139 .53829959 .1619873 .53829959 .19999695 .53829959 .23999024 .56829836 .23999024 .6163025M.054992677 .44218446V.39318849C.11299133 .39318849 .11999512 .39318849 .11999512 .35417176V.04899597H.051986696V0C.11898804 .0019989014 .13198853 .0029907227 .17399597 .0029907227 .22299195 .0029907227 .23599243 .0019989014 .2919922 0V.04899597H.23098755V.4501953L.054992677 .44218446Z"/>
<path id="font_11_16" d="M.56199648 .30513C.56199648 .42419435 .48999024 .4501953 .40299989 .4501953 .27999879 .4501953 .23098755 .3601532 .22399903 .3451538H.22299195V.4501953L.049987794 .44218446V.39317323C.10998535 .39317323 .117996219 .39317323 .117996219 .3541565V.04899597H.049987794V0C.12399292 .0029907227 .13598633 .0029907227 .17599488 .0029907227 .21699524 .0029907227 .22698975 .0029907227 .30299378 0V.04899597H.23498535V.2541046C.23498535 .36616517 .32699586 .41018678 .3869934 .41018678 .4249878 .41018678 .44499208 .38917542 .44499208 .3141327V.04899597H.3769989V0C.45098878 .0029907227 .46299745 .0029907227 .5029907 .0029907227 .5439911 .0029907227 .55400088 .0029907227 .6299896 0V.04899597H.56199648V.30513Z"/>
<path id="font_5_1" d="M.32299806 .34472657H.43499757C.41799928 .27182008 .4039917 .20892334 .4039917 .14102173 .4039917 .070114139 .42399598-.0087890629 .47499085-.0087890629 .5039978-.0087890629 .5439911 .021194458 .5439911 .058135988 .5439911 .07211304 .5399933 .07810974 .5339966 .08909607 .4869995 .1659851 .48399354 .23487854 .48399354 .27581788 .48399354 .29179383 .48399354 .3127594 .4889984 .34472657H.61698916C.6349945 .34472657 .651001 .34472657 .6669922 .35972596 .6879883 .37872315 .6879883 .40072633 .6879883 .40272523 .6879883 .4437256 .6499939 .4437256 .6339874 .4437256H.22698975C.20298767 .4437256 .16299439 .4437256 .102996829 .39071656 .08099365 .37171937 .03199768 .31576539 .03199768 .30278016 .03199768 .2868042 .04798889 .2868042 .056991579 .2868042 .07299805 .2868042 .07398987 .2868042 .083999637 .29878236 .12199402 .34472657 .18598938 .34472657 .20799256 .34472657H.2689972C.23999024 .26083375 .20999146 .19593811 .147995 .083099368 .13598633 .06112671 .1309967 .053146364 .1309967 .03816223 .1309967 .015197754 .14898682-.007797241 .18099976-.007797241 .21499634-.007797241 .23399353 .019195557 .23799134 .026184082 .24499512 .03616333 .2579956 .09109497 .25898744 .09307861L.32299806 .34472657Z"/>
<path id="font_11_1" d="M.3929901-.23400879C.3929901-.22801209 .3899994-.2250061 .37799073-.2130127 .24699402-.0900116 .21099854 .08799744 .21099854 .25 .21099854 .4169922 .25 .59098818 .37399293 .71099856 .3919983 .7279968 .3929901 .72898867 .3929901 .73498538 .3929901 .746994 .38198854 .75 .37298585 .75 .35198976 .75 .29899598 .69999697 .28799439 .68899539 .18798828 .5950012 .10998535 .43998719 .10998535 .25 .10998535 .008987427 .23199463-.13800049 .28399659-.18701172 .2919922-.19400025 .35099793-.25 .37298585-.25 .3769989-.25 .3929901-.25 .3929901-.23400879Z"/>
<path id="font_11_3" d="M.49198915 .21821594H.8089905C.82199099 .21821594 .8529968 .21821594 .8529968 .25021363 .8529968 .28222657 .82199099 .28222657 .8089905 .28222657H.49198915V.6000366C.49198915 .61302188 .49198915 .64401248 .45999146 .64401248 .42799378 .64401248 .42799378 .61302188 .42799378 .6000366V.28222657H.10998535C.09700012 .28222657 .06599426 .28222657 .06599426 .25021363 .06599426 .21821594 .09700012 .21821594 .10998535 .21821594H.42799378V-.10003662C.42799378-.11305237 .42799378-.14405823 .45999146-.14405823 .49198915-.14405823 .49198915-.11305237 .49198915-.10003662V.21821594Z"/>
<path id="font_11_5" d="M.3639984 .6231537C.3639984 .6452484 .3639984 .65625 .33499146 .65625 .32299806 .65625 .32099916 .65625 .31199647 .6492462 .23498535 .5919647 .12799073 .5919647 .10798645 .5919647H.08799744V.54296877H.10798645C.13198853 .54296877 .18598938 .5459595 .24198914 .56295779V.04899597H.09899902V0C.13699341 .0029907227 .2579956 .0029907227 .30299378 .0029907227 .34999085 .0029907227 .46798707 .0029907227 .5089874 0V.04899597H.3639984V.6231537Z"/>
<path id="font_11_2" d="M.34899903 .25C.34899903 .4909973 .22698975 .6380005 .1749878 .68699648 .16699219 .69400027 .10798645 .75 .085998538 .75 .07899475 .75 .06599426 .74798586 .06599426 .73399356 .06599426 .7279968 .069992069 .723999 .07998657 .71398928 .20199585 .59599307 .24798584 .43699647 .24798584 .25 .24798584 .08299255 .20899964-.09100342 .084991458-.2110138 .066986087-.22801209 .06599426-.2290039 .06599426-.23400879 .06599426-.2480011 .07798767-.25 .085998538-.25 .10699463-.25 .1599884-.2000122 .17098999-.18901062 .2709961-.09500122 .34899903 .05999756 .34899903 .25Z"/>
<path id="font_11_6" d="M.5319977 .22505188H.48098756C.47898866 .21104431 .46998597 .13999939 .45498658 .1329956 .44198609 .12799073 .36799623 .12799073 .35099793 .12799073H.20799256C.26098634 .17102051 .32099916 .2180481 .37098695 .25306703 .45498658 .31211854 .5319977 .3661499 .5319977 .46418763 .5319977 .581192 .4249878 .65625 .27999879 .65625 .1559906 .65625 .05899048 .597229 .05899048 .505188 .05899048 .45318605 .09899902 .42918397 .13398743 .42918397 .1659851 .42918397 .20799256 .4521942 .20799256 .5041809 .20799256 .5261841 .19898987 .56318667 .15499878 .5751953 .18998719 .60324099 .23498535 .60723879 .25498963 .60723879 .33699037 .60723879 .3889923 .54618838 .3889923 .46318055 .3889923 .39115907 .34599305 .32511903 .29299928 .27108766L.069992069 .050994874C.05899048 .039993287 .05899048 .038986207 .05899048 .018997193V0H.5009918L.5319977 .22505188Z"/>
<path id="font_4_28" d="M.5529938 .023986817C.5529938 .04699707 .5399933 .04699707 .5269928 .04699707 .46598817 .04798889 .46598817 .06100464 .46598817 .083999637V.29907228C.46598817 .3881073 .394989 .453125 .24598694 .453125 .18899536 .453125 .066986087 .44911195 .066986087 .36109925 .066986087 .3170929 .101989749 .29808045 .1289978 .29808045 .1599884 .29808045 .19198609 .3190918 .19198609 .36109925 .19198609 .39111329 .17298889 .40811158 .16999817 .41011048 .19799805 .41612245 .22999573 .41711427 .24198914 .41711427 .31698609 .41711427 .35198976 .3751068 .35198976 .29907228V.26506043C.2809906 .2620697 .026992798 .25306703 .026992798 .10801697 .026992798 .012130737 .15098572-.005859375 .21998596-.005859375 .2999878-.005859375 .34700013 .035125734 .36898805 .07713318 .36898805 .04598999 .36898805 0 .47299195 0H.5209961C.54100039 0 .5529938 0 .5529938 .023986817M.35198976 .13899231C.35198976 .043151857 .2599945 .030136109 .23498535 .030136109 .18399048 .030136109 .14399719 .06517029 .14399719 .10922241 .14399719 .21734619 .3019867 .23136902 .35198976 .234375V.13899231Z"/>
<path id="font_4_84" d="M.59999087 .22319031C.59999087 .3561859 .5089874 .4501953 .36499024 .4501953 .2899933 .4501953 .23699951 .41918946 .21398926 .40118409V.4501953L.036987306 .4423828V.39537049C.09899902 .39537049 .10598755 .39537049 .10598755 .3573761V-.14648438H.036987306V-.1934967L.16299439-.19049073 .2889862-.1934967V-.14648438H.21998596V.03945923C.2630005 .004135132 .30699159-.005859375 .34799195-.005859375 .49798585-.005859375 .59999087 .08413696 .59999087 .22312927V.22319031M.47200013 .22312927C.47200013 .08213806 .4019928 .030136109 .33699037 .030136109 .32299806 .030136109 .27598573 .030136109 .23098755 .08413696 .21998596 .09713745 .21998596 .09812927 .21998596 .117126468V.32913209C.21998596 .34814454 .22099304 .3491516 .23498535 .36314393 .2749939 .4041443 .32699586 .41015626 .34899903 .41015626 .41600038 .41015626 .47200013 .3491516 .47200013 .22314453V.22312927Z"/>
<path id="font_4_105" d="M.38198854 .124176029V.17721558H.33499146V.12619019C.33499146 .058151246 .30299378 .03413391 .2749939 .03413391 .21699524 .03413391 .21699524 .09817505 .21699524 .1211853V.3973236H.36299134V.44433595H.21699524V.6357422H.16999817C.16899109 .53552249 .11999512 .43632508 .020996094 .43333436V.3973236H.102996829V.123184207C.102996829 .01612854 .18998719-.005859375 .26098634-.005859375 .33699037-.005859375 .38198854 .05114746 .38198854 .124176029Z"/>
<path id="font_4_109" d="M.61499026 .0001373291V.0471344C.5529938 .0471344 .54599 .0471344 .54599 .086135867V.4501953L.36299134 .44218446V.39518739C.4249878 .39518739 .43199159 .39518739 .43199159 .3561859V.16514588C.43199159 .08314514 .3809967 .030136109 .30799867 .030136109 .23098755 .030136109 .22799683 .055130006 .22799683 .10914612V.4501953L.04499817 .44218446V.39518739C.10699463 .39518739 .11399841 .39518739 .11399841 .3561859V.12313843C.11399841 .01612854 .19499207-.005859375 .2939911-.005859375 .31999208-.005859375 .3919983-.005859375 .43798829 .072143558V-.005859375L.61499026 .0001373291Z"/>
<path id="font_2_7" d="M.35198976 .35212709C.42099 .3731537 .49398805 .4303589 .49398805 .5164032 .49398805 .5933533 .41799928 .65527346 .2769928 .65527346 .1579895 .65527346 .07998657 .59135439 .07998657 .5113983 .07998657 .46839906 .11099243 .44140626 .14898682 .44140626 .19400025 .44140626 .21899414 .47340394 .21899414 .51039126 .21899414 .56840518 .16499329 .5793915 .16099549 .58039858 .19599915 .6082916 .23999024 .616272 .2709961 .616272 .35398866 .616272 .35699464 .5523987 .35699464 .5193939 .35699464 .50639346 .35598756 .3751526 .2519989 .36914063 .21099854 .36712647 .20899964 .36613465 .20399475 .36512757 .19400025 .36413575 .19198609 .35412599 .19198609 .34812928 .19198609 .33013917 .20199585 .33013917 .21998596 .33013917H.2639923C.37298585 .33013917 .37298585 .23240662 .37298585 .18144226 .37298585 .13444519 .37298585 .03225708 .2689972 .03225708 .24299622 .03225708 .19099427 .03627014 .14299011 .06645203 .17599488 .07543945 .20098877 .10044861 .20098877 .14144898 .20098877 .18644715 .16899109 .217453 .125 .217453 .08299255 .217453 .04798889 .19044495 .04798889 .13945008 .04798889 .049346925 .14498902-.0107421879 .27398683-.0107421879 .45298768-.0107421879 .526001 .08944702 .526001 .18045044 .526001 .23539734 .49699403 .32115174 .35198976 .35212709Z"/>
</defs>
<path transform="matrix(1,0,0,-1,162.957,80.80499)" stroke-width=".79701" stroke-linecap="butt" stroke-dasharray="1.99255,1.99255" stroke-miterlimit="10" stroke-linejoin="miter" fill="none" stroke="#000000" d="M-107.96252-62.36331H167.49059"/>
<path transform="matrix(-1,-0,0,1,54.994485,143.1683)" d="M2.59026 0-1.55415 2.0722 0 0-1.55415-2.0722"/>
<path transform="matrix(1,0,0,-1,330.44758,143.1683)" d="M2.59026 0-1.55415 2.0722 0 0-1.55415-2.0722"/>
<use data-text="y" xlink:href="#font_1_8" transform="matrix(9.9626,0,0,-9.9626,9.851006,140.371)"/>
<use data-text="=" xlink:href="#font_2_12" transform="matrix(9.9626,0,0,-9.9626,18.868004,140.371)"/>
<use data-text="&#x2212;" xlink:href="#font_3_1" transform="matrix(9.9626,0,0,-9.9626,30.546006,140.371)"/>
<use data-text="2" xlink:href="#font_2_6" transform="matrix(9.9626,0,0,-9.9626,39.45701,140.371)"/>
<use data-text="m" xlink:href="#font_4_75" transform="matrix(9.9626,0,0,-9.9626,8.988007,152.326)"/>
<use data-text="i" xlink:href="#font_4_66" transform="matrix(9.9626,0,0,-9.9626,18.53218,152.326)"/>
<use data-text="d" xlink:href="#font_4_47" transform="matrix(9.9626,0,0,-9.9626,21.71025,152.326)"/>
<use data-text="l" xlink:href="#font_4_72" transform="matrix(9.9626,0,0,-9.9626,28.076355,152.326)"/>
<use data-text="i" xlink:href="#font_4_66" transform="matrix(9.9626,0,0,-9.9626,31.254426,152.326)"/>
<use data-text="n" xlink:href="#font_4_77" transform="matrix(9.9626,0,0,-9.9626,34.432497,152.326)"/>
<use data-text="e" xlink:href="#font_4_50" transform="matrix(9.9626,0,0,-9.9626,40.7986,152.326)"/>
<path transform="matrix(1,0,0,-1,162.957,80.80499)" stroke-width=".79701" stroke-linecap="butt" stroke-miterlimit="10" stroke-linejoin="miter" fill="none" stroke="#000000" d="M-105.89032 0H165.41838"/>
<path transform="matrix(-1,-0,0,1,57.06668,80.80499)" d="M4.66248 0C3.28098 .25902 1.0361 1.0361-.51805 1.94269V-1.94269C1.0361-1.0361 3.28098-.25902 4.66248 0"/>
<path transform="matrix(1,0,0,-1,328.37538,80.80499)" d="M4.66248 0C3.28098 .25902 1.0361 1.0361-.51805 1.94269V-1.94269C1.0361-1.0361 3.28098-.25902 4.66248 0"/>
<use data-text="x" xlink:href="#font_5_3" transform="matrix(8.9664,0,0,-8.9664,336.75703,82.79799)"/>
<path transform="matrix(1,0,0,-1,162.957,80.80499)" stroke-width=".79701" stroke-linecap="butt" stroke-miterlimit="10" stroke-linejoin="miter" fill="none" stroke="#000000" d="M0-182.42749V57.70084"/>
<path transform="matrix(0,1,1,0,162.957,263.23249)" d="M4.66248 0C3.28098 .25902 1.0361 1.0361-.51805 1.94269V-1.94269C1.0361-1.0361 3.28098-.25902 4.66248 0"/>
<path transform="matrix(0,-1,-1,-0,162.957,23.104153)" d="M4.66248 0C3.28098 .25902 1.0361 1.0361-.51805 1.94269V-1.94269C1.0361-1.0361 3.28098-.25902 4.66248 0"/>
<use data-text="y" xlink:href="#font_5_4" transform="matrix(8.9664,0,0,-8.9664,160.06201,12.978993)"/>
<path transform="matrix(1,0,0,-1,162.957,80.80499)" stroke-width=".79701" stroke-linecap="butt" stroke-miterlimit="10" stroke-linejoin="miter" fill="none" stroke="#000000" d="M-85.04042 1.8708V-1.8708"/>
<use data-text="&#x2212;" xlink:href="#font_6_1" transform="matrix(4.9813,0,0,-4.9813,73.053,91.465)"/>
<use data-text="2" xlink:href="#font_7_3" transform="matrix(4.9813,0,0,-4.9813,79.002,91.465)"/>
<path transform="matrix(1,0,0,-1,162.957,80.80499)" stroke-width=".79701" stroke-linecap="butt" stroke-miterlimit="10" stroke-linejoin="miter" fill="none" stroke="#000000" d="M-42.5202 1.8708V-1.8708"/>
<use data-text="&#x2212;" xlink:href="#font_6_1" transform="matrix(4.9813,0,0,-4.9813,115.573,91.465)"/>
<use data-text="1" xlink:href="#font_7_2" transform="matrix(4.9813,0,0,-4.9813,121.522,91.465)"/>
<path transform="matrix(1,0,0,-1,162.957,80.80499)" stroke-width=".79701" stroke-linecap="butt" stroke-miterlimit="10" stroke-linejoin="miter" fill="none" stroke="#000000" d="M42.5202 1.8708V-1.8708"/>
<use data-text="1" xlink:href="#font_7_2" transform="matrix(4.9813,0,0,-4.9813,203.588,91.021999)"/>
<path transform="matrix(1,0,0,-1,162.957,80.80499)" stroke-width=".79701" stroke-linecap="butt" stroke-miterlimit="10" stroke-linejoin="miter" fill="none" stroke="#000000" d="M85.04042 1.8708V-1.8708"/>
<use data-text="2" xlink:href="#font_7_3" transform="matrix(4.9813,0,0,-4.9813,246.10901,91.021999)"/>
<path transform="matrix(1,0,0,-1,162.957,80.80499)" stroke-width=".79701" stroke-linecap="butt" stroke-miterlimit="10" stroke-linejoin="miter" fill="none" stroke="#000000" d="M127.56062 1.8708V-1.8708"/>
<use data-text="3" xlink:href="#font_7_4" transform="matrix(4.9813,0,0,-4.9813,288.629,91.021999)"/>
<path transform="matrix(1,0,0,-1,162.957,80.80499)" stroke-width=".79701" stroke-linecap="butt" stroke-miterlimit="10" stroke-linejoin="miter" fill="none" stroke="#000000" d="M2.5511-155.90831H-2.5511"/>
<use data-text="&#x2212;" xlink:href="#font_6_1" transform="matrix(4.9813,0,0,-4.9813,145.54199,237.959)"/>
<use data-text="5" xlink:href="#font_7_6" transform="matrix(4.9813,0,0,-4.9813,151.491,237.959)"/>
<path transform="matrix(1,0,0,-1,162.957,80.80499)" stroke-width=".79701" stroke-linecap="butt" stroke-miterlimit="10" stroke-linejoin="miter" fill="none" stroke="#000000" d="M2.5511-124.72664H-2.5511"/>
<use data-text="&#x2212;" xlink:href="#font_6_1" transform="matrix(4.9813,0,0,-4.9813,145.54199,206.777)"/>
<use data-text="4" xlink:href="#font_7_5" transform="matrix(4.9813,0,0,-4.9813,151.491,206.777)"/>
<path transform="matrix(1,0,0,-1,162.957,80.80499)" stroke-width=".79701" stroke-linecap="butt" stroke-miterlimit="10" stroke-linejoin="miter" fill="none" stroke="#000000" d="M2.5511-93.54497H-2.5511"/>
<use data-text="&#x2212;" xlink:href="#font_6_1" transform="matrix(4.9813,0,0,-4.9813,145.54199,175.59499)"/>
<use data-text="3" xlink:href="#font_7_4" transform="matrix(4.9813,0,0,-4.9813,151.491,175.59499)"/>
<path transform="matrix(1,0,0,-1,162.957,80.80499)" stroke-width=".79701" stroke-linecap="butt" stroke-miterlimit="10" stroke-linejoin="miter" fill="none" stroke="#000000" d="M2.5511-31.18166H-2.5511"/>
<use data-text="&#x2212;" xlink:href="#font_6_1" transform="matrix(4.9813,0,0,-4.9813,145.54199,113.231998)"/>
<use data-text="1" xlink:href="#font_7_2" transform="matrix(4.9813,0,0,-4.9813,151.491,113.231998)"/>
<path transform="matrix(1,0,0,-1,162.957,80.80499)" stroke-width=".79701" stroke-linecap="butt" stroke-miterlimit="10" stroke-linejoin="miter" fill="none" stroke="#000000" d="M2.5511 31.18166H-2.5511"/>
<use data-text="1" xlink:href="#font_7_2" transform="matrix(4.9813,0,0,-4.9813,151.492,51.22799)"/>
<use data-text="0" xlink:href="#font_7_1" transform="matrix(4.9813,0,0,-4.9813,154.809,88.384998)"/>
<path transform="matrix(1,0,0,-1,162.957,80.80499)" stroke-width="1.59404" stroke-linecap="butt" stroke-miterlimit="10" stroke-linejoin="miter" fill="none" stroke="#000000" d="M-92.89105-113.6157-92.75928-112.86414-91.97421-108.21371-91.18915-103.41057-90.40408-98.46754-89.61905-93.40602-88.83398-88.23747-88.04892-82.98184-87.26387-77.65771-86.4788-72.2822-85.69374-66.87384-84.9087-61.45264-84.12366-56.03-83.3386-50.63164-82.55353-45.27182-81.76846-39.96909-80.98341-34.742-80.19836-29.60771-79.4133-24.58475-78.62825-19.68454-77.84319-14.93279-77.05812-10.33946-76.27309-5.91742-75.48804-1.69095-74.70297 2.33565-73.91791 6.14392-73.13284 9.71808-72.3478 13.0553-71.56274 16.13702-70.77768 18.95181-69.99261 21.49542-69.20757 23.75926-68.4225 25.72903-67.63747 27.40335-66.85242 28.78079-66.06735 29.84561-65.28229 30.60213-64.49722 31.04889-63.71217 31.17735-62.92712 30.99179-62.14206 30.4965-61.357 29.68146-60.57195 28.56097-59.78688 27.13501-59.00185 25.40787-58.2168 23.38385-57.43173 21.07576-56.64667 18.48221-55.8616 15.61745-55.07655 12.49434-54.2915 9.11572-53.50644 5.49586-52.72137 1.65193-51.93633-2.41177-51.15126-6.67537-50.36623-11.12453-49.58116-15.74782-48.79611-20.52812-48.01105-25.44832-47.22598-30.49269-46.44093-35.64554-45.65588-40.8869-44.87082-46.20248-44.08575-51.56944-43.3007-56.97351-42.51564-62.39186-41.7306-67.81448-40.94554-73.21997-40.16049-78.58694-39.37543-83.89964-38.59036-89.14102-37.80531-94.29245-37.02026-99.33537-36.2352-104.25415-35.45013-109.03447-34.66508-113.65346-33.88002-118.1012-33.09496-122.36479-32.30992-126.42285-31.52487-130.26679-30.7398-133.88236-29.95474-137.2581-29.16968-140.37979-28.38464-143.24027-27.59958-145.82955-26.81451-148.13478-26.02946-150.15737-25.2444-151.88166-24.45934-153.30188-23.6743-154.42096-22.88925-155.22887-22.10419-155.72133-21.31912-155.904-20.53406-155.77126-19.74902-155.32163-18.96396-154.56227-18.1789-153.49315-17.39384-152.11289-16.60878-150.43428-15.82372-148.46164-15.03868-146.19351-14.25363-143.6485-13.46857-140.82942-12.6835-137.74343-11.89844-134.40477-11.1134-130.82917-10.32834-127.0152-9.54327-122.98999-8.75822-118.75922-7.97316-114.33434-7.1881-109.74101-6.40306-104.98495-5.61801-100.08476-4.83295-95.06036-4.04788-89.92465-3.26282-84.69614-2.47778-79.39198-1.69272-74.03217-.90765-68.63379-.12259-63.21117 .66241-57.78998 1.44748-52.3816 2.23251-47.00607 3.01756-41.68336 3.80263-36.42918 4.58769-31.26205 5.37276-26.20056 6.15779-21.26038 6.94286-16.45723 7.72792-11.80966 8.51299-7.33339 9.29803-3.03983 10.0831 1.05385 10.86813 4.93349 11.65318 8.58617 12.43825 12.00046 13.22331 15.1664 14.00838 18.06825 14.79343 20.70178 15.57848 23.05698 16.36354 25.1224 17.1486 26.89378 17.93365 28.36969 18.71872 29.53302 19.50375 30.38945 20.28882 30.93756 21.07387 31.17023 21.85893 31.08458 22.644 30.69061 23.42905 29.97978 24.2141 28.95776 24.99916 27.63031 25.78423 26.00165 26.56927 24.07184 27.35434 21.85512 28.13937 19.35577 28.92444 16.57666 29.70949 13.53491 30.49455 10.23909 31.27962 6.69489 32.06467 2.9223 32.84972-1.0686 33.63478-5.26941 34.41985-9.66145 35.2049-14.22766 35.98996-18.96086 36.775-23.8368 37.56006-28.84265 38.34511-33.96266 39.13017-39.17831 39.91524-44.46962 40.7003-49.82089 41.48534-55.21782 42.2704-60.63617 43.05547-66.0588 43.84052-71.47142 44.62558-76.85266 45.41061-82.18536 46.19568-87.45241 46.98073-92.6338 47.7658-97.71387 48.55086-102.67403 49.33592-107.50145 50.12096-112.17326 50.90602-116.68095 51.69109-121.0045 52.47614-125.12964 53.2612-129.0435 54.04623-132.73616 54.8313-136.19043 55.61635-139.3949 56.40141-142.34244 57.18648-145.02164 57.97154-147.41965 58.75658-149.53217 59.54164-151.35637 60.3267-152.87369 61.11177-154.09123 61.89682-155.0019 62.68188-155.59569 63.46692-155.87833 64.25197-155.84978 65.03703-155.50006 65.8221-154.84062 66.60716-153.87429 67.3922-152.5939 68.17726-151.01238 68.96233-149.13393 69.74739-146.96004 70.53244-144.50495 71.3175-141.77292 72.10254-138.77256 72.88759-135.51526 73.67265-132.01247 74.45772-128.27701 75.24278-124.31744 76.02782-120.15091 76.81288-115.78883 77.59795-111.24832 78.38301-106.54224 79.16806-101.68915 79.95313-96.70186 80.73816-91.59897 81.52321-86.40044 82.30827-81.11913 83.09334-75.77498 83.8784-70.3852 84.66344-64.96971 85.4485-59.54709 86.23357-54.13014 87.01863-48.74464 87.80368-43.40195 88.58875-38.12206 89.37378-32.92638 90.15884-27.8292 90.9439-22.84479 91.72896-17.9988 92.51402-13.29985 93.29906-8.76364 94.08412-4.41153 94.86919-.25214 95.65425 3.6988 96.4393 7.42569 97.22437 10.9185 98.0094 14.16722 98.79446 17.15619 99.57951 19.87819 100.36458 22.32474 101.14964 24.48436 100.4685 22.86264"/>
<path transform="matrix(-.17256,.98499,.98499,.17256,70.06596,194.42069)" d="M3.78581 0-2.27148 3.02866 0 0-2.27148-3.02866"/>
<path transform="matrix(.38728,-.9219,-.9219,-.38728,263.4255,57.942354)" d="M3.78581 0-2.27148 3.02866 0 0-2.27148-3.02866"/>
<path transform="matrix(1,0,0,-1,162.957,80.80499)" d="M-40.68842-62.36331C-40.68842-61.35165-41.50854-60.53154-42.5202-60.53154-43.53186-60.53154-44.35197-61.35165-44.35197-62.36331-44.35197-63.37497-43.53186-64.19508-42.5202-64.19508-41.50854-64.19508-40.68842-63.37497-40.68842-62.36331ZM-42.5202-62.36331"/>
<path transform="matrix(1,0,0,-1,162.957,80.80499)" stroke-width=".3985" stroke-linecap="butt" stroke-miterlimit="10" stroke-linejoin="miter" fill="none" stroke="#ffffff" d="M-40.68842-62.36331C-40.68842-61.35165-41.50854-60.53154-42.5202-60.53154-43.53186-60.53154-44.35197-61.35165-44.35197-62.36331-44.35197-63.37497-43.53186-64.19508-42.5202-64.19508-41.50854-64.19508-40.68842-63.37497-40.68842-62.36331ZM-42.5202-62.36331"/>
<use data-text="(" xlink:href="#font_8_1" transform="matrix(7.9701,0,0,-7.9701,80.243007,152.674)"/>
<use data-text="&#x2212;" xlink:href="#font_9_1" transform="matrix(7.9701,0,0,-7.9701,84.039,152.674)"/>
<use data-text="1" xlink:href="#font_8_5" transform="matrix(7.9701,0,0,-7.9701,91.633,152.674)"/>
<use data-text="," xlink:href="#font_10_3" transform="matrix(7.9701,0,0,-7.9701,96.51501,152.674)"/>
<use data-text="&#x2212;" xlink:href="#font_9_1" transform="matrix(7.9701,0,0,-7.9701,100.63801,152.674)"/>
<use data-text="2" xlink:href="#font_8_6" transform="matrix(7.9701,0,0,-7.9701,108.23201,152.674)"/>
<use data-text=")" xlink:href="#font_8_2" transform="matrix(7.9701,0,0,-7.9701,113.10971,152.674)"/>
<path transform="matrix(1,0,0,-1,162.957,80.80499)" d="M1.83177-62.36331C1.83177-61.35165 1.01166-60.53154 0-60.53154-1.01166-60.53154-1.83177-61.35165-1.83177-62.36331-1.83177-63.37497-1.01166-64.19508 0-64.19508 1.01166-64.19508 1.83177-63.37497 1.83177-62.36331ZM0-62.36331"/>
<path transform="matrix(1,0,0,-1,162.957,80.80499)" stroke-width=".3985" stroke-linecap="butt" stroke-miterlimit="10" stroke-linejoin="miter" fill="none" stroke="#ffffff" d="M1.83177-62.36331C1.83177-61.35165 1.01166-60.53154 0-60.53154-1.01166-60.53154-1.83177-61.35165-1.83177-62.36331-1.83177-63.37497-1.01166-64.19508 0-64.19508 1.01166-64.19508 1.83177-63.37497 1.83177-62.36331ZM0-62.36331"/>
<use data-text="(" xlink:href="#font_8_1" transform="matrix(7.9701,0,0,-7.9701,166.47699,152.674)"/>
<use data-text="0" xlink:href="#font_8_4" transform="matrix(7.9701,0,0,-7.9701,170.27077,152.674)"/>
<use data-text="," xlink:href="#font_10_3" transform="matrix(7.9701,0,0,-7.9701,175.155,152.674)"/>
<use data-text="&#x2212;" xlink:href="#font_9_1" transform="matrix(7.9701,0,0,-7.9701,179.27899,152.674)"/>
<use data-text="2" xlink:href="#font_8_6" transform="matrix(7.9701,0,0,-7.9701,186.87201,152.674)"/>
<use data-text=")" xlink:href="#font_8_2" transform="matrix(7.9701,0,0,-7.9701,191.7497,152.674)"/>
<path transform="matrix(1,0,0,-1,162.957,80.80499)" d="M44.35197-62.36331C44.35197-61.35165 43.53186-60.53154 42.5202-60.53154 41.50854-60.53154 40.68842-61.35165 40.68842-62.36331 40.68842-63.37497 41.50854-64.19508 42.5202-64.19508 43.53186-64.19508 44.35197-63.37497 44.35197-62.36331ZM42.5202-62.36331"/>
<path transform="matrix(1,0,0,-1,162.957,80.80499)" stroke-width=".3985" stroke-linecap="butt" stroke-miterlimit="10" stroke-linejoin="miter" fill="none" stroke="#ffffff" d="M44.35197-62.36331C44.35197-61.35165 43.53186-60.53154 42.5202-60.53154 41.50854-60.53154 40.68842-61.35165 40.68842-62.36331 40.68842-63.37497 41.50854-64.19508 42.5202-64.19508 43.53186-64.19508 44.35197-63.37497 44.35197-62.36331ZM42.5202-62.36331"/>
<use data-text="(" xlink:href="#font_8_1" transform="matrix(7.9701,0,0,-7.9701,209.002,152.674)"/>
<use data-text="1" xlink:href="#font_8_5" transform="matrix(7.9701,0,0,-7.9701,212.79578,152.674)"/>
<use data-text="," xlink:href="#font_10_3" transform="matrix(7.9701,0,0,-7.9701,217.68,152.674)"/>
<use data-text="&#x2212;" xlink:href="#font_9_1" transform="matrix(7.9701,0,0,-7.9701,221.804,152.674)"/>
<use data-text="2" xlink:href="#font_8_6" transform="matrix(7.9701,0,0,-7.9701,229.397,152.674)"/>
<use data-text=")" xlink:href="#font_8_2" transform="matrix(7.9701,0,0,-7.9701,234.2747,152.674)"/>
<path transform="matrix(1,0,0,-1,162.957,80.80499)" d="M23.09186 31.18166C23.09186 32.19331 22.27174 33.01343 21.26009 33.01343 20.24841 33.01343 19.4283 32.19331 19.4283 31.18166 19.4283 30.17 20.24841 29.34987 21.26009 29.34987 22.27174 29.34987 23.09186 30.17 23.09186 31.18166ZM21.26009 31.18166"/>
<path transform="matrix(1,0,0,-1,162.957,80.80499)" stroke-width=".3985" stroke-linecap="butt" stroke-miterlimit="10" stroke-linejoin="miter" fill="none" stroke="#ffffff" d="M23.09186 31.18166C23.09186 32.19331 22.27174 33.01343 21.26009 33.01343 20.24841 33.01343 19.4283 32.19331 19.4283 31.18166 19.4283 30.17 20.24841 29.34987 21.26009 29.34987 22.27174 29.34987 23.09186 30.17 23.09186 31.18166ZM21.26009 31.18166"/>
<use data-text="(" xlink:href="#font_8_1" transform="matrix(7.9701,0,0,-7.9701,172.284,40.12899)"/>
<use data-text="1" xlink:href="#font_8_5" transform="matrix(7.9701,0,0,-7.9701,177.276,34.57899)"/>
<path transform="matrix(1,0,0,-1,81.326999,31.32899)" stroke-width=".3587" stroke-linecap="butt" stroke-miterlimit="10" stroke-linejoin="miter" fill="none" stroke="#000000" d="M95.949-6.807H100.831"/>
<use data-text="2" xlink:href="#font_8_6" transform="matrix(7.9701,0,0,-7.9701,177.276,46.09899)"/>
<use data-text="," xlink:href="#font_10_3" transform="matrix(7.9701,0,0,-7.9701,183.353,40.12899)"/>
<use data-text="1" xlink:href="#font_8_5" transform="matrix(7.9701,0,0,-7.9701,187.47699,40.12899)"/>
<use data-text=")" xlink:href="#font_8_2" transform="matrix(7.9701,0,0,-7.9701,192.3547,40.12899)"/>
<path transform="matrix(1,0,0,-1,162.957,80.80499)" d="M-19.4283-155.90831C-19.4283-154.89664-20.24841-154.07653-21.26009-154.07653-22.27174-154.07653-23.09186-154.89664-23.09186-155.90831-23.09186-156.91997-22.27174-157.74008-21.26009-157.74008-20.24841-157.74008-19.4283-156.91997-19.4283-155.90831ZM-21.26009-155.90831"/>
<path transform="matrix(1,0,0,-1,162.957,80.80499)" stroke-width=".3985" stroke-linecap="butt" stroke-miterlimit="10" stroke-linejoin="miter" fill="none" stroke="#ffffff" d="M-19.4283-155.90831C-19.4283-154.89664-20.24841-154.07653-21.26009-154.07653-22.27174-154.07653-23.09186-154.89664-23.09186-155.90831-23.09186-156.91997-22.27174-157.74008-21.26009-157.74008-20.24841-157.74008-19.4283-156.91997-19.4283-155.90831ZM-21.26009-155.90831"/>
<use data-text="(" xlink:href="#font_8_1" transform="matrix(7.9701,0,0,-7.9701,122.164,250.941)"/>
<use data-text="&#x2212;" xlink:href="#font_9_1" transform="matrix(7.9701,0,0,-7.9701,125.96,250.941)"/>
<use data-text="1" xlink:href="#font_8_5" transform="matrix(7.9701,0,0,-7.9701,134.75,245.39099)"/>
<path transform="matrix(1,0,0,-1,31.207,242.14099)" stroke-width=".3587" stroke-linecap="butt" stroke-miterlimit="10" stroke-linejoin="miter" fill="none" stroke="#000000" d="M103.543-6.807H108.425"/>
<use data-text="2" xlink:href="#font_8_6" transform="matrix(7.9701,0,0,-7.9701,134.75,256.91099)"/>
<use data-text="," xlink:href="#font_10_3" transform="matrix(7.9701,0,0,-7.9701,140.827,250.941)"/>
<use data-text="&#x2212;" xlink:href="#font_9_1" transform="matrix(7.9701,0,0,-7.9701,144.951,250.941)"/>
<use data-text="5" xlink:href="#font_8_9" transform="matrix(7.9701,0,0,-7.9701,152.544,250.941)"/>
<use data-text=")" xlink:href="#font_8_2" transform="matrix(7.9701,0,0,-7.9701,157.4217,250.941)"/>
<use data-text="y" xlink:href="#font_5_4" transform="matrix(8.9664,0,0,-8.9664,208.99701,36.27399)"/>
<use data-text="=" xlink:href="#font_11_13" transform="matrix(8.9664,0,0,-8.9664,217.34601,36.27399)"/>
<use data-text="&#x2212;" xlink:href="#font_12_1" transform="matrix(8.9664,0,0,-8.9664,228.15799,36.27399)"/>
<use data-text="3" xlink:href="#font_11_7" transform="matrix(8.9664,0,0,-8.9664,236.41,36.27399)"/>
<use data-text="s" xlink:href="#font_11_18" transform="matrix(8.9664,0,0,-8.9664,243.2424,36.27399)"/>
<use data-text="i" xlink:href="#font_11_15" transform="matrix(8.9664,0,0,-8.9664,247.42075,36.27399)"/>
<use data-text="n" xlink:href="#font_11_16" transform="matrix(8.9664,0,0,-8.9664,250.36173,36.27399)"/>
<use data-text="&#x03c0;" xlink:href="#font_5_1" transform="matrix(8.9664,0,0,-8.9664,257.814,36.27399)"/>
<use data-text="(" xlink:href="#font_11_1" transform="matrix(8.9664,0,0,-8.9664,264.45399,36.27399)"/>
<use data-text="x" xlink:href="#font_5_3" transform="matrix(8.9664,0,0,-8.9664,268.58,36.27399)"/>
<use data-text="+" xlink:href="#font_11_3" transform="matrix(8.9664,0,0,-8.9664,276.71,36.27399)"/>
<use data-text="1" xlink:href="#font_11_5" transform="matrix(8.9664,0,0,-8.9664,287.00343,36.27399)"/>
<use data-text=")" xlink:href="#font_11_2" transform="matrix(8.9664,0,0,-8.9664,292.30259,36.27399)"/>
<use data-text="&#x2212;" xlink:href="#font_12_1" transform="matrix(8.9664,0,0,-8.9664,298.489,36.27399)"/>
<use data-text="2" xlink:href="#font_11_6" transform="matrix(8.9664,0,0,-8.9664,308.789,36.27399)"/>
<path transform="matrix(1,0,0,-1,162.957,80.80499)" stroke-width=".79701" stroke-linecap="butt" stroke-miterlimit="10" stroke-linejoin="miter" fill="none" stroke="#000000" d="M-63.7803-57.70084V26.51918"/>
<path transform="matrix(0,1,1,0,99.1767,138.50583)" d="M4.66248 0C3.28098 .25902 1.0361 1.0361-.51805 1.94269V-1.94269C1.0361-1.0361 3.28098-.25902 4.66248 0"/>
<path transform="matrix(0,-1,-1,-0,99.1767,54.285814)" d="M4.66248 0C3.28098 .25902 1.0361 1.0361-.51805 1.94269V-1.94269C1.0361-1.0361 3.28098-.25902 4.66248 0"/>
<use data-text="a" xlink:href="#font_4_28" transform="matrix(0,-9.9626,-9.9626,-0,97.415,126.30299)"/>
<use data-text="m" xlink:href="#font_4_75" transform="matrix(0,-9.9626,-9.9626,-0,97.415,120.7339)"/>
<use data-text="p" xlink:href="#font_4_84" transform="matrix(0,-9.9626,-9.9626,-0,97.415,111.18973)"/>
<use data-text="l" xlink:href="#font_4_72" transform="matrix(0,-9.9626,-9.9626,-0,97.415,104.82362)"/>
<use data-text="i" xlink:href="#font_4_66" transform="matrix(0,-9.9626,-9.9626,-0,97.415,101.64555)"/>
<use data-text="t" xlink:href="#font_4_105" transform="matrix(0,-9.9626,-9.9626,-0,97.415,98.46748)"/>
<use data-text="u" xlink:href="#font_4_109" transform="matrix(0,-9.9626,-9.9626,-0,97.415,94.0142)"/>
<use data-text="d" xlink:href="#font_4_47" transform="matrix(0,-9.9626,-9.9626,-0,97.415,87.6481)"/>
<use data-text="e" xlink:href="#font_4_50" transform="matrix(0,-9.9626,-9.9626,-0,97.415,81.282)"/>
<use data-text="3" xlink:href="#font_2_7" transform="matrix(0,-9.9626,-9.9626,-0,97.415,72.21599)"/>
</svg>
