<svg style="overflow: visible;" xmlns="http://www.w3.org/2000/svg" xmlns:xlink="http://www.w3.org/1999/xlink" xmlns:inkscape="http://www.inkscape.org/namespaces/inkscape" version="1.1" width="100%" height="100%" viewBox="0 0 535.58 251.91">
<defs>
<path id="font_1_7" d="M.5359955 .4011383C.5 .3911438 .48199464 .35714723 .48199464 .33215333 .48199464 .31015016 .49899293 .28614808 .5319977 .28614808 .5669861 .28614808 .60398867 .31515504 .60398867 .364151 .60398867 .41714479 .5509949 .45214845 .48999024 .45214845 .43299867 .45214845 .3959961 .4091339 .3829956 .3911438 .35798646 .433136 .3019867 .45214845 .24499512 .45214845 .11898804 .45214845 .050994874 .32914735 .050994874 .29615785 .050994874 .28215028 .06599426 .28215028 .07499695 .28215028 .08699036 .28215028 .09399414 .28215028 .09799194 .29515077 .1269989 .38613893 .19898987 .4161377 .23999024 .4161377 .27799989 .4161377 .29599 .39814759 .29599 .3661499 .29599 .3471527 .28199769 .29216004 .272995 .2561493L.23899842 .11917114C.22399903 .058181764 .18798828 .028182984 .1539917 .028182984 .14898682 .028182984 .12599182 .028182984 .10598755 .043182374 .14199829 .05317688 .1599884 .08717346 .1599884 .11216736 .1599884 .13417053 .14299011 .1581726 .10998535 .1581726 .07499695 .1581726 .037994386 .12916565 .037994386 .08016968 .037994386 .027175904 .09098816-.0078125 .1519928-.0078125 .20899964-.0078125 .24598694 .035186769 .25898744 .05317688 .28399659 .011184692 .33999635-.0078125 .39698792-.0078125 .522995-.0078125 .59098818 .11517334 .59098818 .14816284 .59098818 .16217041 .57598879 .16217041 .5669861 .16217041 .5549927 .16217041 .5479889 .16217041 .5439911 .14916992 .5149994 .058181764 .44299317 .028182984 .4019928 .028182984 .3639984 .028182984 .34599305 .046173097 .34599305 .07817078 .34599305 .09916687 .35899354 .15216065 .36799623 .18916321 .375 .21516419 .397995 .30915834 .40299989 .32514955 .41799928 .3851471 .45298768 .4161377 .48799134 .4161377 .49299623 .4161377 .5159912 .4161377 .5359955 .4011383Z"/>
<path id="font_1_8" d="M.57699587 .3771515C.58200076 .3951416 .58200076 .3971405 .58200076 .40014649 .58200076 .4221344 .56599429 .44413758 .5349884 .44413758 .48298646 .44413758 .47099305 .3971405 .46398927 .3701477L.43798829 .26615907C.42599488 .2181549 .40699769 .14117432 .3959961 .10017395 .3909912 .07817078 .3600006 .05418396 .35699464 .05218506 .34599305 .045181276 .32199098 .028182984 .2889862 .028182984 .22999573 .028182984 .22898865 .07817078 .22898865 .10116577 .22898865 .16217041 .2599945 .24015808 .28799439 .31214906 .2979889 .33815003 .30099488 .3451538 .30099488 .3621521 .30099488 .4201355 .24299622 .45214845 .18798828 .45214845 .08198547 .45214845 .03199768 .31614686 .03199768 .29615785 .03199768 .28215028 .04699707 .28215028 .055999757 .28215028 .067993167 .28215028 .07499695 .28215028 .07899475 .29515077 .11199951 .4061432 .16699219 .4161377 .18199158 .4161377 .18899536 .4161377 .19898987 .4161377 .19898987 .3951416 .19898987 .3721466 .18798828 .34614564 .18199158 .33015443 .14299011 .23016358 .12199402 .173172 .12199402 .122177127 .12199402 .008178711 .22200012-.0078125 .2809906-.0078125 .30599977-.0078125 .33999635-.0038146973 .3769989 .02218628 .34899903-.10101318 .27398683-.16615296 .20498657-.16615296 .19198609-.16615296 .1639862-.16415406 .14399719-.15213013 .17599488-.13909912 .19198609-.11204529 .19198609-.0849762 .19198609-.04890442 .16299439-.038879396 .14299011-.038879396 .10598755-.038879396 .070999149-.07095337 .070999149-.11505127 .070999149-.16615296 .12399292-.20214844 .20498657-.20214844 .31999208-.20214844 .45199586-.12506104 .48298646-.0008239746L.57699587 .3771515Z"/>
<path id="font_2_1" d="M.47299195 .31976319C.47299195 .38682557 .46998597 .47288514 .43499757 .5479431 .3909912 .64201357 .31498719 .6660156 .25698854 .6660156 .19699097 .6660156 .12098694 .64201357 .07699585 .5459442 .04499817 .47688294 .039993287 .39582826 .039993287 .31976319 .039993287 .25471498 .041992189 .15765381 .084991458 .07858276 .13198853-.0064697267 .20999146-.022460938 .2559967-.022460938 .32099916-.022460938 .394989 .0055389406 .43699647 .097595218 .46699525 .1646576 .47299195 .23971558 .47299195 .31976319M.25698854 .002532959C.22698975 .002532959 .15499878 .016540528 .13598633 .12962342 .12599182 .18867493 .12599182 .2747345 .12599182 .33177186 .12599182 .39982606 .12599182 .47888185 .13798523 .53393557 .1579895 .6230011 .22200012 .64100649 .2559967 .64100649 .2939911 .64100649 .35699464 .62098696 .37599183 .5279236 .3869934 .47288514 .3869934 .39482118 .3869934 .33177186 .3869934 .2697296 .3869934 .18566895 .3769989 .12661743 .35598756 .012542725 .28199769 .002532959 .25698854 .002532959Z"/>
<path id="font_3_64" d="M.2849884 .1850586V.24707031H.010986328V.1850586H.2849884Z"/>
<path id="font_3_106" d="M.46998597 .17008972C.46998597 .25709535 .40098573 .33110047 .30499269 .35209657 .397995 .38710023 .44198609 .46009828 .44198609 .5290985 .44198609 .60606387 .35699464 .6660156 .25299073 .6660156 .14898682 .6660156 .070999149 .60705569 .070999149 .5310974 .070999149 .49809266 .09298706 .47909547 .12199402 .47909547 .15098572 .47909547 .17199707 .50009158 .17199707 .5290985 .17199707 .5640869 .147995 .57910159 .11399841 .57910159 .13999939 .6210327 .20098877 .64100649 .25 .64100649 .33299256 .64100649 .34899903 .5750885 .34899903 .52809146 .34899903 .49809266 .34298707 .45005799 .31799317 .41201783 .2869873 .36695863 .2519989 .36495973 .22299195 .36296083 .19799805 .36094667 .19599915 .36094667 .18798828 .36094667 .1789856 .35995484 .17098999 .35894776 .17098999 .34794618 .17098999 .33496095 .1789856 .33496095 .19599915 .33496095H.24299622C.32998658 .33496095 .36799623 .2646637 .36799623 .16937256 .36799623 .04145813 .2999878 .0055389406 .24899292 .0055389406 .22999573 .0055389406 .1329956 .010528564 .08799744 .0843811 .12399292 .07939148 .1519928 .10437012 .1519928 .13838196 .1519928 .17137146 .1269989 .19238281 .09799194 .19238281 .07299805 .19238281 .042999269 .17736817 .042999269 .13537598 .042999269 .046447755 .13598633-.022460938 .2519989-.022460938 .3769989-.022460938 .46998597 .06741333 .46998597 .16937256V.17008972Z"/>
<path id="font_3_107" d="M.46199037 .17704773H.43399049C.43199159 .16404724 .42399598 .10501099 .41099549 .08900452 .40499879 .07998657 .33599855 .07998657 .31599427 .07998657H.13798523L.23699951 .17404175C.40098573 .3161316 .46199037 .36915589 .46199037 .4711914 .46199037 .5860901 .36698915 .6660156 .24398804 .6660156 .1289978 .6660156 .050994874 .575119 .050994874 .4841919 .050994874 .43418885 .09399414 .42919923 .102996829 .42919923 .125 .42919923 .15499878 .44519044 .15499878 .48120118 .15499878 .51119998 .13398743 .5332031 .102996829 .5332031 .09799194 .5332031 .09498596 .5332031 .09098816 .53219607 .114990238 .6030731 .1789856 .63500979 .23298645 .63500979 .33499146 .63500979 .36999513 .5401764 .36999513 .4711914 .36999513 .36915589 .29299928 .28611756 .24499512 .23408509L.06199646 .035995485C.050994874 .024993897 .050994874 .022994996 .050994874 0H.43399049L.46199037 .17704773Z"/>
<path id="font_3_82" d="M.43199159 0V.0309906H.3999939C.30699159 .0309906 .3039856 .042999269 .3039856 .08001709V.63912966C.3039856 .6640167 .30299378 .6660156 .27799989 .6660156 .21598816 .60227969 .12399292 .60227969 .09298706 .60227969V.57128909C.11199951 .57128909 .17298889 .57128909 .22698975 .5972748V.08001709C.22698975 .042999269 .22399903 .0309906 .1309967 .0309906H.09899902V0C.1349945 .0029907227 .22399903 .0029907227 .2649994 .0029907227 .30599977 .0029907227 .3959961 .0029907227 .43199159 0Z"/>
<path id="font_3_57" d="M.48399354 .16503906V.19602967H.38198854V.649765C.38198854 .669754 .38198854 .6767578 .36299134 .6767578 .35099793 .6767578 .34999085 .67575076 .34098817 .6617584L.0289917 .19602967V.16503906H.3019867V.07901001C.3019867 .041992189 .29899598 .0309906 .22399903 .0309906H.20199585V0C.2649994 .0029907227 .33499146 .0029907227 .34199525 .0029907227 .34700013 .0029907227 .4189911 .0029907227 .48199464 0V.0309906H.45999146C.3849945 .0309906 .38198854 .041992189 .38198854 .07901001V.16503906H.48399354M.30799867 .19602967H.06098938L.30799867 .56581118V.19602967Z"/>
<path id="font_3_56" d="M.46199037 .19992066C.46199037 .3209076 .37599183 .41992188 .2669983 .41992188 .21899414 .41992188 .16999817 .4039154 .1349945 .36791993V.5647888C.16499329 .55578616 .19599915 .55078127 .22698975 .55078127 .34999085 .55078127 .42199708 .63983157 .42199708 .6529236 .42199708 .6619873 .41600038 .6660156 .41099549 .6660156 .41099549 .6660156 .40699769 .6660156 .397995 .6609802 .35099793 .6418457 .30499269 .63378909 .2630005 .63378909 .21998596 .63378909 .1749878 .6418457 .1289978 .6609802 .11898804 .6660156 .115997318 .6660156 .115997318 .6660156 .10398865 .6660156 .10398865 .6559448 .10398865 .63882449V.34490968C.10398865 .32699586 .10398865 .31599427 .117996219 .31599427 .12599182 .31562806 .1289978 .3196411 .1349945 .32867433 .16499329 .37083436 .21299744 .39491273 .2649994 .39491273 .37199403 .39491273 .37199403 .24035645 .37199403 .20422364 .37199403 .17321778 .37199403 .11122131 .34399415 .06636047 .31698609 .024475098 .2749939 .0055389406 .23599243 .0055389406 .1769867 .0055389406 .10998535 .042419435 .085998538 .11621094 .085998538 .116882327 .09298706 .11488342 .099990848 .11488342 .11999512 .11488342 .14898682 .12788391 .14898682 .1638794 .14898682 .19488526 .1269989 .21289063 .099990848 .21289063 .07899475 .21289063 .050994874 .20088196 .050994874 .16088867 .050994874 .069732669 .1269989-.022460938 .23799134-.022460938 .35899354-.02279663 .46199037 .07521057 .46199037 .19921875V.19992066Z"/>
<path id="font_3_101" d="M.46998597 .20277405C.46998597 .32977296 .37799073 .42578126 .2649994 .42578126 .20498657 .42578126 .1619873 .3907776 .13398743 .33078004 .13398743 .43276979 .14498902 .4897766 .17199707 .54177859 .19198609 .58277896 .24099732 .64100649 .31498719 .64100649 .33499146 .64100649 .3809967 .63697817 .4039917 .6007843 .36698915 .6007843 .35099793 .5817871 .35099793 .55477908 .35099793 .5287781 .36898805 .50878909 .39698792 .50878909 .4249878 .50878909 .44400025 .5267792 .44400025 .55677798 .44400025 .61299136 .4039917 .6660156 .31298829 .6660156 .18399048 .6660156 .042999269 .5389252 .042999269 .31576539 .042999269 .044555665 .16499329-.022460938 .25898744-.022460938 .36999513-.022460938 .46998597 .07052612 .46998597 .2025299V.20277405M.3789978 .20353699C.3789978 .15553284 .3789978 .106536868 .3600006 .0695343 .32899476 .012527466 .2849884 .0055389406 .2579956 .0055389406 .20098877 .0055389406 .16799927 .05253601 .1559906 .08152771 .13699341 .12652588 .13598633 .20953369 .13598633 .2255249 .13598633 .2927704 .16699219 .4007721 .2630005 .4007721 .2789917 .4007721 .32798768 .4007721 .3600006 .33877564 .3789978 .300766 .3789978 .25177003 .3789978 .20376587V.20353699Z"/>
<path id="font_3_100" d="M.49899293 .6435547H.25C.12399292 .6435547 .12098694 .6566467 .117996219 .67578127H.08999634L.056991579 .46655274H.084991458C.08898926 .48954774 .09700012 .5455475 .10998535 .55755618 .116989139 .56355288 .19599915 .56355288 .20999146 .56355288H.41999818L.32398988 .4325409C.19400025 .25354005 .18199158 .090530399 .18199158 .03353882 .18199158 .022537232 .18199158-.022460938 .22799683-.022460938 .2749939-.022460938 .2749939 .021530152 .2749939 .03453064V.08354187C.2749939 .23054505 .29699708 .34654237 .34999085 .41854859L.48999024 .60954287C.49899293 .62054446 .49899293 .62254336 .49899293 .6435547Z"/>
<path id="font_3_51" d="M.46998597 .16764832C.46998597 .26472474 .3959961 .3127594 .37098695 .32876588 .3600006 .33677674 .33099366 .35479737 .31900025 .36180116 .36898805 .38581849 .44198609 .43585206 .44198609 .51690676 .44198609 .6109772 .34799195 .6660156 .2579956 .6660156 .15299988 .6660156 .070999149 .5909729 .070999149 .49890138 .070999149 .46087647 .084991458 .42485047 .10899353 .39582826 .12599182 .3768158 .13198853 .37280274 .18998719 .3357849 .101989749 .29374696 .042999269 .23269654 .042999269 .15063477 .042999269 .044555665 .147995-.022460938 .2559967-.022460938 .37199403-.022460938 .46998597 .059570314 .46998597 .16764832M.3939972 .51690676C.3939972 .44685365 .33399964 .40083314 .2939911 .37780763L.17199707 .45387269C.14199829 .47288514 .11898804 .4998932 .11898804 .53692629 .11898804 .6019745 .18899536 .64100649 .25498963 .64100649 .33198548 .64100649 .3939972 .58695986 .3939972 .51690676M.41600038 .1326294C.41600038 .05357361 .33599855 .0055389406 .25698854 .0055389406 .16999817 .0055389406 .09700012 .06758118 .09700012 .15063477 .09700012 .22268677 .14698792 .28274537 .21699524 .31877137L.34298707 .2407074C.3659973 .22569275 .41600038 .19366455 .41600038 .1326294Z"/>
<path id="font_3_78" d="M.46998597 .3287964C.46998597 .5999756 .34999085 .6660156 .2599945 .6660156 .14498902 .6660156 .042999269 .5729675 .042999269 .44187928 .042999269 .31478883 .1349945 .21875 .24798584 .21875 .32099916 .21875 .36099244 .27175904 .3789978 .31478883V.2927704C.3789978 .04875183 .2679901 .0055389406 .21099854 .0055389406 .18798828 .0055389406 .13699341 .009552002 .11099243 .042755128H.114990238C.12298584 .040740968 .1619873 .04875183 .1619873 .088760379 .1619873 .11476135 .14399719 .13476563 .115997318 .13476563 .08799744 .13476563 .068984989 .116760257 .068984989 .086761478 .068984989 .020629883 .12199402-.022460938 .21199036-.022460938 .34098817-.022460938 .46998597 .10975647 .46998597 .32888795V.3287964M.3769989 .42089845C.3769989 .34788514 .34399415 .2437439 .25 .2437439 .23399353 .2437439 .18499756 .2437439 .15299988 .30584718 .13398743 .34388734 .13398743 .3928833 .13398743 .4409027 .13398743 .48892213 .13398743 .5389557 .15499878 .5769806 .18499756 .628006 .22399903 .64100649 .2599945 .64100649 .32798768 .64100649 .35499574 .5719757 .35899354 .56196597 .37298585 .5249481 .3769989 .46391297 .3769989 .42089845Z"/>
<path id="font_3_121" d="M.47299195 .31976319C.47299195 .38682557 .46998597 .47288514 .43499757 .5479431 .3909912 .64201357 .31498719 .6660156 .25698854 .6660156 .19699097 .6660156 .12098694 .64201357 .07699585 .5459442 .04499817 .47688294 .039993287 .39582826 .039993287 .31976319 .039993287 .25471498 .041992189 .15765381 .084991458 .07858276 .13198853-.0064697267 .20999146-.022460938 .2559967-.022460938 .32099916-.022460938 .394989 .0055389406 .43699647 .097595218 .46699525 .1646576 .47299195 .23971558 .47299195 .31976319M.3869934 .33177186C.3869934 .2697296 .3869934 .18566895 .3769989 .12661743 .35598756 .012542725 .28199769 .002532959 .25698854 .002532959 .22698975 .002532959 .15499878 .016540528 .13598633 .12962342 .12599182 .18867493 .12599182 .2747345 .12599182 .33177186 .12599182 .39982606 .12599182 .47888185 .13798523 .53393557 .1579895 .6230011 .22200012 .64100649 .2559967 .64100649 .2939911 .64100649 .35699464 .62098696 .37599183 .5279236 .3869934 .47288514 .3869934 .39482118 .3869934 .33177186Z"/>
<path id="font_4_1" d="M.3789978-.22503662C.34999085-.19802857 .2849884-.13702393 .24299622-.009033203 .21699524 .06997681 .20498657 .16197205 .20498657 .24996948 .20498657 .4469757 .2559967 .60398867 .3659973 .7149811 .3809967 .7299957 .38198854 .73098757 .38198854 .73599246 .38198854 .746994 .37199403 .75 .3639984 .75 .34700013 .75 .30499269 .7129822 .2869873 .6959839 .1309967 .5409851 .10798645 .35697938 .10798645 .25097657 .10798645 .12597656 .14099121 .015975953 .18798828-.06703186 .2539978-.18203736 .34498597-.24902344 .3639984-.24902344 .37199403-.24902344 .38198854-.24603272 .38198854-.23503113 .38198854-.23002625 .3789978-.22602844 .3789978-.22503662Z"/>
<path id="font_5_1" d="M.7519989 .22024536C.7669983 .22024536 .7969971 .22024536 .7969971 .25024415 .7969971 .28125 .7679901 .28125 .7519989 .28125H.14099121C.12599182 .28125 .09599304 .28125 .09599304 .25123597 .09599304 .22024536 .125 .22024536 .14099121 .22024536H.7519989Z"/>
<path id="font_1_1" d="M.31199647 .34832765H.42399598C.4019928 .2552948 .3909912 .1942749 .3909912 .1352539 .3909912 .067230228 .40899659-.0087890629 .45700074-.0087890629 .48999024-.0087890629 .526001 .02420044 .526001 .05621338 .526001 .068222049 .522995 .07423401 .5139923 .0892334 .46798707 .17025757 .46798707 .24728394 .46798707 .27430726 .46798707 .29830934 .46798707 .3083191 .47399903 .34832765H.59799197C.61698916 .34832765 .6329956 .34832765 .647995 .36332704 .6549988 .3703308 .66799929 .38232423 .66799929 .40533448 .66799929 .44433595 .6329956 .44433595 .61499026 .44433595H.22200012C.20098877 .44433595 .1579895 .44433595 .10499573 .3963318 .069992069 .3643341 .0309906 .31330873 .0309906 .3033142 .0309906 .28930665 .042999269 .28930665 .053985597 .28930665 .068984989 .28930665 .069992069 .29031373 .07899475 .3013153 .116989139 .34832765 .18299866 .34832765 .20199585 .34832765H.2619934C.23699951 .26930238 .19699097 .18727112 .14299011 .08622742 .1269989 .05621338 .12399292 .051223756 .12399292 .037216188 .12399292 .01020813 .1459961-.007797241 .17199707-.007797241 .19299317-.007797241 .20799256 .0032043458 .21499634 .00920105 .22999573 .02420044 .23098755 .028213501 .23599243 .049209596L.31199647 .34832765Z"/>
<path id="font_1_2" d="M.21398926 .020996094C.21099854-.04208374 .18099976-.11021423 .12599182-.15631104 .11199951-.16833496 .11099243-.16934204 .11099243-.17533875 .11099243-.18234253 .12199402-.19433594 .12998963-.19433594 .14399719-.19433594 .25-.10720825 .25 .0309906 .25 .100997928 .21398926 .1559906 .1579895 .1559906 .11199951 .1559906 .08099365 .12098694 .08099365 .07798767 .08099365 .037994386 .10899353 0 .15899658 0 .18299866 0 .20199585 .009994507 .21398926 .020996094Z"/>
<path id="font_4_4" d="M.5289917 .31925965C.5289917 .41625978 .5279999 .65527346 .2869873 .65527346 .04598999 .65527346 .04499817 .41726686 .04499817 .31925965 .04499817 .22026062 .04598999-.0107421879 .2869873-.0107421879 .5269928-.0107421879 .5289917 .21925354 .5289917 .31925965M.2869873 .025253296C.25099183 .025253296 .19499207 .04725647 .18199158 .12025452 .17298889 .17225647 .17298889 .27626039 .17298889 .33125306 .17298889 .40325929 .17298889 .46826173 .18099976 .5202637 .19299317 .6092682 .2630005 .6192627 .2869873 .6192627 .32398988 .6192627 .36499024 .6002655 .38398744 .5562744 .40098573 .51927188 .40098573 .41326905 .40098573 .33125306 .40098573 .2752533 .40098573 .18424988 .3939972 .13224793 .37998963 .039245607 .31698609 .025253296 .2869873 .025253296Z"/>
<path id="font_4_2" d="M.33799745 .24996948C.33799745 .37498475 .30499269 .48498536 .2579956 .5679779 .19198609 .6829834 .100997928 .75 .08198547 .75 .07398987 .75 .06399536 .746994 .06399536 .73599246 .06399536 .73098757 .06399536 .72898867 .08099365 .7129822 .20698548 .5849762 .24099732 .40797425 .24099732 .25097657 .24099732 .053970338 .18998719-.103027347 .07998657-.21403504 .06498718-.22903443 .06399536-.23002625 .06399536-.23503113 .06399536-.24603272 .07398987-.24902344 .08198547-.24902344 .09899902-.24902344 .14099121-.21203614 .15899658-.19503784 .31498719-.040023805 .33799745 .14398194 .33799745 .24996948Z"/>
<path id="font_4_6" d="M.5169983 .22209168H.46998597C.46699525 .20207215 .45799256 .13800049 .44400025 .1309967 .43299867 .125 .35798646 .125 .34199525 .125H.19499207C.24198914 .16403198 .2939911 .20707703 .33898927 .2401123 .45298768 .3242035 .5169983 .37124635 .5169983 .4663086 .5169983 .5812988 .41299439 .65527346 .27198792 .65527346 .15098572 .65527346 .056991579 .593277 .056991579 .50331118 .056991579 .44430543 .10499573 .42930604 .1289978 .42930604 .16099549 .42930604 .20098877 .4513092 .20098877 .50131228 .20098877 .55329897 .15899658 .5693054 .14399719 .5733032 .17298889 .5972748 .21099854 .6082611 .24699402 .6082611 .33299256 .6082611 .3789978 .54029849 .3789978 .4653015 .3789978 .39627076 .34098817 .3282013 .2709961 .25712586L.069992069 .051986696C.056991579 .039993287 .056991579 .037994386 .056991579 .017990113V0H.48599244L.5169983 .22209168Z"/>
<path id="font_4_5" d="M.35398866 .62316897C.35398866 .6452637 .35398866 .65527346 .32798768 .65527346 .31698609 .65527346 .31498719 .65527346 .30599977 .64826968 .22898865 .5909424 .12599182 .5909424 .10499573 .5909424H.084991458V.5439453H.10499573C.12098694 .5439453 .17599488 .54493716 .23498535 .5639343V.04699707H.09599304V0C.13999939 .0029907227 .24598694 .0029907227 .29499818 .0029907227 .34399415 .0029907227 .44999696 .0029907227 .49398805 0V.04699707H.35398866V.62316897Z"/>
<path id="font_4_7" d="M.35198976 .35212709C.42099 .3731537 .49398805 .4303589 .49398805 .5164032 .49398805 .5933533 .41799928 .65527346 .2769928 .65527346 .1579895 .65527346 .07998657 .59135439 .07998657 .5113983 .07998657 .46839906 .11099243 .44140626 .14898682 .44140626 .19400025 .44140626 .21899414 .47340394 .21899414 .51039126 .21899414 .56840518 .16499329 .5793915 .16099549 .58039858 .19599915 .6082916 .23999024 .616272 .2709961 .616272 .35398866 .616272 .35699464 .5523987 .35699464 .5193939 .35699464 .50639346 .35598756 .3751526 .2519989 .36914063 .21099854 .36712647 .20899964 .36613465 .20399475 .36512757 .19400025 .36413575 .19198609 .35412599 .19198609 .34812928 .19198609 .33013917 .20199585 .33013917 .21998596 .33013917H.2639923C.37298585 .33013917 .37298585 .23240662 .37298585 .18144226 .37298585 .13444519 .37298585 .03225708 .2689972 .03225708 .24299622 .03225708 .19099427 .03627014 .14299011 .06645203 .17599488 .07543945 .20098877 .10044861 .20098877 .14144898 .20098877 .18644715 .16899109 .217453 .125 .217453 .08299255 .217453 .04798889 .19044495 .04798889 .13945008 .04798889 .049346925 .14498902-.0107421879 .27398683-.0107421879 .45298768-.0107421879 .526001 .08944702 .526001 .18045044 .526001 .23539734 .49699403 .32115174 .35198976 .35212709Z"/>
<path id="font_4_9" d="M.5169983 .20147705C.5169983 .31629945 .43798829 .4091797 .2899933 .4091797 .26098634 .4091797 .20799256 .4061737 .16099549 .37417604V.5060425C.18899536 .5010376 .19999695 .4990387 .23399353 .4990387 .37998963 .4990387 .47200013 .6120453 .47200013 .6370392 .47200013 .64404299 .46998597 .65504458 .45799256 .65504458 .45498658 .65504458 .45399476 .65504458 .44299317 .65104678 .38598634 .6290436 .33299256 .6230469 .2899933 .6230469 .21398926 .6230469 .16099549 .64204409 .1349945 .65104678 .12599182 .6540375 .125 .65504458 .12199402 .65504458 .10798645 .65504458 .10798645 .64404299 .10798645 .6280365V.33625794C.10798645 .31829835 .10798645 .3053131 .12998963 .3053131 .14299011 .3053131 .14498902 .3093109 .1519928 .31729127 .19099427 .3631897 .24499512 .37316896 .28599549 .37316896 .375 .37316896 .375 .28536988 .375 .20549011 .375 .1324768 .375 .03225708 .25498963 .03225708 .23098755 .03225708 .16799927 .037261964 .12599182 .09448242 .1619873 .09648132 .19099427 .1204834 .19099427 .16148377 .19099427 .21447754 .147995 .22949219 .12399292 .22949219 .10899353 .22949219 .056991579 .2204895 .056991579 .15948487 .056991579 .074417117 .1349945-.0107421879 .25898744-.0107421879 .4189911-.0107421879 .5169983 .079437259 .5169983 .20147705Z"/>
<path id="font_6_3" d="M.7709961 .3310547C.7859955 .3310547 .81199648 .3310547 .81199648 .35905458 .81199648 .38604737 .7849884 .38604737 .7719879 .38604737H.101989749C.08898926 .38604737 .06199646 .38604737 .06199646 .35905458 .06199646 .3310547 .08799744 .3310547 .102996829 .3310547H.7709961M.7719879 .112960819C.7849884 .112960819 .81199648 .112960819 .81199648 .13995362 .81199648 .16796875 .7859955 .16796875 .7709961 .16796875H.102996829C.08799744 .16796875 .06199646 .16796875 .06199646 .13995362 .06199646 .112960819 .08898926 .112960819 .101989749 .112960819H.7719879Z"/>
<path id="font_6_8" d="M.3769989 .42712403C.3769989 .44612123 .3769989 .453125 .3619995 .453125 .35598756 .453125 .35398866 .453125 .33898927 .4441223 .33499146 .44111634 .32398988 .43411256 .31900025 .43112184 .29100038 .44711305 .2539978 .453125 .21798706 .453125 .18798828 .453125 .037994386 .453125 .037994386 .32312013 .037994386 .21812439 .1619873 .19612122 .19299317 .19113159 .21998596 .18612671 .25299073 .18013 .25698854 .18013 .29699708 .17112732 .33699037 .14613343 .33699037 .10412598 .33699037 .027130127 .24598694 .027130127 .22499085 .027130127 .17399597 .027130127 .11099243 .043136598 .08299255 .14012146 .07699585 .16012573 .07598877 .16113281 .05899048 .16113281 .037994386 .16113281 .037994386 .15812683 .037994386 .13513184V.020126343C.037994386 .0011291504 .037994386-.005859375 .052993776-.005859375 .05999756-.005859375 .06199646-.005859375 .08198547 .010131836L.10798645 .029129029C.15299988-.005859375 .20698548-.005859375 .22499085-.005859375 .27999879-.005859375 .40499879 .006134033 .40499879 .13912964 .40499879 .18713379 .3789978 .22012329 .35899354 .23812866 .31799317 .27212525 .28399659 .27812196 .22999573 .28811646 .1659851 .29911805 .10598755 .31011964 .10598755 .35812379 .10598755 .42311097 .19499207 .42311097 .21598816 .42311097 .32699586 .42311097 .33299256 .3531189 .33499146 .328125 .33599855 .3151245 .34399415 .3151245 .35598756 .3151245 .3769989 .3151245 .3769989 .31811524 .3769989 .3411255V.42712403Z"/>
<path id="font_6_5" d="M.22299195 .6233063C.22299195 .66430667 .18998719 .6953125 .15098572 .6953125 .10998535 .6953125 .07899475 .66130068 .07899475 .6233063 .07899475 .5853119 .10998535 .55130007 .15098572 .55130007 .18998719 .55130007 .22299195 .5823059 .22299195 .6233063M.04699707 .44218446V.39918519C.10598755 .39918519 .11299133 .39918519 .11299133 .36016847V.042999269H.04399109V0C.066986087 .0019989014 .13598633 .0019989014 .16299439 .0019989014 .19099427 .0019989014 .25498963 .0019989014 .2789917 0V.042999269H.21699524V.4501953L.04699707 .44218446Z"/>
<path id="font_6_6" d="M.5309906 .30613709C.5309906 .40118409 .48999024 .4501953 .37998963 .4501953 .30799867 .4501953 .24598694 .41519166 .21199036 .34014894H.21099854V.4501953L.041992189 .44218446V.39918519C.10398865 .39918519 .11099243 .39918519 .11099243 .3601532V.042999269H.041992189V0C.06498718 .0019989014 .13699341 .0019989014 .16499329 .0019989014 .19299317 .0019989014 .2659912 .0019989014 .2889862 0V.042999269H.21998596V.25610353C.21998596 .36416627 .2999878 .41719056 .3639984 .41719056 .40098573 .41719056 .42199708 .39317323 .42199708 .31713868V.042999269H.35299684V0C.37599183 .0019989014 .44799806 .0019989014 .47599793 .0019989014 .5039978 .0019989014 .57699587 .0019989014 .59999087 0V.042999269H.5309906V.30613709Z"/>
<path id="font_7_28" d="M.71598818 .034179689C.71598818 .06712341 .69898989 .06712341 .6779938 .06712341H.6719971C.6589966 .06712341 .621994 .06712341 .6009979 .07710266V.28977967C.6009979 .36997987 .5379944 .4560547 .32499696 .4560547 .2539978 .4560547 .10598755 .4560547 .10598755 .34791566 .10598755 .2998047 .14099121 .27172853 .18099976 .27172853 .22499085 .27172853 .2559967 .30381776 .2559967 .34692384 .2559967 .36395265 .25099183 .38000489 .24198914 .3920288 .2789917 .40003968 .30899049 .40003968 .32598878 .40003968 .41600038 .40003968 .46798707 .3659668 .46798707 .28677369V.2677307C.45498658 .26672364 .35198976 .26872254 .25299073 .25071717 .13398743 .22871399 .057998659 .19378662 .057998659 .11997986 .057998659-.0078125 .25099183-.0078125 .2899933-.0078125 .3880005-.0078125 .46099855 .015182495 .49198915 .060150148 .5 .00018310547 .56999209 .00018310547 .644989 .00018310547 .70899966 .00018310547 .71598818 .00018310547 .71598818 .034179689M.46798707 .13294983C.46798707 .10902405 .46798707 .08308411 .4169922 .06413269 .37599183 .048187257 .32299806 .048187257 .31698609 .048187257 .24598694 .048187257 .19099427 .07510376 .19099427 .12098694 .19099427 .20974732 .41999818 .21772766 .46798707 .21972656V.13294983Z"/>
<path id="font_7_75" d="M1.1799927 0V.066986087H1.1080017V.29508973C1.1080017 .44114686 .98999026 .45214845 .91400149 .45214845 .84999087 .45214845 .7630005 .43914796 .69699099 .3571167 .6689911 .42913819 .6100006 .45214845 .5109863 .45214845 .37199403 .45214845 .30799867 .38012696 .2849884 .3451233V.45214845L.09700012 .44433595V.3773346C.16099549 .3773346 .16899109 .3773346 .16899109 .33828736V.066986087H.09700012V0L.23599243 .0039978029C.272995 .0039978029 .32998658 .0029907227 .37399293 0V.066986087H.3019867V.2421875C.3019867 .36412049 .4269867 .39613343 .4869995 .39613343 .5509949 .39613343 .57199099 .37213136 .57199099 .29708863V.066986087H.5V0L.6389923 .0039978029C.6759949 .0039978029 .73298647 .0029907227 .7769928 0V.066986087H.7049866V.24206543C.7049866 .36412049 .8299866 .39613343 .8899994 .39613343 .95399478 .39613343 .97499087 .37213136 .97499087 .29708863V.066986087H.9029999V0L1.0419922 .0039978029C1.0789948 .0039978029 1.1360016 .0029907227 1.1799927 0Z"/>
<path id="font_7_84" d="M.7739868 .22314453C.7739868 .33114625 .69299319 .45214845 .48399354 .45214845 .44499208 .45214845 .36099244 .44914247 .2809906 .4081421V.45214845L.083999637 .44433595V.3773346H.100997928C.1559906 .3773346 .1559906 .37132264 .1559906 .3433075V-.12695313H.083999637V-.19395447L.22200012-.18995667 .36099244-.19395447V-.12695313H.2889862V.03718567C.31698609 .020187378 .375-.0078125 .45999146-.0078125 .6689911-.0078125 .7739868 .10119629 .7739868 .22325135V.22314453M.6239929 .22225952C.6239929 .112213138 .5499878 .048187257 .44499208 .048187257 .397995 .048187257 .33799745 .063186649 .2889862 .1282196V.32730104C.33999635 .3801422 .41799928 .39013673 .45799256 .39013673 .56799319 .39013673 .6239929 .31814576 .6239929 .22213745V.22225952Z"/>
<path id="font_7_72" d="M.36999513 0V.066986087H.2979889V.69433596L.100997928 .6855469V.61854556C.16499329 .61854556 .17298889 .61854556 .17298889 .5795746V.066986087H.100997928V0C.1459961 .0029907227 .18998719 .0039978029 .23498535 .0039978029 .23899842 .0039978029 .31698609 .0039978029 .36999513 0Z"/>
<path id="font_7_66" d="M.36299134 0V.066986087H.2979889V.45214845L.10398865 .44433595V.3773346C.1659851 .3773346 .17298889 .3773346 .17298889 .33828736V.066986087H.100997928V0C.14498902 .0029907227 .18998719 .0039978029 .23399353 .0039978029 .2769928 .0039978029 .31999208 .0029907227 .36299134 0M.3039856 .60250857C.3039856 .6505127 .2639923 .68652346 .21798706 .68652346 .16999817 .68652346 .13198853 .6485138 .13198853 .6035156 .13198853 .5555115 .17199707 .519516 .21798706 .519516 .2659912 .519516 .3039856 .5575104 .3039856 .60250857Z"/>
<path id="font_7_105" d="M.49899293 .1191864V.1671753H.41600038V.123184207C.41600038 .093185428 .4059906 .05418396 .34799195 .05418396 .2849884 .054092409 .2849884 .09408569 .2849884 .12109375V.3773346H.47499085V.44433595H.2849884V.6357422H.20199585C.19999695 .53352358 .1459961 .43632508 .04399109 .43333436V.3773346H.1519928V.11820984C.1519928 .0051727297 .26098634-.0078125 .32598878-.0078125 .39898683-.0078125 .49899293 .018173218 .49899293 .11921692V.1191864Z"/>
<path id="font_7_109" d="M.776001 .00018310547V.06718445C.71199038 .06718445 .70399478 .06718445 .70399478 .106170658V.45214845L.49899293 .44433595V.3773346C.5629883 .3773346 .57099917 .3773346 .57099917 .3383026V.15823365C.57099917 .06518555 .47399903 .048187257 .4059906 .048187257 .3019867 .048187257 .3019867 .06819153 .3019867 .112213138V.45214845L.09700012 .44433595V.3773346C.16099549 .3773346 .16899109 .3773346 .16899109 .3383026V.11820984C.16899109 .0021820069 .2899933-.0078125 .3849945-.0078125 .4189911-.0078125 .5139923-.0078125 .57899478 .05718994V-.0078125L.776001 .00018310547Z"/>
<path id="font_7_47" d="M.7549896 .00018310547V.06718445C.69099429 .06718445 .68299868 .06718445 .68299868 .10618591V.69433596L.48599244 .6855469V.61854556C.5499878 .61854556 .55799868 .61854556 .55799868 .5796814V.41114808C.5179901 .43214417 .45700074 .45214845 .37799073 .45214845 .1639862 .45214845 .06498718 .34014894 .06498718 .22116089 .06498718 .11216736 .1519928-.0078125 .3639984-.0078125 .44099427-.0078125 .5039978 .013183594 .5499878 .04118347V-.0078125L.7549896 .00018310547M.5499878 .13198853C.5 .06817627 .43499757 .048187257 .37799073 .048187257 .21499634 .048187257 .21499634 .16716004 .21499634 .22015381 .21499634 .27415467 .21499634 .39613343 .3929901 .39613343 .43699647 .39613343 .4869995 .3851471 .5289917 .3511505 .5499878 .33415223 .5499878 .33314515 .5499878 .31315614V.13198853Z"/>
<path id="font_7_50" d="M.6349945 .11022949C.6349945 .1352539 .61099246 .1352539 .5970001 .1352539H.58999636C.57099917 .1352539 .5629883 .1352539 .55400088 .12124634 .5439911 .10221863 .5159912 .05418396 .4099884 .05418396 .2829895 .05418396 .21699524 .10322571 .20799256 .19726563H.5970001C.61698916 .19726563 .6349945 .19726563 .6349945 .22921753 .6349945 .2871704 .61299136 .35508729 .57099917 .39305116 .5249939 .43304444 .46499635 .4560547 .3659973 .4560547 .14199829 .4560547 .056991579 .33311463 .056991579 .2262268 .056991579 .12023926 .14199829-.0078125 .3869934-.0078125 .4119873-.0078125 .48098756-.0078125 .54100039 .016174317 .60899356 .04335022 .6349945 .096343997 .6349945 .11035156V.11022949M.5339966 .24804688H.20799256C.20899964 .28404237 .21099854 .40003968 .36698915 .40003968 .5029907 .40003968 .5289917 .31504823 .5339966 .24804688Z"/>
<path id="font_7_82" d="M.6399994 0V.066986087H.45899964V.6232147C.45899964 .6541443 .45298768 .6611328 .42099 .6611328H.3999939C.31498719 .5972595 .18598938 .5972595 .16299439 .5972595H.13598633V.53027346H.16299439C.1749878 .53027346 .2519989 .53027346 .32499696 .55526736V.066986087H.14399719V0C.19299317 .0039978029 .33499146 .0039978029 .3919983 .0039978029 .44898988 .0039978029 .59098818 .0039978029 .6399994 0Z"/>
<path id="font_8_84" d="M.59999087 .22319031C.59999087 .3561859 .5089874 .4501953 .36499024 .4501953 .2899933 .4501953 .23699951 .41918946 .21398926 .40118409V.4501953L.036987306 .4423828V.39537049C.09899902 .39537049 .10598755 .39537049 .10598755 .3573761V-.14648438H.036987306V-.1934967L.16299439-.19049073 .2889862-.1934967V-.14648438H.21998596V.03945923C.2630005 .004135132 .30699159-.005859375 .34799195-.005859375 .49798585-.005859375 .59999087 .08413696 .59999087 .22312927V.22319031M.47200013 .22312927C.47200013 .08213806 .4019928 .030136109 .33699037 .030136109 .32299806 .030136109 .27598573 .030136109 .23098755 .08413696 .21998596 .09713745 .21998596 .09812927 .21998596 .117126468V.32913209C.21998596 .34814454 .22099304 .3491516 .23498535 .36314393 .2749939 .4041443 .32699586 .41015626 .34899903 .41015626 .41600038 .41015626 .47200013 .3491516 .47200013 .22314453V.22312927Z"/>
<path id="font_8_50" d="M.49398805 .11706543C.49398805 .13504029 .47499085 .13504029 .46998597 .13504029 .45298768 .13504029 .45098878 .13005066 .44499208 .11405945 .42399598 .066101077 .36698915 .03413391 .3019867 .03413391 .16099549 .03413391 .1599884 .16700745 .1599884 .2179718H.46199037C.48399354 .2179718 .49398805 .2179718 .49398805 .2449646 .49398805 .27598573 .48799134 .34906007 .43798829 .3991089 .40098573 .43511964 .34799195 .453125 .2789917 .453125 .11898804 .453125 .03199768 .35005189 .03199768 .22497559 .03199768 .09107971 .13198853-.005859375 .29299928-.005859375 .45098878-.005859375 .49398805 .10006714 .49398805 .11706543M.39898683 .25097657H.1599884C.1619873 .29000855 .16299439 .3320465 .18399048 .36506654 .20999146 .4051056 .25 .41711427 .2789917 .41711427 .3959961 .41711427 .397995 .28599549 .39898683 .25097657Z"/>
<path id="font_8_96" d="M.44198609 .36819459C.44198609 .42118836 .3880005 .4501953 .33599855 .4501953 .2659912 .4501953 .22599793 .40019227 .20298767 .33718873V.4501953L.036987306 .4423828V.39537049C.09899902 .39537049 .10598755 .39537049 .10598755 .3563385V.04699707H.036987306V0L.16299439 .0029907227C.20098877 .0029907227 .2649994 .0029907227 .30099488 0V.04699707H.21398926V.22218323C.21398926 .29226686 .23899842 .41436769 .33898927 .41436769 .33898927 .41436769 .31999208 .39736939 .31999208 .36834718 .31999208 .32730104 .35198976 .3072815 .3809967 .3072815 .4099884 .3072815 .44198609 .3283081 .44198609 .36834718V.36819459Z"/>
<path id="font_8_66" d="M.28599549 0V.04699707H.22399903V.4501953L.049987794 .4423828V.39537049C.10899353 .39537049 .115997318 .39537049 .115997318 .3563385V.04699707H.04699707V0L.16899109 .0029907227 .28599549 0M.23799134 .60728457C.23799134 .6502838 .20298767 .6852875 .1599884 .6852875 .116989139 .6852875 .08198547 .6502838 .08198547 .60728457 .08198547 .5642853 .116989139 .5292969 .1599884 .5292969 .20298767 .5292969 .23799134 .5642853 .23799134 .60728457Z"/>
<path id="font_8_81" d="M.5419922 .21812439C.5419922 .35212709 .44999696 .453125 .2869873 .453125 .12298584 .453125 .03199768 .35112 .03199768 .21812439 .03199768 .09413147 .11999512-.005859375 .2869873-.005859375 .45498658-.005859375 .5419922 .09512329 .5419922 .21812439M.4139862 .22912598C.4139862 .14213562 .4139862 .03413391 .2869873 .03413391 .1599884 .03413391 .1599884 .14213562 .1599884 .22912598 .1599884 .27412416 .1599884 .32511903 .1769867 .3591156 .19599915 .39611817 .23799134 .41711427 .2869873 .41711427 .32899476 .41711427 .37098695 .40112306 .3929901 .36611939 .4139862 .3321228 .4139862 .27713014 .4139862 .22912598Z"/>
<path id="font_8_47" d="M.6009979 0V.04699707C.5389862 .04699707 .5319977 .04699707 .5319977 .086013797V.69433596L.35499574 .6855469V.63853457C.4169922 .63853457 .42399598 .63853457 .42399598 .5996704V.40518189C.37399293 .44418336 .32199098 .4501953 .2889862 .4501953 .14299011 .4501953 .037994386 .36218263 .037994386 .22116089 .037994386 .089141849 .12998963-.005859375 .27799989-.005859375 .33898927-.005859375 .3869934 .018127442 .41799928 .043136598V-.005859375L.6009979 0M.41799928 .102996829C.40499879 .08514404 .3639984 .030136109 .28799439 .030136109 .1659851 .030136109 .1659851 .15115357 .1659851 .22116089 .1659851 .26916505 .1659851 .3231659 .19198609 .36218263 .22099304 .40419007 .2679901 .41418458 .29899598 .41418458 .35598756 .41418458 .3959961 .3821869 .41799928 .35317994V.102996829Z"/>
</defs>
<path transform="matrix(1,0,0,-1,142.13,132.457)" stroke-width=".3985" stroke-linecap="butt" stroke-miterlimit="10" stroke-linejoin="miter" fill="none" stroke="#faebeb" d="M-136.06433-113.38547H374.17695M-136.06433-102.04692H374.17695M-136.06433-90.70837H374.17695M-136.06433-79.36983H374.17695M-136.06433-68.03128H374.17695M-136.06433-56.69273H374.17695M-136.06433-45.35419H374.17695M-136.06433-34.01564H374.17695M-136.06433-22.6771H374.17695M-136.06433-11.33855H374.17695M-136.06433 0H374.17695M-136.06433 11.33855H374.17695M-136.06433 22.6771H374.17695M-136.06433 34.01564H374.17695M-136.06433 45.35419H374.17695M-136.06433 56.69273H374.17695M-136.06433 68.03128H374.17695M-136.06433 79.36983H374.17695M-136.06433 90.70837H374.17695M-136.06433 102.04692H374.17695M-136.06433 113.38547H374.17695M-136.06221-113.38724V113.38724M-129.2591-113.38724V113.38724M-122.456-113.38724V113.38724M-115.65288-113.38724V113.38724M-108.84976-113.38724V113.38724M-102.04665-113.38724V113.38724M-95.24355-113.38724V113.38724M-88.44043-113.38724V113.38724M-81.63733-113.38724V113.38724M-74.83421-113.38724V113.38724M-68.0311-113.38724V113.38724M-61.22798-113.38724V113.38724M-54.42487-113.38724V113.38724M-47.62177-113.38724V113.38724M-40.81866-113.38724V113.38724M-34.01555-113.38724V113.38724M-27.21243-113.38724V113.38724M-20.40932-113.38724V113.38724M-13.6062-113.38724V113.38724M-6.80309-113.38724V113.38724M0-113.38724V113.38724M6.80309-113.38724V113.38724M13.6062-113.38724V113.38724M20.40932-113.38724V113.38724M27.21243-113.38724V113.38724M34.01555-113.38724V113.38724M40.81866-113.38724V113.38724M47.62177-113.38724V113.38724M54.42487-113.38724V113.38724M61.22798-113.38724V113.38724M68.0311-113.38724V113.38724M74.83421-113.38724V113.38724M81.63733-113.38724V113.38724M88.44043-113.38724V113.38724M95.24355-113.38724V113.38724M102.04665-113.38724V113.38724M108.84976-113.38724V113.38724M115.65288-113.38724V113.38724M122.456-113.38724V113.38724M129.2591-113.38724V113.38724M136.06221-113.38724V113.38724M142.86533-113.38724V113.38724M149.66843-113.38724V113.38724M156.47154-113.38724V113.38724M163.27466-113.38724V113.38724M170.07776-113.38724V113.38724M176.88088-113.38724V113.38724M183.68399-113.38724V113.38724M190.4871-113.38724V113.38724M197.2902-113.38724V113.38724M204.09333-113.38724V113.38724M210.89643-113.38724V113.38724M217.69954-113.38724V113.38724M224.50266-113.38724V113.38724M231.30577-113.38724V113.38724M238.10889-113.38724V113.38724M244.912-113.38724V113.38724M251.71509-113.38724V113.38724M258.5182-113.38724V113.38724M265.32133-113.38724V113.38724M272.12446-113.38724V113.38724M278.92756-113.38724V113.38724M285.73069-113.38724V113.38724M292.53379-113.38724V113.38724M299.33689-113.38724V113.38724M306.13999-113.38724V113.38724M312.9431-113.38724V113.38724M319.74623-113.38724V113.38724M326.54933-113.38724V113.38724M333.35246-113.38724V113.38724M340.15556-113.38724V113.38724M346.95866-113.38724V113.38724M353.76176-113.38724V113.38724M360.56489-113.38724V113.38724M367.368-113.38724V113.38724M374.1711-113.38724V113.38724M374.17695 113.38724"/>
<path transform="matrix(1,0,0,-1,142.13,132.457)" stroke-width=".79701" stroke-linecap="butt" stroke-miterlimit="10" stroke-linejoin="miter" fill="none" stroke="#f5d7d7" d="M-136.06433-113.38724H374.17695M-136.06433-56.69362H374.17695M-136.06433 0H374.17695M-136.06433 56.69362H374.17695M-136.06433 113.36731H374.17695M-136.06433-113.38724V113.38724M-102.04825-113.38724V113.38724M-68.03217-113.38724V113.38724M-34.01608-113.38724V113.38724M0-113.38724V113.38724M34.01608-113.38724V113.38724M68.03217-113.38724V113.38724M102.04825-113.38724V113.38724M136.06433-113.38724V113.38724M170.08042-113.38724V113.38724M204.0965-113.38724V113.38724M238.11258-113.38724V113.38724M272.12867-113.38724V113.38724M306.14476-113.38724V113.38724M340.16084-113.38724V113.38724M374.16499-113.38724V113.38724M374.17695 113.38724"/>
<path transform="matrix(1,0,0,-1,142.13,132.457)" stroke-width=".79701" stroke-linecap="butt" stroke-miterlimit="10" stroke-linejoin="miter" fill="none" stroke="#000000" d="M-131.40186 0H369.51445"/>
<path transform="matrix(-1,-0,0,1,10.728149,132.457)" d="M4.66248 0C3.28098 .25902 1.0361 1.0361-.51805 1.94269V-1.94269C1.0361-1.0361 3.28098-.25902 4.66248 0"/>
<path transform="matrix(1,0,0,-1,511.64445,132.457)" d="M4.66248 0C3.28098 .25902 1.0361 1.0361-.51805 1.94269V-1.94269C1.0361-1.0361 3.28098-.25902 4.66248 0"/>
<use data-text="x" xlink:href="#font_1_7" transform="matrix(9.9626,0,0,-9.9626,520.026,134.67099)"/>
<path transform="matrix(1,0,0,-1,142.13,132.457)" stroke-width=".79701" stroke-linecap="butt" stroke-miterlimit="10" stroke-linejoin="miter" fill="none" stroke="#000000" d="M0-108.72476V108.72476"/>
<path transform="matrix(0,1,1,0,142.13,241.18177)" d="M4.66248 0C3.28098 .25902 1.0361 1.0361-.51805 1.94269V-1.94269C1.0361-1.0361 3.28098-.25902 4.66248 0"/>
<path transform="matrix(0,-1,-1,-0,142.13,23.732239)" d="M4.66248 0C3.28098 .25902 1.0361 1.0361-.51805 1.94269V-1.94269C1.0361-1.0361 3.28098-.25902 4.66248 0"/>
<use data-text="y" xlink:href="#font_1_8" transform="matrix(9.9626,0,0,-9.9626,139.005,13.414001)"/>
<use data-text="0" xlink:href="#font_2_1" transform="matrix(8.9664,0,0,-8.9664,145.65,141.755)"/>
<use data-text="-" xlink:href="#font_3_64" transform="matrix(8.9664,0,0,-8.9664,36.240007,144.78299)"/>
<use data-text="3" xlink:href="#font_3_106" transform="matrix(8.9664,0,0,-8.9664,39.315485,144.78299)"/>
<use data-text="-" xlink:href="#font_3_64" transform="matrix(8.9664,0,0,-8.9664,70.256008,144.78299)"/>
<use data-text="2" xlink:href="#font_3_107" transform="matrix(8.9664,0,0,-8.9664,73.33148,144.78299)"/>
<use data-text="-" xlink:href="#font_3_64" transform="matrix(8.9664,0,0,-8.9664,104.272,144.78299)"/>
<use data-text="1" xlink:href="#font_3_82" transform="matrix(8.9664,0,0,-8.9664,107.34748,144.78299)"/>
<use data-text="1" xlink:href="#font_3_82" transform="matrix(8.9664,0,0,-8.9664,173.84201,144.78299)"/>
<use data-text="2" xlink:href="#font_3_107" transform="matrix(8.9664,0,0,-8.9664,207.858,144.78299)"/>
<use data-text="3" xlink:href="#font_3_106" transform="matrix(8.9664,0,0,-8.9664,241.87403,144.78299)"/>
<use data-text="4" xlink:href="#font_3_57" transform="matrix(8.9664,0,0,-8.9664,275.89,144.882)"/>
<use data-text="5" xlink:href="#font_3_56" transform="matrix(8.9664,0,0,-8.9664,309.906,144.78299)"/>
<use data-text="6" xlink:href="#font_3_101" transform="matrix(8.9664,0,0,-8.9664,343.92204,144.78299)"/>
<use data-text="7" xlink:href="#font_3_100" transform="matrix(8.9664,0,0,-8.9664,377.93803,144.873)"/>
<use data-text="8" xlink:href="#font_3_51" transform="matrix(8.9664,0,0,-8.9664,411.954,144.78299)"/>
<use data-text="9" xlink:href="#font_3_78" transform="matrix(8.9664,0,0,-8.9664,445.97,144.78299)"/>
<use data-text="1" xlink:href="#font_3_82" transform="matrix(8.9664,0,0,-8.9664,477.682,144.78299)"/>
<use data-text="0" xlink:href="#font_3_121" transform="matrix(8.9664,0,0,-8.9664,482.2907,144.78299)"/>
<use data-text="-" xlink:href="#font_3_64" transform="matrix(8.9664,0,0,-8.9664,128.091,192.13599)"/>
<use data-text="1" xlink:href="#font_3_82" transform="matrix(8.9664,0,0,-8.9664,131.16648,192.13599)"/>
<use data-text="1" xlink:href="#font_3_82" transform="matrix(8.9664,0,0,-8.9664,131.167,78.749)"/>
<path transform="matrix(1,0,0,-1,142.13,132.457)" stroke-width="1.59404" stroke-linecap="butt" stroke-miterlimit="10" stroke-linejoin="miter" fill="none" stroke="#e60000" d="M-117.03183 16.68744-116.71487 16.18642-114.37344 12.41122-112.03206 8.57808-109.69064 4.70427-107.34921 .8071-105.00783-3.09262-102.66641-6.97855-100.325-10.83159-97.9836-14.6336-95.6422-18.36641-93.30077-22.01097-90.95937-25.5526-88.61797-28.97223-86.27654-32.25433-83.93515-35.38417-81.59373-38.34793-79.25232-41.12828-76.91092-43.714-74.56952-46.09383-72.22809-48.25394-69.88669-50.18735-67.54529-51.88118-65.20387-53.33017-62.86247-54.52657-60.52106-55.4652-58.17966-56.1417-55.83824-56.54999-53.49683-56.69188-51.15543-56.5647-48.81401-56.17024-46.47261-55.50932-44.1312-54.58455-41.7898-53.40285-39.44838-51.96683-37.10698-50.28598-34.76555-48.36636-32.42415-46.21838-30.08275-43.85068-27.74132-41.27621-25.39993-38.50624-23.05852-35.55286-20.7171-32.43169-18.3757-29.15823-16.0343-25.74379-13.69287-22.20908-11.35147-18.5697-9.01007-14.84035-6.66864-11.04268-4.32726-7.19135-1.98584-3.3063 .35551 .59256 2.69693 4.48886 5.03835 8.36528 7.37975 12.20186 9.72116 15.98053 12.06256 19.68391 14.40398 23.29474 16.74538 26.79396 19.08679 30.16692 21.4282 33.3971 23.7696 36.469 26.11102 39.36786 28.45244 42.07986 30.79384 44.59293 33.13524 46.89487 35.47667 48.97453 37.81805 50.82234 40.15947 52.42876 42.50087 53.78867 44.84229 54.89336 47.1837 55.73683 49.52509 56.3173 51.86652 56.63043 54.20792 56.67628 56.54932 56.45311 58.89073 55.96262 61.23215 55.20741 63.57355 54.19093 65.91496 52.91753 68.25638 51.3933 70.59776 49.62506 72.9392 47.6224 75.2806 45.39398 77.62201 42.95099 79.96342 40.30388 82.30482 37.46643 84.64624 34.45078 86.98764 31.27335 89.32906 27.94713 91.67046 24.48856 94.01187 20.91321 96.35327 17.24007 98.69469 13.4839 101.0361 9.66632 103.3775 5.80031 105.71892 1.90833 108.06032-1.9914 110.40173-5.88338 112.74313-9.74765 115.08455-13.56523 117.42595-17.31967 119.76736-20.99104 122.10878-24.56296 124.45018-28.0189 126.7916-31.34254 129.133-34.51651 131.47441-37.52869 133.81581-40.3627 136.15724-43.00462 138.49864-45.4433 140.84004-47.6674 143.18148-49.66571 145.52286-51.42789 147.86428-52.94781 150.20566-54.21515 152.54709-55.2273 154.88849-55.97644 157.22989-56.4609 159.57132-56.6789 161.91272-56.627 164.25412-56.30779 166.59554-55.7221 168.93695-54.87175 171.27834-53.76186 173.61977-52.39763 175.96118-50.78513 178.30257-48.93211 180.644-46.84818 182.9854-44.541 185.3268-42.02364 187.66822-39.3073 190.00963-36.40584 192.35103-33.33047 194.69245-30.09683 197.03386-26.7213 199.37526-23.21861 201.71668-19.60693 204.05808-15.90092 206.39949-12.12141 208.74089-8.2831 211.0823-4.40668 213.42372-.50865 215.76512 3.39021 218.10654 7.27441 220.44794 11.12398 222.78936 14.91994 225.13076 18.64755 227.47217 22.28522 229.81357 25.81818 232.15499 29.22917 234.4964 32.50003 236.8378 35.61774 239.17922 38.5668 241.52062 41.33417 243.86205 43.90431 246.20343 46.26596 248.54485 48.40962 250.88626 50.32405 253.22766 52.00055 255.56908 53.42966 257.91047 54.60617 260.2519 55.52489 262.5933 56.1806 264.9347 56.56902 267.27613 56.69188 269.61753 56.54308 271.95893 56.12956 274.30036 55.44875 276.64176 54.50496 278.98316 53.3025 281.3246 51.84831 283.666 50.14844 286.0074 48.21066 288.3488 46.04451 290.6902 43.66122 293.0316 41.07033 295.37303 38.28566 297.71443 35.31929 300.05583 32.18599 302.39726 28.90129 304.73866 25.47733 307.08006 21.93399 309.42149 18.28682 311.76289 14.55229 314.1043 10.75029 316.4457 6.89636 318.7871 3.00958 321.1285-.89012 323.4699-4.78731 325.81135-8.66025 328.15275-12.49341 330.49418-16.26688 332.83558-19.9642 335.17698-23.56552 337.51838-27.0561 339.8598-30.41864 342.2012-33.63673 344.5426-36.6965 344.49848-36.642"/>
<path transform="matrix(-.53474,-.84497,-.84497,.53474,25.098176,115.76956)" d="M3.78581 0-2.27148 3.02866 0 0-2.27148-3.02866" fill="#e60000"/>
<path transform="matrix(.63013,.77646,.77646,-.63013,486.62849,169.099)" d="M3.78581 0-2.27148 3.02866 0 0-2.27148-3.02866" fill="#e60000"/>
<path transform="matrix(1,0,0,-1,142.13,132.457)" d="M-105.17375 0C-105.17375 .93375-105.93071 1.69069-106.86446 1.69069-107.7982 1.69069-108.55516 .93375-108.55516 0-108.55516-.93375-107.7982-1.69069-106.86446-1.69069-105.93071-1.69069-105.17375-.93375-105.17375 0ZM-106.86446 0"/>
<path transform="matrix(1,0,0,-1,142.13,132.457)" stroke-width=".3985" stroke-linecap="butt" stroke-miterlimit="10" stroke-linejoin="miter" fill="none" stroke="#ffffff" d="M-105.17375 0C-105.17375 .93375-105.93071 1.69069-106.86446 1.69069-107.7982 1.69069-108.55516 .93375-108.55516 0-108.55516-.93375-107.7982-1.69069-106.86446-1.69069-105.93071-1.69069-105.17375-.93375-105.17375 0ZM-106.86446 0"/>
<path transform="matrix(1,0,0,-1,142.13,132.457)" d="M-51.74124-56.69362C-51.74124-55.75986-52.4982-55.00291-53.43195-55.00291-54.3657-55.00291-55.12265-55.75986-55.12265-56.69362-55.12265-57.62737-54.3657-58.38431-53.43195-58.38431-52.4982-58.38431-51.74124-57.62737-51.74124-56.69362ZM-53.43195-56.69362"/>
<path transform="matrix(1,0,0,-1,142.13,132.457)" stroke-width=".3985" stroke-linecap="butt" stroke-miterlimit="10" stroke-linejoin="miter" fill="none" stroke="#ffffff" d="M-51.74124-56.69362C-51.74124-55.75986-52.4982-55.00291-53.43195-55.00291-54.3657-55.00291-55.12265-55.75986-55.12265-56.69362-55.12265-57.62737-54.3657-58.38431-53.43195-58.38431-52.4982-58.38431-51.74124-57.62737-51.74124-56.69362ZM-53.43195-56.69362"/>
<path transform="matrix(1,0,0,-1,142.13,132.457)" d="M55.12265 56.69362C55.12265 57.62737 54.3657 58.38431 53.43195 58.38431 52.4982 58.38431 51.74124 57.62737 51.74124 56.69362 51.74124 55.75986 52.4982 55.00291 53.43195 55.00291 54.3657 55.00291 55.12265 55.75986 55.12265 56.69362ZM53.43195 56.69362"/>
<path transform="matrix(1,0,0,-1,142.13,132.457)" stroke-width=".3985" stroke-linecap="butt" stroke-miterlimit="10" stroke-linejoin="miter" fill="none" stroke="#ffffff" d="M55.12265 56.69362C55.12265 57.62737 54.3657 58.38431 53.43195 58.38431 52.4982 58.38431 51.74124 57.62737 51.74124 56.69362 51.74124 55.75986 52.4982 55.00291 53.43195 55.00291 54.3657 55.00291 55.12265 55.75986 55.12265 56.69362ZM53.43195 56.69362"/>
<path transform="matrix(1,0,0,-1,142.13,132.457)" d="M108.55516 0C108.55516 .93375 107.7982 1.69069 106.86446 1.69069 105.93071 1.69069 105.17375 .93375 105.17375 0 105.17375-.93375 105.93071-1.69069 106.86446-1.69069 107.7982-1.69069 108.55516-.93375 108.55516 0ZM106.86446 0"/>
<path transform="matrix(1,0,0,-1,142.13,132.457)" stroke-width=".3985" stroke-linecap="butt" stroke-miterlimit="10" stroke-linejoin="miter" fill="none" stroke="#ffffff" d="M108.55516 0C108.55516 .93375 107.7982 1.69069 106.86446 1.69069 105.93071 1.69069 105.17375 .93375 105.17375 0 105.17375-.93375 105.93071-1.69069 106.86446-1.69069 107.7982-1.69069 108.55516-.93375 108.55516 0ZM106.86446 0"/>
<path transform="matrix(1,0,0,-1,142.13,132.457)" d="M161.98712-56.69362C161.98712-55.75986 161.23017-55.00291 160.29642-55.00291 159.36267-55.00291 158.60572-55.75986 158.60572-56.69362 158.60572-57.62737 159.36267-58.38431 160.29642-58.38431 161.23017-58.38431 161.98712-57.62737 161.98712-56.69362ZM160.29642-56.69362"/>
<path transform="matrix(1,0,0,-1,142.13,132.457)" stroke-width=".3985" stroke-linecap="butt" stroke-miterlimit="10" stroke-linejoin="miter" fill="none" stroke="#ffffff" d="M161.98712-56.69362C161.98712-55.75986 161.23017-55.00291 160.29642-55.00291 159.36267-55.00291 158.60572-55.75986 158.60572-56.69362 158.60572-57.62737 159.36267-58.38431 160.29642-58.38431 161.23017-58.38431 161.98712-57.62737 161.98712-56.69362ZM160.29642-56.69362"/>
<path transform="matrix(1,0,0,-1,142.13,132.457)" d="M215.41963 0C215.41963 .93375 214.66268 1.69069 213.72893 1.69069 212.79517 1.69069 212.03823 .93375 212.03823 0 212.03823-.93375 212.79517-1.69069 213.72893-1.69069 214.66268-1.69069 215.41963-.93375 215.41963 0ZM213.72893 0"/>
<path transform="matrix(1,0,0,-1,142.13,132.457)" stroke-width=".3985" stroke-linecap="butt" stroke-miterlimit="10" stroke-linejoin="miter" fill="none" stroke="#ffffff" d="M215.41963 0C215.41963 .93375 214.66268 1.69069 213.72893 1.69069 212.79517 1.69069 212.03823 .93375 212.03823 0 212.03823-.93375 212.79517-1.69069 213.72893-1.69069 214.66268-1.69069 215.41963-.93375 215.41963 0ZM213.72893 0"/>
<path transform="matrix(1,0,0,-1,142.13,132.457)" d="M268.8516 56.69362C268.8516 57.62737 268.09465 58.38431 267.1609 58.38431 266.22715 58.38431 265.47019 57.62737 265.47019 56.69362 265.47019 55.75986 266.22715 55.00291 267.1609 55.00291 268.09465 55.00291 268.8516 55.75986 268.8516 56.69362ZM267.1609 56.69362"/>
<path transform="matrix(1,0,0,-1,142.13,132.457)" stroke-width=".3985" stroke-linecap="butt" stroke-miterlimit="10" stroke-linejoin="miter" fill="none" stroke="#ffffff" d="M268.8516 56.69362C268.8516 57.62737 268.09465 58.38431 267.1609 58.38431 266.22715 58.38431 265.47019 57.62737 265.47019 56.69362 265.47019 55.75986 266.22715 55.00291 267.1609 55.00291 268.09465 55.00291 268.8516 55.75986 268.8516 56.69362ZM267.1609 56.69362"/>
<path transform="matrix(1,0,0,-1,142.13,132.457)" d="M322.2841 0C322.2841 .93375 321.52717 1.69069 320.59339 1.69069 319.65965 1.69069 318.90269 .93375 318.90269 0 318.90269-.93375 319.65965-1.69069 320.59339-1.69069 321.52717-1.69069 322.2841-.93375 322.2841 0ZM320.59339 0"/>
<path transform="matrix(1,0,0,-1,142.13,132.457)" stroke-width=".3985" stroke-linecap="butt" stroke-miterlimit="10" stroke-linejoin="miter" fill="none" stroke="#ffffff" d="M322.2841 0C322.2841 .93375 321.52717 1.69069 320.59339 1.69069 319.65965 1.69069 318.90269 .93375 318.90269 0 318.90269-.93375 319.65965-1.69069 320.59339-1.69069 321.52717-1.69069 322.2841-.93375 322.2841 0ZM320.59339 0"/>
<path transform="matrix(1,0,0,-1,142.13,132.457)" d="M1.69069 0C1.69069 .93375 .93375 1.69069 0 1.69069-.93375 1.69069-1.69069 .93375-1.69069 0-1.69069-.93375-.93375-1.69069 0-1.69069 .93375-1.69069 1.69069-.93375 1.69069 0ZM0 0"/>
<path transform="matrix(1,0,0,-1,142.13,132.457)" stroke-width=".3985" stroke-linecap="butt" stroke-miterlimit="10" stroke-linejoin="miter" fill="none" stroke="#ffffff" d="M1.69069 0C1.69069 .93375 .93375 1.69069 0 1.69069-.93375 1.69069-1.69069 .93375-1.69069 0-1.69069-.93375-.93375-1.69069 0-1.69069 .93375-1.69069 1.69069-.93375 1.69069 0ZM0 0"/>
<use data-text="(" xlink:href="#font_4_1" transform="matrix(9.9626,0,0,-9.9626,38.964006,126.247)"/>
<use data-text="&#x2212;" xlink:href="#font_5_1" transform="matrix(9.9626,0,0,-9.9626,43.420007,126.247)"/>
<use data-text="&#x03c0;" xlink:href="#font_1_1" transform="matrix(9.9626,0,0,-9.9626,52.33101,126.247)"/>
<use data-text="," xlink:href="#font_1_2" transform="matrix(9.9626,0,0,-9.9626,59.494119,126.247)"/>
<use data-text="0" xlink:href="#font_4_4" transform="matrix(9.9626,0,0,-9.9626,64.34101,126.247)"/>
<use data-text=")" xlink:href="#font_4_2" transform="matrix(9.9626,0,0,-9.9626,70.0695,126.247)"/>
<use data-text="(" xlink:href="#font_4_1" transform="matrix(9.9626,0,0,-9.9626,65.256008,204.737)"/>
<use data-text="&#x2212;" xlink:href="#font_5_1" transform="matrix(9.9626,0,0,-9.9626,69.712009,204.737)"/>
<use data-text="&#x03c0;" xlink:href="#font_1_1" transform="matrix(9.9626,0,0,-9.9626,79.81801,197.29701)"/>
<path transform="matrix(1,0,0,-1,-4.873993,144.27701)" stroke-width=".3985" stroke-linecap="butt" stroke-miterlimit="10" stroke-linejoin="miter" fill="none" stroke="#000000" d="M84.692-57.969H91.86"/>
<use data-text="2" xlink:href="#font_4_6" transform="matrix(9.9626,0,0,-9.9626,80.53801,212.27)"/>
<use data-text="," xlink:href="#font_1_2" transform="matrix(9.9626,0,0,-9.9626,88.18101,204.737)"/>
<use data-text="&#x2212;" xlink:href="#font_5_1" transform="matrix(9.9626,0,0,-9.9626,93.02401,204.737)"/>
<use data-text="1" xlink:href="#font_4_5" transform="matrix(9.9626,0,0,-9.9626,101.93501,204.737)"/>
<use data-text=")" xlink:href="#font_4_2" transform="matrix(9.9626,0,0,-9.9626,107.663509,204.737)"/>
<use data-text="(" xlink:href="#font_4_1" transform="matrix(9.9626,0,0,-9.9626,181.052,64.511)"/>
<use data-text="&#x03c0;" xlink:href="#font_1_1" transform="matrix(9.9626,0,0,-9.9626,186.703,57.071004)"/>
<path transform="matrix(1,0,0,-1,110.92201,4.0510027)" stroke-width=".3985" stroke-linecap="butt" stroke-miterlimit="10" stroke-linejoin="miter" fill="none" stroke="#000000" d="M75.781-57.969H82.949"/>
<use data-text="2" xlink:href="#font_4_6" transform="matrix(9.9626,0,0,-9.9626,187.423,72.044)"/>
<use data-text="," xlink:href="#font_1_2" transform="matrix(9.9626,0,0,-9.9626,195.06601,64.511)"/>
<use data-text="1" xlink:href="#font_4_5" transform="matrix(9.9626,0,0,-9.9626,199.90901,64.511)"/>
<use data-text=")" xlink:href="#font_4_2" transform="matrix(9.9626,0,0,-9.9626,205.63751,64.511)"/>
<use data-text="(" xlink:href="#font_4_1" transform="matrix(9.9626,0,0,-9.9626,252.73401,126.247)"/>
<use data-text="&#x03c0;" xlink:href="#font_1_1" transform="matrix(9.9626,0,0,-9.9626,257.19,126.247)"/>
<use data-text="," xlink:href="#font_1_2" transform="matrix(9.9626,0,0,-9.9626,264.35313,126.247)"/>
<use data-text="0" xlink:href="#font_4_4" transform="matrix(9.9626,0,0,-9.9626,269.2,126.247)"/>
<use data-text=")" xlink:href="#font_4_2" transform="matrix(9.9626,0,0,-9.9626,274.9285,126.247)"/>
<use data-text="(" xlink:href="#font_4_1" transform="matrix(9.9626,0,0,-9.9626,280.617,206.729)"/>
<use data-text="3" xlink:href="#font_4_7" transform="matrix(9.9626,0,0,-9.9626,286.268,199.28902)"/>
<use data-text="&#x03c0;" xlink:href="#font_1_1" transform="matrix(9.9626,0,0,-9.9626,291.997,199.28902)"/>
<path transform="matrix(1,0,0,-1,210.487,146.26902)" stroke-width=".3985" stroke-linecap="butt" stroke-miterlimit="10" stroke-linejoin="miter" fill="none" stroke="#000000" d="M75.781-57.969H88.677"/>
<use data-text="2" xlink:href="#font_4_6" transform="matrix(9.9626,0,0,-9.9626,289.852,214.26201)"/>
<use data-text="," xlink:href="#font_1_2" transform="matrix(9.9626,0,0,-9.9626,300.36,206.729)"/>
<use data-text="&#x2212;" xlink:href="#font_5_1" transform="matrix(9.9626,0,0,-9.9626,305.203,206.729)"/>
<use data-text="1" xlink:href="#font_4_5" transform="matrix(9.9626,0,0,-9.9626,314.114,206.729)"/>
<use data-text=")" xlink:href="#font_4_2" transform="matrix(9.9626,0,0,-9.9626,319.8425,206.729)"/>
<use data-text="(" xlink:href="#font_4_1" transform="matrix(9.9626,0,0,-9.9626,319.802,126.247)"/>
<use data-text="2" xlink:href="#font_4_6" transform="matrix(9.9626,0,0,-9.9626,324.25529,126.247)"/>
<use data-text="&#x03c0;" xlink:href="#font_1_1" transform="matrix(9.9626,0,0,-9.9626,329.986,126.247)"/>
<use data-text="," xlink:href="#font_1_2" transform="matrix(9.9626,0,0,-9.9626,337.1491,126.247)"/>
<use data-text="0" xlink:href="#font_4_4" transform="matrix(9.9626,0,0,-9.9626,341.997,126.247)"/>
<use data-text=")" xlink:href="#font_4_2" transform="matrix(9.9626,0,0,-9.9626,347.7255,126.247)"/>
<use data-text="(" xlink:href="#font_4_1" transform="matrix(9.9626,0,0,-9.9626,391.957,64.511)"/>
<use data-text="5" xlink:href="#font_4_9" transform="matrix(9.9626,0,0,-9.9626,397.608,57.071004)"/>
<use data-text="&#x03c0;" xlink:href="#font_1_1" transform="matrix(9.9626,0,0,-9.9626,403.33699,57.071004)"/>
<path transform="matrix(1,0,0,-1,321.827,4.0510027)" stroke-width=".3985" stroke-linecap="butt" stroke-miterlimit="10" stroke-linejoin="miter" fill="none" stroke="#000000" d="M75.781-57.969H88.677"/>
<use data-text="2" xlink:href="#font_4_6" transform="matrix(9.9626,0,0,-9.9626,401.192,72.044)"/>
<use data-text="," xlink:href="#font_1_2" transform="matrix(9.9626,0,0,-9.9626,411.7,64.511)"/>
<use data-text="1" xlink:href="#font_4_5" transform="matrix(9.9626,0,0,-9.9626,416.543,64.511)"/>
<use data-text=")" xlink:href="#font_4_2" transform="matrix(9.9626,0,0,-9.9626,422.27149,64.511)"/>
<use data-text="(" xlink:href="#font_4_1" transform="matrix(9.9626,0,0,-9.9626,466.504,126.247)"/>
<use data-text="3" xlink:href="#font_4_7" transform="matrix(9.9626,0,0,-9.9626,470.95729,126.247)"/>
<use data-text="&#x03c0;" xlink:href="#font_1_1" transform="matrix(9.9626,0,0,-9.9626,476.688,126.247)"/>
<use data-text="," xlink:href="#font_1_2" transform="matrix(9.9626,0,0,-9.9626,483.8511,126.247)"/>
<use data-text="0" xlink:href="#font_4_4" transform="matrix(9.9626,0,0,-9.9626,488.69898,126.247)"/>
<use data-text=")" xlink:href="#font_4_2" transform="matrix(9.9626,0,0,-9.9626,494.4275,126.247)"/>
<use data-text="(" xlink:href="#font_4_1" transform="matrix(9.9626,0,0,-9.9626,113.200008,126.247)"/>
<use data-text="0" xlink:href="#font_4_4" transform="matrix(9.9626,0,0,-9.9626,117.65329,126.247)"/>
<use data-text="," xlink:href="#font_1_2" transform="matrix(9.9626,0,0,-9.9626,123.384,126.247)"/>
<use data-text="0" xlink:href="#font_4_4" transform="matrix(9.9626,0,0,-9.9626,128.227,126.247)"/>
<use data-text=")" xlink:href="#font_4_2" transform="matrix(9.9626,0,0,-9.9626,133.9555,126.247)"/>
<use data-text="y" xlink:href="#font_1_8" transform="matrix(11.9552,0,0,-11.9552,31.596009,90.091)" fill="#e60000"/>
<use data-text="=" xlink:href="#font_6_3" transform="matrix(11.9552,0,0,-11.9552,42.417009,90.091)" fill="#e60000"/>
<use data-text="s" xlink:href="#font_6_8" transform="matrix(11.9552,0,0,-11.9552,56.1894,90.091)" fill="#e60000"/>
<use data-text="i" xlink:href="#font_6_5" transform="matrix(11.9552,0,0,-11.9552,61.485559,90.091)" fill="#e60000"/>
<use data-text="n" xlink:href="#font_6_6" transform="matrix(11.9552,0,0,-11.9552,65.21558,90.091)" fill="#e60000"/>
<use data-text="x" xlink:href="#font_1_7" transform="matrix(11.9552,0,0,-11.9552,74.704,90.091)" fill="#e60000"/>
<path transform="matrix(1,0,0,-1,142.13,132.457)" stroke-width=".79701" stroke-linecap="butt" stroke-miterlimit="10" stroke-linejoin="miter" fill="none" stroke="#000000" d="M53.43195 4.66248V52.03113"/>
<path transform="matrix(0,1,1,0,195.56195,127.79452)" d="M4.66248 0C3.28098 .25902 1.0361 1.0361-.51805 1.94269V-1.94269C1.0361-1.0361 3.28098-.25902 4.66248 0"/>
<path transform="matrix(0,-1,-1,-0,195.56195,80.42587)" d="M4.66248 0C3.28098 .25902 1.0361 1.0361-.51805 1.94269V-1.94269C1.0361-1.0361 3.28098-.25902 4.66248 0"/>
<path transform="matrix(1,0,0,-1,142.13,132.457)" d="M42.09 51.42603V5.26755H53.15457V51.42603ZM53.15457 5.26755" fill="#ffffff"/>
<use data-text="a" xlink:href="#font_7_28" transform="matrix(0,-4.9813,-4.9813,-0,190.99802,123.868999)"/>
<use data-text="m" xlink:href="#font_7_75" transform="matrix(0,-4.9813,-4.9813,-0,190.99802,120.192798)"/>
<use data-text="p" xlink:href="#font_7_84" transform="matrix(0,-4.9813,-4.9813,-0,190.99802,114.00602)"/>
<use data-text="l" xlink:href="#font_7_72" transform="matrix(0,-4.9813,-4.9813,-0,190.99802,109.826709)"/>
<use data-text="i" xlink:href="#font_7_66" transform="matrix(0,-4.9813,-4.9813,-0,190.99802,107.65486)"/>
<use data-text="t" xlink:href="#font_7_105" transform="matrix(0,-4.9813,-4.9813,-0,190.99802,105.48302)"/>
<use data-text="u" xlink:href="#font_7_109" transform="matrix(0,-4.9813,-4.9813,-0,190.99802,102.50918)"/>
<use data-text="d" xlink:href="#font_7_47" transform="matrix(0,-4.9813,-4.9813,-0,190.99802,98.329868)"/>
<use data-text="e" xlink:href="#font_7_50" transform="matrix(0,-4.9813,-4.9813,-0,190.99802,94.15055)"/>
<use data-text="1" xlink:href="#font_7_82" transform="matrix(0,-4.9813,-4.9813,-0,190.99802,88.12816)"/>
<path transform="matrix(1,0,0,-1,142.13,132.457)" stroke-width=".79701" stroke-linecap="butt" stroke-miterlimit="10" stroke-linejoin="miter" fill="none" stroke="#000000" d="M68.29936 56.69362H252.29349"/>
<path transform="matrix(-1,-0,0,1,210.42937,75.76338)" d="M4.66248 0C3.28098 .25902 1.0361 1.0361-.51805 1.94269V-1.94269C1.0361-1.0361 3.28098-.25902 4.66248 0"/>
<path transform="matrix(1,0,0,-1,394.4235,75.76338)" d="M4.66248 0C3.28098 .25902 1.0361 1.0361-.51805 1.94269V-1.94269C1.0361-1.0361 3.28098-.25902 4.66248 0"/>
<path transform="matrix(1,0,0,-1,142.13,132.457)" d="M134.3213 50.77574H186.27153V62.61148H134.3213Z" fill="#ffffff"/>
<use data-text="p" xlink:href="#font_8_84" transform="matrix(9.9626,0,0,-9.9626,277.946,78.254)"/>
<use data-text="e" xlink:href="#font_8_50" transform="matrix(9.9626,0,0,-9.9626,284.63093,78.254)"/>
<use data-text="r" xlink:href="#font_8_96" transform="matrix(9.9626,0,0,-9.9626,289.8812,78.254)"/>
<use data-text="i" xlink:href="#font_8_66" transform="matrix(9.9626,0,0,-9.9626,294.6035,78.254)"/>
<use data-text="o" xlink:href="#font_8_81" transform="matrix(9.9626,0,0,-9.9626,297.78157,78.254)"/>
<use data-text="d" xlink:href="#font_8_47" transform="matrix(9.9626,0,0,-9.9626,303.82887,78.254)"/>
<use data-text="2" xlink:href="#font_4_6" transform="matrix(9.9626,0,0,-9.9626,314.011,78.254)"/>
<use data-text="&#x03c0;" xlink:href="#font_1_1" transform="matrix(9.9626,0,0,-9.9626,319.74,78.254)"/>
<path transform="matrix(1,0,0,-1,142.13,132.457)" stroke-width=".79701" stroke-linecap="butt" stroke-miterlimit="10" stroke-linejoin="miter" fill="none" stroke="#000000" d="M.59775-90.71011H213.13117"/>
<path transform="matrix(-1,-0,0,1,147.58948,223.16712)" d="M4.66248 0C3.28098 .25902 1.0361 1.0361-.51805 1.94269V-1.94269C1.0361-1.0361 3.28098-.25902 4.66248 0"/>
<path transform="matrix(-1,-0,0,1,142.5285,223.16712)" stroke-width=".79701" stroke-linecap="butt" stroke-miterlimit="10" stroke-linejoin="miter" fill="none" stroke="#000000" d="M0 3.08846V-3.08846"/>
<path transform="matrix(1,0,0,-1,350.39945,223.16712)" d="M4.66248 0C3.28098 .25902 1.0361 1.0361-.51805 1.94269V-1.94269C1.0361-1.0361 3.28098-.25902 4.66248 0"/>
<path transform="matrix(1,0,0,-1,355.46043,223.16712)" stroke-width=".79701" stroke-linecap="butt" stroke-miterlimit="10" stroke-linejoin="miter" fill="none" stroke="#000000" d="M0 3.08846V-3.08846"/>
<path transform="matrix(1,0,0,-1,142.13,132.457)" d="M79.06319-98.45413H134.66573V-82.966098H79.06319Z" fill="#ffffff"/>
<use data-text="p" xlink:href="#font_8_84" transform="matrix(9.9626,0,0,-9.9626,224.514,225.65799)"/>
<use data-text="e" xlink:href="#font_8_50" transform="matrix(9.9626,0,0,-9.9626,231.19892,225.65799)"/>
<use data-text="r" xlink:href="#font_8_96" transform="matrix(9.9626,0,0,-9.9626,236.44919,225.65799)"/>
<use data-text="i" xlink:href="#font_8_66" transform="matrix(9.9626,0,0,-9.9626,241.17148,225.65799)"/>
<use data-text="o" xlink:href="#font_8_81" transform="matrix(9.9626,0,0,-9.9626,244.34955,225.65799)"/>
<use data-text="d" xlink:href="#font_8_47" transform="matrix(9.9626,0,0,-9.9626,250.39684,225.65799)"/>
<use data-text="2" xlink:href="#font_4_6" transform="matrix(9.9626,0,0,-9.9626,260.57899,225.65799)"/>
<use data-text="&#x03c0;" xlink:href="#font_1_1" transform="matrix(9.9626,0,0,-9.9626,266.30799,225.65799)"/>
</svg>
