<svg style="overflow: visible;" xmlns="http://www.w3.org/2000/svg" xmlns:xlink="http://www.w3.org/1999/xlink" xmlns:inkscape="http://www.inkscape.org/namespaces/inkscape" version="1.1" width="100%" height="100%" viewBox="0 0 363.76 208.83">
<defs>
<path id="font_1_7" d="M.5359955 .4011383C.5 .3911438 .48199464 .35714723 .48199464 .33215333 .48199464 .31015016 .49899293 .28614808 .5319977 .28614808 .5669861 .28614808 .60398867 .31515504 .60398867 .364151 .60398867 .41714479 .5509949 .45214845 .48999024 .45214845 .43299867 .45214845 .3959961 .4091339 .3829956 .3911438 .35798646 .433136 .3019867 .45214845 .24499512 .45214845 .11898804 .45214845 .050994874 .32914735 .050994874 .29615785 .050994874 .28215028 .06599426 .28215028 .07499695 .28215028 .08699036 .28215028 .09399414 .28215028 .09799194 .29515077 .1269989 .38613893 .19898987 .4161377 .23999024 .4161377 .27799989 .4161377 .29599 .39814759 .29599 .3661499 .29599 .3471527 .28199769 .29216004 .272995 .2561493L.23899842 .11917114C.22399903 .058181764 .18798828 .028182984 .1539917 .028182984 .14898682 .028182984 .12599182 .028182984 .10598755 .043182374 .14199829 .05317688 .1599884 .08717346 .1599884 .11216736 .1599884 .13417053 .14299011 .1581726 .10998535 .1581726 .07499695 .1581726 .037994386 .12916565 .037994386 .08016968 .037994386 .027175904 .09098816-.0078125 .1519928-.0078125 .20899964-.0078125 .24598694 .035186769 .25898744 .05317688 .28399659 .011184692 .33999635-.0078125 .39698792-.0078125 .522995-.0078125 .59098818 .11517334 .59098818 .14816284 .59098818 .16217041 .57598879 .16217041 .5669861 .16217041 .5549927 .16217041 .5479889 .16217041 .5439911 .14916992 .5149994 .058181764 .44299317 .028182984 .4019928 .028182984 .3639984 .028182984 .34599305 .046173097 .34599305 .07817078 .34599305 .09916687 .35899354 .15216065 .36799623 .18916321 .375 .21516419 .397995 .30915834 .40299989 .32514955 .41799928 .3851471 .45298768 .4161377 .48799134 .4161377 .49299623 .4161377 .5159912 .4161377 .5359955 .4011383Z"/>
<path id="font_1_8" d="M.57699587 .3771515C.58200076 .3951416 .58200076 .3971405 .58200076 .40014649 .58200076 .4221344 .56599429 .44413758 .5349884 .44413758 .48298646 .44413758 .47099305 .3971405 .46398927 .3701477L.43798829 .26615907C.42599488 .2181549 .40699769 .14117432 .3959961 .10017395 .3909912 .07817078 .3600006 .05418396 .35699464 .05218506 .34599305 .045181276 .32199098 .028182984 .2889862 .028182984 .22999573 .028182984 .22898865 .07817078 .22898865 .10116577 .22898865 .16217041 .2599945 .24015808 .28799439 .31214906 .2979889 .33815003 .30099488 .3451538 .30099488 .3621521 .30099488 .4201355 .24299622 .45214845 .18798828 .45214845 .08198547 .45214845 .03199768 .31614686 .03199768 .29615785 .03199768 .28215028 .04699707 .28215028 .055999757 .28215028 .067993167 .28215028 .07499695 .28215028 .07899475 .29515077 .11199951 .4061432 .16699219 .4161377 .18199158 .4161377 .18899536 .4161377 .19898987 .4161377 .19898987 .3951416 .19898987 .3721466 .18798828 .34614564 .18199158 .33015443 .14299011 .23016358 .12199402 .173172 .12199402 .122177127 .12199402 .008178711 .22200012-.0078125 .2809906-.0078125 .30599977-.0078125 .33999635-.0038146973 .3769989 .02218628 .34899903-.10101318 .27398683-.16615296 .20498657-.16615296 .19198609-.16615296 .1639862-.16415406 .14399719-.15213013 .17599488-.13909912 .19198609-.11204529 .19198609-.0849762 .19198609-.04890442 .16299439-.038879396 .14299011-.038879396 .10598755-.038879396 .070999149-.07095337 .070999149-.11505127 .070999149-.16615296 .12399292-.20214844 .20498657-.20214844 .31999208-.20214844 .45199586-.12506104 .48298646-.0008239746L.57699587 .3771515Z"/>
<path id="font_2_4" d="M.54499819 .31925965C.54499819 .4212494 .5419922 .65625 .29599 .65625 .051986696 .65625 .04598999 .429245 .04598999 .31925965 .04598999 .21525574 .04899597-.01171875 .29499818-.01171875 .5389862-.01171875 .54499819 .20826721 .54499819 .31925965M.29599 .028274537C.2689972 .028274537 .19999695 .040267946 .18699646 .13226319 .1789856 .18527222 .1789856 .27626039 .1789856 .33125306 .1789856 .3942566 .1789856 .47824098 .18699646 .52523806 .20199585 .60523989 .2689972 .61624148 .29499818 .61624148 .32798768 .61624148 .3909912 .600235 .4039917 .5222473 .4119873 .47424317 .4119873 .3882599 .4119873 .33125306 .4119873 .25326539 .4119873 .13426209 .3959961 .09527588 .37399293 .046279909 .32899476 .028274537 .29599 .028274537Z"/>
<path id="font_3_5" d="M.3789978 .62413027C.3789978 .6582031 .37298585 .6582031 .33299256 .6582031 .27198792 .61006167 .19198609 .5939789 .11399841 .5939789H.09199524V.5419922H.11399841C.13999939 .5419922 .19400025 .5449829 .2519989 .5619812V.051986696H.101989749V0C.13798523 .0029907227 .269989 .0029907227 .31498719 .0029907227 .3600006 .0029907227 .48999024 .0029907227 .5269928 0V.051986696H.3789978V.62413027Z"/>
<path id="font_3_6" d="M.5509949 .2280426H.49499513C.4869995 .16200257 .47399903 .14199829 .46798707 .13899231 .45700074 .1329956 .37998963 .1329956 .36299134 .1329956H.22499085C.35899354 .23805237 .41299439 .2680664 .45599366 .30108644 .526001 .35612489 .5509949 .40615846 .5509949 .46316529 .5509949 .58117678 .44198609 .6582031 .2899933 .6582031 .1619873 .6582031 .06098938 .6011963 .06098938 .50717166 .06098938 .4481659 .10899353 .4291687 .13699341 .4291687 .17199707 .4291687 .21398926 .4541626 .21398926 .50616458 .21398926 .5531616 .17999268 .5721588 .16699219 .5771637 .19499207 .5981903 .23498535 .6062012 .2659912 .6062012 .35598756 .6062012 .4059906 .5391693 .4059906 .4621582 .4059906 .38113404 .35299684 .31410218 .2939911 .25906373L.07299805 .052993776C.06199646 .041992189 .06098938 .040985109 .06098938 .020996094V0H.5179901L.5509949 .2280426Z"/>
<path id="font_4_3" d="M.2639923 .37425233C.24398804 .3732605 .23399353 .3672638 .23399353 .34825135 .23399353 .32226563 .24899292 .32226563 .2679901 .32226563H.32699586C.45599366 .32226563 .45999146 .22918701 .45999146 .18118286 .45999146 .1381836 .45700074 .0413208 .32998658 .0413208 .31399537 .0413208 .24499512 .0413208 .19198609 .076187137 .21199036 .08718872 .23199463 .111190799 .23199463 .14819336 .23199463 .19718933 .19599915 .23118592 .14898682 .23118592 .102996829 .23118592 .06498718 .20019531 .06498718 .14619446 .06498718 .04928589 .16499329-.013671875 .33399964-.013671875 .5499878-.013671875 .6269989 .093185428 .6269989 .18118286 .6269989 .24620056 .58099368 .32025147 .45498658 .3522644 .5219879 .3772583 .58898928 .4302063 .58898928 .51420596 .58898928 .59220889 .5049896 .6582031 .33699037 .6582031 .19198609 .6582031 .102996829 .59220889 .102996829 .50320437 .102996829 .45021058 .14299011 .4242096 .18099976 .4242096 .22099304 .4242096 .25898744 .45321656 .25898744 .5022125 .25898744 .5512085 .22099304 .57121279 .21299744 .57421877 .22898865 .58621218 .2709961 .6082001 .33198548 .6082001 .42099 .6082001 .43899537 .5622101 .43899537 .51620486 .43899537 .43721009 .38198854 .38024903 .32499696 .3772583L.2639923 .37425233Z"/>
<path id="font_4_2" d="M.6159973 .2220459H.54499819C.54299929 .21003723 .5339966 .1459961 .5119934 .14299011 .49198915 .13899231 .44499208 .13899231 .41099549 .13899231H.272995C.2829895 .1459961 .30699159 .16200257 .31599427 .16900635 .48298646 .28208924 .46499635 .2600708 .5209961 .30110169 .57598879 .34213258 .6159973 .38916017 .6159973 .45819093 .6159973 .581192 .5009918 .6582031 .32699586 .6582031 .17098999 .6582031 .07598877 .6031952 .07598877 .5101929 .07598877 .45018006 .12399292 .42918397 .15499878 .42918397 .19299317 .42918397 .23498535 .45518495 .23498535 .5091858 .23498535 .53318789 .22599793 .55918887 .20199585 .57418826 .24198914 .5981903 .2889862 .5981903 .2999878 .5981903 .3999939 .5981903 .46299745 .53718569 .46299745 .45718385 .46299745 .37815858 .3999939 .31210328 .33699037 .26107789L.08999634 .06098938C.07598877 .049987794 .07598877 .04499817 .07598877 .024993897V0H.5799866L.6159973 .2220459Z"/>
<path id="font_5_1" d="M.8019867 .21617127C.81599429 .21617127 .84999087 .21617127 .84999087 .25016786 .84999087 .2841797 .81599429 .2841797 .8019867 .2841797H.1499939C.13598633 .2841797 .101989749 .2841797 .101989749 .25016786 .101989749 .21617127 .13598633 .21617127 .1499939 .21617127H.8019867Z"/>
<path id="font_3_1" d="M.40699769-.23200989C.40699769-.2250061 .4039917-.22200012 .3919983-.21200562 .2649994-.09700012 .21998596 .07798767 .21998596 .25 .21998596 .42099 .2630005 .59599307 .3899994 .70899966 .4059906 .723999 .40699769 .72499087 .40699769 .7319946 .40699769 .74198916 .40098573 .75 .38598634 .75 .36698915 .75 .31399537 .70500186 .2939911 .6859894 .16899109 .56199648 .11399841 .4099884 .11399841 .25 .11399841 .16099549 .13198853 .039993287 .20599365-.07800293 .2689972-.17800904 .3639984-.25 .38598634-.25 .40098573-.25 .40699769-.2420044 .40699769-.23200989Z"/>
<path id="font_3_4" d="M.56399539 .31925965C.56399539 .4352417 .5549927 .6582031 .30599977 .6582031 .055999757 .6582031 .04798889 .4332428 .04798889 .31925965 .04798889 .20729065 .054992677-.013671875 .30599977-.013671875 .55799868-.013671875 .56399539 .20828247 .56399539 .31925965M.30599977 .028320313C.2789917 .028320313 .25099183 .03831482 .22999573 .05531311 .19799805 .08331299 .18299866 .0973053 .18299866 .33125306 .18299866 .40324403 .18299866 .4762268 .19299317 .5262146 .20599365 .5971985 .2679901 .6161957 .30599977 .6161957 .32998658 .6161957 .4059906 .610199 .42099 .515213 .42900086 .4662323 .42900086 .3892517 .42900086 .33125306 .42900086 .10231018 .4149933 .08830261 .38398744 .05831909 .37599183 .049316408 .34799195 .028320313 .30599977 .028320313Z"/>
<path id="font_6_3" d="M.22099304 .016998291C.21199036-.08493042 .1519928-.1348877 .1309967-.15187073 .11999512-.15986634 .115997318-.16287232 .115997318-.17185974 .115997318-.18086243 .12799073-.19386292 .13899231-.19386292 .15499878-.19386292 .2639923-.106918338 .2639923 .03199768 .2639923 .10499573 .22698975 .1599884 .16899109 .1599884 .12199402 .1599884 .08999634 .12399292 .08999634 .07998657 .08999634 .038986207 .11898804 0 .16999817 0 .18998719 0 .20899964 .0069885256 .22099304 .016998291Z"/>
<path id="font_3_2" d="M.36099244 .25C.36099244 .33898927 .34298707 .45999146 .2689972 .5779877 .20599365 .6779938 .11099243 .75 .08898926 .75 .07199097 .75 .067993167 .7389984 .067993167 .7319946 .067993167 .72499087 .07199097 .72099307 .08299255 .71199038 .20999146 .5970001 .25498963 .42199708 .25498963 .25 .25498963 .07899475 .21199036-.0960083 .084991458-.2090149 .07299805-.22000122 .067993167-.22401428 .067993167-.23200989 .067993167-.23901367 .07199097-.25 .08898926-.25 .10798645-.25 .16099549-.20500183 .18099976-.18600464 .30599977-.06201172 .36099244 .08999634 .36099244 .25Z"/>
<path id="font_3_7" d="M.28399659 .32714845C.3999939 .32714845 .40098573 .23034668 .40098573 .18035889 .40098573 .13534546 .40098573 .033325197 .28799439 .033325197 .2669983 .033325197 .20999146 .036315919 .1599884 .068359378 .1769867 .0753479 .21299744 .09635925 .21299744 .14535523 .21299744 .19335938 .1789856 .22634888 .13198853 .22634888 .08799744 .22634888 .050994874 .1963501 .050994874 .14434815 .050994874 .047332765 .15499878-.013671875 .29299928-.013671875 .4889984-.013671875 .5609894 .09234619 .5609894 .1793518 .5609894 .26127626 .49798585 .32914735 .3899994 .35313417 .4169922 .36413575 .5269928 .40715028 .5269928 .51615908 .5269928 .59617617 .44499208 .6582031 .29599 .6582031 .1659851 .6582031 .084991458 .58917239 .084991458 .50717166 .084991458 .45115663 .1289978 .4311676 .15899658 .4311676 .19898987 .4311676 .23298645 .45916749 .23298645 .5051575 .23298645 .52716067 .22499085 .5651703 .1769867 .5771637 .22099304 .6151886 .2809906 .6151886 .2899933 .6151886 .3829956 .6151886 .3829956 .5491638 .3829956 .51916506 .3829956 .4471588 .34899903 .41015626 .34599305 .40615846 .31698609 .37513734 .29899598 .3741455 .24499512 .37113954 .21398926 .36914063 .20399475 .36813355 .20399475 .34814454 .20399475 .32714845 .21699524 .32714845 .23498535 .32714845H.28399659Z"/>
<path id="font_7_12" d="M.7879944 .33203126C.7999878 .33203126 .82899478 .33203126 .82899478 .36203004 .82899478 .39302064 .7979889 .39302064 .7829895 .39302064H.10998535C.09498596 .39302064 .06399536 .39302064 .06399536 .36203004 .06399536 .33203126 .09298706 .33203126 .10499573 .33203126H.7879944M.7829895 .107940677C.7979889 .107940677 .82899478 .107940677 .82899478 .13893128 .82899478 .16894531 .7999878 .16894531 .7879944 .16894531H.10499573C.09298706 .16894531 .06399536 .16894531 .06399536 .13893128 .06399536 .107940677 .09498596 .107940677 .10998535 .107940677H.7829895Z"/>
<path id="font_8_1" d="M.7519989 .22024536C.7669983 .22024536 .7969971 .22024536 .7969971 .25024415 .7969971 .28125 .7679901 .28125 .7519989 .28125H.14099121C.12599182 .28125 .09599304 .28125 .09599304 .25123597 .09599304 .22024536 .125 .22024536 .14099121 .22024536H.7519989Z"/>
<path id="font_7_17" d="M.21099854 .29412843C.17399597 .30111695 .10899353 .31211854 .10899353 .3591156 .10899353 .42111207 .20199585 .42111207 .22099304 .42111207 .29599 .42111207 .33399964 .39212037 .33898927 .33711244 .33999635 .32211305 .34098817 .3171234 .3619995 .3171234 .38598634 .3171234 .38598634 .32211305 .38598634 .3451233V.42510987C.38598634 .4441223 .38598634 .453125 .36799623 .453125 .3639984 .453125 .3619995 .453125 .32299806 .43411256 .29699708 .44711305 .2619934 .453125 .22200012 .453125 .19198609 .453125 .037994386 .453125 .037994386 .32211305 .037994386 .28211976 .057998659 .25512696 .07798767 .23812866 .117996219 .203125 .1559906 .1971283 .23298645 .18312073 .2689972 .17712403 .34399415 .16412354 .34399415 .10513306 .34399415 .030136109 .2519989 .030136109 .22999573 .030136109 .12399292 .030136109 .09799194 .103134158 .085998538 .14613343 .08099365 .16012573 .07598877 .16012573 .06199646 .16012573 .037994386 .16012573 .037994386 .15412903 .037994386 .13113404V.022140503C.037994386 .0031280518 .037994386-.005859375 .055999757-.005859375 .06298828-.005859375 .06498718-.005859375 .085998538 .009140015 .08699036 .009140015 .10899353 .024139405 .11199951 .026138306 .1579895-.005859375 .20999146-.005859375 .22999573-.005859375 .26098634-.005859375 .4149933-.005859375 .4149933 .14012146 .4149933 .18312073 .394989 .21812439 .3600006 .24612427 .32099916 .27511598 .2889862 .28112794 .21099854 .29412843Z"/>
<path id="font_7_14" d="M.22399903 .4501953 .049987794 .44218446V.39518739C.10899353 .39518739 .115997318 .39518739 .115997318 .35617066V.04699707H.04699707V0C.07798767 .0009918213 .1269989 .0029907227 .16899109 .0029907227 .19898987 .0029907227 .25 .0009918213 .28599549 0V.04699707H.22399903V.4501953M.23399353 .6173096C.23399353 .66130068 .19799805 .6953125 .1559906 .6953125 .11299133 .6953125 .07798767 .66030886 .07798767 .6173096 .07798767 .5743103 .11299133 .53930667 .1559906 .53930667 .19799805 .53930667 .23399353 .5733032 .23399353 .6173096Z"/>
<path id="font_7_15" d="M.11399841 .3561554V.04699707H.04499817V0C.07299805 .0009918213 .1329956 .0029907227 .17098999 .0029907227 .20999146 .0029907227 .2689972 .0009918213 .29699708 0V.04699707H.22799683V.25610353C.22799683 .36515809 .31399537 .41418458 .3769989 .41418458 .41099549 .41418458 .43199159 .39317323 .43199159 .31713868V.04699707H.36299134V0C.3909912 .0009918213 .45098878 .0029907227 .4889984 .0029907227 .5279999 .0029907227 .58699038 .0009918213 .61499026 0V.04699707H.54599V.30613709C.54599 .41119386 .49198915 .4501953 .3919983 .4501953 .29599 .4501953 .24299622 .39317323 .21699524 .34214784V.4501953L.04499817 .44218446V.39518739C.10699463 .39518739 .11399841 .39518739 .11399841 .3561554Z"/>
<path id="font_1_1" d="M.31199647 .34832765H.42399598C.4019928 .2552948 .3909912 .1942749 .3909912 .1352539 .3909912 .067230228 .40899659-.0087890629 .45700074-.0087890629 .48999024-.0087890629 .526001 .02420044 .526001 .05621338 .526001 .068222049 .522995 .07423401 .5139923 .0892334 .46798707 .17025757 .46798707 .24728394 .46798707 .27430726 .46798707 .29830934 .46798707 .3083191 .47399903 .34832765H.59799197C.61698916 .34832765 .6329956 .34832765 .647995 .36332704 .6549988 .3703308 .66799929 .38232423 .66799929 .40533448 .66799929 .44433595 .6329956 .44433595 .61499026 .44433595H.22200012C.20098877 .44433595 .1579895 .44433595 .10499573 .3963318 .069992069 .3643341 .0309906 .31330873 .0309906 .3033142 .0309906 .28930665 .042999269 .28930665 .053985597 .28930665 .068984989 .28930665 .069992069 .29031373 .07899475 .3013153 .116989139 .34832765 .18299866 .34832765 .20199585 .34832765H.2619934C.23699951 .26930238 .19699097 .18727112 .14299011 .08622742 .1269989 .05621338 .12399292 .051223756 .12399292 .037216188 .12399292 .01020813 .1459961-.007797241 .17199707-.007797241 .19299317-.007797241 .20799256 .0032043458 .21499634 .00920105 .22999573 .02420044 .23098755 .028213501 .23599243 .049209596L.31199647 .34832765Z"/>
<path id="font_9_4" d="M.59498599 .3731079C.598999 .38909913 .598999 .394104 .598999 .3981018 .598999 .4320984 .57199099 .44410707 .5509949 .44410707 .49798585 .44410707 .48599244 .3961029 .47898866 .3701172L.45298768 .26612855C.43899537 .21113587 .42599488 .15615845 .41099549 .10116577 .4099884 .09416199 .3659973 .032180787 .30099488 .032180787 .2579956 .032180787 .23799134 .057174684 .23799134 .10417175 .23799134 .16314698 .27198792 .24913025 .29899598 .3171234 .30499269 .33111573 .31098939 .3461151 .31098939 .36210633 .31098939 .41410829 .25898744 .45210267 .19299317 .45210267 .08699036 .45210267 .032989503 .32011415 .032989503 .29612733 .032989503 .28112794 .04699707 .28112794 .05899048 .28112794 .07499695 .28112794 .07998657 .28112794 .083999637 .29512025 .11898804 .4091034 .1769867 .41210938 .18699646 .41210938 .19299317 .41210938 .20399475 .41210938 .20399475 .3901062 .20399475 .36810304 .19299317 .3421173 .18798828 .32911683 .147995 .22813416 .12799073 .17315674 .12799073 .12416077 .12799073 .0231781 .20899964-.0078125 .29299928-.0078125 .30899049-.0078125 .34700013-.0078125 .3919983 .02218628 .36999513-.08416748 .29599-.16210938 .21598816-.16210938 .21398926-.16210938 .18499756-.16210938 .16099549-.15216065 .18399048-.14016724 .20399475-.11515808 .20399475-.0851593 .20399475-.04916382 .17599488-.03515625 .1519928-.03515625 .10899353-.03515625 .07598877-.07316589 .07598877-.11416626 .07598877-.17111206 .13699341-.20211792 .21598816-.20211792 .33799745-.20211792 .47099305-.123168949 .5009918-.0018157959L.59498599 .3731079Z"/>
<path id="font_2_13" d="M.80799868 .33398438C.82199099 .33398438 .8529968 .33398438 .8529968 .36598207 .8529968 .39797975 .82199099 .39797975 .8089905 .39797975H.10998535C.09700012 .39797975 .06599426 .39797975 .06599426 .36598207 .06599426 .33398438 .09799194 .33398438 .11099243 .33398438H.80799868M.8089905 .102005008C.82199099 .102005008 .8529968 .102005008 .8529968 .13400269 .8529968 .16601563 .82099917 .16601563 .80799868 .16601563H.11099243C.09799194 .16601563 .06599426 .16601563 .06599426 .13400269 .06599426 .102005008 .09700012 .102005008 .10998535 .102005008H.8089905Z"/>
<path id="font_10_75" d="M.95899966-.0002746582V.048721315H.8909912V.30471803C.8909912 .42271424 .81999209 .4497223 .7319946 .4497223 .6279907 .4497223 .57699587 .38671876 .55799868 .3557129 .5359955 .4457245 .44799806 .4497223 .4039917 .4497223 .27999879 .4497223 .23098755 .35972596 .22399903 .34472657H.22299195V.4497223L.049987794 .44172669V.39271546C.10998535 .39271546 .117996219 .39271546 .117996219 .353714V.048721315H.049987794V-.0002746582L.17599488 .0027160645 .30299378-.0002746582V.048721315H.23498535V.25372315C.23498535 .36471559 .32699586 .40971376 .3869934 .40971376 .4249878 .40971376 .44599916 .38972474 .44599916 .3137207V.048721315H.37799073V-.0002746582L.5039978 .0027160645 .6309967-.0002746582V.048721315H.5629883V.25372315C.5629883 .36471559 .6549988 .40971376 .71499636 .40971376 .7529907 .40971376 .7739868 .38972474 .7739868 .3137207V.048721315H.70599368V-.0002746582L.83200076 .0027160645 .95899966-.0002746582Z"/>
<path id="font_10_66" d="M.2919922 0V.04899597H.23098755V.4501953L.054992677 .4423828V.39337159C.11299133 .39337159 .11999512 .39337159 .11999512 .3543396V.04899597H.051986696V0C.11898804 .0019989014 .13198853 .0029907227 .17399597 .0029907227 .22299195 .0029907227 .23599243 .0019989014 .2919922 0M.24198914 .6053314C.24198914 .65234377 .20399475 .68434146 .1639862 .68434146 .12199402 .68434146 .085998538 .6503296 .085998538 .6063385 .085998538 .55934146 .12399292 .52734377 .1639862 .52734377 .20599365 .52734377 .24198914 .56134036 .24198914 .6053314Z"/>
<path id="font_10_47" d="M.61499026 0V.04899597C.5549927 .04899597 .5469971 .04899597 .5469971 .088012699V.69433596L.36799623 .6855469V.63653567C.42799378 .63653567 .43598939 .63653567 .43598939 .5976715V.40518189C.3919983 .43719483 .34498597 .4501953 .29699708 .4501953 .13398743 .4501953 .038986207 .35118104 .038986207 .22216797 .038986207 .089141849 .1329956-.005859375 .2849884-.005859375 .34799195-.005859375 .397995 .018127442 .42999269 .044128419V-.005859375L.61499026 0M.42999269 .10899353C.4079895 .074142459 .3600006 .03413391 .29599 .03413391 .17199707 .03413391 .17199707 .15414429 .17199707 .22015381 .17199707 .27816773 .17298889 .32118226 .19898987 .3581848 .22499085 .39819337 .272995 .41018678 .30799867 .41018678 .35798646 .41018678 .39898683 .3881836 .42999269 .34918214V.10899353Z"/>
<path id="font_10_72" d="M.29899598 0V.04899597H.23098755V.69433596L.051986696 .6855469V.63653567C.11199951 .63653567 .11999512 .63653567 .11999512 .5975647V.04899597H.051986696V0L.1749878 .0029907227 .29899598 0Z"/>
<path id="font_10_77" d="M.6299896-.0002746582V.048721315H.56199648V.30471803C.56199648 .4237213 .48999024 .4497223 .40299989 .4497223 .27999879 .4497223 .23098755 .35972596 .22399903 .34472657H.22299195V.4497223L.049987794 .44172669V.39271546C.10998535 .39271546 .117996219 .39271546 .117996219 .353714V.048721315H.049987794V-.0002746582L.17599488 .0027160645 .30299378-.0002746582V.048721315H.23498535V.25372315C.23498535 .36572267 .32699586 .40971376 .3869934 .40971376 .4249878 .40971376 .44499208 .38871766 .44499208 .3137207V.048721315H.3769989V-.0002746582L.5029907 .0027160645 .6299896-.0002746582Z"/>
<path id="font_10_50" d="M.5089874 .11605835C.5089874 .13604737 .4889984 .13604737 .48298646 .13604737 .46499635 .13604737 .46299745 .13005066 .45700074 .11605835 .43399049 .06410217 .37298585 .037139894 .30999757 .037139894 .16799927 .037139894 .1659851 .16601563 .1659851 .21496582H.47599793C.49699403 .21496582 .5089874 .21496582 .5089874 .2429657 .5089874 .26498414 .5069885 .35305787 .44198609 .4071045 .39698792 .4441223 .33699037 .453125 .28799439 .453125 .116989139 .453125 .032989503 .345047 .032989503 .22497559 .032989503 .09408569 .13198853-.005859375 .3019867-.005859375 .46699525-.005859375 .5089874 .1000824 .5089874 .11605835M.41099549 .25097657H.1659851C.16799927 .29701234 .17298889 .41311646 .28799439 .41311646 .40499879 .41311646 .40899659 .29100038 .41099549 .25097657Z"/>
<path id="font_11_28" d="M.71598818 .034179689C.71598818 .06712341 .69898989 .06712341 .6779938 .06712341H.6719971C.6589966 .06712341 .621994 .06712341 .6009979 .07710266V.28977967C.6009979 .36997987 .5379944 .4560547 .32499696 .4560547 .2539978 .4560547 .10598755 .4560547 .10598755 .34791566 .10598755 .2998047 .14099121 .27172853 .18099976 .27172853 .22499085 .27172853 .2559967 .30381776 .2559967 .34692384 .2559967 .36395265 .25099183 .38000489 .24198914 .3920288 .2789917 .40003968 .30899049 .40003968 .32598878 .40003968 .41600038 .40003968 .46798707 .3659668 .46798707 .28677369V.2677307C.45498658 .26672364 .35198976 .26872254 .25299073 .25071717 .13398743 .22871399 .057998659 .19378662 .057998659 .11997986 .057998659-.0078125 .25099183-.0078125 .2899933-.0078125 .3880005-.0078125 .46099855 .015182495 .49198915 .060150148 .5 .00018310547 .56999209 .00018310547 .644989 .00018310547 .70899966 .00018310547 .71598818 .00018310547 .71598818 .034179689M.46798707 .13294983C.46798707 .10902405 .46798707 .08308411 .4169922 .06413269 .37599183 .048187257 .32299806 .048187257 .31698609 .048187257 .24598694 .048187257 .19099427 .07510376 .19099427 .12098694 .19099427 .20974732 .41999818 .21772766 .46798707 .21972656V.13294983Z"/>
<path id="font_11_75" d="M1.1799927 0V.066986087H1.1080017V.29508973C1.1080017 .44114686 .98999026 .45214845 .91400149 .45214845 .84999087 .45214845 .7630005 .43914796 .69699099 .3571167 .6689911 .42913819 .6100006 .45214845 .5109863 .45214845 .37199403 .45214845 .30799867 .38012696 .2849884 .3451233V.45214845L.09700012 .44433595V.3773346C.16099549 .3773346 .16899109 .3773346 .16899109 .33828736V.066986087H.09700012V0L.23599243 .0039978029C.272995 .0039978029 .32998658 .0029907227 .37399293 0V.066986087H.3019867V.2421875C.3019867 .36412049 .4269867 .39613343 .4869995 .39613343 .5509949 .39613343 .57199099 .37213136 .57199099 .29708863V.066986087H.5V0L.6389923 .0039978029C.6759949 .0039978029 .73298647 .0029907227 .7769928 0V.066986087H.7049866V.24206543C.7049866 .36412049 .8299866 .39613343 .8899994 .39613343 .95399478 .39613343 .97499087 .37213136 .97499087 .29708863V.066986087H.9029999V0L1.0419922 .0039978029C1.0789948 .0039978029 1.1360016 .0029907227 1.1799927 0Z"/>
<path id="font_11_84" d="M.7739868 .22314453C.7739868 .33114625 .69299319 .45214845 .48399354 .45214845 .44499208 .45214845 .36099244 .44914247 .2809906 .4081421V.45214845L.083999637 .44433595V.3773346H.100997928C.1559906 .3773346 .1559906 .37132264 .1559906 .3433075V-.12695313H.083999637V-.19395447L.22200012-.18995667 .36099244-.19395447V-.12695313H.2889862V.03718567C.31698609 .020187378 .375-.0078125 .45999146-.0078125 .6689911-.0078125 .7739868 .10119629 .7739868 .22325135V.22314453M.6239929 .22225952C.6239929 .112213138 .5499878 .048187257 .44499208 .048187257 .397995 .048187257 .33799745 .063186649 .2889862 .1282196V.32730104C.33999635 .3801422 .41799928 .39013673 .45799256 .39013673 .56799319 .39013673 .6239929 .31814576 .6239929 .22213745V.22225952Z"/>
<path id="font_11_72" d="M.36999513 0V.066986087H.2979889V.69433596L.100997928 .6855469V.61854556C.16499329 .61854556 .17298889 .61854556 .17298889 .5795746V.066986087H.100997928V0C.1459961 .0029907227 .18998719 .0039978029 .23498535 .0039978029 .23899842 .0039978029 .31698609 .0039978029 .36999513 0Z"/>
<path id="font_11_66" d="M.36299134 0V.066986087H.2979889V.45214845L.10398865 .44433595V.3773346C.1659851 .3773346 .17298889 .3773346 .17298889 .33828736V.066986087H.100997928V0C.14498902 .0029907227 .18998719 .0039978029 .23399353 .0039978029 .2769928 .0039978029 .31999208 .0029907227 .36299134 0M.3039856 .60250857C.3039856 .6505127 .2639923 .68652346 .21798706 .68652346 .16999817 .68652346 .13198853 .6485138 .13198853 .6035156 .13198853 .5555115 .17199707 .519516 .21798706 .519516 .2659912 .519516 .3039856 .5575104 .3039856 .60250857Z"/>
<path id="font_11_105" d="M.49899293 .1191864V.1671753H.41600038V.123184207C.41600038 .093185428 .4059906 .05418396 .34799195 .05418396 .2849884 .054092409 .2849884 .09408569 .2849884 .12109375V.3773346H.47499085V.44433595H.2849884V.6357422H.20199585C.19999695 .53352358 .1459961 .43632508 .04399109 .43333436V.3773346H.1519928V.11820984C.1519928 .0051727297 .26098634-.0078125 .32598878-.0078125 .39898683-.0078125 .49899293 .018173218 .49899293 .11921692V.1191864Z"/>
<path id="font_11_109" d="M.776001 .00018310547V.06718445C.71199038 .06718445 .70399478 .06718445 .70399478 .106170658V.45214845L.49899293 .44433595V.3773346C.5629883 .3773346 .57099917 .3773346 .57099917 .3383026V.15823365C.57099917 .06518555 .47399903 .048187257 .4059906 .048187257 .3019867 .048187257 .3019867 .06819153 .3019867 .112213138V.45214845L.09700012 .44433595V.3773346C.16099549 .3773346 .16899109 .3773346 .16899109 .3383026V.11820984C.16899109 .0021820069 .2899933-.0078125 .3849945-.0078125 .4189911-.0078125 .5139923-.0078125 .57899478 .05718994V-.0078125L.776001 .00018310547Z"/>
<path id="font_11_47" d="M.7549896 .00018310547V.06718445C.69099429 .06718445 .68299868 .06718445 .68299868 .10618591V.69433596L.48599244 .6855469V.61854556C.5499878 .61854556 .55799868 .61854556 .55799868 .5796814V.41114808C.5179901 .43214417 .45700074 .45214845 .37799073 .45214845 .1639862 .45214845 .06498718 .34014894 .06498718 .22116089 .06498718 .11216736 .1519928-.0078125 .3639984-.0078125 .44099427-.0078125 .5039978 .013183594 .5499878 .04118347V-.0078125L.7549896 .00018310547M.5499878 .13198853C.5 .06817627 .43499757 .048187257 .37799073 .048187257 .21499634 .048187257 .21499634 .16716004 .21499634 .22015381 .21499634 .27415467 .21499634 .39613343 .3929901 .39613343 .43699647 .39613343 .4869995 .3851471 .5289917 .3511505 .5499878 .33415223 .5499878 .33314515 .5499878 .31315614V.13198853Z"/>
<path id="font_11_50" d="M.6349945 .11022949C.6349945 .1352539 .61099246 .1352539 .5970001 .1352539H.58999636C.57099917 .1352539 .5629883 .1352539 .55400088 .12124634 .5439911 .10221863 .5159912 .05418396 .4099884 .05418396 .2829895 .05418396 .21699524 .10322571 .20799256 .19726563H.5970001C.61698916 .19726563 .6349945 .19726563 .6349945 .22921753 .6349945 .2871704 .61299136 .35508729 .57099917 .39305116 .5249939 .43304444 .46499635 .4560547 .3659973 .4560547 .14199829 .4560547 .056991579 .33311463 .056991579 .2262268 .056991579 .12023926 .14199829-.0078125 .3869934-.0078125 .4119873-.0078125 .48098756-.0078125 .54100039 .016174317 .60899356 .04335022 .6349945 .096343997 .6349945 .11035156V.11022949M.5339966 .24804688H.20799256C.20899964 .28404237 .21099854 .40003968 .36698915 .40003968 .5029907 .40003968 .5289917 .31504823 .5339966 .24804688Z"/>
<path id="font_11_82" d="M.6399994 0V.066986087H.45899964V.6232147C.45899964 .6541443 .45298768 .6611328 .42099 .6611328H.3999939C.31498719 .5972595 .18598938 .5972595 .16299439 .5972595H.13598633V.53027346H.16299439C.1749878 .53027346 .2519989 .53027346 .32499696 .55526736V.066986087H.14399719V0C.19299317 .0039978029 .33499146 .0039978029 .3919983 .0039978029 .44898988 .0039978029 .59098818 .0039978029 .6399994 0Z"/>
<path id="font_10_84" d="M.61698916 .22218323C.61698916 .354187 .526001 .4501953 .375 .4501953 .2939911 .45033265 .23899842 .41633607 .21998596 .40234376V.4501953L.040985109 .4423828V.39337159C.06098938 .39337159 .07699585 .39337159 .08999634 .39038087 .10899353 .38737489 .10899353 .3763733 .10899353 .3553772V-.14453125H.040985109V-.19354248L.16699219-.1905365 .2939911-.19354248V-.14453125H.22599793V.03942871C.2849884-.005859375 .33999635-.005859375 .35899354-.005859375 .5159912-.005859375 .61698916 .089141849 .61698916 .22216797V.22218323M.48399354 .22315979C.48399354 .08413696 .41299439 .03413391 .34700013 .03413391 .29599 .03413391 .25299073 .06314087 .22599793 .104141239V.34518434C.24398804 .3671875 .29100038 .4071808 .35899354 .4071808 .42900086 .4071808 .48399354 .34518434 .48399354 .22315979Z"/>
<path id="font_10_96" d="M.45498658 .36618043C.45498658 .41719056 .40299989 .4501953 .34399415 .4501953 .27398683 .4501953 .23098755 .39918519 .20899964 .34118653H.20799256V.4501953L.040985109 .4423828V.39337159C.100997928 .39337159 .10899353 .39337159 .10899353 .3543396V.04899597H.040985109V0L.16899109 .0029907227C.19400025 .0029907227 .2519989 .0029907227 .30499269 0V.04899597H.21998596V.21818543C.21998596 .29125978 .24699402 .40737916 .34399415 .41036988 .33299256 .39898683 .32798768 .38198854 .32798768 .3659973 .32798768 .32199098 .36299134 .3019867 .3909912 .3019867 .4229889 .3019867 .45498658 .32398988 .45498658 .3659973V.36618043Z"/>
<path id="font_10_81" d="M.55799868 .21812439C.55799868 .3491211 .46598817 .453125 .29599 .453125 .11999512 .453125 .032989503 .3441162 .032989503 .21812439 .032989503 .09413147 .12298584-.005859375 .29499818-.005859375 .47399903-.005859375 .55799868 .09913635 .55799868 .21812439M.4249878 .22912598C.4249878 .14312744 .4249878 .037139894 .29599 .037139894 .1659851 .037139894 .1659851 .14213562 .1659851 .22912598 .1659851 .3131256 .1659851 .41311646 .29499818 .41311646 .4249878 .41311646 .4249878 .3131256 .4249878 .22912598Z"/>
<path id="font_2_6" d="M.5319977 .22505188H.48098756C.47898866 .21104431 .46998597 .13999939 .45498658 .1329956 .44198609 .12799073 .36799623 .12799073 .35099793 .12799073H.20799256C.26098634 .17102051 .32099916 .2180481 .37098695 .25306703 .45498658 .31211854 .5319977 .3661499 .5319977 .46418763 .5319977 .581192 .4249878 .65625 .27999879 .65625 .1559906 .65625 .05899048 .597229 .05899048 .505188 .05899048 .45318605 .09899902 .42918397 .13398743 .42918397 .1659851 .42918397 .20799256 .4521942 .20799256 .5041809 .20799256 .5261841 .19898987 .56318667 .15499878 .5751953 .18998719 .60324099 .23498535 .60723879 .25498963 .60723879 .33699037 .60723879 .3889923 .54618838 .3889923 .46318055 .3889923 .39115907 .34599305 .32511903 .29299928 .27108766L.069992069 .050994874C.05899048 .039993287 .05899048 .038986207 .05899048 .018997193V0H.5009918L.5319977 .22505188Z"/>
</defs>
<path transform="matrix(1,0,0,-1,96.457,110.920009)" stroke-width=".79701" stroke-linecap="butt" stroke-miterlimit="10" stroke-linejoin="miter" fill="none" stroke="#000000" d="M-44.9444 0H243.37207"/>
<path transform="matrix(-1,-0,0,1,51.5126,110.920009)" d="M4.66248 0C3.28098 .25902 1.0361 1.0361-.51805 1.94269V-1.94269C1.0361-1.0361 3.28098-.25902 4.66248 0"/>
<path transform="matrix(1,0,0,-1,339.82908,110.920009)" d="M4.66248 0C3.28098 .25902 1.0361 1.0361-.51805 1.94269V-1.94269C1.0361-1.0361 3.28098-.25902 4.66248 0"/>
<use data-text="x" xlink:href="#font_1_7" transform="matrix(9.9626,0,0,-9.9626,348.211,113.134)"/>
<path transform="matrix(1,0,0,-1,96.457,110.920009)" stroke-width=".79701" stroke-linecap="butt" stroke-miterlimit="10" stroke-linejoin="miter" fill="none" stroke="#000000" d="M0-87.18146V87.18146"/>
<path transform="matrix(0,1,1,0,96.457,198.10147)" d="M4.66248 0C3.28098 .25902 1.0361 1.0361-.51805 1.94269V-1.94269C1.0361-1.0361 3.28098-.25902 4.66248 0"/>
<path transform="matrix(0,-1,-1,-0,96.457,23.738549)" d="M4.66248 0C3.28098 .25902 1.0361 1.0361-.51805 1.94269V-1.94269C1.0361-1.0361 3.28098-.25902 4.66248 0"/>
<use data-text="y" xlink:href="#font_1_8" transform="matrix(9.9626,0,0,-9.9626,93.332,13.420006)"/>
<use data-text="0" xlink:href="#font_2_4" transform="matrix(8.9664,0,0,-8.9664,84.797,120.21801)"/>
<path transform="matrix(1,0,0,-1,96.457,110.920009)" stroke-width=".79701" stroke-linecap="butt" stroke-miterlimit="10" stroke-linejoin="miter" fill="none" stroke="#000000" d="M49.60687 4.08202V-4.08202"/>
<use data-text="1" xlink:href="#font_3_5" transform="matrix(7.9701,0,0,-7.9701,143.623,123.85701)"/>
<path transform="matrix(1,0,0,-1,117.97,90.490009)" stroke-width=".3587" stroke-linecap="butt" stroke-miterlimit="10" stroke-linejoin="miter" fill="none" stroke="#000000" d="M25.653-36.924H30.534"/>
<use data-text="2" xlink:href="#font_3_6" transform="matrix(7.9701,0,0,-7.9701,143.623,135.37702)"/>
<path transform="matrix(1,0,0,-1,96.457,110.920009)" stroke-width=".79701" stroke-linecap="butt" stroke-miterlimit="10" stroke-linejoin="miter" fill="none" stroke="#000000" d="M99.21382 4.08202V-4.08202"/>
<use data-text="1" xlink:href="#font_3_5" transform="matrix(7.9701,0,0,-7.9701,193.23001,123.857)"/>
<path transform="matrix(1,0,0,-1,96.457,110.920009)" stroke-width=".79701" stroke-linecap="butt" stroke-miterlimit="10" stroke-linejoin="miter" fill="none" stroke="#000000" d="M148.82073 4.08202V-4.08202"/>
<use data-text="3" xlink:href="#font_4_3" transform="matrix(5.9776,0,0,-5.9776,243.205,122.57301)"/>
<path transform="matrix(1,0,0,-1,217.552,86.91501)" stroke-width=".3587" stroke-linecap="butt" stroke-miterlimit="10" stroke-linejoin="miter" fill="none" stroke="#000000" d="M25.653-36.924H29.798"/>
<use data-text="2" xlink:href="#font_4_2" transform="matrix(5.9776,0,0,-5.9776,243.205,128.957)"/>
<path transform="matrix(1,0,0,-1,96.457,110.920009)" stroke-width=".79701" stroke-linecap="butt" stroke-miterlimit="10" stroke-linejoin="miter" fill="none" stroke="#000000" d="M198.42766 4.08202V-4.08202"/>
<use data-text="2" xlink:href="#font_3_6" transform="matrix(7.9701,0,0,-7.9701,292.444,123.857)"/>
<path transform="matrix(1,0,0,-1,96.457,110.920009)" stroke-width=".79701" stroke-linecap="butt" stroke-miterlimit="10" stroke-linejoin="miter" fill="none" stroke="#000000" d="M2.97629 51.02432H-2.97629"/>
<use data-text="1" xlink:href="#font_3_5" transform="matrix(7.9701,0,0,-7.9701,84.880008,62.464006)"/>
<path transform="matrix(1,0,0,-1,96.457,110.920009)" stroke-width=".79701" stroke-linecap="butt" stroke-miterlimit="10" stroke-linejoin="miter" fill="none" stroke="#000000" d="M2.97629-51.02432H-2.97629"/>
<use data-text="&#x2212;" xlink:href="#font_5_1" transform="matrix(7.9701,0,0,-7.9701,77.286,163.93701)"/>
<use data-text="1" xlink:href="#font_3_5" transform="matrix(7.9701,0,0,-7.9701,84.880008,163.93701)"/>
<path transform="matrix(1,0,0,-1,96.457,110.920009)" stroke-width="1.59404" stroke-linecap="butt" stroke-miterlimit="10" stroke-linejoin="miter" fill="none" stroke="#ff1494" d="M-27.05717 38.6329-28.4685 40.01222-27.17267 38.68008-25.87675 37.28333-24.58089 35.82195-23.28499 34.30217-21.98914 32.72404-20.69322 31.0898-19.39737 29.405-18.10146 27.66957-16.80556 25.8874-15.5097 24.06169-14.21379 22.19621-12.91794 20.29262-11.62202 18.35475-10.32617 16.38652-9.03027 14.39029-7.7344 12.36989-6.4385 10.32925-5.1426 8.27072-3.84674 6.19893-2.55084 4.11626-1.25497 2.02582 .04085-.06459 1.3367-2.15819 2.63261-4.24785 3.92847-6.32973 5.22438-8.40074 6.52023-10.4585 7.81613-12.49835 9.11205-14.51717 10.4079-16.51187 11.70381-18.47775 12.99966-20.41328 14.29556-22.31456 15.59143-24.17767 16.88734-26.00108 18.18318-27.7809 19.4791-29.51167 20.77495-31.19415 22.07086-32.82526 23.36678-34.39952 24.66261-35.91617 25.95853-37.37286 27.2544-38.76573 28.5503-40.09476 29.84615-41.35526 31.14204-42.5457 32.43791-43.66606 33.73383-44.71169 35.02972-45.68176 36.32558-46.5771 37.62149-47.39151 38.91734-48.12727 40.21326-48.78204 41.5091-49.35428 42.80501-49.84323 44.10088-50.24965 45.39677-50.56886 46.69263-50.80476 47.98854-50.95581 49.28444-51.01965 50.5803-50.99785 51.8762-50.89041 53.17206-50.69731 54.46797-50.41937 55.76382-50.05576 57.05974-49.60733 58.35559-49.0771 59.65149-48.4636 60.9474-47.76758 62.24326-46.99287 63.53917-46.13724 64.83502-45.2045 66.13092-44.19781 67.42679-43.1125 68.72269-41.9571 70.01854-40.73242 71.31445-39.43608 72.6103-38.07437 73.90622-36.65036 75.20213-35.16252 76.49797-33.61705 77.79388-32.01398 79.08974-30.35718 80.38565-28.64822 81.6815-26.89333 82.9774-25.09172 84.27327-23.24805 85.56918-21.3655 86.86502-19.44553 88.16093-17.49521 89.45683-15.51375 90.7527-13.50737 92.04861-11.47687 93.34445-9.42769 94.64037-7.3629 95.93623-5.28568 97.23213-3.19911 98.52798-1.10864 99.82388 .98485 101.1198 3.0761 102.41566 5.16267 103.71156 7.24066 105.00742 9.30544 106.30333 11.35698 107.59918 13.38826 108.8951 15.39621 110.19093 17.37842 111.48685 19.33109 112.78271 21.25258 114.07861 23.1383 115.37453 24.98428 116.67038 26.78822 117.96628 28.54701 119.26215 30.2575 120.55804 31.91745 121.8539 33.52364 123.14981 35.073 124.44566 36.56395 125.74158 37.99261 127.03743 39.35669 128.33333 40.65689 129.62924 41.88702 130.9251 43.04631 132.22101 44.13474 133.51686 45.1469 134.81276 46.08429 136.10863 46.94383 137.40454 47.72394 138.70038 48.42389 139.99629 49.04364 141.29219 49.57928 142.58806 50.03085 143.88397 50.40146 145.17981 50.68254 146.47573 50.88106 147.77158 50.99472 149.06749 51.02042 150.36334 50.96124 151.65924 50.81645 152.95511 50.5852 154.25102 50.27066 155.54692 49.86969 156.84278 49.38466 158.13867 48.81783 159.43454 48.16852 160.73046 47.43666 162.02629 46.62694 163.3222 45.73705 164.61808 44.77162 165.91397 43.7299 167.20983 42.61421 168.50572 41.42691 169.80164 40.17184 171.0975 38.8467 172.3934 37.45695 173.68926 36.00415 174.98517 34.4906 176.28102 32.91945 177.57694 31.29303 178.87277 29.61288 180.16869 27.88365 181.4646 26.10773 182.76045 24.28665 184.05637 22.42589 185.35222 20.52696 186.64812 18.59299 187.94399 16.62946 189.23989 14.63551 190.53574 12.61824 191.83165 10.57996 193.1275 8.52298 194.42342 6.45276 195.71933 4.37085 197.01517 2.28119 198.31108 .18839 199.60694-1.90356 200.90285-3.99327 202.1987-6.07593 203.4946-8.14926 204.79047-10.20935 206.08638-12.25075 207.38222-14.2727 208.67813-16.26973 209.97403-18.2403 211.2699-20.17972 212.56581-22.08488 213.86165-23.95346 215.15756-25.78154 216.45342-27.56523 217.74933-29.30453 219.04518-30.9925 220.34108-32.62906 221.637-34.21033 222.93286-35.73398 224.22876-37.19925 225.52462-38.59991 226.82051-39.93594 225.41266-38.55618"/>
<path transform="matrix(-.7151,-.69894,-.69894,.7151,69.39984,72.28712)" d="M3.78581 0-2.27148 3.02866 0 0-2.27148-3.02866" fill="#ff1494"/>
<path transform="matrix(.71417,.69987,.69987,-.71417,321.86964,149.47618)" d="M3.78581 0-2.27148 3.02866 0 0-2.27148-3.02866" fill="#ff1494"/>
<path transform="matrix(1,0,0,-1,96.457,110.920009)" d="M2.2545 0C2.2545 1.24515 1.24515 2.2545 0 2.2545-1.24515 2.2545-2.2545 1.24515-2.2545 0-2.2545-1.24515-1.24515-2.2545 0-2.2545 1.24515-2.2545 2.2545-1.24515 2.2545 0ZM0 0"/>
<path transform="matrix(1,0,0,-1,96.457,110.920009)" stroke-width=".49814" stroke-linecap="butt" stroke-miterlimit="10" stroke-linejoin="miter" fill="none" stroke="#ffffff" d="M2.2545 0C2.2545 1.24515 1.24515 2.2545 0 2.2545-1.24515 2.2545-2.2545 1.24515-2.2545 0-2.2545-1.24515-1.24515-2.2545 0-2.2545 1.24515-2.2545 2.2545-1.24515 2.2545 0ZM0 0"/>
<path transform="matrix(1,0,0,-1,96.457,110.920009)" d="M51.86139-51.02432C51.86139-49.77917 50.85202-48.7698 49.60687-48.7698 48.36172-48.7698 47.35236-49.77917 47.35236-51.02432 47.35236-52.26947 48.36172-53.27884 49.60687-53.27884 50.85202-53.27884 51.86139-52.26947 51.86139-51.02432ZM49.60687-51.02432"/>
<path transform="matrix(1,0,0,-1,96.457,110.920009)" stroke-width=".49814" stroke-linecap="butt" stroke-miterlimit="10" stroke-linejoin="miter" fill="none" stroke="#ffffff" d="M51.86139-51.02432C51.86139-49.77917 50.85202-48.7698 49.60687-48.7698 48.36172-48.7698 47.35236-49.77917 47.35236-51.02432 47.35236-52.26947 48.36172-53.27884 49.60687-53.27884 50.85202-53.27884 51.86139-52.26947 51.86139-51.02432ZM49.60687-51.02432"/>
<path transform="matrix(1,0,0,-1,96.457,110.920009)" d="M101.46834 0C101.46834 1.24515 100.45897 2.2545 99.21382 2.2545 97.96867 2.2545 96.9593 1.24515 96.9593 0 96.9593-1.24515 97.96867-2.2545 99.21382-2.2545 100.45897-2.2545 101.46834-1.24515 101.46834 0ZM99.21382 0"/>
<path transform="matrix(1,0,0,-1,96.457,110.920009)" stroke-width=".49814" stroke-linecap="butt" stroke-miterlimit="10" stroke-linejoin="miter" fill="none" stroke="#ffffff" d="M101.46834 0C101.46834 1.24515 100.45897 2.2545 99.21382 2.2545 97.96867 2.2545 96.9593 1.24515 96.9593 0 96.9593-1.24515 97.96867-2.2545 99.21382-2.2545 100.45897-2.2545 101.46834-1.24515 101.46834 0ZM99.21382 0"/>
<path transform="matrix(1,0,0,-1,96.457,110.920009)" d="M151.07523 51.02432C151.07523 52.26947 150.06587 53.27884 148.82073 53.27884 147.57556 53.27884 146.56621 52.26947 146.56621 51.02432 146.56621 49.77917 147.57556 48.7698 148.82073 48.7698 150.06587 48.7698 151.07523 49.77917 151.07523 51.02432ZM148.82073 51.02432"/>
<path transform="matrix(1,0,0,-1,96.457,110.920009)" stroke-width=".49814" stroke-linecap="butt" stroke-miterlimit="10" stroke-linejoin="miter" fill="none" stroke="#ffffff" d="M151.07523 51.02432C151.07523 52.26947 150.06587 53.27884 148.82073 53.27884 147.57556 53.27884 146.56621 52.26947 146.56621 51.02432 146.56621 49.77917 147.57556 48.7698 148.82073 48.7698 150.06587 48.7698 151.07523 49.77917 151.07523 51.02432ZM148.82073 51.02432"/>
<path transform="matrix(1,0,0,-1,96.457,110.920009)" d="M200.68218 0C200.68218 1.24515 199.6728 2.2545 198.42766 2.2545 197.18251 2.2545 196.17314 1.24515 196.17314 0 196.17314-1.24515 197.18251-2.2545 198.42766-2.2545 199.6728-2.2545 200.68218-1.24515 200.68218 0ZM198.42766 0"/>
<path transform="matrix(1,0,0,-1,96.457,110.920009)" stroke-width=".49814" stroke-linecap="butt" stroke-miterlimit="10" stroke-linejoin="miter" fill="none" stroke="#ffffff" d="M200.68218 0C200.68218 1.24515 199.6728 2.2545 198.42766 2.2545 197.18251 2.2545 196.17314 1.24515 196.17314 0 196.17314-1.24515 197.18251-2.2545 198.42766-2.2545 199.6728-2.2545 200.68218-1.24515 200.68218 0ZM198.42766 0"/>
<use data-text="(" xlink:href="#font_3_1" transform="matrix(7.9701,0,0,-7.9701,71.456,105.408008)"/>
<use data-text="0" xlink:href="#font_3_4" transform="matrix(7.9701,0,0,-7.9701,75.24977,105.408008)"/>
<use data-text="," xlink:href="#font_6_3" transform="matrix(7.9701,0,0,-7.9701,80.135,105.408008)"/>
<use data-text="0" xlink:href="#font_3_4" transform="matrix(7.9701,0,0,-7.9701,84.258,105.408008)"/>
<use data-text=")" xlink:href="#font_3_2" transform="matrix(7.9701,0,0,-7.9701,89.135707,105.408008)"/>
<use data-text="(" xlink:href="#font_3_1" transform="matrix(7.9701,0,0,-7.9701,130.34,176.15799)"/>
<use data-text="1" xlink:href="#font_3_5" transform="matrix(7.9701,0,0,-7.9701,135.332,170.608)"/>
<path transform="matrix(1,0,0,-1,105.882999,137.241)" stroke-width=".3587" stroke-linecap="butt" stroke-miterlimit="10" stroke-linejoin="miter" fill="none" stroke="#000000" d="M29.449-36.924H34.331"/>
<use data-text="2" xlink:href="#font_3_6" transform="matrix(7.9701,0,0,-7.9701,135.332,182.12799)"/>
<use data-text="," xlink:href="#font_6_3" transform="matrix(7.9701,0,0,-7.9701,141.41,176.15799)"/>
<use data-text="&#x2212;" xlink:href="#font_5_1" transform="matrix(7.9701,0,0,-7.9701,145.53299,176.15799)"/>
<use data-text="1" xlink:href="#font_3_5" transform="matrix(7.9701,0,0,-7.9701,153.127,176.15799)"/>
<use data-text=")" xlink:href="#font_3_2" transform="matrix(7.9701,0,0,-7.9701,158.0047,176.15799)"/>
<use data-text="(" xlink:href="#font_3_1" transform="matrix(7.9701,0,0,-7.9701,170.688,105.408008)"/>
<use data-text="1" xlink:href="#font_3_5" transform="matrix(7.9701,0,0,-7.9701,174.48177,105.408008)"/>
<use data-text="," xlink:href="#font_6_3" transform="matrix(7.9701,0,0,-7.9701,179.367,105.408008)"/>
<use data-text="0" xlink:href="#font_3_4" transform="matrix(7.9701,0,0,-7.9701,183.49,105.408008)"/>
<use data-text=")" xlink:href="#font_3_2" transform="matrix(7.9701,0,0,-7.9701,188.3677,105.408008)"/>
<use data-text="(" xlink:href="#font_3_1" transform="matrix(7.9701,0,0,-7.9701,233.369,50.398008)"/>
<use data-text="3" xlink:href="#font_3_7" transform="matrix(7.9701,0,0,-7.9701,238.36101,44.848009)"/>
<path transform="matrix(1,0,0,-1,208.912,11.481007)" stroke-width=".3587" stroke-linecap="butt" stroke-miterlimit="10" stroke-linejoin="miter" fill="none" stroke="#000000" d="M29.449-36.924H34.331"/>
<use data-text="2" xlink:href="#font_3_6" transform="matrix(7.9701,0,0,-7.9701,238.36101,56.368009)"/>
<use data-text="," xlink:href="#font_6_3" transform="matrix(7.9701,0,0,-7.9701,244.439,50.398008)"/>
<use data-text="1" xlink:href="#font_3_5" transform="matrix(7.9701,0,0,-7.9701,248.56201,50.398008)"/>
<use data-text=")" xlink:href="#font_3_2" transform="matrix(7.9701,0,0,-7.9701,253.4397,50.398008)"/>
<use data-text="(" xlink:href="#font_3_1" transform="matrix(7.9701,0,0,-7.9701,298.441,105.408008)"/>
<use data-text="2" xlink:href="#font_3_6" transform="matrix(7.9701,0,0,-7.9701,302.23478,105.408008)"/>
<use data-text="," xlink:href="#font_6_3" transform="matrix(7.9701,0,0,-7.9701,307.12,105.408008)"/>
<use data-text="0" xlink:href="#font_3_4" transform="matrix(7.9701,0,0,-7.9701,311.243,105.408008)"/>
<use data-text=")" xlink:href="#font_3_2" transform="matrix(7.9701,0,0,-7.9701,316.12074,105.408008)"/>
<use data-text="y" xlink:href="#font_1_8" transform="matrix(9.9626,0,0,-9.9626,284.363,52.182008)" fill="#ff1494"/>
<use data-text="=" xlink:href="#font_7_12" transform="matrix(9.9626,0,0,-9.9626,293.38,52.182008)" fill="#ff1494"/>
<use data-text="&#x2212;" xlink:href="#font_8_1" transform="matrix(9.9626,0,0,-9.9626,305.058,52.182008)" fill="#ff1494"/>
<use data-text="s" xlink:href="#font_7_17" transform="matrix(9.9626,0,0,-9.9626,315.63,52.182008)" fill="#ff1494"/>
<use data-text="i" xlink:href="#font_7_14" transform="matrix(9.9626,0,0,-9.9626,320.14308,52.182008)" fill="#ff1494"/>
<use data-text="n" xlink:href="#font_7_15" transform="matrix(9.9626,0,0,-9.9626,323.32115,52.182008)" fill="#ff1494"/>
<use data-text="&#x03c0;" xlink:href="#font_1_1" transform="matrix(9.9626,0,0,-9.9626,331.357,52.182008)" fill="#ff1494"/>
<use data-text="x" xlink:href="#font_1_7" transform="matrix(9.9626,0,0,-9.9626,338.5201,52.182008)" fill="#ff1494"/>
<use data-text="y" xlink:href="#font_9_4" transform="matrix(8.9664,0,0,-8.9664,13.925997,113.97201)"/>
<use data-text="=" xlink:href="#font_2_13" transform="matrix(8.9664,0,0,-8.9664,22.275998,113.97201)"/>
<use data-text="0" xlink:href="#font_2_4" transform="matrix(8.9664,0,0,-8.9664,33.08051,113.97201)"/>
<use data-text="m" xlink:href="#font_10_75" transform="matrix(8.9664,0,0,-8.9664,8.988998,124.93101)"/>
<use data-text="i" xlink:href="#font_10_66" transform="matrix(8.9664,0,0,-8.9664,17.829869,124.93101)"/>
<use data-text="d" xlink:href="#font_10_47" transform="matrix(8.9664,0,0,-8.9664,20.779816,124.93101)"/>
<use data-text="l" xlink:href="#font_10_72" transform="matrix(8.9664,0,0,-8.9664,26.670742,124.93101)"/>
<use data-text="i" xlink:href="#font_10_66" transform="matrix(8.9664,0,0,-8.9664,29.62069,124.93101)"/>
<use data-text="n" xlink:href="#font_10_77" transform="matrix(8.9664,0,0,-8.9664,32.570638,124.93101)"/>
<use data-text="e" xlink:href="#font_10_50" transform="matrix(8.9664,0,0,-8.9664,38.461565,124.93101)"/>
<path transform="matrix(1,0,0,-1,96.457,110.920009)" stroke-width=".79701" stroke-linecap="butt" stroke-miterlimit="10" stroke-linejoin="miter" fill="none" stroke="#000000" d="M148.82073 4.66248V46.36185"/>
<path transform="matrix(0,1,1,0,245.27773,106.25752)" d="M4.66248 0C3.28098 .25902 1.0361 1.0361-.51805 1.94269V-1.94269C1.0361-1.0361 3.28098-.25902 4.66248 0"/>
<path transform="matrix(0,-1,-1,-0,245.27773,64.55815)" d="M4.66248 0C3.28098 .25902 1.0361 1.0361-.51805 1.94269V-1.94269C1.0361-1.0361 3.28098-.25902 4.66248 0"/>
<use data-text="a" xlink:href="#font_11_28" transform="matrix(0,-4.9813,-4.9813,-0,240.79199,104.315)"/>
<use data-text="m" xlink:href="#font_11_75" transform="matrix(0,-4.9813,-4.9813,-0,240.79199,100.6388)"/>
<use data-text="p" xlink:href="#font_11_84" transform="matrix(0,-4.9813,-4.9813,-0,240.79199,94.45203)"/>
<use data-text="l" xlink:href="#font_11_72" transform="matrix(0,-4.9813,-4.9813,-0,240.79199,90.27272)"/>
<use data-text="i" xlink:href="#font_11_66" transform="matrix(0,-4.9813,-4.9813,-0,240.79199,88.100879)"/>
<use data-text="t" xlink:href="#font_11_105" transform="matrix(0,-4.9813,-4.9813,-0,240.79199,85.92902)"/>
<use data-text="u" xlink:href="#font_11_109" transform="matrix(0,-4.9813,-4.9813,-0,240.79199,82.955188)"/>
<use data-text="d" xlink:href="#font_11_47" transform="matrix(0,-4.9813,-4.9813,-0,240.79199,78.77588)"/>
<use data-text="e" xlink:href="#font_11_50" transform="matrix(0,-4.9813,-4.9813,-0,240.79199,74.59657)"/>
<use data-text="1" xlink:href="#font_11_82" transform="matrix(0,-4.9813,-4.9813,-0,240.79199,68.57417)"/>
<path transform="matrix(1,0,0,-1,96.457,110.920009)" stroke-width=".79701" stroke-linecap="butt" stroke-miterlimit="10" stroke-linejoin="miter" fill="none" stroke="#000000" d="M.59775-76.53648H197.82991"/>
<path transform="matrix(-1,-0,0,1,101.91647,187.45648)" d="M4.66248 0C3.28098 .25902 1.0361 1.0361-.51805 1.94269V-1.94269C1.0361-1.0361 3.28098-.25902 4.66248 0"/>
<path transform="matrix(-1,-0,0,1,96.8555,187.45648)" stroke-width=".79701" stroke-linecap="butt" stroke-miterlimit="10" stroke-linejoin="miter" fill="none" stroke="#000000" d="M0 3.08846V-3.08846"/>
<path transform="matrix(1,0,0,-1,289.42518,187.45648)" d="M4.66248 0C3.28098 .25902 1.0361 1.0361-.51805 1.94269V-1.94269C1.0361-1.0361 3.28098-.25902 4.66248 0"/>
<path transform="matrix(1,0,0,-1,294.48616,187.45648)" stroke-width=".79701" stroke-linecap="butt" stroke-miterlimit="10" stroke-linejoin="miter" fill="none" stroke="#000000" d="M0 3.08846V-3.08846"/>
<path transform="matrix(1,0,0,-1,96.457,110.920009)" d="M78.36227-82.01201H120.06537V-71.06098H78.36227Z" fill="#ffffff"/>
<use data-text="p" xlink:href="#font_10_84" transform="matrix(8.9664,0,0,-8.9664,176.314,189.698)"/>
<use data-text="e" xlink:href="#font_10_50" transform="matrix(8.9664,0,0,-8.9664,182.50081,189.698)"/>
<use data-text="r" xlink:href="#font_10_96" transform="matrix(8.9664,0,0,-8.9664,187.36957,189.698)"/>
<use data-text="i" xlink:href="#font_10_66" transform="matrix(8.9664,0,0,-8.9664,191.74518,189.698)"/>
<use data-text="o" xlink:href="#font_10_81" transform="matrix(8.9664,0,0,-8.9664,194.69512,189.698)"/>
<use data-text="d" xlink:href="#font_10_47" transform="matrix(8.9664,0,0,-8.9664,200.29912,189.698)"/>
<use data-text="2" xlink:href="#font_2_6" transform="matrix(8.9664,0,0,-8.9664,209.72299,189.698)"/>
</svg>
