<svg style="overflow: visible;" xmlns="http://www.w3.org/2000/svg" xmlns:xlink="http://www.w3.org/1999/xlink" xmlns:inkscape="http://www.inkscape.org/namespaces/inkscape" version="1.1" width="100%" height="100%" viewBox="0 0 355.26 253.05">
<defs>
<path id="font_1_7" d="M.5359955 .4011383C.5 .3911438 .48199464 .35714723 .48199464 .33215333 .48199464 .31015016 .49899293 .28614808 .5319977 .28614808 .5669861 .28614808 .60398867 .31515504 .60398867 .364151 .60398867 .41714479 .5509949 .45214845 .48999024 .45214845 .43299867 .45214845 .3959961 .4091339 .3829956 .3911438 .35798646 .433136 .3019867 .45214845 .24499512 .45214845 .11898804 .45214845 .050994874 .32914735 .050994874 .29615785 .050994874 .28215028 .06599426 .28215028 .07499695 .28215028 .08699036 .28215028 .09399414 .28215028 .09799194 .29515077 .1269989 .38613893 .19898987 .4161377 .23999024 .4161377 .27799989 .4161377 .29599 .39814759 .29599 .3661499 .29599 .3471527 .28199769 .29216004 .272995 .2561493L.23899842 .11917114C.22399903 .058181764 .18798828 .028182984 .1539917 .028182984 .14898682 .028182984 .12599182 .028182984 .10598755 .043182374 .14199829 .05317688 .1599884 .08717346 .1599884 .11216736 .1599884 .13417053 .14299011 .1581726 .10998535 .1581726 .07499695 .1581726 .037994386 .12916565 .037994386 .08016968 .037994386 .027175904 .09098816-.0078125 .1519928-.0078125 .20899964-.0078125 .24598694 .035186769 .25898744 .05317688 .28399659 .011184692 .33999635-.0078125 .39698792-.0078125 .522995-.0078125 .59098818 .11517334 .59098818 .14816284 .59098818 .16217041 .57598879 .16217041 .5669861 .16217041 .5549927 .16217041 .5479889 .16217041 .5439911 .14916992 .5149994 .058181764 .44299317 .028182984 .4019928 .028182984 .3639984 .028182984 .34599305 .046173097 .34599305 .07817078 .34599305 .09916687 .35899354 .15216065 .36799623 .18916321 .375 .21516419 .397995 .30915834 .40299989 .32514955 .41799928 .3851471 .45298768 .4161377 .48799134 .4161377 .49299623 .4161377 .5159912 .4161377 .5359955 .4011383Z"/>
<path id="font_1_8" d="M.57699587 .3771515C.58200076 .3951416 .58200076 .3971405 .58200076 .40014649 .58200076 .4221344 .56599429 .44413758 .5349884 .44413758 .48298646 .44413758 .47099305 .3971405 .46398927 .3701477L.43798829 .26615907C.42599488 .2181549 .40699769 .14117432 .3959961 .10017395 .3909912 .07817078 .3600006 .05418396 .35699464 .05218506 .34599305 .045181276 .32199098 .028182984 .2889862 .028182984 .22999573 .028182984 .22898865 .07817078 .22898865 .10116577 .22898865 .16217041 .2599945 .24015808 .28799439 .31214906 .2979889 .33815003 .30099488 .3451538 .30099488 .3621521 .30099488 .4201355 .24299622 .45214845 .18798828 .45214845 .08198547 .45214845 .03199768 .31614686 .03199768 .29615785 .03199768 .28215028 .04699707 .28215028 .055999757 .28215028 .067993167 .28215028 .07499695 .28215028 .07899475 .29515077 .11199951 .4061432 .16699219 .4161377 .18199158 .4161377 .18899536 .4161377 .19898987 .4161377 .19898987 .3951416 .19898987 .3721466 .18798828 .34614564 .18199158 .33015443 .14299011 .23016358 .12199402 .173172 .12199402 .122177127 .12199402 .008178711 .22200012-.0078125 .2809906-.0078125 .30599977-.0078125 .33999635-.0038146973 .3769989 .02218628 .34899903-.10101318 .27398683-.16615296 .20498657-.16615296 .19198609-.16615296 .1639862-.16415406 .14399719-.15213013 .17599488-.13909912 .19198609-.11204529 .19198609-.0849762 .19198609-.04890442 .16299439-.038879396 .14299011-.038879396 .10598755-.038879396 .070999149-.07095337 .070999149-.11505127 .070999149-.16615296 .12399292-.20214844 .20498657-.20214844 .31999208-.20214844 .45199586-.12506104 .48298646-.0008239746L.57699587 .3771515Z"/>
<path id="font_2_1" d="M.47299195 .31976319C.47299195 .38682557 .46998597 .47288514 .43499757 .5479431 .3909912 .64201357 .31498719 .6660156 .25698854 .6660156 .19699097 .6660156 .12098694 .64201357 .07699585 .5459442 .04499817 .47688294 .039993287 .39582826 .039993287 .31976319 .039993287 .25471498 .041992189 .15765381 .084991458 .07858276 .13198853-.0064697267 .20999146-.022460938 .2559967-.022460938 .32099916-.022460938 .394989 .0055389406 .43699647 .097595218 .46699525 .1646576 .47299195 .23971558 .47299195 .31976319M.25698854 .002532959C.22698975 .002532959 .15499878 .016540528 .13598633 .12962342 .12599182 .18867493 .12599182 .2747345 .12599182 .33177186 .12599182 .39982606 .12599182 .47888185 .13798523 .53393557 .1579895 .6230011 .22200012 .64100649 .2559967 .64100649 .2939911 .64100649 .35699464 .62098696 .37599183 .5279236 .3869934 .47288514 .3869934 .39482118 .3869934 .33177186 .3869934 .2697296 .3869934 .18566895 .3769989 .12661743 .35598756 .012542725 .28199769 .002532959 .25698854 .002532959Z"/>
<path id="font_3_5" d="M.3639984 .6231537C.3639984 .6452484 .3639984 .65625 .33499146 .65625 .32299806 .65625 .32099916 .65625 .31199647 .6492462 .23498535 .5919647 .12799073 .5919647 .10798645 .5919647H.08799744V.54296877H.10798645C.13198853 .54296877 .18598938 .5459595 .24198914 .56295779V.04899597H.09899902V0C.13699341 .0029907227 .2579956 .0029907227 .30299378 .0029907227 .34999085 .0029907227 .46798707 .0029907227 .5089874 0V.04899597H.3639984V.6231537Z"/>
<path id="font_3_6" d="M.5319977 .22505188H.48098756C.47898866 .21104431 .46998597 .13999939 .45498658 .1329956 .44198609 .12799073 .36799623 .12799073 .35099793 .12799073H.20799256C.26098634 .17102051 .32099916 .2180481 .37098695 .25306703 .45498658 .31211854 .5319977 .3661499 .5319977 .46418763 .5319977 .581192 .4249878 .65625 .27999879 .65625 .1559906 .65625 .05899048 .597229 .05899048 .505188 .05899048 .45318605 .09899902 .42918397 .13398743 .42918397 .1659851 .42918397 .20799256 .4521942 .20799256 .5041809 .20799256 .5261841 .19898987 .56318667 .15499878 .5751953 .18998719 .60324099 .23498535 .60723879 .25498963 .60723879 .33699037 .60723879 .3889923 .54618838 .3889923 .46318055 .3889923 .39115907 .34599305 .32511903 .29299928 .27108766L.069992069 .050994874C.05899048 .039993287 .05899048 .038986207 .05899048 .018997193V0H.5009918L.5319977 .22505188Z"/>
<path id="font_3_7" d="M.272995 .328125C.3849945 .328125 .3849945 .23036194 .3849945 .18037415 .3849945 .13537598 .3849945 .03327942 .27799989 .03327942 .2659912 .03327942 .19699097 .03527832 .15098572 .068374637 .19699097 .08137512 .20698548 .12037659 .20698548 .14337158 .20698548 .19036865 .17399597 .22238159 .12799073 .22238159 .084991458 .22238159 .04899597 .19337464 .04899597 .14237976 .04899597 .048324586 .14898682-.01171875 .2829895-.01171875 .46598817-.01171875 .5419922 .088378909 .5419922 .18037415 .5419922 .2592926 .48199464 .328125 .36898805 .35211183 .46998597 .38711549 .5089874 .45610047 .5089874 .51708987 .5089874 .5921478 .43399049 .65625 .2849884 .65625 .1619873 .65625 .08198547 .59013369 .08198547 .50909426 .08198547 .46409608 .11399841 .4360962 .1539917 .4360962 .19699097 .4360962 .22599793 .4670868 .22599793 .50808718 .22599793 .5410919 .20698548 .5700989 .16699219 .57910159 .1749878 .5861206 .21598816 .61624148 .27999879 .61624148 .36698915 .61624148 .36698915 .5510864 .36698915 .51908877 .36698915 .463089 .34599305 .3761139 .2599945 .37112428 .25698854 .37112428 .22399903 .3691101 .21299744 .3681183 .19699097 .36611939 .19699097 .3551178 .19699097 .348114 .19699097 .328125 .20799256 .328125 .22599793 .328125H.272995Z"/>
<path id="font_3_9" d="M.16799927 .503067C.20199585 .4970703 .21798706 .4970703 .23899842 .4970703 .2669983 .4970703 .33099366 .4970703 .4059906 .5470581 .42799378 .5610657 .48599244 .61006167 .48599244 .6360626 .48599244 .6400604 .48599244 .6560669 .46998597 .6560669 .46798707 .6560669 .46598817 .6560669 .45498658 .651062 .4039917 .63305667 .34899903 .6240692 .29699708 .6240692 .23498535 .6240692 .18399048 .6360626 .14099121 .651062 .12799073 .6560669 .12599182 .6560669 .12399292 .6560669 .10899353 .6560669 .10899353 .6430664 .10899353 .628067V.3332367C.10899353 .3152771 .10899353 .30130006 .1329956 .30130006 .1459961 .30130006 .147995 .30230714 .15899658 .3152771 .19999695 .36216737 .25498963 .3701477 .2939911 .3701477 .3869934 .3701477 .3869934 .28334046 .3869934 .20446778 .3869934 .13246155 .3869934 .03327942 .2619934 .03327942 .20698548 .03327942 .15899658 .05935669 .13398743 .09146118 .17599488 .095458988 .19799805 .12446594 .19799805 .16046143 .19799805 .2094574 .16099549 .23046875 .1289978 .23046875 .09799194 .23046875 .05899048 .2114563 .05899048 .15846253 .05899048 .071395877 .13999939-.01171875 .2659912-.01171875 .43699647-.01171875 .5319977 .08343506 .5319977 .20146179 .5319977 .3152771 .45098878 .41015626 .29899598 .41015626 .25299073 .41015626 .20999146 .4021454 .16799927 .3761444V.503067Z"/>
<path id="font_3_11" d="M.5649872 .59552C.57398989 .6065216 .57499697 .6125183 .57499697 .6155243V.64453127H.34700013C.32598878 .64453127 .18598938 .65052798 .1749878 .6535187 .15499878 .65852358 .1539917 .66552737 .1519928 .67652896H.100997928L.06599426 .41947938H.116989139C.12799073 .5045166 .14299011 .51052859 .14399719 .51052859 .15899658 .51652529 .23498535 .51652529 .25498963 .51652529H.42099C.31900025 .39945985 .31900025 .39746095 .2979889 .36645509 .21598816 .24238587 .19799805 .12832642 .19799805 .060302736 .19799805-.009719849 .25299073-.01171875 .2630005-.01171875 .2899933-.01171875 .30799867 .004272461 .31298829 .009277344 .32798768 .030288697 .32798768 .03529358 .32798768 .092315677 .32798768 .22137451 .33999635 .34243775 .40499879 .41548158L.5649872 .59552Z"/>
<path id="font_3_8" d="M.45799256 .6241913C.45799256 .65319827 .45498658 .6582031 .4249878 .6582031 .40098573 .6582031 .39898683 .65618899 .3889923 .6431885L.032989503 .20410156V.15509033H.32998658V.04899597H.21499634V0C.25 .0029907227 .34999085 .0029907227 .3909912 .0029907227 .43199159 .0029907227 .5209961 .0029907227 .55799868 0V.04899597H.45799256V.15509033H.55799868V.20410156H.45799256V.6241913M.34199525 .51516726V.20410156H.08999634L.34199525 .51516726Z"/>
<path id="font_4_64" d="M.2849884 .1850586V.24707031H.010986328V.1850586H.2849884Z"/>
<path id="font_4_82" d="M.43199159 0V.0309906H.3999939C.30699159 .0309906 .3039856 .042999269 .3039856 .08001709V.63912966C.3039856 .6640167 .30299378 .6660156 .27799989 .6660156 .21598816 .60227969 .12399292 .60227969 .09298706 .60227969V.57128909C.11199951 .57128909 .17298889 .57128909 .22698975 .5972748V.08001709C.22698975 .042999269 .22399903 .0309906 .1309967 .0309906H.09899902V0C.1349945 .0029907227 .22399903 .0029907227 .2649994 .0029907227 .30599977 .0029907227 .3959961 .0029907227 .43199159 0Z"/>
<path id="font_4_107" d="M.46199037 .17704773H.43399049C.43199159 .16404724 .42399598 .10501099 .41099549 .08900452 .40499879 .07998657 .33599855 .07998657 .31599427 .07998657H.13798523L.23699951 .17404175C.40098573 .3161316 .46199037 .36915589 .46199037 .4711914 .46199037 .5860901 .36698915 .6660156 .24398804 .6660156 .1289978 .6660156 .050994874 .575119 .050994874 .4841919 .050994874 .43418885 .09399414 .42919923 .102996829 .42919923 .125 .42919923 .15499878 .44519044 .15499878 .48120118 .15499878 .51119998 .13398743 .5332031 .102996829 .5332031 .09799194 .5332031 .09498596 .5332031 .09098816 .53219607 .114990238 .6030731 .1789856 .63500979 .23298645 .63500979 .33499146 .63500979 .36999513 .5401764 .36999513 .4711914 .36999513 .36915589 .29299928 .28611756 .24499512 .23408509L.06199646 .035995485C.050994874 .024993897 .050994874 .022994996 .050994874 0H.43399049L.46199037 .17704773Z"/>
<path id="font_4_106" d="M.46998597 .17008972C.46998597 .25709535 .40098573 .33110047 .30499269 .35209657 .397995 .38710023 .44198609 .46009828 .44198609 .5290985 .44198609 .60606387 .35699464 .6660156 .25299073 .6660156 .14898682 .6660156 .070999149 .60705569 .070999149 .5310974 .070999149 .49809266 .09298706 .47909547 .12199402 .47909547 .15098572 .47909547 .17199707 .50009158 .17199707 .5290985 .17199707 .5640869 .147995 .57910159 .11399841 .57910159 .13999939 .6210327 .20098877 .64100649 .25 .64100649 .33299256 .64100649 .34899903 .5750885 .34899903 .52809146 .34899903 .49809266 .34298707 .45005799 .31799317 .41201783 .2869873 .36695863 .2519989 .36495973 .22299195 .36296083 .19799805 .36094667 .19599915 .36094667 .18798828 .36094667 .1789856 .35995484 .17098999 .35894776 .17098999 .34794618 .17098999 .33496095 .1789856 .33496095 .19599915 .33496095H.24299622C.32998658 .33496095 .36799623 .2646637 .36799623 .16937256 .36799623 .04145813 .2999878 .0055389406 .24899292 .0055389406 .22999573 .0055389406 .1329956 .010528564 .08799744 .0843811 .12399292 .07939148 .1519928 .10437012 .1519928 .13838196 .1519928 .17137146 .1269989 .19238281 .09799194 .19238281 .07299805 .19238281 .042999269 .17736817 .042999269 .13537598 .042999269 .046447755 .13598633-.022460938 .2519989-.022460938 .3769989-.022460938 .46998597 .06741333 .46998597 .16937256V.17008972Z"/>
<path id="font_5_4" d="M.59498599 .3731079C.598999 .38909913 .598999 .394104 .598999 .3981018 .598999 .4320984 .57199099 .44410707 .5509949 .44410707 .49798585 .44410707 .48599244 .3961029 .47898866 .3701172L.45298768 .26612855C.43899537 .21113587 .42599488 .15615845 .41099549 .10116577 .4099884 .09416199 .3659973 .032180787 .30099488 .032180787 .2579956 .032180787 .23799134 .057174684 .23799134 .10417175 .23799134 .16314698 .27198792 .24913025 .29899598 .3171234 .30499269 .33111573 .31098939 .3461151 .31098939 .36210633 .31098939 .41410829 .25898744 .45210267 .19299317 .45210267 .08699036 .45210267 .032989503 .32011415 .032989503 .29612733 .032989503 .28112794 .04699707 .28112794 .05899048 .28112794 .07499695 .28112794 .07998657 .28112794 .083999637 .29512025 .11898804 .4091034 .1769867 .41210938 .18699646 .41210938 .19299317 .41210938 .20399475 .41210938 .20399475 .3901062 .20399475 .36810304 .19299317 .3421173 .18798828 .32911683 .147995 .22813416 .12799073 .17315674 .12799073 .12416077 .12799073 .0231781 .20899964-.0078125 .29299928-.0078125 .30899049-.0078125 .34700013-.0078125 .3919983 .02218628 .36999513-.08416748 .29599-.16210938 .21598816-.16210938 .21398926-.16210938 .18499756-.16210938 .16099549-.15216065 .18399048-.14016724 .20399475-.11515808 .20399475-.0851593 .20399475-.04916382 .17599488-.03515625 .1519928-.03515625 .10899353-.03515625 .07598877-.07316589 .07598877-.11416626 .07598877-.17111206 .13699341-.20211792 .21598816-.20211792 .33799745-.20211792 .47099305-.123168949 .5009918-.0018157959L.59498599 .3731079Z"/>
<path id="font_3_13" d="M.80799868 .33398438C.82199099 .33398438 .8529968 .33398438 .8529968 .36598207 .8529968 .39797975 .82199099 .39797975 .8089905 .39797975H.10998535C.09700012 .39797975 .06599426 .39797975 .06599426 .36598207 .06599426 .33398438 .09799194 .33398438 .11099243 .33398438H.80799868M.8089905 .102005008C.82199099 .102005008 .8529968 .102005008 .8529968 .13400269 .8529968 .16601563 .82099917 .16601563 .80799868 .16601563H.11099243C.09799194 .16601563 .06599426 .16601563 .06599426 .13400269 .06599426 .102005008 .09700012 .102005008 .10998535 .102005008H.8089905Z"/>
<path id="font_6_75" d="M.95899966-.0002746582V.048721315H.8909912V.30471803C.8909912 .42271424 .81999209 .4497223 .7319946 .4497223 .6279907 .4497223 .57699587 .38671876 .55799868 .3557129 .5359955 .4457245 .44799806 .4497223 .4039917 .4497223 .27999879 .4497223 .23098755 .35972596 .22399903 .34472657H.22299195V.4497223L.049987794 .44172669V.39271546C.10998535 .39271546 .117996219 .39271546 .117996219 .353714V.048721315H.049987794V-.0002746582L.17599488 .0027160645 .30299378-.0002746582V.048721315H.23498535V.25372315C.23498535 .36471559 .32699586 .40971376 .3869934 .40971376 .4249878 .40971376 .44599916 .38972474 .44599916 .3137207V.048721315H.37799073V-.0002746582L.5039978 .0027160645 .6309967-.0002746582V.048721315H.5629883V.25372315C.5629883 .36471559 .6549988 .40971376 .71499636 .40971376 .7529907 .40971376 .7739868 .38972474 .7739868 .3137207V.048721315H.70599368V-.0002746582L.83200076 .0027160645 .95899966-.0002746582Z"/>
<path id="font_6_66" d="M.2919922 0V.04899597H.23098755V.4501953L.054992677 .4423828V.39337159C.11299133 .39337159 .11999512 .39337159 .11999512 .3543396V.04899597H.051986696V0C.11898804 .0019989014 .13198853 .0029907227 .17399597 .0029907227 .22299195 .0029907227 .23599243 .0019989014 .2919922 0M.24198914 .6053314C.24198914 .65234377 .20399475 .68434146 .1639862 .68434146 .12199402 .68434146 .085998538 .6503296 .085998538 .6063385 .085998538 .55934146 .12399292 .52734377 .1639862 .52734377 .20599365 .52734377 .24198914 .56134036 .24198914 .6053314Z"/>
<path id="font_6_47" d="M.61499026 0V.04899597C.5549927 .04899597 .5469971 .04899597 .5469971 .088012699V.69433596L.36799623 .6855469V.63653567C.42799378 .63653567 .43598939 .63653567 .43598939 .5976715V.40518189C.3919983 .43719483 .34498597 .4501953 .29699708 .4501953 .13398743 .4501953 .038986207 .35118104 .038986207 .22216797 .038986207 .089141849 .1329956-.005859375 .2849884-.005859375 .34799195-.005859375 .397995 .018127442 .42999269 .044128419V-.005859375L.61499026 0M.42999269 .10899353C.4079895 .074142459 .3600006 .03413391 .29599 .03413391 .17199707 .03413391 .17199707 .15414429 .17199707 .22015381 .17199707 .27816773 .17298889 .32118226 .19898987 .3581848 .22499085 .39819337 .272995 .41018678 .30799867 .41018678 .35798646 .41018678 .39898683 .3881836 .42999269 .34918214V.10899353Z"/>
<path id="font_6_72" d="M.29899598 0V.04899597H.23098755V.69433596L.051986696 .6855469V.63653567C.11199951 .63653567 .11999512 .63653567 .11999512 .5975647V.04899597H.051986696V0L.1749878 .0029907227 .29899598 0Z"/>
<path id="font_6_77" d="M.6299896-.0002746582V.048721315H.56199648V.30471803C.56199648 .4237213 .48999024 .4497223 .40299989 .4497223 .27999879 .4497223 .23098755 .35972596 .22399903 .34472657H.22299195V.4497223L.049987794 .44172669V.39271546C.10998535 .39271546 .117996219 .39271546 .117996219 .353714V.048721315H.049987794V-.0002746582L.17599488 .0027160645 .30299378-.0002746582V.048721315H.23498535V.25372315C.23498535 .36572267 .32699586 .40971376 .3869934 .40971376 .4249878 .40971376 .44499208 .38871766 .44499208 .3137207V.048721315H.3769989V-.0002746582L.5029907 .0027160645 .6299896-.0002746582Z"/>
<path id="font_6_50" d="M.5089874 .11605835C.5089874 .13604737 .4889984 .13604737 .48298646 .13604737 .46499635 .13604737 .46299745 .13005066 .45700074 .11605835 .43399049 .06410217 .37298585 .037139894 .30999757 .037139894 .16799927 .037139894 .1659851 .16601563 .1659851 .21496582H.47599793C.49699403 .21496582 .5089874 .21496582 .5089874 .2429657 .5089874 .26498414 .5069885 .35305787 .44198609 .4071045 .39698792 .4441223 .33699037 .453125 .28799439 .453125 .116989139 .453125 .032989503 .345047 .032989503 .22497559 .032989503 .09408569 .13198853-.005859375 .3019867-.005859375 .46699525-.005859375 .5089874 .1000824 .5089874 .11605835M.41099549 .25097657H.1659851C.16799927 .29701234 .17298889 .41311646 .28799439 .41311646 .40499879 .41311646 .40899659 .29100038 .41099549 .25097657Z"/>
<path id="font_7_1" d="M.40699769-.23200989C.40699769-.2250061 .4039917-.22200012 .3919983-.21200562 .2649994-.09700012 .21998596 .07798767 .21998596 .25 .21998596 .42099 .2630005 .59599307 .3899994 .70899966 .4059906 .723999 .40699769 .72499087 .40699769 .7319946 .40699769 .74198916 .40098573 .75 .38598634 .75 .36698915 .75 .31399537 .70500186 .2939911 .6859894 .16899109 .56199648 .11399841 .4099884 .11399841 .25 .11399841 .16099549 .13198853 .039993287 .20599365-.07800293 .2689972-.17800904 .3639984-.25 .38598634-.25 .40098573-.25 .40699769-.2420044 .40699769-.23200989Z"/>
<path id="font_7_6" d="M.5509949 .2280426H.49499513C.4869995 .16200257 .47399903 .14199829 .46798707 .13899231 .45700074 .1329956 .37998963 .1329956 .36299134 .1329956H.22499085C.35899354 .23805237 .41299439 .2680664 .45599366 .30108644 .526001 .35612489 .5509949 .40615846 .5509949 .46316529 .5509949 .58117678 .44198609 .6582031 .2899933 .6582031 .1619873 .6582031 .06098938 .6011963 .06098938 .50717166 .06098938 .4481659 .10899353 .4291687 .13699341 .4291687 .17199707 .4291687 .21398926 .4541626 .21398926 .50616458 .21398926 .5531616 .17999268 .5721588 .16699219 .5771637 .19499207 .5981903 .23498535 .6062012 .2659912 .6062012 .35598756 .6062012 .4059906 .5391693 .4059906 .4621582 .4059906 .38113404 .35299684 .31410218 .2939911 .25906373L.07299805 .052993776C.06199646 .041992189 .06098938 .040985109 .06098938 .020996094V0H.5179901L.5509949 .2280426Z"/>
<path id="font_8_3" d="M.22099304 .016998291C.21199036-.08493042 .1519928-.1348877 .1309967-.15187073 .11999512-.15986634 .115997318-.16287232 .115997318-.17185974 .115997318-.18086243 .12799073-.19386292 .13899231-.19386292 .15499878-.19386292 .2639923-.106918338 .2639923 .03199768 .2639923 .10499573 .22698975 .1599884 .16899109 .1599884 .12199402 .1599884 .08999634 .12399292 .08999634 .07998657 .08999634 .038986207 .11898804 0 .16999817 0 .18998719 0 .20899964 .0069885256 .22099304 .016998291Z"/>
<path id="font_7_7" d="M.28399659 .32714845C.3999939 .32714845 .40098573 .23034668 .40098573 .18035889 .40098573 .13534546 .40098573 .033325197 .28799439 .033325197 .2669983 .033325197 .20999146 .036315919 .1599884 .068359378 .1769867 .0753479 .21299744 .09635925 .21299744 .14535523 .21299744 .19335938 .1789856 .22634888 .13198853 .22634888 .08799744 .22634888 .050994874 .1963501 .050994874 .14434815 .050994874 .047332765 .15499878-.013671875 .29299928-.013671875 .4889984-.013671875 .5609894 .09234619 .5609894 .1793518 .5609894 .26127626 .49798585 .32914735 .3899994 .35313417 .4169922 .36413575 .5269928 .40715028 .5269928 .51615908 .5269928 .59617617 .44499208 .6582031 .29599 .6582031 .1659851 .6582031 .084991458 .58917239 .084991458 .50717166 .084991458 .45115663 .1289978 .4311676 .15899658 .4311676 .19898987 .4311676 .23298645 .45916749 .23298645 .5051575 .23298645 .52716067 .22499085 .5651703 .1769867 .5771637 .22099304 .6151886 .2809906 .6151886 .2899933 .6151886 .3829956 .6151886 .3829956 .5491638 .3829956 .51916506 .3829956 .4471588 .34899903 .41015626 .34599305 .40615846 .31698609 .37513734 .29899598 .3741455 .24499512 .37113954 .21398926 .36914063 .20399475 .36813355 .20399475 .34814454 .20399475 .32714845 .21699524 .32714845 .23498535 .32714845H.28399659Z"/>
<path id="font_7_2" d="M.36099244 .25C.36099244 .33898927 .34298707 .45999146 .2689972 .5779877 .20599365 .6779938 .11099243 .75 .08898926 .75 .07199097 .75 .067993167 .7389984 .067993167 .7319946 .067993167 .72499087 .07199097 .72099307 .08299255 .71199038 .20999146 .5970001 .25498963 .42199708 .25498963 .25 .25498963 .07899475 .21199036-.0960083 .084991458-.2090149 .07299805-.22000122 .067993167-.22401428 .067993167-.23200989 .067993167-.23901367 .07199097-.25 .08898926-.25 .10798645-.25 .16099549-.20500183 .18099976-.18600464 .30599977-.06201172 .36099244 .08999634 .36099244 .25Z"/>
<path id="font_7_9" d="M.17599488 .5010834C.20799256 .49609376 .24198914 .49609376 .24798584 .49609376 .27398683 .49609376 .34199525 .49609376 .4169922 .54408267 .44299317 .56108096 .5029907 .611084 .5029907 .63708499 .5029907 .65208438 .49499513 .65808108 .4850006 .65808108 .48298646 .65808108 .48098756 .65808108 .46998597 .65309146 .42099 .63609316 .3619995 .6260834 .30699159 .6260834 .2619934 .6260834 .20498657 .6320801 .13999939 .65408328 .13198853 .65808108 .12998963 .65808108 .1269989 .65808108 .10998535 .65808108 .10998535 .64108279 .10998535 .62709048V.33319093C.10998535 .3142395 .10998535 .29927064 .13699341 .29927064 .1519928 .29927064 .15499878 .30126954 .16499329 .31323243 .20498657 .36112977 .2669983 .3701172 .30599977 .3701172 .4019928 .3701172 .4019928 .27931214 .4019928 .20341492 .4019928 .13441468 .4019928 .033325197 .27198792 .033325197 .21998596 .033325197 .16999817 .055358888 .14299011 .089416507 .18499756 .09541321 .20498657 .12741089 .20498657 .16041565 .20498657 .2064209 .16899109 .23242188 .1329956 .23242188 .101989749 .23242188 .06098938 .2124176 .06098938 .15841675 .06098938 .068374637 .1459961-.013671875 .27598573-.013671875 .45399476-.013671875 .5509949 .08340454 .5509949 .20141602 .5509949 .31323243 .47099305 .41210938 .30999757 .41210938 .2619934 .41210938 .21598816 .4031067 .17599488 .3781128V.5010834Z"/>
<path id="font_7_5" d="M.3789978 .62413027C.3789978 .6582031 .37298585 .6582031 .33299256 .6582031 .27198792 .61006167 .19198609 .5939789 .11399841 .5939789H.09199524V.5419922H.11399841C.13999939 .5419922 .19400025 .5449829 .2519989 .5619812V.051986696H.101989749V0C.13798523 .0029907227 .269989 .0029907227 .31498719 .0029907227 .3600006 .0029907227 .48999024 .0029907227 .5269928 0V.051986696H.3789978V.62413027Z"/>
<path id="font_9_1" d="M.8019867 .21617127C.81599429 .21617127 .84999087 .21617127 .84999087 .25016786 .84999087 .2841797 .81599429 .2841797 .8019867 .2841797H.1499939C.13598633 .2841797 .101989749 .2841797 .101989749 .25016786 .101989749 .21617127 .13598633 .21617127 .1499939 .21617127H.8019867Z"/>
<path id="font_7_11" d="M.58299258 .5925293C.59498599 .6045227 .59498599 .6065216 .59498599 .6265259V.64453127H.36299134C.33198548 .64453127 .27198792 .647522 .23899842 .6495209 .22898865 .65052798 .21699524 .6495209 .20599365 .65052798 .1639862 .6535187 .16299439 .66352847 .1619873 .67652896H.10598755L.067993167 .41648866H.12399292C.1329956 .4855194 .14698792 .5035248 .1519928 .5055237 .1639862 .5115204 .24699402 .5115204 .2649994 .5115204H.42799378C.31698609 .3874817 .31698609 .38546754 .28599549 .3364563 .21499634 .21839905 .20498657 .10935974 .20498657 .061340333 .20498657-.013671875 .2659912-.013671875 .272995-.013671875 .30299378-.013671875 .31999208 .0043182375 .32398988 .00932312 .33999635 .026321412 .33999635 .04133606 .33999635 .08634949 .33999635 .11135864 .33999635 .15737915 .34498597 .21440125 .35798646 .34545899 .40899659 .401474 .41099549 .40348817L.58299258 .5925293Z"/>
<path id="font_3_14" d="M.49198915 .11613464C.49198915 .13212586 .47698976 .13212586 .46598817 .13212586 .44599916 .13212586 .44599916 .13113404 .43798829 .11312866 .41799928 .06512451 .37298585 .037139894 .31399537 .037139894 .17199707 .037139894 .17199707 .18112183 .17199707 .22612 .17199707 .28611756 .17298889 .41011048 .3039856 .41011048 .31098939 .41011048 .36499024 .40911866 .36499024 .40411378 .36499024 .40312196 .36299134 .40011598 .3619995 .39912416 .35299684 .38812257 .34899903 .3721161 .34899903 .35812379 .34899903 .3171234 .37998963 .29312135 .4139862 .29312135 .44499208 .29312135 .47898866 .31411744 .47898866 .3591156 .47898866 .453125 .33898927 .453125 .2999878 .453125 .10798645 .453125 .038986207 .33111573 .038986207 .22212219 .038986207 .09613037 .1289978-.005859375 .29499818-.005859375 .33198548-.005859375 .3809967 .0001373291 .4229889 .026138306 .47999574 .06112671 .49198915 .11312866 .49198915 .11613464Z"/>
<path id="font_3_17" d="M.55799868 .21812439C.55799868 .3491211 .46598817 .453125 .29599 .453125 .11999512 .453125 .032989503 .3441162 .032989503 .21812439 .032989503 .09413147 .12298584-.005859375 .29499818-.005859375 .47399903-.005859375 .55799868 .09913635 .55799868 .21812439M.29599 .037139894C.1659851 .037139894 .1659851 .14213562 .1659851 .22912598 .1659851 .3131256 .1659851 .41311646 .29499818 .41311646 .4249878 .41311646 .4249878 .3131256 .4249878 .22912598 .4249878 .14312744 .4249878 .037139894 .29599 .037139894Z"/>
<path id="font_3_18" d="M.39698792 .42411805C.39698792 .4421234 .39698792 .453125 .3769989 .453125 .36698915 .453125 .35099793 .44511415 .33299256 .43511964 .30099488 .44911195 .2619934 .453125 .22898865 .453125 .19799805 .453125 .038986207 .453125 .038986207 .32112123 .038986207 .21612549 .16999817 .19412232 .20498657 .18812561 .2869873 .1741333 .35299684 .16313172 .35299684 .10612488 .35299684 .03413391 .25898744 .03413391 .23699951 .03413391 .18598938 .03413391 .12098694 .0471344 .09199524 .13912964 .08699036 .15612793 .085998538 .15913391 .06498718 .15913391 .038986207 .15913391 .038986207 .15312195 .038986207 .12913513V.023132325C.038986207 .005126953 .038986207-.005859375 .05899048-.005859375 .06599426-.005859375 .067993167-.005859375 .08999634 .008132935L.116989139 .025131226C.1639862-.005859375 .21699524-.005859375 .23699951-.005859375 .2669983-.005859375 .4269867-.005859375 .4269867 .14012146 .4269867 .19113159 .397995 .22312927 .37998963 .23812866 .33499146 .27612306 .30299378 .28112794 .22399903 .29412843 .17599488 .30212403 .11299133 .31211854 .11299133 .3571167 .11299133 .41711427 .20599365 .41711427 .22799683 .41711427 .33999635 .41711427 .34399415 .35812379 .34599305 .33111573 .34700013 .3171234 .36099244 .3171234 .37098695 .3171234 .3959961 .3171234 .39698792 .3221283 .39698792 .3461151V.42411805Z"/>
<path id="font_5_1" d="M.32299806 .34472657H.43499757C.41799928 .27182008 .4039917 .20892334 .4039917 .14102173 .4039917 .070114139 .42399598-.0087890629 .47499085-.0087890629 .5039978-.0087890629 .5439911 .021194458 .5439911 .058135988 .5439911 .07211304 .5399933 .07810974 .5339966 .08909607 .4869995 .1659851 .48399354 .23487854 .48399354 .27581788 .48399354 .29179383 .48399354 .3127594 .4889984 .34472657H.61698916C.6349945 .34472657 .651001 .34472657 .6669922 .35972596 .6879883 .37872315 .6879883 .40072633 .6879883 .40272523 .6879883 .4437256 .6499939 .4437256 .6339874 .4437256H.22698975C.20298767 .4437256 .16299439 .4437256 .102996829 .39071656 .08099365 .37171937 .03199768 .31576539 .03199768 .30278016 .03199768 .2868042 .04798889 .2868042 .056991579 .2868042 .07299805 .2868042 .07398987 .2868042 .083999637 .29878236 .12199402 .34472657 .18598938 .34472657 .20799256 .34472657H.2689972C.23999024 .26083375 .20999146 .19593811 .147995 .083099368 .13598633 .06112671 .1309967 .053146364 .1309967 .03816223 .1309967 .015197754 .14898682-.007797241 .18099976-.007797241 .21499634-.007797241 .23399353 .019195557 .23799134 .026184082 .24499512 .03616333 .2579956 .09109497 .25898744 .09307861L.32299806 .34472657Z"/>
<path id="font_3_1" d="M.3929901-.23400879C.3929901-.22801209 .3899994-.2250061 .37799073-.2130127 .24699402-.0900116 .21099854 .08799744 .21099854 .25 .21099854 .4169922 .25 .59098818 .37399293 .71099856 .3919983 .7279968 .3929901 .72898867 .3929901 .73498538 .3929901 .746994 .38198854 .75 .37298585 .75 .35198976 .75 .29899598 .69999697 .28799439 .68899539 .18798828 .5950012 .10998535 .43998719 .10998535 .25 .10998535 .008987427 .23199463-.13800049 .28399659-.18701172 .2919922-.19400025 .35099793-.25 .37298585-.25 .3769989-.25 .3929901-.25 .3929901-.23400879Z"/>
<path id="font_5_3" d="M.5499878 .39736939C.5169983 .38838197 .49299623 .35838319 .49299623 .32537843 .49299623 .28938294 .5209961 .27539063 .54499819 .27539063 .58299258 .27539063 .62098696 .30638124 .62098696 .35838319 .62098696 .41610719 .56399539 .45210267 .5029907 .45210267 .45498658 .45210267 .4169922 .4250946 .3919983 .39338685 .37799073 .41111756 .34399415 .45210267 .25 .45210267 .117996219 .45210267 .04899597 .3303833 .04899597 .29638673 .04899597 .28138734 .06298828 .28138734 .07499695 .28138734 .09098816 .28138734 .09599304 .28138734 .099990848 .29537965 .1329956 .39338685 .21299744 .41210938 .24398804 .41210938 .30299378 .41210938 .30299378 .37438966 .30299378 .36138917 .30299378 .3423767 .2889862 .28637696 .27999879 .24926758 .27198792 .21914673 .25299073 .14093018 .24699402 .11993408 .23098755 .056930543 .19198609 .032180787 .16099549 .032180787 .13999939 .032180787 .12098694 .04005432 .11099243 .046951295 .14399719 .05593872 .16799927 .0859375 .16799927 .11894226 .16799927 .15493775 .13999939 .16894531 .115997318 .16894531 .07798767 .16894531 .039993287 .13793946 .039993287 .0859375 .039993287 .028182984 .09700012-.0078125 .1579895-.0078125 .20599365-.0078125 .24398804 .019180298 .2689972 .050933839 .2829895 .03315735 .31698609-.0078125 .41099549-.0078125 .54299929-.0078125 .6119995 .11393738 .6119995 .14793396 .6119995 .16394043 .59498599 .16394043 .58599856 .16394043 .56799319 .16394043 .5649872 .16093445 .5609894 .14894104 .5279999 .050933839 .44799806 .032180787 .4169922 .032180787 .35798646 .032180787 .35798646 .06993103 .35798646 .08293152 .35798646 .10194397 .37199403 .15794373 .3809967 .1950531 .3889923 .22517395 .4079895 .3033905 .4139862 .3243866 .42999269 .38739015 .46899415 .41210938 .5 .41210938 .5209961 .41210938 .5399933 .40423585 .5499878 .39736939Z"/>
<path id="font_10_1" d="M.7749939 .21821594C.78900149 .21821594 .82099917 .21821594 .82099917 .25021363 .82099917 .28222657 .78900149 .28222657 .7749939 .28222657H.14399719C.12998963 .28222657 .09799194 .28222657 .09799194 .25021363 .09799194 .21821594 .12998963 .21821594 .14399719 .21821594H.7749939Z"/>
<path id="font_3_2" d="M.34899903 .25C.34899903 .4909973 .22698975 .6380005 .1749878 .68699648 .16699219 .69400027 .10798645 .75 .085998538 .75 .07899475 .75 .06599426 .74798586 .06599426 .73399356 .06599426 .7279968 .069992069 .723999 .07998657 .71398928 .20199585 .59599307 .24798584 .43699647 .24798584 .25 .24798584 .08299255 .20899964-.09100342 .084991458-.2110138 .066986087-.22801209 .06599426-.2290039 .06599426-.23400879 .06599426-.2480011 .07798767-.25 .085998538-.25 .10699463-.25 .1599884-.2000122 .17098999-.18901062 .2709961-.09500122 .34899903 .05999756 .34899903 .25Z"/>
<path id="font_3_3" d="M.49198915 .21821594H.8089905C.82199099 .21821594 .8529968 .21821594 .8529968 .25021363 .8529968 .28222657 .82199099 .28222657 .8089905 .28222657H.49198915V.6000366C.49198915 .61302188 .49198915 .64401248 .45999146 .64401248 .42799378 .64401248 .42799378 .61302188 .42799378 .6000366V.28222657H.10998535C.09700012 .28222657 .06599426 .28222657 .06599426 .25021363 .06599426 .21821594 .09700012 .21821594 .10998535 .21821594H.42799378V-.10003662C.42799378-.11305237 .42799378-.14405823 .45999146-.14405823 .49198915-.14405823 .49198915-.11305237 .49198915-.10003662V.21821594Z"/>
<path id="font_11_28" d="M.58898928 .025985718C.58898928 .051986696 .57299807 .051986696 .5589905 .051986696 .49699403 .051986696 .49699403 .06199646 .49699403 .085006717V.29605104C.49699403 .38606263 .4249878 .45507813 .2619934 .45507813 .21299744 .45507813 .069992069 .45507813 .069992069 .35606385 .069992069 .31204225 .10398865 .28804017 .13699341 .28804017 .1769867 .28804017 .20498657 .31704713 .20498657 .35505677 .20498657 .3870697 .18399048 .4060669 .18399048 .4060669 .19198609 .4080658 .22099304 .41307069 .2599945 .41307069 .33999635 .41307069 .375 .36906434 .375 .29704286V.2680359C.22499085 .26704408 .02999878 .23402405 .02999878 .11199951 .02999878 .027160645 .12599182-.0068359377 .23498535-.0068359377 .33799745-.0068359377 .3809967 .04815674 .3939972 .06816101 .3939972 .037994386 .40499879 0 .5019989 0H.5549927C.57398989 0 .58898928 0 .58898928 .025985718M.375 .13699341C.375 .03515625 .25498963 .03515625 .25099183 .03515625 .19898987 .03515625 .1519928 .066207889 .1519928 .11427307 .1519928 .1843872 .24499512 .22746277 .375 .23046875V.13699341Z"/>
<path id="font_11_75" d="M.98999026 0V.051986696H.923996V.3034973C.923996 .42315675 .8509979 .45117188 .7589874 .45117188 .6539917 .45117188 .598999 .39059449 .5779877 .35958863 .55400088 .4371643 .4869995 .45117188 .4189911 .45117188 .2979889 .45117188 .24398804 .3715973 .23199463 .34959413H.23098755V.45117188L.055999757 .44335938V.39135743C.114990238 .39135743 .12199402 .39135743 .12199402 .35231019V.051986696H.055999757V0C.10998535 .0029907227 .14498902 .0029907227 .18299866 .0029907227 .22200012 .0029907227 .2559967 .0029907227 .30999757 0V.051986696H.24398804V.25320436C.24398804 .36413575 .33999635 .40916444 .4039917 .40916444 .43899537 .40916444 .46199037 .39215089 .46199037 .31411744V.051986696H.3959961V0C.44999696 .0029907227 .4850006 .0029907227 .522995 .0029907227 .56199648 .0029907227 .59599307 .0029907227 .6499939 0V.051986696H.58399966V.25308229C.58399966 .36413575 .6799927 .40916444 .74398806 .40916444 .7789917 .40916444 .8019867 .39215089 .8019867 .31411744V.051986696H.73599246V0C.7899933 .0029907227 .82499697 .0029907227 .86299136 .0029907227 .9019928 .0029907227 .9359894 .0029907227 .98999026 0Z"/>
<path id="font_11_84" d="M.6389923 .22315979C.6389923 .3481598 .5499878 .45117188 .3889923 .45117188 .33198548 .45117188 .27598573 .43615724 .22799683 .40415956V.45117188L.04598999 .44335938V.39135743C.06498718 .39135743 .08299255 .39135743 .09498596 .38835145 .11199951 .38534547 .11199951 .37434388 .11199951 .35533143V-.14160156H.04598999V-.19360352C.099990848-.1906128 .1349945-.1906128 .17298889-.1906128 .21199036-.1906128 .24598694-.1906128 .2999878-.19360352V-.14160156H.23399353V.03715515C.28599549-.0008392334 .33499146-.0068359377 .36999513-.0068359377 .5339966-.0068359377 .6389923 .08818054 .6389923 .2232666V.22315979M.5039978 .2232666C.5039978 .08918762 .43299867 .03515625 .3600006 .03515625 .31498719 .03515625 .2669983 .057174684 .23399353 .10620117V.34233094C.25099183 .36315919 .30099488 .40415956 .37199403 .40415956 .45098878 .40415956 .5039978 .3371582 .5039978 .22315979V.2232666Z"/>
<path id="font_11_72" d="M.30699159 0V.051986696H.24099732V.69433596L.05899048 .6855469V.6335449C.117996219 .6335449 .125 .6335449 .125 .594574V.051986696H.05899048V0C.116989139 .0029907227 .1269989 .0029907227 .18299866 .0029907227 .23899842 .0029907227 .24899292 .0029907227 .30699159 0Z"/>
<path id="font_11_66" d="M.2999878 0V.051986696H.24099732V.45117188L.06199646 .44335938V.39135743C.117996219 .39135743 .125 .39135743 .125 .35331727V.051986696H.05899048V0C.116989139 .0029907227 .12799073 .0029907227 .18099976 .0029907227 .22200012 .0029907227 .25099183 .0029907227 .2999878 0M.25099183 .6053772C.25099183 .6503906 .21299744 .685379 .17098999 .685379 .12599182 .685379 .08999634 .64938357 .08999634 .6053772 .08999634 .560379 .12799073 .5253906 .16999817 .5253906 .21499634 .5253906 .25099183 .5613861 .25099183 .6053772Z"/>
<path id="font_11_105" d="M.40699769 .12319946V.17422486H.35099793V.12519837C.35099793 .056167604 .31298829 .040161134 .2899933 .040161134 .23199463 .040161134 .23098755 .093185428 .23098755 .12019348V.39233399H.3869934V.44433595H.23098755V.6357422H.1749878C.17399597 .53652957 .12298584 .43632508 .022994996 .43432618V.39233399H.10899353V.12319946C.10899353 .02015686 .18998719-.0068359377 .2749939-.0068359377 .35099793-.0068359377 .40699769 .044158937 .40699769 .12319946Z"/>
<path id="font_11_109" d="M.6499939 .00015258789V.05215454C.59098818 .05215454 .58399966 .05215454 .58399966 .091033939V.45117188L.3959961 .443161V.39115907C.45498658 .39115907 .46199037 .39115907 .46199037 .35214234V.1620636C.46199037 .08604431 .40899659 .03515625 .32798768 .03515625 .24699402 .03515625 .24398804 .05809021 .24398804 .10903931V.45117188L.055999757 .443161V.39115907C.114990238 .39115907 .12199402 .39115907 .12199402 .35214234V.123046878C.12199402 .011154175 .21598816-.0068359377 .31399537-.0068359377 .34700013-.0068359377 .4139862-.0068359377 .46798707 .06303406V-.0068359377L.6499939 .00015258789Z"/>
<path id="font_11_47" d="M.6339874 0V.051986696C.57499697 .051986696 .56799319 .051986696 .56799319 .09101868V.69433596L.38598634 .6855469V.6335449C.44499208 .6335449 .45199586 .6335449 .45199586 .5946808V.40815736C.397995 .4451599 .34599305 .45117188 .30899049 .45117188 .13999939 .45117188 .040985109 .35116578 .040985109 .22215271 .040985109 .091156009 .13798523-.0068359377 .29699708-.0068359377 .36999513-.007003784 .41999818 .021987915 .44599916 .041992189V-.0068359377L.6339874 0M.44599916 .11099243C.39898683 .045150758 .33999635 .03515625 .30599977 .03515625 .17599488 .03515625 .17599488 .15916443 .17599488 .21916199 .17599488 .28216554 .17599488 .40916444 .31900025 .40916444 .36499024 .40916444 .4119873 .39016725 .44599916 .34716798V.11099243Z"/>
<path id="font_11_50" d="M.526001 .11508179C.526001 .13604737 .5049896 .13604737 .49798585 .13604737 .48098756 .13604737 .47698976 .13404846 .46899415 .11706543 .43699647 .04714966 .35198976 .040161134 .32398988 .040161134 .17599488 .040161134 .17098999 .15603638 .16899109 .2119751H.49198915C.5130005 .2119751 .526001 .2119751 .526001 .2409668 .526001 .28399659 .5159912 .35003663 .46598817 .3990631 .4099884 .45507813 .31999208 .45507813 .29699708 .45507813 .11898804 .45507813 .033996583 .34402467 .033996583 .2259674 .033996583 .09609985 .13398743-.0068359377 .31199647-.0068359377 .48799134-.0068359377 .526001 .10108948 .526001 .11508179M.42799378 .25097657H.16899109C.16999817 .29100038 .17399597 .41307069 .2979889 .41307069 .42199708 .41307069 .4269867 .2899933 .42799378 .25097657Z"/>
<path id="font_11_107" d="M.5509949 .22802735H.49499513C.4869995 .16200257 .47399903 .14199829 .46798707 .13899231 .45700074 .1329956 .37998963 .1329956 .36299134 .1329956H.22499085C.35899354 .23803711 .41299439 .26805116 .45599366 .30107118 .526001 .35609437 .5509949 .40611268 .5509949 .46313478 .5509949 .581192 .44198609 .6582031 .2899933 .6582031 .1619873 .6579895 .06098938 .6009979 .06098938 .5069885 .06098938 .4481659 .10899353 .4291687 .13699341 .4291687 .17199707 .42912293 .21398926 .45413209 .21398926 .5061493 .21398926 .5531769 .17999268 .57218936 .16699219 .57717898 .19499207 .5981903 .23498535 .6062012 .2659912 .6062012 .35598756 .6062012 .4059906 .5391693 .4059906 .46214295 .4059906 .38110353 .35299684 .31407167 .2939911 .25904847L.07299805 .052993776C.06199646 .041992189 .06098938 .040985109 .06098938 .020996094V0H.5179901L.5509949 .22802735Z"/>
<path id="font_6_84" d="M.61698916 .22218323C.61698916 .354187 .526001 .4501953 .375 .4501953 .2939911 .45033265 .23899842 .41633607 .21998596 .40234376V.4501953L.040985109 .4423828V.39337159C.06098938 .39337159 .07699585 .39337159 .08999634 .39038087 .10899353 .38737489 .10899353 .3763733 .10899353 .3553772V-.14453125H.040985109V-.19354248L.16699219-.1905365 .2939911-.19354248V-.14453125H.22599793V.03942871C.2849884-.005859375 .33999635-.005859375 .35899354-.005859375 .5159912-.005859375 .61698916 .089141849 .61698916 .22216797V.22218323M.48399354 .22315979C.48399354 .08413696 .41299439 .03413391 .34700013 .03413391 .29599 .03413391 .25299073 .06314087 .22599793 .104141239V.34518434C.24398804 .3671875 .29100038 .4071808 .35899354 .4071808 .42900086 .4071808 .48399354 .34518434 .48399354 .22315979Z"/>
<path id="font_6_96" d="M.45498658 .36618043C.45498658 .41719056 .40299989 .4501953 .34399415 .4501953 .27398683 .4501953 .23098755 .39918519 .20899964 .34118653H.20799256V.4501953L.040985109 .4423828V.39337159C.100997928 .39337159 .10899353 .39337159 .10899353 .3543396V.04899597H.040985109V0L.16899109 .0029907227C.19400025 .0029907227 .2519989 .0029907227 .30499269 0V.04899597H.21998596V.21818543C.21998596 .29125978 .24699402 .40737916 .34399415 .41036988 .33299256 .39898683 .32798768 .38198854 .32798768 .3659973 .32798768 .32199098 .36299134 .3019867 .3909912 .3019867 .4229889 .3019867 .45498658 .32398988 .45498658 .3659973V.36618043Z"/>
<path id="font_6_81" d="M.55799868 .21812439C.55799868 .3491211 .46598817 .453125 .29599 .453125 .11999512 .453125 .032989503 .3441162 .032989503 .21812439 .032989503 .09413147 .12298584-.005859375 .29499818-.005859375 .47399903-.005859375 .55799868 .09913635 .55799868 .21812439M.4249878 .22912598C.4249878 .14312744 .4249878 .037139894 .29599 .037139894 .1659851 .037139894 .1659851 .14213562 .1659851 .22912598 .1659851 .3131256 .1659851 .41311646 .29499818 .41311646 .4249878 .41311646 .4249878 .3131256 .4249878 .22912598Z"/>
</defs>
<path transform="matrix(1,0,0,-1,102.126,172.148)" stroke-width=".79701" stroke-linecap="butt" stroke-miterlimit="10" stroke-linejoin="miter" fill="none" stroke="#000000" d="M-59.11783 0H229.19869"/>
<path transform="matrix(-1,-0,0,1,43.00817,172.148)" d="M4.66248 0C3.28098 .25902 1.0361 1.0361-.51805 1.94269V-1.94269C1.0361-1.0361 3.28098-.25902 4.66248 0"/>
<path transform="matrix(1,0,0,-1,331.32469,172.148)" d="M4.66248 0C3.28098 .25902 1.0361 1.0361-.51805 1.94269V-1.94269C1.0361-1.0361 3.28098-.25902 4.66248 0"/>
<use data-text="x" xlink:href="#font_1_7" transform="matrix(9.9626,0,0,-9.9626,339.70603,174.362)"/>
<path transform="matrix(1,0,0,-1,102.126,172.148)" stroke-width=".79701" stroke-linecap="butt" stroke-miterlimit="10" stroke-linejoin="miter" fill="none" stroke="#000000" d="M0-70.17279V148.40988"/>
<path transform="matrix(0,1,1,0,102.126,242.32079)" d="M4.66248 0C3.28098 .25902 1.0361 1.0361-.51805 1.94269V-1.94269C1.0361-1.0361 3.28098-.25902 4.66248 0"/>
<path transform="matrix(0,-1,-1,-0,102.126,23.738114)" d="M4.66248 0C3.28098 .25902 1.0361 1.0361-.51805 1.94269V-1.94269C1.0361-1.0361 3.28098-.25902 4.66248 0"/>
<use data-text="y" xlink:href="#font_1_8" transform="matrix(9.9626,0,0,-9.9626,99.001,13.418991)"/>
<use data-text="0" xlink:href="#font_2_1" transform="matrix(8.9664,0,0,-8.9664,104.229,181.446)"/>
<path transform="matrix(1,0,0,-1,102.126,172.148)" stroke-width=".79701" stroke-linecap="butt" stroke-miterlimit="10" stroke-linejoin="miter" fill="none" stroke="#000000" d="M21.26009 2.72131V-2.72131"/>
<use data-text="1" xlink:href="#font_3_5" transform="matrix(8.9664,0,0,-8.9664,120.734,187.20099)"/>
<path transform="matrix(1,0,0,-1,89.412,92.855998)" stroke-width=".3786" stroke-linecap="butt" stroke-miterlimit="10" stroke-linejoin="miter" fill="none" stroke="#000000" d="M31.322-97.903H36.627"/>
<use data-text="2" xlink:href="#font_3_6" transform="matrix(8.9664,0,0,-8.9664,120.734,199.081)"/>
<path transform="matrix(1,0,0,-1,102.126,172.148)" stroke-width=".79701" stroke-linecap="butt" stroke-miterlimit="10" stroke-linejoin="miter" fill="none" stroke="#000000" d="M42.5202 2.72131V-2.72131"/>
<use data-text="1" xlink:href="#font_3_5" transform="matrix(8.9664,0,0,-8.9664,141.99399,187.20099)"/>
<path transform="matrix(1,0,0,-1,102.126,172.148)" stroke-width=".79701" stroke-linecap="butt" stroke-miterlimit="10" stroke-linejoin="miter" fill="none" stroke="#000000" d="M63.7803 2.72131V-2.72131"/>
<use data-text="3" xlink:href="#font_3_7" transform="matrix(8.9664,0,0,-8.9664,163.25402,187.20099)"/>
<path transform="matrix(1,0,0,-1,131.932,92.855998)" stroke-width=".3786" stroke-linecap="butt" stroke-miterlimit="10" stroke-linejoin="miter" fill="none" stroke="#000000" d="M31.322-97.903H36.627"/>
<use data-text="2" xlink:href="#font_3_6" transform="matrix(8.9664,0,0,-8.9664,163.25402,199.081)"/>
<path transform="matrix(1,0,0,-1,102.126,172.148)" stroke-width=".79701" stroke-linecap="butt" stroke-miterlimit="10" stroke-linejoin="miter" fill="none" stroke="#000000" d="M85.04042 2.72131V-2.72131"/>
<use data-text="2" xlink:href="#font_3_6" transform="matrix(8.9664,0,0,-8.9664,184.514,187.20099)"/>
<path transform="matrix(1,0,0,-1,102.126,172.148)" stroke-width=".79701" stroke-linecap="butt" stroke-miterlimit="10" stroke-linejoin="miter" fill="none" stroke="#000000" d="M106.3005 2.72131V-2.72131"/>
<use data-text="5" xlink:href="#font_3_9" transform="matrix(8.9664,0,0,-8.9664,205.774,187.20099)"/>
<path transform="matrix(1,0,0,-1,174.452,92.855998)" stroke-width=".3786" stroke-linecap="butt" stroke-miterlimit="10" stroke-linejoin="miter" fill="none" stroke="#000000" d="M31.322-97.903H36.627"/>
<use data-text="2" xlink:href="#font_3_6" transform="matrix(8.9664,0,0,-8.9664,205.774,199.081)"/>
<path transform="matrix(1,0,0,-1,102.126,172.148)" stroke-width=".79701" stroke-linecap="butt" stroke-miterlimit="10" stroke-linejoin="miter" fill="none" stroke="#000000" d="M127.56062 2.72131V-2.72131"/>
<use data-text="3" xlink:href="#font_3_7" transform="matrix(8.9664,0,0,-8.9664,227.034,187.20099)"/>
<path transform="matrix(1,0,0,-1,102.126,172.148)" stroke-width=".79701" stroke-linecap="butt" stroke-miterlimit="10" stroke-linejoin="miter" fill="none" stroke="#000000" d="M148.82074 2.72131V-2.72131"/>
<use data-text="7" xlink:href="#font_3_11" transform="matrix(8.9664,0,0,-8.9664,248.29502,187.20099)"/>
<path transform="matrix(1,0,0,-1,216.973,92.855998)" stroke-width=".3786" stroke-linecap="butt" stroke-miterlimit="10" stroke-linejoin="miter" fill="none" stroke="#000000" d="M31.322-97.903H36.627"/>
<use data-text="2" xlink:href="#font_3_6" transform="matrix(8.9664,0,0,-8.9664,248.29502,199.081)"/>
<path transform="matrix(1,0,0,-1,102.126,172.148)" stroke-width=".79701" stroke-linecap="butt" stroke-miterlimit="10" stroke-linejoin="miter" fill="none" stroke="#000000" d="M170.08086 2.72131V-2.72131"/>
<use data-text="4" xlink:href="#font_3_8" transform="matrix(8.9664,0,0,-8.9664,269.554,187.20099)"/>
<path transform="matrix(1,0,0,-1,102.126,172.148)" stroke-width=".79701" stroke-linecap="butt" stroke-miterlimit="10" stroke-linejoin="miter" fill="none" stroke="#000000" d="M2.5511-34.01608H-2.5511"/>
<use data-text="-" xlink:href="#font_4_64" transform="matrix(8.9664,0,0,-8.9664,85.337,209.15)"/>
<use data-text="1" xlink:href="#font_4_82" transform="matrix(8.9664,0,0,-8.9664,88.412479,209.15)"/>
<path transform="matrix(1,0,0,-1,102.126,172.148)" stroke-width=".79701" stroke-linecap="butt" stroke-miterlimit="10" stroke-linejoin="miter" fill="none" stroke="#000000" d="M2.5511 34.01608H-2.5511"/>
<use data-text="1" xlink:href="#font_4_82" transform="matrix(8.9664,0,0,-8.9664,88.412,141.118)"/>
<path transform="matrix(1,0,0,-1,102.126,172.148)" stroke-width=".79701" stroke-linecap="butt" stroke-miterlimit="10" stroke-linejoin="miter" fill="none" stroke="#000000" d="M2.5511 68.03217H-2.5511"/>
<use data-text="2" xlink:href="#font_4_107" transform="matrix(8.9664,0,0,-8.9664,88.412,107.102)"/>
<path transform="matrix(1,0,0,-1,102.126,172.148)" stroke-width=".79701" stroke-linecap="butt" stroke-miterlimit="10" stroke-linejoin="miter" fill="none" stroke="#000000" d="M2.5511 102.04825H-2.5511"/>
<use data-text="3" xlink:href="#font_4_106" transform="matrix(8.9664,0,0,-8.9664,88.412,72.98699)"/>
<path transform="matrix(1,0,0,-1,102.126,172.148)" stroke-width="1.19553" stroke-linecap="butt" stroke-dasharray="2.98883,2.98883" stroke-miterlimit="10" stroke-linejoin="miter" fill="none" stroke="#cc0000" d="M-47.83603 34.01608H209.41298"/>
<path transform="matrix(-1,-0,0,1,54.28997,138.13191)" d="M3.18808 0-1.91284 2.55046 0 0-1.91284-2.55046" fill="#cc0000"/>
<path transform="matrix(1,0,0,-1,311.53898,138.13191)" d="M3.18808 0-1.91284 2.55046 0 0-1.91284-2.55046" fill="#cc0000"/>
<use data-text="y" xlink:href="#font_5_4" transform="matrix(8.9664,0,0,-8.9664,13.925999,135.515)" fill="#cc0000"/>
<use data-text="=" xlink:href="#font_3_13" transform="matrix(8.9664,0,0,-8.9664,22.274998,135.515)" fill="#cc0000"/>
<use data-text="1" xlink:href="#font_3_5" transform="matrix(8.9664,0,0,-8.9664,33.07951,135.515)" fill="#cc0000"/>
<use data-text="m" xlink:href="#font_6_75" transform="matrix(8.9664,0,0,-8.9664,8.987999,146.474)" fill="#cc0000"/>
<use data-text="i" xlink:href="#font_6_66" transform="matrix(8.9664,0,0,-8.9664,17.828869,146.474)" fill="#cc0000"/>
<use data-text="d" xlink:href="#font_6_47" transform="matrix(8.9664,0,0,-8.9664,20.778817,146.474)" fill="#cc0000"/>
<use data-text="l" xlink:href="#font_6_72" transform="matrix(8.9664,0,0,-8.9664,26.669743,146.474)" fill="#cc0000"/>
<use data-text="i" xlink:href="#font_6_66" transform="matrix(8.9664,0,0,-8.9664,29.61969,146.474)" fill="#cc0000"/>
<use data-text="n" xlink:href="#font_6_77" transform="matrix(8.9664,0,0,-8.9664,32.569639,146.474)" fill="#cc0000"/>
<use data-text="e" xlink:href="#font_6_50" transform="matrix(8.9664,0,0,-8.9664,38.460565,146.474)" fill="#cc0000"/>
<path transform="matrix(1,0,0,-1,102.126,172.148)" stroke-width="1.59404" stroke-linecap="butt" stroke-miterlimit="10" stroke-linejoin="miter" fill="none" stroke="#0000ff" d="M-7.23338 92.62157-7.543 91.75247-6.58212 94.15877-5.62125 96.26192-4.66037 98.05261-3.69946 99.51945-2.7386 100.65718-1.77771 101.45859-.81683 101.92055 .14401 102.04095 1.1049 101.81776 2.06578 101.25305 3.02667 100.35095 3.98755 99.1146 4.94844 97.54916 5.9093 95.66502 6.87021 93.46739 7.83109 90.97182 8.79196 88.18974 9.75284 85.1326 10.71375 81.82004 11.6746 78.26666 12.6355 74.48906 13.59637 70.50798 14.55727 66.34421 15.51814 62.01642 16.47903 57.5485 17.4399 52.96118 18.4008 48.28044 19.36168 43.52496 20.32256 38.7238 21.28343 33.89772 22.24434 29.07166 23.2052 24.27257 24.16609 19.52124 25.12697 14.84256 26.08786 10.26044 27.04874 5.79977 28.00963 1.47925 28.97049-2.67722 29.9314-6.64789 30.89227-10.41512 31.85315-13.95708 32.81403-17.2582 33.77493-20.30186 34.7358-23.06943 35.69669-25.55045 36.6576-27.73148 37.61845-29.60004 38.57935-31.1499 39.54022-32.36964 40.50111-33.25722 41.46199-33.80429 42.42288-34.01088 43.38374-33.87383 44.34465-33.3953 45.30553-32.57831 46.2664-31.42393 47.22728-29.94154 48.18819-28.1353 49.14905-26.01656 50.10994-23.59468 51.07082-20.8832 52.03171-17.8935 52.99258-14.64429 53.95348-11.14801 54.91434-7.42645 55.87524-3.49521 56.83612 .62491 57.797 4.91324 58.75787 9.349 59.71878 13.90828 60.67964 18.5693 61.64053 23.30713 62.60141 28.09999 63.5623 32.92088 64.52318 37.748 65.48407 42.55746 66.44493 47.32228 67.40584 52.02171 68.36671 56.63083 69.32759 61.1247 70.28847 65.48157 71.24937 69.68167 72.21024 73.70114 73.17113 77.52028 74.13203 81.12036 75.0929 84.48378 76.05379 87.59389 77.01466 90.43306 77.97556 92.9878 78.93643 95.24356 79.89732 97.1931 80.85818 98.82289 81.81909 100.12776 82.77997 101.09943 83.74084 101.7316 84.70172 102.02333 85.66263 101.97348 86.62349 101.58005 87.58438 100.84717 88.54526 99.77794 89.50615 98.37651 90.46703 96.65225 91.42792 94.61137 92.38878 92.2632 93.34969 89.62231 94.31056 86.70322 95.27144 83.51732 96.23232 80.08226 97.19322 76.41472 98.15408 72.53435 99.11497 68.45985 100.07585 64.21092 101.03674 59.81152 101.99762 55.28233 102.95851 50.64313 103.91937 45.92293 104.88028 41.1415 105.84116 36.32372 106.80203 31.4987 107.76291 26.68196 108.72382 21.90157 109.6847 17.1845 110.64557 12.5515 111.60648 8.02544 112.56734 3.63225 113.52823-.60933 114.4891-4.67552 115.45-8.54759 116.41087-12.20477 117.37177-15.62946 118.33263-18.80495 119.29353-21.71368 120.25441-24.34003 121.21529-26.67262 122.17616-28.70003 123.13707-30.41182 124.09793-31.7987 125.05882-32.85443 126.0197-33.5728 126.98059-33.94963 127.94147-33.98595 128.90236-33.67868 129.86322-33.03091 130.82413-32.04578 131.785-30.72844 132.74588-29.08307 133.70676-27.12003 134.66767-24.84975 135.62853-22.28151 136.58942-19.42989 137.5503-16.30939 138.51119-12.9356 139.47206-9.32512 140.43296-5.49664 141.39382-1.46887 142.35472 2.73741 143.3156 7.10258 144.27648 11.6006 145.23735 16.21388 146.19826 20.91643 147.15914 25.68436 148.12001 30.49486 149.08092 35.32199 150.04178 40.14287 151.00267 44.93365 151.96355 49.66939 152.92444 54.32625 153.88532 58.87932 154.8462 63.30988 155.80709 67.592 156.76798 71.70386 157.72885 75.6268 158.68975 79.339 159.6506 82.82387 160.61151 86.06271 161.57239 89.03995 162.53327 91.74 163.49414 94.14735 164.45505 96.25258 165.41591 98.04329 166.3768 99.51218 167.33768 100.65201 168.29857 101.45547 169.25945 101.9195 170.22034 102.04199 171.1812 101.81985 172.1421 101.25824 173.10298 100.35616 174.06386 99.12186 175.02474 97.55954 175.98564 95.6754 176.9465 93.47986 177.9074 90.98637 178.86827 88.20532 179.82917 85.15022 180.79004 81.83871 181.75093 78.28638 181.77838 78.17862"/>
<path transform="matrix(-.3356,.94196,.94196,.3356,94.89263,79.52641)" d="M3.78581 0-2.27148 3.02866 0 0-2.27148-3.02866" fill="#0000ff"/>
<path transform="matrix(.24657,.96909,.96909,-.24657,283.90437,93.96937)" d="M3.78581 0-2.27148 3.02866 0 0-2.27148-3.02866" fill="#0000ff"/>
<path transform="matrix(1,0,0,-1,102.126,172.148)" d="M87.29494 102.04825C87.29494 103.2934 86.28557 104.30276 85.04042 104.30276 83.79527 104.30276 82.7859 103.2934 82.7859 102.04825 82.7859 100.8031 83.79527 99.79373 85.04042 99.79373 86.28557 99.79373 87.29494 100.8031 87.29494 102.04825ZM85.04042 102.04825"/>
<path transform="matrix(1,0,0,-1,102.126,172.148)" stroke-width=".49814" stroke-linecap="butt" stroke-miterlimit="10" stroke-linejoin="miter" fill="none" stroke="#ffffff" d="M87.29494 102.04825C87.29494 103.2934 86.28557 104.30276 85.04042 104.30276 83.79527 104.30276 82.7859 103.2934 82.7859 102.04825 82.7859 100.8031 83.79527 99.79373 85.04042 99.79373 86.28557 99.79373 87.29494 100.8031 87.29494 102.04825ZM85.04042 102.04825"/>
<path transform="matrix(1,0,0,-1,102.126,172.148)" d="M108.55502 34.01608C108.55502 35.26123 107.54565 36.27058 106.3005 36.27058 105.05536 36.27058 104.04599 35.26123 104.04599 34.01608 104.04599 32.77094 105.05536 31.76157 106.3005 31.76157 107.54565 31.76157 108.55502 32.77094 108.55502 34.01608ZM106.3005 34.01608"/>
<path transform="matrix(1,0,0,-1,102.126,172.148)" stroke-width=".49814" stroke-linecap="butt" stroke-miterlimit="10" stroke-linejoin="miter" fill="none" stroke="#ffffff" d="M108.55502 34.01608C108.55502 35.26123 107.54565 36.27058 106.3005 36.27058 105.05536 36.27058 104.04599 35.26123 104.04599 34.01608 104.04599 32.77094 105.05536 31.76157 106.3005 31.76157 107.54565 31.76157 108.55502 32.77094 108.55502 34.01608ZM106.3005 34.01608"/>
<path transform="matrix(1,0,0,-1,102.126,172.148)" d="M129.81514-34.01608C129.81514-32.77094 128.80577-31.76157 127.56062-31.76157 126.31548-31.76157 125.30612-32.77094 125.30612-34.01608 125.30612-35.26123 126.31548-36.27058 127.56062-36.27058 128.80577-36.27058 129.81514-35.26123 129.81514-34.01608ZM127.56062-34.01608"/>
<path transform="matrix(1,0,0,-1,102.126,172.148)" stroke-width=".49814" stroke-linecap="butt" stroke-miterlimit="10" stroke-linejoin="miter" fill="none" stroke="#ffffff" d="M129.81514-34.01608C129.81514-32.77094 128.80577-31.76157 127.56062-31.76157 126.31548-31.76157 125.30612-32.77094 125.30612-34.01608 125.30612-35.26123 126.31548-36.27058 127.56062-36.27058 128.80577-36.27058 129.81514-35.26123 129.81514-34.01608ZM127.56062-34.01608"/>
<path transform="matrix(1,0,0,-1,102.126,172.148)" d="M151.07524 34.01608C151.07524 35.26123 150.06589 36.27058 148.82074 36.27058 147.57558 36.27058 146.56623 35.26123 146.56623 34.01608 146.56623 32.77094 147.57558 31.76157 148.82074 31.76157 150.06589 31.76157 151.07524 32.77094 151.07524 34.01608ZM148.82074 34.01608"/>
<path transform="matrix(1,0,0,-1,102.126,172.148)" stroke-width=".49814" stroke-linecap="butt" stroke-miterlimit="10" stroke-linejoin="miter" fill="none" stroke="#ffffff" d="M151.07524 34.01608C151.07524 35.26123 150.06589 36.27058 148.82074 36.27058 147.57558 36.27058 146.56623 35.26123 146.56623 34.01608 146.56623 32.77094 147.57558 31.76157 148.82074 31.76157 150.06589 31.76157 151.07524 32.77094 151.07524 34.01608ZM148.82074 34.01608"/>
<path transform="matrix(1,0,0,-1,102.126,172.148)" d="M44.77472-34.01608C44.77472-32.77094 43.76535-31.76157 42.5202-31.76157 41.27505-31.76157 40.26569-32.77094 40.26569-34.01608 40.26569-35.26123 41.27505-36.27058 42.5202-36.27058 43.76535-36.27058 44.77472-35.26123 44.77472-34.01608ZM42.5202-34.01608"/>
<path transform="matrix(1,0,0,-1,102.126,172.148)" stroke-width=".49814" stroke-linecap="butt" stroke-miterlimit="10" stroke-linejoin="miter" fill="none" stroke="#ffffff" d="M44.77472-34.01608C44.77472-32.77094 43.76535-31.76157 42.5202-31.76157 41.27505-31.76157 40.26569-32.77094 40.26569-34.01608 40.26569-35.26123 41.27505-36.27058 42.5202-36.27058 43.76535-36.27058 44.77472-35.26123 44.77472-34.01608ZM42.5202-34.01608"/>
<path transform="matrix(1,0,0,-1,102.126,172.148)" d="M23.51459 34.01608C23.51459 35.26123 22.50523 36.27058 21.26009 36.27058 20.01494 36.27058 19.00557 35.26123 19.00557 34.01608 19.00557 32.77094 20.01494 31.76157 21.26009 31.76157 22.50523 31.76157 23.51459 32.77094 23.51459 34.01608ZM21.26009 34.01608"/>
<path transform="matrix(1,0,0,-1,102.126,172.148)" stroke-width=".49814" stroke-linecap="butt" stroke-miterlimit="10" stroke-linejoin="miter" fill="none" stroke="#ffffff" d="M23.51459 34.01608C23.51459 35.26123 22.50523 36.27058 21.26009 36.27058 20.01494 36.27058 19.00557 35.26123 19.00557 34.01608 19.00557 32.77094 20.01494 31.76157 21.26009 31.76157 22.50523 31.76157 23.51459 32.77094 23.51459 34.01608ZM21.26009 34.01608"/>
<path transform="matrix(1,0,0,-1,102.126,172.148)" d="M66.03482 34.01608C66.03482 35.26123 65.02545 36.27058 63.7803 36.27058 62.53516 36.27058 61.52579 35.26123 61.52579 34.01608 61.52579 32.77094 62.53516 31.76157 63.7803 31.76157 65.02545 31.76157 66.03482 32.77094 66.03482 34.01608ZM63.7803 34.01608"/>
<path transform="matrix(1,0,0,-1,102.126,172.148)" stroke-width=".49814" stroke-linecap="butt" stroke-miterlimit="10" stroke-linejoin="miter" fill="none" stroke="#ffffff" d="M66.03482 34.01608C66.03482 35.26123 65.02545 36.27058 63.7803 36.27058 62.53516 36.27058 61.52579 35.26123 61.52579 34.01608 61.52579 32.77094 62.53516 31.76157 63.7803 31.76157 65.02545 31.76157 66.03482 32.77094 66.03482 34.01608ZM63.7803 34.01608"/>
<use data-text="(" xlink:href="#font_7_1" transform="matrix(7.9701,0,0,-7.9701,176.436,61.732995)"/>
<use data-text="2" xlink:href="#font_7_6" transform="matrix(7.9701,0,0,-7.9701,180.22977,61.732995)"/>
<use data-text="," xlink:href="#font_8_3" transform="matrix(7.9701,0,0,-7.9701,185.11499,61.732995)"/>
<use data-text="3" xlink:href="#font_7_7" transform="matrix(7.9701,0,0,-7.9701,189.239,61.732995)"/>
<use data-text=")" xlink:href="#font_7_2" transform="matrix(7.9701,0,0,-7.9701,194.1167,61.732995)"/>
<use data-text="(" xlink:href="#font_7_1" transform="matrix(7.9701,0,0,-7.9701,213.37702,153.749)"/>
<use data-text="5" xlink:href="#font_7_9" transform="matrix(7.9701,0,0,-7.9701,218.37001,148.19899)"/>
<path transform="matrix(1,0,0,-1,183.251,53.604997)" stroke-width=".3587" stroke-linecap="butt" stroke-miterlimit="10" stroke-linejoin="miter" fill="none" stroke="#000000" d="M35.119-98.152H40.001"/>
<use data-text="2" xlink:href="#font_7_6" transform="matrix(7.9701,0,0,-7.9701,218.37001,159.72)"/>
<use data-text="," xlink:href="#font_8_3" transform="matrix(7.9701,0,0,-7.9701,224.447,153.749)"/>
<use data-text="1" xlink:href="#font_7_5" transform="matrix(7.9701,0,0,-7.9701,228.57102,153.749)"/>
<use data-text=")" xlink:href="#font_7_2" transform="matrix(7.9701,0,0,-7.9701,233.4487,153.749)"/>
<use data-text="(" xlink:href="#font_7_1" transform="matrix(7.9701,0,0,-7.9701,215.16501,219.92)"/>
<use data-text="3" xlink:href="#font_7_7" transform="matrix(7.9701,0,0,-7.9701,218.95877,219.92)"/>
<use data-text="," xlink:href="#font_8_3" transform="matrix(7.9701,0,0,-7.9701,223.844,219.92)"/>
<use data-text="&#x2212;" xlink:href="#font_9_1" transform="matrix(7.9701,0,0,-7.9701,227.968,219.92)"/>
<use data-text="1" xlink:href="#font_7_5" transform="matrix(7.9701,0,0,-7.9701,235.561,219.92)"/>
<use data-text=")" xlink:href="#font_7_2" transform="matrix(7.9701,0,0,-7.9701,240.4387,219.92)"/>
<use data-text="(" xlink:href="#font_7_1" transform="matrix(7.9701,0,0,-7.9701,255.90201,153.749)"/>
<use data-text="7" xlink:href="#font_7_11" transform="matrix(7.9701,0,0,-7.9701,260.895,148.19899)"/>
<path transform="matrix(1,0,0,-1,225.776,53.604997)" stroke-width=".3587" stroke-linecap="butt" stroke-miterlimit="10" stroke-linejoin="miter" fill="none" stroke="#000000" d="M35.119-98.152H40.001"/>
<use data-text="2" xlink:href="#font_7_6" transform="matrix(7.9701,0,0,-7.9701,260.895,159.72)"/>
<use data-text="," xlink:href="#font_8_3" transform="matrix(7.9701,0,0,-7.9701,266.972,153.749)"/>
<use data-text="1" xlink:href="#font_7_5" transform="matrix(7.9701,0,0,-7.9701,271.096,153.749)"/>
<use data-text=")" xlink:href="#font_7_2" transform="matrix(7.9701,0,0,-7.9701,275.9737,153.749)"/>
<use data-text="(" xlink:href="#font_7_1" transform="matrix(7.9701,0,0,-7.9701,130.114,219.92)"/>
<use data-text="1" xlink:href="#font_7_5" transform="matrix(7.9701,0,0,-7.9701,133.90776,219.92)"/>
<use data-text="," xlink:href="#font_8_3" transform="matrix(7.9701,0,0,-7.9701,138.793,219.92)"/>
<use data-text="&#x2212;" xlink:href="#font_9_1" transform="matrix(7.9701,0,0,-7.9701,142.91699,219.92)"/>
<use data-text="1" xlink:href="#font_7_5" transform="matrix(7.9701,0,0,-7.9701,150.51,219.92)"/>
<use data-text=")" xlink:href="#font_7_2" transform="matrix(7.9701,0,0,-7.9701,155.3877,219.92)"/>
<use data-text="(" xlink:href="#font_7_1" transform="matrix(7.9701,0,0,-7.9701,101.666,153.749)"/>
<use data-text="1" xlink:href="#font_7_5" transform="matrix(7.9701,0,0,-7.9701,106.659,148.19899)"/>
<path transform="matrix(1,0,0,-1,71.54,53.604997)" stroke-width=".3587" stroke-linecap="butt" stroke-miterlimit="10" stroke-linejoin="miter" fill="none" stroke="#000000" d="M35.119-98.152H40.001"/>
<use data-text="2" xlink:href="#font_7_6" transform="matrix(7.9701,0,0,-7.9701,106.659,159.72)"/>
<use data-text="," xlink:href="#font_8_3" transform="matrix(7.9701,0,0,-7.9701,112.736,153.749)"/>
<use data-text="1" xlink:href="#font_7_5" transform="matrix(7.9701,0,0,-7.9701,116.86,153.749)"/>
<use data-text=")" xlink:href="#font_7_2" transform="matrix(7.9701,0,0,-7.9701,121.7377,153.749)"/>
<use data-text="(" xlink:href="#font_7_1" transform="matrix(7.9701,0,0,-7.9701,166.599,153.749)"/>
<use data-text="3" xlink:href="#font_7_7" transform="matrix(7.9701,0,0,-7.9701,171.592,148.19899)"/>
<path transform="matrix(1,0,0,-1,136.47299,53.604997)" stroke-width=".3587" stroke-linecap="butt" stroke-miterlimit="10" stroke-linejoin="miter" fill="none" stroke="#000000" d="M35.119-98.152H40.001"/>
<use data-text="2" xlink:href="#font_7_6" transform="matrix(7.9701,0,0,-7.9701,171.592,159.72)"/>
<use data-text="," xlink:href="#font_8_3" transform="matrix(7.9701,0,0,-7.9701,177.66899,153.749)"/>
<use data-text="1" xlink:href="#font_7_5" transform="matrix(7.9701,0,0,-7.9701,181.793,153.749)"/>
<use data-text=")" xlink:href="#font_7_2" transform="matrix(7.9701,0,0,-7.9701,186.67069,153.749)"/>
<use data-text="y" xlink:href="#font_5_4" transform="matrix(8.9664,0,0,-8.9664,233.206,38.324998)" fill="#0000ff"/>
<use data-text="=" xlink:href="#font_3_13" transform="matrix(8.9664,0,0,-8.9664,241.556,38.324998)" fill="#0000ff"/>
<use data-text="2" xlink:href="#font_3_6" transform="matrix(8.9664,0,0,-8.9664,252.3605,38.324998)" fill="#0000ff"/>
<use data-text="c" xlink:href="#font_3_14" transform="matrix(8.9664,0,0,-8.9664,259.1929,38.324998)" fill="#0000ff"/>
<use data-text="o" xlink:href="#font_3_17" transform="matrix(8.9664,0,0,-8.9664,263.90028,38.324998)" fill="#0000ff"/>
<use data-text="s" xlink:href="#font_3_18" transform="matrix(8.9664,0,0,-8.9664,269.1994,38.324998)" fill="#0000ff"/>
<use data-text="&#x03c0;" xlink:href="#font_5_1" transform="matrix(8.9664,0,0,-8.9664,274.95,38.324998)" fill="#0000ff"/>
<use data-text="(" xlink:href="#font_3_1" transform="matrix(8.9664,0,0,-8.9664,281.591,38.324998)" fill="#0000ff"/>
<use data-text="x" xlink:href="#font_5_3" transform="matrix(8.9664,0,0,-8.9664,285.71699,38.324998)" fill="#0000ff"/>
<use data-text="&#x2212;" xlink:href="#font_10_1" transform="matrix(8.9664,0,0,-8.9664,293.847,38.324998)" fill="#0000ff"/>
<use data-text="2" xlink:href="#font_3_6" transform="matrix(8.9664,0,0,-8.9664,304.147,38.324998)" fill="#0000ff"/>
<use data-text=")" xlink:href="#font_3_2" transform="matrix(8.9664,0,0,-8.9664,309.44615,38.324998)" fill="#0000ff"/>
<use data-text="+" xlink:href="#font_3_3" transform="matrix(8.9664,0,0,-8.9664,315.61503,38.324998)" fill="#0000ff"/>
<use data-text="1" xlink:href="#font_3_5" transform="matrix(8.9664,0,0,-8.9664,325.90846,38.324998)" fill="#0000ff"/>
<path transform="matrix(1,0,0,-1,102.126,172.148)" stroke-width=".79701" stroke-linecap="butt" stroke-miterlimit="10" stroke-linejoin="miter" fill="none" stroke="#000000" d="M85.04042 38.67856V97.38577"/>
<path transform="matrix(0,1,1,0,187.16641,133.46944)" d="M4.66248 0C3.28098 .25902 1.0361 1.0361-.51805 1.94269V-1.94269C1.0361-1.0361 3.28098-.25902 4.66248 0"/>
<path transform="matrix(0,-1,-1,-0,187.16641,74.76222)" d="M4.66248 0C3.28098 .25902 1.0361 1.0361-.51805 1.94269V-1.94269C1.0361-1.0361 3.28098-.25902 4.66248 0"/>
<use data-text="a" xlink:href="#font_11_28" transform="matrix(0,-7.9701,-7.9701,-0,185.644,133.01499)"/>
<use data-text="m" xlink:href="#font_11_75" transform="matrix(0,-7.9701,-7.9701,-0,185.644,128.26482)"/>
<use data-text="p" xlink:href="#font_11_84" transform="matrix(0,-7.9701,-7.9701,-0,185.644,120.12734)"/>
<use data-text="l" xlink:href="#font_11_72" transform="matrix(0,-7.9701,-7.9701,-0,185.644,114.69971)"/>
<use data-text="i" xlink:href="#font_11_66" transform="matrix(0,-7.9701,-7.9701,-0,185.644,111.98987)"/>
<use data-text="t" xlink:href="#font_11_105" transform="matrix(0,-7.9701,-7.9701,-0,185.644,109.28003)"/>
<use data-text="u" xlink:href="#font_11_109" transform="matrix(0,-7.9701,-7.9701,-0,185.644,105.48627)"/>
<use data-text="d" xlink:href="#font_11_47" transform="matrix(0,-7.9701,-7.9701,-0,185.644,100.058628)"/>
<use data-text="e" xlink:href="#font_11_50" transform="matrix(0,-7.9701,-7.9701,-0,185.644,94.63099)"/>
<use data-text="2" xlink:href="#font_11_107" transform="matrix(0,-7.9701,-7.9701,-0,185.644,86.90796)"/>
<path transform="matrix(1,0,0,-1,102.126,172.148)" stroke-width=".79701" stroke-linecap="butt" stroke-miterlimit="10" stroke-linejoin="miter" fill="none" stroke="#000000" d="M.59775-57.82721H84.44266"/>
<path transform="matrix(-1,-0,0,1,107.58547,229.9752)" d="M4.66248 0C3.28098 .25902 1.0361 1.0361-.51805 1.94269V-1.94269C1.0361-1.0361 3.28098-.25902 4.66248 0"/>
<path transform="matrix(-1,-0,0,1,102.5245,229.9752)" stroke-width=".79701" stroke-linecap="butt" stroke-miterlimit="10" stroke-linejoin="miter" fill="none" stroke="#000000" d="M0 3.08846V-3.08846"/>
<path transform="matrix(1,0,0,-1,181.70694,229.9752)" d="M4.66248 0C3.28098 .25902 1.0361 1.0361-.51805 1.94269V-1.94269C1.0361-1.0361 3.28098-.25902 4.66248 0"/>
<path transform="matrix(1,0,0,-1,186.76792,229.9752)" stroke-width=".79701" stroke-linecap="butt" stroke-miterlimit="10" stroke-linejoin="miter" fill="none" stroke="#000000" d="M0 3.08846V-3.08846"/>
<path transform="matrix(1,0,0,-1,102.126,172.148)" d="M21.66866-63.30273H63.371759V-52.3517H21.66866Z" fill="#ffffff"/>
<use data-text="p" xlink:href="#font_6_84" transform="matrix(8.9664,0,0,-8.9664,125.289,232.217)"/>
<use data-text="e" xlink:href="#font_6_50" transform="matrix(8.9664,0,0,-8.9664,131.47582,232.217)"/>
<use data-text="r" xlink:href="#font_6_96" transform="matrix(8.9664,0,0,-8.9664,136.34458,232.217)"/>
<use data-text="i" xlink:href="#font_6_66" transform="matrix(8.9664,0,0,-8.9664,140.72019,232.217)"/>
<use data-text="o" xlink:href="#font_6_81" transform="matrix(8.9664,0,0,-8.9664,143.67012,232.217)"/>
<use data-text="d" xlink:href="#font_6_47" transform="matrix(8.9664,0,0,-8.9664,149.27413,232.217)"/>
<use data-text="2" xlink:href="#font_3_6" transform="matrix(8.9664,0,0,-8.9664,158.698,232.217)"/>
</svg>
